<svg xmlns="http://www.w3.org/2000/svg" viewBox="0 0 100 100">
  <path fill="#1a73e8" d="M12.5 45.2c.8-.5 1.5-1.1 2.3-1.6 1.7-1.1 3.5-2.2 5.2-3.3 1.2-.8 2.4-1.6 3.6-2.4 1.1-.7 2.2-1.4 3.3-2.1l3.5-2.2c1.2-.8 2.3-1.5 3.5-2.2h4.8c1.6 0 3.2.1 4.8.3s3.1.5 4.7.9c1.5.4 3 .9 4.5 1.4 1.4.5 2.8 1.1 4.2 1.7 1.3.6 2.6 1.2 3.9 1.9s2.5 1.4 3.7 2.1c1.2.7 2.4 1.4 3.6 2.1l3.3 2c1.1.7 2.2 1.4 3.3 2.1s2.2 1.4 3.3 2.2c1.1.7 2.2 1.5 3.3 2.2l3.2 2.1c1 .7 2.1 1.4 3.1 2.1l3 2c1 .7 1.9 1.4 2.9 2.1s1.9 1.4 2.8 2.1.9.7 1.3 1c.5.3 1 .7 1.5 1s.9.7 1.4 1.1c.5.4 1 .8 1.4 1.2.4.4.9.8 1.3 1.2.4.4.8.8 1.2 1.2s.8.8 1.2 1.2.7.8 1.1 1.1.7.7 1 .1c.3-.6.5-1.2.8-1.8.3-.6.5-1.2.8-1.8s.5-1.2.8-1.8c.4 1 .7 2.1 1.1 3.1s.7 2.1 1 3.2c.3 1.1.6 2.1.8 3.2s.5 2.1.7 3.2c.2 1.1.4 2.1.6 3.2s.4 2.1.6 3.2.3 2.1.5 3.2.4 2.1.6 3.2c-1.3-.2-2.6-.4-3.9-.6s-2.6-.4-3.9-.6-2.6-.4-3.9-.6-2.5-.4-3.8-.5-2.6-.4-3.9-.6-2.5-.4-3.8-.5-2.5-.4-3.8-.5-2.5-.3-3.8-.5c-1.2-.2-2.4-.4-3.6-.6s-2.4-.4-3.6-.6-2.4-.4-3.6-.6-2.4-.4-3.6-.6c-1.2-.2-2.4-.4-3.6-.6s-2.4-.4-3.6-.5-2.4-.4-3.6-.5c-1.2-.1-2.4-.3-3.6-.4s-2.4-.3-3.6-.4-2.4-.3-3.6-.4c-1.2-.1-2.4-.3-3.6-.4s-2.4-.2-3.6-.3-2.4-.2-3.6-.3c-1.2-.1-2.4-.1-3.6-.2s-2.4-.1-3.6-.2-2.4-.1-3.6-.2-2.4-.1-3.6-.2z"/>
</svg>
