<svg width="745" height="822" viewBox="0 0 745 822" fill="none" xmlns="http://www.w3.org/2000/svg">
<rect x="0.5" y="0.5" width="744" height="821" rx="35.5" fill="#8DDBFF" stroke="#717171"/>
<g filter="url(#filter0_d_223_222)">
<path d="M636 100.5H159.5L160 196L158 197L157.5 199L154 205.5L152 212.5L149 216.5C146.833 216.667 142.4 217 142 217C141.6 217 140.167 216 139.5 215.5C137.667 214.5 133.9 212.6 133.5 213C133.1 213.4 132.667 209.5 132.5 207.5C131.333 206 128.9 203 128.5 203C128.1 203 125 202.333 123.5 202L120 204.5L115.5 204L112.5 201.5H110L102.5 203L98.5 205.5L95 211L94.5 215.5L93.5 218.5L94.5 223.5L97 229.5L100 234L97 236L97.5 238L96.5 241.5L97.5 253.5L98.5 255V259.5L101 264L100 268.5L101 272L100 277.5L101.5 282L107 296L110 318L108.5 321L103.5 321.5L102 324L106.5 327.5L103.5 332.5V335V350.5L108 354.5L110.5 361.5L113.5 365L119 370L120 375L123 380V384L127.5 389.5L127 398L132 399.5L134.5 402L138 404.5L142.5 409.5L146.5 411L148.5 413.5L151 417L149.5 422L146.5 425L140.5 431L135.5 432.5L134.5 435.5L126.5 438.5L122.5 443V447L121 451L117 455.5L114.5 458.5V462V466.5L113.5 470.5V474L116 477.5L115.5 481.5L116.5 485.5L115 487L114.5 489.5L113 492L113.5 494.5L112.5 497.5C112.667 498.5 112.9 500.6 112.5 501C112.1 501.4 113.667 502.5 114.5 503L110.5 506.5L106.5 511L103.5 517L101.5 519H97.5L96 520.5V523L97.5 524L96.5 528L95 529.5V531.5L96 533L99 535.5V539.5L100 545L98 549.5L97.5 553.5L99 558L101 561.5H103.5L106 562.5L109 561.5L113.5 562.5L116.5 565L117.5 568.5L119 569V571.5L119.5 575V581.5L117.5 586L113 589.5V592L108.5 596.5H103.5L96 595.5L91.5 605.5L87 609.5V615L88.5 616L87 619.5V623.5C206.333 666.833 444.9 753.5 444.5 753.5C444.1 753.5 571.667 753.833 635.5 754L636 100.5Z" fill="#FFD597"/>
<path d="M636 100.5H159.5L160 196L158 197L157.5 199L154 205.5L152 212.5L149 216.5C146.833 216.667 142.4 217 142 217C141.6 217 140.167 216 139.5 215.5C137.667 214.5 133.9 212.6 133.5 213C133.1 213.4 132.667 209.5 132.5 207.5C131.333 206 128.9 203 128.5 203C128.1 203 125 202.333 123.5 202L120 204.5L115.5 204L112.5 201.5H110L102.5 203L98.5 205.5L95 211L94.5 215.5L93.5 218.5L94.5 223.5L97 229.5L100 234L97 236L97.5 238L96.5 241.5L97.5 253.5L98.5 255V259.5L101 264L100 268.5L101 272L100 277.5L101.5 282L107 296L110 318L108.5 321L103.5 321.5L102 324L106.5 327.5L103.5 332.5V335V350.5L108 354.5L110.5 361.5L113.5 365L119 370L120 375L123 380V384L127.5 389.5L127 398L132 399.5L134.5 402L138 404.5L142.5 409.5L146.5 411L148.5 413.5L151 417L149.5 422L146.5 425L140.5 431L135.5 432.5L134.5 435.5L126.5 438.5L122.5 443V447L121 451L117 455.5L114.5 458.5V462V466.5L113.5 470.5V474L116 477.5L115.5 481.5L116.5 485.5L115 487L114.5 489.5L113 492L113.5 494.5L112.5 497.5C112.667 498.5 112.9 500.6 112.5 501C112.1 501.4 113.667 502.5 114.5 503L110.5 506.5L106.5 511L103.5 517L101.5 519H97.5L96 520.5V523L97.5 524L96.5 528L95 529.5V531.5L96 533L99 535.5V539.5L100 545L98 549.5L97.5 553.5L99 558L101 561.5H103.5L106 562.5L109 561.5L113.5 562.5L116.5 565L117.5 568.5L119 569V571.5L119.5 575V581.5L117.5 586L113 589.5V592L108.5 596.5H103.5L96 595.5L91.5 605.5L87 609.5V615L88.5 616L87 619.5V623.5C206.333 666.833 444.9 753.5 444.5 753.5C444.1 753.5 571.667 753.833 635.5 754L636 100.5Z" stroke="black"/>
</g>
<path d="M676.065 379.545V397H673.253L665.028 385.111H664.884V397H661.722V379.545H664.551L672.767 391.443H672.92V379.545H676.065ZM679.511 379.545H683.38L688.562 392.193H688.766L693.948 379.545H697.817V397H694.783V385.009H694.621L689.798 396.949H687.531L682.707 384.983H682.545V397H679.511V379.545Z" fill="#005A5E"/>
<path d="M676.662 71.4347H673.474C673.384 70.9119 673.216 70.4489 672.972 70.0455C672.727 69.6364 672.423 69.2898 672.06 69.0057C671.696 68.7216 671.281 68.5085 670.815 68.3665C670.355 68.2188 669.858 68.1449 669.324 68.1449C668.375 68.1449 667.534 68.3835 666.801 68.8608C666.068 69.3324 665.494 70.0256 665.08 70.9403C664.665 71.8494 664.457 72.9602 664.457 74.2727C664.457 75.608 664.665 76.733 665.08 77.6477C665.5 78.5568 666.074 79.2443 666.801 79.7102C667.534 80.1705 668.372 80.4006 669.315 80.4006C669.838 80.4006 670.327 80.3324 670.781 80.196C671.241 80.054 671.653 79.8466 672.017 79.5739C672.386 79.3011 672.696 78.9659 672.946 78.5682C673.202 78.1705 673.378 77.7159 673.474 77.2045L676.662 77.2216C676.543 78.0511 676.284 78.8295 675.886 79.5568C675.494 80.2841 674.98 80.9261 674.344 81.483C673.707 82.0341 672.963 82.4659 672.111 82.7784C671.259 83.0852 670.313 83.2386 669.273 83.2386C667.739 83.2386 666.369 82.8835 665.165 82.1733C663.96 81.4631 663.011 80.4375 662.318 79.0966C661.625 77.7557 661.278 76.1477 661.278 74.2727C661.278 72.392 661.628 70.7841 662.327 69.4489C663.026 68.108 663.977 67.0824 665.182 66.3722C666.386 65.6619 667.75 65.3068 669.273 65.3068C670.244 65.3068 671.148 65.4432 671.983 65.7159C672.818 65.9886 673.563 66.3892 674.216 66.9176C674.869 67.4403 675.406 68.0824 675.827 68.8438C676.253 69.5994 676.531 70.4631 676.662 71.4347ZM695.154 74.2727C695.154 76.1534 694.802 77.7642 694.097 79.1051C693.398 80.4403 692.444 81.4631 691.234 82.1733C690.029 82.8835 688.663 83.2386 687.134 83.2386C685.606 83.2386 684.237 82.8835 683.026 82.1733C681.822 81.4574 680.867 80.4318 680.163 79.0966C679.464 77.7557 679.114 76.1477 679.114 74.2727C679.114 72.392 679.464 70.7841 680.163 69.4489C680.867 68.108 681.822 67.0824 683.026 66.3722C684.237 65.6619 685.606 65.3068 687.134 65.3068C688.663 65.3068 690.029 65.6619 691.234 66.3722C692.444 67.0824 693.398 68.108 694.097 69.4489C694.802 70.7841 695.154 72.392 695.154 74.2727ZM691.975 74.2727C691.975 72.9489 691.768 71.8324 691.353 70.9233C690.944 70.0085 690.376 69.3182 689.648 68.8523C688.921 68.3807 688.083 68.1449 687.134 68.1449C686.185 68.1449 685.347 68.3807 684.62 68.8523C683.893 69.3182 683.322 70.0085 682.907 70.9233C682.498 71.8324 682.293 72.9489 682.293 74.2727C682.293 75.5966 682.498 76.7159 682.907 77.6307C683.322 78.5398 683.893 79.2301 684.62 79.7017C685.347 80.1676 686.185 80.4006 687.134 80.4006C688.083 80.4006 688.921 80.1676 689.648 79.7017C690.376 79.2301 690.944 78.5398 691.353 77.6307C691.768 76.7159 691.975 75.5966 691.975 74.2727Z" fill="#005A5E"/>
<path d="M382.724 54.5455H385.886V65.9489C385.886 67.1989 385.591 68.2983 385 69.2472C384.415 70.196 383.591 70.9375 382.528 71.4716C381.466 72 380.224 72.2642 378.804 72.2642C377.378 72.2642 376.134 72 375.071 71.4716C374.009 70.9375 373.185 70.196 372.599 69.2472C372.014 68.2983 371.722 67.1989 371.722 65.9489V54.5455H374.884V65.6847C374.884 66.4119 375.043 67.0597 375.361 67.6278C375.685 68.196 376.139 68.642 376.724 68.9659C377.31 69.2841 378.003 69.4432 378.804 69.4432C379.605 69.4432 380.298 69.2841 380.884 68.9659C381.474 68.642 381.929 68.196 382.247 67.6278C382.565 67.0597 382.724 66.4119 382.724 65.6847V54.5455ZM388.556 57.196V54.5455H402.482V57.196H397.087V72H393.951V57.196H388.556Z" fill="#005A5E"/>
<path d="M86.0653 148.545V166H83.2528L75.0284 154.111H74.8835V166H71.7216V148.545H74.5511L82.767 160.443H82.9205V148.545H86.0653ZM91.8459 148.545L96.3885 162.284H96.5675L101.102 148.545H104.579L98.4254 166H94.522L88.3771 148.545H91.8459Z" fill="#005A5E"/>
<path d="M68.6619 408.435H65.4744C65.3835 407.912 65.2159 407.449 64.9716 407.045C64.7273 406.636 64.4233 406.29 64.0597 406.006C63.696 405.722 63.2813 405.509 62.8153 405.366C62.3551 405.219 61.858 405.145 61.3239 405.145C60.375 405.145 59.5341 405.384 58.8011 405.861C58.0682 406.332 57.4943 407.026 57.0795 407.94C56.6648 408.849 56.4574 409.96 56.4574 411.273C56.4574 412.608 56.6648 413.733 57.0795 414.648C57.5 415.557 58.0739 416.244 58.8011 416.71C59.5341 417.17 60.3722 417.401 61.3153 417.401C61.8381 417.401 62.3267 417.332 62.7812 417.196C63.2415 417.054 63.6534 416.847 64.017 416.574C64.3864 416.301 64.696 415.966 64.946 415.568C65.2017 415.17 65.3778 414.716 65.4744 414.205L68.6619 414.222C68.5426 415.051 68.2841 415.83 67.8864 416.557C67.4943 417.284 66.9801 417.926 66.3438 418.483C65.7074 419.034 64.9631 419.466 64.1108 419.778C63.2585 420.085 62.3125 420.239 61.2727 420.239C59.7386 420.239 58.3693 419.884 57.1648 419.173C55.9602 418.463 55.0114 417.438 54.3182 416.097C53.625 414.756 53.2784 413.148 53.2784 411.273C53.2784 409.392 53.6278 407.784 54.3267 406.449C55.0256 405.108 55.9773 404.082 57.1818 403.372C58.3864 402.662 59.75 402.307 61.2727 402.307C62.2443 402.307 63.1477 402.443 63.983 402.716C64.8182 402.989 65.5625 403.389 66.2159 403.918C66.8693 404.44 67.4063 405.082 67.8267 405.844C68.2528 406.599 68.5313 407.463 68.6619 408.435ZM73.5881 420H70.2131L76.358 402.545H80.2614L86.4148 420H83.0398L78.3778 406.125H78.2415L73.5881 420ZM73.6989 413.156H82.9034V415.696H73.6989V413.156Z" fill="#005A5E"/>
<circle cx="342.511" cy="511.511" r="9.01136" fill="#FF8F87" stroke="black"/>
<path d="M297.58 497V478.818H304.754C306.133 478.818 307.307 479.082 308.278 479.608C309.249 480.129 309.989 480.854 310.498 481.783C311.012 482.707 311.27 483.772 311.27 484.979C311.27 486.187 311.009 487.252 310.489 488.175C309.968 489.099 309.213 489.818 308.225 490.333C307.242 490.848 306.053 491.105 304.656 491.105H300.084V488.025H304.034C304.774 488.025 305.384 487.897 305.863 487.643C306.349 487.382 306.71 487.024 306.946 486.569C307.189 486.107 307.31 485.577 307.31 484.979C307.31 484.376 307.189 483.849 306.946 483.399C306.71 482.943 306.349 482.591 305.863 482.343C305.378 482.088 304.762 481.961 304.017 481.961H301.424V497H297.58ZM317.478 489.116V497H313.696V478.818H317.371V485.77H317.531C317.839 484.965 318.336 484.334 319.022 483.879C319.709 483.417 320.57 483.186 321.606 483.186C322.553 483.186 323.379 483.393 324.083 483.808C324.793 484.216 325.343 484.805 325.734 485.574C326.131 486.338 326.326 487.252 326.32 488.317V497H322.538V488.992C322.544 488.152 322.331 487.498 321.899 487.03C321.473 486.563 320.875 486.329 320.106 486.329C319.591 486.329 319.135 486.438 318.738 486.657C318.348 486.876 318.04 487.196 317.815 487.616C317.596 488.03 317.484 488.531 317.478 489.116ZM335.458 497.266C334.079 497.266 332.886 496.973 331.88 496.387C330.88 495.796 330.107 494.973 329.563 493.919C329.018 492.86 328.746 491.632 328.746 490.235C328.746 488.826 329.018 487.595 329.563 486.542C330.107 485.482 330.88 484.66 331.88 484.074C332.886 483.482 334.079 483.186 335.458 483.186C336.837 483.186 338.026 483.482 339.026 484.074C340.033 484.66 340.808 485.482 341.352 486.542C341.897 487.595 342.169 488.826 342.169 490.235C342.169 491.632 341.897 492.86 341.352 493.919C340.808 494.973 340.033 495.796 339.026 496.387C338.026 496.973 336.837 497.266 335.458 497.266ZM335.475 494.337C336.103 494.337 336.626 494.159 337.047 493.804C337.467 493.443 337.784 492.952 337.997 492.33C338.216 491.709 338.325 491.002 338.325 490.208C338.325 489.415 338.216 488.708 337.997 488.087C337.784 487.465 337.467 486.974 337.047 486.613C336.626 486.252 336.103 486.071 335.475 486.071C334.842 486.071 334.309 486.252 333.877 486.613C333.451 486.974 333.129 487.465 332.91 488.087C332.697 488.708 332.59 489.415 332.59 490.208C332.59 491.002 332.697 491.709 332.91 492.33C333.129 492.952 333.451 493.443 333.877 493.804C334.309 494.159 334.842 494.337 335.475 494.337ZM350.843 497.266C349.44 497.266 348.233 496.982 347.221 496.414C346.215 495.84 345.439 495.029 344.895 493.982C344.35 492.928 344.078 491.682 344.078 490.244C344.078 488.841 344.35 487.61 344.895 486.551C345.439 485.491 346.206 484.666 347.194 484.074C348.188 483.482 349.354 483.186 350.692 483.186C351.592 483.186 352.429 483.331 353.204 483.621C353.986 483.905 354.666 484.334 355.246 484.908C355.832 485.482 356.288 486.205 356.613 487.075C356.939 487.939 357.102 488.951 357.102 490.111V491.15H345.587V488.806H353.542C353.542 488.261 353.423 487.779 353.187 487.359C352.95 486.938 352.621 486.61 352.201 486.373C351.787 486.131 351.305 486.009 350.754 486.009C350.18 486.009 349.671 486.142 349.227 486.409C348.789 486.669 348.446 487.021 348.197 487.465C347.949 487.903 347.821 488.391 347.816 488.93V491.158C347.816 491.833 347.94 492.416 348.188 492.907C348.443 493.399 348.801 493.777 349.263 494.044C349.724 494.31 350.272 494.443 350.905 494.443C351.325 494.443 351.71 494.384 352.059 494.266C352.408 494.147 352.707 493.97 352.956 493.733C353.204 493.496 353.394 493.206 353.524 492.863L357.022 493.094C356.844 493.934 356.48 494.668 355.93 495.295C355.385 495.917 354.681 496.402 353.817 496.751C352.959 497.095 351.967 497.266 350.843 497.266ZM363.352 489.116V497H359.57V483.364H363.174V485.77H363.334C363.636 484.976 364.142 484.349 364.852 483.887C365.562 483.42 366.423 483.186 367.436 483.186C368.383 483.186 369.208 483.393 369.912 483.808C370.617 484.222 371.164 484.814 371.555 485.583C371.945 486.347 372.141 487.258 372.141 488.317V497H368.359V488.992C368.365 488.158 368.152 487.507 367.72 487.039C367.288 486.566 366.693 486.329 365.935 486.329C365.426 486.329 364.976 486.438 364.586 486.657C364.201 486.876 363.899 487.196 363.68 487.616C363.467 488.03 363.358 488.531 363.352 489.116ZM375.122 497V483.364H378.903V497H375.122ZM377.021 481.606C376.459 481.606 375.977 481.419 375.574 481.047C375.178 480.668 374.979 480.215 374.979 479.688C374.979 479.167 375.178 478.721 375.574 478.348C375.977 477.969 376.459 477.779 377.021 477.779C377.584 477.779 378.063 477.969 378.46 478.348C378.862 478.721 379.063 479.167 379.063 479.688C379.063 480.215 378.862 480.668 378.46 481.047C378.063 481.419 377.584 481.606 377.021 481.606ZM385.094 483.364L387.597 488.131L390.163 483.364H394.042L390.092 490.182L394.149 497H390.287L387.597 492.286L384.952 497H381.045L385.094 490.182L381.187 483.364H385.094Z" fill="black"/>
<path d="M417.207 616.771V614.818H430.844V616.771H425.126V633H422.925V616.771H417.207ZM440.696 627.425V619.364H442.791V633H440.696V630.692H440.554C440.234 631.384 439.737 631.973 439.062 632.458C438.388 632.938 437.535 633.178 436.506 633.178C435.653 633.178 434.896 632.991 434.233 632.618C433.57 632.239 433.049 631.671 432.67 630.914C432.292 630.15 432.102 629.188 432.102 628.028V619.364H434.197V627.886C434.197 628.881 434.476 629.674 435.032 630.266C435.594 630.857 436.31 631.153 437.18 631.153C437.701 631.153 438.231 631.02 438.769 630.754C439.314 630.488 439.77 630.079 440.137 629.529C440.509 628.978 440.696 628.277 440.696 627.425ZM456.288 622.418L454.406 622.95C454.287 622.637 454.113 622.332 453.882 622.036C453.657 621.734 453.349 621.485 452.958 621.29C452.568 621.095 452.068 620.997 451.458 620.997C450.624 620.997 449.928 621.19 449.372 621.574C448.821 621.953 448.546 622.435 448.546 623.021C448.546 623.542 448.736 623.953 449.114 624.255C449.493 624.557 450.085 624.809 450.89 625.01L452.914 625.507C454.133 625.803 455.042 626.256 455.64 626.865C456.237 627.469 456.536 628.247 456.536 629.2C456.536 629.982 456.311 630.68 455.862 631.295C455.418 631.911 454.796 632.396 453.997 632.751C453.198 633.107 452.269 633.284 451.21 633.284C449.819 633.284 448.667 632.982 447.756 632.379C446.845 631.775 446.268 630.893 446.025 629.733L448.013 629.236C448.203 629.97 448.561 630.52 449.088 630.887C449.62 631.254 450.316 631.438 451.174 631.438C452.151 631.438 452.926 631.23 453.5 630.816C454.08 630.396 454.37 629.893 454.37 629.307C454.37 628.833 454.204 628.437 453.873 628.117C453.541 627.792 453.032 627.549 452.346 627.389L450.073 626.857C448.824 626.561 447.907 626.102 447.321 625.48C446.741 624.853 446.451 624.069 446.451 623.128C446.451 622.358 446.667 621.678 447.099 621.086C447.537 620.494 448.132 620.029 448.884 619.692C449.641 619.355 450.499 619.186 451.458 619.186C452.808 619.186 453.867 619.482 454.636 620.074C455.412 620.666 455.962 621.447 456.288 622.418ZM465.23 633.284C463.951 633.284 462.851 632.982 461.927 632.379C461.004 631.775 460.294 630.943 459.797 629.884C459.299 628.824 459.051 627.614 459.051 626.253C459.051 624.868 459.305 623.646 459.814 622.586C460.329 621.521 461.045 620.689 461.963 620.092C462.886 619.488 463.963 619.186 465.194 619.186C466.153 619.186 467.017 619.364 467.787 619.719C468.556 620.074 469.186 620.571 469.678 621.21C470.169 621.849 470.474 622.595 470.592 623.447H468.497C468.337 622.826 467.982 622.276 467.432 621.796C466.887 621.311 466.153 621.068 465.23 621.068C464.413 621.068 463.697 621.281 463.081 621.707C462.472 622.128 461.995 622.722 461.652 623.492C461.315 624.255 461.146 625.152 461.146 626.182C461.146 627.235 461.312 628.153 461.643 628.934C461.981 629.715 462.454 630.322 463.064 630.754C463.679 631.186 464.401 631.402 465.23 631.402C465.774 631.402 466.269 631.307 466.712 631.118C467.156 630.929 467.532 630.656 467.84 630.301C468.148 629.946 468.367 629.52 468.497 629.023H470.592C470.474 629.828 470.181 630.553 469.713 631.198C469.252 631.837 468.639 632.346 467.875 632.725C467.118 633.098 466.236 633.284 465.23 633.284ZM479.195 633.284C477.964 633.284 476.883 632.991 475.954 632.405C475.031 631.819 474.309 631 473.788 629.946C473.273 628.893 473.016 627.661 473.016 626.253C473.016 624.832 473.273 623.592 473.788 622.533C474.309 621.474 475.031 620.651 475.954 620.065C476.883 619.479 477.964 619.186 479.195 619.186C480.426 619.186 481.503 619.479 482.426 620.065C483.355 620.651 484.078 621.474 484.592 622.533C485.113 623.592 485.374 624.832 485.374 626.253C485.374 627.661 485.113 628.893 484.592 629.946C484.078 631 483.355 631.819 482.426 632.405C481.503 632.991 480.426 633.284 479.195 633.284ZM479.195 631.402C480.13 631.402 480.899 631.162 481.503 630.683C482.107 630.203 482.553 629.573 482.843 628.792C483.133 628.011 483.278 627.164 483.278 626.253C483.278 625.341 483.133 624.492 482.843 623.705C482.553 622.918 482.107 622.281 481.503 621.796C480.899 621.311 480.13 621.068 479.195 621.068C478.26 621.068 477.49 621.311 476.886 621.796C476.283 622.281 475.836 622.918 475.546 623.705C475.256 624.492 475.111 625.341 475.111 626.253C475.111 627.164 475.256 628.011 475.546 628.792C475.836 629.573 476.283 630.203 476.886 630.683C477.49 631.162 478.26 631.402 479.195 631.402ZM490.667 624.797V633H488.572V619.364H490.596V621.494H490.774C491.093 620.802 491.579 620.246 492.23 619.825C492.881 619.399 493.721 619.186 494.751 619.186C495.674 619.186 496.482 619.375 497.175 619.754C497.867 620.127 498.406 620.695 498.79 621.459C499.175 622.216 499.367 623.175 499.367 624.335V633H497.272V624.477C497.272 623.406 496.994 622.571 496.438 621.974C495.881 621.37 495.118 621.068 494.147 621.068C493.478 621.068 492.881 621.213 492.354 621.503C491.833 621.793 491.422 622.216 491.12 622.773C490.818 623.329 490.667 624.004 490.667 624.797Z" fill="black"/>
<path d="M473.145 695.364C473.038 694.464 472.606 693.766 471.849 693.268C471.091 692.771 470.162 692.523 469.061 692.523C468.256 692.523 467.552 692.653 466.948 692.913C466.35 693.174 465.883 693.532 465.545 693.988C465.214 694.443 465.048 694.961 465.048 695.541C465.048 696.027 465.164 696.444 465.395 696.793C465.631 697.136 465.933 697.423 466.3 697.654C466.667 697.879 467.052 698.065 467.454 698.213C467.857 698.355 468.227 698.471 468.564 698.56L470.411 699.057C470.884 699.181 471.411 699.353 471.991 699.572C472.577 699.791 473.136 700.09 473.669 700.468C474.207 700.841 474.651 701.321 475 701.907C475.35 702.493 475.524 703.212 475.524 704.064C475.524 705.046 475.267 705.934 474.752 706.727C474.243 707.52 473.497 708.151 472.515 708.618C471.538 709.086 470.351 709.32 468.955 709.32C467.652 709.32 466.525 709.109 465.572 708.689C464.625 708.269 463.879 707.683 463.335 706.931C462.796 706.18 462.491 705.307 462.42 704.312H464.693C464.752 704.999 464.983 705.567 465.386 706.017C465.794 706.461 466.309 706.792 466.93 707.011C467.558 707.224 468.232 707.331 468.955 707.331C469.795 707.331 470.55 707.195 471.218 706.923C471.887 706.644 472.417 706.26 472.808 705.768C473.198 705.271 473.393 704.691 473.393 704.028C473.393 703.425 473.225 702.933 472.887 702.555C472.55 702.176 472.106 701.868 471.556 701.631C471.005 701.395 470.411 701.187 469.771 701.01L467.534 700.371C466.114 699.962 464.989 699.379 464.161 698.622C463.332 697.864 462.918 696.873 462.918 695.648C462.918 694.63 463.193 693.742 463.743 692.984C464.3 692.221 465.045 691.629 465.98 691.209C466.922 690.783 467.972 690.57 469.132 690.57C470.304 690.57 471.346 690.78 472.257 691.2C473.169 691.614 473.891 692.182 474.423 692.904C474.962 693.627 475.246 694.446 475.276 695.364H473.145ZM478.86 709V695.364H480.955V709H478.86ZM479.925 693.091C479.517 693.091 479.165 692.952 478.869 692.674C478.579 692.395 478.434 692.061 478.434 691.67C478.434 691.28 478.579 690.945 478.869 690.667C479.165 690.389 479.517 690.25 479.925 690.25C480.334 690.25 480.683 690.389 480.973 690.667C481.269 690.945 481.417 691.28 481.417 691.67C481.417 692.061 481.269 692.395 480.973 692.674C480.683 692.952 480.334 693.091 479.925 693.091ZM490.51 709.284C489.196 709.284 488.063 708.994 487.11 708.414C486.163 707.828 485.432 707.011 484.917 705.964C484.408 704.91 484.153 703.685 484.153 702.288C484.153 700.892 484.408 699.661 484.917 698.595C485.432 697.524 486.148 696.689 487.065 696.092C487.989 695.488 489.066 695.186 490.297 695.186C491.007 695.186 491.708 695.304 492.401 695.541C493.093 695.778 493.724 696.163 494.292 696.695C494.86 697.222 495.313 697.92 495.65 698.79C495.988 699.661 496.156 700.732 496.156 702.004V702.892H485.645V701.081H494.026C494.026 700.312 493.872 699.625 493.564 699.021C493.262 698.418 492.83 697.941 492.268 697.592C491.711 697.243 491.054 697.068 490.297 697.068C489.462 697.068 488.74 697.275 488.131 697.69C487.527 698.098 487.062 698.631 486.737 699.288C486.411 699.945 486.249 700.649 486.249 701.401V702.608C486.249 703.638 486.426 704.511 486.781 705.227C487.142 705.937 487.642 706.479 488.282 706.852C488.921 707.219 489.664 707.402 490.51 707.402C491.06 707.402 491.558 707.325 492.001 707.171C492.451 707.011 492.839 706.775 493.164 706.461C493.49 706.141 493.741 705.745 493.919 705.271L495.943 705.839C495.73 706.526 495.372 707.13 494.869 707.651C494.366 708.165 493.744 708.568 493.005 708.858C492.265 709.142 491.433 709.284 490.51 709.284ZM499.343 709V695.364H501.368V697.423H501.51C501.758 696.749 502.208 696.201 502.859 695.781C503.51 695.361 504.244 695.151 505.061 695.151C505.215 695.151 505.407 695.154 505.638 695.159C505.869 695.165 506.043 695.174 506.162 695.186V697.317C506.091 697.299 505.928 697.272 505.673 697.237C505.425 697.195 505.161 697.175 504.883 697.175C504.22 697.175 503.628 697.314 503.108 697.592C502.593 697.864 502.184 698.243 501.882 698.728C501.587 699.208 501.439 699.755 501.439 700.371V709H499.343ZM508.645 709V695.364H510.669V697.423H510.811C511.06 696.749 511.51 696.201 512.161 695.781C512.812 695.361 513.546 695.151 514.362 695.151C514.516 695.151 514.709 695.154 514.94 695.159C515.17 695.165 515.345 695.174 515.463 695.186V697.317C515.392 697.299 515.23 697.272 514.975 697.237C514.726 697.195 514.463 697.175 514.185 697.175C513.522 697.175 512.93 697.314 512.409 697.592C511.894 697.864 511.486 698.243 511.184 698.728C510.888 699.208 510.74 699.755 510.74 700.371V709H508.645ZM521.96 709.32C521.096 709.32 520.311 709.157 519.607 708.831C518.903 708.5 518.343 708.023 517.929 707.402C517.515 706.775 517.308 706.017 517.308 705.129C517.308 704.348 517.462 703.715 517.769 703.229C518.077 702.738 518.488 702.353 519.003 702.075C519.518 701.797 520.086 701.59 520.708 701.454C521.335 701.312 521.966 701.199 522.599 701.116C523.427 701.01 524.099 700.93 524.614 700.877C525.135 700.818 525.514 700.72 525.751 700.584C525.993 700.448 526.115 700.211 526.115 699.874V699.803C526.115 698.927 525.875 698.246 525.395 697.761C524.922 697.275 524.203 697.033 523.238 697.033C522.238 697.033 521.454 697.252 520.885 697.69C520.317 698.128 519.918 698.595 519.687 699.092L517.698 698.382C518.053 697.554 518.527 696.908 519.119 696.447C519.717 695.979 520.368 695.654 521.072 695.47C521.782 695.281 522.481 695.186 523.167 695.186C523.605 695.186 524.108 695.239 524.676 695.346C525.25 695.446 525.804 695.657 526.336 695.976C526.875 696.296 527.322 696.778 527.677 697.423C528.032 698.068 528.21 698.933 528.21 700.016V709H526.115V707.153H526.008C525.866 707.449 525.629 707.766 525.298 708.103C524.966 708.441 524.525 708.728 523.975 708.964C523.425 709.201 522.753 709.32 521.96 709.32ZM522.279 707.438C523.108 707.438 523.806 707.275 524.374 706.949C524.949 706.624 525.381 706.203 525.671 705.689C525.967 705.174 526.115 704.632 526.115 704.064V702.146C526.026 702.253 525.83 702.35 525.529 702.439C525.233 702.522 524.889 702.596 524.499 702.661C524.114 702.72 523.738 702.774 523.371 702.821C523.01 702.862 522.717 702.898 522.492 702.928C521.948 702.999 521.439 703.114 520.965 703.274C520.498 703.428 520.119 703.661 519.829 703.975C519.545 704.283 519.403 704.703 519.403 705.236C519.403 705.964 519.672 706.514 520.211 706.887C520.755 707.254 521.445 707.438 522.279 707.438ZM540.095 690.818L545.493 706.124H545.706L551.103 690.818H553.412L546.736 709H544.463L537.787 690.818H540.095ZM555.96 709V695.364H558.055V709H555.96ZM557.025 693.091C556.617 693.091 556.264 692.952 555.968 692.674C555.678 692.395 555.533 692.061 555.533 691.67C555.533 691.28 555.678 690.945 555.968 690.667C556.264 690.389 556.617 690.25 557.025 690.25C557.433 690.25 557.783 690.389 558.073 690.667C558.368 690.945 558.516 691.28 558.516 691.67C558.516 692.061 558.368 692.395 558.073 692.674C557.783 692.952 557.433 693.091 557.025 693.091ZM571.551 698.418L569.669 698.95C569.551 698.637 569.376 698.332 569.145 698.036C568.921 697.734 568.613 697.485 568.222 697.29C567.831 697.095 567.331 696.997 566.722 696.997C565.887 696.997 565.192 697.19 564.635 697.574C564.085 697.953 563.81 698.435 563.81 699.021C563.81 699.542 563.999 699.953 564.378 700.255C564.757 700.557 565.349 700.809 566.154 701.01L568.178 701.507C569.397 701.803 570.305 702.256 570.903 702.865C571.501 703.469 571.8 704.247 571.8 705.2C571.8 705.982 571.575 706.68 571.125 707.295C570.681 707.911 570.06 708.396 569.261 708.751C568.462 709.107 567.533 709.284 566.473 709.284C565.082 709.284 563.931 708.982 563.02 708.379C562.108 707.775 561.531 706.893 561.289 705.733L563.277 705.236C563.467 705.97 563.825 706.52 564.351 706.887C564.884 707.254 565.579 707.438 566.438 707.438C567.414 707.438 568.19 707.23 568.764 706.816C569.344 706.396 569.634 705.893 569.634 705.307C569.634 704.833 569.468 704.437 569.137 704.117C568.805 703.792 568.296 703.549 567.61 703.389L565.337 702.857C564.088 702.561 563.171 702.102 562.585 701.48C562.005 700.853 561.715 700.069 561.715 699.128C561.715 698.358 561.931 697.678 562.363 697.086C562.801 696.494 563.396 696.029 564.147 695.692C564.905 695.355 565.763 695.186 566.722 695.186C568.071 695.186 569.131 695.482 569.9 696.074C570.675 696.666 571.226 697.447 571.551 698.418ZM580.884 695.364V697.139H573.817V695.364H580.884ZM575.877 692.097H577.972V705.094C577.972 705.686 578.058 706.129 578.23 706.425C578.407 706.715 578.632 706.911 578.904 707.011C579.183 707.106 579.476 707.153 579.783 707.153C580.014 707.153 580.204 707.142 580.351 707.118C580.499 707.088 580.618 707.065 580.707 707.047L581.133 708.929C580.991 708.982 580.792 709.036 580.538 709.089C580.283 709.148 579.961 709.178 579.57 709.178C578.978 709.178 578.398 709.05 577.83 708.796C577.268 708.541 576.8 708.154 576.427 707.633C576.061 707.112 575.877 706.455 575.877 705.662V692.097ZM588.049 709.32C587.184 709.32 586.4 709.157 585.696 708.831C584.992 708.5 584.432 708.023 584.018 707.402C583.604 706.775 583.397 706.017 583.397 705.129C583.397 704.348 583.55 703.715 583.858 703.229C584.166 702.738 584.577 702.353 585.092 702.075C585.607 701.797 586.175 701.59 586.797 701.454C587.424 701.312 588.054 701.199 588.688 701.116C589.516 701.01 590.188 700.93 590.703 700.877C591.224 700.818 591.603 700.72 591.839 700.584C592.082 700.448 592.203 700.211 592.203 699.874V699.803C592.203 698.927 591.964 698.246 591.484 697.761C591.011 697.275 590.292 697.033 589.327 697.033C588.327 697.033 587.543 697.252 586.974 697.69C586.406 698.128 586.007 698.595 585.776 699.092L583.787 698.382C584.142 697.554 584.616 696.908 585.208 696.447C585.805 695.979 586.456 695.654 587.161 695.47C587.871 695.281 588.569 695.186 589.256 695.186C589.694 695.186 590.197 695.239 590.765 695.346C591.339 695.446 591.893 695.657 592.425 695.976C592.964 696.296 593.411 696.778 593.766 697.423C594.121 698.068 594.299 698.933 594.299 700.016V709H592.203V707.153H592.097C591.955 707.449 591.718 707.766 591.387 708.103C591.055 708.441 590.614 708.728 590.064 708.964C589.513 709.201 588.842 709.32 588.049 709.32ZM588.368 707.438C589.197 707.438 589.895 707.275 590.463 706.949C591.037 706.624 591.469 706.203 591.759 705.689C592.055 705.174 592.203 704.632 592.203 704.064V702.146C592.115 702.253 591.919 702.35 591.617 702.439C591.322 702.522 590.978 702.596 590.588 702.661C590.203 702.72 589.827 702.774 589.46 702.821C589.099 702.862 588.806 702.898 588.581 702.928C588.037 702.999 587.528 703.114 587.054 703.274C586.587 703.428 586.208 703.661 585.918 703.975C585.634 704.283 585.492 704.703 585.492 705.236C585.492 705.964 585.761 706.514 586.3 706.887C586.844 707.254 587.534 707.438 588.368 707.438Z" fill="black"/>
<path d="M116.639 594.818H119.161L124.203 603.305H124.416L129.459 594.818H131.98L125.411 605.507V613H123.209V605.507L116.639 594.818ZM142.136 607.425V599.364H144.232V613H142.136V610.692H141.994C141.675 611.384 141.178 611.973 140.503 612.458C139.828 612.938 138.976 613.178 137.946 613.178C137.094 613.178 136.336 612.991 135.673 612.618C135.01 612.239 134.49 611.671 134.111 610.914C133.732 610.15 133.543 609.188 133.543 608.028V599.364H135.638V607.886C135.638 608.881 135.916 609.674 136.472 610.266C137.035 610.857 137.751 611.153 138.621 611.153C139.142 611.153 139.671 611.02 140.21 610.754C140.754 610.488 141.21 610.079 141.577 609.529C141.95 608.978 142.136 608.277 142.136 607.425ZM148.069 613V599.364H150.093V601.494H150.271C150.555 600.766 151.013 600.201 151.647 599.799C152.28 599.39 153.041 599.186 153.928 599.186C154.828 599.186 155.577 599.39 156.174 599.799C156.778 600.201 157.249 600.766 157.586 601.494H157.728C158.077 600.79 158.601 600.231 159.299 599.816C159.998 599.396 160.835 599.186 161.812 599.186C163.031 599.186 164.028 599.568 164.804 600.331C165.579 601.089 165.967 602.27 165.967 603.874V613H163.872V603.874C163.872 602.867 163.596 602.148 163.046 601.716C162.495 601.284 161.847 601.068 161.102 601.068C160.143 601.068 159.4 601.358 158.873 601.938C158.347 602.512 158.083 603.24 158.083 604.122V613H155.953V603.661C155.953 602.885 155.701 602.261 155.198 601.787C154.695 601.308 154.047 601.068 153.254 601.068C152.709 601.068 152.2 601.213 151.727 601.503C151.259 601.793 150.88 602.196 150.59 602.711C150.306 603.22 150.164 603.808 150.164 604.477V613H148.069ZM173.81 613.32C172.946 613.32 172.162 613.157 171.458 612.831C170.753 612.5 170.194 612.023 169.78 611.402C169.365 610.775 169.158 610.017 169.158 609.129C169.158 608.348 169.312 607.715 169.62 607.229C169.928 606.738 170.339 606.353 170.854 606.075C171.369 605.797 171.937 605.59 172.559 605.454C173.186 605.312 173.816 605.199 174.449 605.116C175.278 605.01 175.95 604.93 176.465 604.877C176.986 604.818 177.364 604.72 177.601 604.584C177.844 604.448 177.965 604.211 177.965 603.874V603.803C177.965 602.927 177.725 602.246 177.246 601.761C176.773 601.275 176.053 601.033 175.089 601.033C174.088 601.033 173.304 601.252 172.736 601.69C172.168 602.128 171.768 602.595 171.538 603.092L169.549 602.382C169.904 601.554 170.378 600.908 170.969 600.447C171.567 599.979 172.218 599.654 172.922 599.47C173.633 599.281 174.331 599.186 175.018 599.186C175.456 599.186 175.959 599.239 176.527 599.346C177.101 599.446 177.654 599.657 178.187 599.976C178.726 600.296 179.172 600.778 179.528 601.423C179.883 602.068 180.06 602.933 180.06 604.016V613H177.965V611.153H177.859C177.717 611.449 177.48 611.766 177.148 612.103C176.817 612.441 176.376 612.728 175.826 612.964C175.275 613.201 174.603 613.32 173.81 613.32ZM174.13 611.438C174.958 611.438 175.657 611.275 176.225 610.949C176.799 610.624 177.231 610.203 177.521 609.689C177.817 609.174 177.965 608.632 177.965 608.064V606.146C177.876 606.253 177.681 606.35 177.379 606.439C177.083 606.522 176.74 606.596 176.349 606.661C175.965 606.72 175.589 606.774 175.222 606.821C174.861 606.862 174.568 606.898 174.343 606.928C173.798 606.999 173.289 607.114 172.816 607.274C172.348 607.428 171.97 607.661 171.68 607.975C171.396 608.283 171.253 608.703 171.253 609.236C171.253 609.964 171.523 610.514 172.061 610.887C172.606 611.254 173.295 611.438 174.13 611.438Z" fill="black"/>
<path d="M334.202 531.818H336.83L343.009 546.911H343.222L349.401 531.818H352.028V550H349.969V536.186H349.791L344.109 550H342.121L336.439 536.186H336.261V550H334.202V531.818ZM361.876 550.284C360.562 550.284 359.429 549.994 358.476 549.414C357.529 548.828 356.798 548.011 356.283 546.964C355.774 545.91 355.52 544.685 355.52 543.288C355.52 541.892 355.774 540.661 356.283 539.595C356.798 538.524 357.514 537.689 358.432 537.092C359.355 536.488 360.432 536.186 361.663 536.186C362.373 536.186 363.075 536.304 363.767 536.541C364.46 536.778 365.09 537.163 365.658 537.695C366.226 538.222 366.679 538.92 367.016 539.79C367.354 540.661 367.522 541.732 367.522 543.004V543.892H357.011V542.081H365.392C365.392 541.312 365.238 540.625 364.93 540.021C364.628 539.418 364.196 538.941 363.634 538.592C363.078 538.243 362.421 538.068 361.663 538.068C360.829 538.068 360.107 538.275 359.497 538.69C358.893 539.098 358.429 539.631 358.103 540.288C357.778 540.945 357.615 541.649 357.615 542.401V543.608C357.615 544.638 357.792 545.511 358.147 546.227C358.508 546.937 359.009 547.479 359.648 547.852C360.287 548.219 361.03 548.402 361.876 548.402C362.427 548.402 362.924 548.325 363.368 548.171C363.817 548.011 364.205 547.775 364.531 547.461C364.856 547.141 365.108 546.745 365.285 546.271L367.309 546.839C367.096 547.526 366.738 548.13 366.235 548.651C365.732 549.165 365.111 549.568 364.371 549.858C363.631 550.142 362.799 550.284 361.876 550.284ZM380.369 539.418L378.487 539.95C378.368 539.637 378.194 539.332 377.963 539.036C377.738 538.734 377.43 538.485 377.04 538.29C376.649 538.095 376.149 537.997 375.539 537.997C374.705 537.997 374.009 538.19 373.453 538.574C372.902 538.953 372.627 539.435 372.627 540.021C372.627 540.542 372.817 540.953 373.195 541.255C373.574 541.557 374.166 541.809 374.971 542.01L376.995 542.507C378.214 542.803 379.123 543.256 379.721 543.865C380.318 544.469 380.617 545.247 380.617 546.2C380.617 546.982 380.392 547.68 379.943 548.295C379.499 548.911 378.877 549.396 378.078 549.751C377.279 550.107 376.35 550.284 375.291 550.284C373.9 550.284 372.749 549.982 371.837 549.379C370.926 548.775 370.349 547.893 370.106 546.733L372.095 546.236C372.284 546.97 372.642 547.52 373.169 547.887C373.701 548.254 374.397 548.438 375.255 548.438C376.232 548.438 377.007 548.23 377.581 547.816C378.161 547.396 378.451 546.893 378.451 546.307C378.451 545.833 378.285 545.437 377.954 545.117C377.622 544.792 377.113 544.549 376.427 544.389L374.154 543.857C372.905 543.561 371.988 543.102 371.402 542.48C370.822 541.853 370.532 541.069 370.532 540.128C370.532 539.358 370.748 538.678 371.18 538.086C371.618 537.494 372.213 537.029 372.965 536.692C373.722 536.355 374.58 536.186 375.539 536.186C376.889 536.186 377.948 536.482 378.717 537.074C379.493 537.666 380.043 538.447 380.369 539.418ZM387.784 550.32C386.92 550.32 386.136 550.157 385.431 549.831C384.727 549.5 384.168 549.023 383.753 548.402C383.339 547.775 383.132 547.017 383.132 546.129C383.132 545.348 383.286 544.715 383.594 544.229C383.901 543.738 384.313 543.353 384.828 543.075C385.343 542.797 385.911 542.59 386.532 542.454C387.16 542.312 387.79 542.199 388.423 542.116C389.252 542.01 389.923 541.93 390.438 541.877C390.959 541.818 391.338 541.72 391.575 541.584C391.817 541.448 391.939 541.211 391.939 540.874V540.803C391.939 539.927 391.699 539.246 391.22 538.761C390.746 538.275 390.027 538.033 389.062 538.033C388.062 538.033 387.278 538.252 386.71 538.69C386.142 539.128 385.742 539.595 385.511 540.092L383.523 539.382C383.878 538.554 384.351 537.908 384.943 537.447C385.541 536.979 386.192 536.654 386.896 536.47C387.606 536.281 388.305 536.186 388.991 536.186C389.429 536.186 389.932 536.239 390.501 536.346C391.075 536.446 391.628 536.657 392.161 536.976C392.699 537.296 393.146 537.778 393.501 538.423C393.856 539.068 394.034 539.933 394.034 541.016V550H391.939V548.153H391.832C391.69 548.449 391.453 548.766 391.122 549.103C390.791 549.441 390.35 549.728 389.799 549.964C389.249 550.201 388.577 550.32 387.784 550.32ZM388.104 548.438C388.932 548.438 389.631 548.275 390.199 547.949C390.773 547.624 391.205 547.203 391.495 546.689C391.791 546.174 391.939 545.632 391.939 545.064V543.146C391.85 543.253 391.655 543.35 391.353 543.439C391.057 543.522 390.714 543.596 390.323 543.661C389.938 543.72 389.562 543.774 389.195 543.821C388.834 543.862 388.541 543.898 388.317 543.928C387.772 543.999 387.263 544.114 386.79 544.274C386.322 544.428 385.943 544.661 385.653 544.975C385.369 545.283 385.227 545.703 385.227 546.236C385.227 546.964 385.496 547.514 386.035 547.887C386.579 548.254 387.269 548.438 388.104 548.438Z" fill="black"/>
<path d="M341.202 295V276.818H352.104V278.771H343.403V284.915H351.287V286.868H343.403V295H341.202ZM357.686 276.818V295H355.59V276.818H357.686ZM365.536 295.32C364.672 295.32 363.888 295.157 363.183 294.831C362.479 294.5 361.92 294.023 361.505 293.402C361.091 292.775 360.884 292.017 360.884 291.129C360.884 290.348 361.038 289.715 361.346 289.229C361.653 288.738 362.065 288.353 362.58 288.075C363.094 287.797 363.663 287.59 364.284 287.454C364.911 287.312 365.542 287.199 366.175 287.116C367.004 287.01 367.675 286.93 368.19 286.877C368.711 286.818 369.09 286.72 369.327 286.584C369.569 286.448 369.691 286.211 369.691 285.874V285.803C369.691 284.927 369.451 284.246 368.972 283.761C368.498 283.275 367.779 283.033 366.814 283.033C365.814 283.033 365.03 283.252 364.462 283.69C363.893 284.128 363.494 284.595 363.263 285.092L361.275 284.382C361.63 283.554 362.103 282.908 362.695 282.447C363.293 281.979 363.944 281.654 364.648 281.47C365.358 281.281 366.057 281.186 366.743 281.186C367.181 281.186 367.684 281.239 368.252 281.346C368.827 281.446 369.38 281.657 369.913 281.976C370.451 282.296 370.898 282.778 371.253 283.423C371.608 284.068 371.786 284.933 371.786 286.016V295H369.691V293.153H369.584C369.442 293.449 369.205 293.766 368.874 294.103C368.542 294.441 368.102 294.728 367.551 294.964C367.001 295.201 366.329 295.32 365.536 295.32ZM365.855 293.438C366.684 293.438 367.382 293.275 367.951 292.949C368.525 292.624 368.957 292.203 369.247 291.689C369.543 291.174 369.691 290.632 369.691 290.064V288.146C369.602 288.253 369.407 288.35 369.105 288.439C368.809 288.522 368.466 288.596 368.075 288.661C367.69 288.72 367.314 288.774 366.947 288.821C366.586 288.862 366.293 288.898 366.069 288.928C365.524 288.999 365.015 289.114 364.542 289.274C364.074 289.428 363.695 289.661 363.405 289.975C363.121 290.283 362.979 290.703 362.979 291.236C362.979 291.964 363.248 292.514 363.787 292.887C364.331 293.254 365.021 293.438 365.855 293.438ZM381.114 300.398C380.102 300.398 379.232 300.268 378.504 300.007C377.776 299.753 377.17 299.415 376.684 298.995C376.205 298.581 375.823 298.137 375.539 297.663L377.208 296.491C377.397 296.74 377.637 297.024 377.927 297.344C378.217 297.669 378.614 297.95 379.117 298.187C379.626 298.43 380.292 298.551 381.114 298.551C382.215 298.551 383.124 298.285 383.84 297.752C384.556 297.219 384.914 296.385 384.914 295.249V292.479H384.736C384.583 292.727 384.364 293.035 384.079 293.402C383.801 293.763 383.399 294.086 382.872 294.37C382.351 294.648 381.647 294.787 380.759 294.787C379.658 294.787 378.67 294.527 377.794 294.006C376.924 293.485 376.234 292.727 375.725 291.733C375.222 290.739 374.971 289.531 374.971 288.111C374.971 286.714 375.216 285.498 375.708 284.462C376.199 283.42 376.882 282.615 377.758 282.047C378.634 281.473 379.646 281.186 380.795 281.186C381.682 281.186 382.387 281.334 382.908 281.63C383.434 281.92 383.837 282.251 384.115 282.624C384.399 282.991 384.618 283.293 384.772 283.53H384.985V281.364H387.009V295.391C387.009 296.562 386.743 297.515 386.21 298.249C385.683 298.989 384.973 299.531 384.079 299.874C383.192 300.223 382.203 300.398 381.114 300.398ZM381.043 292.905C381.884 292.905 382.594 292.712 383.174 292.328C383.754 291.943 384.195 291.39 384.497 290.668C384.799 289.946 384.949 289.081 384.949 288.075C384.949 287.093 384.802 286.226 384.506 285.474C384.21 284.722 383.772 284.134 383.192 283.707C382.612 283.281 381.896 283.068 381.043 283.068C380.155 283.068 379.416 283.293 378.824 283.743C378.238 284.193 377.797 284.796 377.501 285.554C377.211 286.312 377.066 287.152 377.066 288.075C377.066 289.022 377.214 289.86 377.51 290.588C377.812 291.31 378.256 291.878 378.842 292.292C379.433 292.701 380.167 292.905 381.043 292.905ZM400.503 284.418L398.621 284.95C398.503 284.637 398.328 284.332 398.098 284.036C397.873 283.734 397.565 283.485 397.174 283.29C396.784 283.095 396.284 282.997 395.674 282.997C394.839 282.997 394.144 283.19 393.588 283.574C393.037 283.953 392.762 284.435 392.762 285.021C392.762 285.542 392.951 285.953 393.33 286.255C393.709 286.557 394.301 286.809 395.106 287.01L397.13 287.507C398.349 287.803 399.258 288.256 399.855 288.865C400.453 289.469 400.752 290.247 400.752 291.2C400.752 291.982 400.527 292.68 400.077 293.295C399.633 293.911 399.012 294.396 398.213 294.751C397.414 295.107 396.485 295.284 395.425 295.284C394.034 295.284 392.883 294.982 391.972 294.379C391.06 293.775 390.483 292.893 390.241 291.733L392.229 291.236C392.419 291.97 392.777 292.52 393.304 292.887C393.836 293.254 394.532 293.438 395.39 293.438C396.366 293.438 397.142 293.23 397.716 292.816C398.296 292.396 398.586 291.893 398.586 291.307C398.586 290.833 398.42 290.437 398.089 290.117C397.757 289.792 397.248 289.549 396.562 289.389L394.289 288.857C393.04 288.561 392.123 288.102 391.537 287.48C390.957 286.853 390.667 286.069 390.667 285.128C390.667 284.358 390.883 283.678 391.315 283.086C391.753 282.494 392.348 282.029 393.099 281.692C393.857 281.355 394.715 281.186 395.674 281.186C397.023 281.186 398.083 281.482 398.852 282.074C399.628 282.666 400.178 283.447 400.503 284.418ZM409.836 281.364V283.139H402.77V281.364H409.836ZM404.829 278.097H406.924V291.094C406.924 291.686 407.01 292.129 407.182 292.425C407.359 292.715 407.584 292.911 407.857 293.011C408.135 293.106 408.428 293.153 408.735 293.153C408.966 293.153 409.156 293.142 409.304 293.118C409.452 293.088 409.57 293.065 409.659 293.047L410.085 294.929C409.943 294.982 409.745 295.036 409.49 295.089C409.236 295.148 408.913 295.178 408.522 295.178C407.931 295.178 407.35 295.05 406.782 294.796C406.22 294.541 405.752 294.154 405.38 293.633C405.013 293.112 404.829 292.455 404.829 291.662V278.097ZM417.001 295.32C416.137 295.32 415.352 295.157 414.648 294.831C413.944 294.5 413.384 294.023 412.97 293.402C412.556 292.775 412.349 292.017 412.349 291.129C412.349 290.348 412.503 289.715 412.81 289.229C413.118 288.738 413.529 288.353 414.044 288.075C414.559 287.797 415.127 287.59 415.749 287.454C416.376 287.312 417.007 287.199 417.64 287.116C418.469 287.01 419.14 286.93 419.655 286.877C420.176 286.818 420.555 286.72 420.792 286.584C421.034 286.448 421.156 286.211 421.156 285.874V285.803C421.156 284.927 420.916 284.246 420.436 283.761C419.963 283.275 419.244 283.033 418.279 283.033C417.279 283.033 416.495 283.252 415.926 283.69C415.358 284.128 414.959 284.595 414.728 285.092L412.739 284.382C413.094 283.554 413.568 282.908 414.16 282.447C414.758 281.979 415.409 281.654 416.113 281.47C416.823 281.281 417.522 281.186 418.208 281.186C418.646 281.186 419.149 281.239 419.717 281.346C420.291 281.446 420.845 281.657 421.377 281.976C421.916 282.296 422.363 282.778 422.718 283.423C423.073 284.068 423.251 284.933 423.251 286.016V295H421.156V293.153H421.049C420.907 293.449 420.67 293.766 420.339 294.103C420.007 294.441 419.566 294.728 419.016 294.964C418.466 295.201 417.794 295.32 417.001 295.32ZM417.32 293.438C418.149 293.438 418.847 293.275 419.415 292.949C419.99 292.624 420.422 292.203 420.712 291.689C421.008 291.174 421.156 290.632 421.156 290.064V288.146C421.067 288.253 420.871 288.35 420.57 288.439C420.274 288.522 419.93 288.596 419.54 288.661C419.155 288.72 418.779 288.774 418.412 288.821C418.051 288.862 417.758 288.898 417.533 288.928C416.989 288.999 416.48 289.114 416.006 289.274C415.539 289.428 415.16 289.661 414.87 289.975C414.586 290.283 414.444 290.703 414.444 291.236C414.444 291.964 414.713 292.514 415.252 292.887C415.796 293.254 416.486 293.438 417.32 293.438ZM433.147 281.364V283.139H425.796V281.364H433.147ZM427.998 295V279.482C427.998 278.7 428.182 278.049 428.549 277.528C428.916 277.008 429.392 276.617 429.978 276.357C430.564 276.096 431.182 275.966 431.833 275.966C432.348 275.966 432.768 276.007 433.094 276.09C433.42 276.173 433.662 276.25 433.822 276.321L433.218 278.132C433.112 278.097 432.964 278.052 432.774 277.999C432.591 277.946 432.348 277.919 432.046 277.919C431.354 277.919 430.854 278.094 430.546 278.443C430.244 278.792 430.093 279.304 430.093 279.979V295H427.998ZM442.156 281.364V283.139H434.805V281.364H442.156ZM437.007 295V279.482C437.007 278.7 437.19 278.049 437.557 277.528C437.924 277.008 438.401 276.617 438.987 276.357C439.573 276.096 440.191 275.966 440.842 275.966C441.357 275.966 441.777 276.007 442.103 276.09C442.428 276.173 442.671 276.25 442.831 276.321L442.227 278.132C442.121 278.097 441.973 278.052 441.783 277.999C441.6 277.946 441.357 277.919 441.055 277.919C440.363 277.919 439.863 278.094 439.555 278.443C439.253 278.792 439.102 279.304 439.102 279.979V295H437.007Z" fill="black"/>
<path d="M265.202 419V400.818H271.345C272.772 400.818 273.938 401.076 274.843 401.591C275.754 402.1 276.429 402.789 276.867 403.659C277.305 404.529 277.524 405.5 277.524 406.571C277.524 407.642 277.305 408.616 276.867 409.492C276.435 410.368 275.766 411.066 274.861 411.587C273.955 412.102 272.795 412.359 271.381 412.359H266.977V410.406H271.31C272.286 410.406 273.07 410.238 273.662 409.9C274.254 409.563 274.683 409.107 274.95 408.533C275.222 407.953 275.358 407.299 275.358 406.571C275.358 405.843 275.222 405.192 274.95 404.618C274.683 404.044 274.251 403.594 273.653 403.268C273.056 402.937 272.263 402.771 271.274 402.771H267.403V419H265.202ZM280.787 419V405.364H282.811V407.423H282.953C283.202 406.749 283.651 406.201 284.302 405.781C284.953 405.361 285.687 405.151 286.504 405.151C286.658 405.151 286.85 405.154 287.081 405.159C287.312 405.165 287.487 405.174 287.605 405.186V407.317C287.534 407.299 287.371 407.272 287.117 407.237C286.868 407.195 286.605 407.175 286.327 407.175C285.664 407.175 285.072 407.314 284.551 407.592C284.036 407.864 283.628 408.243 283.326 408.728C283.03 409.208 282.882 409.755 282.882 410.371V419H280.787ZM295.391 419.284C294.077 419.284 292.943 418.994 291.991 418.414C291.044 417.828 290.313 417.011 289.798 415.964C289.289 414.91 289.034 413.685 289.034 412.288C289.034 410.892 289.289 409.661 289.798 408.595C290.313 407.524 291.029 406.689 291.946 406.092C292.869 405.488 293.947 405.186 295.178 405.186C295.888 405.186 296.589 405.304 297.282 405.541C297.974 405.778 298.605 406.163 299.173 406.695C299.741 407.222 300.194 407.92 300.531 408.79C300.868 409.661 301.037 410.732 301.037 412.004V412.892H290.526V411.081H298.906C298.906 410.312 298.753 409.625 298.445 409.021C298.143 408.418 297.711 407.941 297.149 407.592C296.592 407.243 295.935 407.068 295.178 407.068C294.343 407.068 293.621 407.275 293.012 407.69C292.408 408.098 291.943 408.631 291.618 409.288C291.292 409.945 291.129 410.649 291.129 411.401V412.608C291.129 413.638 291.307 414.511 291.662 415.227C292.023 415.937 292.523 416.479 293.162 416.852C293.802 417.219 294.544 417.402 295.391 417.402C295.941 417.402 296.438 417.325 296.882 417.171C297.332 417.011 297.72 416.775 298.045 416.461C298.371 416.141 298.622 415.745 298.8 415.271L300.824 415.839C300.611 416.526 300.253 417.13 299.75 417.651C299.247 418.165 298.625 418.568 297.885 418.858C297.146 419.142 296.314 419.284 295.391 419.284ZM313.883 408.418L312.001 408.95C311.883 408.637 311.708 408.332 311.477 408.036C311.253 407.734 310.945 407.485 310.554 407.29C310.164 407.095 309.663 406.997 309.054 406.997C308.219 406.997 307.524 407.19 306.968 407.574C306.417 407.953 306.142 408.435 306.142 409.021C306.142 409.542 306.331 409.953 306.71 410.255C307.089 410.557 307.681 410.809 308.486 411.01L310.51 411.507C311.729 411.803 312.637 412.256 313.235 412.865C313.833 413.469 314.132 414.247 314.132 415.2C314.132 415.982 313.907 416.68 313.457 417.295C313.013 417.911 312.392 418.396 311.593 418.751C310.794 419.107 309.865 419.284 308.805 419.284C307.414 419.284 306.263 418.982 305.352 418.379C304.44 417.775 303.863 416.893 303.621 415.733L305.609 415.236C305.799 415.97 306.157 416.52 306.683 416.887C307.216 417.254 307.912 417.438 308.77 417.438C309.746 417.438 310.522 417.23 311.096 416.816C311.676 416.396 311.966 415.893 311.966 415.307C311.966 414.833 311.8 414.437 311.469 414.117C311.137 413.792 310.628 413.549 309.942 413.389L307.669 412.857C306.42 412.561 305.503 412.102 304.917 411.48C304.337 410.853 304.047 410.069 304.047 409.128C304.047 408.358 304.263 407.678 304.695 407.086C305.133 406.494 305.728 406.029 306.479 405.692C307.237 405.355 308.095 405.186 309.054 405.186C310.403 405.186 311.463 405.482 312.232 406.074C313.007 406.666 313.558 407.447 313.883 408.418ZM322.826 419.284C321.547 419.284 320.446 418.982 319.523 418.379C318.6 417.775 317.889 416.943 317.392 415.884C316.895 414.824 316.647 413.614 316.647 412.253C316.647 410.868 316.901 409.646 317.41 408.586C317.925 407.521 318.641 406.689 319.559 406.092C320.482 405.488 321.559 405.186 322.79 405.186C323.749 405.186 324.613 405.364 325.382 405.719C326.152 406.074 326.782 406.571 327.273 407.21C327.765 407.849 328.069 408.595 328.188 409.447H326.093C325.933 408.826 325.578 408.276 325.027 407.796C324.483 407.311 323.749 407.068 322.826 407.068C322.009 407.068 321.293 407.281 320.677 407.707C320.068 408.128 319.591 408.722 319.248 409.492C318.91 410.255 318.742 411.152 318.742 412.182C318.742 413.235 318.907 414.153 319.239 414.934C319.576 415.715 320.05 416.322 320.659 416.754C321.275 417.186 321.997 417.402 322.826 417.402C323.37 417.402 323.864 417.307 324.308 417.118C324.752 416.929 325.128 416.656 325.436 416.301C325.743 415.946 325.962 415.52 326.093 415.023H328.188C328.069 415.828 327.776 416.553 327.309 417.198C326.847 417.837 326.235 418.346 325.471 418.725C324.714 419.098 323.832 419.284 322.826 419.284ZM336.79 419.284C335.559 419.284 334.479 418.991 333.55 418.405C332.627 417.819 331.905 417 331.384 415.946C330.869 414.893 330.611 413.661 330.611 412.253C330.611 410.832 330.869 409.592 331.384 408.533C331.905 407.474 332.627 406.651 333.55 406.065C334.479 405.479 335.559 405.186 336.79 405.186C338.021 405.186 339.099 405.479 340.022 406.065C340.951 406.651 341.673 407.474 342.188 408.533C342.709 409.592 342.969 410.832 342.969 412.253C342.969 413.661 342.709 414.893 342.188 415.946C341.673 417 340.951 417.819 340.022 418.405C339.099 418.991 338.021 419.284 336.79 419.284ZM336.79 417.402C337.726 417.402 338.495 417.162 339.099 416.683C339.702 416.203 340.149 415.573 340.439 414.792C340.729 414.011 340.874 413.164 340.874 412.253C340.874 411.341 340.729 410.492 340.439 409.705C340.149 408.918 339.702 408.281 339.099 407.796C338.495 407.311 337.726 407.068 336.79 407.068C335.855 407.068 335.086 407.311 334.482 407.796C333.878 408.281 333.432 408.918 333.142 409.705C332.852 410.492 332.707 411.341 332.707 412.253C332.707 413.164 332.852 414.011 333.142 414.792C333.432 415.573 333.878 416.203 334.482 416.683C335.086 417.162 335.855 417.402 336.79 417.402ZM352.098 405.364V407.139H345.031V405.364H352.098ZM347.091 402.097H349.186V415.094C349.186 415.686 349.272 416.129 349.444 416.425C349.621 416.715 349.846 416.911 350.118 417.011C350.396 417.106 350.689 417.153 350.997 417.153C351.228 417.153 351.417 417.142 351.565 417.118C351.713 417.088 351.832 417.065 351.92 417.047L352.347 418.929C352.205 418.982 352.006 419.036 351.752 419.089C351.497 419.148 351.175 419.178 350.784 419.178C350.192 419.178 349.612 419.05 349.044 418.796C348.482 418.541 348.014 418.154 347.641 417.633C347.274 417.112 347.091 416.455 347.091 415.662V402.097ZM361.18 405.364V407.139H354.113V405.364H361.18ZM356.173 402.097H358.268V415.094C358.268 415.686 358.354 416.129 358.526 416.425C358.703 416.715 358.928 416.911 359.2 417.011C359.478 417.106 359.771 417.153 360.079 417.153C360.31 417.153 360.499 417.142 360.647 417.118C360.795 417.088 360.914 417.065 361.002 417.047L361.429 418.929C361.287 418.982 361.088 419.036 360.834 419.089C360.579 419.148 360.257 419.178 359.866 419.178C359.274 419.178 358.694 419.05 358.126 418.796C357.564 418.541 357.096 418.154 356.723 417.633C356.356 417.112 356.173 416.455 356.173 415.662V402.097Z" fill="black"/>
<path d="M134.202 350V331.818H136.403V340.838H136.616L144.784 331.818H147.661L140.026 340.021L147.661 350H144.997L138.676 341.548L136.403 344.105V350H134.202ZM151.081 350V336.364H153.176V350H151.081ZM152.146 334.091C151.738 334.091 151.386 333.952 151.09 333.674C150.8 333.395 150.655 333.061 150.655 332.67C150.655 332.28 150.8 331.945 151.09 331.667C151.386 331.389 151.738 331.25 152.146 331.25C152.554 331.25 152.904 331.389 153.194 331.667C153.49 331.945 153.638 332.28 153.638 332.67C153.638 333.061 153.49 333.395 153.194 333.674C152.904 333.952 152.554 334.091 152.146 334.091ZM159.108 341.797V350H157.013V336.364H159.037V338.494H159.215C159.535 337.802 160.02 337.246 160.671 336.825C161.322 336.399 162.162 336.186 163.192 336.186C164.116 336.186 164.923 336.375 165.616 336.754C166.308 337.127 166.847 337.695 167.232 338.459C167.616 339.216 167.809 340.175 167.809 341.335V350H165.714V341.477C165.714 340.406 165.435 339.571 164.879 338.974C164.323 338.37 163.559 338.068 162.589 338.068C161.92 338.068 161.322 338.213 160.795 338.503C160.274 338.793 159.863 339.216 159.561 339.773C159.259 340.329 159.108 341.004 159.108 341.797ZM177.142 355.398C176.13 355.398 175.259 355.268 174.532 355.007C173.804 354.753 173.197 354.415 172.712 353.995C172.232 353.581 171.85 353.137 171.566 352.663L173.235 351.491C173.425 351.74 173.664 352.024 173.954 352.344C174.244 352.669 174.641 352.95 175.144 353.187C175.653 353.43 176.319 353.551 177.142 353.551C178.242 353.551 179.151 353.285 179.867 352.752C180.583 352.219 180.941 351.385 180.941 350.249V347.479H180.764C180.61 347.727 180.391 348.035 180.107 348.402C179.829 348.763 179.426 349.086 178.899 349.37C178.379 349.648 177.674 349.787 176.786 349.787C175.686 349.787 174.697 349.527 173.821 349.006C172.951 348.485 172.262 347.727 171.753 346.733C171.25 345.739 170.998 344.531 170.998 343.111C170.998 341.714 171.244 340.498 171.735 339.462C172.226 338.42 172.91 337.615 173.786 337.047C174.662 336.473 175.674 336.186 176.822 336.186C177.71 336.186 178.414 336.334 178.935 336.63C179.462 336.92 179.864 337.251 180.142 337.624C180.426 337.991 180.645 338.293 180.799 338.53H181.012V336.364H183.036V350.391C183.036 351.562 182.77 352.515 182.237 353.249C181.711 353.989 181.001 354.531 180.107 354.874C179.219 355.223 178.231 355.398 177.142 355.398ZM177.071 347.905C177.911 347.905 178.621 347.712 179.201 347.328C179.781 346.943 180.222 346.39 180.524 345.668C180.826 344.946 180.977 344.081 180.977 343.075C180.977 342.093 180.829 341.226 180.533 340.474C180.237 339.722 179.799 339.134 179.219 338.707C178.639 338.281 177.923 338.068 177.071 338.068C176.183 338.068 175.443 338.293 174.851 338.743C174.265 339.193 173.824 339.796 173.528 340.554C173.238 341.312 173.093 342.152 173.093 343.075C173.093 344.022 173.241 344.86 173.537 345.588C173.839 346.31 174.283 346.878 174.869 347.292C175.461 347.701 176.195 347.905 177.071 347.905ZM186.872 350V336.364H188.896V338.494H189.073C189.358 337.766 189.816 337.201 190.449 336.799C191.083 336.39 191.843 336.186 192.731 336.186C193.631 336.186 194.379 336.39 194.977 336.799C195.581 337.201 196.051 337.766 196.389 338.494H196.531C196.88 337.79 197.404 337.231 198.102 336.816C198.801 336.396 199.638 336.186 200.615 336.186C201.834 336.186 202.831 336.568 203.606 337.331C204.382 338.089 204.769 339.27 204.769 340.874V350H202.674V340.874C202.674 339.867 202.399 339.148 201.849 338.716C201.298 338.284 200.65 338.068 199.904 338.068C198.946 338.068 198.203 338.358 197.676 338.938C197.149 339.512 196.886 340.24 196.886 341.122V350H194.755V340.661C194.755 339.885 194.504 339.261 194.001 338.787C193.498 338.308 192.849 338.068 192.056 338.068C191.512 338.068 191.003 338.213 190.529 338.503C190.062 338.793 189.683 339.196 189.393 339.711C189.109 340.22 188.967 340.808 188.967 341.477V350H186.872ZM212.613 350.32C211.749 350.32 210.965 350.157 210.26 349.831C209.556 349.5 208.997 349.023 208.582 348.402C208.168 347.775 207.961 347.017 207.961 346.129C207.961 345.348 208.115 344.715 208.423 344.229C208.73 343.738 209.142 343.353 209.657 343.075C210.172 342.797 210.74 342.59 211.361 342.454C211.989 342.312 212.619 342.199 213.252 342.116C214.081 342.01 214.753 341.93 215.267 341.877C215.788 341.818 216.167 341.72 216.404 341.584C216.647 341.448 216.768 341.211 216.768 340.874V340.803C216.768 339.927 216.528 339.246 216.049 338.761C215.575 338.275 214.856 338.033 213.891 338.033C212.891 338.033 212.107 338.252 211.539 338.69C210.971 339.128 210.571 339.595 210.34 340.092L208.352 339.382C208.707 338.554 209.18 337.908 209.772 337.447C210.37 336.979 211.021 336.654 211.725 336.47C212.435 336.281 213.134 336.186 213.82 336.186C214.258 336.186 214.761 336.239 215.33 336.346C215.904 336.446 216.457 336.657 216.99 336.976C217.528 337.296 217.975 337.778 218.33 338.423C218.685 339.068 218.863 339.933 218.863 341.016V350H216.768V348.153H216.661C216.519 348.449 216.283 348.766 215.951 349.103C215.62 349.441 215.179 349.728 214.628 349.964C214.078 350.201 213.406 350.32 212.613 350.32ZM212.933 348.438C213.761 348.438 214.46 348.275 215.028 347.949C215.602 347.624 216.034 347.203 216.324 346.689C216.62 346.174 216.768 345.632 216.768 345.064V343.146C216.679 343.253 216.484 343.35 216.182 343.439C215.886 343.522 215.543 343.596 215.152 343.661C214.767 343.72 214.392 343.774 214.025 343.821C213.664 343.862 213.371 343.898 213.146 343.928C212.601 343.999 212.092 344.114 211.619 344.274C211.151 344.428 210.772 344.661 210.482 344.975C210.198 345.283 210.056 345.703 210.056 346.236C210.056 346.964 210.325 347.514 210.864 347.887C211.409 348.254 212.098 348.438 212.933 348.438ZM224.782 341.797V350H222.687V336.364H224.711V338.494H224.889C225.208 337.802 225.694 337.246 226.345 336.825C226.996 336.399 227.836 336.186 228.866 336.186C229.789 336.186 230.597 336.375 231.29 336.754C231.982 337.127 232.521 337.695 232.906 338.459C233.29 339.216 233.483 340.175 233.483 341.335V350H231.387V341.477C231.387 340.406 231.109 339.571 230.553 338.974C229.997 338.37 229.233 338.068 228.262 338.068C227.594 338.068 226.996 338.213 226.469 338.503C225.948 338.793 225.537 339.216 225.235 339.773C224.933 340.329 224.782 341.004 224.782 341.797Z" fill="black"/>
<circle cx="451.511" cy="650.511" r="9.01136" fill="#FFE587" stroke="black"/>
<circle cx="517.511" cy="726.511" r="9.01136" fill="#FFE587" stroke="black"/>
<circle cx="103.511" cy="603.511" r="9.01136" fill="#FFE587" stroke="black"/>
<circle cx="364.511" cy="520.511" r="9.01136" fill="#FFE587" stroke="black"/>
<circle cx="383.511" cy="312.511" r="9.01136" fill="#FFE587" stroke="black"/>
<circle cx="309.511" cy="388.511" r="9.01136" fill="#FFE587" stroke="black"/>
<circle cx="154.511" cy="312.511" r="9.01136" fill="#FFE587" stroke="black"/>
<path d="M269.793 744.818H273.824L279.222 757.993H279.435L284.832 744.818H288.863V763H285.702V750.509H285.534L280.509 762.947H278.147L273.123 750.482H272.954V763H269.793V744.818ZM298.344 763.266C296.977 763.266 295.797 762.982 294.802 762.414C293.814 761.84 293.053 761.029 292.521 759.982C291.988 758.928 291.722 757.688 291.722 756.262C291.722 754.859 291.988 753.628 292.521 752.569C293.059 751.503 293.811 750.675 294.776 750.083C295.74 749.485 296.874 749.186 298.176 749.186C299.016 749.186 299.809 749.322 300.555 749.594C301.307 749.861 301.97 750.275 302.544 750.837C303.124 751.4 303.579 752.116 303.911 752.986C304.242 753.85 304.408 754.88 304.408 756.075V757.061H293.231V754.895H301.327C301.321 754.279 301.188 753.732 300.928 753.252C300.667 752.767 300.304 752.385 299.836 752.107C299.374 751.829 298.836 751.69 298.22 751.69C297.563 751.69 296.986 751.849 296.489 752.169C295.992 752.483 295.604 752.897 295.326 753.412C295.054 753.921 294.915 754.48 294.909 755.09V756.981C294.909 757.774 295.054 758.455 295.344 759.023C295.634 759.585 296.039 760.017 296.56 760.319C297.081 760.615 297.69 760.763 298.389 760.763C298.856 760.763 299.28 760.698 299.658 760.567C300.037 760.431 300.366 760.233 300.644 759.973C300.922 759.712 301.132 759.39 301.274 759.005L304.275 759.342C304.085 760.135 303.724 760.828 303.192 761.42C302.665 762.006 301.99 762.461 301.168 762.787C300.345 763.107 299.404 763.266 298.344 763.266ZM309.462 749.364L312.214 754.397L315.01 749.364H318.411L314.3 756.182L318.482 763H315.099L312.214 758.091L309.355 763H305.946L310.101 756.182L306.053 749.364H309.462ZM320.896 763V749.364H324.11V763H320.896ZM322.512 747.428C322.003 747.428 321.565 747.26 321.198 746.922C320.831 746.579 320.648 746.168 320.648 745.688C320.648 745.203 320.831 744.792 321.198 744.454C321.565 744.111 322.003 743.939 322.512 743.939C323.027 743.939 323.465 744.111 323.826 744.454C324.193 744.792 324.377 745.203 324.377 745.688C324.377 746.168 324.193 746.579 323.826 746.922C323.465 747.26 323.027 747.428 322.512 747.428ZM333.363 763.266C332.002 763.266 330.833 762.967 329.856 762.37C328.886 761.772 328.137 760.946 327.61 759.893C327.089 758.833 326.829 757.614 326.829 756.235C326.829 754.85 327.095 753.628 327.628 752.569C328.161 751.503 328.912 750.675 329.883 750.083C330.86 749.485 332.014 749.186 333.345 749.186C334.452 749.186 335.432 749.39 336.284 749.799C337.142 750.201 337.826 750.772 338.335 751.512C338.844 752.246 339.134 753.104 339.205 754.087H336.133C336.009 753.43 335.713 752.882 335.245 752.444C334.784 752 334.165 751.778 333.39 751.778C332.733 751.778 332.156 751.956 331.659 752.311C331.161 752.66 330.774 753.163 330.496 753.82C330.223 754.477 330.087 755.264 330.087 756.182C330.087 757.111 330.223 757.91 330.496 758.579C330.768 759.242 331.15 759.754 331.641 760.115C332.138 760.47 332.721 760.647 333.39 760.647C333.863 760.647 334.286 760.559 334.659 760.381C335.038 760.198 335.355 759.934 335.609 759.591C335.864 759.248 336.038 758.83 336.133 758.339H339.205C339.128 759.304 338.844 760.159 338.352 760.905C337.861 761.645 337.192 762.225 336.346 762.645C335.5 763.059 334.505 763.266 333.363 763.266ZM347.792 763.266C346.46 763.266 345.306 762.973 344.329 762.387C343.353 761.801 342.595 760.982 342.057 759.928C341.524 758.875 341.258 757.644 341.258 756.235C341.258 754.826 341.524 753.592 342.057 752.533C342.595 751.474 343.353 750.651 344.329 750.065C345.306 749.479 346.46 749.186 347.792 749.186C349.123 749.186 350.278 749.479 351.254 750.065C352.231 750.651 352.985 751.474 353.518 752.533C354.057 753.592 354.326 754.826 354.326 756.235C354.326 757.644 354.057 758.875 353.518 759.928C352.985 760.982 352.231 761.801 351.254 762.387C350.278 762.973 349.123 763.266 347.792 763.266ZM347.81 760.692C348.532 760.692 349.135 760.493 349.621 760.097C350.106 759.694 350.467 759.156 350.704 758.481C350.946 757.806 351.068 757.055 351.068 756.226C351.068 755.392 350.946 754.637 350.704 753.962C350.467 753.282 350.106 752.74 349.621 752.338C349.135 751.935 348.532 751.734 347.81 751.734C347.07 751.734 346.454 751.935 345.963 752.338C345.478 752.74 345.114 753.282 344.871 753.962C344.634 754.637 344.516 755.392 344.516 756.226C344.516 757.055 344.634 757.806 344.871 758.481C345.114 759.156 345.478 759.694 345.963 760.097C346.454 760.493 347.07 760.692 347.81 760.692Z" fill="#00943D"/>
<defs>
<filter id="filter0_d_223_222" x="82.5" y="100" width="558" height="662.501" filterUnits="userSpaceOnUse" color-interpolation-filters="sRGB">
<feFlood flood-opacity="0" result="BackgroundImageFix"/>
<feColorMatrix in="SourceAlpha" type="matrix" values="0 0 0 0 0 0 0 0 0 0 0 0 0 0 0 0 0 0 127 0" result="hardAlpha"/>
<feOffset dy="4"/>
<feGaussianBlur stdDeviation="2"/>
<feComposite in2="hardAlpha" operator="out"/>
<feColorMatrix type="matrix" values="0 0 0 0 0 0 0 0 0 0 0 0 0 0 0 0 0 0 0.25 0"/>
<feBlend mode="normal" in2="BackgroundImageFix" result="effect1_dropShadow_223_222"/>
<feBlend mode="normal" in="SourceGraphic" in2="effect1_dropShadow_223_222" result="shape"/>
</filter>
</defs>
</svg>
