<svg width="850" height="746" viewBox="0 0 850 746" fill="none" xmlns="http://www.w3.org/2000/svg">
<rect x="0.5" y="0.5" width="849" height="745" rx="35.5" fill="#97DCFF" stroke="#717171"/>
<g filter="url(#filter0_d_159_277)">
<path d="M679.5 99.5H101.5L102 103L104 120.5L108.5 154L112 179.5L117.5 217.5L121 244.5L125 274.5L118.5 553L120 552C120.833 551.667 122.6 551 123 551C123.4 551 122.833 553.667 122.5 555L120.5 557L121.5 558.5L124.5 557.5L125.5 559C126.333 560.167 128.1 562.5 128.5 562.5C128.9 562.5 130.667 561.5 131.5 561L132.5 563L130 565.5H132.5C133.167 565.5 134.8 565.7 136 566.5C137.2 567.3 136.5 564.5 136 563C136.833 563.5 138.6 564.7 139 565.5C139.5 566.5 140.5 564.5 141.5 564.5C142.3 564.5 142.5 562.833 142.5 562C142.833 562.833 143.7 564.5 144.5 564.5C145.3 564.5 146.167 564.167 146.5 564L148 561C148.5 562.167 149.6 564.5 150 564.5C150.5 564.5 152 565 153.5 564.5C154.7 564.1 154.667 562.667 154.5 562L158 559L161 561L162 562C162.833 562.667 164.7 564 165.5 564C166.3 564 166.833 563.333 167 563H170L171 561C171.667 561.167 173.1 561.6 173.5 562C173.9 562.4 173.333 563.833 173 564.5L175.5 566.5L176 648L534 650.5H548C549.333 648.667 552.3 644.7 553.5 643.5C555 642 554 641.5 553.5 641C553 640.5 551 639 549.5 638C548 637 546.5 636.5 545 635.5C543.8 634.7 544.167 633.5 544.5 633L546.5 629.5C547.667 629.667 550.1 630.1 550.5 630.5C550.9 630.9 554 630.667 555.5 630.5L558.5 628.5V621.5L557.5 617C558.167 616.667 559.8 615.9 561 615.5C562.5 615 563.5 613 564 611.5C564.5 610 564 608.5 563.5 608C563.1 607.6 561.333 607.833 560.5 608L558.5 611L557 613L555.5 612L553 606.5L552 600.5V596.5C552 595.5 555 593.5 556 593C557 592.5 559 589.5 559.5 589C559.9 588.6 561.333 586.833 562 586L561 582.5L559.5 582C558.5 583.5 556.4 586.6 556 587C555.5 587.5 554 590 553 590.5C552 591 551 592 549.5 592C548 592 546.5 591.5 546.5 591C546.5 590.5 545.5 588.5 544.5 588C543.5 587.5 546 586.5 546.5 586C547 585.5 549.5 585 551 584.5C552.5 584 553 583 554 582C555 581 553 577.5 553 577C553 576.6 550.667 574.833 549.5 574L547.5 577.5V582L544.5 584.5C543.667 584.167 542 583.4 542 583C542 582.6 541.333 581.167 541 580.5L543 577L545.5 573.5C545.167 572.833 544.3 571.2 543.5 570C542.5 568.5 542.5 569.5 541 568C539.5 566.5 541 565 540.5 564C540 563 542.5 563 544.5 563C546.5 563 547.5 561.5 550 560.5C552.5 559.5 552 557.5 552 555.5C552 553.5 551.5 553.5 551 553C550.6 552.6 547.5 550.5 546 549.5C544.333 548.5 541 546.4 541 546V543.5C543 543 547.1 541.9 547.5 541.5C548 541 549.5 543.5 550 544C550.5 544.5 554 546.5 555 547.5C556 548.5 558.5 549 561 549C563.5 549 563.5 547.5 565 546C566.5 544.5 565 544 565 543.5C565 543 563.5 541.5 562 541.5H556C555.2 541.5 553.667 540.167 553 539.5C552.5 538.667 551.4 536.9 551 536.5C550.6 536.1 551.5 533.667 552 532.5L554 531L560 530C561.833 530.5 565.6 531.5 566 531.5C566.5 531.5 567 532 568 531.5C569 531 570 530 570.5 530C570.9 530 570.667 528.667 570.5 528L565 525L562 521.5L561 517L563.5 513H565C566 511 568.2 506.8 569 506C569.8 505.2 563.667 504 560.5 503.5C560 502.833 558.8 501.3 558 500.5C557.2 499.7 557.333 497.833 557.5 497L559 495L560.5 496L563.5 497L567 496L569 500.5L572.5 502.5L575 500.5L572.5 496L574 492H582.5L584.5 490.5L586 483.5L584.5 481H581L578 478C577 477 576.5 475 577 474C577.5 473 578 472.5 579 472.5C579.8 472.5 581 470.833 581.5 470C583.333 470.833 587.2 472.7 588 473.5C589 474.5 591 473 592 472.5C593 472 593.5 470 593.5 469C593.5 468.2 591.833 467.333 591 467L584.5 466.5L580 463.5L578 459.5L581.5 458.5L588 463.5C588.833 462.5 590.5 460.1 590.5 458.5C590.5 456.9 591.5 453.833 592 452.5H599C599.8 452.5 601.333 450.167 602 449V443.5L600.5 440.5L602 439L607 438H611.5L609 443.5L611 446.5C612.167 445.5 614.5 443.3 614.5 442.5C614.5 441.7 615.167 438.5 615.5 437C618 435.5 623.2 432.4 624 432C624.8 431.6 624.333 428.167 624 426.5L623 418.5L626.5 413L629 409L625 403L623 399C623.333 397.5 623.8 394.3 623 393.5C622.2 392.7 623.333 390.167 624 389L626.5 387.5L628 389V396C628.667 396.5 630.2 397.5 631 397.5C632 397.5 634.5 395 637 393C639 391.4 639.167 389.667 639 389L638 385C636.833 385.5 634.3 386.5 633.5 386.5H629L626.5 384C626.333 383.333 626.1 381.8 626.5 381C627 380 630 379 630 378V373.5V370L634.5 371V376.5L632.5 381H634.5H639C639.8 381 640 379.667 640 379C640 377.667 639.8 374.9 639 374.5C638 374 638.5 371.5 638 370C637.5 368.5 639 369 640 368.5C641 368 640 366.5 640 365.5C640 364.7 638.667 363.833 638 363.5L637 360L638 357L641 355.5L642.5 358V362.5L641 364.5L642.5 365.5L644 366.5L646.5 364.5L652.5 362.5C656.167 360.5 663.8 356.3 665 355.5C666.2 354.7 667.167 352.5 667.5 351.5V347L661.5 342.5L660 337.5L661.5 333.5L663.5 332.5L670 333.5C670.667 333.833 672.2 334.3 673 333.5C673.8 332.7 674 329.5 674 328L675 323L678.5 318.5C679.667 318.667 682.3 319.1 683.5 319.5C685 320 686.5 320 688 319C689.5 318 690 317.5 690 315.5C690 313.9 687.667 313.167 686.5 313L685.5 309.5C685.833 309 686.8 307.7 688 306.5C689.2 305.3 688.833 303.667 688.5 303L686.5 299.5C684.667 299.167 680.8 298.5 680 298.5C679.2 298.5 679 295.167 679 293.5V291.5C680.333 291.167 683.3 290.4 684.5 290C685.7 289.6 685.667 286.167 685.5 284.5C686.167 283 687.7 279.8 688.5 279C689.3 278.2 688.833 277 688.5 276.5L684.5 275.5L682 274.5V278.5L680 279L676.5 276.5L679 271L683 266L684.5 264H688.5C689.3 264 690.167 266 690.5 267L690 271L691.5 274.5L692.5 274C693.5 273 695.5 270.9 695.5 270.5C695.5 270 697.5 269 697.5 267.5C697.5 266.3 697.167 264.667 697 264L694.5 259L693.5 254.5L695.5 251.5L699.5 249.5L703.5 252.5L704.5 255.5H706.5C707.333 255.667 709.1 255.9 709.5 255.5C709.9 255.1 710.333 253.667 710.5 253L709.5 251.5L705.5 248.5L706.5 244.5L710.5 241C712.333 240.333 716.1 238.9 716.5 238.5C716.9 238.1 717.667 236 718 235L716.5 233L715 234.5L712 235.5L709.5 234.5L707 232.5L705.5 229L705 225L706.5 221L709.5 219L713.5 218.5L718.5 219.5C719.667 219.333 722.1 219 722.5 219C722.9 219 724 217.667 724.5 217L726.5 213L729 210.5C730.5 210.667 733.7 211 734.5 211C735.3 211 736.5 209.667 737 209L735.5 205L731.5 202.5L729.5 200.5L729 198L731 196.5L733.5 195C734.5 195.333 736.6 196 737 196C737.4 196 739.167 197 740 197.5C740.667 197.333 742.2 196.8 743 196C744 195 743.5 192.5 743.5 191.5C743.5 190.7 741.833 189.5 741 189L736 185L733.5 180L650.5 180.5L651.5 178L655.5 170L658.5 165L662.5 161.5C664 160.333 667.3 157.8 668.5 157C669.7 156.2 669.667 153.667 669.5 152.5L670 151C673.833 148.5 681.8 143.3 683 142.5C684.5 141.5 683.5 139 684 138.5C684.4 138.1 684.833 137.333 685 137C685.5 137.167 686.7 137.4 687.5 137C688.5 136.5 689.5 135.5 689.5 135C689.5 134.6 690.833 132.5 691.5 131.5L689.5 127V124.5L691.5 118L688 115L682 112.5L681.5 108V105L679.5 99.5Z" fill="#FFD597"/>
<path d="M679.5 99.5H101.5L102 103L104 120.5L108.5 154L112 179.5L117.5 217.5L121 244.5L125 274.5L118.5 553L120 552C120.833 551.667 122.6 551 123 551C123.4 551 122.833 553.667 122.5 555L120.5 557L121.5 558.5L124.5 557.5L125.5 559C126.333 560.167 128.1 562.5 128.5 562.5C128.9 562.5 130.667 561.5 131.5 561L132.5 563L130 565.5H132.5C133.167 565.5 134.8 565.7 136 566.5C137.2 567.3 136.5 564.5 136 563C136.833 563.5 138.6 564.7 139 565.5C139.5 566.5 140.5 564.5 141.5 564.5C142.3 564.5 142.5 562.833 142.5 562C142.833 562.833 143.7 564.5 144.5 564.5C145.3 564.5 146.167 564.167 146.5 564L148 561C148.5 562.167 149.6 564.5 150 564.5C150.5 564.5 152 565 153.5 564.5C154.7 564.1 154.667 562.667 154.5 562L158 559L161 561L162 562C162.833 562.667 164.7 564 165.5 564C166.3 564 166.833 563.333 167 563H170L171 561C171.667 561.167 173.1 561.6 173.5 562C173.9 562.4 173.333 563.833 173 564.5L175.5 566.5L176 648L534 650.5H548C549.333 648.667 552.3 644.7 553.5 643.5C555 642 554 641.5 553.5 641C553 640.5 551 639 549.5 638C548 637 546.5 636.5 545 635.5C543.8 634.7 544.167 633.5 544.5 633L546.5 629.5C547.667 629.667 550.1 630.1 550.5 630.5C550.9 630.9 554 630.667 555.5 630.5L558.5 628.5V621.5L557.5 617C558.167 616.667 559.8 615.9 561 615.5C562.5 615 563.5 613 564 611.5C564.5 610 564 608.5 563.5 608C563.1 607.6 561.333 607.833 560.5 608L558.5 611L557 613L555.5 612L553 606.5L552 600.5V596.5C552 595.5 555 593.5 556 593C557 592.5 559 589.5 559.5 589C559.9 588.6 561.333 586.833 562 586L561 582.5L559.5 582C558.5 583.5 556.4 586.6 556 587C555.5 587.5 554 590 553 590.5C552 591 551 592 549.5 592C548 592 546.5 591.5 546.5 591C546.5 590.5 545.5 588.5 544.5 588C543.5 587.5 546 586.5 546.5 586C547 585.5 549.5 585 551 584.5C552.5 584 553 583 554 582C555 581 553 577.5 553 577C553 576.6 550.667 574.833 549.5 574L547.5 577.5V582L544.5 584.5C543.667 584.167 542 583.4 542 583C542 582.6 541.333 581.167 541 580.5L543 577L545.5 573.5C545.167 572.833 544.3 571.2 543.5 570C542.5 568.5 542.5 569.5 541 568C539.5 566.5 541 565 540.5 564C540 563 542.5 563 544.5 563C546.5 563 547.5 561.5 550 560.5C552.5 559.5 552 557.5 552 555.5C552 553.5 551.5 553.5 551 553C550.6 552.6 547.5 550.5 546 549.5C544.333 548.5 541 546.4 541 546V543.5C543 543 547.1 541.9 547.5 541.5C548 541 549.5 543.5 550 544C550.5 544.5 554 546.5 555 547.5C556 548.5 558.5 549 561 549C563.5 549 563.5 547.5 565 546C566.5 544.5 565 544 565 543.5C565 543 563.5 541.5 562 541.5H556C555.2 541.5 553.667 540.167 553 539.5C552.5 538.667 551.4 536.9 551 536.5C550.6 536.1 551.5 533.667 552 532.5L554 531L560 530C561.833 530.5 565.6 531.5 566 531.5C566.5 531.5 567 532 568 531.5C569 531 570 530 570.5 530C570.9 530 570.667 528.667 570.5 528L565 525L562 521.5L561 517L563.5 513H565C566 511 568.2 506.8 569 506C569.8 505.2 563.667 504 560.5 503.5C560 502.833 558.8 501.3 558 500.5C557.2 499.7 557.333 497.833 557.5 497L559 495L560.5 496L563.5 497L567 496L569 500.5L572.5 502.5L575 500.5L572.5 496L574 492H582.5L584.5 490.5L586 483.5L584.5 481H581L578 478C577 477 576.5 475 577 474C577.5 473 578 472.5 579 472.5C579.8 472.5 581 470.833 581.5 470C583.333 470.833 587.2 472.7 588 473.5C589 474.5 591 473 592 472.5C593 472 593.5 470 593.5 469C593.5 468.2 591.833 467.333 591 467L584.5 466.5L580 463.5L578 459.5L581.5 458.5L588 463.5C588.833 462.5 590.5 460.1 590.5 458.5C590.5 456.9 591.5 453.833 592 452.5H599C599.8 452.5 601.333 450.167 602 449V443.5L600.5 440.5L602 439L607 438H611.5L609 443.5L611 446.5C612.167 445.5 614.5 443.3 614.5 442.5C614.5 441.7 615.167 438.5 615.5 437C618 435.5 623.2 432.4 624 432C624.8 431.6 624.333 428.167 624 426.5L623 418.5L626.5 413L629 409L625 403L623 399C623.333 397.5 623.8 394.3 623 393.5C622.2 392.7 623.333 390.167 624 389L626.5 387.5L628 389V396C628.667 396.5 630.2 397.5 631 397.5C632 397.5 634.5 395 637 393C639 391.4 639.167 389.667 639 389L638 385C636.833 385.5 634.3 386.5 633.5 386.5H629L626.5 384C626.333 383.333 626.1 381.8 626.5 381C627 380 630 379 630 378V373.5V370L634.5 371V376.5L632.5 381H634.5H639C639.8 381 640 379.667 640 379C640 377.667 639.8 374.9 639 374.5C638 374 638.5 371.5 638 370C637.5 368.5 639 369 640 368.5C641 368 640 366.5 640 365.5C640 364.7 638.667 363.833 638 363.5L637 360L638 357L641 355.5L642.5 358V362.5L641 364.5L642.5 365.5L644 366.5L646.5 364.5L652.5 362.5C656.167 360.5 663.8 356.3 665 355.5C666.2 354.7 667.167 352.5 667.5 351.5V347L661.5 342.5L660 337.5L661.5 333.5L663.5 332.5L670 333.5C670.667 333.833 672.2 334.3 673 333.5C673.8 332.7 674 329.5 674 328L675 323L678.5 318.5C679.667 318.667 682.3 319.1 683.5 319.5C685 320 686.5 320 688 319C689.5 318 690 317.5 690 315.5C690 313.9 687.667 313.167 686.5 313L685.5 309.5C685.833 309 686.8 307.7 688 306.5C689.2 305.3 688.833 303.667 688.5 303L686.5 299.5C684.667 299.167 680.8 298.5 680 298.5C679.2 298.5 679 295.167 679 293.5V291.5C680.333 291.167 683.3 290.4 684.5 290C685.7 289.6 685.667 286.167 685.5 284.5C686.167 283 687.7 279.8 688.5 279C689.3 278.2 688.833 277 688.5 276.5L684.5 275.5L682 274.5V278.5L680 279L676.5 276.5L679 271L683 266L684.5 264H688.5C689.3 264 690.167 266 690.5 267L690 271L691.5 274.5L692.5 274C693.5 273 695.5 270.9 695.5 270.5C695.5 270 697.5 269 697.5 267.5C697.5 266.3 697.167 264.667 697 264L694.5 259L693.5 254.5L695.5 251.5L699.5 249.5L703.5 252.5L704.5 255.5H706.5C707.333 255.667 709.1 255.9 709.5 255.5C709.9 255.1 710.333 253.667 710.5 253L709.5 251.5L705.5 248.5L706.5 244.5L710.5 241C712.333 240.333 716.1 238.9 716.5 238.5C716.9 238.1 717.667 236 718 235L716.5 233L715 234.5L712 235.5L709.5 234.5L707 232.5L705.5 229L705 225L706.5 221L709.5 219L713.5 218.5L718.5 219.5C719.667 219.333 722.1 219 722.5 219C722.9 219 724 217.667 724.5 217L726.5 213L729 210.5C730.5 210.667 733.7 211 734.5 211C735.3 211 736.5 209.667 737 209L735.5 205L731.5 202.5L729.5 200.5L729 198L731 196.5L733.5 195C734.5 195.333 736.6 196 737 196C737.4 196 739.167 197 740 197.5C740.667 197.333 742.2 196.8 743 196C744 195 743.5 192.5 743.5 191.5C743.5 190.7 741.833 189.5 741 189L736 185L733.5 180L650.5 180.5L651.5 178L655.5 170L658.5 165L662.5 161.5C664 160.333 667.3 157.8 668.5 157C669.7 156.2 669.667 153.667 669.5 152.5L670 151C673.833 148.5 681.8 143.3 683 142.5C684.5 141.5 683.5 139 684 138.5C684.4 138.1 684.833 137.333 685 137C685.5 137.167 686.7 137.4 687.5 137C688.5 136.5 689.5 135.5 689.5 135C689.5 134.6 690.833 132.5 691.5 131.5L689.5 127V124.5L691.5 118L688 115L682 112.5L681.5 108V105L679.5 99.5Z" stroke="black"/>
</g>
<path d="M381.722 57.5455H385.591L390.773 70.1932H390.977L396.159 57.5455H400.028V75H396.994V63.0085H396.832L392.009 74.9489H389.741L384.918 62.983H384.756V75H381.722V57.5455ZM419.068 66.2727C419.068 68.1534 418.716 69.7642 418.011 71.1051C417.313 72.4403 416.358 73.4631 415.148 74.1733C413.943 74.8835 412.577 75.2386 411.048 75.2386C409.52 75.2386 408.151 74.8835 406.94 74.1733C405.736 73.4574 404.781 72.4318 404.077 71.0966C403.378 69.7557 403.028 68.1477 403.028 66.2727C403.028 64.392 403.378 62.7841 404.077 61.4489C404.781 60.108 405.736 59.0824 406.94 58.3722C408.151 57.6619 409.52 57.3068 411.048 57.3068C412.577 57.3068 413.943 57.6619 415.148 58.3722C416.358 59.0824 417.313 60.108 418.011 61.4489C418.716 62.7841 419.068 64.392 419.068 66.2727ZM415.889 66.2727C415.889 64.9489 415.682 63.8324 415.267 62.9233C414.858 62.0085 414.29 61.3182 413.562 60.8523C412.835 60.3807 411.997 60.1449 411.048 60.1449C410.099 60.1449 409.261 60.3807 408.534 60.8523C407.807 61.3182 407.236 62.0085 406.821 62.9233C406.412 63.8324 406.207 64.9489 406.207 66.2727C406.207 67.5966 406.412 68.7159 406.821 69.6307C407.236 70.5398 407.807 71.2301 408.534 71.7017C409.261 72.1676 410.099 72.4006 411.048 72.4006C411.997 72.4006 412.835 72.1676 413.562 71.7017C414.29 71.2301 414.858 70.5398 415.267 69.6307C415.682 68.7159 415.889 67.5966 415.889 66.2727Z" fill="#005A5E"/>
<path d="M768.955 205.196V202.545H782.881V205.196H777.486V220H774.349V205.196H768.955ZM799.909 202.545V220H797.097L788.872 208.111H788.727V220H785.565V202.545H788.395L796.611 214.443H796.764V202.545H799.909Z" fill="#005A5E"/>
<path d="M662.722 449.545H666.591L671.773 462.193H671.977L677.159 449.545H681.028V467H677.994V455.009H677.832L673.009 466.949H670.741L665.918 454.983H665.756V467H662.722V449.545ZM693.957 454.344C693.878 453.599 693.543 453.02 692.952 452.605C692.366 452.19 691.605 451.983 690.668 451.983C690.009 451.983 689.443 452.082 688.972 452.281C688.5 452.48 688.139 452.75 687.889 453.091C687.639 453.432 687.511 453.821 687.506 454.259C687.506 454.622 687.588 454.937 687.753 455.205C687.923 455.472 688.153 455.699 688.443 455.886C688.733 456.068 689.054 456.222 689.406 456.347C689.759 456.472 690.114 456.577 690.472 456.662L692.108 457.071C692.767 457.224 693.401 457.432 694.009 457.693C694.622 457.955 695.17 458.284 695.653 458.682C696.142 459.08 696.528 459.56 696.812 460.122C697.097 460.685 697.239 461.344 697.239 462.099C697.239 463.122 696.977 464.023 696.455 464.801C695.932 465.574 695.176 466.179 694.188 466.616C693.205 467.048 692.014 467.264 690.616 467.264C689.259 467.264 688.08 467.054 687.08 466.634C686.085 466.213 685.307 465.599 684.744 464.793C684.188 463.986 683.886 463.003 683.841 461.844H686.952C686.997 462.452 687.185 462.957 687.514 463.361C687.844 463.764 688.273 464.065 688.801 464.264C689.335 464.463 689.932 464.562 690.591 464.562C691.278 464.562 691.881 464.46 692.398 464.256C692.92 464.045 693.33 463.756 693.625 463.386C693.92 463.011 694.071 462.574 694.077 462.074C694.071 461.619 693.938 461.244 693.676 460.949C693.415 460.648 693.048 460.398 692.577 460.199C692.111 459.994 691.565 459.812 690.94 459.653L688.955 459.142C687.517 458.773 686.381 458.213 685.545 457.463C684.716 456.707 684.301 455.705 684.301 454.455C684.301 453.426 684.58 452.526 685.136 451.753C685.699 450.98 686.463 450.381 687.429 449.955C688.395 449.523 689.489 449.307 690.71 449.307C691.949 449.307 693.034 449.523 693.966 449.955C694.903 450.381 695.639 450.974 696.173 451.736C696.707 452.491 696.983 453.361 697 454.344H693.957Z" fill="#005A5E"/>
<path d="M387.722 683V665.545H390.884V680.349H398.571V683H387.722ZM404.213 683H400.838L406.983 665.545H410.886L417.04 683H413.665L409.003 669.125H408.866L404.213 683ZM404.324 676.156H413.528V678.696H404.324V676.156Z" fill="#005A5E"/>
<path d="M91.9545 635.196V632.545H105.881V635.196H100.486V650H97.3494V635.196H91.9545ZM111.207 632.545L115.051 638.938H115.188L119.048 632.545H122.653L117.276 641.273L122.739 650H119.074L115.188 643.651H115.051L111.165 650H107.517L113.031 641.273L107.585 632.545H111.207Z" fill="#005A5E"/>
<path d="M68.3182 306.273C68.3182 308.153 67.9659 309.764 67.2614 311.105C66.5625 312.44 65.608 313.463 64.3977 314.173C63.1932 314.884 61.8267 315.239 60.2983 315.239C58.7699 315.239 57.4006 314.884 56.1903 314.173C54.9858 313.457 54.0313 312.432 53.3267 311.097C52.6278 309.756 52.2784 308.148 52.2784 306.273C52.2784 304.392 52.6278 302.784 53.3267 301.449C54.0313 300.108 54.9858 299.082 56.1903 298.372C57.4006 297.662 58.7699 297.307 60.2983 297.307C61.8267 297.307 63.1932 297.662 64.3977 298.372C65.608 299.082 66.5625 300.108 67.2614 301.449C67.9659 302.784 68.3182 304.392 68.3182 306.273ZM65.1392 306.273C65.1392 304.949 64.9318 303.832 64.517 302.923C64.108 302.009 63.5398 301.318 62.8125 300.852C62.0852 300.381 61.2472 300.145 60.2983 300.145C59.3494 300.145 58.5114 300.381 57.7841 300.852C57.0568 301.318 56.4858 302.009 56.071 302.923C55.6619 303.832 55.4574 304.949 55.4574 306.273C55.4574 307.597 55.6619 308.716 56.071 309.631C56.4858 310.54 57.0568 311.23 57.7841 311.702C58.5114 312.168 59.3494 312.401 60.2983 312.401C61.2472 312.401 62.0852 312.168 62.8125 311.702C63.5398 311.23 64.108 310.54 64.517 309.631C64.9318 308.716 65.1392 307.597 65.1392 306.273ZM71.3075 315V297.545H74.4695V305.565H74.6825L81.4922 297.545H85.353L78.603 305.378L85.4126 315H81.6115L76.4041 307.517L74.4695 309.801V315H71.3075Z" fill="#005A5E"/>
<circle cx="402.511" cy="378.511" r="9.01136" fill="#FF8F87" stroke="black"/>
<path d="M347.58 412V393.818H351.424V408.831H359.219V412H347.58ZM361.694 412V398.364H365.476V412H361.694ZM363.594 396.606C363.031 396.606 362.549 396.419 362.147 396.047C361.75 395.668 361.552 395.215 361.552 394.688C361.552 394.167 361.75 393.721 362.147 393.348C362.549 392.969 363.031 392.779 363.594 392.779C364.156 392.779 364.635 392.969 365.032 393.348C365.434 393.721 365.636 394.167 365.636 394.688C365.636 395.215 365.434 395.668 365.032 396.047C364.635 396.419 364.156 396.606 363.594 396.606ZM375.759 398.364V401.205H367.547V398.364H375.759ZM369.411 395.097H373.193V407.81C373.193 408.159 373.246 408.431 373.353 408.626C373.459 408.816 373.607 408.949 373.797 409.026C373.992 409.103 374.217 409.141 374.471 409.141C374.649 409.141 374.826 409.127 375.004 409.097C375.181 409.061 375.318 409.035 375.412 409.017L376.007 411.831C375.818 411.891 375.551 411.959 375.208 412.036C374.865 412.118 374.448 412.169 373.956 412.186C373.045 412.222 372.246 412.101 371.559 411.822C370.879 411.544 370.349 411.112 369.97 410.526C369.591 409.94 369.405 409.201 369.411 408.307V395.097ZM385.475 398.364V401.205H377.263V398.364H385.475ZM379.128 395.097H382.91V407.81C382.91 408.159 382.963 408.431 383.069 408.626C383.176 408.816 383.324 408.949 383.513 409.026C383.709 409.103 383.934 409.141 384.188 409.141C384.366 409.141 384.543 409.127 384.721 409.097C384.898 409.061 385.034 409.035 385.129 409.017L385.724 411.831C385.535 411.891 385.268 411.959 384.925 412.036C384.582 412.118 384.164 412.169 383.673 412.186C382.762 412.222 381.963 412.101 381.276 411.822C380.595 411.544 380.066 411.112 379.687 410.526C379.308 409.94 379.122 409.201 379.128 408.307V395.097ZM392.014 393.818V412H388.232V393.818H392.014ZM401.258 412.266C399.855 412.266 398.648 411.982 397.636 411.414C396.63 410.84 395.854 410.029 395.31 408.982C394.765 407.928 394.493 406.682 394.493 405.244C394.493 403.841 394.765 402.61 395.31 401.551C395.854 400.491 396.621 399.666 397.609 399.074C398.603 398.482 399.769 398.186 401.107 398.186C402.007 398.186 402.844 398.331 403.619 398.621C404.401 398.905 405.081 399.334 405.661 399.908C406.247 400.482 406.703 401.205 407.028 402.075C407.354 402.939 407.517 403.951 407.517 405.111V406.15H396.002V403.806H403.957C403.957 403.261 403.838 402.779 403.602 402.359C403.365 401.938 403.036 401.61 402.616 401.373C402.202 401.131 401.72 401.009 401.169 401.009C400.595 401.009 400.086 401.142 399.642 401.409C399.204 401.669 398.861 402.021 398.612 402.465C398.364 402.903 398.236 403.391 398.231 403.93V406.158C398.231 406.833 398.355 407.416 398.603 407.907C398.858 408.399 399.216 408.777 399.678 409.044C400.139 409.31 400.687 409.443 401.32 409.443C401.74 409.443 402.125 409.384 402.474 409.266C402.823 409.147 403.122 408.97 403.371 408.733C403.619 408.496 403.809 408.206 403.939 407.863L407.437 408.094C407.259 408.934 406.895 409.668 406.345 410.295C405.8 410.917 405.096 411.402 404.232 411.751C403.374 412.095 402.382 412.266 401.258 412.266ZM415.842 412V393.818H423.015C424.388 393.818 425.56 394.064 426.531 394.555C427.507 395.04 428.25 395.73 428.759 396.624C429.274 397.511 429.532 398.556 429.532 399.757C429.532 400.965 429.271 402.004 428.75 402.874C428.23 403.738 427.475 404.401 426.487 404.862C425.504 405.324 424.314 405.555 422.918 405.555H418.115V402.465H422.296C423.03 402.465 423.64 402.365 424.125 402.163C424.61 401.962 424.971 401.66 425.208 401.258C425.451 400.855 425.572 400.355 425.572 399.757C425.572 399.154 425.451 398.645 425.208 398.23C424.971 397.816 424.607 397.502 424.116 397.289C423.631 397.07 423.018 396.961 422.278 396.961H419.686V412H415.842ZM425.661 403.726L430.18 412H425.936L421.515 403.726H425.661ZM438.119 412.266C436.74 412.266 435.547 411.973 434.541 411.387C433.541 410.796 432.768 409.973 432.224 408.919C431.679 407.86 431.407 406.632 431.407 405.235C431.407 403.826 431.679 402.595 432.224 401.542C432.768 400.482 433.541 399.66 434.541 399.074C435.547 398.482 436.74 398.186 438.119 398.186C439.498 398.186 440.687 398.482 441.688 399.074C442.694 399.66 443.469 400.482 444.014 401.542C444.558 402.595 444.83 403.826 444.83 405.235C444.83 406.632 444.558 407.86 444.014 408.919C443.469 409.973 442.694 410.796 441.688 411.387C440.687 411.973 439.498 412.266 438.119 412.266ZM438.136 409.337C438.764 409.337 439.288 409.159 439.708 408.804C440.128 408.443 440.445 407.952 440.658 407.33C440.877 406.709 440.986 406.002 440.986 405.208C440.986 404.415 440.877 403.708 440.658 403.087C440.445 402.465 440.128 401.974 439.708 401.613C439.288 401.252 438.764 401.071 438.136 401.071C437.503 401.071 436.97 401.252 436.538 401.613C436.112 401.974 435.79 402.465 435.571 403.087C435.358 403.708 435.251 404.415 435.251 405.208C435.251 406.002 435.358 406.709 435.571 407.33C435.79 407.952 436.112 408.443 436.538 408.804C436.97 409.159 437.503 409.337 438.136 409.337ZM453.451 412.266C452.054 412.266 450.852 411.97 449.846 411.379C448.846 410.781 448.077 409.952 447.538 408.893C447.005 407.833 446.739 406.614 446.739 405.235C446.739 403.838 447.008 402.613 447.547 401.56C448.091 400.5 448.864 399.675 449.864 399.083C450.864 398.485 452.054 398.186 453.433 398.186C454.623 398.186 455.664 398.402 456.558 398.834C457.452 399.266 458.159 399.873 458.68 400.654C459.201 401.435 459.488 402.353 459.541 403.406H455.972C455.871 402.726 455.605 402.178 455.173 401.764C454.747 401.344 454.188 401.134 453.495 401.134C452.909 401.134 452.397 401.293 451.959 401.613C451.527 401.927 451.19 402.385 450.947 402.989C450.705 403.593 450.583 404.324 450.583 405.182C450.583 406.052 450.702 406.792 450.938 407.401C451.181 408.011 451.521 408.475 451.959 408.795C452.397 409.115 452.909 409.275 453.495 409.275C453.927 409.275 454.315 409.186 454.658 409.008C455.007 408.831 455.294 408.573 455.519 408.236C455.75 407.893 455.901 407.481 455.972 407.002H459.541C459.482 408.043 459.198 408.961 458.689 409.754C458.186 410.541 457.49 411.157 456.602 411.6C455.715 412.044 454.664 412.266 453.451 412.266ZM465.389 408.076L465.398 403.539H465.949L470.316 398.364H474.658L468.789 405.217H467.893L465.389 408.076ZM461.962 412V393.818H465.744V412H461.962ZM470.485 412L466.472 406.061L468.994 403.388L474.915 412H470.485Z" fill="black"/>
<path d="M139.202 311V292.818H150.104V294.771H141.403V300.915H149.287V302.868H141.403V311H139.202ZM158.129 311.284C156.898 311.284 155.818 310.991 154.889 310.405C153.966 309.819 153.243 309 152.723 307.946C152.208 306.893 151.95 305.661 151.95 304.253C151.95 302.832 152.208 301.592 152.723 300.533C153.243 299.474 153.966 298.651 154.889 298.065C155.818 297.479 156.898 297.186 158.129 297.186C159.36 297.186 160.438 297.479 161.361 298.065C162.29 298.651 163.012 299.474 163.527 300.533C164.048 301.592 164.308 302.832 164.308 304.253C164.308 305.661 164.048 306.893 163.527 307.946C163.012 309 162.29 309.819 161.361 310.405C160.438 310.991 159.36 311.284 158.129 311.284ZM158.129 309.402C159.064 309.402 159.834 309.162 160.438 308.683C161.041 308.203 161.488 307.573 161.778 306.792C162.068 306.011 162.213 305.164 162.213 304.253C162.213 303.341 162.068 302.492 161.778 301.705C161.488 300.918 161.041 300.281 160.438 299.796C159.834 299.311 159.064 299.068 158.129 299.068C157.194 299.068 156.425 299.311 155.821 299.796C155.217 300.281 154.77 300.918 154.48 301.705C154.19 302.492 154.045 303.341 154.045 304.253C154.045 305.164 154.19 306.011 154.48 306.792C154.77 307.573 155.217 308.203 155.821 308.683C156.425 309.162 157.194 309.402 158.129 309.402ZM167.506 311V297.364H169.531V299.423H169.673C169.921 298.749 170.371 298.201 171.022 297.781C171.673 297.361 172.407 297.151 173.224 297.151C173.378 297.151 173.57 297.154 173.801 297.159C174.032 297.165 174.206 297.174 174.325 297.186V299.317C174.254 299.299 174.091 299.272 173.836 299.237C173.588 299.195 173.324 299.175 173.046 299.175C172.383 299.175 171.792 299.314 171.271 299.592C170.756 299.864 170.347 300.243 170.046 300.728C169.75 301.208 169.602 301.755 169.602 302.371V311H167.506ZM183.593 297.364V299.139H176.526V297.364H183.593ZM178.586 294.097H180.681V307.094C180.681 307.686 180.767 308.129 180.939 308.425C181.116 308.715 181.341 308.911 181.613 309.011C181.892 309.106 182.185 309.153 182.492 309.153C182.723 309.153 182.912 309.142 183.06 309.118C183.208 309.088 183.327 309.065 183.416 309.047L183.842 310.929C183.7 310.982 183.501 311.036 183.247 311.089C182.992 311.148 182.67 311.178 182.279 311.178C181.687 311.178 181.107 311.05 180.539 310.796C179.977 310.541 179.509 310.154 179.136 309.633C178.77 309.112 178.586 308.455 178.586 307.662V294.097ZM204.003 297.364C203.897 296.464 203.465 295.766 202.707 295.268C201.95 294.771 201.02 294.523 199.919 294.523C199.115 294.523 198.41 294.653 197.807 294.913C197.209 295.174 196.741 295.532 196.404 295.988C196.072 296.443 195.907 296.961 195.907 297.541C195.907 298.027 196.022 298.444 196.253 298.793C196.49 299.136 196.792 299.423 197.158 299.654C197.525 299.879 197.91 300.065 198.313 300.213C198.715 300.355 199.085 300.471 199.422 300.56L201.269 301.057C201.742 301.181 202.269 301.353 202.849 301.572C203.435 301.791 203.994 302.09 204.527 302.468C205.066 302.841 205.51 303.321 205.859 303.907C206.208 304.493 206.383 305.212 206.383 306.064C206.383 307.046 206.125 307.934 205.61 308.727C205.101 309.52 204.355 310.151 203.373 310.618C202.396 311.086 201.21 311.32 199.813 311.32C198.511 311.32 197.383 311.109 196.43 310.689C195.484 310.269 194.738 309.683 194.193 308.931C193.655 308.18 193.35 307.307 193.279 306.312H195.552C195.611 306.999 195.842 307.567 196.244 308.017C196.652 308.461 197.167 308.792 197.789 309.011C198.416 309.224 199.091 309.331 199.813 309.331C200.653 309.331 201.408 309.195 202.077 308.923C202.746 308.644 203.275 308.26 203.666 307.768C204.057 307.271 204.252 306.691 204.252 306.028C204.252 305.425 204.083 304.933 203.746 304.555C203.408 304.176 202.965 303.868 202.414 303.631C201.864 303.395 201.269 303.187 200.63 303.01L198.392 302.371C196.972 301.962 195.848 301.379 195.019 300.622C194.19 299.864 193.776 298.873 193.776 297.648C193.776 296.63 194.051 295.742 194.602 294.984C195.158 294.221 195.904 293.629 196.839 293.209C197.78 292.783 198.83 292.57 199.991 292.57C201.162 292.57 202.204 292.78 203.116 293.2C204.027 293.614 204.749 294.182 205.282 294.904C205.82 295.627 206.104 296.446 206.134 297.364H204.003ZM209.718 311V297.364H211.743V299.494H211.92C212.204 298.766 212.663 298.201 213.296 297.799C213.929 297.39 214.69 297.186 215.578 297.186C216.477 297.186 217.226 297.39 217.824 297.799C218.428 298.201 218.898 298.766 219.235 299.494H219.377C219.727 298.79 220.25 298.231 220.949 297.816C221.647 297.396 222.485 297.186 223.461 297.186C224.681 297.186 225.678 297.568 226.453 298.331C227.228 299.089 227.616 300.27 227.616 301.874V311H225.521V301.874C225.521 300.867 225.246 300.148 224.695 299.716C224.145 299.284 223.497 299.068 222.751 299.068C221.792 299.068 221.049 299.358 220.523 299.938C219.996 300.512 219.733 301.24 219.733 302.122V311H217.602V301.661C217.602 300.885 217.35 300.261 216.847 299.787C216.344 299.308 215.696 299.068 214.903 299.068C214.359 299.068 213.85 299.213 213.376 299.503C212.908 299.793 212.53 300.196 212.24 300.711C211.956 301.22 211.814 301.808 211.814 302.477V311H209.718ZM231.447 311V297.364H233.542V311H231.447ZM232.512 295.091C232.104 295.091 231.752 294.952 231.456 294.674C231.166 294.395 231.021 294.061 231.021 293.67C231.021 293.28 231.166 292.945 231.456 292.667C231.752 292.389 232.104 292.25 232.512 292.25C232.921 292.25 233.27 292.389 233.56 292.667C233.856 292.945 234.004 293.28 234.004 293.67C234.004 294.061 233.856 294.395 233.56 294.674C233.27 294.952 232.921 295.091 232.512 295.091ZM243.31 297.364V299.139H236.243V297.364H243.31ZM238.303 294.097H240.398V307.094C240.398 307.686 240.484 308.129 240.655 308.425C240.833 308.715 241.058 308.911 241.33 309.011C241.608 309.106 241.901 309.153 242.209 309.153C242.44 309.153 242.629 309.142 242.777 309.118C242.925 309.088 243.044 309.065 243.132 309.047L243.559 310.929C243.416 310.982 243.218 311.036 242.964 311.089C242.709 311.148 242.387 311.178 241.996 311.178C241.404 311.178 240.824 311.05 240.256 310.796C239.694 310.541 239.226 310.154 238.853 309.633C238.486 309.112 238.303 308.455 238.303 307.662V294.097ZM248.85 302.797V311H246.755V292.818H248.85V299.494H249.027C249.347 298.79 249.826 298.231 250.465 297.816C251.111 297.396 251.969 297.186 253.04 297.186C253.969 297.186 254.783 297.373 255.481 297.745C256.18 298.112 256.721 298.678 257.106 299.441C257.497 300.199 257.692 301.163 257.692 302.335V311H255.597V302.477C255.597 301.394 255.316 300.557 254.753 299.965C254.197 299.367 253.425 299.068 252.436 299.068C251.75 299.068 251.134 299.213 250.59 299.503C250.051 299.793 249.625 300.216 249.311 300.773C249.004 301.329 248.85 302.004 248.85 302.797Z" fill="black"/>
<path d="M353.832 294.5H351.631C351.5 293.867 351.273 293.31 350.947 292.831C350.627 292.352 350.237 291.949 349.775 291.624C349.319 291.292 348.813 291.044 348.257 290.878C347.701 290.712 347.121 290.629 346.517 290.629C345.416 290.629 344.419 290.907 343.525 291.464C342.637 292.02 341.93 292.84 341.403 293.923C340.883 295.006 340.622 296.335 340.622 297.909C340.622 299.483 340.883 300.812 341.403 301.895C341.93 302.978 342.637 303.798 343.525 304.354C344.419 304.911 345.416 305.189 346.517 305.189C347.121 305.189 347.701 305.106 348.257 304.94C348.813 304.775 349.319 304.529 349.775 304.203C350.237 303.872 350.627 303.467 350.947 302.987C351.273 302.502 351.5 301.946 351.631 301.318H353.832C353.667 302.247 353.365 303.079 352.927 303.813C352.489 304.547 351.944 305.171 351.293 305.686C350.642 306.195 349.911 306.583 349.1 306.849C348.296 307.115 347.434 307.249 346.517 307.249C344.966 307.249 343.587 306.87 342.38 306.112C341.173 305.355 340.223 304.277 339.53 302.881C338.838 301.484 338.491 299.827 338.491 297.909C338.491 295.991 338.838 294.334 339.53 292.938C340.223 291.541 341.173 290.464 342.38 289.706C343.587 288.948 344.966 288.57 346.517 288.57C347.434 288.57 348.296 288.703 349.1 288.969C349.911 289.235 350.642 289.626 351.293 290.141C351.944 290.65 352.489 291.271 352.927 292.005C353.365 292.733 353.667 293.565 353.832 294.5ZM362.646 307.284C361.415 307.284 360.335 306.991 359.405 306.405C358.482 305.819 357.76 305 357.239 303.946C356.724 302.893 356.467 301.661 356.467 300.253C356.467 298.832 356.724 297.592 357.239 296.533C357.76 295.474 358.482 294.651 359.405 294.065C360.335 293.479 361.415 293.186 362.646 293.186C363.877 293.186 364.954 293.479 365.877 294.065C366.807 294.651 367.529 295.474 368.044 296.533C368.564 297.592 368.825 298.832 368.825 300.253C368.825 301.661 368.564 302.893 368.044 303.946C367.529 305 366.807 305.819 365.877 306.405C364.954 306.991 363.877 307.284 362.646 307.284ZM362.646 305.402C363.581 305.402 364.35 305.162 364.954 304.683C365.558 304.203 366.005 303.573 366.295 302.792C366.585 302.011 366.73 301.164 366.73 300.253C366.73 299.341 366.585 298.492 366.295 297.705C366.005 296.918 365.558 296.281 364.954 295.796C364.35 295.311 363.581 295.068 362.646 295.068C361.711 295.068 360.941 295.311 360.338 295.796C359.734 296.281 359.287 296.918 358.997 297.705C358.707 298.492 358.562 299.341 358.562 300.253C358.562 301.164 358.707 302.011 358.997 302.792C359.287 303.573 359.734 304.203 360.338 304.683C360.941 305.162 361.711 305.402 362.646 305.402ZM374.118 298.797V307H372.023V293.364H374.047V295.494H374.225C374.544 294.802 375.03 294.246 375.681 293.825C376.332 293.399 377.172 293.186 378.202 293.186C379.125 293.186 379.933 293.375 380.626 293.754C381.318 294.127 381.857 294.695 382.241 295.459C382.626 296.216 382.819 297.175 382.819 298.335V307H380.723V298.477C380.723 297.406 380.445 296.571 379.889 295.974C379.333 295.37 378.569 295.068 377.598 295.068C376.93 295.068 376.332 295.213 375.805 295.503C375.284 295.793 374.873 296.216 374.571 296.773C374.269 297.329 374.118 298.004 374.118 298.797ZM389.737 307L385.582 293.364H387.783L390.731 303.804H390.873L393.785 293.364H396.022L398.899 303.768H399.041L401.988 293.364H404.19L400.035 307H397.975L394.992 296.524H394.779L391.796 307H389.737ZM410.972 307.32C410.108 307.32 409.324 307.157 408.62 306.831C407.915 306.5 407.356 306.023 406.942 305.402C406.528 304.775 406.32 304.017 406.32 303.129C406.32 302.348 406.474 301.715 406.782 301.229C407.09 300.738 407.501 300.353 408.016 300.075C408.531 299.797 409.099 299.59 409.721 299.454C410.348 299.312 410.978 299.199 411.612 299.116C412.44 299.01 413.112 298.93 413.627 298.877C414.148 298.818 414.526 298.72 414.763 298.584C415.006 298.448 415.127 298.211 415.127 297.874V297.803C415.127 296.927 414.888 296.246 414.408 295.761C413.935 295.275 413.216 295.033 412.251 295.033C411.251 295.033 410.466 295.252 409.898 295.69C409.33 296.128 408.93 296.595 408.7 297.092L406.711 296.382C407.066 295.554 407.54 294.908 408.131 294.447C408.729 293.979 409.38 293.654 410.085 293.47C410.795 293.281 411.493 293.186 412.18 293.186C412.618 293.186 413.121 293.239 413.689 293.346C414.263 293.446 414.816 293.657 415.349 293.976C415.888 294.296 416.335 294.778 416.69 295.423C417.045 296.068 417.222 296.933 417.222 298.016V307H415.127V305.153H415.021C414.879 305.449 414.642 305.766 414.31 306.103C413.979 306.441 413.538 306.728 412.988 306.964C412.437 307.201 411.765 307.32 410.972 307.32ZM411.292 305.438C412.121 305.438 412.819 305.275 413.387 304.949C413.961 304.624 414.393 304.203 414.683 303.689C414.979 303.174 415.127 302.632 415.127 302.064V300.146C415.038 300.253 414.843 300.35 414.541 300.439C414.245 300.522 413.902 300.596 413.511 300.661C413.127 300.72 412.751 300.774 412.384 300.821C412.023 300.862 411.73 300.898 411.505 300.928C410.961 300.999 410.452 301.114 409.978 301.274C409.511 301.428 409.132 301.661 408.842 301.975C408.558 302.283 408.416 302.703 408.416 303.236C408.416 303.964 408.685 304.514 409.223 304.887C409.768 305.254 410.457 305.438 411.292 305.438ZM421.908 312.114C421.553 312.114 421.236 312.084 420.958 312.025C420.68 311.972 420.487 311.918 420.381 311.865L420.913 310.018C421.422 310.149 421.872 310.196 422.263 310.161C422.653 310.125 423 309.95 423.301 309.637C423.609 309.329 423.89 308.829 424.145 308.136L424.536 307.071L419.493 293.364H421.766L425.53 304.23H425.672L429.436 293.364H431.709L425.92 308.989C425.66 309.693 425.337 310.276 424.953 310.738C424.568 311.205 424.121 311.551 423.612 311.776C423.109 312.001 422.541 312.114 421.908 312.114Z" fill="black"/>
<path d="M395.202 495V476.818H401.345C402.772 476.818 403.938 477.076 404.843 477.591C405.754 478.1 406.429 478.789 406.867 479.659C407.305 480.529 407.524 481.5 407.524 482.571C407.524 483.642 407.305 484.616 406.867 485.492C406.435 486.368 405.766 487.066 404.861 487.587C403.955 488.102 402.795 488.359 401.381 488.359H396.977V486.406H401.31C402.286 486.406 403.07 486.238 403.662 485.9C404.254 485.563 404.683 485.107 404.95 484.533C405.222 483.953 405.358 483.299 405.358 482.571C405.358 481.843 405.222 481.192 404.95 480.618C404.683 480.044 404.251 479.594 403.653 479.268C403.056 478.937 402.263 478.771 401.274 478.771H397.403V495H395.202ZM410.787 495V481.364H412.882V495H410.787ZM411.852 479.091C411.444 479.091 411.092 478.952 410.796 478.674C410.506 478.395 410.361 478.061 410.361 477.67C410.361 477.28 410.506 476.945 410.796 476.667C411.092 476.389 411.444 476.25 411.852 476.25C412.26 476.25 412.61 476.389 412.9 476.667C413.196 476.945 413.344 477.28 413.344 477.67C413.344 478.061 413.196 478.395 412.9 478.674C412.61 478.952 412.26 479.091 411.852 479.091ZM418.815 486.797V495H416.719V481.364H418.744V483.494H418.921C419.241 482.802 419.726 482.246 420.377 481.825C421.028 481.399 421.869 481.186 422.898 481.186C423.822 481.186 424.63 481.375 425.322 481.754C426.014 482.127 426.553 482.695 426.938 483.459C427.322 484.216 427.515 485.175 427.515 486.335V495H425.42V486.477C425.42 485.406 425.141 484.571 424.585 483.974C424.029 483.37 423.265 483.068 422.295 483.068C421.626 483.068 421.028 483.213 420.501 483.503C419.98 483.793 419.569 484.216 419.267 484.773C418.965 485.329 418.815 486.004 418.815 486.797ZM437.061 495.284C435.747 495.284 434.613 494.994 433.661 494.414C432.714 493.828 431.983 493.011 431.468 491.964C430.959 490.91 430.704 489.685 430.704 488.288C430.704 486.892 430.959 485.661 431.468 484.595C431.983 483.524 432.699 482.689 433.616 482.092C434.539 481.488 435.617 481.186 436.848 481.186C437.558 481.186 438.259 481.304 438.952 481.541C439.644 481.778 440.275 482.163 440.843 482.695C441.411 483.222 441.864 483.92 442.201 484.79C442.538 485.661 442.707 486.732 442.707 488.004V488.892H432.196V487.081H440.576C440.576 486.312 440.422 485.625 440.115 485.021C439.813 484.418 439.381 483.941 438.819 483.592C438.262 483.243 437.605 483.068 436.848 483.068C436.013 483.068 435.291 483.275 434.681 483.69C434.078 484.098 433.613 484.631 433.288 485.288C432.962 485.945 432.799 486.649 432.799 487.401V488.608C432.799 489.638 432.977 490.511 433.332 491.227C433.693 491.937 434.193 492.479 434.832 492.852C435.472 493.219 436.214 493.402 437.061 493.402C437.611 493.402 438.108 493.325 438.552 493.171C439.002 493.011 439.39 492.775 439.715 492.461C440.041 492.141 440.292 491.745 440.47 491.271L442.494 491.839C442.281 492.526 441.923 493.13 441.42 493.651C440.917 494.165 440.295 494.568 439.555 494.858C438.816 495.142 437.984 495.284 437.061 495.284ZM453.21 495V476.818H459.566C460.833 476.818 461.877 477.037 462.7 477.475C463.523 477.907 464.135 478.49 464.538 479.224C464.94 479.952 465.141 480.76 465.141 481.648C465.141 482.429 465.002 483.074 464.724 483.583C464.452 484.092 464.091 484.495 463.641 484.79C463.197 485.086 462.715 485.305 462.194 485.447V485.625C462.75 485.661 463.31 485.856 463.872 486.211C464.434 486.566 464.905 487.075 465.283 487.738C465.662 488.401 465.852 489.212 465.852 490.17C465.852 491.082 465.644 491.902 465.23 492.63C464.816 493.358 464.162 493.935 463.268 494.361C462.374 494.787 461.211 495 459.779 495H453.21ZM455.411 493.047H459.779C461.217 493.047 462.238 492.769 462.842 492.212C463.452 491.65 463.756 490.969 463.756 490.17C463.756 489.555 463.6 488.987 463.286 488.466C462.972 487.939 462.525 487.519 461.945 487.205C461.365 486.886 460.679 486.726 459.886 486.726H455.411V493.047ZM455.411 484.808H459.495C460.158 484.808 460.756 484.678 461.288 484.418C461.827 484.157 462.253 483.79 462.567 483.317C462.886 482.843 463.046 482.287 463.046 481.648C463.046 480.849 462.768 480.171 462.212 479.615C461.655 479.052 460.773 478.771 459.566 478.771H455.411V484.808ZM471.28 476.818V495H469.185V476.818H471.28ZM483.712 489.425V481.364H485.807V495H483.712V492.692H483.57C483.25 493.384 482.753 493.973 482.078 494.458C481.403 494.938 480.551 495.178 479.521 495.178C478.669 495.178 477.911 494.991 477.248 494.618C476.586 494.239 476.065 493.671 475.686 492.914C475.307 492.15 475.118 491.188 475.118 490.028V481.364H477.213V489.886C477.213 490.881 477.491 491.674 478.047 492.266C478.61 492.857 479.326 493.153 480.196 493.153C480.717 493.153 481.246 493.02 481.785 492.754C482.33 492.488 482.785 492.079 483.152 491.529C483.525 490.978 483.712 490.277 483.712 489.425ZM495.717 481.364V483.139H488.366V481.364H495.717ZM490.567 495V479.482C490.567 478.7 490.751 478.049 491.118 477.528C491.485 477.008 491.961 476.617 492.547 476.357C493.133 476.096 493.752 475.966 494.403 475.966C494.918 475.966 495.338 476.007 495.663 476.09C495.989 476.173 496.232 476.25 496.391 476.321L495.788 478.132C495.681 478.097 495.533 478.052 495.344 477.999C495.16 477.946 494.918 477.919 494.616 477.919C493.923 477.919 493.423 478.094 493.115 478.443C492.814 478.792 492.663 479.304 492.663 479.979V495H490.567ZM504.725 481.364V483.139H497.375V481.364H504.725ZM499.576 495V479.482C499.576 478.7 499.76 478.049 500.127 477.528C500.494 477.008 500.97 476.617 501.556 476.357C502.142 476.096 502.76 475.966 503.411 475.966C503.926 475.966 504.347 476.007 504.672 476.09C504.998 476.173 505.24 476.25 505.4 476.321L504.796 478.132C504.69 478.097 504.542 478.052 504.353 477.999C504.169 477.946 503.926 477.919 503.625 477.919C502.932 477.919 502.432 478.094 502.124 478.443C501.822 478.792 501.671 479.304 501.671 479.979V495H499.576Z" fill="black"/>
<path d="M131.202 205V186.818H142.104V188.771H133.403V194.915H141.287V196.868H133.403V205H131.202ZM149.603 205.32C148.739 205.32 147.955 205.157 147.251 204.831C146.546 204.5 145.987 204.023 145.573 203.402C145.158 202.775 144.951 202.017 144.951 201.129C144.951 200.348 145.105 199.715 145.413 199.229C145.721 198.738 146.132 198.353 146.647 198.075C147.162 197.797 147.73 197.59 148.351 197.454C148.979 197.312 149.609 197.199 150.242 197.116C151.071 197.01 151.743 196.93 152.258 196.877C152.779 196.818 153.157 196.72 153.394 196.584C153.637 196.448 153.758 196.211 153.758 195.874V195.803C153.758 194.927 153.518 194.246 153.039 193.761C152.565 193.275 151.846 193.033 150.882 193.033C149.881 193.033 149.097 193.252 148.529 193.69C147.961 194.128 147.561 194.595 147.331 195.092L145.342 194.382C145.697 193.554 146.17 192.908 146.762 192.447C147.36 191.979 148.011 191.654 148.715 191.47C149.426 191.281 150.124 191.186 150.811 191.186C151.249 191.186 151.752 191.239 152.32 191.346C152.894 191.446 153.447 191.657 153.98 191.976C154.519 192.296 154.965 192.778 155.321 193.423C155.676 194.068 155.853 194.933 155.853 196.016V205H153.758V203.153H153.652C153.509 203.449 153.273 203.766 152.941 204.103C152.61 204.441 152.169 204.728 151.619 204.964C151.068 205.201 150.396 205.32 149.603 205.32ZM149.923 203.438C150.751 203.438 151.45 203.275 152.018 202.949C152.592 202.624 153.024 202.203 153.314 201.689C153.61 201.174 153.758 200.632 153.758 200.064V198.146C153.669 198.253 153.474 198.35 153.172 198.439C152.876 198.522 152.533 198.596 152.142 198.661C151.758 198.72 151.382 198.774 151.015 198.821C150.654 198.862 150.361 198.898 150.136 198.928C149.591 198.999 149.082 199.114 148.609 199.274C148.141 199.428 147.763 199.661 147.473 199.975C147.188 200.283 147.046 200.703 147.046 201.236C147.046 201.964 147.316 202.514 147.854 202.887C148.399 203.254 149.088 203.438 149.923 203.438ZM160.539 210.114C160.183 210.114 159.867 210.084 159.589 210.025C159.31 209.972 159.118 209.918 159.012 209.865L159.544 208.018C160.053 208.149 160.503 208.196 160.894 208.161C161.284 208.125 161.631 207.95 161.932 207.637C162.24 207.329 162.521 206.829 162.776 206.136L163.166 205.071L158.124 191.364H160.396L164.161 202.23H164.303L168.067 191.364H170.34L164.551 206.989C164.291 207.693 163.968 208.276 163.584 208.738C163.199 209.205 162.752 209.551 162.243 209.776C161.74 210.001 161.172 210.114 160.539 210.114ZM178.334 205.284C177.02 205.284 175.887 204.994 174.934 204.414C173.987 203.828 173.256 203.011 172.741 201.964C172.232 200.91 171.978 199.685 171.978 198.288C171.978 196.892 172.232 195.661 172.741 194.595C173.256 193.524 173.972 192.689 174.89 192.092C175.813 191.488 176.89 191.186 178.121 191.186C178.831 191.186 179.533 191.304 180.225 191.541C180.918 191.778 181.548 192.163 182.116 192.695C182.684 193.222 183.137 193.92 183.474 194.79C183.812 195.661 183.98 196.732 183.98 198.004V198.892H173.469V197.081H181.85C181.85 196.312 181.696 195.625 181.388 195.021C181.086 194.418 180.654 193.941 180.092 193.592C179.536 193.243 178.879 193.068 178.121 193.068C177.287 193.068 176.565 193.275 175.955 193.69C175.351 194.098 174.887 194.631 174.561 195.288C174.236 195.945 174.073 196.649 174.073 197.401V198.608C174.073 199.638 174.25 200.511 174.605 201.227C174.967 201.937 175.467 202.479 176.106 202.852C176.745 203.219 177.488 203.402 178.334 203.402C178.885 203.402 179.382 203.325 179.826 203.171C180.275 203.011 180.663 202.775 180.989 202.461C181.314 202.141 181.566 201.745 181.743 201.271L183.767 201.839C183.554 202.526 183.196 203.13 182.693 203.651C182.19 204.165 181.569 204.568 180.829 204.858C180.089 205.142 179.257 205.284 178.334 205.284ZM193.098 191.364V193.139H186.031V191.364H193.098ZM188.091 188.097H190.186V201.094C190.186 201.686 190.272 202.129 190.444 202.425C190.621 202.715 190.846 202.911 191.118 203.011C191.396 203.106 191.689 203.153 191.997 203.153C192.228 203.153 192.417 203.142 192.565 203.118C192.713 203.088 192.832 203.065 192.92 203.047L193.347 204.929C193.205 204.982 193.006 205.036 192.752 205.089C192.497 205.148 192.175 205.178 191.784 205.178C191.192 205.178 190.612 205.05 190.044 204.796C189.482 204.541 189.014 204.154 188.641 203.633C188.274 203.112 188.091 202.455 188.091 201.662V188.097ZM202.18 191.364V193.139H195.113V191.364H202.18ZM197.173 188.097H199.268V201.094C199.268 201.686 199.354 202.129 199.526 202.425C199.703 202.715 199.928 202.911 200.2 203.011C200.478 203.106 200.771 203.153 201.079 203.153C201.31 203.153 201.499 203.142 201.647 203.118C201.795 203.088 201.914 203.065 202.002 203.047L202.429 204.929C202.287 204.982 202.088 205.036 201.834 205.089C201.579 205.148 201.257 205.178 200.866 205.178C200.274 205.178 199.694 205.05 199.126 204.796C198.564 204.541 198.096 204.154 197.723 203.633C197.356 203.112 197.173 202.455 197.173 201.662V188.097ZM210.903 205.284C209.589 205.284 208.455 204.994 207.502 204.414C206.555 203.828 205.824 203.011 205.309 201.964C204.8 200.91 204.546 199.685 204.546 198.288C204.546 196.892 204.8 195.661 205.309 194.595C205.824 193.524 206.541 192.689 207.458 192.092C208.381 191.488 209.458 191.186 210.689 191.186C211.4 191.186 212.101 191.304 212.794 191.541C213.486 191.778 214.116 192.163 214.684 192.695C215.253 193.222 215.705 193.92 216.043 194.79C216.38 195.661 216.549 196.732 216.549 198.004V198.892H206.037V197.081H214.418C214.418 196.312 214.264 195.625 213.956 195.021C213.655 194.418 213.223 193.941 212.66 193.592C212.104 193.243 211.447 193.068 210.689 193.068C209.855 193.068 209.133 193.275 208.523 193.69C207.92 194.098 207.455 194.631 207.129 195.288C206.804 195.945 206.641 196.649 206.641 197.401V198.608C206.641 199.638 206.819 200.511 207.174 201.227C207.535 201.937 208.035 202.479 208.674 202.852C209.313 203.219 210.056 203.402 210.903 203.402C211.453 203.402 211.95 203.325 212.394 203.171C212.844 203.011 213.231 202.775 213.557 202.461C213.883 202.141 214.134 201.745 214.312 201.271L216.336 201.839C216.123 202.526 215.765 203.13 215.262 203.651C214.758 204.165 214.137 204.568 213.397 204.858C212.657 205.142 211.826 205.284 210.903 205.284ZM230.472 191.364L225.429 205H223.298L218.256 191.364H220.528L224.293 202.23H224.435L228.199 191.364H230.472ZM233.237 205V191.364H235.332V205H233.237ZM234.302 189.091C233.894 189.091 233.542 188.952 233.246 188.674C232.956 188.395 232.811 188.061 232.811 187.67C232.811 187.28 232.956 186.945 233.246 186.667C233.542 186.389 233.894 186.25 234.302 186.25C234.711 186.25 235.06 186.389 235.35 186.667C235.646 186.945 235.794 187.28 235.794 187.67C235.794 188.061 235.646 188.395 235.35 188.674C235.06 188.952 234.711 189.091 234.302 189.091ZM241.265 186.818V205H239.17V186.818H241.265ZM247.197 186.818V205H245.102V186.818H247.197ZM256.752 205.284C255.438 205.284 254.305 204.994 253.352 204.414C252.405 203.828 251.674 203.011 251.159 201.964C250.65 200.91 250.396 199.685 250.396 198.288C250.396 196.892 250.65 195.661 251.159 194.595C251.674 193.524 252.39 192.689 253.308 192.092C254.231 191.488 255.308 191.186 256.539 191.186C257.249 191.186 257.951 191.304 258.643 191.541C259.336 191.778 259.966 192.163 260.534 192.695C261.102 193.222 261.555 193.92 261.892 194.79C262.23 195.661 262.398 196.732 262.398 198.004V198.892H251.887V197.081H260.268C260.268 196.312 260.114 195.625 259.806 195.021C259.504 194.418 259.072 193.941 258.51 193.592C257.954 193.243 257.297 193.068 256.539 193.068C255.705 193.068 254.982 193.275 254.373 193.69C253.769 194.098 253.305 194.631 252.979 195.288C252.654 195.945 252.491 196.649 252.491 197.401V198.608C252.491 199.638 252.668 200.511 253.023 201.227C253.384 201.937 253.885 202.479 254.524 202.852C255.163 203.219 255.906 203.402 256.752 203.402C257.303 203.402 257.8 203.325 258.244 203.171C258.693 203.011 259.081 202.775 259.407 202.461C259.732 202.141 259.984 201.745 260.161 201.271L262.185 201.839C261.972 202.526 261.614 203.13 261.111 203.651C260.608 204.165 259.987 204.568 259.247 204.858C258.507 205.142 257.675 205.284 256.752 205.284Z" fill="black"/>
<path d="M184.202 127V108.818H190.558C191.825 108.818 192.869 109.037 193.692 109.475C194.515 109.907 195.127 110.49 195.53 111.224C195.932 111.952 196.134 112.76 196.134 113.648C196.134 114.429 195.994 115.074 195.716 115.583C195.444 116.092 195.083 116.495 194.633 116.79C194.189 117.086 193.707 117.305 193.186 117.447V117.625C193.742 117.661 194.302 117.856 194.864 118.211C195.426 118.566 195.897 119.075 196.276 119.738C196.654 120.401 196.844 121.212 196.844 122.17C196.844 123.082 196.637 123.902 196.222 124.63C195.808 125.358 195.154 125.935 194.26 126.361C193.367 126.787 192.204 127 190.771 127H184.202ZM186.403 125.047H190.771C192.21 125.047 193.23 124.769 193.834 124.212C194.444 123.65 194.749 122.969 194.749 122.17C194.749 121.555 194.592 120.987 194.278 120.466C193.964 119.939 193.518 119.519 192.938 119.205C192.357 118.886 191.671 118.726 190.878 118.726H186.403V125.047ZM186.403 116.808H190.487C191.15 116.808 191.748 116.678 192.281 116.418C192.819 116.157 193.245 115.79 193.559 115.317C193.879 114.843 194.038 114.287 194.038 113.648C194.038 112.849 193.76 112.171 193.204 111.615C192.647 111.052 191.766 110.771 190.558 110.771H186.403V116.808ZM205.895 127.284C204.581 127.284 203.447 126.994 202.494 126.414C201.548 125.828 200.817 125.011 200.302 123.964C199.793 122.91 199.538 121.685 199.538 120.288C199.538 118.892 199.793 117.661 200.302 116.595C200.817 115.524 201.533 114.689 202.45 114.092C203.373 113.488 204.451 113.186 205.682 113.186C206.392 113.186 207.093 113.304 207.786 113.541C208.478 113.778 209.108 114.163 209.677 114.695C210.245 115.222 210.698 115.92 211.035 116.79C211.372 117.661 211.541 118.732 211.541 120.004V120.892H201.03V119.081H209.41C209.41 118.312 209.256 117.625 208.949 117.021C208.647 116.418 208.215 115.941 207.653 115.592C207.096 115.243 206.439 115.068 205.682 115.068C204.847 115.068 204.125 115.275 203.515 115.69C202.912 116.098 202.447 116.631 202.122 117.288C201.796 117.945 201.633 118.649 201.633 119.401V120.608C201.633 121.638 201.811 122.511 202.166 123.227C202.527 123.937 203.027 124.479 203.666 124.852C204.306 125.219 205.048 125.402 205.895 125.402C206.445 125.402 206.942 125.325 207.386 125.171C207.836 125.011 208.224 124.775 208.549 124.461C208.875 124.141 209.126 123.745 209.304 123.271L211.328 123.839C211.115 124.526 210.757 125.13 210.254 125.651C209.751 126.165 209.129 126.568 208.389 126.858C207.65 127.142 206.818 127.284 205.895 127.284ZM216.823 118.797V127H214.728V113.364H216.752V115.494H216.93C217.249 114.802 217.735 114.246 218.386 113.825C219.037 113.399 219.877 113.186 220.907 113.186C221.83 113.186 222.638 113.375 223.331 113.754C224.023 114.127 224.562 114.695 224.947 115.459C225.331 116.216 225.524 117.175 225.524 118.335V127H223.428V118.477C223.428 117.406 223.15 116.571 222.594 115.974C222.038 115.37 221.274 115.068 220.303 115.068C219.635 115.068 219.037 115.213 218.51 115.503C217.989 115.793 217.578 116.216 217.276 116.773C216.974 117.329 216.823 118.004 216.823 118.797ZM235.283 113.364V115.139H228.216V113.364H235.283ZM230.275 110.097H232.371V123.094C232.371 123.686 232.456 124.129 232.628 124.425C232.806 124.715 233.031 124.911 233.303 125.011C233.581 125.106 233.874 125.153 234.182 125.153C234.413 125.153 234.602 125.142 234.75 125.118C234.898 125.088 235.016 125.065 235.105 125.047L235.531 126.929C235.389 126.982 235.191 127.036 234.936 127.089C234.682 127.148 234.359 127.178 233.969 127.178C233.377 127.178 232.797 127.05 232.229 126.796C231.666 126.541 231.199 126.154 230.826 125.633C230.459 125.112 230.275 124.455 230.275 123.662V110.097ZM243.828 127.284C242.596 127.284 241.516 126.991 240.587 126.405C239.664 125.819 238.942 125 238.421 123.946C237.906 122.893 237.649 121.661 237.649 120.253C237.649 118.832 237.906 117.592 238.421 116.533C238.942 115.474 239.664 114.651 240.587 114.065C241.516 113.479 242.596 113.186 243.828 113.186C245.059 113.186 246.136 113.479 247.059 114.065C247.988 114.651 248.71 115.474 249.225 116.533C249.746 117.592 250.006 118.832 250.006 120.253C250.006 121.661 249.746 122.893 249.225 123.946C248.71 125 247.988 125.819 247.059 126.405C246.136 126.991 245.059 127.284 243.828 127.284ZM243.828 125.402C244.763 125.402 245.532 125.162 246.136 124.683C246.739 124.203 247.186 123.573 247.476 122.792C247.766 122.011 247.911 121.164 247.911 120.253C247.911 119.341 247.766 118.492 247.476 117.705C247.186 116.918 246.739 116.281 246.136 115.796C245.532 115.311 244.763 115.068 243.828 115.068C242.892 115.068 242.123 115.311 241.519 115.796C240.916 116.281 240.469 116.918 240.179 117.705C239.889 118.492 239.744 119.341 239.744 120.253C239.744 121.164 239.889 122.011 240.179 122.792C240.469 123.573 240.916 124.203 241.519 124.683C242.123 125.162 242.892 125.402 243.828 125.402ZM255.3 118.797V127H253.205V113.364H255.229V115.494H255.406C255.726 114.802 256.211 114.246 256.862 113.825C257.513 113.399 258.354 113.186 259.384 113.186C260.307 113.186 261.115 113.375 261.807 113.754C262.5 114.127 263.038 114.695 263.423 115.459C263.808 116.216 264 117.175 264 118.335V127H261.905V118.477C261.905 117.406 261.627 116.571 261.07 115.974C260.514 115.37 259.751 115.068 258.78 115.068C258.111 115.068 257.513 115.213 256.987 115.503C256.466 115.793 256.055 116.216 255.753 116.773C255.451 117.329 255.3 118.004 255.3 118.797ZM278.491 113.364L273.448 127H271.318L266.275 113.364H268.548L272.312 124.23H272.454L276.218 113.364H278.491ZM281.256 127V113.364H283.352V127H281.256ZM282.322 111.091C281.913 111.091 281.561 110.952 281.265 110.674C280.975 110.395 280.83 110.061 280.83 109.67C280.83 109.28 280.975 108.945 281.265 108.667C281.561 108.389 281.913 108.25 282.322 108.25C282.73 108.25 283.079 108.389 283.369 108.667C283.665 108.945 283.813 109.28 283.813 109.67C283.813 110.061 283.665 110.395 283.369 110.674C283.079 110.952 282.73 111.091 282.322 111.091ZM289.284 108.818V127H287.189V108.818H289.284ZM295.217 108.818V127H293.122V108.818H295.217ZM304.772 127.284C303.458 127.284 302.324 126.994 301.371 126.414C300.424 125.828 299.694 125.011 299.179 123.964C298.67 122.91 298.415 121.685 298.415 120.288C298.415 118.892 298.67 117.661 299.179 116.595C299.694 115.524 300.41 114.689 301.327 114.092C302.25 113.488 303.328 113.186 304.559 113.186C305.269 113.186 305.97 113.304 306.663 113.541C307.355 113.778 307.985 114.163 308.554 114.695C309.122 115.222 309.575 115.92 309.912 116.79C310.249 117.661 310.418 118.732 310.418 120.004V120.892H299.907V119.081H308.287C308.287 118.312 308.133 117.625 307.826 117.021C307.524 116.418 307.092 115.941 306.529 115.592C305.973 115.243 305.316 115.068 304.559 115.068C303.724 115.068 303.002 115.275 302.392 115.69C301.789 116.098 301.324 116.631 300.999 117.288C300.673 117.945 300.51 118.649 300.51 119.401V120.608C300.51 121.638 300.688 122.511 301.043 123.227C301.404 123.937 301.904 124.479 302.543 124.852C303.183 125.219 303.925 125.402 304.772 125.402C305.322 125.402 305.819 125.325 306.263 125.171C306.713 125.011 307.101 124.775 307.426 124.461C307.752 124.141 308.003 123.745 308.181 123.271L310.205 123.839C309.992 124.526 309.634 125.13 309.131 125.651C308.628 126.165 308.006 126.568 307.266 126.858C306.527 127.142 305.695 127.284 304.772 127.284Z" fill="black"/>
<path d="M551.162 225.818H553.364V238.815C553.364 239.975 553.151 240.961 552.724 241.772C552.298 242.583 551.698 243.198 550.922 243.618C550.147 244.038 549.232 244.249 548.179 244.249C547.185 244.249 546.3 244.068 545.525 243.707C544.749 243.34 544.14 242.819 543.696 242.145C543.252 241.47 543.03 240.668 543.03 239.739H545.196C545.196 240.254 545.323 240.703 545.578 241.088C545.838 241.467 546.193 241.763 546.643 241.976C547.093 242.189 547.605 242.295 548.179 242.295C548.812 242.295 549.351 242.162 549.795 241.896C550.239 241.63 550.576 241.239 550.807 240.724C551.044 240.203 551.162 239.567 551.162 238.815V225.818ZM563.032 244.284C561.801 244.284 560.72 243.991 559.791 243.405C558.868 242.819 558.146 242 557.625 240.946C557.11 239.893 556.853 238.661 556.853 237.253C556.853 235.832 557.11 234.592 557.625 233.533C558.146 232.474 558.868 231.651 559.791 231.065C560.72 230.479 561.801 230.186 563.032 230.186C564.263 230.186 565.34 230.479 566.263 231.065C567.192 231.651 567.914 232.474 568.429 233.533C568.95 234.592 569.211 235.832 569.211 237.253C569.211 238.661 568.95 239.893 568.429 240.946C567.914 242 567.192 242.819 566.263 243.405C565.34 243.991 564.263 244.284 563.032 244.284ZM563.032 242.402C563.967 242.402 564.736 242.162 565.34 241.683C565.944 241.203 566.39 240.573 566.68 239.792C566.97 239.011 567.115 238.164 567.115 237.253C567.115 236.341 566.97 235.492 566.68 234.705C566.39 233.918 565.944 233.281 565.34 232.796C564.736 232.311 563.967 232.068 563.032 232.068C562.096 232.068 561.327 232.311 560.723 232.796C560.12 233.281 559.673 233.918 559.383 234.705C559.093 235.492 558.948 236.341 558.948 237.253C558.948 238.164 559.093 239.011 559.383 239.792C559.673 240.573 560.12 241.203 560.723 241.683C561.327 242.162 562.096 242.402 563.032 242.402ZM574.504 235.797V244H572.409V230.364H574.433V232.494H574.611C574.93 231.802 575.415 231.246 576.066 230.825C576.718 230.399 577.558 230.186 578.588 230.186C579.511 230.186 580.319 230.375 581.011 230.754C581.704 231.127 582.243 231.695 582.627 232.459C583.012 233.216 583.204 234.175 583.204 235.335V244H581.109V235.477C581.109 234.406 580.831 233.571 580.275 232.974C579.718 232.37 578.955 232.068 577.984 232.068C577.315 232.068 576.718 232.213 576.191 232.503C575.67 232.793 575.259 233.216 574.957 233.773C574.655 234.329 574.504 235.004 574.504 235.797ZM592.75 244.284C591.436 244.284 590.303 243.994 589.35 243.414C588.403 242.828 587.672 242.011 587.157 240.964C586.648 239.91 586.394 238.685 586.394 237.288C586.394 235.892 586.648 234.661 587.157 233.595C587.672 232.524 588.388 231.689 589.306 231.092C590.229 230.488 591.306 230.186 592.537 230.186C593.247 230.186 593.949 230.304 594.641 230.541C595.334 230.778 595.964 231.163 596.532 231.695C597.1 232.222 597.553 232.92 597.89 233.79C598.228 234.661 598.396 235.732 598.396 237.004V237.892H587.885V236.081H596.266C596.266 235.312 596.112 234.625 595.804 234.021C595.502 233.418 595.07 232.941 594.508 232.592C593.952 232.243 593.295 232.068 592.537 232.068C591.703 232.068 590.981 232.275 590.371 232.69C589.767 233.098 589.303 233.631 588.977 234.288C588.652 234.945 588.489 235.649 588.489 236.401V237.608C588.489 238.638 588.666 239.511 589.021 240.227C589.383 240.937 589.883 241.479 590.522 241.852C591.161 242.219 591.904 242.402 592.75 242.402C593.301 242.402 593.798 242.325 594.242 242.171C594.691 242.011 595.079 241.775 595.405 241.461C595.73 241.141 595.982 240.745 596.159 240.271L598.183 240.839C597.97 241.526 597.612 242.13 597.109 242.651C596.606 243.165 595.985 243.568 595.245 243.858C594.505 244.142 593.673 244.284 592.75 244.284ZM611.243 233.418L609.361 233.95C609.242 233.637 609.068 233.332 608.837 233.036C608.612 232.734 608.304 232.485 607.914 232.29C607.523 232.095 607.023 231.997 606.413 231.997C605.579 231.997 604.883 232.19 604.327 232.574C603.776 232.953 603.501 233.435 603.501 234.021C603.501 234.542 603.691 234.953 604.069 235.255C604.448 235.557 605.04 235.809 605.845 236.01L607.869 236.507C609.088 236.803 609.997 237.256 610.595 237.865C611.192 238.469 611.491 239.247 611.491 240.2C611.491 240.982 611.266 241.68 610.817 242.295C610.373 242.911 609.751 243.396 608.952 243.751C608.153 244.107 607.224 244.284 606.165 244.284C604.774 244.284 603.623 243.982 602.711 243.379C601.8 242.775 601.223 241.893 600.98 240.733L602.969 240.236C603.158 240.97 603.516 241.52 604.043 241.887C604.575 242.254 605.271 242.438 606.129 242.438C607.106 242.438 607.881 242.23 608.455 241.816C609.035 241.396 609.325 240.893 609.325 240.307C609.325 239.833 609.159 239.437 608.828 239.117C608.497 238.792 607.988 238.549 607.301 238.389L605.028 237.857C603.779 237.561 602.862 237.102 602.276 236.48C601.696 235.853 601.406 235.069 601.406 234.128C601.406 233.358 601.622 232.678 602.054 232.086C602.492 231.494 603.087 231.029 603.839 230.692C604.596 230.355 605.454 230.186 606.413 230.186C607.763 230.186 608.822 230.482 609.591 231.074C610.367 231.666 610.917 232.447 611.243 233.418ZM614.929 244V225.818H617.024V232.53H617.202C617.356 232.293 617.569 231.991 617.841 231.624C618.119 231.251 618.516 230.92 619.031 230.63C619.552 230.334 620.256 230.186 621.144 230.186C622.292 230.186 623.304 230.473 624.18 231.047C625.056 231.621 625.739 232.435 626.231 233.489C626.722 234.542 626.968 235.785 626.968 237.217C626.968 238.661 626.722 239.913 626.231 240.973C625.739 242.026 625.059 242.843 624.189 243.423C623.319 243.997 622.316 244.284 621.179 244.284C620.303 244.284 619.602 244.139 619.075 243.849C618.548 243.553 618.143 243.219 617.859 242.846C617.575 242.467 617.356 242.153 617.202 241.905H616.953V244H614.929ZM616.989 237.182C616.989 238.212 617.14 239.12 617.442 239.907C617.744 240.689 618.184 241.301 618.764 241.745C619.344 242.183 620.055 242.402 620.895 242.402C621.771 242.402 622.502 242.171 623.088 241.71C623.68 241.242 624.124 240.615 624.42 239.827C624.722 239.034 624.872 238.152 624.872 237.182C624.872 236.223 624.724 235.359 624.429 234.589C624.139 233.814 623.698 233.202 623.106 232.752C622.52 232.296 621.783 232.068 620.895 232.068C620.043 232.068 619.327 232.284 618.747 232.716C618.167 233.142 617.729 233.74 617.433 234.51C617.137 235.273 616.989 236.164 616.989 237.182ZM635.712 244.284C634.481 244.284 633.401 243.991 632.472 243.405C631.549 242.819 630.826 242 630.306 240.946C629.791 239.893 629.533 238.661 629.533 237.253C629.533 235.832 629.791 234.592 630.306 233.533C630.826 232.474 631.549 231.651 632.472 231.065C633.401 230.479 634.481 230.186 635.712 230.186C636.943 230.186 638.021 230.479 638.944 231.065C639.873 231.651 640.595 232.474 641.11 233.533C641.631 234.592 641.891 235.832 641.891 237.253C641.891 238.661 641.631 239.893 641.11 240.946C640.595 242 639.873 242.819 638.944 243.405C638.021 243.991 636.943 244.284 635.712 244.284ZM635.712 242.402C636.647 242.402 637.417 242.162 638.021 241.683C638.624 241.203 639.071 240.573 639.361 239.792C639.651 239.011 639.796 238.164 639.796 237.253C639.796 236.341 639.651 235.492 639.361 234.705C639.071 233.918 638.624 233.281 638.021 232.796C637.417 232.311 636.647 232.068 635.712 232.068C634.777 232.068 634.008 232.311 633.404 232.796C632.8 233.281 632.353 233.918 632.063 234.705C631.773 235.492 631.628 236.341 631.628 237.253C631.628 238.164 631.773 239.011 632.063 239.792C632.353 240.573 632.8 241.203 633.404 241.683C634.008 242.162 634.777 242.402 635.712 242.402ZM645.089 244V230.364H647.114V232.423H647.256C647.504 231.749 647.954 231.201 648.605 230.781C649.256 230.361 649.99 230.151 650.807 230.151C650.961 230.151 651.153 230.154 651.384 230.159C651.615 230.165 651.789 230.174 651.908 230.186V232.317C651.837 232.299 651.674 232.272 651.419 232.237C651.171 232.195 650.907 232.175 650.629 232.175C649.966 232.175 649.375 232.314 648.854 232.592C648.339 232.864 647.93 233.243 647.629 233.728C647.333 234.208 647.185 234.755 647.185 235.371V244H645.089ZM659.516 244.284C658.285 244.284 657.205 243.991 656.276 243.405C655.352 242.819 654.63 242 654.109 240.946C653.594 239.893 653.337 238.661 653.337 237.253C653.337 235.832 653.594 234.592 654.109 233.533C654.63 232.474 655.352 231.651 656.276 231.065C657.205 230.479 658.285 230.186 659.516 230.186C660.747 230.186 661.824 230.479 662.748 231.065C663.677 231.651 664.399 232.474 664.914 233.533C665.435 234.592 665.695 235.832 665.695 237.253C665.695 238.661 665.435 239.893 664.914 240.946C664.399 242 663.677 242.819 662.748 243.405C661.824 243.991 660.747 244.284 659.516 244.284ZM659.516 242.402C660.451 242.402 661.221 242.162 661.824 241.683C662.428 241.203 662.875 240.573 663.165 239.792C663.455 239.011 663.6 238.164 663.6 237.253C663.6 236.341 663.455 235.492 663.165 234.705C662.875 233.918 662.428 233.281 661.824 232.796C661.221 232.311 660.451 232.068 659.516 232.068C658.581 232.068 657.811 232.311 657.208 232.796C656.604 233.281 656.157 233.918 655.867 234.705C655.577 235.492 655.432 236.341 655.432 237.253C655.432 238.164 655.577 239.011 655.867 239.792C656.157 240.573 656.604 241.203 657.208 241.683C657.811 242.162 658.581 242.402 659.516 242.402Z" fill="black"/>
<circle cx="127.511" cy="277.511" r="9.01136" fill="#FFE587" stroke="black"/>
<circle cx="385.511" cy="324.511" r="9.01136" fill="#FFE587" stroke="black"/>
<circle cx="166.511" cy="118.511" r="9.01136" fill="#FFE587" stroke="black"/>
<circle cx="441.511" cy="461.511" r="9.01136" fill="#FFE587" stroke="black"/>
<circle cx="157.511" cy="167.511" r="9.01136" fill="#FFE587" stroke="black"/>
<circle cx="606.511" cy="206.511" r="9.01136" fill="#FFE587" stroke="black"/>
<defs>
<filter id="filter0_d_159_277" x="96.9238" y="99" width="651.201" height="560" filterUnits="userSpaceOnUse" color-interpolation-filters="sRGB">
<feFlood flood-opacity="0" result="BackgroundImageFix"/>
<feColorMatrix in="SourceAlpha" type="matrix" values="0 0 0 0 0 0 0 0 0 0 0 0 0 0 0 0 0 0 127 0" result="hardAlpha"/>
<feOffset dy="4"/>
<feGaussianBlur stdDeviation="2"/>
<feComposite in2="hardAlpha" operator="out"/>
<feColorMatrix type="matrix" values="0 0 0 0 0 0 0 0 0 0 0 0 0 0 0 0 0 0 0.25 0"/>
<feBlend mode="normal" in2="BackgroundImageFix" result="effect1_dropShadow_159_277"/>
<feBlend mode="normal" in="SourceGraphic" in2="effect1_dropShadow_159_277" result="shape"/>
</filter>
</defs>
</svg>
