<svg width="766" height="589" viewBox="0 0 766 589" fill="none" xmlns="http://www.w3.org/2000/svg">
<rect x="0.5" y="0.5" width="765" height="588" rx="35.5" fill="#8DDBFF" stroke="#717171"/>
<g filter="url(#filter0_d_207_303)">
<path d="M672 84.5H96L96.5 508.5L673 509L672 84.5Z" fill="#FFD597"/>
<path d="M672 84.5H96L96.5 508.5L673 509L672 84.5Z" stroke="black"/>
</g>
<path d="M373.395 63L368.469 45.5455H371.869L375.014 58.3722H375.176L378.534 45.5455H381.628L384.994 58.3807H385.148L388.293 45.5455H391.693L386.767 63H383.648L380.153 50.7528H380.017L376.514 63H373.395ZM392.692 45.5455H396.263L400.533 53.267H400.704L404.974 45.5455H408.545L402.195 56.4886V63H399.042V56.4886L392.692 45.5455Z" fill="#005A5E"/>
<path d="M704.065 44.5455V62H701.253L693.028 50.1108H692.884V62H689.722V44.5455H692.551L700.767 56.4432H700.92V44.5455H704.065ZM707.511 62V44.5455H718.863V47.196H710.673V51.9347H718.275V54.5852H710.673V59.3494H718.931V62H707.511Z" fill="#005A5E"/>
<path d="M689.722 337V319.545H692.884V327.565H693.097L699.906 319.545H703.767L697.017 327.378L703.827 337H700.026L694.818 329.517L692.884 331.801V337H689.722ZM715.356 324.344C715.276 323.599 714.941 323.02 714.35 322.605C713.765 322.19 713.004 321.983 712.066 321.983C711.407 321.983 710.842 322.082 710.37 322.281C709.898 322.48 709.538 322.75 709.288 323.091C709.038 323.432 708.91 323.821 708.904 324.259C708.904 324.622 708.987 324.937 709.151 325.205C709.322 325.472 709.552 325.699 709.842 325.886C710.131 326.068 710.452 326.222 710.805 326.347C711.157 326.472 711.512 326.577 711.87 326.662L713.506 327.071C714.165 327.224 714.799 327.432 715.407 327.693C716.021 327.955 716.569 328.284 717.052 328.682C717.54 329.08 717.927 329.56 718.211 330.122C718.495 330.685 718.637 331.344 718.637 332.099C718.637 333.122 718.376 334.023 717.853 334.801C717.33 335.574 716.575 336.179 715.586 336.616C714.603 337.048 713.413 337.264 712.015 337.264C710.657 337.264 709.478 337.054 708.478 336.634C707.484 336.213 706.705 335.599 706.143 334.793C705.586 333.986 705.285 333.003 705.239 331.844H708.35C708.396 332.452 708.583 332.957 708.913 333.361C709.242 333.764 709.671 334.065 710.2 334.264C710.734 334.463 711.33 334.562 711.989 334.562C712.677 334.562 713.279 334.46 713.796 334.256C714.319 334.045 714.728 333.756 715.023 333.386C715.319 333.011 715.469 332.574 715.475 332.074C715.469 331.619 715.336 331.244 715.075 330.949C714.813 330.648 714.447 330.398 713.975 330.199C713.509 329.994 712.964 329.812 712.339 329.653L710.353 329.142C708.915 328.773 707.779 328.213 706.944 327.463C706.114 326.707 705.7 325.705 705.7 324.455C705.7 323.426 705.978 322.526 706.535 321.753C707.097 320.98 707.862 320.381 708.827 319.955C709.793 319.523 710.887 319.307 712.109 319.307C713.347 319.307 714.433 319.523 715.364 319.955C716.302 320.381 717.038 320.974 717.572 321.736C718.106 322.491 718.381 323.361 718.398 324.344H715.356Z" fill="#005A5E"/>
<path d="M627.318 538.273C627.318 540.153 626.966 541.764 626.261 543.105C625.563 544.44 624.608 545.463 623.398 546.173C622.193 546.884 620.827 547.239 619.298 547.239C617.77 547.239 616.401 546.884 615.19 546.173C613.986 545.457 613.031 544.432 612.327 543.097C611.628 541.756 611.278 540.148 611.278 538.273C611.278 536.392 611.628 534.784 612.327 533.449C613.031 532.108 613.986 531.082 615.19 530.372C616.401 529.662 617.77 529.307 619.298 529.307C620.827 529.307 622.193 529.662 623.398 530.372C624.608 531.082 625.563 532.108 626.261 533.449C626.966 534.784 627.318 536.392 627.318 538.273ZM624.139 538.273C624.139 536.949 623.932 535.832 623.517 534.923C623.108 534.009 622.54 533.318 621.812 532.852C621.085 532.381 620.247 532.145 619.298 532.145C618.349 532.145 617.511 532.381 616.784 532.852C616.057 533.318 615.486 534.009 615.071 534.923C614.662 535.832 614.457 536.949 614.457 538.273C614.457 539.597 614.662 540.716 615.071 541.631C615.486 542.54 616.057 543.23 616.784 543.702C617.511 544.168 618.349 544.401 619.298 544.401C620.247 544.401 621.085 544.168 621.812 543.702C622.54 543.23 623.108 542.54 623.517 541.631C623.932 540.716 624.139 539.597 624.139 538.273ZM630.308 547V529.545H633.469V537.565H633.683L640.492 529.545H644.353L637.603 537.378L644.413 547H640.612L635.404 539.517L633.469 541.801V547H630.308Z" fill="#005A5E"/>
<path d="M296.065 529.545V547H293.253L285.028 535.111H284.884V547H281.722V529.545H284.551L292.767 541.443H292.92V529.545H296.065ZM299.511 529.545H303.38L308.562 542.193H308.766L313.948 529.545H317.817V547H314.783V535.009H314.621L309.798 546.949H307.531L302.707 534.983H302.545V547H299.511V529.545Z" fill="#005A5E"/>
<path d="M50.7244 312.545H53.8864V323.949C53.8864 325.199 53.5909 326.298 53 327.247C52.4148 328.196 51.5909 328.937 50.5284 329.472C49.4659 330 48.2244 330.264 46.804 330.264C45.3778 330.264 44.1335 330 43.071 329.472C42.0085 328.937 41.1847 328.196 40.5994 327.247C40.0142 326.298 39.7216 325.199 39.7216 323.949V312.545H42.8835V323.685C42.8835 324.412 43.0426 325.06 43.3608 325.628C43.6847 326.196 44.1392 326.642 44.7244 326.966C45.3097 327.284 46.0028 327.443 46.804 327.443C47.6051 327.443 48.2983 327.284 48.8835 326.966C49.4744 326.642 49.929 326.196 50.2472 325.628C50.5653 325.06 50.7244 324.412 50.7244 323.685V312.545ZM56.5561 315.196V312.545H70.4822V315.196H65.0874V330H61.951V315.196H56.5561Z" fill="#005A5E"/>
<circle cx="430.511" cy="218.511" r="9.01136" fill="#FF8F87" stroke="black"/>
<path d="M331.026 227H324.58V208.818H331.079C332.908 208.818 334.482 209.182 335.802 209.91C337.122 210.632 338.137 211.671 338.847 213.026C339.563 214.382 339.921 216.003 339.921 217.891C339.921 219.785 339.563 221.413 338.847 222.774C338.137 224.135 337.116 225.18 335.784 225.908C334.458 226.636 332.872 227 331.026 227ZM328.424 223.706H330.866C332.002 223.706 332.958 223.505 333.733 223.103C334.515 222.694 335.1 222.064 335.491 221.212C335.888 220.353 336.086 219.247 336.086 217.891C336.086 216.548 335.888 215.45 335.491 214.598C335.1 213.745 334.518 213.118 333.742 212.716C332.967 212.313 332.011 212.112 330.875 212.112H328.424V223.706ZM348.912 227.266C347.509 227.266 346.302 226.982 345.29 226.414C344.284 225.84 343.509 225.029 342.964 223.982C342.42 222.928 342.147 221.682 342.147 220.244C342.147 218.841 342.42 217.61 342.964 216.551C343.509 215.491 344.275 214.666 345.263 214.074C346.258 213.482 347.424 213.186 348.761 213.186C349.661 213.186 350.498 213.331 351.274 213.621C352.055 213.905 352.736 214.334 353.316 214.908C353.902 215.482 354.357 216.205 354.683 217.075C355.008 217.939 355.171 218.951 355.171 220.111V221.15H343.657V218.806H351.611C351.611 218.261 351.493 217.779 351.256 217.359C351.019 216.938 350.691 216.61 350.271 216.373C349.856 216.131 349.374 216.009 348.823 216.009C348.249 216.009 347.74 216.142 347.296 216.409C346.858 216.669 346.515 217.021 346.267 217.465C346.018 217.903 345.891 218.391 345.885 218.93V221.158C345.885 221.833 346.009 222.416 346.258 222.907C346.512 223.399 346.87 223.777 347.332 224.044C347.794 224.31 348.341 224.443 348.974 224.443C349.395 224.443 349.779 224.384 350.128 224.266C350.478 224.147 350.777 223.97 351.025 223.733C351.274 223.496 351.463 223.206 351.593 222.863L355.091 223.094C354.914 223.934 354.55 224.668 353.999 225.295C353.455 225.917 352.75 226.402 351.886 226.751C351.028 227.095 350.037 227.266 348.912 227.266ZM361.421 219.116V227H357.639V213.364H361.244V215.77H361.403C361.705 214.976 362.211 214.349 362.921 213.887C363.632 213.42 364.493 213.186 365.505 213.186C366.452 213.186 367.277 213.393 367.982 213.808C368.686 214.222 369.234 214.814 369.624 215.583C370.015 216.347 370.21 217.258 370.21 218.317V227H366.428V218.992C366.434 218.158 366.221 217.507 365.789 217.039C365.357 216.566 364.762 216.329 364.005 216.329C363.496 216.329 363.046 216.438 362.655 216.657C362.27 216.876 361.969 217.196 361.75 217.616C361.536 218.03 361.427 218.531 361.421 219.116ZM385.416 213.364L380.648 227H376.387L371.619 213.364H375.615L378.447 223.12H378.589L381.412 213.364H385.416ZM393.126 227.266C391.723 227.266 390.516 226.982 389.504 226.414C388.498 225.84 387.722 225.029 387.178 223.982C386.633 222.928 386.361 221.682 386.361 220.244C386.361 218.841 386.633 217.61 387.178 216.551C387.722 215.491 388.489 214.666 389.477 214.074C390.472 213.482 391.638 213.186 392.975 213.186C393.875 213.186 394.712 213.331 395.488 213.621C396.269 213.905 396.949 214.334 397.529 214.908C398.115 215.482 398.571 216.205 398.897 217.075C399.222 217.939 399.385 218.951 399.385 220.111V221.15H387.87V218.806H395.825C395.825 218.261 395.707 217.779 395.47 217.359C395.233 216.938 394.905 216.61 394.484 216.373C394.07 216.131 393.588 216.009 393.037 216.009C392.463 216.009 391.954 216.142 391.51 216.409C391.072 216.669 390.729 217.021 390.48 217.465C390.232 217.903 390.105 218.391 390.099 218.93V221.158C390.099 221.833 390.223 222.416 390.472 222.907C390.726 223.399 391.084 223.777 391.546 224.044C392.007 224.31 392.555 224.443 393.188 224.443C393.608 224.443 393.993 224.384 394.342 224.266C394.692 224.147 394.99 223.97 395.239 223.733C395.488 223.496 395.677 223.206 395.807 222.863L399.305 223.094C399.127 223.934 398.763 224.668 398.213 225.295C397.669 225.917 396.964 226.402 396.1 226.751C395.242 227.095 394.251 227.266 393.126 227.266ZM401.853 227V213.364H405.52V215.743H405.662C405.91 214.897 406.327 214.257 406.913 213.825C407.499 213.387 408.174 213.168 408.938 213.168C409.127 213.168 409.331 213.18 409.55 213.204C409.769 213.228 409.961 213.26 410.127 213.301V216.657C409.95 216.604 409.704 216.557 409.39 216.515C409.077 216.474 408.79 216.453 408.529 216.453C407.973 216.453 407.476 216.574 407.038 216.817C406.606 217.054 406.262 217.385 406.008 217.811C405.759 218.238 405.635 218.729 405.635 219.285V227H401.853Z" fill="black"/>
<path d="M355.832 339.5H353.631C353.5 338.867 353.273 338.31 352.947 337.831C352.627 337.352 352.237 336.949 351.775 336.624C351.319 336.292 350.813 336.044 350.257 335.878C349.701 335.712 349.121 335.629 348.517 335.629C347.416 335.629 346.419 335.907 345.525 336.464C344.637 337.02 343.93 337.84 343.403 338.923C342.883 340.006 342.622 341.335 342.622 342.909C342.622 344.483 342.883 345.812 343.403 346.895C343.93 347.978 344.637 348.798 345.525 349.354C346.419 349.911 347.416 350.189 348.517 350.189C349.121 350.189 349.701 350.106 350.257 349.94C350.813 349.775 351.319 349.529 351.775 349.203C352.237 348.872 352.627 348.467 352.947 347.987C353.273 347.502 353.5 346.946 353.631 346.318H355.832C355.667 347.247 355.365 348.079 354.927 348.813C354.489 349.547 353.944 350.171 353.293 350.686C352.642 351.195 351.911 351.583 351.1 351.849C350.296 352.115 349.434 352.249 348.517 352.249C346.966 352.249 345.587 351.87 344.38 351.112C343.173 350.355 342.223 349.277 341.53 347.881C340.838 346.484 340.491 344.827 340.491 342.909C340.491 340.991 340.838 339.334 341.53 337.938C342.223 336.541 343.173 335.464 344.38 334.706C345.587 333.948 346.966 333.57 348.517 333.57C349.434 333.57 350.296 333.703 351.1 333.969C351.911 334.235 352.642 334.626 353.293 335.141C353.944 335.65 354.489 336.271 354.927 337.005C355.365 337.733 355.667 338.565 355.832 339.5ZM364.646 352.284C363.415 352.284 362.335 351.991 361.405 351.405C360.482 350.819 359.76 350 359.239 348.946C358.724 347.893 358.467 346.661 358.467 345.253C358.467 343.832 358.724 342.592 359.239 341.533C359.76 340.474 360.482 339.651 361.405 339.065C362.335 338.479 363.415 338.186 364.646 338.186C365.877 338.186 366.954 338.479 367.877 339.065C368.807 339.651 369.529 340.474 370.044 341.533C370.564 342.592 370.825 343.832 370.825 345.253C370.825 346.661 370.564 347.893 370.044 348.946C369.529 350 368.807 350.819 367.877 351.405C366.954 351.991 365.877 352.284 364.646 352.284ZM364.646 350.402C365.581 350.402 366.35 350.162 366.954 349.683C367.558 349.203 368.005 348.573 368.295 347.792C368.585 347.011 368.73 346.164 368.73 345.253C368.73 344.341 368.585 343.492 368.295 342.705C368.005 341.918 367.558 341.281 366.954 340.796C366.35 340.311 365.581 340.068 364.646 340.068C363.711 340.068 362.941 340.311 362.338 340.796C361.734 341.281 361.287 341.918 360.997 342.705C360.707 343.492 360.562 344.341 360.562 345.253C360.562 346.164 360.707 347.011 360.997 347.792C361.287 348.573 361.734 349.203 362.338 349.683C362.941 350.162 363.711 350.402 364.646 350.402ZM376.118 333.818V352H374.023V333.818H376.118ZM385.495 352.284C384.264 352.284 383.184 351.991 382.255 351.405C381.332 350.819 380.61 350 380.089 348.946C379.574 347.893 379.316 346.661 379.316 345.253C379.316 343.832 379.574 342.592 380.089 341.533C380.61 340.474 381.332 339.651 382.255 339.065C383.184 338.479 384.264 338.186 385.495 338.186C386.727 338.186 387.804 338.479 388.727 339.065C389.656 339.651 390.378 340.474 390.893 341.533C391.414 342.592 391.674 343.832 391.674 345.253C391.674 346.661 391.414 347.893 390.893 348.946C390.378 350 389.656 350.819 388.727 351.405C387.804 351.991 386.727 352.284 385.495 352.284ZM385.495 350.402C386.431 350.402 387.2 350.162 387.804 349.683C388.407 349.203 388.854 348.573 389.144 347.792C389.434 347.011 389.579 346.164 389.579 345.253C389.579 344.341 389.434 343.492 389.144 342.705C388.854 341.918 388.407 341.281 387.804 340.796C387.2 340.311 386.431 340.068 385.495 340.068C384.56 340.068 383.791 340.311 383.187 340.796C382.584 341.281 382.137 341.918 381.847 342.705C381.557 343.492 381.412 344.341 381.412 345.253C381.412 346.164 381.557 347.011 381.847 347.792C382.137 348.573 382.584 349.203 383.187 349.683C383.791 350.162 384.56 350.402 385.495 350.402ZM394.873 352V338.364H396.897V340.423H397.039C397.287 339.749 397.737 339.201 398.388 338.781C399.039 338.361 399.773 338.151 400.59 338.151C400.744 338.151 400.936 338.154 401.167 338.159C401.398 338.165 401.573 338.174 401.691 338.186V340.317C401.62 340.299 401.457 340.272 401.203 340.237C400.954 340.195 400.691 340.175 400.412 340.175C399.75 340.175 399.158 340.314 398.637 340.592C398.122 340.864 397.714 341.243 397.412 341.728C397.116 342.208 396.968 342.755 396.968 343.371V352H394.873ZM408.187 352.32C407.323 352.32 406.539 352.157 405.835 351.831C405.13 351.5 404.571 351.023 404.157 350.402C403.742 349.775 403.535 349.017 403.535 348.129C403.535 347.348 403.689 346.715 403.997 346.229C404.305 345.738 404.716 345.353 405.231 345.075C405.746 344.797 406.314 344.59 406.935 344.454C407.563 344.312 408.193 344.199 408.826 344.116C409.655 344.01 410.327 343.93 410.842 343.877C411.363 343.818 411.741 343.72 411.978 343.584C412.221 343.448 412.342 343.211 412.342 342.874V342.803C412.342 341.927 412.102 341.246 411.623 340.761C411.149 340.275 410.43 340.033 409.466 340.033C408.465 340.033 407.681 340.252 407.113 340.69C406.545 341.128 406.145 341.595 405.915 342.092L403.926 341.382C404.281 340.554 404.754 339.908 405.346 339.447C405.944 338.979 406.595 338.654 407.299 338.47C408.01 338.281 408.708 338.186 409.395 338.186C409.833 338.186 410.336 338.239 410.904 338.346C411.478 338.446 412.031 338.657 412.564 338.976C413.103 339.296 413.549 339.778 413.905 340.423C414.26 341.068 414.437 341.933 414.437 343.016V352H412.342V350.153H412.236C412.093 350.449 411.857 350.766 411.525 351.103C411.194 351.441 410.753 351.728 410.203 351.964C409.652 352.201 408.98 352.32 408.187 352.32ZM408.507 350.438C409.335 350.438 410.034 350.275 410.602 349.949C411.176 349.624 411.608 349.203 411.898 348.689C412.194 348.174 412.342 347.632 412.342 347.064V345.146C412.253 345.253 412.058 345.35 411.756 345.439C411.46 345.522 411.117 345.596 410.726 345.661C410.342 345.72 409.966 345.774 409.599 345.821C409.238 345.862 408.945 345.898 408.72 345.928C408.175 345.999 407.666 346.114 407.193 346.274C406.725 346.428 406.347 346.661 406.057 346.975C405.772 347.283 405.63 347.703 405.63 348.236C405.63 348.964 405.9 349.514 406.438 349.887C406.983 350.254 407.672 350.438 408.507 350.438ZM423.411 352.284C422.274 352.284 421.271 351.997 420.401 351.423C419.531 350.843 418.85 350.026 418.359 348.973C417.868 347.913 417.622 346.661 417.622 345.217C417.622 343.785 417.868 342.542 418.359 341.489C418.85 340.435 419.534 339.621 420.41 339.047C421.286 338.473 422.298 338.186 423.446 338.186C424.334 338.186 425.035 338.334 425.55 338.63C426.071 338.92 426.467 339.251 426.74 339.624C427.018 339.991 427.234 340.293 427.388 340.53H427.565V333.818H429.661V352H427.636V349.905H427.388C427.234 350.153 427.015 350.467 426.731 350.846C426.447 351.219 426.041 351.553 425.515 351.849C424.988 352.139 424.286 352.284 423.411 352.284ZM423.695 350.402C424.535 350.402 425.245 350.183 425.825 349.745C426.405 349.301 426.846 348.689 427.148 347.907C427.45 347.12 427.601 346.212 427.601 345.182C427.601 344.164 427.453 343.273 427.157 342.51C426.861 341.74 426.423 341.142 425.843 340.716C425.263 340.284 424.547 340.068 423.695 340.068C422.807 340.068 422.067 340.296 421.475 340.752C420.889 341.202 420.448 341.814 420.152 342.589C419.862 343.359 419.717 344.223 419.717 345.182C419.717 346.152 419.865 347.034 420.161 347.827C420.463 348.615 420.907 349.242 421.493 349.71C422.085 350.171 422.819 350.402 423.695 350.402ZM439.328 352.284C438.097 352.284 437.017 351.991 436.088 351.405C435.165 350.819 434.443 350 433.922 348.946C433.407 347.893 433.15 346.661 433.15 345.253C433.15 343.832 433.407 342.592 433.922 341.533C434.443 340.474 435.165 339.651 436.088 339.065C437.017 338.479 438.097 338.186 439.328 338.186C440.56 338.186 441.637 338.479 442.56 339.065C443.489 339.651 444.211 340.474 444.726 341.533C445.247 342.592 445.507 343.832 445.507 345.253C445.507 346.661 445.247 347.893 444.726 348.946C444.211 350 443.489 350.819 442.56 351.405C441.637 351.991 440.56 352.284 439.328 352.284ZM439.328 350.402C440.264 350.402 441.033 350.162 441.637 349.683C442.24 349.203 442.687 348.573 442.977 347.792C443.267 347.011 443.412 346.164 443.412 345.253C443.412 344.341 443.267 343.492 442.977 342.705C442.687 341.918 442.24 341.281 441.637 340.796C441.033 340.311 440.264 340.068 439.328 340.068C438.393 340.068 437.624 340.311 437.02 340.796C436.417 341.281 435.97 341.918 435.68 342.705C435.39 343.492 435.245 344.341 435.245 345.253C435.245 346.164 435.39 347.011 435.68 347.792C435.97 348.573 436.417 349.203 437.02 349.683C437.624 350.162 438.393 350.402 439.328 350.402ZM465.964 338.364C465.858 337.464 465.426 336.766 464.668 336.268C463.91 335.771 462.981 335.523 461.88 335.523C461.075 335.523 460.371 335.653 459.767 335.913C459.17 336.174 458.702 336.532 458.365 336.988C458.033 337.443 457.868 337.961 457.868 338.541C457.868 339.027 457.983 339.444 458.214 339.793C458.451 340.136 458.752 340.423 459.119 340.654C459.486 340.879 459.871 341.065 460.274 341.213C460.676 341.355 461.046 341.471 461.383 341.56L463.23 342.057C463.703 342.181 464.23 342.353 464.81 342.572C465.396 342.791 465.955 343.09 466.488 343.468C467.027 343.841 467.47 344.321 467.82 344.907C468.169 345.493 468.343 346.212 468.343 347.064C468.343 348.046 468.086 348.934 467.571 349.727C467.062 350.52 466.316 351.151 465.334 351.618C464.357 352.086 463.171 352.32 461.774 352.32C460.472 352.32 459.344 352.109 458.391 351.689C457.444 351.269 456.699 350.683 456.154 349.931C455.616 349.18 455.311 348.307 455.24 347.312H457.513C457.572 347.999 457.803 348.567 458.205 349.017C458.613 349.461 459.128 349.792 459.75 350.011C460.377 350.224 461.052 350.331 461.774 350.331C462.614 350.331 463.369 350.195 464.038 349.923C464.707 349.644 465.236 349.26 465.627 348.768C466.017 348.271 466.213 347.691 466.213 347.028C466.213 346.425 466.044 345.933 465.707 345.555C465.369 345.176 464.926 344.868 464.375 344.631C463.825 344.395 463.23 344.187 462.591 344.01L460.353 343.371C458.933 342.962 457.808 342.379 456.98 341.622C456.151 340.864 455.737 339.873 455.737 338.648C455.737 337.63 456.012 336.742 456.563 335.984C457.119 335.221 457.865 334.629 458.8 334.209C459.741 333.783 460.791 333.57 461.951 333.57C463.123 333.57 464.165 333.78 465.076 334.2C465.988 334.614 466.71 335.182 467.243 335.904C467.781 336.627 468.065 337.446 468.095 338.364H465.964ZM471.679 357.114V338.364H473.703V340.53H473.952C474.106 340.293 474.319 339.991 474.591 339.624C474.869 339.251 475.266 338.92 475.781 338.63C476.302 338.334 477.006 338.186 477.894 338.186C479.042 338.186 480.054 338.473 480.93 339.047C481.806 339.621 482.49 340.435 482.981 341.489C483.472 342.542 483.718 343.785 483.718 345.217C483.718 346.661 483.472 347.913 482.981 348.973C482.49 350.026 481.809 350.843 480.939 351.423C480.069 351.997 479.066 352.284 477.929 352.284C477.053 352.284 476.352 352.139 475.825 351.849C475.299 351.553 474.893 351.219 474.609 350.846C474.325 350.467 474.106 350.153 473.952 349.905H473.775V357.114H471.679ZM473.739 345.182C473.739 346.212 473.89 347.12 474.192 347.907C474.494 348.689 474.935 349.301 475.515 349.745C476.095 350.183 476.805 350.402 477.645 350.402C478.521 350.402 479.252 350.171 479.838 349.71C480.43 349.242 480.874 348.615 481.17 347.827C481.472 347.034 481.623 346.152 481.623 345.182C481.623 344.223 481.475 343.359 481.179 342.589C480.889 341.814 480.448 341.202 479.856 340.752C479.27 340.296 478.533 340.068 477.645 340.068C476.793 340.068 476.077 340.284 475.497 340.716C474.917 341.142 474.479 341.74 474.183 342.51C473.887 343.273 473.739 344.164 473.739 345.182ZM486.914 352V338.364H488.938V340.423H489.08C489.328 339.749 489.778 339.201 490.429 338.781C491.08 338.361 491.814 338.151 492.631 338.151C492.785 338.151 492.977 338.154 493.208 338.159C493.439 338.165 493.614 338.174 493.732 338.186V340.317C493.661 340.299 493.498 340.272 493.244 340.237C492.995 340.195 492.732 340.175 492.453 340.175C491.791 340.175 491.199 340.314 490.678 340.592C490.163 340.864 489.755 341.243 489.453 341.728C489.157 342.208 489.009 342.755 489.009 343.371V352H486.914ZM496.215 352V338.364H498.311V352H496.215ZM497.281 336.091C496.872 336.091 496.52 335.952 496.224 335.674C495.934 335.395 495.789 335.061 495.789 334.67C495.789 334.28 495.934 333.945 496.224 333.667C496.52 333.389 496.872 333.25 497.281 333.25C497.689 333.25 498.038 333.389 498.328 333.667C498.624 333.945 498.772 334.28 498.772 334.67C498.772 335.061 498.624 335.395 498.328 335.674C498.038 335.952 497.689 336.091 497.281 336.091ZM504.243 343.797V352H502.148V338.364H504.172V340.494H504.35C504.669 339.802 505.155 339.246 505.806 338.825C506.457 338.399 507.297 338.186 508.327 338.186C509.25 338.186 510.058 338.375 510.751 338.754C511.443 339.127 511.982 339.695 512.366 340.459C512.751 341.216 512.944 342.175 512.944 343.335V352H510.848V343.477C510.848 342.406 510.57 341.571 510.014 340.974C509.458 340.37 508.694 340.068 507.723 340.068C507.055 340.068 506.457 340.213 505.93 340.503C505.409 340.793 504.998 341.216 504.696 341.773C504.394 342.329 504.243 343.004 504.243 343.797ZM522.276 357.398C521.264 357.398 520.394 357.268 519.666 357.007C518.938 356.753 518.332 356.415 517.846 355.995C517.367 355.581 516.985 355.137 516.701 354.663L518.37 353.491C518.56 353.74 518.799 354.024 519.089 354.344C519.379 354.669 519.776 354.95 520.279 355.187C520.788 355.43 521.454 355.551 522.276 355.551C523.377 355.551 524.286 355.285 525.002 354.752C525.718 354.219 526.076 353.385 526.076 352.249V349.479H525.899C525.745 349.727 525.526 350.035 525.242 350.402C524.963 350.763 524.561 351.086 524.034 351.37C523.513 351.648 522.809 351.787 521.921 351.787C520.82 351.787 519.832 351.527 518.956 351.006C518.086 350.485 517.397 349.727 516.888 348.733C516.384 347.739 516.133 346.531 516.133 345.111C516.133 343.714 516.379 342.498 516.87 341.462C517.361 340.42 518.045 339.615 518.921 339.047C519.796 338.473 520.809 338.186 521.957 338.186C522.845 338.186 523.549 338.334 524.07 338.63C524.596 338.92 524.999 339.251 525.277 339.624C525.561 339.991 525.78 340.293 525.934 340.53H526.147V338.364H528.171V352.391C528.171 353.562 527.905 354.515 527.372 355.249C526.845 355.989 526.135 356.531 525.242 356.874C524.354 357.223 523.365 357.398 522.276 357.398ZM522.205 349.905C523.046 349.905 523.756 349.712 524.336 349.328C524.916 348.943 525.357 348.39 525.659 347.668C525.961 346.946 526.112 346.081 526.112 345.075C526.112 344.093 525.964 343.226 525.668 342.474C525.372 341.722 524.934 341.134 524.354 340.707C523.774 340.281 523.058 340.068 522.205 340.068C521.318 340.068 520.578 340.293 519.986 340.743C519.4 341.193 518.959 341.796 518.663 342.554C518.373 343.312 518.228 344.152 518.228 345.075C518.228 346.022 518.376 346.86 518.672 347.588C518.974 348.31 519.418 348.878 520.004 349.292C520.595 349.701 521.329 349.905 522.205 349.905ZM541.666 341.418L539.783 341.95C539.665 341.637 539.491 341.332 539.26 341.036C539.035 340.734 538.727 340.485 538.336 340.29C537.946 340.095 537.446 339.997 536.836 339.997C536.002 339.997 535.306 340.19 534.75 340.574C534.199 340.953 533.924 341.435 533.924 342.021C533.924 342.542 534.113 342.953 534.492 343.255C534.871 343.557 535.463 343.809 536.268 344.01L538.292 344.507C539.511 344.803 540.42 345.256 541.017 345.865C541.615 346.469 541.914 347.247 541.914 348.2C541.914 348.982 541.689 349.68 541.239 350.295C540.796 350.911 540.174 351.396 539.375 351.751C538.576 352.107 537.647 352.284 536.587 352.284C535.197 352.284 534.045 351.982 533.134 351.379C532.223 350.775 531.645 349.893 531.403 348.733L533.391 348.236C533.581 348.97 533.939 349.52 534.466 349.887C534.998 350.254 535.694 350.438 536.552 350.438C537.528 350.438 538.304 350.23 538.878 349.816C539.458 349.396 539.748 348.893 539.748 348.307C539.748 347.833 539.582 347.437 539.251 347.117C538.919 346.792 538.41 346.549 537.724 346.389L535.451 345.857C534.202 345.561 533.285 345.102 532.699 344.48C532.119 343.853 531.829 343.069 531.829 342.128C531.829 341.358 532.045 340.678 532.477 340.086C532.915 339.494 533.51 339.029 534.261 338.692C535.019 338.355 535.877 338.186 536.836 338.186C538.185 338.186 539.245 338.482 540.014 339.074C540.79 339.666 541.34 340.447 541.666 341.418Z" fill="black"/>
<path d="M361.202 172V153.818H367.558C368.825 153.818 369.869 154.037 370.692 154.475C371.515 154.907 372.127 155.49 372.53 156.224C372.932 156.952 373.134 157.76 373.134 158.648C373.134 159.429 372.994 160.074 372.716 160.583C372.444 161.092 372.083 161.495 371.633 161.79C371.189 162.086 370.707 162.305 370.186 162.447V162.625C370.742 162.661 371.302 162.856 371.864 163.211C372.426 163.566 372.897 164.075 373.276 164.738C373.654 165.401 373.844 166.212 373.844 167.17C373.844 168.082 373.637 168.902 373.222 169.63C372.808 170.358 372.154 170.935 371.26 171.361C370.367 171.787 369.204 172 367.771 172H361.202ZM363.403 170.047H367.771C369.21 170.047 370.23 169.769 370.834 169.212C371.444 168.65 371.749 167.969 371.749 167.17C371.749 166.555 371.592 165.987 371.278 165.466C370.964 164.939 370.518 164.519 369.938 164.205C369.357 163.886 368.671 163.726 367.878 163.726H363.403V170.047ZM363.403 161.808H367.487C368.15 161.808 368.748 161.678 369.281 161.418C369.819 161.157 370.245 160.79 370.559 160.317C370.879 159.843 371.038 159.287 371.038 158.648C371.038 157.849 370.76 157.171 370.204 156.615C369.647 156.052 368.766 155.771 367.558 155.771H363.403V161.808ZM382.717 172.284C381.486 172.284 380.406 171.991 379.477 171.405C378.553 170.819 377.831 170 377.311 168.946C376.796 167.893 376.538 166.661 376.538 165.253C376.538 163.832 376.796 162.592 377.311 161.533C377.831 160.474 378.553 159.651 379.477 159.065C380.406 158.479 381.486 158.186 382.717 158.186C383.948 158.186 385.025 158.479 385.949 159.065C386.878 159.651 387.6 160.474 388.115 161.533C388.636 162.592 388.896 163.832 388.896 165.253C388.896 166.661 388.636 167.893 388.115 168.946C387.6 170 386.878 170.819 385.949 171.405C385.025 171.991 383.948 172.284 382.717 172.284ZM382.717 170.402C383.652 170.402 384.422 170.162 385.025 169.683C385.629 169.203 386.076 168.573 386.366 167.792C386.656 167.011 386.801 166.164 386.801 165.253C386.801 164.341 386.656 163.492 386.366 162.705C386.076 161.918 385.629 161.281 385.025 160.796C384.422 160.311 383.652 160.068 382.717 160.068C381.782 160.068 381.013 160.311 380.409 160.796C379.805 161.281 379.358 161.918 379.068 162.705C378.778 163.492 378.633 164.341 378.633 165.253C378.633 166.164 378.778 167.011 379.068 167.792C379.358 168.573 379.805 169.203 380.409 169.683C381.013 170.162 381.782 170.402 382.717 170.402ZM400.688 166.425V158.364H402.783V172H400.688V169.692H400.546C400.226 170.384 399.729 170.973 399.055 171.458C398.38 171.938 397.528 172.178 396.498 172.178C395.646 172.178 394.888 171.991 394.225 171.618C393.562 171.239 393.041 170.671 392.663 169.914C392.284 169.15 392.094 168.188 392.094 167.028V158.364H394.19V166.886C394.19 167.881 394.468 168.674 395.024 169.266C395.586 169.857 396.302 170.153 397.172 170.153C397.693 170.153 398.223 170.02 398.762 169.754C399.306 169.488 399.762 169.079 400.129 168.529C400.502 167.978 400.688 167.277 400.688 166.425ZM408.716 153.818V172H406.621V153.818H408.716ZM417.703 172.284C416.566 172.284 415.563 171.997 414.693 171.423C413.823 170.843 413.142 170.026 412.651 168.973C412.16 167.913 411.914 166.661 411.914 165.217C411.914 163.785 412.16 162.542 412.651 161.489C413.142 160.435 413.826 159.621 414.702 159.047C415.578 158.473 416.59 158.186 417.738 158.186C418.626 158.186 419.327 158.334 419.842 158.63C420.363 158.92 420.759 159.251 421.032 159.624C421.31 159.991 421.526 160.293 421.68 160.53H421.857V153.818H423.953V172H421.928V169.905H421.68C421.526 170.153 421.307 170.467 421.023 170.846C420.739 171.219 420.333 171.553 419.807 171.849C419.28 172.139 418.578 172.284 417.703 172.284ZM417.987 170.402C418.827 170.402 419.537 170.183 420.117 169.745C420.697 169.301 421.138 168.689 421.44 167.907C421.742 167.12 421.893 166.212 421.893 165.182C421.893 164.164 421.745 163.273 421.449 162.51C421.153 161.74 420.715 161.142 420.135 160.716C419.555 160.284 418.839 160.068 417.987 160.068C417.099 160.068 416.359 160.296 415.767 160.752C415.181 161.202 414.74 161.814 414.444 162.589C414.154 163.359 414.009 164.223 414.009 165.182C414.009 166.152 414.157 167.034 414.453 167.827C414.755 168.615 415.199 169.242 415.785 169.71C416.377 170.171 417.111 170.402 417.987 170.402ZM433.798 172.284C432.484 172.284 431.351 171.994 430.398 171.414C429.451 170.828 428.72 170.011 428.205 168.964C427.696 167.91 427.441 166.685 427.441 165.288C427.441 163.892 427.696 162.661 428.205 161.595C428.72 160.524 429.436 159.689 430.353 159.092C431.277 158.488 432.354 158.186 433.585 158.186C434.295 158.186 434.997 158.304 435.689 158.541C436.381 158.778 437.012 159.163 437.58 159.695C438.148 160.222 438.601 160.92 438.938 161.79C439.276 162.661 439.444 163.732 439.444 165.004V165.892H428.933V164.081H437.314C437.314 163.312 437.16 162.625 436.852 162.021C436.55 161.418 436.118 160.941 435.556 160.592C434.999 160.243 434.343 160.068 433.585 160.068C432.75 160.068 432.028 160.275 431.419 160.69C430.815 161.098 430.35 161.631 430.025 162.288C429.699 162.945 429.537 163.649 429.537 164.401V165.608C429.537 166.638 429.714 167.511 430.069 168.227C430.43 168.937 430.93 169.479 431.57 169.852C432.209 170.219 432.952 170.402 433.798 170.402C434.348 170.402 434.846 170.325 435.29 170.171C435.739 170.011 436.127 169.775 436.453 169.461C436.778 169.141 437.03 168.745 437.207 168.271L439.231 168.839C439.018 169.526 438.66 170.13 438.157 170.651C437.654 171.165 437.033 171.568 436.293 171.858C435.553 172.142 434.721 172.284 433.798 172.284ZM442.631 172V158.364H444.656V160.423H444.798C445.046 159.749 445.496 159.201 446.147 158.781C446.798 158.361 447.532 158.151 448.349 158.151C448.503 158.151 448.695 158.154 448.926 158.159C449.157 158.165 449.331 158.174 449.45 158.186V160.317C449.379 160.299 449.216 160.272 448.961 160.237C448.713 160.195 448.449 160.175 448.171 160.175C447.508 160.175 446.917 160.314 446.396 160.592C445.881 160.864 445.472 161.243 445.171 161.728C444.875 162.208 444.727 162.755 444.727 163.371V172H442.631Z" fill="black"/>
<path d="M361.202 172V153.818H367.558C368.825 153.818 369.869 154.037 370.692 154.475C371.515 154.907 372.127 155.49 372.53 156.224C372.932 156.952 373.134 157.76 373.134 158.648C373.134 159.429 372.994 160.074 372.716 160.583C372.444 161.092 372.083 161.495 371.633 161.79C371.189 162.086 370.707 162.305 370.186 162.447V162.625C370.742 162.661 371.302 162.856 371.864 163.211C372.426 163.566 372.897 164.075 373.276 164.738C373.654 165.401 373.844 166.212 373.844 167.17C373.844 168.082 373.637 168.902 373.222 169.63C372.808 170.358 372.154 170.935 371.26 171.361C370.367 171.787 369.204 172 367.771 172H361.202ZM363.403 170.047H367.771C369.21 170.047 370.23 169.769 370.834 169.212C371.444 168.65 371.749 167.969 371.749 167.17C371.749 166.555 371.592 165.987 371.278 165.466C370.964 164.939 370.518 164.519 369.938 164.205C369.357 163.886 368.671 163.726 367.878 163.726H363.403V170.047ZM363.403 161.808H367.487C368.15 161.808 368.748 161.678 369.281 161.418C369.819 161.157 370.245 160.79 370.559 160.317C370.879 159.843 371.038 159.287 371.038 158.648C371.038 157.849 370.76 157.171 370.204 156.615C369.647 156.052 368.766 155.771 367.558 155.771H363.403V161.808ZM382.717 172.284C381.486 172.284 380.406 171.991 379.477 171.405C378.553 170.819 377.831 170 377.311 168.946C376.796 167.893 376.538 166.661 376.538 165.253C376.538 163.832 376.796 162.592 377.311 161.533C377.831 160.474 378.553 159.651 379.477 159.065C380.406 158.479 381.486 158.186 382.717 158.186C383.948 158.186 385.025 158.479 385.949 159.065C386.878 159.651 387.6 160.474 388.115 161.533C388.636 162.592 388.896 163.832 388.896 165.253C388.896 166.661 388.636 167.893 388.115 168.946C387.6 170 386.878 170.819 385.949 171.405C385.025 171.991 383.948 172.284 382.717 172.284ZM382.717 170.402C383.652 170.402 384.422 170.162 385.025 169.683C385.629 169.203 386.076 168.573 386.366 167.792C386.656 167.011 386.801 166.164 386.801 165.253C386.801 164.341 386.656 163.492 386.366 162.705C386.076 161.918 385.629 161.281 385.025 160.796C384.422 160.311 383.652 160.068 382.717 160.068C381.782 160.068 381.013 160.311 380.409 160.796C379.805 161.281 379.358 161.918 379.068 162.705C378.778 163.492 378.633 164.341 378.633 165.253C378.633 166.164 378.778 167.011 379.068 167.792C379.358 168.573 379.805 169.203 380.409 169.683C381.013 170.162 381.782 170.402 382.717 170.402ZM400.688 166.425V158.364H402.783V172H400.688V169.692H400.546C400.226 170.384 399.729 170.973 399.055 171.458C398.38 171.938 397.528 172.178 396.498 172.178C395.646 172.178 394.888 171.991 394.225 171.618C393.562 171.239 393.041 170.671 392.663 169.914C392.284 169.15 392.094 168.188 392.094 167.028V158.364H394.19V166.886C394.19 167.881 394.468 168.674 395.024 169.266C395.586 169.857 396.302 170.153 397.172 170.153C397.693 170.153 398.223 170.02 398.762 169.754C399.306 169.488 399.762 169.079 400.129 168.529C400.502 167.978 400.688 167.277 400.688 166.425ZM408.716 153.818V172H406.621V153.818H408.716ZM417.703 172.284C416.566 172.284 415.563 171.997 414.693 171.423C413.823 170.843 413.142 170.026 412.651 168.973C412.16 167.913 411.914 166.661 411.914 165.217C411.914 163.785 412.16 162.542 412.651 161.489C413.142 160.435 413.826 159.621 414.702 159.047C415.578 158.473 416.59 158.186 417.738 158.186C418.626 158.186 419.327 158.334 419.842 158.63C420.363 158.92 420.759 159.251 421.032 159.624C421.31 159.991 421.526 160.293 421.68 160.53H421.857V153.818H423.953V172H421.928V169.905H421.68C421.526 170.153 421.307 170.467 421.023 170.846C420.739 171.219 420.333 171.553 419.807 171.849C419.28 172.139 418.578 172.284 417.703 172.284ZM417.987 170.402C418.827 170.402 419.537 170.183 420.117 169.745C420.697 169.301 421.138 168.689 421.44 167.907C421.742 167.12 421.893 166.212 421.893 165.182C421.893 164.164 421.745 163.273 421.449 162.51C421.153 161.74 420.715 161.142 420.135 160.716C419.555 160.284 418.839 160.068 417.987 160.068C417.099 160.068 416.359 160.296 415.767 160.752C415.181 161.202 414.74 161.814 414.444 162.589C414.154 163.359 414.009 164.223 414.009 165.182C414.009 166.152 414.157 167.034 414.453 167.827C414.755 168.615 415.199 169.242 415.785 169.71C416.377 170.171 417.111 170.402 417.987 170.402ZM433.798 172.284C432.484 172.284 431.351 171.994 430.398 171.414C429.451 170.828 428.72 170.011 428.205 168.964C427.696 167.91 427.441 166.685 427.441 165.288C427.441 163.892 427.696 162.661 428.205 161.595C428.72 160.524 429.436 159.689 430.353 159.092C431.277 158.488 432.354 158.186 433.585 158.186C434.295 158.186 434.997 158.304 435.689 158.541C436.381 158.778 437.012 159.163 437.58 159.695C438.148 160.222 438.601 160.92 438.938 161.79C439.276 162.661 439.444 163.732 439.444 165.004V165.892H428.933V164.081H437.314C437.314 163.312 437.16 162.625 436.852 162.021C436.55 161.418 436.118 160.941 435.556 160.592C434.999 160.243 434.343 160.068 433.585 160.068C432.75 160.068 432.028 160.275 431.419 160.69C430.815 161.098 430.35 161.631 430.025 162.288C429.699 162.945 429.537 163.649 429.537 164.401V165.608C429.537 166.638 429.714 167.511 430.069 168.227C430.43 168.937 430.93 169.479 431.57 169.852C432.209 170.219 432.952 170.402 433.798 170.402C434.348 170.402 434.846 170.325 435.29 170.171C435.739 170.011 436.127 169.775 436.453 169.461C436.778 169.141 437.03 168.745 437.207 168.271L439.231 168.839C439.018 169.526 438.66 170.13 438.157 170.651C437.654 171.165 437.033 171.568 436.293 171.858C435.553 172.142 434.721 172.284 433.798 172.284ZM442.631 172V158.364H444.656V160.423H444.798C445.046 159.749 445.496 159.201 446.147 158.781C446.798 158.361 447.532 158.151 448.349 158.151C448.503 158.151 448.695 158.154 448.926 158.159C449.157 158.165 449.331 158.174 449.45 158.186V160.317C449.379 160.299 449.216 160.272 448.961 160.237C448.713 160.195 448.449 160.175 448.171 160.175C447.508 160.175 446.917 160.314 446.396 160.592C445.881 160.864 445.472 161.243 445.171 161.728C444.875 162.208 444.727 162.755 444.727 163.371V172H442.631Z" fill="black"/>
<path d="M445.947 257H443.639L450.315 238.818H452.588L459.264 257H456.956L451.523 241.695H451.381L445.947 257ZM446.8 249.898H456.104V251.851H446.8V249.898ZM470.406 251.425V243.364H472.501V257H470.406V254.692H470.264C469.944 255.384 469.447 255.973 468.772 256.458C468.098 256.938 467.245 257.178 466.216 257.178C465.363 257.178 464.606 256.991 463.943 256.618C463.28 256.239 462.759 255.671 462.38 254.914C462.002 254.15 461.812 253.188 461.812 252.028V243.364H463.907V251.886C463.907 252.881 464.185 253.674 464.742 254.266C465.304 254.857 466.02 255.153 466.89 255.153C467.411 255.153 467.941 255.02 468.479 254.754C469.024 254.488 469.48 254.079 469.847 253.529C470.219 252.978 470.406 252.277 470.406 251.425ZM476.339 257V243.364H478.363V245.423H478.505C478.753 244.749 479.203 244.201 479.854 243.781C480.505 243.361 481.239 243.151 482.056 243.151C482.21 243.151 482.402 243.154 482.633 243.159C482.864 243.165 483.038 243.174 483.157 243.186V245.317C483.086 245.299 482.923 245.272 482.668 245.237C482.42 245.195 482.156 245.175 481.878 245.175C481.215 245.175 480.624 245.314 480.103 245.592C479.588 245.864 479.179 246.243 478.878 246.728C478.582 247.208 478.434 247.755 478.434 248.371V257H476.339ZM490.765 257.284C489.534 257.284 488.454 256.991 487.525 256.405C486.601 255.819 485.879 255 485.358 253.946C484.843 252.893 484.586 251.661 484.586 250.253C484.586 248.832 484.843 247.592 485.358 246.533C485.879 245.474 486.601 244.651 487.525 244.065C488.454 243.479 489.534 243.186 490.765 243.186C491.996 243.186 493.073 243.479 493.997 244.065C494.926 244.651 495.648 245.474 496.163 246.533C496.684 247.592 496.944 248.832 496.944 250.253C496.944 251.661 496.684 252.893 496.163 253.946C495.648 255 494.926 255.819 493.997 256.405C493.073 256.991 491.996 257.284 490.765 257.284ZM490.765 255.402C491.7 255.402 492.47 255.162 493.073 254.683C493.677 254.203 494.124 253.573 494.414 252.792C494.704 252.011 494.849 251.164 494.849 250.253C494.849 249.341 494.704 248.492 494.414 247.705C494.124 246.918 493.677 246.281 493.073 245.796C492.47 245.311 491.7 245.068 490.765 245.068C489.83 245.068 489.06 245.311 488.457 245.796C487.853 246.281 487.406 246.918 487.116 247.705C486.826 248.492 486.681 249.341 486.681 250.253C486.681 251.164 486.826 252.011 487.116 252.792C487.406 253.573 487.853 254.203 488.457 254.683C489.06 255.162 489.83 255.402 490.765 255.402ZM500.142 257V243.364H502.166V245.423H502.308C502.557 244.749 503.007 244.201 503.658 243.781C504.309 243.361 505.043 243.151 505.86 243.151C506.013 243.151 506.206 243.154 506.437 243.159C506.667 243.165 506.842 243.174 506.96 243.186V245.317C506.889 245.299 506.727 245.272 506.472 245.237C506.224 245.195 505.96 245.175 505.682 245.175C505.019 245.175 504.427 245.314 503.906 245.592C503.392 245.864 502.983 246.243 502.681 246.728C502.385 247.208 502.237 247.755 502.237 248.371V257H500.142ZM513.457 257.32C512.593 257.32 511.808 257.157 511.104 256.831C510.4 256.5 509.841 256.023 509.426 255.402C509.012 254.775 508.805 254.017 508.805 253.129C508.805 252.348 508.959 251.715 509.266 251.229C509.574 250.738 509.986 250.353 510.5 250.075C511.015 249.797 511.584 249.59 512.205 249.454C512.832 249.312 513.463 249.199 514.096 249.116C514.925 249.01 515.596 248.93 516.111 248.877C516.632 248.818 517.011 248.72 517.248 248.584C517.49 248.448 517.612 248.211 517.612 247.874V247.803C517.612 246.927 517.372 246.246 516.892 245.761C516.419 245.275 515.7 245.033 514.735 245.033C513.735 245.033 512.951 245.252 512.383 245.69C511.814 246.128 511.415 246.595 511.184 247.092L509.195 246.382C509.551 245.554 510.024 244.908 510.616 244.447C511.214 243.979 511.865 243.654 512.569 243.47C513.279 243.281 513.978 243.186 514.664 243.186C515.102 243.186 515.605 243.239 516.173 243.346C516.747 243.446 517.301 243.657 517.834 243.976C518.372 244.296 518.819 244.778 519.174 245.423C519.529 246.068 519.707 246.933 519.707 248.016V257H517.612V255.153H517.505C517.363 255.449 517.126 255.766 516.795 256.103C516.463 256.441 516.022 256.728 515.472 256.964C514.922 257.201 514.25 257.32 513.457 257.32ZM513.776 255.438C514.605 255.438 515.303 255.275 515.872 254.949C516.446 254.624 516.878 254.203 517.168 253.689C517.464 253.174 517.612 252.632 517.612 252.064V250.146C517.523 250.253 517.328 250.35 517.026 250.439C516.73 250.522 516.386 250.596 515.996 250.661C515.611 250.72 515.235 250.774 514.868 250.821C514.507 250.862 514.214 250.898 513.989 250.928C513.445 250.999 512.936 251.114 512.462 251.274C511.995 251.428 511.616 251.661 511.326 251.975C511.042 252.283 510.9 252.703 510.9 253.236C510.9 253.964 511.169 254.514 511.708 254.887C512.252 255.254 512.942 255.438 513.776 255.438Z" fill="black"/>
<path d="M389.504 477L384.533 458.818H386.77L390.57 473.626H390.747L394.618 458.818H397.104L400.974 473.626H401.152L404.952 458.818H407.189L402.217 477H399.945L395.932 462.511H395.79L391.777 477H389.504ZM412.391 477.32C411.527 477.32 410.743 477.157 410.039 476.831C409.334 476.5 408.775 476.023 408.361 475.402C407.946 474.775 407.739 474.017 407.739 473.129C407.739 472.348 407.893 471.715 408.201 471.229C408.509 470.738 408.92 470.353 409.435 470.075C409.95 469.797 410.518 469.59 411.14 469.454C411.767 469.312 412.397 469.199 413.031 469.116C413.859 469.01 414.531 468.93 415.046 468.877C415.567 468.818 415.945 468.72 416.182 468.584C416.425 468.448 416.546 468.211 416.546 467.874V467.803C416.546 466.927 416.306 466.246 415.827 465.761C415.354 465.275 414.634 465.033 413.67 465.033C412.67 465.033 411.885 465.252 411.317 465.69C410.749 466.128 410.349 466.595 410.119 467.092L408.13 466.382C408.485 465.554 408.959 464.908 409.55 464.447C410.148 463.979 410.799 463.654 411.504 463.47C412.214 463.281 412.912 463.186 413.599 463.186C414.037 463.186 414.54 463.239 415.108 463.346C415.682 463.446 416.235 463.657 416.768 463.976C417.307 464.296 417.754 464.778 418.109 465.423C418.464 466.068 418.641 466.933 418.641 468.016V477H416.546V475.153H416.44C416.298 475.449 416.061 475.766 415.729 476.103C415.398 476.441 414.957 476.728 414.407 476.964C413.856 477.201 413.184 477.32 412.391 477.32ZM412.711 475.438C413.54 475.438 414.238 475.275 414.806 474.949C415.38 474.624 415.812 474.203 416.102 473.689C416.398 473.174 416.546 472.632 416.546 472.064V470.146C416.457 470.253 416.262 470.35 415.96 470.439C415.664 470.522 415.321 470.596 414.93 470.661C414.546 470.72 414.17 470.774 413.803 470.821C413.442 470.862 413.149 470.898 412.924 470.928C412.379 470.999 411.871 471.114 411.397 471.274C410.929 471.428 410.551 471.661 410.261 471.975C409.977 472.283 409.835 472.703 409.835 473.236C409.835 473.964 410.104 474.514 410.642 474.887C411.187 475.254 411.876 475.438 412.711 475.438ZM424.561 458.818V477H422.465V458.818H424.561ZM438.057 466.418L436.175 466.95C436.057 466.637 435.882 466.332 435.651 466.036C435.426 465.734 435.119 465.485 434.728 465.29C434.337 465.095 433.837 464.997 433.228 464.997C432.393 464.997 431.698 465.19 431.141 465.574C430.591 465.953 430.316 466.435 430.316 467.021C430.316 467.542 430.505 467.953 430.884 468.255C431.263 468.557 431.855 468.809 432.659 469.01L434.684 469.507C435.903 469.803 436.811 470.256 437.409 470.865C438.007 471.469 438.306 472.247 438.306 473.2C438.306 473.982 438.081 474.68 437.631 475.295C437.187 475.911 436.566 476.396 435.767 476.751C434.968 477.107 434.038 477.284 432.979 477.284C431.588 477.284 430.437 476.982 429.526 476.379C428.614 475.775 428.037 474.893 427.794 473.733L429.783 473.236C429.972 473.97 430.33 474.52 430.857 474.887C431.39 475.254 432.085 475.438 432.944 475.438C433.92 475.438 434.695 475.23 435.27 474.816C435.85 474.396 436.14 473.893 436.14 473.307C436.14 472.833 435.974 472.437 435.642 472.117C435.311 471.792 434.802 471.549 434.115 471.389L431.843 470.857C430.594 470.561 429.676 470.102 429.091 469.48C428.511 468.853 428.221 468.069 428.221 467.128C428.221 466.358 428.437 465.678 428.869 465.086C429.307 464.494 429.901 464.029 430.653 463.692C431.411 463.355 432.269 463.186 433.228 463.186C434.577 463.186 435.636 463.482 436.406 464.074C437.181 464.666 437.732 465.447 438.057 466.418ZM447.177 477.284C445.863 477.284 444.73 476.994 443.777 476.414C442.83 475.828 442.099 475.011 441.584 473.964C441.075 472.91 440.82 471.685 440.82 470.288C440.82 468.892 441.075 467.661 441.584 466.595C442.099 465.524 442.815 464.689 443.732 464.092C444.656 463.488 445.733 463.186 446.964 463.186C447.674 463.186 448.375 463.304 449.068 463.541C449.76 463.778 450.391 464.163 450.959 464.695C451.527 465.222 451.98 465.92 452.317 466.79C452.655 467.661 452.823 468.732 452.823 470.004V470.892H442.312V469.081H450.693C450.693 468.312 450.539 467.625 450.231 467.021C449.929 466.418 449.497 465.941 448.935 465.592C448.378 465.243 447.721 465.068 446.964 465.068C446.129 465.068 445.407 465.275 444.798 465.69C444.194 466.098 443.729 466.631 443.404 467.288C443.078 467.945 442.916 468.649 442.916 469.401V470.608C442.916 471.638 443.093 472.511 443.448 473.227C443.809 473.937 444.309 474.479 444.949 474.852C445.588 475.219 446.331 475.402 447.177 475.402C447.727 475.402 448.225 475.325 448.668 475.171C449.118 475.011 449.506 474.775 449.831 474.461C450.157 474.141 450.408 473.745 450.586 473.271L452.61 473.839C452.397 474.526 452.039 475.13 451.536 475.651C451.033 476.165 450.411 476.568 449.672 476.858C448.932 477.142 448.1 477.284 447.177 477.284ZM458.106 468.797V477H456.01V463.364H458.035V465.494H458.212C458.532 464.802 459.017 464.246 459.668 463.825C460.319 463.399 461.16 463.186 462.189 463.186C463.113 463.186 463.921 463.375 464.613 463.754C465.305 464.127 465.844 464.695 466.229 465.459C466.613 466.216 466.806 467.175 466.806 468.335V477H464.711V468.477C464.711 467.406 464.432 466.571 463.876 465.974C463.32 465.37 462.556 465.068 461.586 465.068C460.917 465.068 460.319 465.213 459.792 465.503C459.272 465.793 458.86 466.216 458.558 466.773C458.256 467.329 458.106 468.004 458.106 468.797ZM470.919 477V458.818H473.014V465.53H473.191C473.345 465.293 473.558 464.991 473.83 464.624C474.109 464.251 474.505 463.92 475.02 463.63C475.541 463.334 476.245 463.186 477.133 463.186C478.281 463.186 479.293 463.473 480.169 464.047C481.045 464.621 481.729 465.435 482.22 466.489C482.711 467.542 482.957 468.785 482.957 470.217C482.957 471.661 482.711 472.913 482.22 473.973C481.729 475.026 481.048 475.843 480.178 476.423C479.308 476.997 478.305 477.284 477.169 477.284C476.293 477.284 475.591 477.139 475.064 476.849C474.538 476.553 474.132 476.219 473.848 475.846C473.564 475.467 473.345 475.153 473.191 474.905H472.943V477H470.919ZM472.978 470.182C472.978 471.212 473.129 472.12 473.431 472.907C473.733 473.689 474.174 474.301 474.754 474.745C475.334 475.183 476.044 475.402 476.884 475.402C477.76 475.402 478.491 475.171 479.077 474.71C479.669 474.242 480.113 473.615 480.409 472.827C480.711 472.034 480.862 471.152 480.862 470.182C480.862 469.223 480.714 468.359 480.418 467.589C480.128 466.814 479.687 466.202 479.095 465.752C478.509 465.296 477.772 465.068 476.884 465.068C476.032 465.068 475.316 465.284 474.736 465.716C474.156 466.142 473.718 466.74 473.422 467.51C473.126 468.273 472.978 469.164 472.978 470.182ZM494.756 471.425V463.364H496.851V477H494.756V474.692H494.613C494.294 475.384 493.797 475.973 493.122 476.458C492.447 476.938 491.595 477.178 490.565 477.178C489.713 477.178 488.955 476.991 488.292 476.618C487.63 476.239 487.109 475.671 486.73 474.914C486.351 474.15 486.162 473.188 486.162 472.028V463.364H488.257V471.886C488.257 472.881 488.535 473.674 489.091 474.266C489.654 474.857 490.37 475.153 491.24 475.153C491.761 475.153 492.29 475.02 492.829 474.754C493.374 474.488 493.829 474.079 494.196 473.529C494.569 472.978 494.756 472.277 494.756 471.425ZM500.688 477V463.364H502.712V465.423H502.854C503.103 464.749 503.553 464.201 504.204 463.781C504.855 463.361 505.589 463.151 506.405 463.151C506.559 463.151 506.752 463.154 506.983 463.159C507.213 463.165 507.388 463.174 507.506 463.186V465.317C507.435 465.299 507.273 465.272 507.018 465.237C506.769 465.195 506.506 465.175 506.228 465.175C505.565 465.175 504.973 465.314 504.452 465.592C503.937 465.864 503.529 466.243 503.227 466.728C502.931 467.208 502.783 467.755 502.783 468.371V477H500.688ZM515.079 482.398C514.067 482.398 513.197 482.268 512.469 482.007C511.741 481.753 511.134 481.415 510.649 480.995C510.17 480.581 509.788 480.137 509.504 479.663L511.173 478.491C511.362 478.74 511.602 479.024 511.892 479.344C512.182 479.669 512.579 479.95 513.082 480.187C513.591 480.43 514.256 480.551 515.079 480.551C516.18 480.551 517.088 480.285 517.805 479.752C518.521 479.219 518.879 478.385 518.879 477.249V474.479H518.701C518.547 474.727 518.328 475.035 518.044 475.402C517.766 475.763 517.364 476.086 516.837 476.37C516.316 476.648 515.612 476.787 514.724 476.787C513.623 476.787 512.635 476.527 511.759 476.006C510.889 475.485 510.199 474.727 509.69 473.733C509.187 472.739 508.936 471.531 508.936 470.111C508.936 468.714 509.181 467.498 509.672 466.462C510.164 465.42 510.847 464.615 511.723 464.047C512.599 463.473 513.611 463.186 514.759 463.186C515.647 463.186 516.352 463.334 516.872 463.63C517.399 463.92 517.802 464.251 518.08 464.624C518.364 464.991 518.583 465.293 518.737 465.53H518.95V463.364H520.974V477.391C520.974 478.562 520.708 479.515 520.175 480.249C519.648 480.989 518.938 481.531 518.044 481.874C517.157 482.223 516.168 482.398 515.079 482.398ZM515.008 474.905C515.849 474.905 516.559 474.712 517.139 474.328C517.719 473.943 518.16 473.39 518.462 472.668C518.763 471.946 518.914 471.081 518.914 470.075C518.914 469.093 518.766 468.226 518.47 467.474C518.175 466.722 517.737 466.134 517.157 465.707C516.576 465.281 515.86 465.068 515.008 465.068C514.12 465.068 513.38 465.293 512.789 465.743C512.203 466.193 511.762 466.796 511.466 467.554C511.176 468.312 511.031 469.152 511.031 470.075C511.031 471.022 511.179 471.86 511.475 472.588C511.777 473.31 512.22 473.878 512.806 474.292C513.398 474.701 514.132 474.905 515.008 474.905Z" fill="black"/>
<path d="M241.947 265H239.639L246.315 246.818H248.588L255.264 265H252.956L247.523 249.695H247.381L241.947 265ZM242.8 257.898H252.104V259.851H242.8V257.898ZM267.471 254.418L265.589 254.95C265.471 254.637 265.296 254.332 265.065 254.036C264.84 253.734 264.533 253.485 264.142 253.29C263.751 253.095 263.251 252.997 262.642 252.997C261.807 252.997 261.112 253.19 260.555 253.574C260.005 253.953 259.73 254.435 259.73 255.021C259.73 255.542 259.919 255.953 260.298 256.255C260.677 256.557 261.269 256.809 262.074 257.01L264.098 257.507C265.317 257.803 266.225 258.256 266.823 258.865C267.421 259.469 267.72 260.247 267.72 261.2C267.72 261.982 267.495 262.68 267.045 263.295C266.601 263.911 265.98 264.396 265.181 264.751C264.382 265.107 263.453 265.284 262.393 265.284C261.002 265.284 259.851 264.982 258.94 264.379C258.028 263.775 257.451 262.893 257.208 261.733L259.197 261.236C259.386 261.97 259.745 262.52 260.271 262.887C260.804 263.254 261.499 263.438 262.358 263.438C263.334 263.438 264.109 263.23 264.684 262.816C265.264 262.396 265.554 261.893 265.554 261.307C265.554 260.833 265.388 260.437 265.056 260.117C264.725 259.792 264.216 259.549 263.529 259.389L261.257 258.857C260.008 258.561 259.091 258.102 258.505 257.48C257.925 256.853 257.635 256.069 257.635 255.128C257.635 254.358 257.851 253.678 258.283 253.086C258.721 252.494 259.315 252.029 260.067 251.692C260.825 251.355 261.683 251.186 262.642 251.186C263.991 251.186 265.051 251.482 265.82 252.074C266.595 252.666 267.146 253.447 267.471 254.418ZM270.874 270.114V251.364H272.898V253.53H273.146C273.3 253.293 273.513 252.991 273.786 252.624C274.064 252.251 274.46 251.92 274.975 251.63C275.496 251.334 276.2 251.186 277.088 251.186C278.236 251.186 279.248 251.473 280.124 252.047C281 252.621 281.684 253.435 282.175 254.489C282.666 255.542 282.912 256.785 282.912 258.217C282.912 259.661 282.666 260.913 282.175 261.973C281.684 263.026 281.003 263.843 280.133 264.423C279.263 264.997 278.26 265.284 277.124 265.284C276.248 265.284 275.546 265.139 275.02 264.849C274.493 264.553 274.087 264.219 273.803 263.846C273.519 263.467 273.3 263.153 273.146 262.905H272.969V270.114H270.874ZM272.933 258.182C272.933 259.212 273.084 260.12 273.386 260.907C273.688 261.689 274.129 262.301 274.709 262.745C275.289 263.183 275.999 263.402 276.84 263.402C277.716 263.402 278.446 263.171 279.032 262.71C279.624 262.242 280.068 261.615 280.364 260.827C280.666 260.034 280.817 259.152 280.817 258.182C280.817 257.223 280.669 256.359 280.373 255.589C280.083 254.814 279.642 254.202 279.05 253.752C278.464 253.296 277.727 253.068 276.84 253.068C275.987 253.068 275.271 253.284 274.691 253.716C274.111 254.142 273.673 254.74 273.377 255.51C273.081 256.273 272.933 257.164 272.933 258.182ZM291.825 265.284C290.511 265.284 289.378 264.994 288.425 264.414C287.478 263.828 286.747 263.011 286.232 261.964C285.723 260.91 285.469 259.685 285.469 258.288C285.469 256.892 285.723 255.661 286.232 254.595C286.747 253.524 287.463 252.689 288.381 252.092C289.304 251.488 290.381 251.186 291.612 251.186C292.323 251.186 293.024 251.304 293.716 251.541C294.409 251.778 295.039 252.163 295.607 252.695C296.176 253.222 296.628 253.92 296.966 254.79C297.303 255.661 297.472 256.732 297.472 258.004V258.892H286.96V257.081H295.341C295.341 256.312 295.187 255.625 294.879 255.021C294.578 254.418 294.145 253.941 293.583 253.592C293.027 253.243 292.37 253.068 291.612 253.068C290.778 253.068 290.056 253.275 289.446 253.69C288.842 254.098 288.378 254.631 288.052 255.288C287.727 255.945 287.564 256.649 287.564 257.401V258.608C287.564 259.638 287.742 260.511 288.097 261.227C288.458 261.937 288.958 262.479 289.597 262.852C290.236 263.219 290.979 263.402 291.825 263.402C292.376 263.402 292.873 263.325 293.317 263.171C293.767 263.011 294.154 262.775 294.48 262.461C294.805 262.141 295.057 261.745 295.234 261.271L297.259 261.839C297.046 262.526 296.687 263.13 296.184 263.651C295.681 264.165 295.06 264.568 294.32 264.858C293.58 265.142 292.749 265.284 291.825 265.284ZM302.754 256.797V265H300.659V251.364H302.683V253.494H302.861C303.18 252.802 303.665 252.246 304.316 251.825C304.968 251.399 305.808 251.186 306.838 251.186C307.761 251.186 308.569 251.375 309.261 251.754C309.954 252.127 310.493 252.695 310.877 253.459C311.262 254.216 311.454 255.175 311.454 256.335V265H309.359V256.477C309.359 255.406 309.081 254.571 308.525 253.974C307.968 253.37 307.205 253.068 306.234 253.068C305.565 253.068 304.968 253.213 304.441 253.503C303.92 253.793 303.509 254.216 303.207 254.773C302.905 255.329 302.754 256.004 302.754 256.797Z" fill="black"/>
<path d="M118.631 313.5C118.435 312.902 118.178 312.367 117.858 311.893C117.545 311.414 117.169 311.005 116.731 310.668C116.299 310.331 115.808 310.073 115.257 309.896C114.707 309.718 114.103 309.629 113.446 309.629C112.369 309.629 111.389 309.907 110.507 310.464C109.626 311.02 108.924 311.84 108.403 312.923C107.883 314.006 107.622 315.335 107.622 316.909C107.622 318.483 107.886 319.812 108.412 320.895C108.939 321.978 109.652 322.798 110.552 323.354C111.451 323.911 112.464 324.189 113.588 324.189C114.63 324.189 115.547 323.967 116.34 323.523C117.139 323.073 117.761 322.44 118.205 321.623C118.654 320.801 118.879 319.833 118.879 318.72L119.554 318.862H114.085V316.909H121.01V318.862C121.01 320.36 120.69 321.662 120.051 322.768C119.418 323.875 118.542 324.733 117.423 325.343C116.311 325.947 115.032 326.249 113.588 326.249C111.978 326.249 110.564 325.87 109.344 325.112C108.131 324.355 107.184 323.277 106.504 321.881C105.829 320.484 105.491 318.827 105.491 316.909C105.491 315.471 105.684 314.178 106.069 313.029C106.459 311.875 107.01 310.893 107.72 310.082C108.43 309.271 109.27 308.65 110.241 308.218C111.212 307.786 112.28 307.57 113.446 307.57C114.405 307.57 115.299 307.715 116.127 308.005C116.962 308.289 117.704 308.694 118.355 309.221C119.012 309.742 119.56 310.366 119.998 311.094C120.436 311.816 120.738 312.618 120.903 313.5H118.631ZM124.497 326V312.364H126.521V314.423H126.663C126.911 313.749 127.361 313.201 128.012 312.781C128.663 312.361 129.397 312.151 130.214 312.151C130.368 312.151 130.56 312.154 130.791 312.159C131.022 312.165 131.197 312.174 131.315 312.186V314.317C131.244 314.299 131.081 314.272 130.827 314.237C130.578 314.195 130.315 314.175 130.036 314.175C129.374 314.175 128.782 314.314 128.261 314.592C127.746 314.864 127.338 315.243 127.036 315.728C126.74 316.208 126.592 316.755 126.592 317.371V326H124.497ZM137.811 326.32C136.947 326.32 136.163 326.157 135.459 325.831C134.754 325.5 134.195 325.023 133.781 324.402C133.366 323.775 133.159 323.017 133.159 322.129C133.159 321.348 133.313 320.715 133.621 320.229C133.929 319.738 134.34 319.353 134.855 319.075C135.37 318.797 135.938 318.59 136.559 318.454C137.187 318.312 137.817 318.199 138.45 318.116C139.279 318.01 139.951 317.93 140.466 317.877C140.987 317.818 141.365 317.72 141.602 317.584C141.845 317.448 141.966 317.211 141.966 316.874V316.803C141.966 315.927 141.726 315.246 141.247 314.761C140.773 314.275 140.054 314.033 139.09 314.033C138.089 314.033 137.305 314.252 136.737 314.69C136.169 315.128 135.769 315.595 135.539 316.092L133.55 315.382C133.905 314.554 134.378 313.908 134.97 313.447C135.568 312.979 136.219 312.654 136.923 312.47C137.634 312.281 138.332 312.186 139.019 312.186C139.457 312.186 139.96 312.239 140.528 312.346C141.102 312.446 141.655 312.657 142.188 312.976C142.727 313.296 143.173 313.778 143.529 314.423C143.884 315.068 144.061 315.933 144.061 317.016V326H141.966V324.153H141.86C141.718 324.449 141.481 324.766 141.149 325.103C140.818 325.441 140.377 325.728 139.827 325.964C139.276 326.201 138.604 326.32 137.811 326.32ZM138.131 324.438C138.959 324.438 139.658 324.275 140.226 323.949C140.8 323.624 141.232 323.203 141.522 322.689C141.818 322.174 141.966 321.632 141.966 321.064V319.146C141.877 319.253 141.682 319.35 141.38 319.439C141.084 319.522 140.741 319.596 140.35 319.661C139.966 319.72 139.59 319.774 139.223 319.821C138.862 319.862 138.569 319.898 138.344 319.928C137.799 319.999 137.29 320.114 136.817 320.274C136.349 320.428 135.971 320.661 135.681 320.975C135.396 321.283 135.254 321.703 135.254 322.236C135.254 322.964 135.524 323.514 136.062 323.887C136.607 324.254 137.296 324.438 138.131 324.438ZM149.981 317.797V326H147.885V312.364H149.91V314.494H150.087C150.407 313.802 150.892 313.246 151.543 312.825C152.194 312.399 153.035 312.186 154.064 312.186C154.988 312.186 155.796 312.375 156.488 312.754C157.18 313.127 157.719 313.695 158.104 314.459C158.488 315.216 158.681 316.175 158.681 317.335V326H156.586V317.477C156.586 316.406 156.307 315.571 155.751 314.974C155.195 314.37 154.431 314.068 153.461 314.068C152.792 314.068 152.194 314.213 151.667 314.503C151.147 314.793 150.735 315.216 150.433 315.773C150.131 316.329 149.981 317.004 149.981 317.797ZM167.659 326.284C166.522 326.284 165.519 325.997 164.649 325.423C163.779 324.843 163.098 324.026 162.607 322.973C162.116 321.913 161.87 320.661 161.87 319.217C161.87 317.785 162.116 316.542 162.607 315.489C163.098 314.435 163.782 313.621 164.658 313.047C165.534 312.473 166.546 312.186 167.694 312.186C168.582 312.186 169.283 312.334 169.798 312.63C170.319 312.92 170.715 313.251 170.988 313.624C171.266 313.991 171.482 314.293 171.636 314.53H171.813V307.818H173.909V326H171.884V323.905H171.636C171.482 324.153 171.263 324.467 170.979 324.846C170.695 325.219 170.289 325.553 169.763 325.849C169.236 326.139 168.535 326.284 167.659 326.284ZM167.943 324.402C168.783 324.402 169.493 324.183 170.073 323.745C170.653 323.301 171.094 322.689 171.396 321.907C171.698 321.12 171.849 320.212 171.849 319.182C171.849 318.164 171.701 317.273 171.405 316.51C171.109 315.74 170.671 315.142 170.091 314.716C169.511 314.284 168.795 314.068 167.943 314.068C167.055 314.068 166.315 314.296 165.723 314.752C165.137 315.202 164.696 315.814 164.4 316.589C164.11 317.359 163.965 318.223 163.965 319.182C163.965 320.152 164.113 321.034 164.409 321.827C164.711 322.615 165.155 323.242 165.741 323.71C166.333 324.171 167.067 324.402 167.943 324.402ZM192.312 307.818H194.514V320.815C194.514 321.975 194.301 322.961 193.875 323.772C193.449 324.583 192.848 325.198 192.073 325.618C191.297 326.038 190.383 326.249 189.329 326.249C188.335 326.249 187.45 326.068 186.675 325.707C185.9 325.34 185.29 324.819 184.846 324.145C184.402 323.47 184.18 322.668 184.18 321.739H186.346C186.346 322.254 186.474 322.703 186.728 323.088C186.989 323.467 187.344 323.763 187.794 323.976C188.243 324.189 188.755 324.295 189.329 324.295C189.963 324.295 190.501 324.162 190.945 323.896C191.389 323.63 191.726 323.239 191.957 322.724C192.194 322.203 192.312 321.567 192.312 320.815V307.818ZM207.236 320.425V312.364H209.331V326H207.236V323.692H207.094C206.774 324.384 206.277 324.973 205.602 325.458C204.928 325.938 204.075 326.178 203.046 326.178C202.193 326.178 201.436 325.991 200.773 325.618C200.11 325.239 199.589 324.671 199.21 323.914C198.832 323.15 198.642 322.188 198.642 321.028V312.364H200.737V320.886C200.737 321.881 201.016 322.674 201.572 323.266C202.134 323.857 202.85 324.153 203.72 324.153C204.241 324.153 204.771 324.02 205.309 323.754C205.854 323.488 206.31 323.079 206.677 322.529C207.05 321.978 207.236 321.277 207.236 320.425ZM215.264 317.797V326H213.169V312.364H215.193V314.494H215.37C215.69 313.802 216.175 313.246 216.826 312.825C217.477 312.399 218.318 312.186 219.348 312.186C220.271 312.186 221.079 312.375 221.771 312.754C222.464 313.127 223.002 313.695 223.387 314.459C223.772 315.216 223.964 316.175 223.964 317.335V326H221.869V317.477C221.869 316.406 221.591 315.571 221.034 314.974C220.478 314.37 219.715 314.068 218.744 314.068C218.075 314.068 217.477 314.213 216.951 314.503C216.43 314.793 216.018 315.216 215.717 315.773C215.415 316.329 215.264 317.004 215.264 317.797ZM233.332 326.284C232.054 326.284 230.953 325.982 230.03 325.379C229.107 324.775 228.396 323.943 227.899 322.884C227.402 321.824 227.153 320.614 227.153 319.253C227.153 317.868 227.408 316.646 227.917 315.586C228.432 314.521 229.148 313.689 230.065 313.092C230.989 312.488 232.066 312.186 233.297 312.186C234.256 312.186 235.12 312.364 235.889 312.719C236.659 313.074 237.289 313.571 237.78 314.21C238.271 314.849 238.576 315.595 238.695 316.447H236.599C236.44 315.826 236.085 315.276 235.534 314.796C234.99 314.311 234.256 314.068 233.332 314.068C232.516 314.068 231.799 314.281 231.184 314.707C230.574 315.128 230.098 315.722 229.755 316.492C229.417 317.255 229.249 318.152 229.249 319.182C229.249 320.235 229.414 321.153 229.746 321.934C230.083 322.715 230.557 323.322 231.166 323.754C231.782 324.186 232.504 324.402 233.332 324.402C233.877 324.402 234.371 324.307 234.815 324.118C235.259 323.929 235.635 323.656 235.942 323.301C236.25 322.946 236.469 322.52 236.599 322.023H238.695C238.576 322.828 238.283 323.553 237.816 324.198C237.354 324.837 236.741 325.346 235.978 325.725C235.22 326.098 234.339 326.284 233.332 326.284ZM247.688 312.364V314.139H240.621V312.364H247.688ZM242.681 309.097H244.776V322.094C244.776 322.686 244.862 323.129 245.033 323.425C245.211 323.715 245.436 323.911 245.708 324.011C245.986 324.106 246.279 324.153 246.587 324.153C246.818 324.153 247.007 324.142 247.155 324.118C247.303 324.088 247.422 324.065 247.51 324.047L247.936 325.929C247.794 325.982 247.596 326.036 247.342 326.089C247.087 326.148 246.765 326.178 246.374 326.178C245.782 326.178 245.202 326.05 244.634 325.796C244.072 325.541 243.604 325.154 243.231 324.633C242.864 324.112 242.681 323.455 242.681 322.662V309.097ZM250.839 326V312.364H252.935V326H250.839ZM251.905 310.091C251.496 310.091 251.144 309.952 250.848 309.674C250.558 309.395 250.413 309.061 250.413 308.67C250.413 308.28 250.558 307.945 250.848 307.667C251.144 307.389 251.496 307.25 251.905 307.25C252.313 307.25 252.662 307.389 252.952 307.667C253.248 307.945 253.396 308.28 253.396 308.67C253.396 309.061 253.248 309.395 252.952 309.674C252.662 309.952 252.313 310.091 251.905 310.091ZM262.312 326.284C261.081 326.284 260.001 325.991 259.071 325.405C258.148 324.819 257.426 324 256.905 322.946C256.39 321.893 256.133 320.661 256.133 319.253C256.133 317.832 256.39 316.592 256.905 315.533C257.426 314.474 258.148 313.651 259.071 313.065C260.001 312.479 261.081 312.186 262.312 312.186C263.543 312.186 264.62 312.479 265.543 313.065C266.473 313.651 267.195 314.474 267.71 315.533C268.23 316.592 268.491 317.832 268.491 319.253C268.491 320.661 268.23 321.893 267.71 322.946C267.195 324 266.473 324.819 265.543 325.405C264.62 325.991 263.543 326.284 262.312 326.284ZM262.312 324.402C263.247 324.402 264.016 324.162 264.62 323.683C265.224 323.203 265.671 322.573 265.961 321.792C266.251 321.011 266.396 320.164 266.396 319.253C266.396 318.341 266.251 317.492 265.961 316.705C265.671 315.918 265.224 315.281 264.62 314.796C264.016 314.311 263.247 314.068 262.312 314.068C261.377 314.068 260.607 314.311 260.004 314.796C259.4 315.281 258.953 315.918 258.663 316.705C258.373 317.492 258.228 318.341 258.228 319.253C258.228 320.164 258.373 321.011 258.663 321.792C258.953 322.573 259.4 323.203 260.004 323.683C260.607 324.162 261.377 324.402 262.312 324.402ZM273.784 317.797V326H271.689V312.364H273.713V314.494H273.891C274.21 313.802 274.696 313.246 275.347 312.825C275.998 312.399 276.838 312.186 277.868 312.186C278.791 312.186 279.599 312.375 280.292 312.754C280.984 313.127 281.523 313.695 281.907 314.459C282.292 315.216 282.485 316.175 282.485 317.335V326H280.389V317.477C280.389 316.406 280.111 315.571 279.555 314.974C278.999 314.37 278.235 314.068 277.264 314.068C276.596 314.068 275.998 314.213 275.471 314.503C274.95 314.793 274.539 315.216 274.237 315.773C273.935 316.329 273.784 317.004 273.784 317.797Z" fill="black"/>
<path d="M363.202 113V94.8182H374.104V96.7713H365.403V102.915H373.287V104.868H365.403V113H363.202ZM382.129 113.284C380.898 113.284 379.818 112.991 378.889 112.405C377.966 111.819 377.243 111 376.723 109.946C376.208 108.893 375.95 107.661 375.95 106.253C375.95 104.832 376.208 103.592 376.723 102.533C377.243 101.474 377.966 100.651 378.889 100.065C379.818 99.479 380.898 99.1861 382.129 99.1861C383.36 99.1861 384.438 99.479 385.361 100.065C386.29 100.651 387.012 101.474 387.527 102.533C388.048 103.592 388.308 104.832 388.308 106.253C388.308 107.661 388.048 108.893 387.527 109.946C387.012 111 386.29 111.819 385.361 112.405C384.438 112.991 383.36 113.284 382.129 113.284ZM382.129 111.402C383.064 111.402 383.834 111.162 384.438 110.683C385.041 110.203 385.488 109.573 385.778 108.792C386.068 108.011 386.213 107.164 386.213 106.253C386.213 105.341 386.068 104.492 385.778 103.705C385.488 102.918 385.041 102.281 384.438 101.796C383.834 101.311 383.064 101.068 382.129 101.068C381.194 101.068 380.425 101.311 379.821 101.796C379.217 102.281 378.77 102.918 378.48 103.705C378.19 104.492 378.045 105.341 378.045 106.253C378.045 107.164 378.19 108.011 378.48 108.792C378.77 109.573 379.217 110.203 379.821 110.683C380.425 111.162 381.194 111.402 382.129 111.402ZM391.506 113V99.3636H393.531V101.423H393.673C393.921 100.749 394.371 100.201 395.022 99.7809C395.673 99.3607 396.407 99.1506 397.224 99.1506C397.378 99.1506 397.57 99.1535 397.801 99.1594C398.032 99.1654 398.206 99.1742 398.325 99.1861V101.317C398.254 101.299 398.091 101.272 397.836 101.237C397.588 101.195 397.324 101.175 397.046 101.175C396.383 101.175 395.792 101.314 395.271 101.592C394.756 101.864 394.347 102.243 394.046 102.728C393.75 103.208 393.602 103.755 393.602 104.371V113H391.506ZM407.593 99.3636V101.139H400.526V99.3636H407.593ZM402.586 96.0966H404.681V109.094C404.681 109.686 404.767 110.129 404.939 110.425C405.116 110.715 405.341 110.911 405.613 111.011C405.892 111.106 406.185 111.153 406.492 111.153C406.723 111.153 406.912 111.142 407.06 111.118C407.208 111.088 407.327 111.065 407.416 111.047L407.842 112.929C407.7 112.982 407.501 113.036 407.247 113.089C406.992 113.148 406.67 113.178 406.279 113.178C405.687 113.178 405.107 113.05 404.539 112.796C403.977 112.541 403.509 112.154 403.136 111.633C402.77 111.112 402.586 110.455 402.586 109.662V96.0966ZM432.691 100.5H430.489C430.359 99.8667 430.131 99.3104 429.805 98.831C429.486 98.3516 429.095 97.9491 428.634 97.6236C428.178 97.2921 427.672 97.0436 427.116 96.8778C426.559 96.7121 425.979 96.6293 425.375 96.6293C424.275 96.6293 423.277 96.9074 422.384 97.4638C421.496 98.0201 420.789 98.8398 420.262 99.9229C419.741 101.006 419.481 102.335 419.481 103.909C419.481 105.483 419.741 106.812 420.262 107.895C420.789 108.978 421.496 109.798 422.384 110.354C423.277 110.911 424.275 111.189 425.375 111.189C425.979 111.189 426.559 111.106 427.116 110.94C427.672 110.775 428.178 110.529 428.634 110.203C429.095 109.872 429.486 109.467 429.805 108.987C430.131 108.502 430.359 107.946 430.489 107.318H432.691C432.525 108.247 432.223 109.079 431.785 109.813C431.347 110.547 430.803 111.171 430.152 111.686C429.501 112.195 428.77 112.583 427.959 112.849C427.154 113.115 426.293 113.249 425.375 113.249C423.825 113.249 422.446 112.87 421.238 112.112C420.031 111.355 419.081 110.277 418.389 108.881C417.696 107.484 417.35 105.827 417.35 103.909C417.35 101.991 417.696 100.334 418.389 98.9375C419.081 97.5407 420.031 96.4635 421.238 95.706C422.446 94.9484 423.825 94.5696 425.375 94.5696C426.293 94.5696 427.154 94.7028 427.959 94.9691C428.77 95.2354 429.501 95.6261 430.152 96.141C430.803 96.65 431.347 97.2714 431.785 98.0053C432.223 98.7333 432.525 99.5649 432.691 100.5ZM441.504 113.284C440.273 113.284 439.193 112.991 438.264 112.405C437.341 111.819 436.618 111 436.098 109.946C435.583 108.893 435.325 107.661 435.325 106.253C435.325 104.832 435.583 103.592 436.098 102.533C436.618 101.474 437.341 100.651 438.264 100.065C439.193 99.479 440.273 99.1861 441.504 99.1861C442.735 99.1861 443.813 99.479 444.736 100.065C445.665 100.651 446.387 101.474 446.902 102.533C447.423 103.592 447.683 104.832 447.683 106.253C447.683 107.661 447.423 108.893 446.902 109.946C446.387 111 445.665 111.819 444.736 112.405C443.813 112.991 442.735 113.284 441.504 113.284ZM441.504 111.402C442.439 111.402 443.209 111.162 443.812 110.683C444.416 110.203 444.863 109.573 445.153 108.792C445.443 108.011 445.588 107.164 445.588 106.253C445.588 105.341 445.443 104.492 445.153 103.705C444.863 102.918 444.416 102.281 443.812 101.796C443.209 101.311 442.439 101.068 441.504 101.068C440.569 101.068 439.8 101.311 439.196 101.796C438.592 102.281 438.145 102.918 437.855 103.705C437.565 104.492 437.42 105.341 437.42 106.253C437.42 107.164 437.565 108.011 437.855 108.792C438.145 109.573 438.592 110.203 439.196 110.683C439.8 111.162 440.569 111.402 441.504 111.402ZM452.977 94.8182V113H450.881V94.8182H452.977ZM458.909 94.8182V113H456.814V94.8182H458.909ZM462.747 113V99.3636H464.842V113H462.747ZM463.812 97.0909C463.404 97.0909 463.052 96.9518 462.756 96.6737C462.466 96.3955 462.321 96.0611 462.321 95.6705C462.321 95.2798 462.466 94.9454 462.756 94.6673C463.052 94.3891 463.404 94.25 463.812 94.25C464.22 94.25 464.57 94.3891 464.86 94.6673C465.156 94.9454 465.304 95.2798 465.304 95.6705C465.304 96.0611 465.156 96.3955 464.86 96.6737C464.57 96.9518 464.22 97.0909 463.812 97.0909ZM470.775 104.797V113H468.679V99.3636H470.703V101.494H470.881C471.201 100.802 471.686 100.246 472.337 99.8253C472.988 99.3991 473.828 99.1861 474.858 99.1861C475.782 99.1861 476.589 99.3755 477.282 99.7543C477.974 100.127 478.513 100.695 478.898 101.459C479.282 102.216 479.475 103.175 479.475 104.335V113H477.38V104.477C477.38 103.406 477.101 102.571 476.545 101.974C475.989 101.37 475.225 101.068 474.255 101.068C473.586 101.068 472.988 101.213 472.461 101.503C471.94 101.793 471.529 102.216 471.227 102.773C470.925 103.329 470.775 104.004 470.775 104.797ZM492.962 102.418L491.08 102.95C490.962 102.637 490.787 102.332 490.557 102.036C490.332 101.734 490.024 101.485 489.633 101.29C489.243 101.095 488.743 100.997 488.133 100.997C487.298 100.997 486.603 101.19 486.047 101.574C485.496 101.953 485.221 102.435 485.221 103.021C485.221 103.542 485.41 103.953 485.789 104.255C486.168 104.557 486.76 104.809 487.565 105.01L489.589 105.507C490.808 105.803 491.717 106.256 492.314 106.865C492.912 107.469 493.211 108.247 493.211 109.2C493.211 109.982 492.986 110.68 492.536 111.295C492.092 111.911 491.471 112.396 490.672 112.751C489.873 113.107 488.944 113.284 487.884 113.284C486.493 113.284 485.342 112.982 484.431 112.379C483.519 111.775 482.942 110.893 482.7 109.733L484.688 109.236C484.878 109.97 485.236 110.52 485.763 110.887C486.295 111.254 486.991 111.438 487.849 111.438C488.825 111.438 489.601 111.23 490.175 110.816C490.755 110.396 491.045 109.893 491.045 109.307C491.045 108.833 490.879 108.437 490.548 108.117C490.216 107.792 489.707 107.549 489.021 107.389L486.748 106.857C485.499 106.561 484.582 106.102 483.996 105.48C483.416 104.853 483.126 104.069 483.126 103.128C483.126 102.358 483.342 101.678 483.774 101.086C484.212 100.494 484.807 100.029 485.558 99.6921C486.316 99.3548 487.174 99.1861 488.133 99.1861C489.482 99.1861 490.542 99.482 491.311 100.074C492.086 100.666 492.637 101.447 492.962 102.418Z" fill="black"/>
<path d="M363.202 113V94.8182H374.104V96.7713H365.403V102.915H373.287V104.868H365.403V113H363.202ZM382.129 113.284C380.898 113.284 379.818 112.991 378.889 112.405C377.966 111.819 377.243 111 376.723 109.946C376.208 108.893 375.95 107.661 375.95 106.253C375.95 104.832 376.208 103.592 376.723 102.533C377.243 101.474 377.966 100.651 378.889 100.065C379.818 99.479 380.898 99.1861 382.129 99.1861C383.36 99.1861 384.438 99.479 385.361 100.065C386.29 100.651 387.012 101.474 387.527 102.533C388.048 103.592 388.308 104.832 388.308 106.253C388.308 107.661 388.048 108.893 387.527 109.946C387.012 111 386.29 111.819 385.361 112.405C384.438 112.991 383.36 113.284 382.129 113.284ZM382.129 111.402C383.064 111.402 383.834 111.162 384.438 110.683C385.041 110.203 385.488 109.573 385.778 108.792C386.068 108.011 386.213 107.164 386.213 106.253C386.213 105.341 386.068 104.492 385.778 103.705C385.488 102.918 385.041 102.281 384.438 101.796C383.834 101.311 383.064 101.068 382.129 101.068C381.194 101.068 380.425 101.311 379.821 101.796C379.217 102.281 378.77 102.918 378.48 103.705C378.19 104.492 378.045 105.341 378.045 106.253C378.045 107.164 378.19 108.011 378.48 108.792C378.77 109.573 379.217 110.203 379.821 110.683C380.425 111.162 381.194 111.402 382.129 111.402ZM391.506 113V99.3636H393.531V101.423H393.673C393.921 100.749 394.371 100.201 395.022 99.7809C395.673 99.3607 396.407 99.1506 397.224 99.1506C397.378 99.1506 397.57 99.1535 397.801 99.1594C398.032 99.1654 398.206 99.1742 398.325 99.1861V101.317C398.254 101.299 398.091 101.272 397.836 101.237C397.588 101.195 397.324 101.175 397.046 101.175C396.383 101.175 395.792 101.314 395.271 101.592C394.756 101.864 394.347 102.243 394.046 102.728C393.75 103.208 393.602 103.755 393.602 104.371V113H391.506ZM407.593 99.3636V101.139H400.526V99.3636H407.593ZM402.586 96.0966H404.681V109.094C404.681 109.686 404.767 110.129 404.939 110.425C405.116 110.715 405.341 110.911 405.613 111.011C405.892 111.106 406.185 111.153 406.492 111.153C406.723 111.153 406.912 111.142 407.06 111.118C407.208 111.088 407.327 111.065 407.416 111.047L407.842 112.929C407.7 112.982 407.501 113.036 407.247 113.089C406.992 113.148 406.67 113.178 406.279 113.178C405.687 113.178 405.107 113.05 404.539 112.796C403.977 112.541 403.509 112.154 403.136 111.633C402.77 111.112 402.586 110.455 402.586 109.662V96.0966ZM432.691 100.5H430.489C430.359 99.8667 430.131 99.3104 429.805 98.831C429.486 98.3516 429.095 97.9491 428.634 97.6236C428.178 97.2921 427.672 97.0436 427.116 96.8778C426.559 96.7121 425.979 96.6293 425.375 96.6293C424.275 96.6293 423.277 96.9074 422.384 97.4638C421.496 98.0201 420.789 98.8398 420.262 99.9229C419.741 101.006 419.481 102.335 419.481 103.909C419.481 105.483 419.741 106.812 420.262 107.895C420.789 108.978 421.496 109.798 422.384 110.354C423.277 110.911 424.275 111.189 425.375 111.189C425.979 111.189 426.559 111.106 427.116 110.94C427.672 110.775 428.178 110.529 428.634 110.203C429.095 109.872 429.486 109.467 429.805 108.987C430.131 108.502 430.359 107.946 430.489 107.318H432.691C432.525 108.247 432.223 109.079 431.785 109.813C431.347 110.547 430.803 111.171 430.152 111.686C429.501 112.195 428.77 112.583 427.959 112.849C427.154 113.115 426.293 113.249 425.375 113.249C423.825 113.249 422.446 112.87 421.238 112.112C420.031 111.355 419.081 110.277 418.389 108.881C417.696 107.484 417.35 105.827 417.35 103.909C417.35 101.991 417.696 100.334 418.389 98.9375C419.081 97.5407 420.031 96.4635 421.238 95.706C422.446 94.9484 423.825 94.5696 425.375 94.5696C426.293 94.5696 427.154 94.7028 427.959 94.9691C428.77 95.2354 429.501 95.6261 430.152 96.141C430.803 96.65 431.347 97.2714 431.785 98.0053C432.223 98.7333 432.525 99.5649 432.691 100.5ZM441.504 113.284C440.273 113.284 439.193 112.991 438.264 112.405C437.341 111.819 436.618 111 436.098 109.946C435.583 108.893 435.325 107.661 435.325 106.253C435.325 104.832 435.583 103.592 436.098 102.533C436.618 101.474 437.341 100.651 438.264 100.065C439.193 99.479 440.273 99.1861 441.504 99.1861C442.735 99.1861 443.813 99.479 444.736 100.065C445.665 100.651 446.387 101.474 446.902 102.533C447.423 103.592 447.683 104.832 447.683 106.253C447.683 107.661 447.423 108.893 446.902 109.946C446.387 111 445.665 111.819 444.736 112.405C443.813 112.991 442.735 113.284 441.504 113.284ZM441.504 111.402C442.439 111.402 443.209 111.162 443.812 110.683C444.416 110.203 444.863 109.573 445.153 108.792C445.443 108.011 445.588 107.164 445.588 106.253C445.588 105.341 445.443 104.492 445.153 103.705C444.863 102.918 444.416 102.281 443.812 101.796C443.209 101.311 442.439 101.068 441.504 101.068C440.569 101.068 439.8 101.311 439.196 101.796C438.592 102.281 438.145 102.918 437.855 103.705C437.565 104.492 437.42 105.341 437.42 106.253C437.42 107.164 437.565 108.011 437.855 108.792C438.145 109.573 438.592 110.203 439.196 110.683C439.8 111.162 440.569 111.402 441.504 111.402ZM452.977 94.8182V113H450.881V94.8182H452.977ZM458.909 94.8182V113H456.814V94.8182H458.909ZM462.747 113V99.3636H464.842V113H462.747ZM463.812 97.0909C463.404 97.0909 463.052 96.9518 462.756 96.6737C462.466 96.3955 462.321 96.0611 462.321 95.6705C462.321 95.2798 462.466 94.9454 462.756 94.6673C463.052 94.3891 463.404 94.25 463.812 94.25C464.22 94.25 464.57 94.3891 464.86 94.6673C465.156 94.9454 465.304 95.2798 465.304 95.6705C465.304 96.0611 465.156 96.3955 464.86 96.6737C464.57 96.9518 464.22 97.0909 463.812 97.0909ZM470.775 104.797V113H468.679V99.3636H470.703V101.494H470.881C471.201 100.802 471.686 100.246 472.337 99.8253C472.988 99.3991 473.828 99.1861 474.858 99.1861C475.782 99.1861 476.589 99.3755 477.282 99.7543C477.974 100.127 478.513 100.695 478.898 101.459C479.282 102.216 479.475 103.175 479.475 104.335V113H477.38V104.477C477.38 103.406 477.101 102.571 476.545 101.974C475.989 101.37 475.225 101.068 474.255 101.068C473.586 101.068 472.988 101.213 472.461 101.503C471.94 101.793 471.529 102.216 471.227 102.773C470.925 103.329 470.775 104.004 470.775 104.797ZM492.962 102.418L491.08 102.95C490.962 102.637 490.787 102.332 490.557 102.036C490.332 101.734 490.024 101.485 489.633 101.29C489.243 101.095 488.743 100.997 488.133 100.997C487.298 100.997 486.603 101.19 486.047 101.574C485.496 101.953 485.221 102.435 485.221 103.021C485.221 103.542 485.41 103.953 485.789 104.255C486.168 104.557 486.76 104.809 487.565 105.01L489.589 105.507C490.808 105.803 491.717 106.256 492.314 106.865C492.912 107.469 493.211 108.247 493.211 109.2C493.211 109.982 492.986 110.68 492.536 111.295C492.092 111.911 491.471 112.396 490.672 112.751C489.873 113.107 488.944 113.284 487.884 113.284C486.493 113.284 485.342 112.982 484.431 112.379C483.519 111.775 482.942 110.893 482.7 109.733L484.688 109.236C484.878 109.97 485.236 110.52 485.763 110.887C486.295 111.254 486.991 111.438 487.849 111.438C488.825 111.438 489.601 111.23 490.175 110.816C490.755 110.396 491.045 109.893 491.045 109.307C491.045 108.833 490.879 108.437 490.548 108.117C490.216 107.792 489.707 107.549 489.021 107.389L486.748 106.857C485.499 106.561 484.582 106.102 483.996 105.48C483.416 104.853 483.126 104.069 483.126 103.128C483.126 102.358 483.342 101.678 483.774 101.086C484.212 100.494 484.807 100.029 485.558 99.6921C486.316 99.3548 487.174 99.1861 488.133 99.1861C489.482 99.1861 490.542 99.482 491.311 100.074C492.086 100.666 492.637 101.447 492.962 102.418Z" fill="black"/>
<circle cx="443.511" cy="316.511" r="9.01136" fill="#FFE587" stroke="black"/>
<circle cx="279.511" cy="278.511" r="9.01136" fill="#FFE587" stroke="black"/>
<circle cx="449.511" cy="223.511" r="9.01136" fill="#FFE587" stroke="black"/>
<circle cx="405.511" cy="189.511" r="9.01136" fill="#FFE587" stroke="black"/>
<circle cx="136.511" cy="292.511" r="9.01136" fill="#FFE587" stroke="black"/>
<circle cx="420.511" cy="128.511" r="9.01136" fill="#FFE587" stroke="black"/>
<circle cx="446.511" cy="443.511" r="9.01136" fill="#FFE587" stroke="black"/>
<defs>
<filter id="filter0_d_207_303" x="91.4995" y="84" width="586.001" height="433.5" filterUnits="userSpaceOnUse" color-interpolation-filters="sRGB">
<feFlood flood-opacity="0" result="BackgroundImageFix"/>
<feColorMatrix in="SourceAlpha" type="matrix" values="0 0 0 0 0 0 0 0 0 0 0 0 0 0 0 0 0 0 127 0" result="hardAlpha"/>
<feOffset dy="4"/>
<feGaussianBlur stdDeviation="2"/>
<feComposite in2="hardAlpha" operator="out"/>
<feColorMatrix type="matrix" values="0 0 0 0 0 0 0 0 0 0 0 0 0 0 0 0 0 0 0.25 0"/>
<feBlend mode="normal" in2="BackgroundImageFix" result="effect1_dropShadow_207_303"/>
<feBlend mode="normal" in="SourceGraphic" in2="effect1_dropShadow_207_303" result="shape"/>
</filter>
</defs>
</svg>
