<svg width="700" height="1033" viewBox="0 0 700 1033" fill="none" xmlns="http://www.w3.org/2000/svg">
<rect x="0.5" y="0.5" width="699" height="1032" rx="35.5" fill="#97DCFF" stroke="#717171"/>
<path d="M120.722 78V60.5455H127.267C128.608 60.5455 129.733 60.7955 130.642 61.2955C131.557 61.7955 132.247 62.483 132.713 63.358C133.185 64.2273 133.42 65.2159 133.42 66.3239C133.42 67.4432 133.185 68.4375 132.713 69.3068C132.241 70.1761 131.545 70.8608 130.625 71.3608C129.705 71.8551 128.571 72.1023 127.224 72.1023H122.886V69.5028H126.798C127.582 69.5028 128.224 69.3665 128.724 69.0938C129.224 68.821 129.594 68.446 129.832 67.9688C130.077 67.4915 130.199 66.9432 130.199 66.3239C130.199 65.7045 130.077 65.1591 129.832 64.6875C129.594 64.2159 129.222 63.8494 128.716 63.5881C128.216 63.321 127.571 63.1875 126.781 63.1875H123.884V78H120.722ZM136.463 78H133.088L139.233 60.5455H143.136L149.29 78H145.915L141.253 64.125H141.116L136.463 78ZM136.574 71.1562H145.778V73.696H136.574V71.1562Z" fill="#005A5E"/>
<path d="M63.7216 570.545H67.5909L72.7727 583.193H72.9773L78.1591 570.545H82.0284V588H78.9943V576.009H78.8324L74.0085 587.949H71.7415L66.9176 575.983H66.7557V588H63.7216V570.545ZM91.3864 588H85.4716V570.545H91.5057C93.2386 570.545 94.7273 570.895 95.9716 571.594C97.2216 572.287 98.1818 573.284 98.8523 574.585C99.5227 575.886 99.858 577.443 99.858 579.256C99.858 581.074 99.5199 582.636 98.8438 583.943C98.1733 585.25 97.2045 586.253 95.9375 586.952C94.6761 587.651 93.1591 588 91.3864 588ZM88.6335 585.264H91.233C92.4489 585.264 93.4631 585.043 94.2756 584.599C95.0881 584.151 95.6989 583.483 96.108 582.597C96.517 581.705 96.7216 580.591 96.7216 579.256C96.7216 577.92 96.517 576.812 96.108 575.932C95.6989 575.045 95.0938 574.384 94.2926 573.946C93.4972 573.503 92.5085 573.281 91.3267 573.281H88.6335V585.264Z" fill="#005A5E"/>
<line x1="288.882" y1="409.528" x2="295.031" y2="421.017" stroke="#FFE587" stroke-width="2"/>
<path d="M361.773 571H355.858V553.545H361.892C363.625 553.545 365.114 553.895 366.358 554.594C367.608 555.287 368.569 556.284 369.239 557.585C369.909 558.886 370.245 560.443 370.245 562.256C370.245 564.074 369.907 565.636 369.23 566.943C368.56 568.25 367.591 569.253 366.324 569.952C365.063 570.651 363.546 571 361.773 571ZM359.02 568.264H361.62C362.836 568.264 363.85 568.043 364.662 567.599C365.475 567.151 366.086 566.483 366.495 565.597C366.904 564.705 367.108 563.591 367.108 562.256C367.108 560.92 366.904 559.812 366.495 558.932C366.086 558.045 365.48 557.384 364.679 556.946C363.884 556.503 362.895 556.281 361.713 556.281H359.02V568.264ZM378.908 571.256C377.596 571.256 376.462 570.983 375.507 570.438C374.559 569.886 373.828 569.108 373.317 568.102C372.806 567.091 372.55 565.901 372.55 564.531C372.55 563.185 372.806 562.003 373.317 560.986C373.834 559.963 374.556 559.168 375.482 558.599C376.408 558.026 377.496 557.739 378.746 557.739C379.553 557.739 380.314 557.869 381.03 558.131C381.752 558.386 382.388 558.784 382.939 559.324C383.496 559.864 383.934 560.551 384.252 561.386C384.57 562.216 384.729 563.205 384.729 564.352V565.298H373.999V563.219H381.772C381.766 562.628 381.638 562.102 381.388 561.642C381.138 561.176 380.789 560.81 380.34 560.543C379.897 560.276 379.38 560.142 378.789 560.142C378.158 560.142 377.604 560.295 377.127 560.602C376.65 560.903 376.277 561.301 376.01 561.795C375.749 562.284 375.615 562.821 375.61 563.406V565.222C375.61 565.983 375.749 566.636 376.027 567.182C376.306 567.722 376.695 568.136 377.195 568.426C377.695 568.71 378.28 568.852 378.951 568.852C379.4 568.852 379.806 568.79 380.169 568.665C380.533 568.534 380.848 568.344 381.115 568.094C381.382 567.844 381.584 567.534 381.721 567.165L384.601 567.489C384.419 568.25 384.073 568.915 383.561 569.483C383.056 570.045 382.408 570.483 381.618 570.795C380.828 571.102 379.925 571.256 378.908 571.256ZM390.424 553.545V571H387.339V553.545H390.424ZM397.364 571.264C396.534 571.264 395.787 571.116 395.123 570.821C394.463 570.52 393.941 570.077 393.554 569.491C393.174 568.906 392.983 568.185 392.983 567.327C392.983 566.588 393.12 565.977 393.392 565.494C393.665 565.011 394.037 564.625 394.509 564.335C394.98 564.045 395.512 563.827 396.103 563.679C396.699 563.526 397.316 563.415 397.952 563.347C398.719 563.267 399.341 563.196 399.819 563.134C400.296 563.065 400.642 562.963 400.858 562.827C401.08 562.685 401.191 562.466 401.191 562.17V562.119C401.191 561.477 401 560.98 400.62 560.628C400.239 560.276 399.691 560.099 398.975 560.099C398.219 560.099 397.62 560.264 397.176 560.594C396.739 560.923 396.444 561.312 396.29 561.761L393.409 561.352C393.637 560.557 394.012 559.892 394.534 559.358C395.057 558.818 395.696 558.415 396.452 558.148C397.208 557.875 398.043 557.739 398.958 557.739C399.588 557.739 400.216 557.812 400.841 557.96C401.466 558.108 402.037 558.352 402.554 558.693C403.071 559.028 403.486 559.486 403.799 560.065C404.117 560.645 404.276 561.369 404.276 562.239V571H401.31V569.202H401.208C401.02 569.565 400.756 569.906 400.415 570.224C400.08 570.537 399.657 570.79 399.145 570.983C398.64 571.17 398.046 571.264 397.364 571.264ZM398.165 568.997C398.784 568.997 399.321 568.875 399.776 568.631C400.23 568.381 400.58 568.051 400.824 567.642C401.074 567.233 401.199 566.787 401.199 566.304V564.761C401.103 564.841 400.938 564.915 400.705 564.983C400.478 565.051 400.222 565.111 399.938 565.162C399.654 565.213 399.373 565.259 399.094 565.298C398.816 565.338 398.574 565.372 398.37 565.401C397.909 565.463 397.498 565.565 397.134 565.707C396.77 565.849 396.483 566.048 396.273 566.304C396.063 566.554 395.958 566.878 395.958 567.276C395.958 567.844 396.165 568.273 396.58 568.562C396.995 568.852 397.523 568.997 398.165 568.997ZM410.08 571L406.381 557.909H409.526L411.827 567.114H411.946L414.299 557.909H417.409L419.762 567.062H419.89L422.157 557.909H425.31L421.603 571H418.39L415.935 562.153H415.756L413.301 571H410.08ZM431.231 571.264C430.402 571.264 429.654 571.116 428.99 570.821C428.331 570.52 427.808 570.077 427.422 569.491C427.041 568.906 426.85 568.185 426.85 567.327C426.85 566.588 426.987 565.977 427.26 565.494C427.532 565.011 427.904 564.625 428.376 564.335C428.848 564.045 429.379 563.827 429.97 563.679C430.566 563.526 431.183 563.415 431.819 563.347C432.586 563.267 433.208 563.196 433.686 563.134C434.163 563.065 434.51 562.963 434.725 562.827C434.947 562.685 435.058 562.466 435.058 562.17V562.119C435.058 561.477 434.868 560.98 434.487 560.628C434.106 560.276 433.558 560.099 432.842 560.099C432.086 560.099 431.487 560.264 431.044 560.594C430.606 560.923 430.311 561.312 430.157 561.761L427.277 561.352C427.504 560.557 427.879 559.892 428.402 559.358C428.924 558.818 429.564 558.415 430.319 558.148C431.075 557.875 431.91 557.739 432.825 557.739C433.456 557.739 434.083 557.812 434.708 557.96C435.333 558.108 435.904 558.352 436.422 558.693C436.939 559.028 437.353 559.486 437.666 560.065C437.984 560.645 438.143 561.369 438.143 562.239V571H435.177V569.202H435.075C434.887 569.565 434.623 569.906 434.282 570.224C433.947 570.537 433.524 570.79 433.012 570.983C432.507 571.17 431.913 571.264 431.231 571.264ZM432.032 568.997C432.652 568.997 433.189 568.875 433.643 568.631C434.098 568.381 434.447 568.051 434.691 567.642C434.941 567.233 435.066 566.787 435.066 566.304V564.761C434.97 564.841 434.805 564.915 434.572 564.983C434.345 565.051 434.089 565.111 433.805 565.162C433.521 565.213 433.24 565.259 432.961 565.298C432.683 565.338 432.441 565.372 432.237 565.401C431.777 565.463 431.365 565.565 431.001 565.707C430.637 565.849 430.35 566.048 430.14 566.304C429.93 566.554 429.825 566.878 429.825 567.276C429.825 567.844 430.032 568.273 430.447 568.562C430.862 568.852 431.39 568.997 432.032 568.997ZM441.245 571V557.909H444.237V560.091H444.373C444.612 559.335 445.021 558.753 445.6 558.344C446.186 557.929 446.853 557.722 447.603 557.722C447.774 557.722 447.964 557.73 448.174 557.747C448.39 557.759 448.569 557.778 448.711 557.807V560.645C448.581 560.599 448.373 560.56 448.089 560.526C447.811 560.486 447.541 560.466 447.279 560.466C446.717 560.466 446.211 560.588 445.762 560.832C445.319 561.071 444.97 561.403 444.714 561.83C444.458 562.256 444.331 562.747 444.331 563.304V571H441.245ZM456.017 571.256C454.705 571.256 453.571 570.983 452.617 570.438C451.668 569.886 450.938 569.108 450.426 568.102C449.915 567.091 449.659 565.901 449.659 564.531C449.659 563.185 449.915 562.003 450.426 560.986C450.944 559.963 451.665 559.168 452.591 558.599C453.517 558.026 454.605 557.739 455.855 557.739C456.662 557.739 457.424 557.869 458.14 558.131C458.861 558.386 459.498 558.784 460.049 559.324C460.605 559.864 461.043 560.551 461.361 561.386C461.679 562.216 461.838 563.205 461.838 564.352V565.298H451.108V563.219H458.881C458.875 562.628 458.748 562.102 458.498 561.642C458.248 561.176 457.898 560.81 457.449 560.543C457.006 560.276 456.489 560.142 455.898 560.142C455.267 560.142 454.713 560.295 454.236 560.602C453.759 560.903 453.387 561.301 453.12 561.795C452.858 562.284 452.725 562.821 452.719 563.406V565.222C452.719 565.983 452.858 566.636 453.137 567.182C453.415 567.722 453.804 568.136 454.304 568.426C454.804 568.71 455.39 568.852 456.06 568.852C456.509 568.852 456.915 568.79 457.279 568.665C457.642 568.534 457.958 568.344 458.225 568.094C458.492 567.844 458.694 567.534 458.83 567.165L461.711 567.489C461.529 568.25 461.182 568.915 460.671 569.483C460.165 570.045 459.517 570.483 458.728 570.795C457.938 571.102 457.034 571.256 456.017 571.256ZM388.765 600V582.545H395.446C396.708 582.545 397.756 582.744 398.591 583.142C399.432 583.534 400.06 584.071 400.475 584.753C400.895 585.435 401.105 586.207 401.105 587.071C401.105 587.781 400.969 588.389 400.696 588.895C400.424 589.395 400.057 589.801 399.597 590.114C399.137 590.426 398.623 590.651 398.054 590.787V590.957C398.674 590.991 399.267 591.182 399.836 591.528C400.409 591.869 400.878 592.352 401.242 592.977C401.605 593.602 401.787 594.358 401.787 595.244C401.787 596.148 401.569 596.96 401.131 597.682C400.694 598.398 400.034 598.963 399.154 599.378C398.273 599.793 397.165 600 395.83 600H388.765ZM391.926 597.358H395.327C396.475 597.358 397.301 597.139 397.807 596.702C398.319 596.259 398.574 595.69 398.574 594.997C398.574 594.48 398.446 594.014 398.191 593.599C397.935 593.179 397.571 592.849 397.1 592.611C396.628 592.366 396.066 592.244 395.412 592.244H391.926V597.358ZM391.926 589.969H395.054C395.6 589.969 396.091 589.869 396.529 589.67C396.966 589.466 397.31 589.179 397.56 588.81C397.816 588.435 397.944 587.991 397.944 587.48C397.944 586.804 397.705 586.247 397.228 585.81C396.756 585.372 396.054 585.153 395.123 585.153H391.926V589.969ZM408.169 600.264C407.339 600.264 406.592 600.116 405.927 599.821C405.268 599.52 404.745 599.077 404.359 598.491C403.978 597.906 403.788 597.185 403.788 596.327C403.788 595.588 403.924 594.977 404.197 594.494C404.47 594.011 404.842 593.625 405.314 593.335C405.785 593.045 406.316 592.827 406.907 592.679C407.504 592.526 408.12 592.415 408.757 592.347C409.524 592.267 410.146 592.196 410.623 592.134C411.1 592.065 411.447 591.963 411.663 591.827C411.885 591.685 411.995 591.466 411.995 591.17V591.119C411.995 590.477 411.805 589.98 411.424 589.628C411.044 589.276 410.495 589.099 409.779 589.099C409.024 589.099 408.424 589.264 407.981 589.594C407.544 589.923 407.248 590.312 407.095 590.761L404.214 590.352C404.441 589.557 404.816 588.892 405.339 588.358C405.862 587.818 406.501 587.415 407.257 587.148C408.012 586.875 408.848 586.739 409.762 586.739C410.393 586.739 411.021 586.812 411.646 586.96C412.271 587.108 412.842 587.352 413.359 587.693C413.876 588.028 414.291 588.486 414.603 589.065C414.922 589.645 415.081 590.369 415.081 591.239V600H412.115V598.202H412.012C411.825 598.565 411.561 598.906 411.22 599.224C410.885 599.537 410.461 599.79 409.95 599.983C409.444 600.17 408.85 600.264 408.169 600.264ZM408.97 597.997C409.589 597.997 410.126 597.875 410.581 597.631C411.035 597.381 411.385 597.051 411.629 596.642C411.879 596.233 412.004 595.787 412.004 595.304V593.761C411.907 593.841 411.743 593.915 411.51 593.983C411.282 594.051 411.027 594.111 410.743 594.162C410.458 594.213 410.177 594.259 409.899 594.298C409.62 594.338 409.379 594.372 409.174 594.401C408.714 594.463 408.302 594.565 407.939 594.707C407.575 594.849 407.288 595.048 407.078 595.304C406.868 595.554 406.762 595.878 406.762 596.276C406.762 596.844 406.97 597.273 407.385 597.562C407.799 597.852 408.328 597.997 408.97 597.997ZM419.632 604.909C419.211 604.909 418.822 604.875 418.464 604.807C418.112 604.744 417.831 604.67 417.62 604.585L418.336 602.182C418.785 602.313 419.186 602.375 419.538 602.369C419.89 602.364 420.2 602.253 420.467 602.037C420.74 601.827 420.97 601.474 421.157 600.98L421.422 600.273L416.674 586.909H419.947L422.964 596.795H423.1L426.126 586.909H429.407L424.166 601.585C423.922 602.278 423.598 602.872 423.194 603.366C422.791 603.866 422.297 604.247 421.711 604.509C421.132 604.776 420.439 604.909 419.632 604.909Z" fill="#017D83"/>
<path d="M526.454 853H523.079L532.122 835.545H536.025L539.281 853H535.906L533.562 839.125H533.426L526.454 853ZM527.699 846.156H536.903L536.477 848.696H527.272L527.699 846.156ZM549.342 839.909L548.941 842.295H541.424L541.816 839.909H549.342ZM544.186 836.773H547.271L545.225 849.062C545.163 849.477 545.174 849.795 545.26 850.017C545.35 850.233 545.495 850.381 545.694 850.46C545.899 850.54 546.129 850.58 546.385 850.58C546.572 850.58 546.748 850.565 546.913 850.537C547.078 850.503 547.208 850.477 547.305 850.46L547.441 852.872C547.254 852.929 547.001 852.991 546.683 853.06C546.37 853.128 545.995 853.168 545.558 853.179C544.774 853.196 544.092 853.077 543.512 852.821C542.939 852.56 542.518 852.159 542.251 851.619C541.99 851.074 541.93 850.392 542.072 849.574L544.186 836.773ZM556.005 835.545L553.107 853H550.022L552.919 835.545H556.005ZM560.012 853.264C559.183 853.264 558.461 853.116 557.848 852.821C557.234 852.52 556.782 852.077 556.493 851.491C556.208 850.906 556.137 850.185 556.279 849.327C556.404 848.588 556.643 847.977 556.995 847.494C557.353 847.011 557.791 846.625 558.308 846.335C558.831 846.04 559.399 845.818 560.012 845.67C560.632 845.523 561.262 845.415 561.904 845.347C562.689 845.267 563.322 845.193 563.805 845.125C564.294 845.057 564.66 844.955 564.904 844.818C565.149 844.676 565.297 844.46 565.348 844.17V844.119C565.45 843.477 565.348 842.98 565.041 842.628C564.734 842.276 564.223 842.099 563.507 842.099C562.757 842.099 562.126 842.264 561.615 842.594C561.103 842.923 560.731 843.312 560.498 843.761L557.703 843.352C558.055 842.557 558.538 841.892 559.152 841.358C559.765 840.818 560.473 840.415 561.274 840.148C562.081 839.875 562.941 839.739 563.856 839.739C564.481 839.739 565.092 839.812 565.689 839.96C566.291 840.108 566.822 840.352 567.282 840.693C567.748 841.028 568.089 841.486 568.305 842.065C568.527 842.645 568.564 843.369 568.416 844.239L566.958 853H563.993L564.299 851.202H564.197C563.953 851.565 563.635 851.906 563.243 852.224C562.85 852.537 562.385 852.79 561.845 852.983C561.305 853.17 560.694 853.264 560.012 853.264ZM561.18 850.997C561.799 850.997 562.356 850.875 562.85 850.631C563.345 850.381 563.751 850.051 564.069 849.642C564.387 849.233 564.586 848.787 564.666 848.304L564.922 846.761C564.808 846.841 564.632 846.915 564.393 846.983C564.154 847.051 563.887 847.111 563.592 847.162C563.302 847.213 563.015 847.259 562.731 847.298C562.447 847.338 562.203 847.372 561.998 847.401C561.527 847.463 561.095 847.565 560.703 847.707C560.316 847.849 559.995 848.048 559.74 848.304C559.49 848.554 559.333 848.878 559.271 849.276C559.18 849.838 559.314 850.267 559.672 850.562C560.029 850.852 560.532 850.997 561.18 850.997ZM574.424 845.33L573.163 853H570.069L572.251 839.909H575.208L574.833 842.134H574.995C575.404 841.401 575.978 840.818 576.717 840.386C577.456 839.955 578.316 839.739 579.299 839.739C580.191 839.739 580.941 839.932 581.549 840.318C582.157 840.699 582.589 841.259 582.845 841.997C583.1 842.73 583.14 843.619 582.964 844.665L581.566 853H578.481L579.785 845.142C579.933 844.273 579.822 843.591 579.453 843.097C579.089 842.597 578.504 842.347 577.697 842.347C577.157 842.347 576.66 842.466 576.206 842.705C575.751 842.937 575.368 843.276 575.055 843.719C574.748 844.162 574.538 844.699 574.424 845.33ZM593.404 839.909L593.004 842.295H585.487L585.879 839.909H593.404ZM588.248 836.773H591.333L589.288 849.062C589.225 849.477 589.237 849.795 589.322 850.017C589.413 850.233 589.558 850.381 589.757 850.46C589.961 850.54 590.191 850.58 590.447 850.58C590.635 850.58 590.811 850.565 590.975 850.537C591.14 850.503 591.271 850.477 591.368 850.46L591.504 852.872C591.316 852.929 591.064 852.991 590.745 853.06C590.433 853.128 590.058 853.168 589.62 853.179C588.836 853.196 588.154 853.077 587.575 852.821C587.001 852.56 586.581 852.159 586.314 851.619C586.052 851.074 585.993 850.392 586.135 849.574L588.248 836.773ZM593.803 853L595.985 839.909H599.07L596.888 853H593.803ZM597.979 838.034C597.485 838.034 597.076 837.869 596.752 837.54C596.428 837.21 596.286 836.815 596.326 836.355C596.365 835.895 596.573 835.5 596.948 835.17C597.328 834.841 597.763 834.676 598.252 834.676C598.746 834.676 599.152 834.841 599.471 835.17C599.794 835.5 599.936 835.895 599.897 836.355C599.863 836.815 599.655 837.21 599.275 837.54C598.9 837.869 598.468 838.034 597.979 838.034ZM605.737 853.256C604.43 853.256 603.356 852.969 602.515 852.395C601.674 851.821 601.086 851.028 600.751 850.017C600.422 849 600.368 847.83 600.589 846.506C600.805 845.176 601.251 844.003 601.927 842.986C602.609 841.963 603.467 841.168 604.501 840.599C605.535 840.026 606.691 839.739 607.97 839.739C609.032 839.739 609.939 839.935 610.689 840.327C611.444 840.713 612.007 841.261 612.376 841.972C612.751 842.676 612.896 843.5 612.811 844.443H609.853C609.842 843.812 609.646 843.287 609.265 842.866C608.885 842.44 608.328 842.227 607.595 842.227C606.958 842.227 606.373 842.398 605.839 842.739C605.305 843.074 604.853 843.557 604.484 844.188C604.115 844.818 603.859 845.574 603.717 846.455C603.569 847.347 603.572 848.114 603.725 848.756C603.885 849.392 604.172 849.884 604.586 850.23C605.007 850.571 605.538 850.741 606.18 850.741C606.635 850.741 607.058 850.656 607.45 850.486C607.842 850.31 608.186 850.057 608.481 849.727C608.782 849.398 609.018 848.997 609.189 848.526H612.137C611.904 849.452 611.49 850.273 610.893 850.989C610.302 851.699 609.569 852.256 608.694 852.659C607.819 853.057 606.833 853.256 605.737 853.256ZM548.595 873.477C548.288 875.33 547.683 876.909 546.78 878.216C545.882 879.517 544.786 880.514 543.49 881.207C542.2 881.895 540.811 882.239 539.322 882.239C537.76 882.239 536.419 881.875 535.3 881.148C534.18 880.415 533.374 879.366 532.879 878.003C532.391 876.639 532.305 875.003 532.624 873.094C532.93 871.247 533.533 869.668 534.43 868.355C535.328 867.043 536.428 866.04 537.729 865.347C539.03 864.653 540.433 864.307 541.939 864.307C543.49 864.307 544.82 864.673 545.928 865.406C547.041 866.134 547.842 867.182 548.331 868.551C548.825 869.92 548.913 871.562 548.595 873.477ZM545.484 873.094C545.695 871.804 545.675 870.716 545.425 869.83C545.18 868.943 544.746 868.276 544.121 867.827C543.496 867.372 542.726 867.145 541.811 867.145C540.822 867.145 539.908 867.392 539.067 867.886C538.232 868.375 537.521 869.091 536.936 870.034C536.357 870.977 535.959 872.125 535.743 873.477C535.516 874.773 535.53 875.861 535.786 876.741C536.041 877.622 536.484 878.287 537.115 878.736C537.746 879.179 538.516 879.401 539.425 879.401C540.408 879.401 541.317 879.156 542.152 878.668C542.987 878.179 543.695 877.466 544.274 876.528C544.859 875.591 545.263 874.446 545.484 873.094ZM555.71 882.256C554.403 882.256 553.329 881.969 552.488 881.395C551.647 880.821 551.059 880.028 550.724 879.017C550.394 878 550.34 876.83 550.562 875.506C550.778 874.176 551.224 873.003 551.9 871.986C552.582 870.963 553.44 870.168 554.474 869.599C555.508 869.026 556.664 868.739 557.942 868.739C559.005 868.739 559.911 868.935 560.661 869.327C561.417 869.713 561.979 870.261 562.349 870.972C562.724 871.676 562.869 872.5 562.783 873.443H559.826C559.815 872.812 559.619 872.287 559.238 871.866C558.857 871.44 558.3 871.227 557.567 871.227C556.931 871.227 556.346 871.398 555.812 871.739C555.278 872.074 554.826 872.557 554.457 873.188C554.087 873.818 553.832 874.574 553.69 875.455C553.542 876.347 553.545 877.114 553.698 877.756C553.857 878.392 554.144 878.884 554.559 879.23C554.979 879.571 555.511 879.741 556.153 879.741C556.607 879.741 557.031 879.656 557.423 879.486C557.815 879.31 558.158 879.057 558.454 878.727C558.755 878.398 558.991 877.997 559.161 877.526H562.11C561.877 878.452 561.462 879.273 560.866 879.989C560.275 880.699 559.542 881.256 558.667 881.659C557.792 882.057 556.806 882.256 555.71 882.256ZM569.646 882.256C568.334 882.256 567.249 881.983 566.391 881.438C565.533 880.886 564.93 880.108 564.584 879.102C564.243 878.091 564.186 876.901 564.413 875.531C564.635 874.185 565.087 873.003 565.768 871.986C566.45 870.963 567.303 870.168 568.325 869.599C569.354 869.026 570.49 868.739 571.734 868.739C572.541 868.739 573.283 868.869 573.959 869.131C574.635 869.386 575.206 869.784 575.672 870.324C576.138 870.864 576.459 871.551 576.635 872.386C576.811 873.216 576.803 874.205 576.609 875.352L576.464 876.298H565.726L566.058 874.219H573.831C573.933 873.628 573.899 873.102 573.729 872.642C573.558 872.176 573.274 871.81 572.876 871.543C572.479 871.276 571.982 871.142 571.385 871.142C570.777 871.142 570.209 871.298 569.68 871.611C569.158 871.918 568.717 872.315 568.359 872.804C568.001 873.293 567.774 873.807 567.678 874.347L567.328 876.341C567.203 877.159 567.232 877.827 567.413 878.344C567.595 878.861 567.913 879.241 568.368 879.486C568.822 879.73 569.396 879.852 570.089 879.852C570.544 879.852 570.964 879.79 571.351 879.665C571.737 879.54 572.081 879.352 572.382 879.102C572.689 878.847 572.945 878.534 573.149 878.165L575.97 878.489C575.658 879.25 575.2 879.915 574.598 880.483C573.996 881.045 573.274 881.483 572.433 881.795C571.598 882.102 570.669 882.256 569.646 882.256ZM581.868 882.264C581.038 882.264 580.317 882.116 579.703 881.821C579.089 881.52 578.638 881.077 578.348 880.491C578.064 879.906 577.993 879.185 578.135 878.327C578.26 877.588 578.499 876.977 578.851 876.494C579.209 876.011 579.646 875.625 580.163 875.335C580.686 875.04 581.254 874.818 581.868 874.67C582.487 874.523 583.118 874.415 583.76 874.347C584.544 874.267 585.178 874.193 585.661 874.125C586.149 874.057 586.516 873.955 586.76 873.818C587.004 873.676 587.152 873.46 587.203 873.17V873.119C587.305 872.477 587.203 871.98 586.896 871.628C586.589 871.276 586.078 871.099 585.362 871.099C584.612 871.099 583.982 871.264 583.47 871.594C582.959 871.923 582.587 872.312 582.354 872.761L579.558 872.352C579.911 871.557 580.393 870.892 581.007 870.358C581.621 869.818 582.328 869.415 583.129 869.148C583.936 868.875 584.797 868.739 585.712 868.739C586.337 868.739 586.947 868.812 587.544 868.96C588.146 869.108 588.678 869.352 589.138 869.693C589.604 870.028 589.945 870.486 590.161 871.065C590.382 871.645 590.419 872.369 590.271 873.239L588.814 882H585.848L586.155 880.202H586.053C585.808 880.565 585.49 880.906 585.098 881.224C584.706 881.537 584.24 881.79 583.7 881.983C583.161 882.17 582.55 882.264 581.868 882.264ZM583.036 879.997C583.655 879.997 584.212 879.875 584.706 879.631C585.2 879.381 585.607 879.051 585.925 878.642C586.243 878.233 586.442 877.787 586.521 877.304L586.777 875.761C586.663 875.841 586.487 875.915 586.249 875.983C586.01 876.051 585.743 876.111 585.447 876.162C585.158 876.213 584.871 876.259 584.587 876.298C584.303 876.338 584.058 876.372 583.854 876.401C583.382 876.463 582.95 876.565 582.558 876.707C582.172 876.849 581.851 877.048 581.595 877.304C581.345 877.554 581.189 877.878 581.126 878.276C581.036 878.838 581.169 879.267 581.527 879.562C581.885 879.852 582.388 879.997 583.036 879.997ZM596.28 874.33L595.018 882H591.925L594.107 868.909H597.064L596.689 871.134H596.851C597.26 870.401 597.834 869.818 598.572 869.386C599.311 868.955 600.172 868.739 601.155 868.739C602.047 868.739 602.797 868.932 603.405 869.318C604.013 869.699 604.445 870.259 604.7 870.997C604.956 871.73 604.996 872.619 604.82 873.665L603.422 882H600.337L601.641 874.142C601.788 873.273 601.678 872.591 601.308 872.097C600.945 871.597 600.359 871.347 599.553 871.347C599.013 871.347 598.516 871.466 598.061 871.705C597.607 871.937 597.223 872.276 596.911 872.719C596.604 873.162 596.393 873.699 596.28 874.33Z" fill="#017D83"/>
<g filter="url(#filter0_d_91_251)">
<path d="M117.5 246L161 947L309 951.5L457 952.5H469.5L468.5 946L461.5 935L467 930L473.5 904L469.5 854.5L464 809.5L465 843.5L467 867.5L455.5 878V882.5L450.5 881.5V873.5L443 865L435 863L410 878L409 865L422.5 859L424.5 853L449.5 848.5L452 841.5L447.5 836L442 838L435 836L438 831.5L435 820.5L431 806.5V805H442L455.5 806.5L462.5 805L461 771L456 736L446 745H430L419 740.5L407.5 730L385 705.5L364 680L346 653L347 638.5L345.5 623.5L340 609L332 596.5L312.75 579.5L304.5 568.5V544.5L299 520.5V502L305.5 491L306.5 477.5L304 471L301.5 446L288.875 429.14L286 413.5L275 404.5L266.5 399H264.5V408L261 408.5L255 392.5L259.5 393.5L261.5 392L258 385.5L249 378.5L245 362.5L237 348.5L222 334L216.5 325.5L212 314.5V304.5L217.5 292L219 281L223.5 269.5V257.5L222 252L201.5 228.5V218.5L212.531 200.5L225.5 196L232 187.5L249 160.5L257 140L267.5 122L279.5 107L291.5 101L277 90.5L247.5 79H212.531L186.5 85L166 95.5L145 115.5L132 132.56L124.5 152L114.5 154.5L117.5 246Z" fill="#FFD597"/>
<path d="M117.5 246L161 947L309 951.5L457 952.5H469.5L468.5 946L461.5 935L467 930L473.5 904L469.5 854.5L464 809.5L465 843.5L467 867.5L455.5 878V882.5L450.5 881.5V873.5L443 865L435 863L410 878L409 865L422.5 859L424.5 853L449.5 848.5L452 841.5L447.5 836L442 838L435 836L438 831.5L435 820.5L431 806.5V805H442L455.5 806.5L462.5 805L461 771L456 736L446 745H430L419 740.5L407.5 730L385 705.5L364 680L346 653L347 638.5L345.5 623.5L340 609L332 596.5L312.75 579.5L304.5 568.5V544.5L299 520.5V502L305.5 491L306.5 477.5L304 471L301.5 446L288.875 429.14L286 413.5L275 404.5L266.5 399H264.5V408L261 408.5L255 392.5L259.5 393.5L261.5 392L258 385.5L249 378.5L245 362.5L237 348.5L222 334L216.5 325.5L212 314.5V304.5L217.5 292L219 281L223.5 269.5V257.5L222 252L201.5 228.5V218.5L212.531 200.5L225.5 196L232 187.5L249 160.5L257 140L267.5 122L279.5 107L291.5 101L277 90.5L247.5 79H212.531L186.5 85L166 95.5L145 115.5L132 132.56L124.5 152L114.5 154.5L117.5 246Z" stroke="black"/>
</g>
<path d="M183.173 441.455C183.075 440.627 182.678 439.984 181.981 439.527C181.284 439.07 180.429 438.841 179.416 438.841C178.676 438.841 178.028 438.961 177.472 439.2C176.922 439.44 176.492 439.769 176.182 440.189C175.877 440.608 175.724 441.084 175.724 441.618C175.724 442.064 175.831 442.448 176.043 442.77C176.261 443.085 176.538 443.349 176.876 443.562C177.214 443.769 177.568 443.94 177.938 444.076C178.308 444.207 178.648 444.313 178.959 444.395L180.658 444.852C181.093 444.967 181.578 445.125 182.112 445.326C182.651 445.527 183.165 445.802 183.655 446.151C184.151 446.494 184.559 446.935 184.88 447.474C185.202 448.013 185.362 448.675 185.362 449.459C185.362 450.363 185.125 451.179 184.652 451.909C184.183 452.639 183.497 453.219 182.593 453.649C181.695 454.079 180.603 454.294 179.318 454.294C178.12 454.294 177.083 454.101 176.206 453.714C175.335 453.328 174.649 452.788 174.148 452.097C173.653 451.405 173.372 450.602 173.307 449.688H175.398C175.452 450.319 175.665 450.842 176.035 451.256C176.411 451.664 176.884 451.969 177.456 452.17C178.033 452.366 178.654 452.464 179.318 452.464C180.091 452.464 180.786 452.339 181.401 452.089C182.016 451.833 182.504 451.479 182.863 451.027C183.222 450.57 183.402 450.036 183.402 449.426C183.402 448.871 183.247 448.419 182.936 448.07C182.626 447.722 182.218 447.439 181.711 447.221C181.205 447.003 180.658 446.812 180.07 446.649L178.011 446.061C176.705 445.685 175.67 445.149 174.908 444.452C174.145 443.755 173.764 442.843 173.764 441.716C173.764 440.779 174.017 439.963 174.524 439.266C175.036 438.563 175.722 438.019 176.582 437.632C177.448 437.24 178.414 437.044 179.482 437.044C180.56 437.044 181.518 437.237 182.357 437.624C183.195 438.005 183.859 438.528 184.349 439.192C184.845 439.856 185.106 440.611 185.134 441.455H183.173ZM188.431 454V441.455H190.293V443.415H190.457C190.718 442.745 191.14 442.225 191.723 441.855C192.305 441.479 193.005 441.291 193.822 441.291C194.649 441.291 195.338 441.479 195.888 441.855C196.444 442.225 196.877 442.745 197.187 443.415H197.318C197.639 442.767 198.121 442.252 198.763 441.871C199.406 441.484 200.176 441.291 201.075 441.291C202.196 441.291 203.114 441.642 203.827 442.345C204.54 443.042 204.897 444.128 204.897 445.604V454H202.97V445.604C202.97 444.678 202.716 444.016 202.21 443.619C201.704 443.221 201.107 443.023 200.421 443.023C199.539 443.023 198.856 443.29 198.371 443.823C197.887 444.351 197.644 445.021 197.644 445.832V454H195.684V445.408C195.684 444.694 195.453 444.12 194.99 443.684C194.527 443.243 193.931 443.023 193.201 443.023C192.7 443.023 192.232 443.156 191.796 443.423C191.366 443.69 191.018 444.06 190.751 444.534C190.489 445.002 190.359 445.544 190.359 446.159V454H188.431ZM209.214 458.705C208.887 458.705 208.596 458.677 208.34 458.623C208.084 458.574 207.907 458.525 207.809 458.476L208.299 456.777C208.767 456.897 209.181 456.94 209.54 456.908C209.9 456.875 210.218 456.714 210.496 456.426C210.779 456.143 211.038 455.683 211.272 455.045L211.631 454.065L206.992 441.455H209.083L212.546 451.452H212.677L216.14 441.455H218.231L212.905 455.83C212.666 456.478 212.369 457.014 212.015 457.439C211.661 457.869 211.25 458.187 210.782 458.394C210.319 458.601 209.796 458.705 209.214 458.705ZM220.775 454V441.455H222.637V443.349H222.768C222.997 442.729 223.41 442.225 224.009 441.838C224.608 441.452 225.283 441.259 226.035 441.259C226.176 441.259 226.353 441.261 226.566 441.267C226.778 441.272 226.939 441.28 227.048 441.291V443.251C226.982 443.235 226.833 443.211 226.598 443.178C226.37 443.14 226.127 443.121 225.872 443.121C225.262 443.121 224.717 443.249 224.238 443.505C223.764 443.755 223.389 444.104 223.111 444.55C222.839 444.991 222.703 445.495 222.703 446.061V454H220.775ZM231.26 446.453V454H229.333V441.455H231.195V443.415H231.358C231.652 442.778 232.099 442.266 232.698 441.879C233.297 441.487 234.07 441.291 235.017 441.291C235.867 441.291 236.61 441.465 237.247 441.814C237.884 442.157 238.38 442.68 238.733 443.382C239.087 444.079 239.264 444.961 239.264 446.028V454H237.337V446.159C237.337 445.174 237.081 444.406 236.569 443.856C236.057 443.3 235.355 443.023 234.462 443.023C233.847 443.023 233.297 443.156 232.812 443.423C232.333 443.69 231.954 444.079 231.677 444.591C231.399 445.103 231.26 445.723 231.26 446.453ZM246.478 454.294C245.683 454.294 244.962 454.144 244.314 453.845C243.666 453.54 243.151 453.102 242.77 452.53C242.389 451.953 242.199 451.256 242.199 450.439C242.199 449.72 242.34 449.138 242.623 448.691C242.906 448.239 243.285 447.885 243.759 447.629C244.232 447.373 244.755 447.183 245.327 447.058C245.904 446.927 246.484 446.823 247.066 446.747C247.829 446.649 248.447 446.576 248.921 446.527C249.4 446.472 249.748 446.382 249.966 446.257C250.189 446.132 250.301 445.914 250.301 445.604V445.538C250.301 444.732 250.08 444.106 249.639 443.66C249.204 443.213 248.542 442.99 247.655 442.99C246.734 442.99 246.013 443.192 245.49 443.594C244.967 443.997 244.6 444.428 244.388 444.885L242.558 444.232C242.885 443.469 243.32 442.876 243.865 442.451C244.415 442.021 245.014 441.721 245.662 441.553C246.315 441.378 246.958 441.291 247.589 441.291C247.992 441.291 248.455 441.34 248.978 441.438C249.506 441.531 250.015 441.724 250.505 442.018C251.001 442.312 251.412 442.756 251.738 443.349C252.065 443.943 252.228 444.738 252.228 445.734V454H250.301V452.301H250.203C250.072 452.573 249.854 452.865 249.549 453.175C249.245 453.485 248.839 453.75 248.332 453.967C247.826 454.185 247.208 454.294 246.478 454.294ZM246.772 452.562C247.535 452.562 248.177 452.413 248.7 452.113C249.228 451.814 249.626 451.427 249.892 450.953C250.165 450.48 250.301 449.982 250.301 449.459V447.695C250.219 447.793 250.04 447.882 249.762 447.964C249.49 448.04 249.174 448.108 248.814 448.168C248.46 448.223 248.115 448.272 247.777 448.315C247.445 448.353 247.175 448.386 246.968 448.413C246.468 448.479 245.999 448.585 245.564 448.732C245.133 448.873 244.785 449.089 244.518 449.377C244.257 449.66 244.126 450.047 244.126 450.537C244.126 451.207 244.374 451.713 244.869 452.056C245.37 452.394 246.005 452.562 246.772 452.562Z" fill="black"/>
<circle cx="251.511" cy="508.511" r="9.01136" fill="#FF8F87" stroke="black"/>
<path d="M222.026 540H215.58V521.818H222.079C223.908 521.818 225.482 522.182 226.802 522.91C228.122 523.632 229.137 524.671 229.847 526.026C230.563 527.382 230.921 529.003 230.921 530.891C230.921 532.785 230.563 534.413 229.847 535.774C229.137 537.135 228.116 538.18 226.784 538.908C225.458 539.636 223.872 540 222.026 540ZM219.424 536.706H221.866C223.002 536.706 223.958 536.505 224.733 536.103C225.515 535.694 226.1 535.064 226.491 534.212C226.888 533.353 227.086 532.247 227.086 530.891C227.086 529.548 226.888 528.45 226.491 527.598C226.1 526.745 225.518 526.118 224.742 525.716C223.967 525.313 223.011 525.112 221.875 525.112H219.424V536.706ZM239.859 540.266C238.48 540.266 237.287 539.973 236.281 539.387C235.281 538.796 234.509 537.973 233.964 536.919C233.42 535.86 233.147 534.632 233.147 533.235C233.147 531.826 233.42 530.595 233.964 529.542C234.509 528.482 235.281 527.66 236.281 527.074C237.287 526.482 238.48 526.186 239.859 526.186C241.238 526.186 242.428 526.482 243.428 527.074C244.434 527.66 245.209 528.482 245.754 529.542C246.298 530.595 246.571 531.826 246.571 533.235C246.571 534.632 246.298 535.86 245.754 536.919C245.209 537.973 244.434 538.796 243.428 539.387C242.428 539.973 241.238 540.266 239.859 540.266ZM239.877 537.337C240.504 537.337 241.028 537.159 241.448 536.804C241.868 536.443 242.185 535.952 242.398 535.33C242.617 534.709 242.726 534.002 242.726 533.208C242.726 532.415 242.617 531.708 242.398 531.087C242.185 530.465 241.868 529.974 241.448 529.613C241.028 529.252 240.504 529.071 239.877 529.071C239.243 529.071 238.711 529.252 238.279 529.613C237.853 529.974 237.53 530.465 237.311 531.087C237.098 531.708 236.991 532.415 236.991 533.208C236.991 534.002 237.098 534.709 237.311 535.33C237.53 535.952 237.853 536.443 238.279 536.804C238.711 537.159 239.243 537.337 239.877 537.337ZM261.303 526.364L256.536 540H252.275L247.507 526.364H251.502L254.334 536.12H254.476L257.299 526.364H261.303ZM269.014 540.266C267.611 540.266 266.404 539.982 265.392 539.414C264.385 538.84 263.61 538.029 263.066 536.982C262.521 535.928 262.249 534.682 262.249 533.244C262.249 531.841 262.521 530.61 263.066 529.551C263.61 528.491 264.377 527.666 265.365 527.074C266.359 526.482 267.525 526.186 268.863 526.186C269.762 526.186 270.6 526.331 271.375 526.621C272.157 526.905 272.837 527.334 273.417 527.908C274.003 528.482 274.459 529.205 274.784 530.075C275.11 530.939 275.273 531.951 275.273 533.111V534.15H263.758V531.806H271.713C271.713 531.261 271.594 530.779 271.358 530.359C271.121 529.938 270.792 529.61 270.372 529.373C269.958 529.131 269.475 529.009 268.925 529.009C268.351 529.009 267.842 529.142 267.398 529.409C266.96 529.669 266.617 530.021 266.368 530.465C266.12 530.903 265.992 531.391 265.986 531.93V534.158C265.986 534.833 266.111 535.416 266.359 535.907C266.614 536.399 266.972 536.777 267.434 537.044C267.895 537.31 268.443 537.443 269.076 537.443C269.496 537.443 269.881 537.384 270.23 537.266C270.579 537.147 270.878 536.97 271.127 536.733C271.375 536.496 271.565 536.206 271.695 535.863L275.193 536.094C275.015 536.934 274.651 537.668 274.101 538.295C273.556 538.917 272.852 539.402 271.988 539.751C271.13 540.095 270.138 540.266 269.014 540.266ZM277.741 540V526.364H281.407V528.743H281.549C281.798 527.897 282.215 527.257 282.801 526.825C283.387 526.387 284.062 526.168 284.825 526.168C285.015 526.168 285.219 526.18 285.438 526.204C285.657 526.228 285.849 526.26 286.015 526.301V529.657C285.837 529.604 285.592 529.557 285.278 529.515C284.964 529.474 284.677 529.453 284.417 529.453C283.86 529.453 283.363 529.574 282.925 529.817C282.493 530.054 282.15 530.385 281.896 530.811C281.647 531.238 281.523 531.729 281.523 532.285V540H277.741Z" fill="black"/>
<path d="M140.064 143L135.49 126.273H137.548L141.044 139.896H141.207L144.768 126.273H147.055L150.616 139.896H150.78L154.276 126.273H156.334L151.76 143H149.669L145.977 129.67H145.847L142.155 143H140.064ZM158.596 143V130.455H160.524V143H158.596ZM159.576 128.364C159.201 128.364 158.877 128.236 158.604 127.98C158.338 127.724 158.204 127.416 158.204 127.057C158.204 126.697 158.338 126.39 158.604 126.134C158.877 125.878 159.201 125.75 159.576 125.75C159.952 125.75 160.273 125.878 160.54 126.134C160.812 126.39 160.949 126.697 160.949 127.057C160.949 127.416 160.812 127.724 160.54 127.98C160.273 128.236 159.952 128.364 159.576 128.364ZM165.982 126.273V143H164.054V126.273H165.982ZM169.512 143V130.455H171.374V132.415H171.538C171.799 131.745 172.221 131.225 172.804 130.855C173.386 130.479 174.086 130.291 174.903 130.291C175.731 130.291 176.419 130.479 176.969 130.855C177.525 131.225 177.958 131.745 178.268 132.415H178.399C178.72 131.767 179.202 131.252 179.844 130.871C180.487 130.484 181.257 130.291 182.156 130.291C183.277 130.291 184.195 130.642 184.908 131.345C185.622 132.042 185.978 133.128 185.978 134.604V143H184.051V134.604C184.051 133.678 183.797 133.016 183.291 132.619C182.785 132.221 182.188 132.023 181.502 132.023C180.62 132.023 179.937 132.29 179.452 132.823C178.968 133.351 178.725 134.021 178.725 134.832V143H176.765V134.408C176.765 133.694 176.534 133.12 176.071 132.684C175.608 132.243 175.012 132.023 174.282 132.023C173.781 132.023 173.313 132.156 172.877 132.423C172.447 132.69 172.099 133.06 171.832 133.534C171.57 134.002 171.44 134.544 171.44 135.159V143H169.512ZM189.502 143V130.455H191.43V143H189.502ZM190.483 128.364C190.107 128.364 189.783 128.236 189.511 127.98C189.244 127.724 189.11 127.416 189.11 127.057C189.11 126.697 189.244 126.39 189.511 126.134C189.783 125.878 190.107 125.75 190.483 125.75C190.858 125.75 191.18 125.878 191.446 126.134C191.719 126.39 191.855 126.697 191.855 127.057C191.855 127.416 191.719 127.724 191.446 127.98C191.18 128.236 190.858 128.364 190.483 128.364ZM196.888 135.453V143H194.96V130.455H196.823V132.415H196.986C197.28 131.778 197.727 131.266 198.326 130.879C198.925 130.487 199.698 130.291 200.645 130.291C201.495 130.291 202.238 130.465 202.875 130.814C203.512 131.157 204.007 131.68 204.361 132.382C204.715 133.079 204.892 133.961 204.892 135.028V143H202.965V135.159C202.965 134.174 202.709 133.406 202.197 132.856C201.685 132.3 200.983 132.023 200.09 132.023C199.474 132.023 198.925 132.156 198.44 132.423C197.961 132.69 197.582 133.079 197.305 133.591C197.027 134.103 196.888 134.723 196.888 135.453ZM213.479 147.966C212.547 147.966 211.747 147.846 211.077 147.607C210.407 147.372 209.849 147.062 209.403 146.675C208.962 146.294 208.611 145.886 208.349 145.45L209.885 144.372C210.059 144.601 210.28 144.862 210.546 145.156C210.813 145.456 211.178 145.714 211.641 145.932C212.109 146.155 212.722 146.267 213.479 146.267C214.491 146.267 215.327 146.022 215.986 145.532C216.645 145.042 216.974 144.274 216.974 143.229V140.68H216.811C216.669 140.909 216.468 141.192 216.206 141.53C215.951 141.862 215.58 142.159 215.096 142.42C214.617 142.676 213.969 142.804 213.152 142.804C212.139 142.804 211.23 142.564 210.424 142.085C209.623 141.606 208.989 140.909 208.521 139.994C208.058 139.08 207.827 137.969 207.827 136.662C207.827 135.377 208.052 134.258 208.504 133.305C208.956 132.347 209.585 131.606 210.391 131.083C211.197 130.555 212.128 130.291 213.184 130.291C214.001 130.291 214.649 130.427 215.128 130.7C215.613 130.966 215.983 131.271 216.239 131.614C216.501 131.952 216.702 132.23 216.844 132.447H217.04V130.455H218.902V143.359C218.902 144.438 218.657 145.314 218.167 145.989C217.682 146.67 217.029 147.168 216.206 147.484C215.39 147.805 214.48 147.966 213.479 147.966ZM213.413 141.072C214.186 141.072 214.84 140.895 215.373 140.542C215.907 140.188 216.313 139.679 216.59 139.014C216.868 138.35 217.007 137.555 217.007 136.629C217.007 135.725 216.871 134.928 216.599 134.236C216.326 133.545 215.923 133.003 215.39 132.611C214.856 132.219 214.197 132.023 213.413 132.023C212.596 132.023 211.916 132.23 211.371 132.643C210.832 133.057 210.427 133.613 210.154 134.31C209.887 135.007 209.754 135.78 209.754 136.629C209.754 137.5 209.89 138.271 210.162 138.941C210.44 139.605 210.849 140.128 211.388 140.509C211.932 140.885 212.607 141.072 213.413 141.072ZM227.886 130.455V132.088H221.385V130.455H227.886ZM223.28 127.449H225.207V139.406C225.207 139.951 225.286 140.359 225.444 140.631C225.607 140.898 225.814 141.078 226.065 141.17C226.321 141.258 226.59 141.301 226.873 141.301C227.086 141.301 227.26 141.29 227.396 141.268C227.532 141.241 227.641 141.219 227.723 141.203L228.115 142.935C227.984 142.984 227.802 143.033 227.568 143.082C227.334 143.136 227.037 143.163 226.677 143.163C226.133 143.163 225.599 143.046 225.077 142.812C224.559 142.578 224.129 142.221 223.786 141.742C223.448 141.263 223.28 140.659 223.28 139.929V127.449ZM235.748 143.261C234.615 143.261 233.621 142.992 232.766 142.453C231.917 141.914 231.253 141.16 230.773 140.19C230.3 139.221 230.063 138.089 230.063 136.793C230.063 135.486 230.3 134.345 230.773 133.37C231.253 132.396 231.917 131.639 232.766 131.1C233.621 130.561 234.615 130.291 235.748 130.291C236.88 130.291 237.871 130.561 238.721 131.1C239.575 131.639 240.24 132.396 240.713 133.37C241.193 134.345 241.432 135.486 241.432 136.793C241.432 138.089 241.193 139.221 240.713 140.19C240.24 141.16 239.575 141.914 238.721 142.453C237.871 142.992 236.88 143.261 235.748 143.261ZM235.748 141.53C236.608 141.53 237.316 141.309 237.871 140.868C238.426 140.427 238.838 139.847 239.104 139.129C239.371 138.41 239.505 137.631 239.505 136.793C239.505 135.954 239.371 135.173 239.104 134.449C238.838 133.724 238.426 133.139 237.871 132.692C237.316 132.246 236.608 132.023 235.748 132.023C234.887 132.023 234.179 132.246 233.624 132.692C233.069 133.139 232.657 133.724 232.391 134.449C232.124 135.173 231.99 135.954 231.99 136.793C231.99 137.631 232.124 138.41 232.391 139.129C232.657 139.847 233.069 140.427 233.624 140.868C234.179 141.309 234.887 141.53 235.748 141.53ZM246.302 135.453V143H244.375V130.455H246.237V132.415H246.4C246.694 131.778 247.141 131.266 247.74 130.879C248.339 130.487 249.112 130.291 250.059 130.291C250.909 130.291 251.652 130.465 252.289 130.814C252.926 131.157 253.422 131.68 253.775 132.382C254.129 133.079 254.306 133.961 254.306 135.028V143H252.379V135.159C252.379 134.174 252.123 133.406 251.611 132.856C251.099 132.3 250.397 132.023 249.504 132.023C248.889 132.023 248.339 132.156 247.854 132.423C247.375 132.69 246.996 133.079 246.719 133.591C246.441 134.103 246.302 134.723 246.302 135.453Z" fill="black"/>
<path d="M131.29 202.273V219H129.33L120.214 205.866H120.051V219H118.026V202.273H119.986L129.134 215.439H129.297V202.273H131.29ZM140.342 219.261C139.133 219.261 138.09 218.995 137.213 218.461C136.342 217.922 135.67 217.17 135.196 216.207C134.728 215.237 134.494 214.11 134.494 212.825C134.494 211.54 134.728 210.408 135.196 209.428C135.67 208.442 136.329 207.674 137.172 207.124C138.022 206.569 139.013 206.291 140.146 206.291C140.799 206.291 141.444 206.4 142.081 206.618C142.718 206.836 143.298 207.19 143.821 207.68C144.344 208.164 144.76 208.807 145.071 209.607C145.381 210.408 145.536 211.393 145.536 212.564V213.381H135.866V211.714H143.576C143.576 211.007 143.434 210.375 143.151 209.82C142.873 209.264 142.476 208.826 141.959 208.505C141.447 208.183 140.842 208.023 140.146 208.023C139.378 208.023 138.713 208.213 138.153 208.594C137.597 208.97 137.17 209.46 136.87 210.065C136.571 210.669 136.421 211.317 136.421 212.009V213.119C136.421 214.067 136.584 214.87 136.911 215.529C137.243 216.182 137.703 216.68 138.291 217.023C138.88 217.361 139.563 217.53 140.342 217.53C140.848 217.53 141.305 217.459 141.714 217.317C142.128 217.17 142.484 216.953 142.784 216.664C143.083 216.37 143.315 216.005 143.478 215.57L145.34 216.092C145.144 216.724 144.815 217.279 144.352 217.759C143.889 218.232 143.317 218.603 142.637 218.869C141.956 219.131 141.191 219.261 140.342 219.261ZM151.311 219L147.488 206.455H149.514L152.225 216.06H152.356L155.035 206.455H157.093L159.74 216.027H159.87L162.582 206.455H164.608L160.785 219H158.89L156.146 209.362H155.95L153.206 219H151.311ZM170.848 219.294C170.053 219.294 169.331 219.144 168.683 218.845C168.035 218.54 167.521 218.102 167.139 217.53C166.758 216.953 166.568 216.256 166.568 215.439C166.568 214.72 166.709 214.138 166.992 213.691C167.276 213.239 167.654 212.885 168.128 212.629C168.601 212.373 169.124 212.183 169.696 212.058C170.273 211.927 170.853 211.823 171.436 211.747C172.198 211.649 172.816 211.576 173.29 211.527C173.769 211.472 174.117 211.382 174.335 211.257C174.558 211.132 174.67 210.914 174.67 210.604V210.538C174.67 209.732 174.449 209.106 174.008 208.66C173.573 208.213 172.911 207.99 172.024 207.99C171.103 207.99 170.382 208.192 169.859 208.594C169.337 208.997 168.969 209.428 168.757 209.885L166.927 209.232C167.254 208.469 167.689 207.876 168.234 207.451C168.784 207.021 169.383 206.721 170.031 206.553C170.684 206.378 171.327 206.291 171.958 206.291C172.361 206.291 172.824 206.34 173.347 206.438C173.875 206.531 174.384 206.724 174.874 207.018C175.37 207.312 175.781 207.756 176.108 208.349C176.434 208.943 176.598 209.738 176.598 210.734V219H174.67V217.301H174.572C174.441 217.573 174.224 217.865 173.919 218.175C173.614 218.485 173.208 218.75 172.702 218.967C172.195 219.185 171.577 219.294 170.848 219.294ZM171.142 217.562C171.904 217.562 172.546 217.413 173.069 217.113C173.597 216.814 173.995 216.427 174.262 215.953C174.534 215.48 174.67 214.982 174.67 214.459V212.695C174.588 212.793 174.409 212.882 174.131 212.964C173.859 213.04 173.543 213.108 173.184 213.168C172.83 213.223 172.484 213.272 172.146 213.315C171.814 213.353 171.545 213.386 171.338 213.413C170.837 213.479 170.368 213.585 169.933 213.732C169.503 213.873 169.154 214.089 168.887 214.377C168.626 214.66 168.495 215.047 168.495 215.537C168.495 216.207 168.743 216.713 169.239 217.056C169.739 217.394 170.374 217.562 171.142 217.562ZM180.116 219V206.455H181.978V208.349H182.109C182.337 207.729 182.751 207.225 183.35 206.838C183.949 206.452 184.624 206.259 185.376 206.259C185.517 206.259 185.694 206.261 185.907 206.267C186.119 206.272 186.28 206.28 186.388 206.291V208.251C186.323 208.235 186.173 208.211 185.939 208.178C185.711 208.14 185.468 208.121 185.212 208.121C184.603 208.121 184.058 208.249 183.579 208.505C183.105 208.755 182.729 209.104 182.452 209.55C182.179 209.991 182.043 210.495 182.043 211.061V219H180.116ZM190.47 214.426L190.438 212.041H190.83L196.318 206.455H198.703L192.855 212.368H192.692L190.47 214.426ZM188.673 219V202.273H190.601V219H188.673ZM196.645 219L191.744 212.793L193.117 211.453L199.095 219H196.645Z" fill="black"/>
<path d="M126.026 361.273H128.443L134.128 375.158H134.324L140.009 361.273H142.426V378H140.531V365.291H140.368L135.141 378H133.311L128.084 365.291H127.92V378H126.026V361.273ZM146.226 378V365.455H148.154V378H146.226ZM147.206 363.364C146.831 363.364 146.507 363.236 146.234 362.98C145.967 362.724 145.834 362.416 145.834 362.057C145.834 361.697 145.967 361.39 146.234 361.134C146.507 360.878 146.831 360.75 147.206 360.75C147.582 360.75 147.903 360.878 148.17 361.134C148.442 361.39 148.578 361.697 148.578 362.057C148.578 362.416 148.442 362.724 148.17 362.98C147.903 363.236 147.582 363.364 147.206 363.364ZM156.421 378.261C155.376 378.261 154.453 377.997 153.653 377.469C152.852 376.935 152.226 376.184 151.774 375.215C151.322 374.24 151.096 373.089 151.096 371.76C151.096 370.442 151.322 369.299 151.774 368.33C152.226 367.36 152.855 366.612 153.661 366.083C154.467 365.555 155.398 365.291 156.454 365.291C157.271 365.291 157.916 365.427 158.39 365.7C158.869 365.966 159.234 366.271 159.484 366.614C159.74 366.952 159.939 367.23 160.08 367.447H160.244V361.273H162.171V378H160.309V376.072H160.08C159.939 376.301 159.737 376.59 159.476 376.938C159.215 377.281 158.842 377.589 158.357 377.861C157.872 378.128 157.227 378.261 156.421 378.261ZM156.683 376.53C157.456 376.53 158.109 376.328 158.643 375.925C159.177 375.517 159.582 374.953 159.86 374.235C160.138 373.511 160.276 372.675 160.276 371.727C160.276 370.791 160.14 369.971 159.868 369.269C159.596 368.561 159.193 368.011 158.659 367.619C158.126 367.221 157.467 367.023 156.683 367.023C155.866 367.023 155.185 367.232 154.641 367.652C154.102 368.065 153.696 368.629 153.424 369.342C153.157 370.05 153.024 370.845 153.024 371.727C153.024 372.62 153.16 373.432 153.432 374.161C153.71 374.885 154.118 375.463 154.657 375.893C155.202 376.317 155.877 376.53 156.683 376.53ZM170.706 378.261C169.661 378.261 168.738 377.997 167.938 377.469C167.137 376.935 166.511 376.184 166.059 375.215C165.607 374.24 165.381 373.089 165.381 371.76C165.381 370.442 165.607 369.299 166.059 368.33C166.511 367.36 167.14 366.612 167.946 366.083C168.752 365.555 169.683 365.291 170.739 365.291C171.556 365.291 172.201 365.427 172.675 365.7C173.154 365.966 173.519 366.271 173.769 366.614C174.025 366.952 174.224 367.23 174.366 367.447H174.529V361.273H176.456V378H174.594V376.072H174.366C174.224 376.301 174.023 376.59 173.761 376.938C173.5 377.281 173.127 377.589 172.642 377.861C172.158 378.128 171.512 378.261 170.706 378.261ZM170.968 376.53C171.741 376.53 172.394 376.328 172.928 375.925C173.462 375.517 173.867 374.953 174.145 374.235C174.423 373.511 174.562 372.675 174.562 371.727C174.562 370.791 174.425 369.971 174.153 369.269C173.881 368.561 173.478 368.011 172.944 367.619C172.411 367.221 171.752 367.023 170.968 367.023C170.151 367.023 169.47 367.232 168.926 367.652C168.387 368.065 167.981 368.629 167.709 369.342C167.442 370.05 167.309 370.845 167.309 371.727C167.309 372.62 167.445 373.432 167.717 374.161C167.995 374.885 168.403 375.463 168.942 375.893C169.487 376.317 170.162 376.53 170.968 376.53ZM182.182 361.273V378H180.254V361.273H182.182ZM190.972 378.261C189.764 378.261 188.721 377.995 187.844 377.461C186.973 376.922 186.301 376.17 185.827 375.207C185.359 374.237 185.124 373.11 185.124 371.825C185.124 370.54 185.359 369.408 185.827 368.428C186.301 367.442 186.959 366.674 187.803 366.124C188.653 365.569 189.644 365.291 190.776 365.291C191.43 365.291 192.075 365.4 192.712 365.618C193.349 365.836 193.929 366.19 194.452 366.68C194.975 367.164 195.391 367.807 195.701 368.607C196.012 369.408 196.167 370.393 196.167 371.564V372.381H186.497V370.714H194.207C194.207 370.007 194.065 369.375 193.782 368.82C193.504 368.264 193.107 367.826 192.59 367.505C192.078 367.183 191.473 367.023 190.776 367.023C190.009 367.023 189.344 367.213 188.783 367.594C188.228 367.97 187.801 368.46 187.501 369.065C187.202 369.669 187.052 370.317 187.052 371.009V372.119C187.052 373.067 187.215 373.87 187.542 374.529C187.874 375.182 188.334 375.68 188.922 376.023C189.51 376.361 190.194 376.53 190.972 376.53C191.479 376.53 191.936 376.459 192.345 376.317C192.758 376.17 193.115 375.953 193.415 375.664C193.714 375.37 193.945 375.005 194.109 374.57L195.971 375.092C195.775 375.724 195.446 376.279 194.983 376.759C194.52 377.232 193.948 377.603 193.267 377.869C192.587 378.131 191.822 378.261 190.972 378.261ZM204.555 365.455V367.088H198.054V365.455H204.555ZM199.949 362.449H201.876V374.406C201.876 374.951 201.955 375.359 202.113 375.631C202.276 375.898 202.483 376.078 202.734 376.17C202.99 376.258 203.259 376.301 203.542 376.301C203.755 376.301 203.929 376.29 204.065 376.268C204.201 376.241 204.31 376.219 204.392 376.203L204.784 377.935C204.653 377.984 204.471 378.033 204.237 378.082C204.002 378.136 203.706 378.163 203.346 378.163C202.802 378.163 202.268 378.046 201.745 377.812C201.228 377.578 200.798 377.221 200.455 376.742C200.117 376.263 199.949 375.659 199.949 374.929V362.449ZM212.416 378.261C211.284 378.261 210.29 377.992 209.435 377.453C208.586 376.914 207.922 376.16 207.442 375.19C206.969 374.221 206.732 373.089 206.732 371.793C206.732 370.486 206.969 369.345 207.442 368.37C207.922 367.396 208.586 366.639 209.435 366.1C210.29 365.561 211.284 365.291 212.416 365.291C213.549 365.291 214.54 365.561 215.389 366.1C216.244 366.639 216.909 367.396 217.382 368.37C217.862 369.345 218.101 370.486 218.101 371.793C218.101 373.089 217.862 374.221 217.382 375.19C216.909 376.16 216.244 376.914 215.389 377.453C214.54 377.992 213.549 378.261 212.416 378.261ZM212.416 376.53C213.277 376.53 213.985 376.309 214.54 375.868C215.095 375.427 215.507 374.847 215.773 374.129C216.04 373.41 216.174 372.631 216.174 371.793C216.174 370.954 216.04 370.173 215.773 369.449C215.507 368.724 215.095 368.139 214.54 367.692C213.985 367.246 213.277 367.023 212.416 367.023C211.556 367.023 210.848 367.246 210.293 367.692C209.737 368.139 209.326 368.724 209.06 369.449C208.793 370.173 208.659 370.954 208.659 371.793C208.659 372.631 208.793 373.41 209.06 374.129C209.326 374.847 209.737 375.427 210.293 375.868C210.848 376.309 211.556 376.53 212.416 376.53ZM223.459 378L219.637 365.455H221.662L224.374 375.06H224.505L227.184 365.455H229.242L231.888 375.027H232.019L234.73 365.455H236.756L232.934 378H231.039L228.294 368.362H228.098L225.354 378H223.459ZM241.232 370.453V378H239.304V365.455H241.166V367.415H241.33C241.624 366.778 242.07 366.266 242.669 365.879C243.268 365.487 244.041 365.291 244.989 365.291C245.838 365.291 246.582 365.465 247.219 365.814C247.856 366.157 248.351 366.68 248.705 367.382C249.059 368.079 249.236 368.961 249.236 370.028V378H247.309V370.159C247.309 369.174 247.053 368.406 246.541 367.856C246.029 367.3 245.326 367.023 244.434 367.023C243.818 367.023 243.268 367.156 242.784 367.423C242.304 367.69 241.926 368.079 241.648 368.591C241.371 369.103 241.232 369.723 241.232 370.453Z" fill="black"/>
<path d="M315.026 768.273H317.443L323.128 782.158H323.324L329.009 768.273H331.426V785H329.531V772.291H329.368L324.141 785H322.311L317.084 772.291H316.92V785H315.026V768.273ZM335.226 785V772.455H337.154V785H335.226ZM336.206 770.364C335.831 770.364 335.507 770.236 335.234 769.98C334.967 769.724 334.834 769.416 334.834 769.057C334.834 768.697 334.967 768.39 335.234 768.134C335.507 767.878 335.831 767.75 336.206 767.75C336.582 767.75 336.903 767.878 337.17 768.134C337.442 768.39 337.578 768.697 337.578 769.057C337.578 769.416 337.442 769.724 337.17 769.98C336.903 770.236 336.582 770.364 336.206 770.364ZM342.612 768.273V785H340.684V768.273H342.612ZM351.598 772.455V774.088H345.097V772.455H351.598ZM346.992 769.449H348.919V781.406C348.919 781.951 348.998 782.359 349.156 782.631C349.319 782.898 349.526 783.078 349.777 783.17C350.033 783.258 350.302 783.301 350.585 783.301C350.798 783.301 350.972 783.29 351.108 783.268C351.244 783.241 351.353 783.219 351.435 783.203L351.827 784.935C351.696 784.984 351.514 785.033 351.28 785.082C351.045 785.136 350.749 785.163 350.389 785.163C349.845 785.163 349.311 785.046 348.788 784.812C348.271 784.578 347.841 784.221 347.498 783.742C347.16 783.263 346.992 782.659 346.992 781.929V769.449ZM359.459 785.261C358.327 785.261 357.333 784.992 356.478 784.453C355.629 783.914 354.965 783.16 354.485 782.19C354.012 781.221 353.775 780.089 353.775 778.793C353.775 777.486 354.012 776.345 354.485 775.37C354.965 774.396 355.629 773.639 356.478 773.1C357.333 772.561 358.327 772.291 359.459 772.291C360.592 772.291 361.583 772.561 362.432 773.1C363.287 773.639 363.952 774.396 364.425 775.37C364.905 776.345 365.144 777.486 365.144 778.793C365.144 780.089 364.905 781.221 364.425 782.19C363.952 783.16 363.287 783.914 362.432 784.453C361.583 784.992 360.592 785.261 359.459 785.261ZM359.459 783.53C360.32 783.53 361.028 783.309 361.583 782.868C362.138 782.427 362.55 781.847 362.816 781.129C363.083 780.41 363.217 779.631 363.217 778.793C363.217 777.954 363.083 777.173 362.816 776.449C362.55 775.724 362.138 775.139 361.583 774.692C361.028 774.246 360.32 774.023 359.459 774.023C358.599 774.023 357.891 774.246 357.336 774.692C356.78 775.139 356.369 775.724 356.103 776.449C355.836 777.173 355.702 777.954 355.702 778.793C355.702 779.631 355.836 780.41 356.103 781.129C356.369 781.847 356.78 782.427 357.336 782.868C357.891 783.309 358.599 783.53 359.459 783.53ZM370.014 777.453V785H368.086V772.455H369.949V774.415H370.112C370.406 773.778 370.853 773.266 371.452 772.879C372.05 772.487 372.824 772.291 373.771 772.291C374.621 772.291 375.364 772.465 376.001 772.814C376.638 773.157 377.133 773.68 377.487 774.382C377.841 775.079 378.018 775.961 378.018 777.028V785H376.091V777.159C376.091 776.174 375.835 775.406 375.323 774.856C374.811 774.3 374.109 774.023 373.216 774.023C372.6 774.023 372.05 774.156 371.566 774.423C371.087 774.69 370.708 775.079 370.431 775.591C370.153 776.103 370.014 776.723 370.014 777.453Z" fill="black"/>
<path d="M305.026 883.273H307.443L313.128 897.158H313.324L319.009 883.273H321.426V900H319.531V887.291H319.368L314.141 900H312.311L307.084 887.291H306.92V900H305.026V883.273ZM325.226 900V887.455H327.154V900H325.226ZM326.206 885.364C325.831 885.364 325.507 885.236 325.234 884.98C324.967 884.724 324.834 884.416 324.834 884.057C324.834 883.697 324.967 883.39 325.234 883.134C325.507 882.878 325.831 882.75 326.206 882.75C326.582 882.75 326.903 882.878 327.17 883.134C327.442 883.39 327.578 883.697 327.578 884.057C327.578 884.416 327.442 884.724 327.17 884.98C326.903 885.236 326.582 885.364 326.206 885.364ZM332.612 883.273V900H330.684V883.273H332.612ZM338.07 883.273V900H336.142V883.273H338.07ZM350.487 890.264L348.755 890.754C348.646 890.466 348.485 890.185 348.273 889.913C348.066 889.635 347.783 889.407 347.424 889.227C347.064 889.047 346.604 888.957 346.043 888.957C345.276 888.957 344.636 889.134 344.124 889.488C343.618 889.837 343.364 890.281 343.364 890.82C343.364 891.299 343.539 891.677 343.887 891.955C344.236 892.233 344.78 892.464 345.521 892.649L347.383 893.107C348.504 893.379 349.34 893.795 349.89 894.356C350.44 894.912 350.715 895.628 350.715 896.504C350.715 897.223 350.508 897.866 350.094 898.432C349.686 898.998 349.114 899.445 348.379 899.771C347.644 900.098 346.789 900.261 345.815 900.261C344.535 900.261 343.476 899.984 342.637 899.428C341.799 898.873 341.268 898.062 341.045 896.994L342.874 896.537C343.049 897.212 343.378 897.719 343.863 898.056C344.353 898.394 344.992 898.562 345.782 898.562C346.68 898.562 347.394 898.372 347.922 897.991C348.455 897.604 348.722 897.141 348.722 896.602C348.722 896.167 348.57 895.802 348.265 895.508C347.96 895.208 347.492 894.985 346.86 894.838L344.769 894.348C343.62 894.076 342.776 893.654 342.237 893.082C341.704 892.505 341.437 891.783 341.437 890.918C341.437 890.21 341.636 889.584 342.033 889.039C342.436 888.495 342.983 888.067 343.675 887.757C344.372 887.446 345.161 887.291 346.043 887.291C347.285 887.291 348.259 887.563 348.967 888.108C349.681 888.652 350.187 889.371 350.487 890.264ZM353.878 900V883.273H355.806V889.447H355.969C356.111 889.23 356.307 888.952 356.557 888.614C356.813 888.271 357.178 887.966 357.652 887.7C358.131 887.427 358.779 887.291 359.595 887.291C360.652 887.291 361.583 887.555 362.389 888.083C363.195 888.612 363.824 889.36 364.275 890.33C364.727 891.299 364.953 892.442 364.953 893.76C364.953 895.089 364.727 896.24 364.275 897.215C363.824 898.184 363.197 898.935 362.397 899.469C361.597 899.997 360.674 900.261 359.628 900.261C358.822 900.261 358.177 900.128 357.692 899.861C357.208 899.589 356.835 899.281 356.573 898.938C356.312 898.59 356.111 898.301 355.969 898.072H355.74V900H353.878ZM355.773 893.727C355.773 894.675 355.912 895.511 356.19 896.235C356.467 896.953 356.873 897.517 357.407 897.925C357.94 898.328 358.594 898.53 359.367 898.53C360.173 898.53 360.845 898.317 361.384 897.893C361.929 897.463 362.337 896.885 362.609 896.161C362.887 895.432 363.026 894.62 363.026 893.727C363.026 892.845 362.89 892.05 362.617 891.342C362.351 890.629 361.945 890.065 361.4 889.652C360.861 889.232 360.184 889.023 359.367 889.023C358.583 889.023 357.924 889.221 357.39 889.619C356.857 890.011 356.454 890.561 356.181 891.269C355.909 891.971 355.773 892.791 355.773 893.727ZM372.998 900.261C371.866 900.261 370.872 899.992 370.017 899.453C369.168 898.914 368.504 898.16 368.024 897.19C367.551 896.221 367.314 895.089 367.314 893.793C367.314 892.486 367.551 891.345 368.024 890.37C368.504 889.396 369.168 888.639 370.017 888.1C370.872 887.561 371.866 887.291 372.998 887.291C374.131 887.291 375.122 887.561 375.972 888.1C376.826 888.639 377.491 889.396 377.964 890.37C378.444 891.345 378.683 892.486 378.683 893.793C378.683 895.089 378.444 896.221 377.964 897.19C377.491 898.16 376.826 898.914 375.972 899.453C375.122 899.992 374.131 900.261 372.998 900.261ZM372.998 898.53C373.859 898.53 374.567 898.309 375.122 897.868C375.677 897.427 376.089 896.847 376.355 896.129C376.622 895.41 376.756 894.631 376.756 893.793C376.756 892.954 376.622 892.173 376.355 891.449C376.089 890.724 375.677 890.139 375.122 889.692C374.567 889.246 373.859 889.023 372.998 889.023C372.138 889.023 371.43 889.246 370.875 889.692C370.32 890.139 369.908 890.724 369.642 891.449C369.375 892.173 369.241 892.954 369.241 893.793C369.241 894.631 369.375 895.41 369.642 896.129C369.908 896.847 370.32 897.427 370.875 897.868C371.43 898.309 372.138 898.53 372.998 898.53ZM381.626 900V887.455H383.488V889.349H383.618C383.847 888.729 384.261 888.225 384.86 887.838C385.459 887.452 386.134 887.259 386.885 887.259C387.027 887.259 387.204 887.261 387.416 887.267C387.629 887.272 387.789 887.28 387.898 887.291V889.251C387.833 889.235 387.683 889.211 387.449 889.178C387.22 889.14 386.978 889.121 386.722 889.121C386.112 889.121 385.568 889.249 385.089 889.505C384.615 889.755 384.239 890.104 383.961 890.55C383.689 890.991 383.553 891.495 383.553 892.061V900H381.626ZM394.898 900.261C393.765 900.261 392.772 899.992 391.917 899.453C391.067 898.914 390.403 898.16 389.924 897.19C389.45 896.221 389.213 895.089 389.213 893.793C389.213 892.486 389.45 891.345 389.924 890.37C390.403 889.396 391.067 888.639 391.917 888.1C392.772 887.561 393.765 887.291 394.898 887.291C396.03 887.291 397.021 887.561 397.871 888.1C398.726 888.639 399.39 889.396 399.864 890.37C400.343 891.345 400.583 892.486 400.583 893.793C400.583 895.089 400.343 896.221 399.864 897.19C399.39 898.16 398.726 898.914 397.871 899.453C397.021 899.992 396.03 900.261 394.898 900.261ZM394.898 898.53C395.758 898.53 396.466 898.309 397.021 897.868C397.577 897.427 397.988 896.847 398.255 896.129C398.522 895.41 398.655 894.631 398.655 893.793C398.655 892.954 398.522 892.173 398.255 891.449C397.988 890.724 397.577 890.139 397.021 889.692C396.466 889.246 395.758 889.023 394.898 889.023C394.038 889.023 393.33 889.246 392.774 889.692C392.219 890.139 391.808 890.724 391.541 891.449C391.274 892.173 391.141 892.954 391.141 893.793C391.141 894.631 391.274 895.41 391.541 896.129C391.808 896.847 392.219 897.427 392.774 897.868C393.33 898.309 394.038 898.53 394.898 898.53Z" fill="black"/>
<circle cx="212.511" cy="162.511" r="9.01136" fill="#FFE587" stroke="black"/>
<circle cx="134.511" cy="181.511" r="9.01136" fill="#FFE587" stroke="black"/>
<circle cx="149.511" cy="327.511" r="9.01136" fill="#FFE587" stroke="black"/>
<circle cx="339.511" cy="747.511" r="9.01136" fill="#FFE587" stroke="black"/>
<circle cx="352.511" cy="865.511" r="9.01136" fill="#FFE587" stroke="black"/>
<circle cx="208.511" cy="422.511" r="9.01136" fill="#FFE587" stroke="black"/>
<defs>
<filter id="filter0_d_91_251" x="109.987" y="78.5" width="368.018" height="882.5" filterUnits="userSpaceOnUse" color-interpolation-filters="sRGB">
<feFlood flood-opacity="0" result="BackgroundImageFix"/>
<feColorMatrix in="SourceAlpha" type="matrix" values="0 0 0 0 0 0 0 0 0 0 0 0 0 0 0 0 0 0 127 0" result="hardAlpha"/>
<feOffset dy="4"/>
<feGaussianBlur stdDeviation="2"/>
<feComposite in2="hardAlpha" operator="out"/>
<feColorMatrix type="matrix" values="0 0 0 0 0 0 0 0 0 0 0 0 0 0 0 0 0 0 0.25 0"/>
<feBlend mode="normal" in2="BackgroundImageFix" result="effect1_dropShadow_91_251"/>
<feBlend mode="normal" in="SourceGraphic" in2="effect1_dropShadow_91_251" result="shape"/>
</filter>
</defs>
</svg>
