<svg width="672" height="722" viewBox="0 0 672 722" fill="none" xmlns="http://www.w3.org/2000/svg">
<rect x="0.5" y="0.5" width="671" height="721" rx="35.5" fill="#97DCFF" stroke="#717171"/>
<g filter="url(#filter0_d_304_2)">
<path d="M276 46.5L82 240L73 248.5L82 260L90.5 279L105.5 296L117 320.5L130 335.5L151.5 348C155.833 349.667 165.3 353.4 168.5 355C171.7 356.6 182.833 357 188 357L202.5 359L208.5 370L218 389.5V399L224.5 416L233.5 426H239L247 435L257 450.5L265.5 444.5L280.5 459.5L291 495L299 517V530.5L293 560.5L284.5 594L279.5 622L286 644.5V661L322 661.5L325.5 661L340 662.5L614.5 386L276 46.5Z" fill="#FFD597"/>
<path d="M276 46.5L82 240L73 248.5L82 260L90.5 279L105.5 296L117 320.5L130 335.5L151.5 348C155.833 349.667 165.3 353.4 168.5 355C171.7 356.6 182.833 357 188 357L202.5 359L208.5 370L218 389.5V399L224.5 416L233.5 426H239L247 435L257 450.5L265.5 444.5L280.5 459.5L291 495L299 517V530.5L293 560.5L284.5 594L279.5 622L286 644.5V661L322 661.5L325.5 661L340 662.5L614.5 386L276 46.5Z" stroke="black"/>
</g>
<path d="M518.722 153.545H522.591L527.773 166.193H527.977L533.159 153.545H537.028V171H533.994V159.009H533.832L529.009 170.949H526.741L521.918 158.983H521.756V171H518.722V153.545ZM546.386 171H540.472V153.545H546.506C548.239 153.545 549.727 153.895 550.972 154.594C552.222 155.287 553.182 156.284 553.852 157.585C554.523 158.886 554.858 160.443 554.858 162.256C554.858 164.074 554.52 165.636 553.844 166.943C553.173 168.25 552.205 169.253 550.938 169.952C549.676 170.651 548.159 171 546.386 171ZM543.634 168.264H546.233C547.449 168.264 548.463 168.043 549.276 167.599C550.088 167.151 550.699 166.483 551.108 165.597C551.517 164.705 551.722 163.591 551.722 162.256C551.722 160.92 551.517 159.812 551.108 158.932C550.699 158.045 550.094 157.384 549.293 156.946C548.497 156.503 547.509 156.281 546.327 156.281H543.634V168.264Z" fill="#005A5E"/>
<path d="M140.057 501.545L144.599 515.284H144.778L149.312 501.545H152.79L146.636 519H142.733L136.588 501.545H140.057ZM155.291 519H151.916L158.061 501.545H161.964L168.118 519H164.743L160.081 505.125H159.945L155.291 519ZM155.402 512.156H164.607V514.696H155.402V512.156Z" fill="#005A5E"/>
<circle cx="359.511" cy="396.511" r="9.01136" fill="#00DE73" stroke="black"/>
<path d="M280.888 362.988V359.818H295.82V362.988H290.254V378H286.454V362.988H280.888ZM301.99 370.116V378H298.208V359.818H301.884V366.77H302.044C302.351 365.965 302.849 365.334 303.535 364.879C304.222 364.417 305.083 364.186 306.119 364.186C307.066 364.186 307.891 364.393 308.596 364.808C309.306 365.216 309.856 365.805 310.247 366.574C310.643 367.338 310.839 368.252 310.833 369.317V378H307.051V369.992C307.057 369.152 306.844 368.498 306.412 368.03C305.985 367.563 305.388 367.329 304.618 367.329C304.103 367.329 303.648 367.438 303.251 367.657C302.86 367.876 302.553 368.196 302.328 368.616C302.109 369.03 301.996 369.531 301.99 370.116ZM320.024 378.266C318.621 378.266 317.413 377.982 316.401 377.414C315.395 376.84 314.62 376.029 314.075 374.982C313.531 373.928 313.259 372.682 313.259 371.244C313.259 369.841 313.531 368.61 314.075 367.551C314.62 366.491 315.386 365.666 316.375 365.074C317.369 364.482 318.535 364.186 319.873 364.186C320.772 364.186 321.61 364.331 322.385 364.621C323.166 364.905 323.847 365.334 324.427 365.908C325.013 366.482 325.469 367.205 325.794 368.075C326.12 368.939 326.282 369.951 326.282 371.111V372.15H314.768V369.806H322.722C322.722 369.261 322.604 368.779 322.367 368.359C322.131 367.938 321.802 367.61 321.382 367.373C320.968 367.131 320.485 367.009 319.935 367.009C319.361 367.009 318.852 367.142 318.408 367.409C317.97 367.669 317.627 368.021 317.378 368.465C317.129 368.903 317.002 369.391 316.996 369.93V372.158C316.996 372.833 317.12 373.416 317.369 373.907C317.624 374.399 317.982 374.777 318.443 375.044C318.905 375.31 319.452 375.443 320.086 375.443C320.506 375.443 320.891 375.384 321.24 375.266C321.589 375.147 321.888 374.97 322.136 374.733C322.385 374.496 322.574 374.206 322.705 373.863L326.203 374.094C326.025 374.934 325.661 375.668 325.111 376.295C324.566 376.917 323.862 377.402 322.998 377.751C322.139 378.095 321.148 378.266 320.024 378.266ZM338.7 378L333.498 359.818H337.697L340.707 372.451H340.858L344.178 359.818H347.773L351.085 372.478H351.245L354.254 359.818H358.453L353.251 378H349.505L346.042 366.113H345.9L342.447 378H338.7ZM364.222 370.116V378H360.44V359.818H364.115V366.77H364.275C364.583 365.965 365.08 365.334 365.767 364.879C366.453 364.417 367.314 364.186 368.35 364.186C369.297 364.186 370.123 364.393 370.827 364.808C371.537 365.216 372.088 365.805 372.478 366.574C372.875 367.338 373.07 368.252 373.064 369.317V378H369.282V369.992C369.288 369.152 369.075 368.498 368.643 368.03C368.217 367.563 367.619 367.329 366.85 367.329C366.335 367.329 365.879 367.438 365.483 367.657C365.092 367.876 364.784 368.196 364.559 368.616C364.34 369.03 364.228 369.531 364.222 370.116ZM376.04 378V364.364H379.822V378H376.04ZM377.94 362.606C377.378 362.606 376.896 362.419 376.493 362.047C376.097 361.668 375.898 361.215 375.898 360.688C375.898 360.167 376.097 359.721 376.493 359.348C376.896 358.969 377.378 358.779 377.94 358.779C378.503 358.779 378.982 358.969 379.379 359.348C379.781 359.721 379.982 360.167 379.982 360.688C379.982 361.215 379.781 361.668 379.379 362.047C378.982 362.419 378.503 362.606 377.94 362.606ZM390.105 364.364V367.205H381.893V364.364H390.105ZM383.758 361.097H387.54V373.81C387.54 374.159 387.593 374.431 387.699 374.626C387.806 374.816 387.954 374.949 388.143 375.026C388.339 375.103 388.563 375.141 388.818 375.141C388.995 375.141 389.173 375.127 389.351 375.097C389.528 375.061 389.664 375.035 389.759 375.017L390.354 377.831C390.164 377.891 389.898 377.959 389.555 378.036C389.211 378.118 388.794 378.169 388.303 378.186C387.392 378.222 386.593 378.101 385.906 377.822C385.225 377.544 384.696 377.112 384.317 376.526C383.938 375.94 383.752 375.201 383.758 374.307V361.097ZM398.637 378.266C397.234 378.266 396.027 377.982 395.015 377.414C394.008 376.84 393.233 376.029 392.689 374.982C392.144 373.928 391.872 372.682 391.872 371.244C391.872 369.841 392.144 368.61 392.689 367.551C393.233 366.491 394 365.666 394.988 365.074C395.982 364.482 397.148 364.186 398.486 364.186C399.386 364.186 400.223 364.331 400.998 364.621C401.78 364.905 402.46 365.334 403.04 365.908C403.626 366.482 404.082 367.205 404.407 368.075C404.733 368.939 404.896 369.951 404.896 371.111V372.15H393.381V369.806H401.336C401.336 369.261 401.217 368.779 400.981 368.359C400.744 367.938 400.415 367.61 399.995 367.373C399.581 367.131 399.098 367.009 398.548 367.009C397.974 367.009 397.465 367.142 397.021 367.409C396.583 367.669 396.24 368.021 395.991 368.465C395.743 368.903 395.615 369.391 395.609 369.93V372.158C395.609 372.833 395.734 373.416 395.982 373.907C396.237 374.399 396.595 374.777 397.057 375.044C397.518 375.31 398.066 375.443 398.699 375.443C399.119 375.443 399.504 375.384 399.853 375.266C400.202 375.147 400.501 374.97 400.75 374.733C400.998 374.496 401.188 374.206 401.318 373.863L404.816 374.094C404.638 374.934 404.274 375.668 403.724 376.295C403.179 376.917 402.475 377.402 401.611 377.751C400.753 378.095 399.761 378.266 398.637 378.266ZM413.221 378V359.818H417.065V367.32H424.869V359.818H428.704V378H424.869V370.489H417.065V378H413.221ZM437.963 378.266C436.584 378.266 435.392 377.973 434.386 377.387C433.385 376.796 432.613 375.973 432.069 374.919C431.524 373.86 431.252 372.632 431.252 371.235C431.252 369.826 431.524 368.595 432.069 367.542C432.613 366.482 433.385 365.66 434.386 365.074C435.392 364.482 436.584 364.186 437.963 364.186C439.342 364.186 440.532 364.482 441.532 365.074C442.538 365.66 443.314 366.482 443.858 367.542C444.403 368.595 444.675 369.826 444.675 371.235C444.675 372.632 444.403 373.86 443.858 374.919C443.314 375.973 442.538 376.796 441.532 377.387C440.532 377.973 439.342 378.266 437.963 378.266ZM437.981 375.337C438.609 375.337 439.132 375.159 439.553 374.804C439.973 374.443 440.289 373.952 440.502 373.33C440.721 372.709 440.831 372.002 440.831 371.208C440.831 370.415 440.721 369.708 440.502 369.087C440.289 368.465 439.973 367.974 439.553 367.613C439.132 367.252 438.609 367.071 437.981 367.071C437.348 367.071 436.815 367.252 436.383 367.613C435.957 367.974 435.634 368.465 435.415 369.087C435.202 369.708 435.096 370.415 435.096 371.208C435.096 372.002 435.202 372.709 435.415 373.33C435.634 373.952 435.957 374.443 436.383 374.804C436.815 375.159 437.348 375.337 437.981 375.337ZM455.879 372.194V364.364H459.661V378H456.03V375.523H455.888C455.58 376.322 455.068 376.964 454.352 377.45C453.642 377.935 452.775 378.178 451.751 378.178C450.839 378.178 450.037 377.97 449.345 377.556C448.652 377.142 448.111 376.553 447.72 375.789C447.335 375.026 447.14 374.112 447.134 373.046V364.364H450.916V372.371C450.922 373.176 451.138 373.813 451.564 374.28C451.99 374.748 452.562 374.982 453.278 374.982C453.733 374.982 454.16 374.878 454.556 374.671C454.953 374.458 455.272 374.144 455.515 373.73C455.763 373.315 455.885 372.804 455.879 372.194ZM474.032 368.252L470.57 368.465C470.51 368.169 470.383 367.903 470.188 367.666C469.992 367.424 469.735 367.231 469.415 367.089C469.102 366.941 468.726 366.867 468.288 366.867C467.702 366.867 467.208 366.991 466.805 367.24C466.403 367.483 466.202 367.808 466.202 368.217C466.202 368.542 466.332 368.817 466.592 369.042C466.853 369.267 467.3 369.448 467.933 369.584L470.401 370.081C471.727 370.353 472.715 370.791 473.366 371.395C474.017 371.999 474.343 372.792 474.343 373.774C474.343 374.668 474.079 375.452 473.552 376.127C473.032 376.801 472.315 377.328 471.404 377.707C470.498 378.08 469.454 378.266 468.27 378.266C466.465 378.266 465.027 377.891 463.956 377.139C462.89 376.381 462.266 375.351 462.082 374.049L465.802 373.854C465.915 374.404 466.187 374.825 466.619 375.115C467.051 375.399 467.604 375.541 468.279 375.541C468.942 375.541 469.475 375.414 469.877 375.159C470.285 374.899 470.493 374.564 470.498 374.156C470.493 373.813 470.348 373.531 470.063 373.312C469.779 373.088 469.341 372.916 468.75 372.798L466.388 372.327C465.056 372.061 464.065 371.599 463.414 370.942C462.769 370.285 462.446 369.448 462.446 368.43C462.446 367.554 462.683 366.799 463.157 366.166C463.636 365.533 464.308 365.044 465.172 364.701C466.042 364.358 467.06 364.186 468.226 364.186C469.948 364.186 471.303 364.55 472.292 365.278C473.286 366.006 473.866 366.997 474.032 368.252ZM482.939 378.266C481.536 378.266 480.328 377.982 479.316 377.414C478.31 376.84 477.535 376.029 476.99 374.982C476.446 373.928 476.174 372.682 476.174 371.244C476.174 369.841 476.446 368.61 476.99 367.551C477.535 366.491 478.301 365.666 479.29 365.074C480.284 364.482 481.45 364.186 482.788 364.186C483.687 364.186 484.525 364.331 485.3 364.621C486.081 364.905 486.762 365.334 487.342 365.908C487.928 366.482 488.384 367.205 488.709 368.075C489.035 368.939 489.197 369.951 489.197 371.111V372.15H477.683V369.806H485.637C485.637 369.261 485.519 368.779 485.282 368.359C485.046 367.938 484.717 367.61 484.297 367.373C483.883 367.131 483.4 367.009 482.85 367.009C482.276 367.009 481.767 367.142 481.323 367.409C480.885 367.669 480.542 368.021 480.293 368.465C480.044 368.903 479.917 369.391 479.911 369.93V372.158C479.911 372.833 480.036 373.416 480.284 373.907C480.539 374.399 480.897 374.777 481.358 375.044C481.82 375.31 482.367 375.443 483.001 375.443C483.421 375.443 483.806 375.384 484.155 375.266C484.504 375.147 484.803 374.97 485.051 374.733C485.3 374.496 485.489 374.206 485.62 373.863L489.118 374.094C488.94 374.934 488.576 375.668 488.026 376.295C487.481 376.917 486.777 377.402 485.913 377.751C485.054 378.095 484.063 378.266 482.939 378.266Z" fill="black"/>
<defs>
<filter id="filter0_d_304_2" x="68.3252" y="45.7928" width="550.88" height="625.229" filterUnits="userSpaceOnUse" color-interpolation-filters="sRGB">
<feFlood flood-opacity="0" result="BackgroundImageFix"/>
<feColorMatrix in="SourceAlpha" type="matrix" values="0 0 0 0 0 0 0 0 0 0 0 0 0 0 0 0 0 0 127 0" result="hardAlpha"/>
<feOffset dy="4"/>
<feGaussianBlur stdDeviation="2"/>
<feComposite in2="hardAlpha" operator="out"/>
<feColorMatrix type="matrix" values="0 0 0 0 0 0 0 0 0 0 0 0 0 0 0 0 0 0 0.25 0"/>
<feBlend mode="normal" in2="BackgroundImageFix" result="effect1_dropShadow_304_2"/>
<feBlend mode="normal" in="SourceGraphic" in2="effect1_dropShadow_304_2" result="shape"/>
</filter>
</defs>
</svg>
