<svg width="997" height="863" viewBox="0 0 997 863" fill="none" xmlns="http://www.w3.org/2000/svg">
<rect x="0.5" y="0.5" width="996" height="862" rx="35.5" fill="#8DDBFF" stroke="#717171"/>
<path d="M823.454 290H820.079L829.122 272.545H833.025L836.281 290H832.906L830.562 276.125H830.426L823.454 290ZM824.699 283.156H833.903L833.477 285.696H824.272L824.699 283.156ZM846.342 276.909L845.941 279.295H838.424L838.816 276.909H846.342ZM841.186 273.773H844.271L842.225 286.062C842.163 286.477 842.174 286.795 842.26 287.017C842.35 287.233 842.495 287.381 842.694 287.46C842.899 287.54 843.129 287.58 843.385 287.58C843.572 287.58 843.748 287.565 843.913 287.537C844.078 287.503 844.208 287.477 844.305 287.46L844.441 289.872C844.254 289.929 844.001 289.991 843.683 290.06C843.37 290.128 842.995 290.168 842.558 290.179C841.774 290.196 841.092 290.077 840.512 289.821C839.939 289.56 839.518 289.159 839.251 288.619C838.99 288.074 838.93 287.392 839.072 286.574L841.186 273.773ZM853.005 272.545L850.107 290H847.022L849.919 272.545H853.005ZM857.012 290.264C856.183 290.264 855.461 290.116 854.848 289.821C854.234 289.52 853.782 289.077 853.493 288.491C853.208 287.906 853.137 287.185 853.279 286.327C853.404 285.588 853.643 284.977 853.995 284.494C854.353 284.011 854.791 283.625 855.308 283.335C855.831 283.04 856.399 282.818 857.012 282.67C857.632 282.523 858.262 282.415 858.904 282.347C859.689 282.267 860.322 282.193 860.805 282.125C861.294 282.057 861.66 281.955 861.904 281.818C862.149 281.676 862.297 281.46 862.348 281.17V281.119C862.45 280.477 862.348 279.98 862.041 279.628C861.734 279.276 861.223 279.099 860.507 279.099C859.757 279.099 859.126 279.264 858.615 279.594C858.103 279.923 857.731 280.312 857.498 280.761L854.703 280.352C855.055 279.557 855.538 278.892 856.152 278.358C856.765 277.818 857.473 277.415 858.274 277.148C859.081 276.875 859.941 276.739 860.856 276.739C861.481 276.739 862.092 276.812 862.689 276.96C863.291 277.108 863.822 277.352 864.282 277.693C864.748 278.028 865.089 278.486 865.305 279.065C865.527 279.645 865.564 280.369 865.416 281.239L863.958 290H860.993L861.299 288.202H861.197C860.953 288.565 860.635 288.906 860.243 289.224C859.85 289.537 859.385 289.79 858.845 289.983C858.305 290.17 857.694 290.264 857.012 290.264ZM858.18 287.997C858.799 287.997 859.356 287.875 859.85 287.631C860.345 287.381 860.751 287.051 861.069 286.642C861.387 286.233 861.586 285.787 861.666 285.304L861.922 283.761C861.808 283.841 861.632 283.915 861.393 283.983C861.154 284.051 860.887 284.111 860.592 284.162C860.302 284.213 860.015 284.259 859.731 284.298C859.447 284.338 859.203 284.372 858.998 284.401C858.527 284.463 858.095 284.565 857.703 284.707C857.316 284.849 856.995 285.048 856.74 285.304C856.49 285.554 856.333 285.878 856.271 286.276C856.18 286.838 856.314 287.267 856.672 287.562C857.029 287.852 857.532 287.997 858.18 287.997ZM871.424 282.33L870.163 290H867.069L869.251 276.909H872.208L871.833 279.134H871.995C872.404 278.401 872.978 277.818 873.717 277.386C874.456 276.955 875.316 276.739 876.299 276.739C877.191 276.739 877.941 276.932 878.549 277.318C879.157 277.699 879.589 278.259 879.845 278.997C880.1 279.73 880.14 280.619 879.964 281.665L878.566 290H875.481L876.785 282.142C876.933 281.273 876.822 280.591 876.453 280.097C876.089 279.597 875.504 279.347 874.697 279.347C874.157 279.347 873.66 279.466 873.206 279.705C872.751 279.937 872.368 280.276 872.055 280.719C871.748 281.162 871.538 281.699 871.424 282.33ZM890.404 276.909L890.004 279.295H882.487L882.879 276.909H890.404ZM885.248 273.773H888.333L886.288 286.062C886.225 286.477 886.237 286.795 886.322 287.017C886.413 287.233 886.558 287.381 886.757 287.46C886.961 287.54 887.191 287.58 887.447 287.58C887.635 287.58 887.811 287.565 887.975 287.537C888.14 287.503 888.271 287.477 888.368 287.46L888.504 289.872C888.316 289.929 888.064 289.991 887.745 290.06C887.433 290.128 887.058 290.168 886.62 290.179C885.836 290.196 885.154 290.077 884.575 289.821C884.001 289.56 883.581 289.159 883.314 288.619C883.052 288.074 882.993 287.392 883.135 286.574L885.248 273.773ZM890.803 290L892.985 276.909H896.07L893.888 290H890.803ZM894.979 275.034C894.485 275.034 894.076 274.869 893.752 274.54C893.428 274.21 893.286 273.815 893.326 273.355C893.365 272.895 893.573 272.5 893.948 272.17C894.328 271.841 894.763 271.676 895.252 271.676C895.746 271.676 896.152 271.841 896.471 272.17C896.794 272.5 896.936 272.895 896.897 273.355C896.863 273.815 896.655 274.21 896.275 274.54C895.9 274.869 895.468 275.034 894.979 275.034ZM902.737 290.256C901.43 290.256 900.356 289.969 899.515 289.395C898.674 288.821 898.086 288.028 897.751 287.017C897.422 286 897.368 284.83 897.589 283.506C897.805 282.176 898.251 281.003 898.927 279.986C899.609 278.963 900.467 278.168 901.501 277.599C902.535 277.026 903.691 276.739 904.97 276.739C906.032 276.739 906.939 276.935 907.689 277.327C908.444 277.713 909.007 278.261 909.376 278.972C909.751 279.676 909.896 280.5 909.811 281.443H906.853C906.842 280.812 906.646 280.287 906.265 279.866C905.885 279.44 905.328 279.227 904.595 279.227C903.958 279.227 903.373 279.398 902.839 279.739C902.305 280.074 901.853 280.557 901.484 281.188C901.115 281.818 900.859 282.574 900.717 283.455C900.569 284.347 900.572 285.114 900.725 285.756C900.885 286.392 901.172 286.884 901.586 287.23C902.007 287.571 902.538 287.741 903.18 287.741C903.635 287.741 904.058 287.656 904.45 287.486C904.842 287.31 905.186 287.057 905.481 286.727C905.782 286.398 906.018 285.997 906.189 285.526H909.137C908.904 286.452 908.49 287.273 907.893 287.989C907.302 288.699 906.569 289.256 905.694 289.659C904.819 290.057 903.833 290.256 902.737 290.256ZM845.595 310.477C845.288 312.33 844.683 313.909 843.78 315.216C842.882 316.517 841.786 317.514 840.49 318.207C839.2 318.895 837.811 319.239 836.322 319.239C834.76 319.239 833.419 318.875 832.3 318.148C831.18 317.415 830.374 316.366 829.879 315.003C829.391 313.639 829.305 312.003 829.624 310.094C829.93 308.247 830.533 306.668 831.43 305.355C832.328 304.043 833.428 303.04 834.729 302.347C836.03 301.653 837.433 301.307 838.939 301.307C840.49 301.307 841.82 301.673 842.928 302.406C844.041 303.134 844.842 304.182 845.331 305.551C845.825 306.92 845.913 308.562 845.595 310.477ZM842.484 310.094C842.695 308.804 842.675 307.716 842.425 306.83C842.18 305.943 841.746 305.276 841.121 304.827C840.496 304.372 839.726 304.145 838.811 304.145C837.822 304.145 836.908 304.392 836.067 304.886C835.232 305.375 834.521 306.091 833.936 307.034C833.357 307.977 832.959 309.125 832.743 310.477C832.516 311.773 832.53 312.861 832.786 313.741C833.041 314.622 833.484 315.287 834.115 315.736C834.746 316.179 835.516 316.401 836.425 316.401C837.408 316.401 838.317 316.156 839.152 315.668C839.987 315.179 840.695 314.466 841.274 313.528C841.859 312.591 842.263 311.446 842.484 310.094ZM852.71 319.256C851.403 319.256 850.329 318.969 849.488 318.395C848.647 317.821 848.059 317.028 847.724 316.017C847.394 315 847.34 313.83 847.562 312.506C847.778 311.176 848.224 310.003 848.9 308.986C849.582 307.963 850.44 307.168 851.474 306.599C852.508 306.026 853.664 305.739 854.942 305.739C856.005 305.739 856.911 305.935 857.661 306.327C858.417 306.713 858.979 307.261 859.349 307.972C859.724 308.676 859.869 309.5 859.783 310.443H856.826C856.815 309.812 856.619 309.287 856.238 308.866C855.857 308.44 855.3 308.227 854.567 308.227C853.931 308.227 853.346 308.398 852.812 308.739C852.278 309.074 851.826 309.557 851.457 310.188C851.087 310.818 850.832 311.574 850.69 312.455C850.542 313.347 850.545 314.114 850.698 314.756C850.857 315.392 851.144 315.884 851.559 316.23C851.979 316.571 852.511 316.741 853.153 316.741C853.607 316.741 854.031 316.656 854.423 316.486C854.815 316.31 855.158 316.057 855.454 315.727C855.755 315.398 855.991 314.997 856.161 314.526H859.11C858.877 315.452 858.462 316.273 857.866 316.989C857.275 317.699 856.542 318.256 855.667 318.659C854.792 319.057 853.806 319.256 852.71 319.256ZM866.646 319.256C865.334 319.256 864.249 318.983 863.391 318.438C862.533 317.886 861.93 317.108 861.584 316.102C861.243 315.091 861.186 313.901 861.413 312.531C861.635 311.185 862.087 310.003 862.768 308.986C863.45 307.963 864.303 307.168 865.325 306.599C866.354 306.026 867.49 305.739 868.734 305.739C869.541 305.739 870.283 305.869 870.959 306.131C871.635 306.386 872.206 306.784 872.672 307.324C873.138 307.864 873.459 308.551 873.635 309.386C873.811 310.216 873.803 311.205 873.609 312.352L873.464 313.298H862.726L863.058 311.219H870.831C870.933 310.628 870.899 310.102 870.729 309.642C870.558 309.176 870.274 308.81 869.876 308.543C869.479 308.276 868.982 308.142 868.385 308.142C867.777 308.142 867.209 308.298 866.68 308.611C866.158 308.918 865.717 309.315 865.359 309.804C865.001 310.293 864.774 310.807 864.678 311.347L864.328 313.341C864.203 314.159 864.232 314.827 864.413 315.344C864.595 315.861 864.913 316.241 865.368 316.486C865.822 316.73 866.396 316.852 867.089 316.852C867.544 316.852 867.964 316.79 868.351 316.665C868.737 316.54 869.081 316.352 869.382 316.102C869.689 315.847 869.945 315.534 870.149 315.165L872.97 315.489C872.658 316.25 872.2 316.915 871.598 317.483C870.996 318.045 870.274 318.483 869.433 318.795C868.598 319.102 867.669 319.256 866.646 319.256ZM878.868 319.264C878.038 319.264 877.317 319.116 876.703 318.821C876.089 318.52 875.638 318.077 875.348 317.491C875.064 316.906 874.993 316.185 875.135 315.327C875.26 314.588 875.499 313.977 875.851 313.494C876.209 313.011 876.646 312.625 877.163 312.335C877.686 312.04 878.254 311.818 878.868 311.67C879.487 311.523 880.118 311.415 880.76 311.347C881.544 311.267 882.178 311.193 882.661 311.125C883.149 311.057 883.516 310.955 883.76 310.818C884.004 310.676 884.152 310.46 884.203 310.17V310.119C884.305 309.477 884.203 308.98 883.896 308.628C883.589 308.276 883.078 308.099 882.362 308.099C881.612 308.099 880.982 308.264 880.47 308.594C879.959 308.923 879.587 309.312 879.354 309.761L876.558 309.352C876.911 308.557 877.393 307.892 878.007 307.358C878.621 306.818 879.328 306.415 880.129 306.148C880.936 305.875 881.797 305.739 882.712 305.739C883.337 305.739 883.947 305.812 884.544 305.96C885.146 306.108 885.678 306.352 886.138 306.693C886.604 307.028 886.945 307.486 887.161 308.065C887.382 308.645 887.419 309.369 887.271 310.239L885.814 319H882.848L883.155 317.202H883.053C882.808 317.565 882.49 317.906 882.098 318.224C881.706 318.537 881.24 318.79 880.7 318.983C880.161 319.17 879.55 319.264 878.868 319.264ZM880.036 316.997C880.655 316.997 881.212 316.875 881.706 316.631C882.2 316.381 882.607 316.051 882.925 315.642C883.243 315.233 883.442 314.787 883.521 314.304L883.777 312.761C883.663 312.841 883.487 312.915 883.249 312.983C883.01 313.051 882.743 313.111 882.447 313.162C882.158 313.213 881.871 313.259 881.587 313.298C881.303 313.338 881.058 313.372 880.854 313.401C880.382 313.463 879.95 313.565 879.558 313.707C879.172 313.849 878.851 314.048 878.595 314.304C878.345 314.554 878.189 314.878 878.126 315.276C878.036 315.838 878.169 316.267 878.527 316.562C878.885 316.852 879.388 316.997 880.036 316.997ZM893.28 311.33L892.018 319H888.925L891.107 305.909H894.064L893.689 308.134H893.851C894.26 307.401 894.834 306.818 895.572 306.386C896.311 305.955 897.172 305.739 898.155 305.739C899.047 305.739 899.797 305.932 900.405 306.318C901.013 306.699 901.445 307.259 901.7 307.997C901.956 308.73 901.996 309.619 901.82 310.665L900.422 319H897.337L898.641 311.142C898.788 310.273 898.678 309.591 898.308 309.097C897.945 308.597 897.359 308.347 896.553 308.347C896.013 308.347 895.516 308.466 895.061 308.705C894.607 308.937 894.223 309.276 893.911 309.719C893.604 310.162 893.393 310.699 893.28 311.33Z" fill="#005A5E"/>
<path d="M150.963 61H147.588L153.733 43.5455H157.636L163.79 61H160.415L155.753 47.125H155.616L150.963 61ZM151.074 54.1562H160.278V56.696H151.074V54.1562ZM166.089 61V43.5455H169.251V58.3494H176.938V61H166.089Z" fill="black"/>
<path d="M512.415 75.1193C512.273 74.6591 512.077 74.2472 511.827 73.8835C511.582 73.5142 511.287 73.1989 510.94 72.9375C510.599 72.6761 510.207 72.4801 509.764 72.3494C509.321 72.2131 508.838 72.1449 508.315 72.1449C507.378 72.1449 506.543 72.3807 505.81 72.8523C505.077 73.3239 504.5 74.017 504.08 74.9318C503.665 75.8409 503.457 76.9489 503.457 78.2557C503.457 79.5739 503.665 80.6903 504.08 81.6051C504.494 82.5199 505.071 83.2159 505.81 83.6932C506.548 84.1648 507.406 84.4006 508.384 84.4006C509.27 84.4006 510.037 84.2301 510.685 83.8892C511.338 83.5483 511.841 83.0653 512.193 82.4403C512.545 81.8097 512.722 81.071 512.722 80.2244L513.438 80.3352H508.699V77.8636H515.781V79.9602C515.781 81.4545 515.463 82.7472 514.827 83.8381C514.19 84.929 513.315 85.7699 512.202 86.3608C511.088 86.946 509.81 87.2386 508.366 87.2386C506.759 87.2386 505.347 86.8778 504.131 86.1562C502.92 85.429 501.974 84.3977 501.293 83.0625C500.616 81.7216 500.278 80.1307 500.278 78.2898C500.278 76.8807 500.477 75.6222 500.875 74.5142C501.278 73.4062 501.841 72.4659 502.562 71.6932C503.284 70.9148 504.131 70.3239 505.102 69.9205C506.074 69.5114 507.131 69.3068 508.273 69.3068C509.239 69.3068 510.139 69.4489 510.974 69.733C511.81 70.0114 512.551 70.4091 513.199 70.9261C513.852 71.4432 514.389 72.0568 514.81 72.767C515.23 73.4773 515.506 74.2614 515.636 75.1193H512.415ZM520.541 87H517.166L523.311 69.5455H527.214L533.368 87H529.993L525.331 73.125H525.195L520.541 87ZM520.652 80.1562H529.857V82.696H520.652V80.1562Z" fill="black"/>
<path d="M710.409 181.331L722.387 238.937L763.516 333.83L787.645 381.002L803 402.393L790.387 411.718H778.521L790.387 438.047L815.613 496.737L830.419 535.681L851.806 582.853L854 614.667L851.806 642.641L849.065 685.968L845.774 722.723L827.677 746.858L818.856 785.417L801.856 795.127L795.323 792.769L781.065 802.806L765.161 798.418L760.226 802.806L743.774 805L732.258 792.769L734.452 779.22L737.742 774.079L730.065 752.892L709.774 720.678L692.774 709.559H677.419L670.29 694.749L662.065 680.488V662.936L658.021 646.757L639.924 636.61L637.387 628.38L635.194 620.701L637.387 597.663L635.194 582.853L627.516 587.176V602.6L613.258 597.663L600.645 582.853L594.065 562.01L589.129 551.04L581.452 537.875L576.619 520.872L581.452 511.547L585.29 501.735L591.215 493.725L602.731 477.705L591.215 462.181L571.754 458.341V470.957L576.619 489.058H566.889L559.516 484.67H554.032L551.839 479.733V468.215L557.159 456.147L559.516 447.371L563.903 422.14L571.921 403.009C571.816 400.96 571.754 397.56 571.754 392.264C571.754 365.095 568.768 348.691 563.903 337.121L557.159 317.923C549.861 315.253 533.494 315.729 531.548 315.729C529.602 315.729 522.085 302.678 512.355 286.658L495.903 272.396L491.516 250.752H484.935L462.452 224.128L447.645 214.803L426.806 199.445L414.194 204.381L395.548 207.124L393.355 218.094L388.419 224.128H369.774L351.677 238.389L337.968 244.422L324.258 247.165L290.258 250.752L288.065 231.807L268.323 214.803L250.226 199.445L218.419 181.344L177.682 167.981L155.355 165.311L163.581 159.97H192.277L182.547 151.96C179.303 152.85 172.33 154.63 170.384 154.63C168.438 154.63 158.026 159.97 153.161 159.97L141.193 165.311H102.273L104.705 159.97L109.57 157.3L102.273 151.96L87.6773 154.63L80.3797 162.64L73.082 170.651L60.9193 174.213V167.981L58.4868 162.64L60.9193 154.63L58.4868 147.336L63.7742 127.59L38 103.9L40.7419 87H50.0645H321.202L324.258 103.9L333.365 119.92L618.194 140.754L622.032 162.64H639.581V152.821V131.429L637.433 114.58L652.028 103.9L664.806 114.58L683.452 120.459L698.247 122.59C699.057 129.71 700.679 144.484 700.679 146.62C700.679 148.756 702.301 158.19 703.112 162.64L710.409 181.331Z" fill="#FFD597" stroke="black"/>
<circle cx="837.466" cy="726.511" r="9.01136" fill="#FFE587" stroke="black"/>
<path d="M771.202 690.818H773.83L780.009 705.911H780.222L786.401 690.818H789.028V709H786.969V695.186H786.791L781.109 709H779.121L773.439 695.186H773.261V709H771.202V690.818ZM793.159 709V695.364H795.254V709H793.159ZM794.224 693.091C793.816 693.091 793.464 692.952 793.168 692.674C792.878 692.395 792.733 692.061 792.733 691.67C792.733 691.28 792.878 690.945 793.168 690.667C793.464 690.389 793.816 690.25 794.224 690.25C794.633 690.25 794.982 690.389 795.272 690.667C795.568 690.945 795.716 691.28 795.716 691.67C795.716 692.061 795.568 692.395 795.272 692.674C794.982 692.952 794.633 693.091 794.224 693.091ZM803.104 709.32C802.24 709.32 801.456 709.157 800.752 708.831C800.047 708.5 799.488 708.023 799.074 707.402C798.659 706.775 798.452 706.017 798.452 705.129C798.452 704.348 798.606 703.715 798.914 703.229C799.222 702.738 799.633 702.353 800.148 702.075C800.663 701.797 801.231 701.59 801.852 701.454C802.48 701.312 803.11 701.199 803.743 701.116C804.572 701.01 805.244 700.93 805.759 700.877C806.28 700.818 806.658 700.72 806.895 700.584C807.138 700.448 807.259 700.211 807.259 699.874V699.803C807.259 698.927 807.019 698.246 806.54 697.761C806.066 697.275 805.347 697.033 804.383 697.033C803.382 697.033 802.598 697.252 802.03 697.69C801.462 698.128 801.062 698.595 800.831 699.092L798.843 698.382C799.198 697.554 799.671 696.908 800.263 696.447C800.861 695.979 801.512 695.654 802.216 695.47C802.927 695.281 803.625 695.186 804.312 695.186C804.75 695.186 805.253 695.239 805.821 695.346C806.395 695.446 806.948 695.657 807.481 695.976C808.02 696.296 808.466 696.778 808.822 697.423C809.177 698.068 809.354 698.933 809.354 700.016V709H807.259V707.153H807.153C807.01 707.449 806.774 707.766 806.442 708.103C806.111 708.441 805.67 708.728 805.119 708.964C804.569 709.201 803.897 709.32 803.104 709.32ZM803.424 707.438C804.252 707.438 804.951 707.275 805.519 706.949C806.093 706.624 806.525 706.203 806.815 705.689C807.111 705.174 807.259 704.632 807.259 704.064V702.146C807.17 702.253 806.975 702.35 806.673 702.439C806.377 702.522 806.034 702.596 805.643 702.661C805.259 702.72 804.883 702.774 804.516 702.821C804.155 702.862 803.862 702.898 803.637 702.928C803.092 702.999 802.583 703.114 802.11 703.274C801.642 703.428 801.264 703.661 800.974 703.975C800.689 704.283 800.547 704.703 800.547 705.236C800.547 705.964 800.817 706.514 801.355 706.887C801.9 707.254 802.589 707.438 803.424 707.438ZM813.178 709V695.364H815.203V697.494H815.38C815.664 696.766 816.123 696.201 816.756 695.799C817.389 695.39 818.15 695.186 819.038 695.186C819.937 695.186 820.686 695.39 821.284 695.799C821.888 696.201 822.358 696.766 822.695 697.494H822.837C823.187 696.79 823.71 696.231 824.409 695.816C825.107 695.396 825.945 695.186 826.921 695.186C828.14 695.186 829.138 695.568 829.913 696.331C830.688 697.089 831.076 698.27 831.076 699.874V709H828.981V699.874C828.981 698.867 828.706 698.148 828.155 697.716C827.605 697.284 826.957 697.068 826.211 697.068C825.252 697.068 824.509 697.358 823.983 697.938C823.456 698.512 823.193 699.24 823.193 700.122V709H821.062V699.661C821.062 698.885 820.81 698.261 820.307 697.787C819.804 697.308 819.156 697.068 818.363 697.068C817.819 697.068 817.31 697.213 816.836 697.503C816.368 697.793 815.99 698.196 815.7 698.711C815.416 699.22 815.274 699.808 815.274 700.477V709H813.178ZM834.907 709V695.364H837.002V709H834.907ZM835.972 693.091C835.564 693.091 835.212 692.952 834.916 692.674C834.626 692.395 834.481 692.061 834.481 691.67C834.481 691.28 834.626 690.945 834.916 690.667C835.212 690.389 835.564 690.25 835.972 690.25C836.381 690.25 836.73 690.389 837.02 690.667C837.316 690.945 837.464 691.28 837.464 691.67C837.464 692.061 837.316 692.395 837.02 692.674C836.73 692.952 836.381 693.091 835.972 693.091Z" fill="black"/>
<circle cx="707.466" cy="390.511" r="9.01136" fill="#FFE587" stroke="black"/>
<circle cx="660.511" cy="625.511" r="9.01136" fill="#FFE587" stroke="black"/>
<path d="M684.543 414.909C684.543 416.827 684.196 418.484 683.504 419.881C682.811 421.277 681.862 422.355 680.654 423.112C679.447 423.87 678.068 424.249 676.517 424.249C674.966 424.249 673.587 423.87 672.38 423.112C671.173 422.355 670.223 421.277 669.53 419.881C668.838 418.484 668.491 416.827 668.491 414.909C668.491 412.991 668.838 411.334 669.53 409.938C670.223 408.541 671.173 407.464 672.38 406.706C673.587 405.948 674.966 405.57 676.517 405.57C678.068 405.57 679.447 405.948 680.654 406.706C681.862 407.464 682.811 408.541 683.504 409.938C684.196 411.334 684.543 412.991 684.543 414.909ZM682.412 414.909C682.412 413.335 682.149 412.006 681.622 410.923C681.101 409.84 680.394 409.02 679.5 408.464C678.612 407.907 677.618 407.629 676.517 407.629C675.416 407.629 674.419 407.907 673.525 408.464C672.637 409.02 671.93 409.84 671.403 410.923C670.883 412.006 670.622 413.335 670.622 414.909C670.622 416.483 670.883 417.812 671.403 418.895C671.93 419.978 672.637 420.798 673.525 421.354C674.419 421.911 675.416 422.189 676.517 422.189C677.618 422.189 678.612 421.911 679.5 421.354C680.394 420.798 681.101 419.978 681.622 418.895C682.149 417.812 682.412 416.483 682.412 414.909ZM687.961 424V410.364H689.985V412.423H690.127C690.375 411.749 690.825 411.201 691.476 410.781C692.127 410.361 692.861 410.151 693.678 410.151C693.832 410.151 694.024 410.154 694.255 410.159C694.486 410.165 694.66 410.174 694.779 410.186V412.317C694.708 412.299 694.545 412.272 694.29 412.237C694.042 412.195 693.779 412.175 693.5 412.175C692.837 412.175 692.246 412.314 691.725 412.592C691.21 412.864 690.801 413.243 690.5 413.728C690.204 414.208 690.056 414.755 690.056 415.371V424H687.961ZM699.358 405.818V424H697.262V405.818H699.358ZM707.208 424.32C706.344 424.32 705.559 424.157 704.855 423.831C704.151 423.5 703.592 423.023 703.177 422.402C702.763 421.775 702.556 421.017 702.556 420.129C702.556 419.348 702.71 418.715 703.017 418.229C703.325 417.738 703.737 417.353 704.251 417.075C704.766 416.797 705.335 416.59 705.956 416.454C706.583 416.312 707.214 416.199 707.847 416.116C708.676 416.01 709.347 415.93 709.862 415.877C710.383 415.818 710.762 415.72 710.999 415.584C711.241 415.448 711.363 415.211 711.363 414.874V414.803C711.363 413.927 711.123 413.246 710.643 412.761C710.17 412.275 709.451 412.033 708.486 412.033C707.486 412.033 706.702 412.252 706.134 412.69C705.565 413.128 705.166 413.595 704.935 414.092L702.946 413.382C703.301 412.554 703.775 411.908 704.367 411.447C704.965 410.979 705.616 410.654 706.32 410.47C707.03 410.281 707.729 410.186 708.415 410.186C708.853 410.186 709.356 410.239 709.924 410.346C710.498 410.446 711.052 410.657 711.585 410.976C712.123 411.296 712.57 411.778 712.925 412.423C713.28 413.068 713.458 413.933 713.458 415.016V424H711.363V422.153H711.256C711.114 422.449 710.877 422.766 710.546 423.103C710.214 423.441 709.773 423.728 709.223 423.964C708.673 424.201 708.001 424.32 707.208 424.32ZM707.527 422.438C708.356 422.438 709.054 422.275 709.623 421.949C710.197 421.624 710.629 421.203 710.919 420.689C711.215 420.174 711.363 419.632 711.363 419.064V417.146C711.274 417.253 711.078 417.35 710.777 417.439C710.481 417.522 710.137 417.596 709.747 417.661C709.362 417.72 708.986 417.774 708.619 417.821C708.258 417.862 707.965 417.898 707.74 417.928C707.196 417.999 706.687 418.114 706.213 418.274C705.746 418.428 705.367 418.661 705.077 418.975C704.793 419.283 704.651 419.703 704.651 420.236C704.651 420.964 704.92 421.514 705.459 421.887C706.003 422.254 706.693 422.438 707.527 422.438ZM719.377 415.797V424H717.282V410.364H719.306V412.494H719.484C719.803 411.802 720.289 411.246 720.94 410.825C721.591 410.399 722.431 410.186 723.461 410.186C724.384 410.186 725.192 410.375 725.884 410.754C726.577 411.127 727.116 411.695 727.5 412.459C727.885 413.216 728.077 414.175 728.077 415.335V424H725.982V415.477C725.982 414.406 725.704 413.571 725.148 412.974C724.591 412.37 723.828 412.068 722.857 412.068C722.188 412.068 721.591 412.213 721.064 412.503C720.543 412.793 720.132 413.216 719.83 413.773C719.528 414.329 719.377 415.004 719.377 415.797ZM737.055 424.284C735.919 424.284 734.915 423.997 734.045 423.423C733.175 422.843 732.495 422.026 732.004 420.973C731.512 419.913 731.267 418.661 731.267 417.217C731.267 415.785 731.512 414.542 732.004 413.489C732.495 412.435 733.178 411.621 734.054 411.047C734.93 410.473 735.942 410.186 737.091 410.186C737.978 410.186 738.68 410.334 739.195 410.63C739.715 410.92 740.112 411.251 740.384 411.624C740.662 411.991 740.878 412.293 741.032 412.53H741.21V405.818H743.305V424H741.281V421.905H741.032C740.878 422.153 740.659 422.467 740.375 422.846C740.091 423.219 739.686 423.553 739.159 423.849C738.632 424.139 737.931 424.284 737.055 424.284ZM737.339 422.402C738.18 422.402 738.89 422.183 739.47 421.745C740.05 421.301 740.491 420.689 740.793 419.907C741.094 419.12 741.245 418.212 741.245 417.182C741.245 416.164 741.097 415.273 740.801 414.51C740.506 413.74 740.068 413.142 739.488 412.716C738.908 412.284 738.191 412.068 737.339 412.068C736.451 412.068 735.712 412.296 735.12 412.752C734.534 413.202 734.093 413.814 733.797 414.589C733.507 415.359 733.362 416.223 733.362 417.182C733.362 418.152 733.51 419.034 733.806 419.827C734.108 420.615 734.551 421.242 735.137 421.71C735.729 422.171 736.463 422.402 737.339 422.402ZM752.973 424.284C751.742 424.284 750.662 423.991 749.733 423.405C748.809 422.819 748.087 422 747.566 420.946C747.051 419.893 746.794 418.661 746.794 417.253C746.794 415.832 747.051 414.592 747.566 413.533C748.087 412.474 748.809 411.651 749.733 411.065C750.662 410.479 751.742 410.186 752.973 410.186C754.204 410.186 755.281 410.479 756.205 411.065C757.134 411.651 757.856 412.474 758.371 413.533C758.892 414.592 759.152 415.832 759.152 417.253C759.152 418.661 758.892 419.893 758.371 420.946C757.856 422 757.134 422.819 756.205 423.405C755.281 423.991 754.204 424.284 752.973 424.284ZM752.973 422.402C753.908 422.402 754.678 422.162 755.281 421.683C755.885 421.203 756.332 420.573 756.622 419.792C756.912 419.011 757.057 418.164 757.057 417.253C757.057 416.341 756.912 415.492 756.622 414.705C756.332 413.918 755.885 413.281 755.281 412.796C754.678 412.311 753.908 412.068 752.973 412.068C752.038 412.068 751.268 412.311 750.665 412.796C750.061 413.281 749.614 413.918 749.324 414.705C749.034 415.492 748.889 416.341 748.889 417.253C748.889 418.164 749.034 419.011 749.324 419.792C749.614 420.573 750.061 421.203 750.665 421.683C751.268 422.162 752.038 422.402 752.973 422.402Z" fill="black"/>
<path d="M641.202 608V589.818H652.104V591.771H643.403V597.915H651.287V599.868H643.403V608H641.202ZM660.129 608.284C658.898 608.284 657.818 607.991 656.889 607.405C655.966 606.819 655.243 606 654.723 604.946C654.208 603.893 653.95 602.661 653.95 601.253C653.95 599.832 654.208 598.592 654.723 597.533C655.243 596.474 655.966 595.651 656.889 595.065C657.818 594.479 658.898 594.186 660.129 594.186C661.36 594.186 662.438 594.479 663.361 595.065C664.29 595.651 665.012 596.474 665.527 597.533C666.048 598.592 666.308 599.832 666.308 601.253C666.308 602.661 666.048 603.893 665.527 604.946C665.012 606 664.29 606.819 663.361 607.405C662.438 607.991 661.36 608.284 660.129 608.284ZM660.129 606.402C661.064 606.402 661.834 606.162 662.438 605.683C663.041 605.203 663.488 604.573 663.778 603.792C664.068 603.011 664.213 602.164 664.213 601.253C664.213 600.341 664.068 599.492 663.778 598.705C663.488 597.918 663.041 597.281 662.438 596.796C661.834 596.311 661.064 596.068 660.129 596.068C659.194 596.068 658.425 596.311 657.821 596.796C657.217 597.281 656.77 597.918 656.48 598.705C656.19 599.492 656.045 600.341 656.045 601.253C656.045 602.164 656.19 603.011 656.48 603.792C656.77 604.573 657.217 605.203 657.821 605.683C658.425 606.162 659.194 606.402 660.129 606.402ZM669.506 608V594.364H671.531V596.423H671.673C671.921 595.749 672.371 595.201 673.022 594.781C673.673 594.361 674.407 594.151 675.224 594.151C675.378 594.151 675.57 594.154 675.801 594.159C676.032 594.165 676.206 594.174 676.325 594.186V596.317C676.254 596.299 676.091 596.272 675.836 596.237C675.588 596.195 675.324 596.175 675.046 596.175C674.383 596.175 673.792 596.314 673.271 596.592C672.756 596.864 672.347 597.243 672.046 597.728C671.75 598.208 671.602 598.755 671.602 599.371V608H669.506ZM685.593 594.364V596.139H678.526V594.364H685.593ZM680.586 591.097H682.681V604.094C682.681 604.686 682.767 605.129 682.939 605.425C683.116 605.715 683.341 605.911 683.613 606.011C683.892 606.106 684.185 606.153 684.492 606.153C684.723 606.153 684.912 606.142 685.06 606.118C685.208 606.088 685.327 606.065 685.416 606.047L685.842 607.929C685.7 607.982 685.501 608.036 685.247 608.089C684.992 608.148 684.67 608.178 684.279 608.178C683.687 608.178 683.107 608.05 682.539 607.796C681.977 607.541 681.509 607.154 681.136 606.633C680.77 606.112 680.586 605.455 680.586 604.662V591.097ZM696.06 589.818H698.688L704.867 604.911H705.08L711.259 589.818H713.887V608H711.827V594.186H711.65L705.968 608H703.979L698.297 594.186H698.12V608H696.06V589.818ZM722.03 608.32C721.166 608.32 720.382 608.157 719.677 607.831C718.973 607.5 718.414 607.023 717.999 606.402C717.585 605.775 717.378 605.017 717.378 604.129C717.378 603.348 717.532 602.715 717.84 602.229C718.147 601.738 718.559 601.353 719.074 601.075C719.589 600.797 720.157 600.59 720.778 600.454C721.406 600.312 722.036 600.199 722.669 600.116C723.498 600.01 724.17 599.93 724.684 599.877C725.205 599.818 725.584 599.72 725.821 599.584C726.064 599.448 726.185 599.211 726.185 598.874V598.803C726.185 597.927 725.945 597.246 725.466 596.761C724.992 596.275 724.273 596.033 723.308 596.033C722.308 596.033 721.524 596.252 720.956 596.69C720.388 597.128 719.988 597.595 719.757 598.092L717.769 597.382C718.124 596.554 718.597 595.908 719.189 595.447C719.787 594.979 720.438 594.654 721.142 594.47C721.852 594.281 722.551 594.186 723.237 594.186C723.675 594.186 724.178 594.239 724.747 594.346C725.321 594.446 725.874 594.657 726.407 594.976C726.945 595.296 727.392 595.778 727.747 596.423C728.102 597.068 728.28 597.933 728.28 599.016V608H726.185V606.153H726.078C725.936 606.449 725.7 606.766 725.368 607.103C725.037 607.441 724.596 607.728 724.045 607.964C723.495 608.201 722.823 608.32 722.03 608.32ZM722.35 606.438C723.178 606.438 723.877 606.275 724.445 605.949C725.019 605.624 725.451 605.203 725.741 604.689C726.037 604.174 726.185 603.632 726.185 603.064V601.146C726.096 601.253 725.901 601.35 725.599 601.439C725.303 601.522 724.96 601.596 724.569 601.661C724.184 601.72 723.809 601.774 723.442 601.821C723.081 601.862 722.788 601.898 722.563 601.928C722.018 601.999 721.509 602.114 721.036 602.274C720.568 602.428 720.189 602.661 719.899 602.975C719.615 603.283 719.473 603.703 719.473 604.236C719.473 604.964 719.742 605.514 720.281 605.887C720.826 606.254 721.515 606.438 722.35 606.438ZM732.965 613.114C732.61 613.114 732.294 613.084 732.015 613.025C731.737 612.972 731.545 612.918 731.438 612.865L731.971 611.018C732.48 611.149 732.93 611.196 733.32 611.161C733.711 611.125 734.057 610.95 734.359 610.637C734.667 610.329 734.948 609.829 735.203 609.136L735.593 608.071L730.551 594.364H732.823L736.587 605.23H736.729L740.494 594.364H742.766L736.978 609.989C736.718 610.693 736.395 611.276 736.01 611.738C735.626 612.205 735.179 612.551 734.67 612.776C734.167 613.001 733.599 613.114 732.965 613.114ZM750.761 608.284C749.447 608.284 748.314 607.994 747.361 607.414C746.414 606.828 745.683 606.011 745.168 604.964C744.659 603.91 744.404 602.685 744.404 601.288C744.404 599.892 744.659 598.661 745.168 597.595C745.683 596.524 746.399 595.689 747.316 595.092C748.24 594.488 749.317 594.186 750.548 594.186C751.258 594.186 751.959 594.304 752.652 594.541C753.344 594.778 753.975 595.163 754.543 595.695C755.111 596.222 755.564 596.92 755.901 597.79C756.239 598.661 756.407 599.732 756.407 601.004V601.892H745.896V600.081H754.277C754.277 599.312 754.123 598.625 753.815 598.021C753.513 597.418 753.081 596.941 752.519 596.592C751.962 596.243 751.305 596.068 750.548 596.068C749.713 596.068 748.991 596.275 748.382 596.69C747.778 597.098 747.313 597.631 746.988 598.288C746.662 598.945 746.5 599.649 746.5 600.401V601.608C746.5 602.638 746.677 603.511 747.032 604.227C747.393 604.937 747.893 605.479 748.533 605.852C749.172 606.219 749.915 606.402 750.761 606.402C751.311 606.402 751.809 606.325 752.252 606.171C752.702 606.011 753.09 605.775 753.415 605.461C753.741 605.141 753.992 604.745 754.17 604.271L756.194 604.839C755.981 605.526 755.623 606.13 755.12 606.651C754.617 607.165 753.995 607.568 753.256 607.858C752.516 608.142 751.684 608.284 750.761 608.284ZM759.594 608V594.364H761.619V596.423H761.761C762.009 595.749 762.459 595.201 763.11 594.781C763.761 594.361 764.495 594.151 765.312 594.151C765.466 594.151 765.658 594.154 765.889 594.159C766.12 594.165 766.294 594.174 766.413 594.186V596.317C766.342 596.299 766.179 596.272 765.924 596.237C765.676 596.195 765.412 596.175 765.134 596.175C764.471 596.175 763.879 596.314 763.359 596.592C762.844 596.864 762.435 597.243 762.133 597.728C761.838 598.208 761.69 598.755 761.69 599.371V608H759.594ZM778.555 597.418L776.673 597.95C776.555 597.637 776.38 597.332 776.149 597.036C775.924 596.734 775.617 596.485 775.226 596.29C774.835 596.095 774.335 595.997 773.726 595.997C772.891 595.997 772.196 596.19 771.639 596.574C771.089 596.953 770.814 597.435 770.814 598.021C770.814 598.542 771.003 598.953 771.382 599.255C771.761 599.557 772.353 599.809 773.157 600.01L775.182 600.507C776.401 600.803 777.309 601.256 777.907 601.865C778.505 602.469 778.804 603.247 778.804 604.2C778.804 604.982 778.579 605.68 778.129 606.295C777.685 606.911 777.064 607.396 776.265 607.751C775.466 608.107 774.537 608.284 773.477 608.284C772.086 608.284 770.935 607.982 770.024 607.379C769.112 606.775 768.535 605.893 768.292 604.733L770.281 604.236C770.47 604.97 770.829 605.52 771.355 605.887C771.888 606.254 772.583 606.438 773.442 606.438C774.418 606.438 775.193 606.23 775.768 605.816C776.348 605.396 776.638 604.893 776.638 604.307C776.638 603.833 776.472 603.437 776.14 603.117C775.809 602.792 775.3 602.549 774.613 602.389L772.341 601.857C771.092 601.561 770.175 601.102 769.589 600.48C769.009 599.853 768.719 599.069 768.719 598.128C768.719 597.358 768.935 596.678 769.367 596.086C769.805 595.494 770.399 595.029 771.151 594.692C771.909 594.355 772.767 594.186 773.726 594.186C775.075 594.186 776.135 594.482 776.904 595.074C777.679 595.666 778.23 596.447 778.555 597.418Z" fill="black"/>
<circle cx="589.466" cy="461.511" r="9.01136" fill="#FFE587" stroke="black"/>
<path d="M600.207 478.771V476.818H613.844V478.771H608.126V495H605.925V478.771H600.207ZM619.115 495.32C618.251 495.32 617.467 495.157 616.762 494.831C616.058 494.5 615.499 494.023 615.084 493.402C614.67 492.775 614.463 492.017 614.463 491.129C614.463 490.348 614.617 489.715 614.925 489.229C615.232 488.738 615.644 488.353 616.159 488.075C616.674 487.797 617.242 487.59 617.863 487.454C618.491 487.312 619.121 487.199 619.754 487.116C620.583 487.01 621.255 486.93 621.769 486.877C622.29 486.818 622.669 486.72 622.906 486.584C623.148 486.448 623.27 486.211 623.27 485.874V485.803C623.27 484.927 623.03 484.246 622.551 483.761C622.077 483.275 621.358 483.033 620.393 483.033C619.393 483.033 618.609 483.252 618.041 483.69C617.473 484.128 617.073 484.595 616.842 485.092L614.854 484.382C615.209 483.554 615.682 482.908 616.274 482.447C616.872 481.979 617.523 481.654 618.227 481.47C618.937 481.281 619.636 481.186 620.322 481.186C620.76 481.186 621.263 481.239 621.832 481.346C622.406 481.446 622.959 481.657 623.492 481.976C624.03 482.296 624.477 482.778 624.832 483.423C625.187 484.068 625.365 484.933 625.365 486.016V495H623.27V493.153H623.163C623.021 493.449 622.784 493.766 622.453 494.103C622.122 494.441 621.681 494.728 621.13 494.964C620.58 495.201 619.908 495.32 619.115 495.32ZM619.435 493.438C620.263 493.438 620.962 493.275 621.53 492.949C622.104 492.624 622.536 492.203 622.826 491.689C623.122 491.174 623.27 490.632 623.27 490.064V488.146C623.181 488.253 622.986 488.35 622.684 488.439C622.388 488.522 622.045 488.596 621.654 488.661C621.269 488.72 620.893 488.774 620.527 488.821C620.166 488.862 619.873 488.898 619.648 488.928C619.103 488.999 618.594 489.114 618.121 489.274C617.653 489.428 617.274 489.661 616.984 489.975C616.7 490.283 616.558 490.703 616.558 491.236C616.558 491.964 616.827 492.514 617.366 492.887C617.911 493.254 618.6 493.438 619.435 493.438ZM629.189 495V481.364H631.213V483.494H631.391C631.675 482.766 632.134 482.201 632.767 481.799C633.4 481.39 634.161 481.186 635.048 481.186C635.948 481.186 636.697 481.39 637.295 481.799C637.898 482.201 638.369 482.766 638.706 483.494H638.848C639.197 482.79 639.721 482.231 640.42 481.816C641.118 481.396 641.955 481.186 642.932 481.186C644.151 481.186 645.148 481.568 645.924 482.331C646.699 483.089 647.087 484.27 647.087 485.874V495H644.992V485.874C644.992 484.867 644.716 484.148 644.166 483.716C643.616 483.284 642.968 483.068 642.222 483.068C641.263 483.068 640.52 483.358 639.993 483.938C639.467 484.512 639.203 485.24 639.203 486.122V495H637.073V485.661C637.073 484.885 636.821 484.261 636.318 483.787C635.815 483.308 635.167 483.068 634.374 483.068C633.829 483.068 633.32 483.213 632.847 483.503C632.379 483.793 632 484.196 631.71 484.711C631.426 485.22 631.284 485.808 631.284 486.477V495H629.189ZM650.918 500.114V481.364H652.942V483.53H653.19C653.344 483.293 653.557 482.991 653.83 482.624C654.108 482.251 654.504 481.92 655.019 481.63C655.54 481.334 656.244 481.186 657.132 481.186C658.28 481.186 659.292 481.473 660.168 482.047C661.044 482.621 661.728 483.435 662.219 484.489C662.71 485.542 662.956 486.785 662.956 488.217C662.956 489.661 662.71 490.913 662.219 491.973C661.728 493.026 661.047 493.843 660.177 494.423C659.307 494.997 658.304 495.284 657.168 495.284C656.292 495.284 655.59 495.139 655.064 494.849C654.537 494.553 654.131 494.219 653.847 493.846C653.563 493.467 653.344 493.153 653.19 492.905H653.013V500.114H650.918ZM652.977 488.182C652.977 489.212 653.128 490.12 653.43 490.907C653.732 491.689 654.173 492.301 654.753 492.745C655.333 493.183 656.043 493.402 656.884 493.402C657.759 493.402 658.49 493.171 659.076 492.71C659.668 492.242 660.112 491.615 660.408 490.827C660.71 490.034 660.861 489.152 660.861 488.182C660.861 487.223 660.713 486.359 660.417 485.589C660.127 484.814 659.686 484.202 659.094 483.752C658.508 483.296 657.771 483.068 656.884 483.068C656.031 483.068 655.315 483.284 654.735 483.716C654.155 484.142 653.717 484.74 653.421 485.51C653.125 486.273 652.977 487.164 652.977 488.182ZM670.165 495.32C669.301 495.32 668.516 495.157 667.812 494.831C667.108 494.5 666.549 494.023 666.134 493.402C665.72 492.775 665.513 492.017 665.513 491.129C665.513 490.348 665.667 489.715 665.974 489.229C666.282 488.738 666.694 488.353 667.208 488.075C667.723 487.797 668.292 487.59 668.913 487.454C669.54 487.312 670.171 487.199 670.804 487.116C671.633 487.01 672.304 486.93 672.819 486.877C673.34 486.818 673.719 486.72 673.956 486.584C674.198 486.448 674.32 486.211 674.32 485.874V485.803C674.32 484.927 674.08 484.246 673.6 483.761C673.127 483.275 672.408 483.033 671.443 483.033C670.443 483.033 669.659 483.252 669.091 483.69C668.522 484.128 668.123 484.595 667.892 485.092L665.903 484.382C666.259 483.554 666.732 482.908 667.324 482.447C667.922 481.979 668.573 481.654 669.277 481.47C669.987 481.281 670.686 481.186 671.372 481.186C671.81 481.186 672.313 481.239 672.881 481.346C673.455 481.446 674.009 481.657 674.542 481.976C675.08 482.296 675.527 482.778 675.882 483.423C676.237 484.068 676.415 484.933 676.415 486.016V495H674.32V493.153H674.213C674.071 493.449 673.834 493.766 673.503 494.103C673.171 494.441 672.73 494.728 672.18 494.964C671.63 495.201 670.958 495.32 670.165 495.32ZM670.484 493.438C671.313 493.438 672.011 493.275 672.58 492.949C673.154 492.624 673.586 492.203 673.876 491.689C674.172 491.174 674.32 490.632 674.32 490.064V488.146C674.231 488.253 674.036 488.35 673.734 488.439C673.438 488.522 673.094 488.596 672.704 488.661C672.319 488.72 671.943 488.774 671.576 488.821C671.215 488.862 670.922 488.898 670.697 488.928C670.153 488.999 669.644 489.114 669.17 489.274C668.703 489.428 668.324 489.661 668.034 489.975C667.75 490.283 667.608 490.703 667.608 491.236C667.608 491.964 667.877 492.514 668.416 492.887C668.96 493.254 669.65 493.438 670.484 493.438Z" fill="black"/>
<circle cx="676.466" cy="168.511" r="9.01136" fill="#FFE587" stroke="black"/>
<path d="M579.162 188.818H581.364V201.815C581.364 202.975 581.151 203.961 580.724 204.772C580.298 205.583 579.698 206.198 578.922 206.618C578.147 207.038 577.232 207.249 576.179 207.249C575.185 207.249 574.3 207.068 573.525 206.707C572.749 206.34 572.14 205.819 571.696 205.145C571.252 204.47 571.03 203.668 571.03 202.739H573.196C573.196 203.254 573.323 203.703 573.578 204.088C573.838 204.467 574.193 204.763 574.643 204.976C575.093 205.189 575.605 205.295 576.179 205.295C576.812 205.295 577.351 205.162 577.795 204.896C578.239 204.63 578.576 204.239 578.807 203.724C579.044 203.203 579.162 202.567 579.162 201.815V188.818ZM589.505 207.32C588.641 207.32 587.856 207.157 587.152 206.831C586.448 206.5 585.888 206.023 585.474 205.402C585.06 204.775 584.853 204.017 584.853 203.129C584.853 202.348 585.007 201.715 585.314 201.229C585.622 200.738 586.033 200.353 586.548 200.075C587.063 199.797 587.631 199.59 588.253 199.454C588.88 199.312 589.511 199.199 590.144 199.116C590.972 199.01 591.644 198.93 592.159 198.877C592.68 198.818 593.059 198.72 593.295 198.584C593.538 198.448 593.659 198.211 593.659 197.874V197.803C593.659 196.927 593.42 196.246 592.94 195.761C592.467 195.275 591.748 195.033 590.783 195.033C589.783 195.033 588.999 195.252 588.43 195.69C587.862 196.128 587.463 196.595 587.232 197.092L585.243 196.382C585.598 195.554 586.072 194.908 586.664 194.447C587.261 193.979 587.913 193.654 588.617 193.47C589.327 193.281 590.025 193.186 590.712 193.186C591.15 193.186 591.653 193.239 592.221 193.346C592.795 193.446 593.349 193.657 593.881 193.976C594.42 194.296 594.867 194.778 595.222 195.423C595.577 196.068 595.755 196.933 595.755 198.016V207H593.659V205.153H593.553C593.411 205.449 593.174 205.766 592.843 206.103C592.511 206.441 592.07 206.728 591.52 206.964C590.969 207.201 590.298 207.32 589.505 207.32ZM589.824 205.438C590.653 205.438 591.351 205.275 591.919 204.949C592.493 204.624 592.926 204.203 593.216 203.689C593.511 203.174 593.659 202.632 593.659 202.064V200.146C593.571 200.253 593.375 200.35 593.074 200.439C592.778 200.522 592.434 200.596 592.044 200.661C591.659 200.72 591.283 200.774 590.916 200.821C590.555 200.862 590.262 200.898 590.037 200.928C589.493 200.999 588.984 201.114 588.51 201.274C588.043 201.428 587.664 201.661 587.374 201.975C587.09 202.283 586.948 202.703 586.948 203.236C586.948 203.964 587.217 204.514 587.756 204.887C588.3 205.254 588.99 205.438 589.824 205.438ZM605.119 207.284C603.84 207.284 602.739 206.982 601.816 206.379C600.893 205.775 600.182 204.943 599.685 203.884C599.188 202.824 598.94 201.614 598.94 200.253C598.94 198.868 599.194 197.646 599.703 196.586C600.218 195.521 600.934 194.689 601.851 194.092C602.775 193.488 603.852 193.186 605.083 193.186C606.042 193.186 606.906 193.364 607.675 193.719C608.445 194.074 609.075 194.571 609.566 195.21C610.058 195.849 610.362 196.595 610.481 197.447H608.386C608.226 196.826 607.871 196.276 607.32 195.796C606.776 195.311 606.042 195.068 605.119 195.068C604.302 195.068 603.586 195.281 602.97 195.707C602.36 196.128 601.884 196.722 601.541 197.492C601.203 198.255 601.035 199.152 601.035 200.182C601.035 201.235 601.2 202.153 601.532 202.934C601.869 203.715 602.343 204.322 602.952 204.754C603.568 205.186 604.29 205.402 605.119 205.402C605.663 205.402 606.157 205.307 606.601 205.118C607.045 204.929 607.421 204.656 607.729 204.301C608.036 203.946 608.255 203.52 608.386 203.023H610.481C610.362 203.828 610.069 204.553 609.602 205.198C609.14 205.837 608.528 206.346 607.764 206.725C607.007 207.098 606.125 207.284 605.119 207.284ZM615.497 202.028L615.461 199.436H615.887L621.853 193.364H624.446L618.089 199.791H617.911L615.497 202.028ZM613.544 207V188.818H615.639V207H613.544ZM622.208 207L616.882 200.253L618.373 198.797L624.872 207H622.208ZM636.801 196.418L634.919 196.95C634.801 196.637 634.626 196.332 634.395 196.036C634.171 195.734 633.863 195.485 633.472 195.29C633.081 195.095 632.581 194.997 631.972 194.997C631.137 194.997 630.442 195.19 629.885 195.574C629.335 195.953 629.06 196.435 629.06 197.021C629.06 197.542 629.249 197.953 629.628 198.255C630.007 198.557 630.599 198.809 631.404 199.01L633.428 199.507C634.647 199.803 635.555 200.256 636.153 200.865C636.751 201.469 637.05 202.247 637.05 203.2C637.05 203.982 636.825 204.68 636.375 205.295C635.931 205.911 635.31 206.396 634.511 206.751C633.712 207.107 632.783 207.284 631.723 207.284C630.332 207.284 629.181 206.982 628.27 206.379C627.358 205.775 626.781 204.893 626.539 203.733L628.527 203.236C628.717 203.97 629.075 204.52 629.601 204.887C630.134 205.254 630.829 205.438 631.688 205.438C632.664 205.438 633.44 205.23 634.014 204.816C634.594 204.396 634.884 203.893 634.884 203.307C634.884 202.833 634.718 202.437 634.387 202.117C634.055 201.792 633.546 201.549 632.86 201.389L630.587 200.857C629.338 200.561 628.421 200.102 627.835 199.48C627.255 198.853 626.965 198.069 626.965 197.128C626.965 196.358 627.181 195.678 627.613 195.086C628.051 194.494 628.646 194.029 629.397 193.692C630.155 193.355 631.013 193.186 631.972 193.186C633.321 193.186 634.381 193.482 635.15 194.074C635.925 194.666 636.476 195.447 636.801 196.418ZM645.744 207.284C644.512 207.284 643.432 206.991 642.503 206.405C641.58 205.819 640.858 205 640.337 203.946C639.822 202.893 639.565 201.661 639.565 200.253C639.565 198.832 639.822 197.592 640.337 196.533C640.858 195.474 641.58 194.651 642.503 194.065C643.432 193.479 644.512 193.186 645.744 193.186C646.975 193.186 648.052 193.479 648.975 194.065C649.904 194.651 650.626 195.474 651.141 196.533C651.662 197.592 651.922 198.832 651.922 200.253C651.922 201.661 651.662 202.893 651.141 203.946C650.626 205 649.904 205.819 648.975 206.405C648.052 206.991 646.975 207.284 645.744 207.284ZM645.744 205.402C646.679 205.402 647.448 205.162 648.052 204.683C648.655 204.203 649.102 203.573 649.392 202.792C649.682 202.011 649.827 201.164 649.827 200.253C649.827 199.341 649.682 198.492 649.392 197.705C649.102 196.918 648.655 196.281 648.052 195.796C647.448 195.311 646.679 195.068 645.744 195.068C644.808 195.068 644.039 195.311 643.435 195.796C642.832 196.281 642.385 196.918 642.095 197.705C641.805 198.492 641.66 199.341 641.66 200.253C641.66 201.164 641.805 202.011 642.095 202.792C642.385 203.573 642.832 204.203 643.435 204.683C644.039 205.162 644.808 205.402 645.744 205.402ZM657.216 198.797V207H655.121V193.364H657.145V195.494H657.322C657.642 194.802 658.127 194.246 658.778 193.825C659.429 193.399 660.27 193.186 661.3 193.186C662.223 193.186 663.031 193.375 663.723 193.754C664.416 194.127 664.954 194.695 665.339 195.459C665.724 196.216 665.916 197.175 665.916 198.335V207H663.821V198.477C663.821 197.406 663.543 196.571 662.987 195.974C662.43 195.37 661.667 195.068 660.696 195.068C660.027 195.068 659.429 195.213 658.903 195.503C658.382 195.793 657.971 196.216 657.669 196.773C657.367 197.329 657.216 198.004 657.216 198.797ZM680.407 193.364L675.364 207H673.234L668.191 193.364H670.464L674.228 204.23H674.37L678.134 193.364H680.407ZM683.172 207V193.364H685.268V207H683.172ZM684.238 191.091C683.829 191.091 683.477 190.952 683.181 190.674C682.891 190.395 682.746 190.061 682.746 189.67C682.746 189.28 682.891 188.945 683.181 188.667C683.477 188.389 683.829 188.25 684.238 188.25C684.646 188.25 684.995 188.389 685.285 188.667C685.581 188.945 685.729 189.28 685.729 189.67C685.729 190.061 685.581 190.395 685.285 190.674C684.995 190.952 684.646 191.091 684.238 191.091ZM691.2 188.818V207H689.105V188.818H691.2ZM697.133 188.818V207H695.038V188.818H697.133ZM706.688 207.284C705.374 207.284 704.24 206.994 703.287 206.414C702.34 205.828 701.61 205.011 701.095 203.964C700.586 202.91 700.331 201.685 700.331 200.288C700.331 198.892 700.586 197.661 701.095 196.595C701.61 195.524 702.326 194.689 703.243 194.092C704.166 193.488 705.244 193.186 706.475 193.186C707.185 193.186 707.886 193.304 708.579 193.541C709.271 193.778 709.901 194.163 710.47 194.695C711.038 195.222 711.491 195.92 711.828 196.79C712.165 197.661 712.334 198.732 712.334 200.004V200.892H701.823V199.081H710.203C710.203 198.312 710.049 197.625 709.742 197.021C709.44 196.418 709.008 195.941 708.445 195.592C707.889 195.243 707.232 195.068 706.475 195.068C705.64 195.068 704.918 195.275 704.308 195.69C703.705 196.098 703.24 196.631 702.915 197.288C702.589 197.945 702.426 198.649 702.426 199.401V200.608C702.426 201.638 702.604 202.511 702.959 203.227C703.32 203.937 703.82 204.479 704.459 204.852C705.099 205.219 705.841 205.402 706.688 205.402C707.238 205.402 707.735 205.325 708.179 205.171C708.629 205.011 709.017 204.775 709.342 204.461C709.668 204.141 709.919 203.745 710.097 203.271L712.121 203.839C711.908 204.526 711.55 205.13 711.047 205.651C710.544 206.165 709.922 206.568 709.182 206.858C708.443 207.142 707.611 207.284 706.688 207.284Z" fill="black"/>
<circle cx="82.5114" cy="158.511" r="9.01136" fill="#FFE587" stroke="black"/>
<path d="M75.2017 140V121.818H81.3452C82.7715 121.818 83.9375 122.076 84.843 122.591C85.7545 123.1 86.4292 123.789 86.8672 124.659C87.3052 125.529 87.5241 126.5 87.5241 127.571C87.5241 128.642 87.3052 129.616 86.8672 130.492C86.4351 131.368 85.7663 132.066 84.8608 132.587C83.9553 133.102 82.7952 133.359 81.3807 133.359H76.9773V131.406H81.3097C82.2862 131.406 83.0704 131.238 83.6623 130.9C84.2541 130.563 84.6832 130.107 84.9496 129.533C85.2218 128.953 85.358 128.299 85.358 127.571C85.358 126.843 85.2218 126.192 84.9496 125.618C84.6832 125.044 84.2512 124.594 83.6534 124.268C83.0556 123.937 82.2625 123.771 81.2741 123.771H77.4034V140H75.2017ZM96.3576 140.284C95.0437 140.284 93.9103 139.994 92.9574 139.414C92.0104 138.828 91.2795 138.011 90.7646 136.964C90.2556 135.91 90.0011 134.685 90.0011 133.288C90.0011 131.892 90.2556 130.661 90.7646 129.595C91.2795 128.524 91.9956 127.689 92.913 127.092C93.8363 126.488 94.9135 126.186 96.1445 126.186C96.8548 126.186 97.5561 126.304 98.2486 126.541C98.9411 126.778 99.5714 127.163 100.14 127.695C100.708 128.222 101.161 128.92 101.498 129.79C101.835 130.661 102.004 131.732 102.004 133.004V133.892H91.4925V132.081H99.8732C99.8732 131.312 99.7193 130.625 99.4116 130.021C99.1097 129.418 98.6777 128.941 98.1154 128.592C97.5591 128.243 96.9021 128.068 96.1445 128.068C95.31 128.068 94.5879 128.275 93.9783 128.69C93.3746 129.098 92.91 129.631 92.5845 130.288C92.259 130.945 92.0962 131.649 92.0962 132.401V133.608C92.0962 134.638 92.2738 135.511 92.6289 136.227C92.9899 136.937 93.4901 137.479 94.1293 137.852C94.7685 138.219 95.5112 138.402 96.3576 138.402C96.908 138.402 97.4052 138.325 97.8491 138.171C98.2989 138.011 98.6866 137.775 99.0121 137.461C99.3376 137.141 99.5891 136.745 99.7667 136.271L101.791 136.839C101.578 137.526 101.22 138.13 100.717 138.651C100.214 139.165 99.5921 139.568 98.8523 139.858C98.1125 140.142 97.2809 140.284 96.3576 140.284ZM107.286 131.797V140H105.191V126.364H107.215V128.494H107.393C107.712 127.802 108.198 127.246 108.849 126.825C109.5 126.399 110.34 126.186 111.37 126.186C112.293 126.186 113.101 126.375 113.794 126.754C114.486 127.127 115.025 127.695 115.409 128.459C115.794 129.216 115.987 130.175 115.987 131.335V140H113.891V131.477C113.891 130.406 113.613 129.571 113.057 128.974C112.5 128.37 111.737 128.068 110.766 128.068C110.098 128.068 109.5 128.213 108.973 128.503C108.452 128.793 108.041 129.216 107.739 129.773C107.437 130.329 107.286 131.004 107.286 131.797ZM129.474 129.418L127.592 129.95C127.474 129.637 127.299 129.332 127.068 129.036C126.843 128.734 126.536 128.485 126.145 128.29C125.754 128.095 125.254 127.997 124.645 127.997C123.81 127.997 123.115 128.19 122.558 128.574C122.008 128.953 121.733 129.435 121.733 130.021C121.733 130.542 121.922 130.953 122.301 131.255C122.68 131.557 123.272 131.809 124.076 132.01L126.101 132.507C127.32 132.803 128.228 133.256 128.826 133.865C129.424 134.469 129.723 135.247 129.723 136.2C129.723 136.982 129.498 137.68 129.048 138.295C128.604 138.911 127.983 139.396 127.184 139.751C126.385 140.107 125.455 140.284 124.396 140.284C123.005 140.284 121.854 139.982 120.943 139.379C120.031 138.775 119.454 137.893 119.211 136.733L121.2 136.236C121.389 136.97 121.747 137.52 122.274 137.887C122.807 138.254 123.502 138.438 124.361 138.438C125.337 138.438 126.112 138.23 126.687 137.816C127.267 137.396 127.557 136.893 127.557 136.307C127.557 135.833 127.391 135.437 127.059 135.117C126.728 134.792 126.219 134.549 125.532 134.389L123.26 133.857C122.011 133.561 121.093 133.102 120.508 132.48C119.928 131.853 119.638 131.069 119.638 130.128C119.638 129.358 119.854 128.678 120.286 128.086C120.724 127.494 121.318 127.029 122.07 126.692C122.828 126.355 123.686 126.186 124.645 126.186C125.994 126.186 127.053 126.482 127.823 127.074C128.598 127.666 129.149 128.447 129.474 129.418ZM136.889 140.32C136.025 140.32 135.241 140.157 134.537 139.831C133.832 139.5 133.273 139.023 132.859 138.402C132.445 137.775 132.237 137.017 132.237 136.129C132.237 135.348 132.391 134.715 132.699 134.229C133.007 133.738 133.418 133.353 133.933 133.075C134.448 132.797 135.016 132.59 135.638 132.454C136.265 132.312 136.895 132.199 137.529 132.116C138.357 132.01 139.029 131.93 139.544 131.877C140.065 131.818 140.443 131.72 140.68 131.584C140.923 131.448 141.044 131.211 141.044 130.874V130.803C141.044 129.927 140.805 129.246 140.325 128.761C139.852 128.275 139.133 128.033 138.168 128.033C137.168 128.033 136.383 128.252 135.815 128.69C135.247 129.128 134.847 129.595 134.617 130.092L132.628 129.382C132.983 128.554 133.457 127.908 134.048 127.447C134.646 126.979 135.297 126.654 136.002 126.47C136.712 126.281 137.41 126.186 138.097 126.186C138.535 126.186 139.038 126.239 139.606 126.346C140.18 126.446 140.733 126.657 141.266 126.976C141.805 127.296 142.252 127.778 142.607 128.423C142.962 129.068 143.139 129.933 143.139 131.016V140H141.044V138.153H140.938C140.796 138.449 140.559 138.766 140.227 139.103C139.896 139.441 139.455 139.728 138.905 139.964C138.354 140.201 137.682 140.32 136.889 140.32ZM137.209 138.438C138.038 138.438 138.736 138.275 139.304 137.949C139.878 137.624 140.31 137.203 140.6 136.689C140.896 136.174 141.044 135.632 141.044 135.064V133.146C140.955 133.253 140.76 133.35 140.458 133.439C140.162 133.522 139.819 133.596 139.428 133.661C139.044 133.72 138.668 133.774 138.301 133.821C137.94 133.862 137.647 133.898 137.422 133.928C136.878 133.999 136.369 134.114 135.895 134.274C135.427 134.428 135.049 134.661 134.759 134.975C134.475 135.283 134.333 135.703 134.333 136.236C134.333 136.964 134.602 137.514 135.14 137.887C135.685 138.254 136.374 138.438 137.209 138.438ZM152.503 140.284C151.225 140.284 150.124 139.982 149.201 139.379C148.277 138.775 147.567 137.943 147.07 136.884C146.573 135.824 146.324 134.614 146.324 133.253C146.324 131.868 146.579 130.646 147.088 129.586C147.603 128.521 148.319 127.689 149.236 127.092C150.16 126.488 151.237 126.186 152.468 126.186C153.427 126.186 154.291 126.364 155.06 126.719C155.83 127.074 156.46 127.571 156.951 128.21C157.442 128.849 157.747 129.595 157.866 130.447H155.77C155.611 129.826 155.255 129.276 154.705 128.796C154.16 128.311 153.427 128.068 152.503 128.068C151.687 128.068 150.97 128.281 150.355 128.707C149.745 129.128 149.269 129.722 148.926 130.492C148.588 131.255 148.419 132.152 148.419 133.182C148.419 134.235 148.585 135.153 148.917 135.934C149.254 136.715 149.727 137.322 150.337 137.754C150.953 138.186 151.675 138.402 152.503 138.402C153.048 138.402 153.542 138.307 153.986 138.118C154.43 137.929 154.806 137.656 155.113 137.301C155.421 136.946 155.64 136.52 155.77 136.023H157.866C157.747 136.828 157.454 137.553 156.987 138.198C156.525 138.837 155.912 139.346 155.149 139.725C154.391 140.098 153.509 140.284 152.503 140.284ZM166.468 140.284C165.237 140.284 164.157 139.991 163.228 139.405C162.304 138.819 161.582 138 161.062 136.946C160.547 135.893 160.289 134.661 160.289 133.253C160.289 131.832 160.547 130.592 161.062 129.533C161.582 128.474 162.304 127.651 163.228 127.065C164.157 126.479 165.237 126.186 166.468 126.186C167.699 126.186 168.776 126.479 169.7 127.065C170.629 127.651 171.351 128.474 171.866 129.533C172.387 130.592 172.647 131.832 172.647 133.253C172.647 134.661 172.387 135.893 171.866 136.946C171.351 138 170.629 138.819 169.7 139.405C168.776 139.991 167.699 140.284 166.468 140.284ZM166.468 138.402C167.403 138.402 168.173 138.162 168.776 137.683C169.38 137.203 169.827 136.573 170.117 135.792C170.407 135.011 170.552 134.164 170.552 133.253C170.552 132.341 170.407 131.492 170.117 130.705C169.827 129.918 169.38 129.281 168.776 128.796C168.173 128.311 167.403 128.068 166.468 128.068C165.533 128.068 164.764 128.311 164.16 128.796C163.556 129.281 163.109 129.918 162.819 130.705C162.529 131.492 162.384 132.341 162.384 133.253C162.384 134.164 162.529 135.011 162.819 135.792C163.109 136.573 163.556 137.203 164.16 137.683C164.764 138.162 165.533 138.402 166.468 138.402ZM177.941 121.818V140H175.845V121.818H177.941ZM185.791 140.32C184.927 140.32 184.142 140.157 183.438 139.831C182.734 139.5 182.175 139.023 181.76 138.402C181.346 137.775 181.139 137.017 181.139 136.129C181.139 135.348 181.293 134.715 181.6 134.229C181.908 133.738 182.32 133.353 182.834 133.075C183.349 132.797 183.918 132.59 184.539 132.454C185.166 132.312 185.797 132.199 186.43 132.116C187.259 132.01 187.93 131.93 188.445 131.877C188.966 131.818 189.345 131.72 189.582 131.584C189.824 131.448 189.946 131.211 189.946 130.874V130.803C189.946 129.927 189.706 129.246 189.226 128.761C188.753 128.275 188.034 128.033 187.069 128.033C186.069 128.033 185.285 128.252 184.717 128.69C184.148 129.128 183.749 129.595 183.518 130.092L181.529 129.382C181.884 128.554 182.358 127.908 182.95 127.447C183.548 126.979 184.199 126.654 184.903 126.47C185.613 126.281 186.312 126.186 186.998 126.186C187.436 126.186 187.939 126.239 188.507 126.346C189.081 126.446 189.635 126.657 190.168 126.976C190.706 127.296 191.153 127.778 191.508 128.423C191.863 129.068 192.041 129.933 192.041 131.016V140H189.946V138.153H189.839C189.697 138.449 189.46 138.766 189.129 139.103C188.797 139.441 188.356 139.728 187.806 139.964C187.256 140.201 186.584 140.32 185.791 140.32ZM186.11 138.438C186.939 138.438 187.637 138.275 188.206 137.949C188.78 137.624 189.212 137.203 189.502 136.689C189.798 136.174 189.946 135.632 189.946 135.064V133.146C189.857 133.253 189.661 133.35 189.36 133.439C189.064 133.522 188.72 133.596 188.33 133.661C187.945 133.72 187.569 133.774 187.202 133.821C186.841 133.862 186.548 133.898 186.323 133.928C185.779 133.999 185.27 134.114 184.796 134.274C184.329 134.428 183.95 134.661 183.66 134.975C183.376 135.283 183.234 135.703 183.234 136.236C183.234 136.964 183.503 137.514 184.042 137.887C184.586 138.254 185.276 138.438 186.11 138.438Z" fill="black"/>
<circle cx="397.148" cy="157.511" r="9.01136" fill="#FF8F87" stroke="black"/>
<path d="M320.888 177.011V173.841H335.82V177.011H330.254V192.023H326.454V177.011H320.888ZM340.241 192.28C339.371 192.28 338.596 192.129 337.915 191.828C337.235 191.52 336.696 191.067 336.3 190.469C335.909 189.866 335.714 189.114 335.714 188.214C335.714 187.457 335.853 186.821 336.131 186.306C336.409 185.791 336.788 185.376 337.267 185.063C337.747 184.749 338.291 184.512 338.901 184.352C339.516 184.193 340.162 184.08 340.836 184.015C341.629 183.932 342.269 183.855 342.754 183.784C343.239 183.707 343.591 183.595 343.81 183.447C344.029 183.299 344.139 183.08 344.139 182.79V182.737C344.139 182.174 343.961 181.739 343.606 181.432C343.257 181.124 342.76 180.97 342.115 180.97C341.434 180.97 340.893 181.121 340.49 181.423C340.088 181.719 339.821 182.092 339.691 182.541L336.193 182.257C336.371 181.429 336.72 180.713 337.241 180.109C337.762 179.499 338.433 179.032 339.256 178.706C340.085 178.375 341.043 178.209 342.132 178.209C342.89 178.209 343.615 178.298 344.308 178.475C345.006 178.653 345.624 178.928 346.163 179.301C346.708 179.674 347.137 180.153 347.45 180.739C347.764 181.319 347.921 182.015 347.921 182.826V192.023H344.334V190.132H344.228C344.009 190.558 343.716 190.934 343.349 191.259C342.982 191.579 342.541 191.831 342.026 192.014C341.511 192.192 340.916 192.28 340.241 192.28ZM341.325 189.67C341.881 189.67 342.372 189.561 342.798 189.342C343.224 189.117 343.559 188.815 343.801 188.436C344.044 188.058 344.165 187.628 344.165 187.149V185.702C344.047 185.779 343.884 185.85 343.677 185.915C343.476 185.974 343.248 186.03 342.994 186.084C342.739 186.131 342.485 186.175 342.23 186.217C341.976 186.252 341.745 186.285 341.538 186.314C341.094 186.38 340.706 186.483 340.375 186.625C340.043 186.767 339.786 186.96 339.602 187.202C339.419 187.439 339.327 187.735 339.327 188.09C339.327 188.605 339.513 188.999 339.886 189.271C340.265 189.537 340.745 189.67 341.325 189.67ZM354.637 173.841V192.023H350.855V173.841H354.637ZM361.448 173.841V192.023H357.666V173.841H361.448ZM368.366 192.28C367.496 192.28 366.721 192.129 366.04 191.828C365.36 191.52 364.821 191.067 364.425 190.469C364.034 189.866 363.839 189.114 363.839 188.214C363.839 187.457 363.978 186.821 364.256 186.306C364.534 185.791 364.913 185.376 365.392 185.063C365.872 184.749 366.416 184.512 367.026 184.352C367.641 184.193 368.287 184.08 368.961 184.015C369.754 183.932 370.394 183.855 370.879 183.784C371.364 183.707 371.716 183.595 371.935 183.447C372.154 183.299 372.264 183.08 372.264 182.79V182.737C372.264 182.174 372.086 181.739 371.731 181.432C371.382 181.124 370.885 180.97 370.24 180.97C369.559 180.97 369.018 181.121 368.615 181.423C368.213 181.719 367.946 182.092 367.816 182.541L364.318 182.257C364.496 181.429 364.845 180.713 365.366 180.109C365.887 179.499 366.558 179.032 367.381 178.706C368.21 178.375 369.168 178.209 370.257 178.209C371.015 178.209 371.74 178.298 372.433 178.475C373.131 178.653 373.749 178.928 374.288 179.301C374.833 179.674 375.262 180.153 375.575 180.739C375.889 181.319 376.046 182.015 376.046 182.826V192.023H372.459V190.132H372.353C372.134 190.558 371.841 190.934 371.474 191.259C371.107 191.579 370.666 191.831 370.151 192.014C369.636 192.192 369.041 192.28 368.366 192.28ZM369.45 189.67C370.006 189.67 370.497 189.561 370.923 189.342C371.349 189.117 371.684 188.815 371.926 188.436C372.169 188.058 372.29 187.628 372.29 187.149V185.702C372.172 185.779 372.009 185.85 371.802 185.915C371.601 185.974 371.373 186.03 371.119 186.084C370.864 186.131 370.61 186.175 370.355 186.217C370.101 186.252 369.87 186.285 369.663 186.314C369.219 186.38 368.831 186.483 368.5 186.625C368.168 186.767 367.911 186.96 367.727 187.202C367.544 187.439 367.452 187.735 367.452 188.09C367.452 188.605 367.638 188.999 368.011 189.271C368.39 189.537 368.87 189.67 369.45 189.67ZM382.762 184.139V192.023H378.98V173.841H382.655V180.792H382.815C383.123 179.988 383.62 179.357 384.307 178.901C384.993 178.44 385.854 178.209 386.89 178.209C387.837 178.209 388.663 178.416 389.367 178.83C390.077 179.239 390.628 179.828 391.018 180.597C391.415 181.361 391.61 182.275 391.604 183.34V192.023H387.822V184.015C387.828 183.175 387.615 182.521 387.183 182.053C386.757 181.586 386.159 181.352 385.39 181.352C384.875 181.352 384.419 181.461 384.023 181.68C383.632 181.899 383.324 182.219 383.099 182.639C382.88 183.053 382.768 183.553 382.762 184.139ZM398.469 192.28C397.599 192.28 396.824 192.129 396.143 191.828C395.462 191.52 394.924 191.067 394.527 190.469C394.137 189.866 393.941 189.114 393.941 188.214C393.941 187.457 394.08 186.821 394.359 186.306C394.637 185.791 395.016 185.376 395.495 185.063C395.974 184.749 396.519 184.512 397.128 184.352C397.744 184.193 398.389 184.08 399.064 184.015C399.857 183.932 400.496 183.855 400.981 183.784C401.467 183.707 401.819 183.595 402.038 183.447C402.257 183.299 402.366 183.08 402.366 182.79V182.737C402.366 182.174 402.189 181.739 401.834 181.432C401.485 181.124 400.987 180.97 400.342 180.97C399.662 180.97 399.12 181.121 398.718 181.423C398.315 181.719 398.049 182.092 397.919 182.541L394.421 182.257C394.598 181.429 394.947 180.713 395.468 180.109C395.989 179.499 396.661 179.032 397.484 178.706C398.312 178.375 399.271 178.209 400.36 178.209C401.118 178.209 401.843 178.298 402.535 178.475C403.233 178.653 403.852 178.928 404.391 179.301C404.935 179.674 405.364 180.153 405.678 180.739C405.992 181.319 406.148 182.015 406.148 182.826V192.023H402.562V190.132H402.455C402.236 190.558 401.943 190.934 401.576 191.259C401.209 191.579 400.768 191.831 400.253 192.014C399.739 192.192 399.144 192.28 398.469 192.28ZM399.552 189.67C400.108 189.67 400.6 189.561 401.026 189.342C401.452 189.117 401.786 188.815 402.029 188.436C402.272 188.058 402.393 187.628 402.393 187.149V185.702C402.275 185.779 402.112 185.85 401.905 185.915C401.704 185.974 401.476 186.03 401.221 186.084C400.967 186.131 400.712 186.175 400.458 186.217C400.203 186.252 399.972 186.285 399.765 186.314C399.321 186.38 398.934 186.483 398.602 186.625C398.271 186.767 398.013 186.96 397.83 187.202C397.646 187.439 397.555 187.735 397.555 188.09C397.555 188.605 397.741 188.999 398.114 189.271C398.493 189.537 398.972 189.67 399.552 189.67ZM420.428 182.275L416.966 182.488C416.907 182.192 416.78 181.926 416.584 181.689C416.389 181.446 416.131 181.254 415.812 181.112C415.498 180.964 415.122 180.89 414.684 180.89C414.098 180.89 413.604 181.014 413.202 181.263C412.799 181.506 412.598 181.831 412.598 182.24C412.598 182.565 412.728 182.84 412.989 183.065C413.249 183.29 413.696 183.471 414.329 183.607L416.797 184.104C418.123 184.376 419.111 184.814 419.763 185.418C420.414 186.022 420.739 186.815 420.739 187.797C420.739 188.691 420.476 189.475 419.949 190.15C419.428 190.824 418.712 191.351 417.801 191.73C416.895 192.103 415.85 192.289 414.667 192.289C412.861 192.289 411.423 191.913 410.352 191.162C409.287 190.404 408.662 189.374 408.479 188.072L412.199 187.877C412.311 188.427 412.583 188.848 413.015 189.138C413.447 189.422 414.001 189.564 414.676 189.564C415.338 189.564 415.871 189.437 416.274 189.182C416.682 188.922 416.889 188.587 416.895 188.179C416.889 187.836 416.744 187.554 416.46 187.335C416.176 187.111 415.738 186.939 415.146 186.821L412.785 186.35C411.453 186.084 410.461 185.622 409.81 184.965C409.165 184.308 408.843 183.471 408.843 182.453C408.843 181.577 409.08 180.822 409.553 180.189C410.032 179.556 410.704 179.067 411.568 178.724C412.438 178.381 413.456 178.209 414.622 178.209C416.345 178.209 417.7 178.573 418.688 179.301C419.683 180.029 420.263 181.02 420.428 182.275ZM434.466 182.275L431.004 182.488C430.945 182.192 430.818 181.926 430.622 181.689C430.427 181.446 430.17 181.254 429.85 181.112C429.536 180.964 429.16 180.89 428.722 180.89C428.137 180.89 427.642 181.014 427.24 181.263C426.837 181.506 426.636 181.831 426.636 182.24C426.636 182.565 426.766 182.84 427.027 183.065C427.287 183.29 427.734 183.471 428.367 183.607L430.835 184.104C432.161 184.376 433.15 184.814 433.801 185.418C434.452 186.022 434.777 186.815 434.777 187.797C434.777 188.691 434.514 189.475 433.987 190.15C433.466 190.824 432.75 191.351 431.839 191.73C430.933 192.103 429.888 192.289 428.705 192.289C426.9 192.289 425.461 191.913 424.39 191.162C423.325 190.404 422.7 189.374 422.517 188.072L426.237 187.877C426.349 188.427 426.621 188.848 427.053 189.138C427.485 189.422 428.039 189.564 428.714 189.564C429.376 189.564 429.909 189.437 430.312 189.182C430.72 188.922 430.927 188.587 430.933 188.179C430.927 187.836 430.782 187.554 430.498 187.335C430.214 187.111 429.776 186.939 429.184 186.821L426.823 186.35C425.491 186.084 424.5 185.622 423.849 184.965C423.203 184.308 422.881 183.471 422.881 182.453C422.881 181.577 423.118 180.822 423.591 180.189C424.07 179.556 424.742 179.067 425.606 178.724C426.476 178.381 427.494 178.209 428.66 178.209C430.383 178.209 431.738 178.573 432.726 179.301C433.721 180.029 434.301 181.02 434.466 182.275ZM443.373 192.289C441.97 192.289 440.763 192.005 439.751 191.437C438.745 190.863 437.969 190.052 437.425 189.004C436.88 187.951 436.608 186.705 436.608 185.267C436.608 183.864 436.88 182.633 437.425 181.574C437.969 180.514 438.736 179.689 439.724 179.097C440.719 178.505 441.885 178.209 443.222 178.209C444.122 178.209 444.959 178.354 445.735 178.644C446.516 178.928 447.197 179.357 447.777 179.931C448.362 180.505 448.818 181.227 449.144 182.098C449.469 182.962 449.632 183.974 449.632 185.134V186.172H438.117V183.829H446.072C446.072 183.284 445.954 182.802 445.717 182.382C445.48 181.961 445.152 181.633 444.731 181.396C444.317 181.154 443.835 181.032 443.284 181.032C442.71 181.032 442.201 181.165 441.757 181.432C441.319 181.692 440.976 182.044 440.728 182.488C440.479 182.926 440.352 183.414 440.346 183.953V186.181C440.346 186.856 440.47 187.439 440.719 187.93C440.973 188.422 441.331 188.8 441.793 189.067C442.255 189.333 442.802 189.466 443.435 189.466C443.855 189.466 444.24 189.407 444.589 189.289C444.939 189.17 445.237 188.993 445.486 188.756C445.735 188.519 445.924 188.229 446.054 187.886L449.552 188.117C449.375 188.957 449.011 189.691 448.46 190.318C447.916 190.94 447.211 191.425 446.347 191.774C445.489 192.118 444.498 192.289 443.373 192.289ZM458.315 192.289C456.912 192.289 455.704 192.005 454.692 191.437C453.686 190.863 452.911 190.052 452.366 189.004C451.822 187.951 451.55 186.705 451.55 185.267C451.55 183.864 451.822 182.633 452.366 181.574C452.911 180.514 453.677 179.689 454.666 179.097C455.66 178.505 456.826 178.209 458.164 178.209C459.063 178.209 459.901 178.354 460.676 178.644C461.457 178.928 462.138 179.357 462.718 179.931C463.304 180.505 463.76 181.227 464.085 182.098C464.411 182.962 464.573 183.974 464.573 185.134V186.172H453.059V183.829H461.013C461.013 183.284 460.895 182.802 460.658 182.382C460.422 181.961 460.093 181.633 459.673 181.396C459.259 181.154 458.776 181.032 458.226 181.032C457.652 181.032 457.143 181.165 456.699 181.432C456.261 181.692 455.918 182.044 455.669 182.488C455.42 182.926 455.293 183.414 455.287 183.953V186.181C455.287 186.856 455.411 187.439 455.66 187.93C455.915 188.422 456.273 188.8 456.734 189.067C457.196 189.333 457.743 189.466 458.377 189.466C458.797 189.466 459.182 189.407 459.531 189.289C459.88 189.17 460.179 188.993 460.427 188.756C460.676 188.519 460.865 188.229 460.996 187.886L464.494 188.117C464.316 188.957 463.952 189.691 463.402 190.318C462.857 190.94 462.153 191.425 461.289 191.774C460.43 192.118 459.439 192.289 458.315 192.289Z" fill="black"/>
</svg>
