<svg width="716" height="772" viewBox="0 0 716 772" fill="none" xmlns="http://www.w3.org/2000/svg">
<rect x="0.5" y="0.5" width="715" height="771" rx="35.5" fill="#97DCFF" stroke="#717171"/>
<g filter="url(#filter0_d_160_432)">
<path d="M346.5 88L67 89.5L114 375.5L116.5 377V379.5V382L121.5 386.5L119.5 389L121.5 391.5V397C122.167 398.167 123.7 400.6 124.5 401C125.3 401.4 124.167 403.833 123.5 405L126 410.5L133.5 421.5L135.5 425.5L138 433L136.5 439.5L134.5 444.5L135.5 447.5L142 450L146 454.5L142 461.5H138L134.5 465L128.5 471V484L127 492L124.5 498L120.5 503.5L119 508.5V518L120.5 522V529.5L124.5 534L126 537.5L128.5 542L129.5 547L128.5 555L127 560V564L124.5 571.5L123.5 586V596L126 601.5L130.5 607.5L133 614L134.5 623.5L137.5 630L142 636.5L143 640.5L142.5 647L146 654.5L151.5 659L438.5 676L446 677L444 681.5L447.5 687V696V700.5L451 705L454.5 703.5H459H465.5V696C465.5 695.6 467.167 691.5 468 689.5L469.5 676L465.5 666.5V654.5L468 652L469.5 648L473 650L475.5 644.5L481.5 644L484.5 648L490.5 647L494.5 652L497 650L499.5 654.5H507L514.5 657.5L520 658.5L526 657.5V655.5L527 653.5L525.5 644H521L519 640.5L521.5 638L526 640.5L527.5 641L527 638L529.5 640L529 643L528.5 647V652.5V656.5L530 655.5L531 652L533.5 642L537 631.5L536.5 626.5L530 632.5L532 636L528 635.5C527.167 634.333 525.6 631.9 526 631.5C526.4 631.1 528.5 630.667 529.5 630.5L530 627.5C529.667 626.833 528.8 625.5 528 625.5C527.2 625.5 526.333 626.833 526 627.5H523.5L521.5 623L517.5 625.5L516.5 622L520.5 619L523.5 621L528 623L526 619C525.6 618.2 527.167 617 528 616.5L525 614L520.5 610H523.5L520.5 598L519 595L520.5 592L523.5 595C524 597 524.7 601 523.5 601C522.3 601 524 602.333 525 603L532 606.5L531 608.5H525V611L533.5 615.5L535.5 619L536.5 612.5L535.5 607.5V605.5L533.5 602L535.5 600L538 603L540 601L546.5 597L550.5 593L549.5 584L546.5 580.5H540L538 582.5L535.5 578.5L540 577L549.5 578.5L548 572.5L544 568L548 560.5L549.5 566L552.5 571.5L561.5 554L560.5 550.5L555.5 552L553.5 555.5L549.5 558L545.5 556.5L548 552V549L554.5 548L558 543L552.5 540L554.5 538.5H558L560.5 542L564 546.5L567 537L565 531L560.5 538.5L558 535H548L550.5 531H559.5L560.5 527.5L554.5 524.5V523L560.5 524.5H564L567 526L578.5 515L571.5 509.5L564 503L566 501L569 504L570.5 500L573.5 505L580.5 507.5L585.5 505L587.5 501L585.5 499C585.667 497.667 585.9 494.7 585.5 493.5C585.1 492.3 587.333 493 588.5 493.5L591 496.5C592.167 496.333 594.5 495.8 594.5 495C594.5 494.2 597.5 491 599 489.5L598 485.5L594.5 484.5L588.5 482C587.167 480.667 584.3 478 583.5 478H578.5L572.5 476C571.667 475 569.8 472.9 569 472.5C568.2 472.1 568.667 466.667 569 464L566 460C566.667 457.5 568.2 452.4 569 452C569.8 451.6 568.667 447.5 568 445.5L564 444.5C562.667 441.667 560 435.8 560 435C560 434 559.5 429.5 560 428.5C560.4 427.7 554.833 420.833 552 417.5L543 414.5L538 411L536 407.5L538 404L535 398L536 391L534 388.5V382V378L528.5 370.5L526 364C526.333 361.833 527 357.3 527 356.5C527 355.7 524.667 353.5 523.5 352.5C521.5 351.167 517.4 348.4 517 348L514 345H509.5L498 338L497 334.5V330L488.5 326.5V321.5L486.5 319.5V317.5L483.5 315L478 312V308.5L479 300.5L478 294.5C476 293.833 471.9 292.3 471.5 291.5C471.1 290.7 468 285.833 466.5 283.5C462.667 281.667 454.8 278 454 278C453.2 278 450.667 275.667 449.5 274.5C447.5 269.167 443.3 258.3 442.5 257.5C441.7 256.7 431.833 247.167 427 242.5L419 239.5L413.5 232.5L408 230.5L403.5 219L398 213.5V211L395.5 207L390 203L389 198.5L386.5 188L383.5 184L381.5 178L377.5 175L375.5 167.5C375 165.667 373.9 161.8 373.5 161C373.1 160.2 369.333 158.333 367.5 157.5L363.5 158.5H355.5L346.5 151L340.5 144V141.5C338.333 141.333 333.7 140.9 332.5 140.5C331.3 140.1 325.333 135.333 322.5 133L319.5 129.5V125L322.5 122V117L325 114L328 112.5L330.5 105.5L334 104H336L340.5 97.5H343L345.5 96.5L344.5 95L345 92.5L346.5 88Z" fill="#FFD597"/>
<path d="M346.5 88L67 89.5L114 375.5L116.5 377V379.5V382L121.5 386.5L119.5 389L121.5 391.5V397C122.167 398.167 123.7 400.6 124.5 401C125.3 401.4 124.167 403.833 123.5 405L126 410.5L133.5 421.5L135.5 425.5L138 433L136.5 439.5L134.5 444.5L135.5 447.5L142 450L146 454.5L142 461.5H138L134.5 465L128.5 471V484L127 492L124.5 498L120.5 503.5L119 508.5V518L120.5 522V529.5L124.5 534L126 537.5L128.5 542L129.5 547L128.5 555L127 560V564L124.5 571.5L123.5 586V596L126 601.5L130.5 607.5L133 614L134.5 623.5L137.5 630L142 636.5L143 640.5L142.5 647L146 654.5L151.5 659L438.5 676L446 677L444 681.5L447.5 687V696V700.5L451 705L454.5 703.5H459H465.5V696C465.5 695.6 467.167 691.5 468 689.5L469.5 676L465.5 666.5V654.5L468 652L469.5 648L473 650L475.5 644.5L481.5 644L484.5 648L490.5 647L494.5 652L497 650L499.5 654.5H507L514.5 657.5L520 658.5L526 657.5V655.5L527 653.5L525.5 644H521L519 640.5L521.5 638L526 640.5L527.5 641L527 638L529.5 640L529 643L528.5 647V652.5V656.5L530 655.5L531 652L533.5 642L537 631.5L536.5 626.5L530 632.5L532 636L528 635.5C527.167 634.333 525.6 631.9 526 631.5C526.4 631.1 528.5 630.667 529.5 630.5L530 627.5C529.667 626.833 528.8 625.5 528 625.5C527.2 625.5 526.333 626.833 526 627.5H523.5L521.5 623L517.5 625.5L516.5 622L520.5 619L523.5 621L528 623L526 619C525.6 618.2 527.167 617 528 616.5L525 614L520.5 610H523.5L520.5 598L519 595L520.5 592L523.5 595C524 597 524.7 601 523.5 601C522.3 601 524 602.333 525 603L532 606.5L531 608.5H525V611L533.5 615.5L535.5 619L536.5 612.5L535.5 607.5V605.5L533.5 602L535.5 600L538 603L540 601L546.5 597L550.5 593L549.5 584L546.5 580.5H540L538 582.5L535.5 578.5L540 577L549.5 578.5L548 572.5L544 568L548 560.5L549.5 566L552.5 571.5L561.5 554L560.5 550.5L555.5 552L553.5 555.5L549.5 558L545.5 556.5L548 552V549L554.5 548L558 543L552.5 540L554.5 538.5H558L560.5 542L564 546.5L567 537L565 531L560.5 538.5L558 535H548L550.5 531H559.5L560.5 527.5L554.5 524.5V523L560.5 524.5H564L567 526L578.5 515L571.5 509.5L564 503L566 501L569 504L570.5 500L573.5 505L580.5 507.5L585.5 505L587.5 501L585.5 499C585.667 497.667 585.9 494.7 585.5 493.5C585.1 492.3 587.333 493 588.5 493.5L591 496.5C592.167 496.333 594.5 495.8 594.5 495C594.5 494.2 597.5 491 599 489.5L598 485.5L594.5 484.5L588.5 482C587.167 480.667 584.3 478 583.5 478H578.5L572.5 476C571.667 475 569.8 472.9 569 472.5C568.2 472.1 568.667 466.667 569 464L566 460C566.667 457.5 568.2 452.4 569 452C569.8 451.6 568.667 447.5 568 445.5L564 444.5C562.667 441.667 560 435.8 560 435C560 434 559.5 429.5 560 428.5C560.4 427.7 554.833 420.833 552 417.5L543 414.5L538 411L536 407.5L538 404L535 398L536 391L534 388.5V382V378L528.5 370.5L526 364C526.333 361.833 527 357.3 527 356.5C527 355.7 524.667 353.5 523.5 352.5C521.5 351.167 517.4 348.4 517 348L514 345H509.5L498 338L497 334.5V330L488.5 326.5V321.5L486.5 319.5V317.5L483.5 315L478 312V308.5L479 300.5L478 294.5C476 293.833 471.9 292.3 471.5 291.5C471.1 290.7 468 285.833 466.5 283.5C462.667 281.667 454.8 278 454 278C453.2 278 450.667 275.667 449.5 274.5C447.5 269.167 443.3 258.3 442.5 257.5C441.7 256.7 431.833 247.167 427 242.5L419 239.5L413.5 232.5L408 230.5L403.5 219L398 213.5V211L395.5 207L390 203L389 198.5L386.5 188L383.5 184L381.5 178L377.5 175L375.5 167.5C375 165.667 373.9 161.8 373.5 161C373.1 160.2 369.333 158.333 367.5 157.5L363.5 158.5H355.5L346.5 151L340.5 144V141.5C338.333 141.333 333.7 140.9 332.5 140.5C331.3 140.1 325.333 135.333 322.5 133L319.5 129.5V125L322.5 122V117L325 114L328 112.5L330.5 105.5L334 104H336L340.5 97.5H343L345.5 96.5L344.5 95L345 92.5L346.5 88Z" stroke="black"/>
</g>
<path d="M506.207 248.344C506.128 247.599 505.793 247.02 505.202 246.605C504.616 246.19 503.855 245.983 502.918 245.983C502.259 245.983 501.693 246.082 501.222 246.281C500.75 246.48 500.389 246.75 500.139 247.091C499.889 247.432 499.761 247.821 499.756 248.259C499.756 248.622 499.838 248.937 500.003 249.205C500.173 249.472 500.403 249.699 500.693 249.886C500.983 250.068 501.304 250.222 501.656 250.347C502.009 250.472 502.364 250.577 502.722 250.662L504.358 251.071C505.017 251.224 505.651 251.432 506.259 251.693C506.872 251.955 507.42 252.284 507.903 252.682C508.392 253.08 508.778 253.56 509.062 254.122C509.347 254.685 509.489 255.344 509.489 256.099C509.489 257.122 509.227 258.023 508.705 258.801C508.182 259.574 507.426 260.179 506.438 260.616C505.455 261.048 504.264 261.264 502.866 261.264C501.509 261.264 500.33 261.054 499.33 260.634C498.335 260.213 497.557 259.599 496.994 258.793C496.438 257.986 496.136 257.003 496.091 255.844H499.202C499.247 256.452 499.435 256.957 499.764 257.361C500.094 257.764 500.523 258.065 501.051 258.264C501.585 258.463 502.182 258.562 502.841 258.562C503.528 258.562 504.131 258.46 504.648 258.256C505.17 258.045 505.58 257.756 505.875 257.386C506.17 257.011 506.321 256.574 506.327 256.074C506.321 255.619 506.188 255.244 505.926 254.949C505.665 254.648 505.298 254.398 504.827 254.199C504.361 253.994 503.815 253.812 503.19 253.653L501.205 253.142C499.767 252.773 498.631 252.213 497.795 251.463C496.966 250.707 496.551 249.705 496.551 248.455C496.551 247.426 496.83 246.526 497.386 245.753C497.949 244.98 498.713 244.381 499.679 243.955C500.645 243.523 501.739 243.307 502.96 243.307C504.199 243.307 505.284 243.523 506.216 243.955C507.153 244.381 507.889 244.974 508.423 245.736C508.957 246.491 509.233 247.361 509.25 248.344H506.207ZM527.248 249.435H524.06C523.969 248.912 523.802 248.449 523.558 248.045C523.313 247.636 523.009 247.29 522.646 247.006C522.282 246.722 521.867 246.509 521.401 246.366C520.941 246.219 520.444 246.145 519.91 246.145C518.961 246.145 518.12 246.384 517.387 246.861C516.654 247.332 516.08 248.026 515.665 248.94C515.251 249.849 515.043 250.96 515.043 252.273C515.043 253.608 515.251 254.733 515.665 255.648C516.086 256.557 516.66 257.244 517.387 257.71C518.12 258.17 518.958 258.401 519.901 258.401C520.424 258.401 520.913 258.332 521.367 258.196C521.827 258.054 522.239 257.847 522.603 257.574C522.972 257.301 523.282 256.966 523.532 256.568C523.788 256.17 523.964 255.716 524.06 255.205L527.248 255.222C527.129 256.051 526.87 256.83 526.472 257.557C526.08 258.284 525.566 258.926 524.93 259.483C524.293 260.034 523.549 260.466 522.697 260.778C521.844 261.085 520.898 261.239 519.859 261.239C518.325 261.239 516.955 260.884 515.751 260.173C514.546 259.463 513.597 258.438 512.904 257.097C512.211 255.756 511.864 254.148 511.864 252.273C511.864 250.392 512.214 248.784 512.913 247.449C513.612 246.108 514.563 245.082 515.768 244.372C516.972 243.662 518.336 243.307 519.859 243.307C520.83 243.307 521.734 243.443 522.569 243.716C523.404 243.989 524.148 244.389 524.802 244.918C525.455 245.44 525.992 246.082 526.413 246.844C526.839 247.599 527.117 248.463 527.248 249.435Z" fill="#005A5E"/>
<path d="M330.065 44.5455V62H327.253L319.028 50.1108H318.884V62H315.722V44.5455H318.551L326.767 56.4432H326.92V44.5455H330.065ZM348.451 50.4347H345.263C345.173 49.9119 345.005 49.4489 344.761 49.0455C344.516 48.6364 344.212 48.2898 343.849 48.0057C343.485 47.7216 343.07 47.5085 342.604 47.3665C342.144 47.2188 341.647 47.1449 341.113 47.1449C340.164 47.1449 339.323 47.3835 338.59 47.8608C337.857 48.3324 337.283 49.0256 336.869 49.9403C336.454 50.8494 336.246 51.9602 336.246 53.2727C336.246 54.608 336.454 55.733 336.869 56.6477C337.289 57.5568 337.863 58.2443 338.59 58.7102C339.323 59.1705 340.161 59.4006 341.104 59.4006C341.627 59.4006 342.116 59.3324 342.57 59.196C343.031 59.054 343.442 58.8466 343.806 58.5739C344.175 58.3011 344.485 57.9659 344.735 57.5682C344.991 57.1705 345.167 56.7159 345.263 56.2045L348.451 56.2216C348.332 57.0511 348.073 57.8295 347.675 58.5568C347.283 59.2841 346.769 59.9261 346.133 60.483C345.496 61.0341 344.752 61.4659 343.9 61.7784C343.048 62.0852 342.102 62.2386 341.062 62.2386C339.528 62.2386 338.158 61.8835 336.954 61.1733C335.749 60.4631 334.8 59.4375 334.107 58.0966C333.414 56.7557 333.067 55.1477 333.067 53.2727C333.067 51.392 333.417 49.7841 334.116 48.4489C334.815 47.108 335.766 46.0824 336.971 45.3722C338.175 44.6619 339.539 44.3068 341.062 44.3068C342.033 44.3068 342.937 44.4432 343.772 44.7159C344.607 44.9886 345.352 45.3892 346.005 45.9176C346.658 46.4403 347.195 47.0824 347.616 47.8438C348.042 48.5994 348.32 49.4631 348.451 50.4347Z" fill="#005A5E"/>
<path d="M117.955 47.196V44.5455H131.881V47.196H126.486V62H123.349V47.196H117.955ZM148.909 44.5455V62H146.097L137.872 50.1108H137.727V62H134.565V44.5455H137.395L145.611 56.4432H145.764V44.5455H148.909Z" fill="#005A5E"/>
<path d="M310.722 716V698.545H321.903V701.196H313.884V705.935H321.136V708.585H313.884V716H310.722ZM324.784 716V698.545H327.946V713.349H335.634V716H324.784Z" fill="#005A5E"/>
<path d="M48.9631 375H45.5881L51.733 357.545H55.6364L61.7898 375H58.4148L53.7528 361.125H53.6165L48.9631 375ZM49.0739 368.156H58.2784V370.696H49.0739V368.156ZM64.0888 375V357.545H67.2507V372.349H74.9382V375H64.0888Z" fill="#005A5E"/>
<circle cx="202.511" cy="255.511" r="9.01136" fill="#FF8F87" stroke="black"/>
<path d="M158.714 238H154.595L160.871 219.818H165.825L172.093 238H167.974L163.419 223.973H163.277L158.714 238ZM158.457 230.853H168.187V233.854H158.457V230.853ZM180.609 224.364V227.205H172.397V224.364H180.609ZM174.261 221.097H178.043V233.81C178.043 234.159 178.097 234.431 178.203 234.626C178.31 234.816 178.458 234.949 178.647 235.026C178.842 235.103 179.067 235.141 179.322 235.141C179.499 235.141 179.677 235.127 179.854 235.097C180.032 235.061 180.168 235.035 180.263 235.017L180.858 237.831C180.668 237.891 180.402 237.959 180.059 238.036C179.715 238.118 179.298 238.169 178.807 238.186C177.895 238.222 177.096 238.101 176.41 237.822C175.729 237.544 175.2 237.112 174.821 236.526C174.442 235.94 174.256 235.201 174.261 234.307V221.097ZM187.148 219.818V238H183.366V219.818H187.148ZM194.066 238.257C193.196 238.257 192.42 238.107 191.74 237.805C191.059 237.497 190.52 237.044 190.124 236.446C189.733 235.843 189.538 235.091 189.538 234.191C189.538 233.434 189.677 232.798 189.955 232.283C190.233 231.768 190.612 231.353 191.092 231.04C191.571 230.726 192.116 230.489 192.725 230.33C193.341 230.17 193.986 230.057 194.661 229.992C195.454 229.909 196.093 229.832 196.578 229.761C197.063 229.684 197.416 229.572 197.635 229.424C197.854 229.276 197.963 229.057 197.963 228.767V228.714C197.963 228.152 197.786 227.717 197.43 227.409C197.081 227.101 196.584 226.947 195.939 226.947C195.258 226.947 194.717 227.098 194.314 227.4C193.912 227.696 193.645 228.069 193.515 228.518L190.017 228.234C190.195 227.406 190.544 226.69 191.065 226.086C191.586 225.476 192.258 225.009 193.08 224.683C193.909 224.352 194.868 224.186 195.957 224.186C196.714 224.186 197.439 224.275 198.132 224.452C198.83 224.63 199.449 224.905 199.987 225.278C200.532 225.651 200.961 226.13 201.275 226.716C201.588 227.296 201.745 227.992 201.745 228.803V238H198.158V236.109H198.052C197.833 236.535 197.54 236.911 197.173 237.237C196.806 237.556 196.365 237.808 195.85 237.991C195.335 238.169 194.74 238.257 194.066 238.257ZM195.149 235.647C195.705 235.647 196.196 235.538 196.623 235.319C197.049 235.094 197.383 234.792 197.626 234.413C197.868 234.035 197.99 233.605 197.99 233.126V231.679C197.871 231.756 197.709 231.827 197.501 231.892C197.3 231.951 197.072 232.007 196.818 232.061C196.563 232.108 196.309 232.152 196.054 232.194C195.8 232.229 195.569 232.262 195.362 232.292C194.918 232.357 194.53 232.46 194.199 232.602C193.867 232.744 193.61 232.937 193.426 233.179C193.243 233.416 193.151 233.712 193.151 234.067C193.151 234.582 193.338 234.976 193.711 235.248C194.089 235.514 194.569 235.647 195.149 235.647ZM208.461 230.116V238H204.679V224.364H208.284V226.77H208.443C208.745 225.976 209.251 225.349 209.961 224.887C210.672 224.42 211.533 224.186 212.545 224.186C213.492 224.186 214.318 224.393 215.022 224.808C215.726 225.222 216.274 225.814 216.664 226.583C217.055 227.347 217.25 228.258 217.25 229.317V238H213.468V229.992C213.474 229.158 213.261 228.507 212.829 228.039C212.397 227.566 211.802 227.329 211.045 227.329C210.536 227.329 210.086 227.438 209.695 227.657C209.31 227.876 209.009 228.196 208.79 228.616C208.577 229.03 208.467 229.531 208.461 230.116ZM227.484 224.364V227.205H219.272V224.364H227.484ZM221.136 221.097H224.918V233.81C224.918 234.159 224.972 234.431 225.078 234.626C225.185 234.816 225.333 234.949 225.522 235.026C225.717 235.103 225.942 235.141 226.197 235.141C226.374 235.141 226.552 235.127 226.729 235.097C226.907 235.061 227.043 235.035 227.138 235.017L227.733 237.831C227.543 237.891 227.277 237.959 226.934 238.036C226.59 238.118 226.173 238.169 225.682 238.186C224.77 238.222 223.971 238.101 223.285 237.822C222.604 237.544 222.075 237.112 221.696 236.526C221.317 235.94 221.131 235.201 221.136 234.307V221.097ZM233.836 238.257C232.966 238.257 232.191 238.107 231.51 237.805C230.83 237.497 230.291 237.044 229.894 236.446C229.504 235.843 229.309 235.091 229.309 234.191C229.309 233.434 229.448 232.798 229.726 232.283C230.004 231.768 230.383 231.353 230.862 231.04C231.342 230.726 231.886 230.489 232.496 230.33C233.111 230.17 233.756 230.057 234.431 229.992C235.224 229.909 235.863 229.832 236.349 229.761C236.834 229.684 237.186 229.572 237.405 229.424C237.624 229.276 237.734 229.057 237.734 228.767V228.714C237.734 228.152 237.556 227.717 237.201 227.409C236.852 227.101 236.355 226.947 235.709 226.947C235.029 226.947 234.487 227.098 234.085 227.4C233.682 227.696 233.416 228.069 233.286 228.518L229.788 228.234C229.965 227.406 230.315 226.69 230.835 226.086C231.356 225.476 232.028 225.009 232.851 224.683C233.679 224.352 234.638 224.186 235.727 224.186C236.485 224.186 237.21 224.275 237.902 224.452C238.601 224.63 239.219 224.905 239.758 225.278C240.302 225.651 240.731 226.13 241.045 226.716C241.359 227.296 241.516 227.992 241.516 228.803V238H237.929V236.109H237.822C237.603 236.535 237.31 236.911 236.943 237.237C236.576 237.556 236.136 237.808 235.621 237.991C235.106 238.169 234.511 238.257 233.836 238.257ZM234.919 235.647C235.476 235.647 235.967 235.538 236.393 235.319C236.819 235.094 237.154 234.792 237.396 234.413C237.639 234.035 237.76 233.605 237.76 233.126V231.679C237.642 231.756 237.479 231.827 237.272 231.892C237.071 231.951 236.843 232.007 236.588 232.061C236.334 232.108 236.079 232.152 235.825 232.194C235.57 232.229 235.34 232.262 235.132 232.292C234.688 232.357 234.301 232.46 233.969 232.602C233.638 232.744 233.38 232.937 233.197 233.179C233.014 233.416 232.922 233.712 232.922 234.067C232.922 234.582 233.108 234.976 233.481 235.248C233.86 235.514 234.339 235.647 234.919 235.647Z" fill="black"/>
<path d="M176.832 423.5H174.631C174.5 422.867 174.273 422.31 173.947 421.831C173.627 421.352 173.237 420.949 172.775 420.624C172.319 420.292 171.813 420.044 171.257 419.878C170.701 419.712 170.121 419.629 169.517 419.629C168.416 419.629 167.419 419.907 166.525 420.464C165.637 421.02 164.93 421.84 164.403 422.923C163.883 424.006 163.622 425.335 163.622 426.909C163.622 428.483 163.883 429.812 164.403 430.895C164.93 431.978 165.637 432.798 166.525 433.354C167.419 433.911 168.416 434.189 169.517 434.189C170.121 434.189 170.701 434.106 171.257 433.94C171.813 433.775 172.319 433.529 172.775 433.203C173.237 432.872 173.627 432.467 173.947 431.987C174.273 431.502 174.5 430.946 174.631 430.318H176.832C176.667 431.247 176.365 432.079 175.927 432.813C175.489 433.547 174.944 434.171 174.293 434.686C173.642 435.195 172.911 435.583 172.1 435.849C171.296 436.115 170.434 436.249 169.517 436.249C167.966 436.249 166.587 435.87 165.38 435.112C164.173 434.355 163.223 433.277 162.53 431.881C161.838 430.484 161.491 428.827 161.491 426.909C161.491 424.991 161.838 423.334 162.53 421.938C163.223 420.541 164.173 419.464 165.38 418.706C166.587 417.948 167.966 417.57 169.517 417.57C170.434 417.57 171.296 417.703 172.1 417.969C172.911 418.235 173.642 418.626 174.293 419.141C174.944 419.65 175.489 420.271 175.927 421.005C176.365 421.733 176.667 422.565 176.832 423.5ZM185.646 436.284C184.415 436.284 183.335 435.991 182.405 435.405C181.482 434.819 180.76 434 180.239 432.946C179.724 431.893 179.467 430.661 179.467 429.253C179.467 427.832 179.724 426.592 180.239 425.533C180.76 424.474 181.482 423.651 182.405 423.065C183.335 422.479 184.415 422.186 185.646 422.186C186.877 422.186 187.954 422.479 188.877 423.065C189.807 423.651 190.529 424.474 191.044 425.533C191.564 426.592 191.825 427.832 191.825 429.253C191.825 430.661 191.564 431.893 191.044 432.946C190.529 434 189.807 434.819 188.877 435.405C187.954 435.991 186.877 436.284 185.646 436.284ZM185.646 434.402C186.581 434.402 187.35 434.162 187.954 433.683C188.558 433.203 189.005 432.573 189.295 431.792C189.585 431.011 189.73 430.164 189.73 429.253C189.73 428.341 189.585 427.492 189.295 426.705C189.005 425.918 188.558 425.281 187.954 424.796C187.35 424.311 186.581 424.068 185.646 424.068C184.711 424.068 183.941 424.311 183.338 424.796C182.734 425.281 182.287 425.918 181.997 426.705C181.707 427.492 181.562 428.341 181.562 429.253C181.562 430.164 181.707 431.011 181.997 431.792C182.287 432.573 182.734 433.203 183.338 433.683C183.941 434.162 184.711 434.402 185.646 434.402ZM197.118 417.818V436H195.023V417.818H197.118ZM209.549 430.425V422.364H211.645V436H209.549V433.692H209.407C209.088 434.384 208.591 434.973 207.916 435.458C207.241 435.938 206.389 436.178 205.359 436.178C204.507 436.178 203.749 435.991 203.086 435.618C202.424 435.239 201.903 434.671 201.524 433.914C201.145 433.15 200.956 432.188 200.956 431.028V422.364H203.051V430.886C203.051 431.881 203.329 432.674 203.885 433.266C204.448 433.857 205.164 434.153 206.034 434.153C206.555 434.153 207.084 434.02 207.623 433.754C208.167 433.488 208.623 433.079 208.99 432.529C209.363 431.978 209.549 431.277 209.549 430.425ZM215.482 436V422.364H217.506V424.494H217.684C217.968 423.766 218.427 423.201 219.06 422.799C219.693 422.39 220.454 422.186 221.341 422.186C222.241 422.186 222.99 422.39 223.588 422.799C224.191 423.201 224.662 423.766 224.999 424.494H225.141C225.49 423.79 226.014 423.231 226.713 422.816C227.411 422.396 228.248 422.186 229.225 422.186C230.444 422.186 231.441 422.568 232.217 423.331C232.992 424.089 233.38 425.27 233.38 426.874V436H231.285V426.874C231.285 425.867 231.009 425.148 230.459 424.716C229.909 424.284 229.26 424.068 228.515 424.068C227.556 424.068 226.813 424.358 226.286 424.938C225.76 425.512 225.496 426.24 225.496 427.122V436H223.366V426.661C223.366 425.885 223.114 425.261 222.611 424.787C222.108 424.308 221.46 424.068 220.667 424.068C220.122 424.068 219.613 424.213 219.14 424.503C218.672 424.793 218.293 425.196 218.003 425.711C217.719 426.22 217.577 426.808 217.577 427.477V436H215.482ZM237.495 436V417.818H239.59V424.53H239.767C239.921 424.293 240.134 423.991 240.407 423.624C240.685 423.251 241.081 422.92 241.596 422.63C242.117 422.334 242.821 422.186 243.709 422.186C244.857 422.186 245.869 422.473 246.745 423.047C247.621 423.621 248.305 424.435 248.796 425.489C249.287 426.542 249.533 427.785 249.533 429.217C249.533 430.661 249.287 431.913 248.796 432.973C248.305 434.026 247.624 434.843 246.754 435.423C245.884 435.997 244.881 436.284 243.745 436.284C242.869 436.284 242.167 436.139 241.641 435.849C241.114 435.553 240.708 435.219 240.424 434.846C240.14 434.467 239.921 434.153 239.767 433.905H239.519V436H237.495ZM239.554 429.182C239.554 430.212 239.705 431.12 240.007 431.907C240.309 432.689 240.75 433.301 241.33 433.745C241.91 434.183 242.62 434.402 243.461 434.402C244.337 434.402 245.067 434.171 245.653 433.71C246.245 433.242 246.689 432.615 246.985 431.827C247.287 431.034 247.438 430.152 247.438 429.182C247.438 428.223 247.29 427.359 246.994 426.589C246.704 425.814 246.263 425.202 245.671 424.752C245.085 424.296 244.348 424.068 243.461 424.068C242.608 424.068 241.892 424.284 241.312 424.716C240.732 425.142 240.294 425.74 239.998 426.51C239.702 427.273 239.554 428.164 239.554 429.182ZM261.332 430.425V422.364H263.427V436H261.332V433.692H261.19C260.87 434.384 260.373 434.973 259.698 435.458C259.023 435.938 258.171 436.178 257.141 436.178C256.289 436.178 255.531 435.991 254.869 435.618C254.206 435.239 253.685 434.671 253.306 433.914C252.927 433.15 252.738 432.188 252.738 431.028V422.364H254.833V430.886C254.833 431.881 255.111 432.674 255.668 433.266C256.23 433.857 256.946 434.153 257.816 434.153C258.337 434.153 258.867 434.02 259.405 433.754C259.95 433.488 260.405 433.079 260.772 432.529C261.145 431.978 261.332 431.277 261.332 430.425ZM276.923 425.418L275.041 425.95C274.923 425.637 274.748 425.332 274.517 425.036C274.293 424.734 273.985 424.485 273.594 424.29C273.204 424.095 272.703 423.997 272.094 423.997C271.259 423.997 270.564 424.19 270.008 424.574C269.457 424.953 269.182 425.435 269.182 426.021C269.182 426.542 269.371 426.953 269.75 427.255C270.129 427.557 270.721 427.809 271.526 428.01L273.55 428.507C274.769 428.803 275.678 429.256 276.275 429.865C276.873 430.469 277.172 431.247 277.172 432.2C277.172 432.982 276.947 433.68 276.497 434.295C276.053 434.911 275.432 435.396 274.633 435.751C273.834 436.107 272.905 436.284 271.845 436.284C270.454 436.284 269.303 435.982 268.392 435.379C267.48 434.775 266.903 433.893 266.661 432.733L268.649 432.236C268.839 432.97 269.197 433.52 269.723 433.887C270.256 434.254 270.952 434.438 271.81 434.438C272.786 434.438 273.562 434.23 274.136 433.816C274.716 433.396 275.006 432.893 275.006 432.307C275.006 431.833 274.84 431.437 274.509 431.117C274.177 430.792 273.668 430.549 272.982 430.389L270.709 429.857C269.46 429.561 268.543 429.102 267.957 428.48C267.377 427.853 267.087 427.069 267.087 426.128C267.087 425.358 267.303 424.678 267.735 424.086C268.173 423.494 268.768 423.029 269.519 422.692C270.277 422.355 271.135 422.186 272.094 422.186C273.443 422.186 274.503 422.482 275.272 423.074C276.047 423.666 276.598 424.447 276.923 425.418Z" fill="black"/>
<path d="M448.145 474.364C448.038 473.464 447.606 472.766 446.849 472.268C446.091 471.771 445.162 471.523 444.061 471.523C443.256 471.523 442.552 471.653 441.948 471.913C441.35 472.174 440.883 472.532 440.545 472.988C440.214 473.443 440.048 473.961 440.048 474.541C440.048 475.027 440.164 475.444 440.395 475.793C440.631 476.136 440.933 476.423 441.3 476.654C441.667 476.879 442.052 477.065 442.454 477.213C442.857 477.355 443.227 477.471 443.564 477.56L445.411 478.057C445.884 478.181 446.411 478.353 446.991 478.572C447.577 478.791 448.136 479.09 448.669 479.468C449.207 479.841 449.651 480.321 450 480.907C450.35 481.493 450.524 482.212 450.524 483.064C450.524 484.046 450.267 484.934 449.752 485.727C449.243 486.52 448.497 487.151 447.515 487.618C446.538 488.086 445.351 488.32 443.955 488.32C442.652 488.32 441.525 488.109 440.572 487.689C439.625 487.269 438.879 486.683 438.335 485.931C437.796 485.18 437.491 484.307 437.42 483.312H439.693C439.752 483.999 439.983 484.567 440.386 485.017C440.794 485.461 441.309 485.792 441.93 486.011C442.558 486.224 443.232 486.331 443.955 486.331C444.795 486.331 445.55 486.195 446.218 485.923C446.887 485.644 447.417 485.26 447.808 484.768C448.198 484.271 448.393 483.691 448.393 483.028C448.393 482.425 448.225 481.933 447.887 481.555C447.55 481.176 447.106 480.868 446.556 480.631C446.005 480.395 445.411 480.187 444.771 480.01L442.534 479.371C441.114 478.962 439.989 478.379 439.161 477.622C438.332 476.864 437.918 475.873 437.918 474.648C437.918 473.63 438.193 472.742 438.743 471.984C439.3 471.221 440.045 470.629 440.98 470.209C441.922 469.783 442.972 469.57 444.132 469.57C445.304 469.57 446.346 469.78 447.257 470.2C448.169 470.614 448.891 471.182 449.423 471.904C449.962 472.627 450.246 473.446 450.276 474.364H448.145ZM457.873 488.32C457.009 488.32 456.224 488.157 455.52 487.831C454.816 487.5 454.257 487.023 453.842 486.402C453.428 485.775 453.221 485.017 453.221 484.129C453.221 483.348 453.375 482.715 453.682 482.229C453.99 481.738 454.402 481.353 454.916 481.075C455.431 480.797 456 480.59 456.621 480.454C457.248 480.312 457.879 480.199 458.512 480.116C459.341 480.01 460.012 479.93 460.527 479.877C461.048 479.818 461.427 479.72 461.664 479.584C461.906 479.448 462.028 479.211 462.028 478.874V478.803C462.028 477.927 461.788 477.246 461.309 476.761C460.835 476.275 460.116 476.033 459.151 476.033C458.151 476.033 457.367 476.252 456.799 476.69C456.23 477.128 455.831 477.595 455.6 478.092L453.611 477.382C453.967 476.554 454.44 475.908 455.032 475.447C455.63 474.979 456.281 474.654 456.985 474.47C457.695 474.281 458.394 474.186 459.08 474.186C459.518 474.186 460.021 474.239 460.589 474.346C461.164 474.446 461.717 474.657 462.25 474.976C462.788 475.296 463.235 475.778 463.59 476.423C463.945 477.068 464.123 477.933 464.123 479.016V488H462.028V486.153H461.921C461.779 486.449 461.542 486.766 461.211 487.103C460.879 487.441 460.438 487.728 459.888 487.964C459.338 488.201 458.666 488.32 457.873 488.32ZM458.192 486.438C459.021 486.438 459.719 486.275 460.288 485.949C460.862 485.624 461.294 485.203 461.584 484.689C461.88 484.174 462.028 483.632 462.028 483.064V481.146C461.939 481.253 461.744 481.35 461.442 481.439C461.146 481.522 460.802 481.596 460.412 481.661C460.027 481.72 459.651 481.774 459.284 481.821C458.923 481.862 458.63 481.898 458.405 481.928C457.861 481.999 457.352 482.114 456.878 482.274C456.411 482.428 456.032 482.661 455.742 482.975C455.458 483.283 455.316 483.703 455.316 484.236C455.316 484.964 455.585 485.514 456.124 485.887C456.668 486.254 457.358 486.438 458.192 486.438ZM478.609 474.364L473.567 488H471.436L466.393 474.364H468.666L472.43 485.23H472.572L476.336 474.364H478.609ZM484.972 488.32C484.108 488.32 483.324 488.157 482.62 487.831C481.915 487.5 481.356 487.023 480.942 486.402C480.528 485.775 480.32 485.017 480.32 484.129C480.32 483.348 480.474 482.715 480.782 482.229C481.09 481.738 481.501 481.353 482.016 481.075C482.531 480.797 483.099 480.59 483.721 480.454C484.348 480.312 484.978 480.199 485.612 480.116C486.44 480.01 487.112 479.93 487.627 479.877C488.148 479.818 488.526 479.72 488.763 479.584C489.006 479.448 489.127 479.211 489.127 478.874V478.803C489.127 477.927 488.888 477.246 488.408 476.761C487.935 476.275 487.216 476.033 486.251 476.033C485.251 476.033 484.466 476.252 483.898 476.69C483.33 477.128 482.93 477.595 482.7 478.092L480.711 477.382C481.066 476.554 481.54 475.908 482.131 475.447C482.729 474.979 483.38 474.654 484.085 474.47C484.795 474.281 485.493 474.186 486.18 474.186C486.618 474.186 487.121 474.239 487.689 474.346C488.263 474.446 488.816 474.657 489.349 474.976C489.888 475.296 490.335 475.778 490.69 476.423C491.045 477.068 491.222 477.933 491.222 479.016V488H489.127V486.153H489.021C488.879 486.449 488.642 486.766 488.31 487.103C487.979 487.441 487.538 487.728 486.988 487.964C486.437 488.201 485.765 488.32 484.972 488.32ZM485.292 486.438C486.121 486.438 486.819 486.275 487.387 485.949C487.961 485.624 488.393 485.203 488.683 484.689C488.979 484.174 489.127 483.632 489.127 483.064V481.146C489.038 481.253 488.843 481.35 488.541 481.439C488.245 481.522 487.902 481.596 487.511 481.661C487.127 481.72 486.751 481.774 486.384 481.821C486.023 481.862 485.73 481.898 485.505 481.928C484.961 481.999 484.452 482.114 483.978 482.274C483.511 482.428 483.132 482.661 482.842 482.975C482.558 483.283 482.416 483.703 482.416 484.236C482.416 484.964 482.685 485.514 483.223 485.887C483.768 486.254 484.457 486.438 485.292 486.438ZM497.142 479.797V488H495.047V474.364H497.071V476.494H497.248C497.568 475.802 498.053 475.246 498.704 474.825C499.355 474.399 500.196 474.186 501.225 474.186C502.149 474.186 502.957 474.375 503.649 474.754C504.342 475.127 504.88 475.695 505.265 476.459C505.65 477.216 505.842 478.175 505.842 479.335V488H503.747V479.477C503.747 478.406 503.469 477.571 502.912 476.974C502.356 476.37 501.592 476.068 500.622 476.068C499.953 476.068 499.355 476.213 498.828 476.503C498.308 476.793 497.896 477.216 497.594 477.773C497.293 478.329 497.142 479.004 497.142 479.797ZM511.766 479.797V488H509.671V474.364H511.695V476.494H511.872C512.192 475.802 512.677 475.246 513.328 474.825C513.979 474.399 514.82 474.186 515.85 474.186C516.773 474.186 517.581 474.375 518.273 474.754C518.966 475.127 519.504 475.695 519.889 476.459C520.274 477.216 520.466 478.175 520.466 479.335V488H518.371V479.477C518.371 478.406 518.093 477.571 517.536 476.974C516.98 476.37 516.216 476.068 515.246 476.068C514.577 476.068 513.979 476.213 513.453 476.503C512.932 476.793 512.52 477.216 512.218 477.773C511.917 478.329 511.766 479.004 511.766 479.797ZM528.307 488.32C527.443 488.32 526.659 488.157 525.955 487.831C525.25 487.5 524.691 487.023 524.277 486.402C523.863 485.775 523.655 485.017 523.655 484.129C523.655 483.348 523.809 482.715 524.117 482.229C524.425 481.738 524.836 481.353 525.351 481.075C525.866 480.797 526.434 480.59 527.056 480.454C527.683 480.312 528.313 480.199 528.947 480.116C529.775 480.01 530.447 479.93 530.962 479.877C531.483 479.818 531.861 479.72 532.098 479.584C532.341 479.448 532.462 479.211 532.462 478.874V478.803C532.462 477.927 532.222 477.246 531.743 476.761C531.27 476.275 530.55 476.033 529.586 476.033C528.586 476.033 527.801 476.252 527.233 476.69C526.665 477.128 526.265 477.595 526.035 478.092L524.046 477.382C524.401 476.554 524.875 475.908 525.466 475.447C526.064 474.979 526.715 474.654 527.42 474.47C528.13 474.281 528.828 474.186 529.515 474.186C529.953 474.186 530.456 474.239 531.024 474.346C531.598 474.446 532.151 474.657 532.684 474.976C533.223 475.296 533.67 475.778 534.025 476.423C534.38 477.068 534.557 477.933 534.557 479.016V488H532.462V486.153H532.356C532.214 486.449 531.977 486.766 531.645 487.103C531.314 487.441 530.873 487.728 530.323 487.964C529.772 488.201 529.1 488.32 528.307 488.32ZM528.627 486.438C529.456 486.438 530.154 486.275 530.722 485.949C531.296 485.624 531.728 485.203 532.018 484.689C532.314 484.174 532.462 483.632 532.462 483.064V481.146C532.373 481.253 532.178 481.35 531.876 481.439C531.58 481.522 531.237 481.596 530.846 481.661C530.462 481.72 530.086 481.774 529.719 481.821C529.358 481.862 529.065 481.898 528.84 481.928C528.296 481.999 527.787 482.114 527.313 482.274C526.845 482.428 526.467 482.661 526.177 482.975C525.893 483.283 525.751 483.703 525.751 484.236C525.751 484.964 526.02 485.514 526.558 485.887C527.103 486.254 527.792 486.438 528.627 486.438ZM540.477 479.797V488H538.381V469.818H540.477V476.494H540.654C540.974 475.79 541.453 475.231 542.092 474.816C542.738 474.396 543.596 474.186 544.667 474.186C545.596 474.186 546.41 474.373 547.108 474.745C547.807 475.112 548.348 475.678 548.733 476.441C549.124 477.199 549.319 478.163 549.319 479.335V488H547.224V479.477C547.224 478.394 546.943 477.557 546.38 476.965C545.824 476.367 545.052 476.068 544.063 476.068C543.377 476.068 542.761 476.213 542.217 476.503C541.678 476.793 541.252 477.216 540.938 477.773C540.631 478.329 540.477 479.004 540.477 479.797Z" fill="black"/>
<path d="M392.202 605V586.818H398.558C399.825 586.818 400.869 587.037 401.692 587.475C402.515 587.907 403.127 588.49 403.53 589.224C403.932 589.952 404.134 590.76 404.134 591.648C404.134 592.429 403.994 593.074 403.716 593.583C403.444 594.092 403.083 594.495 402.633 594.79C402.189 595.086 401.707 595.305 401.186 595.447V595.625C401.742 595.661 402.302 595.856 402.864 596.211C403.426 596.566 403.897 597.075 404.276 597.738C404.654 598.401 404.844 599.212 404.844 600.17C404.844 601.082 404.637 601.902 404.222 602.63C403.808 603.358 403.154 603.935 402.26 604.361C401.367 604.787 400.204 605 398.771 605H392.202ZM394.403 603.047H398.771C400.21 603.047 401.23 602.769 401.834 602.212C402.444 601.65 402.749 600.969 402.749 600.17C402.749 599.555 402.592 598.987 402.278 598.466C401.964 597.939 401.518 597.519 400.938 597.205C400.357 596.886 399.671 596.726 398.878 596.726H394.403V603.047ZM394.403 594.808H398.487C399.15 594.808 399.748 594.678 400.281 594.418C400.819 594.157 401.245 593.79 401.559 593.317C401.879 592.843 402.038 592.287 402.038 591.648C402.038 590.849 401.76 590.171 401.204 589.615C400.647 589.052 399.766 588.771 398.558 588.771H394.403V594.808ZM408.177 605V591.364H410.202V593.423H410.344C410.592 592.749 411.042 592.201 411.693 591.781C412.344 591.361 413.078 591.151 413.895 591.151C414.049 591.151 414.241 591.154 414.472 591.159C414.703 591.165 414.877 591.174 414.996 591.186V593.317C414.925 593.299 414.762 593.272 414.507 593.237C414.259 593.195 413.995 593.175 413.717 593.175C413.054 593.175 412.462 593.314 411.942 593.592C411.427 593.864 411.018 594.243 410.716 594.728C410.421 595.208 410.273 595.755 410.273 596.371V605H408.177ZM426.073 599.425V591.364H428.168V605H426.073V602.692H425.931C425.611 603.384 425.114 603.973 424.439 604.458C423.765 604.938 422.912 605.178 421.883 605.178C421.03 605.178 420.273 604.991 419.61 604.618C418.947 604.239 418.426 603.671 418.047 602.914C417.669 602.15 417.479 601.188 417.479 600.028V591.364H419.574V599.886C419.574 600.881 419.852 601.674 420.409 602.266C420.971 602.857 421.687 603.153 422.557 603.153C423.078 603.153 423.608 603.02 424.146 602.754C424.691 602.488 425.147 602.079 425.514 601.529C425.886 600.978 426.073 600.277 426.073 599.425ZM434.101 596.797V605H432.006V591.364H434.03V593.494H434.207C434.527 592.802 435.012 592.246 435.663 591.825C436.314 591.399 437.155 591.186 438.184 591.186C439.108 591.186 439.916 591.375 440.608 591.754C441.301 592.127 441.839 592.695 442.224 593.459C442.609 594.216 442.801 595.175 442.801 596.335V605H440.706V596.477C440.706 595.406 440.428 594.571 439.871 593.974C439.315 593.37 438.551 593.068 437.581 593.068C436.912 593.068 436.314 593.213 435.787 593.503C435.267 593.793 434.855 594.216 434.553 594.773C434.252 595.329 434.101 596.004 434.101 596.797ZM456.289 594.418L454.407 594.95C454.288 594.637 454.114 594.332 453.883 594.036C453.658 593.734 453.35 593.485 452.959 593.29C452.569 593.095 452.069 592.997 451.459 592.997C450.625 592.997 449.929 593.19 449.373 593.574C448.822 593.953 448.547 594.435 448.547 595.021C448.547 595.542 448.737 595.953 449.115 596.255C449.494 596.557 450.086 596.809 450.891 597.01L452.915 597.507C454.134 597.803 455.043 598.256 455.641 598.865C456.238 599.469 456.537 600.247 456.537 601.2C456.537 601.982 456.312 602.68 455.862 603.295C455.419 603.911 454.797 604.396 453.998 604.751C453.199 605.107 452.27 605.284 451.21 605.284C449.82 605.284 448.668 604.982 447.757 604.379C446.846 603.775 446.268 602.893 446.026 601.733L448.014 601.236C448.204 601.97 448.562 602.52 449.089 602.887C449.621 603.254 450.317 603.438 451.175 603.438C452.152 603.438 452.927 603.23 453.501 602.816C454.081 602.396 454.371 601.893 454.371 601.307C454.371 600.833 454.205 600.437 453.874 600.117C453.542 599.792 453.033 599.549 452.347 599.389L450.074 598.857C448.825 598.561 447.908 598.102 447.322 597.48C446.742 596.853 446.452 596.069 446.452 595.128C446.452 594.358 446.668 593.678 447.1 593.086C447.538 592.494 448.133 592.029 448.884 591.692C449.642 591.355 450.5 591.186 451.459 591.186C452.809 591.186 453.868 591.482 454.637 592.074C455.413 592.666 455.963 593.447 456.289 594.418ZM462.781 605L458.626 591.364H460.827L463.775 601.804H463.917L466.829 591.364H469.066L471.942 601.768H472.085L475.032 591.364H477.234L473.079 605H471.019L468.036 594.524H467.823L464.84 605H462.781ZM480.004 605V591.364H482.099V605H480.004ZM481.069 589.091C480.661 589.091 480.308 588.952 480.012 588.674C479.722 588.395 479.577 588.061 479.577 587.67C479.577 587.28 479.722 586.945 480.012 586.667C480.308 586.389 480.661 586.25 481.069 586.25C481.477 586.25 481.826 586.389 482.116 586.667C482.412 586.945 482.56 587.28 482.56 587.67C482.56 588.061 482.412 588.395 482.116 588.674C481.826 588.952 481.477 589.091 481.069 589.091ZM491.476 605.284C490.198 605.284 489.097 604.982 488.173 604.379C487.25 603.775 486.54 602.943 486.043 601.884C485.546 600.824 485.297 599.614 485.297 598.253C485.297 596.868 485.551 595.646 486.06 594.586C486.575 593.521 487.292 592.689 488.209 592.092C489.132 591.488 490.209 591.186 491.44 591.186C492.399 591.186 493.263 591.364 494.033 591.719C494.802 592.074 495.432 592.571 495.924 593.21C496.415 593.849 496.72 594.595 496.838 595.447H494.743C494.583 594.826 494.228 594.276 493.678 593.796C493.133 593.311 492.399 593.068 491.476 593.068C490.659 593.068 489.943 593.281 489.328 593.707C488.718 594.128 488.241 594.722 487.898 595.492C487.561 596.255 487.392 597.152 487.392 598.182C487.392 599.235 487.558 600.153 487.889 600.934C488.227 601.715 488.7 602.322 489.31 602.754C489.925 603.186 490.647 603.402 491.476 603.402C492.02 603.402 492.515 603.307 492.959 603.118C493.402 602.929 493.778 602.656 494.086 602.301C494.394 601.946 494.613 601.52 494.743 601.023H496.838C496.72 601.828 496.427 602.553 495.959 603.198C495.498 603.837 494.885 604.346 494.122 604.725C493.364 605.098 492.482 605.284 491.476 605.284ZM501.854 600.028L501.819 597.436H502.245L508.211 591.364H510.803L504.446 597.791H504.269L501.854 600.028ZM499.901 605V586.818H501.996V605H499.901ZM508.566 605L503.239 598.253L504.731 596.797L511.229 605H508.566Z" fill="black"/>
<path d="M379.947 329H377.639L384.315 310.818H386.588L393.264 329H390.956L385.523 313.695H385.381L379.947 329ZM380.8 321.898H390.104V323.851H380.8V321.898ZM404.406 323.425V315.364H406.501V329H404.406V326.692H404.264C403.944 327.384 403.447 327.973 402.772 328.458C402.098 328.938 401.245 329.178 400.216 329.178C399.363 329.178 398.606 328.991 397.943 328.618C397.28 328.239 396.759 327.671 396.38 326.914C396.002 326.15 395.812 325.188 395.812 324.028V315.364H397.907V323.886C397.907 324.881 398.185 325.674 398.742 326.266C399.304 326.857 400.02 327.153 400.89 327.153C401.411 327.153 401.941 327.02 402.479 326.754C403.024 326.488 403.48 326.079 403.847 325.529C404.219 324.978 404.406 324.277 404.406 323.425ZM415.843 334.398C414.831 334.398 413.961 334.268 413.233 334.007C412.505 333.753 411.898 333.415 411.413 332.995C410.933 332.581 410.552 332.137 410.267 331.663L411.937 330.491C412.126 330.74 412.366 331.024 412.656 331.344C412.946 331.669 413.342 331.95 413.845 332.187C414.354 332.43 415.02 332.551 415.843 332.551C416.944 332.551 417.852 332.285 418.568 331.752C419.284 331.219 419.642 330.385 419.642 329.249V326.479H419.465C419.311 326.727 419.092 327.035 418.808 327.402C418.53 327.763 418.127 328.086 417.601 328.37C417.08 328.648 416.375 328.787 415.488 328.787C414.387 328.787 413.398 328.527 412.522 328.006C411.652 327.485 410.963 326.727 410.454 325.733C409.951 324.739 409.699 323.531 409.699 322.111C409.699 320.714 409.945 319.498 410.436 318.462C410.927 317.42 411.611 316.615 412.487 316.047C413.363 315.473 414.375 315.186 415.523 315.186C416.411 315.186 417.115 315.334 417.636 315.63C418.163 315.92 418.565 316.251 418.843 316.624C419.128 316.991 419.347 317.293 419.5 317.53H419.714V315.364H421.738V329.391C421.738 330.562 421.471 331.515 420.939 332.249C420.412 332.989 419.702 333.531 418.808 333.874C417.92 334.223 416.932 334.398 415.843 334.398ZM415.772 326.905C416.612 326.905 417.322 326.712 417.902 326.328C418.482 325.943 418.923 325.39 419.225 324.668C419.527 323.946 419.678 323.081 419.678 322.075C419.678 321.093 419.53 320.226 419.234 319.474C418.938 318.722 418.5 318.134 417.92 317.707C417.34 317.281 416.624 317.068 415.772 317.068C414.884 317.068 414.144 317.293 413.552 317.743C412.966 318.193 412.525 318.796 412.229 319.554C411.939 320.312 411.794 321.152 411.794 322.075C411.794 323.022 411.942 323.86 412.238 324.588C412.54 325.31 412.984 325.878 413.57 326.292C414.162 326.701 414.896 326.905 415.772 326.905ZM434.167 323.425V315.364H436.262V329H434.167V326.692H434.025C433.705 327.384 433.208 327.973 432.533 328.458C431.858 328.938 431.006 329.178 429.976 329.178C429.124 329.178 428.366 328.991 427.704 328.618C427.041 328.239 426.52 327.671 426.141 326.914C425.762 326.15 425.573 325.188 425.573 324.028V315.364H427.668V323.886C427.668 324.881 427.946 325.674 428.503 326.266C429.065 326.857 429.781 327.153 430.651 327.153C431.172 327.153 431.702 327.02 432.24 326.754C432.785 326.488 433.24 326.079 433.607 325.529C433.98 324.978 434.167 324.277 434.167 323.425ZM449.758 318.418L447.876 318.95C447.758 318.637 447.583 318.332 447.352 318.036C447.128 317.734 446.82 317.485 446.429 317.29C446.039 317.095 445.538 316.997 444.929 316.997C444.094 316.997 443.399 317.19 442.843 317.574C442.292 317.953 442.017 318.435 442.017 319.021C442.017 319.542 442.206 319.953 442.585 320.255C442.964 320.557 443.556 320.809 444.361 321.01L446.385 321.507C447.604 321.803 448.512 322.256 449.11 322.865C449.708 323.469 450.007 324.247 450.007 325.2C450.007 325.982 449.782 326.68 449.332 327.295C448.888 327.911 448.267 328.396 447.468 328.751C446.669 329.107 445.74 329.284 444.68 329.284C443.289 329.284 442.138 328.982 441.227 328.379C440.315 327.775 439.738 326.893 439.496 325.733L441.484 325.236C441.674 325.97 442.032 326.52 442.558 326.887C443.091 327.254 443.787 327.438 444.645 327.438C445.621 327.438 446.397 327.23 446.971 326.816C447.551 326.396 447.841 325.893 447.841 325.307C447.841 324.833 447.675 324.437 447.344 324.117C447.012 323.792 446.503 323.549 445.817 323.389L443.544 322.857C442.295 322.561 441.378 322.102 440.792 321.48C440.212 320.853 439.922 320.069 439.922 319.128C439.922 318.358 440.138 317.678 440.57 317.086C441.008 316.494 441.603 316.029 442.354 315.692C443.112 315.355 443.97 315.186 444.929 315.186C446.278 315.186 447.338 315.482 448.107 316.074C448.882 316.666 449.433 317.447 449.758 318.418ZM459.091 315.364V317.139H452.024V315.364H459.091ZM454.084 312.097H456.179V325.094C456.179 325.686 456.265 326.129 456.437 326.425C456.614 326.715 456.839 326.911 457.111 327.011C457.39 327.106 457.683 327.153 457.99 327.153C458.221 327.153 458.411 327.142 458.559 327.118C458.706 327.088 458.825 327.065 458.914 327.047L459.34 328.929C459.198 328.982 458.999 329.036 458.745 329.089C458.49 329.148 458.168 329.178 457.777 329.178C457.185 329.178 456.605 329.05 456.037 328.796C455.475 328.541 455.007 328.154 454.634 327.633C454.268 327.112 454.084 326.455 454.084 325.662V312.097ZM466.256 329.32C465.391 329.32 464.607 329.157 463.903 328.831C463.199 328.5 462.639 328.023 462.225 327.402C461.811 326.775 461.604 326.017 461.604 325.129C461.604 324.348 461.757 323.715 462.065 323.229C462.373 322.738 462.784 322.353 463.299 322.075C463.814 321.797 464.382 321.59 465.004 321.454C465.631 321.312 466.262 321.199 466.895 321.116C467.723 321.01 468.395 320.93 468.91 320.877C469.431 320.818 469.81 320.72 470.046 320.584C470.289 320.448 470.41 320.211 470.41 319.874V319.803C470.41 318.927 470.171 318.246 469.691 317.761C469.218 317.275 468.499 317.033 467.534 317.033C466.534 317.033 465.75 317.252 465.181 317.69C464.613 318.128 464.214 318.595 463.983 319.092L461.994 318.382C462.349 317.554 462.823 316.908 463.415 316.447C464.012 315.979 464.664 315.654 465.368 315.47C466.078 315.281 466.776 315.186 467.463 315.186C467.901 315.186 468.404 315.239 468.972 315.346C469.546 315.446 470.1 315.657 470.632 315.976C471.171 316.296 471.618 316.778 471.973 317.423C472.328 318.068 472.506 318.933 472.506 320.016V329H470.41V327.153H470.304C470.162 327.449 469.925 327.766 469.594 328.103C469.262 328.441 468.821 328.728 468.271 328.964C467.72 329.201 467.049 329.32 466.256 329.32ZM466.575 327.438C467.404 327.438 468.102 327.275 468.67 326.949C469.244 326.624 469.677 326.203 469.967 325.689C470.262 325.174 470.41 324.632 470.41 324.064V322.146C470.322 322.253 470.126 322.35 469.824 322.439C469.529 322.522 469.185 322.596 468.795 322.661C468.41 322.72 468.034 322.774 467.667 322.821C467.306 322.862 467.013 322.898 466.788 322.928C466.244 322.999 465.735 323.114 465.261 323.274C464.794 323.428 464.415 323.661 464.125 323.975C463.841 324.283 463.699 324.703 463.699 325.236C463.699 325.964 463.968 326.514 464.507 326.887C465.051 327.254 465.741 327.438 466.575 327.438Z" fill="black"/>
<path d="M249.202 341.818H251.83L258.009 356.911H258.222L264.401 341.818H267.028V360H264.969V346.186H264.791L259.109 360H257.121L251.439 346.186H251.261V360H249.202V341.818ZM275.172 360.32C274.307 360.32 273.523 360.157 272.819 359.831C272.115 359.5 271.555 359.023 271.141 358.402C270.727 357.775 270.52 357.017 270.52 356.129C270.52 355.348 270.674 354.715 270.981 354.229C271.289 353.738 271.7 353.353 272.215 353.075C272.73 352.797 273.298 352.59 273.92 352.454C274.547 352.312 275.178 352.199 275.811 352.116C276.639 352.01 277.311 351.93 277.826 351.877C278.347 351.818 278.726 351.72 278.962 351.584C279.205 351.448 279.326 351.211 279.326 350.874V350.803C279.326 349.927 279.087 349.246 278.607 348.761C278.134 348.275 277.415 348.033 276.45 348.033C275.45 348.033 274.666 348.252 274.097 348.69C273.529 349.128 273.13 349.595 272.899 350.092L270.91 349.382C271.265 348.554 271.739 347.908 272.331 347.447C272.928 346.979 273.58 346.654 274.284 346.47C274.994 346.281 275.692 346.186 276.379 346.186C276.817 346.186 277.32 346.239 277.888 346.346C278.462 346.446 279.016 346.657 279.548 346.976C280.087 347.296 280.534 347.778 280.889 348.423C281.244 349.068 281.422 349.933 281.422 351.016V360H279.326V358.153H279.22C279.078 358.449 278.841 358.766 278.51 359.103C278.178 359.441 277.737 359.728 277.187 359.964C276.636 360.201 275.965 360.32 275.172 360.32ZM275.491 358.438C276.32 358.438 277.018 358.275 277.586 357.949C278.16 357.624 278.593 357.203 278.883 356.689C279.178 356.174 279.326 355.632 279.326 355.064V353.146C279.238 353.253 279.042 353.35 278.741 353.439C278.445 353.522 278.101 353.596 277.711 353.661C277.326 353.72 276.95 353.774 276.583 353.821C276.222 353.862 275.929 353.898 275.704 353.928C275.16 353.999 274.651 354.114 274.177 354.274C273.71 354.428 273.331 354.661 273.041 354.975C272.757 355.283 272.615 355.703 272.615 356.236C272.615 356.964 272.884 357.514 273.423 357.887C273.967 358.254 274.657 358.438 275.491 358.438ZM290.786 360.284C289.507 360.284 288.406 359.982 287.483 359.379C286.56 358.775 285.849 357.943 285.352 356.884C284.855 355.824 284.607 354.614 284.607 353.253C284.607 351.868 284.861 350.646 285.37 349.586C285.885 348.521 286.601 347.689 287.518 347.092C288.442 346.488 289.519 346.186 290.75 346.186C291.709 346.186 292.573 346.364 293.342 346.719C294.112 347.074 294.742 347.571 295.233 348.21C295.725 348.849 296.029 349.595 296.148 350.447H294.053C293.893 349.826 293.538 349.276 292.987 348.796C292.443 348.311 291.709 348.068 290.786 348.068C289.969 348.068 289.253 348.281 288.637 348.707C288.027 349.128 287.551 349.722 287.208 350.492C286.87 351.255 286.702 352.152 286.702 353.182C286.702 354.235 286.867 355.153 287.199 355.934C287.536 356.715 288.01 357.322 288.619 357.754C289.235 358.186 289.957 358.402 290.786 358.402C291.33 358.402 291.824 358.307 292.268 358.118C292.712 357.929 293.088 357.656 293.396 357.301C293.703 356.946 293.922 356.52 294.053 356.023H296.148C296.029 356.828 295.736 357.553 295.269 358.198C294.807 358.837 294.195 359.346 293.431 359.725C292.674 360.098 291.792 360.284 290.786 360.284ZM304.75 360.284C303.519 360.284 302.439 359.991 301.51 359.405C300.587 358.819 299.865 358 299.344 356.946C298.829 355.893 298.571 354.661 298.571 353.253C298.571 351.832 298.829 350.592 299.344 349.533C299.865 348.474 300.587 347.651 301.51 347.065C302.439 346.479 303.519 346.186 304.75 346.186C305.981 346.186 307.059 346.479 307.982 347.065C308.911 347.651 309.633 348.474 310.148 349.533C310.669 350.592 310.929 351.832 310.929 353.253C310.929 354.661 310.669 355.893 310.148 356.946C309.633 358 308.911 358.819 307.982 359.405C307.059 359.991 305.981 360.284 304.75 360.284ZM304.75 358.402C305.685 358.402 306.455 358.162 307.059 357.683C307.662 357.203 308.109 356.573 308.399 355.792C308.689 355.011 308.834 354.164 308.834 353.253C308.834 352.341 308.689 351.492 308.399 350.705C308.109 349.918 307.662 349.281 307.059 348.796C306.455 348.311 305.685 348.068 304.75 348.068C303.815 348.068 303.046 348.311 302.442 348.796C301.838 349.281 301.392 349.918 301.102 350.705C300.812 351.492 300.667 352.341 300.667 353.253C300.667 354.164 300.812 355.011 301.102 355.792C301.392 356.573 301.838 357.203 302.442 357.683C303.046 358.162 303.815 358.402 304.75 358.402ZM316.223 351.797V360H314.128V346.364H316.152V348.494H316.329C316.649 347.802 317.134 347.246 317.785 346.825C318.436 346.399 319.277 346.186 320.307 346.186C321.23 346.186 322.038 346.375 322.73 346.754C323.423 347.127 323.961 347.695 324.346 348.459C324.731 349.216 324.923 350.175 324.923 351.335V360H322.828V351.477C322.828 350.406 322.55 349.571 321.993 348.974C321.437 348.37 320.674 348.068 319.703 348.068C319.034 348.068 318.436 348.213 317.91 348.503C317.389 348.793 316.977 349.216 316.676 349.773C316.374 350.329 316.223 351.004 316.223 351.797Z" fill="black"/>
<path d="M293.947 206H291.639L298.315 187.818H300.588L307.264 206H304.956L299.523 190.695H299.381L293.947 206ZM294.8 198.898H304.104V200.851H294.8V198.898ZM314.888 192.364V194.139H307.821V192.364H314.888ZM309.881 189.097H311.976V202.094C311.976 202.686 312.062 203.129 312.234 203.425C312.411 203.715 312.636 203.911 312.908 204.011C313.186 204.106 313.479 204.153 313.787 204.153C314.018 204.153 314.207 204.142 314.355 204.118C314.503 204.088 314.622 204.065 314.71 204.047L315.137 205.929C314.995 205.982 314.796 206.036 314.542 206.089C314.287 206.148 313.965 206.178 313.574 206.178C312.982 206.178 312.402 206.05 311.834 205.796C311.272 205.541 310.804 205.154 310.431 204.633C310.064 204.112 309.881 203.455 309.881 202.662V189.097ZM320.428 197.797V206H318.333V187.818H320.428V194.494H320.605C320.925 193.79 321.404 193.231 322.044 192.816C322.689 192.396 323.547 192.186 324.618 192.186C325.547 192.186 326.361 192.373 327.06 192.745C327.758 193.112 328.3 193.678 328.684 194.441C329.075 195.199 329.27 196.163 329.27 197.335V206H327.175V197.477C327.175 196.394 326.894 195.557 326.332 194.965C325.775 194.367 325.003 194.068 324.014 194.068C323.328 194.068 322.712 194.213 322.168 194.503C321.629 194.793 321.203 195.216 320.889 195.773C320.582 196.329 320.428 197.004 320.428 197.797ZM338.82 206.284C337.507 206.284 336.373 205.994 335.42 205.414C334.473 204.828 333.742 204.011 333.227 202.964C332.718 201.91 332.464 200.685 332.464 199.288C332.464 197.892 332.718 196.661 333.227 195.595C333.742 194.524 334.459 193.689 335.376 193.092C336.299 192.488 337.376 192.186 338.607 192.186C339.318 192.186 340.019 192.304 340.711 192.541C341.404 192.778 342.034 193.163 342.602 193.695C343.171 194.222 343.623 194.92 343.961 195.79C344.298 196.661 344.467 197.732 344.467 199.004V199.892H333.955V198.081H342.336C342.336 197.312 342.182 196.625 341.874 196.021C341.573 195.418 341.141 194.941 340.578 194.592C340.022 194.243 339.365 194.068 338.607 194.068C337.773 194.068 337.051 194.275 336.441 194.69C335.838 195.098 335.373 195.631 335.047 196.288C334.722 196.945 334.559 197.649 334.559 198.401V199.608C334.559 200.638 334.737 201.511 335.092 202.227C335.453 202.937 335.953 203.479 336.592 203.852C337.231 204.219 337.974 204.402 338.82 204.402C339.371 204.402 339.868 204.325 340.312 204.171C340.762 204.011 341.149 203.775 341.475 203.461C341.8 203.141 342.052 202.745 342.23 202.271L344.254 202.839C344.041 203.526 343.683 204.13 343.18 204.651C342.676 205.165 342.055 205.568 341.315 205.858C340.575 206.142 339.744 206.284 338.82 206.284ZM349.749 197.797V206H347.654V192.364H349.678V194.494H349.856C350.175 193.802 350.661 193.246 351.312 192.825C351.963 192.399 352.803 192.186 353.833 192.186C354.756 192.186 355.564 192.375 356.257 192.754C356.949 193.127 357.488 193.695 357.872 194.459C358.257 195.216 358.449 196.175 358.449 197.335V206H356.354V197.477C356.354 196.406 356.076 195.571 355.52 194.974C354.963 194.37 354.2 194.068 353.229 194.068C352.56 194.068 351.963 194.213 351.436 194.503C350.915 194.793 350.504 195.216 350.202 195.773C349.9 196.329 349.749 197.004 349.749 197.797ZM371.937 195.418L370.055 195.95C369.937 195.637 369.762 195.332 369.531 195.036C369.306 194.734 368.998 194.485 368.608 194.29C368.217 194.095 367.717 193.997 367.108 193.997C366.273 193.997 365.578 194.19 365.021 194.574C364.471 194.953 364.196 195.435 364.196 196.021C364.196 196.542 364.385 196.953 364.764 197.255C365.143 197.557 365.734 197.809 366.539 198.01L368.563 198.507C369.783 198.803 370.691 199.256 371.289 199.865C371.887 200.469 372.186 201.247 372.186 202.2C372.186 202.982 371.961 203.68 371.511 204.295C371.067 204.911 370.446 205.396 369.647 205.751C368.848 206.107 367.918 206.284 366.859 206.284C365.468 206.284 364.317 205.982 363.405 205.379C362.494 204.775 361.917 203.893 361.674 202.733L363.663 202.236C363.852 202.97 364.21 203.52 364.737 203.887C365.27 204.254 365.965 204.438 366.823 204.438C367.8 204.438 368.575 204.23 369.149 203.816C369.729 203.396 370.019 202.893 370.019 202.307C370.019 201.833 369.854 201.437 369.522 201.117C369.191 200.792 368.682 200.549 367.995 200.389L365.723 199.857C364.474 199.561 363.556 199.102 362.97 198.48C362.39 197.853 362.1 197.069 362.1 196.128C362.1 195.358 362.316 194.678 362.748 194.086C363.186 193.494 363.781 193.029 364.533 192.692C365.291 192.355 366.149 192.186 367.108 192.186C368.457 192.186 369.516 192.482 370.286 193.074C371.061 193.666 371.612 194.447 371.937 195.418Z" fill="black"/>
<circle cx="568.511" cy="479.511" r="9.01136" fill="#FFE587" stroke="black"/>
<circle cx="526.511" cy="596.511" r="9.01136" fill="#FFE587" stroke="black"/>
<circle cx="464.511" cy="295.511" r="9.01136" fill="#FFE587" stroke="black"/>
<circle cx="288.511" cy="377.511" r="9.01136" fill="#FFE587" stroke="black"/>
<circle cx="315.511" cy="223.511" r="9.01136" fill="#FFE587" stroke="black"/>
<circle cx="140.511" cy="427.511" r="9.01136" fill="#FFE587" stroke="black"/>
<path d="M577.454 575H574.079L583.122 557.545H587.025L590.281 575H586.906L584.562 561.125H584.426L577.454 575ZM578.699 568.156H587.903L587.477 570.696H578.272L578.699 568.156ZM600.342 561.909L599.941 564.295H592.424L592.816 561.909H600.342ZM595.186 558.773H598.271L596.225 571.062C596.163 571.477 596.174 571.795 596.26 572.017C596.35 572.233 596.495 572.381 596.694 572.46C596.899 572.54 597.129 572.58 597.385 572.58C597.572 572.58 597.748 572.565 597.913 572.537C598.078 572.503 598.208 572.477 598.305 572.46L598.441 574.872C598.254 574.929 598.001 574.991 597.683 575.06C597.37 575.128 596.995 575.168 596.558 575.179C595.774 575.196 595.092 575.077 594.512 574.821C593.939 574.56 593.518 574.159 593.251 573.619C592.99 573.074 592.93 572.392 593.072 571.574L595.186 558.773ZM607.005 557.545L604.107 575H601.022L603.919 557.545H607.005ZM611.012 575.264C610.183 575.264 609.461 575.116 608.848 574.821C608.234 574.52 607.782 574.077 607.493 573.491C607.208 572.906 607.137 572.185 607.279 571.327C607.404 570.588 607.643 569.977 607.995 569.494C608.353 569.011 608.791 568.625 609.308 568.335C609.831 568.04 610.399 567.818 611.012 567.67C611.632 567.523 612.262 567.415 612.904 567.347C613.689 567.267 614.322 567.193 614.805 567.125C615.294 567.057 615.66 566.955 615.904 566.818C616.149 566.676 616.297 566.46 616.348 566.17V566.119C616.45 565.477 616.348 564.98 616.041 564.628C615.734 564.276 615.223 564.099 614.507 564.099C613.757 564.099 613.126 564.264 612.615 564.594C612.103 564.923 611.731 565.312 611.498 565.761L608.703 565.352C609.055 564.557 609.538 563.892 610.152 563.358C610.765 562.818 611.473 562.415 612.274 562.148C613.081 561.875 613.941 561.739 614.856 561.739C615.481 561.739 616.092 561.812 616.689 561.96C617.291 562.108 617.822 562.352 618.282 562.693C618.748 563.028 619.089 563.486 619.305 564.065C619.527 564.645 619.564 565.369 619.416 566.239L617.958 575H614.993L615.299 573.202H615.197C614.953 573.565 614.635 573.906 614.243 574.224C613.85 574.537 613.385 574.79 612.845 574.983C612.305 575.17 611.694 575.264 611.012 575.264ZM612.18 572.997C612.799 572.997 613.356 572.875 613.85 572.631C614.345 572.381 614.751 572.051 615.069 571.642C615.387 571.233 615.586 570.787 615.666 570.304L615.922 568.761C615.808 568.841 615.632 568.915 615.393 568.983C615.154 569.051 614.887 569.111 614.592 569.162C614.302 569.213 614.015 569.259 613.731 569.298C613.447 569.338 613.203 569.372 612.998 569.401C612.527 569.463 612.095 569.565 611.703 569.707C611.316 569.849 610.995 570.048 610.74 570.304C610.49 570.554 610.333 570.878 610.271 571.276C610.18 571.838 610.314 572.267 610.672 572.562C611.029 572.852 611.532 572.997 612.18 572.997ZM625.424 567.33L624.163 575H621.069L623.251 561.909H626.208L625.833 564.134H625.995C626.404 563.401 626.978 562.818 627.717 562.386C628.456 561.955 629.316 561.739 630.299 561.739C631.191 561.739 631.941 561.932 632.549 562.318C633.157 562.699 633.589 563.259 633.845 563.997C634.1 564.73 634.14 565.619 633.964 566.665L632.566 575H629.481L630.785 567.142C630.933 566.273 630.822 565.591 630.453 565.097C630.089 564.597 629.504 564.347 628.697 564.347C628.157 564.347 627.66 564.466 627.206 564.705C626.751 564.937 626.368 565.276 626.055 565.719C625.748 566.162 625.538 566.699 625.424 567.33ZM644.404 561.909L644.004 564.295H636.487L636.879 561.909H644.404ZM639.248 558.773H642.333L640.288 571.062C640.225 571.477 640.237 571.795 640.322 572.017C640.413 572.233 640.558 572.381 640.757 572.46C640.961 572.54 641.191 572.58 641.447 572.58C641.635 572.58 641.811 572.565 641.975 572.537C642.14 572.503 642.271 572.477 642.368 572.46L642.504 574.872C642.316 574.929 642.064 574.991 641.745 575.06C641.433 575.128 641.058 575.168 640.62 575.179C639.836 575.196 639.154 575.077 638.575 574.821C638.001 574.56 637.581 574.159 637.314 573.619C637.052 573.074 636.993 572.392 637.135 571.574L639.248 558.773ZM644.803 575L646.985 561.909H650.07L647.888 575H644.803ZM648.979 560.034C648.485 560.034 648.076 559.869 647.752 559.54C647.428 559.21 647.286 558.815 647.326 558.355C647.365 557.895 647.573 557.5 647.948 557.17C648.328 556.841 648.763 556.676 649.252 556.676C649.746 556.676 650.152 556.841 650.471 557.17C650.794 557.5 650.936 557.895 650.897 558.355C650.863 558.815 650.655 559.21 650.275 559.54C649.9 559.869 649.468 560.034 648.979 560.034ZM656.737 575.256C655.43 575.256 654.356 574.969 653.515 574.395C652.674 573.821 652.086 573.028 651.751 572.017C651.422 571 651.368 569.83 651.589 568.506C651.805 567.176 652.251 566.003 652.927 564.986C653.609 563.963 654.467 563.168 655.501 562.599C656.535 562.026 657.691 561.739 658.97 561.739C660.032 561.739 660.939 561.935 661.689 562.327C662.444 562.713 663.007 563.261 663.376 563.972C663.751 564.676 663.896 565.5 663.811 566.443H660.853C660.842 565.812 660.646 565.287 660.265 564.866C659.885 564.44 659.328 564.227 658.595 564.227C657.958 564.227 657.373 564.398 656.839 564.739C656.305 565.074 655.853 565.557 655.484 566.188C655.115 566.818 654.859 567.574 654.717 568.455C654.569 569.347 654.572 570.114 654.725 570.756C654.885 571.392 655.172 571.884 655.586 572.23C656.007 572.571 656.538 572.741 657.18 572.741C657.635 572.741 658.058 572.656 658.45 572.486C658.842 572.31 659.186 572.057 659.481 571.727C659.782 571.398 660.018 570.997 660.189 570.526H663.137C662.904 571.452 662.49 572.273 661.893 572.989C661.302 573.699 660.569 574.256 659.694 574.659C658.819 575.057 657.833 575.256 656.737 575.256ZM599.595 595.477C599.288 597.33 598.683 598.909 597.78 600.216C596.882 601.517 595.786 602.514 594.49 603.207C593.2 603.895 591.811 604.239 590.322 604.239C588.76 604.239 587.419 603.875 586.3 603.148C585.18 602.415 584.374 601.366 583.879 600.003C583.391 598.639 583.305 597.003 583.624 595.094C583.93 593.247 584.533 591.668 585.43 590.355C586.328 589.043 587.428 588.04 588.729 587.347C590.03 586.653 591.433 586.307 592.939 586.307C594.49 586.307 595.82 586.673 596.928 587.406C598.041 588.134 598.842 589.182 599.331 590.551C599.825 591.92 599.913 593.562 599.595 595.477ZM596.484 595.094C596.695 593.804 596.675 592.716 596.425 591.83C596.18 590.943 595.746 590.276 595.121 589.827C594.496 589.372 593.726 589.145 592.811 589.145C591.822 589.145 590.908 589.392 590.067 589.886C589.232 590.375 588.521 591.091 587.936 592.034C587.357 592.977 586.959 594.125 586.743 595.477C586.516 596.773 586.53 597.861 586.786 598.741C587.041 599.622 587.484 600.287 588.115 600.736C588.746 601.179 589.516 601.401 590.425 601.401C591.408 601.401 592.317 601.156 593.152 600.668C593.987 600.179 594.695 599.466 595.274 598.528C595.859 597.591 596.263 596.446 596.484 595.094ZM606.71 604.256C605.403 604.256 604.329 603.969 603.488 603.395C602.647 602.821 602.059 602.028 601.724 601.017C601.394 600 601.34 598.83 601.562 597.506C601.778 596.176 602.224 595.003 602.9 593.986C603.582 592.963 604.44 592.168 605.474 591.599C606.508 591.026 607.664 590.739 608.942 590.739C610.005 590.739 610.911 590.935 611.661 591.327C612.417 591.713 612.979 592.261 613.349 592.972C613.724 593.676 613.869 594.5 613.783 595.443H610.826C610.815 594.812 610.619 594.287 610.238 593.866C609.857 593.44 609.3 593.227 608.567 593.227C607.931 593.227 607.346 593.398 606.812 593.739C606.278 594.074 605.826 594.557 605.457 595.188C605.087 595.818 604.832 596.574 604.69 597.455C604.542 598.347 604.545 599.114 604.698 599.756C604.857 600.392 605.144 600.884 605.559 601.23C605.979 601.571 606.511 601.741 607.153 601.741C607.607 601.741 608.031 601.656 608.423 601.486C608.815 601.31 609.158 601.057 609.454 600.727C609.755 600.398 609.991 599.997 610.161 599.526H613.11C612.877 600.452 612.462 601.273 611.866 601.989C611.275 602.699 610.542 603.256 609.667 603.659C608.792 604.057 607.806 604.256 606.71 604.256ZM620.646 604.256C619.334 604.256 618.249 603.983 617.391 603.438C616.533 602.886 615.93 602.108 615.584 601.102C615.243 600.091 615.186 598.901 615.413 597.531C615.635 596.185 616.087 595.003 616.768 593.986C617.45 592.963 618.303 592.168 619.325 591.599C620.354 591.026 621.49 590.739 622.734 590.739C623.541 590.739 624.283 590.869 624.959 591.131C625.635 591.386 626.206 591.784 626.672 592.324C627.138 592.864 627.459 593.551 627.635 594.386C627.811 595.216 627.803 596.205 627.609 597.352L627.464 598.298H616.726L617.058 596.219H624.831C624.933 595.628 624.899 595.102 624.729 594.642C624.558 594.176 624.274 593.81 623.876 593.543C623.479 593.276 622.982 593.142 622.385 593.142C621.777 593.142 621.209 593.298 620.68 593.611C620.158 593.918 619.717 594.315 619.359 594.804C619.001 595.293 618.774 595.807 618.678 596.347L618.328 598.341C618.203 599.159 618.232 599.827 618.413 600.344C618.595 600.861 618.913 601.241 619.368 601.486C619.822 601.73 620.396 601.852 621.089 601.852C621.544 601.852 621.964 601.79 622.351 601.665C622.737 601.54 623.081 601.352 623.382 601.102C623.689 600.847 623.945 600.534 624.149 600.165L626.97 600.489C626.658 601.25 626.2 601.915 625.598 602.483C624.996 603.045 624.274 603.483 623.433 603.795C622.598 604.102 621.669 604.256 620.646 604.256ZM632.868 604.264C632.038 604.264 631.317 604.116 630.703 603.821C630.089 603.52 629.638 603.077 629.348 602.491C629.064 601.906 628.993 601.185 629.135 600.327C629.26 599.588 629.499 598.977 629.851 598.494C630.209 598.011 630.646 597.625 631.163 597.335C631.686 597.04 632.254 596.818 632.868 596.67C633.487 596.523 634.118 596.415 634.76 596.347C635.544 596.267 636.178 596.193 636.661 596.125C637.149 596.057 637.516 595.955 637.76 595.818C638.004 595.676 638.152 595.46 638.203 595.17V595.119C638.305 594.477 638.203 593.98 637.896 593.628C637.589 593.276 637.078 593.099 636.362 593.099C635.612 593.099 634.982 593.264 634.47 593.594C633.959 593.923 633.587 594.312 633.354 594.761L630.558 594.352C630.911 593.557 631.393 592.892 632.007 592.358C632.621 591.818 633.328 591.415 634.129 591.148C634.936 590.875 635.797 590.739 636.712 590.739C637.337 590.739 637.947 590.812 638.544 590.96C639.146 591.108 639.678 591.352 640.138 591.693C640.604 592.028 640.945 592.486 641.161 593.065C641.382 593.645 641.419 594.369 641.271 595.239L639.814 604H636.848L637.155 602.202H637.053C636.808 602.565 636.49 602.906 636.098 603.224C635.706 603.537 635.24 603.79 634.7 603.983C634.161 604.17 633.55 604.264 632.868 604.264ZM634.036 601.997C634.655 601.997 635.212 601.875 635.706 601.631C636.2 601.381 636.607 601.051 636.925 600.642C637.243 600.233 637.442 599.787 637.521 599.304L637.777 597.761C637.663 597.841 637.487 597.915 637.249 597.983C637.01 598.051 636.743 598.111 636.447 598.162C636.158 598.213 635.871 598.259 635.587 598.298C635.303 598.338 635.058 598.372 634.854 598.401C634.382 598.463 633.95 598.565 633.558 598.707C633.172 598.849 632.851 599.048 632.595 599.304C632.345 599.554 632.189 599.878 632.126 600.276C632.036 600.838 632.169 601.267 632.527 601.562C632.885 601.852 633.388 601.997 634.036 601.997ZM647.28 596.33L646.018 604H642.925L645.107 590.909H648.064L647.689 593.134H647.851C648.26 592.401 648.834 591.818 649.572 591.386C650.311 590.955 651.172 590.739 652.155 590.739C653.047 590.739 653.797 590.932 654.405 591.318C655.013 591.699 655.445 592.259 655.7 592.997C655.956 593.73 655.996 594.619 655.82 595.665L654.422 604H651.337L652.641 596.142C652.788 595.273 652.678 594.591 652.308 594.097C651.945 593.597 651.359 593.347 650.553 593.347C650.013 593.347 649.516 593.466 649.061 593.705C648.607 593.937 648.223 594.276 647.911 594.719C647.604 595.162 647.393 595.699 647.28 596.33Z" fill="#017D83"/>
<defs>
<filter id="filter0_d_160_432" x="62.4121" y="87.4961" width="541.142" height="626.115" filterUnits="userSpaceOnUse" color-interpolation-filters="sRGB">
<feFlood flood-opacity="0" result="BackgroundImageFix"/>
<feColorMatrix in="SourceAlpha" type="matrix" values="0 0 0 0 0 0 0 0 0 0 0 0 0 0 0 0 0 0 127 0" result="hardAlpha"/>
<feOffset dy="4"/>
<feGaussianBlur stdDeviation="2"/>
<feComposite in2="hardAlpha" operator="out"/>
<feColorMatrix type="matrix" values="0 0 0 0 0 0 0 0 0 0 0 0 0 0 0 0 0 0 0.25 0"/>
<feBlend mode="normal" in2="BackgroundImageFix" result="effect1_dropShadow_160_432"/>
<feBlend mode="normal" in="SourceGraphic" in2="effect1_dropShadow_160_432" result="shape"/>
</filter>
</defs>
</svg>
