<svg width="917" height="663" viewBox="0 0 917 663" fill="none" xmlns="http://www.w3.org/2000/svg">
<rect x="0.5" y="0.5" width="916" height="662" rx="35.5" fill="#8DDBFF" stroke="#717171"/>
<path d="M296.093 415V397.545H302.638C303.979 397.545 305.104 397.795 306.013 398.295C306.928 398.795 307.618 399.483 308.084 400.358C308.556 401.227 308.792 402.216 308.792 403.324C308.792 404.443 308.556 405.437 308.084 406.307C307.613 407.176 306.917 407.861 305.996 408.361C305.076 408.855 303.942 409.102 302.596 409.102H298.257V406.503H302.169C302.953 406.503 303.596 406.366 304.096 406.094C304.596 405.821 304.965 405.446 305.203 404.969C305.448 404.491 305.57 403.943 305.57 403.324C305.57 402.705 305.448 402.159 305.203 401.688C304.965 401.216 304.593 400.849 304.087 400.588C303.587 400.321 302.942 400.188 302.152 400.188H299.255V415H296.093ZM314.934 415.264C314.105 415.264 313.358 415.116 312.693 414.821C312.034 414.52 311.511 414.077 311.125 413.491C310.744 412.906 310.554 412.185 310.554 411.327C310.554 410.588 310.69 409.977 310.963 409.494C311.235 409.011 311.608 408.625 312.079 408.335C312.551 408.045 313.082 407.827 313.673 407.679C314.27 407.526 314.886 407.415 315.522 407.347C316.289 407.267 316.912 407.196 317.389 407.134C317.866 407.065 318.213 406.963 318.429 406.827C318.65 406.685 318.761 406.466 318.761 406.17V406.119C318.761 405.477 318.571 404.98 318.19 404.628C317.809 404.276 317.261 404.099 316.545 404.099C315.789 404.099 315.19 404.264 314.747 404.594C314.309 404.923 314.014 405.312 313.86 405.761L310.98 405.352C311.207 404.557 311.582 403.892 312.105 403.358C312.627 402.818 313.267 402.415 314.022 402.148C314.778 401.875 315.613 401.739 316.528 401.739C317.159 401.739 317.787 401.812 318.412 401.96C319.037 402.108 319.608 402.352 320.125 402.693C320.642 403.028 321.056 403.486 321.369 404.065C321.687 404.645 321.846 405.369 321.846 406.239V415H318.88V413.202H318.778C318.591 413.565 318.326 413.906 317.985 414.224C317.65 414.537 317.227 414.79 316.716 414.983C316.21 415.17 315.616 415.264 314.934 415.264ZM315.735 412.997C316.355 412.997 316.892 412.875 317.346 412.631C317.801 412.381 318.15 412.051 318.395 411.642C318.645 411.233 318.77 410.787 318.77 410.304V408.761C318.673 408.841 318.508 408.915 318.275 408.983C318.048 409.051 317.792 409.111 317.508 409.162C317.224 409.213 316.943 409.259 316.664 409.298C316.386 409.338 316.145 409.372 315.94 409.401C315.48 409.463 315.068 409.565 314.704 409.707C314.341 409.849 314.054 410.048 313.843 410.304C313.633 410.554 313.528 410.878 313.528 411.276C313.528 411.844 313.735 412.273 314.15 412.562C314.565 412.852 315.093 412.997 315.735 412.997ZM330.659 415.256C329.352 415.256 328.23 414.969 327.292 414.395C326.36 413.821 325.642 413.028 325.136 412.017C324.636 411 324.386 409.83 324.386 408.506C324.386 407.176 324.642 406.003 325.153 404.986C325.664 403.963 326.386 403.168 327.318 402.599C328.255 402.026 329.363 401.739 330.642 401.739C331.704 401.739 332.645 401.935 333.463 402.327C334.287 402.713 334.943 403.261 335.431 403.972C335.92 404.676 336.199 405.5 336.267 406.443H333.318C333.199 405.812 332.914 405.287 332.466 404.866C332.022 404.44 331.429 404.227 330.684 404.227C330.054 404.227 329.5 404.398 329.022 404.739C328.545 405.074 328.173 405.557 327.906 406.188C327.645 406.818 327.514 407.574 327.514 408.455C327.514 409.347 327.645 410.114 327.906 410.756C328.167 411.392 328.534 411.884 329.005 412.23C329.483 412.571 330.042 412.741 330.684 412.741C331.139 412.741 331.545 412.656 331.903 412.486C332.267 412.31 332.571 412.057 332.815 411.727C333.059 411.398 333.227 410.997 333.318 410.526H336.267C336.193 411.452 335.92 412.273 335.449 412.989C334.977 413.699 334.335 414.256 333.522 414.659C332.71 415.057 331.755 415.256 330.659 415.256ZM338.8 415V401.909H341.885V415H338.8ZM340.351 400.051C339.863 400.051 339.442 399.889 339.09 399.565C338.738 399.236 338.561 398.841 338.561 398.381C338.561 397.915 338.738 397.52 339.09 397.196C339.442 396.866 339.863 396.702 340.351 396.702C340.846 396.702 341.266 396.866 341.613 397.196C341.965 397.52 342.141 397.915 342.141 398.381C342.141 398.841 341.965 399.236 341.613 399.565C341.266 399.889 340.846 400.051 340.351 400.051ZM351.689 401.909V404.295H343.95V401.909H351.689ZM345.885 415V400.673C345.885 399.793 346.066 399.06 346.43 398.474C346.799 397.889 347.294 397.452 347.913 397.162C348.532 396.872 349.22 396.727 349.975 396.727C350.51 396.727 350.984 396.77 351.399 396.855C351.814 396.94 352.12 397.017 352.319 397.085L351.706 399.472C351.575 399.432 351.41 399.392 351.211 399.352C351.012 399.307 350.791 399.284 350.547 399.284C349.973 399.284 349.566 399.423 349.328 399.702C349.095 399.974 348.978 400.366 348.978 400.878V415H345.885ZM354.105 415V401.909H357.19V415H354.105ZM355.656 400.051C355.167 400.051 354.747 399.889 354.395 399.565C354.042 399.236 353.866 398.841 353.866 398.381C353.866 397.915 354.042 397.52 354.395 397.196C354.747 396.866 355.167 396.702 355.656 396.702C356.15 396.702 356.571 396.866 356.917 397.196C357.27 397.52 357.446 397.915 357.446 398.381C357.446 398.841 357.27 399.236 356.917 399.565C356.571 399.889 356.15 400.051 355.656 400.051ZM366.073 415.256C364.766 415.256 363.644 414.969 362.706 414.395C361.775 413.821 361.056 413.028 360.55 412.017C360.05 411 359.8 409.83 359.8 408.506C359.8 407.176 360.056 406.003 360.567 404.986C361.078 403.963 361.8 403.168 362.732 402.599C363.669 402.026 364.777 401.739 366.056 401.739C367.118 401.739 368.059 401.935 368.877 402.327C369.701 402.713 370.357 403.261 370.846 403.972C371.334 404.676 371.613 405.5 371.681 406.443H368.732C368.613 405.812 368.328 405.287 367.88 404.866C367.436 404.44 366.843 404.227 366.098 404.227C365.468 404.227 364.914 404.398 364.436 404.739C363.959 405.074 363.587 405.557 363.32 406.188C363.059 406.818 362.928 407.574 362.928 408.455C362.928 409.347 363.059 410.114 363.32 410.756C363.581 411.392 363.948 411.884 364.419 412.23C364.897 412.571 365.456 412.741 366.098 412.741C366.553 412.741 366.959 412.656 367.317 412.486C367.681 412.31 367.985 412.057 368.229 411.727C368.473 411.398 368.641 410.997 368.732 410.526H371.681C371.607 411.452 371.334 412.273 370.863 412.989C370.391 413.699 369.749 414.256 368.936 414.659C368.124 415.057 367.169 415.256 366.073 415.256ZM313.283 435.273C313.283 437.153 312.931 438.764 312.226 440.105C311.527 441.44 310.573 442.463 309.363 443.173C308.158 443.884 306.792 444.239 305.263 444.239C303.735 444.239 302.365 443.884 301.155 443.173C299.951 442.457 298.996 441.432 298.292 440.097C297.593 438.756 297.243 437.148 297.243 435.273C297.243 433.392 297.593 431.784 298.292 430.449C298.996 429.108 299.951 428.082 301.155 427.372C302.365 426.662 303.735 426.307 305.263 426.307C306.792 426.307 308.158 426.662 309.363 427.372C310.573 428.082 311.527 429.108 312.226 430.449C312.931 431.784 313.283 433.392 313.283 435.273ZM310.104 435.273C310.104 433.949 309.897 432.832 309.482 431.923C309.073 431.009 308.505 430.318 307.777 429.852C307.05 429.381 306.212 429.145 305.263 429.145C304.314 429.145 303.476 429.381 302.749 429.852C302.022 430.318 301.451 431.009 301.036 431.923C300.627 432.832 300.422 433.949 300.422 435.273C300.422 436.597 300.627 437.716 301.036 438.631C301.451 439.54 302.022 440.23 302.749 440.702C303.476 441.168 304.314 441.401 305.263 441.401C306.212 441.401 307.05 441.168 307.777 440.702C308.505 440.23 309.073 439.54 309.482 438.631C309.897 437.716 310.104 436.597 310.104 435.273ZM321.846 444.256C320.539 444.256 319.417 443.969 318.48 443.395C317.548 442.821 316.829 442.028 316.324 441.017C315.824 440 315.574 438.83 315.574 437.506C315.574 436.176 315.829 435.003 316.341 433.986C316.852 432.963 317.574 432.168 318.505 431.599C319.443 431.026 320.551 430.739 321.829 430.739C322.892 430.739 323.832 430.935 324.65 431.327C325.474 431.713 326.13 432.261 326.619 432.972C327.108 433.676 327.386 434.5 327.454 435.443H324.505C324.386 434.812 324.102 434.287 323.653 433.866C323.21 433.44 322.616 433.227 321.872 433.227C321.241 433.227 320.687 433.398 320.21 433.739C319.733 434.074 319.36 434.557 319.093 435.188C318.832 435.818 318.701 436.574 318.701 437.455C318.701 438.347 318.832 439.114 319.093 439.756C319.355 440.392 319.721 440.884 320.193 441.23C320.67 441.571 321.23 441.741 321.872 441.741C322.326 441.741 322.733 441.656 323.091 441.486C323.454 441.31 323.758 441.057 324.002 440.727C324.247 440.398 324.414 439.997 324.505 439.526H327.454C327.38 440.452 327.108 441.273 326.636 441.989C326.164 442.699 325.522 443.256 324.71 443.659C323.897 444.057 322.943 444.256 321.846 444.256ZM335.783 444.256C334.471 444.256 333.337 443.983 332.382 443.438C331.434 442.886 330.703 442.108 330.192 441.102C329.681 440.091 329.425 438.901 329.425 437.531C329.425 436.185 329.681 435.003 330.192 433.986C330.709 432.963 331.431 432.168 332.357 431.599C333.283 431.026 334.371 430.739 335.621 430.739C336.428 430.739 337.189 430.869 337.905 431.131C338.627 431.386 339.263 431.784 339.814 432.324C340.371 432.864 340.809 433.551 341.127 434.386C341.445 435.216 341.604 436.205 341.604 437.352V438.298H330.874V436.219H338.647C338.641 435.628 338.513 435.102 338.263 434.642C338.013 434.176 337.664 433.81 337.215 433.543C336.772 433.276 336.255 433.142 335.664 433.142C335.033 433.142 334.479 433.295 334.002 433.602C333.525 433.903 333.152 434.301 332.885 434.795C332.624 435.284 332.49 435.821 332.485 436.406V438.222C332.485 438.983 332.624 439.636 332.902 440.182C333.181 440.722 333.57 441.136 334.07 441.426C334.57 441.71 335.155 441.852 335.826 441.852C336.275 441.852 336.681 441.79 337.044 441.665C337.408 441.534 337.723 441.344 337.99 441.094C338.257 440.844 338.459 440.534 338.596 440.165L341.476 440.489C341.294 441.25 340.948 441.915 340.436 442.483C339.931 443.045 339.283 443.483 338.493 443.795C337.703 444.102 336.8 444.256 335.783 444.256ZM347.981 444.264C347.152 444.264 346.404 444.116 345.74 443.821C345.081 443.52 344.558 443.077 344.172 442.491C343.791 441.906 343.6 441.185 343.6 440.327C343.6 439.588 343.737 438.977 344.01 438.494C344.282 438.011 344.654 437.625 345.126 437.335C345.598 437.045 346.129 436.827 346.72 436.679C347.316 436.526 347.933 436.415 348.569 436.347C349.336 436.267 349.958 436.196 350.436 436.134C350.913 436.065 351.26 435.963 351.475 435.827C351.697 435.685 351.808 435.466 351.808 435.17V435.119C351.808 434.477 351.618 433.98 351.237 433.628C350.856 433.276 350.308 433.099 349.592 433.099C348.836 433.099 348.237 433.264 347.794 433.594C347.356 433.923 347.061 434.312 346.907 434.761L344.027 434.352C344.254 433.557 344.629 432.892 345.152 432.358C345.674 431.818 346.314 431.415 347.069 431.148C347.825 430.875 348.66 430.739 349.575 430.739C350.206 430.739 350.833 430.812 351.458 430.96C352.083 431.108 352.654 431.352 353.172 431.693C353.689 432.028 354.103 432.486 354.416 433.065C354.734 433.645 354.893 434.369 354.893 435.239V444H351.927V442.202H351.825C351.637 442.565 351.373 442.906 351.032 443.224C350.697 443.537 350.274 443.79 349.762 443.983C349.257 444.17 348.663 444.264 347.981 444.264ZM348.782 441.997C349.402 441.997 349.939 441.875 350.393 441.631C350.848 441.381 351.197 441.051 351.441 440.642C351.691 440.233 351.816 439.787 351.816 439.304V437.761C351.72 437.841 351.555 437.915 351.322 437.983C351.095 438.051 350.839 438.111 350.555 438.162C350.271 438.213 349.99 438.259 349.711 438.298C349.433 438.338 349.191 438.372 348.987 438.401C348.527 438.463 348.115 438.565 347.751 438.707C347.387 438.849 347.1 439.048 346.89 439.304C346.68 439.554 346.575 439.878 346.575 440.276C346.575 440.844 346.782 441.273 347.197 441.562C347.612 441.852 348.14 441.997 348.782 441.997ZM361.081 436.33V444H357.995V430.909H360.944V433.134H361.098C361.399 432.401 361.879 431.818 362.538 431.386C363.203 430.955 364.024 430.739 365.001 430.739C365.904 430.739 366.691 430.932 367.362 431.318C368.038 431.705 368.561 432.264 368.93 432.997C369.305 433.73 369.49 434.619 369.484 435.665V444H366.399V436.142C366.399 435.267 366.172 434.582 365.717 434.088C365.268 433.594 364.646 433.347 363.85 433.347C363.311 433.347 362.831 433.466 362.41 433.705C361.995 433.937 361.669 434.276 361.43 434.719C361.197 435.162 361.081 435.699 361.081 436.33Z" fill="#017D83"/>
<g filter="url(#filter0_d_185_295)">
<path d="M132 106V114L136 119L149.5 123.5L154 129.5L179.5 136L183 135L195.5 126L193.5 123.5C194.667 121.667 197.3 117.9 198.5 117.5C199.7 117.1 198 111.333 197 108.5L202.5 101V99L200.5 90.5L198.5 87.5L193.5 81L188 78L181.5 81H174.5L171.5 83.5L161.5 81L150 89.5L142.5 90.5L137 101L132 106Z" fill="#FFD597"/>
<path d="M67 135L64.5 140.5L67 149L70.5 150L75 142L80 135L90 132L89 127V123.5L91 115L84.5 117.5L82.5 123.5L73.5 127L67 135Z" fill="#FFD597"/>
<path d="M132 106V114L136 119L149.5 123.5L154 129.5L179.5 136L183 135L195.5 126L193.5 123.5C194.667 121.667 197.3 117.9 198.5 117.5C199.7 117.1 198 111.333 197 108.5L202.5 101V99L200.5 90.5L198.5 87.5L193.5 81L188 78L181.5 81H174.5L171.5 83.5L161.5 81L150 89.5L142.5 90.5L137 101L132 106Z" stroke="black"/>
<path d="M67 135L64.5 140.5L67 149L70.5 150L75 142L80 135L90 132L89 127V123.5L91 115L84.5 117.5L82.5 123.5L73.5 127L67 135Z" stroke="black"/>
<path d="M672.5 464V469V471L678.5 478.5L684.5 488L688.5 505.5L697 526.5V533.5V535.5L693 564L698.5 575L722.5 587L729 593L734.5 590L737.5 586L746 573.5L747.5 567L753.5 560L760.5 558.5L765 553.5L766.5 552.5L773 549L784.5 540L795.5 541L808.5 538.5L816 533.5L829 528L848.5 511L853.5 503L829 482L828.5 475.5L826 468.5L824 467H813V463L813.5 461.5V453L807.5 442L796 431L786.5 424.5L759 411L740.5 408L731.5 401L720 395L714.5 389.5L705 385L699.5 386.5L697 388L695.5 392.5V402L697 404.5V411L705 421V430.5L701 434.5L697 438.5L692 446V451H684L672.5 464Z" fill="#FFD597" stroke="black"/>
<path d="M582 279V290.5L583 294L590 301L602.5 306L609.5 304L614 306L618.5 334.5L625 336.5H637.5C638.3 336.5 648.5 332.5 653.5 330.5H662L671.5 327L682.5 317L683.5 308L681 304L664 298.5L662 294L643 282H630L625 285L616 287.5H612.5L609.5 283.5L604 274L599 270L593.5 266.5L588 268.5L584 271L582 279Z" fill="#FFD597" stroke="black"/>
<path d="M589 337.5L579.5 345L580 347L582 348.5H596.5L602.5 337.5C601.167 336.167 598.4 333.5 598 333.5C597.6 333.5 593.5 334.833 591.5 335.5L589 337.5Z" fill="#FFD597"/>
<path d="M539.5 283.5H531.5L527.5 290.5L529.5 291.5L533.5 294L537.5 299.5V302V306L540.5 313L552.5 312.5L561 307.5L564 299.5L559 292.5L551 285C547.333 284.5 539.9 283.5 539.5 283.5Z" fill="#FFD597"/>
<path d="M493.5 249L491.5 256.5L492.5 257.5H517L527.5 256.5L554 265L568 259.5L575 251L578 247L573 244.5L569.5 245H558.5L544 244.5L542 240.5L540.5 239L537 244L509.5 240L501 238L499.5 243.5L495 248.5L493.5 249Z" fill="#FFD597"/>
<path d="M374.5 180.5L351.5 182.5L358 188V197.5L362.5 202L365 209L371 214.5L373 218.5L376 225.5L393 223L395 220.5L388 215.5V213.5L395 218.5V212L400 213.5V214.5L396.5 218.5V221.5H398L399 224.5L405 221.5L411 227L418 231H423H427L431.5 228.5H433.5V231L435 232.5L438 228.5L441.5 224.5L438 221.5L435 215.5L432.5 210.5L428.5 205.5L429 203C426.667 203.667 421.8 205 421 205C420.2 205 416.333 200 414.5 197.5V189L404 176.5L401.5 170.5L395 161L391 163.5H388L376 179L374.5 180.5Z" fill="#FFD597"/>
<path d="M589 337.5L579.5 345L580 347L582 348.5H596.5L602.5 337.5C601.167 336.167 598.4 333.5 598 333.5C597.6 333.5 593.5 334.833 591.5 335.5L589 337.5Z" stroke="black"/>
<path d="M539.5 283.5H531.5L527.5 290.5L529.5 291.5L533.5 294L537.5 299.5V302V306L540.5 313L552.5 312.5L561 307.5L564 299.5L559 292.5L551 285C547.333 284.5 539.9 283.5 539.5 283.5Z" stroke="black"/>
<path d="M493.5 249L491.5 256.5L492.5 257.5H517L527.5 256.5L554 265L568 259.5L575 251L578 247L573 244.5L569.5 245H558.5L544 244.5L542 240.5L540.5 239L537 244L509.5 240L501 238L499.5 243.5L495 248.5L493.5 249Z" stroke="black"/>
<path d="M374.5 180.5L351.5 182.5L358 188V197.5L362.5 202L365 209L371 214.5L373 218.5L376 225.5L393 223L395 220.5L388 215.5V213.5L395 218.5V212L400 213.5V214.5L396.5 218.5V221.5H398L399 224.5L405 221.5L411 227L418 231H423H427L431.5 228.5H433.5V231L435 232.5L438 228.5L441.5 224.5L438 221.5L435 215.5L432.5 210.5L428.5 205.5L429 203C426.667 203.667 421.8 205 421 205C420.2 205 416.333 200 414.5 197.5V189L404 176.5L401.5 170.5L395 161L391 163.5H388L376 179L374.5 180.5Z" stroke="black"/>
</g>
<circle cx="412.511" cy="221.511" r="9.01136" fill="#FF8F87" stroke="black"/>
<path d="M781.202 506V487.818H783.403V495.915H793.098V487.818H795.3V506H793.098V497.868H783.403V506H781.202ZM799.423 506V492.364H801.519V506H799.423ZM800.489 490.091C800.08 490.091 799.728 489.952 799.432 489.674C799.142 489.395 798.997 489.061 798.997 488.67C798.997 488.28 799.142 487.945 799.432 487.667C799.728 487.389 800.08 487.25 800.489 487.25C800.897 487.25 801.246 487.389 801.536 487.667C801.832 487.945 801.98 488.28 801.98 488.67C801.98 489.061 801.832 489.395 801.536 489.674C801.246 489.952 800.897 490.091 800.489 490.091ZM807.451 487.818V506H805.356V487.818H807.451ZM816.828 506.284C815.597 506.284 814.517 505.991 813.588 505.405C812.665 504.819 811.943 504 811.422 502.946C810.907 501.893 810.65 500.661 810.65 499.253C810.65 497.832 810.907 496.592 811.422 495.533C811.943 494.474 812.665 493.651 813.588 493.065C814.517 492.479 815.597 492.186 816.828 492.186C818.06 492.186 819.137 492.479 820.06 493.065C820.989 493.651 821.711 494.474 822.226 495.533C822.747 496.592 823.007 497.832 823.007 499.253C823.007 500.661 822.747 501.893 822.226 502.946C821.711 504 820.989 504.819 820.06 505.405C819.137 505.991 818.06 506.284 816.828 506.284ZM816.828 504.402C817.764 504.402 818.533 504.162 819.137 503.683C819.74 503.203 820.187 502.573 820.477 501.792C820.767 501.011 820.912 500.164 820.912 499.253C820.912 498.341 820.767 497.492 820.477 496.705C820.187 495.918 819.74 495.281 819.137 494.796C818.533 494.311 817.764 494.068 816.828 494.068C815.893 494.068 815.124 494.311 814.52 494.796C813.917 495.281 813.47 495.918 813.18 496.705C812.89 497.492 812.745 498.341 812.745 499.253C812.745 500.164 812.89 501.011 813.18 501.792C813.47 502.573 813.917 503.203 814.52 503.683C815.124 504.162 815.893 504.402 816.828 504.402Z" fill="black"/>
<path d="M707.504 463L702.533 444.818H704.77L708.57 459.626H708.747L712.618 444.818H715.104L718.974 459.626H719.152L722.952 444.818H725.189L720.217 463H717.945L713.932 448.511H713.79L709.777 463H707.504ZM730.391 463.32C729.527 463.32 728.743 463.157 728.039 462.831C727.334 462.5 726.775 462.023 726.361 461.402C725.946 460.775 725.739 460.017 725.739 459.129C725.739 458.348 725.893 457.715 726.201 457.229C726.509 456.738 726.92 456.353 727.435 456.075C727.95 455.797 728.518 455.59 729.14 455.454C729.767 455.312 730.397 455.199 731.031 455.116C731.859 455.01 732.531 454.93 733.046 454.877C733.567 454.818 733.945 454.72 734.182 454.584C734.425 454.448 734.546 454.211 734.546 453.874V453.803C734.546 452.927 734.306 452.246 733.827 451.761C733.354 451.275 732.634 451.033 731.67 451.033C730.67 451.033 729.885 451.252 729.317 451.69C728.749 452.128 728.349 452.595 728.119 453.092L726.13 452.382C726.485 451.554 726.959 450.908 727.55 450.447C728.148 449.979 728.799 449.654 729.504 449.47C730.214 449.281 730.912 449.186 731.599 449.186C732.037 449.186 732.54 449.239 733.108 449.346C733.682 449.446 734.235 449.657 734.768 449.976C735.307 450.296 735.754 450.778 736.109 451.423C736.464 452.068 736.641 452.933 736.641 454.016V463H734.546V461.153H734.44C734.298 461.449 734.061 461.766 733.729 462.103C733.398 462.441 732.957 462.728 732.407 462.964C731.856 463.201 731.184 463.32 730.391 463.32ZM730.711 461.438C731.54 461.438 732.238 461.275 732.806 460.949C733.38 460.624 733.812 460.203 734.102 459.689C734.398 459.174 734.546 458.632 734.546 458.064V456.146C734.457 456.253 734.262 456.35 733.96 456.439C733.664 456.522 733.321 456.596 732.93 456.661C732.546 456.72 732.17 456.774 731.803 456.821C731.442 456.862 731.149 456.898 730.924 456.928C730.379 456.999 729.871 457.114 729.397 457.274C728.929 457.428 728.551 457.661 728.261 457.975C727.977 458.283 727.835 458.703 727.835 459.236C727.835 459.964 728.104 460.514 728.642 460.887C729.187 461.254 729.876 461.438 730.711 461.438ZM740.465 463V449.364H742.561V463H740.465ZM741.531 447.091C741.122 447.091 740.77 446.952 740.474 446.674C740.184 446.395 740.039 446.061 740.039 445.67C740.039 445.28 740.184 444.945 740.474 444.667C740.77 444.389 741.122 444.25 741.531 444.25C741.939 444.25 742.288 444.389 742.578 444.667C742.874 444.945 743.022 445.28 743.022 445.67C743.022 446.061 742.874 446.395 742.578 446.674C742.288 446.952 741.939 447.091 741.531 447.091ZM746.398 463V449.364H748.422V451.494H748.6C748.884 450.766 749.343 450.201 749.976 449.799C750.609 449.39 751.37 449.186 752.257 449.186C753.157 449.186 753.906 449.39 754.504 449.799C755.107 450.201 755.578 450.766 755.915 451.494H756.057C756.406 450.79 756.93 450.231 757.629 449.816C758.327 449.396 759.164 449.186 760.141 449.186C761.36 449.186 762.357 449.568 763.133 450.331C763.908 451.089 764.296 452.27 764.296 453.874V463H762.201V453.874C762.201 452.867 761.925 452.148 761.375 451.716C760.825 451.284 760.176 451.068 759.431 451.068C758.472 451.068 757.729 451.358 757.202 451.938C756.676 452.512 756.412 453.24 756.412 454.122V463H754.282V453.661C754.282 452.885 754.03 452.261 753.527 451.787C753.024 451.308 752.376 451.068 751.583 451.068C751.038 451.068 750.529 451.213 750.056 451.503C749.588 451.793 749.209 452.196 748.919 452.711C748.635 453.22 748.493 453.808 748.493 454.477V463H746.398ZM773.844 463.284C772.53 463.284 771.397 462.994 770.444 462.414C769.497 461.828 768.766 461.011 768.251 459.964C767.742 458.91 767.487 457.685 767.487 456.288C767.487 454.892 767.742 453.661 768.251 452.595C768.766 451.524 769.482 450.689 770.399 450.092C771.323 449.488 772.4 449.186 773.631 449.186C774.341 449.186 775.042 449.304 775.735 449.541C776.427 449.778 777.058 450.163 777.626 450.695C778.194 451.222 778.647 451.92 778.984 452.79C779.322 453.661 779.49 454.732 779.49 456.004V456.892H768.979V455.081H777.36C777.36 454.312 777.206 453.625 776.898 453.021C776.596 452.418 776.164 451.941 775.602 451.592C775.045 451.243 774.388 451.068 773.631 451.068C772.796 451.068 772.074 451.275 771.465 451.69C770.861 452.098 770.396 452.631 770.071 453.288C769.745 453.945 769.583 454.649 769.583 455.401V456.608C769.583 457.638 769.76 458.511 770.115 459.227C770.476 459.937 770.976 460.479 771.616 460.852C772.255 461.219 772.998 461.402 773.844 461.402C774.394 461.402 774.892 461.325 775.335 461.171C775.785 461.011 776.173 460.775 776.498 460.461C776.824 460.141 777.075 459.745 777.253 459.271L779.277 459.839C779.064 460.526 778.706 461.13 778.203 461.651C777.7 462.165 777.078 462.568 776.339 462.858C775.599 463.142 774.767 463.284 773.844 463.284ZM786.69 463.32C785.826 463.32 785.042 463.157 784.338 462.831C783.633 462.5 783.074 462.023 782.66 461.402C782.245 460.775 782.038 460.017 782.038 459.129C782.038 458.348 782.192 457.715 782.5 457.229C782.808 456.738 783.219 456.353 783.734 456.075C784.249 455.797 784.817 455.59 785.438 455.454C786.066 455.312 786.696 455.199 787.329 455.116C788.158 455.01 788.83 454.93 789.345 454.877C789.865 454.818 790.244 454.72 790.481 454.584C790.724 454.448 790.845 454.211 790.845 453.874V453.803C790.845 452.927 790.605 452.246 790.126 451.761C789.652 451.275 788.933 451.033 787.969 451.033C786.968 451.033 786.184 451.252 785.616 451.69C785.048 452.128 784.648 452.595 784.417 453.092L782.429 452.382C782.784 451.554 783.257 450.908 783.849 450.447C784.447 449.979 785.098 449.654 785.802 449.47C786.513 449.281 787.211 449.186 787.898 449.186C788.336 449.186 788.839 449.239 789.407 449.346C789.981 449.446 790.534 449.657 791.067 449.976C791.606 450.296 792.052 450.778 792.407 451.423C792.763 452.068 792.94 452.933 792.94 454.016V463H790.845V461.153H790.738C790.596 461.449 790.36 461.766 790.028 462.103C789.697 462.441 789.256 462.728 788.705 462.964C788.155 463.201 787.483 463.32 786.69 463.32ZM787.01 461.438C787.838 461.438 788.537 461.275 789.105 460.949C789.679 460.624 790.111 460.203 790.401 459.689C790.697 459.174 790.845 458.632 790.845 458.064V456.146C790.756 456.253 790.561 456.35 790.259 456.439C789.963 456.522 789.62 456.596 789.229 456.661C788.845 456.72 788.469 456.774 788.102 456.821C787.741 456.862 787.448 456.898 787.223 456.928C786.678 456.999 786.169 457.114 785.696 457.274C785.228 457.428 784.849 457.661 784.559 457.975C784.275 458.283 784.133 458.703 784.133 459.236C784.133 459.964 784.403 460.514 784.941 460.887C785.486 461.254 786.175 461.438 787.01 461.438Z" fill="black"/>
<path d="M617.202 279V260.818H619.403V269.838H619.616L627.784 260.818H630.661L623.026 269.021L630.661 279H627.997L621.676 270.548L619.403 273.105V279H617.202ZM637.239 279.32C636.375 279.32 635.591 279.157 634.886 278.831C634.182 278.5 633.623 278.023 633.208 277.402C632.794 276.775 632.587 276.017 632.587 275.129C632.587 274.348 632.741 273.715 633.049 273.229C633.356 272.738 633.768 272.353 634.283 272.075C634.798 271.797 635.366 271.59 635.987 271.454C636.615 271.312 637.245 271.199 637.878 271.116C638.707 271.01 639.379 270.93 639.893 270.877C640.414 270.818 640.793 270.72 641.03 270.584C641.272 270.448 641.394 270.211 641.394 269.874V269.803C641.394 268.927 641.154 268.246 640.675 267.761C640.201 267.275 639.482 267.033 638.517 267.033C637.517 267.033 636.733 267.252 636.165 267.69C635.597 268.128 635.197 268.595 634.966 269.092L632.978 268.382C633.333 267.554 633.806 266.908 634.398 266.447C634.996 265.979 635.647 265.654 636.351 265.47C637.061 265.281 637.76 265.186 638.446 265.186C638.884 265.186 639.387 265.239 639.956 265.346C640.53 265.446 641.083 265.657 641.616 265.976C642.154 266.296 642.601 266.778 642.956 267.423C643.311 268.068 643.489 268.933 643.489 270.016V279H641.394V277.153H641.287C641.145 277.449 640.908 277.766 640.577 278.103C640.246 278.441 639.805 278.728 639.254 278.964C638.704 279.201 638.032 279.32 637.239 279.32ZM637.559 277.438C638.387 277.438 639.086 277.275 639.654 276.949C640.228 276.624 640.66 276.203 640.95 275.689C641.246 275.174 641.394 274.632 641.394 274.064V272.146C641.305 272.253 641.11 272.35 640.808 272.439C640.512 272.522 640.169 272.596 639.778 272.661C639.393 272.72 639.018 272.774 638.651 272.821C638.29 272.862 637.997 272.898 637.772 272.928C637.227 272.999 636.718 273.114 636.245 273.274C635.777 273.428 635.398 273.661 635.108 273.975C634.824 274.283 634.682 274.703 634.682 275.236C634.682 275.964 634.951 276.514 635.49 276.887C636.035 277.254 636.724 277.438 637.559 277.438ZM649.408 270.797V279H647.313V260.818H649.408V267.494H649.586C649.905 266.79 650.385 266.231 651.024 265.816C651.669 265.396 652.527 265.186 653.599 265.186C654.528 265.186 655.342 265.373 656.04 265.745C656.738 266.112 657.28 266.678 657.665 267.441C658.055 268.199 658.251 269.163 658.251 270.335V279H656.155V270.477C656.155 269.394 655.874 268.557 655.312 267.965C654.756 267.367 653.983 267.068 652.995 267.068C652.308 267.068 651.693 267.213 651.148 267.503C650.61 267.793 650.184 268.216 649.87 268.773C649.562 269.329 649.408 270.004 649.408 270.797ZM670.677 273.425V265.364H672.773V279H670.677V276.692H670.535C670.216 277.384 669.719 277.973 669.044 278.458C668.369 278.938 667.517 279.178 666.487 279.178C665.635 279.178 664.877 278.991 664.214 278.618C663.551 278.239 663.031 277.671 662.652 276.914C662.273 276.15 662.084 275.188 662.084 274.028V265.364H664.179V273.886C664.179 274.881 664.457 275.674 665.013 276.266C665.576 276.857 666.292 277.153 667.162 277.153C667.683 277.153 668.212 277.02 668.751 276.754C669.295 276.488 669.751 276.079 670.118 275.529C670.491 274.978 670.677 274.277 670.677 273.425ZM678.705 260.818V279H676.61V260.818H678.705ZM691.136 273.425V265.364H693.232V279H691.136V276.692H690.994C690.675 277.384 690.178 277.973 689.503 278.458C688.828 278.938 687.976 279.178 686.946 279.178C686.094 279.178 685.336 278.991 684.673 278.618C684.01 278.239 683.49 277.671 683.111 276.914C682.732 276.15 682.543 275.188 682.543 274.028V265.364H684.638V273.886C684.638 274.881 684.916 275.674 685.472 276.266C686.035 276.857 686.751 277.153 687.621 277.153C688.142 277.153 688.671 277.02 689.21 276.754C689.754 276.488 690.21 276.079 690.577 275.529C690.95 274.978 691.136 274.277 691.136 273.425ZM697.069 279V265.364H699.164V279H697.069ZM698.134 263.091C697.726 263.091 697.374 262.952 697.078 262.674C696.788 262.395 696.643 262.061 696.643 261.67C696.643 261.28 696.788 260.945 697.078 260.667C697.374 260.389 697.726 260.25 698.134 260.25C698.543 260.25 698.892 260.389 699.182 260.667C699.478 260.945 699.626 261.28 699.626 261.67C699.626 262.061 699.478 262.395 699.182 262.674C698.892 262.952 698.543 263.091 698.134 263.091Z" fill="white"/>
<path d="M617.202 279V260.818H619.403V269.838H619.616L627.784 260.818H630.661L623.026 269.021L630.661 279H627.997L621.676 270.548L619.403 273.105V279H617.202ZM637.239 279.32C636.375 279.32 635.591 279.157 634.886 278.831C634.182 278.5 633.623 278.023 633.208 277.402C632.794 276.775 632.587 276.017 632.587 275.129C632.587 274.348 632.741 273.715 633.049 273.229C633.356 272.738 633.768 272.353 634.283 272.075C634.798 271.797 635.366 271.59 635.987 271.454C636.615 271.312 637.245 271.199 637.878 271.116C638.707 271.01 639.379 270.93 639.893 270.877C640.414 270.818 640.793 270.72 641.03 270.584C641.272 270.448 641.394 270.211 641.394 269.874V269.803C641.394 268.927 641.154 268.246 640.675 267.761C640.201 267.275 639.482 267.033 638.517 267.033C637.517 267.033 636.733 267.252 636.165 267.69C635.597 268.128 635.197 268.595 634.966 269.092L632.978 268.382C633.333 267.554 633.806 266.908 634.398 266.447C634.996 265.979 635.647 265.654 636.351 265.47C637.061 265.281 637.76 265.186 638.446 265.186C638.884 265.186 639.387 265.239 639.956 265.346C640.53 265.446 641.083 265.657 641.616 265.976C642.154 266.296 642.601 266.778 642.956 267.423C643.311 268.068 643.489 268.933 643.489 270.016V279H641.394V277.153H641.287C641.145 277.449 640.908 277.766 640.577 278.103C640.246 278.441 639.805 278.728 639.254 278.964C638.704 279.201 638.032 279.32 637.239 279.32ZM637.559 277.438C638.387 277.438 639.086 277.275 639.654 276.949C640.228 276.624 640.66 276.203 640.95 275.689C641.246 275.174 641.394 274.632 641.394 274.064V272.146C641.305 272.253 641.11 272.35 640.808 272.439C640.512 272.522 640.169 272.596 639.778 272.661C639.393 272.72 639.018 272.774 638.651 272.821C638.29 272.862 637.997 272.898 637.772 272.928C637.227 272.999 636.718 273.114 636.245 273.274C635.777 273.428 635.398 273.661 635.108 273.975C634.824 274.283 634.682 274.703 634.682 275.236C634.682 275.964 634.951 276.514 635.49 276.887C636.035 277.254 636.724 277.438 637.559 277.438ZM649.408 270.797V279H647.313V260.818H649.408V267.494H649.586C649.905 266.79 650.385 266.231 651.024 265.816C651.669 265.396 652.527 265.186 653.599 265.186C654.528 265.186 655.342 265.373 656.04 265.745C656.738 266.112 657.28 266.678 657.665 267.441C658.055 268.199 658.251 269.163 658.251 270.335V279H656.155V270.477C656.155 269.394 655.874 268.557 655.312 267.965C654.756 267.367 653.983 267.068 652.995 267.068C652.308 267.068 651.693 267.213 651.148 267.503C650.61 267.793 650.184 268.216 649.87 268.773C649.562 269.329 649.408 270.004 649.408 270.797ZM670.677 273.425V265.364H672.773V279H670.677V276.692H670.535C670.216 277.384 669.719 277.973 669.044 278.458C668.369 278.938 667.517 279.178 666.487 279.178C665.635 279.178 664.877 278.991 664.214 278.618C663.551 278.239 663.031 277.671 662.652 276.914C662.273 276.15 662.084 275.188 662.084 274.028V265.364H664.179V273.886C664.179 274.881 664.457 275.674 665.013 276.266C665.576 276.857 666.292 277.153 667.162 277.153C667.683 277.153 668.212 277.02 668.751 276.754C669.295 276.488 669.751 276.079 670.118 275.529C670.491 274.978 670.677 274.277 670.677 273.425ZM678.705 260.818V279H676.61V260.818H678.705ZM691.136 273.425V265.364H693.232V279H691.136V276.692H690.994C690.675 277.384 690.178 277.973 689.503 278.458C688.828 278.938 687.976 279.178 686.946 279.178C686.094 279.178 685.336 278.991 684.673 278.618C684.01 278.239 683.49 277.671 683.111 276.914C682.732 276.15 682.543 275.188 682.543 274.028V265.364H684.638V273.886C684.638 274.881 684.916 275.674 685.472 276.266C686.035 276.857 686.751 277.153 687.621 277.153C688.142 277.153 688.671 277.02 689.21 276.754C689.754 276.488 690.21 276.079 690.577 275.529C690.95 274.978 691.136 274.277 691.136 273.425ZM697.069 279V265.364H699.164V279H697.069ZM698.134 263.091C697.726 263.091 697.374 262.952 697.078 262.674C696.788 262.395 696.643 262.061 696.643 261.67C696.643 261.28 696.788 260.945 697.078 260.667C697.374 260.389 697.726 260.25 698.134 260.25C698.543 260.25 698.892 260.389 699.182 260.667C699.478 260.945 699.626 261.28 699.626 261.67C699.626 262.061 699.478 262.395 699.182 262.674C698.892 262.952 698.543 263.091 698.134 263.091Z" fill="black"/>
<path d="M267.202 212V193.818H273.345C274.772 193.818 275.938 194.076 276.843 194.591C277.754 195.1 278.429 195.789 278.867 196.659C279.305 197.529 279.524 198.5 279.524 199.571C279.524 200.642 279.305 201.616 278.867 202.492C278.435 203.368 277.766 204.066 276.861 204.587C275.955 205.102 274.795 205.359 273.381 205.359H268.977V203.406H273.31C274.286 203.406 275.07 203.238 275.662 202.9C276.254 202.563 276.683 202.107 276.95 201.533C277.222 200.953 277.358 200.299 277.358 199.571C277.358 198.843 277.222 198.192 276.95 197.618C276.683 197.044 276.251 196.594 275.653 196.268C275.056 195.937 274.263 195.771 273.274 195.771H269.403V212H267.202ZM288.358 212.284C287.044 212.284 285.91 211.994 284.957 211.414C284.01 210.828 283.279 210.011 282.765 208.964C282.256 207.91 282.001 206.685 282.001 205.288C282.001 203.892 282.256 202.661 282.765 201.595C283.279 200.524 283.996 199.689 284.913 199.092C285.836 198.488 286.913 198.186 288.145 198.186C288.855 198.186 289.556 198.304 290.249 198.541C290.941 198.778 291.571 199.163 292.14 199.695C292.708 200.222 293.161 200.92 293.498 201.79C293.835 202.661 294.004 203.732 294.004 205.004V205.892H283.493V204.081H291.873C291.873 203.312 291.719 202.625 291.412 202.021C291.11 201.418 290.678 200.941 290.115 200.592C289.559 200.243 288.902 200.068 288.145 200.068C287.31 200.068 286.588 200.275 285.978 200.69C285.375 201.098 284.91 201.631 284.585 202.288C284.259 202.945 284.096 203.649 284.096 204.401V205.608C284.096 206.638 284.274 207.511 284.629 208.227C284.99 208.937 285.49 209.479 286.129 209.852C286.768 210.219 287.511 210.402 288.358 210.402C288.908 210.402 289.405 210.325 289.849 210.171C290.299 210.011 290.687 209.775 291.012 209.461C291.338 209.141 291.589 208.745 291.767 208.271L293.791 208.839C293.578 209.526 293.22 210.13 292.717 210.651C292.214 211.165 291.592 211.568 290.852 211.858C290.112 212.142 289.281 212.284 288.358 212.284ZM301.204 212.32C300.34 212.32 299.556 212.157 298.851 211.831C298.147 211.5 297.588 211.023 297.173 210.402C296.759 209.775 296.552 209.017 296.552 208.129C296.552 207.348 296.706 206.715 297.013 206.229C297.321 205.738 297.733 205.353 298.248 205.075C298.762 204.797 299.331 204.59 299.952 204.454C300.579 204.312 301.21 204.199 301.843 204.116C302.672 204.01 303.343 203.93 303.858 203.877C304.379 203.818 304.758 203.72 304.995 203.584C305.237 203.448 305.359 203.211 305.359 202.874V202.803C305.359 201.927 305.119 201.246 304.64 200.761C304.166 200.275 303.447 200.033 302.482 200.033C301.482 200.033 300.698 200.252 300.13 200.69C299.561 201.128 299.162 201.595 298.931 202.092L296.942 201.382C297.298 200.554 297.771 199.908 298.363 199.447C298.961 198.979 299.612 198.654 300.316 198.47C301.026 198.281 301.725 198.186 302.411 198.186C302.849 198.186 303.352 198.239 303.92 198.346C304.495 198.446 305.048 198.657 305.581 198.976C306.119 199.296 306.566 199.778 306.921 200.423C307.276 201.068 307.454 201.933 307.454 203.016V212H305.359V210.153H305.252C305.11 210.449 304.873 210.766 304.542 211.103C304.21 211.441 303.77 211.728 303.219 211.964C302.669 212.201 301.997 212.32 301.204 212.32ZM301.523 210.438C302.352 210.438 303.05 210.275 303.619 209.949C304.193 209.624 304.625 209.203 304.915 208.689C305.211 208.174 305.359 207.632 305.359 207.064V205.146C305.27 205.253 305.075 205.35 304.773 205.439C304.477 205.522 304.134 205.596 303.743 205.661C303.358 205.72 302.982 205.774 302.615 205.821C302.254 205.862 301.961 205.898 301.737 205.928C301.192 205.999 300.683 206.114 300.21 206.274C299.742 206.428 299.363 206.661 299.073 206.975C298.789 207.283 298.647 207.703 298.647 208.236C298.647 208.964 298.916 209.514 299.455 209.887C299.999 210.254 300.689 210.438 301.523 210.438ZM311.278 212V198.364H313.302V200.423H313.444C313.693 199.749 314.143 199.201 314.794 198.781C315.445 198.361 316.179 198.151 316.995 198.151C317.149 198.151 317.342 198.154 317.572 198.159C317.803 198.165 317.978 198.174 318.096 198.186V200.317C318.025 200.299 317.862 200.272 317.608 200.237C317.359 200.195 317.096 200.175 316.818 200.175C316.155 200.175 315.563 200.314 315.042 200.592C314.527 200.864 314.119 201.243 313.817 201.728C313.521 202.208 313.373 202.755 313.373 203.371V212H311.278ZM322.675 193.818V212H320.58V193.818H322.675ZM348.458 199.5H346.257C346.126 198.867 345.899 198.31 345.573 197.831C345.253 197.352 344.863 196.949 344.401 196.624C343.945 196.292 343.439 196.044 342.883 195.878C342.327 195.712 341.747 195.629 341.143 195.629C340.042 195.629 339.045 195.907 338.151 196.464C337.263 197.02 336.556 197.84 336.029 198.923C335.509 200.006 335.248 201.335 335.248 202.909C335.248 204.483 335.509 205.812 336.029 206.895C336.556 207.978 337.263 208.798 338.151 209.354C339.045 209.911 340.042 210.189 341.143 210.189C341.747 210.189 342.327 210.106 342.883 209.94C343.439 209.775 343.945 209.529 344.401 209.203C344.863 208.872 345.253 208.467 345.573 207.987C345.899 207.502 346.126 206.946 346.257 206.318H348.458C348.293 207.247 347.991 208.079 347.553 208.813C347.115 209.547 346.57 210.171 345.919 210.686C345.268 211.195 344.537 211.583 343.726 211.849C342.922 212.115 342.06 212.249 341.143 212.249C339.592 212.249 338.213 211.87 337.006 211.112C335.799 210.355 334.849 209.277 334.156 207.881C333.464 206.484 333.117 204.827 333.117 202.909C333.117 200.991 333.464 199.334 334.156 197.938C334.849 196.541 335.799 195.464 337.006 194.706C338.213 193.948 339.592 193.57 341.143 193.57C342.06 193.57 342.922 193.703 343.726 193.969C344.537 194.235 345.268 194.626 345.919 195.141C346.57 195.65 347.115 196.271 347.553 197.005C347.991 197.733 348.293 198.565 348.458 199.5ZM351.732 212V198.364H353.827V212H351.732ZM352.797 196.091C352.389 196.091 352.037 195.952 351.741 195.674C351.451 195.395 351.306 195.061 351.306 194.67C351.306 194.28 351.451 193.945 351.741 193.667C352.037 193.389 352.389 193.25 352.797 193.25C353.206 193.25 353.555 193.389 353.845 193.667C354.141 193.945 354.289 194.28 354.289 194.67C354.289 195.061 354.141 195.395 353.845 195.674C353.555 195.952 353.206 196.091 352.797 196.091ZM363.595 198.364V200.139H356.528V198.364H363.595ZM358.588 195.097H360.683V208.094C360.683 208.686 360.769 209.129 360.941 209.425C361.118 209.715 361.343 209.911 361.615 210.011C361.893 210.106 362.186 210.153 362.494 210.153C362.725 210.153 362.914 210.142 363.062 210.118C363.21 210.088 363.329 210.065 363.418 210.047L363.844 211.929C363.702 211.982 363.503 212.036 363.249 212.089C362.994 212.148 362.672 212.178 362.281 212.178C361.689 212.178 361.109 212.05 360.541 211.796C359.979 211.541 359.511 211.154 359.138 210.633C358.771 210.112 358.588 209.455 358.588 208.662V195.097ZM368.096 217.114C367.741 217.114 367.424 217.084 367.146 217.025C366.868 216.972 366.676 216.918 366.569 216.865L367.102 215.018C367.611 215.149 368.061 215.196 368.451 215.161C368.842 215.125 369.188 214.95 369.49 214.637C369.798 214.329 370.079 213.829 370.333 213.136L370.724 212.071L365.681 198.364H367.954L371.718 209.23H371.86L375.625 198.364H377.897L372.109 213.989C371.849 214.693 371.526 215.276 371.141 215.738C370.757 216.205 370.31 216.551 369.801 216.776C369.298 217.001 368.729 217.114 368.096 217.114Z" fill="black"/>
<path d="M195.202 150V131.818H197.403V148.047H205.855V150H195.202ZM208.98 150V136.364H211.075V150H208.98ZM210.045 134.091C209.637 134.091 209.285 133.952 208.989 133.674C208.699 133.395 208.554 133.061 208.554 132.67C208.554 132.28 208.699 131.945 208.989 131.667C209.285 131.389 209.637 131.25 210.045 131.25C210.454 131.25 210.803 131.389 211.093 131.667C211.389 131.945 211.537 132.28 211.537 132.67C211.537 133.061 211.389 133.395 211.093 133.674C210.803 133.952 210.454 134.091 210.045 134.091ZM217.008 141.797V150H214.913V131.818H217.008V138.494H217.185C217.505 137.79 217.984 137.231 218.624 136.816C219.269 136.396 220.127 136.186 221.198 136.186C222.127 136.186 222.941 136.373 223.64 136.745C224.338 137.112 224.88 137.678 225.264 138.441C225.655 139.199 225.85 140.163 225.85 141.335V150H223.755V141.477C223.755 140.394 223.474 139.557 222.912 138.965C222.355 138.367 221.583 138.068 220.595 138.068C219.908 138.068 219.292 138.213 218.748 138.503C218.209 138.793 217.783 139.216 217.47 139.773C217.162 140.329 217.008 141.004 217.008 141.797ZM238.277 144.425V136.364H240.372V150H238.277V147.692H238.135C237.815 148.384 237.318 148.973 236.643 149.458C235.969 149.938 235.116 150.178 234.087 150.178C233.234 150.178 232.477 149.991 231.814 149.618C231.151 149.239 230.63 148.671 230.251 147.914C229.873 147.15 229.683 146.188 229.683 145.028V136.364H231.778V144.886C231.778 145.881 232.057 146.674 232.613 147.266C233.175 147.857 233.891 148.153 234.761 148.153C235.282 148.153 235.812 148.02 236.35 147.754C236.895 147.488 237.351 147.079 237.718 146.529C238.091 145.978 238.277 145.277 238.277 144.425ZM249.927 150.284C248.613 150.284 247.48 149.994 246.527 149.414C245.58 148.828 244.849 148.011 244.334 146.964C243.825 145.91 243.57 144.685 243.57 143.288C243.57 141.892 243.825 140.661 244.334 139.595C244.849 138.524 245.565 137.689 246.482 137.092C247.406 136.488 248.483 136.186 249.714 136.186C250.424 136.186 251.125 136.304 251.818 136.541C252.51 136.778 253.141 137.163 253.709 137.695C254.277 138.222 254.73 138.92 255.067 139.79C255.405 140.661 255.573 141.732 255.573 143.004V143.892H245.062V142.081H253.443C253.443 141.312 253.289 140.625 252.981 140.021C252.679 139.418 252.247 138.941 251.685 138.592C251.128 138.243 250.471 138.068 249.714 138.068C248.879 138.068 248.157 138.275 247.548 138.69C246.944 139.098 246.479 139.631 246.154 140.288C245.828 140.945 245.666 141.649 245.666 142.401V143.608C245.666 144.638 245.843 145.511 246.198 146.227C246.559 146.937 247.059 147.479 247.699 147.852C248.338 148.219 249.081 148.402 249.927 148.402C250.477 148.402 250.975 148.325 251.418 148.171C251.868 148.011 252.256 147.775 252.581 147.461C252.907 147.141 253.158 146.745 253.336 146.271L255.36 146.839C255.147 147.526 254.789 148.13 254.286 148.651C253.783 149.165 253.161 149.568 252.422 149.858C251.682 150.142 250.85 150.284 249.927 150.284Z" fill="black"/>
<path d="M364.58 252V233.818H368.424V241.32H376.228V233.818H380.063V252H376.228V244.489H368.424V252H364.58ZM389.323 252.266C387.944 252.266 386.751 251.973 385.745 251.387C384.745 250.796 383.972 249.973 383.428 248.919C382.883 247.86 382.611 246.632 382.611 245.235C382.611 243.826 382.883 242.595 383.428 241.542C383.972 240.482 384.745 239.66 385.745 239.074C386.751 238.482 387.944 238.186 389.323 238.186C390.702 238.186 391.891 238.482 392.892 239.074C393.898 239.66 394.673 240.482 395.218 241.542C395.762 242.595 396.034 243.826 396.034 245.235C396.034 246.632 395.762 247.86 395.218 248.919C394.673 249.973 393.898 250.796 392.892 251.387C391.891 251.973 390.702 252.266 389.323 252.266ZM389.341 249.337C389.968 249.337 390.492 249.159 390.912 248.804C391.332 248.443 391.649 247.952 391.862 247.33C392.081 246.709 392.19 246.002 392.19 245.208C392.19 244.415 392.081 243.708 391.862 243.087C391.649 242.465 391.332 241.974 390.912 241.613C390.492 241.252 389.968 241.071 389.341 241.071C388.707 241.071 388.175 241.252 387.743 241.613C387.316 241.974 386.994 242.465 386.775 243.087C386.562 243.708 386.455 244.415 386.455 245.208C386.455 246.002 386.562 246.709 386.775 247.33C386.994 247.952 387.316 248.443 387.743 248.804C388.175 249.159 388.707 249.337 389.341 249.337ZM402.276 244.116V252H398.494V238.364H402.098V240.77H402.258C402.56 239.976 403.066 239.349 403.776 238.887C404.486 238.42 405.347 238.186 406.359 238.186C407.306 238.186 408.132 238.393 408.836 238.808C409.541 239.222 410.088 239.814 410.479 240.583C410.869 241.347 411.065 242.258 411.065 243.317V252H407.283V243.992C407.289 243.158 407.076 242.507 406.643 242.039C406.211 241.566 405.617 241.329 404.859 241.329C404.35 241.329 403.9 241.438 403.51 241.657C403.125 241.876 402.823 242.196 402.604 242.616C402.391 243.03 402.281 243.531 402.276 244.116ZM420.207 252.266C418.828 252.266 417.635 251.973 416.629 251.387C415.629 250.796 414.856 249.973 414.312 248.919C413.767 247.86 413.495 246.632 413.495 245.235C413.495 243.826 413.767 242.595 414.312 241.542C414.856 240.482 415.629 239.66 416.629 239.074C417.635 238.482 418.828 238.186 420.207 238.186C421.586 238.186 422.775 238.482 423.775 239.074C424.782 239.66 425.557 240.482 426.101 241.542C426.646 242.595 426.918 243.826 426.918 245.235C426.918 246.632 426.646 247.86 426.101 248.919C425.557 249.973 424.782 250.796 423.775 251.387C422.775 251.973 421.586 252.266 420.207 252.266ZM420.224 249.337C420.852 249.337 421.376 249.159 421.796 248.804C422.216 248.443 422.533 247.952 422.746 247.33C422.965 246.709 423.074 246.002 423.074 245.208C423.074 244.415 422.965 243.708 422.746 243.087C422.533 242.465 422.216 241.974 421.796 241.613C421.376 241.252 420.852 241.071 420.224 241.071C419.591 241.071 419.058 241.252 418.626 241.613C418.2 241.974 417.878 242.465 417.659 243.087C417.446 243.708 417.339 244.415 417.339 245.208C417.339 246.002 417.446 246.709 417.659 247.33C417.878 247.952 418.2 248.443 418.626 248.804C419.058 249.159 419.591 249.337 420.224 249.337ZM433.159 233.818V252H429.377V233.818H433.159ZM444.934 246.194V238.364H448.716V252H445.085V249.523H444.942C444.635 250.322 444.123 250.964 443.407 251.45C442.696 251.935 441.829 252.178 440.805 252.178C439.894 252.178 439.092 251.97 438.4 251.556C437.707 251.142 437.165 250.553 436.775 249.789C436.39 249.026 436.195 248.112 436.189 247.046V238.364H439.971V246.371C439.977 247.176 440.193 247.813 440.619 248.28C441.045 248.748 441.616 248.982 442.332 248.982C442.788 248.982 443.214 248.878 443.611 248.671C444.007 248.458 444.327 248.144 444.57 247.73C444.818 247.315 444.94 246.804 444.934 246.194ZM455.523 233.818V252H451.741V233.818H455.523ZM467.297 246.194V238.364H471.079V252H467.448V249.523H467.306C466.998 250.322 466.486 250.964 465.77 251.45C465.06 251.935 464.193 252.178 463.169 252.178C462.257 252.178 461.455 251.97 460.763 251.556C460.07 251.142 459.529 250.553 459.138 249.789C458.753 249.026 458.558 248.112 458.552 247.046V238.364H462.334V246.371C462.34 247.176 462.556 247.813 462.982 248.28C463.408 248.748 463.98 248.982 464.696 248.982C465.151 248.982 465.578 248.878 465.974 248.671C466.371 248.458 466.69 248.144 466.933 247.73C467.181 247.315 467.303 246.804 467.297 246.194Z" fill="black"/>
<circle cx="809.511" cy="472.511" r="9.01136" fill="#FFE587" stroke="black"/>
<circle cx="730.511" cy="424.511" r="9.01136" fill="#FFE587" stroke="black"/>
<circle cx="610.511" cy="292.511" r="9.01136" fill="#FFE587" stroke="black"/>
<circle cx="393.511" cy="205.511" r="9.01136" fill="#FFE587" stroke="black"/>
<circle cx="189.511" cy="118.511" r="9.01136" fill="#FFE587" stroke="black"/>
<defs>
<filter id="filter0_d_185_295" x="59.9678" y="77.4404" width="798.184" height="524.17" filterUnits="userSpaceOnUse" color-interpolation-filters="sRGB">
<feFlood flood-opacity="0" result="BackgroundImageFix"/>
<feColorMatrix in="SourceAlpha" type="matrix" values="0 0 0 0 0 0 0 0 0 0 0 0 0 0 0 0 0 0 127 0" result="hardAlpha"/>
<feOffset dy="4"/>
<feGaussianBlur stdDeviation="2"/>
<feComposite in2="hardAlpha" operator="out"/>
<feColorMatrix type="matrix" values="0 0 0 0 0 0 0 0 0 0 0 0 0 0 0 0 0 0 0.25 0"/>
<feBlend mode="normal" in2="BackgroundImageFix" result="effect1_dropShadow_185_295"/>
<feBlend mode="normal" in="SourceGraphic" in2="effect1_dropShadow_185_295" result="shape"/>
</filter>
</defs>
</svg>
