<svg width="605" height="758" viewBox="0 0 605 758" fill="none" xmlns="http://www.w3.org/2000/svg">
<rect x="0.5" y="0.5" width="604" height="757" rx="35.5" fill="#8DDBFF" stroke="#717171"/>
<g filter="url(#filter0_d_223_175)">
<path d="M175 43H112.5V285.5L111 289.5V291.5L117.5 300V304.5L120 308.5L116.5 315L117.5 318.5L120 322.5L128 339.5H132L135 343H139.5L143.5 345.5V351.5L148 357V360.5L142.5 372L135 388L132 400.5L128 406.5L124 411V415L126 417.5L123 424.5L121 427L118.5 432L113.5 434.5L111 439L105.5 454.5L100.5 460.5V468.5L102.5 471.5L100.5 476L103.5 480L107 477.5L111 480L113.5 481H116L117 484.5L121 488L117 493.5V495.5L118.5 503L116 511L113.5 516.5V675H490V461L486 459L484.5 454.5L479 451L477.5 445C475.833 442.667 472.3 437.7 471.5 436.5C470.7 435.3 469.5 437 469 438H465L462.5 440.5L462 444L460 448.5L463.5 454.5L458.5 453H449.5L444 456.5H441.5L438.5 453H431L423.5 456.5L415 451L409.5 454.5L407.5 456.5L405.5 462.5L401 461L389.5 459H384L380 461L378.5 465.5V469.5C377 469 373.8 467.9 373 467.5C372.2 467.1 368 463 366 461V456.5L363 451V445L361.5 439.5L357 432.5L350.5 431H345.5C343 428.833 338 424.4 338 424C338 423.5 337 420 336.5 418.5C336.1 417.3 337.333 415.667 338 415V408L332.5 404L331 399.5L325.5 392.5L321 384.5V380L318 373.5V367L315 366L315.5 360.5L311 357L309 352L306 350.5L302.5 352L301.5 357L294 363L289.5 365L286.5 369.5L283 371.5L275 363H271H268.5V357L271 355L272.5 350.5L271 347.5L268.5 343L272.5 338L275 336L278.5 334L277 329.5V326L274 323.5L272.5 320L274 316L271 312.5V310L275 307V301.5L277 299V289L280.5 284.5L278.5 281V277.5L283 276V270V265L278.5 263L269.5 265H266L264.5 261L263.5 257H260L255 259V257L253.5 251.5L247 248.5L245 243.5L242.5 236L237 232.5L222 214L221 207.5L214 206.5L208.5 203.5L204 197L194.5 192L198 188V183L193.5 181.5L198 177L194.5 171.5V166L187.5 162V157L182.5 149.5L175 140.5V43Z" fill="#FFD597"/>
<path d="M175 43H112.5V285.5L111 289.5V291.5L117.5 300V304.5L120 308.5L116.5 315L117.5 318.5L120 322.5L128 339.5H132L135 343H139.5L143.5 345.5V351.5L148 357V360.5L142.5 372L135 388L132 400.5L128 406.5L124 411V415L126 417.5L123 424.5L121 427L118.5 432L113.5 434.5L111 439L105.5 454.5L100.5 460.5V468.5L102.5 471.5L100.5 476L103.5 480L107 477.5L111 480L113.5 481H116L117 484.5L121 488L117 493.5V495.5L118.5 503L116 511L113.5 516.5V675H490V461L486 459L484.5 454.5L479 451L477.5 445C475.833 442.667 472.3 437.7 471.5 436.5C470.7 435.3 469.5 437 469 438H465L462.5 440.5L462 444L460 448.5L463.5 454.5L458.5 453H449.5L444 456.5H441.5L438.5 453H431L423.5 456.5L415 451L409.5 454.5L407.5 456.5L405.5 462.5L401 461L389.5 459H384L380 461L378.5 465.5V469.5C377 469 373.8 467.9 373 467.5C372.2 467.1 368 463 366 461V456.5L363 451V445L361.5 439.5L357 432.5L350.5 431H345.5C343 428.833 338 424.4 338 424C338 423.5 337 420 336.5 418.5C336.1 417.3 337.333 415.667 338 415V408L332.5 404L331 399.5L325.5 392.5L321 384.5V380L318 373.5V367L315 366L315.5 360.5L311 357L309 352L306 350.5L302.5 352L301.5 357L294 363L289.5 365L286.5 369.5L283 371.5L275 363H271H268.5V357L271 355L272.5 350.5L271 347.5L268.5 343L272.5 338L275 336L278.5 334L277 329.5V326L274 323.5L272.5 320L274 316L271 312.5V310L275 307V301.5L277 299V289L280.5 284.5L278.5 281V277.5L283 276V270V265L278.5 263L269.5 265H266L264.5 261L263.5 257H260L255 259V257L253.5 251.5L247 248.5L245 243.5L242.5 236L237 232.5L222 214L221 207.5L214 206.5L208.5 203.5L204 197L194.5 192L198 188V183L193.5 181.5L198 177L194.5 171.5V166L187.5 162V157L182.5 149.5L175 140.5V43Z" stroke="black"/>
</g>
<path d="M348.722 305.545H352.591L357.773 318.193H357.977L363.159 305.545H367.028V323H363.994V311.009H363.832L359.009 322.949H356.741L351.918 310.983H351.756V323H348.722V305.545ZM369.705 308.196V305.545H383.631V308.196H378.236V323H375.099V308.196H369.705Z" fill="#005A5E"/>
<path d="M524.395 552L519.469 534.545H522.869L526.014 547.372H526.176L529.534 534.545H532.628L535.994 547.381H536.148L539.293 534.545H542.693L537.767 552H534.648L531.153 539.753H531.017L527.514 552H524.395ZM543.692 534.545H547.263L551.533 542.267H551.704L555.974 534.545H559.545L553.195 545.489V552H550.042V545.489L543.692 534.545Z" fill="#005A5E"/>
<path d="M392.724 695.545H395.886V706.949C395.886 708.199 395.591 709.298 395 710.247C394.415 711.196 393.591 711.937 392.528 712.472C391.466 713 390.224 713.264 388.804 713.264C387.378 713.264 386.134 713 385.071 712.472C384.009 711.937 383.185 711.196 382.599 710.247C382.014 709.298 381.722 708.199 381.722 706.949V695.545H384.884V706.685C384.884 707.412 385.043 708.06 385.361 708.628C385.685 709.196 386.139 709.642 386.724 709.966C387.31 710.284 388.003 710.443 388.804 710.443C389.605 710.443 390.298 710.284 390.884 709.966C391.474 709.642 391.929 709.196 392.247 708.628C392.565 708.06 392.724 707.412 392.724 706.685V695.545ZM398.556 698.196V695.545H412.482V698.196H407.087V713H403.951V698.196H398.556Z" fill="#005A5E"/>
<path d="M208.065 695.545V713H205.253L197.028 701.111H196.884V713H193.722V695.545H196.551L204.767 707.443H204.92V695.545H208.065ZM213.846 695.545L218.388 709.284H218.567L223.102 695.545H226.579L220.425 713H216.522L210.377 695.545H213.846Z" fill="#005A5E"/>
<path d="M55.3949 211L50.4688 193.545H53.8693L57.0142 206.372H57.1761L60.5341 193.545H63.6278L66.9943 206.381H67.1477L70.2926 193.545H73.6932L68.767 211H65.6477L62.1534 198.753H62.017L58.5142 211H55.3949ZM76.4865 211H73.1115L79.2564 193.545H83.1598L89.3132 211H85.9382L81.2763 197.125H81.1399L76.4865 211ZM76.5973 204.156H85.8018V206.696H76.5973V204.156Z" fill="#005A5E"/>
<path d="M67.3182 524.273C67.3182 526.153 66.9659 527.764 66.2614 529.105C65.5625 530.44 64.608 531.463 63.3977 532.173C62.1932 532.884 60.8267 533.239 59.2983 533.239C57.7699 533.239 56.4006 532.884 55.1903 532.173C53.9858 531.457 53.0313 530.432 52.3267 529.097C51.6278 527.756 51.2784 526.148 51.2784 524.273C51.2784 522.392 51.6278 520.784 52.3267 519.449C53.0313 518.108 53.9858 517.082 55.1903 516.372C56.4006 515.662 57.7699 515.307 59.2983 515.307C60.8267 515.307 62.1932 515.662 63.3977 516.372C64.608 517.082 65.5625 518.108 66.2614 519.449C66.9659 520.784 67.3182 522.392 67.3182 524.273ZM64.1392 524.273C64.1392 522.949 63.9318 521.832 63.517 520.923C63.108 520.009 62.5398 519.318 61.8125 518.852C61.0852 518.381 60.2472 518.145 59.2983 518.145C58.3494 518.145 57.5114 518.381 56.7841 518.852C56.0568 519.318 55.4858 520.009 55.071 520.923C54.6619 521.832 54.4574 522.949 54.4574 524.273C54.4574 525.597 54.6619 526.716 55.071 527.631C55.4858 528.54 56.0568 529.23 56.7841 529.702C57.5114 530.168 58.3494 530.401 59.2983 530.401C60.2472 530.401 61.0852 530.168 61.8125 529.702C62.5398 529.23 63.108 528.54 63.517 527.631C63.9318 526.716 64.1392 525.597 64.1392 524.273ZM70.3075 533V515.545H76.853C78.1939 515.545 79.3189 515.778 80.228 516.244C81.1428 516.71 81.8331 517.364 82.299 518.205C82.7706 519.04 83.0064 520.014 83.0064 521.128C83.0064 522.247 82.7678 523.219 82.2905 524.043C81.8189 524.861 81.1229 525.494 80.2024 525.943C79.282 526.386 78.1513 526.608 76.8104 526.608H72.1484V523.983H76.3842C77.1683 523.983 77.8104 523.875 78.3104 523.659C78.8104 523.437 79.1797 523.116 79.4183 522.696C79.6626 522.27 79.7848 521.747 79.7848 521.128C79.7848 520.509 79.6626 519.98 79.4183 519.543C79.174 519.099 78.8018 518.764 78.3018 518.537C77.8018 518.304 77.157 518.188 76.3672 518.188H73.4695V533H70.3075ZM79.3246 525.091L83.6456 533H80.1172L75.8729 525.091H79.3246Z" fill="#005A5E"/>
<circle cx="164.511" cy="535.511" r="9.01136" fill="#FF8F87" stroke="black"/>
<path d="M177.58 544V525.818H184.86C186.198 525.818 187.313 526.016 188.207 526.413C189.101 526.81 189.772 527.36 190.222 528.064C190.672 528.763 190.897 529.568 190.897 530.479C190.897 531.189 190.755 531.814 190.471 532.352C190.187 532.885 189.796 533.323 189.299 533.666C188.808 534.004 188.246 534.243 187.612 534.385V534.563C188.305 534.592 188.953 534.788 189.556 535.149C190.166 535.51 190.66 536.016 191.039 536.667C191.418 537.312 191.607 538.081 191.607 538.975C191.607 539.94 191.368 540.801 190.888 541.559C190.415 542.31 189.713 542.905 188.784 543.343C187.855 543.781 186.71 544 185.348 544H177.58ZM181.424 540.857H184.558C185.629 540.857 186.411 540.653 186.902 540.245C187.393 539.83 187.639 539.28 187.639 538.593C187.639 538.09 187.518 537.646 187.275 537.262C187.032 536.877 186.686 536.575 186.236 536.356C185.792 536.137 185.263 536.028 184.647 536.028H181.424V540.857ZM181.424 533.426H184.274C184.801 533.426 185.268 533.335 185.677 533.151C186.091 532.962 186.417 532.696 186.653 532.352C186.896 532.009 187.017 531.598 187.017 531.118C187.017 530.461 186.784 529.932 186.316 529.529C185.854 529.127 185.197 528.925 184.345 528.925H181.424V533.426ZM200.199 544.266C198.82 544.266 197.627 543.973 196.621 543.387C195.621 542.796 194.848 541.973 194.304 540.919C193.759 539.86 193.487 538.632 193.487 537.235C193.487 535.826 193.759 534.595 194.304 533.542C194.848 532.482 195.621 531.66 196.621 531.074C197.627 530.482 198.82 530.186 200.199 530.186C201.578 530.186 202.767 530.482 203.768 531.074C204.774 531.66 205.549 532.482 206.094 533.542C206.638 534.595 206.91 535.826 206.91 537.235C206.91 538.632 206.638 539.86 206.094 540.919C205.549 541.973 204.774 542.796 203.768 543.387C202.767 543.973 201.578 544.266 200.199 544.266ZM200.217 541.337C200.844 541.337 201.368 541.159 201.788 540.804C202.208 540.443 202.525 539.952 202.738 539.33C202.957 538.709 203.066 538.002 203.066 537.208C203.066 536.415 202.957 535.708 202.738 535.087C202.525 534.465 202.208 533.974 201.788 533.613C201.368 533.252 200.844 533.071 200.217 533.071C199.583 533.071 199.051 533.252 198.619 533.613C198.192 533.974 197.87 534.465 197.651 535.087C197.438 535.708 197.331 536.415 197.331 537.208C197.331 538.002 197.438 538.709 197.651 539.33C197.87 539.952 198.192 540.443 198.619 540.804C199.051 541.159 199.583 541.337 200.217 541.337ZM209.37 544V530.364H213.152V544H209.37ZM211.269 528.606C210.707 528.606 210.225 528.419 209.822 528.047C209.426 527.668 209.228 527.215 209.228 526.688C209.228 526.167 209.426 525.721 209.822 525.348C210.225 524.969 210.707 524.779 211.269 524.779C211.832 524.779 212.311 524.969 212.708 525.348C213.11 525.721 213.311 526.167 213.311 526.688C213.311 527.215 213.11 527.668 212.708 528.047C212.311 528.419 211.832 528.606 211.269 528.606ZM227.527 534.252L224.065 534.465C224.005 534.169 223.878 533.903 223.683 533.666C223.488 533.424 223.23 533.231 222.911 533.089C222.597 532.941 222.221 532.867 221.783 532.867C221.197 532.867 220.703 532.991 220.3 533.24C219.898 533.483 219.697 533.808 219.697 534.217C219.697 534.542 219.827 534.817 220.087 535.042C220.348 535.267 220.795 535.448 221.428 535.584L223.896 536.081C225.222 536.353 226.21 536.791 226.861 537.395C227.512 537.999 227.838 538.792 227.838 539.774C227.838 540.668 227.574 541.452 227.048 542.127C226.527 542.801 225.811 543.328 224.899 543.707C223.994 544.08 222.949 544.266 221.765 544.266C219.96 544.266 218.522 543.891 217.451 543.139C216.385 542.381 215.761 541.351 215.577 540.049L219.297 539.854C219.41 540.404 219.682 540.825 220.114 541.115C220.546 541.399 221.099 541.541 221.774 541.541C222.437 541.541 222.97 541.414 223.372 541.159C223.781 540.899 223.988 540.564 223.994 540.156C223.988 539.813 223.843 539.531 223.559 539.312C223.275 539.088 222.837 538.916 222.245 538.798L219.883 538.327C218.551 538.061 217.56 537.599 216.909 536.942C216.264 536.285 215.941 535.448 215.941 534.43C215.941 533.554 216.178 532.799 216.652 532.166C217.131 531.533 217.803 531.044 218.667 530.701C219.537 530.358 220.555 530.186 221.721 530.186C223.443 530.186 224.799 530.55 225.787 531.278C226.781 532.006 227.361 532.997 227.527 534.252ZM236.434 544.266C235.031 544.266 233.824 543.982 232.812 543.414C231.805 542.84 231.03 542.029 230.486 540.982C229.941 539.928 229.669 538.682 229.669 537.244C229.669 535.841 229.941 534.61 230.486 533.551C231.03 532.491 231.796 531.666 232.785 531.074C233.779 530.482 234.945 530.186 236.283 530.186C237.182 530.186 238.02 530.331 238.795 530.621C239.576 530.905 240.257 531.334 240.837 531.908C241.423 532.482 241.879 533.205 242.204 534.075C242.53 534.939 242.693 535.951 242.693 537.111V538.15H231.178V535.806H239.133C239.133 535.261 239.014 534.779 238.777 534.359C238.541 533.938 238.212 533.61 237.792 533.373C237.378 533.131 236.895 533.009 236.345 533.009C235.771 533.009 235.262 533.142 234.818 533.409C234.38 533.669 234.037 534.021 233.788 534.465C233.54 534.903 233.412 535.391 233.406 535.93V538.158C233.406 538.833 233.531 539.416 233.779 539.907C234.034 540.399 234.392 540.777 234.853 541.044C235.315 541.31 235.863 541.443 236.496 541.443C236.916 541.443 237.301 541.384 237.65 541.266C237.999 541.147 238.298 540.97 238.547 540.733C238.795 540.496 238.985 540.206 239.115 539.863L242.613 540.094C242.435 540.934 242.071 541.668 241.521 542.295C240.976 542.917 240.272 543.402 239.408 543.751C238.55 544.095 237.558 544.266 236.434 544.266Z" fill="black"/>
<path d="M219.207 644.771V642.818H232.844V644.771H227.126V661H224.925V644.771H219.207ZM237.485 661L233.33 647.364H235.532L238.479 657.804H238.621L241.533 647.364H243.77L246.647 657.768H246.789L249.736 647.364H251.938L247.783 661H245.723L242.74 650.524H242.527L239.544 661H237.485ZM254.708 661V647.364H256.803V661H254.708ZM255.773 645.091C255.365 645.091 255.012 644.952 254.717 644.674C254.427 644.395 254.282 644.061 254.282 643.67C254.282 643.28 254.427 642.945 254.717 642.667C255.012 642.389 255.365 642.25 255.773 642.25C256.181 642.25 256.531 642.389 256.821 642.667C257.117 642.945 257.264 643.28 257.264 643.67C257.264 644.061 257.117 644.395 256.821 644.674C256.531 644.952 256.181 645.091 255.773 645.091ZM262.735 652.797V661H260.64V647.364H262.664V649.494H262.842C263.162 648.802 263.647 648.246 264.298 647.825C264.949 647.399 265.789 647.186 266.819 647.186C267.743 647.186 268.55 647.375 269.243 647.754C269.935 648.127 270.474 648.695 270.859 649.459C271.243 650.216 271.436 651.175 271.436 652.335V661H269.341V652.477C269.341 651.406 269.062 650.571 268.506 649.974C267.95 649.37 267.186 649.068 266.216 649.068C265.547 649.068 264.949 649.213 264.422 649.503C263.901 649.793 263.49 650.216 263.188 650.773C262.886 651.329 262.735 652.004 262.735 652.797ZM282.58 661V642.818H293.482V644.771H284.781V650.915H292.665V652.868H284.781V661H282.58ZM300.981 661.32C300.117 661.32 299.333 661.157 298.629 660.831C297.924 660.5 297.365 660.023 296.951 659.402C296.536 658.775 296.329 658.017 296.329 657.129C296.329 656.348 296.483 655.715 296.791 655.229C297.099 654.738 297.51 654.353 298.025 654.075C298.54 653.797 299.108 653.59 299.729 653.454C300.357 653.312 300.987 653.199 301.62 653.116C302.449 653.01 303.121 652.93 303.636 652.877C304.156 652.818 304.535 652.72 304.772 652.584C305.015 652.448 305.136 652.211 305.136 651.874V651.803C305.136 650.927 304.896 650.246 304.417 649.761C303.943 649.275 303.224 649.033 302.26 649.033C301.259 649.033 300.475 649.252 299.907 649.69C299.339 650.128 298.939 650.595 298.708 651.092L296.72 650.382C297.075 649.554 297.548 648.908 298.14 648.447C298.738 647.979 299.389 647.654 300.093 647.47C300.804 647.281 301.502 647.186 302.189 647.186C302.627 647.186 303.13 647.239 303.698 647.346C304.272 647.446 304.825 647.657 305.358 647.976C305.897 648.296 306.343 648.778 306.699 649.423C307.054 650.068 307.231 650.933 307.231 652.016V661H305.136V659.153H305.029C304.887 659.449 304.651 659.766 304.319 660.103C303.988 660.441 303.547 660.728 302.996 660.964C302.446 661.201 301.774 661.32 300.981 661.32ZM301.301 659.438C302.129 659.438 302.828 659.275 303.396 658.949C303.97 658.624 304.402 658.203 304.692 657.689C304.988 657.174 305.136 656.632 305.136 656.064V654.146C305.047 654.253 304.852 654.35 304.55 654.439C304.254 654.522 303.911 654.596 303.52 654.661C303.136 654.72 302.76 654.774 302.393 654.821C302.032 654.862 301.739 654.898 301.514 654.928C300.969 654.999 300.46 655.114 299.987 655.274C299.519 655.428 299.141 655.661 298.85 655.975C298.566 656.283 298.424 656.703 298.424 657.236C298.424 657.964 298.694 658.514 299.232 658.887C299.777 659.254 300.466 659.438 301.301 659.438ZM313.15 642.818V661H311.055V642.818H313.15ZM319.083 642.818V661H316.988V642.818H319.083ZM332.58 650.418L330.698 650.95C330.579 650.637 330.405 650.332 330.174 650.036C329.949 649.734 329.641 649.485 329.25 649.29C328.86 649.095 328.36 648.997 327.75 648.997C326.916 648.997 326.22 649.19 325.664 649.574C325.113 649.953 324.838 650.435 324.838 651.021C324.838 651.542 325.028 651.953 325.406 652.255C325.785 652.557 326.377 652.809 327.182 653.01L329.206 653.507C330.425 653.803 331.334 654.256 331.932 654.865C332.529 655.469 332.828 656.247 332.828 657.2C332.828 657.982 332.603 658.68 332.153 659.295C331.71 659.911 331.088 660.396 330.289 660.751C329.49 661.107 328.561 661.284 327.502 661.284C326.111 661.284 324.959 660.982 324.048 660.379C323.137 659.775 322.56 658.893 322.317 657.733L324.305 657.236C324.495 657.97 324.853 658.52 325.38 658.887C325.912 659.254 326.608 659.438 327.466 659.438C328.443 659.438 329.218 659.23 329.792 658.816C330.372 658.396 330.662 657.893 330.662 657.307C330.662 656.833 330.496 656.437 330.165 656.117C329.833 655.792 329.324 655.549 328.638 655.389L326.365 654.857C325.116 654.561 324.199 654.102 323.613 653.48C323.033 652.853 322.743 652.069 322.743 651.128C322.743 650.358 322.959 649.678 323.391 649.086C323.829 648.494 324.424 648.029 325.176 647.692C325.933 647.355 326.791 647.186 327.75 647.186C329.1 647.186 330.159 647.482 330.928 648.074C331.704 648.666 332.254 649.447 332.58 650.418Z" fill="black"/>
<path d="M343.202 630V611.818H349.345C350.772 611.818 351.938 612.076 352.843 612.591C353.754 613.1 354.429 613.789 354.867 614.659C355.305 615.529 355.524 616.5 355.524 617.571C355.524 618.642 355.305 619.616 354.867 620.492C354.435 621.368 353.766 622.066 352.861 622.587C351.955 623.102 350.795 623.359 349.381 623.359H344.977V621.406H349.31C350.286 621.406 351.07 621.238 351.662 620.9C352.254 620.563 352.683 620.107 352.95 619.533C353.222 618.953 353.358 618.299 353.358 617.571C353.358 616.843 353.222 616.192 352.95 615.618C352.683 615.044 352.251 614.594 351.653 614.268C351.056 613.937 350.263 613.771 349.274 613.771H345.403V630H343.202ZM364.18 630.284C362.949 630.284 361.869 629.991 360.94 629.405C360.016 628.819 359.294 628 358.773 626.946C358.259 625.893 358.001 624.661 358.001 623.253C358.001 621.832 358.259 620.592 358.773 619.533C359.294 618.474 360.016 617.651 360.94 617.065C361.869 616.479 362.949 616.186 364.18 616.186C365.411 616.186 366.488 616.479 367.412 617.065C368.341 617.651 369.063 618.474 369.578 619.533C370.099 620.592 370.359 621.832 370.359 623.253C370.359 624.661 370.099 625.893 369.578 626.946C369.063 628 368.341 628.819 367.412 629.405C366.488 629.991 365.411 630.284 364.18 630.284ZM364.18 628.402C365.115 628.402 365.885 628.162 366.488 627.683C367.092 627.203 367.539 626.573 367.829 625.792C368.119 625.011 368.264 624.164 368.264 623.253C368.264 622.341 368.119 621.492 367.829 620.705C367.539 619.918 367.092 619.281 366.488 618.796C365.885 618.311 365.115 618.068 364.18 618.068C363.245 618.068 362.475 618.311 361.872 618.796C361.268 619.281 360.821 619.918 360.531 620.705C360.241 621.492 360.096 622.341 360.096 623.253C360.096 624.164 360.241 625.011 360.531 625.792C360.821 626.573 361.268 627.203 361.872 627.683C362.475 628.162 363.245 628.402 364.18 628.402ZM379.097 630.284C377.819 630.284 376.718 629.982 375.794 629.379C374.871 628.775 374.161 627.943 373.664 626.884C373.167 625.824 372.918 624.614 372.918 623.253C372.918 621.868 373.173 620.646 373.682 619.586C374.196 618.521 374.913 617.689 375.83 617.092C376.753 616.488 377.83 616.186 379.062 616.186C380.02 616.186 380.884 616.364 381.654 616.719C382.423 617.074 383.054 617.571 383.545 618.21C384.036 618.849 384.341 619.595 384.459 620.447H382.364C382.204 619.826 381.849 619.276 381.299 618.796C380.754 618.311 380.02 618.068 379.097 618.068C378.28 618.068 377.564 618.281 376.949 618.707C376.339 619.128 375.863 619.722 375.519 620.492C375.182 621.255 375.013 622.152 375.013 623.182C375.013 624.235 375.179 625.153 375.51 625.934C375.848 626.715 376.321 627.322 376.931 627.754C377.546 628.186 378.268 628.402 379.097 628.402C379.642 628.402 380.136 628.307 380.58 628.118C381.024 627.929 381.399 627.656 381.707 627.301C382.015 626.946 382.234 626.52 382.364 626.023H384.459C384.341 626.828 384.048 627.553 383.58 628.198C383.119 628.837 382.506 629.346 381.743 629.725C380.985 630.098 380.103 630.284 379.097 630.284ZM391.535 630.32C390.671 630.32 389.887 630.157 389.182 629.831C388.478 629.5 387.919 629.023 387.504 628.402C387.09 627.775 386.883 627.017 386.883 626.129C386.883 625.348 387.037 624.715 387.345 624.229C387.652 623.738 388.064 623.353 388.579 623.075C389.093 622.797 389.662 622.59 390.283 622.454C390.91 622.312 391.541 622.199 392.174 622.116C393.003 622.01 393.674 621.93 394.189 621.877C394.71 621.818 395.089 621.72 395.326 621.584C395.568 621.448 395.69 621.211 395.69 620.874V620.803C395.69 619.927 395.45 619.246 394.971 618.761C394.497 618.275 393.778 618.033 392.813 618.033C391.813 618.033 391.029 618.252 390.461 618.69C389.892 619.128 389.493 619.595 389.262 620.092L387.274 619.382C387.629 618.554 388.102 617.908 388.694 617.447C389.292 616.979 389.943 616.654 390.647 616.47C391.357 616.281 392.056 616.186 392.742 616.186C393.18 616.186 393.683 616.239 394.252 616.346C394.826 616.446 395.379 616.657 395.912 616.976C396.45 617.296 396.897 617.778 397.252 618.423C397.607 619.068 397.785 619.933 397.785 621.016V630H395.69V628.153H395.583C395.441 628.449 395.204 628.766 394.873 629.103C394.542 629.441 394.101 629.728 393.55 629.964C393 630.201 392.328 630.32 391.535 630.32ZM391.854 628.438C392.683 628.438 393.381 628.275 393.95 627.949C394.524 627.624 394.956 627.203 395.246 626.689C395.542 626.174 395.69 625.632 395.69 625.064V623.146C395.601 623.253 395.406 623.35 395.104 623.439C394.808 623.522 394.465 623.596 394.074 623.661C393.689 623.72 393.313 623.774 392.946 623.821C392.585 623.862 392.292 623.898 392.068 623.928C391.523 623.999 391.014 624.114 390.541 624.274C390.073 624.428 389.694 624.661 389.404 624.975C389.12 625.283 388.978 625.703 388.978 626.236C388.978 626.964 389.247 627.514 389.786 627.887C390.33 628.254 391.02 628.438 391.854 628.438ZM407.539 616.364V618.139H400.473V616.364H407.539ZM402.532 613.097H404.627V626.094C404.627 626.686 404.713 627.129 404.885 627.425C405.063 627.715 405.287 627.911 405.56 628.011C405.838 628.106 406.131 628.153 406.439 628.153C406.669 628.153 406.859 628.142 407.007 628.118C407.155 628.088 407.273 628.065 407.362 628.047L407.788 629.929C407.646 629.982 407.448 630.036 407.193 630.089C406.939 630.148 406.616 630.178 406.225 630.178C405.634 630.178 405.054 630.05 404.485 629.796C403.923 629.541 403.456 629.154 403.083 628.633C402.716 628.112 402.532 627.455 402.532 626.662V613.097ZM416.262 630.284C414.948 630.284 413.815 629.994 412.862 629.414C411.915 628.828 411.184 628.011 410.669 626.964C410.16 625.91 409.905 624.685 409.905 623.288C409.905 621.892 410.16 620.661 410.669 619.595C411.184 618.524 411.9 617.689 412.817 617.092C413.741 616.488 414.818 616.186 416.049 616.186C416.759 616.186 417.46 616.304 418.153 616.541C418.845 616.778 419.476 617.163 420.044 617.695C420.612 618.222 421.065 618.92 421.402 619.79C421.74 620.661 421.908 621.732 421.908 623.004V623.892H411.397V622.081H419.778C419.778 621.312 419.624 620.625 419.316 620.021C419.014 619.418 418.582 618.941 418.02 618.592C417.463 618.243 416.806 618.068 416.049 618.068C415.214 618.068 414.492 618.275 413.883 618.69C413.279 619.098 412.814 619.631 412.489 620.288C412.163 620.945 412.001 621.649 412.001 622.401V623.608C412.001 624.638 412.178 625.511 412.533 626.227C412.894 626.937 413.394 627.479 414.034 627.852C414.673 628.219 415.416 628.402 416.262 628.402C416.812 628.402 417.309 628.325 417.753 628.171C418.203 628.011 418.591 627.775 418.916 627.461C419.242 627.141 419.493 626.745 419.671 626.271L421.695 626.839C421.482 627.526 421.124 628.13 420.621 628.651C420.118 629.165 419.496 629.568 418.757 629.858C418.017 630.142 417.185 630.284 416.262 630.284ZM427.191 611.818V630H425.095V611.818H427.191ZM433.123 611.818V630H431.028V611.818H433.123ZM442.5 630.284C441.269 630.284 440.189 629.991 439.26 629.405C438.337 628.819 437.615 628 437.094 626.946C436.579 625.893 436.321 624.661 436.321 623.253C436.321 621.832 436.579 620.592 437.094 619.533C437.615 618.474 438.337 617.651 439.26 617.065C440.189 616.479 441.269 616.186 442.5 616.186C443.731 616.186 444.809 616.479 445.732 617.065C446.661 617.651 447.383 618.474 447.898 619.533C448.419 620.592 448.679 621.832 448.679 623.253C448.679 624.661 448.419 625.893 447.898 626.946C447.383 628 446.661 628.819 445.732 629.405C444.809 629.991 443.731 630.284 442.5 630.284ZM442.5 628.402C443.435 628.402 444.205 628.162 444.809 627.683C445.412 627.203 445.859 626.573 446.149 625.792C446.439 625.011 446.584 624.164 446.584 623.253C446.584 622.341 446.439 621.492 446.149 620.705C445.859 619.918 445.412 619.281 444.809 618.796C444.205 618.311 443.435 618.068 442.5 618.068C441.565 618.068 440.796 618.311 440.192 618.796C439.588 619.281 439.142 619.918 438.852 620.705C438.562 621.492 438.417 622.341 438.417 623.253C438.417 624.164 438.562 625.011 438.852 625.792C439.142 626.573 439.588 627.203 440.192 627.683C440.796 628.162 441.565 628.402 442.5 628.402Z" fill="black"/>
<path d="M280.832 475.5H278.631C278.5 474.867 278.273 474.31 277.947 473.831C277.627 473.352 277.237 472.949 276.775 472.624C276.319 472.292 275.813 472.044 275.257 471.878C274.701 471.712 274.121 471.629 273.517 471.629C272.416 471.629 271.419 471.907 270.525 472.464C269.637 473.02 268.93 473.84 268.403 474.923C267.883 476.006 267.622 477.335 267.622 478.909C267.622 480.483 267.883 481.812 268.403 482.895C268.93 483.978 269.637 484.798 270.525 485.354C271.419 485.911 272.416 486.189 273.517 486.189C274.121 486.189 274.701 486.106 275.257 485.94C275.813 485.775 276.319 485.529 276.775 485.203C277.237 484.872 277.627 484.467 277.947 483.987C278.273 483.502 278.5 482.946 278.631 482.318H280.832C280.667 483.247 280.365 484.079 279.927 484.813C279.489 485.547 278.944 486.171 278.293 486.686C277.642 487.195 276.911 487.583 276.1 487.849C275.296 488.115 274.434 488.249 273.517 488.249C271.966 488.249 270.587 487.87 269.38 487.112C268.173 486.355 267.223 485.277 266.53 483.881C265.838 482.484 265.491 480.827 265.491 478.909C265.491 476.991 265.838 475.334 266.53 473.938C267.223 472.541 268.173 471.464 269.38 470.706C270.587 469.948 271.966 469.57 273.517 469.57C274.434 469.57 275.296 469.703 276.1 469.969C276.911 470.235 277.642 470.626 278.293 471.141C278.944 471.65 279.489 472.271 279.927 473.005C280.365 473.733 280.667 474.565 280.832 475.5ZM286.201 479.797V488H284.106V469.818H286.201V476.494H286.379C286.698 475.79 287.178 475.231 287.817 474.816C288.462 474.396 289.32 474.186 290.392 474.186C291.321 474.186 292.135 474.373 292.833 474.745C293.531 475.112 294.073 475.678 294.458 476.441C294.848 477.199 295.044 478.163 295.044 479.335V488H292.948V479.477C292.948 478.394 292.667 477.557 292.105 476.965C291.549 476.367 290.776 476.068 289.788 476.068C289.101 476.068 288.486 476.213 287.941 476.503C287.403 476.793 286.977 477.216 286.663 477.773C286.355 478.329 286.201 479.004 286.201 479.797ZM302.889 488.32C302.025 488.32 301.241 488.157 300.537 487.831C299.832 487.5 299.273 487.023 298.859 486.402C298.445 485.775 298.237 485.017 298.237 484.129C298.237 483.348 298.391 482.715 298.699 482.229C299.007 481.738 299.418 481.353 299.933 481.075C300.448 480.797 301.016 480.59 301.638 480.454C302.265 480.312 302.895 480.199 303.529 480.116C304.357 480.01 305.029 479.93 305.544 479.877C306.065 479.818 306.443 479.72 306.68 479.584C306.923 479.448 307.044 479.211 307.044 478.874V478.803C307.044 477.927 306.805 477.246 306.325 476.761C305.852 476.275 305.133 476.033 304.168 476.033C303.168 476.033 302.383 476.252 301.815 476.69C301.247 477.128 300.847 477.595 300.617 478.092L298.628 477.382C298.983 476.554 299.457 475.908 300.048 475.447C300.646 474.979 301.297 474.654 302.002 474.47C302.712 474.281 303.41 474.186 304.097 474.186C304.535 474.186 305.038 474.239 305.606 474.346C306.18 474.446 306.733 474.657 307.266 474.976C307.805 475.296 308.252 475.778 308.607 476.423C308.962 477.068 309.139 477.933 309.139 479.016V488H307.044V486.153H306.938C306.796 486.449 306.559 486.766 306.227 487.103C305.896 487.441 305.455 487.728 304.905 487.964C304.354 488.201 303.682 488.32 302.889 488.32ZM303.209 486.438C304.038 486.438 304.736 486.275 305.304 485.949C305.878 485.624 306.31 485.203 306.6 484.689C306.896 484.174 307.044 483.632 307.044 483.064V481.146C306.955 481.253 306.76 481.35 306.458 481.439C306.162 481.522 305.819 481.596 305.428 481.661C305.044 481.72 304.668 481.774 304.301 481.821C303.94 481.862 303.647 481.898 303.422 481.928C302.878 481.999 302.369 482.114 301.895 482.274C301.427 482.428 301.049 482.661 300.759 482.975C300.475 483.283 300.333 483.703 300.333 484.236C300.333 484.964 300.602 485.514 301.14 485.887C301.685 486.254 302.374 486.438 303.209 486.438ZM315.059 469.818V488H312.964V469.818H315.059ZM320.991 469.818V488H318.896V469.818H320.991ZM324.829 488V474.364H326.924V488H324.829ZM325.894 472.091C325.486 472.091 325.134 471.952 324.838 471.674C324.548 471.395 324.403 471.061 324.403 470.67C324.403 470.28 324.548 469.945 324.838 469.667C325.134 469.389 325.486 469.25 325.894 469.25C326.302 469.25 326.652 469.389 326.942 469.667C327.238 469.945 327.386 470.28 327.386 470.67C327.386 471.061 327.238 471.395 326.942 471.674C326.652 471.952 326.302 472.091 325.894 472.091ZM340.42 477.418L338.538 477.95C338.42 477.637 338.245 477.332 338.015 477.036C337.79 476.734 337.482 476.485 337.091 476.29C336.701 476.095 336.201 475.997 335.591 475.997C334.756 475.997 334.061 476.19 333.505 476.574C332.954 476.953 332.679 477.435 332.679 478.021C332.679 478.542 332.868 478.953 333.247 479.255C333.626 479.557 334.218 479.809 335.023 480.01L337.047 480.507C338.266 480.803 339.175 481.256 339.772 481.865C340.37 482.469 340.669 483.247 340.669 484.2C340.669 484.982 340.444 485.68 339.994 486.295C339.55 486.911 338.929 487.396 338.13 487.751C337.331 488.107 336.402 488.284 335.342 488.284C333.951 488.284 332.8 487.982 331.889 487.379C330.977 486.775 330.4 485.893 330.158 484.733L332.146 484.236C332.336 484.97 332.694 485.52 333.221 485.887C333.753 486.254 334.449 486.438 335.307 486.438C336.283 486.438 337.059 486.23 337.633 485.816C338.213 485.396 338.503 484.893 338.503 484.307C338.503 483.833 338.337 483.437 338.006 483.117C337.674 482.792 337.165 482.549 336.479 482.389L334.206 481.857C332.957 481.561 332.04 481.102 331.454 480.48C330.874 479.853 330.584 479.069 330.584 478.128C330.584 477.358 330.8 476.678 331.232 476.086C331.67 475.494 332.265 475.029 333.016 474.692C333.774 474.355 334.632 474.186 335.591 474.186C336.94 474.186 338 474.482 338.769 475.074C339.545 475.666 340.095 476.447 340.42 477.418Z" fill="black"/>
<path d="M161.631 370.5C161.435 369.902 161.178 369.367 160.858 368.893C160.545 368.414 160.169 368.005 159.731 367.668C159.299 367.331 158.808 367.073 158.257 366.896C157.707 366.718 157.103 366.629 156.446 366.629C155.369 366.629 154.389 366.907 153.507 367.464C152.626 368.02 151.924 368.84 151.403 369.923C150.883 371.006 150.622 372.335 150.622 373.909C150.622 375.483 150.886 376.812 151.412 377.895C151.939 378.978 152.652 379.798 153.552 380.354C154.451 380.911 155.464 381.189 156.588 381.189C157.63 381.189 158.547 380.967 159.34 380.523C160.139 380.073 160.761 379.44 161.205 378.623C161.654 377.801 161.879 376.833 161.879 375.72L162.554 375.862H157.085V373.909H164.01V375.862C164.01 377.36 163.69 378.662 163.051 379.768C162.418 380.875 161.542 381.733 160.423 382.343C159.311 382.947 158.032 383.249 156.588 383.249C154.978 383.249 153.564 382.87 152.344 382.112C151.131 381.355 150.184 380.277 149.504 378.881C148.829 377.484 148.491 375.827 148.491 373.909C148.491 372.471 148.684 371.178 149.069 370.029C149.459 368.875 150.01 367.893 150.72 367.082C151.43 366.271 152.27 365.65 153.241 365.218C154.212 364.786 155.28 364.57 156.446 364.57C157.405 364.57 158.299 364.715 159.127 365.005C159.962 365.289 160.704 365.694 161.355 366.221C162.012 366.742 162.56 367.366 162.998 368.094C163.436 368.816 163.738 369.618 163.903 370.5H161.631ZM167.497 383V369.364H169.521V371.423H169.663C169.911 370.749 170.361 370.201 171.012 369.781C171.663 369.361 172.397 369.151 173.214 369.151C173.368 369.151 173.56 369.154 173.791 369.159C174.022 369.165 174.197 369.174 174.315 369.186V371.317C174.244 371.299 174.081 371.272 173.827 371.237C173.578 371.195 173.315 371.175 173.036 371.175C172.374 371.175 171.782 371.314 171.261 371.592C170.746 371.864 170.338 372.243 170.036 372.728C169.74 373.208 169.592 373.755 169.592 374.371V383H167.497ZM180.811 383.32C179.947 383.32 179.163 383.157 178.459 382.831C177.754 382.5 177.195 382.023 176.781 381.402C176.366 380.775 176.159 380.017 176.159 379.129C176.159 378.348 176.313 377.715 176.621 377.229C176.929 376.738 177.34 376.353 177.855 376.075C178.37 375.797 178.938 375.59 179.559 375.454C180.187 375.312 180.817 375.199 181.45 375.116C182.279 375.01 182.951 374.93 183.466 374.877C183.987 374.818 184.365 374.72 184.602 374.584C184.845 374.448 184.966 374.211 184.966 373.874V373.803C184.966 372.927 184.726 372.246 184.247 371.761C183.773 371.275 183.054 371.033 182.09 371.033C181.089 371.033 180.305 371.252 179.737 371.69C179.169 372.128 178.769 372.595 178.539 373.092L176.55 372.382C176.905 371.554 177.378 370.908 177.97 370.447C178.568 369.979 179.219 369.654 179.923 369.47C180.634 369.281 181.332 369.186 182.019 369.186C182.457 369.186 182.96 369.239 183.528 369.346C184.102 369.446 184.655 369.657 185.188 369.976C185.727 370.296 186.173 370.778 186.529 371.423C186.884 372.068 187.061 372.933 187.061 374.016V383H184.966V381.153H184.86C184.718 381.449 184.481 381.766 184.149 382.103C183.818 382.441 183.377 382.728 182.827 382.964C182.276 383.201 181.604 383.32 180.811 383.32ZM181.131 381.438C181.959 381.438 182.658 381.275 183.226 380.949C183.8 380.624 184.232 380.203 184.522 379.689C184.818 379.174 184.966 378.632 184.966 378.064V376.146C184.877 376.253 184.682 376.35 184.38 376.439C184.084 376.522 183.741 376.596 183.35 376.661C182.966 376.72 182.59 376.774 182.223 376.821C181.862 376.862 181.569 376.898 181.344 376.928C180.799 376.999 180.29 377.114 179.817 377.274C179.349 377.428 178.971 377.661 178.681 377.975C178.396 378.283 178.254 378.703 178.254 379.236C178.254 379.964 178.524 380.514 179.062 380.887C179.607 381.254 180.296 381.438 181.131 381.438ZM192.981 374.797V383H190.885V369.364H192.91V371.494H193.087C193.407 370.802 193.892 370.246 194.543 369.825C195.194 369.399 196.035 369.186 197.064 369.186C197.988 369.186 198.796 369.375 199.488 369.754C200.18 370.127 200.719 370.695 201.104 371.459C201.488 372.216 201.681 373.175 201.681 374.335V383H199.586V374.477C199.586 373.406 199.307 372.571 198.751 371.974C198.195 371.37 197.431 371.068 196.461 371.068C195.792 371.068 195.194 371.213 194.667 371.503C194.147 371.793 193.735 372.216 193.433 372.773C193.131 373.329 192.981 374.004 192.981 374.797ZM211.014 388.398C210.002 388.398 209.132 388.268 208.404 388.007C207.676 387.753 207.069 387.415 206.584 386.995C206.104 386.581 205.722 386.137 205.438 385.663L207.107 384.491C207.297 384.74 207.537 385.024 207.827 385.344C208.117 385.669 208.513 385.95 209.016 386.187C209.525 386.43 210.191 386.551 211.014 386.551C212.115 386.551 213.023 386.285 213.739 385.752C214.455 385.219 214.813 384.385 214.813 383.249V380.479H214.636C214.482 380.727 214.263 381.035 213.979 381.402C213.701 381.763 213.298 382.086 212.771 382.37C212.251 382.648 211.546 382.787 210.659 382.787C209.558 382.787 208.569 382.527 207.693 382.006C206.823 381.485 206.134 380.727 205.625 379.733C205.122 378.739 204.87 377.531 204.87 376.111C204.87 374.714 205.116 373.498 205.607 372.462C206.098 371.42 206.782 370.615 207.658 370.047C208.534 369.473 209.546 369.186 210.694 369.186C211.582 369.186 212.286 369.334 212.807 369.63C213.334 369.92 213.736 370.251 214.014 370.624C214.298 370.991 214.517 371.293 214.671 371.53H214.884V369.364H216.909V383.391C216.909 384.562 216.642 385.515 216.11 386.249C215.583 386.989 214.873 387.531 213.979 387.874C213.091 388.223 212.103 388.398 211.014 388.398ZM210.943 380.905C211.783 380.905 212.493 380.712 213.073 380.328C213.653 379.943 214.094 379.39 214.396 378.668C214.698 377.946 214.849 377.081 214.849 376.075C214.849 375.093 214.701 374.226 214.405 373.474C214.109 372.722 213.671 372.134 213.091 371.707C212.511 371.281 211.795 371.068 210.943 371.068C210.055 371.068 209.315 371.293 208.723 371.743C208.137 372.193 207.696 372.796 207.4 373.554C207.11 374.312 206.965 375.152 206.965 376.075C206.965 377.022 207.113 377.86 207.409 378.588C207.711 379.31 208.155 379.878 208.741 380.292C209.333 380.701 210.067 380.905 210.943 380.905ZM226.461 383.284C225.147 383.284 224.014 382.994 223.061 382.414C222.114 381.828 221.383 381.011 220.868 379.964C220.359 378.91 220.105 377.685 220.105 376.288C220.105 374.892 220.359 373.661 220.868 372.595C221.383 371.524 222.099 370.689 223.017 370.092C223.94 369.488 225.017 369.186 226.248 369.186C226.958 369.186 227.66 369.304 228.352 369.541C229.045 369.778 229.675 370.163 230.243 370.695C230.811 371.222 231.264 371.92 231.601 372.79C231.939 373.661 232.107 374.732 232.107 376.004V376.892H221.596V375.081H229.977C229.977 374.312 229.823 373.625 229.515 373.021C229.213 372.418 228.781 371.941 228.219 371.592C227.663 371.243 227.006 371.068 226.248 371.068C225.414 371.068 224.691 371.275 224.082 371.69C223.478 372.098 223.014 372.631 222.688 373.288C222.363 373.945 222.2 374.649 222.2 375.401V376.608C222.2 377.638 222.377 378.511 222.732 379.227C223.093 379.937 223.594 380.479 224.233 380.852C224.872 381.219 225.615 381.402 226.461 381.402C227.012 381.402 227.509 381.325 227.953 381.171C228.402 381.011 228.79 380.775 229.116 380.461C229.441 380.141 229.693 379.745 229.87 379.271L231.894 379.839C231.681 380.526 231.323 381.13 230.82 381.651C230.317 382.165 229.696 382.568 228.956 382.858C228.216 383.142 227.384 383.284 226.461 383.284ZM246.03 369.364L240.987 383H238.857L233.814 369.364H236.087L239.851 380.23H239.993L243.757 369.364H246.03ZM248.796 383V369.364H250.891V383H248.796ZM249.861 367.091C249.453 367.091 249.1 366.952 248.804 366.674C248.514 366.395 248.369 366.061 248.369 365.67C248.369 365.28 248.514 364.945 248.804 364.667C249.1 364.389 249.453 364.25 249.861 364.25C250.269 364.25 250.618 364.389 250.908 364.667C251.204 364.945 251.352 365.28 251.352 365.67C251.352 366.061 251.204 366.395 250.908 366.674C250.618 366.952 250.269 367.091 249.861 367.091ZM256.823 364.818V383H254.728V364.818H256.823ZM262.756 364.818V383H260.661V364.818H262.756ZM272.311 383.284C270.997 383.284 269.863 382.994 268.911 382.414C267.964 381.828 267.233 381.011 266.718 379.964C266.209 378.91 265.954 377.685 265.954 376.288C265.954 374.892 266.209 373.661 266.718 372.595C267.233 371.524 267.949 370.689 268.866 370.092C269.789 369.488 270.867 369.186 272.098 369.186C272.808 369.186 273.509 369.304 274.202 369.541C274.894 369.778 275.525 370.163 276.093 370.695C276.661 371.222 277.114 371.92 277.451 372.79C277.788 373.661 277.957 374.732 277.957 376.004V376.892H267.446V375.081H275.826C275.826 374.312 275.672 373.625 275.365 373.021C275.063 372.418 274.631 371.941 274.069 371.592C273.512 371.243 272.855 371.068 272.098 371.068C271.263 371.068 270.541 371.275 269.931 371.69C269.328 372.098 268.863 372.631 268.538 373.288C268.212 373.945 268.049 374.649 268.049 375.401V376.608C268.049 377.638 268.227 378.511 268.582 379.227C268.943 379.937 269.443 380.479 270.082 380.852C270.722 381.219 271.464 381.402 272.311 381.402C272.861 381.402 273.358 381.325 273.802 381.171C274.252 381.011 274.64 380.775 274.965 380.461C275.291 380.141 275.542 379.745 275.72 379.271L277.744 379.839C277.531 380.526 277.173 381.13 276.67 381.651C276.167 382.165 275.545 382.568 274.805 382.858C274.066 383.142 273.234 383.284 272.311 383.284Z" fill="black"/>
<path d="M358.403 507.818V526H356.202V507.818H358.403ZM367.683 526.284C366.547 526.284 365.543 525.997 364.673 525.423C363.803 524.843 363.123 524.026 362.631 522.973C362.14 521.913 361.895 520.661 361.895 519.217C361.895 517.785 362.14 516.542 362.631 515.489C363.123 514.435 363.806 513.621 364.682 513.047C365.558 512.473 366.57 512.186 367.718 512.186C368.606 512.186 369.308 512.334 369.823 512.63C370.343 512.92 370.74 513.251 371.012 513.624C371.29 513.991 371.506 514.293 371.66 514.53H371.838V507.818H373.933V526H371.909V523.905H371.66C371.506 524.153 371.287 524.467 371.003 524.846C370.719 525.219 370.314 525.553 369.787 525.849C369.26 526.139 368.559 526.284 367.683 526.284ZM367.967 524.402C368.807 524.402 369.518 524.183 370.098 523.745C370.678 523.301 371.119 522.689 371.421 521.907C371.722 521.12 371.873 520.212 371.873 519.182C371.873 518.164 371.725 517.273 371.429 516.51C371.133 515.74 370.696 515.142 370.116 514.716C369.535 514.284 368.819 514.068 367.967 514.068C367.079 514.068 366.339 514.296 365.748 514.752C365.162 515.202 364.721 515.814 364.425 516.589C364.135 517.359 363.99 518.223 363.99 519.182C363.99 520.152 364.138 521.034 364.434 521.827C364.736 522.615 365.179 523.242 365.765 523.71C366.357 524.171 367.091 524.402 367.967 524.402ZM382.074 526.32C381.21 526.32 380.426 526.157 379.721 525.831C379.017 525.5 378.458 525.023 378.043 524.402C377.629 523.775 377.422 523.017 377.422 522.129C377.422 521.348 377.576 520.715 377.884 520.229C378.191 519.738 378.603 519.353 379.118 519.075C379.633 518.797 380.201 518.59 380.822 518.454C381.45 518.312 382.08 518.199 382.713 518.116C383.542 518.01 384.214 517.93 384.728 517.877C385.249 517.818 385.628 517.72 385.865 517.584C386.107 517.448 386.229 517.211 386.229 516.874V516.803C386.229 515.927 385.989 515.246 385.51 514.761C385.036 514.275 384.317 514.033 383.352 514.033C382.352 514.033 381.568 514.252 381 514.69C380.432 515.128 380.032 515.595 379.801 516.092L377.813 515.382C378.168 514.554 378.641 513.908 379.233 513.447C379.831 512.979 380.482 512.654 381.186 512.47C381.896 512.281 382.595 512.186 383.281 512.186C383.719 512.186 384.222 512.239 384.791 512.346C385.365 512.446 385.918 512.657 386.451 512.976C386.989 513.296 387.436 513.778 387.791 514.423C388.146 515.068 388.324 515.933 388.324 517.016V526H386.229V524.153H386.122C385.98 524.449 385.743 524.766 385.412 525.103C385.081 525.441 384.64 525.728 384.089 525.964C383.539 526.201 382.867 526.32 382.074 526.32ZM382.394 524.438C383.222 524.438 383.921 524.275 384.489 523.949C385.063 523.624 385.495 523.203 385.785 522.689C386.081 522.174 386.229 521.632 386.229 521.064V519.146C386.14 519.253 385.945 519.35 385.643 519.439C385.347 519.522 385.004 519.596 384.613 519.661C384.228 519.72 383.852 519.774 383.486 519.821C383.124 519.862 382.832 519.898 382.607 519.928C382.062 519.999 381.553 520.114 381.08 520.274C380.612 520.428 380.233 520.661 379.943 520.975C379.659 521.283 379.517 521.703 379.517 522.236C379.517 522.964 379.786 523.514 380.325 523.887C380.87 524.254 381.559 524.438 382.394 524.438ZM394.243 517.797V526H392.148V507.818H394.243V514.494H394.421C394.74 513.79 395.22 513.231 395.859 512.816C396.504 512.396 397.362 512.186 398.434 512.186C399.363 512.186 400.177 512.373 400.875 512.745C401.573 513.112 402.115 513.678 402.5 514.441C402.89 515.199 403.086 516.163 403.086 517.335V526H400.99V517.477C400.99 516.394 400.709 515.557 400.147 514.965C399.591 514.367 398.818 514.068 397.83 514.068C397.143 514.068 396.528 514.213 395.983 514.503C395.445 514.793 395.019 515.216 394.705 515.773C394.397 516.329 394.243 517.004 394.243 517.797ZM412.458 526.284C411.227 526.284 410.147 525.991 409.218 525.405C408.295 524.819 407.573 524 407.052 522.946C406.537 521.893 406.279 520.661 406.279 519.253C406.279 517.832 406.537 516.592 407.052 515.533C407.573 514.474 408.295 513.651 409.218 513.065C410.147 512.479 411.227 512.186 412.458 512.186C413.689 512.186 414.767 512.479 415.69 513.065C416.619 513.651 417.341 514.474 417.856 515.533C418.377 516.592 418.637 517.832 418.637 519.253C418.637 520.661 418.377 521.893 417.856 522.946C417.341 524 416.619 524.819 415.69 525.405C414.767 525.991 413.689 526.284 412.458 526.284ZM412.458 524.402C413.393 524.402 414.163 524.162 414.767 523.683C415.37 523.203 415.817 522.573 416.107 521.792C416.397 521.011 416.542 520.164 416.542 519.253C416.542 518.341 416.397 517.492 416.107 516.705C415.817 515.918 415.37 515.281 414.767 514.796C414.163 514.311 413.393 514.068 412.458 514.068C411.523 514.068 410.754 514.311 410.15 514.796C409.546 515.281 409.1 515.918 408.81 516.705C408.52 517.492 408.375 518.341 408.375 519.253C408.375 520.164 408.52 521.011 408.81 521.792C409.1 522.573 409.546 523.203 410.15 523.683C410.754 524.162 411.523 524.402 412.458 524.402ZM434.939 512.364V514.139H427.588V512.364H434.939ZM429.79 526V510.482C429.79 509.7 429.974 509.049 430.341 508.528C430.708 508.008 431.184 507.617 431.77 507.357C432.356 507.096 432.974 506.966 433.625 506.966C434.14 506.966 434.56 507.007 434.886 507.09C435.212 507.173 435.454 507.25 435.614 507.321L435.01 509.132C434.904 509.097 434.756 509.052 434.566 508.999C434.383 508.946 434.14 508.919 433.838 508.919C433.146 508.919 432.646 509.094 432.338 509.443C432.036 509.792 431.885 510.304 431.885 510.979V526H429.79ZM441.498 526.32C440.634 526.32 439.849 526.157 439.145 525.831C438.441 525.5 437.882 525.023 437.467 524.402C437.053 523.775 436.846 523.017 436.846 522.129C436.846 521.348 437 520.715 437.307 520.229C437.615 519.738 438.027 519.353 438.541 519.075C439.056 518.797 439.625 518.59 440.246 518.454C440.873 518.312 441.504 518.199 442.137 518.116C442.966 518.01 443.637 517.93 444.152 517.877C444.673 517.818 445.052 517.72 445.289 517.584C445.531 517.448 445.653 517.211 445.653 516.874V516.803C445.653 515.927 445.413 515.246 444.934 514.761C444.46 514.275 443.741 514.033 442.776 514.033C441.776 514.033 440.992 514.252 440.424 514.69C439.855 515.128 439.456 515.595 439.225 516.092L437.236 515.382C437.592 514.554 438.065 513.908 438.657 513.447C439.255 512.979 439.906 512.654 440.61 512.47C441.32 512.281 442.019 512.186 442.705 512.186C443.143 512.186 443.646 512.239 444.214 512.346C444.789 512.446 445.342 512.657 445.875 512.976C446.413 513.296 446.86 513.778 447.215 514.423C447.57 515.068 447.748 515.933 447.748 517.016V526H445.653V524.153H445.546C445.404 524.449 445.167 524.766 444.836 525.103C444.504 525.441 444.063 525.728 443.513 525.964C442.963 526.201 442.291 526.32 441.498 526.32ZM441.817 524.438C442.646 524.438 443.344 524.275 443.913 523.949C444.487 523.624 444.919 523.203 445.209 522.689C445.505 522.174 445.653 521.632 445.653 521.064V519.146C445.564 519.253 445.369 519.35 445.067 519.439C444.771 519.522 444.427 519.596 444.037 519.661C443.652 519.72 443.276 519.774 442.909 519.821C442.548 519.862 442.255 519.898 442.03 519.928C441.486 519.999 440.977 520.114 440.503 520.274C440.036 520.428 439.657 520.661 439.367 520.975C439.083 521.283 438.941 521.703 438.941 522.236C438.941 522.964 439.21 523.514 439.749 523.887C440.293 524.254 440.983 524.438 441.817 524.438ZM453.667 507.818V526H451.572V507.818H453.667ZM459.6 507.818V526H457.505V507.818H459.6ZM473.096 515.418L471.214 515.95C471.096 515.637 470.921 515.332 470.69 515.036C470.465 514.734 470.158 514.485 469.767 514.29C469.376 514.095 468.876 513.997 468.267 513.997C467.432 513.997 466.737 514.19 466.18 514.574C465.63 514.953 465.355 515.435 465.355 516.021C465.355 516.542 465.544 516.953 465.923 517.255C466.302 517.557 466.894 517.809 467.699 518.01L469.723 518.507C470.942 518.803 471.85 519.256 472.448 519.865C473.046 520.469 473.345 521.247 473.345 522.2C473.345 522.982 473.12 523.68 472.67 524.295C472.226 524.911 471.605 525.396 470.806 525.751C470.007 526.107 469.078 526.284 468.018 526.284C466.627 526.284 465.476 525.982 464.565 525.379C463.653 524.775 463.076 523.893 462.833 522.733L464.822 522.236C465.011 522.97 465.37 523.52 465.896 523.887C466.429 524.254 467.124 524.438 467.983 524.438C468.959 524.438 469.734 524.23 470.309 523.816C470.889 523.396 471.179 522.893 471.179 522.307C471.179 521.833 471.013 521.437 470.681 521.117C470.35 520.792 469.841 520.549 469.154 520.389L466.882 519.857C465.633 519.561 464.716 519.102 464.13 518.48C463.55 517.853 463.26 517.069 463.26 516.128C463.26 515.358 463.476 514.678 463.908 514.086C464.346 513.494 464.94 513.029 465.692 512.692C466.45 512.355 467.308 512.186 468.267 512.186C469.616 512.186 470.676 512.482 471.445 513.074C472.22 513.666 472.771 514.447 473.096 515.418Z" fill="black"/>
<path d="M138.619 554.818V573H136.489L126.581 558.724H126.403V573H124.202V554.818H126.332L136.276 569.129H136.453V554.818H138.619ZM146.754 573.32C145.89 573.32 145.105 573.157 144.401 572.831C143.697 572.5 143.137 572.023 142.723 571.402C142.309 570.775 142.102 570.017 142.102 569.129C142.102 568.348 142.256 567.715 142.563 567.229C142.871 566.738 143.282 566.353 143.797 566.075C144.312 565.797 144.88 565.59 145.502 565.454C146.129 565.312 146.76 565.199 147.393 565.116C148.221 565.01 148.893 564.93 149.408 564.877C149.929 564.818 150.308 564.72 150.544 564.584C150.787 564.448 150.908 564.211 150.908 563.874V563.803C150.908 562.927 150.669 562.246 150.189 561.761C149.716 561.275 148.997 561.033 148.032 561.033C147.032 561.033 146.248 561.252 145.679 561.69C145.111 562.128 144.712 562.595 144.481 563.092L142.492 562.382C142.847 561.554 143.321 560.908 143.913 560.447C144.511 559.979 145.162 559.654 145.866 559.47C146.576 559.281 147.274 559.186 147.961 559.186C148.399 559.186 148.902 559.239 149.47 559.346C150.044 559.446 150.598 559.657 151.13 559.976C151.669 560.296 152.116 560.778 152.471 561.423C152.826 562.068 153.004 562.933 153.004 564.016V573H150.908V571.153H150.802C150.66 571.449 150.423 571.766 150.092 572.103C149.76 572.441 149.319 572.728 148.769 572.964C148.218 573.201 147.547 573.32 146.754 573.32ZM147.073 571.438C147.902 571.438 148.6 571.275 149.168 570.949C149.743 570.624 150.175 570.203 150.465 569.689C150.761 569.174 150.908 568.632 150.908 568.064V566.146C150.82 566.253 150.624 566.35 150.323 566.439C150.027 566.522 149.683 566.596 149.293 566.661C148.908 566.72 148.532 566.774 148.165 566.821C147.804 566.862 147.511 566.898 147.286 566.928C146.742 566.999 146.233 567.114 145.759 567.274C145.292 567.428 144.913 567.661 144.623 567.975C144.339 568.283 144.197 568.703 144.197 569.236C144.197 569.964 144.466 570.514 145.005 570.887C145.549 571.254 146.239 571.438 147.073 571.438ZM156.828 573V559.364H158.852V561.494H159.029C159.314 560.766 159.772 560.201 160.406 559.799C161.039 559.39 161.799 559.186 162.687 559.186C163.587 559.186 164.335 559.39 164.933 559.799C165.537 560.201 166.007 560.766 166.345 561.494H166.487C166.836 560.79 167.36 560.231 168.058 559.816C168.757 559.396 169.594 559.186 170.571 559.186C171.79 559.186 172.787 559.568 173.562 560.331C174.338 561.089 174.725 562.27 174.725 563.874V573H172.63V563.874C172.63 562.867 172.355 562.148 171.805 561.716C171.254 561.284 170.606 561.068 169.86 561.068C168.902 561.068 168.159 561.358 167.632 561.938C167.105 562.512 166.842 563.24 166.842 564.122V573H164.711V563.661C164.711 562.885 164.46 562.261 163.957 561.787C163.454 561.308 162.806 561.068 162.012 561.068C161.468 561.068 160.959 561.213 160.485 561.503C160.018 561.793 159.639 562.196 159.349 562.711C159.065 563.22 158.923 563.808 158.923 564.477V573H156.828ZM178.556 578.114V559.364H180.58V561.53H180.829C180.983 561.293 181.196 560.991 181.468 560.624C181.746 560.251 182.143 559.92 182.658 559.63C183.179 559.334 183.883 559.186 184.771 559.186C185.919 559.186 186.931 559.473 187.807 560.047C188.683 560.621 189.367 561.435 189.858 562.489C190.349 563.542 190.595 564.785 190.595 566.217C190.595 567.661 190.349 568.913 189.858 569.973C189.367 571.026 188.686 571.843 187.816 572.423C186.946 572.997 185.943 573.284 184.806 573.284C183.93 573.284 183.229 573.139 182.702 572.849C182.175 572.553 181.77 572.219 181.486 571.846C181.202 571.467 180.983 571.153 180.829 570.905H180.651V578.114H178.556ZM180.616 566.182C180.616 567.212 180.767 568.12 181.069 568.907C181.371 569.689 181.811 570.301 182.392 570.745C182.972 571.183 183.682 571.402 184.522 571.402C185.398 571.402 186.129 571.171 186.715 570.71C187.307 570.242 187.751 569.615 188.047 568.827C188.349 568.034 188.499 567.152 188.499 566.182C188.499 565.223 188.352 564.359 188.056 563.589C187.766 562.814 187.325 562.202 186.733 561.752C186.147 561.296 185.41 561.068 184.522 561.068C183.67 561.068 182.954 561.284 182.374 561.716C181.794 562.142 181.356 562.74 181.06 563.51C180.764 564.273 180.616 565.164 180.616 566.182ZM197.803 573.32C196.939 573.32 196.155 573.157 195.451 572.831C194.747 572.5 194.187 572.023 193.773 571.402C193.359 570.775 193.151 570.017 193.151 569.129C193.151 568.348 193.305 567.715 193.613 567.229C193.921 566.738 194.332 566.353 194.847 566.075C195.362 565.797 195.93 565.59 196.552 565.454C197.179 565.312 197.809 565.199 198.443 565.116C199.271 565.01 199.943 564.93 200.458 564.877C200.979 564.818 201.358 564.72 201.594 564.584C201.837 564.448 201.958 564.211 201.958 563.874V563.803C201.958 562.927 201.719 562.246 201.239 561.761C200.766 561.275 200.047 561.033 199.082 561.033C198.082 561.033 197.297 561.252 196.729 561.69C196.161 562.128 195.762 562.595 195.531 563.092L193.542 562.382C193.897 561.554 194.371 560.908 194.963 560.447C195.56 559.979 196.211 559.654 196.916 559.47C197.626 559.281 198.324 559.186 199.011 559.186C199.449 559.186 199.952 559.239 200.52 559.346C201.094 559.446 201.648 559.657 202.18 559.976C202.719 560.296 203.166 560.778 203.521 561.423C203.876 562.068 204.053 562.933 204.053 564.016V573H201.958V571.153H201.852C201.71 571.449 201.473 571.766 201.142 572.103C200.81 572.441 200.369 572.728 199.819 572.964C199.268 573.201 198.597 573.32 197.803 573.32ZM198.123 571.438C198.952 571.438 199.65 571.275 200.218 570.949C200.792 570.624 201.224 570.203 201.514 569.689C201.81 569.174 201.958 568.632 201.958 568.064V566.146C201.869 566.253 201.674 566.35 201.372 566.439C201.076 566.522 200.733 566.596 200.343 566.661C199.958 566.72 199.582 566.774 199.215 566.821C198.854 566.862 198.561 566.898 198.336 566.928C197.792 566.999 197.283 567.114 196.809 567.274C196.342 567.428 195.963 567.661 195.673 567.975C195.389 568.283 195.247 568.703 195.247 569.236C195.247 569.964 195.516 570.514 196.055 570.887C196.599 571.254 197.289 571.438 198.123 571.438Z" fill="black"/>
<circle cx="273.511" cy="627.511" r="9.01136" fill="#FFE587" stroke="black"/>
<circle cx="401.511" cy="596.511" r="9.01136" fill="#FFE587" stroke="black"/>
<circle cx="427.511" cy="544.511" r="9.01136" fill="#FFE587" stroke="black"/>
<circle cx="294.511" cy="454.511" r="9.01136" fill="#FFE587" stroke="black"/>
<circle cx="175.511" cy="335.511" r="9.01136" fill="#FFE587" stroke="black"/>
<circle cx="137.511" cy="535.511" r="9.01136" fill="#FFE587" stroke="black"/>
<defs>
<filter id="filter0_d_223_175" x="95.9238" y="42.5" width="398.576" height="641" filterUnits="userSpaceOnUse" color-interpolation-filters="sRGB">
<feFlood flood-opacity="0" result="BackgroundImageFix"/>
<feColorMatrix in="SourceAlpha" type="matrix" values="0 0 0 0 0 0 0 0 0 0 0 0 0 0 0 0 0 0 127 0" result="hardAlpha"/>
<feOffset dy="4"/>
<feGaussianBlur stdDeviation="2"/>
<feComposite in2="hardAlpha" operator="out"/>
<feColorMatrix type="matrix" values="0 0 0 0 0 0 0 0 0 0 0 0 0 0 0 0 0 0 0.25 0"/>
<feBlend mode="normal" in2="BackgroundImageFix" result="effect1_dropShadow_223_175"/>
<feBlend mode="normal" in="SourceGraphic" in2="effect1_dropShadow_223_175" result="shape"/>
</filter>
</defs>
</svg>
