<svg width="615" height="815" viewBox="0 0 615 815" fill="none" xmlns="http://www.w3.org/2000/svg">
<rect x="0.5" y="0.5" width="614" height="814" rx="35.5" fill="#97DCFF" stroke="#717171"/>
<path d="M413.722 730V712.545H416.884V720.565H417.097L423.906 712.545H427.767L421.017 720.378L427.827 730H424.026L418.818 722.517L416.884 724.801V730H413.722ZM428.771 712.545H432.342L436.612 720.267H436.782L441.052 712.545H444.623L438.273 723.489V730H435.12V723.489L428.771 712.545Z" fill="#005A5E"/>
<path d="M166.722 681.545H170.591L175.773 694.193H175.977L181.159 681.545H185.028V699H181.994V687.009H181.832L177.009 698.949H174.741L169.918 686.983H169.756V699H166.722V681.545ZM204.068 690.273C204.068 692.153 203.716 693.764 203.011 695.105C202.313 696.44 201.358 697.463 200.148 698.173C198.943 698.884 197.577 699.239 196.048 699.239C194.52 699.239 193.151 698.884 191.94 698.173C190.736 697.457 189.781 696.432 189.077 695.097C188.378 693.756 188.028 692.148 188.028 690.273C188.028 688.392 188.378 686.784 189.077 685.449C189.781 684.108 190.736 683.082 191.94 682.372C193.151 681.662 194.52 681.307 196.048 681.307C197.577 681.307 198.943 681.662 200.148 682.372C201.358 683.082 202.313 684.108 203.011 685.449C203.716 686.784 204.068 688.392 204.068 690.273ZM200.889 690.273C200.889 688.949 200.682 687.832 200.267 686.923C199.858 686.009 199.29 685.318 198.562 684.852C197.835 684.381 196.997 684.145 196.048 684.145C195.099 684.145 194.261 684.381 193.534 684.852C192.807 685.318 192.236 686.009 191.821 686.923C191.412 687.832 191.207 688.949 191.207 690.273C191.207 691.597 191.412 692.716 191.821 693.631C192.236 694.54 192.807 695.23 193.534 695.702C194.261 696.168 195.099 696.401 196.048 696.401C196.997 696.401 197.835 696.168 198.562 695.702C199.29 695.23 199.858 694.54 200.267 693.631C200.682 692.716 200.889 691.597 200.889 690.273Z" fill="#005A5E"/>
<path d="M58.8835 200.545V218H55.7216V200.545H58.8835ZM64.549 218H61.174L67.3189 200.545H71.2223L77.3757 218H74.0007L69.3388 204.125H69.2024L64.549 218ZM64.6598 211.156H73.8643V213.696H64.6598V211.156Z" fill="#005A5E"/>
<path d="M283.395 54L278.469 36.5455H281.869L285.014 49.3722H285.176L288.534 36.5455H291.628L294.994 49.3807H295.148L298.293 36.5455H301.693L296.767 54H293.648L290.153 41.7528H290.017L286.514 54H283.395ZM307.048 36.5455V54H303.886V36.5455H307.048Z" fill="#005A5E"/>
<g filter="url(#filter0_d_137_280)">
<path d="M416.5 79L156.5 77H153.5V80.5L158 83.5L167 91L174.5 98.5V106L178.5 113.5L189.5 119C191.667 120.5 196.4 123.8 198 125C199.6 126.2 198.667 128.833 198 130L200 139L198 151.5V163.5L188 170.5L184.5 176.5L182.5 183.5V190.5L178.5 193.5L170.5 199.5H164L159 202.5L153 207H144L134.5 209L127 212L122 213H118.5L116 221.5L113.5 228.5V233.5C114.5 236 116.9 241.1 118.5 241.5C120.1 241.9 121.5 243.667 122 244.5L127 252.5V261.5L126 272.5L116.5 281.5L113.5 286.5V295.5L110.5 304L107 308H97.5L93.5 310L86 314V317.5L88 323V335.5L86 338.5L80 343L77 350L75.5 366V376C76.8333 379.5 79.6 386.7 80 387.5L83 393.5L81.5 398V402L88 408.5V417.5L91.5 421L100 429L104.5 433L109.5 439.5L114.5 442.5C115.5 444.5 117.5 448.7 117.5 449.5C117.5 450.3 133.833 462.833 142 469L147.5 477C147.667 479 147.9 483.4 147.5 485C147 487 150 491.5 151 492.5C152 493.5 150 494 150 495C150 495.8 149.333 497 149 497.5V500.5C149.667 501.667 151 504.1 151 504.5C151 505 152 510 152 510.5C152 511 155 515.5 155.5 516.5C155.9 517.3 159 518.5 160.5 519L164 518L167.5 514.5C167.9 514.1 170.333 510.667 171.5 509H176.5L185.5 511.5L191 514.5C192.833 515.5 196.6 517.7 197 518.5C197.5 519.5 202 521.5 203 522C204 522.5 203.5 525.5 203 527C202.5 528.5 201 530 200.5 530.5C200.1 530.9 198.333 533.333 197.5 534.5L196.5 540L197 544V549.5L195.5 553C194 554.667 190.9 558.2 190.5 559C190.1 559.8 189.333 562.333 189 563.5L187 571L183.5 576.5L180 581.5L179 591.5L182.5 599L187.5 602C188.667 604 191.2 608.2 192 609C192.8 609.8 195.333 611.667 196.5 612.5L201 614L202.5 617L206.5 619L211.5 623.5L215 626.5L217.5 625L220.5 626.5L216.5 630.5L217.5 634C218 634.833 219.1 636.6 219.5 637C220 637.5 222 637.5 222.5 637.5C222.9 637.5 224.333 635.833 225 635L229 634L230 635L232.5 638.5L238 640.5L245 646.5V651.5L246.5 652L248.5 651.5C249.167 652.167 250.5 653.7 250.5 654.5C250.5 655.3 252.833 655.833 254 656C255 656.667 257.1 658.1 257.5 658.5C257.9 658.9 257.667 660 257.5 660.5C257.667 661 258.1 662.1 258.5 662.5C259 663 259 665 259 665.5C259 665.9 260.667 668 261.5 669L258 672L257.5 676L263 684C264 685.167 266 687.7 266 688.5C266 689.5 267 692 267 693C267 693.8 266.333 696.667 266 698L261.5 699.5L258.5 704.5L260 707.5L263 712C263.5 714 264.5 718.3 264.5 719.5C264.5 721 269 726.5 270.5 727.5C271.7 728.3 271 731.5 270.5 733C271 734.167 272.3 736.7 273.5 737.5C275 738.5 277 739 280 739C283 739 281.5 737.5 283 736.5C284.2 735.7 280.833 734.5 279 734L278 731H281.5C283.1 731 284.5 733.667 285 735C286.833 737.167 290.7 741.5 291.5 741.5C292.3 741.5 293.167 739.833 293.5 739L290.5 734V730L296.5 721.5L302.5 715L308 712L314 713L323.5 716L331.5 721.5C334.5 722.667 340.7 725.1 341.5 725.5C342.3 725.9 346.833 729 349 730.5C350.5 730.167 353.8 729.3 355 728.5C356.2 727.7 358.167 725.5 359 724.5C359.167 722.5 359.4 718 359 716C358.5 713.5 354 709 353.5 709C353.1 709 352 706.667 351.5 705.5L355 695.5L357.5 692L361 690C361.667 690.667 363.4 692 365 692C366.6 692 370.667 688.333 372.5 686.5C378 685.833 389.3 684.5 390.5 684.5C392 684.5 391.5 681 392.5 680.5C393.3 680.1 392.167 677.667 391.5 676.5C389.667 674.333 385.9 669.9 385.5 669.5C385.1 669.1 385 666.333 385 665L384 660.5L389 656C390.833 654.167 394.6 650.3 395 649.5C395.4 648.7 395.167 646.5 395 645.5L391.5 644.5L395 642C394.333 641 392.7 638.8 391.5 638C390 637 393.5 631.5 394.5 630.5C395.3 629.7 396.833 627.5 397.5 626.5V621.5C397.667 620.167 398.1 617.4 398.5 617C399 616.5 401.5 613.5 402 613C402.4 612.6 400.167 611.167 399 610.5L403.5 607L406.5 603L400 597.5V594L402 592L404 589C405 589.167 407.1 589.6 407.5 590C407.9 590.4 408.667 587.833 409 586.5C409.833 587.167 411.6 588.6 412 589C412.5 589.5 414.5 587 414.5 586.5C414.5 586.1 415.833 581.667 416.5 579.5L423 572L422 568L423 566.5L430 563C430.8 562.6 431 561.167 431 560.5L429 558C429.667 557.333 431.1 555.8 431.5 555C431.9 554.2 433.333 552.333 434 551.5V547.5L436 544.5C437 544 439.2 543 440 543C440.8 543 442 541.333 442.5 540.5L445 535V530.5C445 530.1 443 526.333 442 524.5L440 521L442.5 515L443 511V509.5L439.5 507L438 505L437.5 501V497.5L431.5 490.5L430.5 488L432.5 484.5L436 481L437.5 478L437 475L435 473L434.5 469L435.5 466.5L439 464L442 463.398V173L434.5 159.5V157.5V152.5L429.5 138L429 133.5L418.5 118L415.5 110L414 104.5V100L415.5 95L416.5 92V86.5V79Z" fill="#FFD597"/>
<path d="M416.5 79L156.5 77H153.5V80.5L158 83.5L167 91L174.5 98.5V106L178.5 113.5L189.5 119C191.667 120.5 196.4 123.8 198 125C199.6 126.2 198.667 128.833 198 130L200 139L198 151.5V163.5L188 170.5L184.5 176.5L182.5 183.5V190.5L178.5 193.5L170.5 199.5H164L159 202.5L153 207H144L134.5 209L127 212L122 213H118.5L116 221.5L113.5 228.5V233.5C114.5 236 116.9 241.1 118.5 241.5C120.1 241.9 121.5 243.667 122 244.5L127 252.5V261.5L126 272.5L116.5 281.5L113.5 286.5V295.5L110.5 304L107 308H97.5L93.5 310L86 314V317.5L88 323V335.5L86 338.5L80 343L77 350L75.5 366V376C76.8333 379.5 79.6 386.7 80 387.5L83 393.5L81.5 398V402L88 408.5V417.5L91.5 421L100 429L104.5 433L109.5 439.5L114.5 442.5C115.5 444.5 117.5 448.7 117.5 449.5C117.5 450.3 133.833 462.833 142 469L147.5 477C147.667 479 147.9 483.4 147.5 485C147 487 150 491.5 151 492.5C152 493.5 150 494 150 495C150 495.8 149.333 497 149 497.5V500.5C149.667 501.667 151 504.1 151 504.5C151 505 152 510 152 510.5C152 511 155 515.5 155.5 516.5C155.9 517.3 159 518.5 160.5 519L164 518L167.5 514.5C167.9 514.1 170.333 510.667 171.5 509H176.5L185.5 511.5L191 514.5C192.833 515.5 196.6 517.7 197 518.5C197.5 519.5 202 521.5 203 522C204 522.5 203.5 525.5 203 527C202.5 528.5 201 530 200.5 530.5C200.1 530.9 198.333 533.333 197.5 534.5L196.5 540L197 544V549.5L195.5 553C194 554.667 190.9 558.2 190.5 559C190.1 559.8 189.333 562.333 189 563.5L187 571L183.5 576.5L180 581.5L179 591.5L182.5 599L187.5 602C188.667 604 191.2 608.2 192 609C192.8 609.8 195.333 611.667 196.5 612.5L201 614L202.5 617L206.5 619L211.5 623.5L215 626.5L217.5 625L220.5 626.5L216.5 630.5L217.5 634C218 634.833 219.1 636.6 219.5 637C220 637.5 222 637.5 222.5 637.5C222.9 637.5 224.333 635.833 225 635L229 634L230 635L232.5 638.5L238 640.5L245 646.5V651.5L246.5 652L248.5 651.5C249.167 652.167 250.5 653.7 250.5 654.5C250.5 655.3 252.833 655.833 254 656C255 656.667 257.1 658.1 257.5 658.5C257.9 658.9 257.667 660 257.5 660.5C257.667 661 258.1 662.1 258.5 662.5C259 663 259 665 259 665.5C259 665.9 260.667 668 261.5 669L258 672L257.5 676L263 684C264 685.167 266 687.7 266 688.5C266 689.5 267 692 267 693C267 693.8 266.333 696.667 266 698L261.5 699.5L258.5 704.5L260 707.5L263 712C263.5 714 264.5 718.3 264.5 719.5C264.5 721 269 726.5 270.5 727.5C271.7 728.3 271 731.5 270.5 733C271 734.167 272.3 736.7 273.5 737.5C275 738.5 277 739 280 739C283 739 281.5 737.5 283 736.5C284.2 735.7 280.833 734.5 279 734L278 731H281.5C283.1 731 284.5 733.667 285 735C286.833 737.167 290.7 741.5 291.5 741.5C292.3 741.5 293.167 739.833 293.5 739L290.5 734V730L296.5 721.5L302.5 715L308 712L314 713L323.5 716L331.5 721.5C334.5 722.667 340.7 725.1 341.5 725.5C342.3 725.9 346.833 729 349 730.5C350.5 730.167 353.8 729.3 355 728.5C356.2 727.7 358.167 725.5 359 724.5C359.167 722.5 359.4 718 359 716C358.5 713.5 354 709 353.5 709C353.1 709 352 706.667 351.5 705.5L355 695.5L357.5 692L361 690C361.667 690.667 363.4 692 365 692C366.6 692 370.667 688.333 372.5 686.5C378 685.833 389.3 684.5 390.5 684.5C392 684.5 391.5 681 392.5 680.5C393.3 680.1 392.167 677.667 391.5 676.5C389.667 674.333 385.9 669.9 385.5 669.5C385.1 669.1 385 666.333 385 665L384 660.5L389 656C390.833 654.167 394.6 650.3 395 649.5C395.4 648.7 395.167 646.5 395 645.5L391.5 644.5L395 642C394.333 641 392.7 638.8 391.5 638C390 637 393.5 631.5 394.5 630.5C395.3 629.7 396.833 627.5 397.5 626.5V621.5C397.667 620.167 398.1 617.4 398.5 617C399 616.5 401.5 613.5 402 613C402.4 612.6 400.167 611.167 399 610.5L403.5 607L406.5 603L400 597.5V594L402 592L404 589C405 589.167 407.1 589.6 407.5 590C407.9 590.4 408.667 587.833 409 586.5C409.833 587.167 411.6 588.6 412 589C412.5 589.5 414.5 587 414.5 586.5C414.5 586.1 415.833 581.667 416.5 579.5L423 572L422 568L423 566.5L430 563C430.8 562.6 431 561.167 431 560.5L429 558C429.667 557.333 431.1 555.8 431.5 555C431.9 554.2 433.333 552.333 434 551.5V547.5L436 544.5C437 544 439.2 543 440 543C440.8 543 442 541.333 442.5 540.5L445 535V530.5C445 530.1 443 526.333 442 524.5L440 521L442.5 515L443 511V509.5L439.5 507L438 505L437.5 501V497.5L431.5 490.5L430.5 488L432.5 484.5L436 481L437.5 478L437 475L435 473L434.5 469L435.5 466.5L439 464L442 463.398V173L434.5 159.5V157.5V152.5L429.5 138L429 133.5L418.5 118L415.5 110L414 104.5V100L415.5 95L416.5 92V86.5V79Z" stroke="black"/>
</g>
<path d="M473.884 313.545V331H470.722V313.545H473.884ZM491.651 313.545V331H488.839L480.614 319.111H480.469V331H477.308V313.545H480.137L488.353 325.443H488.506V313.545H491.651Z" fill="#005A5E"/>
<circle cx="246.511" cy="407.511" r="9.01136" fill="#FF8F87" stroke="black"/>
<path d="M128.444 428.047C128.373 427.331 128.068 426.775 127.529 426.378C126.991 425.982 126.26 425.783 125.336 425.783C124.709 425.783 124.179 425.872 123.747 426.05C123.315 426.221 122.984 426.461 122.753 426.769C122.528 427.077 122.415 427.426 122.415 427.816C122.404 428.142 122.472 428.426 122.62 428.669C122.774 428.911 122.984 429.121 123.25 429.299C123.516 429.471 123.824 429.622 124.173 429.752C124.522 429.876 124.895 429.983 125.292 430.071L126.925 430.462C127.719 430.64 128.446 430.876 129.109 431.172C129.772 431.468 130.346 431.832 130.832 432.264C131.317 432.696 131.693 433.205 131.959 433.791C132.231 434.377 132.371 435.049 132.376 435.806C132.371 436.919 132.086 437.884 131.524 438.701C130.968 439.511 130.163 440.142 129.109 440.592C128.062 441.036 126.798 441.257 125.319 441.257C123.851 441.257 122.572 441.033 121.483 440.583C120.4 440.133 119.554 439.467 118.944 438.585C118.341 437.697 118.024 436.6 117.994 435.292H121.714C121.756 435.901 121.93 436.41 122.238 436.819C122.552 437.221 122.969 437.526 123.49 437.733C124.016 437.934 124.611 438.035 125.274 438.035C125.925 438.035 126.49 437.94 126.97 437.751C127.455 437.561 127.831 437.298 128.097 436.961C128.364 436.623 128.497 436.236 128.497 435.798C128.497 435.389 128.375 435.046 128.133 434.768C127.896 434.49 127.547 434.253 127.085 434.058C126.629 433.862 126.07 433.685 125.407 433.525L123.428 433.028C121.895 432.655 120.684 432.072 119.797 431.279C118.909 430.486 118.468 429.417 118.474 428.074C118.468 426.973 118.761 426.011 119.353 425.189C119.95 424.366 120.77 423.724 121.812 423.262C122.853 422.8 124.037 422.57 125.363 422.57C126.712 422.57 127.89 422.8 128.896 423.262C129.908 423.724 130.696 424.366 131.258 425.189C131.82 426.011 132.11 426.964 132.128 428.047H128.444ZM134.891 446.114V427.364H138.62V429.654H138.788C138.954 429.287 139.194 428.914 139.508 428.536C139.827 428.151 140.241 427.831 140.75 427.577C141.265 427.316 141.905 427.186 142.668 427.186C143.662 427.186 144.58 427.446 145.42 427.967C146.261 428.482 146.932 429.261 147.435 430.302C147.939 431.338 148.19 432.637 148.19 434.2C148.19 435.721 147.944 437.005 147.453 438.053C146.968 439.094 146.305 439.884 145.465 440.423C144.63 440.956 143.695 441.222 142.659 441.222C141.925 441.222 141.301 441.101 140.786 440.858C140.277 440.615 139.86 440.31 139.534 439.944C139.209 439.571 138.96 439.195 138.788 438.816H138.673V446.114H134.891ZM138.593 434.182C138.593 434.993 138.706 435.7 138.93 436.304C139.155 436.907 139.481 437.378 139.907 437.715C140.333 438.047 140.851 438.212 141.461 438.212C142.076 438.212 142.597 438.044 143.023 437.706C143.449 437.363 143.772 436.89 143.991 436.286C144.216 435.676 144.328 434.975 144.328 434.182C144.328 433.395 144.219 432.702 144 432.104C143.781 431.507 143.458 431.039 143.032 430.702C142.606 430.364 142.082 430.196 141.461 430.196C140.845 430.196 140.324 430.358 139.898 430.684C139.478 431.009 139.155 431.471 138.93 432.069C138.706 432.667 138.593 433.371 138.593 434.182ZM150.711 441V427.364H154.378V429.743H154.52C154.769 428.897 155.186 428.257 155.772 427.825C156.358 427.387 157.032 427.168 157.796 427.168C157.985 427.168 158.189 427.18 158.408 427.204C158.627 427.228 158.82 427.26 158.986 427.301V430.657C158.808 430.604 158.562 430.557 158.249 430.515C157.935 430.474 157.648 430.453 157.388 430.453C156.831 430.453 156.334 430.574 155.896 430.817C155.464 431.054 155.121 431.385 154.866 431.811C154.618 432.238 154.493 432.729 154.493 433.285V441H150.711ZM160.941 441V427.364H164.723V441H160.941ZM162.841 425.606C162.278 425.606 161.796 425.419 161.394 425.047C160.997 424.668 160.799 424.215 160.799 423.688C160.799 423.167 160.997 422.721 161.394 422.348C161.796 421.969 162.278 421.779 162.841 421.779C163.403 421.779 163.882 421.969 164.279 422.348C164.681 422.721 164.883 423.167 164.883 423.688C164.883 424.215 164.681 424.668 164.279 425.047C163.882 425.419 163.403 425.606 162.841 425.606ZM171.534 433.116V441H167.752V427.364H171.357V429.77H171.517C171.818 428.976 172.324 428.349 173.035 427.887C173.745 427.42 174.606 427.186 175.618 427.186C176.565 427.186 177.391 427.393 178.095 427.808C178.799 428.222 179.347 428.814 179.737 429.583C180.128 430.347 180.323 431.258 180.323 432.317V441H176.541V432.992C176.547 432.158 176.334 431.507 175.902 431.039C175.47 430.566 174.875 430.329 174.118 430.329C173.609 430.329 173.159 430.438 172.768 430.657C172.384 430.876 172.082 431.196 171.863 431.616C171.65 432.03 171.54 432.531 171.534 433.116ZM189.448 446.398C188.222 446.398 187.172 446.229 186.296 445.892C185.426 445.56 184.733 445.107 184.219 444.533C183.704 443.959 183.369 443.314 183.215 442.598L186.713 442.127C186.82 442.4 186.988 442.654 187.219 442.891C187.45 443.128 187.755 443.317 188.134 443.459C188.518 443.607 188.986 443.681 189.536 443.681C190.359 443.681 191.037 443.48 191.569 443.077C192.108 442.681 192.377 442.015 192.377 441.08V438.585H192.218C192.052 438.964 191.803 439.322 191.472 439.659C191.14 439.997 190.714 440.272 190.193 440.485C189.673 440.698 189.051 440.805 188.329 440.805C187.305 440.805 186.373 440.568 185.532 440.094C184.698 439.615 184.032 438.884 183.535 437.902C183.044 436.913 182.798 435.664 182.798 434.155C182.798 432.61 183.05 431.32 183.553 430.284C184.056 429.249 184.725 428.473 185.559 427.958C186.4 427.444 187.32 427.186 188.32 427.186C189.084 427.186 189.723 427.316 190.238 427.577C190.753 427.831 191.167 428.151 191.481 428.536C191.8 428.914 192.046 429.287 192.218 429.654H192.36V427.364H196.115V441.133C196.115 442.293 195.831 443.264 195.263 444.045C194.694 444.826 193.907 445.412 192.901 445.803C191.901 446.199 190.75 446.398 189.448 446.398ZM189.528 437.964C190.137 437.964 190.652 437.813 191.072 437.511C191.498 437.203 191.824 436.765 192.049 436.197C192.28 435.623 192.395 434.936 192.395 434.137C192.395 433.338 192.283 432.646 192.058 432.06C191.833 431.468 191.507 431.009 191.081 430.684C190.655 430.358 190.137 430.196 189.528 430.196C188.906 430.196 188.382 430.364 187.956 430.702C187.53 431.033 187.207 431.495 186.988 432.087C186.769 432.679 186.66 433.362 186.66 434.137C186.66 434.925 186.769 435.605 186.988 436.179C187.213 436.748 187.536 437.188 187.956 437.502C188.382 437.81 188.906 437.964 189.528 437.964ZM206.458 427.364V430.205H198.041V427.364H206.458ZM199.968 441V426.378C199.968 425.39 200.16 424.57 200.545 423.919C200.936 423.268 201.468 422.78 202.143 422.454C202.818 422.129 203.584 421.966 204.442 421.966C205.022 421.966 205.552 422.01 206.031 422.099C206.517 422.188 206.878 422.268 207.115 422.339L206.44 425.18C206.292 425.132 206.108 425.088 205.889 425.047C205.676 425.005 205.457 424.984 205.232 424.984C204.676 424.984 204.288 425.115 204.069 425.375C203.85 425.629 203.741 425.988 203.741 426.449V441H199.968ZM208.768 441V427.364H212.55V441H208.768ZM210.668 425.606C210.106 425.606 209.623 425.419 209.221 425.047C208.824 424.668 208.626 424.215 208.626 423.688C208.626 423.167 208.824 422.721 209.221 422.348C209.623 421.969 210.106 421.779 210.668 421.779C211.23 421.779 211.71 421.969 212.106 422.348C212.509 422.721 212.71 423.167 212.71 423.688C212.71 424.215 212.509 424.668 212.106 425.047C211.71 425.419 211.23 425.606 210.668 425.606ZM221.794 441.266C220.391 441.266 219.184 440.982 218.172 440.414C217.166 439.84 216.39 439.029 215.846 437.982C215.301 436.928 215.029 435.682 215.029 434.244C215.029 432.841 215.301 431.61 215.846 430.551C216.39 429.491 217.157 428.666 218.145 428.074C219.14 427.482 220.306 427.186 221.643 427.186C222.543 427.186 223.38 427.331 224.156 427.621C224.937 427.905 225.617 428.334 226.197 428.908C226.783 429.482 227.239 430.205 227.565 431.075C227.89 431.939 228.053 432.951 228.053 434.111V435.15H216.538V432.806H224.493C224.493 432.261 224.375 431.779 224.138 431.359C223.901 430.938 223.573 430.61 223.152 430.373C222.738 430.131 222.256 430.009 221.705 430.009C221.131 430.009 220.622 430.142 220.178 430.409C219.74 430.669 219.397 431.021 219.148 431.465C218.9 431.903 218.773 432.391 218.767 432.93V435.158C218.767 435.833 218.891 436.416 219.14 436.907C219.394 437.399 219.752 437.777 220.214 438.044C220.675 438.31 221.223 438.443 221.856 438.443C222.276 438.443 222.661 438.384 223.01 438.266C223.359 438.147 223.658 437.97 223.907 437.733C224.156 437.496 224.345 437.206 224.475 436.863L227.973 437.094C227.795 437.934 227.431 438.668 226.881 439.295C226.337 439.917 225.632 440.402 224.768 440.751C223.91 441.095 222.919 441.266 221.794 441.266ZM234.303 422.818V441H230.521V422.818H234.303ZM242.357 441.222C241.322 441.222 240.383 440.956 239.543 440.423C238.709 439.884 238.046 439.094 237.554 438.053C237.069 437.005 236.826 435.721 236.826 434.2C236.826 432.637 237.078 431.338 237.581 430.302C238.084 429.261 238.753 428.482 239.587 427.967C240.428 427.446 241.348 427.186 242.348 427.186C243.112 427.186 243.748 427.316 244.257 427.577C244.772 427.831 245.186 428.151 245.5 428.536C245.82 428.914 246.062 429.287 246.228 429.654H246.343V422.818H250.117V441H246.388V438.816H246.228C246.051 439.195 245.799 439.571 245.473 439.944C245.154 440.31 244.737 440.615 244.222 440.858C243.713 441.101 243.091 441.222 242.357 441.222ZM243.556 438.212C244.165 438.212 244.68 438.047 245.101 437.715C245.527 437.378 245.852 436.907 246.077 436.304C246.308 435.7 246.423 434.993 246.423 434.182C246.423 433.371 246.311 432.667 246.086 432.069C245.861 431.471 245.536 431.009 245.109 430.684C244.683 430.358 244.165 430.196 243.556 430.196C242.934 430.196 242.411 430.364 241.984 430.702C241.558 431.039 241.236 431.507 241.017 432.104C240.798 432.702 240.688 433.395 240.688 434.182C240.688 434.975 240.798 435.676 241.017 436.286C241.242 436.89 241.564 437.363 241.984 437.706C242.411 438.044 242.934 438.212 243.556 438.212Z" fill="black"/>
<path d="M457.832 153.5H455.631C455.5 152.867 455.273 152.31 454.947 151.831C454.627 151.352 454.237 150.949 453.775 150.624C453.319 150.292 452.813 150.044 452.257 149.878C451.701 149.712 451.121 149.629 450.517 149.629C449.416 149.629 448.419 149.907 447.525 150.464C446.637 151.02 445.93 151.84 445.403 152.923C444.883 154.006 444.622 155.335 444.622 156.909C444.622 158.483 444.883 159.812 445.403 160.895C445.93 161.978 446.637 162.798 447.525 163.354C448.419 163.911 449.416 164.189 450.517 164.189C451.121 164.189 451.701 164.106 452.257 163.94C452.813 163.775 453.319 163.529 453.775 163.203C454.237 162.872 454.627 162.467 454.947 161.987C455.273 161.502 455.5 160.946 455.631 160.318H457.832C457.667 161.247 457.365 162.079 456.927 162.813C456.489 163.547 455.944 164.171 455.293 164.686C454.642 165.195 453.911 165.583 453.1 165.849C452.296 166.115 451.434 166.249 450.517 166.249C448.966 166.249 447.587 165.87 446.38 165.112C445.173 164.355 444.223 163.277 443.53 161.881C442.838 160.484 442.491 158.827 442.491 156.909C442.491 154.991 442.838 153.334 443.53 151.938C444.223 150.541 445.173 149.464 446.38 148.706C447.587 147.948 448.966 147.57 450.517 147.57C451.434 147.57 452.296 147.703 453.1 147.969C453.911 148.235 454.642 148.626 455.293 149.141C455.944 149.65 456.489 150.271 456.927 151.005C457.365 151.733 457.667 152.565 457.832 153.5ZM463.201 157.797V166H461.106V147.818H463.201V154.494H463.379C463.698 153.79 464.178 153.231 464.817 152.816C465.462 152.396 466.32 152.186 467.392 152.186C468.321 152.186 469.135 152.373 469.833 152.745C470.531 153.112 471.073 153.678 471.458 154.441C471.848 155.199 472.044 156.163 472.044 157.335V166H469.948V157.477C469.948 156.394 469.667 155.557 469.105 154.965C468.549 154.367 467.776 154.068 466.788 154.068C466.101 154.068 465.486 154.213 464.941 154.503C464.403 154.793 463.977 155.216 463.663 155.773C463.355 156.329 463.201 157.004 463.201 157.797ZM475.877 166V152.364H477.972V166H475.877ZM476.942 150.091C476.534 150.091 476.181 149.952 475.885 149.674C475.595 149.395 475.45 149.061 475.45 148.67C475.45 148.28 475.595 147.945 475.885 147.667C476.181 147.389 476.534 147.25 476.942 147.25C477.35 147.25 477.7 147.389 477.99 147.667C478.285 147.945 478.433 148.28 478.433 148.67C478.433 149.061 478.285 149.395 477.99 149.674C477.7 149.952 477.35 150.091 476.942 150.091ZM487.349 166.284C486.071 166.284 484.97 165.982 484.046 165.379C483.123 164.775 482.413 163.943 481.916 162.884C481.419 161.824 481.17 160.614 481.17 159.253C481.17 157.868 481.425 156.646 481.934 155.586C482.448 154.521 483.165 153.689 484.082 153.092C485.005 152.488 486.082 152.186 487.313 152.186C488.272 152.186 489.136 152.364 489.906 152.719C490.675 153.074 491.306 153.571 491.797 154.21C492.288 154.849 492.593 155.595 492.711 156.447H490.616C490.456 155.826 490.101 155.276 489.551 154.796C489.006 154.311 488.272 154.068 487.349 154.068C486.532 154.068 485.816 154.281 485.201 154.707C484.591 155.128 484.114 155.722 483.771 156.492C483.434 157.255 483.265 158.152 483.265 159.182C483.265 160.235 483.431 161.153 483.762 161.934C484.1 162.715 484.573 163.322 485.183 163.754C485.798 164.186 486.52 164.402 487.349 164.402C487.893 164.402 488.388 164.307 488.832 164.118C489.275 163.929 489.651 163.656 489.959 163.301C490.267 162.946 490.486 162.52 490.616 162.023H492.711C492.593 162.828 492.3 163.553 491.832 164.198C491.371 164.837 490.758 165.346 489.995 165.725C489.237 166.098 488.355 166.284 487.349 166.284ZM499.787 166.32C498.923 166.32 498.139 166.157 497.434 165.831C496.73 165.5 496.171 165.023 495.756 164.402C495.342 163.775 495.135 163.017 495.135 162.129C495.135 161.348 495.289 160.715 495.597 160.229C495.904 159.738 496.316 159.353 496.831 159.075C497.345 158.797 497.914 158.59 498.535 158.454C499.162 158.312 499.793 158.199 500.426 158.116C501.255 158.01 501.926 157.93 502.441 157.877C502.962 157.818 503.341 157.72 503.578 157.584C503.82 157.448 503.942 157.211 503.942 156.874V156.803C503.942 155.927 503.702 155.246 503.223 154.761C502.749 154.275 502.03 154.033 501.065 154.033C500.065 154.033 499.281 154.252 498.713 154.69C498.144 155.128 497.745 155.595 497.514 156.092L495.525 155.382C495.881 154.554 496.354 153.908 496.946 153.447C497.544 152.979 498.195 152.654 498.899 152.47C499.609 152.281 500.308 152.186 500.994 152.186C501.432 152.186 501.935 152.239 502.503 152.346C503.078 152.446 503.631 152.657 504.164 152.976C504.702 153.296 505.149 153.778 505.504 154.423C505.859 155.068 506.037 155.933 506.037 157.016V166H503.942V164.153H503.835C503.693 164.449 503.456 164.766 503.125 165.103C502.793 165.441 502.353 165.728 501.802 165.964C501.252 166.201 500.58 166.32 499.787 166.32ZM500.106 164.438C500.935 164.438 501.633 164.275 502.202 163.949C502.776 163.624 503.208 163.203 503.498 162.689C503.794 162.174 503.942 161.632 503.942 161.064V159.146C503.853 159.253 503.658 159.35 503.356 159.439C503.06 159.522 502.717 159.596 502.326 159.661C501.941 159.72 501.565 159.774 501.198 159.821C500.837 159.862 500.544 159.898 500.32 159.928C499.775 159.999 499.266 160.114 498.793 160.274C498.325 160.428 497.946 160.661 497.656 160.975C497.372 161.283 497.23 161.703 497.23 162.236C497.23 162.964 497.499 163.514 498.038 163.887C498.582 164.254 499.272 164.438 500.106 164.438ZM515.365 171.398C514.353 171.398 513.483 171.268 512.755 171.007C512.027 170.753 511.421 170.415 510.935 169.995C510.456 169.581 510.074 169.137 509.79 168.663L511.459 167.491C511.648 167.74 511.888 168.024 512.178 168.344C512.468 168.669 512.865 168.95 513.368 169.187C513.877 169.43 514.543 169.551 515.365 169.551C516.466 169.551 517.375 169.285 518.091 168.752C518.807 168.219 519.165 167.385 519.165 166.249V163.479H518.987C518.834 163.727 518.615 164.035 518.33 164.402C518.052 164.763 517.65 165.086 517.123 165.37C516.602 165.648 515.898 165.787 515.01 165.787C513.909 165.787 512.921 165.527 512.045 165.006C511.175 164.485 510.485 163.727 509.976 162.733C509.473 161.739 509.222 160.531 509.222 159.111C509.222 157.714 509.467 156.498 509.959 155.462C510.45 154.42 511.133 153.615 512.009 153.047C512.885 152.473 513.897 152.186 515.046 152.186C515.933 152.186 516.638 152.334 517.159 152.63C517.685 152.92 518.088 153.251 518.366 153.624C518.65 153.991 518.869 154.293 519.023 154.53H519.236V152.364H521.26V166.391C521.26 167.562 520.994 168.515 520.461 169.249C519.934 169.989 519.224 170.531 518.33 170.874C517.443 171.223 516.454 171.398 515.365 171.398ZM515.294 163.905C516.135 163.905 516.845 163.712 517.425 163.328C518.005 162.943 518.446 162.39 518.748 161.668C519.05 160.946 519.2 160.081 519.2 159.075C519.2 158.093 519.052 157.226 518.757 156.474C518.461 155.722 518.023 155.134 517.443 154.707C516.863 154.281 516.146 154.068 515.294 154.068C514.406 154.068 513.667 154.293 513.075 154.743C512.489 155.193 512.048 155.796 511.752 156.554C511.462 157.312 511.317 158.152 511.317 159.075C511.317 160.022 511.465 160.86 511.761 161.588C512.063 162.31 512.507 162.878 513.093 163.292C513.684 163.701 514.418 163.905 515.294 163.905ZM530.635 166.284C529.404 166.284 528.324 165.991 527.395 165.405C526.471 164.819 525.749 164 525.229 162.946C524.714 161.893 524.456 160.661 524.456 159.253C524.456 157.832 524.714 156.592 525.229 155.533C525.749 154.474 526.471 153.651 527.395 153.065C528.324 152.479 529.404 152.186 530.635 152.186C531.866 152.186 532.943 152.479 533.867 153.065C534.796 153.651 535.518 154.474 536.033 155.533C536.554 156.592 536.814 157.832 536.814 159.253C536.814 160.661 536.554 161.893 536.033 162.946C535.518 164 534.796 164.819 533.867 165.405C532.943 165.991 531.866 166.284 530.635 166.284ZM530.635 164.402C531.57 164.402 532.34 164.162 532.943 163.683C533.547 163.203 533.994 162.573 534.284 161.792C534.574 161.011 534.719 160.164 534.719 159.253C534.719 158.341 534.574 157.492 534.284 156.705C533.994 155.918 533.547 155.281 532.943 154.796C532.34 154.311 531.57 154.068 530.635 154.068C529.7 154.068 528.931 154.311 528.327 154.796C527.723 155.281 527.276 155.918 526.986 156.705C526.696 157.492 526.551 158.341 526.551 159.253C526.551 160.164 526.696 161.011 526.986 161.792C527.276 162.573 527.723 163.203 528.327 163.683C528.931 164.162 529.7 164.402 530.635 164.402Z" fill="black"/>
<path d="M243.202 139V120.818H249.345C250.766 120.818 251.932 121.061 252.843 121.546C253.754 122.026 254.429 122.685 254.867 123.526C255.305 124.366 255.524 125.322 255.524 126.393C255.524 127.465 255.305 128.415 254.867 129.243C254.429 130.072 253.757 130.723 252.852 131.196C251.946 131.664 250.789 131.898 249.381 131.898H244.409V129.909H249.31C250.28 129.909 251.062 129.767 251.653 129.483C252.251 129.199 252.683 128.796 252.95 128.276C253.222 127.749 253.358 127.121 253.358 126.393C253.358 125.665 253.222 125.029 252.95 124.485C252.677 123.94 252.242 123.52 251.645 123.224C251.047 122.922 250.257 122.771 249.274 122.771H245.403V139H243.202ZM251.76 130.832L256.234 139H253.678L249.274 130.832H251.76ZM264.302 139.284C263.071 139.284 261.991 138.991 261.062 138.405C260.138 137.819 259.416 137 258.896 135.946C258.381 134.893 258.123 133.661 258.123 132.253C258.123 130.832 258.381 129.592 258.896 128.533C259.416 127.474 260.138 126.651 261.062 126.065C261.991 125.479 263.071 125.186 264.302 125.186C265.533 125.186 266.61 125.479 267.534 126.065C268.463 126.651 269.185 127.474 269.7 128.533C270.221 129.592 270.481 130.832 270.481 132.253C270.481 133.661 270.221 134.893 269.7 135.946C269.185 137 268.463 137.819 267.534 138.405C266.61 138.991 265.533 139.284 264.302 139.284ZM264.302 137.402C265.237 137.402 266.007 137.162 266.61 136.683C267.214 136.203 267.661 135.573 267.951 134.792C268.241 134.011 268.386 133.164 268.386 132.253C268.386 131.341 268.241 130.492 267.951 129.705C267.661 128.918 267.214 128.281 266.61 127.796C266.007 127.311 265.237 127.068 264.302 127.068C263.367 127.068 262.598 127.311 261.994 127.796C261.39 128.281 260.943 128.918 260.653 129.705C260.363 130.492 260.218 131.341 260.218 132.253C260.218 133.164 260.363 134.011 260.653 134.792C260.943 135.573 261.39 136.203 261.994 136.683C262.598 137.162 263.367 137.402 264.302 137.402ZM279.219 139.284C277.941 139.284 276.84 138.982 275.917 138.379C274.993 137.775 274.283 136.943 273.786 135.884C273.289 134.824 273.04 133.614 273.04 132.253C273.04 130.868 273.295 129.646 273.804 128.586C274.319 127.521 275.035 126.689 275.952 126.092C276.875 125.488 277.953 125.186 279.184 125.186C280.142 125.186 281.007 125.364 281.776 125.719C282.545 126.074 283.176 126.571 283.667 127.21C284.158 127.849 284.463 128.595 284.581 129.447H282.486C282.326 128.826 281.971 128.276 281.421 127.796C280.876 127.311 280.142 127.068 279.219 127.068C278.402 127.068 277.686 127.281 277.071 127.707C276.461 128.128 275.985 128.722 275.641 129.492C275.304 130.255 275.135 131.152 275.135 132.182C275.135 133.235 275.301 134.153 275.632 134.934C275.97 135.715 276.443 136.322 277.053 136.754C277.668 137.186 278.391 137.402 279.219 137.402C279.764 137.402 280.258 137.307 280.702 137.118C281.146 136.929 281.521 136.656 281.829 136.301C282.137 135.946 282.356 135.52 282.486 135.023H284.581C284.463 135.828 284.17 136.553 283.702 137.198C283.241 137.837 282.628 138.346 281.865 138.725C281.107 139.098 280.225 139.284 279.219 139.284ZM289.597 134.028L289.562 131.436H289.988L295.954 125.364H298.546L292.19 131.791H292.012L289.597 134.028ZM287.644 139V120.818H289.739V139H287.644ZM296.309 139L290.982 132.253L292.474 130.797L298.972 139H296.309ZM307.315 125.364V127.139H299.964V125.364H307.315ZM302.166 139V123.482C302.166 122.7 302.35 122.049 302.717 121.528C303.083 121.008 303.56 120.617 304.146 120.357C304.732 120.096 305.35 119.966 306.001 119.966C306.516 119.966 306.936 120.007 307.262 120.09C307.588 120.173 307.83 120.25 307.99 120.321L307.386 122.132C307.28 122.097 307.132 122.052 306.942 121.999C306.759 121.946 306.516 121.919 306.214 121.919C305.522 121.919 305.022 122.094 304.714 122.443C304.412 122.792 304.261 123.304 304.261 123.979V139H302.166ZM315.23 139.284C313.999 139.284 312.919 138.991 311.989 138.405C311.066 137.819 310.344 137 309.823 135.946C309.308 134.893 309.051 133.661 309.051 132.253C309.051 130.832 309.308 129.592 309.823 128.533C310.344 127.474 311.066 126.651 311.989 126.065C312.919 125.479 313.999 125.186 315.23 125.186C316.461 125.186 317.538 125.479 318.461 126.065C319.391 126.651 320.113 127.474 320.628 128.533C321.148 129.592 321.409 130.832 321.409 132.253C321.409 133.661 321.148 134.893 320.628 135.946C320.113 137 319.391 137.819 318.461 138.405C317.538 138.991 316.461 139.284 315.23 139.284ZM315.23 137.402C316.165 137.402 316.934 137.162 317.538 136.683C318.142 136.203 318.589 135.573 318.879 134.792C319.169 134.011 319.314 133.164 319.314 132.253C319.314 131.341 319.169 130.492 318.879 129.705C318.589 128.918 318.142 128.281 317.538 127.796C316.934 127.311 316.165 127.068 315.23 127.068C314.295 127.068 313.525 127.311 312.922 127.796C312.318 128.281 311.871 128.918 311.581 129.705C311.291 130.492 311.146 131.341 311.146 132.253C311.146 133.164 311.291 134.011 311.581 134.792C311.871 135.573 312.318 136.203 312.922 136.683C313.525 137.162 314.295 137.402 315.23 137.402ZM324.607 139V125.364H326.631V127.423H326.773C327.022 126.749 327.472 126.201 328.123 125.781C328.774 125.361 329.508 125.151 330.324 125.151C330.478 125.151 330.671 125.154 330.901 125.159C331.132 125.165 331.307 125.174 331.425 125.186V127.317C331.354 127.299 331.191 127.272 330.937 127.237C330.688 127.195 330.425 127.175 330.147 127.175C329.484 127.175 328.892 127.314 328.371 127.592C327.856 127.864 327.448 128.243 327.146 128.728C326.85 129.208 326.702 129.755 326.702 130.371V139H324.607ZM338.643 139.284C337.507 139.284 336.503 138.997 335.633 138.423C334.763 137.843 334.083 137.026 333.591 135.973C333.1 134.913 332.855 133.661 332.855 132.217C332.855 130.785 333.1 129.542 333.591 128.489C334.083 127.435 334.766 126.621 335.642 126.047C336.518 125.473 337.53 125.186 338.678 125.186C339.566 125.186 340.268 125.334 340.782 125.63C341.303 125.92 341.7 126.251 341.972 126.624C342.25 126.991 342.466 127.293 342.62 127.53H342.798V120.818H344.893V139H342.869V136.905H342.62C342.466 137.153 342.247 137.467 341.963 137.846C341.679 138.219 341.274 138.553 340.747 138.849C340.22 139.139 339.519 139.284 338.643 139.284ZM338.927 137.402C339.767 137.402 340.478 137.183 341.058 136.745C341.638 136.301 342.079 135.689 342.381 134.907C342.682 134.12 342.833 133.212 342.833 132.182C342.833 131.164 342.685 130.273 342.389 129.51C342.093 128.74 341.655 128.142 341.075 127.716C340.495 127.284 339.779 127.068 338.927 127.068C338.039 127.068 337.299 127.296 336.708 127.752C336.122 128.202 335.681 128.814 335.385 129.589C335.095 130.359 334.95 131.223 334.95 132.182C334.95 133.152 335.098 134.034 335.394 134.827C335.695 135.615 336.139 136.242 336.725 136.71C337.317 137.171 338.051 137.402 338.927 137.402Z" fill="black"/>
<path d="M280.947 165H278.639L285.315 146.818H287.588L294.264 165H291.956L286.523 149.695H286.381L280.947 165ZM281.8 157.898H291.104V159.851H281.8V157.898ZM305.406 159.425V151.364H307.501V165H305.406V162.692H305.264C304.944 163.384 304.447 163.973 303.772 164.458C303.098 164.938 302.245 165.178 301.216 165.178C300.363 165.178 299.606 164.991 298.943 164.618C298.28 164.239 297.759 163.671 297.38 162.914C297.002 162.15 296.812 161.188 296.812 160.028V151.364H298.907V159.886C298.907 160.881 299.185 161.674 299.742 162.266C300.304 162.857 301.02 163.153 301.89 163.153C302.411 163.153 302.941 163.02 303.479 162.754C304.024 162.488 304.48 162.079 304.847 161.529C305.219 160.978 305.406 160.277 305.406 159.425ZM311.339 165V151.364H313.363V153.423H313.505C313.753 152.749 314.203 152.201 314.854 151.781C315.505 151.361 316.239 151.151 317.056 151.151C317.21 151.151 317.402 151.154 317.633 151.159C317.864 151.165 318.038 151.174 318.157 151.186V153.317C318.086 153.299 317.923 153.272 317.668 153.237C317.42 153.195 317.156 153.175 316.878 153.175C316.215 153.175 315.624 153.314 315.103 153.592C314.588 153.864 314.179 154.243 313.878 154.728C313.582 155.208 313.434 155.755 313.434 156.371V165H311.339ZM325.765 165.284C324.534 165.284 323.454 164.991 322.525 164.405C321.601 163.819 320.879 163 320.358 161.946C319.843 160.893 319.586 159.661 319.586 158.253C319.586 156.832 319.843 155.592 320.358 154.533C320.879 153.474 321.601 152.651 322.525 152.065C323.454 151.479 324.534 151.186 325.765 151.186C326.996 151.186 328.073 151.479 328.997 152.065C329.926 152.651 330.648 153.474 331.163 154.533C331.684 155.592 331.944 156.832 331.944 158.253C331.944 159.661 331.684 160.893 331.163 161.946C330.648 163 329.926 163.819 328.997 164.405C328.073 164.991 326.996 165.284 325.765 165.284ZM325.765 163.402C326.7 163.402 327.47 163.162 328.073 162.683C328.677 162.203 329.124 161.573 329.414 160.792C329.704 160.011 329.849 159.164 329.849 158.253C329.849 157.341 329.704 156.492 329.414 155.705C329.124 154.918 328.677 154.281 328.073 153.796C327.47 153.311 326.7 153.068 325.765 153.068C324.83 153.068 324.06 153.311 323.457 153.796C322.853 154.281 322.406 154.918 322.116 155.705C321.826 156.492 321.681 157.341 321.681 158.253C321.681 159.164 321.826 160.011 322.116 160.792C322.406 161.573 322.853 162.203 323.457 162.683C324.06 163.162 324.83 163.402 325.765 163.402ZM335.142 165V151.364H337.166V153.423H337.308C337.557 152.749 338.007 152.201 338.658 151.781C339.309 151.361 340.043 151.151 340.86 151.151C341.013 151.151 341.206 151.154 341.437 151.159C341.667 151.165 341.842 151.174 341.96 151.186V153.317C341.889 153.299 341.727 153.272 341.472 153.237C341.224 153.195 340.96 153.175 340.682 153.175C340.019 153.175 339.427 153.314 338.906 153.592C338.392 153.864 337.983 154.243 337.681 154.728C337.385 155.208 337.237 155.755 337.237 156.371V165H335.142ZM348.457 165.32C347.593 165.32 346.808 165.157 346.104 164.831C345.4 164.5 344.841 164.023 344.426 163.402C344.012 162.775 343.805 162.017 343.805 161.129C343.805 160.348 343.959 159.715 344.266 159.229C344.574 158.738 344.986 158.353 345.5 158.075C346.015 157.797 346.584 157.59 347.205 157.454C347.832 157.312 348.463 157.199 349.096 157.116C349.925 157.01 350.596 156.93 351.111 156.877C351.632 156.818 352.011 156.72 352.248 156.584C352.49 156.448 352.612 156.211 352.612 155.874V155.803C352.612 154.927 352.372 154.246 351.892 153.761C351.419 153.275 350.7 153.033 349.735 153.033C348.735 153.033 347.951 153.252 347.383 153.69C346.814 154.128 346.415 154.595 346.184 155.092L344.195 154.382C344.551 153.554 345.024 152.908 345.616 152.447C346.214 151.979 346.865 151.654 347.569 151.47C348.279 151.281 348.978 151.186 349.664 151.186C350.102 151.186 350.605 151.239 351.173 151.346C351.747 151.446 352.301 151.657 352.834 151.976C353.372 152.296 353.819 152.778 354.174 153.423C354.529 154.068 354.707 154.933 354.707 156.016V165H352.612V163.153H352.505C352.363 163.449 352.126 163.766 351.795 164.103C351.463 164.441 351.022 164.728 350.472 164.964C349.922 165.201 349.25 165.32 348.457 165.32ZM348.776 163.438C349.605 163.438 350.303 163.275 350.872 162.949C351.446 162.624 351.878 162.203 352.168 161.689C352.464 161.174 352.612 160.632 352.612 160.064V158.146C352.523 158.253 352.328 158.35 352.026 158.439C351.73 158.522 351.386 158.596 350.996 158.661C350.611 158.72 350.235 158.774 349.868 158.821C349.507 158.862 349.214 158.898 348.989 158.928C348.445 158.999 347.936 159.114 347.462 159.274C346.995 159.428 346.616 159.661 346.326 159.975C346.042 160.283 345.9 160.703 345.9 161.236C345.9 161.964 346.169 162.514 346.708 162.887C347.252 163.254 347.942 163.438 348.776 163.438Z" fill="black"/>
<path d="M272.619 178.818V197H270.489L260.581 182.724H260.403V197H258.202V178.818H260.332L270.276 193.129H270.453V178.818H272.619ZM280.754 197.32C279.89 197.32 279.105 197.157 278.401 196.831C277.697 196.5 277.137 196.023 276.723 195.402C276.309 194.775 276.102 194.017 276.102 193.129C276.102 192.348 276.256 191.715 276.563 191.229C276.871 190.738 277.282 190.353 277.797 190.075C278.312 189.797 278.88 189.59 279.502 189.454C280.129 189.312 280.76 189.199 281.393 189.116C282.221 189.01 282.893 188.93 283.408 188.877C283.929 188.818 284.308 188.72 284.544 188.584C284.787 188.448 284.908 188.211 284.908 187.874V187.803C284.908 186.927 284.669 186.246 284.189 185.761C283.716 185.275 282.997 185.033 282.032 185.033C281.032 185.033 280.248 185.252 279.679 185.69C279.111 186.128 278.712 186.595 278.481 187.092L276.492 186.382C276.847 185.554 277.321 184.908 277.913 184.447C278.511 183.979 279.162 183.654 279.866 183.47C280.576 183.281 281.274 183.186 281.961 183.186C282.399 183.186 282.902 183.239 283.47 183.346C284.044 183.446 284.598 183.657 285.13 183.976C285.669 184.296 286.116 184.778 286.471 185.423C286.826 186.068 287.004 186.933 287.004 188.016V197H284.908V195.153H284.802C284.66 195.449 284.423 195.766 284.092 196.103C283.76 196.441 283.319 196.728 282.769 196.964C282.218 197.201 281.547 197.32 280.754 197.32ZM281.073 195.438C281.902 195.438 282.6 195.275 283.168 194.949C283.743 194.624 284.175 194.203 284.465 193.689C284.761 193.174 284.908 192.632 284.908 192.064V190.146C284.82 190.253 284.624 190.35 284.323 190.439C284.027 190.522 283.683 190.596 283.293 190.661C282.908 190.72 282.532 190.774 282.165 190.821C281.804 190.862 281.511 190.898 281.286 190.928C280.742 190.999 280.233 191.114 279.759 191.274C279.292 191.428 278.913 191.661 278.623 191.975C278.339 192.283 278.197 192.703 278.197 193.236C278.197 193.964 278.466 194.514 279.005 194.887C279.549 195.254 280.239 195.438 281.073 195.438ZM290.828 202.114V183.364H292.852V185.53H293.1C293.254 185.293 293.467 184.991 293.74 184.624C294.018 184.251 294.414 183.92 294.929 183.63C295.45 183.334 296.154 183.186 297.042 183.186C298.19 183.186 299.203 183.473 300.078 184.047C300.954 184.621 301.638 185.435 302.129 186.489C302.621 187.542 302.866 188.785 302.866 190.217C302.866 191.661 302.621 192.913 302.129 193.973C301.638 195.026 300.957 195.843 300.087 196.423C299.217 196.997 298.214 197.284 297.078 197.284C296.202 197.284 295.5 197.139 294.974 196.849C294.447 196.553 294.042 196.219 293.757 195.846C293.473 195.467 293.254 195.153 293.1 194.905H292.923V202.114H290.828ZM292.887 190.182C292.887 191.212 293.038 192.12 293.34 192.907C293.642 193.689 294.083 194.301 294.663 194.745C295.243 195.183 295.953 195.402 296.794 195.402C297.67 195.402 298.401 195.171 298.987 194.71C299.578 194.242 300.022 193.615 300.318 192.827C300.62 192.034 300.771 191.152 300.771 190.182C300.771 189.223 300.623 188.359 300.327 187.589C300.037 186.814 299.596 186.202 299.004 185.752C298.418 185.296 297.681 185.068 296.794 185.068C295.941 185.068 295.225 185.284 294.645 185.716C294.065 186.142 293.627 186.74 293.331 187.51C293.035 188.273 292.887 189.164 292.887 190.182ZM311.779 197.284C310.466 197.284 309.332 196.994 308.379 196.414C307.432 195.828 306.701 195.011 306.186 193.964C305.677 192.91 305.423 191.685 305.423 190.288C305.423 188.892 305.677 187.661 306.186 186.595C306.701 185.524 307.417 184.689 308.335 184.092C309.258 183.488 310.335 183.186 311.566 183.186C312.277 183.186 312.978 183.304 313.67 183.541C314.363 183.778 314.993 184.163 315.561 184.695C316.13 185.222 316.582 185.92 316.92 186.79C317.257 187.661 317.426 188.732 317.426 190.004V190.892H306.914V189.081H315.295C315.295 188.312 315.141 187.625 314.833 187.021C314.532 186.418 314.1 185.941 313.537 185.592C312.981 185.243 312.324 185.068 311.566 185.068C310.732 185.068 310.01 185.275 309.4 185.69C308.797 186.098 308.332 186.631 308.006 187.288C307.681 187.945 307.518 188.649 307.518 189.401V190.608C307.518 191.638 307.696 192.511 308.051 193.227C308.412 193.937 308.912 194.479 309.551 194.852C310.19 195.219 310.933 195.402 311.779 195.402C312.33 195.402 312.827 195.325 313.271 195.171C313.721 195.011 314.108 194.775 314.434 194.461C314.759 194.141 315.011 193.745 315.189 193.271L317.213 193.839C317 194.526 316.642 195.13 316.138 195.651C315.635 196.165 315.014 196.568 314.274 196.858C313.534 197.142 312.703 197.284 311.779 197.284ZM320.613 197V183.364H322.637V185.423H322.779C323.028 184.749 323.478 184.201 324.129 183.781C324.78 183.361 325.513 183.151 326.33 183.151C326.484 183.151 326.676 183.154 326.907 183.159C327.138 183.165 327.313 183.174 327.431 183.186V185.317C327.36 185.299 327.197 185.272 326.943 185.237C326.694 185.195 326.431 185.175 326.153 185.175C325.49 185.175 324.898 185.314 324.377 185.592C323.862 185.864 323.454 186.243 323.152 186.728C322.856 187.208 322.708 187.755 322.708 188.371V197H320.613ZM341.48 183.364L336.438 197H334.307L329.264 183.364H331.537L335.301 194.23H335.443L339.208 183.364H341.48ZM344.246 197V183.364H346.341V197H344.246ZM345.311 181.091C344.903 181.091 344.551 180.952 344.255 180.674C343.965 180.395 343.82 180.061 343.82 179.67C343.82 179.28 343.965 178.945 344.255 178.667C344.551 178.389 344.903 178.25 345.311 178.25C345.719 178.25 346.069 178.389 346.359 178.667C346.655 178.945 346.803 179.28 346.803 179.67C346.803 180.061 346.655 180.395 346.359 180.674C346.069 180.952 345.719 181.091 345.311 181.091ZM352.274 178.818V197H350.178V178.818H352.274ZM358.206 178.818V197H356.111V178.818H358.206ZM367.761 197.284C366.447 197.284 365.314 196.994 364.361 196.414C363.414 195.828 362.683 195.011 362.168 193.964C361.659 192.91 361.404 191.685 361.404 190.288C361.404 188.892 361.659 187.661 362.168 186.595C362.683 185.524 363.399 184.689 364.316 184.092C365.24 183.488 366.317 183.186 367.548 183.186C368.258 183.186 368.959 183.304 369.652 183.541C370.344 183.778 370.975 184.163 371.543 184.695C372.111 185.222 372.564 185.92 372.901 186.79C373.239 187.661 373.407 188.732 373.407 190.004V190.892H362.896V189.081H371.277C371.277 188.312 371.123 187.625 370.815 187.021C370.513 186.418 370.081 185.941 369.519 185.592C368.962 185.243 368.305 185.068 367.548 185.068C366.713 185.068 365.991 185.275 365.382 185.69C364.778 186.098 364.313 186.631 363.988 187.288C363.662 187.945 363.5 188.649 363.5 189.401V190.608C363.5 191.638 363.677 192.511 364.032 193.227C364.393 193.937 364.893 194.479 365.533 194.852C366.172 195.219 366.915 195.402 367.761 195.402C368.311 195.402 368.809 195.325 369.252 195.171C369.702 195.011 370.09 194.775 370.415 194.461C370.741 194.141 370.992 193.745 371.17 193.271L373.194 193.839C372.981 194.526 372.623 195.13 372.12 195.651C371.617 196.165 370.995 196.568 370.256 196.858C369.516 197.142 368.684 197.284 367.761 197.284Z" fill="black"/>
<path d="M219.202 334V315.818H225.345C226.772 315.818 227.938 316.076 228.843 316.591C229.754 317.1 230.429 317.789 230.867 318.659C231.305 319.529 231.524 320.5 231.524 321.571C231.524 322.642 231.305 323.616 230.867 324.492C230.435 325.368 229.766 326.066 228.861 326.587C227.955 327.102 226.795 327.359 225.381 327.359H220.977V325.406H225.31C226.286 325.406 227.07 325.238 227.662 324.9C228.254 324.563 228.683 324.107 228.95 323.533C229.222 322.953 229.358 322.299 229.358 321.571C229.358 320.843 229.222 320.192 228.95 319.618C228.683 319.044 228.251 318.594 227.653 318.268C227.056 317.937 226.263 317.771 225.274 317.771H221.403V334H219.202ZM240.358 334.284C239.044 334.284 237.91 333.994 236.957 333.414C236.01 332.828 235.279 332.011 234.765 330.964C234.256 329.91 234.001 328.685 234.001 327.288C234.001 325.892 234.256 324.661 234.765 323.595C235.279 322.524 235.996 321.689 236.913 321.092C237.836 320.488 238.913 320.186 240.145 320.186C240.855 320.186 241.556 320.304 242.249 320.541C242.941 320.778 243.571 321.163 244.14 321.695C244.708 322.222 245.161 322.92 245.498 323.79C245.835 324.661 246.004 325.732 246.004 327.004V327.892H235.493V326.081H243.873C243.873 325.312 243.719 324.625 243.412 324.021C243.11 323.418 242.678 322.941 242.115 322.592C241.559 322.243 240.902 322.068 240.145 322.068C239.31 322.068 238.588 322.275 237.978 322.69C237.375 323.098 236.91 323.631 236.585 324.288C236.259 324.945 236.096 325.649 236.096 326.401V327.608C236.096 328.638 236.274 329.511 236.629 330.227C236.99 330.937 237.49 331.479 238.129 331.852C238.768 332.219 239.511 332.402 240.358 332.402C240.908 332.402 241.405 332.325 241.849 332.171C242.299 332.011 242.687 331.775 243.012 331.461C243.338 331.141 243.589 330.745 243.767 330.271L245.791 330.839C245.578 331.526 245.22 332.13 244.717 332.651C244.214 333.165 243.592 333.568 242.852 333.858C242.112 334.142 241.281 334.284 240.358 334.284ZM254.731 334.284C253.5 334.284 252.42 333.991 251.49 333.405C250.567 332.819 249.845 332 249.324 330.946C248.809 329.893 248.552 328.661 248.552 327.253C248.552 325.832 248.809 324.592 249.324 323.533C249.845 322.474 250.567 321.651 251.49 321.065C252.42 320.479 253.5 320.186 254.731 320.186C255.962 320.186 257.039 320.479 257.962 321.065C258.892 321.651 259.614 322.474 260.129 323.533C260.649 324.592 260.91 325.832 260.91 327.253C260.91 328.661 260.649 329.893 260.129 330.946C259.614 332 258.892 332.819 257.962 333.405C257.039 333.991 255.962 334.284 254.731 334.284ZM254.731 332.402C255.666 332.402 256.435 332.162 257.039 331.683C257.643 331.203 258.09 330.573 258.38 329.792C258.67 329.011 258.815 328.164 258.815 327.253C258.815 326.341 258.67 325.492 258.38 324.705C258.09 323.918 257.643 323.281 257.039 322.796C256.435 322.311 255.666 322.068 254.731 322.068C253.796 322.068 253.026 322.311 252.423 322.796C251.819 323.281 251.372 323.918 251.082 324.705C250.792 325.492 250.647 326.341 250.647 327.253C250.647 328.164 250.792 329.011 251.082 329.792C251.372 330.573 251.819 331.203 252.423 331.683C253.026 332.162 253.796 332.402 254.731 332.402ZM264.108 334V320.364H266.132V322.423H266.274C266.523 321.749 266.973 321.201 267.624 320.781C268.275 320.361 269.009 320.151 269.825 320.151C269.979 320.151 270.172 320.154 270.402 320.159C270.633 320.165 270.808 320.174 270.926 320.186V322.317C270.855 322.299 270.692 322.272 270.438 322.237C270.189 322.195 269.926 322.175 269.648 322.175C268.985 322.175 268.393 322.314 267.872 322.592C267.357 322.864 266.949 323.243 266.647 323.728C266.351 324.208 266.203 324.755 266.203 325.371V334H264.108ZM273.41 334V320.364H275.505V334H273.41ZM274.475 318.091C274.067 318.091 273.715 317.952 273.419 317.674C273.129 317.395 272.984 317.061 272.984 316.67C272.984 316.28 273.129 315.945 273.419 315.667C273.715 315.389 274.067 315.25 274.475 315.25C274.884 315.25 275.233 315.389 275.523 315.667C275.819 315.945 275.967 316.28 275.967 316.67C275.967 317.061 275.819 317.395 275.523 317.674C275.233 317.952 274.884 318.091 274.475 318.091ZM283.355 334.32C282.491 334.32 281.707 334.157 281.003 333.831C280.298 333.5 279.739 333.023 279.325 332.402C278.91 331.775 278.703 331.017 278.703 330.129C278.703 329.348 278.857 328.715 279.165 328.229C279.473 327.738 279.884 327.353 280.399 327.075C280.914 326.797 281.482 326.59 282.103 326.454C282.731 326.312 283.361 326.199 283.994 326.116C284.823 326.01 285.495 325.93 286.01 325.877C286.531 325.818 286.909 325.72 287.146 325.584C287.389 325.448 287.51 325.211 287.51 324.874V324.803C287.51 323.927 287.27 323.246 286.791 322.761C286.317 322.275 285.598 322.033 284.634 322.033C283.633 322.033 282.849 322.252 282.281 322.69C281.713 323.128 281.313 323.595 281.082 324.092L279.094 323.382C279.449 322.554 279.922 321.908 280.514 321.447C281.112 320.979 281.763 320.654 282.467 320.47C283.178 320.281 283.876 320.186 284.563 320.186C285.001 320.186 285.504 320.239 286.072 320.346C286.646 320.446 287.199 320.657 287.732 320.976C288.271 321.296 288.717 321.778 289.073 322.423C289.428 323.068 289.605 323.933 289.605 325.016V334H287.51V332.153H287.403C287.261 332.449 287.025 332.766 286.693 333.103C286.362 333.441 285.921 333.728 285.37 333.964C284.82 334.201 284.148 334.32 283.355 334.32ZM283.675 332.438C284.503 332.438 285.202 332.275 285.77 331.949C286.344 331.624 286.776 331.203 287.066 330.689C287.362 330.174 287.51 329.632 287.51 329.064V327.146C287.421 327.253 287.226 327.35 286.924 327.439C286.628 327.522 286.285 327.596 285.894 327.661C285.51 327.72 285.134 327.774 284.767 327.821C284.406 327.862 284.113 327.898 283.888 327.928C283.343 327.999 282.834 328.114 282.361 328.274C281.893 328.428 281.515 328.661 281.225 328.975C280.94 329.283 280.798 329.703 280.798 330.236C280.798 330.964 281.068 331.514 281.606 331.887C282.151 332.254 282.84 332.438 283.675 332.438Z" fill="black"/>
<path d="M355.162 212.818H357.364V225.815C357.364 226.975 357.151 227.961 356.724 228.772C356.298 229.583 355.698 230.198 354.922 230.618C354.147 231.038 353.232 231.249 352.179 231.249C351.185 231.249 350.3 231.068 349.525 230.707C348.749 230.34 348.14 229.819 347.696 229.145C347.252 228.47 347.03 227.668 347.03 226.739H349.196C349.196 227.254 349.323 227.703 349.578 228.088C349.838 228.467 350.193 228.763 350.643 228.976C351.093 229.189 351.605 229.295 352.179 229.295C352.812 229.295 353.351 229.162 353.795 228.896C354.239 228.63 354.576 228.239 354.807 227.724C355.044 227.203 355.162 226.567 355.162 225.815V212.818ZM367.032 231.284C365.801 231.284 364.72 230.991 363.791 230.405C362.868 229.819 362.146 229 361.625 227.946C361.11 226.893 360.853 225.661 360.853 224.253C360.853 222.832 361.11 221.592 361.625 220.533C362.146 219.474 362.868 218.651 363.791 218.065C364.72 217.479 365.801 217.186 367.032 217.186C368.263 217.186 369.34 217.479 370.263 218.065C371.192 218.651 371.914 219.474 372.429 220.533C372.95 221.592 373.211 222.832 373.211 224.253C373.211 225.661 372.95 226.893 372.429 227.946C371.914 229 371.192 229.819 370.263 230.405C369.34 230.991 368.263 231.284 367.032 231.284ZM367.032 229.402C367.967 229.402 368.736 229.162 369.34 228.683C369.944 228.203 370.39 227.573 370.68 226.792C370.97 226.011 371.115 225.164 371.115 224.253C371.115 223.341 370.97 222.492 370.68 221.705C370.39 220.918 369.944 220.281 369.34 219.796C368.736 219.311 367.967 219.068 367.032 219.068C366.096 219.068 365.327 219.311 364.723 219.796C364.12 220.281 363.673 220.918 363.383 221.705C363.093 222.492 362.948 223.341 362.948 224.253C362.948 225.164 363.093 226.011 363.383 226.792C363.673 227.573 364.12 228.203 364.723 228.683C365.327 229.162 366.096 229.402 367.032 229.402ZM378.504 212.818V231H376.409V212.818H378.504ZM382.341 231V217.364H384.437V231H382.341ZM383.407 215.091C382.998 215.091 382.646 214.952 382.35 214.674C382.06 214.395 381.915 214.061 381.915 213.67C381.915 213.28 382.06 212.945 382.35 212.667C382.646 212.389 382.998 212.25 383.407 212.25C383.815 212.25 384.164 212.389 384.454 212.667C384.75 212.945 384.898 213.28 384.898 213.67C384.898 214.061 384.75 214.395 384.454 214.674C384.164 214.952 383.815 215.091 383.407 215.091ZM393.991 231.284C392.677 231.284 391.544 230.994 390.591 230.414C389.644 229.828 388.913 229.011 388.398 227.964C387.889 226.91 387.635 225.685 387.635 224.288C387.635 222.892 387.889 221.661 388.398 220.595C388.913 219.524 389.629 218.689 390.547 218.092C391.47 217.488 392.547 217.186 393.778 217.186C394.489 217.186 395.19 217.304 395.882 217.541C396.575 217.778 397.205 218.163 397.773 218.695C398.342 219.222 398.794 219.92 399.132 220.79C399.469 221.661 399.638 222.732 399.638 224.004V224.892H389.126V223.081H397.507C397.507 222.312 397.353 221.625 397.045 221.021C396.744 220.418 396.311 219.941 395.749 219.592C395.193 219.243 394.536 219.068 393.778 219.068C392.944 219.068 392.222 219.275 391.612 219.69C391.008 220.098 390.544 220.631 390.218 221.288C389.893 221.945 389.73 222.649 389.73 223.401V224.608C389.73 225.638 389.908 226.511 390.263 227.227C390.624 227.937 391.124 228.479 391.763 228.852C392.402 229.219 393.145 229.402 393.991 229.402C394.542 229.402 395.039 229.325 395.483 229.171C395.933 229.011 396.32 228.775 396.646 228.461C396.971 228.141 397.223 227.745 397.4 227.271L399.425 227.839C399.212 228.526 398.853 229.13 398.35 229.651C397.847 230.165 397.226 230.568 396.486 230.858C395.746 231.142 394.915 231.284 393.991 231.284ZM408.755 217.364V219.139H401.688V217.364H408.755ZM403.748 214.097H405.843V227.094C405.843 227.686 405.929 228.129 406.101 228.425C406.278 228.715 406.503 228.911 406.775 229.011C407.054 229.106 407.347 229.153 407.654 229.153C407.885 229.153 408.075 229.142 408.223 229.118C408.371 229.088 408.489 229.065 408.578 229.047L409.004 230.929C408.862 230.982 408.664 231.036 408.409 231.089C408.155 231.148 407.832 231.178 407.441 231.178C406.849 231.178 406.269 231.05 405.701 230.796C405.139 230.541 404.671 230.154 404.299 229.633C403.932 229.112 403.748 228.455 403.748 227.662V214.097Z" fill="black"/>
<circle cx="427.511" cy="156.511" r="9.01136" fill="#FFE587" stroke="black"/>
<circle cx="368.511" cy="163.511" r="9.01136" fill="#FFE587" stroke="black"/>
<circle cx="384.511" cy="175.511" r="9.01136" fill="#FFE587" stroke="black"/>
<path d="M314.832 385.5H312.631C312.5 384.867 312.273 384.31 311.947 383.831C311.627 383.352 311.237 382.949 310.775 382.624C310.319 382.292 309.813 382.044 309.257 381.878C308.701 381.712 308.121 381.629 307.517 381.629C306.416 381.629 305.419 381.907 304.525 382.464C303.637 383.02 302.93 383.84 302.403 384.923C301.883 386.006 301.622 387.335 301.622 388.909C301.622 390.483 301.883 391.812 302.403 392.895C302.93 393.978 303.637 394.798 304.525 395.354C305.419 395.911 306.416 396.189 307.517 396.189C308.121 396.189 308.701 396.106 309.257 395.94C309.813 395.775 310.319 395.529 310.775 395.203C311.237 394.872 311.627 394.467 311.947 393.987C312.273 393.502 312.5 392.946 312.631 392.318H314.832C314.667 393.247 314.365 394.079 313.927 394.813C313.489 395.547 312.944 396.171 312.293 396.686C311.642 397.195 310.911 397.583 310.1 397.849C309.296 398.115 308.434 398.249 307.517 398.249C305.966 398.249 304.587 397.87 303.38 397.112C302.173 396.355 301.223 395.277 300.53 393.881C299.838 392.484 299.491 390.827 299.491 388.909C299.491 386.991 299.838 385.334 300.53 383.938C301.223 382.541 302.173 381.464 303.38 380.706C304.587 379.948 305.966 379.57 307.517 379.57C308.434 379.57 309.296 379.703 310.1 379.969C310.911 380.235 311.642 380.626 312.293 381.141C312.944 381.65 313.489 382.271 313.927 383.005C314.365 383.733 314.667 384.565 314.832 385.5ZM320.201 389.797V398H318.106V379.818H320.201V386.494H320.379C320.698 385.79 321.178 385.231 321.817 384.816C322.462 384.396 323.32 384.186 324.392 384.186C325.321 384.186 326.135 384.373 326.833 384.745C327.531 385.112 328.073 385.678 328.458 386.441C328.848 387.199 329.044 388.163 329.044 389.335V398H326.948V389.477C326.948 388.394 326.667 387.557 326.105 386.965C325.549 386.367 324.776 386.068 323.788 386.068C323.101 386.068 322.486 386.213 321.941 386.503C321.403 386.793 320.977 387.216 320.663 387.773C320.355 388.329 320.201 389.004 320.201 389.797ZM336.889 398.32C336.025 398.32 335.241 398.157 334.537 397.831C333.832 397.5 333.273 397.023 332.859 396.402C332.445 395.775 332.237 395.017 332.237 394.129C332.237 393.348 332.391 392.715 332.699 392.229C333.007 391.738 333.418 391.353 333.933 391.075C334.448 390.797 335.016 390.59 335.638 390.454C336.265 390.312 336.895 390.199 337.529 390.116C338.357 390.01 339.029 389.93 339.544 389.877C340.065 389.818 340.443 389.72 340.68 389.584C340.923 389.448 341.044 389.211 341.044 388.874V388.803C341.044 387.927 340.805 387.246 340.325 386.761C339.852 386.275 339.133 386.033 338.168 386.033C337.168 386.033 336.383 386.252 335.815 386.69C335.247 387.128 334.847 387.595 334.617 388.092L332.628 387.382C332.983 386.554 333.457 385.908 334.048 385.447C334.646 384.979 335.297 384.654 336.002 384.47C336.712 384.281 337.41 384.186 338.097 384.186C338.535 384.186 339.038 384.239 339.606 384.346C340.18 384.446 340.733 384.657 341.266 384.976C341.805 385.296 342.252 385.778 342.607 386.423C342.962 387.068 343.139 387.933 343.139 389.016V398H341.044V396.153H340.938C340.796 396.449 340.559 396.766 340.227 397.103C339.896 397.441 339.455 397.728 338.905 397.964C338.354 398.201 337.682 398.32 336.889 398.32ZM337.209 396.438C338.038 396.438 338.736 396.275 339.304 395.949C339.878 395.624 340.31 395.203 340.6 394.689C340.896 394.174 341.044 393.632 341.044 393.064V391.146C340.955 391.253 340.76 391.35 340.458 391.439C340.162 391.522 339.819 391.596 339.428 391.661C339.044 391.72 338.668 391.774 338.301 391.821C337.94 391.862 337.647 391.898 337.422 391.928C336.878 391.999 336.369 392.114 335.895 392.274C335.427 392.428 335.049 392.661 334.759 392.975C334.475 393.283 334.333 393.703 334.333 394.236C334.333 394.964 334.602 395.514 335.14 395.887C335.685 396.254 336.374 396.438 337.209 396.438ZM346.964 398V384.364H348.988V386.494H349.165C349.449 385.766 349.908 385.201 350.541 384.799C351.175 384.39 351.935 384.186 352.823 384.186C353.723 384.186 354.471 384.39 355.069 384.799C355.673 385.201 356.143 385.766 356.481 386.494H356.623C356.972 385.79 357.496 385.231 358.194 384.816C358.892 384.396 359.73 384.186 360.706 384.186C361.926 384.186 362.923 384.568 363.698 385.331C364.474 386.089 364.861 387.27 364.861 388.874V398H362.766V388.874C362.766 387.867 362.491 387.148 361.94 386.716C361.39 386.284 360.742 386.068 359.996 386.068C359.037 386.068 358.295 386.358 357.768 386.938C357.241 387.512 356.978 388.24 356.978 389.122V398H354.847V388.661C354.847 387.885 354.595 387.261 354.092 386.787C353.589 386.308 352.941 386.068 352.148 386.068C351.604 386.068 351.095 386.213 350.621 386.503C350.154 386.793 349.775 387.196 349.485 387.711C349.201 388.22 349.059 388.808 349.059 389.477V398H346.964ZM368.692 403.114V384.364H370.716V386.53H370.965C371.119 386.293 371.332 385.991 371.604 385.624C371.882 385.251 372.279 384.92 372.794 384.63C373.314 384.334 374.019 384.186 374.907 384.186C376.055 384.186 377.067 384.473 377.943 385.047C378.819 385.621 379.502 386.435 379.994 387.489C380.485 388.542 380.73 389.785 380.73 391.217C380.73 392.661 380.485 393.913 379.994 394.973C379.502 396.026 378.822 396.843 377.952 397.423C377.082 397.997 376.078 398.284 374.942 398.284C374.066 398.284 373.365 398.139 372.838 397.849C372.311 397.553 371.906 397.219 371.622 396.846C371.338 396.467 371.119 396.153 370.965 395.905H370.787V403.114H368.692ZM370.752 391.182C370.752 392.212 370.903 393.12 371.204 393.907C371.506 394.689 371.947 395.301 372.527 395.745C373.107 396.183 373.818 396.402 374.658 396.402C375.534 396.402 376.265 396.171 376.851 395.71C377.443 395.242 377.887 394.615 378.182 393.827C378.484 393.034 378.635 392.152 378.635 391.182C378.635 390.223 378.487 389.359 378.191 388.589C377.901 387.814 377.46 387.202 376.869 386.752C376.283 386.296 375.546 386.068 374.658 386.068C373.806 386.068 373.09 386.284 372.509 386.716C371.929 387.142 371.492 387.74 371.196 388.51C370.9 389.273 370.752 390.164 370.752 391.182ZM387.939 398.32C387.075 398.32 386.291 398.157 385.587 397.831C384.882 397.5 384.323 397.023 383.909 396.402C383.494 395.775 383.287 395.017 383.287 394.129C383.287 393.348 383.441 392.715 383.749 392.229C384.057 391.738 384.468 391.353 384.983 391.075C385.498 390.797 386.066 390.59 386.687 390.454C387.315 390.312 387.945 390.199 388.578 390.116C389.407 390.01 390.079 389.93 390.594 389.877C391.114 389.818 391.493 389.72 391.73 389.584C391.973 389.448 392.094 389.211 392.094 388.874V388.803C392.094 387.927 391.854 387.246 391.375 386.761C390.901 386.275 390.182 386.033 389.218 386.033C388.217 386.033 387.433 386.252 386.865 386.69C386.297 387.128 385.897 387.595 385.666 388.092L383.678 387.382C384.033 386.554 384.506 385.908 385.098 385.447C385.696 384.979 386.347 384.654 387.051 384.47C387.762 384.281 388.46 384.186 389.147 384.186C389.585 384.186 390.088 384.239 390.656 384.346C391.23 384.446 391.783 384.657 392.316 384.976C392.855 385.296 393.301 385.778 393.657 386.423C394.012 387.068 394.189 387.933 394.189 389.016V398H392.094V396.153H391.987C391.845 396.449 391.609 396.766 391.277 397.103C390.946 397.441 390.505 397.728 389.954 397.964C389.404 398.201 388.732 398.32 387.939 398.32ZM388.259 396.438C389.087 396.438 389.786 396.275 390.354 395.949C390.928 395.624 391.36 395.203 391.65 394.689C391.946 394.174 392.094 393.632 392.094 393.064V391.146C392.005 391.253 391.81 391.35 391.508 391.439C391.212 391.522 390.869 391.596 390.478 391.661C390.094 391.72 389.718 391.774 389.351 391.821C388.99 391.862 388.697 391.898 388.472 391.928C387.927 391.999 387.418 392.114 386.945 392.274C386.477 392.428 386.099 392.661 385.809 392.975C385.524 393.283 385.382 393.703 385.382 394.236C385.382 394.964 385.652 395.514 386.19 395.887C386.735 396.254 387.424 396.438 388.259 396.438ZM398.013 398V384.364H400.108V398H398.013ZM399.079 382.091C398.67 382.091 398.318 381.952 398.022 381.674C397.732 381.395 397.587 381.061 397.587 380.67C397.587 380.28 397.732 379.945 398.022 379.667C398.318 379.389 398.67 379.25 399.079 379.25C399.487 379.25 399.836 379.389 400.126 379.667C400.422 379.945 400.57 380.28 400.57 380.67C400.57 381.061 400.422 381.395 400.126 381.674C399.836 381.952 399.487 382.091 399.079 382.091ZM409.45 403.398C408.438 403.398 407.568 403.268 406.84 403.007C406.112 402.753 405.505 402.415 405.02 401.995C404.541 401.581 404.159 401.137 403.875 400.663L405.544 399.491C405.733 399.74 405.973 400.024 406.263 400.344C406.553 400.669 406.95 400.95 407.453 401.187C407.962 401.43 408.628 401.551 409.45 401.551C410.551 401.551 411.46 401.285 412.176 400.752C412.892 400.219 413.25 399.385 413.25 398.249V395.479H413.072C412.918 395.727 412.699 396.035 412.415 396.402C412.137 396.763 411.735 397.086 411.208 397.37C410.687 397.648 409.983 397.787 409.095 397.787C407.994 397.787 407.006 397.527 406.13 397.006C405.26 396.485 404.57 395.727 404.061 394.733C403.558 393.739 403.307 392.531 403.307 391.111C403.307 389.714 403.552 388.498 404.044 387.462C404.535 386.42 405.218 385.615 406.094 385.047C406.97 384.473 407.982 384.186 409.131 384.186C410.018 384.186 410.723 384.334 411.244 384.63C411.77 384.92 412.173 385.251 412.451 385.624C412.735 385.991 412.954 386.293 413.108 386.53H413.321V384.364H415.345V398.391C415.345 399.562 415.079 400.515 414.546 401.249C414.019 401.989 413.309 402.531 412.415 402.874C411.528 403.223 410.539 403.398 409.45 403.398ZM409.379 395.905C410.22 395.905 410.93 395.712 411.51 395.328C412.09 394.943 412.531 394.39 412.833 393.668C413.134 392.946 413.285 392.081 413.285 391.075C413.285 390.093 413.137 389.226 412.842 388.474C412.546 387.722 412.108 387.134 411.528 386.707C410.948 386.281 410.231 386.068 409.379 386.068C408.491 386.068 407.752 386.293 407.16 386.743C406.574 387.193 406.133 387.796 405.837 388.554C405.547 389.312 405.402 390.152 405.402 391.075C405.402 392.022 405.55 392.86 405.846 393.588C406.148 394.31 406.592 394.878 407.177 395.292C407.769 395.701 408.503 395.905 409.379 395.905ZM421.275 389.797V398H419.18V384.364H421.204V386.494H421.382C421.702 385.802 422.187 385.246 422.838 384.825C423.489 384.399 424.329 384.186 425.359 384.186C426.283 384.186 427.09 384.375 427.783 384.754C428.475 385.127 429.014 385.695 429.399 386.459C429.783 387.216 429.976 388.175 429.976 389.335V398H427.881V389.477C427.881 388.406 427.602 387.571 427.046 386.974C426.49 386.37 425.726 386.068 424.756 386.068C424.087 386.068 423.489 386.213 422.962 386.503C422.441 386.793 422.03 387.216 421.728 387.773C421.426 388.329 421.275 389.004 421.275 389.797Z" fill="black"/>
<circle cx="375.511" cy="369.511" r="9.01136" fill="#FFE587" stroke="black"/>
<circle cx="387.511" cy="201.511" r="9.01136" fill="#FFE587" stroke="black"/>
<circle cx="294.511" cy="106.511" r="9.01136" fill="#FFE587" stroke="black"/>
<circle cx="250.511" cy="300.511" r="9.01136" fill="#FFE587" stroke="black"/>
<path d="M467.756 71L470.653 53.5455H473.815L471.361 68.3494H479.048L478.605 71H467.756ZM484.946 71.2642C484.116 71.2642 483.395 71.1165 482.781 70.821C482.168 70.5199 481.716 70.0767 481.426 69.4915C481.142 68.9062 481.071 68.1847 481.213 67.3267C481.338 66.5881 481.577 65.9773 481.929 65.4943C482.287 65.0114 482.724 64.625 483.241 64.3352C483.764 64.0398 484.332 63.8182 484.946 63.6705C485.565 63.5227 486.196 63.4148 486.838 63.3466C487.622 63.267 488.256 63.1932 488.739 63.125C489.227 63.0568 489.594 62.9545 489.838 62.8182C490.082 62.6761 490.23 62.4602 490.281 62.1705V62.1193C490.384 61.4773 490.281 60.9801 489.974 60.6278C489.668 60.2756 489.156 60.0994 488.44 60.0994C487.69 60.0994 487.06 60.2642 486.548 60.5938C486.037 60.9233 485.665 61.3125 485.432 61.7614L482.636 61.3523C482.989 60.5568 483.472 59.892 484.085 59.358C484.699 58.8182 485.406 58.4148 486.207 58.1477C487.014 57.875 487.875 57.7386 488.79 57.7386C489.415 57.7386 490.026 57.8125 490.622 57.9602C491.224 58.108 491.756 58.3523 492.216 58.6932C492.682 59.0284 493.023 59.4858 493.239 60.0653C493.46 60.6449 493.497 61.3693 493.349 62.2386L491.892 71H488.926L489.233 69.2017H489.131C488.886 69.5653 488.568 69.9062 488.176 70.2244C487.784 70.5369 487.318 70.7898 486.778 70.983C486.239 71.1705 485.628 71.2642 484.946 71.2642ZM486.114 68.9972C486.733 68.9972 487.29 68.875 487.784 68.6307C488.278 68.3807 488.685 68.0511 489.003 67.642C489.321 67.233 489.52 66.7869 489.599 66.304L489.855 64.7614C489.741 64.8409 489.565 64.9148 489.327 64.983C489.088 65.0511 488.821 65.1108 488.526 65.1619C488.236 65.2131 487.949 65.2585 487.665 65.2983C487.381 65.3381 487.136 65.3722 486.932 65.4006C486.46 65.4631 486.028 65.5653 485.636 65.7074C485.25 65.8494 484.929 66.0483 484.673 66.304C484.423 66.554 484.267 66.8778 484.205 67.2756C484.114 67.8381 484.247 68.267 484.605 68.5625C484.963 68.8523 485.466 68.9972 486.114 68.9972ZM498.48 66.892L499.085 63.1676H499.58L505.179 57.9091H508.784L501.932 64.3523H501.301L498.48 66.892ZM494.994 71L497.892 53.5455H500.977L498.08 71H494.994ZM503.21 71L499.938 65.0426L502.384 62.8693L506.901 71H503.21ZM513.881 71.2557C512.568 71.2557 511.483 70.983 510.625 70.4375C509.767 69.8864 509.165 69.108 508.818 68.1023C508.477 67.0909 508.42 65.9006 508.648 64.5312C508.869 63.1847 509.321 62.0028 510.003 60.9858C510.685 59.9631 511.537 59.1676 512.56 58.5994C513.588 58.0256 514.724 57.7386 515.969 57.7386C516.776 57.7386 517.517 57.8693 518.193 58.1307C518.869 58.3864 519.44 58.7841 519.906 59.3239C520.372 59.8636 520.693 60.5511 520.869 61.3864C521.045 62.2159 521.037 63.2045 520.844 64.3523L520.699 65.2983H509.96L510.293 63.2188H518.065C518.168 62.6278 518.134 62.1023 517.963 61.642C517.793 61.1761 517.509 60.8097 517.111 60.5426C516.713 60.2756 516.216 60.142 515.619 60.142C515.011 60.142 514.443 60.2983 513.915 60.6108C513.392 60.9176 512.952 61.3153 512.594 61.804C512.236 62.2926 512.009 62.8068 511.912 63.3466L511.562 65.3409C511.438 66.1591 511.466 66.8267 511.648 67.3438C511.83 67.8608 512.148 68.2415 512.602 68.4858C513.057 68.7301 513.631 68.8523 514.324 68.8523C514.778 68.8523 515.199 68.7898 515.585 68.6648C515.972 68.5398 516.315 68.3523 516.616 68.1023C516.923 67.8466 517.179 67.5341 517.384 67.1648L520.205 67.4886C519.892 68.25 519.435 68.9148 518.832 69.483C518.23 70.0455 517.509 70.483 516.668 70.7955C515.832 71.1023 514.903 71.2557 513.881 71.2557ZM444.907 82.5455H448.777L451.87 95.1932H452.075L459.345 82.5455H463.214L460.316 100H457.282L459.277 88.0085H459.123L452.305 99.9489H450.047L447.217 87.983H447.055L445.044 100H442.01L444.907 82.5455ZM463.623 100L465.805 86.9091H468.89L466.708 100H463.623ZM467.799 85.0341C467.305 85.0341 466.896 84.8693 466.572 84.5398C466.248 84.2102 466.106 83.8153 466.146 83.3551C466.186 82.8949 466.393 82.5 466.768 82.1705C467.149 81.8409 467.583 81.6761 468.072 81.6761C468.566 81.6761 468.973 81.8409 469.291 82.1705C469.615 82.5 469.757 82.8949 469.717 83.3551C469.683 83.8153 469.475 84.2102 469.095 84.5398C468.72 84.8693 468.288 85.0341 467.799 85.0341ZM475.557 100.256C474.25 100.256 473.176 99.9688 472.336 99.3949C471.495 98.821 470.907 98.0284 470.571 97.017C470.242 96 470.188 94.8295 470.409 93.5057C470.625 92.1761 471.071 91.0028 471.748 89.9858C472.429 88.9631 473.287 88.1676 474.321 87.5994C475.355 87.0256 476.512 86.7386 477.79 86.7386C478.853 86.7386 479.759 86.9347 480.509 87.3267C481.265 87.7131 481.827 88.2614 482.196 88.9716C482.571 89.6761 482.716 90.5 482.631 91.4432H479.674C479.662 90.8125 479.466 90.2869 479.086 89.8665C478.705 89.4403 478.148 89.2273 477.415 89.2273C476.779 89.2273 476.194 89.3977 475.659 89.7386C475.125 90.0739 474.674 90.5568 474.304 91.1875C473.935 91.8182 473.679 92.5739 473.537 93.4545C473.39 94.3466 473.392 95.1136 473.546 95.7557C473.705 96.392 473.992 96.8835 474.407 97.2301C474.827 97.571 475.358 97.7415 476 97.7415C476.455 97.7415 476.878 97.6562 477.27 97.4858C477.662 97.3097 478.006 97.0568 478.301 96.7273C478.603 96.3977 478.838 95.9972 479.009 95.5256H481.958C481.725 96.4517 481.31 97.2727 480.713 97.9886C480.123 98.6989 479.39 99.2557 478.515 99.6591C477.64 100.057 476.654 100.256 475.557 100.256ZM488.096 92.3295L486.835 100H483.741L486.639 82.5455H489.664L488.574 89.1335H488.735C489.15 88.3892 489.716 87.804 490.431 87.3778C491.153 86.9517 492.02 86.7386 493.031 86.7386C493.929 86.7386 494.684 86.929 495.298 87.3097C495.912 87.6903 496.343 88.2472 496.593 88.9801C496.849 89.7131 496.892 90.608 496.721 91.6648L495.324 100H492.23L493.542 92.142C493.684 91.2614 493.568 90.5767 493.193 90.0881C492.824 89.5937 492.238 89.3466 491.437 89.3466C490.886 89.3466 490.377 89.4659 489.912 89.7045C489.446 89.9375 489.054 90.2756 488.735 90.7188C488.423 91.1619 488.21 91.6989 488.096 92.3295ZM498.451 100L500.633 86.9091H503.718L501.537 100H498.451ZM502.627 85.0341C502.133 85.0341 501.724 84.8693 501.4 84.5398C501.076 84.2102 500.934 83.8153 500.974 83.3551C501.014 82.8949 501.221 82.5 501.596 82.1705C501.977 81.8409 502.412 81.6761 502.9 81.6761C503.395 81.6761 503.801 81.8409 504.119 82.1705C504.443 82.5 504.585 82.8949 504.545 83.3551C504.511 83.8153 504.304 84.2102 503.923 84.5398C503.548 84.8693 503.116 85.0341 502.627 85.0341ZM509.584 105.182C508.471 105.182 507.542 105.031 506.797 104.73C506.053 104.435 505.479 104.037 505.076 103.537C504.672 103.037 504.422 102.483 504.326 101.875L507.223 101.202C507.309 101.457 507.445 101.71 507.632 101.96C507.826 102.216 508.11 102.426 508.485 102.591C508.86 102.761 509.36 102.847 509.985 102.847C510.86 102.847 511.624 102.634 512.277 102.207C512.931 101.781 513.334 101.088 513.488 100.128L513.88 97.6477H513.726C513.522 97.9659 513.24 98.2926 512.882 98.6278C512.53 98.9631 512.084 99.2443 511.544 99.4716C511.01 99.6989 510.368 99.8125 509.618 99.8125C508.613 99.8125 507.74 99.5767 507.002 99.1051C506.263 98.6278 505.732 97.9176 505.408 96.9744C505.09 96.0256 505.05 94.8381 505.289 93.4119C505.522 91.9744 505.959 90.7614 506.601 89.7727C507.249 88.7784 508.025 88.0256 508.928 87.5142C509.831 86.9972 510.786 86.7386 511.792 86.7386C512.559 86.7386 513.169 86.8693 513.624 87.1307C514.078 87.3864 514.422 87.696 514.655 88.0597C514.888 88.4176 515.059 88.7557 515.167 89.0739H515.328L515.686 86.9091H518.729L516.53 100.213C516.348 101.332 515.931 102.259 515.277 102.991C514.624 103.73 513.803 104.278 512.814 104.636C511.831 105 510.755 105.182 509.584 105.182ZM510.846 97.392C511.499 97.392 512.084 97.233 512.601 96.9148C513.118 96.5966 513.55 96.1392 513.897 95.5426C514.243 94.946 514.485 94.2301 514.621 93.3949C514.757 92.571 514.752 91.8494 514.604 91.2301C514.462 90.6108 514.186 90.1307 513.777 89.7898C513.368 89.4432 512.834 89.2699 512.175 89.2699C511.488 89.2699 510.885 89.4489 510.368 89.8068C509.857 90.1648 509.436 90.6562 509.107 91.2812C508.783 91.9006 508.556 92.6051 508.425 93.3949C508.3 94.196 508.3 94.8977 508.425 95.5C508.556 96.0966 508.82 96.5625 509.218 96.8977C509.621 97.2273 510.164 97.392 510.846 97.392ZM523.442 100.264C522.613 100.264 521.891 100.116 521.277 99.821C520.664 99.5199 520.212 99.0767 519.922 98.4915C519.638 97.9062 519.567 97.1847 519.709 96.3267C519.834 95.5881 520.073 94.9773 520.425 94.4943C520.783 94.0114 521.221 93.625 521.738 93.3352C522.26 93.0398 522.828 92.8182 523.442 92.6705C524.061 92.5227 524.692 92.4148 525.334 92.3466C526.118 92.267 526.752 92.1932 527.235 92.125C527.723 92.0568 528.09 91.9545 528.334 91.8182C528.578 91.6761 528.726 91.4602 528.777 91.1705V91.1193C528.88 90.4773 528.777 89.9801 528.471 89.6278C528.164 89.2756 527.652 89.0994 526.936 89.0994C526.186 89.0994 525.556 89.2642 525.044 89.5938C524.533 89.9233 524.161 90.3125 523.928 90.7614L521.132 90.3523C521.485 89.5568 521.968 88.892 522.581 88.358C523.195 87.8182 523.902 87.4148 524.703 87.1477C525.51 86.875 526.371 86.7386 527.286 86.7386C527.911 86.7386 528.522 86.8125 529.118 86.9602C529.721 87.108 530.252 87.3523 530.712 87.6932C531.178 88.0284 531.519 88.4858 531.735 89.0653C531.956 89.6449 531.993 90.3693 531.846 91.2386L530.388 100H527.422L527.729 98.2017H527.627C527.382 98.5653 527.064 98.9062 526.672 99.2244C526.28 99.5369 525.814 99.7898 525.275 99.983C524.735 100.17 524.124 100.264 523.442 100.264ZM524.61 97.9972C525.229 97.9972 525.786 97.875 526.28 97.6307C526.775 97.3807 527.181 97.0511 527.499 96.642C527.817 96.233 528.016 95.7869 528.096 95.304L528.351 93.7614C528.238 93.8409 528.061 93.9148 527.823 93.983C527.584 94.0511 527.317 94.1108 527.022 94.1619C526.732 94.2131 526.445 94.2585 526.161 94.2983C525.877 94.3381 525.632 94.3722 525.428 94.4006C524.956 94.4631 524.525 94.5653 524.132 94.7074C523.746 94.8494 523.425 95.0483 523.169 95.304C522.919 95.554 522.763 95.8778 522.701 96.2756C522.61 96.8381 522.743 97.267 523.101 97.5625C523.459 97.8523 523.962 97.9972 524.61 97.9972ZM537.854 92.3295L536.593 100H533.499L535.681 86.9091H538.638L538.263 89.1335H538.425C538.834 88.4006 539.408 87.8182 540.147 87.3864C540.885 86.9545 541.746 86.7386 542.729 86.7386C543.621 86.7386 544.371 86.9318 544.979 87.3182C545.587 87.6989 546.019 88.2585 546.275 88.9972C546.53 89.7301 546.57 90.6193 546.394 91.6648L544.996 100H541.911L543.215 92.142C543.363 91.2727 543.252 90.5909 542.882 90.0966C542.519 89.5966 541.934 89.3466 541.127 89.3466C540.587 89.3466 540.09 89.4659 539.635 89.7045C539.181 89.9375 538.797 90.2756 538.485 90.7188C538.178 91.1619 537.968 91.6989 537.854 92.3295Z" fill="#017D83"/>
<defs>
<filter id="filter0_d_137_280" x="71" y="76.5" width="378.5" height="673.5" filterUnits="userSpaceOnUse" color-interpolation-filters="sRGB">
<feFlood flood-opacity="0" result="BackgroundImageFix"/>
<feColorMatrix in="SourceAlpha" type="matrix" values="0 0 0 0 0 0 0 0 0 0 0 0 0 0 0 0 0 0 127 0" result="hardAlpha"/>
<feOffset dy="4"/>
<feGaussianBlur stdDeviation="2"/>
<feComposite in2="hardAlpha" operator="out"/>
<feColorMatrix type="matrix" values="0 0 0 0 0 0 0 0 0 0 0 0 0 0 0 0 0 0 0.25 0"/>
<feBlend mode="normal" in2="BackgroundImageFix" result="effect1_dropShadow_137_280"/>
<feBlend mode="normal" in="SourceGraphic" in2="effect1_dropShadow_137_280" result="shape"/>
</filter>
</defs>
</svg>
