<svg width="544" height="800" viewBox="0 0 544 800" fill="none" xmlns="http://www.w3.org/2000/svg">
<rect x="0.5" y="0.5" width="543" height="799" rx="35.5" fill="#97DCFF" stroke="#717171"/>
<path d="M176.065 141.545V159H173.253L165.028 147.111H164.884V159H161.722V141.545H164.551L172.767 153.443H172.92V141.545H176.065ZM179.511 159V141.545H182.673V148.935H190.761V141.545H193.931V159H190.761V151.585H182.673V159H179.511Z" fill="#FFE587"/>
<g filter="url(#filter0_d_138_329)">
<path d="M459 101.5H215L190.5 114.5L181 119L175.5 120.5L171 122L163.5 123.5H154.5C150.5 122.333 142.3 120 141.5 120C140.7 120 140.167 119.333 140 119L140.5 118L143 116.5V115C142.5 114.833 141.4 114.5 141 114.5H137.5H134.5L132.5 112.5L129 108.5L128.5 487H125.5L122.5 489L118 493C118.667 495.167 120 499.7 120 500.5C120 501.3 122.333 503.167 123.5 504L120 512L113.5 518V521L115.5 522.5L113.5 524.5L117.5 525.5L118 528.5L123.5 533.5L122.5 543L127 546.5L130 550L127 560V564.5L128.5 569.5L132.5 574.5V582.5L128.5 589.5L123.5 591.5L119 596.5L116.5 605V607.5L113 612.5V618.5C111 619.5 106.7 621.6 105.5 622C104.3 622.4 103.667 623.5 103.5 624V628.5L99 637L95 640L92.5 644.5L91 648.5V652C90.5 652.833 89.4 654.5 89 654.5C88.6 654.5 87.8333 652.833 87.5 652V649.5L84 652L81.5 655.5C81.6667 654.333 81.9 651.9 81.5 651.5C81.1 651.1 79.3333 651.667 78.5 652L77.5 654.5L75.5 660L73.5 657.5V665L78.5 669.5L79 674.5L75.5 678.5L70 681V684.5C71 684 73.1 682.8 73.5 682C73.9 681.2 75.6667 681.667 76.5 682L74.5 684.5L71.5 687.5L67.5 689C67.3333 689.667 66.9 691.2 66.5 692C66 693 69 692 70 692C70.8 692 70.3333 693.333 70 694L69 699.5C69 700.333 68.8 702.1 68 702.5C67.2 702.9 67 704.333 67 705L65.5 707L63 708L65.5 709L69 709.5V712.5H65.5L60.5 711.5L62 715.5L63 718.5C64.3333 720 67.1 722.9 67.5 722.5L65.5 724.5L60.5 723L59 724.5L62 727.5H67H69C71.1667 728.833 75.7 731.6 76.5 732C77.3 732.4 79.1667 730.5 80 729.5L82 726L80.5 721L78.5 715L80.5 711L84 709L87.5 711L92.5 715L98 715.5L102 714L106.5 713L110 712.5L111 717V723H115C115.8 723 117.667 722 118.5 721.5L121 717.5V715L117 711L116.5 708C117.333 706.167 119 702.4 119 702C119 701.6 120.333 701.833 121 702C121.667 702.833 123.1 704.6 123.5 705C123.9 705.4 125 707.833 125.5 709C126.667 709.667 129.1 711.1 129.5 711.5C129.9 711.9 132 710.333 133 709.5L138.5 706C141.333 706.667 147.1 708 147.5 708C147.9 708 151 710 152.5 711L160 715C161.5 716.333 164.9 719.2 166.5 720C168.1 720.8 171.167 721.333 172.5 721.5L174 725L177.5 729.5H182C182.8 729.5 184.667 724.167 185.5 721.5L187.5 712.5L196.5 707.5C198.167 707 201.7 706 202.5 706C203.3 706 207.5 702 209.5 700L213 698L216.5 699L220.5 705L223.5 710.5L226.5 712.5C227.167 712.167 228.6 711.3 229 710.5C229.5 709.5 233 710.5 234 710.5C234.8 710.5 235 711.833 235 712.5C235 713.333 234.8 715.3 234 716.5C233.2 717.7 233.667 719.333 234 720H237.5L242 715L243 708.5L250 709.5L252.5 708.5V705C251.667 704 250 701.8 250 701V695.5L251.5 692L255.5 690.5C256.333 690.333 258 689.9 258 689.5C258 689.1 259.667 687.667 260.5 687L261.5 684L259 682L258 680.5L259 678.5H260.5C261.833 679.167 264.7 680.5 265.5 680.5C266.3 680.5 266.833 679.167 267 678.5L269 677H273.5C274.7 677 275 674.333 275 673L269 671V668L272 667L279.5 673V675.5L281.5 688.5L289 693.5C290.667 694.167 294.1 695.5 294.5 695.5C295 695.5 300.5 694.5 301.5 694.5C302.3 694.5 305.167 698.167 306.5 700L308 703L309.5 702L311 698L314 697L321 695.5L324 692C324.333 689.667 325 684.8 325 684V673L327 669L330 664C331.167 663 333.6 660.7 334 659.5C334.4 658.3 335.5 655.333 336 654L340 653C341.5 653.5 344.7 654.7 345.5 655.5C346.3 656.3 347.833 655.833 348.5 655.5L353.5 652L357.5 643L360 634L363.5 628.5L367.5 626.5L374.5 625L378 618.5L382 616.5L384.5 614V609L382 601.5C381.5 599.167 380.8 594.2 382 593C383.2 591.8 381.5 589.167 380.5 588L384.5 584L387.5 583H393H403.5L410.5 590H416L419.5 588L426.5 583L436 577H443.5L449.5 574L458 575.5L456 569.5L458 566L461.5 560.5L451.5 556V553.5C452.667 552 455.2 548.9 456 548.5C456.8 548.1 456.333 545.667 456 544.5L448.5 534.5V533L449.5 531.5L457.5 525L459 101.5Z" fill="#FFD597"/>
<path d="M459 101.5H215L190.5 114.5L181 119L175.5 120.5L171 122L163.5 123.5H154.5C150.5 122.333 142.3 120 141.5 120C140.7 120 140.167 119.333 140 119L140.5 118L143 116.5V115C142.5 114.833 141.4 114.5 141 114.5H137.5H134.5L132.5 112.5L129 108.5L128.5 487H125.5L122.5 489L118 493C118.667 495.167 120 499.7 120 500.5C120 501.3 122.333 503.167 123.5 504L120 512L113.5 518V521L115.5 522.5L113.5 524.5L117.5 525.5L118 528.5L123.5 533.5L122.5 543L127 546.5L130 550L127 560V564.5L128.5 569.5L132.5 574.5V582.5L128.5 589.5L123.5 591.5L119 596.5L116.5 605V607.5L113 612.5V618.5C111 619.5 106.7 621.6 105.5 622C104.3 622.4 103.667 623.5 103.5 624V628.5L99 637L95 640L92.5 644.5L91 648.5V652C90.5 652.833 89.4 654.5 89 654.5C88.6 654.5 87.8333 652.833 87.5 652V649.5L84 652L81.5 655.5C81.6667 654.333 81.9 651.9 81.5 651.5C81.1 651.1 79.3333 651.667 78.5 652L77.5 654.5L75.5 660L73.5 657.5V665L78.5 669.5L79 674.5L75.5 678.5L70 681V684.5C71 684 73.1 682.8 73.5 682C73.9 681.2 75.6667 681.667 76.5 682L74.5 684.5L71.5 687.5L67.5 689C67.3333 689.667 66.9 691.2 66.5 692C66 693 69 692 70 692C70.8 692 70.3333 693.333 70 694L69 699.5C69 700.333 68.8 702.1 68 702.5C67.2 702.9 67 704.333 67 705L65.5 707L63 708L65.5 709L69 709.5V712.5H65.5L60.5 711.5L62 715.5L63 718.5C64.3333 720 67.1 722.9 67.5 722.5L65.5 724.5L60.5 723L59 724.5L62 727.5H67H69C71.1667 728.833 75.7 731.6 76.5 732C77.3 732.4 79.1667 730.5 80 729.5L82 726L80.5 721L78.5 715L80.5 711L84 709L87.5 711L92.5 715L98 715.5L102 714L106.5 713L110 712.5L111 717V723H115C115.8 723 117.667 722 118.5 721.5L121 717.5V715L117 711L116.5 708C117.333 706.167 119 702.4 119 702C119 701.6 120.333 701.833 121 702C121.667 702.833 123.1 704.6 123.5 705C123.9 705.4 125 707.833 125.5 709C126.667 709.667 129.1 711.1 129.5 711.5C129.9 711.9 132 710.333 133 709.5L138.5 706C141.333 706.667 147.1 708 147.5 708C147.9 708 151 710 152.5 711L160 715C161.5 716.333 164.9 719.2 166.5 720C168.1 720.8 171.167 721.333 172.5 721.5L174 725L177.5 729.5H182C182.8 729.5 184.667 724.167 185.5 721.5L187.5 712.5L196.5 707.5C198.167 707 201.7 706 202.5 706C203.3 706 207.5 702 209.5 700L213 698L216.5 699L220.5 705L223.5 710.5L226.5 712.5C227.167 712.167 228.6 711.3 229 710.5C229.5 709.5 233 710.5 234 710.5C234.8 710.5 235 711.833 235 712.5C235 713.333 234.8 715.3 234 716.5C233.2 717.7 233.667 719.333 234 720H237.5L242 715L243 708.5L250 709.5L252.5 708.5V705C251.667 704 250 701.8 250 701V695.5L251.5 692L255.5 690.5C256.333 690.333 258 689.9 258 689.5C258 689.1 259.667 687.667 260.5 687L261.5 684L259 682L258 680.5L259 678.5H260.5C261.833 679.167 264.7 680.5 265.5 680.5C266.3 680.5 266.833 679.167 267 678.5L269 677H273.5C274.7 677 275 674.333 275 673L269 671V668L272 667L279.5 673V675.5L281.5 688.5L289 693.5C290.667 694.167 294.1 695.5 294.5 695.5C295 695.5 300.5 694.5 301.5 694.5C302.3 694.5 305.167 698.167 306.5 700L308 703L309.5 702L311 698L314 697L321 695.5L324 692C324.333 689.667 325 684.8 325 684V673L327 669L330 664C331.167 663 333.6 660.7 334 659.5C334.4 658.3 335.5 655.333 336 654L340 653C341.5 653.5 344.7 654.7 345.5 655.5C346.3 656.3 347.833 655.833 348.5 655.5L353.5 652L357.5 643L360 634L363.5 628.5L367.5 626.5L374.5 625L378 618.5L382 616.5L384.5 614V609L382 601.5C381.5 599.167 380.8 594.2 382 593C383.2 591.8 381.5 589.167 380.5 588L384.5 584L387.5 583H393H403.5L410.5 590H416L419.5 588L426.5 583L436 577H443.5L449.5 574L458 575.5L456 569.5L458 566L461.5 560.5L451.5 556V553.5C452.667 552 455.2 548.9 456 548.5C456.8 548.1 456.333 545.667 456 544.5L448.5 534.5V533L449.5 531.5L457.5 525L459 101.5Z" stroke="black"/>
</g>
<circle cx="294.511" cy="418.511" r="9.01136" fill="#FF8F87" stroke="black"/>
<path d="M221.424 433.818V452H217.58V433.818H221.424ZM228.298 444.116V452H224.516V438.364H228.12V440.77H228.28C228.582 439.976 229.088 439.349 229.798 438.887C230.509 438.42 231.37 438.186 232.382 438.186C233.329 438.186 234.154 438.393 234.859 438.808C235.563 439.222 236.111 439.814 236.501 440.583C236.892 441.347 237.087 442.258 237.087 443.317V452H233.305V443.992C233.311 443.158 233.098 442.507 232.666 442.039C232.234 441.566 231.639 441.329 230.881 441.329C230.372 441.329 229.923 441.438 229.532 441.657C229.147 441.876 228.845 442.196 228.627 442.616C228.413 443.03 228.304 443.531 228.298 444.116ZM245.093 452.222C244.057 452.222 243.119 451.956 242.278 451.423C241.444 450.884 240.781 450.094 240.29 449.053C239.804 448.005 239.562 446.721 239.562 445.2C239.562 443.637 239.813 442.338 240.316 441.302C240.819 440.261 241.488 439.482 242.323 438.967C243.163 438.446 244.084 438.186 245.084 438.186C245.847 438.186 246.484 438.316 246.993 438.577C247.507 438.831 247.922 439.151 248.235 439.536C248.555 439.914 248.798 440.287 248.963 440.654H249.079V433.818H252.852V452H249.123V449.816H248.963C248.786 450.195 248.534 450.571 248.209 450.944C247.889 451.31 247.472 451.615 246.957 451.858C246.448 452.101 245.827 452.222 245.093 452.222ZM246.291 449.212C246.901 449.212 247.416 449.047 247.836 448.715C248.262 448.378 248.588 447.907 248.812 447.304C249.043 446.7 249.159 445.993 249.159 445.182C249.159 444.371 249.046 443.667 248.821 443.069C248.596 442.471 248.271 442.009 247.845 441.684C247.419 441.358 246.901 441.196 246.291 441.196C245.67 441.196 245.146 441.364 244.72 441.702C244.294 442.039 243.971 442.507 243.752 443.104C243.533 443.702 243.424 444.395 243.424 445.182C243.424 445.975 243.533 446.676 243.752 447.286C243.977 447.89 244.3 448.363 244.72 448.706C245.146 449.044 245.67 449.212 246.291 449.212ZM255.961 452V438.364H259.743V452H255.961ZM257.861 436.606C257.299 436.606 256.817 436.419 256.414 436.047C256.018 435.668 255.819 435.215 255.819 434.688C255.819 434.167 256.018 433.721 256.414 433.348C256.817 432.969 257.299 432.779 257.861 432.779C258.424 432.779 258.903 432.969 259.299 433.348C259.702 433.721 259.903 434.167 259.903 434.688C259.903 435.215 259.702 435.668 259.299 436.047C258.903 436.419 258.424 436.606 257.861 436.606ZM266.661 452.257C265.791 452.257 265.016 452.107 264.335 451.805C263.655 451.497 263.116 451.044 262.72 450.446C262.329 449.843 262.134 449.091 262.134 448.191C262.134 447.434 262.273 446.798 262.551 446.283C262.829 445.768 263.208 445.353 263.687 445.04C264.167 444.726 264.711 444.489 265.321 444.33C265.936 444.17 266.581 444.057 267.256 443.992C268.049 443.909 268.689 443.832 269.174 443.761C269.659 443.684 270.011 443.572 270.23 443.424C270.449 443.276 270.559 443.057 270.559 442.767V442.714C270.559 442.152 270.381 441.717 270.026 441.409C269.677 441.101 269.18 440.947 268.535 440.947C267.854 440.947 267.312 441.098 266.91 441.4C266.508 441.696 266.241 442.069 266.111 442.518L262.613 442.234C262.791 441.406 263.14 440.69 263.661 440.086C264.182 439.476 264.853 439.009 265.676 438.683C266.505 438.352 267.463 438.186 268.552 438.186C269.31 438.186 270.035 438.275 270.727 438.452C271.426 438.63 272.044 438.905 272.583 439.278C273.127 439.651 273.557 440.13 273.87 440.716C274.184 441.296 274.341 441.992 274.341 442.803V452H270.754V450.109H270.648C270.429 450.535 270.136 450.911 269.769 451.237C269.402 451.556 268.961 451.808 268.446 451.991C267.931 452.169 267.336 452.257 266.661 452.257ZM267.744 449.647C268.301 449.647 268.792 449.538 269.218 449.319C269.644 449.094 269.979 448.792 270.221 448.413C270.464 448.035 270.585 447.605 270.585 447.126V445.679C270.467 445.756 270.304 445.827 270.097 445.892C269.896 445.951 269.668 446.007 269.414 446.061C269.159 446.108 268.905 446.152 268.65 446.194C268.396 446.229 268.165 446.262 267.958 446.292C267.514 446.357 267.126 446.46 266.795 446.602C266.463 446.744 266.206 446.937 266.022 447.179C265.839 447.416 265.747 447.712 265.747 448.067C265.747 448.582 265.933 448.976 266.306 449.248C266.685 449.514 267.164 449.647 267.744 449.647ZM281.057 444.116V452H277.275V438.364H280.879V440.77H281.039C281.341 439.976 281.847 439.349 282.557 438.887C283.267 438.42 284.129 438.186 285.141 438.186C286.088 438.186 286.913 438.393 287.618 438.808C288.322 439.222 288.869 439.814 289.26 440.583C289.651 441.347 289.846 442.258 289.846 443.317V452H286.064V443.992C286.07 443.158 285.857 442.507 285.425 442.039C284.993 441.566 284.398 441.329 283.64 441.329C283.131 441.329 282.681 441.438 282.291 441.657C281.906 441.876 281.604 442.196 281.385 442.616C281.172 443.03 281.063 443.531 281.057 444.116ZM296.715 452.257C295.845 452.257 295.07 452.107 294.389 451.805C293.708 451.497 293.17 451.044 292.773 450.446C292.383 449.843 292.187 449.091 292.187 448.191C292.187 447.434 292.326 446.798 292.605 446.283C292.883 445.768 293.262 445.353 293.741 445.04C294.22 444.726 294.765 444.489 295.375 444.33C295.99 444.17 296.635 444.057 297.31 443.992C298.103 443.909 298.742 443.832 299.228 443.761C299.713 443.684 300.065 443.572 300.284 443.424C300.503 443.276 300.612 443.057 300.612 442.767V442.714C300.612 442.152 300.435 441.717 300.08 441.409C299.731 441.101 299.233 440.947 298.588 440.947C297.908 440.947 297.366 441.098 296.964 441.4C296.561 441.696 296.295 442.069 296.165 442.518L292.667 442.234C292.844 441.406 293.194 440.69 293.714 440.086C294.235 439.476 294.907 439.009 295.73 438.683C296.558 438.352 297.517 438.186 298.606 438.186C299.364 438.186 300.089 438.275 300.781 438.452C301.48 438.63 302.098 438.905 302.637 439.278C303.181 439.651 303.61 440.13 303.924 440.716C304.238 441.296 304.394 441.992 304.394 442.803V452H300.808V450.109H300.701C300.482 450.535 300.189 450.911 299.822 451.237C299.455 451.556 299.014 451.808 298.5 451.991C297.985 452.169 297.39 452.257 296.715 452.257ZM297.798 449.647C298.355 449.647 298.846 449.538 299.272 449.319C299.698 449.094 300.032 448.792 300.275 448.413C300.518 448.035 300.639 447.605 300.639 447.126V445.679C300.521 445.756 300.358 445.827 300.151 445.892C299.95 445.951 299.722 446.007 299.467 446.061C299.213 446.108 298.958 446.152 298.704 446.194C298.449 446.229 298.218 446.262 298.011 446.292C297.567 446.357 297.18 446.46 296.848 446.602C296.517 446.744 296.259 446.937 296.076 447.179C295.892 447.416 295.801 447.712 295.801 448.067C295.801 448.582 295.987 448.976 296.36 449.248C296.739 449.514 297.218 449.647 297.798 449.647ZM307.329 457.114V438.364H311.057V440.654H311.226C311.392 440.287 311.631 439.914 311.945 439.536C312.265 439.151 312.679 438.831 313.188 438.577C313.703 438.316 314.342 438.186 315.106 438.186C316.1 438.186 317.017 438.446 317.858 438.967C318.698 439.482 319.37 440.261 319.873 441.302C320.376 442.338 320.628 443.637 320.628 445.2C320.628 446.721 320.382 448.005 319.891 449.053C319.405 450.094 318.743 450.884 317.902 451.423C317.068 451.956 316.132 452.222 315.097 452.222C314.363 452.222 313.738 452.101 313.223 451.858C312.714 451.615 312.297 451.31 311.972 450.944C311.646 450.571 311.398 450.195 311.226 449.816H311.111V457.114H307.329ZM311.031 445.182C311.031 445.993 311.143 446.7 311.368 447.304C311.593 447.907 311.918 448.378 312.345 448.715C312.771 449.047 313.289 449.212 313.898 449.212C314.514 449.212 315.035 449.044 315.461 448.706C315.887 448.363 316.209 447.89 316.428 447.286C316.653 446.676 316.766 445.975 316.766 445.182C316.766 444.395 316.656 443.702 316.437 443.104C316.218 442.507 315.896 442.039 315.47 441.702C315.043 441.364 314.52 441.196 313.898 441.196C313.283 441.196 312.762 441.358 312.336 441.684C311.915 442.009 311.593 442.471 311.368 443.069C311.143 443.667 311.031 444.371 311.031 445.182ZM329.31 452.266C327.931 452.266 326.738 451.973 325.732 451.387C324.732 450.796 323.96 449.973 323.415 448.919C322.871 447.86 322.598 446.632 322.598 445.235C322.598 443.826 322.871 442.595 323.415 441.542C323.96 440.482 324.732 439.66 325.732 439.074C326.738 438.482 327.931 438.186 329.31 438.186C330.689 438.186 331.879 438.482 332.879 439.074C333.885 439.66 334.66 440.482 335.205 441.542C335.749 442.595 336.022 443.826 336.022 445.235C336.022 446.632 335.749 447.86 335.205 448.919C334.66 449.973 333.885 450.796 332.879 451.387C331.879 451.973 330.689 452.266 329.31 452.266ZM329.328 449.337C329.955 449.337 330.479 449.159 330.899 448.804C331.319 448.443 331.636 447.952 331.849 447.33C332.068 446.709 332.178 446.002 332.178 445.208C332.178 444.415 332.068 443.708 331.849 443.087C331.636 442.465 331.319 441.974 330.899 441.613C330.479 441.252 329.955 441.071 329.328 441.071C328.695 441.071 328.162 441.252 327.73 441.613C327.304 441.974 326.981 442.465 326.762 443.087C326.549 443.708 326.443 444.415 326.443 445.208C326.443 446.002 326.549 446.709 326.762 447.33C326.981 447.952 327.304 448.443 327.73 448.804C328.162 449.159 328.695 449.337 329.328 449.337ZM342.263 433.818V452H338.481V433.818H342.263ZM345.292 452V438.364H349.074V452H345.292ZM347.192 436.606C346.63 436.606 346.148 436.419 345.745 436.047C345.349 435.668 345.15 435.215 345.15 434.688C345.15 434.167 345.349 433.721 345.745 433.348C346.148 432.969 346.63 432.779 347.192 432.779C347.755 432.779 348.234 432.969 348.631 433.348C349.033 433.721 349.234 434.167 349.234 434.688C349.234 435.215 349.033 435.668 348.631 436.047C348.234 436.419 347.755 436.606 347.192 436.606ZM363.45 442.252L359.987 442.465C359.928 442.169 359.801 441.903 359.606 441.666C359.41 441.424 359.153 441.231 358.833 441.089C358.52 440.941 358.144 440.867 357.706 440.867C357.12 440.867 356.626 440.991 356.223 441.24C355.821 441.483 355.62 441.808 355.62 442.217C355.62 442.542 355.75 442.817 356.01 443.042C356.271 443.267 356.717 443.448 357.351 443.584L359.819 444.081C361.145 444.353 362.133 444.791 362.784 445.395C363.435 445.999 363.761 446.792 363.761 447.774C363.761 448.668 363.497 449.452 362.97 450.127C362.45 450.801 361.733 451.328 360.822 451.707C359.916 452.08 358.872 452.266 357.688 452.266C355.883 452.266 354.445 451.891 353.373 451.139C352.308 450.381 351.684 449.351 351.5 448.049L355.22 447.854C355.333 448.404 355.605 448.825 356.037 449.115C356.469 449.399 357.022 449.541 357.697 449.541C358.36 449.541 358.893 449.414 359.295 449.159C359.703 448.899 359.911 448.564 359.916 448.156C359.911 447.813 359.766 447.531 359.481 447.312C359.197 447.088 358.759 446.916 358.168 446.798L355.806 446.327C354.474 446.061 353.483 445.599 352.832 444.942C352.187 444.285 351.864 443.448 351.864 442.43C351.864 441.554 352.101 440.799 352.574 440.166C353.054 439.533 353.726 439.044 354.59 438.701C355.46 438.358 356.478 438.186 357.644 438.186C359.366 438.186 360.721 438.55 361.71 439.278C362.704 440.006 363.284 440.997 363.45 442.252Z" fill="black"/>
<path d="M324.202 243V224.818H335.104V226.771H326.403V232.915H334.287V234.868H326.403V243H324.202ZM343.129 243.284C341.898 243.284 340.818 242.991 339.889 242.405C338.966 241.819 338.243 241 337.723 239.946C337.208 238.893 336.95 237.661 336.95 236.253C336.95 234.832 337.208 233.592 337.723 232.533C338.243 231.474 338.966 230.651 339.889 230.065C340.818 229.479 341.898 229.186 343.129 229.186C344.36 229.186 345.438 229.479 346.361 230.065C347.29 230.651 348.012 231.474 348.527 232.533C349.048 233.592 349.308 234.832 349.308 236.253C349.308 237.661 349.048 238.893 348.527 239.946C348.012 241 347.29 241.819 346.361 242.405C345.438 242.991 344.36 243.284 343.129 243.284ZM343.129 241.402C344.064 241.402 344.834 241.162 345.438 240.683C346.041 240.203 346.488 239.573 346.778 238.792C347.068 238.011 347.213 237.164 347.213 236.253C347.213 235.341 347.068 234.492 346.778 233.705C346.488 232.918 346.041 232.281 345.438 231.796C344.834 231.311 344.064 231.068 343.129 231.068C342.194 231.068 341.425 231.311 340.821 231.796C340.217 232.281 339.77 232.918 339.48 233.705C339.19 234.492 339.045 235.341 339.045 236.253C339.045 237.164 339.19 238.011 339.48 238.792C339.77 239.573 340.217 240.203 340.821 240.683C341.425 241.162 342.194 241.402 343.129 241.402ZM352.506 243V229.364H354.531V231.423H354.673C354.921 230.749 355.371 230.201 356.022 229.781C356.673 229.361 357.407 229.151 358.224 229.151C358.378 229.151 358.57 229.154 358.801 229.159C359.032 229.165 359.206 229.174 359.325 229.186V231.317C359.254 231.299 359.091 231.272 358.836 231.237C358.588 231.195 358.324 231.175 358.046 231.175C357.383 231.175 356.792 231.314 356.271 231.592C355.756 231.864 355.347 232.243 355.046 232.728C354.75 233.208 354.602 233.755 354.602 234.371V243H352.506ZM368.593 229.364V231.139H361.526V229.364H368.593ZM363.586 226.097H365.681V239.094C365.681 239.686 365.767 240.129 365.939 240.425C366.116 240.715 366.341 240.911 366.613 241.011C366.892 241.106 367.185 241.153 367.492 241.153C367.723 241.153 367.912 241.142 368.06 241.118C368.208 241.088 368.327 241.065 368.416 241.047L368.842 242.929C368.7 242.982 368.501 243.036 368.247 243.089C367.992 243.148 367.67 243.178 367.279 243.178C366.687 243.178 366.107 243.05 365.539 242.796C364.977 242.541 364.509 242.154 364.136 241.633C363.77 241.112 363.586 240.455 363.586 239.662V226.097ZM382.363 243L377.391 224.818H379.628L383.428 239.626H383.606L387.476 224.818H389.962L393.833 239.626H394.01L397.81 224.818H400.047L395.076 243H392.803L388.79 228.511H388.648L384.635 243H382.363ZM405.25 243.32C404.386 243.32 403.601 243.157 402.897 242.831C402.193 242.5 401.633 242.023 401.219 241.402C400.805 240.775 400.598 240.017 400.598 239.129C400.598 238.348 400.752 237.715 401.059 237.229C401.367 236.738 401.778 236.353 402.293 236.075C402.808 235.797 403.377 235.59 403.998 235.454C404.625 235.312 405.256 235.199 405.889 235.116C406.718 235.01 407.389 234.93 407.904 234.877C408.425 234.818 408.804 234.72 409.041 234.584C409.283 234.448 409.405 234.211 409.405 233.874V233.803C409.405 232.927 409.165 232.246 408.685 231.761C408.212 231.275 407.493 231.033 406.528 231.033C405.528 231.033 404.744 231.252 404.176 231.69C403.607 232.128 403.208 232.595 402.977 233.092L400.988 232.382C401.343 231.554 401.817 230.908 402.409 230.447C403.007 229.979 403.658 229.654 404.362 229.47C405.072 229.281 405.771 229.186 406.457 229.186C406.895 229.186 407.398 229.239 407.966 229.346C408.54 229.446 409.094 229.657 409.627 229.976C410.165 230.296 410.612 230.778 410.967 231.423C411.322 232.068 411.5 232.933 411.5 234.016V243H409.405V241.153H409.298C409.156 241.449 408.919 241.766 408.588 242.103C408.256 242.441 407.815 242.728 407.265 242.964C406.715 243.201 406.043 243.32 405.25 243.32ZM405.569 241.438C406.398 241.438 407.096 241.275 407.665 240.949C408.239 240.624 408.671 240.203 408.961 239.689C409.257 239.174 409.405 238.632 409.405 238.064V236.146C409.316 236.253 409.12 236.35 408.819 236.439C408.523 236.522 408.179 236.596 407.789 236.661C407.404 236.72 407.028 236.774 406.661 236.821C406.3 236.862 406.007 236.898 405.782 236.928C405.238 236.999 404.729 237.114 404.255 237.274C403.788 237.428 403.409 237.661 403.119 237.975C402.835 238.283 402.693 238.703 402.693 239.236C402.693 239.964 402.962 240.514 403.501 240.887C404.045 241.254 404.735 241.438 405.569 241.438ZM416.185 248.114C415.83 248.114 415.513 248.084 415.235 248.025C414.957 247.972 414.765 247.918 414.658 247.865L415.191 246.018C415.7 246.149 416.15 246.196 416.54 246.161C416.931 246.125 417.277 245.95 417.579 245.637C417.887 245.329 418.168 244.829 418.422 244.136L418.813 243.071L413.77 229.364H416.043L419.807 240.23H419.949L423.713 229.364H425.986L420.198 244.989C419.937 245.693 419.615 246.276 419.23 246.738C418.845 247.205 418.399 247.551 417.89 247.776C417.386 248.001 416.818 248.114 416.185 248.114ZM430.847 234.797V243H428.752V229.364H430.776V231.494H430.953C431.273 230.802 431.758 230.246 432.409 229.825C433.06 229.399 433.901 229.186 434.931 229.186C435.854 229.186 436.662 229.375 437.354 229.754C438.047 230.127 438.585 230.695 438.97 231.459C439.355 232.216 439.547 233.175 439.547 234.335V243H437.452V234.477C437.452 233.406 437.174 232.571 436.617 231.974C436.061 231.37 435.298 231.068 434.327 231.068C433.658 231.068 433.06 231.213 432.534 231.503C432.013 231.793 431.601 232.216 431.3 232.773C430.998 233.329 430.847 234.004 430.847 234.797ZM449.093 243.284C447.779 243.284 446.646 242.994 445.693 242.414C444.746 241.828 444.015 241.011 443.5 239.964C442.991 238.91 442.736 237.685 442.736 236.288C442.736 234.892 442.991 233.661 443.5 232.595C444.015 231.524 444.731 230.689 445.648 230.092C446.572 229.488 447.649 229.186 448.88 229.186C449.59 229.186 450.291 229.304 450.984 229.541C451.676 229.778 452.307 230.163 452.875 230.695C453.443 231.222 453.896 231.92 454.233 232.79C454.571 233.661 454.739 234.732 454.739 236.004V236.892H444.228V235.081H452.609C452.609 234.312 452.455 233.625 452.147 233.021C451.845 232.418 451.413 231.941 450.851 231.592C450.294 231.243 449.637 231.068 448.88 231.068C448.045 231.068 447.323 231.275 446.714 231.69C446.11 232.098 445.645 232.631 445.32 233.288C444.994 233.945 444.832 234.649 444.832 235.401V236.608C444.832 237.638 445.009 238.511 445.364 239.227C445.725 239.937 446.225 240.479 446.865 240.852C447.504 241.219 448.247 241.402 449.093 241.402C449.643 241.402 450.141 241.325 450.584 241.171C451.034 241.011 451.422 240.775 451.747 240.461C452.073 240.141 452.324 239.745 452.502 239.271L454.526 239.839C454.313 240.526 453.955 241.13 453.452 241.651C452.949 242.165 452.327 242.568 451.588 242.858C450.848 243.142 450.016 243.284 449.093 243.284Z" fill="black"/>
<path d="M155.202 298V279.818H157.403V296.047H165.855V298H155.202ZM172.993 298.32C172.129 298.32 171.345 298.157 170.64 297.831C169.936 297.5 169.377 297.023 168.962 296.402C168.548 295.775 168.341 295.017 168.341 294.129C168.341 293.348 168.495 292.715 168.803 292.229C169.11 291.738 169.522 291.353 170.037 291.075C170.551 290.797 171.12 290.59 171.741 290.454C172.368 290.312 172.999 290.199 173.632 290.116C174.461 290.01 175.132 289.93 175.647 289.877C176.168 289.818 176.547 289.72 176.784 289.584C177.026 289.448 177.148 289.211 177.148 288.874V288.803C177.148 287.927 176.908 287.246 176.429 286.761C175.955 286.275 175.236 286.033 174.271 286.033C173.271 286.033 172.487 286.252 171.919 286.69C171.35 287.128 170.951 287.595 170.72 288.092L168.732 287.382C169.087 286.554 169.56 285.908 170.152 285.447C170.75 284.979 171.401 284.654 172.105 284.47C172.815 284.281 173.514 284.186 174.2 284.186C174.638 284.186 175.141 284.239 175.71 284.346C176.284 284.446 176.837 284.657 177.37 284.976C177.908 285.296 178.355 285.778 178.71 286.423C179.065 287.068 179.243 287.933 179.243 289.016V298H177.148V296.153H177.041C176.899 296.449 176.662 296.766 176.331 297.103C176 297.441 175.559 297.728 175.008 297.964C174.458 298.201 173.786 298.32 172.993 298.32ZM173.312 296.438C174.141 296.438 174.839 296.275 175.408 295.949C175.982 295.624 176.414 295.203 176.704 294.689C177 294.174 177.148 293.632 177.148 293.064V291.146C177.059 291.253 176.864 291.35 176.562 291.439C176.266 291.522 175.923 291.596 175.532 291.661C175.147 291.72 174.771 291.774 174.404 291.821C174.043 291.862 173.75 291.898 173.526 291.928C172.981 291.999 172.472 292.114 171.999 292.274C171.531 292.428 171.152 292.661 170.862 292.975C170.578 293.283 170.436 293.703 170.436 294.236C170.436 294.964 170.705 295.514 171.244 295.887C171.788 296.254 172.478 296.438 173.312 296.438ZM189.139 284.364V286.139H181.789V284.364H189.139ZM183.99 298V282.482C183.99 281.7 184.174 281.049 184.541 280.528C184.908 280.008 185.384 279.617 185.97 279.357C186.556 279.096 187.175 278.966 187.826 278.966C188.34 278.966 188.761 279.007 189.086 279.09C189.412 279.173 189.654 279.25 189.814 279.321L189.21 281.132C189.104 281.097 188.956 281.052 188.767 280.999C188.583 280.946 188.34 280.919 188.039 280.919C187.346 280.919 186.846 281.094 186.538 281.443C186.236 281.792 186.085 282.304 186.085 282.979V298H183.99ZM195.698 298.32C194.834 298.32 194.05 298.157 193.345 297.831C192.641 297.5 192.082 297.023 191.667 296.402C191.253 295.775 191.046 295.017 191.046 294.129C191.046 293.348 191.2 292.715 191.508 292.229C191.815 291.738 192.227 291.353 192.742 291.075C193.257 290.797 193.825 290.59 194.446 290.454C195.074 290.312 195.704 290.199 196.337 290.116C197.166 290.01 197.838 289.93 198.352 289.877C198.873 289.818 199.252 289.72 199.489 289.584C199.731 289.448 199.853 289.211 199.853 288.874V288.803C199.853 287.927 199.613 287.246 199.134 286.761C198.66 286.275 197.941 286.033 196.976 286.033C195.976 286.033 195.192 286.252 194.624 286.69C194.056 287.128 193.656 287.595 193.425 288.092L191.437 287.382C191.792 286.554 192.265 285.908 192.857 285.447C193.455 284.979 194.106 284.654 194.81 284.47C195.52 284.281 196.219 284.186 196.905 284.186C197.343 284.186 197.846 284.239 198.415 284.346C198.989 284.446 199.542 284.657 200.075 284.976C200.613 285.296 201.06 285.778 201.415 286.423C201.77 287.068 201.948 287.933 201.948 289.016V298H199.853V296.153H199.746C199.604 296.449 199.367 296.766 199.036 297.103C198.705 297.441 198.264 297.728 197.713 297.964C197.163 298.201 196.491 298.32 195.698 298.32ZM196.018 296.438C196.846 296.438 197.545 296.275 198.113 295.949C198.687 295.624 199.119 295.203 199.409 294.689C199.705 294.174 199.853 293.632 199.853 293.064V291.146C199.764 291.253 199.569 291.35 199.267 291.439C198.971 291.522 198.628 291.596 198.237 291.661C197.852 291.72 197.477 291.774 197.11 291.821C196.749 291.862 196.456 291.898 196.231 291.928C195.686 291.999 195.177 292.114 194.704 292.274C194.236 292.428 193.857 292.661 193.567 292.975C193.283 293.283 193.141 293.703 193.141 294.236C193.141 294.964 193.41 295.514 193.949 295.887C194.494 296.254 195.183 296.438 196.018 296.438ZM206.633 303.114C206.278 303.114 205.961 303.084 205.683 303.025C205.405 302.972 205.213 302.918 205.106 302.865L205.639 301.018C206.148 301.149 206.598 301.196 206.988 301.161C207.379 301.125 207.725 300.95 208.027 300.637C208.335 300.329 208.616 299.829 208.87 299.136L209.261 298.071L204.218 284.364H206.491L210.255 295.23H210.397L214.162 284.364H216.434L210.646 299.989C210.386 300.693 210.063 301.276 209.678 301.738C209.294 302.205 208.847 302.551 208.338 302.776C207.835 303.001 207.267 303.114 206.633 303.114ZM224.429 298.284C223.115 298.284 221.982 297.994 221.029 297.414C220.082 296.828 219.351 296.011 218.836 294.964C218.327 293.91 218.072 292.685 218.072 291.288C218.072 289.892 218.327 288.661 218.836 287.595C219.351 286.524 220.067 285.689 220.984 285.092C221.908 284.488 222.985 284.186 224.216 284.186C224.926 284.186 225.627 284.304 226.32 284.541C227.012 284.778 227.643 285.163 228.211 285.695C228.779 286.222 229.232 286.92 229.569 287.79C229.907 288.661 230.075 289.732 230.075 291.004V291.892H219.564V290.081H227.945C227.945 289.312 227.791 288.625 227.483 288.021C227.181 287.418 226.749 286.941 226.187 286.592C225.63 286.243 224.973 286.068 224.216 286.068C223.381 286.068 222.659 286.275 222.05 286.69C221.446 287.098 220.981 287.631 220.656 288.288C220.33 288.945 220.168 289.649 220.168 290.401V291.608C220.168 292.638 220.345 293.511 220.7 294.227C221.061 294.937 221.561 295.479 222.201 295.852C222.84 296.219 223.583 296.402 224.429 296.402C224.979 296.402 225.476 296.325 225.92 296.171C226.37 296.011 226.758 295.775 227.083 295.461C227.409 295.141 227.66 294.745 227.838 294.271L229.862 294.839C229.649 295.526 229.291 296.13 228.788 296.651C228.285 297.165 227.663 297.568 226.924 297.858C226.184 298.142 225.352 298.284 224.429 298.284ZM239.193 284.364V286.139H232.126V284.364H239.193ZM234.186 281.097H236.281V294.094C236.281 294.686 236.367 295.129 236.538 295.425C236.716 295.715 236.941 295.911 237.213 296.011C237.491 296.106 237.784 296.153 238.092 296.153C238.323 296.153 238.512 296.142 238.66 296.118C238.808 296.088 238.926 296.065 239.015 296.047L239.441 297.929C239.299 297.982 239.101 298.036 238.847 298.089C238.592 298.148 238.269 298.178 237.879 298.178C237.287 298.178 236.707 298.05 236.139 297.796C235.576 297.541 235.109 297.154 234.736 296.633C234.369 296.112 234.186 295.455 234.186 294.662V281.097ZM248.275 284.364V286.139H241.208V284.364H248.275ZM243.268 281.097H245.363V294.094C245.363 294.686 245.449 295.129 245.62 295.425C245.798 295.715 246.023 295.911 246.295 296.011C246.573 296.106 246.866 296.153 247.174 296.153C247.405 296.153 247.594 296.142 247.742 296.118C247.89 296.088 248.008 296.065 248.097 296.047L248.523 297.929C248.381 297.982 248.183 298.036 247.929 298.089C247.674 298.148 247.351 298.178 246.961 298.178C246.369 298.178 245.789 298.05 245.221 297.796C244.659 297.541 244.191 297.154 243.818 296.633C243.451 296.112 243.268 295.455 243.268 294.662V281.097ZM256.997 298.284C255.683 298.284 254.55 297.994 253.597 297.414C252.65 296.828 251.919 296.011 251.404 294.964C250.895 293.91 250.641 292.685 250.641 291.288C250.641 289.892 250.895 288.661 251.404 287.595C251.919 286.524 252.635 285.689 253.553 285.092C254.476 284.488 255.553 284.186 256.784 284.186C257.494 284.186 258.196 284.304 258.888 284.541C259.581 284.778 260.211 285.163 260.779 285.695C261.347 286.222 261.8 286.92 262.138 287.79C262.475 288.661 262.644 289.732 262.644 291.004V291.892H252.132V290.081H260.513C260.513 289.312 260.359 288.625 260.051 288.021C259.749 287.418 259.317 286.941 258.755 286.592C258.199 286.243 257.542 286.068 256.784 286.068C255.95 286.068 255.228 286.275 254.618 286.69C254.014 287.098 253.55 287.631 253.224 288.288C252.899 288.945 252.736 289.649 252.736 290.401V291.608C252.736 292.638 252.913 293.511 253.269 294.227C253.63 294.937 254.13 295.479 254.769 295.852C255.408 296.219 256.151 296.402 256.997 296.402C257.548 296.402 258.045 296.325 258.489 296.171C258.939 296.011 259.326 295.775 259.652 295.461C259.977 295.141 260.229 294.745 260.406 294.271L262.43 294.839C262.217 295.526 261.859 296.13 261.356 296.651C260.853 297.165 260.232 297.568 259.492 297.858C258.752 298.142 257.921 298.284 256.997 298.284Z" fill="black"/>
<path d="M228.145 134.364C228.038 133.464 227.606 132.766 226.849 132.268C226.091 131.771 225.162 131.523 224.061 131.523C223.256 131.523 222.552 131.653 221.948 131.913C221.35 132.174 220.883 132.532 220.545 132.988C220.214 133.443 220.048 133.961 220.048 134.541C220.048 135.027 220.164 135.444 220.395 135.793C220.631 136.136 220.933 136.423 221.3 136.654C221.667 136.879 222.052 137.065 222.454 137.213C222.857 137.355 223.227 137.471 223.564 137.56L225.411 138.057C225.884 138.181 226.411 138.353 226.991 138.572C227.577 138.791 228.136 139.09 228.669 139.468C229.207 139.841 229.651 140.321 230 140.907C230.35 141.493 230.524 142.212 230.524 143.064C230.524 144.046 230.267 144.934 229.752 145.727C229.243 146.52 228.497 147.151 227.515 147.618C226.538 148.086 225.351 148.32 223.955 148.32C222.652 148.32 221.525 148.109 220.572 147.689C219.625 147.269 218.879 146.683 218.335 145.931C217.796 145.18 217.491 144.307 217.42 143.312H219.693C219.752 143.999 219.983 144.567 220.386 145.017C220.794 145.461 221.309 145.792 221.93 146.011C222.558 146.224 223.232 146.331 223.955 146.331C224.795 146.331 225.55 146.195 226.218 145.923C226.887 145.644 227.417 145.26 227.808 144.768C228.198 144.271 228.393 143.691 228.393 143.028C228.393 142.425 228.225 141.933 227.887 141.555C227.55 141.176 227.106 140.868 226.556 140.631C226.005 140.395 225.411 140.187 224.771 140.01L222.534 139.371C221.114 138.962 219.989 138.379 219.161 137.622C218.332 136.864 217.918 135.873 217.918 134.648C217.918 133.63 218.193 132.742 218.743 131.984C219.3 131.221 220.045 130.629 220.98 130.209C221.922 129.783 222.972 129.57 224.132 129.57C225.304 129.57 226.346 129.78 227.257 130.2C228.169 130.614 228.891 131.182 229.423 131.904C229.962 132.627 230.246 133.446 230.276 134.364H228.145ZM239.4 148.284C238.169 148.284 237.089 147.991 236.159 147.405C235.236 146.819 234.514 146 233.993 144.946C233.478 143.893 233.221 142.661 233.221 141.253C233.221 139.832 233.478 138.592 233.993 137.533C234.514 136.474 235.236 135.651 236.159 135.065C237.089 134.479 238.169 134.186 239.4 134.186C240.631 134.186 241.708 134.479 242.631 135.065C243.561 135.651 244.283 136.474 244.797 137.533C245.318 138.592 245.579 139.832 245.579 141.253C245.579 142.661 245.318 143.893 244.797 144.946C244.283 146 243.561 146.819 242.631 147.405C241.708 147.991 240.631 148.284 239.4 148.284ZM239.4 146.402C240.335 146.402 241.104 146.162 241.708 145.683C242.312 145.203 242.759 144.573 243.049 143.792C243.339 143.011 243.484 142.164 243.484 141.253C243.484 140.341 243.339 139.492 243.049 138.705C242.759 137.918 242.312 137.281 241.708 136.796C241.104 136.311 240.335 136.068 239.4 136.068C238.465 136.068 237.695 136.311 237.092 136.796C236.488 137.281 236.041 137.918 235.751 138.705C235.461 139.492 235.316 140.341 235.316 141.253C235.316 142.164 235.461 143.011 235.751 143.792C236.041 144.573 236.488 145.203 237.092 145.683C237.695 146.162 238.465 146.402 239.4 146.402ZM257.371 142.425V134.364H259.466V148H257.371V145.692H257.229C256.909 146.384 256.412 146.973 255.737 147.458C255.063 147.938 254.21 148.178 253.18 148.178C252.328 148.178 251.571 147.991 250.908 147.618C250.245 147.239 249.724 146.671 249.345 145.914C248.966 145.15 248.777 144.188 248.777 143.028V134.364H250.872V142.886C250.872 143.881 251.15 144.674 251.707 145.266C252.269 145.857 252.985 146.153 253.855 146.153C254.376 146.153 254.906 146.02 255.444 145.754C255.989 145.488 256.444 145.079 256.811 144.529C257.184 143.978 257.371 143.277 257.371 142.425ZM269.234 134.364V136.139H262.167V134.364H269.234ZM264.227 131.097H266.322V144.094C266.322 144.686 266.408 145.129 266.579 145.425C266.757 145.715 266.982 145.911 267.254 146.011C267.532 146.106 267.825 146.153 268.133 146.153C268.364 146.153 268.553 146.142 268.701 146.118C268.849 146.088 268.967 146.065 269.056 146.047L269.482 147.929C269.34 147.982 269.142 148.036 268.888 148.089C268.633 148.148 268.31 148.178 267.92 148.178C267.328 148.178 266.748 148.05 266.18 147.796C265.618 147.541 265.15 147.154 264.777 146.633C264.41 146.112 264.227 145.455 264.227 144.662V131.097ZM274.774 139.797V148H272.678V129.818H274.774V136.494H274.951C275.271 135.79 275.75 135.231 276.389 134.816C277.034 134.396 277.893 134.186 278.964 134.186C279.893 134.186 280.707 134.373 281.405 134.745C282.104 135.112 282.645 135.678 283.03 136.441C283.421 137.199 283.616 138.163 283.616 139.335V148H281.521V139.477C281.521 138.394 281.24 137.557 280.677 136.965C280.121 136.367 279.349 136.068 278.36 136.068C277.674 136.068 277.058 136.213 276.514 136.503C275.975 136.793 275.549 137.216 275.235 137.773C274.927 138.329 274.774 139.004 274.774 139.797ZM294.764 148V129.818H301.121C302.387 129.818 303.432 130.037 304.255 130.475C305.077 130.907 305.69 131.49 306.092 132.224C306.495 132.952 306.696 133.76 306.696 134.648C306.696 135.429 306.557 136.074 306.279 136.583C306.007 137.092 305.645 137.495 305.196 137.79C304.752 138.086 304.269 138.305 303.749 138.447V138.625C304.305 138.661 304.864 138.856 305.426 139.211C305.989 139.566 306.459 140.075 306.838 140.738C307.217 141.401 307.406 142.212 307.406 143.17C307.406 144.082 307.199 144.902 306.785 145.63C306.371 146.358 305.717 146.935 304.823 147.361C303.929 147.787 302.766 148 301.334 148H294.764ZM296.966 146.047H301.334C302.772 146.047 303.793 145.769 304.397 145.212C305.006 144.65 305.311 143.969 305.311 143.17C305.311 142.555 305.154 141.987 304.841 141.466C304.527 140.939 304.08 140.519 303.5 140.205C302.92 139.886 302.233 139.726 301.44 139.726H296.966V146.047ZM296.966 137.808H301.05C301.713 137.808 302.31 137.678 302.843 137.418C303.382 137.157 303.808 136.79 304.121 136.317C304.441 135.843 304.601 135.287 304.601 134.648C304.601 133.849 304.323 133.171 303.766 132.615C303.21 132.052 302.328 131.771 301.121 131.771H296.966V137.808ZM316.457 148.284C315.143 148.284 314.01 147.994 313.057 147.414C312.11 146.828 311.379 146.011 310.864 144.964C310.355 143.91 310.101 142.685 310.101 141.288C310.101 139.892 310.355 138.661 310.864 137.595C311.379 136.524 312.095 135.689 313.013 135.092C313.936 134.488 315.013 134.186 316.244 134.186C316.954 134.186 317.656 134.304 318.348 134.541C319.041 134.778 319.671 135.163 320.239 135.695C320.807 136.222 321.26 136.92 321.597 137.79C321.935 138.661 322.104 139.732 322.104 141.004V141.892H311.592V140.081H319.973C319.973 139.312 319.819 138.625 319.511 138.021C319.209 137.418 318.777 136.941 318.215 136.592C317.659 136.243 317.002 136.068 316.244 136.068C315.41 136.068 314.688 136.275 314.078 136.69C313.474 137.098 313.01 137.631 312.684 138.288C312.359 138.945 312.196 139.649 312.196 140.401V141.608C312.196 142.638 312.373 143.511 312.729 144.227C313.09 144.937 313.59 145.479 314.229 145.852C314.868 146.219 315.611 146.402 316.457 146.402C317.008 146.402 317.505 146.325 317.949 146.171C318.398 146.011 318.786 145.775 319.112 145.461C319.437 145.141 319.689 144.745 319.866 144.271L321.89 144.839C321.677 145.526 321.319 146.13 320.816 146.651C320.313 147.165 319.692 147.568 318.952 147.858C318.212 148.142 317.381 148.284 316.457 148.284ZM327.386 139.797V148H325.291V134.364H327.315V136.494H327.492C327.812 135.802 328.297 135.246 328.948 134.825C329.599 134.399 330.44 134.186 331.47 134.186C332.393 134.186 333.201 134.375 333.893 134.754C334.586 135.127 335.124 135.695 335.509 136.459C335.894 137.216 336.086 138.175 336.086 139.335V148H333.991V139.477C333.991 138.406 333.713 137.571 333.156 136.974C332.6 136.37 331.837 136.068 330.866 136.068C330.197 136.068 329.599 136.213 329.073 136.503C328.552 136.793 328.14 137.216 327.839 137.773C327.537 138.329 327.386 139.004 327.386 139.797ZM345.064 148.284C343.927 148.284 342.924 147.997 342.054 147.423C341.184 146.843 340.504 146.026 340.012 144.973C339.521 143.913 339.275 142.661 339.275 141.217C339.275 139.785 339.521 138.542 340.012 137.489C340.504 136.435 341.187 135.621 342.063 135.047C342.939 134.473 343.951 134.186 345.099 134.186C345.987 134.186 346.688 134.334 347.203 134.63C347.724 134.92 348.121 135.251 348.393 135.624C348.671 135.991 348.887 136.293 349.041 136.53H349.219V129.818H351.314V148H349.29V145.905H349.041C348.887 146.153 348.668 146.467 348.384 146.846C348.1 147.219 347.695 147.553 347.168 147.849C346.641 148.139 345.94 148.284 345.064 148.284ZM345.348 146.402C346.188 146.402 346.899 146.183 347.479 145.745C348.059 145.301 348.5 144.689 348.801 143.907C349.103 143.12 349.254 142.212 349.254 141.182C349.254 140.164 349.106 139.273 348.81 138.51C348.514 137.74 348.076 137.142 347.496 136.716C346.916 136.284 346.2 136.068 345.348 136.068C344.46 136.068 343.72 136.296 343.128 136.752C342.543 137.202 342.102 137.814 341.806 138.589C341.516 139.359 341.371 140.223 341.371 141.182C341.371 142.152 341.519 143.034 341.815 143.827C342.116 144.615 342.56 145.242 343.146 145.71C343.738 146.171 344.472 146.402 345.348 146.402Z" fill="black"/>
<path d="M268.832 357.5H266.631C266.5 356.867 266.273 356.31 265.947 355.831C265.627 355.352 265.237 354.949 264.775 354.624C264.319 354.292 263.813 354.044 263.257 353.878C262.701 353.712 262.121 353.629 261.517 353.629C260.416 353.629 259.419 353.907 258.525 354.464C257.637 355.02 256.93 355.84 256.403 356.923C255.883 358.006 255.622 359.335 255.622 360.909C255.622 362.483 255.883 363.812 256.403 364.895C256.93 365.978 257.637 366.798 258.525 367.354C259.419 367.911 260.416 368.189 261.517 368.189C262.121 368.189 262.701 368.106 263.257 367.94C263.813 367.775 264.319 367.529 264.775 367.203C265.237 366.872 265.627 366.467 265.947 365.987C266.273 365.502 266.5 364.946 266.631 364.318H268.832C268.667 365.247 268.365 366.079 267.927 366.813C267.489 367.547 266.944 368.171 266.293 368.686C265.642 369.195 264.911 369.583 264.1 369.849C263.296 370.115 262.434 370.249 261.517 370.249C259.966 370.249 258.587 369.87 257.38 369.112C256.173 368.355 255.223 367.277 254.53 365.881C253.838 364.484 253.491 362.827 253.491 360.909C253.491 358.991 253.838 357.334 254.53 355.938C255.223 354.541 256.173 353.464 257.38 352.706C258.587 351.948 259.966 351.57 261.517 351.57C262.434 351.57 263.296 351.703 264.1 351.969C264.911 352.235 265.642 352.626 266.293 353.141C266.944 353.65 267.489 354.271 267.927 355.005C268.365 355.733 268.667 356.565 268.832 357.5ZM276.119 370.32C275.255 370.32 274.471 370.157 273.766 369.831C273.062 369.5 272.503 369.023 272.088 368.402C271.674 367.775 271.467 367.017 271.467 366.129C271.467 365.348 271.621 364.715 271.929 364.229C272.236 363.738 272.648 363.353 273.163 363.075C273.677 362.797 274.246 362.59 274.867 362.454C275.494 362.312 276.125 362.199 276.758 362.116C277.587 362.01 278.258 361.93 278.773 361.877C279.294 361.818 279.673 361.72 279.91 361.584C280.152 361.448 280.274 361.211 280.274 360.874V360.803C280.274 359.927 280.034 359.246 279.555 358.761C279.081 358.275 278.362 358.033 277.397 358.033C276.397 358.033 275.613 358.252 275.045 358.69C274.476 359.128 274.077 359.595 273.846 360.092L271.858 359.382C272.213 358.554 272.686 357.908 273.278 357.447C273.876 356.979 274.527 356.654 275.231 356.47C275.941 356.281 276.64 356.186 277.326 356.186C277.764 356.186 278.267 356.239 278.835 356.346C279.41 356.446 279.963 356.657 280.496 356.976C281.034 357.296 281.481 357.778 281.836 358.423C282.191 359.068 282.369 359.933 282.369 361.016V370H280.274V368.153H280.167C280.025 368.449 279.788 368.766 279.457 369.103C279.126 369.441 278.685 369.728 278.134 369.964C277.584 370.201 276.912 370.32 276.119 370.32ZM276.438 368.438C277.267 368.438 277.965 368.275 278.534 367.949C279.108 367.624 279.54 367.203 279.83 366.689C280.126 366.174 280.274 365.632 280.274 365.064V363.146C280.185 363.253 279.99 363.35 279.688 363.439C279.392 363.522 279.049 363.596 278.658 363.661C278.273 363.72 277.897 363.774 277.53 363.821C277.169 363.862 276.876 363.898 276.652 363.928C276.107 363.999 275.598 364.114 275.125 364.274C274.657 364.428 274.278 364.661 273.988 364.975C273.704 365.283 273.562 365.703 273.562 366.236C273.562 366.964 273.831 367.514 274.37 367.887C274.914 368.254 275.604 368.438 276.438 368.438ZM286.193 370V356.364H288.217V358.423H288.359C288.608 357.749 289.058 357.201 289.709 356.781C290.36 356.361 291.094 356.151 291.91 356.151C292.064 356.151 292.257 356.154 292.487 356.159C292.718 356.165 292.893 356.174 293.011 356.186V358.317C292.94 358.299 292.777 358.272 292.523 358.237C292.274 358.195 292.011 358.175 291.733 358.175C291.07 358.175 290.478 358.314 289.957 358.592C289.442 358.864 289.034 359.243 288.732 359.728C288.436 360.208 288.288 360.755 288.288 361.371V370H286.193ZM295.495 370V356.364H297.519V358.494H297.696C297.981 357.766 298.439 357.201 299.073 356.799C299.706 356.39 300.466 356.186 301.354 356.186C302.254 356.186 303.002 356.39 303.6 356.799C304.204 357.201 304.674 357.766 305.012 358.494H305.154C305.503 357.79 306.027 357.231 306.725 356.816C307.424 356.396 308.261 356.186 309.238 356.186C310.457 356.186 311.454 356.568 312.229 357.331C313.005 358.089 313.392 359.27 313.392 360.874V370H311.297V360.874C311.297 359.867 311.022 359.148 310.472 358.716C309.921 358.284 309.273 358.068 308.527 358.068C307.569 358.068 306.826 358.358 306.299 358.938C305.772 359.512 305.509 360.24 305.509 361.122V370H303.378V360.661C303.378 359.885 303.127 359.261 302.624 358.787C302.121 358.308 301.473 358.068 300.679 358.068C300.135 358.068 299.626 358.213 299.152 358.503C298.685 358.793 298.306 359.196 298.016 359.711C297.732 360.22 297.59 360.808 297.59 361.477V370H295.495ZM322.941 370.284C321.627 370.284 320.493 369.994 319.54 369.414C318.593 368.828 317.862 368.011 317.348 366.964C316.839 365.91 316.584 364.685 316.584 363.288C316.584 361.892 316.839 360.661 317.348 359.595C317.862 358.524 318.579 357.689 319.496 357.092C320.419 356.488 321.496 356.186 322.728 356.186C323.438 356.186 324.139 356.304 324.832 356.541C325.524 356.778 326.154 357.163 326.723 357.695C327.291 358.222 327.744 358.92 328.081 359.79C328.418 360.661 328.587 361.732 328.587 363.004V363.892H318.076V362.081H326.456C326.456 361.312 326.302 360.625 325.995 360.021C325.693 359.418 325.261 358.941 324.698 358.592C324.142 358.243 323.485 358.068 322.728 358.068C321.893 358.068 321.171 358.275 320.561 358.69C319.958 359.098 319.493 359.631 319.168 360.288C318.842 360.945 318.679 361.649 318.679 362.401V363.608C318.679 364.638 318.857 365.511 319.212 366.227C319.573 366.937 320.073 367.479 320.712 367.852C321.351 368.219 322.094 368.402 322.941 368.402C323.491 368.402 323.988 368.325 324.432 368.171C324.882 368.011 325.27 367.775 325.595 367.461C325.921 367.141 326.172 366.745 326.35 366.271L328.374 366.839C328.161 367.526 327.803 368.13 327.3 368.651C326.797 369.165 326.175 369.568 325.435 369.858C324.695 370.142 323.864 370.284 322.941 370.284ZM333.869 351.818V370H331.774V351.818H333.869Z" fill="black"/>
<path d="M353.202 316.818H355.83L362.009 331.911H362.222L368.401 316.818H371.028V335H368.969V321.186H368.791L363.109 335H361.121L355.439 321.186H355.261V335H353.202V316.818ZM383.753 329.425V321.364H385.848V335H383.753V332.692H383.611C383.291 333.384 382.794 333.973 382.119 334.458C381.444 334.938 380.592 335.178 379.562 335.178C378.71 335.178 377.952 334.991 377.29 334.618C376.627 334.239 376.106 333.671 375.727 332.914C375.348 332.15 375.159 331.188 375.159 330.028V321.364H377.254V329.886C377.254 330.881 377.532 331.674 378.089 332.266C378.651 332.857 379.367 333.153 380.237 333.153C380.758 333.153 381.287 333.02 381.826 332.754C382.371 332.488 382.826 332.079 383.193 331.529C383.566 330.978 383.753 330.277 383.753 329.425ZM391.78 326.797V335H389.685V321.364H391.709V323.494H391.887C392.206 322.802 392.692 322.246 393.343 321.825C393.994 321.399 394.834 321.186 395.864 321.186C396.787 321.186 397.595 321.375 398.288 321.754C398.98 322.127 399.519 322.695 399.904 323.459C400.288 324.216 400.481 325.175 400.481 326.335V335H398.385V326.477C398.385 325.406 398.107 324.571 397.551 323.974C396.995 323.37 396.231 323.068 395.26 323.068C394.592 323.068 393.994 323.213 393.467 323.503C392.946 323.793 392.535 324.216 392.233 324.773C391.931 325.329 391.78 326.004 391.78 326.797ZM409.849 335.284C408.571 335.284 407.47 334.982 406.546 334.379C405.623 333.775 404.913 332.943 404.416 331.884C403.919 330.824 403.67 329.614 403.67 328.253C403.67 326.868 403.925 325.646 404.434 324.586C404.948 323.521 405.665 322.689 406.582 322.092C407.505 321.488 408.582 321.186 409.813 321.186C410.772 321.186 411.636 321.364 412.406 321.719C413.175 322.074 413.806 322.571 414.297 323.21C414.788 323.849 415.093 324.595 415.211 325.447H413.116C412.956 324.826 412.601 324.276 412.051 323.796C411.506 323.311 410.772 323.068 409.849 323.068C409.032 323.068 408.316 323.281 407.701 323.707C407.091 324.128 406.614 324.722 406.271 325.492C405.934 326.255 405.765 327.152 405.765 328.182C405.765 329.235 405.931 330.153 406.262 330.934C406.6 331.715 407.073 332.322 407.683 332.754C408.298 333.186 409.02 333.402 409.849 333.402C410.393 333.402 410.888 333.307 411.332 333.118C411.775 332.929 412.151 332.656 412.459 332.301C412.767 331.946 412.986 331.52 413.116 331.023H415.211C415.093 331.828 414.8 332.553 414.332 333.198C413.871 333.837 413.258 334.346 412.495 334.725C411.737 335.098 410.855 335.284 409.849 335.284ZM418.274 335V321.364H420.369V335H418.274ZM419.339 319.091C418.931 319.091 418.579 318.952 418.283 318.674C417.993 318.395 417.848 318.061 417.848 317.67C417.848 317.28 417.993 316.945 418.283 316.667C418.579 316.389 418.931 316.25 419.339 316.25C419.748 316.25 420.097 316.389 420.387 316.667C420.683 316.945 420.831 317.28 420.831 317.67C420.831 318.061 420.683 318.395 420.387 318.674C420.097 318.952 419.748 319.091 419.339 319.091ZM429.924 335.284C428.61 335.284 427.477 334.994 426.524 334.414C425.577 333.828 424.846 333.011 424.331 331.964C423.822 330.91 423.567 329.685 423.567 328.288C423.567 326.892 423.822 325.661 424.331 324.595C424.846 323.524 425.562 322.689 426.479 322.092C427.403 321.488 428.48 321.186 429.711 321.186C430.421 321.186 431.123 321.304 431.815 321.541C432.507 321.778 433.138 322.163 433.706 322.695C434.274 323.222 434.727 323.92 435.064 324.79C435.402 325.661 435.57 326.732 435.57 328.004V328.892H425.059V327.081H433.44C433.44 326.312 433.286 325.625 432.978 325.021C432.676 324.418 432.244 323.941 431.682 323.592C431.125 323.243 430.469 323.068 429.711 323.068C428.876 323.068 428.154 323.275 427.545 323.69C426.941 324.098 426.476 324.631 426.151 325.288C425.825 325.945 425.663 326.649 425.663 327.401V328.608C425.663 329.638 425.84 330.511 426.195 331.227C426.556 331.937 427.056 332.479 427.696 332.852C428.335 333.219 429.078 333.402 429.924 333.402C430.474 333.402 430.972 333.325 431.415 333.171C431.865 333.011 432.253 332.775 432.578 332.461C432.904 332.141 433.156 331.745 433.333 331.271L435.357 331.839C435.144 332.526 434.786 333.13 434.283 333.651C433.78 334.165 433.158 334.568 432.419 334.858C431.679 335.142 430.847 335.284 429.924 335.284Z" fill="black"/>
<path d="M89.2017 683V664.818H100.175V666.771H91.4034V672.915H99.6065V674.868H91.4034V681.047H100.317V683H89.2017ZM115.01 669.364L109.967 683H107.836L102.794 669.364H105.066L108.831 680.23H108.973L112.737 669.364H115.01ZM121.373 683.32C120.509 683.32 119.724 683.157 119.02 682.831C118.316 682.5 117.757 682.023 117.342 681.402C116.928 680.775 116.721 680.017 116.721 679.129C116.721 678.348 116.875 677.715 117.182 677.229C117.49 676.738 117.902 676.353 118.416 676.075C118.931 675.797 119.5 675.59 120.121 675.454C120.748 675.312 121.379 675.199 122.012 675.116C122.841 675.01 123.512 674.93 124.027 674.877C124.548 674.818 124.927 674.72 125.164 674.584C125.406 674.448 125.528 674.211 125.528 673.874V673.803C125.528 672.927 125.288 672.246 124.809 671.761C124.335 671.275 123.616 671.033 122.651 671.033C121.651 671.033 120.867 671.252 120.299 671.69C119.73 672.128 119.331 672.595 119.1 673.092L117.111 672.382C117.467 671.554 117.94 670.908 118.532 670.447C119.13 669.979 119.781 669.654 120.485 669.47C121.195 669.281 121.894 669.186 122.58 669.186C123.018 669.186 123.521 669.239 124.089 669.346C124.664 669.446 125.217 669.657 125.75 669.976C126.288 670.296 126.735 670.778 127.09 671.423C127.445 672.068 127.623 672.933 127.623 674.016V683H125.528V681.153H125.421C125.279 681.449 125.042 681.766 124.711 682.103C124.379 682.441 123.938 682.728 123.388 682.964C122.838 683.201 122.166 683.32 121.373 683.32ZM121.692 681.438C122.521 681.438 123.219 681.275 123.788 680.949C124.362 680.624 124.794 680.203 125.084 679.689C125.38 679.174 125.528 678.632 125.528 678.064V676.146C125.439 676.253 125.244 676.35 124.942 676.439C124.646 676.522 124.302 676.596 123.912 676.661C123.527 676.72 123.151 676.774 122.784 676.821C122.423 676.862 122.13 676.898 121.905 676.928C121.361 676.999 120.852 677.114 120.378 677.274C119.911 677.428 119.532 677.661 119.242 677.975C118.958 678.283 118.816 678.703 118.816 679.236C118.816 679.964 119.085 680.514 119.624 680.887C120.168 681.254 120.858 681.438 121.692 681.438ZM133.542 674.797V683H131.447V669.364H133.471V671.494H133.649C133.968 670.802 134.454 670.246 135.105 669.825C135.756 669.399 136.596 669.186 137.626 669.186C138.549 669.186 139.357 669.375 140.05 669.754C140.742 670.127 141.281 670.695 141.665 671.459C142.05 672.216 142.242 673.175 142.242 674.335V683H140.147V674.477C140.147 673.406 139.869 672.571 139.313 671.974C138.756 671.37 137.993 671.068 137.022 671.068C136.353 671.068 135.756 671.213 135.229 671.503C134.708 671.793 134.297 672.216 133.995 672.773C133.693 673.329 133.542 674.004 133.542 674.797ZM155.73 672.418L153.848 672.95C153.73 672.637 153.555 672.332 153.324 672.036C153.099 671.734 152.791 671.485 152.401 671.29C152.01 671.095 151.51 670.997 150.9 670.997C150.066 670.997 149.371 671.19 148.814 671.574C148.264 671.953 147.989 672.435 147.989 673.021C147.989 673.542 148.178 673.953 148.557 674.255C148.936 674.557 149.527 674.809 150.332 675.01L152.356 675.507C153.576 675.803 154.484 676.256 155.082 676.865C155.68 677.469 155.979 678.247 155.979 679.2C155.979 679.982 155.754 680.68 155.304 681.295C154.86 681.911 154.239 682.396 153.44 682.751C152.641 683.107 151.711 683.284 150.652 683.284C149.261 683.284 148.11 682.982 147.198 682.379C146.287 681.775 145.71 680.893 145.467 679.733L147.456 679.236C147.645 679.97 148.003 680.52 148.53 680.887C149.063 681.254 149.758 681.438 150.616 681.438C151.593 681.438 152.368 681.23 152.942 680.816C153.522 680.396 153.812 679.893 153.812 679.307C153.812 678.833 153.647 678.437 153.315 678.117C152.984 677.792 152.475 677.549 151.788 677.389L149.516 676.857C148.267 676.561 147.349 676.102 146.763 675.48C146.183 674.853 145.893 674.069 145.893 673.128C145.893 672.358 146.109 671.678 146.541 671.086C146.979 670.494 147.574 670.029 148.326 669.692C149.083 669.355 149.942 669.186 150.9 669.186C152.25 669.186 153.309 669.482 154.079 670.074C154.854 670.666 155.405 671.447 155.73 672.418ZM170.283 669.364L165.24 683H163.11L158.067 669.364H160.34L164.104 680.23H164.246L168.01 669.364H170.283ZM173.048 683V669.364H175.144V683H173.048ZM174.114 667.091C173.705 667.091 173.353 666.952 173.057 666.674C172.767 666.395 172.622 666.061 172.622 665.67C172.622 665.28 172.767 664.945 173.057 664.667C173.353 664.389 173.705 664.25 174.114 664.25C174.522 664.25 174.871 664.389 175.161 664.667C175.457 664.945 175.605 665.28 175.605 665.67C175.605 666.061 175.457 666.395 175.161 666.674C174.871 666.952 174.522 667.091 174.114 667.091ZM181.076 664.818V683H178.981V664.818H181.076ZM187.009 664.818V683H184.914V664.818H187.009ZM196.564 683.284C195.25 683.284 194.116 682.994 193.163 682.414C192.216 681.828 191.486 681.011 190.971 679.964C190.462 678.91 190.207 677.685 190.207 676.288C190.207 674.892 190.462 673.661 190.971 672.595C191.486 671.524 192.202 670.689 193.119 670.092C194.042 669.488 195.12 669.186 196.351 669.186C197.061 669.186 197.762 669.304 198.455 669.541C199.147 669.778 199.777 670.163 200.346 670.695C200.914 671.222 201.367 671.92 201.704 672.79C202.041 673.661 202.21 674.732 202.21 676.004V676.892H191.699V675.081H200.079C200.079 674.312 199.925 673.625 199.618 673.021C199.316 672.418 198.884 671.941 198.321 671.592C197.765 671.243 197.108 671.068 196.351 671.068C195.516 671.068 194.794 671.275 194.184 671.69C193.581 672.098 193.116 672.631 192.791 673.288C192.465 673.945 192.302 674.649 192.302 675.401V676.608C192.302 677.638 192.48 678.511 192.835 679.227C193.196 679.937 193.696 680.479 194.335 680.852C194.975 681.219 195.717 681.402 196.564 681.402C197.114 681.402 197.611 681.325 198.055 681.171C198.505 681.011 198.893 680.775 199.218 680.461C199.544 680.141 199.795 679.745 199.973 679.271L201.997 679.839C201.784 680.526 201.426 681.13 200.923 681.651C200.42 682.165 199.798 682.568 199.058 682.858C198.319 683.142 197.487 683.284 196.564 683.284Z" fill="black"/>
<path d="M191.202 547V528.818H197.558C198.825 528.818 199.869 529.037 200.692 529.475C201.515 529.907 202.127 530.49 202.53 531.224C202.932 531.952 203.134 532.76 203.134 533.648C203.134 534.429 202.994 535.074 202.716 535.583C202.444 536.092 202.083 536.495 201.633 536.79C201.189 537.086 200.707 537.305 200.186 537.447V537.625C200.742 537.661 201.302 537.856 201.864 538.211C202.426 538.566 202.897 539.075 203.276 539.738C203.654 540.401 203.844 541.212 203.844 542.17C203.844 543.082 203.637 543.902 203.222 544.63C202.808 545.358 202.154 545.935 201.26 546.361C200.367 546.787 199.204 547 197.771 547H191.202ZM193.403 545.047H197.771C199.21 545.047 200.23 544.769 200.834 544.212C201.444 543.65 201.749 542.969 201.749 542.17C201.749 541.555 201.592 540.987 201.278 540.466C200.964 539.939 200.518 539.519 199.938 539.205C199.357 538.886 198.671 538.726 197.878 538.726H193.403V545.047ZM193.403 536.808H197.487C198.15 536.808 198.748 536.678 199.281 536.418C199.819 536.157 200.245 535.79 200.559 535.317C200.879 534.843 201.038 534.287 201.038 533.648C201.038 532.849 200.76 532.171 200.204 531.615C199.647 531.052 198.766 530.771 197.558 530.771H193.403V536.808ZM209.273 528.818V547H207.177V528.818H209.273ZM218.65 547.284C217.419 547.284 216.339 546.991 215.409 546.405C214.486 545.819 213.764 545 213.243 543.946C212.728 542.893 212.471 541.661 212.471 540.253C212.471 538.832 212.728 537.592 213.243 536.533C213.764 535.474 214.486 534.651 215.409 534.065C216.339 533.479 217.419 533.186 218.65 533.186C219.881 533.186 220.958 533.479 221.881 534.065C222.811 534.651 223.533 535.474 224.047 536.533C224.568 537.592 224.829 538.832 224.829 540.253C224.829 541.661 224.568 542.893 224.047 543.946C223.533 545 222.811 545.819 221.881 546.405C220.958 546.991 219.881 547.284 218.65 547.284ZM218.65 545.402C219.585 545.402 220.354 545.162 220.958 544.683C221.562 544.203 222.009 543.573 222.299 542.792C222.589 542.011 222.734 541.164 222.734 540.253C222.734 539.341 222.589 538.492 222.299 537.705C222.009 536.918 221.562 536.281 220.958 535.796C220.354 535.311 219.585 535.068 218.65 535.068C217.715 535.068 216.945 535.311 216.342 535.796C215.738 536.281 215.291 536.918 215.001 537.705C214.711 538.492 214.566 539.341 214.566 540.253C214.566 541.164 214.711 542.011 215.001 542.792C215.291 543.573 215.738 544.203 216.342 544.683C216.945 545.162 217.715 545.402 218.65 545.402ZM233.567 547.284C232.336 547.284 231.256 546.991 230.326 546.405C229.403 545.819 228.681 545 228.16 543.946C227.645 542.893 227.388 541.661 227.388 540.253C227.388 538.832 227.645 537.592 228.16 536.533C228.681 535.474 229.403 534.651 230.326 534.065C231.256 533.479 232.336 533.186 233.567 533.186C234.798 533.186 235.875 533.479 236.798 534.065C237.728 534.651 238.45 535.474 238.964 536.533C239.485 537.592 239.746 538.832 239.746 540.253C239.746 541.661 239.485 542.893 238.964 543.946C238.45 545 237.728 545.819 236.798 546.405C235.875 546.991 234.798 547.284 233.567 547.284ZM233.567 545.402C234.502 545.402 235.271 545.162 235.875 544.683C236.479 544.203 236.926 543.573 237.216 542.792C237.506 542.011 237.651 541.164 237.651 540.253C237.651 539.341 237.506 538.492 237.216 537.705C236.926 536.918 236.479 536.281 235.875 535.796C235.271 535.311 234.502 535.068 233.567 535.068C232.632 535.068 231.862 535.311 231.259 535.796C230.655 536.281 230.208 536.918 229.918 537.705C229.628 538.492 229.483 539.341 229.483 540.253C229.483 541.164 229.628 542.011 229.918 542.792C230.208 543.573 230.655 544.203 231.259 544.683C231.862 545.162 232.632 545.402 233.567 545.402ZM242.944 547V533.364H244.968V535.494H245.146C245.43 534.766 245.888 534.201 246.522 533.799C247.155 533.39 247.916 533.186 248.803 533.186C249.703 533.186 250.452 533.39 251.049 533.799C251.653 534.201 252.124 534.766 252.461 535.494H252.603C252.952 534.79 253.476 534.231 254.174 533.816C254.873 533.396 255.71 533.186 256.687 533.186C257.906 533.186 258.903 533.568 259.679 534.331C260.454 535.089 260.842 536.27 260.842 537.874V547H258.747V537.874C258.747 536.867 258.471 536.148 257.921 535.716C257.37 535.284 256.722 535.068 255.977 535.068C255.018 535.068 254.275 535.358 253.748 535.938C253.222 536.512 252.958 537.24 252.958 538.122V547H250.828V537.661C250.828 536.885 250.576 536.261 250.073 535.787C249.57 535.308 248.922 535.068 248.129 535.068C247.584 535.068 247.075 535.213 246.602 535.503C246.134 535.793 245.755 536.196 245.465 536.711C245.181 537.22 245.039 537.808 245.039 538.477V547H242.944ZM264.672 547V533.364H266.768V547H264.672ZM265.738 531.091C265.329 531.091 264.977 530.952 264.681 530.674C264.391 530.395 264.246 530.061 264.246 529.67C264.246 529.28 264.391 528.945 264.681 528.667C264.977 528.389 265.329 528.25 265.738 528.25C266.146 528.25 266.495 528.389 266.785 528.667C267.081 528.945 267.229 529.28 267.229 529.67C267.229 530.061 267.081 530.395 266.785 530.674C266.495 530.952 266.146 531.091 265.738 531.091ZM272.7 538.797V547H270.605V533.364H272.629V535.494H272.807C273.126 534.802 273.612 534.246 274.263 533.825C274.914 533.399 275.754 533.186 276.784 533.186C277.707 533.186 278.515 533.375 279.208 533.754C279.9 534.127 280.439 534.695 280.824 535.459C281.208 536.216 281.401 537.175 281.401 538.335V547H279.305V538.477C279.305 537.406 279.027 536.571 278.471 535.974C277.915 535.37 277.151 535.068 276.18 535.068C275.512 535.068 274.914 535.213 274.387 535.503C273.866 535.793 273.455 536.216 273.153 536.773C272.851 537.329 272.7 538.004 272.7 538.797ZM290.733 552.398C289.721 552.398 288.851 552.268 288.123 552.007C287.395 551.753 286.789 551.415 286.303 550.995C285.824 550.581 285.442 550.137 285.158 549.663L286.827 548.491C287.017 548.74 287.256 549.024 287.546 549.344C287.836 549.669 288.233 549.95 288.736 550.187C289.245 550.43 289.911 550.551 290.733 550.551C291.834 550.551 292.743 550.285 293.459 549.752C294.175 549.219 294.533 548.385 294.533 547.249V544.479H294.356C294.202 544.727 293.983 545.035 293.699 545.402C293.42 545.763 293.018 546.086 292.491 546.37C291.97 546.648 291.266 546.787 290.378 546.787C289.277 546.787 288.289 546.527 287.413 546.006C286.543 545.485 285.854 544.727 285.345 543.733C284.841 542.739 284.59 541.531 284.59 540.111C284.59 538.714 284.836 537.498 285.327 536.462C285.818 535.42 286.502 534.615 287.378 534.047C288.254 533.473 289.266 533.186 290.414 533.186C291.302 533.186 292.006 533.334 292.527 533.63C293.053 533.92 293.456 534.251 293.734 534.624C294.018 534.991 294.237 535.293 294.391 535.53H294.604V533.364H296.628V547.391C296.628 548.562 296.362 549.515 295.829 550.249C295.303 550.989 294.592 551.531 293.699 551.874C292.811 552.223 291.822 552.398 290.733 552.398ZM290.662 544.905C291.503 544.905 292.213 544.712 292.793 544.328C293.373 543.943 293.814 543.39 294.116 542.668C294.418 541.946 294.569 541.081 294.569 540.075C294.569 539.093 294.421 538.226 294.125 537.474C293.829 536.722 293.391 536.134 292.811 535.707C292.231 535.281 291.515 535.068 290.662 535.068C289.775 535.068 289.035 535.293 288.443 535.743C287.857 536.193 287.416 536.796 287.12 537.554C286.83 538.312 286.685 539.152 286.685 540.075C286.685 541.022 286.833 541.86 287.129 542.588C287.431 543.31 287.875 543.878 288.461 544.292C289.053 544.701 289.786 544.905 290.662 544.905ZM306.394 533.364V535.139H299.327V533.364H306.394ZM301.387 530.097H303.482V543.094C303.482 543.686 303.568 544.129 303.739 544.425C303.917 544.715 304.142 544.911 304.414 545.011C304.692 545.106 304.985 545.153 305.293 545.153C305.524 545.153 305.713 545.142 305.861 545.118C306.009 545.088 306.128 545.065 306.216 545.047L306.642 546.929C306.5 546.982 306.302 547.036 306.048 547.089C305.793 547.148 305.471 547.178 305.08 547.178C304.488 547.178 303.908 547.05 303.34 546.796C302.778 546.541 302.31 546.154 301.937 545.633C301.57 545.112 301.387 544.455 301.387 543.662V530.097ZM314.939 547.284C313.708 547.284 312.628 546.991 311.698 546.405C310.775 545.819 310.053 545 309.532 543.946C309.017 542.893 308.76 541.661 308.76 540.253C308.76 538.832 309.017 537.592 309.532 536.533C310.053 535.474 310.775 534.651 311.698 534.065C312.628 533.479 313.708 533.186 314.939 533.186C316.17 533.186 317.247 533.479 318.17 534.065C319.1 534.651 319.822 535.474 320.337 536.533C320.857 537.592 321.118 538.832 321.118 540.253C321.118 541.661 320.857 542.893 320.337 543.946C319.822 545 319.1 545.819 318.17 546.405C317.247 546.991 316.17 547.284 314.939 547.284ZM314.939 545.402C315.874 545.402 316.643 545.162 317.247 544.683C317.851 544.203 318.298 543.573 318.588 542.792C318.878 542.011 319.023 541.164 319.023 540.253C319.023 539.341 318.878 538.492 318.588 537.705C318.298 536.918 317.851 536.281 317.247 535.796C316.643 535.311 315.874 535.068 314.939 535.068C314.004 535.068 313.234 535.311 312.631 535.796C312.027 536.281 311.58 536.918 311.29 537.705C311 538.492 310.855 539.341 310.855 540.253C310.855 541.164 311 542.011 311.29 542.792C311.58 543.573 312.027 544.203 312.631 544.683C313.234 545.162 314.004 545.402 314.939 545.402ZM326.411 538.797V547H324.316V533.364H326.34V535.494H326.518C326.837 534.802 327.323 534.246 327.974 533.825C328.625 533.399 329.465 533.186 330.495 533.186C331.418 533.186 332.226 533.375 332.919 533.754C333.611 534.127 334.15 534.695 334.534 535.459C334.919 536.216 335.112 537.175 335.112 538.335V547H333.016V538.477C333.016 537.406 332.738 536.571 332.182 535.974C331.625 535.37 330.862 535.068 329.891 535.068C329.223 535.068 328.625 535.213 328.098 535.503C327.577 535.793 327.166 536.216 326.864 536.773C326.562 537.329 326.411 538.004 326.411 538.797Z" fill="black"/>
<circle cx="418.511" cy="211.511" r="9.01136" fill="#FFE587" stroke="black"/>
<circle cx="282.511" cy="114.511" r="9.01136" fill="#FFE587" stroke="black"/>
<circle cx="298.511" cy="387.511" r="9.01136" fill="#FFE587" stroke="black"/>
<circle cx="389.511" cy="352.511" r="9.01136" fill="#FFE587" stroke="black"/>
<circle cx="206.511" cy="315.511" r="9.01136" fill="#FFE587" stroke="black"/>
<circle cx="124.511" cy="695.511" r="9.01136" fill="#FFE587" stroke="black"/>
<circle cx="246.511" cy="513.511" r="9.01136" fill="#FFE587" stroke="black"/>
<path d="M136.256 59L139.153 41.5455H142.315L139.861 56.3494H147.548L147.105 59H136.256ZM153.446 59.2642C152.616 59.2642 151.895 59.1165 151.281 58.821C150.668 58.5199 150.216 58.0767 149.926 57.4915C149.642 56.9062 149.571 56.1847 149.713 55.3267C149.838 54.5881 150.077 53.9773 150.429 53.4943C150.787 53.0114 151.224 52.625 151.741 52.3352C152.264 52.0398 152.832 51.8182 153.446 51.6705C154.065 51.5227 154.696 51.4148 155.338 51.3466C156.122 51.267 156.756 51.1932 157.239 51.125C157.727 51.0568 158.094 50.9545 158.338 50.8182C158.582 50.6761 158.73 50.4602 158.781 50.1705V50.1193C158.884 49.4773 158.781 48.9801 158.474 48.6278C158.168 48.2756 157.656 48.0994 156.94 48.0994C156.19 48.0994 155.56 48.2642 155.048 48.5938C154.537 48.9233 154.165 49.3125 153.932 49.7614L151.136 49.3523C151.489 48.5568 151.972 47.892 152.585 47.358C153.199 46.8182 153.906 46.4148 154.707 46.1477C155.514 45.875 156.375 45.7386 157.29 45.7386C157.915 45.7386 158.526 45.8125 159.122 45.9602C159.724 46.108 160.256 46.3523 160.716 46.6932C161.182 47.0284 161.523 47.4858 161.739 48.0653C161.96 48.6449 161.997 49.3693 161.849 50.2386L160.392 59H157.426L157.733 57.2017H157.631C157.386 57.5653 157.068 57.9062 156.676 58.2244C156.284 58.5369 155.818 58.7898 155.278 58.983C154.739 59.1705 154.128 59.2642 153.446 59.2642ZM154.614 56.9972C155.233 56.9972 155.79 56.875 156.284 56.6307C156.778 56.3807 157.185 56.0511 157.503 55.642C157.821 55.233 158.02 54.7869 158.099 54.304L158.355 52.7614C158.241 52.8409 158.065 52.9148 157.827 52.983C157.588 53.0511 157.321 53.1108 157.026 53.1619C156.736 53.2131 156.449 53.2585 156.165 53.2983C155.881 53.3381 155.636 53.3722 155.432 53.4006C154.96 53.4631 154.528 53.5653 154.136 53.7074C153.75 53.8494 153.429 54.0483 153.173 54.304C152.923 54.554 152.767 54.8778 152.705 55.2756C152.614 55.8381 152.747 56.267 153.105 56.5625C153.463 56.8523 153.966 56.9972 154.614 56.9972ZM166.98 54.892L167.585 51.1676H168.08L173.679 45.9091H177.284L170.432 52.3523H169.801L166.98 54.892ZM163.494 59L166.392 41.5455H169.477L166.58 59H163.494ZM171.71 59L168.438 53.0426L170.884 50.8693L175.401 59H171.71ZM182.381 59.2557C181.068 59.2557 179.983 58.983 179.125 58.4375C178.267 57.8864 177.665 57.108 177.318 56.1023C176.977 55.0909 176.92 53.9006 177.148 52.5312C177.369 51.1847 177.821 50.0028 178.503 48.9858C179.185 47.9631 180.037 47.1676 181.06 46.5994C182.088 46.0256 183.224 45.7386 184.469 45.7386C185.276 45.7386 186.017 45.8693 186.693 46.1307C187.369 46.3864 187.94 46.7841 188.406 47.3239C188.872 47.8636 189.193 48.5511 189.369 49.3864C189.545 50.2159 189.537 51.2045 189.344 52.3523L189.199 53.2983H178.46L178.793 51.2188H186.565C186.668 50.6278 186.634 50.1023 186.463 49.642C186.293 49.1761 186.009 48.8097 185.611 48.5426C185.213 48.2756 184.716 48.142 184.119 48.142C183.511 48.142 182.943 48.2983 182.415 48.6108C181.892 48.9176 181.452 49.3153 181.094 49.804C180.736 50.2926 180.509 50.8068 180.412 51.3466L180.062 53.3409C179.938 54.1591 179.966 54.8267 180.148 55.3438C180.33 55.8608 180.648 56.2415 181.102 56.4858C181.557 56.7301 182.131 56.8523 182.824 56.8523C183.278 56.8523 183.699 56.7898 184.085 56.6648C184.472 56.5398 184.815 56.3523 185.116 56.1023C185.423 55.8466 185.679 55.5341 185.884 55.1648L188.705 55.4886C188.392 56.25 187.935 56.9148 187.332 57.483C186.73 58.0455 186.009 58.483 185.168 58.7955C184.332 59.1023 183.403 59.2557 182.381 59.2557ZM113.407 70.5455H117.277L120.37 83.1932H120.575L127.845 70.5455H131.714L128.816 88H125.782L127.777 76.0085H127.623L120.805 87.9489H118.547L115.717 75.983H115.555L113.544 88H110.51L113.407 70.5455ZM132.123 88L134.305 74.9091H137.39L135.208 88H132.123ZM136.299 73.0341C135.805 73.0341 135.396 72.8693 135.072 72.5398C134.748 72.2102 134.606 71.8153 134.646 71.3551C134.686 70.8949 134.893 70.5 135.268 70.1705C135.649 69.8409 136.083 69.6761 136.572 69.6761C137.066 69.6761 137.473 69.8409 137.791 70.1705C138.115 70.5 138.257 70.8949 138.217 71.3551C138.183 71.8153 137.975 72.2102 137.595 72.5398C137.22 72.8693 136.788 73.0341 136.299 73.0341ZM144.057 88.2557C142.75 88.2557 141.676 87.9688 140.836 87.3949C139.995 86.821 139.407 86.0284 139.071 85.017C138.742 84 138.688 82.8295 138.909 81.5057C139.125 80.1761 139.571 79.0028 140.248 77.9858C140.929 76.9631 141.787 76.1676 142.821 75.5994C143.855 75.0256 145.012 74.7386 146.29 74.7386C147.353 74.7386 148.259 74.9347 149.009 75.3267C149.765 75.7131 150.327 76.2614 150.696 76.9716C151.071 77.6761 151.216 78.5 151.131 79.4432H148.174C148.162 78.8125 147.966 78.2869 147.586 77.8665C147.205 77.4403 146.648 77.2273 145.915 77.2273C145.279 77.2273 144.694 77.3977 144.159 77.7386C143.625 78.0739 143.174 78.5568 142.804 79.1875C142.435 79.8182 142.179 80.5739 142.037 81.4545C141.89 82.3466 141.892 83.1136 142.046 83.7557C142.205 84.392 142.492 84.8835 142.907 85.2301C143.327 85.571 143.858 85.7415 144.5 85.7415C144.955 85.7415 145.378 85.6562 145.77 85.4858C146.162 85.3097 146.506 85.0568 146.801 84.7273C147.103 84.3977 147.338 83.9972 147.509 83.5256H150.458C150.225 84.4517 149.81 85.2727 149.213 85.9886C148.623 86.6989 147.89 87.2557 147.015 87.6591C146.14 88.0568 145.154 88.2557 144.057 88.2557ZM156.596 80.3295L155.335 88H152.241L155.139 70.5455H158.164L157.074 77.1335H157.235C157.65 76.3892 158.216 75.804 158.931 75.3778C159.653 74.9517 160.52 74.7386 161.531 74.7386C162.429 74.7386 163.184 74.929 163.798 75.3097C164.412 75.6903 164.843 76.2472 165.093 76.9801C165.349 77.7131 165.392 78.608 165.221 79.6648L163.824 88H160.73L162.042 80.142C162.184 79.2614 162.068 78.5767 161.693 78.0881C161.324 77.5937 160.738 77.3466 159.937 77.3466C159.386 77.3466 158.877 77.4659 158.412 77.7045C157.946 77.9375 157.554 78.2756 157.235 78.7188C156.923 79.1619 156.71 79.6989 156.596 80.3295ZM166.951 88L169.133 74.9091H172.218L170.037 88H166.951ZM171.127 73.0341C170.633 73.0341 170.224 72.8693 169.9 72.5398C169.576 72.2102 169.434 71.8153 169.474 71.3551C169.514 70.8949 169.721 70.5 170.096 70.1705C170.477 69.8409 170.912 69.6761 171.4 69.6761C171.895 69.6761 172.301 69.8409 172.619 70.1705C172.943 70.5 173.085 70.8949 173.045 71.3551C173.011 71.8153 172.804 72.2102 172.423 72.5398C172.048 72.8693 171.616 73.0341 171.127 73.0341ZM178.084 93.1818C176.971 93.1818 176.042 93.0313 175.297 92.7301C174.553 92.4347 173.979 92.0369 173.576 91.5369C173.172 91.0369 172.922 90.483 172.826 89.875L175.723 89.2017C175.809 89.4574 175.945 89.7102 176.132 89.9602C176.326 90.2159 176.61 90.4261 176.985 90.5909C177.36 90.7614 177.86 90.8466 178.485 90.8466C179.36 90.8466 180.124 90.6335 180.777 90.2074C181.431 89.7813 181.834 89.0881 181.988 88.1278L182.38 85.6477H182.226C182.022 85.9659 181.74 86.2926 181.382 86.6278C181.03 86.9631 180.584 87.2443 180.044 87.4716C179.51 87.6989 178.868 87.8125 178.118 87.8125C177.113 87.8125 176.24 87.5767 175.502 87.1051C174.763 86.6278 174.232 85.9176 173.908 84.9744C173.59 84.0256 173.55 82.8381 173.789 81.4119C174.022 79.9744 174.459 78.7614 175.101 77.7727C175.749 76.7784 176.525 76.0256 177.428 75.5142C178.331 74.9972 179.286 74.7386 180.292 74.7386C181.059 74.7386 181.669 74.8693 182.124 75.1307C182.578 75.3864 182.922 75.696 183.155 76.0597C183.388 76.4176 183.559 76.7557 183.667 77.0739H183.828L184.186 74.9091H187.229L185.03 88.2131C184.848 89.3324 184.431 90.2585 183.777 90.9915C183.124 91.7301 182.303 92.2784 181.314 92.6364C180.331 93 179.255 93.1818 178.084 93.1818ZM179.346 85.392C179.999 85.392 180.584 85.233 181.101 84.9148C181.618 84.5966 182.05 84.1392 182.397 83.5426C182.743 82.946 182.985 82.2301 183.121 81.3949C183.257 80.571 183.252 79.8494 183.104 79.2301C182.962 78.6108 182.686 78.1307 182.277 77.7898C181.868 77.4432 181.334 77.2699 180.675 77.2699C179.988 77.2699 179.385 77.4489 178.868 77.8068C178.357 78.1648 177.936 78.6562 177.607 79.2812C177.283 79.9006 177.056 80.6051 176.925 81.3949C176.8 82.196 176.8 82.8977 176.925 83.5C177.056 84.0966 177.32 84.5625 177.718 84.8977C178.121 85.2273 178.664 85.392 179.346 85.392ZM191.942 88.2642C191.113 88.2642 190.391 88.1165 189.777 87.821C189.164 87.5199 188.712 87.0767 188.422 86.4915C188.138 85.9062 188.067 85.1847 188.209 84.3267C188.334 83.5881 188.573 82.9773 188.925 82.4943C189.283 82.0114 189.721 81.625 190.238 81.3352C190.76 81.0398 191.328 80.8182 191.942 80.6705C192.561 80.5227 193.192 80.4148 193.834 80.3466C194.618 80.267 195.252 80.1932 195.735 80.125C196.223 80.0568 196.59 79.9545 196.834 79.8182C197.078 79.6761 197.226 79.4602 197.277 79.1705V79.1193C197.38 78.4773 197.277 77.9801 196.971 77.6278C196.664 77.2756 196.152 77.0994 195.436 77.0994C194.686 77.0994 194.056 77.2642 193.544 77.5938C193.033 77.9233 192.661 78.3125 192.428 78.7614L189.632 78.3523C189.985 77.5568 190.468 76.892 191.081 76.358C191.695 75.8182 192.402 75.4148 193.203 75.1477C194.01 74.875 194.871 74.7386 195.786 74.7386C196.411 74.7386 197.022 74.8125 197.618 74.9602C198.221 75.108 198.752 75.3523 199.212 75.6932C199.678 76.0284 200.019 76.4858 200.235 77.0653C200.456 77.6449 200.493 78.3693 200.346 79.2386L198.888 88H195.922L196.229 86.2017H196.127C195.882 86.5653 195.564 86.9062 195.172 87.2244C194.78 87.5369 194.314 87.7898 193.775 87.983C193.235 88.1705 192.624 88.2642 191.942 88.2642ZM193.11 85.9972C193.729 85.9972 194.286 85.875 194.78 85.6307C195.275 85.3807 195.681 85.0511 195.999 84.642C196.317 84.233 196.516 83.7869 196.596 83.304L196.851 81.7614C196.738 81.8409 196.561 81.9148 196.323 81.983C196.084 82.0511 195.817 82.1108 195.522 82.1619C195.232 82.2131 194.945 82.2585 194.661 82.2983C194.377 82.3381 194.132 82.3722 193.928 82.4006C193.456 82.4631 193.025 82.5653 192.632 82.7074C192.246 82.8494 191.925 83.0483 191.669 83.304C191.419 83.554 191.263 83.8778 191.201 84.2756C191.11 84.8381 191.243 85.267 191.601 85.5625C191.959 85.8523 192.462 85.9972 193.11 85.9972ZM206.354 80.3295L205.093 88H201.999L204.181 74.9091H207.138L206.763 77.1335H206.925C207.334 76.4006 207.908 75.8182 208.647 75.3864C209.385 74.9545 210.246 74.7386 211.229 74.7386C212.121 74.7386 212.871 74.9318 213.479 75.3182C214.087 75.6989 214.519 76.2585 214.775 76.9972C215.03 77.7301 215.07 78.6193 214.894 79.6648L213.496 88H210.411L211.715 80.142C211.863 79.2727 211.752 78.5909 211.382 78.0966C211.019 77.5966 210.434 77.3466 209.627 77.3466C209.087 77.3466 208.59 77.4659 208.135 77.7045C207.681 77.9375 207.297 78.2756 206.985 78.7188C206.678 79.1619 206.468 79.6989 206.354 80.3295Z" fill="#017D83"/>
<path d="M316.722 62.5455H320.591L325.773 75.1932H325.977L331.159 62.5455H335.028V80H331.994V68.0085H331.832L327.009 79.9489H324.741L319.918 67.983H319.756V80H316.722V62.5455ZM341.634 62.5455V80H338.472V62.5455H341.634Z" fill="#005A5E"/>
<path d="M86.8835 311.545V329H83.7216V311.545H86.8835ZM90.3075 329V311.545H93.4695V326.349H101.157V329H90.3075Z" fill="#005A5E"/>
<path d="M429.722 694V676.545H432.884V684.565H433.097L439.906 676.545H443.767L437.017 684.378L443.827 694H440.026L434.818 686.517L432.884 688.801V694H429.722ZM444.771 676.545H448.342L452.612 684.267H452.782L457.052 676.545H460.623L454.273 687.489V694H451.12V687.489L444.771 676.545Z" fill="#005A5E"/>
<path d="M495.318 321.273C495.318 323.153 494.966 324.764 494.261 326.105C493.563 327.44 492.608 328.463 491.398 329.173C490.193 329.884 488.827 330.239 487.298 330.239C485.77 330.239 484.401 329.884 483.19 329.173C481.986 328.457 481.031 327.432 480.327 326.097C479.628 324.756 479.278 323.148 479.278 321.273C479.278 319.392 479.628 317.784 480.327 316.449C481.031 315.108 481.986 314.082 483.19 313.372C484.401 312.662 485.77 312.307 487.298 312.307C488.827 312.307 490.193 312.662 491.398 313.372C492.608 314.082 493.563 315.108 494.261 316.449C494.966 317.784 495.318 319.392 495.318 321.273ZM492.139 321.273C492.139 319.949 491.932 318.832 491.517 317.923C491.108 317.009 490.54 316.318 489.812 315.852C489.085 315.381 488.247 315.145 487.298 315.145C486.349 315.145 485.511 315.381 484.784 315.852C484.057 316.318 483.486 317.009 483.071 317.923C482.662 318.832 482.457 319.949 482.457 321.273C482.457 322.597 482.662 323.716 483.071 324.631C483.486 325.54 484.057 326.23 484.784 326.702C485.511 327.168 486.349 327.401 487.298 327.401C488.247 327.401 489.085 327.168 489.812 326.702C490.54 326.23 491.108 325.54 491.517 324.631C491.932 323.716 492.139 322.597 492.139 321.273ZM498.308 330V312.545H501.469V319.935H509.558V312.545H512.728V330H509.558V322.585H501.469V330H498.308Z" fill="#005A5E"/>
<defs>
<filter id="filter0_d_138_329" x="54.293" y="101" width="411.939" height="639.555" filterUnits="userSpaceOnUse" color-interpolation-filters="sRGB">
<feFlood flood-opacity="0" result="BackgroundImageFix"/>
<feColorMatrix in="SourceAlpha" type="matrix" values="0 0 0 0 0 0 0 0 0 0 0 0 0 0 0 0 0 0 127 0" result="hardAlpha"/>
<feOffset dy="4"/>
<feGaussianBlur stdDeviation="2"/>
<feComposite in2="hardAlpha" operator="out"/>
<feColorMatrix type="matrix" values="0 0 0 0 0 0 0 0 0 0 0 0 0 0 0 0 0 0 0.25 0"/>
<feBlend mode="normal" in2="BackgroundImageFix" result="effect1_dropShadow_138_329"/>
<feBlend mode="normal" in="SourceGraphic" in2="effect1_dropShadow_138_329" result="shape"/>
</filter>
</defs>
</svg>
