<svg width="944" height="678" viewBox="0 0 944 678" fill="none" xmlns="http://www.w3.org/2000/svg">
<rect x="0.5" y="0.5" width="943" height="677" rx="35.5" fill="#97DCFF" stroke="#717171"/>
<g filter="url(#filter0_d_154_182)">
<path d="M740 89.5H100.5L101.5 93.5L100.5 96.5V100L109.5 107.5L107.5 120L106 123.5L101.5 122.5L100.5 125.5L102.5 127L106 129L104 132.5L105 133.5L107.5 135L115 136V146L117.5 147.5L119 151L117.5 154L115 160.5L112 162L109.5 164.5L112 169L109.5 174V176L111 178.5L109.5 182.5H107V184.5L108.5 189L106 191V193L104.5 198.5H102.5L101 201L100 206.5L98 208L95.5 213V217.5L97 219.5L99 221L106 227.5L112 235L115 244.5V253H118.5L123 254L125.5 257V262L121.5 267.5V275L123 278L128 285L129.5 288L132.5 293V296L129.5 298V305L133.5 310L139 314V323.5V325.5H142L145 328L142 330.5L143.5 333L148.5 332V335.5L154.5 337L156 341L153 347.5V350C154.333 351.833 157.2 355.6 158 356C158.8 356.4 159 359.833 159 361.5L163.5 366L160 374.5L161.5 379L158 381.5L157 384L160 388L157 394.5L161.5 399.5L160 404V408L166.5 411L167.5 407L169 405L172 409.5L169 415L171 416.5L179.5 418.5V434.5L177.5 435L177 438C178 438.5 180.2 439.7 181 440.5C182 441.5 184.5 442 186 442.5C187.2 442.9 186.167 445 185.5 446H182.5L179.5 448.5L182.5 454.5L181 463L188 463.5L186 465.5L185.5 470.5L187.5 474V479.5L186 481.5V484L188 485.5V492.5L191 494.5V505L194 509.5L189 513L191 526.5L188.5 527.5L185.5 531.5L186 536.5L188.5 541C189.667 541.833 192.2 543.5 193 543.5C193.8 543.5 196 545.5 197 546.5L201 552L200 555L201 557L679 552.5L684 556L686 561L692 563.5L694 570L698.5 577H704L705 585L710.5 589H716C717.5 589 721.5 588 723 587.5C724.2 587.1 722.5 580.667 721.5 577.5L723 570L720 561L726.5 552.5L736 549H745L752 544.5L754.5 531.5L757.5 526.5L754.5 521.5L766.5 508.5L772 504L774 483L772 471.5L766.5 466.5L759 462L754.5 452.5L757.5 444L759 436L760.5 429L764 425L769.5 424C771.333 423.833 775.3 423.6 776.5 424C777.7 424.4 782 422.167 784 421H793L805.5 419L812 415L816 409H822.5H830.5L833.5 406L844.5 398L846 388L849.5 375.5L864.5 364V359.5L867.5 349V341L870 331.5L867.5 325V316L866 312L844 300L840 296L835.5 289.5V282.5V278.5L829 271L821.5 266L819 261.5L809.5 256V246.5L805 238L802.5 232L800.5 229.5L793 228L775 223L766 217L761 213.5L758.5 204.5L755.5 192L750 186L749 174.5L745.5 153.5L747.5 147L756.5 131L757 123L752.5 118.5L743 112V105.5L742 101L740 97.5L740.5 92L740 89.5Z" fill="#FFD597"/>
<path d="M740 89.5H100.5L101.5 93.5L100.5 96.5V100L109.5 107.5L107.5 120L106 123.5L101.5 122.5L100.5 125.5L102.5 127L106 129L104 132.5L105 133.5L107.5 135L115 136V146L117.5 147.5L119 151L117.5 154L115 160.5L112 162L109.5 164.5L112 169L109.5 174V176L111 178.5L109.5 182.5H107V184.5L108.5 189L106 191V193L104.5 198.5H102.5L101 201L100 206.5L98 208L95.5 213V217.5L97 219.5L99 221L106 227.5L112 235L115 244.5V253H118.5L123 254L125.5 257V262L121.5 267.5V275L123 278L128 285L129.5 288L132.5 293V296L129.5 298V305L133.5 310L139 314V323.5V325.5H142L145 328L142 330.5L143.5 333L148.5 332V335.5L154.5 337L156 341L153 347.5V350C154.333 351.833 157.2 355.6 158 356C158.8 356.4 159 359.833 159 361.5L163.5 366L160 374.5L161.5 379L158 381.5L157 384L160 388L157 394.5L161.5 399.5L160 404V408L166.5 411L167.5 407L169 405L172 409.5L169 415L171 416.5L179.5 418.5V434.5L177.5 435L177 438C178 438.5 180.2 439.7 181 440.5C182 441.5 184.5 442 186 442.5C187.2 442.9 186.167 445 185.5 446H182.5L179.5 448.5L182.5 454.5L181 463L188 463.5L186 465.5L185.5 470.5L187.5 474V479.5L186 481.5V484L188 485.5V492.5L191 494.5V505L194 509.5L189 513L191 526.5L188.5 527.5L185.5 531.5L186 536.5L188.5 541C189.667 541.833 192.2 543.5 193 543.5C193.8 543.5 196 545.5 197 546.5L201 552L200 555L201 557L679 552.5L684 556L686 561L692 563.5L694 570L698.5 577H704L705 585L710.5 589H716C717.5 589 721.5 588 723 587.5C724.2 587.1 722.5 580.667 721.5 577.5L723 570L720 561L726.5 552.5L736 549H745L752 544.5L754.5 531.5L757.5 526.5L754.5 521.5L766.5 508.5L772 504L774 483L772 471.5L766.5 466.5L759 462L754.5 452.5L757.5 444L759 436L760.5 429L764 425L769.5 424C771.333 423.833 775.3 423.6 776.5 424C777.7 424.4 782 422.167 784 421H793L805.5 419L812 415L816 409H822.5H830.5L833.5 406L844.5 398L846 388L849.5 375.5L864.5 364V359.5L867.5 349V341L870 331.5L867.5 325V316L866 312L844 300L840 296L835.5 289.5V282.5V278.5L829 271L821.5 266L819 261.5L809.5 256V246.5L805 238L802.5 232L800.5 229.5L793 228L775 223L766 217L761 213.5L758.5 204.5L755.5 192L750 186L749 174.5L745.5 153.5L747.5 147L756.5 131L757 123L752.5 118.5L743 112V105.5L742 101L740 97.5L740.5 92L740 89.5Z" stroke="black"/>
</g>
<path d="M443.722 49.5455H447.591L452.773 62.1932H452.977L458.159 49.5455H462.028V67H458.994V55.0085H458.832L454.009 66.9489H451.741L446.918 54.983H446.756V67H443.722V49.5455ZM479.815 49.5455V67H477.003L468.778 55.1108H468.634V67H465.472V49.5455H468.301L476.517 61.4432H476.67V49.5455H479.815Z" fill="#005A5E"/>
<path d="M822.395 170L817.469 152.545H820.869L824.014 165.372H824.176L827.534 152.545H830.628L833.994 165.381H834.148L837.293 152.545H840.693L835.767 170H832.648L829.153 157.753H829.017L825.514 170H822.395ZM846.048 152.545V170H842.886V152.545H846.048Z" fill="#005A5E"/>
<path d="M842.884 480.545V498H839.722V480.545H842.884ZM846.308 498V480.545H849.469V495.349H857.157V498H846.308Z" fill="#005A5E"/>
<path d="M422.722 594.545H426.591L431.773 607.193H431.977L437.159 594.545H441.028V612H437.994V600.009H437.832L433.009 611.949H430.741L425.918 599.983H425.756V612H422.722V594.545ZM460.068 603.273C460.068 605.153 459.716 606.764 459.011 608.105C458.313 609.44 457.358 610.463 456.148 611.173C454.943 611.884 453.577 612.239 452.048 612.239C450.52 612.239 449.151 611.884 447.94 611.173C446.736 610.457 445.781 609.432 445.077 608.097C444.378 606.756 444.028 605.148 444.028 603.273C444.028 601.392 444.378 599.784 445.077 598.449C445.781 597.108 446.736 596.082 447.94 595.372C449.151 594.662 450.52 594.307 452.048 594.307C453.577 594.307 454.943 594.662 456.148 595.372C457.358 596.082 458.313 597.108 459.011 598.449C459.716 599.784 460.068 601.392 460.068 603.273ZM456.889 603.273C456.889 601.949 456.682 600.832 456.267 599.923C455.858 599.009 455.29 598.318 454.562 597.852C453.835 597.381 452.997 597.145 452.048 597.145C451.099 597.145 450.261 597.381 449.534 597.852C448.807 598.318 448.236 599.009 447.821 599.923C447.412 600.832 447.207 601.949 447.207 603.273C447.207 604.597 447.412 605.716 447.821 606.631C448.236 607.54 448.807 608.23 449.534 608.702C450.261 609.168 451.099 609.401 452.048 609.401C452.997 609.401 453.835 609.168 454.562 608.702C455.29 608.23 455.858 607.54 456.267 606.631C456.682 605.716 456.889 604.597 456.889 603.273Z" fill="#005A5E"/>
<path d="M119.065 422.545V440H116.253L108.028 428.111H107.884V440H104.722V422.545H107.551L115.767 434.443H115.92V422.545H119.065ZM122.511 440V422.545H133.863V425.196H125.673V429.935H133.275V432.585H125.673V437.349H133.931V440H122.511Z" fill="#005A5E"/>
<path d="M56.2074 146.344C56.1278 145.599 55.7926 145.02 55.2017 144.605C54.6165 144.19 53.8551 143.983 52.9176 143.983C52.2585 143.983 51.6932 144.082 51.2216 144.281C50.75 144.48 50.3892 144.75 50.1392 145.091C49.8892 145.432 49.7614 145.821 49.7557 146.259C49.7557 146.622 49.8381 146.937 50.0028 147.205C50.1733 147.472 50.4034 147.699 50.6932 147.886C50.983 148.068 51.304 148.222 51.6562 148.347C52.0085 148.472 52.3636 148.577 52.7216 148.662L54.358 149.071C55.017 149.224 55.6506 149.432 56.2585 149.693C56.8722 149.955 57.4205 150.284 57.9034 150.682C58.392 151.08 58.7784 151.56 59.0625 152.122C59.3466 152.685 59.4886 153.344 59.4886 154.099C59.4886 155.122 59.2273 156.023 58.7045 156.801C58.1818 157.574 57.4261 158.179 56.4375 158.616C55.4545 159.048 54.2642 159.264 52.8665 159.264C51.5085 159.264 50.3295 159.054 49.3295 158.634C48.3352 158.213 47.5568 157.599 46.9943 156.793C46.4375 155.986 46.1364 155.003 46.0909 153.844H49.2017C49.2472 154.452 49.4347 154.957 49.7642 155.361C50.0938 155.764 50.5227 156.065 51.0511 156.264C51.5852 156.463 52.1818 156.562 52.8409 156.562C53.5284 156.562 54.1307 156.46 54.6477 156.256C55.1705 156.045 55.5795 155.756 55.875 155.386C56.1705 155.011 56.321 154.574 56.3267 154.074C56.321 153.619 56.1875 153.244 55.9261 152.949C55.6648 152.648 55.2983 152.398 54.8267 152.199C54.3608 151.994 53.8153 151.812 53.1903 151.653L51.2045 151.142C49.767 150.773 48.6307 150.213 47.7955 149.463C46.9659 148.707 46.5511 147.705 46.5511 146.455C46.5511 145.426 46.8295 144.526 47.3864 143.753C47.9489 142.98 48.7131 142.381 49.679 141.955C50.6449 141.523 51.7386 141.307 52.9602 141.307C54.1989 141.307 55.2841 141.523 56.2159 141.955C57.1534 142.381 57.8892 142.974 58.4233 143.736C58.9574 144.491 59.233 145.361 59.25 146.344H56.2074ZM68.2223 159H62.3075V141.545H68.3416C70.0746 141.545 71.5632 141.895 72.8075 142.594C74.0575 143.287 75.0178 144.284 75.6882 145.585C76.3587 146.886 76.6939 148.443 76.6939 150.256C76.6939 152.074 76.3558 153.636 75.6797 154.943C75.0092 156.25 74.0405 157.253 72.7734 157.952C71.5121 158.651 69.995 159 68.2223 159ZM65.4695 156.264H68.0689C69.2848 156.264 70.299 156.043 71.1115 155.599C71.924 155.151 72.5348 154.483 72.9439 153.597C73.353 152.705 73.5575 151.591 73.5575 150.256C73.5575 148.92 73.353 147.812 72.9439 146.932C72.5348 146.045 71.9297 145.384 71.1286 144.946C70.3331 144.503 69.3445 144.281 68.1626 144.281H65.4695V156.264Z" fill="#005A5E"/>
<circle cx="456.511" cy="397.511" r="9.01136" fill="#FF8F87" stroke="black"/>
<path d="M400.026 441H393.58V422.818H400.079C401.908 422.818 403.482 423.182 404.802 423.91C406.122 424.632 407.137 425.671 407.847 427.026C408.563 428.382 408.921 430.003 408.921 431.891C408.921 433.785 408.563 435.413 407.847 436.774C407.137 438.135 406.116 439.18 404.784 439.908C403.458 440.636 401.872 441 400.026 441ZM397.424 437.706H399.866C401.002 437.706 401.958 437.505 402.733 437.103C403.515 436.694 404.1 436.064 404.491 435.212C404.888 434.353 405.086 433.247 405.086 431.891C405.086 430.548 404.888 429.45 404.491 428.598C404.1 427.745 403.518 427.118 402.742 426.716C401.967 426.313 401.011 426.112 399.875 426.112H397.424V437.706ZM417.912 441.266C416.509 441.266 415.302 440.982 414.29 440.414C413.284 439.84 412.509 439.029 411.964 437.982C411.42 436.928 411.147 435.682 411.147 434.244C411.147 432.841 411.42 431.61 411.964 430.551C412.509 429.491 413.275 428.666 414.263 428.074C415.258 427.482 416.424 427.186 417.761 427.186C418.661 427.186 419.498 427.331 420.274 427.621C421.055 427.905 421.736 428.334 422.316 428.908C422.902 429.482 423.357 430.205 423.683 431.075C424.008 431.939 424.171 432.951 424.171 434.111V435.15H412.657V432.806H420.611C420.611 432.261 420.493 431.779 420.256 431.359C420.019 430.938 419.691 430.61 419.271 430.373C418.856 430.131 418.374 430.009 417.823 430.009C417.249 430.009 416.74 430.142 416.296 430.409C415.858 430.669 415.515 431.021 415.267 431.465C415.018 431.903 414.891 432.391 414.885 432.93V435.158C414.885 435.833 415.009 436.416 415.258 436.907C415.512 437.399 415.87 437.777 416.332 438.044C416.794 438.31 417.341 438.443 417.974 438.443C418.395 438.443 418.779 438.384 419.128 438.266C419.478 438.147 419.777 437.97 420.025 437.733C420.274 437.496 420.463 437.206 420.593 436.863L424.091 437.094C423.914 437.934 423.55 438.668 422.999 439.295C422.455 439.917 421.75 440.402 420.886 440.751C420.028 441.095 419.037 441.266 417.912 441.266ZM437.985 431.252L434.523 431.465C434.463 431.169 434.336 430.903 434.141 430.666C433.946 430.424 433.688 430.231 433.369 430.089C433.055 429.941 432.679 429.867 432.241 429.867C431.655 429.867 431.161 429.991 430.758 430.24C430.356 430.483 430.155 430.808 430.155 431.217C430.155 431.542 430.285 431.817 430.545 432.042C430.806 432.267 431.253 432.448 431.886 432.584L434.354 433.081C435.68 433.353 436.668 433.791 437.319 434.395C437.97 434.999 438.296 435.792 438.296 436.774C438.296 437.668 438.032 438.452 437.506 439.127C436.985 439.801 436.269 440.328 435.357 440.707C434.452 441.08 433.407 441.266 432.223 441.266C430.418 441.266 428.98 440.891 427.909 440.139C426.843 439.381 426.219 438.351 426.035 437.049L429.755 436.854C429.868 437.404 430.14 437.825 430.572 438.115C431.004 438.399 431.557 438.541 432.232 438.541C432.895 438.541 433.428 438.414 433.83 438.159C434.239 437.899 434.446 437.564 434.452 437.156C434.446 436.813 434.301 436.531 434.017 436.312C433.733 436.088 433.295 435.916 432.703 435.798L430.341 435.327C429.009 435.061 428.018 434.599 427.367 433.942C426.722 433.285 426.399 432.448 426.399 431.43C426.399 430.554 426.636 429.799 427.11 429.166C427.589 428.533 428.261 428.044 429.125 427.701C429.995 427.358 431.013 427.186 432.179 427.186C433.901 427.186 435.257 427.55 436.245 428.278C437.239 429.006 437.819 429.997 437.985 431.252ZM446.534 422.818H451.275L456.282 435.034H456.495L461.502 422.818H466.243V441H462.514V429.166H462.364L457.658 440.911H455.119L450.414 429.121H450.263V441H446.534V422.818ZM475.501 441.266C474.122 441.266 472.929 440.973 471.923 440.387C470.923 439.796 470.15 438.973 469.606 437.919C469.061 436.86 468.789 435.632 468.789 434.235C468.789 432.826 469.061 431.595 469.606 430.542C470.15 429.482 470.923 428.66 471.923 428.074C472.929 427.482 474.122 427.186 475.501 427.186C476.88 427.186 478.069 427.482 479.069 428.074C480.076 428.66 480.851 429.482 481.395 430.542C481.94 431.595 482.212 432.826 482.212 434.235C482.212 435.632 481.94 436.86 481.395 437.919C480.851 438.973 480.076 439.796 479.069 440.387C478.069 440.973 476.88 441.266 475.501 441.266ZM475.518 438.337C476.146 438.337 476.669 438.159 477.09 437.804C477.51 437.443 477.827 436.952 478.04 436.33C478.259 435.709 478.368 435.002 478.368 434.208C478.368 433.415 478.259 432.708 478.04 432.087C477.827 431.465 477.51 430.974 477.09 430.613C476.669 430.252 476.146 430.071 475.518 430.071C474.885 430.071 474.352 430.252 473.92 430.613C473.494 430.974 473.172 431.465 472.953 432.087C472.74 432.708 472.633 433.415 472.633 434.208C472.633 435.002 472.74 435.709 472.953 436.33C473.172 436.952 473.494 437.443 473.92 437.804C474.352 438.159 474.885 438.337 475.518 438.337ZM484.671 441V427.364H488.453V441H484.671ZM486.571 425.606C486.009 425.606 485.527 425.419 485.124 425.047C484.728 424.668 484.529 424.215 484.529 423.688C484.529 423.167 484.728 422.721 485.124 422.348C485.527 421.969 486.009 421.779 486.571 421.779C487.133 421.779 487.613 421.969 488.009 422.348C488.412 422.721 488.613 423.167 488.613 423.688C488.613 424.215 488.412 424.668 488.009 425.047C487.613 425.419 487.133 425.606 486.571 425.606ZM495.265 433.116V441H491.483V427.364H495.087V429.77H495.247C495.549 428.976 496.055 428.349 496.765 427.887C497.475 427.42 498.337 427.186 499.349 427.186C500.296 427.186 501.121 427.393 501.826 427.808C502.53 428.222 503.077 428.814 503.468 429.583C503.859 430.347 504.054 431.258 504.054 432.317V441H500.272V432.992C500.278 432.158 500.065 431.507 499.633 431.039C499.201 430.566 498.606 430.329 497.848 430.329C497.339 430.329 496.889 430.438 496.499 430.657C496.114 430.876 495.812 431.196 495.593 431.616C495.38 432.03 495.271 432.531 495.265 433.116ZM513.249 441.266C511.846 441.266 510.639 440.982 509.627 440.414C508.621 439.84 507.845 439.029 507.301 437.982C506.756 436.928 506.484 435.682 506.484 434.244C506.484 432.841 506.756 431.61 507.301 430.551C507.845 429.491 508.612 428.666 509.6 428.074C510.595 427.482 511.761 427.186 513.098 427.186C513.998 427.186 514.835 427.331 515.611 427.621C516.392 427.905 517.073 428.334 517.653 428.908C518.238 429.482 518.694 430.205 519.02 431.075C519.345 431.939 519.508 432.951 519.508 434.111V435.15H507.993V432.806H515.948C515.948 432.261 515.83 431.779 515.593 431.359C515.356 430.938 515.028 430.61 514.607 430.373C514.193 430.131 513.711 430.009 513.16 430.009C512.586 430.009 512.077 430.142 511.633 430.409C511.195 430.669 510.852 431.021 510.604 431.465C510.355 431.903 510.228 432.391 510.222 432.93V435.158C510.222 435.833 510.346 436.416 510.595 436.907C510.849 437.399 511.207 437.777 511.669 438.044C512.131 438.31 512.678 438.443 513.311 438.443C513.731 438.443 514.116 438.384 514.465 438.266C514.815 438.147 515.113 437.97 515.362 437.733C515.611 437.496 515.8 437.206 515.93 436.863L519.428 437.094C519.251 437.934 518.887 438.668 518.336 439.295C517.792 439.917 517.087 440.402 516.223 440.751C515.365 441.095 514.374 441.266 513.249 441.266ZM533.322 431.252L529.86 431.465C529.8 431.169 529.673 430.903 529.478 430.666C529.282 430.424 529.025 430.231 528.705 430.089C528.392 429.941 528.016 429.867 527.578 429.867C526.992 429.867 526.498 429.991 526.095 430.24C525.693 430.483 525.492 430.808 525.492 431.217C525.492 431.542 525.622 431.817 525.882 432.042C526.143 432.267 526.59 432.448 527.223 432.584L529.691 433.081C531.017 433.353 532.005 433.791 532.656 434.395C533.307 434.999 533.633 435.792 533.633 436.774C533.633 437.668 533.369 438.452 532.843 439.127C532.322 439.801 531.606 440.328 530.694 440.707C529.789 441.08 528.744 441.266 527.56 441.266C525.755 441.266 524.317 440.891 523.246 440.139C522.18 439.381 521.556 438.351 521.372 437.049L525.092 436.854C525.205 437.404 525.477 437.825 525.909 438.115C526.341 438.399 526.894 438.541 527.569 438.541C528.232 438.541 528.765 438.414 529.167 438.159C529.575 437.899 529.783 437.564 529.789 437.156C529.783 436.813 529.638 436.531 529.354 436.312C529.069 436.088 528.631 435.916 528.04 435.798L525.678 435.327C524.346 435.061 523.355 434.599 522.704 433.942C522.059 433.285 521.736 432.448 521.736 431.43C521.736 430.554 521.973 429.799 522.447 429.166C522.926 428.533 523.598 428.044 524.462 427.701C525.332 427.358 526.35 427.186 527.516 427.186C529.238 427.186 530.593 427.55 531.582 428.278C532.576 429.006 533.156 429.997 533.322 431.252Z" fill="black"/>
<path d="M623.832 305.5H621.631C621.5 304.867 621.273 304.31 620.947 303.831C620.627 303.352 620.237 302.949 619.775 302.624C619.319 302.292 618.813 302.044 618.257 301.878C617.701 301.712 617.121 301.629 616.517 301.629C615.416 301.629 614.419 301.907 613.525 302.464C612.637 303.02 611.93 303.84 611.403 304.923C610.883 306.006 610.622 307.335 610.622 308.909C610.622 310.483 610.883 311.812 611.403 312.895C611.93 313.978 612.637 314.798 613.525 315.354C614.419 315.911 615.416 316.189 616.517 316.189C617.121 316.189 617.701 316.106 618.257 315.94C618.813 315.775 619.319 315.529 619.775 315.203C620.237 314.872 620.627 314.467 620.947 313.987C621.273 313.502 621.5 312.946 621.631 312.318H623.832C623.667 313.247 623.365 314.079 622.927 314.813C622.489 315.547 621.944 316.171 621.293 316.686C620.642 317.195 619.911 317.583 619.1 317.849C618.296 318.115 617.434 318.249 616.517 318.249C614.966 318.249 613.587 317.87 612.38 317.112C611.173 316.355 610.223 315.277 609.53 313.881C608.838 312.484 608.491 310.827 608.491 308.909C608.491 306.991 608.838 305.334 609.53 303.938C610.223 302.541 611.173 301.464 612.38 300.706C613.587 299.948 614.966 299.57 616.517 299.57C617.434 299.57 618.296 299.703 619.1 299.969C619.911 300.235 620.642 300.626 621.293 301.141C621.944 301.65 622.489 302.271 622.927 303.005C623.365 303.733 623.667 304.565 623.832 305.5ZM632.823 318.284C631.509 318.284 630.376 317.994 629.423 317.414C628.476 316.828 627.745 316.011 627.23 314.964C626.721 313.91 626.467 312.685 626.467 311.288C626.467 309.892 626.721 308.661 627.23 307.595C627.745 306.524 628.461 305.689 629.379 305.092C630.302 304.488 631.379 304.186 632.61 304.186C633.321 304.186 634.022 304.304 634.714 304.541C635.407 304.778 636.037 305.163 636.605 305.695C637.174 306.222 637.626 306.92 637.964 307.79C638.301 308.661 638.47 309.732 638.47 311.004V311.892H627.958V310.081H636.339C636.339 309.312 636.185 308.625 635.877 308.021C635.576 307.418 635.143 306.941 634.581 306.592C634.025 306.243 633.368 306.068 632.61 306.068C631.776 306.068 631.054 306.275 630.444 306.69C629.84 307.098 629.376 307.631 629.05 308.288C628.725 308.945 628.562 309.649 628.562 310.401V311.608C628.562 312.638 628.74 313.511 629.095 314.227C629.456 314.937 629.956 315.479 630.595 315.852C631.234 316.219 631.977 316.402 632.823 316.402C633.374 316.402 633.871 316.325 634.315 316.171C634.765 316.011 635.152 315.775 635.478 315.461C635.803 315.141 636.055 314.745 636.233 314.271L638.257 314.839C638.044 315.526 637.686 316.13 637.182 316.651C636.679 317.165 636.058 317.568 635.318 317.858C634.578 318.142 633.747 318.284 632.823 318.284ZM646.806 318.284C645.67 318.284 644.666 317.997 643.796 317.423C642.926 316.843 642.246 316.026 641.755 314.973C641.263 313.913 641.018 312.661 641.018 311.217C641.018 309.785 641.263 308.542 641.755 307.489C642.246 306.435 642.929 305.621 643.805 305.047C644.681 304.473 645.693 304.186 646.842 304.186C647.729 304.186 648.431 304.334 648.946 304.63C649.466 304.92 649.863 305.251 650.135 305.624C650.413 305.991 650.629 306.293 650.783 306.53H650.961V299.818H653.056V318H651.032V315.905H650.783C650.629 316.153 650.41 316.467 650.126 316.846C649.842 317.219 649.437 317.553 648.91 317.849C648.383 318.139 647.682 318.284 646.806 318.284ZM647.09 316.402C647.931 316.402 648.641 316.183 649.221 315.745C649.801 315.301 650.242 314.689 650.544 313.907C650.845 313.12 650.996 312.212 650.996 311.182C650.996 310.164 650.848 309.273 650.552 308.51C650.257 307.74 649.819 307.142 649.239 306.716C648.659 306.284 647.942 306.068 647.09 306.068C646.202 306.068 645.463 306.296 644.871 306.752C644.285 307.202 643.844 307.814 643.548 308.589C643.258 309.359 643.113 310.223 643.113 311.182C643.113 312.152 643.261 313.034 643.557 313.827C643.859 314.615 644.302 315.242 644.888 315.71C645.48 316.171 646.214 316.402 647.09 316.402ZM661.197 318.32C660.333 318.32 659.549 318.157 658.844 317.831C658.14 317.5 657.581 317.023 657.166 316.402C656.752 315.775 656.545 315.017 656.545 314.129C656.545 313.348 656.699 312.715 657.007 312.229C657.314 311.738 657.726 311.353 658.241 311.075C658.756 310.797 659.324 310.59 659.945 310.454C660.573 310.312 661.203 310.199 661.836 310.116C662.665 310.01 663.337 309.93 663.851 309.877C664.372 309.818 664.751 309.72 664.988 309.584C665.23 309.448 665.352 309.211 665.352 308.874V308.803C665.352 307.927 665.112 307.246 664.633 306.761C664.159 306.275 663.44 306.033 662.475 306.033C661.475 306.033 660.691 306.252 660.123 306.69C659.555 307.128 659.155 307.595 658.924 308.092L656.936 307.382C657.291 306.554 657.764 305.908 658.356 305.447C658.954 304.979 659.605 304.654 660.309 304.47C661.019 304.281 661.718 304.186 662.404 304.186C662.842 304.186 663.345 304.239 663.914 304.346C664.488 304.446 665.041 304.657 665.574 304.976C666.112 305.296 666.559 305.778 666.914 306.423C667.269 307.068 667.447 307.933 667.447 309.016V318H665.352V316.153H665.245C665.103 316.449 664.867 316.766 664.535 317.103C664.204 317.441 663.763 317.728 663.212 317.964C662.662 318.201 661.99 318.32 661.197 318.32ZM661.517 316.438C662.345 316.438 663.044 316.275 663.612 315.949C664.186 315.624 664.618 315.203 664.908 314.689C665.204 314.174 665.352 313.632 665.352 313.064V311.146C665.263 311.253 665.068 311.35 664.766 311.439C664.47 311.522 664.127 311.596 663.736 311.661C663.351 311.72 662.976 311.774 662.609 311.821C662.248 311.862 661.955 311.898 661.73 311.928C661.185 311.999 660.676 312.114 660.203 312.274C659.735 312.428 659.356 312.661 659.066 312.975C658.782 313.283 658.64 313.703 658.64 314.236C658.64 314.964 658.909 315.514 659.448 315.887C659.993 316.254 660.682 316.438 661.517 316.438ZM671.271 318V304.364H673.295V306.423H673.437C673.686 305.749 674.136 305.201 674.787 304.781C675.438 304.361 676.172 304.151 676.988 304.151C677.142 304.151 677.335 304.154 677.566 304.159C677.796 304.165 677.971 304.174 678.089 304.186V306.317C678.018 306.299 677.856 306.272 677.601 306.237C677.352 306.195 677.089 306.175 676.811 306.175C676.148 306.175 675.556 306.314 675.035 306.592C674.52 306.864 674.112 307.243 673.81 307.728C673.514 308.208 673.366 308.755 673.366 309.371V318H671.271ZM687.888 318V299.818H694.032C695.452 299.818 696.618 300.061 697.53 300.546C698.441 301.026 699.116 301.685 699.554 302.526C699.992 303.366 700.211 304.322 700.211 305.393C700.211 306.465 699.992 307.415 699.554 308.243C699.116 309.072 698.444 309.723 697.538 310.196C696.633 310.664 695.476 310.898 694.067 310.898H689.096V308.909H693.996C694.967 308.909 695.748 308.767 696.34 308.483C696.938 308.199 697.37 307.796 697.636 307.276C697.908 306.749 698.044 306.121 698.044 305.393C698.044 304.665 697.908 304.029 697.636 303.485C697.364 302.94 696.929 302.52 696.331 302.224C695.733 301.922 694.943 301.771 693.961 301.771H690.09V318H687.888ZM696.446 309.832L700.921 318H698.364L693.961 309.832H696.446ZM707.608 318.32C706.744 318.32 705.96 318.157 705.256 317.831C704.551 317.5 703.992 317.023 703.578 316.402C703.163 315.775 702.956 315.017 702.956 314.129C702.956 313.348 703.11 312.715 703.418 312.229C703.726 311.738 704.137 311.353 704.652 311.075C705.167 310.797 705.735 310.59 706.356 310.454C706.984 310.312 707.614 310.199 708.247 310.116C709.076 310.01 709.748 309.93 710.263 309.877C710.783 309.818 711.162 309.72 711.399 309.584C711.642 309.448 711.763 309.211 711.763 308.874V308.803C711.763 307.927 711.523 307.246 711.044 306.761C710.57 306.275 709.851 306.033 708.887 306.033C707.886 306.033 707.102 306.252 706.534 306.69C705.966 307.128 705.566 307.595 705.335 308.092L703.347 307.382C703.702 306.554 704.175 305.908 704.767 305.447C705.365 304.979 706.016 304.654 706.72 304.47C707.431 304.281 708.129 304.186 708.816 304.186C709.253 304.186 709.757 304.239 710.325 304.346C710.899 304.446 711.452 304.657 711.985 304.976C712.523 305.296 712.97 305.778 713.325 306.423C713.681 307.068 713.858 307.933 713.858 309.016V318H711.763V316.153H711.656C711.514 316.449 711.278 316.766 710.946 317.103C710.615 317.441 710.174 317.728 709.623 317.964C709.073 318.201 708.401 318.32 707.608 318.32ZM707.928 316.438C708.756 316.438 709.455 316.275 710.023 315.949C710.597 315.624 711.029 315.203 711.319 314.689C711.615 314.174 711.763 313.632 711.763 313.064V311.146C711.674 311.253 711.479 311.35 711.177 311.439C710.881 311.522 710.538 311.596 710.147 311.661C709.762 311.72 709.387 311.774 709.02 311.821C708.659 311.862 708.366 311.898 708.141 311.928C707.596 311.999 707.087 312.114 706.614 312.274C706.146 312.428 705.767 312.661 705.477 312.975C705.193 313.283 705.051 313.703 705.051 314.236C705.051 314.964 705.321 315.514 705.859 315.887C706.404 316.254 707.093 316.438 707.928 316.438ZM717.682 323.114V304.364H719.706V306.53H719.955C720.109 306.293 720.322 305.991 720.594 305.624C720.872 305.251 721.269 304.92 721.784 304.63C722.305 304.334 723.009 304.186 723.897 304.186C725.045 304.186 726.057 304.473 726.933 305.047C727.809 305.621 728.493 306.435 728.984 307.489C729.475 308.542 729.721 309.785 729.721 311.217C729.721 312.661 729.475 313.913 728.984 314.973C728.493 316.026 727.812 316.843 726.942 317.423C726.072 317.997 725.069 318.284 723.932 318.284C723.056 318.284 722.355 318.139 721.828 317.849C721.301 317.553 720.896 317.219 720.612 316.846C720.328 316.467 720.109 316.153 719.955 315.905H719.777V323.114H717.682ZM719.742 311.182C719.742 312.212 719.893 313.12 720.195 313.907C720.497 314.689 720.937 315.301 721.517 315.745C722.098 316.183 722.808 316.402 723.648 316.402C724.524 316.402 725.255 316.171 725.841 315.71C726.433 315.242 726.877 314.615 727.173 313.827C727.475 313.034 727.625 312.152 727.625 311.182C727.625 310.223 727.477 309.359 727.182 308.589C726.892 307.814 726.451 307.202 725.859 306.752C725.273 306.296 724.536 306.068 723.648 306.068C722.796 306.068 722.08 306.284 721.5 306.716C720.92 307.142 720.482 307.74 720.186 308.51C719.89 309.273 719.742 310.164 719.742 311.182ZM732.917 318V304.364H735.012V318H732.917ZM733.982 302.091C733.574 302.091 733.221 301.952 732.926 301.674C732.636 301.395 732.491 301.061 732.491 300.67C732.491 300.28 732.636 299.945 732.926 299.667C733.221 299.389 733.574 299.25 733.982 299.25C734.39 299.25 734.74 299.389 735.03 299.667C735.325 299.945 735.473 300.28 735.473 300.67C735.473 301.061 735.325 301.395 735.03 301.674C734.74 301.952 734.39 302.091 733.982 302.091ZM743.998 318.284C742.862 318.284 741.859 317.997 740.989 317.423C740.119 316.843 739.438 316.026 738.947 314.973C738.456 313.913 738.21 312.661 738.21 311.217C738.21 309.785 738.456 308.542 738.947 307.489C739.438 306.435 740.122 305.621 740.998 305.047C741.874 304.473 742.886 304.186 744.034 304.186C744.922 304.186 745.623 304.334 746.138 304.63C746.659 304.92 747.055 305.251 747.328 305.624C747.606 305.991 747.822 306.293 747.976 306.53H748.153V299.818H750.248V318H748.224V315.905H747.976C747.822 316.153 747.603 316.467 747.319 316.846C747.035 317.219 746.629 317.553 746.102 317.849C745.576 318.139 744.874 318.284 743.998 318.284ZM744.282 316.402C745.123 316.402 745.833 316.183 746.413 315.745C746.993 315.301 747.434 314.689 747.736 313.907C748.038 313.12 748.189 312.212 748.189 311.182C748.189 310.164 748.041 309.273 747.745 308.51C747.449 307.74 747.011 307.142 746.431 306.716C745.851 306.284 745.135 306.068 744.282 306.068C743.395 306.068 742.655 306.296 742.063 306.752C741.477 307.202 741.036 307.814 740.74 308.589C740.45 309.359 740.305 310.223 740.305 311.182C740.305 312.152 740.453 313.034 740.749 313.827C741.051 314.615 741.495 315.242 742.081 315.71C742.673 316.171 743.407 316.402 744.282 316.402ZM764.036 307.418L762.154 307.95C762.035 307.637 761.861 307.332 761.63 307.036C761.405 306.734 761.097 306.485 760.706 306.29C760.316 306.095 759.816 305.997 759.206 305.997C758.372 305.997 757.676 306.19 757.12 306.574C756.569 306.953 756.294 307.435 756.294 308.021C756.294 308.542 756.484 308.953 756.862 309.255C757.241 309.557 757.833 309.809 758.638 310.01L760.662 310.507C761.881 310.803 762.79 311.256 763.388 311.865C763.985 312.469 764.284 313.247 764.284 314.2C764.284 314.982 764.059 315.68 763.61 316.295C763.166 316.911 762.544 317.396 761.745 317.751C760.946 318.107 760.017 318.284 758.958 318.284C757.567 318.284 756.416 317.982 755.504 317.379C754.593 316.775 754.016 315.893 753.773 314.733L755.762 314.236C755.951 314.97 756.309 315.52 756.836 315.887C757.368 316.254 758.064 316.438 758.922 316.438C759.899 316.438 760.674 316.23 761.248 315.816C761.828 315.396 762.118 314.893 762.118 314.307C762.118 313.833 761.952 313.437 761.621 313.117C761.289 312.792 760.78 312.549 760.094 312.389L757.821 311.857C756.572 311.561 755.655 311.102 755.069 310.48C754.489 309.853 754.199 309.069 754.199 308.128C754.199 307.358 754.415 306.678 754.847 306.086C755.285 305.494 755.88 305.029 756.632 304.692C757.389 304.355 758.247 304.186 759.206 304.186C760.556 304.186 761.615 304.482 762.384 305.074C763.16 305.666 763.71 306.447 764.036 307.418Z" fill="black"/>
<path d="M724.812 284H719.202V265.818H725.061C726.825 265.818 728.334 266.182 729.589 266.91C730.844 267.632 731.805 268.671 732.474 270.026C733.143 271.376 733.477 272.991 733.477 274.874C733.477 276.768 733.14 278.398 732.465 279.765C731.79 281.127 730.808 282.174 729.518 282.908C728.228 283.636 726.659 284 724.812 284ZM721.403 282.047H724.67C726.174 282.047 727.42 281.757 728.408 281.177C729.396 280.597 730.133 279.771 730.619 278.7C731.104 277.629 731.347 276.353 731.347 274.874C731.347 273.406 731.107 272.142 730.627 271.083C730.148 270.017 729.432 269.201 728.479 268.632C727.526 268.058 726.339 267.771 724.919 267.771H721.403V282.047ZM745.48 278.425V270.364H747.575V284H745.48V281.692H745.338C745.018 282.384 744.521 282.973 743.847 283.458C743.172 283.938 742.32 284.178 741.29 284.178C740.438 284.178 739.68 283.991 739.017 283.618C738.354 283.239 737.833 282.671 737.455 281.914C737.076 281.15 736.886 280.188 736.886 279.028V270.364H738.982V278.886C738.982 279.881 739.26 280.674 739.816 281.266C740.378 281.857 741.094 282.153 741.964 282.153C742.485 282.153 743.015 282.02 743.554 281.754C744.098 281.488 744.554 281.079 744.921 280.529C745.294 279.978 745.48 279.277 745.48 278.425ZM751.697 284V265.818H753.792V272.53H753.97C754.123 272.293 754.336 271.991 754.609 271.624C754.887 271.251 755.283 270.92 755.798 270.63C756.319 270.334 757.024 270.186 757.911 270.186C759.06 270.186 760.072 270.473 760.948 271.047C761.823 271.621 762.507 272.435 762.998 273.489C763.49 274.542 763.735 275.785 763.735 277.217C763.735 278.661 763.49 279.913 762.998 280.973C762.507 282.026 761.826 282.843 760.956 283.423C760.086 283.997 759.083 284.284 757.947 284.284C757.071 284.284 756.37 284.139 755.843 283.849C755.316 283.553 754.911 283.219 754.627 282.846C754.342 282.467 754.123 282.153 753.97 281.905H753.721V284H751.697ZM753.756 277.182C753.756 278.212 753.907 279.12 754.209 279.907C754.511 280.689 754.952 281.301 755.532 281.745C756.112 282.183 756.822 282.402 757.663 282.402C758.539 282.402 759.27 282.171 759.856 281.71C760.447 281.242 760.891 280.615 761.187 279.827C761.489 279.034 761.64 278.152 761.64 277.182C761.64 276.223 761.492 275.359 761.196 274.589C760.906 273.814 760.465 273.202 759.873 272.752C759.287 272.296 758.551 272.068 757.663 272.068C756.81 272.068 756.094 272.284 755.514 272.716C754.934 273.142 754.496 273.74 754.2 274.51C753.904 275.273 753.756 276.164 753.756 277.182ZM775.534 278.425V270.364H777.629V284H775.534V281.692H775.392C775.072 282.384 774.575 282.973 773.9 283.458C773.226 283.938 772.373 284.178 771.343 284.178C770.491 284.178 769.734 283.991 769.071 283.618C768.408 283.239 767.887 282.671 767.508 281.914C767.129 281.15 766.94 280.188 766.94 279.028V270.364H769.035V278.886C769.035 279.881 769.313 280.674 769.87 281.266C770.432 281.857 771.148 282.153 772.018 282.153C772.539 282.153 773.069 282.02 773.607 281.754C774.152 281.488 774.608 281.079 774.975 280.529C775.347 279.978 775.534 279.277 775.534 278.425ZM790.77 289.114V281.905H790.593C790.439 282.153 790.22 282.467 789.936 282.846C789.652 283.219 789.246 283.553 788.72 283.849C788.193 284.139 787.492 284.284 786.616 284.284C785.479 284.284 784.476 283.997 783.606 283.423C782.736 282.843 782.055 282.026 781.564 280.973C781.073 279.913 780.827 278.661 780.827 277.217C780.827 275.785 781.073 274.542 781.564 273.489C782.055 272.435 782.739 271.621 783.615 271.047C784.491 270.473 785.503 270.186 786.651 270.186C787.539 270.186 788.24 270.334 788.755 270.63C789.276 270.92 789.673 271.251 789.945 271.624C790.223 271.991 790.439 272.293 790.593 272.53H790.841V270.364H792.866V289.114H790.77ZM786.9 282.402C787.74 282.402 788.45 282.183 789.03 281.745C789.61 281.301 790.051 280.689 790.353 279.907C790.655 279.12 790.806 278.212 790.806 277.182C790.806 276.164 790.658 275.273 790.362 274.51C790.066 273.74 789.628 273.142 789.048 272.716C788.468 272.284 787.752 272.068 786.9 272.068C786.012 272.068 785.272 272.296 784.68 272.752C784.094 273.202 783.653 273.814 783.357 274.589C783.067 275.359 782.922 276.223 782.922 277.182C782.922 278.152 783.07 279.034 783.366 279.827C783.668 280.615 784.112 281.242 784.698 281.71C785.29 282.171 786.024 282.402 786.9 282.402ZM805.295 278.425V270.364H807.39V284H805.295V281.692H805.153C804.833 282.384 804.336 282.973 803.661 283.458C802.986 283.938 802.134 284.178 801.104 284.178C800.252 284.178 799.494 283.991 798.831 283.618C798.169 283.239 797.648 282.671 797.269 281.914C796.89 281.15 796.701 280.188 796.701 279.028V270.364H798.796V278.886C798.796 279.881 799.074 280.674 799.631 281.266C800.193 281.857 800.909 282.153 801.779 282.153C802.3 282.153 802.829 282.02 803.368 281.754C803.913 281.488 804.368 281.079 804.735 280.529C805.108 279.978 805.295 279.277 805.295 278.425ZM816.945 284.284C815.631 284.284 814.497 283.994 813.544 283.414C812.597 282.828 811.866 282.011 811.351 280.964C810.842 279.91 810.588 278.685 810.588 277.288C810.588 275.892 810.842 274.661 811.351 273.595C811.866 272.524 812.583 271.689 813.5 271.092C814.423 270.488 815.5 270.186 816.731 270.186C817.442 270.186 818.143 270.304 818.835 270.541C819.528 270.778 820.158 271.163 820.726 271.695C821.295 272.222 821.747 272.92 822.085 273.79C822.422 274.661 822.591 275.732 822.591 277.004V277.892H812.079V276.081H820.46C820.46 275.312 820.306 274.625 819.998 274.021C819.697 273.418 819.265 272.941 818.702 272.592C818.146 272.243 817.489 272.068 816.731 272.068C815.897 272.068 815.175 272.275 814.565 272.69C813.962 273.098 813.497 273.631 813.171 274.288C812.846 274.945 812.683 275.649 812.683 276.401V277.608C812.683 278.638 812.861 279.511 813.216 280.227C813.577 280.937 814.077 281.479 814.716 281.852C815.355 282.219 816.098 282.402 816.945 282.402C817.495 282.402 817.992 282.325 818.436 282.171C818.886 282.011 819.273 281.775 819.599 281.461C819.925 281.141 820.176 280.745 820.354 280.271L822.378 280.839C822.165 281.526 821.807 282.13 821.304 282.651C820.8 283.165 820.179 283.568 819.439 283.858C818.699 284.142 817.868 284.284 816.945 284.284Z" fill="black"/>
<path d="M558.504 232L553.533 213.818H555.77L559.57 228.626H559.747L563.618 213.818H566.104L569.974 228.626H570.152L573.952 213.818H576.189L571.217 232H568.945L564.932 217.511H564.79L560.777 232H558.504ZM581.391 232.32C580.527 232.32 579.743 232.157 579.039 231.831C578.334 231.5 577.775 231.023 577.361 230.402C576.946 229.775 576.739 229.017 576.739 228.129C576.739 227.348 576.893 226.715 577.201 226.229C577.509 225.738 577.92 225.353 578.435 225.075C578.95 224.797 579.518 224.59 580.14 224.454C580.767 224.312 581.397 224.199 582.031 224.116C582.859 224.01 583.531 223.93 584.046 223.877C584.567 223.818 584.945 223.72 585.182 223.584C585.425 223.448 585.546 223.211 585.546 222.874V222.803C585.546 221.927 585.306 221.246 584.827 220.761C584.354 220.275 583.634 220.033 582.67 220.033C581.67 220.033 580.885 220.252 580.317 220.69C579.749 221.128 579.349 221.595 579.119 222.092L577.13 221.382C577.485 220.554 577.959 219.908 578.55 219.447C579.148 218.979 579.799 218.654 580.504 218.47C581.214 218.281 581.912 218.186 582.599 218.186C583.037 218.186 583.54 218.239 584.108 218.346C584.682 218.446 585.235 218.657 585.768 218.976C586.307 219.296 586.754 219.778 587.109 220.423C587.464 221.068 587.641 221.933 587.641 223.016V232H585.546V230.153H585.44C585.298 230.449 585.061 230.766 584.729 231.103C584.398 231.441 583.957 231.728 583.407 231.964C582.856 232.201 582.184 232.32 581.391 232.32ZM581.711 230.438C582.54 230.438 583.238 230.275 583.806 229.949C584.38 229.624 584.812 229.203 585.102 228.689C585.398 228.174 585.546 227.632 585.546 227.064V225.146C585.457 225.253 585.262 225.35 584.96 225.439C584.664 225.522 584.321 225.596 583.93 225.661C583.546 225.72 583.17 225.774 582.803 225.821C582.442 225.862 582.149 225.898 581.924 225.928C581.379 225.999 580.871 226.114 580.397 226.274C579.929 226.428 579.551 226.661 579.261 226.975C578.977 227.283 578.835 227.703 578.835 228.236C578.835 228.964 579.104 229.514 579.642 229.887C580.187 230.254 580.876 230.438 581.711 230.438ZM597.396 218.364V220.139H590.329V218.364H597.396ZM592.389 215.097H594.484V228.094C594.484 228.686 594.57 229.129 594.741 229.425C594.919 229.715 595.144 229.911 595.416 230.011C595.694 230.106 595.987 230.153 596.295 230.153C596.526 230.153 596.715 230.142 596.863 230.118C597.011 230.088 597.13 230.065 597.218 230.047L597.644 231.929C597.502 231.982 597.304 232.036 597.05 232.089C596.795 232.148 596.473 232.178 596.082 232.178C595.49 232.178 594.91 232.05 594.342 231.796C593.78 231.541 593.312 231.154 592.939 230.633C592.572 230.112 592.389 229.455 592.389 228.662V215.097ZM606.118 232.284C604.804 232.284 603.671 231.994 602.718 231.414C601.771 230.828 601.04 230.011 600.525 228.964C600.016 227.91 599.762 226.685 599.762 225.288C599.762 223.892 600.016 222.661 600.525 221.595C601.04 220.524 601.756 219.689 602.674 219.092C603.597 218.488 604.674 218.186 605.905 218.186C606.616 218.186 607.317 218.304 608.009 218.541C608.702 218.778 609.332 219.163 609.9 219.695C610.468 220.222 610.921 220.92 611.259 221.79C611.596 222.661 611.765 223.732 611.765 225.004V225.892H601.253V224.081H609.634C609.634 223.312 609.48 222.625 609.172 222.021C608.87 221.418 608.438 220.941 607.876 220.592C607.32 220.243 606.663 220.068 605.905 220.068C605.071 220.068 604.349 220.275 603.739 220.69C603.135 221.098 602.671 221.631 602.345 222.288C602.02 222.945 601.857 223.649 601.857 224.401V225.608C601.857 226.638 602.035 227.511 602.39 228.227C602.751 228.937 603.251 229.479 603.89 229.852C604.529 230.219 605.272 230.402 606.118 230.402C606.669 230.402 607.166 230.325 607.61 230.171C608.06 230.011 608.447 229.775 608.773 229.461C609.098 229.141 609.35 228.745 609.527 228.271L611.552 228.839C611.339 229.526 610.98 230.13 610.477 230.651C609.974 231.165 609.353 231.568 608.613 231.858C607.873 232.142 607.042 232.284 606.118 232.284ZM614.952 232V218.364H616.976V220.423H617.118C617.367 219.749 617.816 219.201 618.467 218.781C619.118 218.361 619.852 218.151 620.669 218.151C620.823 218.151 621.015 218.154 621.246 218.159C621.477 218.165 621.652 218.174 621.77 218.186V220.317C621.699 220.299 621.536 220.272 621.282 220.237C621.033 220.195 620.77 220.175 620.492 220.175C619.829 220.175 619.237 220.314 618.716 220.592C618.201 220.864 617.793 221.243 617.491 221.728C617.195 222.208 617.047 222.755 617.047 223.371V232H614.952ZM626.349 213.818V232H624.254V213.818H626.349ZM635.726 232.284C634.495 232.284 633.415 231.991 632.486 231.405C631.562 230.819 630.84 230 630.319 228.946C629.804 227.893 629.547 226.661 629.547 225.253C629.547 223.832 629.804 222.592 630.319 221.533C630.84 220.474 631.562 219.651 632.486 219.065C633.415 218.479 634.495 218.186 635.726 218.186C636.957 218.186 638.034 218.479 638.957 219.065C639.887 219.651 640.609 220.474 641.124 221.533C641.645 222.592 641.905 223.832 641.905 225.253C641.905 226.661 641.645 227.893 641.124 228.946C640.609 230 639.887 230.819 638.957 231.405C638.034 231.991 636.957 232.284 635.726 232.284ZM635.726 230.402C636.661 230.402 637.43 230.162 638.034 229.683C638.638 229.203 639.085 228.573 639.375 227.792C639.665 227.011 639.81 226.164 639.81 225.253C639.81 224.341 639.665 223.492 639.375 222.705C639.085 221.918 638.638 221.281 638.034 220.796C637.43 220.311 636.661 220.068 635.726 220.068C634.791 220.068 634.021 220.311 633.418 220.796C632.814 221.281 632.367 221.918 632.077 222.705C631.787 223.492 631.642 224.341 631.642 225.253C631.642 226.164 631.787 227.011 632.077 227.792C632.367 228.573 632.814 229.203 633.418 229.683C634.021 230.162 634.791 230.402 635.726 230.402ZM650.643 232.284C649.412 232.284 648.332 231.991 647.403 231.405C646.479 230.819 645.757 230 645.236 228.946C644.721 227.893 644.464 226.661 644.464 225.253C644.464 223.832 644.721 222.592 645.236 221.533C645.757 220.474 646.479 219.651 647.403 219.065C648.332 218.479 649.412 218.186 650.643 218.186C651.874 218.186 652.951 218.479 653.874 219.065C654.804 219.651 655.526 220.474 656.041 221.533C656.561 222.592 656.822 223.832 656.822 225.253C656.822 226.661 656.561 227.893 656.041 228.946C655.526 230 654.804 230.819 653.874 231.405C652.951 231.991 651.874 232.284 650.643 232.284ZM650.643 230.402C651.578 230.402 652.347 230.162 652.951 229.683C653.555 229.203 654.002 228.573 654.292 227.792C654.582 227.011 654.727 226.164 654.727 225.253C654.727 224.341 654.582 223.492 654.292 222.705C654.002 221.918 653.555 221.281 652.951 220.796C652.347 220.311 651.578 220.068 650.643 220.068C649.708 220.068 648.938 220.311 648.335 220.796C647.731 221.281 647.284 221.918 646.994 222.705C646.704 223.492 646.559 224.341 646.559 225.253C646.559 226.164 646.704 227.011 646.994 227.792C647.284 228.573 647.731 229.203 648.335 229.683C648.938 230.162 649.708 230.402 650.643 230.402Z" fill="black"/>
<path d="M127.145 218.364C127.038 217.464 126.606 216.766 125.849 216.268C125.091 215.771 124.162 215.523 123.061 215.523C122.256 215.523 121.552 215.653 120.948 215.913C120.35 216.174 119.883 216.532 119.545 216.988C119.214 217.443 119.048 217.961 119.048 218.541C119.048 219.027 119.164 219.444 119.395 219.793C119.631 220.136 119.933 220.423 120.3 220.654C120.667 220.879 121.052 221.065 121.454 221.213C121.857 221.355 122.227 221.471 122.564 221.56L124.411 222.057C124.884 222.181 125.411 222.353 125.991 222.572C126.577 222.791 127.136 223.09 127.669 223.468C128.207 223.841 128.651 224.321 129 224.907C129.35 225.493 129.524 226.212 129.524 227.064C129.524 228.046 129.267 228.934 128.752 229.727C128.243 230.52 127.497 231.151 126.515 231.618C125.538 232.086 124.351 232.32 122.955 232.32C121.652 232.32 120.525 232.109 119.572 231.689C118.625 231.269 117.879 230.683 117.335 229.931C116.796 229.18 116.491 228.307 116.42 227.312H118.693C118.752 227.999 118.983 228.567 119.386 229.017C119.794 229.461 120.309 229.792 120.93 230.011C121.558 230.224 122.232 230.331 122.955 230.331C123.795 230.331 124.55 230.195 125.218 229.923C125.887 229.644 126.417 229.26 126.808 228.768C127.198 228.271 127.393 227.691 127.393 227.028C127.393 226.425 127.225 225.933 126.887 225.555C126.55 225.176 126.106 224.868 125.556 224.631C125.005 224.395 124.411 224.187 123.771 224.01L121.534 223.371C120.114 222.962 118.989 222.379 118.161 221.622C117.332 220.864 116.918 219.873 116.918 218.648C116.918 217.63 117.193 216.742 117.743 215.984C118.3 215.221 119.045 214.629 119.98 214.209C120.922 213.783 121.972 213.57 123.132 213.57C124.304 213.57 125.346 213.78 126.257 214.2C127.169 214.614 127.891 215.182 128.423 215.904C128.962 216.627 129.246 217.446 129.276 218.364H127.145ZM132.86 232V218.364H134.955V232H132.86ZM133.925 216.091C133.517 216.091 133.165 215.952 132.869 215.674C132.579 215.395 132.434 215.061 132.434 214.67C132.434 214.28 132.579 213.945 132.869 213.667C133.165 213.389 133.517 213.25 133.925 213.25C134.334 213.25 134.683 213.389 134.973 213.667C135.269 213.945 135.417 214.28 135.417 214.67C135.417 215.061 135.269 215.395 134.973 215.674C134.683 215.952 134.334 216.091 133.925 216.091ZM144.332 232.284C143.101 232.284 142.021 231.991 141.092 231.405C140.169 230.819 139.447 230 138.926 228.946C138.411 227.893 138.153 226.661 138.153 225.253C138.153 223.832 138.411 222.592 138.926 221.533C139.447 220.474 140.169 219.651 141.092 219.065C142.021 218.479 143.101 218.186 144.332 218.186C145.563 218.186 146.641 218.479 147.564 219.065C148.493 219.651 149.215 220.474 149.73 221.533C150.251 222.592 150.511 223.832 150.511 225.253C150.511 226.661 150.251 227.893 149.73 228.946C149.215 230 148.493 230.819 147.564 231.405C146.641 231.991 145.563 232.284 144.332 232.284ZM144.332 230.402C145.268 230.402 146.037 230.162 146.641 229.683C147.244 229.203 147.691 228.573 147.981 227.792C148.271 227.011 148.416 226.164 148.416 225.253C148.416 224.341 148.271 223.492 147.981 222.705C147.691 221.918 147.244 221.281 146.641 220.796C146.037 220.311 145.268 220.068 144.332 220.068C143.397 220.068 142.628 220.311 142.024 220.796C141.42 221.281 140.974 221.918 140.684 222.705C140.394 223.492 140.249 224.341 140.249 225.253C140.249 226.164 140.394 227.011 140.684 227.792C140.974 228.573 141.42 229.203 142.024 229.683C142.628 230.162 143.397 230.402 144.332 230.402ZM162.303 226.425V218.364H164.399V232H162.303V229.692H162.161C161.842 230.384 161.345 230.973 160.67 231.458C159.995 231.938 159.143 232.178 158.113 232.178C157.261 232.178 156.503 231.991 155.84 231.618C155.177 231.239 154.657 230.671 154.278 229.914C153.899 229.15 153.71 228.188 153.71 227.028V218.364H155.805V226.886C155.805 227.881 156.083 228.674 156.639 229.266C157.202 229.857 157.918 230.153 158.788 230.153C159.309 230.153 159.838 230.02 160.377 229.754C160.921 229.488 161.377 229.079 161.744 228.529C162.117 227.978 162.303 227.277 162.303 226.425ZM169.798 218.364L173.066 223.939L176.333 218.364H178.747L174.344 225.182L178.747 232H176.333L173.066 226.709L169.798 232H167.384L171.716 225.182L167.384 218.364H169.798ZM203.683 219.5H201.481C201.351 218.867 201.123 218.31 200.798 217.831C200.478 217.352 200.087 216.949 199.626 216.624C199.17 216.292 198.664 216.044 198.108 215.878C197.551 215.712 196.971 215.629 196.368 215.629C195.267 215.629 194.27 215.907 193.376 216.464C192.488 217.02 191.781 217.84 191.254 218.923C190.733 220.006 190.473 221.335 190.473 222.909C190.473 224.483 190.733 225.812 191.254 226.895C191.781 227.978 192.488 228.798 193.376 229.354C194.27 229.911 195.267 230.189 196.368 230.189C196.971 230.189 197.551 230.106 198.108 229.94C198.664 229.775 199.17 229.529 199.626 229.203C200.087 228.872 200.478 228.467 200.798 227.987C201.123 227.502 201.351 226.946 201.481 226.318H203.683C203.517 227.247 203.215 228.079 202.777 228.813C202.339 229.547 201.795 230.171 201.144 230.686C200.493 231.195 199.762 231.583 198.951 231.849C198.146 232.115 197.285 232.249 196.368 232.249C194.817 232.249 193.438 231.87 192.231 231.112C191.023 230.355 190.073 229.277 189.381 227.881C188.688 226.484 188.342 224.827 188.342 222.909C188.342 220.991 188.688 219.334 189.381 217.938C190.073 216.541 191.023 215.464 192.231 214.706C193.438 213.948 194.817 213.57 196.368 213.57C197.285 213.57 198.146 213.703 198.951 213.969C199.762 214.235 200.493 214.626 201.144 215.141C201.795 215.65 202.339 216.271 202.777 217.005C203.215 217.733 203.517 218.565 203.683 219.5ZM206.957 232V218.364H209.052V232H206.957ZM208.022 216.091C207.614 216.091 207.261 215.952 206.966 215.674C206.676 215.395 206.531 215.061 206.531 214.67C206.531 214.28 206.676 213.945 206.966 213.667C207.261 213.389 207.614 213.25 208.022 213.25C208.43 213.25 208.78 213.389 209.07 213.667C209.366 213.945 209.513 214.28 209.513 214.67C209.513 215.061 209.366 215.395 209.07 215.674C208.78 215.952 208.43 216.091 208.022 216.091ZM218.82 218.364V220.139H211.753V218.364H218.82ZM213.813 215.097H215.908V228.094C215.908 228.686 215.994 229.129 216.165 229.425C216.343 229.715 216.568 229.911 216.84 230.011C217.118 230.106 217.411 230.153 217.719 230.153C217.95 230.153 218.139 230.142 218.287 230.118C218.435 230.088 218.553 230.065 218.642 230.047L219.068 231.929C218.926 231.982 218.728 232.036 218.473 232.089C218.219 232.148 217.896 232.178 217.506 232.178C216.914 232.178 216.334 232.05 215.766 231.796C215.203 231.541 214.736 231.154 214.363 230.633C213.996 230.112 213.813 229.455 213.813 228.662V215.097ZM223.321 237.114C222.966 237.114 222.649 237.084 222.371 237.025C222.093 236.972 221.9 236.918 221.794 236.865L222.326 235.018C222.835 235.149 223.285 235.196 223.676 235.161C224.066 235.125 224.413 234.95 224.715 234.637C225.022 234.329 225.303 233.829 225.558 233.136L225.949 232.071L220.906 218.364H223.179L226.943 229.23H227.085L230.849 218.364H233.122L227.334 233.989C227.073 234.693 226.751 235.276 226.366 235.738C225.981 236.205 225.534 236.551 225.025 236.776C224.522 237.001 223.954 237.114 223.321 237.114Z" fill="black"/>
<path d="M611.403 401.818V420H609.202V401.818H611.403ZM621.074 420.284C619.843 420.284 618.762 419.991 617.833 419.405C616.91 418.819 616.188 418 615.667 416.946C615.152 415.893 614.895 414.661 614.895 413.253C614.895 411.832 615.152 410.592 615.667 409.533C616.188 408.474 616.91 407.651 617.833 407.065C618.762 406.479 619.843 406.186 621.074 406.186C622.305 406.186 623.382 406.479 624.305 407.065C625.234 407.651 625.956 408.474 626.471 409.533C626.992 410.592 627.253 411.832 627.253 413.253C627.253 414.661 626.992 415.893 626.471 416.946C625.956 418 625.234 418.819 624.305 419.405C623.382 419.991 622.305 420.284 621.074 420.284ZM621.074 418.402C622.009 418.402 622.778 418.162 623.382 417.683C623.986 417.203 624.432 416.573 624.722 415.792C625.012 415.011 625.157 414.164 625.157 413.253C625.157 412.341 625.012 411.492 624.722 410.705C624.432 409.918 623.986 409.281 623.382 408.796C622.778 408.311 622.009 408.068 621.074 408.068C620.138 408.068 619.369 408.311 618.765 408.796C618.162 409.281 617.715 409.918 617.425 410.705C617.135 411.492 616.99 412.341 616.99 413.253C616.99 414.164 617.135 415.011 617.425 415.792C617.715 416.573 618.162 417.203 618.765 417.683C619.369 418.162 620.138 418.402 621.074 418.402ZM633.076 420L628.922 406.364H631.123L634.071 416.804H634.213L637.125 406.364H639.362L642.238 416.768H642.38L645.328 406.364H647.53L643.375 420H641.315L638.332 409.524H638.119L635.136 420H633.076ZM654.312 420.32C653.448 420.32 652.664 420.157 651.96 419.831C651.255 419.5 650.696 419.023 650.282 418.402C649.867 417.775 649.66 417.017 649.66 416.129C649.66 415.348 649.814 414.715 650.122 414.229C650.43 413.738 650.841 413.353 651.356 413.075C651.871 412.797 652.439 412.59 653.06 412.454C653.688 412.312 654.318 412.199 654.951 412.116C655.78 412.01 656.452 411.93 656.967 411.877C657.488 411.818 657.866 411.72 658.103 411.584C658.346 411.448 658.467 411.211 658.467 410.874V410.803C658.467 409.927 658.227 409.246 657.748 408.761C657.274 408.275 656.555 408.033 655.591 408.033C654.59 408.033 653.806 408.252 653.238 408.69C652.67 409.128 652.27 409.595 652.04 410.092L650.051 409.382C650.406 408.554 650.879 407.908 651.471 407.447C652.069 406.979 652.72 406.654 653.424 406.47C654.135 406.281 654.833 406.186 655.52 406.186C655.958 406.186 656.461 406.239 657.029 406.346C657.603 406.446 658.156 406.657 658.689 406.976C659.228 407.296 659.674 407.778 660.03 408.423C660.385 409.068 660.562 409.933 660.562 411.016V420H658.467V418.153H658.361C658.218 418.449 657.982 418.766 657.65 419.103C657.319 419.441 656.878 419.728 656.328 419.964C655.777 420.201 655.105 420.32 654.312 420.32ZM654.632 418.438C655.46 418.438 656.159 418.275 656.727 417.949C657.301 417.624 657.733 417.203 658.023 416.689C658.319 416.174 658.467 415.632 658.467 415.064V413.146C658.378 413.253 658.183 413.35 657.881 413.439C657.585 413.522 657.242 413.596 656.851 413.661C656.467 413.72 656.091 413.774 655.724 413.821C655.363 413.862 655.07 413.898 654.845 413.928C654.3 413.999 653.791 414.114 653.318 414.274C652.85 414.428 652.472 414.661 652.182 414.975C651.897 415.283 651.755 415.703 651.755 416.236C651.755 416.964 652.025 417.514 652.563 417.887C653.108 418.254 653.797 418.438 654.632 418.438ZM686.332 407.5H684.131C684 406.867 683.773 406.31 683.447 405.831C683.127 405.352 682.737 404.949 682.275 404.624C681.819 404.292 681.313 404.044 680.757 403.878C680.201 403.712 679.621 403.629 679.017 403.629C677.916 403.629 676.919 403.907 676.025 404.464C675.137 405.02 674.43 405.84 673.903 406.923C673.383 408.006 673.122 409.335 673.122 410.909C673.122 412.483 673.383 413.812 673.903 414.895C674.43 415.978 675.137 416.798 676.025 417.354C676.919 417.911 677.916 418.189 679.017 418.189C679.621 418.189 680.201 418.106 680.757 417.94C681.313 417.775 681.819 417.529 682.275 417.203C682.737 416.872 683.127 416.467 683.447 415.987C683.773 415.502 684 414.946 684.131 414.318H686.332C686.167 415.247 685.865 416.079 685.427 416.813C684.989 417.547 684.444 418.171 683.793 418.686C683.142 419.195 682.411 419.583 681.6 419.849C680.796 420.115 679.934 420.249 679.017 420.249C677.466 420.249 676.087 419.87 674.88 419.112C673.673 418.355 672.723 417.277 672.03 415.881C671.338 414.484 670.991 412.827 670.991 410.909C670.991 408.991 671.338 407.334 672.03 405.938C672.723 404.541 673.673 403.464 674.88 402.706C676.087 401.948 677.466 401.57 679.017 401.57C679.934 401.57 680.796 401.703 681.6 401.969C682.411 402.235 683.142 402.626 683.793 403.141C684.444 403.65 684.989 404.271 685.427 405.005C685.865 405.733 686.167 406.565 686.332 407.5ZM689.606 420V406.364H691.701V420H689.606ZM690.671 404.091C690.263 404.091 689.911 403.952 689.615 403.674C689.325 403.395 689.18 403.061 689.18 402.67C689.18 402.28 689.325 401.945 689.615 401.667C689.911 401.389 690.263 401.25 690.671 401.25C691.08 401.25 691.429 401.389 691.719 401.667C692.015 401.945 692.163 402.28 692.163 402.67C692.163 403.061 692.015 403.395 691.719 403.674C691.429 403.952 691.08 404.091 690.671 404.091ZM701.469 406.364V408.139H694.402V406.364H701.469ZM696.462 403.097H698.557V416.094C698.557 416.686 698.643 417.129 698.815 417.425C698.992 417.715 699.217 417.911 699.489 418.011C699.768 418.106 700.06 418.153 700.368 418.153C700.599 418.153 700.788 418.142 700.936 418.118C701.084 418.088 701.203 418.065 701.292 418.047L701.718 419.929C701.576 419.982 701.377 420.036 701.123 420.089C700.868 420.148 700.546 420.178 700.155 420.178C699.563 420.178 698.983 420.05 698.415 419.796C697.853 419.541 697.385 419.154 697.012 418.633C696.645 418.112 696.462 417.455 696.462 416.662V403.097ZM705.97 425.114C705.615 425.114 705.298 425.084 705.02 425.025C704.742 424.972 704.55 424.918 704.443 424.865L704.976 423.018C705.485 423.149 705.935 423.196 706.325 423.161C706.716 423.125 707.062 422.95 707.364 422.637C707.672 422.329 707.953 421.829 708.207 421.136L708.598 420.071L703.555 406.364H705.828L709.592 417.23H709.734L713.499 406.364H715.771L709.983 421.989C709.723 422.693 709.4 423.276 709.015 423.738C708.631 424.205 708.184 424.551 707.675 424.776C707.172 425.001 706.603 425.114 705.97 425.114Z" fill="black"/>
<path d="M731.812 388H726.202V369.818H732.061C733.825 369.818 735.334 370.182 736.589 370.91C737.844 371.632 738.805 372.671 739.474 374.026C740.143 375.376 740.477 376.991 740.477 378.874C740.477 380.768 740.14 382.398 739.465 383.765C738.79 385.127 737.808 386.174 736.518 386.908C735.228 387.636 733.659 388 731.812 388ZM728.403 386.047H731.67C733.174 386.047 734.42 385.757 735.408 385.177C736.396 384.597 737.133 383.771 737.619 382.7C738.104 381.629 738.347 380.353 738.347 378.874C738.347 377.406 738.107 376.142 737.627 375.083C737.148 374.017 736.432 373.201 735.479 372.632C734.526 372.058 733.339 371.771 731.919 371.771H728.403V386.047ZM749.604 388.284C748.29 388.284 747.156 387.994 746.203 387.414C745.257 386.828 744.526 386.011 744.011 384.964C743.502 383.91 743.247 382.685 743.247 381.288C743.247 379.892 743.502 378.661 744.011 377.595C744.526 376.524 745.242 375.689 746.159 375.092C747.082 374.488 748.16 374.186 749.391 374.186C750.101 374.186 750.802 374.304 751.495 374.541C752.187 374.778 752.817 375.163 753.386 375.695C753.954 376.222 754.407 376.92 754.744 377.79C755.081 378.661 755.25 379.732 755.25 381.004V381.892H744.739V380.081H753.119C753.119 379.312 752.965 378.625 752.658 378.021C752.356 377.418 751.924 376.941 751.362 376.592C750.805 376.243 750.148 376.068 749.391 376.068C748.556 376.068 747.834 376.275 747.224 376.69C746.621 377.098 746.156 377.631 745.831 378.288C745.505 378.945 745.342 379.649 745.342 380.401V381.608C745.342 382.638 745.52 383.511 745.875 384.227C746.236 384.937 746.736 385.479 747.375 385.852C748.015 386.219 748.757 386.402 749.604 386.402C750.154 386.402 750.651 386.325 751.095 386.171C751.545 386.011 751.933 385.775 752.258 385.461C752.584 385.141 752.835 384.745 753.013 384.271L755.037 384.839C754.824 385.526 754.466 386.13 753.963 386.651C753.46 387.165 752.838 387.568 752.098 387.858C751.359 388.142 750.527 388.284 749.604 388.284ZM769.173 374.364L764.13 388H761.999L756.957 374.364H759.229L762.994 385.23H763.136L766.9 374.364H769.173ZM777.167 388.284C775.853 388.284 774.72 387.994 773.767 387.414C772.82 386.828 772.089 386.011 771.574 384.964C771.065 383.91 770.811 382.685 770.811 381.288C770.811 379.892 771.065 378.661 771.574 377.595C772.089 376.524 772.805 375.689 773.723 375.092C774.646 374.488 775.723 374.186 776.954 374.186C777.664 374.186 778.366 374.304 779.058 374.541C779.751 374.778 780.381 375.163 780.949 375.695C781.517 376.222 781.97 376.92 782.307 377.79C782.645 378.661 782.813 379.732 782.813 381.004V381.892H772.302V380.081H780.683C780.683 379.312 780.529 378.625 780.221 378.021C779.919 377.418 779.487 376.941 778.925 376.592C778.369 376.243 777.712 376.068 776.954 376.068C776.12 376.068 775.398 376.275 774.788 376.69C774.184 377.098 773.72 377.631 773.394 378.288C773.069 378.945 772.906 379.649 772.906 380.401V381.608C772.906 382.638 773.083 383.511 773.438 384.227C773.8 384.937 774.3 385.479 774.939 385.852C775.578 386.219 776.321 386.402 777.167 386.402C777.718 386.402 778.215 386.325 778.659 386.171C779.108 386.011 779.496 385.775 779.822 385.461C780.147 385.141 780.399 384.745 780.576 384.271L782.6 384.839C782.387 385.526 782.029 386.13 781.526 386.651C781.023 387.165 780.402 387.568 779.662 387.858C778.922 388.142 778.09 388.284 777.167 388.284ZM788.096 379.797V388H786.001V374.364H788.025V376.494H788.202C788.522 375.802 789.007 375.246 789.658 374.825C790.309 374.399 791.15 374.186 792.18 374.186C793.103 374.186 793.911 374.375 794.603 374.754C795.296 375.127 795.834 375.695 796.219 376.459C796.604 377.216 796.796 378.175 796.796 379.335V388H794.701V379.477C794.701 378.406 794.423 377.571 793.866 376.974C793.31 376.37 792.547 376.068 791.576 376.068C790.907 376.068 790.309 376.213 789.783 376.503C789.262 376.793 788.85 377.216 788.549 377.773C788.247 378.329 788.096 379.004 788.096 379.797ZM800.625 393.114V374.364H802.649V376.53H802.897C803.051 376.293 803.264 375.991 803.537 375.624C803.815 375.251 804.211 374.92 804.726 374.63C805.247 374.334 805.951 374.186 806.839 374.186C807.987 374.186 808.999 374.473 809.875 375.047C810.751 375.621 811.435 376.435 811.926 377.489C812.417 378.542 812.663 379.785 812.663 381.217C812.663 382.661 812.417 383.913 811.926 384.973C811.435 386.026 810.754 386.843 809.884 387.423C809.014 387.997 808.011 388.284 806.875 388.284C805.999 388.284 805.297 388.139 804.771 387.849C804.244 387.553 803.838 387.219 803.554 386.846C803.27 386.467 803.051 386.153 802.897 385.905H802.72V393.114H800.625ZM802.684 381.182C802.684 382.212 802.835 383.12 803.137 383.907C803.439 384.689 803.88 385.301 804.46 385.745C805.04 386.183 805.75 386.402 806.591 386.402C807.467 386.402 808.197 386.171 808.783 385.71C809.375 385.242 809.819 384.615 810.115 383.827C810.417 383.034 810.568 382.152 810.568 381.182C810.568 380.223 810.42 379.359 810.124 378.589C809.834 377.814 809.393 377.202 808.801 376.752C808.215 376.296 807.478 376.068 806.591 376.068C805.738 376.068 805.022 376.284 804.442 376.716C803.862 377.142 803.424 377.74 803.128 378.51C802.832 379.273 802.684 380.164 802.684 381.182ZM821.399 388.284C820.168 388.284 819.088 387.991 818.158 387.405C817.235 386.819 816.513 386 815.992 384.946C815.477 383.893 815.22 382.661 815.22 381.253C815.22 379.832 815.477 378.592 815.992 377.533C816.513 376.474 817.235 375.651 818.158 375.065C819.088 374.479 820.168 374.186 821.399 374.186C822.63 374.186 823.707 374.479 824.63 375.065C825.56 375.651 826.282 376.474 826.797 377.533C827.317 378.592 827.578 379.832 827.578 381.253C827.578 382.661 827.317 383.893 826.797 384.946C826.282 386 825.56 386.819 824.63 387.405C823.707 387.991 822.63 388.284 821.399 388.284ZM821.399 386.402C822.334 386.402 823.103 386.162 823.707 385.683C824.311 385.203 824.758 384.573 825.048 383.792C825.338 383.011 825.483 382.164 825.483 381.253C825.483 380.341 825.338 379.492 825.048 378.705C824.758 377.918 824.311 377.281 823.707 376.796C823.103 376.311 822.334 376.068 821.399 376.068C820.464 376.068 819.694 376.311 819.091 376.796C818.487 377.281 818.04 377.918 817.75 378.705C817.46 379.492 817.315 380.341 817.315 381.253C817.315 382.164 817.46 383.011 817.75 383.792C818.04 384.573 818.487 385.203 819.091 385.683C819.694 386.162 820.464 386.402 821.399 386.402ZM830.776 388V374.364H832.8V376.423H832.942C833.191 375.749 833.641 375.201 834.292 374.781C834.943 374.361 835.677 374.151 836.493 374.151C836.647 374.151 836.84 374.154 837.07 374.159C837.301 374.165 837.476 374.174 837.594 374.186V376.317C837.523 376.299 837.36 376.272 837.106 376.237C836.857 376.195 836.594 376.175 836.316 376.175C835.653 376.175 835.061 376.314 834.54 376.592C834.025 376.864 833.617 377.243 833.315 377.728C833.019 378.208 832.871 378.755 832.871 379.371V388H830.776ZM846.863 374.364V376.139H839.796V374.364H846.863ZM841.856 371.097H843.951V384.094C843.951 384.686 844.037 385.129 844.208 385.425C844.386 385.715 844.611 385.911 844.883 386.011C845.161 386.106 845.454 386.153 845.762 386.153C845.993 386.153 846.182 386.142 846.33 386.118C846.478 386.088 846.596 386.065 846.685 386.047L847.111 387.929C846.969 387.982 846.771 388.036 846.516 388.089C846.262 388.148 845.939 388.178 845.549 388.178C844.957 388.178 844.377 388.05 843.809 387.796C843.246 387.541 842.779 387.154 842.406 386.633C842.039 386.112 841.856 385.455 841.856 384.662V371.097Z" fill="black"/>
<circle cx="687.511" cy="335.511" r="9.01136" fill="#FFE587" stroke="black"/>
<circle cx="802.511" cy="253.511" r="9.01136" fill="#FFE587" stroke="black"/>
<circle cx="606.511" cy="253.511" r="9.01136" fill="#FFE587" stroke="black"/>
<circle cx="124.511" cy="253.511" r="9.01136" fill="#FFE587" stroke="black"/>
<circle cx="701.511" cy="388.511" r="9.01136" fill="#FFE587" stroke="black"/>
<circle cx="816.511" cy="407.511" r="9.01136" fill="#FFE587" stroke="black"/>
<defs>
<filter id="filter0_d_154_182" x="91" y="89" width="783.524" height="508.5" filterUnits="userSpaceOnUse" color-interpolation-filters="sRGB">
<feFlood flood-opacity="0" result="BackgroundImageFix"/>
<feColorMatrix in="SourceAlpha" type="matrix" values="0 0 0 0 0 0 0 0 0 0 0 0 0 0 0 0 0 0 127 0" result="hardAlpha"/>
<feOffset dy="4"/>
<feGaussianBlur stdDeviation="2"/>
<feComposite in2="hardAlpha" operator="out"/>
<feColorMatrix type="matrix" values="0 0 0 0 0 0 0 0 0 0 0 0 0 0 0 0 0 0 0.25 0"/>
<feBlend mode="normal" in2="BackgroundImageFix" result="effect1_dropShadow_154_182"/>
<feBlend mode="normal" in="SourceGraphic" in2="effect1_dropShadow_154_182" result="shape"/>
</filter>
</defs>
</svg>
