<svg width="912" height="544" viewBox="0 0 912 544" fill="none" xmlns="http://www.w3.org/2000/svg">
<rect x="0.5" y="0.5" width="911" height="543" rx="35.5" fill="#8DDBFF" stroke="#717171"/>
<g filter="url(#filter0_d_183_193)">
<path d="M757 83.5H79.5L80.5 469.5H827L828 200.5V198L830 194H824L821 191L815 192.5L812 188L805.5 186L804.5 180.5L798.5 175.5L797.5 167L801 163.5H794L790 157.5L785.5 154L782 148C780.333 146.667 776.9 143.8 776.5 143C776.1 142.2 777.333 139 778 137.5H782L784 130.5L787 126.5L791.5 124V119.5L794.5 117C794.833 117 795.7 117.5 796.5 119.5C797.3 121.5 798.5 120.333 799 119.5L801 117V115L800 113L797.5 114H795.5V110.5H799L800 106.5L794.5 102L795.5 100L794.5 97.5L790.5 96L787 97.5L785.5 98.5L784 101L779.5 102L775 100L773.5 97.5L771.5 96H769L768 92L763.5 90.5L758.5 86.5L757 83.5Z" fill="#FFD597"/>
<path d="M757 83.5H79.5L80.5 469.5H827L828 200.5V198L830 194H824L821 191L815 192.5L812 188L805.5 186L804.5 180.5L798.5 175.5L797.5 167L801 163.5H794L790 157.5L785.5 154L782 148C780.333 146.667 776.9 143.8 776.5 143C776.1 142.2 777.333 139 778 137.5H782L784 130.5L787 126.5L791.5 124V119.5L794.5 117C794.833 117 795.7 117.5 796.5 119.5C797.3 121.5 798.5 120.333 799 119.5L801 117V115L800 113L797.5 114H795.5V110.5H799L800 106.5L794.5 102L795.5 100L794.5 97.5L790.5 96L787 97.5L785.5 98.5L784 101L779.5 102L775 100L773.5 97.5L771.5 96H769L768 92L763.5 90.5L758.5 86.5L757 83.5Z" stroke="black"/>
</g>
<path d="M429.963 53H426.588L432.733 35.5455H436.636L442.79 53H439.415L434.753 39.125H434.616L429.963 53ZM430.074 46.1562H439.278V48.696H430.074V46.1562ZM445.089 53V35.5455H451.634C452.975 35.5455 454.1 35.7784 455.009 36.2443C455.924 36.7102 456.614 37.3636 457.08 38.2045C457.552 39.0398 457.788 40.0142 457.788 41.1278C457.788 42.2472 457.549 43.2187 457.072 44.0426C456.6 44.8608 455.904 45.4943 454.984 45.9432C454.063 46.3864 452.933 46.608 451.592 46.608H446.93V43.983H451.165C451.95 43.983 452.592 43.875 453.092 43.6591C453.592 43.4375 453.961 43.1165 454.2 42.696C454.444 42.2699 454.566 41.7472 454.566 41.1278C454.566 40.5085 454.444 39.9801 454.2 39.5426C453.955 39.0994 453.583 38.7642 453.083 38.5369C452.583 38.304 451.938 38.1875 451.148 38.1875H448.251V53H445.089ZM454.106 45.0909L458.427 53H454.898L450.654 45.0909H454.106Z" fill="#005A5E"/>
<path d="M850.722 271.545H854.591L859.773 284.193H859.977L865.159 271.545H869.028V289H865.994V277.009H865.832L861.009 288.949H858.741L853.918 276.983H853.756V289H850.722V271.545ZM888.068 280.273C888.068 282.153 887.716 283.764 887.011 285.105C886.313 286.44 885.358 287.463 884.148 288.173C882.943 288.884 881.577 289.239 880.048 289.239C878.52 289.239 877.151 288.884 875.94 288.173C874.736 287.457 873.781 286.432 873.077 285.097C872.378 283.756 872.028 282.148 872.028 280.273C872.028 278.392 872.378 276.784 873.077 275.449C873.781 274.108 874.736 273.082 875.94 272.372C877.151 271.662 878.52 271.307 880.048 271.307C881.577 271.307 882.943 271.662 884.148 272.372C885.358 273.082 886.313 274.108 887.011 275.449C887.716 276.784 888.068 278.392 888.068 280.273ZM884.889 280.273C884.889 278.949 884.682 277.832 884.267 276.923C883.858 276.009 883.29 275.318 882.562 274.852C881.835 274.381 880.997 274.145 880.048 274.145C879.099 274.145 878.261 274.381 877.534 274.852C876.807 275.318 876.236 276.009 875.821 276.923C875.412 277.832 875.207 278.949 875.207 280.273C875.207 281.597 875.412 282.716 875.821 283.631C876.236 284.54 876.807 285.23 877.534 285.702C878.261 286.168 879.099 286.401 880.048 286.401C880.997 286.401 881.835 286.168 882.562 285.702C883.29 285.23 883.858 284.54 884.267 283.631C884.682 282.716 884.889 281.597 884.889 280.273Z" fill="#005A5E"/>
<path d="M443.318 504.273C443.318 506.153 442.966 507.764 442.261 509.105C441.563 510.44 440.608 511.463 439.398 512.173C438.193 512.884 436.827 513.239 435.298 513.239C433.77 513.239 432.401 512.884 431.19 512.173C429.986 511.457 429.031 510.432 428.327 509.097C427.628 507.756 427.278 506.148 427.278 504.273C427.278 502.392 427.628 500.784 428.327 499.449C429.031 498.108 429.986 497.082 431.19 496.372C432.401 495.662 433.77 495.307 435.298 495.307C436.827 495.307 438.193 495.662 439.398 496.372C440.608 497.082 441.563 498.108 442.261 499.449C442.966 500.784 443.318 502.392 443.318 504.273ZM440.139 504.273C440.139 502.949 439.932 501.832 439.517 500.923C439.108 500.009 438.54 499.318 437.812 498.852C437.085 498.381 436.247 498.145 435.298 498.145C434.349 498.145 433.511 498.381 432.784 498.852C432.057 499.318 431.486 500.009 431.071 500.923C430.662 501.832 430.457 502.949 430.457 504.273C430.457 505.597 430.662 506.716 431.071 507.631C431.486 508.54 432.057 509.23 432.784 509.702C433.511 510.168 434.349 510.401 435.298 510.401C436.247 510.401 437.085 510.168 437.812 509.702C438.54 509.23 439.108 508.54 439.517 507.631C439.932 506.716 440.139 505.597 440.139 504.273ZM446.308 513V495.545H449.469V503.565H449.683L456.492 495.545H460.353L453.603 503.378L460.413 513H456.612L451.404 505.517L449.469 507.801V513H446.308Z" fill="#005A5E"/>
<path d="M40.6619 277.435H37.4744C37.3835 276.912 37.2159 276.449 36.9716 276.045C36.7273 275.636 36.4233 275.29 36.0597 275.006C35.696 274.722 35.2813 274.509 34.8153 274.366C34.3551 274.219 33.858 274.145 33.3239 274.145C32.375 274.145 31.5341 274.384 30.8011 274.861C30.0682 275.332 29.4943 276.026 29.0795 276.94C28.6648 277.849 28.4574 278.96 28.4574 280.273C28.4574 281.608 28.6648 282.733 29.0795 283.648C29.5 284.557 30.0739 285.244 30.8011 285.71C31.5341 286.17 32.3722 286.401 33.3153 286.401C33.8381 286.401 34.3267 286.332 34.7812 286.196C35.2415 286.054 35.6534 285.847 36.017 285.574C36.3864 285.301 36.696 284.966 36.946 284.568C37.2017 284.17 37.3778 283.716 37.4744 283.205L40.6619 283.222C40.5426 284.051 40.2841 284.83 39.8864 285.557C39.4943 286.284 38.9801 286.926 38.3438 287.483C37.7074 288.034 36.9631 288.466 36.1108 288.778C35.2585 289.085 34.3125 289.239 33.2727 289.239C31.7386 289.239 30.3693 288.884 29.1648 288.173C27.9602 287.463 27.0114 286.438 26.3182 285.097C25.625 283.756 25.2784 282.148 25.2784 280.273C25.2784 278.392 25.6278 276.784 26.3267 275.449C27.0256 274.108 27.9773 273.082 29.1818 272.372C30.3864 271.662 31.75 271.307 33.2727 271.307C34.2443 271.307 35.1477 271.443 35.983 271.716C36.8182 271.989 37.5625 272.389 38.2159 272.918C38.8693 273.44 39.4063 274.082 39.8267 274.844C40.2528 275.599 40.5313 276.463 40.6619 277.435ZM59.1541 280.273C59.1541 282.153 58.8018 283.764 58.0973 285.105C57.3984 286.44 56.4439 287.463 55.2337 288.173C54.0291 288.884 52.6626 289.239 51.1342 289.239C49.6058 289.239 48.2365 288.884 47.0263 288.173C45.8217 287.457 44.8672 286.432 44.1626 285.097C43.4638 283.756 43.1143 282.148 43.1143 280.273C43.1143 278.392 43.4638 276.784 44.1626 275.449C44.8672 274.108 45.8217 273.082 47.0263 272.372C48.2365 271.662 49.6058 271.307 51.1342 271.307C52.6626 271.307 54.0291 271.662 55.2337 272.372C56.4439 273.082 57.3984 274.108 58.0973 275.449C58.8018 276.784 59.1541 278.392 59.1541 280.273ZM55.9751 280.273C55.9751 278.949 55.7678 277.832 55.353 276.923C54.9439 276.009 54.3757 275.318 53.6484 274.852C52.9212 274.381 52.0831 274.145 51.1342 274.145C50.1854 274.145 49.3473 274.381 48.62 274.852C47.8928 275.318 47.3217 276.009 46.907 276.923C46.4979 277.832 46.2933 278.949 46.2933 280.273C46.2933 281.597 46.4979 282.716 46.907 283.631C47.3217 284.54 47.8928 285.23 48.62 285.702C49.3473 286.168 50.1854 286.401 51.1342 286.401C52.0831 286.401 52.9212 286.168 53.6484 285.702C54.3757 285.23 54.9439 284.54 55.353 283.631C55.7678 282.716 55.9751 281.597 55.9751 280.273Z" fill="#005A5E"/>
<circle cx="717.511" cy="208.511" r="9.01136" fill="#FF8F87" stroke="black"/>
<path d="M642.888 220.988V217.818H657.82V220.988H652.254V236H648.454V220.988H642.888ZM664.392 236.266C663.013 236.266 661.821 235.973 660.814 235.387C659.814 234.796 659.042 233.973 658.497 232.919C657.953 231.86 657.68 230.632 657.68 229.235C657.68 227.826 657.953 226.595 658.497 225.542C659.042 224.482 659.814 223.66 660.814 223.074C661.821 222.482 663.013 222.186 664.392 222.186C665.771 222.186 666.961 222.482 667.961 223.074C668.967 223.66 669.743 224.482 670.287 225.542C670.832 226.595 671.104 227.826 671.104 229.235C671.104 230.632 670.832 231.86 670.287 232.919C669.743 233.973 668.967 234.796 667.961 235.387C666.961 235.973 665.771 236.266 664.392 236.266ZM664.41 233.337C665.037 233.337 665.561 233.159 665.981 232.804C666.401 232.443 666.718 231.952 666.931 231.33C667.15 230.709 667.26 230.002 667.26 229.208C667.26 228.415 667.15 227.708 666.931 227.087C666.718 226.465 666.401 225.974 665.981 225.613C665.561 225.252 665.037 225.071 664.41 225.071C663.777 225.071 663.244 225.252 662.812 225.613C662.386 225.974 662.063 226.465 661.844 227.087C661.631 227.708 661.525 228.415 661.525 229.208C661.525 230.002 661.631 230.709 661.844 231.33C662.063 231.952 662.386 232.443 662.812 232.804C663.244 233.159 663.777 233.337 664.41 233.337ZM673.563 241.114V222.364H677.292V224.654H677.46C677.626 224.287 677.866 223.914 678.179 223.536C678.499 223.151 678.913 222.831 679.422 222.577C679.937 222.316 680.576 222.186 681.34 222.186C682.334 222.186 683.252 222.446 684.092 222.967C684.932 223.482 685.604 224.261 686.107 225.302C686.61 226.338 686.862 227.637 686.862 229.2C686.862 230.721 686.616 232.005 686.125 233.053C685.64 234.094 684.977 234.884 684.136 235.423C683.302 235.956 682.367 236.222 681.331 236.222C680.597 236.222 679.973 236.101 679.458 235.858C678.949 235.615 678.532 235.31 678.206 234.944C677.881 234.571 677.632 234.195 677.46 233.816H677.345V241.114H673.563ZM677.265 229.182C677.265 229.993 677.377 230.7 677.602 231.304C677.827 231.907 678.153 232.378 678.579 232.715C679.005 233.047 679.523 233.212 680.133 233.212C680.748 233.212 681.269 233.044 681.695 232.706C682.121 232.363 682.444 231.89 682.663 231.286C682.888 230.676 683 229.975 683 229.182C683 228.395 682.891 227.702 682.672 227.104C682.453 226.507 682.13 226.039 681.704 225.702C681.278 225.364 680.754 225.196 680.133 225.196C679.517 225.196 678.996 225.358 678.57 225.684C678.15 226.009 677.827 226.471 677.602 227.069C677.377 227.667 677.265 228.371 677.265 229.182ZM695.598 236.266C694.195 236.266 692.988 235.982 691.976 235.414C690.969 234.84 690.194 234.029 689.65 232.982C689.105 231.928 688.833 230.682 688.833 229.244C688.833 227.841 689.105 226.61 689.65 225.551C690.194 224.491 690.961 223.666 691.949 223.074C692.943 222.482 694.109 222.186 695.447 222.186C696.346 222.186 697.184 222.331 697.959 222.621C698.741 222.905 699.421 223.334 700.001 223.908C700.587 224.482 701.043 225.205 701.368 226.075C701.694 226.939 701.857 227.951 701.857 229.111V230.15H690.342V227.806H698.297C698.297 227.261 698.178 226.779 697.941 226.359C697.705 225.938 697.376 225.61 696.956 225.373C696.542 225.131 696.059 225.009 695.509 225.009C694.935 225.009 694.426 225.142 693.982 225.409C693.544 225.669 693.201 226.021 692.952 226.465C692.704 226.903 692.576 227.391 692.57 227.93V230.158C692.57 230.833 692.695 231.416 692.943 231.907C693.198 232.399 693.556 232.777 694.017 233.044C694.479 233.31 695.027 233.443 695.66 233.443C696.08 233.443 696.465 233.384 696.814 233.266C697.163 233.147 697.462 232.97 697.711 232.733C697.959 232.496 698.149 232.206 698.279 231.863L701.777 232.094C701.599 232.934 701.235 233.668 700.685 234.295C700.14 234.917 699.436 235.402 698.572 235.751C697.714 236.095 696.722 236.266 695.598 236.266ZM707.752 232.076L707.76 227.539H708.311L712.679 222.364H717.02L711.152 229.217H710.255L707.752 232.076ZM704.325 236V217.818H708.107V236H704.325ZM712.847 236L708.835 230.061L711.356 227.388L717.277 236H712.847ZM722.764 236.257C721.894 236.257 721.119 236.107 720.438 235.805C719.757 235.497 719.219 235.044 718.822 234.446C718.432 233.843 718.236 233.091 718.236 232.191C718.236 231.434 718.375 230.798 718.653 230.283C718.932 229.768 719.31 229.353 719.79 229.04C720.269 228.726 720.814 228.489 721.423 228.33C722.039 228.17 722.684 228.057 723.359 227.992C724.152 227.909 724.791 227.832 725.276 227.761C725.762 227.684 726.114 227.572 726.333 227.424C726.552 227.276 726.661 227.057 726.661 226.767V226.714C726.661 226.152 726.484 225.717 726.129 225.409C725.779 225.101 725.282 224.947 724.637 224.947C723.957 224.947 723.415 225.098 723.013 225.4C722.61 225.696 722.344 226.069 722.214 226.518L718.716 226.234C718.893 225.406 719.242 224.69 719.763 224.086C720.284 223.476 720.956 223.009 721.778 222.683C722.607 222.352 723.566 222.186 724.655 222.186C725.412 222.186 726.138 222.275 726.83 222.452C727.528 222.63 728.147 222.905 728.685 223.278C729.23 223.651 729.659 224.13 729.973 224.716C730.286 225.296 730.443 225.992 730.443 226.803V236H726.857V234.109H726.75C726.531 234.535 726.238 234.911 725.871 235.237C725.504 235.556 725.063 235.808 724.548 235.991C724.033 236.169 723.439 236.257 722.764 236.257ZM723.847 233.647C724.403 233.647 724.895 233.538 725.321 233.319C725.747 233.094 726.081 232.792 726.324 232.413C726.567 232.035 726.688 231.605 726.688 231.126V229.679C726.57 229.756 726.407 229.827 726.2 229.892C725.998 229.951 725.771 230.007 725.516 230.061C725.262 230.108 725.007 230.152 724.753 230.194C724.498 230.229 724.267 230.262 724.06 230.292C723.616 230.357 723.229 230.46 722.897 230.602C722.566 230.744 722.308 230.937 722.125 231.179C721.941 231.416 721.85 231.712 721.85 232.067C721.85 232.582 722.036 232.976 722.409 233.248C722.788 233.514 723.267 233.647 723.847 233.647Z" fill="black"/>
<path d="M516.504 416L511.533 397.818H513.77L517.57 412.626H517.747L521.618 397.818H524.104L527.974 412.626H528.152L531.952 397.818H534.189L529.217 416H526.945L522.932 401.511H522.79L518.777 416H516.504ZM536.648 416V402.364H538.743V416H536.648ZM537.713 400.091C537.305 400.091 536.953 399.952 536.657 399.674C536.367 399.395 536.222 399.061 536.222 398.67C536.222 398.28 536.367 397.945 536.657 397.667C536.953 397.389 537.305 397.25 537.713 397.25C538.122 397.25 538.471 397.389 538.761 397.667C539.057 397.945 539.205 398.28 539.205 398.67C539.205 399.061 539.057 399.395 538.761 399.674C538.471 399.952 538.122 400.091 537.713 400.091ZM548.12 416.284C546.842 416.284 545.741 415.982 544.818 415.379C543.895 414.775 543.184 413.943 542.687 412.884C542.19 411.824 541.941 410.614 541.941 409.253C541.941 407.868 542.196 406.646 542.705 405.586C543.22 404.521 543.936 403.689 544.853 403.092C545.777 402.488 546.854 402.186 548.085 402.186C549.044 402.186 549.908 402.364 550.677 402.719C551.447 403.074 552.077 403.571 552.568 404.21C553.06 404.849 553.364 405.595 553.483 406.447H551.388C551.228 405.826 550.873 405.276 550.322 404.796C549.778 404.311 549.044 404.068 548.12 404.068C547.304 404.068 546.588 404.281 545.972 404.707C545.362 405.128 544.886 405.722 544.543 406.492C544.205 407.255 544.037 408.152 544.037 409.182C544.037 410.235 544.202 411.153 544.534 411.934C544.871 412.715 545.345 413.322 545.954 413.754C546.57 414.186 547.292 414.402 548.12 414.402C548.665 414.402 549.159 414.307 549.603 414.118C550.047 413.929 550.423 413.656 550.731 413.301C551.038 412.946 551.257 412.52 551.388 412.023H553.483C553.364 412.828 553.071 413.553 552.604 414.198C552.142 414.837 551.53 415.346 550.766 415.725C550.008 416.098 549.127 416.284 548.12 416.284ZM558.641 407.797V416H556.546V397.818H558.641V404.494H558.818C559.138 403.79 559.617 403.231 560.256 402.816C560.902 402.396 561.76 402.186 562.831 402.186C563.76 402.186 564.574 402.373 565.272 402.745C565.971 403.112 566.512 403.678 566.897 404.441C567.288 405.199 567.483 406.163 567.483 407.335V416H565.388V407.477C565.388 406.394 565.107 405.557 564.544 404.965C563.988 404.367 563.216 404.068 562.227 404.068C561.541 404.068 560.925 404.213 560.381 404.503C559.842 404.793 559.416 405.216 559.102 405.773C558.795 406.329 558.641 407.004 558.641 407.797ZM571.316 416V402.364H573.411V416H571.316ZM572.381 400.091C571.973 400.091 571.621 399.952 571.325 399.674C571.035 399.395 570.89 399.061 570.89 398.67C570.89 398.28 571.035 397.945 571.325 397.667C571.621 397.389 571.973 397.25 572.381 397.25C572.79 397.25 573.139 397.389 573.429 397.667C573.725 397.945 573.873 398.28 573.873 398.67C573.873 399.061 573.725 399.395 573.429 399.674C573.139 399.952 572.79 400.091 572.381 400.091ZM583.179 402.364V404.139H576.112V402.364H583.179ZM578.172 399.097H580.267V412.094C580.267 412.686 580.353 413.129 580.525 413.425C580.702 413.715 580.927 413.911 581.199 414.011C581.477 414.106 581.77 414.153 582.078 414.153C582.309 414.153 582.498 414.142 582.646 414.118C582.794 414.088 582.913 414.065 583.002 414.047L583.428 415.929C583.286 415.982 583.087 416.036 582.833 416.089C582.578 416.148 582.256 416.178 581.865 416.178C581.273 416.178 580.693 416.05 580.125 415.796C579.563 415.541 579.095 415.154 578.722 414.633C578.355 414.112 578.172 413.455 578.172 412.662V399.097ZM590.343 416.32C589.479 416.32 588.695 416.157 587.991 415.831C587.287 415.5 586.727 415.023 586.313 414.402C585.899 413.775 585.691 413.017 585.691 412.129C585.691 411.348 585.845 410.715 586.153 410.229C586.461 409.738 586.872 409.353 587.387 409.075C587.902 408.797 588.47 408.59 589.092 408.454C589.719 408.312 590.349 408.199 590.983 408.116C591.811 408.01 592.483 407.93 592.998 407.877C593.519 407.818 593.898 407.72 594.134 407.584C594.377 407.448 594.498 407.211 594.498 406.874V406.803C594.498 405.927 594.259 405.246 593.779 404.761C593.306 404.275 592.587 404.033 591.622 404.033C590.622 404.033 589.837 404.252 589.269 404.69C588.701 405.128 588.302 405.595 588.071 406.092L586.082 405.382C586.437 404.554 586.911 403.908 587.503 403.447C588.1 402.979 588.751 402.654 589.456 402.47C590.166 402.281 590.864 402.186 591.551 402.186C591.989 402.186 592.492 402.239 593.06 402.346C593.634 402.446 594.188 402.657 594.72 402.976C595.259 403.296 595.706 403.778 596.061 404.423C596.416 405.068 596.593 405.933 596.593 407.016V416H594.498V414.153H594.392C594.25 414.449 594.013 414.766 593.682 415.103C593.35 415.441 592.909 415.728 592.359 415.964C591.808 416.201 591.137 416.32 590.343 416.32ZM590.663 414.438C591.492 414.438 592.19 414.275 592.758 413.949C593.332 413.624 593.764 413.203 594.054 412.689C594.35 412.174 594.498 411.632 594.498 411.064V409.146C594.41 409.253 594.214 409.35 593.912 409.439C593.616 409.522 593.273 409.596 592.883 409.661C592.498 409.72 592.122 409.774 591.755 409.821C591.394 409.862 591.101 409.898 590.876 409.928C590.332 409.999 589.823 410.114 589.349 410.274C588.882 410.428 588.503 410.661 588.213 410.975C587.929 411.283 587.787 411.703 587.787 412.236C587.787 412.964 588.056 413.514 588.595 413.887C589.139 414.254 589.829 414.438 590.663 414.438Z" fill="black"/>
<path d="M178.543 223.909C178.543 225.827 178.196 227.484 177.504 228.881C176.811 230.277 175.862 231.355 174.654 232.112C173.447 232.87 172.068 233.249 170.517 233.249C168.966 233.249 167.587 232.87 166.38 232.112C165.173 231.355 164.223 230.277 163.53 228.881C162.838 227.484 162.491 225.827 162.491 223.909C162.491 221.991 162.838 220.334 163.53 218.938C164.223 217.541 165.173 216.464 166.38 215.706C167.587 214.948 168.966 214.57 170.517 214.57C172.068 214.57 173.447 214.948 174.654 215.706C175.862 216.464 176.811 217.541 177.504 218.938C178.196 220.334 178.543 221.991 178.543 223.909ZM176.412 223.909C176.412 222.335 176.149 221.006 175.622 219.923C175.101 218.84 174.394 218.02 173.5 217.464C172.612 216.907 171.618 216.629 170.517 216.629C169.416 216.629 168.419 216.907 167.525 217.464C166.637 218.02 165.93 218.84 165.403 219.923C164.883 221.006 164.622 222.335 164.622 223.909C164.622 225.483 164.883 226.812 165.403 227.895C165.93 228.978 166.637 229.798 167.525 230.354C168.419 230.911 169.416 231.189 170.517 231.189C171.618 231.189 172.612 230.911 173.5 230.354C174.394 229.798 175.101 228.978 175.622 227.895C176.149 226.812 176.412 225.483 176.412 223.909ZM185.973 233.32C185.109 233.32 184.325 233.157 183.621 232.831C182.916 232.5 182.357 232.023 181.943 231.402C181.529 230.775 181.321 230.017 181.321 229.129C181.321 228.348 181.475 227.715 181.783 227.229C182.091 226.738 182.502 226.353 183.017 226.075C183.532 225.797 184.1 225.59 184.722 225.454C185.349 225.312 185.979 225.199 186.613 225.116C187.441 225.01 188.113 224.93 188.628 224.877C189.149 224.818 189.527 224.72 189.764 224.584C190.007 224.448 190.128 224.211 190.128 223.874V223.803C190.128 222.927 189.888 222.246 189.409 221.761C188.936 221.275 188.217 221.033 187.252 221.033C186.252 221.033 185.467 221.252 184.899 221.69C184.331 222.128 183.931 222.595 183.701 223.092L181.712 222.382C182.067 221.554 182.541 220.908 183.132 220.447C183.73 219.979 184.381 219.654 185.086 219.47C185.796 219.281 186.494 219.186 187.181 219.186C187.619 219.186 188.122 219.239 188.69 219.346C189.264 219.446 189.817 219.657 190.35 219.976C190.889 220.296 191.336 220.778 191.691 221.423C192.046 222.068 192.223 222.933 192.223 224.016V233H190.128V231.153H190.022C189.88 231.449 189.643 231.766 189.311 232.103C188.98 232.441 188.539 232.728 187.989 232.964C187.438 233.201 186.766 233.32 185.973 233.32ZM186.293 231.438C187.122 231.438 187.82 231.275 188.388 230.949C188.962 230.624 189.394 230.203 189.684 229.689C189.98 229.174 190.128 228.632 190.128 228.064V226.146C190.039 226.253 189.844 226.35 189.542 226.439C189.246 226.522 188.903 226.596 188.512 226.661C188.128 226.72 187.752 226.774 187.385 226.821C187.024 226.862 186.731 226.898 186.506 226.928C185.962 226.999 185.453 227.114 184.979 227.274C184.511 227.428 184.133 227.661 183.843 227.975C183.559 228.283 183.417 228.703 183.417 229.236C183.417 229.964 183.686 230.514 184.224 230.887C184.769 231.254 185.458 231.438 186.293 231.438ZM198.001 228.028L197.965 225.436H198.391L204.357 219.364H206.949L200.593 225.791H200.415L198.001 228.028ZM196.047 233V214.818H198.143V233H196.047ZM204.712 233L199.386 226.253L200.877 224.797L207.376 233H204.712ZM211.741 214.818V233H209.646V214.818H211.741ZM221.296 233.284C219.982 233.284 218.849 232.994 217.896 232.414C216.949 231.828 216.218 231.011 215.703 229.964C215.194 228.91 214.94 227.685 214.94 226.288C214.94 224.892 215.194 223.661 215.703 222.595C216.218 221.524 216.934 220.689 217.851 220.092C218.775 219.488 219.852 219.186 221.083 219.186C221.793 219.186 222.495 219.304 223.187 219.541C223.88 219.778 224.51 220.163 225.078 220.695C225.646 221.222 226.099 221.92 226.436 222.79C226.774 223.661 226.942 224.732 226.942 226.004V226.892H216.431V225.081H224.812C224.812 224.312 224.658 223.625 224.35 223.021C224.048 222.418 223.616 221.941 223.054 221.592C222.498 221.243 221.841 221.068 221.083 221.068C220.248 221.068 219.526 221.275 218.917 221.69C218.313 222.098 217.849 222.631 217.523 223.288C217.197 223.945 217.035 224.649 217.035 225.401V226.608C217.035 227.638 217.212 228.511 217.567 229.227C217.928 229.937 218.429 230.479 219.068 230.852C219.707 231.219 220.45 231.402 221.296 231.402C221.847 231.402 222.344 231.325 222.788 231.171C223.237 231.011 223.625 230.775 223.951 230.461C224.276 230.141 224.528 229.745 224.705 229.271L226.729 229.839C226.516 230.526 226.158 231.13 225.655 231.651C225.152 232.165 224.531 232.568 223.791 232.858C223.051 233.142 222.219 233.284 221.296 233.284ZM231.064 238.114C230.709 238.114 230.392 238.084 230.114 238.025C229.836 237.972 229.643 237.918 229.537 237.865L230.07 236.018C230.579 236.149 231.028 236.196 231.419 236.161C231.81 236.125 232.156 235.95 232.458 235.637C232.766 235.329 233.047 234.829 233.301 234.136L233.692 233.071L228.649 219.364H230.922L234.686 230.23H234.828L238.592 219.364H240.865L235.077 234.989C234.816 235.693 234.494 236.276 234.109 236.738C233.724 237.205 233.277 237.551 232.768 237.776C232.265 238.001 231.697 238.114 231.064 238.114Z" fill="black"/>
<path d="M675.202 187V168.818H677.403V177.838H677.616L685.784 168.818H688.661L681.026 177.021L688.661 187H685.997L679.676 178.548L677.403 181.105V187H675.202ZM695.239 187.32C694.375 187.32 693.591 187.157 692.886 186.831C692.182 186.5 691.623 186.023 691.208 185.402C690.794 184.775 690.587 184.017 690.587 183.129C690.587 182.348 690.741 181.715 691.049 181.229C691.356 180.738 691.768 180.353 692.283 180.075C692.798 179.797 693.366 179.59 693.987 179.454C694.615 179.312 695.245 179.199 695.878 179.116C696.707 179.01 697.379 178.93 697.893 178.877C698.414 178.818 698.793 178.72 699.03 178.584C699.272 178.448 699.394 178.211 699.394 177.874V177.803C699.394 176.927 699.154 176.246 698.675 175.761C698.201 175.275 697.482 175.033 696.517 175.033C695.517 175.033 694.733 175.252 694.165 175.69C693.597 176.128 693.197 176.595 692.966 177.092L690.978 176.382C691.333 175.554 691.806 174.908 692.398 174.447C692.996 173.979 693.647 173.654 694.351 173.47C695.061 173.281 695.76 173.186 696.446 173.186C696.884 173.186 697.387 173.239 697.956 173.346C698.53 173.446 699.083 173.657 699.616 173.976C700.154 174.296 700.601 174.778 700.956 175.423C701.311 176.068 701.489 176.933 701.489 178.016V187H699.394V185.153H699.287C699.145 185.449 698.908 185.766 698.577 186.103C698.246 186.441 697.805 186.728 697.254 186.964C696.704 187.201 696.032 187.32 695.239 187.32ZM695.559 185.438C696.387 185.438 697.086 185.275 697.654 184.949C698.228 184.624 698.66 184.203 698.95 183.689C699.246 183.174 699.394 182.632 699.394 182.064V180.146C699.305 180.253 699.11 180.35 698.808 180.439C698.512 180.522 698.169 180.596 697.778 180.661C697.393 180.72 697.018 180.774 696.651 180.821C696.29 180.862 695.997 180.898 695.772 180.928C695.227 180.999 694.718 181.114 694.245 181.274C693.777 181.428 693.398 181.661 693.108 181.975C692.824 182.283 692.682 182.703 692.682 183.236C692.682 183.964 692.951 184.514 693.49 184.887C694.035 185.254 694.724 185.438 695.559 185.438ZM707.408 178.797V187H705.313V173.364H707.337V175.494H707.515C707.834 174.802 708.32 174.246 708.971 173.825C709.622 173.399 710.462 173.186 711.492 173.186C712.415 173.186 713.223 173.375 713.916 173.754C714.608 174.127 715.147 174.695 715.532 175.459C715.916 176.216 716.109 177.175 716.109 178.335V187H714.013V178.477C714.013 177.406 713.735 176.571 713.179 175.974C712.623 175.37 711.859 175.068 710.888 175.068C710.22 175.068 709.622 175.213 709.095 175.503C708.574 175.793 708.163 176.216 707.861 176.773C707.559 177.329 707.408 178.004 707.408 178.797ZM729.596 176.418L727.714 176.95C727.596 176.637 727.421 176.332 727.19 176.036C726.965 175.734 726.658 175.485 726.267 175.29C725.876 175.095 725.376 174.997 724.767 174.997C723.932 174.997 723.237 175.19 722.68 175.574C722.13 175.953 721.855 176.435 721.855 177.021C721.855 177.542 722.044 177.953 722.423 178.255C722.802 178.557 723.394 178.809 724.199 179.01L726.223 179.507C727.442 179.803 728.35 180.256 728.948 180.865C729.546 181.469 729.845 182.247 729.845 183.2C729.845 183.982 729.62 184.68 729.17 185.295C728.726 185.911 728.105 186.396 727.306 186.751C726.507 187.107 725.578 187.284 724.518 187.284C723.127 187.284 721.976 186.982 721.065 186.379C720.153 185.775 719.576 184.893 719.333 183.733L721.322 183.236C721.511 183.97 721.87 184.52 722.396 184.887C722.929 185.254 723.624 185.438 724.483 185.438C725.459 185.438 726.234 185.23 726.809 184.816C727.389 184.396 727.679 183.893 727.679 183.307C727.679 182.833 727.513 182.437 727.181 182.117C726.85 181.792 726.341 181.549 725.654 181.389L723.382 180.857C722.133 180.561 721.216 180.102 720.63 179.48C720.05 178.853 719.76 178.069 719.76 177.128C719.76 176.358 719.976 175.678 720.408 175.086C720.846 174.494 721.44 174.029 722.192 173.692C722.95 173.355 723.808 173.186 724.767 173.186C726.116 173.186 727.176 173.482 727.945 174.074C728.72 174.666 729.271 175.447 729.596 176.418ZM737.011 187.32C736.147 187.32 735.363 187.157 734.659 186.831C733.955 186.5 733.395 186.023 732.981 185.402C732.567 184.775 732.359 184.017 732.359 183.129C732.359 182.348 732.513 181.715 732.821 181.229C733.129 180.738 733.54 180.353 734.055 180.075C734.57 179.797 735.138 179.59 735.76 179.454C736.387 179.312 737.017 179.199 737.651 179.116C738.479 179.01 739.151 178.93 739.666 178.877C740.187 178.818 740.566 178.72 740.802 178.584C741.045 178.448 741.166 178.211 741.166 177.874V177.803C741.166 176.927 740.927 176.246 740.447 175.761C739.974 175.275 739.255 175.033 738.29 175.033C737.29 175.033 736.505 175.252 735.937 175.69C735.369 176.128 734.97 176.595 734.739 177.092L732.75 176.382C733.105 175.554 733.579 174.908 734.171 174.447C734.768 173.979 735.419 173.654 736.124 173.47C736.834 173.281 737.532 173.186 738.219 173.186C738.657 173.186 739.16 173.239 739.728 173.346C740.302 173.446 740.856 173.657 741.388 173.976C741.927 174.296 742.374 174.778 742.729 175.423C743.084 176.068 743.261 176.933 743.261 178.016V187H741.166V185.153H741.06C740.918 185.449 740.681 185.766 740.35 186.103C740.018 186.441 739.577 186.728 739.027 186.964C738.476 187.201 737.805 187.32 737.011 187.32ZM737.331 185.438C738.16 185.438 738.858 185.275 739.426 184.949C740 184.624 740.432 184.203 740.722 183.689C741.018 183.174 741.166 182.632 741.166 182.064V180.146C741.078 180.253 740.882 180.35 740.58 180.439C740.284 180.522 739.941 180.596 739.551 180.661C739.166 180.72 738.79 180.774 738.423 180.821C738.062 180.862 737.769 180.898 737.544 180.928C737 180.999 736.491 181.114 736.017 181.274C735.55 181.428 735.171 181.661 734.881 181.975C734.597 182.283 734.455 182.703 734.455 183.236C734.455 183.964 734.724 184.514 735.263 184.887C735.807 185.254 736.497 185.438 737.331 185.438ZM756.745 176.418L754.863 176.95C754.744 176.637 754.57 176.332 754.339 176.036C754.114 175.734 753.806 175.485 753.415 175.29C753.025 175.095 752.525 174.997 751.915 174.997C751.081 174.997 750.385 175.19 749.829 175.574C749.278 175.953 749.003 176.435 749.003 177.021C749.003 177.542 749.193 177.953 749.571 178.255C749.95 178.557 750.542 178.809 751.347 179.01L753.371 179.507C754.59 179.803 755.499 180.256 756.097 180.865C756.694 181.469 756.993 182.247 756.993 183.2C756.993 183.982 756.768 184.68 756.319 185.295C755.875 185.911 755.253 186.396 754.454 186.751C753.655 187.107 752.726 187.284 751.667 187.284C750.276 187.284 749.125 186.982 748.213 186.379C747.302 185.775 746.725 184.893 746.482 183.733L748.471 183.236C748.66 183.97 749.018 184.52 749.545 184.887C750.077 185.254 750.773 185.438 751.631 185.438C752.608 185.438 753.383 185.23 753.957 184.816C754.537 184.396 754.827 183.893 754.827 183.307C754.827 182.833 754.661 182.437 754.33 182.117C753.998 181.792 753.489 181.549 752.803 181.389L750.53 180.857C749.281 180.561 748.364 180.102 747.778 179.48C747.198 178.853 746.908 178.069 746.908 177.128C746.908 176.358 747.124 175.678 747.556 175.086C747.994 174.494 748.589 174.029 749.341 173.692C750.098 173.355 750.956 173.186 751.915 173.186C753.265 173.186 754.324 173.482 755.093 174.074C755.869 174.666 756.419 175.447 756.745 176.418ZM782.093 174.5H779.891C779.761 173.867 779.533 173.31 779.208 172.831C778.888 172.352 778.498 171.949 778.036 171.624C777.58 171.292 777.074 171.044 776.518 170.878C775.962 170.712 775.381 170.629 774.778 170.629C773.677 170.629 772.68 170.907 771.786 171.464C770.898 172.02 770.191 172.84 769.664 173.923C769.143 175.006 768.883 176.335 768.883 177.909C768.883 179.483 769.143 180.812 769.664 181.895C770.191 182.978 770.898 183.798 771.786 184.354C772.68 184.911 773.677 185.189 774.778 185.189C775.381 185.189 775.962 185.106 776.518 184.94C777.074 184.775 777.58 184.529 778.036 184.203C778.498 183.872 778.888 183.467 779.208 182.987C779.533 182.502 779.761 181.946 779.891 181.318H782.093C781.927 182.247 781.626 183.079 781.188 183.813C780.75 184.547 780.205 185.171 779.554 185.686C778.903 186.195 778.172 186.583 777.361 186.849C776.556 187.115 775.695 187.249 774.778 187.249C773.227 187.249 771.848 186.87 770.641 186.112C769.433 185.355 768.483 184.277 767.791 182.881C767.098 181.484 766.752 179.827 766.752 177.909C766.752 175.991 767.098 174.334 767.791 172.938C768.483 171.541 769.433 170.464 770.641 169.706C771.848 168.948 773.227 168.57 774.778 168.57C775.695 168.57 776.556 168.703 777.361 168.969C778.172 169.235 778.903 169.626 779.554 170.141C780.205 170.65 780.75 171.271 781.188 172.005C781.626 172.733 781.927 173.565 782.093 174.5ZM785.367 187V173.364H787.462V187H785.367ZM786.432 171.091C786.024 171.091 785.672 170.952 785.376 170.674C785.086 170.395 784.941 170.061 784.941 169.67C784.941 169.28 785.086 168.945 785.376 168.667C785.672 168.389 786.024 168.25 786.432 168.25C786.841 168.25 787.19 168.389 787.48 168.667C787.776 168.945 787.924 169.28 787.924 169.67C787.924 170.061 787.776 170.395 787.48 170.674C787.19 170.952 786.841 171.091 786.432 171.091ZM797.23 173.364V175.139H790.163V173.364H797.23ZM792.223 170.097H794.318V183.094C794.318 183.686 794.404 184.129 794.575 184.425C794.753 184.715 794.978 184.911 795.25 185.011C795.528 185.106 795.821 185.153 796.129 185.153C796.36 185.153 796.549 185.142 796.697 185.118C796.845 185.088 796.964 185.065 797.052 185.047L797.478 186.929C797.336 186.982 797.138 187.036 796.884 187.089C796.629 187.148 796.307 187.178 795.916 187.178C795.324 187.178 794.744 187.05 794.176 186.796C793.614 186.541 793.146 186.154 792.773 185.633C792.406 185.112 792.223 184.455 792.223 183.662V170.097ZM801.731 192.114C801.376 192.114 801.059 192.084 800.781 192.025C800.503 191.972 800.31 191.918 800.204 191.865L800.737 190.018C801.246 190.149 801.695 190.196 802.086 190.161C802.477 190.125 802.823 189.95 803.125 189.637C803.432 189.329 803.714 188.829 803.968 188.136L804.359 187.071L799.316 173.364H801.589L805.353 184.23H805.495L809.259 173.364H811.532L805.744 188.989C805.483 189.693 805.161 190.276 804.776 190.738C804.391 191.205 803.944 191.551 803.435 191.776C802.932 192.001 802.364 192.114 801.731 192.114Z" fill="black"/>
<path d="M761.543 254.909C761.543 256.827 761.196 258.484 760.504 259.881C759.811 261.277 758.862 262.355 757.654 263.112C756.447 263.87 755.068 264.249 753.517 264.249C751.966 264.249 750.587 263.87 749.38 263.112C748.173 262.355 747.223 261.277 746.53 259.881C745.838 258.484 745.491 256.827 745.491 254.909C745.491 252.991 745.838 251.334 746.53 249.938C747.223 248.541 748.173 247.464 749.38 246.706C750.587 245.948 751.966 245.57 753.517 245.57C755.068 245.57 756.447 245.948 757.654 246.706C758.862 247.464 759.811 248.541 760.504 249.938C761.196 251.334 761.543 252.991 761.543 254.909ZM759.412 254.909C759.412 253.335 759.149 252.006 758.622 250.923C758.101 249.84 757.394 249.02 756.5 248.464C755.612 247.907 754.618 247.629 753.517 247.629C752.416 247.629 751.419 247.907 750.525 248.464C749.637 249.02 748.93 249.84 748.403 250.923C747.883 252.006 747.622 253.335 747.622 254.909C747.622 256.483 747.883 257.812 748.403 258.895C748.93 259.978 749.637 260.798 750.525 261.354C751.419 261.911 752.416 262.189 753.517 262.189C754.618 262.189 755.612 261.911 756.5 261.354C757.394 260.798 758.101 259.978 758.622 258.895C759.149 257.812 759.412 256.483 759.412 254.909ZM767.056 245.818V264H764.961V245.818H767.056ZM774.906 264.32C774.042 264.32 773.258 264.157 772.553 263.831C771.849 263.5 771.29 263.023 770.875 262.402C770.461 261.775 770.254 261.017 770.254 260.129C770.254 259.348 770.408 258.715 770.716 258.229C771.023 257.738 771.435 257.353 771.95 257.075C772.465 256.797 773.033 256.59 773.654 256.454C774.282 256.312 774.912 256.199 775.545 256.116C776.374 256.01 777.046 255.93 777.56 255.877C778.081 255.818 778.46 255.72 778.697 255.584C778.939 255.448 779.061 255.211 779.061 254.874V254.803C779.061 253.927 778.821 253.246 778.342 252.761C777.868 252.275 777.149 252.033 776.184 252.033C775.184 252.033 774.4 252.252 773.832 252.69C773.264 253.128 772.864 253.595 772.633 254.092L770.645 253.382C771 252.554 771.473 251.908 772.065 251.447C772.663 250.979 773.314 250.654 774.018 250.47C774.728 250.281 775.427 250.186 776.113 250.186C776.551 250.186 777.054 250.239 777.623 250.346C778.197 250.446 778.75 250.657 779.283 250.976C779.821 251.296 780.268 251.778 780.623 252.423C780.978 253.068 781.156 253.933 781.156 255.016V264H779.061V262.153H778.954C778.812 262.449 778.575 262.766 778.244 263.103C777.913 263.441 777.472 263.728 776.921 263.964C776.371 264.201 775.699 264.32 774.906 264.32ZM775.226 262.438C776.054 262.438 776.753 262.275 777.321 261.949C777.895 261.624 778.327 261.203 778.617 260.689C778.913 260.174 779.061 259.632 779.061 259.064V257.146C778.972 257.253 778.777 257.35 778.475 257.439C778.179 257.522 777.836 257.596 777.445 257.661C777.06 257.72 776.685 257.774 776.318 257.821C775.957 257.862 775.664 257.898 775.439 257.928C774.894 257.999 774.385 258.114 773.912 258.274C773.444 258.428 773.065 258.661 772.775 258.975C772.491 259.283 772.349 259.703 772.349 260.236C772.349 260.964 772.618 261.514 773.157 261.887C773.702 262.254 774.391 262.438 775.226 262.438ZM790.911 250.364V252.139H783.844V250.364H790.911ZM785.903 247.097H787.999V260.094C787.999 260.686 788.084 261.129 788.256 261.425C788.434 261.715 788.658 261.911 788.931 262.011C789.209 262.106 789.502 262.153 789.81 262.153C790.04 262.153 790.23 262.142 790.378 262.118C790.526 262.088 790.644 262.065 790.733 262.047L791.159 263.929C791.017 263.982 790.819 264.036 790.564 264.089C790.31 264.148 789.987 264.178 789.597 264.178C789.005 264.178 788.425 264.05 787.857 263.796C787.294 263.541 786.827 263.154 786.454 262.633C786.087 262.112 785.903 261.455 785.903 260.662V247.097ZM796.45 255.797V264H794.355V245.818H796.45V252.494H796.628C796.947 251.79 797.427 251.231 798.066 250.816C798.711 250.396 799.569 250.186 800.641 250.186C801.57 250.186 802.384 250.373 803.082 250.745C803.78 251.112 804.322 251.678 804.707 252.441C805.097 253.199 805.293 254.163 805.293 255.335V264H803.197V255.477C803.197 254.394 802.916 253.557 802.354 252.965C801.798 252.367 801.025 252.068 800.037 252.068C799.35 252.068 798.735 252.213 798.19 252.503C797.652 252.793 797.226 253.216 796.912 253.773C796.604 254.329 796.45 255.004 796.45 255.797ZM814.843 264.284C813.529 264.284 812.396 263.994 811.443 263.414C810.496 262.828 809.765 262.011 809.25 260.964C808.741 259.91 808.486 258.685 808.486 257.288C808.486 255.892 808.741 254.661 809.25 253.595C809.765 252.524 810.481 251.689 811.398 251.092C812.322 250.488 813.399 250.186 814.63 250.186C815.34 250.186 816.041 250.304 816.734 250.541C817.426 250.778 818.057 251.163 818.625 251.695C819.193 252.222 819.646 252.92 819.983 253.79C820.321 254.661 820.489 255.732 820.489 257.004V257.892H809.978V256.081H818.359C818.359 255.312 818.205 254.625 817.897 254.021C817.595 253.418 817.163 252.941 816.601 252.592C816.044 252.243 815.387 252.068 814.63 252.068C813.795 252.068 813.073 252.275 812.464 252.69C811.86 253.098 811.395 253.631 811.07 254.288C810.744 254.945 810.582 255.649 810.582 256.401V257.608C810.582 258.638 810.759 259.511 811.114 260.227C811.475 260.937 811.975 261.479 812.615 261.852C813.254 262.219 813.997 262.402 814.843 262.402C815.393 262.402 815.891 262.325 816.334 262.171C816.784 262.011 817.172 261.775 817.497 261.461C817.823 261.141 818.074 260.745 818.252 260.271L820.276 260.839C820.063 261.526 819.705 262.13 819.202 262.651C818.699 263.165 818.077 263.568 817.338 263.858C816.598 264.142 815.766 264.284 814.843 264.284Z" fill="black"/>
<path d="M493.202 182.818H495.83L502.009 197.911H502.222L508.401 182.818H511.028V201H508.969V187.186H508.791L503.109 201H501.121L495.439 187.186H495.261V201H493.202V182.818ZM519.172 201.32C518.307 201.32 517.523 201.157 516.819 200.831C516.115 200.5 515.555 200.023 515.141 199.402C514.727 198.775 514.52 198.017 514.52 197.129C514.52 196.348 514.674 195.715 514.981 195.229C515.289 194.738 515.7 194.353 516.215 194.075C516.73 193.797 517.298 193.59 517.92 193.454C518.547 193.312 519.178 193.199 519.811 193.116C520.639 193.01 521.311 192.93 521.826 192.877C522.347 192.818 522.726 192.72 522.962 192.584C523.205 192.448 523.326 192.211 523.326 191.874V191.803C523.326 190.927 523.087 190.246 522.607 189.761C522.134 189.275 521.415 189.033 520.45 189.033C519.45 189.033 518.666 189.252 518.097 189.69C517.529 190.128 517.13 190.595 516.899 191.092L514.91 190.382C515.265 189.554 515.739 188.908 516.331 188.447C516.928 187.979 517.58 187.654 518.284 187.47C518.994 187.281 519.692 187.186 520.379 187.186C520.817 187.186 521.32 187.239 521.888 187.346C522.462 187.446 523.016 187.657 523.548 187.976C524.087 188.296 524.534 188.778 524.889 189.423C525.244 190.068 525.422 190.933 525.422 192.016V201H523.326V199.153H523.22C523.078 199.449 522.841 199.766 522.51 200.103C522.178 200.441 521.737 200.728 521.187 200.964C520.636 201.201 519.965 201.32 519.172 201.32ZM519.491 199.438C520.32 199.438 521.018 199.275 521.586 198.949C522.16 198.624 522.593 198.203 522.883 197.689C523.178 197.174 523.326 196.632 523.326 196.064V194.146C523.238 194.253 523.042 194.35 522.741 194.439C522.445 194.522 522.101 194.596 521.711 194.661C521.326 194.72 520.95 194.774 520.583 194.821C520.222 194.862 519.929 194.898 519.704 194.928C519.16 194.999 518.651 195.114 518.177 195.274C517.71 195.428 517.331 195.661 517.041 195.975C516.757 196.283 516.615 196.703 516.615 197.236C516.615 197.964 516.884 198.514 517.423 198.887C517.967 199.254 518.657 199.438 519.491 199.438ZM531.341 192.797V201H529.246V187.364H531.27V189.494H531.447C531.767 188.802 532.252 188.246 532.903 187.825C533.554 187.399 534.395 187.186 535.425 187.186C536.348 187.186 537.156 187.375 537.848 187.754C538.541 188.127 539.079 188.695 539.464 189.459C539.849 190.216 540.041 191.175 540.041 192.335V201H537.946V192.477C537.946 191.406 537.668 190.571 537.112 189.974C536.555 189.37 535.792 189.068 534.821 189.068C534.152 189.068 533.554 189.213 533.028 189.503C532.507 189.793 532.096 190.216 531.794 190.773C531.492 191.329 531.341 192.004 531.341 192.797ZM545.965 192.797V201H543.87V182.818H545.965V189.494H546.142C546.462 188.79 546.941 188.231 547.581 187.816C548.226 187.396 549.084 187.186 550.155 187.186C551.084 187.186 551.898 187.373 552.597 187.745C553.295 188.112 553.837 188.678 554.221 189.441C554.612 190.199 554.807 191.163 554.807 192.335V201H552.712V192.477C552.712 191.394 552.431 190.557 551.869 189.965C551.312 189.367 550.54 189.068 549.552 189.068C548.865 189.068 548.249 189.213 547.705 189.503C547.166 189.793 546.74 190.216 546.427 190.773C546.119 191.329 545.965 192.004 545.965 192.797ZM562.653 201.32C561.789 201.32 561.005 201.157 560.3 200.831C559.596 200.5 559.037 200.023 558.623 199.402C558.208 198.775 558.001 198.017 558.001 197.129C558.001 196.348 558.155 195.715 558.463 195.229C558.77 194.738 559.182 194.353 559.697 194.075C560.212 193.797 560.78 193.59 561.401 193.454C562.029 193.312 562.659 193.199 563.292 193.116C564.121 193.01 564.793 192.93 565.308 192.877C565.828 192.818 566.207 192.72 566.444 192.584C566.687 192.448 566.808 192.211 566.808 191.874V191.803C566.808 190.927 566.568 190.246 566.089 189.761C565.615 189.275 564.896 189.033 563.931 189.033C562.931 189.033 562.147 189.252 561.579 189.69C561.011 190.128 560.611 190.595 560.38 191.092L558.392 190.382C558.747 189.554 559.22 188.908 559.812 188.447C560.41 187.979 561.061 187.654 561.765 187.47C562.475 187.281 563.174 187.186 563.86 187.186C564.298 187.186 564.801 187.239 565.37 187.346C565.944 187.446 566.497 187.657 567.03 187.976C567.568 188.296 568.015 188.778 568.37 189.423C568.725 190.068 568.903 190.933 568.903 192.016V201H566.808V199.153H566.701C566.559 199.449 566.323 199.766 565.991 200.103C565.66 200.441 565.219 200.728 564.668 200.964C564.118 201.201 563.446 201.32 562.653 201.32ZM562.973 199.438C563.801 199.438 564.5 199.275 565.068 198.949C565.642 198.624 566.074 198.203 566.364 197.689C566.66 197.174 566.808 196.632 566.808 196.064V194.146C566.719 194.253 566.524 194.35 566.222 194.439C565.926 194.522 565.583 194.596 565.192 194.661C564.807 194.72 564.432 194.774 564.065 194.821C563.704 194.862 563.411 194.898 563.186 194.928C562.641 194.999 562.132 195.114 561.659 195.274C561.191 195.428 560.812 195.661 560.522 195.975C560.238 196.283 560.096 196.703 560.096 197.236C560.096 197.964 560.366 198.514 560.904 198.887C561.449 199.254 562.138 199.438 562.973 199.438ZM578.658 187.364V189.139H571.591V187.364H578.658ZM573.65 184.097H575.746V197.094C575.746 197.686 575.831 198.129 576.003 198.425C576.181 198.715 576.406 198.911 576.678 199.011C576.956 199.106 577.249 199.153 577.557 199.153C577.788 199.153 577.977 199.142 578.125 199.118C578.273 199.088 578.391 199.065 578.48 199.047L578.906 200.929C578.764 200.982 578.566 201.036 578.311 201.089C578.057 201.148 577.734 201.178 577.344 201.178C576.752 201.178 576.172 201.05 575.604 200.796C575.041 200.541 574.574 200.154 574.201 199.633C573.834 199.112 573.65 198.455 573.65 197.662V184.097ZM587.74 187.364V189.139H580.673V187.364H587.74ZM582.733 184.097H584.828V197.094C584.828 197.686 584.914 198.129 585.085 198.425C585.263 198.715 585.488 198.911 585.76 199.011C586.038 199.106 586.331 199.153 586.639 199.153C586.87 199.153 587.059 199.142 587.207 199.118C587.355 199.088 587.473 199.065 587.562 199.047L587.988 200.929C587.846 200.982 587.648 201.036 587.393 201.089C587.139 201.148 586.816 201.178 586.426 201.178C585.834 201.178 585.254 201.05 584.686 200.796C584.123 200.541 583.656 200.154 583.283 199.633C582.916 199.112 582.733 198.455 582.733 197.662V184.097ZM594.904 201.32C594.04 201.32 593.256 201.157 592.551 200.831C591.847 200.5 591.288 200.023 590.873 199.402C590.459 198.775 590.252 198.017 590.252 197.129C590.252 196.348 590.406 195.715 590.714 195.229C591.021 194.738 591.433 194.353 591.948 194.075C592.463 193.797 593.031 193.59 593.652 193.454C594.28 193.312 594.91 193.199 595.543 193.116C596.372 193.01 597.044 192.93 597.559 192.877C598.079 192.818 598.458 192.72 598.695 192.584C598.938 192.448 599.059 192.211 599.059 191.874V191.803C599.059 190.927 598.819 190.246 598.34 189.761C597.866 189.275 597.147 189.033 596.182 189.033C595.182 189.033 594.398 189.252 593.83 189.69C593.262 190.128 592.862 190.595 592.631 191.092L590.643 190.382C590.998 189.554 591.471 188.908 592.063 188.447C592.661 187.979 593.312 187.654 594.016 187.47C594.726 187.281 595.425 187.186 596.111 187.186C596.549 187.186 597.052 187.239 597.621 187.346C598.195 187.446 598.748 187.657 599.281 187.976C599.819 188.296 600.266 188.778 600.621 189.423C600.976 190.068 601.154 190.933 601.154 192.016V201H599.059V199.153H598.952C598.81 199.449 598.574 199.766 598.242 200.103C597.911 200.441 597.47 200.728 596.919 200.964C596.369 201.201 595.697 201.32 594.904 201.32ZM595.224 199.438C596.052 199.438 596.751 199.275 597.319 198.949C597.893 198.624 598.325 198.203 598.615 197.689C598.911 197.174 599.059 196.632 599.059 196.064V194.146C598.97 194.253 598.775 194.35 598.473 194.439C598.177 194.522 597.834 194.596 597.443 194.661C597.058 194.72 596.683 194.774 596.316 194.821C595.955 194.862 595.662 194.898 595.437 194.928C594.892 194.999 594.383 195.114 593.91 195.274C593.442 195.428 593.063 195.661 592.773 195.975C592.489 196.283 592.347 196.703 592.347 197.236C592.347 197.964 592.617 198.514 593.155 198.887C593.7 199.254 594.389 199.438 595.224 199.438ZM607.073 192.797V201H604.978V187.364H607.002V189.494H607.18C607.499 188.802 607.985 188.246 608.636 187.825C609.287 187.399 610.127 187.186 611.157 187.186C612.08 187.186 612.888 187.375 613.581 187.754C614.273 188.127 614.812 188.695 615.197 189.459C615.581 190.216 615.774 191.175 615.774 192.335V201H613.678V192.477C613.678 191.406 613.4 190.571 612.844 189.974C612.288 189.37 611.524 189.068 610.553 189.068C609.885 189.068 609.287 189.213 608.76 189.503C608.239 189.793 607.828 190.216 607.526 190.773C607.224 191.329 607.073 192.004 607.073 192.797Z" fill="black"/>
<path d="M230.812 359H225.202V340.818H231.061C232.825 340.818 234.334 341.182 235.589 341.91C236.844 342.632 237.805 343.671 238.474 345.026C239.143 346.376 239.477 347.991 239.477 349.874C239.477 351.768 239.14 353.398 238.465 354.765C237.79 356.127 236.808 357.174 235.518 357.908C234.228 358.636 232.659 359 230.812 359ZM227.403 357.047H230.67C232.174 357.047 233.42 356.757 234.408 356.177C235.396 355.597 236.133 354.771 236.619 353.7C237.104 352.629 237.347 351.353 237.347 349.874C237.347 348.406 237.107 347.142 236.627 346.083C236.148 345.017 235.432 344.201 234.479 343.632C233.526 343.058 232.339 342.771 230.919 342.771H227.403V357.047ZM248.426 359.284C247.195 359.284 246.115 358.991 245.186 358.405C244.262 357.819 243.54 357 243.02 355.946C242.505 354.893 242.247 353.661 242.247 352.253C242.247 350.832 242.505 349.592 243.02 348.533C243.54 347.474 244.262 346.651 245.186 346.065C246.115 345.479 247.195 345.186 248.426 345.186C249.657 345.186 250.734 345.479 251.658 346.065C252.587 346.651 253.309 347.474 253.824 348.533C254.345 349.592 254.605 350.832 254.605 352.253C254.605 353.661 254.345 354.893 253.824 355.946C253.309 357 252.587 357.819 251.658 358.405C250.734 358.991 249.657 359.284 248.426 359.284ZM248.426 357.402C249.361 357.402 250.131 357.162 250.734 356.683C251.338 356.203 251.785 355.573 252.075 354.792C252.365 354.011 252.51 353.164 252.51 352.253C252.51 351.341 252.365 350.492 252.075 349.705C251.785 348.918 251.338 348.281 250.734 347.796C250.131 347.311 249.361 347.068 248.426 347.068C247.491 347.068 246.722 347.311 246.118 347.796C245.514 348.281 245.067 348.918 244.777 349.705C244.487 350.492 244.342 351.341 244.342 352.253C244.342 353.164 244.487 354.011 244.777 354.792C245.067 355.573 245.514 356.203 246.118 356.683C246.722 357.162 247.491 357.402 248.426 357.402ZM262.953 359.284C261.816 359.284 260.813 358.997 259.943 358.423C259.073 357.843 258.392 357.026 257.901 355.973C257.41 354.913 257.164 353.661 257.164 352.217C257.164 350.785 257.41 349.542 257.901 348.489C258.392 347.435 259.076 346.621 259.952 346.047C260.828 345.473 261.84 345.186 262.988 345.186C263.876 345.186 264.577 345.334 265.092 345.63C265.613 345.92 266.009 346.251 266.282 346.624C266.56 346.991 266.776 347.293 266.93 347.53H267.107V340.818H269.203V359H267.178V356.905H266.93C266.776 357.153 266.557 357.467 266.273 357.846C265.989 358.219 265.583 358.553 265.057 358.849C264.53 359.139 263.828 359.284 262.953 359.284ZM263.237 357.402C264.077 357.402 264.787 357.183 265.367 356.745C265.947 356.301 266.388 355.689 266.69 354.907C266.992 354.12 267.143 353.212 267.143 352.182C267.143 351.164 266.995 350.273 266.699 349.51C266.403 348.74 265.965 348.142 265.385 347.716C264.805 347.284 264.089 347.068 263.237 347.068C262.349 347.068 261.609 347.296 261.017 347.752C260.431 348.202 259.99 348.814 259.694 349.589C259.404 350.359 259.259 351.223 259.259 352.182C259.259 353.152 259.407 354.034 259.703 354.827C260.005 355.615 260.449 356.242 261.035 356.71C261.627 357.171 262.361 357.402 263.237 357.402ZM278.835 364.398C277.823 364.398 276.953 364.268 276.225 364.007C275.497 363.753 274.89 363.415 274.405 362.995C273.926 362.581 273.544 362.137 273.26 361.663L274.929 360.491C275.118 360.74 275.358 361.024 275.648 361.344C275.938 361.669 276.334 361.95 276.837 362.187C277.346 362.43 278.012 362.551 278.835 362.551C279.936 362.551 280.844 362.285 281.56 361.752C282.277 361.219 282.635 360.385 282.635 359.249V356.479H282.457C282.303 356.727 282.084 357.035 281.8 357.402C281.522 357.763 281.12 358.086 280.593 358.37C280.072 358.648 279.368 358.787 278.48 358.787C277.379 358.787 276.391 358.527 275.515 358.006C274.645 357.485 273.955 356.727 273.446 355.733C272.943 354.739 272.691 353.531 272.691 352.111C272.691 350.714 272.937 349.498 273.428 348.462C273.92 347.42 274.603 346.615 275.479 346.047C276.355 345.473 277.367 345.186 278.515 345.186C279.403 345.186 280.107 345.334 280.628 345.63C281.155 345.92 281.557 346.251 281.836 346.624C282.12 346.991 282.339 347.293 282.493 347.53H282.706V345.364H284.73V359.391C284.73 360.562 284.464 361.515 283.931 362.249C283.404 362.989 282.694 363.531 281.8 363.874C280.912 364.223 279.924 364.398 278.835 364.398ZM278.764 356.905C279.604 356.905 280.315 356.712 280.895 356.328C281.475 355.943 281.916 355.39 282.217 354.668C282.519 353.946 282.67 353.081 282.67 352.075C282.67 351.093 282.522 350.226 282.226 349.474C281.93 348.722 281.492 348.134 280.912 347.707C280.332 347.281 279.616 347.068 278.764 347.068C277.876 347.068 277.136 347.293 276.544 347.743C275.959 348.193 275.518 348.796 275.222 349.554C274.932 350.312 274.787 351.152 274.787 352.075C274.787 353.022 274.935 353.86 275.231 354.588C275.532 355.31 275.976 355.878 276.562 356.292C277.154 356.701 277.888 356.905 278.764 356.905ZM294.282 359.284C292.968 359.284 291.835 358.994 290.882 358.414C289.935 357.828 289.204 357.011 288.689 355.964C288.18 354.91 287.926 353.685 287.926 352.288C287.926 350.892 288.18 349.661 288.689 348.595C289.204 347.524 289.92 346.689 290.838 346.092C291.761 345.488 292.838 345.186 294.069 345.186C294.78 345.186 295.481 345.304 296.173 345.541C296.866 345.778 297.496 346.163 298.064 346.695C298.633 347.222 299.085 347.92 299.423 348.79C299.76 349.661 299.929 350.732 299.929 352.004V352.892H289.417V351.081H297.798C297.798 350.312 297.644 349.625 297.336 349.021C297.035 348.418 296.602 347.941 296.04 347.592C295.484 347.243 294.827 347.068 294.069 347.068C293.235 347.068 292.513 347.275 291.903 347.69C291.299 348.098 290.835 348.631 290.509 349.288C290.184 349.945 290.021 350.649 290.021 351.401V352.608C290.021 353.638 290.199 354.511 290.554 355.227C290.915 355.937 291.415 356.479 292.054 356.852C292.693 357.219 293.436 357.402 294.282 357.402C294.833 357.402 295.33 357.325 295.774 357.171C296.224 357.011 296.611 356.775 296.937 356.461C297.262 356.141 297.514 355.745 297.691 355.271L299.716 355.839C299.503 356.526 299.145 357.13 298.641 357.651C298.138 358.165 297.517 358.568 296.777 358.858C296.037 359.142 295.206 359.284 294.282 359.284ZM325.062 346.5H322.86C322.73 345.867 322.502 345.31 322.177 344.831C321.857 344.352 321.466 343.949 321.005 343.624C320.549 343.292 320.043 343.044 319.487 342.878C318.93 342.712 318.35 342.629 317.747 342.629C316.646 342.629 315.648 342.907 314.755 343.464C313.867 344.02 313.16 344.84 312.633 345.923C312.112 347.006 311.852 348.335 311.852 349.909C311.852 351.483 312.112 352.812 312.633 353.895C313.16 354.978 313.867 355.798 314.755 356.354C315.648 356.911 316.646 357.189 317.747 357.189C318.35 357.189 318.93 357.106 319.487 356.94C320.043 356.775 320.549 356.529 321.005 356.203C321.466 355.872 321.857 355.467 322.177 354.987C322.502 354.502 322.73 353.946 322.86 353.318H325.062C324.896 354.247 324.594 355.079 324.156 355.813C323.718 356.547 323.174 357.171 322.523 357.686C321.872 358.195 321.141 358.583 320.33 358.849C319.525 359.115 318.664 359.249 317.747 359.249C316.196 359.249 314.817 358.87 313.609 358.112C312.402 357.355 311.452 356.277 310.76 354.881C310.067 353.484 309.721 351.827 309.721 349.909C309.721 347.991 310.067 346.334 310.76 344.938C311.452 343.541 312.402 342.464 313.609 341.706C314.817 340.948 316.196 340.57 317.747 340.57C318.664 340.57 319.525 340.703 320.33 340.969C321.141 341.235 321.872 341.626 322.523 342.141C323.174 342.65 323.718 343.271 324.156 344.005C324.594 344.733 324.896 345.565 325.062 346.5ZM328.336 359V345.364H330.431V359H328.336ZM329.401 343.091C328.993 343.091 328.64 342.952 328.344 342.674C328.054 342.395 327.909 342.061 327.909 341.67C327.909 341.28 328.054 340.945 328.344 340.667C328.64 340.389 328.993 340.25 329.401 340.25C329.809 340.25 330.158 340.389 330.449 340.667C330.744 340.945 330.892 341.28 330.892 341.67C330.892 342.061 330.744 342.395 330.449 342.674C330.158 342.952 329.809 343.091 329.401 343.091ZM340.199 345.364V347.139H333.132V345.364H340.199ZM335.191 342.097H337.287V355.094C337.287 355.686 337.372 356.129 337.544 356.425C337.722 356.715 337.947 356.911 338.219 357.011C338.497 357.106 338.79 357.153 339.098 357.153C339.329 357.153 339.518 357.142 339.666 357.118C339.814 357.088 339.932 357.065 340.021 357.047L340.447 358.929C340.305 358.982 340.107 359.036 339.852 359.089C339.598 359.148 339.275 359.178 338.885 359.178C338.293 359.178 337.713 359.05 337.145 358.796C336.582 358.541 336.115 358.154 335.742 357.633C335.375 357.112 335.191 356.455 335.191 355.662V342.097ZM344.7 364.114C344.345 364.114 344.028 364.084 343.75 364.025C343.472 363.972 343.279 363.918 343.173 363.865L343.705 362.018C344.214 362.149 344.664 362.196 345.055 362.161C345.445 362.125 345.792 361.95 346.093 361.637C346.401 361.329 346.682 360.829 346.937 360.136L347.328 359.071L342.285 345.364H344.558L348.322 356.23H348.464L352.228 345.364H354.501L348.712 360.989C348.452 361.693 348.129 362.276 347.745 362.738C347.36 363.205 346.913 363.551 346.404 363.776C345.901 364.001 345.333 364.114 344.7 364.114Z" fill="black"/>
<circle cx="554.511" cy="382.511" r="9.01136" fill="#FFE587" stroke="black"/>
<circle cx="197.511" cy="197.511" r="9.01136" fill="#FFE587" stroke="black"/>
<circle cx="632.511" cy="194.511" r="9.01136" fill="#FFE587" stroke="black"/>
<circle cx="281.511" cy="376.511" r="9.01136" fill="#FFE587" stroke="black"/>
<circle cx="804.511" cy="230.511" r="9.01136" fill="#FFE587" stroke="black"/>
<circle cx="827.511" cy="199.511" r="9.01136" fill="#FFE587" stroke="black"/>
<defs>
<filter id="filter0_d_183_193" x="74.9985" y="83" width="759.81" height="395" filterUnits="userSpaceOnUse" color-interpolation-filters="sRGB">
<feFlood flood-opacity="0" result="BackgroundImageFix"/>
<feColorMatrix in="SourceAlpha" type="matrix" values="0 0 0 0 0 0 0 0 0 0 0 0 0 0 0 0 0 0 127 0" result="hardAlpha"/>
<feOffset dy="4"/>
<feGaussianBlur stdDeviation="2"/>
<feComposite in2="hardAlpha" operator="out"/>
<feColorMatrix type="matrix" values="0 0 0 0 0 0 0 0 0 0 0 0 0 0 0 0 0 0 0.25 0"/>
<feBlend mode="normal" in2="BackgroundImageFix" result="effect1_dropShadow_183_193"/>
<feBlend mode="normal" in="SourceGraphic" in2="effect1_dropShadow_183_193" result="shape"/>
</filter>
</defs>
</svg>
