<svg width="999" height="560" viewBox="0 0 999 560" fill="none" xmlns="http://www.w3.org/2000/svg">
<rect x="0.5" y="0.5" width="998" height="559" rx="35.5" fill="#97DCFF" stroke="#717171"/>
<g filter="url(#filter0_d_142_385)">
<path d="M606 116.5L608 123C607.667 123.167 606.9 123.5 606.5 123.5C606.1 123.5 604.667 123.167 604 123C602.833 122.833 600.4 122.4 600 122C599.5 121.5 597.5 122.5 597 122.5C596.6 122.5 595.833 123.167 595.5 123.5L593.5 124.5H590.5H588C586.5 125.333 583.3 127 582.5 127C581.7 127 577.833 129.667 576 131C574 132.5 569.9 135.7 569.5 136.5C569 137.5 567 137.5 565 137.5C563 137.5 561.5 134.5 560.5 133.5C559.7 132.7 557.5 130.833 556.5 130H550C548 130 547 131 546 131H542C541 131.167 538.7 131.4 537.5 131C536.3 130.6 536 132.5 536 133.5L535 135.5V139V141L536 146.5V150L537.5 155.5V159L536 162C535 162.833 532.9 164.5 532.5 164.5C532.1 164.5 530.667 166.167 530 167L528 170.5C527.167 170.833 525.3 171.6 524.5 172C523.7 172.4 520.167 173.167 518.5 173.5L515 176.5L513 182.5L509.5 193.5L504.5 197C504 197.333 502.9 198.1 502.5 198.5C502 199 501 199.5 500.5 199.5C500 199.5 498.5 199 498 198.5C497.6 198.1 496.167 197.333 495.5 197C494.5 197.167 492.3 197.6 491.5 198C490.7 198.4 490.5 199.167 490.5 199.5C490.167 200.5 489.5 202.6 489.5 203C489.5 203.4 488.5 205.167 488 206C487 206.833 484.9 208.5 484.5 208.5C484.1 208.5 482.667 210.167 482 211L481.5 214.5V220.5L481 227.5L480 234C479.167 235 477.4 237.1 477 237.5C476.5 238 473 239 472.5 239C472.1 239 469.333 239.333 468 239.5L467.5 242C467.167 242.5 466.3 243.6 465.5 244C464.7 244.4 462.5 242.167 461.5 241L458.5 237.5C456.333 237.5 451.8 237.4 451 237C450.2 236.6 447.667 235.5 446.5 235L441.5 232L438.5 227.5L439.5 224.5V220L437 217.5L434 212.5L429.5 210L427 212.5L428 215C429 215.667 431 217.1 431 217.5V220H428C426.8 220 426.167 220.667 426 221L424 223L418.5 221H417.5V224.5L420.5 227.5L418.5 231L416 232L411 234V239V245V249.5L408 250L402.5 252L401.5 258.5C400.5 259.167 398.3 260.7 397.5 261.5C396.7 262.3 395.5 261.833 395 261.5C395.333 261 396 259.4 396 257C396 254 395.5 253 395 252C394.6 251.2 393.167 252.333 392.5 253C391 253.5 387.6 254.2 386 253C384.4 251.8 383.333 249.833 383 249C382 246.667 379.8 241.8 379 241C378 240 374.5 242 373 241C371.8 240.2 370.833 241.333 370.5 242L365 248L360 249L356.5 250L350 254.5V257L349 264.5L345.5 268.5L343 270.5L341 269.5C339.833 267.833 337.3 264.2 336.5 263C335.7 261.8 332.833 261.5 331.5 261.5C330.333 261 327.9 259.7 327.5 258.5C327.1 257.3 322 255.333 319.5 254.5L309 248H303.5L300.5 249.5C299.333 250.333 296.9 252.2 296.5 253C296.1 253.8 294.667 252.667 294 252L291 249C290.6 248.6 290.167 246.833 290 246L288 243.5H285.5L284.5 245C284.167 246.167 283.5 248.7 283.5 249.5V252L286.5 256V260.5L281 264.5L278 263L276.5 260L278 256L276.5 253H275L267.5 256C265.667 256.5 261.6 257.4 260 257C258.4 256.6 257.667 255.167 257.5 254.5L253.5 250L250 249.5L248.5 252L246.5 256L250 264.5C249.333 266 247.9 269.1 247.5 269.5C247.1 269.9 245 271 244 271.5L238.5 268.5H237L234.5 273L232.5 277.5C231 278.833 227.7 281.5 226.5 281.5C225.3 281.5 223 284.5 222 286L221 288.5L223 297.5C224 298.833 226.1 301.6 226.5 302C227 302.5 231 307 231.5 307.5C231.9 307.9 232.333 309.667 232.5 310.5L231.5 314L228 315.5L205.5 319.5L202.5 322C201.5 323 199.4 325 199 325C198.6 325 197.5 325.667 197 326L194.5 324C193.667 323.833 191.9 323.4 191.5 323C191.1 322.6 189 323.833 188 324.5L186 328L184 331.5L182 338L180 341.5V344.5L181 347L184.5 351.5L189.5 357.5L190.5 363L188.5 369.5L186 373L180.5 375C180 375.167 178.9 375.5 178.5 375.5C178.1 375.5 176.333 373.833 175.5 373L168.5 368.5L165 366L160 364.5L155 364L144 356L132 352L127 351L122.5 353L112.5 363L112 365.5L107.5 370.5L103 375.5V380L106.5 385.5C108.167 386.5 111.6 388.6 112 389C112.4 389.4 112.5 391.167 112.5 392C111.167 396.5 108.5 405.6 108.5 406C108.5 406.4 105.5 406.833 104 407V412L105 414.5C105.667 414.833 107.3 415.5 108.5 415.5C109.7 415.5 109.667 416.833 109.5 417.5L108.5 419.5H104L101.5 422L102 426.5L105.5 433L103 436L100 444L96.5 446.5L91.5 444L86.5 437.5L81 439.5L79.5 441.5V445L78 449.5L76.5 453.5L76 456.5L221 457H233L234.5 452.5V445L233 438.5L232 434V432.5L233 431.5L255 432.5L257 434L256 436.5L257.5 437.5L394 435.5H401L403.5 436L404.5 437C404.833 437.167 405.6 437.5 406 437.5C406.4 437.5 407.833 436.833 408.5 436.5L412 435H415L452 437L486.5 439L532 439.5H553L566.5 439L582 439.5L594 440.5L626.5 442.5L737 444.5L738 444L739.5 442.5L743.5 438.5L749.5 436L756.5 433H769L773 430L784 425.5C786.5 424.667 791.7 423 792.5 423C793.3 423 796.5 422.333 798 422L801.5 420.5L802.5 415L805.5 412L807 409.5L809 406H814C816.167 405.5 820.7 404.5 821.5 404.5C822.3 404.5 827.5 402.5 830 401.5L833 396.5C832.833 394.167 832.6 389.3 833 388.5C833.4 387.7 835.167 385.167 836 384C837.333 383.833 840.3 383.6 841.5 384C843 384.5 843.5 383 844.5 382.5C845.3 382.1 847.833 379 849 377.5V367.5L860 362L867.5 356L878 350.5L893 345.5L936 307C934.167 306.833 930.3 306.4 929.5 306C928.5 305.5 926 304.5 925 304.5H918C916.8 304.5 917.5 303.5 918 303C917.5 301.5 916.4 298.3 916 297.5C915.5 296.5 912.5 294 911.5 294C910.5 294 909 293 908 293C907.2 293 905.333 289.667 904.5 288L899.5 286C898.667 283.667 897 278.9 897 278.5C897 278.1 895.333 274 894.5 272C892.667 270 888.8 265.9 888 265.5C887.2 265.1 885.667 262 885 260.5V255.5L876.5 249L877.5 247L879 241L873.5 237L864 222.5L859.5 218.5V215L861 214L864 209L863 204C863.667 203.5 865.2 202.5 866 202.5C867 202.5 866 198.5 866 197.5V191.5C865.333 190.333 863.8 187.9 863 187.5C862.2 187.1 863.333 184.667 864 183.5V175L859.5 167.5L852.5 160.5L847.5 157H844L837.5 154L835.5 149.5L834 143.5L832.5 138.5L831.5 134C831.667 132.833 832.1 130.1 832.5 128.5C832.9 126.9 831 127.833 830 128.5H827.5L821.5 132H814L811 138.5H805.5L802 146.5L794.5 148L789 146.5C787.333 147.5 783.8 149.5 783 149.5C782 149.5 777.5 143 775 141.5C773 140.3 767.5 141 765 141.5L760 136.5C755.833 137 747.1 138.1 745.5 138.5C743.9 138.9 742.5 143 742 145C741.333 145.167 739.7 145.4 738.5 145C737.3 144.6 731.333 142.5 728.5 141.5L726.5 136.5L722 133.5L719.5 128.5C717.833 127.333 714.3 125 713.5 125C712.7 125 708.5 123.667 706.5 123L694 125L683.5 123C681.333 121.833 676.4 118.1 674 112.5C672.4 109.3 673.333 107.5 674 107L668 99V92.5L665 87C662.667 86.3333 657.8 85 657 85C656 85 654 85 652 82.5C650.4 80.5 651.333 79 652 78.5L650 74.5H647L643.5 76H640L638 78.5C636.667 79 633.6 80.2 632 81C630.4 81.8 629 79.6667 628.5 78.5L621 74.5L615.5 70L614.5 70.5L608 74.5L602 78.5L600 82.5V85L606 94.5L602 103V105L611 108.5V111L606 116.5Z" fill="#FFD597"/>
<path d="M606 116.5L608 123C607.667 123.167 606.9 123.5 606.5 123.5C606.1 123.5 604.667 123.167 604 123C602.833 122.833 600.4 122.4 600 122C599.5 121.5 597.5 122.5 597 122.5C596.6 122.5 595.833 123.167 595.5 123.5L593.5 124.5H590.5H588C586.5 125.333 583.3 127 582.5 127C581.7 127 577.833 129.667 576 131C574 132.5 569.9 135.7 569.5 136.5C569 137.5 567 137.5 565 137.5C563 137.5 561.5 134.5 560.5 133.5C559.7 132.7 557.5 130.833 556.5 130H550C548 130 547 131 546 131H542C541 131.167 538.7 131.4 537.5 131C536.3 130.6 536 132.5 536 133.5L535 135.5V139V141L536 146.5V150L537.5 155.5V159L536 162C535 162.833 532.9 164.5 532.5 164.5C532.1 164.5 530.667 166.167 530 167L528 170.5C527.167 170.833 525.3 171.6 524.5 172C523.7 172.4 520.167 173.167 518.5 173.5L515 176.5L513 182.5L509.5 193.5L504.5 197C504 197.333 502.9 198.1 502.5 198.5C502 199 501 199.5 500.5 199.5C500 199.5 498.5 199 498 198.5C497.6 198.1 496.167 197.333 495.5 197C494.5 197.167 492.3 197.6 491.5 198C490.7 198.4 490.5 199.167 490.5 199.5C490.167 200.5 489.5 202.6 489.5 203C489.5 203.4 488.5 205.167 488 206C487 206.833 484.9 208.5 484.5 208.5C484.1 208.5 482.667 210.167 482 211L481.5 214.5V220.5L481 227.5L480 234C479.167 235 477.4 237.1 477 237.5C476.5 238 473 239 472.5 239C472.1 239 469.333 239.333 468 239.5L467.5 242C467.167 242.5 466.3 243.6 465.5 244C464.7 244.4 462.5 242.167 461.5 241L458.5 237.5C456.333 237.5 451.8 237.4 451 237C450.2 236.6 447.667 235.5 446.5 235L441.5 232L438.5 227.5L439.5 224.5V220L437 217.5L434 212.5L429.5 210L427 212.5L428 215C429 215.667 431 217.1 431 217.5V220H428C426.8 220 426.167 220.667 426 221L424 223L418.5 221H417.5V224.5L420.5 227.5L418.5 231L416 232L411 234V239V245V249.5L408 250L402.5 252L401.5 258.5C400.5 259.167 398.3 260.7 397.5 261.5C396.7 262.3 395.5 261.833 395 261.5C395.333 261 396 259.4 396 257C396 254 395.5 253 395 252C394.6 251.2 393.167 252.333 392.5 253C391 253.5 387.6 254.2 386 253C384.4 251.8 383.333 249.833 383 249C382 246.667 379.8 241.8 379 241C378 240 374.5 242 373 241C371.8 240.2 370.833 241.333 370.5 242L365 248L360 249L356.5 250L350 254.5V257L349 264.5L345.5 268.5L343 270.5L341 269.5C339.833 267.833 337.3 264.2 336.5 263C335.7 261.8 332.833 261.5 331.5 261.5C330.333 261 327.9 259.7 327.5 258.5C327.1 257.3 322 255.333 319.5 254.5L309 248H303.5L300.5 249.5C299.333 250.333 296.9 252.2 296.5 253C296.1 253.8 294.667 252.667 294 252L291 249C290.6 248.6 290.167 246.833 290 246L288 243.5H285.5L284.5 245C284.167 246.167 283.5 248.7 283.5 249.5V252L286.5 256V260.5L281 264.5L278 263L276.5 260L278 256L276.5 253H275L267.5 256C265.667 256.5 261.6 257.4 260 257C258.4 256.6 257.667 255.167 257.5 254.5L253.5 250L250 249.5L248.5 252L246.5 256L250 264.5C249.333 266 247.9 269.1 247.5 269.5C247.1 269.9 245 271 244 271.5L238.5 268.5H237L234.5 273L232.5 277.5C231 278.833 227.7 281.5 226.5 281.5C225.3 281.5 223 284.5 222 286L221 288.5L223 297.5C224 298.833 226.1 301.6 226.5 302C227 302.5 231 307 231.5 307.5C231.9 307.9 232.333 309.667 232.5 310.5L231.5 314L228 315.5L205.5 319.5L202.5 322C201.5 323 199.4 325 199 325C198.6 325 197.5 325.667 197 326L194.5 324C193.667 323.833 191.9 323.4 191.5 323C191.1 322.6 189 323.833 188 324.5L186 328L184 331.5L182 338L180 341.5V344.5L181 347L184.5 351.5L189.5 357.5L190.5 363L188.5 369.5L186 373L180.5 375C180 375.167 178.9 375.5 178.5 375.5C178.1 375.5 176.333 373.833 175.5 373L168.5 368.5L165 366L160 364.5L155 364L144 356L132 352L127 351L122.5 353L112.5 363L112 365.5L107.5 370.5L103 375.5V380L106.5 385.5C108.167 386.5 111.6 388.6 112 389C112.4 389.4 112.5 391.167 112.5 392C111.167 396.5 108.5 405.6 108.5 406C108.5 406.4 105.5 406.833 104 407V412L105 414.5C105.667 414.833 107.3 415.5 108.5 415.5C109.7 415.5 109.667 416.833 109.5 417.5L108.5 419.5H104L101.5 422L102 426.5L105.5 433L103 436L100 444L96.5 446.5L91.5 444L86.5 437.5L81 439.5L79.5 441.5V445L78 449.5L76.5 453.5L76 456.5L221 457H233L234.5 452.5V445L233 438.5L232 434V432.5L233 431.5L255 432.5L257 434L256 436.5L257.5 437.5L394 435.5H401L403.5 436L404.5 437C404.833 437.167 405.6 437.5 406 437.5C406.4 437.5 407.833 436.833 408.5 436.5L412 435H415L452 437L486.5 439L532 439.5H553L566.5 439L582 439.5L594 440.5L626.5 442.5L737 444.5L738 444L739.5 442.5L743.5 438.5L749.5 436L756.5 433H769L773 430L784 425.5C786.5 424.667 791.7 423 792.5 423C793.3 423 796.5 422.333 798 422L801.5 420.5L802.5 415L805.5 412L807 409.5L809 406H814C816.167 405.5 820.7 404.5 821.5 404.5C822.3 404.5 827.5 402.5 830 401.5L833 396.5C832.833 394.167 832.6 389.3 833 388.5C833.4 387.7 835.167 385.167 836 384C837.333 383.833 840.3 383.6 841.5 384C843 384.5 843.5 383 844.5 382.5C845.3 382.1 847.833 379 849 377.5V367.5L860 362L867.5 356L878 350.5L893 345.5L936 307C934.167 306.833 930.3 306.4 929.5 306C928.5 305.5 926 304.5 925 304.5H918C916.8 304.5 917.5 303.5 918 303C917.5 301.5 916.4 298.3 916 297.5C915.5 296.5 912.5 294 911.5 294C910.5 294 909 293 908 293C907.2 293 905.333 289.667 904.5 288L899.5 286C898.667 283.667 897 278.9 897 278.5C897 278.1 895.333 274 894.5 272C892.667 270 888.8 265.9 888 265.5C887.2 265.1 885.667 262 885 260.5V255.5L876.5 249L877.5 247L879 241L873.5 237L864 222.5L859.5 218.5V215L861 214L864 209L863 204C863.667 203.5 865.2 202.5 866 202.5C867 202.5 866 198.5 866 197.5V191.5C865.333 190.333 863.8 187.9 863 187.5C862.2 187.1 863.333 184.667 864 183.5V175L859.5 167.5L852.5 160.5L847.5 157H844L837.5 154L835.5 149.5L834 143.5L832.5 138.5L831.5 134C831.667 132.833 832.1 130.1 832.5 128.5C832.9 126.9 831 127.833 830 128.5H827.5L821.5 132H814L811 138.5H805.5L802 146.5L794.5 148L789 146.5C787.333 147.5 783.8 149.5 783 149.5C782 149.5 777.5 143 775 141.5C773 140.3 767.5 141 765 141.5L760 136.5C755.833 137 747.1 138.1 745.5 138.5C743.9 138.9 742.5 143 742 145C741.333 145.167 739.7 145.4 738.5 145C737.3 144.6 731.333 142.5 728.5 141.5L726.5 136.5L722 133.5L719.5 128.5C717.833 127.333 714.3 125 713.5 125C712.7 125 708.5 123.667 706.5 123L694 125L683.5 123C681.333 121.833 676.4 118.1 674 112.5C672.4 109.3 673.333 107.5 674 107L668 99V92.5L665 87C662.667 86.3333 657.8 85 657 85C656 85 654 85 652 82.5C650.4 80.5 651.333 79 652 78.5L650 74.5H647L643.5 76H640L638 78.5C636.667 79 633.6 80.2 632 81C630.4 81.8 629 79.6667 628.5 78.5L621 74.5L615.5 70L614.5 70.5L608 74.5L602 78.5L600 82.5V85L606 94.5L602 103V105L611 108.5V111L606 116.5Z" stroke="black"/>
</g>
<g filter="url(#filter1_d_142_385)">
<path d="M69 448L63 445L59.5 448V452L63 457.5H68L71 452L69 448Z" fill="#FFD597"/>
<path d="M69 448L63 445L59.5 448V452L63 457.5H68L71 452L69 448Z" stroke="black"/>
</g>
<path d="M876.057 404.545L880.599 418.284H880.778L885.312 404.545H888.79L882.636 422H878.733L872.588 404.545H876.057ZM891.291 422H887.916L894.061 404.545H897.964L904.118 422H900.743L896.081 408.125H895.945L891.291 422ZM891.402 415.156H900.607V417.696H891.402V415.156Z" fill="#005A5E"/>
<path d="M500.955 475.196V472.545H514.881V475.196H509.486V490H506.349V475.196H500.955ZM531.909 472.545V490H529.097L520.872 478.111H520.727V490H517.565V472.545H520.395L528.611 484.443H528.764V472.545H531.909Z" fill="#005A5E"/>
<path d="M44.7216 395.545H48.5909L53.7727 408.193H53.9773L59.1591 395.545H63.0284V413H59.9943V401.009H59.8324L55.0085 412.949H52.7415L47.9176 400.983H47.7557V413H44.7216V395.545ZM82.0682 404.273C82.0682 406.153 81.7159 407.764 81.0114 409.105C80.3125 410.44 79.358 411.463 78.1477 412.173C76.9432 412.884 75.5767 413.239 74.0483 413.239C72.5199 413.239 71.1506 412.884 69.9403 412.173C68.7358 411.457 67.7813 410.432 67.0767 409.097C66.3778 407.756 66.0284 406.148 66.0284 404.273C66.0284 402.392 66.3778 400.784 67.0767 399.449C67.7813 398.108 68.7358 397.082 69.9403 396.372C71.1506 395.662 72.5199 395.307 74.0483 395.307C75.5767 395.307 76.9432 395.662 78.1477 396.372C79.358 397.082 80.3125 398.108 81.0114 399.449C81.7159 400.784 82.0682 402.392 82.0682 404.273ZM78.8892 404.273C78.8892 402.949 78.6818 401.832 78.267 400.923C77.858 400.009 77.2898 399.318 76.5625 398.852C75.8352 398.381 74.9972 398.145 74.0483 398.145C73.0994 398.145 72.2614 398.381 71.5341 398.852C70.8068 399.318 70.2358 400.009 69.821 400.923C69.4119 401.832 69.2074 402.949 69.2074 404.273C69.2074 405.597 69.4119 406.716 69.821 407.631C70.2358 408.54 70.8068 409.23 71.5341 409.702C72.2614 410.168 73.0994 410.401 74.0483 410.401C74.9972 410.401 75.8352 410.168 76.5625 409.702C77.2898 409.23 77.858 408.54 78.267 407.631C78.6818 406.716 78.8892 405.597 78.8892 404.273Z" fill="#005A5E"/>
<path d="M159.884 261.545V279H156.722V261.545H159.884ZM177.651 261.545V279H174.839L166.614 267.111H166.469V279H163.308V261.545H166.137L174.353 273.443H174.506V261.545H177.651Z" fill="#005A5E"/>
<path d="M419.884 151.545V169H416.722V151.545H419.884ZM423.308 169V151.545H426.469V166.349H434.157V169H423.308Z" fill="#005A5E"/>
<path d="M742.318 66.2727C742.318 68.1534 741.966 69.7642 741.261 71.1051C740.563 72.4403 739.608 73.4631 738.398 74.1733C737.193 74.8835 735.827 75.2386 734.298 75.2386C732.77 75.2386 731.401 74.8835 730.19 74.1733C728.986 73.4574 728.031 72.4318 727.327 71.0966C726.628 69.7557 726.278 68.1477 726.278 66.2727C726.278 64.392 726.628 62.7841 727.327 61.4489C728.031 60.108 728.986 59.0824 730.19 58.3722C731.401 57.6619 732.77 57.3068 734.298 57.3068C735.827 57.3068 737.193 57.6619 738.398 58.3722C739.608 59.0824 740.563 60.108 741.261 61.4489C741.966 62.7841 742.318 64.392 742.318 66.2727ZM739.139 66.2727C739.139 64.9489 738.932 63.8324 738.517 62.9233C738.108 62.0085 737.54 61.3182 736.812 60.8523C736.085 60.3807 735.247 60.1449 734.298 60.1449C733.349 60.1449 732.511 60.3807 731.784 60.8523C731.057 61.3182 730.486 62.0085 730.071 62.9233C729.662 63.8324 729.457 64.9489 729.457 66.2727C729.457 67.5966 729.662 68.7159 730.071 69.6307C730.486 70.5398 731.057 71.2301 731.784 71.7017C732.511 72.1676 733.349 72.4006 734.298 72.4006C735.247 72.4006 736.085 72.1676 736.812 71.7017C737.54 71.2301 738.108 70.5398 738.517 69.6307C738.932 68.7159 739.139 67.5966 739.139 66.2727ZM745.308 75V57.5455H748.469V64.9347H756.558V57.5455H759.728V75H756.558V67.5852H748.469V75H745.308Z" fill="#005A5E"/>
<path d="M898.395 223L893.469 205.545H896.869L900.014 218.372H900.176L903.534 205.545H906.628L909.994 218.381H910.148L913.293 205.545H916.693L911.767 223H908.648L905.153 210.753H905.017L901.514 223H898.395ZM921.221 205.545L925.763 219.284H925.942L930.477 205.545H933.954L927.8 223H923.897L917.752 205.545H921.221Z" fill="#005A5E"/>
<circle cx="602.511" cy="208.511" r="9.01136" fill="#FF8F87" stroke="black"/>
<path d="M552.58 194V175.818H564.619V178.988H556.424V183.32H563.82V186.489H556.424V194H552.58ZM566.914 194V180.364H570.58V182.743H570.722C570.971 181.897 571.388 181.257 571.974 180.825C572.56 180.387 573.235 180.168 573.998 180.168C574.187 180.168 574.392 180.18 574.611 180.204C574.83 180.228 575.022 180.26 575.188 180.301V183.657C575.01 183.604 574.765 183.557 574.451 183.515C574.137 183.474 573.85 183.453 573.59 183.453C573.033 183.453 572.536 183.574 572.098 183.817C571.666 184.054 571.323 184.385 571.068 184.811C570.82 185.238 570.695 185.729 570.695 186.285V194H566.914ZM580.641 194.257C579.771 194.257 578.996 194.107 578.315 193.805C577.634 193.497 577.096 193.044 576.699 192.446C576.309 191.843 576.113 191.091 576.113 190.191C576.113 189.434 576.252 188.798 576.53 188.283C576.809 187.768 577.187 187.353 577.667 187.04C578.146 186.726 578.691 186.489 579.3 186.33C579.916 186.17 580.561 186.057 581.236 185.992C582.029 185.909 582.668 185.832 583.153 185.761C583.639 185.684 583.991 185.572 584.21 185.424C584.429 185.276 584.538 185.057 584.538 184.767V184.714C584.538 184.152 584.361 183.717 584.006 183.409C583.656 183.101 583.159 182.947 582.514 182.947C581.833 182.947 581.292 183.098 580.889 183.4C580.487 183.696 580.221 184.069 580.09 184.518L576.593 184.234C576.77 183.406 577.119 182.69 577.64 182.086C578.161 181.476 578.833 181.009 579.655 180.683C580.484 180.352 581.443 180.186 582.532 180.186C583.289 180.186 584.014 180.275 584.707 180.452C585.405 180.63 586.024 180.905 586.562 181.278C587.107 181.651 587.536 182.13 587.85 182.716C588.163 183.296 588.32 183.992 588.32 184.803V194H584.734V192.109H584.627C584.408 192.535 584.115 192.911 583.748 193.237C583.381 193.556 582.94 193.808 582.425 193.991C581.91 194.169 581.316 194.257 580.641 194.257ZM581.724 191.647C582.28 191.647 582.772 191.538 583.198 191.319C583.624 191.094 583.958 190.792 584.201 190.413C584.444 190.035 584.565 189.605 584.565 189.126V187.679C584.447 187.756 584.284 187.827 584.077 187.892C583.875 187.951 583.648 188.007 583.393 188.061C583.139 188.108 582.884 188.152 582.63 188.194C582.375 188.229 582.144 188.262 581.937 188.292C581.493 188.357 581.105 188.46 580.774 188.602C580.443 188.744 580.185 188.937 580.002 189.179C579.818 189.416 579.726 189.712 579.726 190.067C579.726 190.582 579.913 190.976 580.286 191.248C580.665 191.514 581.144 191.647 581.724 191.647ZM595.036 186.116V194H591.254V180.364H594.859V182.77H595.019C595.32 181.976 595.826 181.349 596.537 180.887C597.247 180.42 598.108 180.186 599.12 180.186C600.067 180.186 600.893 180.393 601.597 180.808C602.301 181.222 602.849 181.814 603.239 182.583C603.63 183.347 603.825 184.258 603.825 185.317V194H600.043V185.992C600.049 185.158 599.836 184.507 599.404 184.039C598.972 183.566 598.377 183.329 597.62 183.329C597.111 183.329 596.661 183.438 596.27 183.657C595.886 183.876 595.584 184.196 595.365 184.616C595.152 185.03 595.042 185.531 595.036 186.116ZM610.233 190.076L610.242 185.539H610.792L615.16 180.364H619.501L613.633 187.217H612.737L610.233 190.076ZM606.806 194V175.818H610.588V194H606.806ZM615.329 194L611.316 188.061L613.837 185.388L619.759 194H615.329ZM628.69 180.364V183.205H620.274V180.364H628.69ZM622.2 194V179.378C622.2 178.39 622.393 177.57 622.777 176.919C623.168 176.268 623.701 175.78 624.375 175.454C625.05 175.129 625.817 174.966 626.675 174.966C627.255 174.966 627.784 175.01 628.264 175.099C628.749 175.188 629.11 175.268 629.347 175.339L628.672 178.18C628.524 178.132 628.341 178.088 628.122 178.047C627.909 178.005 627.69 177.984 627.465 177.984C626.908 177.984 626.521 178.115 626.302 178.375C626.083 178.629 625.973 178.988 625.973 179.449V194H622.2ZM636.673 194.266C635.294 194.266 634.102 193.973 633.096 193.387C632.095 192.796 631.323 191.973 630.778 190.919C630.234 189.86 629.962 188.632 629.962 187.235C629.962 185.826 630.234 184.595 630.778 183.542C631.323 182.482 632.095 181.66 633.096 181.074C634.102 180.482 635.294 180.186 636.673 180.186C638.052 180.186 639.242 180.482 640.242 181.074C641.248 181.66 642.024 182.482 642.568 183.542C643.113 184.595 643.385 185.826 643.385 187.235C643.385 188.632 643.113 189.86 642.568 190.919C642.024 191.973 641.248 192.796 640.242 193.387C639.242 193.973 638.052 194.266 636.673 194.266ZM636.691 191.337C637.319 191.337 637.842 191.159 638.263 190.804C638.683 190.443 638.999 189.952 639.212 189.33C639.431 188.709 639.541 188.002 639.541 187.208C639.541 186.415 639.431 185.708 639.212 185.087C638.999 184.465 638.683 183.974 638.263 183.613C637.842 183.252 637.319 183.071 636.691 183.071C636.058 183.071 635.525 183.252 635.093 183.613C634.667 183.974 634.344 184.465 634.125 185.087C633.912 185.708 633.806 186.415 633.806 187.208C633.806 188.002 633.912 188.709 634.125 189.33C634.344 189.952 634.667 190.443 635.093 190.804C635.525 191.159 636.058 191.337 636.691 191.337ZM645.844 194V180.364H649.511V182.743H649.653C649.901 181.897 650.319 181.257 650.905 180.825C651.491 180.387 652.165 180.168 652.929 180.168C653.118 180.168 653.322 180.18 653.541 180.204C653.76 180.228 653.953 180.26 654.118 180.301V183.657C653.941 183.604 653.695 183.557 653.381 183.515C653.068 183.474 652.781 183.453 652.52 183.453C651.964 183.453 651.467 183.574 651.029 183.817C650.597 184.054 650.254 184.385 649.999 184.811C649.75 185.238 649.626 185.729 649.626 186.285V194H645.844ZM664.01 180.364V183.205H655.798V180.364H664.01ZM657.663 177.097H661.445V189.81C661.445 190.159 661.498 190.431 661.605 190.626C661.711 190.816 661.859 190.949 662.048 191.026C662.244 191.103 662.469 191.141 662.723 191.141C662.901 191.141 663.078 191.127 663.256 191.097C663.433 191.061 663.57 191.035 663.664 191.017L664.259 193.831C664.07 193.891 663.803 193.959 663.46 194.036C663.117 194.118 662.7 194.169 662.208 194.186C661.297 194.222 660.498 194.101 659.811 193.822C659.131 193.544 658.601 193.112 658.222 192.526C657.843 191.94 657.657 191.201 657.663 190.307V177.097Z" fill="black"/>
<path d="M491.202 240V221.818H493.403V238.047H501.855V240H491.202ZM510.52 240.284C509.289 240.284 508.209 239.991 507.279 239.405C506.356 238.819 505.634 238 505.113 236.946C504.598 235.893 504.341 234.661 504.341 233.253C504.341 231.832 504.598 230.592 505.113 229.533C505.634 228.474 506.356 227.651 507.279 227.065C508.209 226.479 509.289 226.186 510.52 226.186C511.751 226.186 512.828 226.479 513.751 227.065C514.681 227.651 515.403 228.474 515.918 229.533C516.438 230.592 516.699 231.832 516.699 233.253C516.699 234.661 516.438 235.893 515.918 236.946C515.403 238 514.681 238.819 513.751 239.405C512.828 239.991 511.751 240.284 510.52 240.284ZM510.52 238.402C511.455 238.402 512.224 238.162 512.828 237.683C513.432 237.203 513.879 236.573 514.169 235.792C514.459 235.011 514.604 234.164 514.604 233.253C514.604 232.341 514.459 231.492 514.169 230.705C513.879 229.918 513.432 229.281 512.828 228.796C512.224 228.311 511.455 228.068 510.52 228.068C509.585 228.068 508.815 228.311 508.212 228.796C507.608 229.281 507.161 229.918 506.871 230.705C506.581 231.492 506.436 232.341 506.436 233.253C506.436 234.164 506.581 235.011 506.871 235.792C507.161 236.573 507.608 237.203 508.212 237.683C508.815 238.162 509.585 238.402 510.52 238.402ZM528.491 234.425V226.364H530.586V240H528.491V237.692H528.349C528.029 238.384 527.532 238.973 526.857 239.458C526.183 239.938 525.33 240.178 524.301 240.178C523.448 240.178 522.691 239.991 522.028 239.618C521.365 239.239 520.844 238.671 520.465 237.914C520.086 237.15 519.897 236.188 519.897 235.028V226.364H521.992V234.886C521.992 235.881 522.27 236.674 522.827 237.266C523.389 237.857 524.105 238.153 524.975 238.153C525.496 238.153 526.026 238.02 526.564 237.754C527.109 237.488 527.565 237.079 527.932 236.529C528.304 235.978 528.491 235.277 528.491 234.425ZM534.423 240V226.364H536.519V240H534.423ZM535.489 224.091C535.08 224.091 534.728 223.952 534.432 223.674C534.142 223.395 533.997 223.061 533.997 222.67C533.997 222.28 534.142 221.945 534.432 221.667C534.728 221.389 535.08 221.25 535.489 221.25C535.897 221.25 536.246 221.389 536.536 221.667C536.832 221.945 536.98 222.28 536.98 222.67C536.98 223.061 536.832 223.395 536.536 223.674C536.246 223.952 535.897 224.091 535.489 224.091ZM550.015 229.418L548.133 229.95C548.015 229.637 547.84 229.332 547.609 229.036C547.384 228.734 547.077 228.485 546.686 228.29C546.295 228.095 545.795 227.997 545.186 227.997C544.351 227.997 543.656 228.19 543.099 228.574C542.549 228.953 542.274 229.435 542.274 230.021C542.274 230.542 542.463 230.953 542.842 231.255C543.221 231.557 543.813 231.809 544.617 232.01L546.642 232.507C547.861 232.803 548.769 233.256 549.367 233.865C549.965 234.469 550.264 235.247 550.264 236.2C550.264 236.982 550.039 237.68 549.589 238.295C549.145 238.911 548.524 239.396 547.725 239.751C546.926 240.107 545.996 240.284 544.937 240.284C543.546 240.284 542.395 239.982 541.484 239.379C540.572 238.775 539.995 237.893 539.752 236.733L541.741 236.236C541.93 236.97 542.289 237.52 542.815 237.887C543.348 238.254 544.043 238.438 544.902 238.438C545.878 238.438 546.653 238.23 547.228 237.816C547.808 237.396 548.098 236.893 548.098 236.307C548.098 235.833 547.932 235.437 547.6 235.117C547.269 234.792 546.76 234.549 546.073 234.389L543.801 233.857C542.552 233.561 541.634 233.102 541.049 232.48C540.469 231.853 540.179 231.069 540.179 230.128C540.179 229.358 540.395 228.678 540.827 228.086C541.265 227.494 541.859 227.029 542.611 226.692C543.369 226.355 544.227 226.186 545.186 226.186C546.535 226.186 547.594 226.482 548.364 227.074C549.139 227.666 549.69 228.447 550.015 229.418ZM564.568 226.364L559.526 240H557.395L552.352 226.364H554.625L558.389 237.23H558.531L562.295 226.364H564.568ZM567.334 240V226.364H569.429V240H567.334ZM568.399 224.091C567.991 224.091 567.638 223.952 567.343 223.674C567.052 223.395 566.907 223.061 566.907 222.67C566.907 222.28 567.052 221.945 567.343 221.667C567.638 221.389 567.991 221.25 568.399 221.25C568.807 221.25 569.157 221.389 569.447 221.667C569.742 221.945 569.89 222.28 569.89 222.67C569.89 223.061 569.742 223.395 569.447 223.674C569.157 223.952 568.807 224.091 568.399 224.091ZM575.361 221.818V240H573.266V221.818H575.361ZM581.294 221.818V240H579.199V221.818H581.294ZM590.849 240.284C589.535 240.284 588.401 239.994 587.449 239.414C586.502 238.828 585.771 238.011 585.256 236.964C584.747 235.91 584.492 234.685 584.492 233.288C584.492 231.892 584.747 230.661 585.256 229.595C585.771 228.524 586.487 227.689 587.404 227.092C588.328 226.488 589.405 226.186 590.636 226.186C591.346 226.186 592.047 226.304 592.74 226.541C593.432 226.778 594.063 227.163 594.631 227.695C595.199 228.222 595.652 228.92 595.989 229.79C596.326 230.661 596.495 231.732 596.495 233.004V233.892H585.984V232.081H594.364C594.364 231.312 594.211 230.625 593.903 230.021C593.601 229.418 593.169 228.941 592.607 228.592C592.05 228.243 591.393 228.068 590.636 228.068C589.801 228.068 589.079 228.275 588.47 228.69C587.866 229.098 587.401 229.631 587.076 230.288C586.75 230.945 586.587 231.649 586.587 232.401V233.608C586.587 234.638 586.765 235.511 587.12 236.227C587.481 236.937 587.981 237.479 588.62 237.852C589.26 238.219 590.002 238.402 590.849 238.402C591.399 238.402 591.896 238.325 592.34 238.171C592.79 238.011 593.178 237.775 593.503 237.461C593.829 237.141 594.08 236.745 594.258 236.271L596.282 236.839C596.069 237.526 595.711 238.13 595.208 238.651C594.705 239.165 594.083 239.568 593.343 239.858C592.604 240.142 591.772 240.284 590.849 240.284Z" fill="black"/>
<path d="M298.543 300.909C298.543 302.827 298.196 304.484 297.504 305.881C296.811 307.277 295.862 308.355 294.654 309.112C293.447 309.87 292.068 310.249 290.517 310.249C288.966 310.249 287.587 309.87 286.38 309.112C285.173 308.355 284.223 307.277 283.53 305.881C282.838 304.484 282.491 302.827 282.491 300.909C282.491 298.991 282.838 297.334 283.53 295.938C284.223 294.541 285.173 293.464 286.38 292.706C287.587 291.948 288.966 291.57 290.517 291.57C292.068 291.57 293.447 291.948 294.654 292.706C295.862 293.464 296.811 294.541 297.504 295.938C298.196 297.334 298.543 298.991 298.543 300.909ZM296.412 300.909C296.412 299.335 296.149 298.006 295.622 296.923C295.101 295.84 294.394 295.02 293.5 294.464C292.612 293.907 291.618 293.629 290.517 293.629C289.416 293.629 288.419 293.907 287.525 294.464C286.637 295.02 285.93 295.84 285.403 296.923C284.883 298.006 284.622 299.335 284.622 300.909C284.622 302.483 284.883 303.812 285.403 304.895C285.93 305.978 286.637 306.798 287.525 307.354C288.419 307.911 289.416 308.189 290.517 308.189C291.618 308.189 292.612 307.911 293.5 307.354C294.394 306.798 295.101 305.978 295.622 304.895C296.149 303.812 296.412 302.483 296.412 300.909ZM305.05 310L300.895 296.364H303.097L306.044 306.804H306.186L309.098 296.364H311.336L314.212 306.768H314.354L317.301 296.364H319.503L315.348 310H313.289L310.306 299.524H310.093L307.11 310H305.05ZM327.527 310.284C326.213 310.284 325.079 309.994 324.126 309.414C323.179 308.828 322.448 308.011 321.934 306.964C321.425 305.91 321.17 304.685 321.17 303.288C321.17 301.892 321.425 300.661 321.934 299.595C322.448 298.524 323.165 297.689 324.082 297.092C325.005 296.488 326.082 296.186 327.313 296.186C328.024 296.186 328.725 296.304 329.418 296.541C330.11 296.778 330.74 297.163 331.309 297.695C331.877 298.222 332.329 298.92 332.667 299.79C333.004 300.661 333.173 301.732 333.173 303.004V303.892H322.661V302.081H331.042C331.042 301.312 330.888 300.625 330.581 300.021C330.279 299.418 329.847 298.941 329.284 298.592C328.728 298.243 328.071 298.068 327.313 298.068C326.479 298.068 325.757 298.275 325.147 298.69C324.544 299.098 324.079 299.631 323.753 300.288C323.428 300.945 323.265 301.649 323.265 302.401V303.608C323.265 304.638 323.443 305.511 323.798 306.227C324.159 306.937 324.659 307.479 325.298 307.852C325.937 308.219 326.68 308.402 327.527 308.402C328.077 308.402 328.574 308.325 329.018 308.171C329.468 308.011 329.855 307.775 330.181 307.461C330.507 307.141 330.758 306.745 330.936 306.271L332.96 306.839C332.747 307.526 332.389 308.13 331.886 308.651C331.382 309.165 330.761 309.568 330.021 309.858C329.281 310.142 328.45 310.284 327.527 310.284ZM338.455 301.797V310H336.36V296.364H338.384V298.494H338.562C338.881 297.802 339.367 297.246 340.018 296.825C340.669 296.399 341.509 296.186 342.539 296.186C343.462 296.186 344.27 296.375 344.963 296.754C345.655 297.127 346.194 297.695 346.578 298.459C346.963 299.216 347.155 300.175 347.155 301.335V310H345.06V301.477C345.06 300.406 344.782 299.571 344.226 298.974C343.669 298.37 342.906 298.068 341.935 298.068C341.266 298.068 340.669 298.213 340.142 298.503C339.621 298.793 339.21 299.216 338.908 299.773C338.606 300.329 338.455 301.004 338.455 301.797ZM360.643 299.418L358.761 299.95C358.643 299.637 358.468 299.332 358.237 299.036C358.012 298.734 357.705 298.485 357.314 298.29C356.923 298.095 356.423 297.997 355.814 297.997C354.979 297.997 354.284 298.19 353.727 298.574C353.177 298.953 352.902 299.435 352.902 300.021C352.902 300.542 353.091 300.953 353.47 301.255C353.849 301.557 354.44 301.809 355.245 302.01L357.27 302.507C358.489 302.803 359.397 303.256 359.995 303.865C360.593 304.469 360.892 305.247 360.892 306.2C360.892 306.982 360.667 307.68 360.217 308.295C359.773 308.911 359.152 309.396 358.353 309.751C357.554 310.107 356.624 310.284 355.565 310.284C354.174 310.284 353.023 309.982 352.112 309.379C351.2 308.775 350.623 307.893 350.38 306.733L352.369 306.236C352.558 306.97 352.916 307.52 353.443 307.887C353.976 308.254 354.671 308.438 355.529 308.438C356.506 308.438 357.281 308.23 357.855 307.816C358.435 307.396 358.725 306.893 358.725 306.307C358.725 305.833 358.56 305.437 358.228 305.117C357.897 304.792 357.388 304.549 356.701 304.389L354.429 303.857C353.18 303.561 352.262 303.102 351.676 302.48C351.096 301.853 350.806 301.069 350.806 300.128C350.806 299.358 351.022 298.678 351.455 298.086C351.893 297.494 352.487 297.029 353.239 296.692C353.997 296.355 354.855 296.186 355.814 296.186C357.163 296.186 358.222 296.482 358.992 297.074C359.767 297.666 360.318 298.447 360.643 299.418ZM364.33 310V291.818H366.425V298.53H366.602C366.756 298.293 366.969 297.991 367.242 297.624C367.52 297.251 367.916 296.92 368.431 296.63C368.952 296.334 369.656 296.186 370.544 296.186C371.692 296.186 372.704 296.473 373.58 297.047C374.456 297.621 375.14 298.435 375.631 299.489C376.122 300.542 376.368 301.785 376.368 303.217C376.368 304.661 376.122 305.913 375.631 306.973C375.14 308.026 374.459 308.843 373.589 309.423C372.719 309.997 371.716 310.284 370.58 310.284C369.704 310.284 369.002 310.139 368.476 309.849C367.949 309.553 367.543 309.219 367.259 308.846C366.975 308.467 366.756 308.153 366.602 307.905H366.354V310H364.33ZM366.389 303.182C366.389 304.212 366.54 305.12 366.842 305.907C367.144 306.689 367.585 307.301 368.165 307.745C368.745 308.183 369.455 308.402 370.296 308.402C371.171 308.402 371.902 308.171 372.488 307.71C373.08 307.242 373.524 306.615 373.82 305.827C374.122 305.034 374.273 304.152 374.273 303.182C374.273 302.223 374.125 301.359 373.829 300.589C373.539 299.814 373.098 299.202 372.506 298.752C371.92 298.296 371.183 298.068 370.296 298.068C369.443 298.068 368.727 298.284 368.147 298.716C367.567 299.142 367.129 299.74 366.833 300.51C366.537 301.273 366.389 302.164 366.389 303.182ZM385.113 310.284C383.882 310.284 382.801 309.991 381.872 309.405C380.949 308.819 380.227 308 379.706 306.946C379.191 305.893 378.934 304.661 378.934 303.253C378.934 301.832 379.191 300.592 379.706 299.533C380.227 298.474 380.949 297.651 381.872 297.065C382.801 296.479 383.882 296.186 385.113 296.186C386.344 296.186 387.421 296.479 388.344 297.065C389.273 297.651 389.995 298.474 390.51 299.533C391.031 300.592 391.292 301.832 391.292 303.253C391.292 304.661 391.031 305.893 390.51 306.946C389.995 308 389.273 308.819 388.344 309.405C387.421 309.991 386.344 310.284 385.113 310.284ZM385.113 308.402C386.048 308.402 386.817 308.162 387.421 307.683C388.025 307.203 388.471 306.573 388.761 305.792C389.051 305.011 389.196 304.164 389.196 303.253C389.196 302.341 389.051 301.492 388.761 300.705C388.471 299.918 388.025 299.281 387.421 298.796C386.817 298.311 386.048 298.068 385.113 298.068C384.178 298.068 383.408 298.311 382.804 298.796C382.201 299.281 381.754 299.918 381.464 300.705C381.174 301.492 381.029 302.341 381.029 303.253C381.029 304.164 381.174 305.011 381.464 305.792C381.754 306.573 382.201 307.203 382.804 307.683C383.408 308.162 384.178 308.402 385.113 308.402ZM394.49 310V296.364H396.514V298.423H396.656C396.905 297.749 397.354 297.201 398.006 296.781C398.657 296.361 399.39 296.151 400.207 296.151C400.361 296.151 400.553 296.154 400.784 296.159C401.015 296.165 401.19 296.174 401.308 296.186V298.317C401.237 298.299 401.074 298.272 400.82 298.237C400.571 298.195 400.308 298.175 400.03 298.175C399.367 298.175 398.775 298.314 398.254 298.592C397.739 298.864 397.331 299.243 397.029 299.728C396.733 300.208 396.585 300.755 396.585 301.371V310H394.49ZM408.916 310.284C407.685 310.284 406.605 309.991 405.676 309.405C404.753 308.819 404.031 308 403.51 306.946C402.995 305.893 402.737 304.661 402.737 303.253C402.737 301.832 402.995 300.592 403.51 299.533C404.031 298.474 404.753 297.651 405.676 297.065C406.605 296.479 407.685 296.186 408.916 296.186C410.147 296.186 411.225 296.479 412.148 297.065C413.077 297.651 413.799 298.474 414.314 299.533C414.835 300.592 415.095 301.832 415.095 303.253C415.095 304.661 414.835 305.893 414.314 306.946C413.799 308 413.077 308.819 412.148 309.405C411.225 309.991 410.147 310.284 408.916 310.284ZM408.916 308.402C409.852 308.402 410.621 308.162 411.225 307.683C411.828 307.203 412.275 306.573 412.565 305.792C412.855 305.011 413 304.164 413 303.253C413 302.341 412.855 301.492 412.565 300.705C412.275 299.918 411.828 299.281 411.225 298.796C410.621 298.311 409.852 298.068 408.916 298.068C407.981 298.068 407.212 298.311 406.608 298.796C406.004 299.281 405.558 299.918 405.268 300.705C404.978 301.492 404.833 302.341 404.833 303.253C404.833 304.164 404.978 305.011 405.268 305.792C405.558 306.573 406.004 307.203 406.608 307.683C407.212 308.162 407.981 308.402 408.916 308.402Z" fill="black"/>
<path d="M660.202 239V220.818H662.403V237.047H670.855V239H660.202ZM679.697 239.284C678.384 239.284 677.25 238.994 676.297 238.414C675.35 237.828 674.619 237.011 674.104 235.964C673.595 234.91 673.341 233.685 673.341 232.288C673.341 230.892 673.595 229.661 674.104 228.595C674.619 227.524 675.335 226.689 676.253 226.092C677.176 225.488 678.253 225.186 679.484 225.186C680.195 225.186 680.896 225.304 681.588 225.541C682.281 225.778 682.911 226.163 683.479 226.695C684.048 227.222 684.5 227.92 684.838 228.79C685.175 229.661 685.344 230.732 685.344 232.004V232.892H674.832V231.081H683.213C683.213 230.312 683.059 229.625 682.751 229.021C682.45 228.418 682.018 227.941 681.455 227.592C680.899 227.243 680.242 227.068 679.484 227.068C678.65 227.068 677.928 227.275 677.318 227.69C676.714 228.098 676.25 228.631 675.924 229.288C675.599 229.945 675.436 230.649 675.436 231.401V232.608C675.436 233.638 675.614 234.511 675.969 235.227C676.33 235.937 676.83 236.479 677.469 236.852C678.108 237.219 678.851 237.402 679.697 237.402C680.248 237.402 680.745 237.325 681.189 237.171C681.639 237.011 682.026 236.775 682.352 236.461C682.677 236.141 682.929 235.745 683.107 235.271L685.131 235.839C684.918 236.526 684.56 237.13 684.056 237.651C683.553 238.165 682.932 238.568 682.192 238.858C681.452 239.142 680.621 239.284 679.697 239.284ZM689.727 225.364L692.994 230.939L696.261 225.364H698.676L694.273 232.182L698.676 239H696.261L692.994 233.709L689.727 239H687.312L691.645 232.182L687.312 225.364H689.727ZM701.666 239V225.364H703.761V239H701.666ZM702.731 223.091C702.323 223.091 701.97 222.952 701.675 222.674C701.385 222.395 701.24 222.061 701.24 221.67C701.24 221.28 701.385 220.945 701.675 220.667C701.97 220.389 702.323 220.25 702.731 220.25C703.139 220.25 703.489 220.389 703.779 220.667C704.075 220.945 704.222 221.28 704.222 221.67C704.222 222.061 704.075 222.395 703.779 222.674C703.489 222.952 703.139 223.091 702.731 223.091ZM709.693 230.797V239H707.598V225.364H709.622V227.494H709.8C710.12 226.802 710.605 226.246 711.256 225.825C711.907 225.399 712.747 225.186 713.777 225.186C714.701 225.186 715.508 225.375 716.201 225.754C716.893 226.127 717.432 226.695 717.817 227.459C718.201 228.216 718.394 229.175 718.394 230.335V239H716.299V230.477C716.299 229.406 716.02 228.571 715.464 227.974C714.908 227.37 714.144 227.068 713.174 227.068C712.505 227.068 711.907 227.213 711.38 227.503C710.859 227.793 710.448 228.216 710.146 228.773C709.844 229.329 709.693 230.004 709.693 230.797ZM727.727 244.398C726.714 244.398 725.844 244.268 725.116 244.007C724.388 243.753 723.782 243.415 723.297 242.995C722.817 242.581 722.435 242.137 722.151 241.663L723.82 240.491C724.01 240.74 724.249 241.024 724.539 241.344C724.829 241.669 725.226 241.95 725.729 242.187C726.238 242.43 726.904 242.551 727.727 242.551C728.827 242.551 729.736 242.285 730.452 241.752C731.168 241.219 731.526 240.385 731.526 239.249V236.479H731.349C731.195 236.727 730.976 237.035 730.692 237.402C730.414 237.763 730.011 238.086 729.484 238.37C728.964 238.648 728.259 238.787 727.371 238.787C726.271 238.787 725.282 238.527 724.406 238.006C723.536 237.485 722.847 236.727 722.338 235.733C721.835 234.739 721.583 233.531 721.583 232.111C721.583 230.714 721.829 229.498 722.32 228.462C722.811 227.42 723.495 226.615 724.371 226.047C725.247 225.473 726.259 225.186 727.407 225.186C728.295 225.186 728.999 225.334 729.52 225.63C730.047 225.92 730.449 226.251 730.727 226.624C731.011 226.991 731.23 227.293 731.384 227.53H731.597V225.364H733.621V239.391C733.621 240.562 733.355 241.515 732.822 242.249C732.296 242.989 731.585 243.531 730.692 243.874C729.804 244.223 728.816 244.398 727.727 244.398ZM727.656 236.905C728.496 236.905 729.206 236.712 729.786 236.328C730.366 235.943 730.807 235.39 731.109 234.668C731.411 233.946 731.562 233.081 731.562 232.075C731.562 231.093 731.414 230.226 731.118 229.474C730.822 228.722 730.384 228.134 729.804 227.707C729.224 227.281 728.508 227.068 727.656 227.068C726.768 227.068 726.028 227.293 725.436 227.743C724.85 228.193 724.409 228.796 724.113 229.554C723.823 230.312 723.678 231.152 723.678 232.075C723.678 233.022 723.826 233.86 724.122 234.588C724.424 235.31 724.868 235.878 725.454 236.292C726.046 236.701 726.78 236.905 727.656 236.905ZM743.387 225.364V227.139H736.32V225.364H743.387ZM738.38 222.097H740.475V235.094C740.475 235.686 740.561 236.129 740.733 236.425C740.91 236.715 741.135 236.911 741.407 237.011C741.685 237.106 741.978 237.153 742.286 237.153C742.517 237.153 742.706 237.142 742.854 237.118C743.002 237.088 743.121 237.065 743.21 237.047L743.636 238.929C743.494 238.982 743.295 239.036 743.041 239.089C742.786 239.148 742.464 239.178 742.073 239.178C741.481 239.178 740.901 239.05 740.333 238.796C739.771 238.541 739.303 238.154 738.93 237.633C738.563 237.112 738.38 236.455 738.38 235.662V222.097ZM751.932 239.284C750.701 239.284 749.621 238.991 748.692 238.405C747.768 237.819 747.046 237 746.525 235.946C746.01 234.893 745.753 233.661 745.753 232.253C745.753 230.832 746.01 229.592 746.525 228.533C747.046 227.474 747.768 226.651 748.692 226.065C749.621 225.479 750.701 225.186 751.932 225.186C753.163 225.186 754.24 225.479 755.164 226.065C756.093 226.651 756.815 227.474 757.33 228.533C757.851 229.592 758.111 230.832 758.111 232.253C758.111 233.661 757.851 234.893 757.33 235.946C756.815 237 756.093 237.819 755.164 238.405C754.24 238.991 753.163 239.284 751.932 239.284ZM751.932 237.402C752.867 237.402 753.637 237.162 754.24 236.683C754.844 236.203 755.291 235.573 755.581 234.792C755.871 234.011 756.016 233.164 756.016 232.253C756.016 231.341 755.871 230.492 755.581 229.705C755.291 228.918 754.844 228.281 754.24 227.796C753.637 227.311 752.867 227.068 751.932 227.068C750.997 227.068 750.227 227.311 749.624 227.796C749.02 228.281 748.573 228.918 748.283 229.705C747.993 230.492 747.848 231.341 747.848 232.253C747.848 233.164 747.993 234.011 748.283 234.792C748.573 235.573 749.02 236.203 749.624 236.683C750.227 237.162 750.997 237.402 751.932 237.402ZM763.404 230.797V239H761.309V225.364H763.333V227.494H763.511C763.831 226.802 764.316 226.246 764.967 225.825C765.618 225.399 766.458 225.186 767.488 225.186C768.411 225.186 769.219 225.375 769.912 225.754C770.604 226.127 771.143 226.695 771.528 227.459C771.912 228.216 772.105 229.175 772.105 230.335V239H770.009V230.477C770.009 229.406 769.731 228.571 769.175 227.974C768.619 227.37 767.855 227.068 766.884 227.068C766.216 227.068 765.618 227.213 765.091 227.503C764.57 227.793 764.159 228.216 763.857 228.773C763.555 229.329 763.404 230.004 763.404 230.797Z" fill="black"/>
<path d="M611.202 310V291.818H617.345C618.766 291.818 619.932 292.061 620.843 292.546C621.754 293.026 622.429 293.685 622.867 294.526C623.305 295.366 623.524 296.322 623.524 297.393C623.524 298.465 623.305 299.415 622.867 300.243C622.429 301.072 621.757 301.723 620.852 302.196C619.946 302.664 618.789 302.898 617.381 302.898H612.409V300.909H617.31C618.28 300.909 619.062 300.767 619.653 300.483C620.251 300.199 620.683 299.796 620.95 299.276C621.222 298.749 621.358 298.121 621.358 297.393C621.358 296.665 621.222 296.029 620.95 295.485C620.677 294.94 620.242 294.52 619.645 294.224C619.047 293.922 618.257 293.771 617.274 293.771H613.403V310H611.202ZM619.76 301.832L624.234 310H621.678L617.274 301.832H619.76ZM626.909 310V296.364H629.004V310H626.909ZM627.974 294.091C627.566 294.091 627.214 293.952 626.918 293.674C626.628 293.395 626.483 293.061 626.483 292.67C626.483 292.28 626.628 291.945 626.918 291.667C627.214 291.389 627.566 291.25 627.974 291.25C628.383 291.25 628.732 291.389 629.022 291.667C629.318 291.945 629.466 292.28 629.466 292.67C629.466 293.061 629.318 293.395 629.022 293.674C628.732 293.952 628.383 294.091 627.974 294.091ZM638.381 310.284C637.103 310.284 636.002 309.982 635.079 309.379C634.155 308.775 633.445 307.943 632.948 306.884C632.451 305.824 632.202 304.614 632.202 303.253C632.202 301.868 632.457 300.646 632.966 299.586C633.481 298.521 634.197 297.689 635.114 297.092C636.037 296.488 637.115 296.186 638.346 296.186C639.305 296.186 640.169 296.364 640.938 296.719C641.707 297.074 642.338 297.571 642.829 298.21C643.32 298.849 643.625 299.595 643.743 300.447H641.648C641.488 299.826 641.133 299.276 640.583 298.796C640.038 298.311 639.305 298.068 638.381 298.068C637.564 298.068 636.848 298.281 636.233 298.707C635.623 299.128 635.147 299.722 634.803 300.492C634.466 301.255 634.297 302.152 634.297 303.182C634.297 304.235 634.463 305.153 634.795 305.934C635.132 306.715 635.605 307.322 636.215 307.754C636.831 308.186 637.553 308.402 638.381 308.402C638.926 308.402 639.42 308.307 639.864 308.118C640.308 307.929 640.684 307.656 640.991 307.301C641.299 306.946 641.518 306.52 641.648 306.023H643.743C643.625 306.828 643.332 307.553 642.865 308.198C642.403 308.837 641.79 309.346 641.027 309.725C640.269 310.098 639.387 310.284 638.381 310.284ZM648.901 301.797V310H646.806V291.818H648.901V298.494H649.079C649.399 297.79 649.878 297.231 650.517 296.816C651.162 296.396 652.021 296.186 653.092 296.186C654.021 296.186 654.835 296.373 655.533 296.745C656.232 297.112 656.773 297.678 657.158 298.441C657.548 299.199 657.744 300.163 657.744 301.335V310H655.649V301.477C655.649 300.394 655.367 299.557 654.805 298.965C654.249 298.367 653.477 298.068 652.488 298.068C651.802 298.068 651.186 298.213 650.642 298.503C650.103 298.793 649.677 299.216 649.363 299.773C649.055 300.329 648.901 301.004 648.901 301.797ZM661.577 310V296.364H663.601V298.494H663.778C664.063 297.766 664.521 297.201 665.155 296.799C665.788 296.39 666.548 296.186 667.436 296.186C668.336 296.186 669.084 296.39 669.682 296.799C670.286 297.201 670.756 297.766 671.094 298.494H671.236C671.585 297.79 672.109 297.231 672.807 296.816C673.506 296.396 674.343 296.186 675.32 296.186C676.539 296.186 677.536 296.568 678.312 297.331C679.087 298.089 679.475 299.27 679.475 300.874V310H677.379V300.874C677.379 299.867 677.104 299.148 676.554 298.716C676.003 298.284 675.355 298.068 674.609 298.068C673.651 298.068 672.908 298.358 672.381 298.938C671.854 299.512 671.591 300.24 671.591 301.122V310H669.46V300.661C669.46 299.885 669.209 299.261 668.706 298.787C668.203 298.308 667.555 298.068 666.761 298.068C666.217 298.068 665.708 298.213 665.234 298.503C664.767 298.793 664.388 299.196 664.098 299.711C663.814 300.22 663.672 300.808 663.672 301.477V310H661.577ZM688.845 310.284C687.614 310.284 686.534 309.991 685.605 309.405C684.681 308.819 683.959 308 683.438 306.946C682.924 305.893 682.666 304.661 682.666 303.253C682.666 301.832 682.924 300.592 683.438 299.533C683.959 298.474 684.681 297.651 685.605 297.065C686.534 296.479 687.614 296.186 688.845 296.186C690.076 296.186 691.153 296.479 692.077 297.065C693.006 297.651 693.728 298.474 694.243 299.533C694.764 300.592 695.024 301.832 695.024 303.253C695.024 304.661 694.764 305.893 694.243 306.946C693.728 308 693.006 308.819 692.077 309.405C691.153 309.991 690.076 310.284 688.845 310.284ZM688.845 308.402C689.78 308.402 690.55 308.162 691.153 307.683C691.757 307.203 692.204 306.573 692.494 305.792C692.784 305.011 692.929 304.164 692.929 303.253C692.929 302.341 692.784 301.492 692.494 300.705C692.204 299.918 691.757 299.281 691.153 298.796C690.55 298.311 689.78 298.068 688.845 298.068C687.91 298.068 687.141 298.311 686.537 298.796C685.933 299.281 685.486 299.918 685.196 300.705C684.906 301.492 684.761 302.341 684.761 303.253C684.761 304.164 684.906 305.011 685.196 305.792C685.486 306.573 685.933 307.203 686.537 307.683C687.141 308.162 687.91 308.402 688.845 308.402ZM700.317 301.797V310H698.222V296.364H700.246V298.494H700.424C700.744 297.802 701.229 297.246 701.88 296.825C702.531 296.399 703.371 296.186 704.401 296.186C705.325 296.186 706.132 296.375 706.825 296.754C707.517 297.127 708.056 297.695 708.441 298.459C708.825 299.216 709.018 300.175 709.018 301.335V310H706.923V301.477C706.923 300.406 706.644 299.571 706.088 298.974C705.532 298.37 704.768 298.068 703.798 298.068C703.129 298.068 702.531 298.213 702.004 298.503C701.483 298.793 701.072 299.216 700.77 299.773C700.468 300.329 700.317 301.004 700.317 301.797ZM717.995 310.284C716.859 310.284 715.856 309.997 714.986 309.423C714.116 308.843 713.435 308.026 712.944 306.973C712.453 305.913 712.207 304.661 712.207 303.217C712.207 301.785 712.453 300.542 712.944 299.489C713.435 298.435 714.119 297.621 714.995 297.047C715.871 296.473 716.883 296.186 718.031 296.186C718.919 296.186 719.62 296.334 720.135 296.63C720.656 296.92 721.052 297.251 721.325 297.624C721.603 297.991 721.819 298.293 721.973 298.53H722.15V291.818H724.245V310H722.221V307.905H721.973C721.819 308.153 721.6 308.467 721.316 308.846C721.032 309.219 720.626 309.553 720.1 309.849C719.573 310.139 718.871 310.284 717.995 310.284ZM718.28 308.402C719.12 308.402 719.83 308.183 720.41 307.745C720.99 307.301 721.431 306.689 721.733 305.907C722.035 305.12 722.186 304.212 722.186 303.182C722.186 302.164 722.038 301.273 721.742 300.51C721.446 299.74 721.008 299.142 720.428 298.716C719.848 298.284 719.132 298.068 718.28 298.068C717.392 298.068 716.652 298.296 716.06 298.752C715.474 299.202 715.033 299.814 714.737 300.589C714.447 301.359 714.302 302.223 714.302 303.182C714.302 304.152 714.45 305.034 714.746 305.827C715.048 306.615 715.492 307.242 716.078 307.71C716.67 308.171 717.404 308.402 718.28 308.402Z" fill="black"/>
<path d="M334.202 367V348.818H340.558C341.825 348.818 342.869 349.037 343.692 349.475C344.515 349.907 345.127 350.49 345.53 351.224C345.932 351.952 346.134 352.76 346.134 353.648C346.134 354.429 345.994 355.074 345.716 355.583C345.444 356.092 345.083 356.495 344.633 356.79C344.189 357.086 343.707 357.305 343.186 357.447V357.625C343.742 357.661 344.302 357.856 344.864 358.211C345.426 358.566 345.897 359.075 346.276 359.738C346.654 360.401 346.844 361.212 346.844 362.17C346.844 363.082 346.637 363.902 346.222 364.63C345.808 365.358 345.154 365.935 344.26 366.361C343.367 366.787 342.204 367 340.771 367H334.202ZM336.403 365.047H340.771C342.21 365.047 343.23 364.769 343.834 364.212C344.444 363.65 344.749 362.969 344.749 362.17C344.749 361.555 344.592 360.987 344.278 360.466C343.964 359.939 343.518 359.519 342.938 359.205C342.357 358.886 341.671 358.726 340.878 358.726H336.403V365.047ZM336.403 356.808H340.487C341.15 356.808 341.748 356.678 342.281 356.418C342.819 356.157 343.245 355.79 343.559 355.317C343.879 354.843 344.038 354.287 344.038 353.648C344.038 352.849 343.76 352.171 343.204 351.615C342.647 351.052 341.766 350.771 340.558 350.771H336.403V356.808ZM355.717 367.284C354.486 367.284 353.406 366.991 352.477 366.405C351.553 365.819 350.831 365 350.311 363.946C349.796 362.893 349.538 361.661 349.538 360.253C349.538 358.832 349.796 357.592 350.311 356.533C350.831 355.474 351.553 354.651 352.477 354.065C353.406 353.479 354.486 353.186 355.717 353.186C356.948 353.186 358.025 353.479 358.949 354.065C359.878 354.651 360.6 355.474 361.115 356.533C361.636 357.592 361.896 358.832 361.896 360.253C361.896 361.661 361.636 362.893 361.115 363.946C360.6 365 359.878 365.819 358.949 366.405C358.025 366.991 356.948 367.284 355.717 367.284ZM355.717 365.402C356.652 365.402 357.422 365.162 358.025 364.683C358.629 364.203 359.076 363.573 359.366 362.792C359.656 362.011 359.801 361.164 359.801 360.253C359.801 359.341 359.656 358.492 359.366 357.705C359.076 356.918 358.629 356.281 358.025 355.796C357.422 355.311 356.652 355.068 355.717 355.068C354.782 355.068 354.013 355.311 353.409 355.796C352.805 356.281 352.358 356.918 352.068 357.705C351.778 358.492 351.633 359.341 351.633 360.253C351.633 361.164 351.778 362.011 352.068 362.792C352.358 363.573 352.805 364.203 353.409 364.683C354.013 365.162 354.782 365.402 355.717 365.402ZM367.72 367L363.565 353.364H365.767L368.714 363.804H368.856L371.768 353.364H374.006L376.882 363.768H377.024L379.971 353.364H382.173L378.018 367H375.959L372.976 356.524H372.763L369.78 367H367.72ZM387.038 348.818V367H384.943V348.818H387.038ZM390.876 367V353.364H392.971V367H390.876ZM391.941 351.091C391.533 351.091 391.18 350.952 390.884 350.674C390.594 350.395 390.449 350.061 390.449 349.67C390.449 349.28 390.594 348.945 390.884 348.667C391.18 348.389 391.533 348.25 391.941 348.25C392.349 348.25 392.699 348.389 392.989 348.667C393.284 348.945 393.432 349.28 393.432 349.67C393.432 350.061 393.284 350.395 392.989 350.674C392.699 350.952 392.349 351.091 391.941 351.091ZM398.903 358.797V367H396.808V353.364H398.832V355.494H399.01C399.33 354.802 399.815 354.246 400.466 353.825C401.117 353.399 401.957 353.186 402.987 353.186C403.911 353.186 404.718 353.375 405.411 353.754C406.103 354.127 406.642 354.695 407.027 355.459C407.411 356.216 407.604 357.175 407.604 358.335V367H405.509V358.477C405.509 357.406 405.23 356.571 404.674 355.974C404.118 355.37 403.354 355.068 402.384 355.068C401.715 355.068 401.117 355.213 400.59 355.503C400.069 355.793 399.658 356.216 399.356 356.773C399.054 357.329 398.903 358.004 398.903 358.797ZM416.937 372.398C415.924 372.398 415.054 372.268 414.326 372.007C413.598 371.753 412.992 371.415 412.506 370.995C412.027 370.581 411.645 370.137 411.361 369.663L413.03 368.491C413.22 368.74 413.459 369.024 413.749 369.344C414.039 369.669 414.436 369.95 414.939 370.187C415.448 370.43 416.114 370.551 416.937 370.551C418.037 370.551 418.946 370.285 419.662 369.752C420.378 369.219 420.736 368.385 420.736 367.249V364.479H420.559C420.405 364.727 420.186 365.035 419.902 365.402C419.624 365.763 419.221 366.086 418.694 366.37C418.174 366.648 417.469 366.787 416.581 366.787C415.481 366.787 414.492 366.527 413.616 366.006C412.746 365.485 412.057 364.727 411.548 363.733C411.045 362.739 410.793 361.531 410.793 360.111C410.793 358.714 411.039 357.498 411.53 356.462C412.021 355.42 412.705 354.615 413.581 354.047C414.457 353.473 415.469 353.186 416.617 353.186C417.505 353.186 418.209 353.334 418.73 353.63C419.257 353.92 419.659 354.251 419.937 354.624C420.221 354.991 420.44 355.293 420.594 355.53H420.807V353.364H422.831V367.391C422.831 368.562 422.565 369.515 422.032 370.249C421.506 370.989 420.795 371.531 419.902 371.874C419.014 372.223 418.026 372.398 416.937 372.398ZM416.866 364.905C417.706 364.905 418.416 364.712 418.996 364.328C419.576 363.943 420.017 363.39 420.319 362.668C420.621 361.946 420.772 361.081 420.772 360.075C420.772 359.093 420.624 358.226 420.328 357.474C420.032 356.722 419.594 356.134 419.014 355.707C418.434 355.281 417.718 355.068 416.866 355.068C415.978 355.068 415.238 355.293 414.646 355.743C414.06 356.193 413.619 356.796 413.323 357.554C413.033 358.312 412.888 359.152 412.888 360.075C412.888 361.022 413.036 361.86 413.332 362.588C413.634 363.31 414.078 363.878 414.664 364.292C415.256 364.701 415.99 364.905 416.866 364.905ZM446.411 354.5C446.216 353.902 445.958 353.367 445.639 352.893C445.325 352.414 444.949 352.005 444.511 351.668C444.079 351.331 443.588 351.073 443.037 350.896C442.487 350.718 441.883 350.629 441.226 350.629C440.149 350.629 439.17 350.907 438.288 351.464C437.406 352.02 436.705 352.84 436.184 353.923C435.663 355.006 435.402 356.335 435.402 357.909C435.402 359.483 435.666 360.812 436.193 361.895C436.719 362.978 437.432 363.798 438.332 364.354C439.232 364.911 440.244 365.189 441.368 365.189C442.41 365.189 443.327 364.967 444.12 364.523C444.919 364.073 445.541 363.44 445.985 362.623C446.435 361.801 446.66 360.833 446.66 359.72L447.334 359.862H441.866V357.909H448.79V359.862C448.79 361.36 448.471 362.662 447.831 363.768C447.198 364.875 446.322 365.733 445.204 366.343C444.091 366.947 442.812 367.249 441.368 367.249C439.758 367.249 438.344 366.87 437.125 366.112C435.911 365.355 434.964 364.277 434.284 362.881C433.609 361.484 433.272 359.827 433.272 357.909C433.272 356.471 433.464 355.178 433.849 354.029C434.239 352.875 434.79 351.893 435.5 351.082C436.21 350.271 437.051 349.65 438.021 349.218C438.992 348.786 440.06 348.57 441.226 348.57C442.185 348.57 443.079 348.715 443.907 349.005C444.742 349.289 445.485 349.694 446.136 350.221C446.793 350.742 447.34 351.366 447.778 352.094C448.216 352.816 448.518 353.618 448.684 354.5H446.411ZM452.277 367V353.364H454.301V355.423H454.443C454.692 354.749 455.142 354.201 455.793 353.781C456.444 353.361 457.178 353.151 457.994 353.151C458.148 353.151 458.341 353.154 458.571 353.159C458.802 353.165 458.977 353.174 459.095 353.186V355.317C459.024 355.299 458.861 355.272 458.607 355.237C458.358 355.195 458.095 355.175 457.817 355.175C457.154 355.175 456.562 355.314 456.041 355.592C455.526 355.864 455.118 356.243 454.816 356.728C454.52 357.208 454.372 357.755 454.372 358.371V367H452.277ZM466.881 367.284C465.567 367.284 464.434 366.994 463.481 366.414C462.534 365.828 461.803 365.011 461.288 363.964C460.779 362.91 460.525 361.685 460.525 360.288C460.525 358.892 460.779 357.661 461.288 356.595C461.803 355.524 462.519 354.689 463.436 354.092C464.36 353.488 465.437 353.186 466.668 353.186C467.378 353.186 468.08 353.304 468.772 353.541C469.464 353.778 470.095 354.163 470.663 354.695C471.231 355.222 471.684 355.92 472.021 356.79C472.359 357.661 472.527 358.732 472.527 360.004V360.892H462.016V359.081H470.397C470.397 358.312 470.243 357.625 469.935 357.021C469.633 356.418 469.201 355.941 468.639 355.592C468.083 355.243 467.426 355.068 466.668 355.068C465.833 355.068 465.111 355.275 464.502 355.69C463.898 356.098 463.433 356.631 463.108 357.288C462.782 357.945 462.62 358.649 462.62 359.401V360.608C462.62 361.638 462.797 362.511 463.152 363.227C463.513 363.937 464.013 364.479 464.653 364.852C465.292 365.219 466.035 365.402 466.881 365.402C467.431 365.402 467.929 365.325 468.373 365.171C468.822 365.011 469.21 364.775 469.536 364.461C469.861 364.141 470.113 363.745 470.29 363.271L472.314 363.839C472.101 364.526 471.743 365.13 471.24 365.651C470.737 366.165 470.116 366.568 469.376 366.858C468.636 367.142 467.804 367.284 466.881 367.284ZM481.432 367.284C480.118 367.284 478.984 366.994 478.032 366.414C477.085 365.828 476.354 365.011 475.839 363.964C475.33 362.91 475.075 361.685 475.075 360.288C475.075 358.892 475.33 357.661 475.839 356.595C476.354 355.524 477.07 354.689 477.987 354.092C478.911 353.488 479.988 353.186 481.219 353.186C481.929 353.186 482.63 353.304 483.323 353.541C484.015 353.778 484.646 354.163 485.214 354.695C485.782 355.222 486.235 355.92 486.572 356.79C486.909 357.661 487.078 358.732 487.078 360.004V360.892H476.567V359.081H484.947C484.947 358.312 484.794 357.625 484.486 357.021C484.184 356.418 483.752 355.941 483.19 355.592C482.633 355.243 481.976 355.068 481.219 355.068C480.384 355.068 479.662 355.275 479.053 355.69C478.449 356.098 477.984 356.631 477.659 357.288C477.333 357.945 477.17 358.649 477.17 359.401V360.608C477.17 361.638 477.348 362.511 477.703 363.227C478.064 363.937 478.564 364.479 479.203 364.852C479.843 365.219 480.585 365.402 481.432 365.402C481.982 365.402 482.479 365.325 482.923 365.171C483.373 365.011 483.761 364.775 484.086 364.461C484.412 364.141 484.663 363.745 484.841 363.271L486.865 363.839C486.652 364.526 486.294 365.13 485.791 365.651C485.288 366.165 484.666 366.568 483.926 366.858C483.187 367.142 482.355 367.284 481.432 367.284ZM492.36 358.797V367H490.265V353.364H492.289V355.494H492.467C492.787 354.802 493.272 354.246 493.923 353.825C494.574 353.399 495.414 353.186 496.444 353.186C497.368 353.186 498.175 353.375 498.868 353.754C499.56 354.127 500.099 354.695 500.484 355.459C500.868 356.216 501.061 357.175 501.061 358.335V367H498.966V358.477C498.966 357.406 498.687 356.571 498.131 355.974C497.575 355.37 496.811 355.068 495.841 355.068C495.172 355.068 494.574 355.213 494.047 355.503C493.526 355.793 493.115 356.216 492.813 356.773C492.511 357.329 492.36 358.004 492.36 358.797Z" fill="black"/>
<circle cx="498.511" cy="206.511" r="9.01136" fill="#FFE587" stroke="black"/>
<circle cx="341.511" cy="276.511" r="9.01136" fill="#FFE587" stroke="black"/>
<circle cx="642.511" cy="230.511" r="9.01136" fill="#FFE587" stroke="black"/>
<circle cx="667.511" cy="276.511" r="9.01136" fill="#FFE587" stroke="black"/>
<circle cx="414.511" cy="389.511" r="9.01136" fill="#FFE587" stroke="black"/>
<defs>
<filter id="filter0_d_142_385" x="71.4102" y="69.4082" width="869.779" height="396.092" filterUnits="userSpaceOnUse" color-interpolation-filters="sRGB">
<feFlood flood-opacity="0" result="BackgroundImageFix"/>
<feColorMatrix in="SourceAlpha" type="matrix" values="0 0 0 0 0 0 0 0 0 0 0 0 0 0 0 0 0 0 127 0" result="hardAlpha"/>
<feOffset dy="4"/>
<feGaussianBlur stdDeviation="2"/>
<feComposite in2="hardAlpha" operator="out"/>
<feColorMatrix type="matrix" values="0 0 0 0 0 0 0 0 0 0 0 0 0 0 0 0 0 0 0.25 0"/>
<feBlend mode="normal" in2="BackgroundImageFix" result="effect1_dropShadow_142_385"/>
<feBlend mode="normal" in="SourceGraphic" in2="effect1_dropShadow_142_385" result="shape"/>
</filter>
<filter id="filter1_d_142_385" x="55" y="444.404" width="20.5645" height="21.5957" filterUnits="userSpaceOnUse" color-interpolation-filters="sRGB">
<feFlood flood-opacity="0" result="BackgroundImageFix"/>
<feColorMatrix in="SourceAlpha" type="matrix" values="0 0 0 0 0 0 0 0 0 0 0 0 0 0 0 0 0 0 127 0" result="hardAlpha"/>
<feOffset dy="4"/>
<feGaussianBlur stdDeviation="2"/>
<feComposite in2="hardAlpha" operator="out"/>
<feColorMatrix type="matrix" values="0 0 0 0 0 0 0 0 0 0 0 0 0 0 0 0 0 0 0.25 0"/>
<feBlend mode="normal" in2="BackgroundImageFix" result="effect1_dropShadow_142_385"/>
<feBlend mode="normal" in="SourceGraphic" in2="effect1_dropShadow_142_385" result="shape"/>
</filter>
</defs>
</svg>
