<svg width="794" height="748" viewBox="0 0 794 748" fill="none" xmlns="http://www.w3.org/2000/svg">
<rect x="0.5" y="0.5" width="793" height="747" rx="35.5" fill="#97DCFF" stroke="#717171"/>
<g filter="url(#filter0_d_159_317)">
<path d="M473 83.5L115 81L115.5 233H119L124 242.5L127 244L129.5 246H132L133.5 250L136 256.5L143 265L141.5 269L145.5 274L143 281V284.5L141.5 292L147 299L154.5 302C154.333 303.833 153.7 307.7 152.5 308.5C151.3 309.3 154.667 311.5 156.5 312.5V316.5C157.167 316.667 158.8 317.2 160 318C161.5 319 160.5 331 160 332C159.6 332.8 164.167 338.667 166.5 341.5L171.5 352.5H177.5V355V357V362L175.5 364.5L179.5 368.5L181.5 371.5L179.5 373.5L174 376.5L175.5 382L177.5 383.5L179.5 387L174 394.5V397L175.5 405.5L171.5 410L169 413.5V417L165.5 426L161.5 430L159.5 432.5L161.5 436L156.5 438L154 440V445C154.333 445.5 155.3 446.7 156.5 447.5C157.7 448.3 157 451.5 156.5 453V459.5L150 467L150.5 474.5L156.5 480V491V496.5L158 502.5L154 510.5L155 513L154 516L150 520.5L150.5 523.5L150 528.5L148.5 535.5L147 541.5L146.5 548.5L139.5 550L132.5 552.5L135.5 558.5L140 566.5L147 563L153.5 560.5L163 558.5L178.5 556H189.5L197 557H201V554L202 550.5L204 552.5L203 556H205L216 554.5L223 556L239 560.5L256 566.5L278 576L287 580L288.5 578L291.5 581.5L326 588.5C329.167 588.667 335.7 589 336.5 589C337.3 589 346.833 584.667 351.5 582.5H359L364 581.5V577.5H362L355.5 576C355 574.333 353.8 570.9 353 570.5C352.2 570.1 356 567.667 358 566.5L349.5 564.5L348 563C347.333 562 345.9 559.9 345.5 559.5C345.1 559.1 347 559.333 348 559.5C349 558.667 351 556.9 351 556.5C351 556 346 553.5 345.5 553.5H351L358 551.5L353 554.5V558.5L354.5 560.5C360.333 557.5 372.1 551.5 372.5 551.5C372.9 551.5 372.667 548.5 372.5 547L374 545.5L372 540.5L375.5 538.5L378 544L380 543L383.5 542L382.5 545.5L375.5 546L376.5 548.5H380L384.5 548L389 546L390 542L392.5 548L391.5 549.5L390 554.5H386.5L384 557.5L388 564.5L397 559.5H404.5H416.5V570.5L413.5 574.5L424 576L426.5 585H431V588.5L434 591L430 593.5L434 597.5L436.5 599.5L442 599L447.5 594L451 595L455 596.5L457 595.5L460.5 591L462.5 597.5V602L466 604L469.5 610V612L473.5 614.5L478 620V623.5V630L473.5 630.5V626.5V620H469.5L466.5 616.5L464.5 612L460.5 614.5L457 621L453 623L455 626.5L460.5 630L466.5 633L476.5 634L480.5 636.5L487 638.5L491 633.5L493 635L495.5 640.5L499.5 638.5L500 635L496.5 636L495.5 633V628H499.5H507.5H511.5C512.167 628.667 513.5 630.1 513.5 630.5C513.5 630.9 516.167 632.333 517.5 633L513.5 638C511.833 638.167 508.3 638.5 507.5 638.5H505.5L502.5 642.5L503.5 644L510 646.5L513.5 644L515.5 640.5C517.167 641.667 520.7 644 521.5 644H529.5L531 638.5L533 644H534.5L533 636.5L538 630.5L542 629.5H545L542 625L546 621C547.333 621.667 550.3 623 551.5 623C552.7 623 553.333 619.333 553.5 617.5L557.5 613L559 617.5L564.5 615.5L565.5 616.5L568.5 620L569.5 628L574 623.5L575 621L573 616L571.5 617.5L565.5 614.5V609L575 614.5L576 620L579 625L583 633L586.5 630.5L587.5 633.5V640.5L589 648.5L591.5 653L602 646.5L609.5 640.5L607 638.5L605.5 638V634V630C605 627.833 603.8 623.4 603 623C602 622.5 602 618.5 602 617.5C602 616.7 601 615.833 600.5 615.5H603C604.167 615.833 606.6 616.5 607 616.5C607.4 616.5 609.5 615.167 610.5 614.5L611 612V602C609.167 601.5 605.4 600.5 605 600.5C604.6 600.5 600.5 599.5 598.5 599C597.833 598.5 596.4 597.3 596 596.5C595.6 595.7 594.833 595.167 594.5 595L592 593.5L590 594L591 591V589L598.5 583.5L596.5 571.5C595.667 570.5 593.9 568.5 593.5 568.5C593.1 568.5 585.667 571.5 582 573V569.5H576.5L575.5 559.5H580L588 554.5L595.5 549.5V548.5C594.167 548.667 591.2 548.9 590 548.5C588.5 548 583 546 582 545.5C581.2 545.1 586.667 542.667 589.5 541.5L596.5 546.5L598.5 549.5L599.5 555L599 559.5L596 562L593.5 564C594 564.833 595.2 566.7 596 567.5C596.8 568.3 598.333 568.5 599 568.5L604 570.5L603 586.5L605 589L611 593L613.5 595L619 599V597.5L623 598C623.833 598.667 625.8 600.1 627 600.5C628.2 600.9 627.833 598.667 627.5 597.5L629.5 595.5L633.5 596.5C634 597.5 635.2 599.6 636 600C636.8 600.4 637.667 598.5 638 597.5V593.5H642.5C643.3 593.5 645.167 593.833 646 594L643.5 595.5L639.5 598V599.5V603L642.5 605.5C643.667 605.667 646.2 605.9 647 605.5C647.8 605.1 650.333 605.333 651.5 605.5L652.5 610L653.5 611.5L660 610L667 610.5L668 611.5L670 614.5L671.5 616.5L674 615.5H676L679.5 618L683 621.5L684 625L683 629V632.5L684.5 636.5L688 643L691.5 645.5L692.5 641L691.5 639.5L692.5 638.5L695 640C695.5 639 696.5 636.9 696.5 636.5C696.5 636 698.5 633 698.5 632.5C698.5 632 700.5 634 701 634C701.5 634 705 635 705.5 635C705.9 635 706.333 634.333 706.5 634L702.5 630L700.5 627H697.5C696.7 627 695.833 629 695.5 630H689V626.5L684 621L687 618.5H690.5L693 620C694.667 621 698.1 623 698.5 623C698.9 623 700 623.667 700.5 624L702.5 621V620L700 618.5L690.5 611.5C689.833 611.667 688.4 612 688 612C687.5 612 685 612.5 684 612.5C683 612.5 682 613 681 612.5C680.2 612.1 676.333 610.667 674.5 610V605V601.5C674.167 600.667 673.5 598.9 673.5 598.5C673.5 598.1 670.167 596.333 668.5 595.5C665.333 594 658.8 591 658 591C657.2 591 657 586 657 583.5L656 582.5C654.167 581.5 650.4 579.4 650 579C649.6 578.6 648.5 578.5 648 578.5L650 577.5L652.5 577H657C658.333 576.667 661.2 576 662 576C662.8 576 661.667 573.667 661 572.5C660.5 571 659.4 567.8 659 567C658.5 566 663.5 569.5 664.5 569.5C665.3 569.5 666.5 570.833 667 571.5L670.5 572L676 572.5H680L675 569.5L665 565L662 560C662.333 559.833 663.1 559.3 663.5 558.5C663.9 557.7 664.667 556.833 665 556.5L667.5 560L668.5 559.5L671.5 557L672 557.5C673.333 558.333 676.1 560 676.5 560C677 560 681.5 561 682.5 561.5C683.3 561.9 684.167 563.333 684.5 564L686.5 567.5L688 565L686.5 563C684.833 561.167 681.4 557.3 681 556.5C680.5 555.5 675 553 674.5 552.5C674.1 552.1 671.333 549.667 670 548.5L670.5 547.5L674.5 550L678 553C679.167 553.5 681.7 554.5 682.5 554.5C683.3 554.5 684.833 555.833 685.5 556.5H689.5L688 554.5L685 551L682.5 549.5H679L678 548.5L679 546H682.5L686.5 548.5C687.333 550 689.1 553 689.5 553H691.5C693.833 553.333 698.7 554 699.5 554C700.3 554 703.833 555.667 705.5 556.5L707.5 554V552L705.5 551L692.5 549.5C693.667 548.667 696.2 546.9 697 546.5C698 546 699.5 543 700.5 541.5C701.3 540.3 700.167 539.333 699.5 539L697 537V533.5L695 533L692.5 533.5L695 537.5L689.5 539C688.833 537.667 687.4 534.7 687 533.5C686.5 532 690 532 690.5 532C690.9 532 694.333 531.333 696 531L693.5 528.5L688 530C687.333 528.667 685.9 525.9 685.5 525.5C685.1 525.1 684.667 525.667 684.5 526L681.5 528L679 527L677 526C678.333 525.833 681.1 525.6 681.5 526C681.9 526.4 682.333 524.5 682.5 523.5C682.167 522.5 681.4 520.4 681 520C680.6 519.6 679.167 519.833 678.5 520H676.5L671.5 522L670 523.5L672 526.5L675 530.5L676.5 537V540L671.5 544L670 546L667.5 545.5L663.5 542.5H661C660.333 542.167 659 541.4 659 541C659 540.5 655 538.5 654.5 538C654 537.5 653 536 652.5 535.5C652.1 535.1 652 533.667 652 533C652.167 532.167 652.6 530.4 653 530C653.4 529.6 652.5 528.833 652 528.5C651.667 529 650.9 530.1 650.5 530.5C650 531 650 529.5 649.5 529.5C649.1 529.5 648.333 530.5 648 531C648 531.667 647.9 533.1 647.5 533.5C647.1 533.9 646.667 533.667 646.5 533.5C646.167 532.833 645.4 531.4 645 531C644.6 530.6 644.167 531.5 644 532L641 530.5C640 530.167 638 529.4 638 529C638 528.5 636 527 636 526.5C636 526.1 636.667 524.333 637 523.5L638 522L640 519C641.167 518.167 643.5 516.4 643.5 516C643.5 515.6 645.833 515.833 647 516C646.833 515.333 646.4 513.9 646 513.5C645.5 513 645.5 512.5 645 512C644.6 511.6 643.833 511.833 643.5 512L643 510L642.5 509L641 508L637.5 507V504V502H636L632.5 505L628.5 509.5L624 513.5L617 517C615.5 517.333 612.2 518 611 518C609.5 518 605.5 519.5 603.5 519.5C601.9 519.5 599.833 518.5 599 518C597.167 517.667 593.3 517 592.5 517C591.7 517 587.833 516.667 586 516.5H583C582.2 516.5 580.667 516.833 580 517L578 516.5L574 514L568 511L566 508V502L567 496.5L568 491.5L570 490.5L574 489L576.5 485.5L579.5 481L586 471.5L591 468L594.5 466.5H600.5L605.5 469L610 471.5L614 474L619.5 478L632.5 485.5C634.833 487.167 639.6 490.5 640 490.5C640.4 490.5 643.167 491.833 644.5 492.5C646.833 494.167 651.7 497.6 652.5 498C653.3 498.4 655.833 499.167 657 499.5L656 503L652.5 506L650 508L649 505L648.5 504L643.5 508.5L644.5 509.5L646.5 511H649H650.5L650 513.5L649 516.5H650.5C651.5 515.833 653.7 514.4 654.5 514C655.5 513.5 658 511.5 658.5 511C658.9 510.6 660.333 506.833 661 505L663.5 502L660 499.5C661 499 663.1 497.9 663.5 497.5C664 497 667 494 667.5 493C668 492 667.5 490 667.5 489C667.5 488 665.5 484.5 664.5 483C663.5 481.5 663 480 663.5 479C663.9 478.2 665 475.667 665.5 474.5C664.5 472.833 662.4 469.4 662 469C661.6 468.6 660.5 466.167 660 465L658 460.5V456.5L652.5 452C650 449.333 644.9 443.9 644.5 443.5C644 443 642 437.5 642 437C642 436.6 641.667 435.167 641.5 434.5C641.5 433.167 641.6 430.3 642 429.5C642.5 428.5 639 426.5 639 426V423C639 422.6 638.667 420.5 638.5 419.5C638.833 418.833 639.6 417.4 640 417C640.5 416.5 641.5 416 641.5 415.5C641.5 415 640 413 640 412.5C640 412.1 641.333 409 642 407.5L643.5 404.5L645.5 403.5V400L646.5 399.5L647 397L646.5 395.5C647 394.667 648.1 392.8 648.5 392C648.9 391.2 649 389.667 649 389L649.5 386L651.5 384L653 380L652.5 377.5H415.5C416.167 377 417.7 375.9 418.5 375.5C419.3 375.1 421.5 372.667 422.5 371.5L421.5 366.5L417.5 361V357.5C417.5 356.5 419.5 353.5 419.5 352.5V347.5C419.5 346.7 416.833 345.167 415.5 344.5L413.5 341L417.5 339H422.5H427L430.5 336V333C430.5 331.5 430.5 331 426 327C424 326.2 424.5 325.667 425 325.5V322.5C425 320.9 424 321.167 423.5 321.5L422.5 318L425 315.5H427L428.5 321.5C429.167 322.167 430.5 323.7 430.5 324.5C430.5 325.5 432.5 324.5 434 323.5C435.5 322.5 434 322.5 435 321.5C436 320.5 434 317.5 434 316.5C434 315.7 431.667 314.167 430.5 313.5V308.5V300.5L432.5 299H436.5C437.5 299 439.5 298 441.5 297C443.5 296 443 295 443.5 294C444 293 442.5 292 441.5 291C440.7 290.2 437.833 291.333 436.5 292L434 291L431.5 289L430.5 286L432.5 284.5H434L436.5 287.5H441.5L444.5 286V283.5L445.5 279L444.5 274L447 270.5L448.5 269H452L457 268.5H461V265.5C461 264.7 456.667 265.833 454.5 266.5H449.5V261.5L451.5 255.5L454.5 253H458.5V257.5L461 258.5L462 255.5C461.667 254.333 461.2 251.9 462 251.5C463 251 465.5 249 466.5 248C467.3 247.2 469.833 244.333 471 243V238.5L474 235.5L478.5 233.5C479.667 233 482.2 231.8 483 231C484 230 483 227.5 483 227C483 226.6 481 225.167 480 224.5H476L474 222L476 220L478.5 221L482 223H484L485 220C486.333 219.333 489.2 217.8 490 217C490.8 216.2 492.333 213.333 493 212L493.5 208L490 205.5H486.5L488 209L486.5 212.5L483 213.5L474 211V203.5L488 197.5L490 198.5L495 202.5L496.5 193.5L498 189.5H502C502.8 189.5 505 186.5 506 185L509.5 178.5L509 178L505 180.5H500C498.8 180.5 496.167 179.5 495 179V174C495.833 171.833 497.6 167.5 498 167.5C498.4 167.5 496.167 165.833 495 165C493.833 166 491.2 167.9 490 167.5C488.8 167.1 487.167 165.667 486.5 165L482 161.5L481 158L483 150.5L485 154L489 158L491.5 160.5L495 159.5L493.5 155.5L485 150.5V148.5L489 145.5L493.5 142.5V138.5C493.167 138.167 492.3 137.5 491.5 137.5C490.7 137.5 489.5 139.833 489 141L485 143.5L480 145.5C479.333 144.667 477.8 142.9 477 142.5C476.2 142.1 476 139 476 137.5C476.667 136.5 478.2 134.3 479 133.5C480 132.5 484 129 485 128C485.8 127.2 486.333 126 486.5 125.5L484 124L476 122C475.5 120.5 474.5 117.3 474.5 116.5V109.5C476.167 108.167 479.8 105.4 481 105C482.2 104.6 484.167 101.5 485 100L486.5 95L484 88.5L481 86L478 87L477 88.5L478 94L476 97.5L473 98.5L470 96.5L468.5 93L470 88.5L472 86L473 83.5Z" fill="#FFD597" stroke="black"/>
<path d="M373 577L367 585L371.5 588.5L379.5 591L387 594C388 594.833 390.3 596.8 391.5 598C392.7 599.2 395.333 597.5 396.5 596.5L400 594V588.5H405V585H401.5L391.5 579L384 575.5L379.5 577L377 579L373 577Z" fill="#FFD597"/>
<path d="M719.5 617.5L713 621.5L714.5 626L721 621.5L719.5 619.5V617.5Z" fill="#FFD597"/>
<path d="M726.5 626L723 623H721L719.5 624.5L717 629.5L721 630.5V637.5L725 632L726.5 626Z" fill="#FFD597"/>
<path d="M729 634L722 639V641.5H724L728 639L729 634Z" fill="#FFD597"/>
<path d="M724 643V646.5V648.5L726 651L729 656L731.5 650.5V645.5L729 640.5L724 643Z" fill="#FFD597"/>
<path d="M654.5 613C654.333 614.167 654 616.7 654 617.5L656 618.5L655.5 619.5H652L649.5 620L648 621.5L652 621H654.5C655.833 621.5 658.7 622.6 659.5 623C660.3 623.4 662.167 620.167 663 618.5L661.5 615L654.5 613Z" fill="#FFD597"/>
<path d="M683.5 512L682 517.5L681.5 519L686 522.5L687.5 520V517C687.833 516.667 688.7 516 689.5 516C690.3 516 689.167 514.667 688.5 514L687.5 514.5L683.5 512Z" fill="#FFD597"/>
<path d="M373 577L367 585L371.5 588.5L379.5 591L387 594C388 594.833 390.3 596.8 391.5 598C392.7 599.2 395.333 597.5 396.5 596.5L400 594V588.5H405V585H401.5L391.5 579L384 575.5L379.5 577L377 579L373 577Z" stroke="black"/>
<path d="M719.5 617.5L713 621.5L714.5 626L721 621.5L719.5 619.5V617.5Z" stroke="black"/>
<path d="M726.5 626L723 623H721L719.5 624.5L717 629.5L721 630.5V637.5L725 632L726.5 626Z" stroke="black"/>
<path d="M729 634L722 639V641.5H724L728 639L729 634Z" stroke="black"/>
<path d="M724 643V646.5V648.5L726 651L729 656L731.5 650.5V645.5L729 640.5L724 643Z" stroke="black"/>
<path d="M654.5 613C654.333 614.167 654 616.7 654 617.5L656 618.5L655.5 619.5H652L649.5 620L648 621.5L652 621H654.5C655.833 621.5 658.7 622.6 659.5 623C660.3 623.4 662.167 620.167 663 618.5L661.5 615L654.5 613Z" stroke="black"/>
<path d="M683.5 512L682 517.5L681.5 519L686 522.5L687.5 520V517C687.833 516.667 688.7 516 689.5 516C690.3 516 689.167 514.667 688.5 514L687.5 514.5L683.5 512Z" stroke="black"/>
</g>
<path d="M284.963 59H281.588L287.733 41.5455H291.636L297.79 59H294.415L289.753 45.125H289.616L284.963 59ZM285.074 52.1562H294.278V54.696H285.074V52.1562ZM300.089 59V41.5455H306.634C307.975 41.5455 309.1 41.7784 310.009 42.2443C310.924 42.7102 311.614 43.3636 312.08 44.2045C312.552 45.0398 312.788 46.0142 312.788 47.1278C312.788 48.2472 312.549 49.2187 312.072 50.0426C311.6 50.8608 310.904 51.4943 309.984 51.9432C309.063 52.3864 307.933 52.608 306.592 52.608H301.93V49.983H306.165C306.95 49.983 307.592 49.875 308.092 49.6591C308.592 49.4375 308.961 49.1165 309.2 48.696C309.444 48.2699 309.566 47.7472 309.566 47.1278C309.566 46.5085 309.444 45.9801 309.2 45.5426C308.955 45.0994 308.583 44.7642 308.083 44.5369C307.583 44.304 306.938 44.1875 306.148 44.1875H303.251V59H300.089ZM309.106 51.0909L313.427 59H309.898L305.654 51.0909H309.106Z" fill="#005A5E"/>
<path d="M507.722 273.545H511.591L516.773 286.193H516.977L522.159 273.545H526.028V291H522.994V279.009H522.832L518.009 290.949H515.741L510.918 278.983H510.756V291H507.722V273.545ZM538.957 278.344C538.878 277.599 538.543 277.02 537.952 276.605C537.366 276.19 536.605 275.983 535.668 275.983C535.009 275.983 534.443 276.082 533.972 276.281C533.5 276.48 533.139 276.75 532.889 277.091C532.639 277.432 532.511 277.821 532.506 278.259C532.506 278.622 532.588 278.937 532.753 279.205C532.923 279.472 533.153 279.699 533.443 279.886C533.733 280.068 534.054 280.222 534.406 280.347C534.759 280.472 535.114 280.577 535.472 280.662L537.108 281.071C537.767 281.224 538.401 281.432 539.009 281.693C539.622 281.955 540.17 282.284 540.653 282.682C541.142 283.08 541.528 283.56 541.812 284.122C542.097 284.685 542.239 285.344 542.239 286.099C542.239 287.122 541.977 288.023 541.455 288.801C540.932 289.574 540.176 290.179 539.188 290.616C538.205 291.048 537.014 291.264 535.616 291.264C534.259 291.264 533.08 291.054 532.08 290.634C531.085 290.213 530.307 289.599 529.744 288.793C529.188 287.986 528.886 287.003 528.841 285.844H531.952C531.997 286.452 532.185 286.957 532.514 287.361C532.844 287.764 533.273 288.065 533.801 288.264C534.335 288.463 534.932 288.562 535.591 288.562C536.278 288.562 536.881 288.46 537.398 288.256C537.92 288.045 538.33 287.756 538.625 287.386C538.92 287.011 539.071 286.574 539.077 286.074C539.071 285.619 538.938 285.244 538.676 284.949C538.415 284.648 538.048 284.398 537.577 284.199C537.111 283.994 536.565 283.812 535.94 283.653L533.955 283.142C532.517 282.773 531.381 282.213 530.545 281.463C529.716 280.707 529.301 279.705 529.301 278.455C529.301 277.426 529.58 276.526 530.136 275.753C530.699 274.98 531.463 274.381 532.429 273.955C533.395 273.523 534.489 273.307 535.71 273.307C536.949 273.307 538.034 273.523 538.966 273.955C539.903 274.381 540.639 274.974 541.173 275.736C541.707 276.491 541.983 277.361 542 278.344H538.957Z" fill="#005A5E"/>
<circle cx="469.511" cy="457.511" r="9.01136" fill="#FF8F87" stroke="black"/>
<path d="M389.58 440V421.818H396.86C398.198 421.818 399.313 422.016 400.207 422.413C401.101 422.81 401.772 423.36 402.222 424.064C402.672 424.763 402.897 425.568 402.897 426.479C402.897 427.189 402.755 427.814 402.471 428.352C402.187 428.885 401.796 429.323 401.299 429.666C400.808 430.004 400.246 430.243 399.612 430.385V430.563C400.305 430.592 400.953 430.788 401.556 431.149C402.166 431.51 402.66 432.016 403.039 432.667C403.418 433.312 403.607 434.081 403.607 434.975C403.607 435.94 403.368 436.801 402.888 437.559C402.415 438.31 401.713 438.905 400.784 439.343C399.855 439.781 398.71 440 397.348 440H389.58ZM393.424 436.857H396.558C397.629 436.857 398.411 436.653 398.902 436.245C399.393 435.83 399.639 435.28 399.639 434.593C399.639 434.09 399.518 433.646 399.275 433.262C399.032 432.877 398.686 432.575 398.236 432.356C397.792 432.137 397.263 432.028 396.647 432.028H393.424V436.857ZM393.424 429.426H396.274C396.801 429.426 397.268 429.335 397.677 429.151C398.091 428.962 398.417 428.696 398.653 428.352C398.896 428.009 399.017 427.598 399.017 427.118C399.017 426.461 398.784 425.932 398.316 425.529C397.854 425.127 397.197 424.925 396.345 424.925H393.424V429.426ZM409.926 440.257C409.056 440.257 408.281 440.107 407.6 439.805C406.919 439.497 406.381 439.044 405.984 438.446C405.594 437.843 405.398 437.091 405.398 436.191C405.398 435.434 405.537 434.798 405.816 434.283C406.094 433.768 406.473 433.353 406.952 433.04C407.431 432.726 407.976 432.489 408.585 432.33C409.201 432.17 409.846 432.057 410.521 431.992C411.314 431.909 411.953 431.832 412.438 431.761C412.924 431.684 413.276 431.572 413.495 431.424C413.714 431.276 413.823 431.057 413.823 430.767V430.714C413.823 430.152 413.646 429.717 413.291 429.409C412.942 429.101 412.444 428.947 411.799 428.947C411.119 428.947 410.577 429.098 410.175 429.4C409.772 429.696 409.506 430.069 409.376 430.518L405.878 430.234C406.055 429.406 406.405 428.69 406.925 428.086C407.446 427.476 408.118 427.009 408.941 426.683C409.769 426.352 410.728 426.186 411.817 426.186C412.575 426.186 413.3 426.275 413.992 426.452C414.69 426.63 415.309 426.905 415.848 427.278C416.392 427.651 416.821 428.13 417.135 428.716C417.449 429.296 417.605 429.992 417.605 430.803V440H414.019V438.109H413.912C413.693 438.535 413.4 438.911 413.033 439.237C412.666 439.556 412.225 439.808 411.71 439.991C411.196 440.169 410.601 440.257 409.926 440.257ZM411.009 437.647C411.565 437.647 412.057 437.538 412.483 437.319C412.909 437.094 413.243 436.792 413.486 436.413C413.729 436.035 413.85 435.605 413.85 435.126V433.679C413.732 433.756 413.569 433.827 413.362 433.892C413.161 433.951 412.933 434.007 412.678 434.061C412.424 434.108 412.169 434.152 411.915 434.194C411.66 434.229 411.429 434.262 411.222 434.292C410.778 434.357 410.391 434.46 410.059 434.602C409.728 434.744 409.47 434.937 409.287 435.179C409.103 435.416 409.012 435.712 409.012 436.067C409.012 436.582 409.198 436.976 409.571 437.248C409.95 437.514 410.429 437.647 411.009 437.647ZM427.793 426.364V429.205H419.581V426.364H427.793ZM421.445 423.097H425.227V435.81C425.227 436.159 425.28 436.431 425.387 436.626C425.493 436.816 425.641 436.949 425.831 437.026C426.026 437.103 426.251 437.141 426.505 437.141C426.683 437.141 426.861 437.127 427.038 437.097C427.216 437.061 427.352 437.035 427.446 437.017L428.041 439.831C427.852 439.891 427.586 439.959 427.242 440.036C426.899 440.118 426.482 440.169 425.991 440.186C425.079 440.222 424.28 440.101 423.593 439.822C422.913 439.544 422.383 439.112 422.004 438.526C421.626 437.94 421.439 437.201 421.445 436.307V423.097ZM436.271 440.266C434.892 440.266 433.699 439.973 432.693 439.387C431.693 438.796 430.921 437.973 430.376 436.919C429.832 435.86 429.559 434.632 429.559 433.235C429.559 431.826 429.832 430.595 430.376 429.542C430.921 428.482 431.693 427.66 432.693 427.074C433.699 426.482 434.892 426.186 436.271 426.186C437.65 426.186 438.84 426.482 439.84 427.074C440.846 427.66 441.621 428.482 442.166 429.542C442.71 430.595 442.983 431.826 442.983 433.235C442.983 434.632 442.71 435.86 442.166 436.919C441.621 437.973 440.846 438.796 439.84 439.387C438.84 439.973 437.65 440.266 436.271 440.266ZM436.289 437.337C436.916 437.337 437.44 437.159 437.86 436.804C438.28 436.443 438.597 435.952 438.81 435.33C439.029 434.709 439.139 434.002 439.139 433.208C439.139 432.415 439.029 431.708 438.81 431.087C438.597 430.465 438.28 429.974 437.86 429.613C437.44 429.252 436.916 429.071 436.289 429.071C435.656 429.071 435.123 429.252 434.691 429.613C434.265 429.974 433.942 430.465 433.723 431.087C433.51 431.708 433.403 432.415 433.403 433.208C433.403 434.002 433.51 434.709 433.723 435.33C433.942 435.952 434.265 436.443 434.691 436.804C435.123 437.159 435.656 437.337 436.289 437.337ZM449.224 432.116V440H445.442V426.364H449.046V428.77H449.206C449.508 427.976 450.014 427.349 450.724 426.887C451.434 426.42 452.296 426.186 453.308 426.186C454.255 426.186 455.08 426.393 455.785 426.808C456.489 427.222 457.036 427.814 457.427 428.583C457.818 429.347 458.013 430.258 458.013 431.317V440H454.231V431.992C454.237 431.158 454.024 430.507 453.592 430.039C453.16 429.566 452.565 429.329 451.807 429.329C451.298 429.329 450.848 429.438 450.458 429.657C450.073 429.876 449.771 430.196 449.552 430.616C449.339 431.03 449.23 431.531 449.224 432.116ZM466.851 440V421.818H474.024C475.397 421.818 476.569 422.064 477.54 422.555C478.516 423.04 479.259 423.73 479.768 424.624C480.283 425.511 480.54 426.556 480.54 427.757C480.54 428.965 480.28 430.004 479.759 430.874C479.238 431.738 478.484 432.401 477.495 432.862C476.513 433.324 475.323 433.555 473.926 433.555H469.123V430.465H473.305C474.039 430.465 474.648 430.365 475.134 430.163C475.619 429.962 475.98 429.66 476.217 429.258C476.46 428.855 476.581 428.355 476.581 427.757C476.581 427.154 476.46 426.645 476.217 426.23C475.98 425.816 475.616 425.502 475.125 425.289C474.64 425.07 474.027 424.961 473.287 424.961H470.695V440H466.851ZM476.67 431.726L481.188 440H476.945L472.524 431.726H476.67ZM489.127 440.266C487.748 440.266 486.556 439.973 485.55 439.387C484.549 438.796 483.777 437.973 483.233 436.919C482.688 435.86 482.416 434.632 482.416 433.235C482.416 431.826 482.688 430.595 483.233 429.542C483.777 428.482 484.549 427.66 485.55 427.074C486.556 426.482 487.748 426.186 489.127 426.186C490.507 426.186 491.696 426.482 492.696 427.074C493.703 427.66 494.478 428.482 495.022 429.542C495.567 430.595 495.839 431.826 495.839 433.235C495.839 434.632 495.567 435.86 495.022 436.919C494.478 437.973 493.703 438.796 492.696 439.387C491.696 439.973 490.507 440.266 489.127 440.266ZM489.145 437.337C489.773 437.337 490.296 437.159 490.717 436.804C491.137 436.443 491.453 435.952 491.667 435.33C491.886 434.709 491.995 434.002 491.995 433.208C491.995 432.415 491.886 431.708 491.667 431.087C491.453 430.465 491.137 429.974 490.717 429.613C490.296 429.252 489.773 429.071 489.145 429.071C488.512 429.071 487.979 429.252 487.547 429.613C487.121 429.974 486.799 430.465 486.58 431.087C486.366 431.708 486.26 432.415 486.26 433.208C486.26 434.002 486.366 434.709 486.58 435.33C486.799 435.952 487.121 436.443 487.547 436.804C487.979 437.159 488.512 437.337 489.145 437.337ZM507.043 434.194V426.364H510.825V440H507.194V437.523H507.052C506.744 438.322 506.232 438.964 505.516 439.45C504.806 439.935 503.939 440.178 502.915 440.178C502.003 440.178 501.201 439.97 500.509 439.556C499.816 439.142 499.275 438.553 498.884 437.789C498.5 437.026 498.304 436.112 498.298 435.046V426.364H502.08V434.371C502.086 435.176 502.302 435.813 502.728 436.28C503.154 436.748 503.726 436.982 504.442 436.982C504.897 436.982 505.324 436.878 505.72 436.671C506.117 436.458 506.436 436.144 506.679 435.73C506.928 435.315 507.049 434.804 507.043 434.194ZM519.994 445.398C518.768 445.398 517.718 445.229 516.842 444.892C515.972 444.56 515.279 444.107 514.764 443.533C514.25 442.959 513.915 442.314 513.761 441.598L517.259 441.127C517.366 441.4 517.534 441.654 517.765 441.891C517.996 442.128 518.301 442.317 518.68 442.459C519.064 442.607 519.532 442.681 520.082 442.681C520.905 442.681 521.583 442.48 522.115 442.077C522.654 441.681 522.923 441.015 522.923 440.08V437.585H522.763C522.598 437.964 522.349 438.322 522.018 438.659C521.686 438.997 521.26 439.272 520.739 439.485C520.218 439.698 519.597 439.805 518.875 439.805C517.851 439.805 516.919 439.568 516.078 439.094C515.244 438.615 514.578 437.884 514.081 436.902C513.59 435.913 513.344 434.664 513.344 433.155C513.344 431.61 513.596 430.32 514.099 429.284C514.602 428.249 515.271 427.473 516.105 426.958C516.945 426.444 517.866 426.186 518.866 426.186C519.63 426.186 520.269 426.316 520.784 426.577C521.299 426.831 521.713 427.151 522.027 427.536C522.346 427.914 522.592 428.287 522.763 428.654H522.905V426.364H526.661V440.133C526.661 441.293 526.377 442.264 525.809 443.045C525.24 443.826 524.453 444.412 523.447 444.803C522.447 445.199 521.296 445.398 519.994 445.398ZM520.073 436.964C520.683 436.964 521.198 436.813 521.618 436.511C522.044 436.203 522.37 435.765 522.595 435.197C522.826 434.623 522.941 433.936 522.941 433.137C522.941 432.338 522.829 431.646 522.604 431.06C522.379 430.468 522.053 430.009 521.627 429.684C521.201 429.358 520.683 429.196 520.073 429.196C519.452 429.196 518.928 429.364 518.502 429.702C518.076 430.033 517.753 430.495 517.534 431.087C517.315 431.679 517.206 432.362 517.206 433.137C517.206 433.925 517.315 434.605 517.534 435.179C517.759 435.748 518.082 436.188 518.502 436.502C518.928 436.81 519.452 436.964 520.073 436.964ZM535.885 440.266C534.482 440.266 533.275 439.982 532.263 439.414C531.257 438.84 530.481 438.029 529.937 436.982C529.392 435.928 529.12 434.682 529.12 433.244C529.12 431.841 529.392 430.61 529.937 429.551C530.481 428.491 531.248 427.666 532.236 427.074C533.23 426.482 534.396 426.186 535.734 426.186C536.634 426.186 537.471 426.331 538.246 426.621C539.028 426.905 539.708 427.334 540.288 427.908C540.874 428.482 541.33 429.205 541.655 430.075C541.981 430.939 542.144 431.951 542.144 433.111V434.15H530.629V431.806H538.584C538.584 431.261 538.465 430.779 538.229 430.359C537.992 429.938 537.663 429.61 537.243 429.373C536.829 429.131 536.347 429.009 535.796 429.009C535.222 429.009 534.713 429.142 534.269 429.409C533.831 429.669 533.488 430.021 533.239 430.465C532.991 430.903 532.863 431.391 532.858 431.93V434.158C532.858 434.833 532.982 435.416 533.23 435.907C533.485 436.399 533.843 436.777 534.305 437.044C534.766 437.31 535.314 437.443 535.947 437.443C536.367 437.443 536.752 437.384 537.101 437.266C537.45 437.147 537.749 436.97 537.998 436.733C538.246 436.496 538.436 436.206 538.566 435.863L542.064 436.094C541.886 436.934 541.522 437.668 540.972 438.295C540.427 438.917 539.723 439.402 538.859 439.751C538.001 440.095 537.009 440.266 535.885 440.266Z" fill="black"/>
<path d="M457.619 522.818V541H455.489L445.581 526.724H445.403V541H443.202V522.818H445.332L455.276 537.129H455.453V522.818H457.619ZM467.458 541.284C466.144 541.284 465.011 540.994 464.058 540.414C463.111 539.828 462.38 539.011 461.865 537.964C461.356 536.91 461.102 535.685 461.102 534.288C461.102 532.892 461.356 531.661 461.865 530.595C462.38 529.524 463.096 528.689 464.014 528.092C464.937 527.488 466.014 527.186 467.245 527.186C467.955 527.186 468.657 527.304 469.349 527.541C470.042 527.778 470.672 528.163 471.24 528.695C471.808 529.222 472.261 529.92 472.598 530.79C472.936 531.661 473.104 532.732 473.104 534.004V534.892H462.593V533.081H470.974C470.974 532.312 470.82 531.625 470.512 531.021C470.21 530.418 469.778 529.941 469.216 529.592C468.66 529.243 468.003 529.068 467.245 529.068C466.411 529.068 465.689 529.275 465.079 529.69C464.475 530.098 464.011 530.631 463.685 531.288C463.36 531.945 463.197 532.649 463.197 533.401V534.608C463.197 535.638 463.374 536.511 463.729 537.227C464.091 537.937 464.591 538.479 465.23 538.852C465.869 539.219 466.612 539.402 467.458 539.402C468.009 539.402 468.506 539.325 468.95 539.171C469.399 539.011 469.787 538.775 470.113 538.461C470.438 538.141 470.69 537.745 470.867 537.271L472.891 537.839C472.678 538.526 472.32 539.13 471.817 539.651C471.314 540.165 470.693 540.568 469.953 540.858C469.213 541.142 468.381 541.284 467.458 541.284ZM479.381 541L475.226 527.364H477.428L480.375 537.804H480.517L483.429 527.364H485.667L488.543 537.768H488.685L491.633 527.364H493.834L489.679 541H487.62L484.637 530.524H484.424L481.441 541H479.381ZM519.26 531.909C519.26 533.827 518.914 535.484 518.222 536.881C517.529 538.277 516.579 539.355 515.372 540.112C514.165 540.87 512.785 541.249 511.235 541.249C509.684 541.249 508.305 540.87 507.098 540.112C505.89 539.355 504.94 538.277 504.248 536.881C503.555 535.484 503.209 533.827 503.209 531.909C503.209 529.991 503.555 528.334 504.248 526.938C504.94 525.541 505.89 524.464 507.098 523.706C508.305 522.948 509.684 522.57 511.235 522.57C512.785 522.57 514.165 522.948 515.372 523.706C516.579 524.464 517.529 525.541 518.222 526.938C518.914 528.334 519.26 529.991 519.26 531.909ZM517.13 531.909C517.13 530.335 516.866 529.006 516.34 527.923C515.819 526.84 515.111 526.02 514.218 525.464C513.33 524.907 512.336 524.629 511.235 524.629C510.134 524.629 509.137 524.907 508.243 525.464C507.355 526.02 506.648 526.84 506.121 527.923C505.6 529.006 505.34 530.335 505.34 531.909C505.34 533.483 505.6 534.812 506.121 535.895C506.648 536.978 507.355 537.798 508.243 538.354C509.137 538.911 510.134 539.189 511.235 539.189C512.336 539.189 513.33 538.911 514.218 538.354C515.111 537.798 515.819 536.978 516.34 535.895C516.866 534.812 517.13 533.483 517.13 531.909ZM522.678 541V527.364H524.703V529.423H524.845C525.093 528.749 525.543 528.201 526.194 527.781C526.845 527.361 527.579 527.151 528.396 527.151C528.55 527.151 528.742 527.154 528.973 527.159C529.204 527.165 529.378 527.174 529.497 527.186V529.317C529.426 529.299 529.263 529.272 529.008 529.237C528.76 529.195 528.496 529.175 528.218 529.175C527.555 529.175 526.963 529.314 526.443 529.592C525.928 529.864 525.519 530.243 525.217 530.728C524.921 531.208 524.774 531.755 524.774 532.371V541H522.678ZM534.075 522.818V541H531.98V522.818H534.075ZM543.63 541.284C542.316 541.284 541.183 540.994 540.23 540.414C539.283 539.828 538.552 539.011 538.037 537.964C537.528 536.91 537.274 535.685 537.274 534.288C537.274 532.892 537.528 531.661 538.037 530.595C538.552 529.524 539.268 528.689 540.185 528.092C541.109 527.488 542.186 527.186 543.417 527.186C544.127 527.186 544.829 527.304 545.521 527.541C546.214 527.778 546.844 528.163 547.412 528.695C547.98 529.222 548.433 529.92 548.77 530.79C549.108 531.661 549.276 532.732 549.276 534.004V534.892H538.765V533.081H547.146C547.146 532.312 546.992 531.625 546.684 531.021C546.382 530.418 545.95 529.941 545.388 529.592C544.832 529.243 544.175 529.068 543.417 529.068C542.582 529.068 541.86 529.275 541.251 529.69C540.647 530.098 540.182 530.631 539.857 531.288C539.531 531.945 539.369 532.649 539.369 533.401V534.608C539.369 535.638 539.546 536.511 539.901 537.227C540.262 537.937 540.763 538.479 541.402 538.852C542.041 539.219 542.784 539.402 543.63 539.402C544.18 539.402 544.678 539.325 545.122 539.171C545.571 539.011 545.959 538.775 546.285 538.461C546.61 538.141 546.862 537.745 547.039 537.271L549.063 537.839C548.85 538.526 548.492 539.13 547.989 539.651C547.486 540.165 546.865 540.568 546.125 540.858C545.385 541.142 544.553 541.284 543.63 541.284ZM556.476 541.32C555.612 541.32 554.828 541.157 554.124 540.831C553.419 540.5 552.86 540.023 552.446 539.402C552.031 538.775 551.824 538.017 551.824 537.129C551.824 536.348 551.978 535.715 552.286 535.229C552.594 534.738 553.005 534.353 553.52 534.075C554.035 533.797 554.603 533.59 555.225 533.454C555.852 533.312 556.482 533.199 557.116 533.116C557.944 533.01 558.616 532.93 559.131 532.877C559.652 532.818 560.03 532.72 560.267 532.584C560.51 532.448 560.631 532.211 560.631 531.874V531.803C560.631 530.927 560.391 530.246 559.912 529.761C559.439 529.275 558.719 529.033 557.755 529.033C556.754 529.033 555.97 529.252 555.402 529.69C554.834 530.128 554.434 530.595 554.204 531.092L552.215 530.382C552.57 529.554 553.044 528.908 553.635 528.447C554.233 527.979 554.884 527.654 555.589 527.47C556.299 527.281 556.997 527.186 557.684 527.186C558.122 527.186 558.625 527.239 559.193 527.346C559.767 527.446 560.32 527.657 560.853 527.976C561.392 528.296 561.839 528.778 562.194 529.423C562.549 530.068 562.726 530.933 562.726 532.016V541H560.631V539.153H560.525C560.383 539.449 560.146 539.766 559.814 540.103C559.483 540.441 559.042 540.728 558.492 540.964C557.941 541.201 557.269 541.32 556.476 541.32ZM556.796 539.438C557.624 539.438 558.323 539.275 558.891 538.949C559.465 538.624 559.897 538.203 560.187 537.689C560.483 537.174 560.631 536.632 560.631 536.064V534.146C560.542 534.253 560.347 534.35 560.045 534.439C559.749 534.522 559.406 534.596 559.015 534.661C558.631 534.72 558.255 534.774 557.888 534.821C557.527 534.862 557.234 534.898 557.009 534.928C556.464 534.999 555.955 535.114 555.482 535.274C555.014 535.428 554.636 535.661 554.346 535.975C554.062 536.283 553.919 536.703 553.919 537.236C553.919 537.964 554.189 538.514 554.727 538.887C555.272 539.254 555.961 539.438 556.796 539.438ZM568.646 532.797V541H566.55V527.364H568.575V529.494H568.752C569.072 528.802 569.557 528.246 570.208 527.825C570.859 527.399 571.7 527.186 572.729 527.186C573.653 527.186 574.461 527.375 575.153 527.754C575.846 528.127 576.384 528.695 576.769 529.459C577.154 530.216 577.346 531.175 577.346 532.335V541H575.251V532.477C575.251 531.406 574.973 530.571 574.416 529.974C573.86 529.37 573.096 529.068 572.126 529.068C571.457 529.068 570.859 529.213 570.332 529.503C569.812 529.793 569.4 530.216 569.098 530.773C568.797 531.329 568.646 532.004 568.646 532.797ZM590.834 530.418L588.951 530.95C588.833 530.637 588.658 530.332 588.428 530.036C588.203 529.734 587.895 529.485 587.504 529.29C587.114 529.095 586.614 528.997 586.004 528.997C585.169 528.997 584.474 529.19 583.918 529.574C583.367 529.953 583.092 530.435 583.092 531.021C583.092 531.542 583.281 531.953 583.66 532.255C584.039 532.557 584.631 532.809 585.436 533.01L587.46 533.507C588.679 533.803 589.588 534.256 590.185 534.865C590.783 535.469 591.082 536.247 591.082 537.2C591.082 537.982 590.857 538.68 590.407 539.295C589.964 539.911 589.342 540.396 588.543 540.751C587.744 541.107 586.815 541.284 585.755 541.284C584.365 541.284 583.213 540.982 582.302 540.379C581.39 539.775 580.813 538.893 580.571 537.733L582.559 537.236C582.749 537.97 583.107 538.52 583.634 538.887C584.166 539.254 584.862 539.438 585.72 539.438C586.696 539.438 587.472 539.23 588.046 538.816C588.626 538.396 588.916 537.893 588.916 537.307C588.916 536.833 588.75 536.437 588.419 536.117C588.087 535.792 587.578 535.549 586.892 535.389L584.619 534.857C583.37 534.561 582.453 534.102 581.867 533.48C581.287 532.853 580.997 532.069 580.997 531.128C580.997 530.358 581.213 529.678 581.645 529.086C582.083 528.494 582.678 528.029 583.429 527.692C584.187 527.355 585.045 527.186 586.004 527.186C587.353 527.186 588.413 527.482 589.182 528.074C589.958 528.666 590.508 529.447 590.834 530.418Z" fill="black"/>
<path d="M267.202 472V453.818H269.403V470.047H277.855V472H267.202ZM284.993 472.32C284.129 472.32 283.345 472.157 282.64 471.831C281.936 471.5 281.377 471.023 280.962 470.402C280.548 469.775 280.341 469.017 280.341 468.129C280.341 467.348 280.495 466.715 280.803 466.229C281.11 465.738 281.522 465.353 282.037 465.075C282.551 464.797 283.12 464.59 283.741 464.454C284.368 464.312 284.999 464.199 285.632 464.116C286.461 464.01 287.132 463.93 287.647 463.877C288.168 463.818 288.547 463.72 288.784 463.584C289.026 463.448 289.148 463.211 289.148 462.874V462.803C289.148 461.927 288.908 461.246 288.429 460.761C287.955 460.275 287.236 460.033 286.271 460.033C285.271 460.033 284.487 460.252 283.919 460.69C283.35 461.128 282.951 461.595 282.72 462.092L280.732 461.382C281.087 460.554 281.56 459.908 282.152 459.447C282.75 458.979 283.401 458.654 284.105 458.47C284.815 458.281 285.514 458.186 286.2 458.186C286.638 458.186 287.141 458.239 287.71 458.346C288.284 458.446 288.837 458.657 289.37 458.976C289.908 459.296 290.355 459.778 290.71 460.423C291.065 461.068 291.243 461.933 291.243 463.016V472H289.148V470.153H289.041C288.899 470.449 288.662 470.766 288.331 471.103C288 471.441 287.559 471.728 287.008 471.964C286.458 472.201 285.786 472.32 284.993 472.32ZM285.312 470.438C286.141 470.438 286.839 470.275 287.408 469.949C287.982 469.624 288.414 469.203 288.704 468.689C289 468.174 289.148 467.632 289.148 467.064V465.146C289.059 465.253 288.864 465.35 288.562 465.439C288.266 465.522 287.923 465.596 287.532 465.661C287.147 465.72 286.771 465.774 286.404 465.821C286.043 465.862 285.75 465.898 285.526 465.928C284.981 465.999 284.472 466.114 283.999 466.274C283.531 466.428 283.152 466.661 282.862 466.975C282.578 467.283 282.436 467.703 282.436 468.236C282.436 468.964 282.705 469.514 283.244 469.887C283.788 470.254 284.478 470.438 285.312 470.438ZM301.139 458.364V460.139H293.789V458.364H301.139ZM295.99 472V456.482C295.99 455.7 296.174 455.049 296.541 454.528C296.908 454.008 297.384 453.617 297.97 453.357C298.556 453.096 299.175 452.966 299.826 452.966C300.34 452.966 300.761 453.007 301.086 453.09C301.412 453.173 301.654 453.25 301.814 453.321L301.21 455.132C301.104 455.097 300.956 455.052 300.767 454.999C300.583 454.946 300.34 454.919 300.039 454.919C299.346 454.919 298.846 455.094 298.538 455.443C298.236 455.792 298.085 456.304 298.085 456.979V472H295.99ZM307.698 472.32C306.834 472.32 306.05 472.157 305.345 471.831C304.641 471.5 304.082 471.023 303.667 470.402C303.253 469.775 303.046 469.017 303.046 468.129C303.046 467.348 303.2 466.715 303.508 466.229C303.815 465.738 304.227 465.353 304.742 465.075C305.257 464.797 305.825 464.59 306.446 464.454C307.074 464.312 307.704 464.199 308.337 464.116C309.166 464.01 309.838 463.93 310.352 463.877C310.873 463.818 311.252 463.72 311.489 463.584C311.731 463.448 311.853 463.211 311.853 462.874V462.803C311.853 461.927 311.613 461.246 311.134 460.761C310.66 460.275 309.941 460.033 308.976 460.033C307.976 460.033 307.192 460.252 306.624 460.69C306.056 461.128 305.656 461.595 305.425 462.092L303.437 461.382C303.792 460.554 304.265 459.908 304.857 459.447C305.455 458.979 306.106 458.654 306.81 458.47C307.52 458.281 308.219 458.186 308.905 458.186C309.343 458.186 309.846 458.239 310.415 458.346C310.989 458.446 311.542 458.657 312.075 458.976C312.613 459.296 313.06 459.778 313.415 460.423C313.77 461.068 313.948 461.933 313.948 463.016V472H311.853V470.153H311.746C311.604 470.449 311.367 470.766 311.036 471.103C310.705 471.441 310.264 471.728 309.713 471.964C309.163 472.201 308.491 472.32 307.698 472.32ZM308.018 470.438C308.846 470.438 309.545 470.275 310.113 469.949C310.687 469.624 311.119 469.203 311.409 468.689C311.705 468.174 311.853 467.632 311.853 467.064V465.146C311.764 465.253 311.569 465.35 311.267 465.439C310.971 465.522 310.628 465.596 310.237 465.661C309.852 465.72 309.477 465.774 309.11 465.821C308.749 465.862 308.456 465.898 308.231 465.928C307.686 465.999 307.177 466.114 306.704 466.274C306.236 466.428 305.857 466.661 305.567 466.975C305.283 467.283 305.141 467.703 305.141 468.236C305.141 468.964 305.41 469.514 305.949 469.887C306.494 470.254 307.183 470.438 308.018 470.438ZM318.633 477.114C318.278 477.114 317.961 477.084 317.683 477.025C317.405 476.972 317.213 476.918 317.106 476.865L317.639 475.018C318.148 475.149 318.598 475.196 318.988 475.161C319.379 475.125 319.725 474.95 320.027 474.637C320.335 474.329 320.616 473.829 320.87 473.136L321.261 472.071L316.218 458.364H318.491L322.255 469.23H322.397L326.162 458.364H328.434L322.646 473.989C322.386 474.693 322.063 475.276 321.678 475.738C321.294 476.205 320.847 476.551 320.338 476.776C319.835 477.001 319.267 477.114 318.633 477.114ZM336.429 472.284C335.115 472.284 333.982 471.994 333.029 471.414C332.082 470.828 331.351 470.011 330.836 468.964C330.327 467.91 330.072 466.685 330.072 465.288C330.072 463.892 330.327 462.661 330.836 461.595C331.351 460.524 332.067 459.689 332.984 459.092C333.908 458.488 334.985 458.186 336.216 458.186C336.926 458.186 337.627 458.304 338.32 458.541C339.012 458.778 339.643 459.163 340.211 459.695C340.779 460.222 341.232 460.92 341.569 461.79C341.907 462.661 342.075 463.732 342.075 465.004V465.892H331.564V464.081H339.945C339.945 463.312 339.791 462.625 339.483 462.021C339.181 461.418 338.749 460.941 338.187 460.592C337.63 460.243 336.973 460.068 336.216 460.068C335.381 460.068 334.659 460.275 334.05 460.69C333.446 461.098 332.981 461.631 332.656 462.288C332.33 462.945 332.168 463.649 332.168 464.401V465.608C332.168 466.638 332.345 467.511 332.7 468.227C333.061 468.937 333.561 469.479 334.201 469.852C334.84 470.219 335.583 470.402 336.429 470.402C336.979 470.402 337.476 470.325 337.92 470.171C338.37 470.011 338.758 469.775 339.083 469.461C339.409 469.141 339.66 468.745 339.838 468.271L341.862 468.839C341.649 469.526 341.291 470.13 340.788 470.651C340.285 471.165 339.663 471.568 338.924 471.858C338.184 472.142 337.352 472.284 336.429 472.284ZM351.193 458.364V460.139H344.126V458.364H351.193ZM346.186 455.097H348.281V468.094C348.281 468.686 348.367 469.129 348.538 469.425C348.716 469.715 348.941 469.911 349.213 470.011C349.491 470.106 349.784 470.153 350.092 470.153C350.323 470.153 350.512 470.142 350.66 470.118C350.808 470.088 350.926 470.065 351.015 470.047L351.441 471.929C351.299 471.982 351.101 472.036 350.847 472.089C350.592 472.148 350.269 472.178 349.879 472.178C349.287 472.178 348.707 472.05 348.139 471.796C347.576 471.541 347.109 471.154 346.736 470.633C346.369 470.112 346.186 469.455 346.186 468.662V455.097ZM360.275 458.364V460.139H353.208V458.364H360.275ZM355.268 455.097H357.363V468.094C357.363 468.686 357.449 469.129 357.62 469.425C357.798 469.715 358.023 469.911 358.295 470.011C358.573 470.106 358.866 470.153 359.174 470.153C359.405 470.153 359.594 470.142 359.742 470.118C359.89 470.088 360.008 470.065 360.097 470.047L360.523 471.929C360.381 471.982 360.183 472.036 359.929 472.089C359.674 472.148 359.351 472.178 358.961 472.178C358.369 472.178 357.789 472.05 357.221 471.796C356.659 471.541 356.191 471.154 355.818 470.633C355.451 470.112 355.268 469.455 355.268 468.662V455.097ZM368.997 472.284C367.683 472.284 366.55 471.994 365.597 471.414C364.65 470.828 363.919 470.011 363.404 468.964C362.895 467.91 362.641 466.685 362.641 465.288C362.641 463.892 362.895 462.661 363.404 461.595C363.919 460.524 364.635 459.689 365.553 459.092C366.476 458.488 367.553 458.186 368.784 458.186C369.494 458.186 370.196 458.304 370.888 458.541C371.581 458.778 372.211 459.163 372.779 459.695C373.347 460.222 373.8 460.92 374.138 461.79C374.475 462.661 374.644 463.732 374.644 465.004V465.892H364.132V464.081H372.513C372.513 463.312 372.359 462.625 372.051 462.021C371.749 461.418 371.317 460.941 370.755 460.592C370.199 460.243 369.542 460.068 368.784 460.068C367.95 460.068 367.228 460.275 366.618 460.69C366.014 461.098 365.55 461.631 365.224 462.288C364.899 462.945 364.736 463.649 364.736 464.401V465.608C364.736 466.638 364.913 467.511 365.269 468.227C365.63 468.937 366.13 469.479 366.769 469.852C367.408 470.219 368.151 470.402 368.997 470.402C369.548 470.402 370.045 470.325 370.489 470.171C370.939 470.011 371.326 469.775 371.652 469.461C371.977 469.141 372.229 468.745 372.406 468.271L374.43 468.839C374.217 469.526 373.859 470.13 373.356 470.651C372.853 471.165 372.232 471.568 371.492 471.858C370.752 472.142 369.921 472.284 368.997 472.284Z" fill="black"/>
<path d="M140.145 173.364C140.038 172.464 139.606 171.766 138.849 171.268C138.091 170.771 137.162 170.523 136.061 170.523C135.256 170.523 134.552 170.653 133.948 170.913C133.35 171.174 132.883 171.532 132.545 171.988C132.214 172.443 132.048 172.961 132.048 173.541C132.048 174.027 132.164 174.444 132.395 174.793C132.631 175.136 132.933 175.423 133.3 175.654C133.667 175.879 134.052 176.065 134.454 176.213C134.857 176.355 135.227 176.471 135.564 176.56L137.411 177.057C137.884 177.181 138.411 177.353 138.991 177.572C139.577 177.791 140.136 178.09 140.669 178.468C141.207 178.841 141.651 179.321 142 179.907C142.35 180.493 142.524 181.212 142.524 182.064C142.524 183.046 142.267 183.934 141.752 184.727C141.243 185.52 140.497 186.151 139.515 186.618C138.538 187.086 137.351 187.32 135.955 187.32C134.652 187.32 133.525 187.109 132.572 186.689C131.625 186.269 130.879 185.683 130.335 184.931C129.796 184.18 129.491 183.307 129.42 182.312H131.693C131.752 182.999 131.983 183.567 132.386 184.017C132.794 184.461 133.309 184.792 133.93 185.011C134.558 185.224 135.232 185.331 135.955 185.331C136.795 185.331 137.55 185.195 138.218 184.923C138.887 184.644 139.417 184.26 139.808 183.768C140.198 183.271 140.393 182.691 140.393 182.028C140.393 181.425 140.225 180.933 139.887 180.555C139.55 180.176 139.106 179.868 138.556 179.631C138.005 179.395 137.411 179.187 136.771 179.01L134.534 178.371C133.114 177.962 131.989 177.379 131.161 176.622C130.332 175.864 129.918 174.873 129.918 173.648C129.918 172.63 130.193 171.742 130.743 170.984C131.3 170.221 132.045 169.629 132.98 169.209C133.922 168.783 134.972 168.57 136.132 168.57C137.304 168.57 138.346 168.78 139.257 169.2C140.169 169.614 140.891 170.182 141.423 170.904C141.962 171.627 142.246 172.446 142.276 173.364H140.145ZM145.86 187V173.364H147.884V175.423H148.026C148.275 174.749 148.725 174.201 149.376 173.781C150.027 173.361 150.761 173.151 151.577 173.151C151.731 173.151 151.924 173.154 152.154 173.159C152.385 173.165 152.56 173.174 152.678 173.186V175.317C152.607 175.299 152.444 175.272 152.19 175.237C151.941 175.195 151.678 175.175 151.4 175.175C150.737 175.175 150.145 175.314 149.624 175.592C149.109 175.864 148.701 176.243 148.399 176.728C148.103 177.208 147.955 177.755 147.955 178.371V187H145.86ZM160.464 187.284C159.15 187.284 158.017 186.994 157.064 186.414C156.117 185.828 155.386 185.011 154.871 183.964C154.362 182.91 154.108 181.685 154.108 180.288C154.108 178.892 154.362 177.661 154.871 176.595C155.386 175.524 156.102 174.689 157.019 174.092C157.943 173.488 159.02 173.186 160.251 173.186C160.961 173.186 161.663 173.304 162.355 173.541C163.047 173.778 163.678 174.163 164.246 174.695C164.814 175.222 165.267 175.92 165.604 176.79C165.942 177.661 166.11 178.732 166.11 180.004V180.892H155.599V179.081H163.98C163.98 178.312 163.826 177.625 163.518 177.021C163.216 176.418 162.784 175.941 162.222 175.592C161.666 175.243 161.009 175.068 160.251 175.068C159.416 175.068 158.694 175.275 158.085 175.69C157.481 176.098 157.016 176.631 156.691 177.288C156.365 177.945 156.203 178.649 156.203 179.401V180.608C156.203 181.638 156.38 182.511 156.735 183.227C157.096 183.937 157.597 184.479 158.236 184.852C158.875 185.219 159.618 185.402 160.464 185.402C161.014 185.402 161.512 185.325 161.956 185.171C162.405 185.011 162.793 184.775 163.119 184.461C163.444 184.141 163.696 183.745 163.873 183.271L165.897 183.839C165.684 184.526 165.326 185.13 164.823 185.651C164.32 186.165 163.699 186.568 162.959 186.858C162.219 187.142 161.387 187.284 160.464 187.284ZM180.033 173.364L174.99 187H172.86L167.817 173.364H170.09L173.854 184.23H173.996L177.76 173.364H180.033ZM188.028 187.284C186.714 187.284 185.58 186.994 184.627 186.414C183.68 185.828 182.949 185.011 182.434 183.964C181.925 182.91 181.671 181.685 181.671 180.288C181.671 178.892 181.925 177.661 182.434 176.595C182.949 175.524 183.666 174.689 184.583 174.092C185.506 173.488 186.583 173.186 187.814 173.186C188.525 173.186 189.226 173.304 189.919 173.541C190.611 173.778 191.241 174.163 191.809 174.695C192.378 175.222 192.83 175.92 193.168 176.79C193.505 177.661 193.674 178.732 193.674 180.004V180.892H183.162V179.081H191.543C191.543 178.312 191.389 177.625 191.081 177.021C190.78 176.418 190.348 175.941 189.785 175.592C189.229 175.243 188.572 175.068 187.814 175.068C186.98 175.068 186.258 175.275 185.648 175.69C185.045 176.098 184.58 176.631 184.254 177.288C183.929 177.945 183.766 178.649 183.766 179.401V180.608C183.766 181.638 183.944 182.511 184.299 183.227C184.66 183.937 185.16 184.479 185.799 184.852C186.438 185.219 187.181 185.402 188.028 185.402C188.578 185.402 189.075 185.325 189.519 185.171C189.969 185.011 190.356 184.775 190.682 184.461C191.008 184.141 191.259 183.745 191.437 183.271L193.461 183.839C193.248 184.526 192.89 185.13 192.387 185.651C191.883 186.165 191.262 186.568 190.522 186.858C189.782 187.142 188.951 187.284 188.028 187.284ZM196.861 187V173.364H198.885V175.423H199.027C199.276 174.749 199.726 174.201 200.377 173.781C201.028 173.361 201.762 173.151 202.578 173.151C202.732 173.151 202.925 173.154 203.155 173.159C203.386 173.165 203.561 173.174 203.679 173.186V175.317C203.608 175.299 203.445 175.272 203.191 175.237C202.942 175.195 202.679 175.175 202.401 175.175C201.738 175.175 201.146 175.314 200.625 175.592C200.11 175.864 199.702 176.243 199.4 176.728C199.104 177.208 198.956 177.755 198.956 178.371V187H196.861ZM206.163 192.114V173.364H208.187V175.53H208.435C208.589 175.293 208.802 174.991 209.075 174.624C209.353 174.251 209.749 173.92 210.264 173.63C210.785 173.334 211.489 173.186 212.377 173.186C213.525 173.186 214.537 173.473 215.413 174.047C216.289 174.621 216.973 175.435 217.464 176.489C217.955 177.542 218.201 178.785 218.201 180.217C218.201 181.661 217.955 182.913 217.464 183.973C216.973 185.026 216.292 185.843 215.422 186.423C214.552 186.997 213.549 187.284 212.413 187.284C211.537 187.284 210.835 187.139 210.309 186.849C209.782 186.553 209.377 186.219 209.092 185.846C208.808 185.467 208.589 185.153 208.435 184.905H208.258V192.114H206.163ZM208.222 180.182C208.222 181.212 208.373 182.12 208.675 182.907C208.977 183.689 209.418 184.301 209.998 184.745C210.578 185.183 211.288 185.402 212.129 185.402C213.005 185.402 213.736 185.171 214.321 184.71C214.913 184.242 215.357 183.615 215.653 182.827C215.955 182.034 216.106 181.152 216.106 180.182C216.106 179.223 215.958 178.359 215.662 177.589C215.372 176.814 214.931 176.202 214.339 175.752C213.753 175.296 213.016 175.068 212.129 175.068C211.276 175.068 210.56 175.284 209.98 175.716C209.4 176.142 208.962 176.74 208.666 177.51C208.37 178.273 208.222 179.164 208.222 180.182ZM226.937 187.284C225.706 187.284 224.626 186.991 223.696 186.405C222.773 185.819 222.051 185 221.53 183.946C221.015 182.893 220.758 181.661 220.758 180.253C220.758 178.832 221.015 177.592 221.53 176.533C222.051 175.474 222.773 174.651 223.696 174.065C224.626 173.479 225.706 173.186 226.937 173.186C228.168 173.186 229.245 173.479 230.168 174.065C231.098 174.651 231.82 175.474 232.335 176.533C232.855 177.592 233.116 178.832 233.116 180.253C233.116 181.661 232.855 182.893 232.335 183.946C231.82 185 231.098 185.819 230.168 186.405C229.245 186.991 228.168 187.284 226.937 187.284ZM226.937 185.402C227.872 185.402 228.641 185.162 229.245 184.683C229.849 184.203 230.296 183.573 230.586 182.792C230.876 182.011 231.021 181.164 231.021 180.253C231.021 179.341 230.876 178.492 230.586 177.705C230.296 176.918 229.849 176.281 229.245 175.796C228.641 175.311 227.872 175.068 226.937 175.068C226.002 175.068 225.232 175.311 224.629 175.796C224.025 176.281 223.578 176.918 223.288 177.705C222.998 178.492 222.853 179.341 222.853 180.253C222.853 181.164 222.998 182.011 223.288 182.792C223.578 183.573 224.025 184.203 224.629 184.683C225.232 185.162 226.002 185.402 226.937 185.402ZM236.314 187V173.364H238.338V175.423H238.48C238.729 174.749 239.179 174.201 239.83 173.781C240.481 173.361 241.215 173.151 242.031 173.151C242.185 173.151 242.378 173.154 242.608 173.159C242.839 173.165 243.014 173.174 243.132 173.186V175.317C243.061 175.299 242.898 175.272 242.644 175.237C242.395 175.195 242.132 175.175 241.854 175.175C241.191 175.175 240.599 175.314 240.078 175.592C239.563 175.864 239.155 176.243 238.853 176.728C238.557 177.208 238.409 177.755 238.409 178.371V187H236.314ZM252.401 173.364V175.139H245.334V173.364H252.401ZM247.394 170.097H249.489V183.094C249.489 183.686 249.575 184.129 249.746 184.425C249.924 184.715 250.149 184.911 250.421 185.011C250.699 185.106 250.992 185.153 251.3 185.153C251.531 185.153 251.72 185.142 251.868 185.118C252.016 185.088 252.134 185.065 252.223 185.047L252.649 186.929C252.507 186.982 252.309 187.036 252.055 187.089C251.8 187.148 251.477 187.178 251.087 187.178C250.495 187.178 249.915 187.05 249.347 186.796C248.785 186.541 248.317 186.154 247.944 185.633C247.577 185.112 247.394 184.455 247.394 183.662V170.097Z" fill="black"/>
<path d="M307.202 117.818H309.83L316.009 132.911H316.222L322.401 117.818H325.028V136H322.969V122.186H322.791L317.109 136H315.121L309.439 122.186H309.261V136H307.202V117.818ZM334.699 136.284C333.468 136.284 332.387 135.991 331.458 135.405C330.535 134.819 329.813 134 329.292 132.946C328.777 131.893 328.52 130.661 328.52 129.253C328.52 127.832 328.777 126.592 329.292 125.533C329.813 124.474 330.535 123.651 331.458 123.065C332.387 122.479 333.468 122.186 334.699 122.186C335.93 122.186 337.007 122.479 337.93 123.065C338.859 123.651 339.581 124.474 340.096 125.533C340.617 126.592 340.878 127.832 340.878 129.253C340.878 130.661 340.617 131.893 340.096 132.946C339.581 134 338.859 134.819 337.93 135.405C337.007 135.991 335.93 136.284 334.699 136.284ZM334.699 134.402C335.634 134.402 336.403 134.162 337.007 133.683C337.611 133.203 338.057 132.573 338.347 131.792C338.637 131.011 338.782 130.164 338.782 129.253C338.782 128.341 338.637 127.492 338.347 126.705C338.057 125.918 337.611 125.281 337.007 124.796C336.403 124.311 335.634 124.068 334.699 124.068C333.763 124.068 332.994 124.311 332.39 124.796C331.787 125.281 331.34 125.918 331.05 126.705C330.76 127.492 330.615 128.341 330.615 129.253C330.615 130.164 330.76 131.011 331.05 131.792C331.34 132.573 331.787 133.203 332.39 133.683C332.994 134.162 333.763 134.402 334.699 134.402ZM346.171 127.797V136H344.076V122.364H346.1V124.494H346.278C346.597 123.802 347.082 123.246 347.733 122.825C348.385 122.399 349.225 122.186 350.255 122.186C351.178 122.186 351.986 122.375 352.678 122.754C353.371 123.127 353.91 123.695 354.294 124.459C354.679 125.216 354.871 126.175 354.871 127.335V136H352.776V127.477C352.776 126.406 352.498 125.571 351.942 124.974C351.385 124.37 350.622 124.068 349.651 124.068C348.982 124.068 348.385 124.213 347.858 124.503C347.337 124.793 346.926 125.216 346.624 125.773C346.322 126.329 346.171 127.004 346.171 127.797ZM358.7 136V122.364H360.724V124.423H360.866C361.115 123.749 361.564 123.201 362.215 122.781C362.867 122.361 363.6 122.151 364.417 122.151C364.571 122.151 364.763 122.154 364.994 122.159C365.225 122.165 365.4 122.174 365.518 122.186V124.317C365.447 124.299 365.284 124.272 365.03 124.237C364.781 124.195 364.518 124.175 364.24 124.175C363.577 124.175 362.985 124.314 362.464 124.592C361.949 124.864 361.541 125.243 361.239 125.728C360.943 126.208 360.795 126.755 360.795 127.371V136H358.7ZM373.126 136.284C371.895 136.284 370.815 135.991 369.886 135.405C368.963 134.819 368.241 134 367.72 132.946C367.205 131.893 366.947 130.661 366.947 129.253C366.947 127.832 367.205 126.592 367.72 125.533C368.241 124.474 368.963 123.651 369.886 123.065C370.815 122.479 371.895 122.186 373.126 122.186C374.357 122.186 375.435 122.479 376.358 123.065C377.287 123.651 378.009 124.474 378.524 125.533C379.045 126.592 379.305 127.832 379.305 129.253C379.305 130.661 379.045 131.893 378.524 132.946C378.009 134 377.287 134.819 376.358 135.405C375.435 135.991 374.357 136.284 373.126 136.284ZM373.126 134.402C374.061 134.402 374.831 134.162 375.435 133.683C376.038 133.203 376.485 132.573 376.775 131.792C377.065 131.011 377.21 130.164 377.21 129.253C377.21 128.341 377.065 127.492 376.775 126.705C376.485 125.918 376.038 125.281 375.435 124.796C374.831 124.311 374.061 124.068 373.126 124.068C372.191 124.068 371.422 124.311 370.818 124.796C370.214 125.281 369.768 125.918 369.478 126.705C369.188 127.492 369.043 128.341 369.043 129.253C369.043 130.164 369.188 131.011 369.478 131.792C369.768 132.573 370.214 133.203 370.818 133.683C371.422 134.162 372.191 134.402 373.126 134.402ZM388.221 136.284C386.907 136.284 385.774 135.994 384.821 135.414C383.874 134.828 383.143 134.011 382.628 132.964C382.119 131.91 381.864 130.685 381.864 129.288C381.864 127.892 382.119 126.661 382.628 125.595C383.143 124.524 383.859 123.689 384.776 123.092C385.7 122.488 386.777 122.186 388.008 122.186C388.718 122.186 389.419 122.304 390.112 122.541C390.804 122.778 391.435 123.163 392.003 123.695C392.571 124.222 393.024 124.92 393.361 125.79C393.699 126.661 393.867 127.732 393.867 129.004V129.892H383.356V128.081H391.737C391.737 127.312 391.583 126.625 391.275 126.021C390.973 125.418 390.541 124.941 389.979 124.592C389.422 124.243 388.765 124.068 388.008 124.068C387.173 124.068 386.451 124.275 385.842 124.69C385.238 125.098 384.773 125.631 384.448 126.288C384.122 126.945 383.96 127.649 383.96 128.401V129.608C383.96 130.638 384.137 131.511 384.492 132.227C384.853 132.937 385.353 133.479 385.993 133.852C386.632 134.219 387.375 134.402 388.221 134.402C388.771 134.402 389.268 134.325 389.712 134.171C390.162 134.011 390.55 133.775 390.875 133.461C391.201 133.141 391.452 132.745 391.63 132.271L393.654 132.839C393.441 133.526 393.083 134.13 392.58 134.651C392.077 135.165 391.455 135.568 390.716 135.858C389.976 136.142 389.144 136.284 388.221 136.284Z" fill="black"/>
<path d="M254.947 316H252.639L259.315 297.818H261.588L268.264 316H265.956L260.523 300.695H260.381L254.947 316ZM255.8 308.898H265.104V310.851H255.8V308.898ZM272.907 297.818V316H270.812V297.818H272.907ZM282.462 316.284C281.148 316.284 280.015 315.994 279.062 315.414C278.115 314.828 277.384 314.011 276.869 312.964C276.36 311.91 276.106 310.685 276.106 309.288C276.106 307.892 276.36 306.661 276.869 305.595C277.384 304.524 278.1 303.689 279.017 303.092C279.941 302.488 281.018 302.186 282.249 302.186C282.959 302.186 283.661 302.304 284.353 302.541C285.046 302.778 285.676 303.163 286.244 303.695C286.812 304.222 287.265 304.92 287.602 305.79C287.94 306.661 288.108 307.732 288.108 309.004V309.892H277.597V308.081H285.978C285.978 307.312 285.824 306.625 285.516 306.021C285.214 305.418 284.782 304.941 284.22 304.592C283.664 304.243 283.007 304.068 282.249 304.068C281.415 304.068 280.692 304.275 280.083 304.69C279.479 305.098 279.015 305.631 278.689 306.288C278.363 306.945 278.201 307.649 278.201 308.401V309.608C278.201 310.638 278.378 311.511 278.733 312.227C279.094 312.937 279.595 313.479 280.234 313.852C280.873 314.219 281.616 314.402 282.462 314.402C283.013 314.402 283.51 314.325 283.954 314.171C284.403 314.011 284.791 313.775 285.117 313.461C285.442 313.141 285.694 312.745 285.871 312.271L287.895 312.839C287.682 313.526 287.324 314.13 286.821 314.651C286.318 315.165 285.697 315.568 284.957 315.858C284.217 316.142 283.385 316.284 282.462 316.284ZM292.492 302.364L295.759 307.939L299.026 302.364H301.441L297.037 309.182L301.441 316H299.026L295.759 310.709L292.492 316H290.077L294.409 309.182L290.077 302.364H292.492ZM308.443 316.32C307.579 316.32 306.795 316.157 306.09 315.831C305.386 315.5 304.827 315.023 304.413 314.402C303.998 313.775 303.791 313.017 303.791 312.129C303.791 311.348 303.945 310.715 304.253 310.229C304.561 309.738 304.972 309.353 305.487 309.075C306.002 308.797 306.57 308.59 307.191 308.454C307.819 308.312 308.449 308.199 309.082 308.116C309.911 308.01 310.583 307.93 311.098 307.877C311.618 307.818 311.997 307.72 312.234 307.584C312.477 307.448 312.598 307.211 312.598 306.874V306.803C312.598 305.927 312.358 305.246 311.879 304.761C311.405 304.275 310.686 304.033 309.722 304.033C308.721 304.033 307.937 304.252 307.369 304.69C306.801 305.128 306.401 305.595 306.17 306.092L304.182 305.382C304.537 304.554 305.01 303.908 305.602 303.447C306.2 302.979 306.851 302.654 307.555 302.47C308.266 302.281 308.964 302.186 309.65 302.186C310.088 302.186 310.592 302.239 311.16 302.346C311.734 302.446 312.287 302.657 312.82 302.976C313.358 303.296 313.805 303.778 314.16 304.423C314.516 305.068 314.693 305.933 314.693 307.016V316H312.598V314.153H312.491C312.349 314.449 312.113 314.766 311.781 315.103C311.45 315.441 311.009 315.728 310.458 315.964C309.908 316.201 309.236 316.32 308.443 316.32ZM308.763 314.438C309.591 314.438 310.29 314.275 310.858 313.949C311.432 313.624 311.864 313.203 312.154 312.689C312.45 312.174 312.598 311.632 312.598 311.064V309.146C312.509 309.253 312.314 309.35 312.012 309.439C311.716 309.522 311.373 309.596 310.982 309.661C310.597 309.72 310.222 309.774 309.855 309.821C309.494 309.862 309.201 309.898 308.976 309.928C308.431 309.999 307.922 310.114 307.449 310.274C306.981 310.428 306.602 310.661 306.312 310.975C306.028 311.283 305.886 311.703 305.886 312.236C305.886 312.964 306.156 313.514 306.694 313.887C307.239 314.254 307.928 314.438 308.763 314.438ZM320.612 307.797V316H318.517V302.364H320.541V304.494H320.719C321.039 303.802 321.524 303.246 322.175 302.825C322.826 302.399 323.666 302.186 324.696 302.186C325.619 302.186 326.427 302.375 327.12 302.754C327.812 303.127 328.351 303.695 328.736 304.459C329.12 305.216 329.313 306.175 329.313 307.335V316H327.218V307.477C327.218 306.406 326.939 305.571 326.383 304.974C325.827 304.37 325.063 304.068 324.093 304.068C323.424 304.068 322.826 304.213 322.299 304.503C321.778 304.793 321.367 305.216 321.065 305.773C320.763 306.329 320.612 307.004 320.612 307.797ZM338.29 316.284C337.154 316.284 336.151 315.997 335.281 315.423C334.411 314.843 333.73 314.026 333.239 312.973C332.748 311.913 332.502 310.661 332.502 309.217C332.502 307.785 332.748 306.542 333.239 305.489C333.73 304.435 334.414 303.621 335.29 303.047C336.166 302.473 337.178 302.186 338.326 302.186C339.214 302.186 339.915 302.334 340.43 302.63C340.951 302.92 341.347 303.251 341.62 303.624C341.898 303.991 342.114 304.293 342.268 304.53H342.445V297.818H344.54V316H342.516V313.905H342.268C342.114 314.153 341.895 314.467 341.611 314.846C341.327 315.219 340.921 315.553 340.394 315.849C339.868 316.139 339.166 316.284 338.29 316.284ZM338.574 314.402C339.415 314.402 340.125 314.183 340.705 313.745C341.285 313.301 341.726 312.689 342.028 311.907C342.33 311.12 342.481 310.212 342.481 309.182C342.481 308.164 342.333 307.273 342.037 306.51C341.741 305.74 341.303 305.142 340.723 304.716C340.143 304.284 339.427 304.068 338.574 304.068C337.687 304.068 336.947 304.296 336.355 304.752C335.769 305.202 335.328 305.814 335.032 306.589C334.742 307.359 334.597 308.223 334.597 309.182C334.597 310.152 334.745 311.034 335.041 311.827C335.343 312.615 335.787 313.242 336.373 313.71C336.965 314.171 337.699 314.402 338.574 314.402ZM348.669 316V302.364H350.693V304.423H350.835C351.083 303.749 351.533 303.201 352.184 302.781C352.835 302.361 353.569 302.151 354.386 302.151C354.54 302.151 354.732 302.154 354.963 302.159C355.194 302.165 355.368 302.174 355.487 302.186V304.317C355.416 304.299 355.253 304.272 354.998 304.237C354.75 304.195 354.487 304.175 354.208 304.175C353.545 304.175 352.954 304.314 352.433 304.592C351.918 304.864 351.509 305.243 351.208 305.728C350.912 306.208 350.764 306.755 350.764 307.371V316H348.669ZM357.97 316V302.364H360.066V316H357.97ZM359.036 300.091C358.627 300.091 358.275 299.952 357.979 299.674C357.689 299.395 357.544 299.061 357.544 298.67C357.544 298.28 357.689 297.945 357.979 297.667C358.275 297.389 358.627 297.25 359.036 297.25C359.444 297.25 359.793 297.389 360.083 297.667C360.379 297.945 360.527 298.28 360.527 298.67C360.527 299.061 360.379 299.395 360.083 299.674C359.793 299.952 359.444 300.091 359.036 300.091ZM367.916 316.32C367.052 316.32 366.267 316.157 365.563 315.831C364.859 315.5 364.3 315.023 363.885 314.402C363.471 313.775 363.264 313.017 363.264 312.129C363.264 311.348 363.418 310.715 363.725 310.229C364.033 309.738 364.445 309.353 364.959 309.075C365.474 308.797 366.043 308.59 366.664 308.454C367.291 308.312 367.922 308.199 368.555 308.116C369.384 308.01 370.055 307.93 370.57 307.877C371.091 307.818 371.47 307.72 371.707 307.584C371.949 307.448 372.071 307.211 372.071 306.874V306.803C372.071 305.927 371.831 305.246 371.351 304.761C370.878 304.275 370.159 304.033 369.194 304.033C368.194 304.033 367.41 304.252 366.842 304.69C366.273 305.128 365.874 305.595 365.643 306.092L363.654 305.382C364.009 304.554 364.483 303.908 365.075 303.447C365.673 302.979 366.324 302.654 367.028 302.47C367.738 302.281 368.437 302.186 369.123 302.186C369.561 302.186 370.064 302.239 370.632 302.346C371.206 302.446 371.76 302.657 372.293 302.976C372.831 303.296 373.278 303.778 373.633 304.423C373.988 305.068 374.166 305.933 374.166 307.016V316H372.071V314.153H371.964C371.822 314.449 371.585 314.766 371.254 315.103C370.922 315.441 370.481 315.728 369.931 315.964C369.381 316.201 368.709 316.32 367.916 316.32ZM368.235 314.438C369.064 314.438 369.762 314.275 370.331 313.949C370.905 313.624 371.337 313.203 371.627 312.689C371.923 312.174 372.071 311.632 372.071 311.064V309.146C371.982 309.253 371.786 309.35 371.485 309.439C371.189 309.522 370.845 309.596 370.455 309.661C370.07 309.72 369.694 309.774 369.327 309.821C368.966 309.862 368.673 309.898 368.448 309.928C367.904 309.999 367.395 310.114 366.921 310.274C366.454 310.428 366.075 310.661 365.785 310.975C365.501 311.283 365.359 311.703 365.359 312.236C365.359 312.964 365.628 313.514 366.167 313.887C366.711 314.254 367.401 314.438 368.235 314.438Z" fill="black"/>
<path d="M167.202 525V506.818H169.403V523.047H177.855V525H167.202ZM184.993 525.32C184.129 525.32 183.345 525.157 182.64 524.831C181.936 524.5 181.377 524.023 180.962 523.402C180.548 522.775 180.341 522.017 180.341 521.129C180.341 520.348 180.495 519.715 180.803 519.229C181.11 518.738 181.522 518.353 182.037 518.075C182.551 517.797 183.12 517.59 183.741 517.454C184.368 517.312 184.999 517.199 185.632 517.116C186.461 517.01 187.132 516.93 187.647 516.877C188.168 516.818 188.547 516.72 188.784 516.584C189.026 516.448 189.148 516.211 189.148 515.874V515.803C189.148 514.927 188.908 514.246 188.429 513.761C187.955 513.275 187.236 513.033 186.271 513.033C185.271 513.033 184.487 513.252 183.919 513.69C183.35 514.128 182.951 514.595 182.72 515.092L180.732 514.382C181.087 513.554 181.56 512.908 182.152 512.447C182.75 511.979 183.401 511.654 184.105 511.47C184.815 511.281 185.514 511.186 186.2 511.186C186.638 511.186 187.141 511.239 187.71 511.346C188.284 511.446 188.837 511.657 189.37 511.976C189.908 512.296 190.355 512.778 190.71 513.423C191.065 514.068 191.243 514.933 191.243 516.016V525H189.148V523.153H189.041C188.899 523.449 188.662 523.766 188.331 524.103C188 524.441 187.559 524.728 187.008 524.964C186.458 525.201 185.786 525.32 184.993 525.32ZM185.312 523.438C186.141 523.438 186.839 523.275 187.408 522.949C187.982 522.624 188.414 522.203 188.704 521.689C189 521.174 189.148 520.632 189.148 520.064V518.146C189.059 518.253 188.864 518.35 188.562 518.439C188.266 518.522 187.923 518.596 187.532 518.661C187.147 518.72 186.771 518.774 186.404 518.821C186.043 518.862 185.75 518.898 185.526 518.928C184.981 518.999 184.472 519.114 183.999 519.274C183.531 519.428 183.152 519.661 182.862 519.975C182.578 520.283 182.436 520.703 182.436 521.236C182.436 521.964 182.705 522.514 183.244 522.887C183.788 523.254 184.478 523.438 185.312 523.438ZM197.02 520.028L196.985 517.436H197.411L203.377 511.364H205.969L199.612 517.791H199.435L197.02 520.028ZM195.067 525V506.818H197.162V525H195.067ZM203.732 525L198.405 518.253L199.897 516.797L206.395 525H203.732ZM213.821 525.284C212.508 525.284 211.374 524.994 210.421 524.414C209.474 523.828 208.743 523.011 208.228 521.964C207.719 520.91 207.465 519.685 207.465 518.288C207.465 516.892 207.719 515.661 208.228 514.595C208.743 513.524 209.459 512.689 210.377 512.092C211.3 511.488 212.377 511.186 213.608 511.186C214.319 511.186 215.02 511.304 215.712 511.541C216.405 511.778 217.035 512.163 217.603 512.695C218.172 513.222 218.624 513.92 218.962 514.79C219.299 515.661 219.468 516.732 219.468 518.004V518.892H208.956V517.081H217.337C217.337 516.312 217.183 515.625 216.875 515.021C216.574 514.418 216.142 513.941 215.579 513.592C215.023 513.243 214.366 513.068 213.608 513.068C212.774 513.068 212.052 513.275 211.442 513.69C210.839 514.098 210.374 514.631 210.048 515.288C209.723 515.945 209.56 516.649 209.56 517.401V518.608C209.56 519.638 209.738 520.511 210.093 521.227C210.454 521.937 210.954 522.479 211.593 522.852C212.232 523.219 212.975 523.402 213.821 523.402C214.372 523.402 214.869 523.325 215.313 523.171C215.763 523.011 216.15 522.775 216.476 522.461C216.801 522.141 217.053 521.745 217.231 521.271L219.255 521.839C219.042 522.526 218.684 523.13 218.18 523.651C217.677 524.165 217.056 524.568 216.316 524.858C215.576 525.142 214.745 525.284 213.821 525.284ZM244.601 512.5H242.399C242.269 511.867 242.041 511.31 241.716 510.831C241.396 510.352 241.005 509.949 240.544 509.624C240.088 509.292 239.582 509.044 239.026 508.878C238.469 508.712 237.889 508.629 237.286 508.629C236.185 508.629 235.187 508.907 234.294 509.464C233.406 510.02 232.699 510.84 232.172 511.923C231.651 513.006 231.391 514.335 231.391 515.909C231.391 517.483 231.651 518.812 232.172 519.895C232.699 520.978 233.406 521.798 234.294 522.354C235.187 522.911 236.185 523.189 237.286 523.189C237.889 523.189 238.469 523.106 239.026 522.94C239.582 522.775 240.088 522.529 240.544 522.203C241.005 521.872 241.396 521.467 241.716 520.987C242.041 520.502 242.269 519.946 242.399 519.318H244.601C244.435 520.247 244.133 521.079 243.695 521.813C243.257 522.547 242.713 523.171 242.062 523.686C241.411 524.195 240.68 524.583 239.869 524.849C239.064 525.115 238.203 525.249 237.286 525.249C235.735 525.249 234.356 524.87 233.149 524.112C231.941 523.355 230.991 522.277 230.299 520.881C229.606 519.484 229.26 517.827 229.26 515.909C229.26 513.991 229.606 512.334 230.299 510.938C230.991 509.541 231.941 508.464 233.149 507.706C234.356 506.948 235.735 506.57 237.286 506.57C238.203 506.57 239.064 506.703 239.869 506.969C240.68 507.235 241.411 507.626 242.062 508.141C242.713 508.65 243.257 509.271 243.695 510.005C244.133 510.733 244.435 511.565 244.601 512.5ZM249.97 516.797V525H247.875V506.818H249.97V513.494H250.147C250.467 512.79 250.946 512.231 251.586 511.816C252.231 511.396 253.089 511.186 254.16 511.186C255.089 511.186 255.903 511.373 256.602 511.745C257.3 512.112 257.842 512.678 258.226 513.441C258.617 514.199 258.812 515.163 258.812 516.335V525H256.717V516.477C256.717 515.394 256.436 514.557 255.874 513.965C255.317 513.367 254.545 513.068 253.556 513.068C252.87 513.068 252.254 513.213 251.71 513.503C251.171 513.793 250.745 514.216 250.431 514.773C250.124 515.329 249.97 516.004 249.97 516.797ZM266.658 525.32C265.794 525.32 265.01 525.157 264.305 524.831C263.601 524.5 263.042 524.023 262.627 523.402C262.213 522.775 262.006 522.017 262.006 521.129C262.006 520.348 262.16 519.715 262.468 519.229C262.775 518.738 263.187 518.353 263.702 518.075C264.217 517.797 264.785 517.59 265.406 517.454C266.034 517.312 266.664 517.199 267.297 517.116C268.126 517.01 268.797 516.93 269.312 516.877C269.833 516.818 270.212 516.72 270.449 516.584C270.691 516.448 270.813 516.211 270.813 515.874V515.803C270.813 514.927 270.573 514.246 270.094 513.761C269.62 513.275 268.901 513.033 267.936 513.033C266.936 513.033 266.152 513.252 265.584 513.69C265.016 514.128 264.616 514.595 264.385 515.092L262.397 514.382C262.752 513.554 263.225 512.908 263.817 512.447C264.415 511.979 265.066 511.654 265.77 511.47C266.48 511.281 267.179 511.186 267.865 511.186C268.303 511.186 268.806 511.239 269.375 511.346C269.949 511.446 270.502 511.657 271.035 511.976C271.573 512.296 272.02 512.778 272.375 513.423C272.73 514.068 272.908 514.933 272.908 516.016V525H270.813V523.153H270.706C270.564 523.449 270.327 523.766 269.996 524.103C269.665 524.441 269.224 524.728 268.673 524.964C268.123 525.201 267.451 525.32 266.658 525.32ZM266.978 523.438C267.806 523.438 268.505 523.275 269.073 522.949C269.647 522.624 270.079 522.203 270.369 521.689C270.665 521.174 270.813 520.632 270.813 520.064V518.146C270.724 518.253 270.529 518.35 270.227 518.439C269.931 518.522 269.588 518.596 269.197 518.661C268.812 518.72 268.436 518.774 268.07 518.821C267.708 518.862 267.416 518.898 267.191 518.928C266.646 518.999 266.137 519.114 265.664 519.274C265.196 519.428 264.817 519.661 264.527 519.975C264.243 520.283 264.101 520.703 264.101 521.236C264.101 521.964 264.37 522.514 264.909 522.887C265.454 523.254 266.143 523.438 266.978 523.438ZM276.732 525V511.364H278.756V513.423H278.898C279.147 512.749 279.597 512.201 280.248 511.781C280.899 511.361 281.633 511.151 282.449 511.151C282.603 511.151 282.796 511.154 283.026 511.159C283.257 511.165 283.432 511.174 283.55 511.186V513.317C283.479 513.299 283.316 513.272 283.062 513.237C282.813 513.195 282.55 513.175 282.272 513.175C281.609 513.175 281.017 513.314 280.496 513.592C279.981 513.864 279.573 514.243 279.271 514.728C278.975 515.208 278.827 515.755 278.827 516.371V525H276.732ZM288.129 506.818V525H286.034V506.818H288.129ZM297.684 525.284C296.37 525.284 295.236 524.994 294.284 524.414C293.337 523.828 292.606 523.011 292.091 521.964C291.582 520.91 291.327 519.685 291.327 518.288C291.327 516.892 291.582 515.661 292.091 514.595C292.606 513.524 293.322 512.689 294.239 512.092C295.162 511.488 296.24 511.186 297.471 511.186C298.181 511.186 298.882 511.304 299.575 511.541C300.267 511.778 300.898 512.163 301.466 512.695C302.034 513.222 302.487 513.92 302.824 514.79C303.161 515.661 303.33 516.732 303.33 518.004V518.892H292.819V517.081H301.199C301.199 516.312 301.046 515.625 300.738 515.021C300.436 514.418 300.004 513.941 299.442 513.592C298.885 513.243 298.228 513.068 297.471 513.068C296.636 513.068 295.914 513.275 295.305 513.69C294.701 514.098 294.236 514.631 293.911 515.288C293.585 515.945 293.422 516.649 293.422 517.401V518.608C293.422 519.638 293.6 520.511 293.955 521.227C294.316 521.937 294.816 522.479 295.455 522.852C296.095 523.219 296.837 523.402 297.684 523.402C298.234 523.402 298.731 523.325 299.175 523.171C299.625 523.011 300.013 522.775 300.338 522.461C300.664 522.141 300.915 521.745 301.093 521.271L303.117 521.839C302.904 522.526 302.546 523.13 302.043 523.651C301.54 524.165 300.918 524.568 300.178 524.858C299.439 525.142 298.607 525.284 297.684 525.284ZM316.176 514.418L314.294 514.95C314.176 514.637 314.001 514.332 313.77 514.036C313.546 513.734 313.238 513.485 312.847 513.29C312.456 513.095 311.956 512.997 311.347 512.997C310.512 512.997 309.817 513.19 309.26 513.574C308.71 513.953 308.435 514.435 308.435 515.021C308.435 515.542 308.624 515.953 309.003 516.255C309.382 516.557 309.974 516.809 310.779 517.01L312.803 517.507C314.022 517.803 314.93 518.256 315.528 518.865C316.126 519.469 316.425 520.247 316.425 521.2C316.425 521.982 316.2 522.68 315.75 523.295C315.306 523.911 314.685 524.396 313.886 524.751C313.087 525.107 312.158 525.284 311.098 525.284C309.707 525.284 308.556 524.982 307.645 524.379C306.733 523.775 306.156 522.893 305.914 521.733L307.902 521.236C308.092 521.97 308.45 522.52 308.976 522.887C309.509 523.254 310.204 523.438 311.063 523.438C312.039 523.438 312.815 523.23 313.389 522.816C313.969 522.396 314.259 521.893 314.259 521.307C314.259 520.833 314.093 520.437 313.762 520.117C313.43 519.792 312.921 519.549 312.235 519.389L309.962 518.857C308.713 518.561 307.796 518.102 307.21 517.48C306.63 516.853 306.34 516.069 306.34 515.128C306.34 514.358 306.556 513.678 306.988 513.086C307.426 512.494 308.021 512.029 308.772 511.692C309.53 511.355 310.388 511.186 311.347 511.186C312.696 511.186 313.756 511.482 314.525 512.074C315.3 512.666 315.851 513.447 316.176 514.418Z" fill="black"/>
<circle cx="606.511" cy="526.511" r="9.01136" fill="#FFE587" stroke="black"/>
<circle cx="366.511" cy="489.511" r="9.01136" fill="#FFE587" stroke="black"/>
<circle cx="150.511" cy="153.511" r="9.01136" fill="#FFE587" stroke="black"/>
<circle cx="352.511" cy="157.511" r="9.01136" fill="#FFE587" stroke="black"/>
<circle cx="313.511" cy="333.511" r="9.01136" fill="#FFE587" stroke="black"/>
<circle cx="218.511" cy="489.511" r="9.01136" fill="#FFE587" stroke="black"/>
<path d="M56.9545 332.196V329.545H70.8807V332.196H65.4858V347H62.3494V332.196H56.9545ZM76.2074 329.545L80.0511 335.938H80.1875L84.0483 329.545H87.6534L82.2756 338.273L87.7386 347H84.0739L80.1875 340.651H80.0511L76.1648 347H72.517L78.0312 338.273L72.5852 329.545H76.2074Z" fill="#005A5E"/>
<defs>
<filter id="filter0_d_159_317" x="110.498" y="80.4966" width="625.502" height="584.577" filterUnits="userSpaceOnUse" color-interpolation-filters="sRGB">
<feFlood flood-opacity="0" result="BackgroundImageFix"/>
<feColorMatrix in="SourceAlpha" type="matrix" values="0 0 0 0 0 0 0 0 0 0 0 0 0 0 0 0 0 0 127 0" result="hardAlpha"/>
<feOffset dy="4"/>
<feGaussianBlur stdDeviation="2"/>
<feComposite in2="hardAlpha" operator="out"/>
<feColorMatrix type="matrix" values="0 0 0 0 0 0 0 0 0 0 0 0 0 0 0 0 0 0 0.25 0"/>
<feBlend mode="normal" in2="BackgroundImageFix" result="effect1_dropShadow_159_317"/>
<feBlend mode="normal" in="SourceGraphic" in2="effect1_dropShadow_159_317" result="shape"/>
</filter>
</defs>
</svg>
