<svg width="965" height="623" viewBox="0 0 965 623" fill="none" xmlns="http://www.w3.org/2000/svg">
<rect x="0.5" y="0.5" width="963.947" height="622" rx="35.5" fill="#97DCFF" stroke="#717171"/>
<g filter="url(#filter0_d_91_294)">
<path d="M792.202 412.624H904.638L901.125 417.48V420.408L903.467 423.921L902.296 426.263L897.612 425.678L893.513 423.921L895.855 426.263L897.612 428.605L898.197 430.947L895.855 435.046L894.099 436.803L897.612 437.974L901.125 435.046L902.296 436.803L903.467 442.072L895.27 453.197L894.099 460.224L889.414 464.908L886.487 465.493L884.145 469.007L884.73 460.224L881.802 461.395L876.533 464.908L875.947 470.178L874.191 471.349L872.434 477.204V481.888L869.506 484.23L867.164 488.329L866.579 495.941H861.309L860.138 499.454L856.625 500.039L854.868 502.382L856.039 504.138L856.625 506.48L855.454 511.164L851.941 511.75V515.263L805.099 521.118L800.414 528.145H793.974L787.533 522.875L786.362 525.217V528.145L776.993 526.388L773.48 528.73L769.381 529.901L769.967 533.414L764.697 536.928L762.941 533.414V525.217L760.599 524.046H755.329L760.013 517.02L761.77 511.75L765.868 513.507L772.309 507.651L777.579 502.382L778.164 499.454V496.526L774.651 499.454V502.382L771.183 504.724L769.381 502.967L764.697 502.382L762.941 498.868V495.941L764.112 494.77L766.979 493.013V490.671L768.21 488.914L772.309 488.329L775.822 489.5L778.164 488.329L779.335 486.572H775.822L772.309 484.816L761.77 486.572L757.085 483.645L757.671 481.303L757.085 478.96H754.743L751.816 485.401L748.302 489.5L744.204 488.914L744.789 483.059L747.717 480.717L746.546 477.204L748.888 474.862L755.914 472.52H761.77L769.381 465.493L763.526 464.322L767.039 460.809H770.552L771.138 459.053H767.039L761.77 461.98L758.842 460.809L758.256 463.737L755.914 466.079L752.987 460.809L751.816 457.296L754.743 452.612L753.572 449.684L760.599 438.559L764.697 434.46L761.77 430.362L760.599 436.217L753.572 438.559L747.717 446.757V452.612L745.96 459.053L744.204 463.151L739.52 456.125L734.835 446.757L743.033 443.243V438.559L741.276 433.875L736.006 430.362L734.25 432.118L731.908 442.038L727.224 446.757L730.151 452.612L728.395 455.539L727.224 466.079L723.71 463.737L720.783 457.296L721.954 454.368L716.684 452.612L707.316 442.038L695.02 427.434L691.506 437.836L686.237 430.362L683.895 418.066L680.381 413.382L675.697 408.697L676.868 403.428L682.724 401.085L682.904 406.355H685.066L690.921 395.23H702.046L699.704 392.888L697.947 389.96L702.046 387.618L695.02 384.691V389.96L691.506 389.375L690.921 382.934L689.164 389.375H687.107L686.237 384.691L685.066 387.618L680.381 384.105L685.066 382.934L686.822 378.25L688.579 375.908V373.566L690.921 372.395L692.677 371.809V376.493H698.533L699.704 374.737H701.46L702.046 373.566H705.559L706.145 379.421L707.316 380.592L708.487 378.25L709.658 377.079L710.829 376.493L712.585 379.421L713.756 382.349L715.513 383.52L716.684 384.691L717.27 382.349L718.441 380.592L720.783 381.178L721.954 382.349L725.467 385.862H733.664L740.105 382.349V379.421L741.862 376.493L745.375 375.322L741.276 374.737L741.862 371.224L744.204 368.882V364.783L739.52 368.882V375.322L731.908 382.349H730.151V379.421L727.224 378.25L721.954 375.908L718.441 372.395L717.27 372.98L716.099 373.566V370.053L714.927 368.882V370.638H713.171L707.901 367.125V364.783L704.388 360.684L706.145 355.414H711.414V350.73L708.487 352.487H704.388L699.118 360.684L696.191 355.414L697.947 353.658L693.263 350.145L693.849 345.46L700.289 346.632L695.515 343.118V338.434H692.677L689.164 336.678L691.506 341.947L687.107 343.118L689.164 346.632L681.552 348.388L680.381 340.191L683.895 337.263L680.381 336.678H678.7V347.217L675.697 350.73V356.585L673.355 357.757L673.941 343.118L680.381 322.625H686.237L691.506 327.309L695.515 326.138V333.164L702.631 340.191H706.145V336.678L700.875 331.993L706.145 327.309L704.974 324.967L700.289 327.309V319.697L702.631 317.355L707.316 315.599V312.671H702.631L699.118 306.816V298.033L696.191 293.349L690.335 291.592L689.164 294.52V299.789L687.107 301.546L683.309 297.447L681.552 300.375L682.138 305.059L679.21 299.789L678.7 296.276L677.454 302.717L673.941 306.816V310.914L674.526 315.599L668.085 319.697L666.914 318.526L668.671 313.257L668.085 297.447L671.013 291.592L673.941 289.25L673.355 285.151L677.454 281.638L679.21 274.612L682.138 281.053L685.066 286.322L690.921 289.25L696.191 291.592L704.974 284.566H707.316L704.388 276.954V272.855H710.243L707.316 268.757L708.487 264.658L714.342 265.829L716.099 264.072L710.243 260.559H714.927L717.27 255.875L724.296 250.605L721.954 250.02L717.27 252.947L714.927 255.875L712.585 255.289L706.145 260.559L704.974 259.974L706.145 254.118L709.072 251.191L704.974 250.605L704.388 254.118L700.875 259.974L699.118 264.072L697.362 271.684L699.118 276.368L697.947 281.638L691.506 276.368L693.849 262.316L690.921 254.118V248.263L688.579 245.921L687.107 248.263L685.066 243.579L696.191 219.572L703.802 210.927L702.046 206.691L705.559 203.178H712V197.322L716.099 194.98L723.71 193.809L730.737 196.151H734.25L737.177 194.98L740.105 196.151L744.204 194.98L746.546 198.493L748.302 196.151L747.131 190.296L744.204 192.638L737.177 191.467L728.98 190.296L730.737 185.612L736.592 182.684L741.862 174.487L748.302 169.217L750.645 171.559L754.158 169.217L762.355 174.487L763.526 173.316L760.599 171.559L755.329 166.875L750.645 165.118L754.158 162.776L760.013 160.434L759.427 156.335L764.697 149.895L765.868 143.454H763.526L762.355 147.897L756.5 158.678L754.158 159.849L752.401 158.678L749.474 159.849L748.302 162.776L746.546 165.118L737.177 173.316V170.388L740.105 156.335L743.033 155.164V147.897L746.546 142.283L744.204 141.112L741.862 145.796L738.349 149.895L735.421 152.237H723.71L719.026 156.335L713.756 165.118L720.783 170.388L719.026 175.658L710.829 185.026H706.73L702.631 192.638L693.849 199.664L689.75 194.98L692.092 185.026L695.02 179.171L692.092 178L695.02 171.559L689.75 175.658V178L688.579 185.026H685.066L687.107 189.71L684.48 194.98L687.107 197.322L688.579 203.178L684.48 210.927H673.355H662.816L661.059 212.546L662.816 217.816L668.671 220.743V224.256L659.888 228.355L655.789 235.381H653.447V231.283L651.105 234.21H645.07V228.355L636.467 225.428L630.612 228.355V231.283L637.638 233.039L639.98 242.408L649.349 245.921L657.546 251.191V259.388L649.349 264.072H645.07L639.98 262.316L642.908 266.414L655.789 269.928L661.059 276.954L663.987 281.638L661.059 286.322H651.105L647.006 283.395V287.493L653.477 291.592L651.691 301.546L647.006 299.169H639.98L645.07 308.572L638.224 317.355C639.625 324.359 645.07 315.165 645.07 318.526C645.07 321.888 647.112 321.477 642.908 328.48L632.368 338.434L634.125 346.632L638.224 347.217V353.658L640.866 374.151V391.614L642.322 400.5L648.763 409.868L665.158 429.191L664.572 433.875L658.131 444.414L648.177 441.487L648.763 436.217L645.25 430.362L644.664 428.605L645.25 427.434H647.006V422.164L647.592 419.822C644.664 420.993 645.835 418.803 645.835 422.164C645.835 425.526 647.467 426.263 644.664 426.263L643.493 427.434H641.737L641.151 425.678L639.395 422.75L638.224 423.335H635.881L635.296 420.993L631.783 420.408L627.099 418.066L625.342 416.826V413.967L626.513 412.21V406.355H625.342V409.868L624.171 411.039V413.967L622.414 411.625L618.316 409.283L614.217 402.842V398.743L615.388 394.645L613.631 391.614L614.217 389.375L615.388 388.204L614.217 387.033L612.46 386.447V380.592L613.631 377.664L611.289 374.737L609.533 381.763L610.704 385.276V394.645L611.289 398.743L607.191 402.257L611.875 402.842L613.631 406.355V409.283L615.388 413.382L619.487 418.066L625.927 425.23L632.954 427.434L637.638 430.362L642.322 434.46L641.151 437.388L642.322 441.487L644.079 440.901L651.105 449.684L658.131 447.928L663.401 446.757L666.914 449.099L662.23 457.296L664.572 467.25L676.283 484.816V488.329L673.941 491.257L673.355 490.085L671.599 483.059L671.013 485.401L670.066 490.085V493.116L675.112 497.697L675.697 507.651L671.013 506.48L666.914 498.868L663.401 494.77L658.717 494.184L655.204 486.572V483.059H656.96L654.618 479.546L655.789 476.618L656.375 473.691L651.691 469.592L647.006 467.835L653.447 472.52L654.618 475.447L651.105 478.96L652.276 482.474L651.105 485.401L648.177 486.572L642.322 485.401C640.566 487.158 637.638 485.401 636.467 483.059C634.964 480.052 637.283 481.176 635.881 478.375L637.638 476.618L634.125 475.447L626.513 468.421H623L617.145 466.079L610.118 464.908V461.98L611.875 460.809L615.974 460.224L617.73 457.296L620.072 458.467L620.658 456.125L619.487 453.197L617.73 455.539L608.947 458.467L606.02 462.566H604.849L605.434 455.539L606.02 454.368V452.026L604.263 451.441V454.368L603.677 455.539L602.506 459.053L600.75 460.224V461.98L598.408 463.737L596.066 463.151L597.237 465.493V467.25L595.48 466.079L591.967 465.493V460.809H589.039L587.868 459.638V453.197L586.697 451.441L583.77 448.513V446.171L584.355 445L583.184 443.243L582.013 441.487V440.316L583.184 439.145L586.112 436.803V435.632L582.599 435.046L577.914 429.776L575.572 429.191L572.059 428.605L571.474 427.434H566.789V428.605L567.96 429.191L570.888 430.362L574.401 432.118L576.743 433.289V436.217L576.158 438.559L574.987 439.73V441.487L578.5 445L579.671 448.513L580.842 449.099V456.71L579.671 457.296L565.618 451.441L566.204 446.171L563.276 443.243L555.664 438.559L554.493 435.046V432.704L553.322 424.507L545.125 409.283L543.368 408.697L542.783 415.138L534 423.921L531.658 423.335L531.072 422.164L534 416.895L533.414 412.796L526.388 413.382L527.169 414.553L528.73 415.724L529.316 418.651L528.145 419.237V422.75L526.388 426.849L514.677 434.46H512.335L505.895 430.362L502.381 423.921L502.967 420.408L504.138 419.822L503.552 417.48L502.967 414.553V411.625L501.796 409.868L500.625 405.77L501.21 402.257L504.138 396.987L508.822 391.132L510.579 389.96L512.921 388.204V384.105L514.092 382.934L514.677 380.592L517.605 377.664L521.704 376.493L526.974 374.151L531.072 372.395V368.296L529.901 364.197L530.487 361.27L532.243 358.342L541.026 354.243L543.368 353.658L546.296 356V353.658V331.993L548.638 317.355L538.684 306.816L533.414 303.888L528.145 298.033L523.46 291.592L511.75 289.835L507.651 287.493L504.724 283.395V276.954L488.329 267.585H480.131L471.349 266.414L466.664 265.243L461.98 257.632L454.954 253.533L454.368 248.849L455.9 244.543L457.881 240.651L461.98 237.724L464.307 227.735L458.467 223.671L450.855 219.572L447.927 215.474L446.171 210.789L433.875 209.618L424.506 205.52L422.164 206.725H418.066L413.967 204.349L410.454 200.835L412.21 199.079V193.809L413.967 188.539L412.21 181.513L402.256 179.171L405.77 172.73L403.427 168.046L409.283 163.947L400.5 165.704L395.23 163.947L398.158 155.75L391.717 160.434L390.546 153.993L386.447 150.48L390.546 147.553L396.401 146.967L396.987 138.77L388.204 135.842L387.033 139.941L381.177 138.77L377.664 135.842V141.112L375.322 143.454L373.566 137.599L370.638 139.941L363.612 137.599L356.585 128.23L347.802 120.033L332.579 116.52L329.066 120.618L324.381 121.204V124.717L319.697 128.816L317.355 134.671L309.743 132.914L300.96 129.401L299.789 132.914L295.691 132.329V137.013L286.908 133.5L286.322 135.842L292.177 142.283L291.006 144.039L283.98 142.283H281.638L282.224 145.796L287.493 150.48L286.908 152.822L281.638 153.408L280.467 158.678L278.71 159.263L270.513 157.506L260.559 158.092L250.605 153.408L243.579 154.579L237.724 151.651L232.454 148.724L230.697 142.868L227.184 143.454L224.842 142.868L222.5 138.77L225.427 137.013L229.526 134.671L227.77 132.914L226.013 134.085H222.5L223.085 128.23L217.816 131.743L218.401 137.013L213.131 142.283L215.474 147.553H210.204L205.52 153.408L204.349 156.921L199.664 160.434L196.737 165.704L189.71 171.559L189.125 176.829L175.658 170.974L171.559 167.46L168.046 169.217H163.947L161.605 175.658L156.921 183.27H151.651L147.552 190.881H144.039L141.112 196.151L135.256 197.908L134.085 201.421L129.987 206.105L127.059 210.789H121.789L117.691 213.717L114.763 217.23L109.493 219.572L101.881 228.941L94.2696 233.625L90.1709 231.937L93.0985 110.079H775.387L775.822 149.309L792.202 412.624Z" fill="#FFD597"/>
<path d="M775.822 147.553V149.309M775.822 149.309L792.202 412.624H904.638L901.125 417.48V420.408L903.467 423.921L902.296 426.263L897.612 425.678L893.513 423.921L895.855 426.263L897.612 428.605L898.197 430.947L895.855 435.046L894.098 436.803L897.612 437.974L901.125 435.046L902.296 436.803L903.467 442.072L895.27 453.197L894.098 460.224L889.414 464.908L886.487 465.493L884.145 469.007L884.73 460.224L881.802 461.395L876.533 464.908L875.947 470.178L874.191 471.349L872.434 477.204V481.888L869.506 484.23L867.164 488.329L866.579 495.941H861.309L860.138 499.454L856.625 500.039L854.868 502.382L856.039 504.138L856.625 506.48L855.454 511.164L851.941 511.75V515.263L805.098 521.118L800.414 528.145H793.973L787.533 522.875L786.362 525.217V528.145L776.993 526.388L773.48 528.73L769.381 529.901L769.967 533.414L764.697 536.928L762.941 533.414V525.217L760.598 524.046H755.329L760.013 517.02L761.77 511.75L765.868 513.507L772.309 507.651L777.579 502.382L778.164 499.454V496.526L774.651 499.454V502.382L771.183 504.724L769.381 502.967L764.697 502.382L762.941 498.868V495.941L764.112 494.77L766.979 493.013V490.671L768.21 488.914L772.309 488.329L775.822 489.5L778.164 488.329L779.335 486.572H775.822L772.309 484.816L761.77 486.572L757.085 483.645L757.671 481.303L757.085 478.96H754.743L751.816 485.401L748.302 489.5L744.204 488.914L744.789 483.059L747.717 480.717L746.546 477.204L748.888 474.862L755.914 472.52H761.77L769.381 465.493L763.526 464.322L767.039 460.809H770.552L771.138 459.053H767.039L761.77 461.98L758.842 460.809L758.256 463.737L755.914 466.079L752.987 460.809L751.816 457.296L754.743 452.612L753.572 449.684L760.598 438.559L764.697 434.46L761.77 430.362L760.598 436.217L753.572 438.559L747.717 446.757V452.612L745.96 459.053L744.204 463.151L739.52 456.125L734.835 446.757L743.033 443.243V438.559L741.276 433.875L736.006 430.362L734.25 432.118L731.908 442.038L727.223 446.757L730.151 452.612L728.395 455.539L727.223 466.079L723.71 463.737L720.783 457.296L721.954 454.368L716.684 452.612L707.316 442.038L695.02 427.434L691.506 437.836L686.237 430.362L683.895 418.066L680.381 413.382L675.697 408.697L676.868 403.428L682.724 401.085L682.904 406.355H685.066L690.921 395.23H702.046L699.704 392.888L697.947 389.96L702.046 387.618L695.02 384.691V389.96L691.506 389.375L690.921 382.934L689.164 389.375H687.107L686.237 384.691L685.066 387.618L680.381 384.105L685.066 382.934L686.822 378.25L688.579 375.908V373.566L690.921 372.395L692.677 371.809V376.493H698.533L699.704 374.737H701.46L702.046 373.566H705.559L706.145 379.421L707.316 380.592L708.487 378.25L709.658 377.079L710.829 376.493L712.585 379.421L713.756 382.349L715.513 383.52L716.684 384.691L717.27 382.349L718.441 380.592L720.783 381.178L721.954 382.349L725.467 385.862H733.664L740.105 382.349V379.421L741.862 376.493L745.375 375.322L741.276 374.737L741.862 371.224L744.204 368.882V364.783L739.52 368.882V375.322L731.908 382.349H730.151V379.421L727.223 378.25L721.954 375.908L718.441 372.395L717.27 372.98L716.098 373.566V370.053L714.927 368.882V370.638H713.171L707.901 367.125V364.783L704.388 360.684L706.145 355.414H711.414V350.73L708.487 352.487H704.388L699.118 360.684L696.191 355.414L697.947 353.658L693.263 350.145L693.849 345.46L700.289 346.632L695.515 343.118V338.434H692.677L689.164 336.678L691.506 341.947L687.107 343.118L689.164 346.632L681.552 348.388L680.381 340.191L683.895 337.263L680.381 336.678H678.7V347.217L675.697 350.73V356.585L673.355 357.757L673.941 343.118L680.381 322.625H686.237L691.506 327.309L695.515 326.138V333.164L702.631 340.191H706.145V336.678L700.875 331.993L706.145 327.309L704.974 324.967L700.289 327.309V319.697L702.631 317.355L707.316 315.599V312.671H702.631L699.118 306.816V298.033L696.191 293.349L690.335 291.592L689.164 294.52V299.789L687.107 301.546L683.309 297.447L681.552 300.375L682.138 305.059L679.21 299.789L678.7 296.276L677.454 302.717L673.941 306.816V310.914L674.526 315.599L668.085 319.697L666.914 318.526L668.671 313.256L668.085 297.447L671.013 291.592L673.941 289.25L673.355 285.151L677.454 281.638L679.21 274.612L682.138 281.053L685.066 286.322L690.921 289.25L696.191 291.592L704.974 284.566H707.316L704.388 276.954V272.855H710.243L707.316 268.756L708.487 264.658L714.342 265.829L716.098 264.072L710.243 260.559H714.927L717.27 255.875L724.296 250.605L721.954 250.02L717.27 252.947L714.927 255.875L712.585 255.289L706.145 260.559L704.974 259.974L706.145 254.118L709.072 251.191L704.974 250.605L704.388 254.118L700.875 259.974L699.118 264.072L697.362 271.684L699.118 276.368L697.947 281.638L691.506 276.368L693.849 262.316L690.921 254.118V248.263L688.579 245.921L687.107 248.263L685.066 243.579L696.191 219.572L703.802 210.927L702.046 206.691L705.559 203.178H712V197.322L716.098 194.98L723.71 193.809L730.737 196.151H734.25L737.177 194.98L740.105 196.151L744.204 194.98L746.546 198.493L748.302 196.151L747.131 190.296L744.204 192.638L737.177 191.467L728.98 190.296L730.737 185.612L736.592 182.684L741.862 174.487L748.302 169.217L750.645 171.559L754.158 169.217L762.355 174.487L763.526 173.316L760.598 171.559L755.329 166.875L750.645 165.118L754.158 162.776L760.013 160.434L759.427 156.335L764.697 149.895L765.868 143.454H763.526L762.355 147.897L756.5 158.678L754.158 159.849L752.401 158.678L749.473 159.849L748.302 162.776L746.546 165.118L737.177 173.316V170.388L740.105 156.335L743.033 155.164V147.897L746.546 142.283L744.204 141.112L741.862 145.796L738.348 149.895L735.421 152.237H723.71L719.026 156.335L713.756 165.118L720.783 170.388L719.026 175.658L710.829 185.026H706.73L702.631 192.638L693.849 199.664L689.75 194.98L692.092 185.026L695.02 179.171L692.092 178L695.02 171.559L689.75 175.658V178L688.579 185.026H685.066L687.107 189.71L684.48 194.98L687.107 197.322L688.579 203.178L684.48 210.927H673.355H662.816L661.059 212.546L662.816 217.816L668.671 220.743V224.256L659.888 228.355L655.789 235.381H653.447V231.283L651.105 234.21H645.07V228.355L636.467 225.428L630.612 228.355V231.283L637.638 233.039L639.98 242.408L649.349 245.921L657.546 251.191V259.388L649.349 264.072H645.07L639.98 262.316L642.908 266.414L655.789 269.928L661.059 276.954L663.987 281.638L661.059 286.322H651.105L647.006 283.395V287.493L653.477 291.592L651.691 301.546L647.006 299.169H639.98L645.07 308.572L638.224 317.355C639.625 324.359 645.07 315.165 645.07 318.526C645.07 321.888 647.111 321.477 642.908 328.48L632.368 338.434L634.125 346.632L638.224 347.217V353.658L640.866 374.151V391.614L642.322 400.5L648.763 409.868L665.158 429.191L664.572 433.875L658.131 444.414L648.177 441.487L648.763 436.217L645.25 430.362L644.664 428.605L645.25 427.434H647.006V422.164L647.592 419.822C644.664 420.993 645.835 418.803 645.835 422.164C645.835 425.526 647.467 426.263 644.664 426.263L643.493 427.434H641.737L641.151 425.678L639.395 422.75L638.224 423.335H635.881L635.296 420.993L631.783 420.408L627.099 418.066L625.342 416.826V413.967L626.513 412.21V406.355H625.342V409.868L624.171 411.039V413.967L622.414 411.625L618.316 409.283L614.217 402.842V398.743L615.388 394.645L613.631 391.614L614.217 389.375L615.388 388.204L614.217 387.033L612.46 386.447V380.592L613.631 377.664L611.289 374.737L609.533 381.763L610.704 385.276V394.645L611.289 398.743L607.191 402.257L611.875 402.842L613.631 406.355V409.283L615.388 413.382L619.487 418.066L625.927 425.23L632.954 427.434L637.638 430.362L642.322 434.46L641.151 437.388L642.322 441.487L644.079 440.901L651.105 449.684L658.131 447.928L663.401 446.757L666.914 449.099L662.23 457.296L664.572 467.25L676.283 484.816V488.329L673.941 491.257L673.355 490.085L671.599 483.059L671.013 485.401L670.066 490.085V493.116L675.112 497.697L675.697 507.651L671.013 506.48L666.914 498.868L663.401 494.77L658.717 494.184L655.204 486.572V483.059H656.96L654.618 479.546L655.789 476.618L656.375 473.691L651.691 469.592L647.006 467.835L653.447 472.52L654.618 475.447L651.105 478.96L652.276 482.474L651.105 485.401L648.177 486.572L642.322 485.401C640.566 487.158 637.638 485.401 636.467 483.059C634.964 480.052 637.283 481.176 635.881 478.375L637.638 476.618L634.125 475.447L626.513 468.421H623L617.145 466.079L610.118 464.908V461.98L611.875 460.809L615.974 460.224L617.73 457.296L620.072 458.467L620.658 456.125L619.487 453.197L617.73 455.539L608.947 458.467L606.02 462.566H604.849L605.434 455.539L606.02 454.368V452.026L604.263 451.441V454.368L603.677 455.539L602.506 459.053L600.75 460.224V461.98L598.408 463.737L596.066 463.151L597.237 465.493V467.25L595.48 466.079L591.967 465.493V460.809H589.039L587.868 459.638V453.197L586.697 451.441L583.77 448.513V446.171L584.355 445L583.184 443.243L582.013 441.487V440.316L583.184 439.145L586.112 436.803V435.632L582.599 435.046L577.914 429.776L575.572 429.191L572.059 428.605L571.474 427.434H566.789V428.605L567.96 429.191L570.888 430.362L574.401 432.118L576.743 433.289V436.217L576.158 438.559L574.987 439.73V441.487L578.5 445L579.671 448.513L580.842 449.099V456.71L579.671 457.296L565.618 451.441L566.204 446.171L563.276 443.243L555.664 438.559L554.493 435.046V432.704L553.322 424.507L545.125 409.283L543.368 408.697L542.783 415.138L534 423.921L531.658 423.335L531.072 422.164L534 416.895L533.414 412.796L526.388 413.382L528.73 416.895L526.388 413.967L528.73 415.724L529.316 418.651L528.145 419.237V422.75L526.388 426.849L514.677 434.46H512.335L505.895 430.362L502.381 423.921L502.967 420.408L504.138 419.822L503.552 417.48L502.967 414.553V411.625L501.796 409.868L500.625 405.77L501.21 402.257L504.138 396.987L508.822 391.132L510.579 389.96L512.921 388.204V384.105L514.092 382.934L514.677 380.592L517.605 377.664L521.704 376.493L526.974 374.151L531.072 372.395V368.296L529.901 364.197L530.487 361.27L532.243 358.342L541.026 354.243L543.368 353.658L546.296 356V353.658V331.993L548.638 317.355L538.684 306.816L533.414 303.888L528.145 298.033L523.46 291.592L511.75 289.835L507.651 287.493L504.724 283.395V276.954L488.329 267.585H480.131L471.349 266.414L466.664 265.243L461.98 257.631L454.954 253.533L454.368 248.849L455.9 244.543L457.881 240.651L461.98 237.724L464.307 227.735L458.467 223.671L450.855 219.572L447.927 215.474L446.171 210.789L433.875 209.618L424.506 205.52L422.164 206.725H418.066L413.967 204.349L410.454 200.835L412.21 199.079V193.809L413.967 188.539L412.21 181.513L402.256 179.171L405.77 172.73L403.427 168.046L409.283 163.947L400.5 165.704L395.23 163.947L398.158 155.75L391.717 160.434L390.546 153.993L386.447 150.48L390.546 147.553L396.401 146.967L396.987 138.77L388.204 135.842L387.033 139.941L381.177 138.77L377.664 135.842V141.112L375.322 143.454L373.566 137.599L370.638 139.941L363.612 137.599L356.585 128.23L347.802 120.033L332.579 116.52L329.066 120.618L324.381 121.204V124.717L319.697 128.816L317.355 134.671L309.743 132.914L300.96 129.401L299.789 132.914L295.691 132.329V137.013L286.908 133.5L286.322 135.842L292.177 142.283L291.006 144.039L283.98 142.283H281.638L282.224 145.796L287.493 150.48L286.908 152.822L281.638 153.408L280.467 158.678L278.71 159.263L270.513 157.506L260.559 158.092L250.605 153.408L243.579 154.579L237.724 151.651L232.454 148.724L230.697 142.868L227.184 143.454L224.842 142.868L222.5 138.77L225.427 137.013L229.526 134.671L227.77 132.914L226.013 134.085H222.5L223.085 128.23L217.816 131.743L218.401 137.013L213.131 142.283L215.474 147.553H210.204L205.52 153.408L204.349 156.921L199.664 160.434L196.737 165.704L189.71 171.559L189.125 176.829L175.658 170.974L171.559 167.46L168.046 169.217H163.947L161.605 175.658L156.921 183.27H151.651L147.552 190.881H144.039L141.112 196.151L135.256 197.908L134.085 201.421L129.987 206.105L127.059 210.789H121.789L117.691 213.717L114.763 217.23L109.493 219.572L101.881 228.941L94.2696 233.625L90.1709 231.937L93.0985 110.079H775.387L775.822 149.309Z" stroke="#060606"/>
</g>
<path d="M418.616 76.8684V59.4139H425.162C426.502 59.4139 427.627 59.6639 428.537 60.1639C429.451 60.6639 430.142 61.3514 430.608 62.2264C431.079 63.0957 431.315 64.0843 431.315 65.1923C431.315 66.3116 431.079 67.3059 430.608 68.1752C430.136 69.0445 429.44 69.7292 428.52 70.2292C427.599 70.7235 426.466 70.9707 425.119 70.9707H420.781V68.3712H424.693C425.477 68.3712 426.119 68.2349 426.619 67.9622C427.119 67.6894 427.488 67.3144 427.727 66.8372C427.971 66.3599 428.093 65.8116 428.093 65.1923C428.093 64.573 427.971 64.0275 427.727 63.5559C427.488 63.0843 427.116 62.7178 426.61 62.4565C426.11 62.1894 425.466 62.0559 424.676 62.0559H421.778V76.8684H418.616ZM434.358 76.8684H430.983L437.127 59.4139H441.031L447.184 76.8684H443.809L439.147 62.9934H439.011L434.358 76.8684ZM434.468 70.0247H443.673V72.5644H434.468V70.0247Z" fill="#005A5E"/>
<path d="M816.834 304.053H810.919V286.598H816.953C818.686 286.598 820.175 286.948 821.419 287.646C822.669 288.34 823.629 289.337 824.3 290.638C824.97 291.939 825.305 293.496 825.305 295.308C825.305 297.127 824.967 298.689 824.291 299.996C823.621 301.303 822.652 302.306 821.385 303.004C820.123 303.703 818.606 304.053 816.834 304.053ZM814.081 301.317H816.68C817.896 301.317 818.91 301.095 819.723 300.652C820.535 300.203 821.146 299.536 821.555 298.649C821.964 297.757 822.169 296.644 822.169 295.308C822.169 293.973 821.964 292.865 821.555 291.985C821.146 291.098 820.541 290.436 819.74 289.999C818.944 289.556 817.956 289.334 816.774 289.334H814.081V301.317ZM828.309 304.053V286.598H839.662V289.249H831.471V293.987H839.074V296.638H831.471V301.402H839.73V304.053H828.309Z" fill="#005A5E"/>
<path d="M61.6058 280.632L56.6797 263.177H60.0803L63.2251 276.004H63.3871L66.745 263.177H69.8388L73.2053 276.012H73.3587L76.5036 263.177H79.9041L74.978 280.632H71.8587L68.3643 268.384H68.228L64.7251 280.632H61.6058ZM84.4318 263.177L88.9744 276.916H89.1534L93.6875 263.177H97.1648L91.0114 280.632H87.108L80.9631 263.177H84.4318Z" fill="#005A5E"/>
<path d="M481.846 479.822L486.388 493.56H486.567L491.102 479.822H494.579L488.425 497.276H484.522L478.377 479.822H481.846ZM497.08 497.276H493.705L499.85 479.822H503.754L509.907 497.276H506.532L501.87 483.401H501.734L497.08 497.276ZM497.191 490.433H506.396V492.972H497.191V490.433Z" fill="#005A5E"/>
<circle cx="637.652" cy="285.165" r="10.6383" fill="#FF8F87" stroke="black"/>
<path d="M515.293 260.553H511.174L517.451 242.371H522.404L528.672 260.553H524.553L519.998 246.526H519.856L515.293 260.553ZM515.036 253.406H524.766V256.407H515.036V253.406ZM534.571 252.669V260.553H530.79V246.916H534.394V249.322H534.554C534.856 248.529 535.362 247.902 536.072 247.44C536.782 246.973 537.643 246.739 538.655 246.739C539.602 246.739 540.428 246.946 541.132 247.36C541.837 247.775 542.384 248.366 542.775 249.136C543.165 249.899 543.361 250.811 543.361 251.87V260.553H539.579V252.545C539.584 251.71 539.371 251.059 538.939 250.592C538.507 250.118 537.912 249.882 537.155 249.882C536.646 249.882 536.196 249.991 535.805 250.21C535.421 250.429 535.119 250.749 534.9 251.169C534.687 251.583 534.577 252.083 534.571 252.669ZM550.123 252.669V260.553H546.341V246.916H549.946V249.322H550.105C550.407 248.529 550.913 247.902 551.624 247.44C552.334 246.973 553.195 246.739 554.207 246.739C555.154 246.739 555.98 246.946 556.684 247.36C557.388 247.775 557.936 248.366 558.326 249.136C558.717 249.899 558.912 250.811 558.912 251.87V260.553H555.13V252.545C555.136 251.71 554.923 251.059 554.491 250.592C554.059 250.118 553.464 249.882 552.707 249.882C552.198 249.882 551.748 249.991 551.357 250.21C550.973 250.429 550.671 250.749 550.452 251.169C550.239 251.583 550.129 252.083 550.123 252.669ZM565.782 260.81C564.911 260.81 564.136 260.659 563.456 260.357C562.775 260.05 562.236 259.597 561.84 258.999C561.449 258.395 561.254 257.644 561.254 256.744C561.254 255.987 561.393 255.35 561.671 254.835C561.949 254.32 562.328 253.906 562.807 253.593C563.287 253.279 563.831 253.042 564.441 252.882C565.056 252.722 565.702 252.61 566.376 252.545C567.169 252.462 567.809 252.385 568.294 252.314C568.779 252.237 569.131 252.125 569.35 251.977C569.569 251.829 569.679 251.61 569.679 251.32V251.267C569.679 250.704 569.501 250.269 569.146 249.961C568.797 249.654 568.3 249.5 567.655 249.5C566.974 249.5 566.433 249.651 566.03 249.953C565.628 250.249 565.361 250.621 565.231 251.071L561.733 250.787C561.911 249.959 562.26 249.242 562.781 248.639C563.302 248.029 563.973 247.561 564.796 247.236C565.625 246.905 566.583 246.739 567.672 246.739C568.43 246.739 569.155 246.828 569.848 247.005C570.546 247.183 571.164 247.458 571.703 247.831C572.248 248.204 572.677 248.683 572.99 249.269C573.304 249.849 573.461 250.544 573.461 251.355V260.553H569.874V258.662H569.768C569.549 259.088 569.256 259.464 568.889 259.789C568.522 260.109 568.081 260.36 567.566 260.544C567.051 260.721 566.456 260.81 565.782 260.81ZM566.865 258.2C567.421 258.2 567.912 258.091 568.338 257.872C568.764 257.647 569.099 257.345 569.342 256.966C569.584 256.587 569.706 256.158 569.706 255.679V254.232C569.587 254.309 569.424 254.38 569.217 254.445C569.016 254.504 568.788 254.56 568.534 254.613C568.279 254.661 568.025 254.705 567.77 254.747C567.516 254.782 567.285 254.815 567.078 254.844C566.634 254.909 566.246 255.013 565.915 255.155C565.583 255.297 565.326 255.489 565.142 255.732C564.959 255.969 564.867 256.265 564.867 256.62C564.867 257.135 565.054 257.528 565.426 257.801C565.805 258.067 566.285 258.2 566.865 258.2ZM576.395 265.666V246.916H580.124V249.207H580.292C580.458 248.84 580.698 248.467 581.011 248.088C581.331 247.704 581.745 247.384 582.254 247.129C582.769 246.869 583.408 246.739 584.172 246.739C585.166 246.739 586.084 246.999 586.924 247.52C587.765 248.035 588.436 248.813 588.939 249.855C589.442 250.891 589.694 252.19 589.694 253.752C589.694 255.273 589.448 256.558 588.957 257.605C588.472 258.647 587.809 259.437 586.968 259.976C586.134 260.508 585.199 260.775 584.163 260.775C583.429 260.775 582.805 260.653 582.29 260.411C581.781 260.168 581.364 259.863 581.038 259.496C580.713 259.123 580.464 258.748 580.292 258.369H580.177V265.666H576.395ZM580.097 253.735C580.097 254.545 580.209 255.253 580.434 255.856C580.659 256.46 580.985 256.931 581.411 257.268C581.837 257.599 582.355 257.765 582.965 257.765C583.58 257.765 584.101 257.596 584.527 257.259C584.953 256.916 585.276 256.442 585.495 255.839C585.72 255.229 585.832 254.528 585.832 253.735C585.832 252.947 585.723 252.255 585.504 251.657C585.285 251.059 584.962 250.592 584.536 250.254C584.11 249.917 583.586 249.748 582.965 249.748C582.349 249.748 581.828 249.911 581.402 250.237C580.982 250.562 580.659 251.024 580.434 251.622C580.209 252.219 580.097 252.924 580.097 253.735ZM598.377 260.819C596.997 260.819 595.805 260.526 594.799 259.94C593.799 259.348 593.026 258.526 592.482 257.472C591.937 256.413 591.665 255.185 591.665 253.788C591.665 252.379 591.937 251.148 592.482 250.095C593.026 249.035 593.799 248.213 594.799 247.627C595.805 247.035 596.997 246.739 598.377 246.739C599.756 246.739 600.945 247.035 601.945 247.627C602.952 248.213 603.727 249.035 604.271 250.095C604.816 251.148 605.088 252.379 605.088 253.788C605.088 255.185 604.816 256.413 604.271 257.472C603.727 258.526 602.952 259.348 601.945 259.94C600.945 260.526 599.756 260.819 598.377 260.819ZM598.394 257.889C599.022 257.889 599.545 257.712 599.966 257.357C600.386 256.996 600.703 256.504 600.916 255.883C601.135 255.262 601.244 254.554 601.244 253.761C601.244 252.968 601.135 252.261 600.916 251.639C600.703 251.018 600.386 250.527 599.966 250.166C599.545 249.805 599.022 249.624 598.394 249.624C597.761 249.624 597.228 249.805 596.796 250.166C596.37 250.527 596.048 251.018 595.829 251.639C595.616 252.261 595.509 252.968 595.509 253.761C595.509 254.554 595.616 255.262 595.829 255.883C596.048 256.504 596.37 256.996 596.796 257.357C597.228 257.712 597.761 257.889 598.394 257.889ZM611.329 242.371V260.553H607.547V242.371H611.329ZM614.359 260.553V246.916H618.141V260.553H614.359ZM616.259 245.159C615.696 245.159 615.214 244.972 614.812 244.599C614.415 244.22 614.217 243.768 614.217 243.241C614.217 242.72 614.415 242.273 614.812 241.9C615.214 241.522 615.696 241.332 616.259 241.332C616.821 241.332 617.3 241.522 617.697 241.9C618.099 242.273 618.301 242.72 618.301 243.241C618.301 243.768 618.099 244.22 617.697 244.599C617.3 244.972 616.821 245.159 616.259 245.159ZM632.516 250.805L629.054 251.018C628.995 250.722 628.867 250.456 628.672 250.219C628.477 249.976 628.219 249.784 627.9 249.642C627.586 249.494 627.21 249.42 626.772 249.42C626.186 249.42 625.692 249.544 625.29 249.793C624.887 250.035 624.686 250.361 624.686 250.769C624.686 251.095 624.816 251.37 625.077 251.595C625.337 251.82 625.784 252 626.417 252.137L628.885 252.634C630.211 252.906 631.199 253.344 631.85 253.948C632.501 254.551 632.827 255.344 632.827 256.327C632.827 257.221 632.564 258.005 632.037 258.68C631.516 259.354 630.8 259.881 629.888 260.26C628.983 260.633 627.938 260.819 626.755 260.819C624.949 260.819 623.511 260.443 622.44 259.692C621.375 258.934 620.75 257.904 620.567 256.602L624.286 256.407C624.399 256.957 624.671 257.377 625.103 257.667C625.535 257.952 626.089 258.094 626.763 258.094C627.426 258.094 627.959 257.966 628.361 257.712C628.77 257.451 628.977 257.117 628.983 256.709C628.977 256.365 628.832 256.084 628.548 255.865C628.264 255.64 627.826 255.469 627.234 255.35L624.872 254.88C623.541 254.613 622.549 254.152 621.898 253.495C621.253 252.838 620.931 252 620.931 250.982C620.931 250.106 621.167 249.352 621.641 248.719C622.12 248.085 622.792 247.597 623.656 247.254C624.526 246.91 625.544 246.739 626.71 246.739C628.432 246.739 629.788 247.103 630.776 247.831C631.771 248.559 632.351 249.55 632.516 250.805Z" fill="black"/>
<path d="M530.346 199.658V181.476H536.703C537.969 181.476 539.014 181.695 539.837 182.133C540.659 182.565 541.272 183.148 541.674 183.882C542.077 184.61 542.278 185.418 542.278 186.306C542.278 187.087 542.139 187.732 541.861 188.241C541.589 188.75 541.228 189.153 540.778 189.448C540.334 189.744 539.851 189.963 539.331 190.105V190.283C539.887 190.318 540.446 190.514 541.009 190.869C541.571 191.224 542.041 191.733 542.42 192.396C542.799 193.059 542.988 193.87 542.988 194.828C542.988 195.74 542.781 196.56 542.367 197.288C541.953 198.016 541.299 198.593 540.405 199.019C539.511 199.445 538.348 199.658 536.916 199.658H530.346ZM532.548 197.705H536.916C538.354 197.705 539.375 197.427 539.979 196.87C540.588 196.308 540.893 195.627 540.893 194.828C540.893 194.213 540.736 193.645 540.423 193.124C540.109 192.597 539.662 192.177 539.082 191.863C538.502 191.544 537.815 191.384 537.022 191.384H532.548V197.705ZM532.548 189.466H536.632C537.295 189.466 537.892 189.336 538.425 189.076C538.964 188.815 539.39 188.448 539.703 187.975C540.023 187.501 540.183 186.945 540.183 186.306C540.183 185.507 539.905 184.829 539.348 184.273C538.792 183.71 537.91 183.429 536.703 183.429H532.548V189.466ZM550.335 199.978C549.471 199.978 548.686 199.815 547.982 199.489C547.278 199.158 546.718 198.681 546.304 198.06C545.89 197.433 545.683 196.675 545.683 195.787C545.683 195.006 545.837 194.373 546.144 193.887C546.452 193.396 546.863 193.011 547.378 192.733C547.893 192.455 548.461 192.248 549.083 192.112C549.71 191.97 550.341 191.857 550.974 191.774C551.802 191.668 552.474 191.588 552.989 191.535C553.51 191.476 553.889 191.378 554.126 191.242C554.368 191.106 554.49 190.869 554.49 190.532V190.461C554.49 189.585 554.25 188.904 553.77 188.419C553.297 187.933 552.578 187.691 551.613 187.691C550.613 187.691 549.829 187.91 549.26 188.348C548.692 188.786 548.293 189.253 548.062 189.75L546.073 189.04C546.428 188.211 546.902 187.566 547.494 187.105C548.092 186.637 548.743 186.312 549.447 186.128C550.157 185.939 550.856 185.844 551.542 185.844C551.98 185.844 552.483 185.897 553.051 186.004C553.625 186.104 554.179 186.315 554.711 186.634C555.25 186.954 555.697 187.436 556.052 188.081C556.407 188.726 556.585 189.59 556.585 190.674V199.658H554.49V197.811H554.383C554.241 198.107 554.004 198.424 553.673 198.761C553.341 199.099 552.9 199.386 552.35 199.622C551.8 199.859 551.128 199.978 550.335 199.978ZM550.654 198.095C551.483 198.095 552.181 197.933 552.749 197.607C553.324 197.282 553.756 196.861 554.046 196.347C554.342 195.832 554.49 195.29 554.49 194.722V192.804C554.401 192.911 554.205 193.008 553.904 193.097C553.608 193.18 553.264 193.254 552.874 193.319C552.489 193.378 552.113 193.432 551.746 193.479C551.385 193.52 551.092 193.556 550.867 193.586C550.323 193.657 549.814 193.772 549.34 193.932C548.873 194.086 548.494 194.319 548.204 194.633C547.92 194.941 547.778 195.361 547.778 195.894C547.778 196.622 548.047 197.172 548.586 197.545C549.13 197.912 549.82 198.095 550.654 198.095ZM562.504 181.476V199.658H560.409V181.476H562.504ZM572.272 186.022V187.797H565.205V186.022H572.272ZM567.265 182.755H569.36V195.752C569.36 196.344 569.446 196.787 569.617 197.083C569.795 197.373 570.02 197.569 570.292 197.669C570.57 197.764 570.863 197.811 571.171 197.811C571.402 197.811 571.591 197.8 571.739 197.776C571.887 197.746 572.006 197.723 572.094 197.705L572.52 199.587C572.378 199.64 572.18 199.693 571.926 199.747C571.671 199.806 571.349 199.836 570.958 199.836C570.366 199.836 569.786 199.708 569.218 199.454C568.656 199.199 568.188 198.812 567.815 198.291C567.448 197.77 567.265 197.113 567.265 196.32V182.755ZM575.423 199.658V186.022H577.519V199.658H575.423ZM576.489 183.749C576.08 183.749 575.728 183.61 575.432 183.332C575.142 183.053 574.997 182.719 574.997 182.328C574.997 181.938 575.142 181.603 575.432 181.325C575.728 181.047 576.08 180.908 576.489 180.908C576.897 180.908 577.246 181.047 577.536 181.325C577.832 181.603 577.98 181.938 577.98 182.328C577.98 182.719 577.832 183.053 577.536 183.332C577.246 183.61 576.897 183.749 576.489 183.749ZM581.356 199.658V186.022H583.38V188.152H583.558C583.842 187.424 584.301 186.859 584.934 186.457C585.567 186.048 586.328 185.844 587.215 185.844C588.115 185.844 588.864 186.048 589.462 186.457C590.065 186.859 590.536 187.424 590.873 188.152H591.015C591.364 187.448 591.888 186.889 592.587 186.474C593.285 186.054 594.122 185.844 595.099 185.844C596.318 185.844 597.315 186.226 598.091 186.989C598.866 187.747 599.254 188.928 599.254 190.532V199.658H597.159V190.532C597.159 189.525 596.883 188.806 596.333 188.374C595.783 187.942 595.134 187.726 594.389 187.726C593.43 187.726 592.687 188.016 592.16 188.596C591.634 189.17 591.37 189.898 591.37 190.78V199.658H589.24V190.318C589.24 189.543 588.988 188.919 588.485 188.445C587.982 187.966 587.334 187.726 586.541 187.726C585.996 187.726 585.487 187.871 585.014 188.161C584.546 188.451 584.167 188.854 583.877 189.369C583.593 189.878 583.451 190.466 583.451 191.135V199.658H581.356ZM608.624 199.942C607.393 199.942 606.313 199.649 605.384 199.063C604.461 198.477 603.739 197.657 603.218 196.604C602.703 195.55 602.445 194.319 602.445 192.911C602.445 191.49 602.703 190.25 603.218 189.191C603.739 188.132 604.461 187.309 605.384 186.723C606.313 186.137 607.393 185.844 608.624 185.844C609.855 185.844 610.933 186.137 611.856 186.723C612.785 187.309 613.507 188.132 614.022 189.191C614.543 190.25 614.803 191.49 614.803 192.911C614.803 194.319 614.543 195.55 614.022 196.604C613.507 197.657 612.785 198.477 611.856 199.063C610.933 199.649 609.855 199.942 608.624 199.942ZM608.624 198.06C609.56 198.06 610.329 197.82 610.933 197.341C611.536 196.861 611.983 196.231 612.273 195.45C612.563 194.669 612.708 193.822 612.708 192.911C612.708 191.999 612.563 191.15 612.273 190.363C611.983 189.576 611.536 188.939 610.933 188.454C610.329 187.969 609.56 187.726 608.624 187.726C607.689 187.726 606.92 187.969 606.316 188.454C605.712 188.939 605.266 189.576 604.976 190.363C604.686 191.15 604.541 191.999 604.541 192.911C604.541 193.822 604.686 194.669 604.976 195.45C605.266 196.231 605.712 196.861 606.316 197.341C606.92 197.82 607.689 198.06 608.624 198.06ZM618.002 199.658V186.022H620.026V188.081H620.168C620.416 187.407 620.866 186.859 621.517 186.439C622.168 186.019 622.902 185.809 623.719 185.809C623.873 185.809 624.065 185.811 624.296 185.817C624.527 185.823 624.701 185.832 624.82 185.844V187.975C624.749 187.957 624.586 187.93 624.331 187.895C624.083 187.853 623.82 187.833 623.541 187.833C622.878 187.833 622.287 187.972 621.766 188.25C621.251 188.522 620.843 188.901 620.541 189.386C620.245 189.866 620.097 190.413 620.097 191.029V199.658H618.002ZM632.606 199.942C631.292 199.942 630.158 199.652 629.205 199.072C628.258 198.486 627.528 197.669 627.013 196.622C626.504 195.568 626.249 194.343 626.249 192.946C626.249 191.55 626.504 190.318 627.013 189.253C627.528 188.182 628.244 187.347 629.161 186.75C630.084 186.146 631.162 185.844 632.393 185.844C633.103 185.844 633.804 185.962 634.497 186.199C635.189 186.436 635.819 186.821 636.388 187.353C636.956 187.88 637.409 188.578 637.746 189.448C638.083 190.318 638.252 191.39 638.252 192.662V193.55H627.741V191.739H636.121C636.121 190.97 635.967 190.283 635.66 189.679C635.358 189.076 634.926 188.599 634.363 188.25C633.807 187.901 633.15 187.726 632.393 187.726C631.558 187.726 630.836 187.933 630.226 188.348C629.623 188.756 629.158 189.289 628.833 189.946C628.507 190.603 628.344 191.307 628.344 192.059V193.266C628.344 194.296 628.522 195.169 628.877 195.885C629.238 196.595 629.738 197.137 630.377 197.51C631.017 197.876 631.759 198.06 632.606 198.06C633.156 198.06 633.653 197.983 634.097 197.829C634.547 197.669 634.935 197.433 635.26 197.119C635.586 196.799 635.837 196.403 636.015 195.929L638.039 196.497C637.826 197.184 637.468 197.788 636.965 198.309C636.462 198.823 635.84 199.226 635.1 199.516C634.36 199.8 633.529 199.942 632.606 199.942Z" fill="black"/>
<path d="M521.504 401L516.533 382.818H518.77L522.57 397.626H522.747L526.618 382.818H529.104L532.974 397.626H533.152L536.952 382.818H539.189L534.217 401H531.945L527.932 386.511H527.79L523.777 401H521.504ZM544.391 401.32C543.527 401.32 542.743 401.157 542.039 400.831C541.334 400.5 540.775 400.023 540.361 399.402C539.946 398.775 539.739 398.017 539.739 397.129C539.739 396.348 539.893 395.715 540.201 395.229C540.509 394.738 540.92 394.353 541.435 394.075C541.95 393.797 542.518 393.59 543.14 393.454C543.767 393.312 544.397 393.199 545.031 393.116C545.859 393.01 546.531 392.93 547.046 392.877C547.567 392.818 547.945 392.72 548.182 392.584C548.425 392.448 548.546 392.211 548.546 391.874V391.803C548.546 390.927 548.306 390.246 547.827 389.761C547.354 389.275 546.634 389.033 545.67 389.033C544.67 389.033 543.885 389.252 543.317 389.69C542.749 390.128 542.349 390.595 542.119 391.092L540.13 390.382C540.485 389.554 540.959 388.908 541.55 388.447C542.148 387.979 542.799 387.654 543.504 387.47C544.214 387.281 544.912 387.186 545.599 387.186C546.037 387.186 546.54 387.239 547.108 387.346C547.682 387.446 548.235 387.657 548.768 387.976C549.307 388.296 549.754 388.778 550.109 389.423C550.464 390.068 550.641 390.933 550.641 392.016V401H548.546V399.153H548.44C548.298 399.449 548.061 399.766 547.729 400.103C547.398 400.441 546.957 400.728 546.407 400.964C545.856 401.201 545.184 401.32 544.391 401.32ZM544.711 399.438C545.54 399.438 546.238 399.275 546.806 398.949C547.38 398.624 547.812 398.203 548.102 397.689C548.398 397.174 548.546 396.632 548.546 396.064V394.146C548.457 394.253 548.262 394.35 547.96 394.439C547.664 394.522 547.321 394.596 546.93 394.661C546.546 394.72 546.17 394.774 545.803 394.821C545.442 394.862 545.149 394.898 544.924 394.928C544.379 394.999 543.871 395.114 543.397 395.274C542.929 395.428 542.551 395.661 542.261 395.975C541.977 396.283 541.835 396.703 541.835 397.236C541.835 397.964 542.104 398.514 542.642 398.887C543.187 399.254 543.876 399.438 544.711 399.438ZM556.561 382.818V401H554.465V382.818H556.561ZM565.547 401.284C564.411 401.284 563.408 400.997 562.538 400.423C561.668 399.843 560.987 399.026 560.496 397.973C560.004 396.913 559.759 395.661 559.759 394.217C559.759 392.785 560.004 391.542 560.496 390.489C560.987 389.435 561.671 388.621 562.547 388.047C563.422 387.473 564.435 387.186 565.583 387.186C566.471 387.186 567.172 387.334 567.687 387.63C568.208 387.92 568.604 388.251 568.876 388.624C569.155 388.991 569.371 389.293 569.525 389.53H569.702V382.818H571.797V401H569.773V398.905H569.525C569.371 399.153 569.152 399.467 568.868 399.846C568.583 400.219 568.178 400.553 567.651 400.849C567.125 401.139 566.423 401.284 565.547 401.284ZM565.831 399.402C566.672 399.402 567.382 399.183 567.962 398.745C568.542 398.301 568.983 397.689 569.285 396.907C569.587 396.12 569.738 395.212 569.738 394.182C569.738 393.164 569.59 392.273 569.294 391.51C568.998 390.74 568.56 390.142 567.98 389.716C567.4 389.284 566.684 389.068 565.831 389.068C564.944 389.068 564.204 389.296 563.612 389.752C563.026 390.202 562.585 390.814 562.289 391.589C561.999 392.359 561.854 393.223 561.854 394.182C561.854 395.152 562.002 396.034 562.298 396.827C562.6 397.615 563.044 398.242 563.63 398.71C564.221 399.171 564.955 399.402 565.831 399.402ZM581.465 401.284C580.234 401.284 579.154 400.991 578.225 400.405C577.301 399.819 576.579 399 576.059 397.946C575.544 396.893 575.286 395.661 575.286 394.253C575.286 392.832 575.544 391.592 576.059 390.533C576.579 389.474 577.301 388.651 578.225 388.065C579.154 387.479 580.234 387.186 581.465 387.186C582.696 387.186 583.773 387.479 584.697 388.065C585.626 388.651 586.348 389.474 586.863 390.533C587.384 391.592 587.644 392.832 587.644 394.253C587.644 395.661 587.384 396.893 586.863 397.946C586.348 399 585.626 399.819 584.697 400.405C583.773 400.991 582.696 401.284 581.465 401.284ZM581.465 399.402C582.4 399.402 583.17 399.162 583.773 398.683C584.377 398.203 584.824 397.573 585.114 396.792C585.404 396.011 585.549 395.164 585.549 394.253C585.549 393.341 585.404 392.492 585.114 391.705C584.824 390.918 584.377 390.281 583.773 389.796C583.17 389.311 582.4 389.068 581.465 389.068C580.53 389.068 579.761 389.311 579.157 389.796C578.553 390.281 578.106 390.918 577.816 391.705C577.526 392.492 577.381 393.341 577.381 394.253C577.381 395.164 577.526 396.011 577.816 396.792C578.106 397.573 578.553 398.203 579.157 398.683C579.761 399.162 580.53 399.402 581.465 399.402ZM590.842 401V387.364H592.867V389.423H593.009C593.257 388.749 593.707 388.201 594.358 387.781C595.009 387.361 595.743 387.151 596.56 387.151C596.714 387.151 596.906 387.154 597.137 387.159C597.368 387.165 597.542 387.174 597.661 387.186V389.317C597.59 389.299 597.427 389.272 597.172 389.237C596.924 389.195 596.66 389.175 596.382 389.175C595.719 389.175 595.127 389.314 594.607 389.592C594.092 389.864 593.683 390.243 593.381 390.728C593.086 391.208 592.938 391.755 592.938 392.371V401H590.842ZM607.071 387.364V389.139H599.72V387.364H607.071ZM601.922 401V385.482C601.922 384.7 602.105 384.049 602.472 383.528C602.839 383.008 603.316 382.617 603.902 382.357C604.488 382.096 605.106 381.966 605.757 381.966C606.272 381.966 606.692 382.007 607.018 382.09C607.343 382.173 607.586 382.25 607.746 382.321L607.142 384.132C607.036 384.097 606.888 384.052 606.698 383.999C606.515 383.946 606.272 383.919 605.97 383.919C605.278 383.919 604.778 384.094 604.47 384.443C604.168 384.792 604.017 385.304 604.017 385.979V401H601.922Z" fill="black"/>
<path d="M416.754 162.184V144.002H427.656V145.955H418.956V152.099H426.84V154.052H418.956V162.184H416.754ZM430.997 162.184V148.548H433.021V150.607H433.163C433.411 149.933 433.861 149.385 434.512 148.965C435.163 148.545 435.897 148.335 436.714 148.335C436.868 148.335 437.06 148.338 437.291 148.344C437.522 148.349 437.697 148.358 437.815 148.37V150.501C437.744 150.483 437.581 150.456 437.327 150.421C437.078 150.38 436.815 150.359 436.536 150.359C435.874 150.359 435.282 150.498 434.761 150.776C434.246 151.048 433.838 151.427 433.536 151.912C433.24 152.392 433.092 152.939 433.092 153.555V162.184H430.997ZM445.601 162.468C444.287 162.468 443.153 162.178 442.201 161.598C441.254 161.012 440.523 160.195 440.008 159.148C439.499 158.094 439.244 156.869 439.244 155.472C439.244 154.076 439.499 152.845 440.008 151.779C440.523 150.708 441.239 149.873 442.156 149.276C443.079 148.672 444.157 148.37 445.388 148.37C446.098 148.37 446.799 148.489 447.492 148.725C448.184 148.962 448.815 149.347 449.383 149.879C449.951 150.406 450.404 151.105 450.741 151.975C451.078 152.845 451.247 153.916 451.247 155.188V156.076H440.736V154.265H449.116C449.116 153.496 448.963 152.809 448.655 152.205C448.353 151.602 447.921 151.125 447.359 150.776C446.802 150.427 446.145 150.252 445.388 150.252C444.553 150.252 443.831 150.459 443.222 150.874C442.618 151.282 442.153 151.815 441.828 152.472C441.502 153.129 441.339 153.833 441.339 154.585V155.792C441.339 156.822 441.517 157.695 441.872 158.411C442.233 159.121 442.733 159.663 443.372 160.036C444.012 160.403 444.754 160.586 445.601 160.586C446.151 160.586 446.648 160.509 447.092 160.355C447.542 160.195 447.93 159.959 448.255 159.645C448.581 159.325 448.832 158.929 449.01 158.455L451.034 159.024C450.821 159.71 450.463 160.314 449.96 160.835C449.457 161.35 448.835 161.752 448.095 162.042C447.356 162.326 446.524 162.468 445.601 162.468ZM459.583 162.468C458.447 162.468 457.444 162.181 456.574 161.607C455.704 161.027 455.023 160.21 454.532 159.157C454.041 158.097 453.795 156.846 453.795 155.401C453.795 153.969 454.041 152.726 454.532 151.673C455.023 150.619 455.707 149.805 456.583 149.231C457.459 148.657 458.471 148.37 459.619 148.37C460.507 148.37 461.208 148.518 461.723 148.814C462.244 149.104 462.64 149.436 462.913 149.808C463.191 150.175 463.407 150.477 463.561 150.714H463.738V144.002H465.833V162.184H463.809V160.089H463.561C463.407 160.337 463.188 160.651 462.904 161.03C462.62 161.403 462.214 161.737 461.687 162.033C461.161 162.323 460.459 162.468 459.583 162.468ZM459.867 160.586C460.708 160.586 461.418 160.367 461.998 159.929C462.578 159.485 463.019 158.873 463.321 158.091C463.623 157.304 463.774 156.396 463.774 155.366C463.774 154.348 463.626 153.457 463.33 152.694C463.034 151.924 462.596 151.326 462.016 150.9C461.436 150.468 460.72 150.252 459.867 150.252C458.98 150.252 458.24 150.48 457.648 150.936C457.062 151.386 456.621 151.998 456.325 152.774C456.035 153.543 455.89 154.407 455.89 155.366C455.89 156.337 456.038 157.218 456.334 158.011C456.636 158.799 457.08 159.426 457.666 159.894C458.258 160.355 458.992 160.586 459.867 160.586ZM475.679 162.468C474.365 162.468 473.232 162.178 472.279 161.598C471.332 161.012 470.601 160.195 470.086 159.148C469.577 158.094 469.322 156.869 469.322 155.472C469.322 154.076 469.577 152.845 470.086 151.779C470.601 150.708 471.317 149.873 472.234 149.276C473.158 148.672 474.235 148.37 475.466 148.37C476.176 148.37 476.877 148.489 477.57 148.725C478.262 148.962 478.893 149.347 479.461 149.879C480.029 150.406 480.482 151.105 480.819 151.975C481.157 152.845 481.325 153.916 481.325 155.188V156.076H470.814V154.265H479.195C479.195 153.496 479.041 152.809 478.733 152.205C478.431 151.602 477.999 151.125 477.437 150.776C476.88 150.427 476.223 150.252 475.466 150.252C474.631 150.252 473.909 150.459 473.3 150.874C472.696 151.282 472.231 151.815 471.906 152.472C471.58 153.129 471.418 153.833 471.418 154.585V155.792C471.418 156.822 471.595 157.695 471.95 158.411C472.311 159.121 472.811 159.663 473.451 160.036C474.09 160.403 474.833 160.586 475.679 160.586C476.229 160.586 476.726 160.509 477.17 160.355C477.62 160.195 478.008 159.959 478.333 159.645C478.659 159.325 478.91 158.929 479.088 158.455L481.112 159.024C480.899 159.71 480.541 160.314 480.038 160.835C479.535 161.35 478.913 161.752 478.174 162.042C477.434 162.326 476.602 162.468 475.679 162.468ZM484.512 162.184V148.548H486.536V150.607H486.679C486.927 149.933 487.377 149.385 488.028 148.965C488.679 148.545 489.413 148.335 490.23 148.335C490.384 148.335 490.576 148.338 490.807 148.344C491.038 148.349 491.212 148.358 491.331 148.37V150.501C491.259 150.483 491.097 150.456 490.842 150.421C490.594 150.38 490.33 150.359 490.052 150.359C489.389 150.359 488.797 150.498 488.277 150.776C487.762 151.048 487.353 151.427 487.051 151.912C486.755 152.392 486.608 152.939 486.608 153.555V162.184H484.512ZM493.814 162.184V148.548H495.909V162.184H493.814ZM494.879 146.275C494.471 146.275 494.119 146.136 493.823 145.858C493.533 145.58 493.388 145.245 493.388 144.855C493.388 144.464 493.533 144.13 493.823 143.851C494.119 143.573 494.471 143.434 494.879 143.434C495.288 143.434 495.637 143.573 495.927 143.851C496.223 144.13 496.371 144.464 496.371 144.855C496.371 145.245 496.223 145.58 495.927 145.858C495.637 146.136 495.288 146.275 494.879 146.275ZM505.286 162.468C504.008 162.468 502.907 162.166 501.984 161.563C501.061 160.959 500.35 160.127 499.853 159.068C499.356 158.009 499.108 156.798 499.108 155.437C499.108 154.052 499.362 152.83 499.871 151.77C500.386 150.705 501.102 149.873 502.019 149.276C502.943 148.672 504.02 148.37 505.251 148.37C506.21 148.37 507.074 148.548 507.843 148.903C508.613 149.258 509.243 149.755 509.734 150.394C510.226 151.034 510.53 151.779 510.649 152.632H508.554C508.394 152.01 508.039 151.46 507.488 150.98C506.944 150.495 506.21 150.252 505.286 150.252C504.47 150.252 503.754 150.465 503.138 150.891C502.528 151.312 502.052 151.907 501.709 152.676C501.371 153.439 501.203 154.336 501.203 155.366C501.203 156.419 501.368 157.337 501.7 158.118C502.037 158.899 502.511 159.506 503.12 159.938C503.736 160.37 504.458 160.586 505.286 160.586C505.831 160.586 506.325 160.491 506.769 160.302C507.213 160.113 507.589 159.84 507.897 159.485C508.204 159.13 508.423 158.704 508.554 158.207H510.649C510.53 159.012 510.237 159.737 509.77 160.382C509.308 161.021 508.696 161.53 507.932 161.909C507.175 162.282 506.293 162.468 505.286 162.468ZM515.665 157.212L515.629 154.62H516.055L522.021 148.548H524.614L518.257 154.975H518.079L515.665 157.212ZM513.712 162.184V144.002H515.807V162.184H513.712ZM522.376 162.184L517.05 155.437L518.541 153.981L525.04 162.184H522.376Z" fill="black"/>
<circle cx="621.256" cy="220.757" r="10.6383" fill="#FFE587" stroke="black"/>
<circle cx="471.362" cy="183.283" r="10.6383" fill="#FFE587" stroke="black"/>
<circle cx="570.902" cy="358.941" r="10.6383" fill="#FFE587" stroke="black"/>
<g filter="url(#filter1_d_91_294)">
<rect x="519.947" y="308.06" width="32.7895" height="32.7895" transform="rotate(-45.7662 519.947 308.06)" fill="#F1F1F1"/>
<rect x="520.654" y="308.05" width="31.7895" height="31.7895" transform="rotate(-45.7662 520.654 308.05)" stroke="black"/>
</g>
<circle cx="542.797" cy="307.415" r="10.6383" fill="#5CD488" stroke="black"/>
<g filter="url(#filter2_d_91_294)">
<rect x="312.5" y="288.579" width="186" height="42.3289" rx="3.5" fill="#F7F7F7" stroke="black"/>
<path d="M332.127 320L326.508 300.364H331.043L334.294 314.007H334.457L338.043 300.364H341.926L345.502 314.036H345.675L348.925 300.364H353.46L347.842 320H343.795L340.056 307.162H339.903L336.173 320H332.127ZM358.223 320.278C357.283 320.278 356.446 320.115 355.711 319.789C354.976 319.457 354.394 318.968 353.966 318.322C353.544 317.67 353.333 316.858 353.333 315.887C353.333 315.069 353.483 314.381 353.784 313.825C354.084 313.269 354.493 312.822 355.011 312.483C355.529 312.144 356.117 311.888 356.775 311.716C357.44 311.543 358.137 311.422 358.866 311.352C359.722 311.262 360.412 311.179 360.937 311.102C361.461 311.019 361.841 310.898 362.078 310.738C362.314 310.578 362.432 310.342 362.432 310.028V309.971C362.432 309.364 362.241 308.894 361.857 308.561C361.48 308.229 360.943 308.063 360.246 308.063C359.511 308.063 358.926 308.226 358.492 308.552C358.057 308.871 357.769 309.274 357.629 309.76L353.851 309.453C354.043 308.558 354.42 307.785 354.982 307.133C355.545 306.474 356.27 305.969 357.159 305.618C358.054 305.26 359.089 305.081 360.265 305.081C361.084 305.081 361.867 305.177 362.614 305.369C363.369 305.56 364.037 305.858 364.618 306.26C365.206 306.663 365.67 307.181 366.009 307.814C366.347 308.44 366.517 309.191 366.517 310.067V320H362.643V317.958H362.528C362.292 318.418 361.975 318.824 361.579 319.175C361.183 319.521 360.706 319.792 360.15 319.99C359.594 320.182 358.952 320.278 358.223 320.278ZM359.393 317.459C359.994 317.459 360.524 317.341 360.984 317.104C361.445 316.862 361.806 316.536 362.068 316.126C362.33 315.717 362.461 315.254 362.461 314.736V313.173C362.333 313.256 362.157 313.333 361.934 313.403C361.716 313.467 361.47 313.528 361.195 313.586C360.921 313.637 360.646 313.685 360.371 313.729C360.096 313.768 359.847 313.803 359.623 313.835C359.144 313.905 358.725 314.017 358.367 314.17C358.009 314.324 357.731 314.532 357.533 314.794C357.335 315.049 357.236 315.369 357.236 315.752C357.236 316.309 357.437 316.734 357.84 317.028C358.249 317.315 358.766 317.459 359.393 317.459ZM381.939 309.472L378.2 309.702C378.136 309.383 377.998 309.095 377.788 308.839C377.577 308.577 377.299 308.37 376.953 308.216C376.615 308.056 376.209 307.977 375.736 307.977C375.103 307.977 374.569 308.111 374.134 308.379C373.7 308.641 373.483 308.993 373.483 309.434C373.483 309.786 373.623 310.083 373.904 310.326C374.186 310.569 374.668 310.763 375.352 310.911L378.018 311.447C379.449 311.741 380.517 312.214 381.22 312.866C381.923 313.518 382.275 314.375 382.275 315.436C382.275 316.401 381.99 317.248 381.421 317.977C380.859 318.706 380.085 319.275 379.101 319.684C378.123 320.086 376.995 320.288 375.717 320.288C373.767 320.288 372.214 319.882 371.057 319.07C369.906 318.252 369.232 317.14 369.034 315.733L373.051 315.522C373.172 316.117 373.467 316.571 373.933 316.884C374.4 317.191 374.997 317.344 375.726 317.344C376.442 317.344 377.017 317.207 377.452 316.932C377.893 316.651 378.117 316.289 378.123 315.848C378.117 315.478 377.96 315.174 377.653 314.938C377.347 314.695 376.873 314.509 376.234 314.381L373.684 313.873C372.246 313.586 371.175 313.087 370.472 312.377C369.775 311.668 369.427 310.763 369.427 309.664C369.427 308.718 369.682 307.903 370.194 307.219C370.712 306.535 371.437 306.008 372.37 305.637C373.31 305.266 374.409 305.081 375.669 305.081C377.529 305.081 378.992 305.474 380.06 306.26C381.134 307.047 381.76 308.117 381.939 309.472ZM388.931 311.486V320H384.847V300.364H388.816V307.871H388.989C389.321 307.002 389.858 306.321 390.6 305.829C391.341 305.33 392.271 305.081 393.39 305.081C394.412 305.081 395.304 305.305 396.065 305.752C396.832 306.193 397.426 306.829 397.848 307.66C398.276 308.485 398.487 309.472 398.481 310.623V320H394.396V311.352C394.403 310.444 394.173 309.738 393.706 309.233C393.246 308.728 392.6 308.475 391.769 308.475C391.213 308.475 390.721 308.593 390.293 308.83C389.871 309.066 389.539 309.412 389.296 309.865C389.059 310.313 388.938 310.853 388.931 311.486ZM401.695 320V305.273H405.78V320H401.695ZM403.747 303.374C403.14 303.374 402.619 303.173 402.184 302.77C401.756 302.361 401.542 301.872 401.542 301.303C401.542 300.741 401.756 300.258 402.184 299.855C402.619 299.446 403.14 299.242 403.747 299.242C404.354 299.242 404.872 299.446 405.301 299.855C405.735 300.258 405.953 300.741 405.953 301.303C405.953 301.872 405.735 302.361 405.301 302.77C404.872 303.173 404.354 303.374 403.747 303.374ZM413.136 311.486V320H409.052V305.273H412.945V307.871H413.117C413.443 307.015 413.99 306.337 414.757 305.838C415.524 305.333 416.454 305.081 417.547 305.081C418.57 305.081 419.461 305.305 420.222 305.752C420.983 306.2 421.574 306.839 421.996 307.67C422.418 308.494 422.629 309.479 422.629 310.623V320H418.544V311.352C418.55 310.45 418.32 309.747 417.854 309.242C417.387 308.731 416.745 308.475 415.926 308.475C415.377 308.475 414.891 308.593 414.469 308.83C414.054 309.066 413.728 309.412 413.491 309.865C413.261 310.313 413.143 310.853 413.136 311.486ZM432.483 325.83C431.16 325.83 430.025 325.647 429.079 325.283C428.139 324.925 427.391 324.436 426.835 323.816C426.279 323.196 425.918 322.499 425.752 321.726L429.53 321.218C429.645 321.512 429.827 321.787 430.076 322.042C430.325 322.298 430.655 322.502 431.064 322.656C431.479 322.816 431.984 322.896 432.579 322.896C433.467 322.896 434.199 322.678 434.774 322.244C435.356 321.815 435.647 321.096 435.647 320.086V317.392H435.474C435.295 317.801 435.027 318.188 434.669 318.552C434.311 318.917 433.851 319.214 433.288 319.444C432.726 319.674 432.054 319.789 431.275 319.789C430.169 319.789 429.162 319.533 428.254 319.022C427.353 318.504 426.634 317.715 426.097 316.654C425.566 315.586 425.301 314.238 425.301 312.608C425.301 310.939 425.573 309.546 426.116 308.427C426.66 307.309 427.382 306.471 428.283 305.915C429.191 305.359 430.185 305.081 431.265 305.081C432.09 305.081 432.78 305.222 433.336 305.503C433.892 305.778 434.34 306.123 434.678 306.538C435.024 306.947 435.289 307.35 435.474 307.746H435.628V305.273H439.683V320.144C439.683 321.397 439.377 322.445 438.763 323.289C438.149 324.132 437.299 324.765 436.212 325.187C435.132 325.615 433.889 325.83 432.483 325.83ZM432.569 316.721C433.227 316.721 433.783 316.558 434.237 316.232C434.698 315.9 435.049 315.426 435.292 314.813C435.541 314.193 435.666 313.451 435.666 312.588C435.666 311.725 435.544 310.978 435.302 310.345C435.059 309.706 434.707 309.21 434.247 308.859C433.787 308.507 433.227 308.331 432.569 308.331C431.898 308.331 431.332 308.513 430.872 308.878C430.412 309.236 430.063 309.734 429.827 310.374C429.59 311.013 429.472 311.751 429.472 312.588C429.472 313.439 429.59 314.174 429.827 314.794C430.07 315.407 430.418 315.884 430.872 316.222C431.332 316.555 431.898 316.721 432.569 316.721ZM450.767 305.273V308.341H441.898V305.273H450.767ZM443.912 301.744H447.996V315.474C447.996 315.852 448.054 316.146 448.169 316.357C448.284 316.561 448.444 316.705 448.648 316.788C448.859 316.871 449.102 316.913 449.377 316.913C449.569 316.913 449.76 316.897 449.952 316.865C450.144 316.826 450.291 316.798 450.393 316.778L451.036 319.818C450.831 319.882 450.543 319.955 450.173 320.038C449.802 320.128 449.351 320.182 448.821 320.201C447.836 320.24 446.973 320.109 446.232 319.808C445.497 319.508 444.925 319.041 444.516 318.408C444.107 317.776 443.905 316.977 443.912 316.011V301.744ZM459.924 320.288C458.434 320.288 457.146 319.971 456.06 319.338C454.979 318.699 454.145 317.811 453.557 316.673C452.969 315.529 452.675 314.202 452.675 312.694C452.675 311.173 452.969 309.843 453.557 308.705C454.145 307.561 454.979 306.673 456.06 306.04C457.146 305.401 458.434 305.081 459.924 305.081C461.413 305.081 462.698 305.401 463.778 306.04C464.865 306.673 465.702 307.561 466.29 308.705C466.878 309.843 467.172 311.173 467.172 312.694C467.172 314.202 466.878 315.529 466.29 316.673C465.702 317.811 464.865 318.699 463.778 319.338C462.698 319.971 461.413 320.288 459.924 320.288ZM459.943 317.124C460.62 317.124 461.186 316.932 461.64 316.548C462.094 316.158 462.436 315.628 462.666 314.957C462.902 314.286 463.021 313.522 463.021 312.665C463.021 311.809 462.902 311.045 462.666 310.374C462.436 309.702 462.094 309.172 461.64 308.782C461.186 308.392 460.62 308.197 459.943 308.197C459.259 308.197 458.684 308.392 458.217 308.782C457.757 309.172 457.408 309.702 457.172 310.374C456.942 311.045 456.827 311.809 456.827 312.665C456.827 313.522 456.942 314.286 457.172 314.957C457.408 315.628 457.757 316.158 458.217 316.548C458.684 316.932 459.259 317.124 459.943 317.124ZM473.913 311.486V320H469.828V305.273H473.721V307.871H473.894C474.22 307.015 474.766 306.337 475.533 305.838C476.3 305.333 477.23 305.081 478.323 305.081C479.346 305.081 480.238 305.305 480.998 305.752C481.759 306.2 482.35 306.839 482.772 307.67C483.194 308.494 483.405 309.479 483.405 310.623V320H479.32V311.352C479.327 310.45 479.097 309.747 478.63 309.242C478.163 308.731 477.521 308.475 476.703 308.475C476.153 308.475 475.667 308.593 475.245 308.83C474.83 309.066 474.504 309.412 474.267 309.865C474.037 310.313 473.919 310.853 473.913 311.486Z" fill="black"/>
</g>
<g filter="url(#filter3_d_91_294)">
<rect x="320" y="335" width="171" height="31" rx="4" fill="#F7F7F7"/>
<rect x="320.5" y="335.5" width="170" height="30" rx="3.5" stroke="black"/>
</g>
<path d="M333.136 356H329.011V344.364H333.17C334.341 344.364 335.348 344.597 336.193 345.062C337.038 345.525 337.688 346.189 338.142 347.057C338.6 347.924 338.83 348.962 338.83 350.17C338.83 351.383 338.6 352.424 338.142 353.295C337.688 354.167 337.034 354.835 336.182 355.301C335.333 355.767 334.318 356 333.136 356ZM331.472 353.892H333.034C333.761 353.892 334.373 353.763 334.869 353.506C335.369 353.244 335.744 352.841 335.994 352.295C336.248 351.746 336.375 351.038 336.375 350.17C336.375 349.311 336.248 348.608 335.994 348.062C335.744 347.517 335.371 347.116 334.875 346.858C334.379 346.6 333.767 346.472 333.04 346.472H331.472V353.892ZM340.607 356V347.273H343.027V356H340.607ZM341.822 346.148C341.463 346.148 341.154 346.028 340.896 345.79C340.643 345.547 340.516 345.258 340.516 344.92C340.516 344.587 340.643 344.301 340.896 344.062C341.154 343.82 341.463 343.699 341.822 343.699C342.182 343.699 342.489 343.82 342.743 344.062C343 344.301 343.129 344.587 343.129 344.92C343.129 345.258 343 345.547 342.743 345.79C342.489 346.028 342.182 346.148 341.822 346.148ZM352.227 349.761L350.011 349.898C349.973 349.708 349.892 349.538 349.767 349.386C349.642 349.231 349.477 349.108 349.273 349.017C349.072 348.922 348.831 348.875 348.551 348.875C348.176 348.875 347.86 348.955 347.602 349.114C347.345 349.269 347.216 349.477 347.216 349.739C347.216 349.947 347.299 350.123 347.466 350.267C347.633 350.411 347.919 350.527 348.324 350.614L349.903 350.932C350.752 351.106 351.384 351.386 351.801 351.773C352.218 352.159 352.426 352.667 352.426 353.295C352.426 353.867 352.258 354.369 351.92 354.801C351.587 355.233 351.129 355.57 350.545 355.812C349.966 356.051 349.297 356.17 348.54 356.17C347.384 356.17 346.464 355.93 345.778 355.449C345.097 354.964 344.697 354.305 344.58 353.472L346.96 353.347C347.032 353.699 347.206 353.968 347.483 354.153C347.759 354.335 348.114 354.426 348.545 354.426C348.97 354.426 349.311 354.345 349.568 354.182C349.83 354.015 349.962 353.801 349.966 353.54C349.962 353.32 349.869 353.14 349.688 353C349.506 352.856 349.225 352.746 348.847 352.67L347.335 352.369C346.483 352.199 345.848 351.903 345.432 351.483C345.019 351.062 344.812 350.527 344.812 349.875C344.812 349.314 344.964 348.831 345.267 348.426C345.574 348.021 346.004 347.708 346.557 347.489C347.114 347.269 347.765 347.159 348.511 347.159C349.614 347.159 350.481 347.392 351.114 347.858C351.75 348.324 352.121 348.958 352.227 349.761ZM358.592 347.273V349.091H353.337V347.273H358.592ZM354.53 345.182H356.95V353.318C356.95 353.542 356.984 353.716 357.053 353.841C357.121 353.962 357.215 354.047 357.337 354.097C357.462 354.146 357.606 354.17 357.768 354.17C357.882 354.17 357.996 354.161 358.109 354.142C358.223 354.119 358.31 354.102 358.371 354.091L358.751 355.892C358.63 355.93 358.46 355.973 358.24 356.023C358.02 356.076 357.753 356.108 357.439 356.119C356.856 356.142 356.344 356.064 355.905 355.886C355.469 355.708 355.13 355.432 354.888 355.057C354.645 354.682 354.526 354.208 354.53 353.636V345.182ZM360.169 356V347.273H362.516V348.795H362.607C362.766 348.254 363.033 347.845 363.408 347.568C363.783 347.288 364.214 347.148 364.703 347.148C364.824 347.148 364.955 347.155 365.095 347.17C365.235 347.186 365.358 347.206 365.464 347.233V349.381C365.351 349.347 365.194 349.316 364.993 349.29C364.792 349.263 364.608 349.25 364.442 349.25C364.086 349.25 363.768 349.328 363.487 349.483C363.211 349.634 362.991 349.847 362.828 350.119C362.669 350.392 362.589 350.706 362.589 351.062V356H360.169ZM366.716 356V347.273H369.136V356H366.716ZM367.932 346.148C367.572 346.148 367.263 346.028 367.006 345.79C366.752 345.547 366.625 345.258 366.625 344.92C366.625 344.587 366.752 344.301 367.006 344.062C367.263 343.82 367.572 343.699 367.932 343.699C368.292 343.699 368.598 343.82 368.852 344.062C369.11 344.301 369.239 344.587 369.239 344.92C369.239 345.258 369.11 345.547 368.852 345.79C368.598 346.028 368.292 346.148 367.932 346.148ZM375.018 356.17C374.125 356.17 373.356 355.981 372.712 355.602C372.071 355.22 371.579 354.689 371.234 354.011C370.893 353.333 370.723 352.553 370.723 351.67C370.723 350.777 370.895 349.992 371.24 349.318C371.589 348.64 372.083 348.112 372.723 347.733C373.363 347.35 374.125 347.159 375.007 347.159C375.768 347.159 376.435 347.297 377.007 347.574C377.579 347.85 378.032 348.239 378.365 348.739C378.698 349.239 378.882 349.826 378.916 350.5H376.632C376.568 350.064 376.397 349.714 376.121 349.449C375.848 349.18 375.49 349.045 375.047 349.045C374.672 349.045 374.344 349.148 374.064 349.352C373.787 349.553 373.571 349.847 373.416 350.233C373.261 350.619 373.183 351.087 373.183 351.636C373.183 352.193 373.259 352.667 373.411 353.057C373.566 353.447 373.784 353.744 374.064 353.949C374.344 354.153 374.672 354.256 375.047 354.256C375.323 354.256 375.571 354.199 375.791 354.085C376.015 353.972 376.198 353.807 376.342 353.591C376.49 353.371 376.587 353.108 376.632 352.801H378.916C378.878 353.468 378.696 354.055 378.371 354.562C378.049 355.066 377.604 355.46 377.036 355.744C376.467 356.028 375.795 356.17 375.018 356.17ZM385.108 347.273V349.091H379.852V347.273H385.108ZM381.045 345.182H383.466V353.318C383.466 353.542 383.5 353.716 383.568 353.841C383.636 353.962 383.731 354.047 383.852 354.097C383.977 354.146 384.121 354.17 384.284 354.17C384.398 354.17 384.511 354.161 384.625 354.142C384.739 354.119 384.826 354.102 384.886 354.091L385.267 355.892C385.146 355.93 384.975 355.973 384.756 356.023C384.536 356.076 384.269 356.108 383.955 356.119C383.371 356.142 382.86 356.064 382.42 355.886C381.985 355.708 381.646 355.432 381.403 355.057C381.161 354.682 381.042 354.208 381.045 353.636V345.182ZM394.331 356.17C393.448 356.17 392.685 355.983 392.041 355.608C391.401 355.229 390.907 354.703 390.558 354.028C390.21 353.35 390.036 352.564 390.036 351.67C390.036 350.769 390.21 349.981 390.558 349.307C390.907 348.629 391.401 348.102 392.041 347.727C392.685 347.348 393.448 347.159 394.331 347.159C395.214 347.159 395.975 347.348 396.615 347.727C397.259 348.102 397.755 348.629 398.104 349.307C398.452 349.981 398.626 350.769 398.626 351.67C398.626 352.564 398.452 353.35 398.104 354.028C397.755 354.703 397.259 355.229 396.615 355.608C395.975 355.983 395.214 356.17 394.331 356.17ZM394.342 354.295C394.744 354.295 395.079 354.182 395.348 353.955C395.617 353.723 395.82 353.409 395.956 353.011C396.096 352.614 396.166 352.161 396.166 351.653C396.166 351.146 396.096 350.693 395.956 350.295C395.82 349.898 395.617 349.583 395.348 349.352C395.079 349.121 394.744 349.006 394.342 349.006C393.937 349.006 393.596 349.121 393.32 349.352C393.047 349.583 392.84 349.898 392.7 350.295C392.564 350.693 392.496 351.146 392.496 351.653C392.496 352.161 392.564 352.614 392.7 353.011C392.84 353.409 393.047 353.723 393.32 353.955C393.596 354.182 393.937 354.295 394.342 354.295ZM404.893 347.273V349.091H399.507V347.273H404.893ZM400.74 356V346.642C400.74 346.009 400.863 345.485 401.109 345.068C401.359 344.652 401.7 344.339 402.132 344.131C402.564 343.922 403.054 343.818 403.604 343.818C403.975 343.818 404.314 343.847 404.621 343.903C404.931 343.96 405.162 344.011 405.314 344.057L404.882 345.875C404.787 345.845 404.67 345.816 404.53 345.79C404.393 345.763 404.253 345.75 404.109 345.75C403.753 345.75 403.505 345.833 403.365 346C403.225 346.163 403.155 346.392 403.155 346.688V356H400.74ZM420.388 348.438H417.899C417.854 348.116 417.761 347.83 417.621 347.58C417.481 347.326 417.301 347.11 417.081 346.932C416.861 346.754 416.607 346.617 416.32 346.523C416.036 346.428 415.727 346.381 415.393 346.381C414.791 346.381 414.267 346.53 413.82 346.83C413.373 347.125 413.026 347.557 412.78 348.125C412.534 348.689 412.411 349.375 412.411 350.182C412.411 351.011 412.534 351.708 412.78 352.273C413.03 352.837 413.378 353.263 413.825 353.551C414.272 353.839 414.789 353.983 415.376 353.983C415.706 353.983 416.011 353.939 416.291 353.852C416.575 353.765 416.827 353.638 417.047 353.472C417.267 353.301 417.448 353.095 417.592 352.852C417.74 352.61 417.842 352.333 417.899 352.023L420.388 352.034C420.323 352.568 420.162 353.083 419.905 353.58C419.651 354.072 419.308 354.513 418.876 354.903C418.448 355.29 417.937 355.597 417.342 355.824C416.751 356.047 416.083 356.159 415.337 356.159C414.299 356.159 413.371 355.924 412.553 355.455C411.738 354.985 411.094 354.305 410.621 353.415C410.151 352.525 409.916 351.447 409.916 350.182C409.916 348.913 410.155 347.833 410.632 346.943C411.109 346.053 411.757 345.375 412.575 344.909C413.393 344.439 414.314 344.205 415.337 344.205C416.011 344.205 416.636 344.299 417.212 344.489C417.791 344.678 418.304 344.955 418.751 345.318C419.198 345.678 419.562 346.119 419.842 346.642C420.126 347.165 420.308 347.763 420.388 348.438ZM426.05 356.17C425.167 356.17 424.404 355.983 423.76 355.608C423.12 355.229 422.625 354.703 422.277 354.028C421.929 353.35 421.754 352.564 421.754 351.67C421.754 350.769 421.929 349.981 422.277 349.307C422.625 348.629 423.12 348.102 423.76 347.727C424.404 347.348 425.167 347.159 426.05 347.159C426.932 347.159 427.694 347.348 428.334 347.727C428.978 348.102 429.474 348.629 429.822 349.307C430.171 349.981 430.345 350.769 430.345 351.67C430.345 352.564 430.171 353.35 429.822 354.028C429.474 354.703 428.978 355.229 428.334 355.608C427.694 355.983 426.932 356.17 426.05 356.17ZM426.061 354.295C426.463 354.295 426.798 354.182 427.067 353.955C427.336 353.723 427.538 353.409 427.675 353.011C427.815 352.614 427.885 352.161 427.885 351.653C427.885 351.146 427.815 350.693 427.675 350.295C427.538 349.898 427.336 349.583 427.067 349.352C426.798 349.121 426.463 349.006 426.061 349.006C425.656 349.006 425.315 349.121 425.038 349.352C424.766 349.583 424.559 349.898 424.419 350.295C424.283 350.693 424.214 351.146 424.214 351.653C424.214 352.161 424.283 352.614 424.419 353.011C424.559 353.409 424.766 353.723 425.038 353.955C425.315 354.182 425.656 354.295 426.061 354.295ZM434.339 344.364V356H431.919V344.364H434.339ZM441.875 352.284V347.273H444.295V356H441.972V354.415H441.881C441.684 354.926 441.356 355.337 440.898 355.648C440.443 355.958 439.888 356.114 439.233 356.114C438.65 356.114 438.136 355.981 437.693 355.716C437.25 355.451 436.903 355.074 436.653 354.585C436.407 354.097 436.282 353.511 436.278 352.83V347.273H438.699V352.398C438.703 352.913 438.841 353.32 439.114 353.619C439.386 353.919 439.752 354.068 440.21 354.068C440.502 354.068 440.775 354.002 441.028 353.869C441.282 353.733 441.487 353.532 441.642 353.267C441.801 353.002 441.879 352.674 441.875 352.284ZM446.232 356V347.273H448.538V348.812H448.641C448.822 348.301 449.125 347.898 449.55 347.602C449.974 347.307 450.482 347.159 451.072 347.159C451.671 347.159 452.18 347.309 452.601 347.608C453.021 347.903 453.302 348.305 453.442 348.812H453.533C453.711 348.312 454.033 347.913 454.499 347.614C454.968 347.311 455.523 347.159 456.163 347.159C456.978 347.159 457.639 347.419 458.146 347.938C458.658 348.453 458.913 349.184 458.913 350.131V356H456.499V350.608C456.499 350.123 456.37 349.759 456.112 349.517C455.855 349.275 455.533 349.153 455.146 349.153C454.707 349.153 454.364 349.294 454.118 349.574C453.872 349.85 453.749 350.216 453.749 350.67V356H451.402V350.557C451.402 350.129 451.279 349.788 451.033 349.534C450.79 349.28 450.47 349.153 450.072 349.153C449.804 349.153 449.561 349.222 449.345 349.358C449.133 349.491 448.964 349.678 448.839 349.92C448.714 350.159 448.652 350.439 448.652 350.761V356H446.232ZM460.871 356V344.364H463.291V348.739H463.365C463.471 348.504 463.625 348.265 463.825 348.023C464.03 347.777 464.295 347.572 464.621 347.409C464.95 347.242 465.359 347.159 465.848 347.159C466.484 347.159 467.071 347.326 467.609 347.659C468.147 347.989 468.577 348.487 468.899 349.153C469.221 349.816 469.382 350.648 469.382 351.648C469.382 352.621 469.225 353.443 468.911 354.114C468.6 354.78 468.176 355.286 467.638 355.631C467.104 355.972 466.505 356.142 465.842 356.142C465.373 356.142 464.973 356.064 464.643 355.909C464.318 355.754 464.051 355.559 463.842 355.324C463.634 355.085 463.475 354.845 463.365 354.602H463.257V356H460.871ZM463.24 351.636C463.24 352.155 463.312 352.608 463.456 352.994C463.6 353.381 463.808 353.682 464.081 353.898C464.354 354.11 464.685 354.216 465.075 354.216C465.469 354.216 465.803 354.108 466.075 353.892C466.348 353.672 466.554 353.369 466.695 352.983C466.839 352.593 466.911 352.144 466.911 351.636C466.911 351.133 466.84 350.689 466.7 350.307C466.56 349.924 466.354 349.625 466.081 349.409C465.808 349.193 465.473 349.085 465.075 349.085C464.681 349.085 464.348 349.189 464.075 349.398C463.806 349.606 463.6 349.902 463.456 350.284C463.312 350.667 463.24 351.117 463.24 351.636ZM470.997 356V347.273H473.418V356H470.997ZM472.213 346.148C471.853 346.148 471.545 346.028 471.287 345.79C471.033 345.547 470.906 345.258 470.906 344.92C470.906 344.587 471.033 344.301 471.287 344.062C471.545 343.82 471.853 343.699 472.213 343.699C472.573 343.699 472.88 343.82 473.134 344.062C473.391 344.301 473.52 344.587 473.52 344.92C473.52 345.258 473.391 345.547 473.134 345.79C472.88 346.028 472.573 346.148 472.213 346.148ZM477.845 356.165C477.288 356.165 476.792 356.068 476.357 355.875C475.921 355.678 475.576 355.388 475.322 355.006C475.072 354.619 474.947 354.138 474.947 353.562C474.947 353.078 475.036 352.67 475.214 352.341C475.393 352.011 475.635 351.746 475.942 351.545C476.249 351.345 476.597 351.193 476.987 351.091C477.381 350.989 477.794 350.917 478.226 350.875C478.733 350.822 479.143 350.773 479.453 350.727C479.764 350.678 479.989 350.606 480.129 350.511C480.269 350.417 480.339 350.277 480.339 350.091V350.057C480.339 349.697 480.226 349.419 479.999 349.222C479.775 349.025 479.457 348.926 479.044 348.926C478.608 348.926 478.262 349.023 478.004 349.216C477.747 349.405 477.576 349.644 477.493 349.932L475.254 349.75C475.368 349.22 475.591 348.761 475.925 348.375C476.258 347.985 476.688 347.686 477.214 347.477C477.745 347.265 478.358 347.159 479.055 347.159C479.54 347.159 480.004 347.216 480.447 347.33C480.894 347.443 481.29 347.619 481.635 347.858C481.983 348.097 482.258 348.403 482.459 348.778C482.66 349.15 482.76 349.595 482.76 350.114V356H480.464V354.79H480.396C480.256 355.062 480.069 355.303 479.834 355.511C479.599 355.716 479.317 355.877 478.987 355.994C478.658 356.108 478.277 356.165 477.845 356.165ZM478.538 354.494C478.894 354.494 479.209 354.424 479.482 354.284C479.754 354.14 479.968 353.947 480.124 353.705C480.279 353.462 480.357 353.187 480.357 352.881V351.955C480.281 352.004 480.177 352.049 480.044 352.091C479.915 352.129 479.769 352.165 479.607 352.199C479.444 352.229 479.281 352.258 479.118 352.284C478.955 352.307 478.807 352.328 478.675 352.347C478.391 352.388 478.143 352.455 477.93 352.545C477.718 352.636 477.554 352.759 477.436 352.915C477.319 353.066 477.26 353.256 477.26 353.483C477.26 353.812 477.379 354.064 477.618 354.239C477.86 354.409 478.167 354.494 478.538 354.494Z" fill="black"/>
<path d="M674.454 561H671.079L680.122 543.545H684.025L687.281 561H683.906L681.562 547.125H681.426L674.454 561ZM675.699 554.156H684.903L684.477 556.696H675.272L675.699 554.156ZM697.342 547.909L696.941 550.295H689.424L689.816 547.909H697.342ZM692.186 544.773H695.271L693.225 557.062C693.163 557.477 693.174 557.795 693.26 558.017C693.35 558.233 693.495 558.381 693.694 558.46C693.899 558.54 694.129 558.58 694.385 558.58C694.572 558.58 694.748 558.565 694.913 558.537C695.078 558.503 695.208 558.477 695.305 558.46L695.441 560.872C695.254 560.929 695.001 560.991 694.683 561.06C694.37 561.128 693.995 561.168 693.558 561.179C692.774 561.196 692.092 561.077 691.512 560.821C690.939 560.56 690.518 560.159 690.251 559.619C689.99 559.074 689.93 558.392 690.072 557.574L692.186 544.773ZM704.005 543.545L701.107 561H698.022L700.919 543.545H704.005ZM708.012 561.264C707.183 561.264 706.461 561.116 705.848 560.821C705.234 560.52 704.782 560.077 704.493 559.491C704.208 558.906 704.137 558.185 704.279 557.327C704.404 556.588 704.643 555.977 704.995 555.494C705.353 555.011 705.791 554.625 706.308 554.335C706.831 554.04 707.399 553.818 708.012 553.67C708.632 553.523 709.262 553.415 709.904 553.347C710.689 553.267 711.322 553.193 711.805 553.125C712.294 553.057 712.66 552.955 712.904 552.818C713.149 552.676 713.297 552.46 713.348 552.17V552.119C713.45 551.477 713.348 550.98 713.041 550.628C712.734 550.276 712.223 550.099 711.507 550.099C710.757 550.099 710.126 550.264 709.615 550.594C709.103 550.923 708.731 551.312 708.498 551.761L705.703 551.352C706.055 550.557 706.538 549.892 707.152 549.358C707.765 548.818 708.473 548.415 709.274 548.148C710.081 547.875 710.941 547.739 711.856 547.739C712.481 547.739 713.092 547.812 713.689 547.96C714.291 548.108 714.822 548.352 715.282 548.693C715.748 549.028 716.089 549.486 716.305 550.065C716.527 550.645 716.564 551.369 716.416 552.239L714.958 561H711.993L712.299 559.202H712.197C711.953 559.565 711.635 559.906 711.243 560.224C710.85 560.537 710.385 560.79 709.845 560.983C709.305 561.17 708.694 561.264 708.012 561.264ZM709.18 558.997C709.799 558.997 710.356 558.875 710.85 558.631C711.345 558.381 711.751 558.051 712.069 557.642C712.387 557.233 712.586 556.787 712.666 556.304L712.922 554.761C712.808 554.841 712.632 554.915 712.393 554.983C712.154 555.051 711.887 555.111 711.592 555.162C711.302 555.213 711.015 555.259 710.731 555.298C710.447 555.338 710.203 555.372 709.998 555.401C709.527 555.463 709.095 555.565 708.703 555.707C708.316 555.849 707.995 556.048 707.74 556.304C707.49 556.554 707.333 556.878 707.271 557.276C707.18 557.838 707.314 558.267 707.672 558.562C708.029 558.852 708.532 558.997 709.18 558.997ZM722.424 553.33L721.163 561H718.069L720.251 547.909H723.208L722.833 550.134H722.995C723.404 549.401 723.978 548.818 724.717 548.386C725.456 547.955 726.316 547.739 727.299 547.739C728.191 547.739 728.941 547.932 729.549 548.318C730.157 548.699 730.589 549.259 730.845 549.997C731.1 550.73 731.14 551.619 730.964 552.665L729.566 561H726.481L727.785 553.142C727.933 552.273 727.822 551.591 727.453 551.097C727.089 550.597 726.504 550.347 725.697 550.347C725.157 550.347 724.66 550.466 724.206 550.705C723.751 550.937 723.368 551.276 723.055 551.719C722.748 552.162 722.538 552.699 722.424 553.33ZM741.404 547.909L741.004 550.295H733.487L733.879 547.909H741.404ZM736.248 544.773H739.333L737.288 557.062C737.225 557.477 737.237 557.795 737.322 558.017C737.413 558.233 737.558 558.381 737.757 558.46C737.961 558.54 738.191 558.58 738.447 558.58C738.635 558.58 738.811 558.565 738.975 558.537C739.14 558.503 739.271 558.477 739.368 558.46L739.504 560.872C739.316 560.929 739.064 560.991 738.745 561.06C738.433 561.128 738.058 561.168 737.62 561.179C736.836 561.196 736.154 561.077 735.575 560.821C735.001 560.56 734.581 560.159 734.314 559.619C734.052 559.074 733.993 558.392 734.135 557.574L736.248 544.773ZM741.803 561L743.985 547.909H747.07L744.888 561H741.803ZM745.979 546.034C745.485 546.034 745.076 545.869 744.752 545.54C744.428 545.21 744.286 544.815 744.326 544.355C744.365 543.895 744.573 543.5 744.948 543.17C745.328 542.841 745.763 542.676 746.252 542.676C746.746 542.676 747.152 542.841 747.471 543.17C747.794 543.5 747.936 543.895 747.897 544.355C747.863 544.815 747.655 545.21 747.275 545.54C746.9 545.869 746.468 546.034 745.979 546.034ZM753.737 561.256C752.43 561.256 751.356 560.969 750.515 560.395C749.674 559.821 749.086 559.028 748.751 558.017C748.422 557 748.368 555.83 748.589 554.506C748.805 553.176 749.251 552.003 749.927 550.986C750.609 549.963 751.467 549.168 752.501 548.599C753.535 548.026 754.691 547.739 755.97 547.739C757.032 547.739 757.939 547.935 758.689 548.327C759.444 548.713 760.007 549.261 760.376 549.972C760.751 550.676 760.896 551.5 760.811 552.443H757.853C757.842 551.812 757.646 551.287 757.265 550.866C756.885 550.44 756.328 550.227 755.595 550.227C754.958 550.227 754.373 550.398 753.839 550.739C753.305 551.074 752.853 551.557 752.484 552.188C752.115 552.818 751.859 553.574 751.717 554.455C751.569 555.347 751.572 556.114 751.725 556.756C751.885 557.392 752.172 557.884 752.586 558.23C753.007 558.571 753.538 558.741 754.18 558.741C754.635 558.741 755.058 558.656 755.45 558.486C755.842 558.31 756.186 558.057 756.481 557.727C756.782 557.398 757.018 556.997 757.189 556.526H760.137C759.904 557.452 759.49 558.273 758.893 558.989C758.302 559.699 757.569 560.256 756.694 560.659C755.819 561.057 754.833 561.256 753.737 561.256ZM696.595 581.477C696.288 583.33 695.683 584.909 694.78 586.216C693.882 587.517 692.786 588.514 691.49 589.207C690.2 589.895 688.811 590.239 687.322 590.239C685.76 590.239 684.419 589.875 683.3 589.148C682.18 588.415 681.374 587.366 680.879 586.003C680.391 584.639 680.305 583.003 680.624 581.094C680.93 579.247 681.533 577.668 682.43 576.355C683.328 575.043 684.428 574.04 685.729 573.347C687.03 572.653 688.433 572.307 689.939 572.307C691.49 572.307 692.82 572.673 693.928 573.406C695.041 574.134 695.842 575.182 696.331 576.551C696.825 577.92 696.913 579.562 696.595 581.477ZM693.484 581.094C693.695 579.804 693.675 578.716 693.425 577.83C693.18 576.943 692.746 576.276 692.121 575.827C691.496 575.372 690.726 575.145 689.811 575.145C688.822 575.145 687.908 575.392 687.067 575.886C686.232 576.375 685.521 577.091 684.936 578.034C684.357 578.977 683.959 580.125 683.743 581.477C683.516 582.773 683.53 583.861 683.786 584.741C684.041 585.622 684.484 586.287 685.115 586.736C685.746 587.179 686.516 587.401 687.425 587.401C688.408 587.401 689.317 587.156 690.152 586.668C690.987 586.179 691.695 585.466 692.274 584.528C692.859 583.591 693.263 582.446 693.484 581.094ZM703.71 590.256C702.403 590.256 701.329 589.969 700.488 589.395C699.647 588.821 699.059 588.028 698.724 587.017C698.394 586 698.34 584.83 698.562 583.506C698.778 582.176 699.224 581.003 699.9 579.986C700.582 578.963 701.44 578.168 702.474 577.599C703.508 577.026 704.664 576.739 705.942 576.739C707.005 576.739 707.911 576.935 708.661 577.327C709.417 577.713 709.979 578.261 710.349 578.972C710.724 579.676 710.869 580.5 710.783 581.443H707.826C707.815 580.812 707.619 580.287 707.238 579.866C706.857 579.44 706.3 579.227 705.567 579.227C704.931 579.227 704.346 579.398 703.812 579.739C703.278 580.074 702.826 580.557 702.457 581.188C702.087 581.818 701.832 582.574 701.69 583.455C701.542 584.347 701.545 585.114 701.698 585.756C701.857 586.392 702.144 586.884 702.559 587.23C702.979 587.571 703.511 587.741 704.153 587.741C704.607 587.741 705.031 587.656 705.423 587.486C705.815 587.31 706.158 587.057 706.454 586.727C706.755 586.398 706.991 585.997 707.161 585.526H710.11C709.877 586.452 709.462 587.273 708.866 587.989C708.275 588.699 707.542 589.256 706.667 589.659C705.792 590.057 704.806 590.256 703.71 590.256ZM717.646 590.256C716.334 590.256 715.249 589.983 714.391 589.438C713.533 588.886 712.93 588.108 712.584 587.102C712.243 586.091 712.186 584.901 712.413 583.531C712.635 582.185 713.087 581.003 713.768 579.986C714.45 578.963 715.303 578.168 716.325 577.599C717.354 577.026 718.49 576.739 719.734 576.739C720.541 576.739 721.283 576.869 721.959 577.131C722.635 577.386 723.206 577.784 723.672 578.324C724.138 578.864 724.459 579.551 724.635 580.386C724.811 581.216 724.803 582.205 724.609 583.352L724.464 584.298H713.726L714.058 582.219H721.831C721.933 581.628 721.899 581.102 721.729 580.642C721.558 580.176 721.274 579.81 720.876 579.543C720.479 579.276 719.982 579.142 719.385 579.142C718.777 579.142 718.209 579.298 717.68 579.611C717.158 579.918 716.717 580.315 716.359 580.804C716.001 581.293 715.774 581.807 715.678 582.347L715.328 584.341C715.203 585.159 715.232 585.827 715.413 586.344C715.595 586.861 715.913 587.241 716.368 587.486C716.822 587.73 717.396 587.852 718.089 587.852C718.544 587.852 718.964 587.79 719.351 587.665C719.737 587.54 720.081 587.352 720.382 587.102C720.689 586.847 720.945 586.534 721.149 586.165L723.97 586.489C723.658 587.25 723.2 587.915 722.598 588.483C721.996 589.045 721.274 589.483 720.433 589.795C719.598 590.102 718.669 590.256 717.646 590.256ZM729.868 590.264C729.038 590.264 728.317 590.116 727.703 589.821C727.089 589.52 726.638 589.077 726.348 588.491C726.064 587.906 725.993 587.185 726.135 586.327C726.26 585.588 726.499 584.977 726.851 584.494C727.209 584.011 727.646 583.625 728.163 583.335C728.686 583.04 729.254 582.818 729.868 582.67C730.487 582.523 731.118 582.415 731.76 582.347C732.544 582.267 733.178 582.193 733.661 582.125C734.149 582.057 734.516 581.955 734.76 581.818C735.004 581.676 735.152 581.46 735.203 581.17V581.119C735.305 580.477 735.203 579.98 734.896 579.628C734.589 579.276 734.078 579.099 733.362 579.099C732.612 579.099 731.982 579.264 731.47 579.594C730.959 579.923 730.587 580.312 730.354 580.761L727.558 580.352C727.911 579.557 728.393 578.892 729.007 578.358C729.621 577.818 730.328 577.415 731.129 577.148C731.936 576.875 732.797 576.739 733.712 576.739C734.337 576.739 734.947 576.812 735.544 576.96C736.146 577.108 736.678 577.352 737.138 577.693C737.604 578.028 737.945 578.486 738.161 579.065C738.382 579.645 738.419 580.369 738.271 581.239L736.814 590H733.848L734.155 588.202H734.053C733.808 588.565 733.49 588.906 733.098 589.224C732.706 589.537 732.24 589.79 731.7 589.983C731.161 590.17 730.55 590.264 729.868 590.264ZM731.036 587.997C731.655 587.997 732.212 587.875 732.706 587.631C733.2 587.381 733.607 587.051 733.925 586.642C734.243 586.233 734.442 585.787 734.521 585.304L734.777 583.761C734.663 583.841 734.487 583.915 734.249 583.983C734.01 584.051 733.743 584.111 733.447 584.162C733.158 584.213 732.871 584.259 732.587 584.298C732.303 584.338 732.058 584.372 731.854 584.401C731.382 584.463 730.95 584.565 730.558 584.707C730.172 584.849 729.851 585.048 729.595 585.304C729.345 585.554 729.189 585.878 729.126 586.276C729.036 586.838 729.169 587.267 729.527 587.562C729.885 587.852 730.388 587.997 731.036 587.997ZM744.28 582.33L743.018 590H739.925L742.107 576.909H745.064L744.689 579.134H744.851C745.26 578.401 745.834 577.818 746.572 577.386C747.311 576.955 748.172 576.739 749.155 576.739C750.047 576.739 750.797 576.932 751.405 577.318C752.013 577.699 752.445 578.259 752.7 578.997C752.956 579.73 752.996 580.619 752.82 581.665L751.422 590H748.337L749.641 582.142C749.788 581.273 749.678 580.591 749.308 580.097C748.945 579.597 748.359 579.347 747.553 579.347C747.013 579.347 746.516 579.466 746.061 579.705C745.607 579.937 745.223 580.276 744.911 580.719C744.604 581.162 744.393 581.699 744.28 582.33Z" fill="#017D83"/>
<defs>
<filter id="filter0_d_91_294" x="85.6631" y="109.579" width="823.954" height="436.079" filterUnits="userSpaceOnUse" color-interpolation-filters="sRGB">
<feFlood flood-opacity="0" result="BackgroundImageFix"/>
<feColorMatrix in="SourceAlpha" type="matrix" values="0 0 0 0 0 0 0 0 0 0 0 0 0 0 0 0 0 0 127 0" result="hardAlpha"/>
<feOffset dy="4"/>
<feGaussianBlur stdDeviation="2"/>
<feComposite in2="hardAlpha" operator="out"/>
<feColorMatrix type="matrix" values="0 0 0 0 0 0 0 0 0 0 0 0 0 0 0 0 0 0 0.25 0"/>
<feBlend mode="normal" in2="BackgroundImageFix" result="effect1_dropShadow_91_294"/>
<feBlend mode="normal" in="SourceGraphic" in2="effect1_dropShadow_91_294" result="shape"/>
</filter>
<filter id="filter1_d_91_294" x="515.947" y="284.566" width="54.3672" height="54.3672" filterUnits="userSpaceOnUse" color-interpolation-filters="sRGB">
<feFlood flood-opacity="0" result="BackgroundImageFix"/>
<feColorMatrix in="SourceAlpha" type="matrix" values="0 0 0 0 0 0 0 0 0 0 0 0 0 0 0 0 0 0 127 0" result="hardAlpha"/>
<feOffset dy="4"/>
<feGaussianBlur stdDeviation="2"/>
<feComposite in2="hardAlpha" operator="out"/>
<feColorMatrix type="matrix" values="0 0 0 0 0 0 0 0 0 0 0 0 0 0 0 0 0 0 0.25 0"/>
<feBlend mode="normal" in2="BackgroundImageFix" result="effect1_dropShadow_91_294"/>
<feBlend mode="normal" in="SourceGraphic" in2="effect1_dropShadow_91_294" result="shape"/>
</filter>
<filter id="filter2_d_91_294" x="308" y="288.079" width="195" height="51.3289" filterUnits="userSpaceOnUse" color-interpolation-filters="sRGB">
<feFlood flood-opacity="0" result="BackgroundImageFix"/>
<feColorMatrix in="SourceAlpha" type="matrix" values="0 0 0 0 0 0 0 0 0 0 0 0 0 0 0 0 0 0 127 0" result="hardAlpha"/>
<feOffset dy="4"/>
<feGaussianBlur stdDeviation="2"/>
<feComposite in2="hardAlpha" operator="out"/>
<feColorMatrix type="matrix" values="0 0 0 0 0 0 0 0 0 0 0 0 0 0 0 0 0 0 0.25 0"/>
<feBlend mode="normal" in2="BackgroundImageFix" result="effect1_dropShadow_91_294"/>
<feBlend mode="normal" in="SourceGraphic" in2="effect1_dropShadow_91_294" result="shape"/>
</filter>
<filter id="filter3_d_91_294" x="316" y="335" width="179" height="39" filterUnits="userSpaceOnUse" color-interpolation-filters="sRGB">
<feFlood flood-opacity="0" result="BackgroundImageFix"/>
<feColorMatrix in="SourceAlpha" type="matrix" values="0 0 0 0 0 0 0 0 0 0 0 0 0 0 0 0 0 0 127 0" result="hardAlpha"/>
<feOffset dy="4"/>
<feGaussianBlur stdDeviation="2"/>
<feComposite in2="hardAlpha" operator="out"/>
<feColorMatrix type="matrix" values="0 0 0 0 0 0 0 0 0 0 0 0 0 0 0 0 0 0 0.25 0"/>
<feBlend mode="normal" in2="BackgroundImageFix" result="effect1_dropShadow_91_294"/>
<feBlend mode="normal" in="SourceGraphic" in2="effect1_dropShadow_91_294" result="shape"/>
</filter>
</defs>
</svg>
