<svg width="734" height="769" viewBox="0 0 734 769" fill="none" xmlns="http://www.w3.org/2000/svg">
<rect x="0.5" y="0.5" width="733" height="768" rx="35.5" fill="#97DCFF" stroke="#717171"/>
<g filter="url(#filter0_d_153_133)">
<path d="M255 78.5H108L108.5 85.5L110.5 89.5L113 92.5L111.5 99L115 103.5L116 107L119 114.5L117 121L113 130.5L114 133.5L117 142L116 148.5V152.5L117 161.5L116 169V178L118.5 185.5L120.5 190.5L122.5 201.5L125 204.5L128.5 215.5L133.5 229L135.5 235L138 240L137 248L138 250L137 260.5L138 263V266.5L139.5 270.5L138 278.5L139.5 282.5V286V290L140.5 293.5V302L139.5 307L140.5 309.5L142.5 313L145 317.5L144 324L142.5 328.5V332.5V348L146.5 354.5V362L149 366.5V371L151 374L153 378.5L157.5 382V387.5L158.5 400.5L161 409L160 413L158.5 417.5L160 425.5L158.5 435L156.5 440.5L153 445L149 450L143 452.5L138 456L139.5 458L138 460.5V464.5L140.5 466L141.5 467L146.5 478L151 483.5H154L157.5 485L164 487.5L168 494.5V689H569.5L567.5 681L566 673.5L567.5 662.5V657.5L561.5 646L552 635L538.5 631L530 622.5L520.5 616L519 609.5C518.167 607.167 516.4 602 516 600C515.6 598 511.833 596.167 510 595.5L498.5 590.5L487.5 584.5L483.5 577C481 577.167 475.6 577.4 474 577C472.4 576.6 468.667 575.167 467 574.5L448.5 554C449.167 551.667 450.8 546.6 452 545C453.2 543.4 451.5 540.333 450.5 539L452 532.5L450.5 527.5L448.5 521L454 515.5L452 510.5L450.5 498L457 492C456.5 491.333 455.8 489.7 457 488.5C458.2 487.3 459.5 485.667 460 485V480L454.5 474L454 471L452 467.5H450.5L443 465C442.667 461.167 442.2 453.1 443 451.5C443.8 449.9 448.333 445.833 450.5 444V437C451.5 436.167 453.9 433.9 455.5 431.5C457.1 429.1 459.833 427.5 461 427L469.5 424V421.5H473.5L475.5 416H482.5L487.5 409.5V346H494.5V341L498 337L502.5 332L511.5 323.5L532.5 308L548.5 294L564 277.5L580.5 258L598 245L614 234L630.5 225C633 224.167 638.2 222.4 639 222C639.8 221.6 647.667 218.833 651.5 217.5C655.333 216.167 663.2 213.5 664 213.5C664.8 213.5 670 209.833 672.5 208C674.5 207.5 678.7 206.4 679.5 206C680.5 205.5 686 202.5 687.5 201.5C688.7 200.7 688 198.833 687.5 198L689 196L694 195C694.333 194.833 695 194.3 695 193.5C695 192.7 693.667 192.167 693 192L689 193L681 191.5C678.5 192.667 673.3 195.2 672.5 196C671.7 196.8 670.833 195.667 670.5 195L668 192L667 193L664 190.5L663 186.5L661 183.5L653.5 181L639 182.5L634.5 183.5L632 182.5H630.5H628.5H627L626 183H620.5C620.333 182.5 620 181.4 620 181C620 180.6 619 180.167 618.5 180L614 182.5L607 183.5C606.5 183.5 605.4 183.3 605 182.5C604.6 181.7 603.167 179.833 602.5 179C602.667 178.333 603.1 176.8 603.5 176C603.9 175.2 602.333 174.667 601.5 174.5L599 173.5L598 166.5L594.5 165.5L584 173L576.5 176L566.5 184.5L560.5 186L552.5 188.5V187L548.5 186L543 189.5V186C543.333 185 544.1 182.6 544.5 181C544.9 179.4 539.667 181.667 537 183V181H532.5V176V173L530 171H526.5L524.5 170L520 171L518.5 167.5H514C512.8 167.5 512.833 166.167 513 165.5L511.5 166.5L509.5 164V157.5C509.5 156.3 507.167 156 506 156V153L498 152.5L494.5 154.5L489.5 153L486.5 157.5L487.5 162.5L489 165.5L482 169L473.5 152.5L475 147L471.5 143L464 144H460.5C459.5 143.667 457.4 143 457 143C456.6 143 456.167 141.667 456 141L456.5 138C457.833 137.333 460.5 135.9 460.5 135.5V132.5H456.5C455.5 132.5 451 133 449.5 132.5C448 132 445 132 444 132C443.2 132 439 130.333 437 129.5L436.5 128C437.333 127.167 439 125.4 439 125C439 124.6 438.333 124.833 438 125L435 126C434 125.667 431.9 125 431.5 125C431.1 125 429.333 125.667 428.5 126H423.5L422.5 128C423.167 128.333 424.6 129.1 425 129.5C425.5 130 425 131 423.5 131.5C422 132 421 131.5 420 131.5C419 131.5 418 129.5 418.5 129.5C418.9 129.5 420.667 127.167 421.5 126L417 121.5H411.5L405.5 123L397.5 126C397.5 127.667 397.4 131.1 397 131.5C396.5 132 387.5 133.5 387 133.5H385C384.167 133.833 382.4 134.5 382 134.5C381.5 134.5 374 135 372.5 134.5C371 134 371 134 371 133.5C371 133.1 370.667 128.333 370.5 126L368 121.5L337 119L336.5 114.5L334 113H326.5H322.5H316L308.5 109L303 103.5V97H300.5L293 94.5L287.5 91L285.5 85L282.5 81.5H279L273.5 85L270.5 91L264.5 92.5L259 91L255 85V78.5Z" fill="#FFD597"/>
<path d="M269 57L268 34H269L273.5 35.5L276.5 38L281 37L284.5 39L285.5 42.5L284.5 47L283.5 54C282.667 54.6667 280.8 56.2 280 57C279.2 57.8 275.333 58.6667 273.5 59L271.5 60.5L269 57Z" fill="#FFD597"/>
<path d="M255 78.5H108L108.5 85.5L110.5 89.5L113 92.5L111.5 99L115 103.5L116 107L119 114.5L117 121L113 130.5L114 133.5L117 142L116 148.5V152.5L117 161.5L116 169V178L118.5 185.5L120.5 190.5L122.5 201.5L125 204.5L128.5 215.5L133.5 229L135.5 235L138 240L137 248L138 250L137 260.5L138 263V266.5L139.5 270.5L138 278.5L139.5 282.5V286V290L140.5 293.5V302L139.5 307L140.5 309.5L142.5 313L145 317.5L144 324L142.5 328.5V332.5V348L146.5 354.5V362L149 366.5V371L151 374L153 378.5L157.5 382V387.5L158.5 400.5L161 409L160 413L158.5 417.5L160 425.5L158.5 435L156.5 440.5L153 445L149 450L143 452.5L138 456L139.5 458L138 460.5V464.5L140.5 466L141.5 467L146.5 478L151 483.5H154L157.5 485L164 487.5L168 494.5V689H569.5L567.5 681L566 673.5L567.5 662.5V657.5L561.5 646L552 635L538.5 631L530 622.5L520.5 616L519 609.5C518.167 607.167 516.4 602 516 600C515.6 598 511.833 596.167 510 595.5L498.5 590.5L487.5 584.5L483.5 577C481 577.167 475.6 577.4 474 577C472.4 576.6 468.667 575.167 467 574.5L448.5 554C449.167 551.667 450.8 546.6 452 545C453.2 543.4 451.5 540.333 450.5 539L452 532.5L450.5 527.5L448.5 521L454 515.5L452 510.5L450.5 498L457 492C456.5 491.333 455.8 489.7 457 488.5C458.2 487.3 459.5 485.667 460 485V480L454.5 474L454 471L452 467.5H450.5L443 465C442.667 461.167 442.2 453.1 443 451.5C443.8 449.9 448.333 445.833 450.5 444V437C451.5 436.167 453.9 433.9 455.5 431.5C457.1 429.1 459.833 427.5 461 427L469.5 424V421.5H473.5L475.5 416H482.5L487.5 409.5V346H494.5V341L498 337L502.5 332L511.5 323.5L532.5 308L548.5 294L564 277.5L580.5 258L598 245L614 234L630.5 225C633 224.167 638.2 222.4 639 222C639.8 221.6 647.667 218.833 651.5 217.5C655.333 216.167 663.2 213.5 664 213.5C664.8 213.5 670 209.833 672.5 208C674.5 207.5 678.7 206.4 679.5 206C680.5 205.5 686 202.5 687.5 201.5C688.7 200.7 688 198.833 687.5 198L689 196L694 195C694.333 194.833 695 194.3 695 193.5C695 192.7 693.667 192.167 693 192L689 193L681 191.5C678.5 192.667 673.3 195.2 672.5 196C671.7 196.8 670.833 195.667 670.5 195L668 192L667 193L664 190.5L663 186.5L661 183.5L653.5 181L639 182.5L634.5 183.5L632 182.5H630.5H628.5H627L626 183H620.5C620.333 182.5 620 181.4 620 181C620 180.6 619 180.167 618.5 180L614 182.5L607 183.5C606.5 183.5 605.4 183.3 605 182.5C604.6 181.7 603.167 179.833 602.5 179C602.667 178.333 603.1 176.8 603.5 176C603.9 175.2 602.333 174.667 601.5 174.5L599 173.5L598 166.5L594.5 165.5L584 173L576.5 176L566.5 184.5L560.5 186L552.5 188.5V187L548.5 186L543 189.5V186C543.333 185 544.1 182.6 544.5 181C544.9 179.4 539.667 181.667 537 183V181H532.5V176V173L530 171H526.5L524.5 170L520 171L518.5 167.5H514C512.8 167.5 512.833 166.167 513 165.5L511.5 166.5L509.5 164V157.5C509.5 156.3 507.167 156 506 156V153L498 152.5L494.5 154.5L489.5 153L486.5 157.5L487.5 162.5L489 165.5L482 169L473.5 152.5L475 147L471.5 143L464 144H460.5C459.5 143.667 457.4 143 457 143C456.6 143 456.167 141.667 456 141L456.5 138C457.833 137.333 460.5 135.9 460.5 135.5V132.5H456.5C455.5 132.5 451 133 449.5 132.5C448 132 445 132 444 132C443.2 132 439 130.333 437 129.5L436.5 128C437.333 127.167 439 125.4 439 125C439 124.6 438.333 124.833 438 125L435 126C434 125.667 431.9 125 431.5 125C431.1 125 429.333 125.667 428.5 126H423.5L422.5 128C423.167 128.333 424.6 129.1 425 129.5C425.5 130 425 131 423.5 131.5C422 132 421 131.5 420 131.5C419 131.5 418 129.5 418.5 129.5C418.9 129.5 420.667 127.167 421.5 126L417 121.5H411.5L405.5 123L397.5 126C397.5 127.667 397.4 131.1 397 131.5C396.5 132 387.5 133.5 387 133.5H385C384.167 133.833 382.4 134.5 382 134.5C381.5 134.5 374 135 372.5 134.5C371 134 371 134 371 133.5C371 133.1 370.667 128.333 370.5 126L368 121.5L337 119L336.5 114.5L334 113H326.5H322.5H316L308.5 109L303 103.5V97H300.5L293 94.5L287.5 91L285.5 85L282.5 81.5H279L273.5 85L270.5 91L264.5 92.5L259 91L255 85V78.5Z" stroke="black"/>
<path d="M269 57L268 34H269L273.5 35.5L276.5 38L281 37L284.5 39L285.5 42.5L284.5 47L283.5 54C282.667 54.6667 280.8 56.2 280 57C279.2 57.8 275.333 58.6667 273.5 59L271.5 60.5L269 57Z" stroke="black"/>
</g>
<path d="M98.0653 278.545V296H95.2528L87.0284 284.111H86.8835V296H83.7216V278.545H86.5511L94.767 290.443H94.9205V278.545H98.0653ZM107.425 296H101.511V278.545H107.545C109.278 278.545 110.766 278.895 112.011 279.594C113.261 280.287 114.221 281.284 114.891 282.585C115.562 283.886 115.897 285.443 115.897 287.256C115.897 289.074 115.559 290.636 114.883 291.943C114.212 293.25 113.244 294.253 111.977 294.952C110.715 295.651 109.198 296 107.425 296ZM104.673 293.264H107.272C108.488 293.264 109.502 293.043 110.315 292.599C111.127 292.151 111.738 291.483 112.147 290.597C112.556 289.705 112.761 288.591 112.761 287.256C112.761 285.92 112.556 284.812 112.147 283.932C111.738 283.045 111.133 282.384 110.332 281.946C109.536 281.503 108.548 281.281 107.366 281.281H104.673V293.264Z" fill="#005A5E"/>
<path d="M97.2074 555.344C97.1278 554.599 96.7926 554.02 96.2017 553.605C95.6165 553.19 94.8551 552.983 93.9176 552.983C93.2585 552.983 92.6932 553.082 92.2216 553.281C91.75 553.48 91.3892 553.75 91.1392 554.091C90.8892 554.432 90.7614 554.821 90.7557 555.259C90.7557 555.622 90.8381 555.937 91.0028 556.205C91.1733 556.472 91.4034 556.699 91.6932 556.886C91.983 557.068 92.304 557.222 92.6562 557.347C93.0085 557.472 93.3636 557.577 93.7216 557.662L95.358 558.071C96.017 558.224 96.6506 558.432 97.2585 558.693C97.8722 558.955 98.4205 559.284 98.9034 559.682C99.392 560.08 99.7784 560.56 100.062 561.122C100.347 561.685 100.489 562.344 100.489 563.099C100.489 564.122 100.227 565.023 99.7045 565.801C99.1818 566.574 98.4261 567.179 97.4375 567.616C96.4545 568.048 95.2642 568.264 93.8665 568.264C92.5085 568.264 91.3295 568.054 90.3295 567.634C89.3352 567.213 88.5568 566.599 87.9943 565.793C87.4375 564.986 87.1364 564.003 87.0909 562.844H90.2017C90.2472 563.452 90.4347 563.957 90.7642 564.361C91.0938 564.764 91.5227 565.065 92.0511 565.264C92.5852 565.463 93.1818 565.562 93.8409 565.562C94.5284 565.562 95.1307 565.46 95.6477 565.256C96.1705 565.045 96.5795 564.756 96.875 564.386C97.1705 564.011 97.321 563.574 97.3267 563.074C97.321 562.619 97.1875 562.244 96.9261 561.949C96.6648 561.648 96.2983 561.398 95.8267 561.199C95.3608 560.994 94.8153 560.812 94.1903 560.653L92.2045 560.142C90.767 559.773 89.6307 559.213 88.7955 558.463C87.9659 557.707 87.5511 556.705 87.5511 555.455C87.5511 554.426 87.8295 553.526 88.3864 552.753C88.9489 551.98 89.7131 551.381 90.679 550.955C91.6449 550.523 92.7386 550.307 93.9602 550.307C95.1989 550.307 96.2841 550.523 97.2159 550.955C98.1534 551.381 98.8892 551.974 99.4233 552.736C99.9574 553.491 100.233 554.361 100.25 555.344H97.2074ZM109.222 568H103.308V550.545H109.342C111.075 550.545 112.563 550.895 113.808 551.594C115.058 552.287 116.018 553.284 116.688 554.585C117.359 555.886 117.694 557.443 117.694 559.256C117.694 561.074 117.356 562.636 116.68 563.943C116.009 565.25 115.04 566.253 113.773 566.952C112.512 567.651 110.995 568 109.222 568ZM106.469 565.264H109.069C110.285 565.264 111.299 565.043 112.112 564.599C112.924 564.151 113.535 563.483 113.944 562.597C114.353 561.705 114.558 560.591 114.558 559.256C114.558 557.92 114.353 556.812 113.944 555.932C113.535 555.045 112.93 554.384 112.129 553.946C111.333 553.503 110.344 553.281 109.163 553.281H106.469V565.264Z" fill="#005A5E"/>
<path d="M345.884 715.545V733H342.722V715.545H345.884ZM351.549 733H348.174L354.319 715.545H358.222L364.376 733H361.001L356.339 719.125H356.202L351.549 733ZM351.66 726.156H360.864V728.696H351.66V726.156Z" fill="#005A5E"/>
<path d="M541.395 487L536.469 469.545H539.869L543.014 482.372H543.176L546.534 469.545H549.628L552.994 482.381H553.148L556.293 469.545H559.693L554.767 487H551.648L548.153 474.753H548.017L544.514 487H541.395ZM565.048 469.545V487H561.886V469.545H565.048Z" fill="#005A5E"/>
<circle cx="428.511" cy="538.511" r="9.01136" fill="#FF8F87" stroke="black"/>
<path d="M365.444 559.047C365.373 558.331 365.068 557.775 364.529 557.378C363.991 556.982 363.26 556.783 362.336 556.783C361.709 556.783 361.179 556.872 360.747 557.05C360.315 557.221 359.984 557.461 359.753 557.769C359.528 558.077 359.415 558.426 359.415 558.816C359.404 559.142 359.472 559.426 359.62 559.669C359.774 559.911 359.984 560.121 360.25 560.299C360.516 560.471 360.824 560.622 361.173 560.752C361.522 560.876 361.895 560.983 362.292 561.071L363.925 561.462C364.719 561.64 365.446 561.876 366.109 562.172C366.772 562.468 367.346 562.832 367.832 563.264C368.317 563.696 368.693 564.205 368.959 564.791C369.231 565.377 369.371 566.049 369.376 566.806C369.371 567.919 369.086 568.884 368.524 569.701C367.968 570.511 367.163 571.142 366.109 571.592C365.062 572.036 363.798 572.257 362.319 572.257C360.851 572.257 359.572 572.033 358.483 571.583C357.4 571.133 356.554 570.467 355.944 569.585C355.341 568.697 355.024 567.6 354.994 566.292H358.714C358.756 566.901 358.93 567.41 359.238 567.819C359.552 568.221 359.969 568.526 360.49 568.733C361.016 568.934 361.611 569.035 362.274 569.035C362.925 569.035 363.49 568.94 363.97 568.751C364.455 568.561 364.831 568.298 365.097 567.961C365.364 567.623 365.497 567.236 365.497 566.798C365.497 566.389 365.375 566.046 365.133 565.768C364.896 565.49 364.547 565.253 364.085 565.058C363.629 564.862 363.07 564.685 362.407 564.525L360.428 564.028C358.895 563.655 357.684 563.072 356.797 562.279C355.909 561.486 355.468 560.417 355.474 559.074C355.468 557.973 355.761 557.011 356.353 556.189C356.95 555.366 357.77 554.724 358.812 554.262C359.853 553.8 361.037 553.57 362.363 553.57C363.712 553.57 364.89 553.8 365.896 554.262C366.908 554.724 367.696 555.366 368.258 556.189C368.82 557.011 369.11 557.964 369.128 559.047H365.444ZM379.144 558.364V561.205H370.932V558.364H379.144ZM372.797 555.097H376.579V567.81C376.579 568.159 376.632 568.431 376.738 568.626C376.845 568.816 376.993 568.949 377.182 569.026C377.378 569.103 377.602 569.141 377.857 569.141C378.035 569.141 378.212 569.127 378.39 569.097C378.567 569.061 378.703 569.035 378.798 569.017L379.393 571.831C379.203 571.891 378.937 571.959 378.594 572.036C378.251 572.118 377.833 572.169 377.342 572.186C376.431 572.222 375.632 572.101 374.945 571.822C374.264 571.544 373.735 571.112 373.356 570.526C372.977 569.94 372.791 569.201 372.797 568.307V555.097ZM383.818 572.231C383.233 572.231 382.729 572.024 382.309 571.609C381.895 571.189 381.688 570.686 381.688 570.1C381.688 569.52 381.895 569.023 382.309 568.609C382.729 568.194 383.233 567.987 383.818 567.987C384.387 567.987 384.884 568.194 385.31 568.609C385.736 569.023 385.949 569.52 385.949 570.1C385.949 570.491 385.849 570.849 385.647 571.174C385.452 571.494 385.195 571.751 384.875 571.947C384.555 572.136 384.203 572.231 383.818 572.231ZM394.057 572V553.818H401.23C402.609 553.818 403.784 554.082 404.755 554.608C405.725 555.129 406.465 555.854 406.974 556.783C407.489 557.707 407.746 558.772 407.746 559.979C407.746 561.187 407.486 562.252 406.965 563.175C406.444 564.099 405.69 564.818 404.701 565.333C403.719 565.848 402.529 566.105 401.132 566.105H396.56V563.025H400.511C401.251 563.025 401.86 562.897 402.34 562.643C402.825 562.382 403.186 562.024 403.423 561.569C403.666 561.107 403.787 560.577 403.787 559.979C403.787 559.376 403.666 558.849 403.423 558.399C403.186 557.943 402.825 557.591 402.34 557.343C401.855 557.088 401.239 556.961 400.493 556.961H397.901V572H394.057ZM413.695 572.257C412.825 572.257 412.049 572.107 411.369 571.805C410.688 571.497 410.149 571.044 409.753 570.446C409.362 569.843 409.167 569.091 409.167 568.191C409.167 567.434 409.306 566.798 409.584 566.283C409.862 565.768 410.241 565.353 410.721 565.04C411.2 564.726 411.744 564.489 412.354 564.33C412.97 564.17 413.615 564.057 414.289 563.992C415.083 563.909 415.722 563.832 416.207 563.761C416.692 563.684 417.045 563.572 417.263 563.424C417.482 563.276 417.592 563.057 417.592 562.767V562.714C417.592 562.152 417.414 561.717 417.059 561.409C416.71 561.101 416.213 560.947 415.568 560.947C414.887 560.947 414.346 561.098 413.943 561.4C413.541 561.696 413.274 562.069 413.144 562.518L409.646 562.234C409.824 561.406 410.173 560.69 410.694 560.086C411.215 559.476 411.886 559.009 412.709 558.683C413.538 558.352 414.497 558.186 415.586 558.186C416.343 558.186 417.068 558.275 417.761 558.452C418.459 558.63 419.078 558.905 419.616 559.278C420.161 559.651 420.59 560.13 420.903 560.716C421.217 561.296 421.374 561.992 421.374 562.803V572H417.787V570.109H417.681C417.462 570.535 417.169 570.911 416.802 571.237C416.435 571.556 415.994 571.808 415.479 571.991C414.964 572.169 414.369 572.257 413.695 572.257ZM414.778 569.647C415.334 569.647 415.825 569.538 416.251 569.319C416.678 569.094 417.012 568.792 417.255 568.413C417.497 568.035 417.619 567.605 417.619 567.126V565.679C417.5 565.756 417.337 565.827 417.13 565.892C416.929 565.951 416.701 566.007 416.447 566.061C416.192 566.108 415.938 566.152 415.683 566.194C415.429 566.229 415.198 566.262 414.991 566.292C414.547 566.357 414.159 566.46 413.828 566.602C413.496 566.744 413.239 566.937 413.055 567.179C412.872 567.416 412.78 567.712 412.78 568.067C412.78 568.582 412.967 568.976 413.339 569.248C413.718 569.514 414.198 569.647 414.778 569.647ZM433.053 566.194V558.364H436.835V572H433.204V569.523H433.062C432.754 570.322 432.242 570.964 431.526 571.45C430.816 571.935 429.948 572.178 428.925 572.178C428.013 572.178 427.211 571.97 426.519 571.556C425.826 571.142 425.285 570.553 424.894 569.789C424.509 569.026 424.314 568.112 424.308 567.046V558.364H428.09V566.371C428.096 567.176 428.312 567.813 428.738 568.28C429.164 568.748 429.735 568.982 430.452 568.982C430.907 568.982 431.333 568.878 431.73 568.671C432.126 568.458 432.446 568.144 432.689 567.73C432.937 567.315 433.059 566.804 433.053 566.194ZM443.642 553.818V572H439.86V553.818H443.642Z" fill="black"/>
<path d="M260.202 518.818H262.83L269.009 533.911H269.222L275.401 518.818H278.028V537H275.969V523.186H275.791L270.109 537H268.121L262.439 523.186H262.261V537H260.202V518.818ZM282.159 537V523.364H284.254V537H282.159ZM283.224 521.091C282.816 521.091 282.464 520.952 282.168 520.674C281.878 520.395 281.733 520.061 281.733 519.67C281.733 519.28 281.878 518.945 282.168 518.667C282.464 518.389 282.816 518.25 283.224 518.25C283.633 518.25 283.982 518.389 284.272 518.667C284.568 518.945 284.716 519.28 284.716 519.67C284.716 520.061 284.568 520.395 284.272 520.674C283.982 520.952 283.633 521.091 283.224 521.091ZM290.187 528.797V537H288.091V523.364H290.116V525.494H290.293C290.613 524.802 291.098 524.246 291.749 523.825C292.4 523.399 293.241 523.186 294.27 523.186C295.194 523.186 296.002 523.375 296.694 523.754C297.387 524.127 297.925 524.695 298.31 525.459C298.695 526.216 298.887 527.175 298.887 528.335V537H296.792V528.477C296.792 527.406 296.514 526.571 295.957 525.974C295.401 525.37 294.637 525.068 293.667 525.068C292.998 525.068 292.4 525.213 291.873 525.503C291.353 525.793 290.941 526.216 290.639 526.773C290.338 527.329 290.187 528.004 290.187 528.797ZM304.811 528.797V537H302.715V523.364H304.74V525.494H304.917C305.237 524.802 305.722 524.246 306.373 523.825C307.024 523.399 307.865 523.186 308.894 523.186C309.818 523.186 310.626 523.375 311.318 523.754C312.011 524.127 312.549 524.695 312.934 525.459C313.319 526.216 313.511 527.175 313.511 528.335V537H311.416V528.477C311.416 527.406 311.138 526.571 310.581 525.974C310.025 525.37 309.261 525.068 308.291 525.068C307.622 525.068 307.024 525.213 306.497 525.503C305.977 525.793 305.565 526.216 305.263 526.773C304.962 527.329 304.811 528.004 304.811 528.797ZM323.057 537.284C321.743 537.284 320.609 536.994 319.657 536.414C318.71 535.828 317.979 535.011 317.464 533.964C316.955 532.91 316.7 531.685 316.7 530.288C316.7 528.892 316.955 527.661 317.464 526.595C317.979 525.524 318.695 524.689 319.612 524.092C320.536 523.488 321.613 523.186 322.844 523.186C323.554 523.186 324.255 523.304 324.948 523.541C325.64 523.778 326.271 524.163 326.839 524.695C327.407 525.222 327.86 525.92 328.197 526.79C328.534 527.661 328.703 528.732 328.703 530.004V530.892H318.192V529.081H326.572C326.572 528.312 326.419 527.625 326.111 527.021C325.809 526.418 325.377 525.941 324.815 525.592C324.258 525.243 323.601 525.068 322.844 525.068C322.009 525.068 321.287 525.275 320.678 525.69C320.074 526.098 319.609 526.631 319.284 527.288C318.958 527.945 318.795 528.649 318.795 529.401V530.608C318.795 531.638 318.973 532.511 319.328 533.227C319.689 533.937 320.189 534.479 320.828 534.852C321.468 535.219 322.21 535.402 323.057 535.402C323.607 535.402 324.104 535.325 324.548 535.171C324.998 535.011 325.386 534.775 325.711 534.461C326.037 534.141 326.288 533.745 326.466 533.271L328.49 533.839C328.277 534.526 327.919 535.13 327.416 535.651C326.913 536.165 326.291 536.568 325.551 536.858C324.812 537.142 323.98 537.284 323.057 537.284ZM335.903 537.32C335.039 537.32 334.255 537.157 333.55 536.831C332.846 536.5 332.287 536.023 331.873 535.402C331.458 534.775 331.251 534.017 331.251 533.129C331.251 532.348 331.405 531.715 331.713 531.229C332.02 530.738 332.432 530.353 332.947 530.075C333.462 529.797 334.03 529.59 334.651 529.454C335.279 529.312 335.909 529.199 336.542 529.116C337.371 529.01 338.043 528.93 338.558 528.877C339.078 528.818 339.457 528.72 339.694 528.584C339.937 528.448 340.058 528.211 340.058 527.874V527.803C340.058 526.927 339.818 526.246 339.339 525.761C338.865 525.275 338.146 525.033 337.181 525.033C336.181 525.033 335.397 525.252 334.829 525.69C334.261 526.128 333.861 526.595 333.63 527.092L331.642 526.382C331.997 525.554 332.47 524.908 333.062 524.447C333.66 523.979 334.311 523.654 335.015 523.47C335.725 523.281 336.424 523.186 337.11 523.186C337.548 523.186 338.051 523.239 338.62 523.346C339.194 523.446 339.747 523.657 340.28 523.976C340.818 524.296 341.265 524.778 341.62 525.423C341.975 526.068 342.153 526.933 342.153 528.016V537H340.058V535.153H339.951C339.809 535.449 339.573 535.766 339.241 536.103C338.91 536.441 338.469 536.728 337.918 536.964C337.368 537.201 336.696 537.32 335.903 537.32ZM336.223 535.438C337.051 535.438 337.75 535.275 338.318 534.949C338.892 534.624 339.324 534.203 339.614 533.689C339.91 533.174 340.058 532.632 340.058 532.064V530.146C339.969 530.253 339.774 530.35 339.472 530.439C339.176 530.522 338.833 530.596 338.442 530.661C338.057 530.72 337.682 530.774 337.315 530.821C336.954 530.862 336.661 530.898 336.436 530.928C335.891 530.999 335.382 531.114 334.909 531.274C334.441 531.428 334.062 531.661 333.772 531.975C333.488 532.283 333.346 532.703 333.346 533.236C333.346 533.964 333.616 534.514 334.154 534.887C334.699 535.254 335.388 535.438 336.223 535.438ZM345.977 542.114V523.364H348.001V525.53H348.25C348.404 525.293 348.617 524.991 348.889 524.624C349.167 524.251 349.564 523.92 350.079 523.63C350.6 523.334 351.304 523.186 352.192 523.186C353.34 523.186 354.352 523.473 355.228 524.047C356.104 524.621 356.787 525.435 357.279 526.489C357.77 527.542 358.016 528.785 358.016 530.217C358.016 531.661 357.77 532.913 357.279 533.973C356.787 535.026 356.107 535.843 355.237 536.423C354.367 536.997 353.364 537.284 352.227 537.284C351.351 537.284 350.65 537.139 350.123 536.849C349.596 536.553 349.191 536.219 348.907 535.846C348.623 535.467 348.404 535.153 348.25 534.905H348.072V542.114H345.977ZM348.037 530.182C348.037 531.212 348.188 532.12 348.49 532.907C348.791 533.689 349.232 534.301 349.812 534.745C350.392 535.183 351.103 535.402 351.943 535.402C352.819 535.402 353.55 535.171 354.136 534.71C354.728 534.242 355.172 533.615 355.468 532.827C355.769 532.034 355.92 531.152 355.92 530.182C355.92 529.223 355.772 528.359 355.476 527.589C355.186 526.814 354.746 526.202 354.154 525.752C353.568 525.296 352.831 525.068 351.943 525.068C351.091 525.068 350.375 525.284 349.795 525.716C349.215 526.142 348.777 526.74 348.481 527.51C348.185 528.273 348.037 529.164 348.037 530.182ZM366.751 537.284C365.52 537.284 364.44 536.991 363.511 536.405C362.588 535.819 361.866 535 361.345 533.946C360.83 532.893 360.572 531.661 360.572 530.253C360.572 528.832 360.83 527.592 361.345 526.533C361.866 525.474 362.588 524.651 363.511 524.065C364.44 523.479 365.52 523.186 366.751 523.186C367.982 523.186 369.06 523.479 369.983 524.065C370.912 524.651 371.634 525.474 372.149 526.533C372.67 527.592 372.93 528.832 372.93 530.253C372.93 531.661 372.67 532.893 372.149 533.946C371.634 535 370.912 535.819 369.983 536.405C369.06 536.991 367.982 537.284 366.751 537.284ZM366.751 535.402C367.686 535.402 368.456 535.162 369.06 534.683C369.663 534.203 370.11 533.573 370.4 532.792C370.69 532.011 370.835 531.164 370.835 530.253C370.835 529.341 370.69 528.492 370.4 527.705C370.11 526.918 369.663 526.281 369.06 525.796C368.456 525.311 367.686 525.068 366.751 525.068C365.816 525.068 365.047 525.311 364.443 525.796C363.839 526.281 363.393 526.918 363.103 527.705C362.813 528.492 362.668 529.341 362.668 530.253C362.668 531.164 362.813 532.011 363.103 532.792C363.393 533.573 363.839 534.203 364.443 534.683C365.047 535.162 365.816 535.402 366.751 535.402ZM378.224 518.818V537H376.129V518.818H378.224ZM382.061 537V523.364H384.156V537H382.061ZM383.127 521.091C382.718 521.091 382.366 520.952 382.07 520.674C381.78 520.395 381.635 520.061 381.635 519.67C381.635 519.28 381.78 518.945 382.07 518.667C382.366 518.389 382.718 518.25 383.127 518.25C383.535 518.25 383.884 518.389 384.174 518.667C384.47 518.945 384.618 519.28 384.618 519.67C384.618 520.061 384.47 520.395 384.174 520.674C383.884 520.952 383.535 521.091 383.127 521.091ZM397.653 526.418L395.771 526.95C395.652 526.637 395.478 526.332 395.247 526.036C395.022 525.734 394.714 525.485 394.324 525.29C393.933 525.095 393.433 524.997 392.823 524.997C391.989 524.997 391.293 525.19 390.737 525.574C390.187 525.953 389.911 526.435 389.911 527.021C389.911 527.542 390.101 527.953 390.48 528.255C390.858 528.557 391.45 528.809 392.255 529.01L394.279 529.507C395.499 529.803 396.407 530.256 397.005 530.865C397.603 531.469 397.901 532.247 397.901 533.2C397.901 533.982 397.677 534.68 397.227 535.295C396.783 535.911 396.161 536.396 395.362 536.751C394.563 537.107 393.634 537.284 392.575 537.284C391.184 537.284 390.033 536.982 389.121 536.379C388.21 535.775 387.633 534.893 387.39 533.733L389.379 533.236C389.568 533.97 389.926 534.52 390.453 534.887C390.986 535.254 391.681 535.438 392.539 535.438C393.516 535.438 394.291 535.23 394.865 534.816C395.445 534.396 395.735 533.893 395.735 533.307C395.735 532.833 395.57 532.437 395.238 532.117C394.907 531.792 394.398 531.549 393.711 531.389L391.438 530.857C390.19 530.561 389.272 530.102 388.686 529.48C388.106 528.853 387.816 528.069 387.816 527.128C387.816 526.358 388.032 525.678 388.464 525.086C388.902 524.494 389.497 524.029 390.249 523.692C391.006 523.355 391.865 523.186 392.823 523.186C394.173 523.186 395.232 523.482 396.002 524.074C396.777 524.666 397.327 525.447 397.653 526.418Z" fill="black"/>
<path d="M376.202 495V476.818H382.558C383.825 476.818 384.869 477.037 385.692 477.475C386.515 477.907 387.127 478.49 387.53 479.224C387.932 479.952 388.134 480.76 388.134 481.648C388.134 482.429 387.994 483.074 387.716 483.583C387.444 484.092 387.083 484.495 386.633 484.79C386.189 485.086 385.707 485.305 385.186 485.447V485.625C385.742 485.661 386.302 485.856 386.864 486.211C387.426 486.566 387.897 487.075 388.276 487.738C388.654 488.401 388.844 489.212 388.844 490.17C388.844 491.082 388.637 491.902 388.222 492.63C387.808 493.358 387.154 493.935 386.26 494.361C385.367 494.787 384.204 495 382.771 495H376.202ZM378.403 493.047H382.771C384.21 493.047 385.23 492.769 385.834 492.212C386.444 491.65 386.749 490.969 386.749 490.17C386.749 489.555 386.592 488.987 386.278 488.466C385.964 487.939 385.518 487.519 384.938 487.205C384.357 486.886 383.671 486.726 382.878 486.726H378.403V493.047ZM378.403 484.808H382.487C383.15 484.808 383.748 484.678 384.281 484.418C384.819 484.157 385.245 483.79 385.559 483.317C385.879 482.843 386.038 482.287 386.038 481.648C386.038 480.849 385.76 480.171 385.204 479.615C384.647 479.052 383.766 478.771 382.558 478.771H378.403V484.808ZM394.273 476.818V495H392.177V476.818H394.273ZM402.123 495.32C401.259 495.32 400.474 495.157 399.77 494.831C399.066 494.5 398.507 494.023 398.092 493.402C397.678 492.775 397.471 492.017 397.471 491.129C397.471 490.348 397.625 489.715 397.932 489.229C398.24 488.738 398.652 488.353 399.166 488.075C399.681 487.797 400.25 487.59 400.871 487.454C401.498 487.312 402.129 487.199 402.762 487.116C403.591 487.01 404.262 486.93 404.777 486.877C405.298 486.818 405.677 486.72 405.914 486.584C406.156 486.448 406.278 486.211 406.278 485.874V485.803C406.278 484.927 406.038 484.246 405.559 483.761C405.085 483.275 404.366 483.033 403.401 483.033C402.401 483.033 401.617 483.252 401.049 483.69C400.48 484.128 400.081 484.595 399.85 485.092L397.861 484.382C398.217 483.554 398.69 482.908 399.282 482.447C399.88 481.979 400.531 481.654 401.235 481.47C401.945 481.281 402.644 481.186 403.33 481.186C403.768 481.186 404.271 481.239 404.839 481.346C405.414 481.446 405.967 481.657 406.5 481.976C407.038 482.296 407.485 482.778 407.84 483.423C408.195 484.068 408.373 484.933 408.373 486.016V495H406.278V493.153H406.171C406.029 493.449 405.792 493.766 405.461 494.103C405.129 494.441 404.688 494.728 404.138 494.964C403.588 495.201 402.916 495.32 402.123 495.32ZM402.442 493.438C403.271 493.438 403.969 493.275 404.538 492.949C405.112 492.624 405.544 492.203 405.834 491.689C406.13 491.174 406.278 490.632 406.278 490.064V488.146C406.189 488.253 405.994 488.35 405.692 488.439C405.396 488.522 405.052 488.596 404.662 488.661C404.277 488.72 403.901 488.774 403.534 488.821C403.173 488.862 402.88 488.898 402.655 488.928C402.111 488.999 401.602 489.114 401.128 489.274C400.661 489.428 400.282 489.661 399.992 489.975C399.708 490.283 399.566 490.703 399.566 491.236C399.566 491.964 399.835 492.514 400.374 492.887C400.918 493.254 401.608 493.438 402.442 493.438ZM412.197 495V481.364H414.292V495H412.197ZM413.262 479.091C412.854 479.091 412.502 478.952 412.206 478.674C411.916 478.395 411.771 478.061 411.771 477.67C411.771 477.28 411.916 476.945 412.206 476.667C412.502 476.389 412.854 476.25 413.262 476.25C413.671 476.25 414.02 476.389 414.31 476.667C414.606 476.945 414.754 477.28 414.754 477.67C414.754 478.061 414.606 478.395 414.31 478.674C414.02 478.952 413.671 479.091 413.262 479.091ZM420.225 486.797V495H418.13V481.364H420.154V483.494H420.331C420.651 482.802 421.136 482.246 421.787 481.825C422.438 481.399 423.279 481.186 424.309 481.186C425.232 481.186 426.04 481.375 426.732 481.754C427.425 482.127 427.963 482.695 428.348 483.459C428.733 484.216 428.925 485.175 428.925 486.335V495H426.83V486.477C426.83 485.406 426.552 484.571 425.995 483.974C425.439 483.37 424.675 483.068 423.705 483.068C423.036 483.068 422.438 483.213 421.911 483.503C421.391 483.793 420.979 484.216 420.677 484.773C420.376 485.329 420.225 486.004 420.225 486.797ZM438.471 495.284C437.157 495.284 436.024 494.994 435.071 494.414C434.124 493.828 433.393 493.011 432.878 491.964C432.369 490.91 432.114 489.685 432.114 488.288C432.114 486.892 432.369 485.661 432.878 484.595C433.393 483.524 434.109 482.689 435.026 482.092C435.95 481.488 437.027 481.186 438.258 481.186C438.968 481.186 439.669 481.304 440.362 481.541C441.054 481.778 441.685 482.163 442.253 482.695C442.821 483.222 443.274 483.92 443.611 484.79C443.949 485.661 444.117 486.732 444.117 488.004V488.892H433.606V487.081H441.987C441.987 486.312 441.833 485.625 441.525 485.021C441.223 484.418 440.791 483.941 440.229 483.592C439.672 483.243 439.015 483.068 438.258 483.068C437.423 483.068 436.701 483.275 436.092 483.69C435.488 484.098 435.023 484.631 434.698 485.288C434.372 485.945 434.21 486.649 434.21 487.401V488.608C434.21 489.638 434.387 490.511 434.742 491.227C435.103 491.937 435.603 492.479 436.243 492.852C436.882 493.219 437.625 493.402 438.471 493.402C439.021 493.402 439.518 493.325 439.962 493.171C440.412 493.011 440.8 492.775 441.125 492.461C441.451 492.141 441.702 491.745 441.88 491.271L443.904 491.839C443.691 492.526 443.333 493.13 442.83 493.651C442.327 494.165 441.705 494.568 440.966 494.858C440.226 495.142 439.394 495.284 438.471 495.284Z" fill="black"/>
<path d="M395.202 241V222.818H397.403V230.915H407.098V222.818H409.3V241H407.098V232.868H397.403V241H395.202ZM413.423 241V227.364H415.519V241H413.423ZM414.489 225.091C414.08 225.091 413.728 224.952 413.432 224.674C413.142 224.395 412.997 224.061 412.997 223.67C412.997 223.28 413.142 222.945 413.432 222.667C413.728 222.389 414.08 222.25 414.489 222.25C414.897 222.25 415.246 222.389 415.536 222.667C415.832 222.945 415.98 223.28 415.98 223.67C415.98 224.061 415.832 224.395 415.536 224.674C415.246 224.952 414.897 225.091 414.489 225.091ZM419.64 241V222.818H421.735V229.53H421.913C422.067 229.293 422.28 228.991 422.552 228.624C422.83 228.251 423.227 227.92 423.742 227.63C424.263 227.334 424.967 227.186 425.855 227.186C427.003 227.186 428.015 227.473 428.891 228.047C429.767 228.621 430.45 229.435 430.942 230.489C431.433 231.542 431.679 232.785 431.679 234.217C431.679 235.661 431.433 236.913 430.942 237.973C430.45 239.026 429.77 239.843 428.9 240.423C428.03 240.997 427.027 241.284 425.89 241.284C425.014 241.284 424.313 241.139 423.786 240.849C423.259 240.553 422.854 240.219 422.57 239.846C422.286 239.467 422.067 239.153 421.913 238.905H421.664V241H419.64ZM421.7 234.182C421.7 235.212 421.851 236.12 422.153 236.907C422.454 237.689 422.895 238.301 423.475 238.745C424.055 239.183 424.766 239.402 425.606 239.402C426.482 239.402 427.213 239.171 427.799 238.71C428.391 238.242 428.835 237.615 429.131 236.827C429.432 236.034 429.583 235.152 429.583 234.182C429.583 233.223 429.435 232.359 429.139 231.589C428.849 230.814 428.409 230.202 427.817 229.752C427.231 229.296 426.494 229.068 425.606 229.068C424.754 229.068 424.038 229.284 423.458 229.716C422.878 230.142 422.44 230.74 422.144 231.51C421.848 232.273 421.7 233.164 421.7 234.182ZM435.168 241V222.818H437.263V229.53H437.44C437.594 229.293 437.807 228.991 438.079 228.624C438.358 228.251 438.754 227.92 439.269 227.63C439.79 227.334 440.494 227.186 441.382 227.186C442.53 227.186 443.542 227.473 444.418 228.047C445.294 228.621 445.978 229.435 446.469 230.489C446.96 231.542 447.206 232.785 447.206 234.217C447.206 235.661 446.96 236.913 446.469 237.973C445.978 239.026 445.297 239.843 444.427 240.423C443.557 240.997 442.554 241.284 441.418 241.284C440.542 241.284 439.84 241.139 439.313 240.849C438.787 240.553 438.381 240.219 438.097 239.846C437.813 239.467 437.594 239.153 437.44 238.905H437.192V241H435.168ZM437.227 234.182C437.227 235.212 437.378 236.12 437.68 236.907C437.982 237.689 438.423 238.301 439.003 238.745C439.583 239.183 440.293 239.402 441.133 239.402C442.009 239.402 442.74 239.171 443.326 238.71C443.918 238.242 444.362 237.615 444.658 236.827C444.96 236.034 445.111 235.152 445.111 234.182C445.111 233.223 444.963 232.359 444.667 231.589C444.377 230.814 443.936 230.202 443.344 229.752C442.758 229.296 442.021 229.068 441.133 229.068C440.281 229.068 439.565 229.284 438.985 229.716C438.405 230.142 437.967 230.74 437.671 231.51C437.375 232.273 437.227 233.164 437.227 234.182ZM450.411 241V227.364H452.506V241H450.411ZM451.476 225.091C451.068 225.091 450.716 224.952 450.42 224.674C450.13 224.395 449.985 224.061 449.985 223.67C449.985 223.28 450.13 222.945 450.42 222.667C450.716 222.389 451.068 222.25 451.476 222.25C451.884 222.25 452.234 222.389 452.524 222.667C452.82 222.945 452.968 223.28 452.968 223.67C452.968 224.061 452.82 224.395 452.524 224.674C452.234 224.952 451.884 225.091 451.476 225.091ZM458.439 232.797V241H456.343V227.364H458.368V229.494H458.545C458.865 228.802 459.35 228.246 460.001 227.825C460.652 227.399 461.493 227.186 462.522 227.186C463.446 227.186 464.254 227.375 464.946 227.754C465.638 228.127 466.177 228.695 466.562 229.459C466.946 230.216 467.139 231.175 467.139 232.335V241H465.044V232.477C465.044 231.406 464.766 230.571 464.209 229.974C463.653 229.37 462.889 229.068 461.919 229.068C461.25 229.068 460.652 229.213 460.125 229.503C459.605 229.793 459.193 230.216 458.891 230.773C458.589 231.329 458.439 232.004 458.439 232.797ZM476.472 246.398C475.46 246.398 474.59 246.268 473.862 246.007C473.134 245.753 472.527 245.415 472.042 244.995C471.562 244.581 471.18 244.137 470.896 243.663L472.565 242.491C472.755 242.74 472.995 243.024 473.285 243.344C473.575 243.669 473.971 243.95 474.474 244.187C474.983 244.43 475.649 244.551 476.472 244.551C477.573 244.551 478.481 244.285 479.197 243.752C479.913 243.219 480.271 242.385 480.271 241.249V238.479H480.094C479.94 238.727 479.721 239.035 479.437 239.402C479.159 239.763 478.756 240.086 478.229 240.37C477.709 240.648 477.004 240.787 476.117 240.787C475.016 240.787 474.027 240.527 473.151 240.006C472.281 239.485 471.592 238.727 471.083 237.733C470.58 236.739 470.328 235.531 470.328 234.111C470.328 232.714 470.574 231.498 471.065 230.462C471.556 229.42 472.24 228.615 473.116 228.047C473.992 227.473 475.004 227.186 476.152 227.186C477.04 227.186 477.744 227.334 478.265 227.63C478.792 227.92 479.194 228.251 479.472 228.624C479.756 228.991 479.975 229.293 480.129 229.53H480.342V227.364H482.367V241.391C482.367 242.562 482.1 243.515 481.568 244.249C481.041 244.989 480.331 245.531 479.437 245.874C478.549 246.223 477.561 246.398 476.472 246.398ZM476.401 238.905C477.241 238.905 477.951 238.712 478.531 238.328C479.111 237.943 479.552 237.39 479.854 236.668C480.156 235.946 480.307 235.081 480.307 234.075C480.307 233.093 480.159 232.226 479.863 231.474C479.567 230.722 479.129 230.134 478.549 229.707C477.969 229.281 477.253 229.068 476.401 229.068C475.513 229.068 474.773 229.293 474.181 229.743C473.595 230.193 473.154 230.796 472.858 231.554C472.568 232.312 472.423 233.152 472.423 234.075C472.423 235.022 472.571 235.86 472.867 236.588C473.169 237.31 473.613 237.878 474.199 238.292C474.791 238.701 475.525 238.905 476.401 238.905Z" fill="black"/>
<path d="M409.812 337H404.202V318.818H410.061C411.825 318.818 413.334 319.182 414.589 319.91C415.844 320.632 416.805 321.671 417.474 323.026C418.143 324.376 418.477 325.991 418.477 327.874C418.477 329.768 418.14 331.398 417.465 332.765C416.79 334.127 415.808 335.174 414.518 335.908C413.228 336.636 411.659 337 409.812 337ZM406.403 335.047H409.67C411.174 335.047 412.42 334.757 413.408 334.177C414.396 333.597 415.133 332.771 415.619 331.7C416.104 330.629 416.347 329.353 416.347 327.874C416.347 326.406 416.107 325.142 415.627 324.083C415.148 323.017 414.432 322.201 413.479 321.632C412.526 321.058 411.339 320.771 409.919 320.771H406.403V335.047ZM430.48 331.425V323.364H432.575V337H430.48V334.692H430.338C430.018 335.384 429.521 335.973 428.847 336.458C428.172 336.938 427.32 337.178 426.29 337.178C425.438 337.178 424.68 336.991 424.017 336.618C423.354 336.239 422.833 335.671 422.455 334.914C422.076 334.15 421.886 333.188 421.886 332.028V323.364H423.982V331.886C423.982 332.881 424.26 333.674 424.816 334.266C425.378 334.857 426.094 335.153 426.964 335.153C427.485 335.153 428.015 335.02 428.554 334.754C429.098 334.488 429.554 334.079 429.921 333.529C430.294 332.978 430.48 332.277 430.48 331.425ZM438.508 318.818V337H436.413V318.818H438.508ZM450.939 331.425V323.364H453.034V337H450.939V334.692H450.797C450.477 335.384 449.98 335.973 449.306 336.458C448.631 336.938 447.779 337.178 446.749 337.178C445.896 337.178 445.139 336.991 444.476 336.618C443.813 336.239 443.292 335.671 442.914 334.914C442.535 334.15 442.345 333.188 442.345 332.028V323.364H444.441V331.886C444.441 332.881 444.719 333.674 445.275 334.266C445.837 334.857 446.553 335.153 447.423 335.153C447.944 335.153 448.474 335.02 449.013 334.754C449.557 334.488 450.013 334.079 450.38 333.529C450.753 332.978 450.939 332.277 450.939 331.425ZM462.802 323.364V325.139H455.735V323.364H462.802ZM457.795 320.097H459.89V333.094C459.89 333.686 459.976 334.129 460.148 334.425C460.325 334.715 460.55 334.911 460.822 335.011C461.101 335.106 461.393 335.153 461.701 335.153C461.932 335.153 462.121 335.142 462.269 335.118C462.417 335.088 462.536 335.065 462.625 335.047L463.051 336.929C462.909 336.982 462.71 337.036 462.456 337.089C462.201 337.148 461.879 337.178 461.488 337.178C460.896 337.178 460.316 337.05 459.748 336.796C459.186 336.541 458.718 336.154 458.345 335.633C457.978 335.112 457.795 334.455 457.795 333.662V320.097ZM468.342 328.797V337H466.247V318.818H468.342V325.494H468.519C468.839 324.79 469.318 324.231 469.958 323.816C470.603 323.396 471.461 323.186 472.532 323.186C473.461 323.186 474.275 323.373 474.974 323.745C475.672 324.112 476.214 324.678 476.598 325.441C476.989 326.199 477.184 327.163 477.184 328.335V337H475.089V328.477C475.089 327.394 474.808 326.557 474.246 325.965C473.689 325.367 472.917 325.068 471.929 325.068C471.242 325.068 470.626 325.213 470.082 325.503C469.543 325.793 469.117 326.216 468.804 326.773C468.496 327.329 468.342 328.004 468.342 328.797Z" fill="black"/>
<path d="M179.202 132V113.818H185.345C186.766 113.818 187.932 114.061 188.843 114.546C189.754 115.026 190.429 115.685 190.867 116.526C191.305 117.366 191.524 118.322 191.524 119.393C191.524 120.465 191.305 121.415 190.867 122.243C190.429 123.072 189.757 123.723 188.852 124.196C187.946 124.664 186.789 124.898 185.381 124.898H180.409V122.909H185.31C186.28 122.909 187.062 122.767 187.653 122.483C188.251 122.199 188.683 121.796 188.95 121.276C189.222 120.749 189.358 120.121 189.358 119.393C189.358 118.665 189.222 118.029 188.95 117.485C188.677 116.94 188.242 116.52 187.645 116.224C187.047 115.922 186.257 115.771 185.274 115.771H181.403V132H179.202ZM187.76 123.832L192.234 132H189.678L185.274 123.832H187.76ZM200.302 132.284C199.071 132.284 197.991 131.991 197.062 131.405C196.138 130.819 195.416 130 194.896 128.946C194.381 127.893 194.123 126.661 194.123 125.253C194.123 123.832 194.381 122.592 194.896 121.533C195.416 120.474 196.138 119.651 197.062 119.065C197.991 118.479 199.071 118.186 200.302 118.186C201.533 118.186 202.61 118.479 203.534 119.065C204.463 119.651 205.185 120.474 205.7 121.533C206.221 122.592 206.481 123.832 206.481 125.253C206.481 126.661 206.221 127.893 205.7 128.946C205.185 130 204.463 130.819 203.534 131.405C202.61 131.991 201.533 132.284 200.302 132.284ZM200.302 130.402C201.237 130.402 202.007 130.162 202.61 129.683C203.214 129.203 203.661 128.573 203.951 127.792C204.241 127.011 204.386 126.164 204.386 125.253C204.386 124.341 204.241 123.492 203.951 122.705C203.661 121.918 203.214 121.281 202.61 120.796C202.007 120.311 201.237 120.068 200.302 120.068C199.367 120.068 198.598 120.311 197.994 120.796C197.39 121.281 196.943 121.918 196.653 122.705C196.363 123.492 196.218 124.341 196.218 125.253C196.218 126.164 196.363 127.011 196.653 127.792C196.943 128.573 197.39 129.203 197.994 129.683C198.598 130.162 199.367 130.402 200.302 130.402ZM219.338 121.418L217.456 121.95C217.338 121.637 217.163 121.332 216.933 121.036C216.708 120.734 216.4 120.485 216.009 120.29C215.619 120.095 215.118 119.997 214.509 119.997C213.674 119.997 212.979 120.19 212.423 120.574C211.872 120.953 211.597 121.435 211.597 122.021C211.597 122.542 211.786 122.953 212.165 123.255C212.544 123.557 213.136 123.809 213.941 124.01L215.965 124.507C217.184 124.803 218.093 125.256 218.69 125.865C219.288 126.469 219.587 127.247 219.587 128.2C219.587 128.982 219.362 129.68 218.912 130.295C218.468 130.911 217.847 131.396 217.048 131.751C216.249 132.107 215.32 132.284 214.26 132.284C212.869 132.284 211.718 131.982 210.807 131.379C209.895 130.775 209.318 129.893 209.076 128.733L211.064 128.236C211.254 128.97 211.612 129.52 212.138 129.887C212.671 130.254 213.367 130.438 214.225 130.438C215.201 130.438 215.977 130.23 216.551 129.816C217.131 129.396 217.421 128.893 217.421 128.307C217.421 127.833 217.255 127.437 216.924 127.117C216.592 126.792 216.083 126.549 215.397 126.389L213.124 125.857C211.875 125.561 210.958 125.102 210.372 124.48C209.792 123.853 209.502 123.069 209.502 122.128C209.502 121.358 209.718 120.678 210.15 120.086C210.588 119.494 211.183 119.029 211.934 118.692C212.692 118.355 213.55 118.186 214.509 118.186C215.858 118.186 216.918 118.482 217.687 119.074C218.462 119.666 219.013 120.447 219.338 121.418ZM228.458 132.284C227.144 132.284 226.011 131.994 225.058 131.414C224.111 130.828 223.38 130.011 222.865 128.964C222.356 127.91 222.102 126.685 222.102 125.288C222.102 123.892 222.356 122.661 222.865 121.595C223.38 120.524 224.096 119.689 225.014 119.092C225.937 118.488 227.014 118.186 228.245 118.186C228.955 118.186 229.657 118.304 230.349 118.541C231.042 118.778 231.672 119.163 232.24 119.695C232.808 120.222 233.261 120.92 233.598 121.79C233.936 122.661 234.104 123.732 234.104 125.004V125.892H223.593V124.081H231.974C231.974 123.312 231.82 122.625 231.512 122.021C231.21 121.418 230.778 120.941 230.216 120.592C229.66 120.243 229.003 120.068 228.245 120.068C227.411 120.068 226.689 120.275 226.079 120.69C225.475 121.098 225.011 121.631 224.685 122.288C224.36 122.945 224.197 123.649 224.197 124.401V125.608C224.197 126.638 224.374 127.511 224.729 128.227C225.091 128.937 225.591 129.479 226.23 129.852C226.869 130.219 227.612 130.402 228.458 130.402C229.009 130.402 229.506 130.325 229.95 130.171C230.399 130.011 230.787 129.775 231.113 129.461C231.438 129.141 231.69 128.745 231.867 128.271L233.891 128.839C233.678 129.526 233.32 130.13 232.817 130.651C232.314 131.165 231.693 131.568 230.953 131.858C230.213 132.142 229.381 132.284 228.458 132.284ZM241.304 132.32C240.44 132.32 239.656 132.157 238.952 131.831C238.247 131.5 237.688 131.023 237.274 130.402C236.86 129.775 236.652 129.017 236.652 128.129C236.652 127.348 236.806 126.715 237.114 126.229C237.422 125.738 237.833 125.353 238.348 125.075C238.863 124.797 239.431 124.59 240.053 124.454C240.68 124.312 241.31 124.199 241.944 124.116C242.772 124.01 243.444 123.93 243.959 123.877C244.48 123.818 244.859 123.72 245.095 123.584C245.338 123.448 245.459 123.211 245.459 122.874V122.803C245.459 121.927 245.22 121.246 244.74 120.761C244.267 120.275 243.548 120.033 242.583 120.033C241.583 120.033 240.798 120.252 240.23 120.69C239.662 121.128 239.263 121.595 239.032 122.092L237.043 121.382C237.398 120.554 237.872 119.908 238.464 119.447C239.061 118.979 239.712 118.654 240.417 118.47C241.127 118.281 241.825 118.186 242.512 118.186C242.95 118.186 243.453 118.239 244.021 118.346C244.595 118.446 245.149 118.657 245.681 118.976C246.22 119.296 246.667 119.778 247.022 120.423C247.377 121.068 247.554 121.933 247.554 123.016V132H245.459V130.153H245.353C245.211 130.449 244.974 130.766 244.642 131.103C244.311 131.441 243.87 131.728 243.32 131.964C242.769 132.201 242.098 132.32 241.304 132.32ZM241.624 130.438C242.453 130.438 243.151 130.275 243.719 129.949C244.293 129.624 244.725 129.203 245.015 128.689C245.311 128.174 245.459 127.632 245.459 127.064V125.146C245.37 125.253 245.175 125.35 244.873 125.439C244.577 125.522 244.234 125.596 243.843 125.661C243.459 125.72 243.083 125.774 242.716 125.821C242.355 125.862 242.062 125.898 241.837 125.928C241.293 125.999 240.784 126.114 240.31 126.274C239.843 126.428 239.464 126.661 239.174 126.975C238.89 127.283 238.748 127.703 238.748 128.236C238.748 128.964 239.017 129.514 239.555 129.887C240.1 130.254 240.79 130.438 241.624 130.438ZM259.972 126.425V118.364H262.067V132H259.972V129.692H259.83C259.511 130.384 259.013 130.973 258.339 131.458C257.664 131.938 256.812 132.178 255.782 132.178C254.93 132.178 254.172 131.991 253.509 131.618C252.846 131.239 252.326 130.671 251.947 129.914C251.568 129.15 251.379 128.188 251.379 127.028V118.364H253.474V126.886C253.474 127.881 253.752 128.674 254.308 129.266C254.871 129.857 255.587 130.153 256.457 130.153C256.978 130.153 257.507 130.02 258.046 129.754C258.59 129.488 259.046 129.079 259.413 128.529C259.786 127.978 259.972 127.277 259.972 126.425Z" fill="black"/>
<path d="M414.202 670V651.818H420.345C421.766 651.818 422.932 652.061 423.843 652.546C424.754 653.026 425.429 653.685 425.867 654.526C426.305 655.366 426.524 656.322 426.524 657.393C426.524 658.465 426.305 659.415 425.867 660.243C425.429 661.072 424.757 661.723 423.852 662.196C422.946 662.664 421.789 662.898 420.381 662.898H415.409V660.909H420.31C421.28 660.909 422.062 660.767 422.653 660.483C423.251 660.199 423.683 659.796 423.95 659.276C424.222 658.749 424.358 658.121 424.358 657.393C424.358 656.665 424.222 656.029 423.95 655.485C423.677 654.94 423.242 654.52 422.645 654.224C422.047 653.922 421.257 653.771 420.274 653.771H416.403V670H414.202ZM422.76 661.832L427.234 670H424.678L420.274 661.832H422.76ZM435.302 670.284C434.071 670.284 432.991 669.991 432.062 669.405C431.138 668.819 430.416 668 429.896 666.946C429.381 665.893 429.123 664.661 429.123 663.253C429.123 661.832 429.381 660.592 429.896 659.533C430.416 658.474 431.138 657.651 432.062 657.065C432.991 656.479 434.071 656.186 435.302 656.186C436.533 656.186 437.61 656.479 438.534 657.065C439.463 657.651 440.185 658.474 440.7 659.533C441.221 660.592 441.481 661.832 441.481 663.253C441.481 664.661 441.221 665.893 440.7 666.946C440.185 668 439.463 668.819 438.534 669.405C437.61 669.991 436.533 670.284 435.302 670.284ZM435.302 668.402C436.237 668.402 437.007 668.162 437.61 667.683C438.214 667.203 438.661 666.573 438.951 665.792C439.241 665.011 439.386 664.164 439.386 663.253C439.386 662.341 439.241 661.492 438.951 660.705C438.661 659.918 438.214 659.281 437.61 658.796C437.007 658.311 436.237 658.068 435.302 658.068C434.367 658.068 433.598 658.311 432.994 658.796C432.39 659.281 431.943 659.918 431.653 660.705C431.363 661.492 431.218 662.341 431.218 663.253C431.218 664.164 431.363 665.011 431.653 665.792C431.943 666.573 432.39 667.203 432.994 667.683C433.598 668.162 434.367 668.402 435.302 668.402ZM450.219 670.284C448.941 670.284 447.84 669.982 446.917 669.379C445.993 668.775 445.283 667.943 444.786 666.884C444.289 665.824 444.04 664.614 444.04 663.253C444.04 661.868 444.295 660.646 444.804 659.586C445.319 658.521 446.035 657.689 446.952 657.092C447.875 656.488 448.953 656.186 450.184 656.186C451.142 656.186 452.007 656.364 452.776 656.719C453.545 657.074 454.176 657.571 454.667 658.21C455.158 658.849 455.463 659.595 455.581 660.447H453.486C453.326 659.826 452.971 659.276 452.421 658.796C451.876 658.311 451.142 658.068 450.219 658.068C449.402 658.068 448.686 658.281 448.071 658.707C447.461 659.128 446.985 659.722 446.641 660.492C446.304 661.255 446.135 662.152 446.135 663.182C446.135 664.235 446.301 665.153 446.632 665.934C446.97 666.715 447.443 667.322 448.053 667.754C448.668 668.186 449.391 668.402 450.219 668.402C450.764 668.402 451.258 668.307 451.702 668.118C452.146 667.929 452.521 667.656 452.829 667.301C453.137 666.946 453.356 666.52 453.486 666.023H455.581C455.463 666.828 455.17 667.553 454.702 668.198C454.241 668.837 453.628 669.346 452.865 669.725C452.107 670.098 451.225 670.284 450.219 670.284ZM460.739 661.797V670H458.644V651.818H460.739V658.494H460.917C461.237 657.79 461.716 657.231 462.355 656.816C463 656.396 463.858 656.186 464.93 656.186C465.859 656.186 466.673 656.373 467.371 656.745C468.069 657.112 468.611 657.678 468.996 658.441C469.386 659.199 469.582 660.163 469.582 661.335V670H467.487V661.477C467.487 660.394 467.205 659.557 466.643 658.965C466.087 658.367 465.314 658.068 464.326 658.068C463.639 658.068 463.024 658.213 462.479 658.503C461.941 658.793 461.515 659.216 461.201 659.773C460.893 660.329 460.739 661.004 460.739 661.797ZM479.132 670.284C477.818 670.284 476.685 669.994 475.732 669.414C474.785 668.828 474.054 668.011 473.539 666.964C473.03 665.91 472.775 664.685 472.775 663.288C472.775 661.892 473.03 660.661 473.539 659.595C474.054 658.524 474.77 657.689 475.687 657.092C476.611 656.488 477.688 656.186 478.919 656.186C479.629 656.186 480.331 656.304 481.023 656.541C481.715 656.778 482.346 657.163 482.914 657.695C483.482 658.222 483.935 658.92 484.272 659.79C484.61 660.661 484.778 661.732 484.778 663.004V663.892H474.267V662.081H482.648C482.648 661.312 482.494 660.625 482.186 660.021C481.884 659.418 481.452 658.941 480.89 658.592C480.333 658.243 479.677 658.068 478.919 658.068C478.084 658.068 477.362 658.275 476.753 658.69C476.149 659.098 475.684 659.631 475.359 660.288C475.033 660.945 474.871 661.649 474.871 662.401V663.608C474.871 664.638 475.048 665.511 475.403 666.227C475.764 666.937 476.264 667.479 476.904 667.852C477.543 668.219 478.286 668.402 479.132 668.402C479.682 668.402 480.18 668.325 480.623 668.171C481.073 668.011 481.461 667.775 481.786 667.461C482.112 667.141 482.364 666.745 482.541 666.271L484.565 666.839C484.352 667.526 483.994 668.13 483.491 668.651C482.988 669.165 482.367 669.568 481.627 669.858C480.887 670.142 480.055 670.284 479.132 670.284ZM497.625 659.418L495.742 659.95C495.624 659.637 495.449 659.332 495.219 659.036C494.994 658.734 494.686 658.485 494.295 658.29C493.905 658.095 493.405 657.997 492.795 657.997C491.96 657.997 491.265 658.19 490.709 658.574C490.158 658.953 489.883 659.435 489.883 660.021C489.883 660.542 490.072 660.953 490.451 661.255C490.83 661.557 491.422 661.809 492.227 662.01L494.251 662.507C495.47 662.803 496.379 663.256 496.976 663.865C497.574 664.469 497.873 665.247 497.873 666.2C497.873 666.982 497.648 667.68 497.198 668.295C496.755 668.911 496.133 669.396 495.334 669.751C494.535 670.107 493.606 670.284 492.546 670.284C491.156 670.284 490.004 669.982 489.093 669.379C488.181 668.775 487.604 667.893 487.362 666.733L489.35 666.236C489.54 666.97 489.898 667.52 490.425 667.887C490.957 668.254 491.653 668.438 492.511 668.438C493.487 668.438 494.263 668.23 494.837 667.816C495.417 667.396 495.707 666.893 495.707 666.307C495.707 665.833 495.541 665.437 495.21 665.117C494.878 664.792 494.369 664.549 493.683 664.389L491.41 663.857C490.161 663.561 489.244 663.102 488.658 662.48C488.078 661.853 487.788 661.069 487.788 660.128C487.788 659.358 488.004 658.678 488.436 658.086C488.874 657.494 489.469 657.029 490.22 656.692C490.978 656.355 491.836 656.186 492.795 656.186C494.144 656.186 495.204 656.482 495.973 657.074C496.749 657.666 497.299 658.447 497.625 659.418ZM506.957 656.364V658.139H499.891V656.364H506.957ZM501.95 653.097H504.045V666.094C504.045 666.686 504.131 667.129 504.303 667.425C504.48 667.715 504.705 667.911 504.978 668.011C505.256 668.106 505.549 668.153 505.857 668.153C506.087 668.153 506.277 668.142 506.425 668.118C506.573 668.088 506.691 668.065 506.78 668.047L507.206 669.929C507.064 669.982 506.866 670.036 506.611 670.089C506.357 670.148 506.034 670.178 505.643 670.178C505.052 670.178 504.472 670.05 503.903 669.796C503.341 669.541 502.874 669.154 502.501 668.633C502.134 668.112 501.95 667.455 501.95 666.662V653.097ZM515.68 670.284C514.366 670.284 513.233 669.994 512.28 669.414C511.333 668.828 510.602 668.011 510.087 666.964C509.578 665.91 509.323 664.685 509.323 663.288C509.323 661.892 509.578 660.661 510.087 659.595C510.602 658.524 511.318 657.689 512.235 657.092C513.159 656.488 514.236 656.186 515.467 656.186C516.177 656.186 516.878 656.304 517.571 656.541C518.263 656.778 518.894 657.163 519.462 657.695C520.03 658.222 520.483 658.92 520.82 659.79C521.157 660.661 521.326 661.732 521.326 663.004V663.892H510.815V662.081H519.195C519.195 661.312 519.042 660.625 518.734 660.021C518.432 659.418 518 658.941 517.438 658.592C516.881 658.243 516.224 658.068 515.467 658.068C514.632 658.068 513.91 658.275 513.301 658.69C512.697 659.098 512.232 659.631 511.907 660.288C511.581 660.945 511.419 661.649 511.419 662.401V663.608C511.419 664.638 511.596 665.511 511.951 666.227C512.312 666.937 512.812 667.479 513.452 667.852C514.091 668.219 514.834 668.402 515.68 668.402C516.23 668.402 516.727 668.325 517.171 668.171C517.621 668.011 518.009 667.775 518.334 667.461C518.66 667.141 518.911 666.745 519.089 666.271L521.113 666.839C520.9 667.526 520.542 668.13 520.039 668.651C519.536 669.165 518.914 669.568 518.175 669.858C517.435 670.142 516.603 670.284 515.68 670.284ZM524.513 670V656.364H526.537V658.423H526.68C526.928 657.749 527.378 657.201 528.029 656.781C528.68 656.361 529.414 656.151 530.231 656.151C530.385 656.151 530.577 656.154 530.808 656.159C531.039 656.165 531.213 656.174 531.331 656.186V658.317C531.26 658.299 531.098 658.272 530.843 658.237C530.595 658.195 530.331 658.175 530.053 658.175C529.39 658.175 528.798 658.314 528.278 658.592C527.763 658.864 527.354 659.243 527.052 659.728C526.756 660.208 526.608 660.755 526.608 661.371V670H524.513Z" fill="black"/>
<circle cx="411.511" cy="528.511" r="9.01136" fill="#FFE587" stroke="black"/>
<circle cx="414.511" cy="509.511" r="9.01136" fill="#FFE587" stroke="black"/>
<circle cx="438.511" cy="258.511" r="9.01136" fill="#FFE587" stroke="black"/>
<circle cx="496.511" cy="328.511" r="9.01136" fill="#FFE587" stroke="black"/>
<circle cx="221.511" cy="98.5114" r="9.01136" fill="#FFE587" stroke="black"/>
<circle cx="473.511" cy="632.511" r="9.01136" fill="#FFE587" stroke="black"/>
<path d="M625.756 279L628.653 261.545H631.815L629.361 276.349H637.048L636.605 279H625.756ZM642.946 279.264C642.116 279.264 641.395 279.116 640.781 278.821C640.168 278.52 639.716 278.077 639.426 277.491C639.142 276.906 639.071 276.185 639.213 275.327C639.338 274.588 639.577 273.977 639.929 273.494C640.287 273.011 640.724 272.625 641.241 272.335C641.764 272.04 642.332 271.818 642.946 271.67C643.565 271.523 644.196 271.415 644.838 271.347C645.622 271.267 646.256 271.193 646.739 271.125C647.227 271.057 647.594 270.955 647.838 270.818C648.082 270.676 648.23 270.46 648.281 270.17V270.119C648.384 269.477 648.281 268.98 647.974 268.628C647.668 268.276 647.156 268.099 646.44 268.099C645.69 268.099 645.06 268.264 644.548 268.594C644.037 268.923 643.665 269.312 643.432 269.761L640.636 269.352C640.989 268.557 641.472 267.892 642.085 267.358C642.699 266.818 643.406 266.415 644.207 266.148C645.014 265.875 645.875 265.739 646.79 265.739C647.415 265.739 648.026 265.812 648.622 265.96C649.224 266.108 649.756 266.352 650.216 266.693C650.682 267.028 651.023 267.486 651.239 268.065C651.46 268.645 651.497 269.369 651.349 270.239L649.892 279H646.926L647.233 277.202H647.131C646.886 277.565 646.568 277.906 646.176 278.224C645.784 278.537 645.318 278.79 644.778 278.983C644.239 279.17 643.628 279.264 642.946 279.264ZM644.114 276.997C644.733 276.997 645.29 276.875 645.784 276.631C646.278 276.381 646.685 276.051 647.003 275.642C647.321 275.233 647.52 274.787 647.599 274.304L647.855 272.761C647.741 272.841 647.565 272.915 647.327 272.983C647.088 273.051 646.821 273.111 646.526 273.162C646.236 273.213 645.949 273.259 645.665 273.298C645.381 273.338 645.136 273.372 644.932 273.401C644.46 273.463 644.028 273.565 643.636 273.707C643.25 273.849 642.929 274.048 642.673 274.304C642.423 274.554 642.267 274.878 642.205 275.276C642.114 275.838 642.247 276.267 642.605 276.562C642.963 276.852 643.466 276.997 644.114 276.997ZM656.48 274.892L657.085 271.168H657.58L663.179 265.909H666.784L659.932 272.352H659.301L656.48 274.892ZM652.994 279L655.892 261.545H658.977L656.08 279H652.994ZM661.21 279L657.938 273.043L660.384 270.869L664.901 279H661.21ZM671.881 279.256C670.568 279.256 669.483 278.983 668.625 278.438C667.767 277.886 667.165 277.108 666.818 276.102C666.477 275.091 666.42 273.901 666.648 272.531C666.869 271.185 667.321 270.003 668.003 268.986C668.685 267.963 669.537 267.168 670.56 266.599C671.588 266.026 672.724 265.739 673.969 265.739C674.776 265.739 675.517 265.869 676.193 266.131C676.869 266.386 677.44 266.784 677.906 267.324C678.372 267.864 678.693 268.551 678.869 269.386C679.045 270.216 679.037 271.205 678.844 272.352L678.699 273.298H667.96L668.293 271.219H676.065C676.168 270.628 676.134 270.102 675.963 269.642C675.793 269.176 675.509 268.81 675.111 268.543C674.713 268.276 674.216 268.142 673.619 268.142C673.011 268.142 672.443 268.298 671.915 268.611C671.392 268.918 670.952 269.315 670.594 269.804C670.236 270.293 670.009 270.807 669.912 271.347L669.562 273.341C669.438 274.159 669.466 274.827 669.648 275.344C669.83 275.861 670.148 276.241 670.602 276.486C671.057 276.73 671.631 276.852 672.324 276.852C672.778 276.852 673.199 276.79 673.585 276.665C673.972 276.54 674.315 276.352 674.616 276.102C674.923 275.847 675.179 275.534 675.384 275.165L678.205 275.489C677.892 276.25 677.435 276.915 676.832 277.483C676.23 278.045 675.509 278.483 674.668 278.795C673.832 279.102 672.903 279.256 671.881 279.256ZM614.997 295.429C615.02 294.639 614.778 294.034 614.272 293.614C613.772 293.193 613.054 292.983 612.116 292.983C611.457 292.983 610.875 293.082 610.369 293.281C609.869 293.474 609.466 293.744 609.159 294.091C608.852 294.432 608.662 294.821 608.588 295.259C608.525 295.616 608.556 295.929 608.681 296.196C608.806 296.463 608.997 296.69 609.252 296.878C609.514 297.065 609.809 297.222 610.139 297.347C610.474 297.472 610.815 297.577 611.162 297.662L612.73 298.071C613.355 298.224 613.951 298.432 614.52 298.693C615.088 298.949 615.579 299.278 615.994 299.682C616.414 300.08 616.721 300.56 616.914 301.122C617.108 301.685 617.139 302.344 617.008 303.099C616.838 304.122 616.426 305.023 615.772 305.801C615.125 306.574 614.272 307.179 613.216 307.616C612.164 308.048 610.94 308.264 609.542 308.264C608.19 308.264 607.048 308.054 606.116 307.634C605.184 307.207 604.502 306.591 604.071 305.784C603.645 304.977 603.508 303.997 603.662 302.844H606.772C606.71 303.452 606.809 303.957 607.071 304.361C607.338 304.764 607.721 305.065 608.221 305.264C608.721 305.463 609.301 305.562 609.96 305.562C610.647 305.562 611.27 305.46 611.826 305.256C612.383 305.045 612.838 304.756 613.19 304.386C613.548 304.011 613.767 303.574 613.846 303.074C613.926 302.625 613.86 302.25 613.65 301.949C613.44 301.648 613.113 301.398 612.67 301.199C612.233 300.994 611.71 300.812 611.102 300.653L609.21 300.142C607.841 299.767 606.801 299.205 606.091 298.455C605.386 297.705 605.136 296.705 605.341 295.455C605.511 294.42 605.94 293.52 606.627 292.753C607.315 291.98 608.176 291.381 609.21 290.955C610.244 290.523 611.375 290.307 612.602 290.307C613.841 290.307 614.889 290.523 615.747 290.955C616.61 291.386 617.241 291.989 617.639 292.761C618.042 293.528 618.176 294.418 618.039 295.429H614.997ZM628.137 302.494L629.407 294.909H632.492L630.31 308H627.319L627.711 305.673H627.574C627.165 306.406 626.58 307.006 625.819 307.472C625.063 307.937 624.194 308.17 623.211 308.17C622.353 308.17 621.628 307.98 621.037 307.599C620.446 307.213 620.026 306.653 619.776 305.92C619.532 305.182 619.495 304.29 619.665 303.244L621.063 294.909H624.148L622.836 302.767C622.705 303.597 622.824 304.256 623.194 304.744C623.569 305.233 624.125 305.477 624.864 305.477C625.319 305.477 625.776 305.366 626.236 305.145C626.702 304.923 627.108 304.594 627.455 304.156C627.801 303.713 628.029 303.159 628.137 302.494ZM632.673 312.909L635.69 294.909H638.724L638.375 297.074H638.554C638.758 296.756 639.034 296.418 639.38 296.06C639.733 295.696 640.179 295.386 640.718 295.131C641.258 294.869 641.914 294.739 642.687 294.739C643.693 294.739 644.559 294.997 645.287 295.514C646.014 296.026 646.534 296.784 646.846 297.79C647.164 298.79 647.204 300.017 646.966 301.472C646.727 302.909 646.287 304.131 645.645 305.136C645.002 306.142 644.233 306.909 643.335 307.438C642.437 307.966 641.474 308.23 640.446 308.23C639.696 308.23 639.091 308.105 638.63 307.855C638.176 307.605 637.832 307.304 637.599 306.952C637.366 306.594 637.193 306.256 637.079 305.938H636.943L635.784 312.909H632.673ZM637.625 301.455C637.488 302.301 637.485 303.043 637.616 303.679C637.752 304.315 638.022 304.812 638.426 305.17C638.829 305.523 639.358 305.699 640.011 305.699C640.693 305.699 641.289 305.517 641.801 305.153C642.318 304.784 642.747 304.281 643.088 303.645C643.434 303.003 643.679 302.273 643.821 301.455C643.951 300.642 643.951 299.92 643.821 299.29C643.69 298.659 643.426 298.165 643.028 297.807C642.63 297.449 642.091 297.27 641.409 297.27C640.744 297.27 640.15 297.443 639.627 297.79C639.11 298.136 638.681 298.622 638.341 299.247C638 299.872 637.761 300.608 637.625 301.455ZM654.267 308.256C652.955 308.256 651.87 307.983 651.012 307.438C650.154 306.886 649.551 306.108 649.205 305.102C648.864 304.091 648.807 302.901 649.034 301.531C649.256 300.185 649.708 299.003 650.39 297.986C651.071 296.963 651.924 296.168 652.946 295.599C653.975 295.026 655.111 294.739 656.355 294.739C657.162 294.739 657.904 294.869 658.58 295.131C659.256 295.386 659.827 295.784 660.293 296.324C660.759 296.864 661.08 297.551 661.256 298.386C661.432 299.216 661.424 300.205 661.23 301.352L661.086 302.298H650.347L650.679 300.219H658.452C658.554 299.628 658.52 299.102 658.35 298.642C658.179 298.176 657.895 297.81 657.498 297.543C657.1 297.276 656.603 297.142 656.006 297.142C655.398 297.142 654.83 297.298 654.301 297.611C653.779 297.918 653.338 298.315 652.98 298.804C652.623 299.293 652.395 299.807 652.299 300.347L651.949 302.341C651.824 303.159 651.853 303.827 652.034 304.344C652.216 304.861 652.534 305.241 652.989 305.486C653.444 305.73 654.017 305.852 654.711 305.852C655.165 305.852 655.586 305.79 655.972 305.665C656.358 305.54 656.702 305.352 657.003 305.102C657.31 304.847 657.566 304.534 657.77 304.165L660.591 304.489C660.279 305.25 659.821 305.915 659.219 306.483C658.617 307.045 657.895 307.483 657.054 307.795C656.219 308.102 655.29 308.256 654.267 308.256ZM662.756 308L664.938 294.909H667.929L667.563 297.091H667.699C668.057 296.335 668.563 295.753 669.216 295.344C669.875 294.929 670.58 294.722 671.33 294.722C671.506 294.722 671.696 294.73 671.901 294.747C672.105 294.759 672.282 294.778 672.429 294.807L671.952 297.645C671.821 297.599 671.617 297.56 671.338 297.526C671.066 297.486 670.796 297.466 670.529 297.466C669.966 297.466 669.444 297.588 668.961 297.832C668.483 298.071 668.08 298.403 667.75 298.83C667.421 299.256 667.208 299.747 667.111 300.304L665.841 308H662.756ZM672.295 308L674.477 294.909H677.562L675.38 308H672.295ZM676.471 293.034C675.977 293.034 675.568 292.869 675.244 292.54C674.92 292.21 674.778 291.815 674.818 291.355C674.858 290.895 675.065 290.5 675.44 290.17C675.821 289.841 676.255 289.676 676.744 289.676C677.238 289.676 677.645 289.841 677.963 290.17C678.287 290.5 678.429 290.895 678.389 291.355C678.355 291.815 678.147 292.21 677.767 292.54C677.392 292.869 676.96 293.034 676.471 293.034ZM684.297 308.256C683.007 308.256 681.934 307.972 681.076 307.403C680.223 306.835 679.624 306.037 679.277 305.009C678.931 303.98 678.868 302.787 679.09 301.429C679.311 300.088 679.755 298.915 680.419 297.909C681.09 296.903 681.934 296.125 682.951 295.574C683.973 295.017 685.118 294.739 686.385 294.739C687.675 294.739 688.746 295.026 689.598 295.599C690.451 296.168 691.05 296.966 691.397 297.994C691.749 299.023 691.814 300.222 691.593 301.591C691.377 302.926 690.931 304.094 690.255 305.094C689.584 306.094 688.74 306.872 687.723 307.429C686.706 307.98 685.564 308.256 684.297 308.256ZM684.553 305.784C685.269 305.784 685.897 305.591 686.436 305.205C686.982 304.812 687.428 304.287 687.775 303.628C688.127 302.963 688.371 302.224 688.507 301.412C688.632 300.628 688.635 299.918 688.516 299.281C688.397 298.639 688.141 298.131 687.749 297.756C687.363 297.375 686.826 297.185 686.138 297.185C685.422 297.185 684.789 297.384 684.238 297.781C683.692 298.173 683.246 298.702 682.9 299.366C682.553 300.026 682.314 300.761 682.184 301.574C682.053 302.358 682.047 303.068 682.167 303.705C682.286 304.341 682.542 304.847 682.934 305.222C683.326 305.597 683.865 305.784 684.553 305.784ZM693.154 308L695.336 294.909H698.328L697.961 297.091H698.098C698.456 296.335 698.961 295.753 699.615 295.344C700.274 294.929 700.978 294.722 701.728 294.722C701.904 294.722 702.095 294.73 702.299 294.747C702.504 294.759 702.68 294.778 702.828 294.807L702.35 297.645C702.22 297.599 702.015 297.56 701.737 297.526C701.464 297.486 701.194 297.466 700.927 297.466C700.365 297.466 699.842 297.588 699.359 297.832C698.882 298.071 698.478 298.403 698.149 298.83C697.819 299.256 697.606 299.747 697.51 300.304L696.24 308H693.154Z" fill="#017D83"/>
<path d="M431.662 63.4347H428.474C428.384 62.9119 428.216 62.4489 427.972 62.0455C427.727 61.6364 427.423 61.2898 427.06 61.0057C426.696 60.7216 426.281 60.5085 425.815 60.3665C425.355 60.2188 424.858 60.1449 424.324 60.1449C423.375 60.1449 422.534 60.3835 421.801 60.8608C421.068 61.3324 420.494 62.0256 420.08 62.9403C419.665 63.8494 419.457 64.9602 419.457 66.2727C419.457 67.608 419.665 68.733 420.08 69.6477C420.5 70.5568 421.074 71.2443 421.801 71.7102C422.534 72.1705 423.372 72.4006 424.315 72.4006C424.838 72.4006 425.327 72.3324 425.781 72.196C426.241 72.054 426.653 71.8466 427.017 71.5739C427.386 71.3011 427.696 70.9659 427.946 70.5682C428.202 70.1705 428.378 69.7159 428.474 69.2045L431.662 69.2216C431.543 70.0511 431.284 70.8295 430.886 71.5568C430.494 72.2841 429.98 72.9261 429.344 73.483C428.707 74.0341 427.963 74.4659 427.111 74.7784C426.259 75.0852 425.313 75.2386 424.273 75.2386C422.739 75.2386 421.369 74.8835 420.165 74.1733C418.96 73.4631 418.011 72.4375 417.318 71.0966C416.625 69.7557 416.278 68.1477 416.278 66.2727C416.278 64.392 416.628 62.7841 417.327 61.4489C418.026 60.108 418.977 59.0824 420.182 58.3722C421.386 57.6619 422.75 57.3068 424.273 57.3068C425.244 57.3068 426.148 57.4432 426.983 57.7159C427.818 57.9886 428.563 58.3892 429.216 58.9176C429.869 59.4403 430.406 60.0824 430.827 60.8438C431.253 61.5994 431.531 62.4631 431.662 63.4347ZM438.188 75.2642C437.359 75.2642 436.612 75.1165 435.947 74.821C435.288 74.5199 434.765 74.0767 434.379 73.4915C433.998 72.9062 433.808 72.1847 433.808 71.3267C433.808 70.5881 433.944 69.9773 434.217 69.4943C434.489 69.0114 434.862 68.625 435.333 68.3352C435.805 68.0455 436.336 67.8267 436.927 67.679C437.523 67.5256 438.14 67.4148 438.776 67.3466C439.543 67.267 440.165 67.196 440.643 67.1335C441.12 67.0653 441.467 66.9631 441.683 66.8267C441.904 66.6847 442.015 66.4659 442.015 66.1705V66.1193C442.015 65.4773 441.825 64.9801 441.444 64.6278C441.063 64.2756 440.515 64.0994 439.799 64.0994C439.043 64.0994 438.444 64.2642 438.001 64.5938C437.563 64.9233 437.268 65.3125 437.114 65.7614L434.234 65.3523C434.461 64.5568 434.836 63.892 435.359 63.358C435.881 62.8182 436.521 62.4148 437.276 62.1477C438.032 61.875 438.867 61.7386 439.782 61.7386C440.413 61.7386 441.04 61.8125 441.665 61.9602C442.29 62.108 442.862 62.3523 443.379 62.6932C443.896 63.0284 444.31 63.4858 444.623 64.0653C444.941 64.6449 445.1 65.3693 445.1 66.2386V75H442.134V73.2017H442.032C441.844 73.5653 441.58 73.9062 441.239 74.2244C440.904 74.5369 440.481 74.7898 439.969 74.983C439.464 75.1705 438.87 75.2642 438.188 75.2642ZM438.989 72.9972C439.609 72.9972 440.146 72.875 440.6 72.6307C441.055 72.3807 441.404 72.0511 441.648 71.642C441.898 71.233 442.023 70.7869 442.023 70.304V68.7614C441.927 68.8409 441.762 68.9148 441.529 68.983C441.302 69.0511 441.046 69.1108 440.762 69.1619C440.478 69.2131 440.197 69.2585 439.918 69.2983C439.64 69.3381 439.398 69.3722 439.194 69.4006C438.734 69.4631 438.322 69.5653 437.958 69.7074C437.594 69.8494 437.308 70.0483 437.097 70.304C436.887 70.554 436.782 70.8778 436.782 71.2756C436.782 71.8438 436.989 72.2727 437.404 72.5625C437.819 72.8523 438.347 72.9972 438.989 72.9972ZM451.288 67.3295V75H448.202V61.9091H451.151V64.1335H451.305C451.606 63.4006 452.086 62.8182 452.745 62.3864C453.41 61.9545 454.231 61.7386 455.208 61.7386C456.112 61.7386 456.898 61.9318 457.569 62.3182C458.245 62.7045 458.768 63.2642 459.137 63.9972C459.512 64.7301 459.697 65.6193 459.691 66.6648V75H456.606V67.142C456.606 66.267 456.379 65.5824 455.924 65.0881C455.475 64.5937 454.853 64.3466 454.058 64.3466C453.518 64.3466 453.038 64.4659 452.617 64.7045C452.202 64.9375 451.876 65.2756 451.637 65.7188C451.404 66.1619 451.288 66.6989 451.288 67.3295ZM466.594 75.2642C465.765 75.2642 465.018 75.1165 464.353 74.821C463.694 74.5199 463.171 74.0767 462.785 73.4915C462.404 72.9062 462.214 72.1847 462.214 71.3267C462.214 70.5881 462.35 69.9773 462.623 69.4943C462.896 69.0114 463.268 68.625 463.739 68.3352C464.211 68.0455 464.742 67.8267 465.333 67.679C465.93 67.5256 466.546 67.4148 467.183 67.3466C467.95 67.267 468.572 67.196 469.049 67.1335C469.526 67.0653 469.873 66.9631 470.089 66.8267C470.31 66.6847 470.421 66.4659 470.421 66.1705V66.1193C470.421 65.4773 470.231 64.9801 469.85 64.6278C469.469 64.2756 468.921 64.0994 468.205 64.0994C467.45 64.0994 466.85 64.2642 466.407 64.5938C465.969 64.9233 465.674 65.3125 465.521 65.7614L462.64 65.3523C462.867 64.5568 463.242 63.892 463.765 63.358C464.288 62.8182 464.927 62.4148 465.683 62.1477C466.438 61.875 467.273 61.7386 468.188 61.7386C468.819 61.7386 469.447 61.8125 470.072 61.9602C470.697 62.108 471.268 62.3523 471.785 62.6932C472.302 63.0284 472.717 63.4858 473.029 64.0653C473.347 64.6449 473.506 65.3693 473.506 66.2386V75H470.54V73.2017H470.438C470.251 73.5653 469.987 73.9062 469.646 74.2244C469.31 74.5369 468.887 74.7898 468.376 74.983C467.87 75.1705 467.276 75.2642 466.594 75.2642ZM467.396 72.9972C468.015 72.9972 468.552 72.875 469.006 72.6307C469.461 72.3807 469.81 72.0511 470.055 71.642C470.305 71.233 470.43 70.7869 470.43 70.304V68.7614C470.333 68.8409 470.168 68.9148 469.935 68.983C469.708 69.0511 469.452 69.1108 469.168 69.1619C468.884 69.2131 468.603 69.2585 468.325 69.2983C468.046 69.3381 467.805 69.3722 467.6 69.4006C467.14 69.4631 466.728 69.5653 466.364 69.7074C466.001 69.8494 465.714 70.0483 465.504 70.304C465.293 70.554 465.188 70.8778 465.188 71.2756C465.188 71.8438 465.396 72.2727 465.81 72.5625C466.225 72.8523 466.754 72.9972 467.396 72.9972ZM481.467 75.2301C480.438 75.2301 479.518 74.9659 478.705 74.4375C477.893 73.9091 477.251 73.142 476.779 72.1364C476.308 71.1307 476.072 69.9091 476.072 68.4716C476.072 67.017 476.31 65.7898 476.788 64.7898C477.271 63.7841 477.921 63.0256 478.739 62.5142C479.558 61.9972 480.469 61.7386 481.475 61.7386C482.242 61.7386 482.873 61.8693 483.367 62.1307C483.862 62.3864 484.254 62.696 484.543 63.0597C484.833 63.4176 485.058 63.7557 485.217 64.0739H485.344V57.5455H488.438V75H485.404V72.9375H485.217C485.058 73.2557 484.827 73.5937 484.526 73.9517C484.225 74.304 483.827 74.6051 483.333 74.8551C482.839 75.1051 482.217 75.2301 481.467 75.2301ZM482.327 72.6989C482.981 72.6989 483.538 72.5227 483.998 72.1705C484.458 71.8125 484.808 71.3153 485.046 70.679C485.285 70.0426 485.404 69.3011 485.404 68.4545C485.404 67.608 485.285 66.8722 485.046 66.2472C484.813 65.6222 484.467 65.1364 484.006 64.7898C483.552 64.4432 482.992 64.2699 482.327 64.2699C481.64 64.2699 481.066 64.4489 480.606 64.8068C480.146 65.1648 479.799 65.6591 479.566 66.2898C479.333 66.9205 479.217 67.642 479.217 68.4545C479.217 69.2727 479.333 70.0028 479.566 70.6449C479.805 71.2812 480.154 71.7841 480.614 72.1534C481.08 72.517 481.651 72.6989 482.327 72.6989ZM495.493 75.2642C494.663 75.2642 493.916 75.1165 493.251 74.821C492.592 74.5199 492.07 74.0767 491.683 73.4915C491.303 72.9062 491.112 72.1847 491.112 71.3267C491.112 70.5881 491.249 69.9773 491.521 69.4943C491.794 69.0114 492.166 68.625 492.638 68.3352C493.109 68.0455 493.641 67.8267 494.232 67.679C494.828 67.5256 495.445 67.4148 496.081 67.3466C496.848 67.267 497.47 67.196 497.947 67.1335C498.425 67.0653 498.771 66.9631 498.987 66.8267C499.209 66.6847 499.32 66.4659 499.32 66.1705V66.1193C499.32 65.4773 499.129 64.9801 498.749 64.6278C498.368 64.2756 497.82 64.0994 497.104 64.0994C496.348 64.0994 495.749 64.2642 495.305 64.5938C494.868 64.9233 494.572 65.3125 494.419 65.7614L491.538 65.3523C491.766 64.5568 492.141 63.892 492.663 63.358C493.186 62.8182 493.825 62.4148 494.581 62.1477C495.337 61.875 496.172 61.7386 497.087 61.7386C497.717 61.7386 498.345 61.8125 498.97 61.9602C499.595 62.108 500.166 62.3523 500.683 62.6932C501.2 63.0284 501.615 63.4858 501.928 64.0653C502.246 64.6449 502.405 65.3693 502.405 66.2386V75H499.439V73.2017H499.337C499.149 73.5653 498.885 73.9062 498.544 74.2244C498.209 74.5369 497.786 74.7898 497.274 74.983C496.768 75.1705 496.175 75.2642 495.493 75.2642ZM496.294 72.9972C496.913 72.9972 497.45 72.875 497.905 72.6307C498.359 72.3807 498.709 72.0511 498.953 71.642C499.203 71.233 499.328 70.7869 499.328 70.304V68.7614C499.232 68.8409 499.067 68.9148 498.834 68.983C498.607 69.0511 498.351 69.1108 498.067 69.1619C497.783 69.2131 497.501 69.2585 497.223 69.2983C496.945 69.3381 496.703 69.3722 496.499 69.4006C496.038 69.4631 495.626 69.5653 495.263 69.7074C494.899 69.8494 494.612 70.0483 494.402 70.304C494.192 70.554 494.087 70.8778 494.087 71.2756C494.087 71.8438 494.294 72.2727 494.709 72.5625C495.124 72.8523 495.652 72.9972 496.294 72.9972Z" fill="#00943D"/>
<defs>
<filter id="filter0_d_153_133" x="103.463" y="33.5" width="596.037" height="664" filterUnits="userSpaceOnUse" color-interpolation-filters="sRGB">
<feFlood flood-opacity="0" result="BackgroundImageFix"/>
<feColorMatrix in="SourceAlpha" type="matrix" values="0 0 0 0 0 0 0 0 0 0 0 0 0 0 0 0 0 0 127 0" result="hardAlpha"/>
<feOffset dy="4"/>
<feGaussianBlur stdDeviation="2"/>
<feComposite in2="hardAlpha" operator="out"/>
<feColorMatrix type="matrix" values="0 0 0 0 0 0 0 0 0 0 0 0 0 0 0 0 0 0 0.25 0"/>
<feBlend mode="normal" in2="BackgroundImageFix" result="effect1_dropShadow_153_133"/>
<feBlend mode="normal" in="SourceGraphic" in2="effect1_dropShadow_153_133" result="shape"/>
</filter>
</defs>
</svg>
