<svg width="568" height="812" viewBox="0 0 568 812" fill="none" xmlns="http://www.w3.org/2000/svg">
<rect x="0.5" y="0.5" width="567" height="811" rx="35.5" fill="#97DCFF" stroke="#717171"/>
<g filter="url(#filter0_d_160_365)">
<path d="M472 66.5L230 67L230.5 69L232 70.5L234.5 72L235.5 78L232.5 81C231.833 81.3333 230.4 82.1 230 82.5C229.5 83 228.5 84 228.5 84.5C228.5 85 228 86.5 226.5 87C225.3 87.4 224.667 86.5 224.5 86C223.667 86.5 221.9 87.5 221.5 87.5C221 87.5 217.5 90 216.5 90.5C215.5 91 214.5 90.5 214.5 90C214.5 89.5 213.5 88 213.5 87.5C213.5 87 214.5 86.5 214.5 86V83C214 82.8333 212.8 82.5 212 82.5C211.2 82.5 210 82.8333 209.5 83C209.333 83.8333 209 85.6 209 86C209 86.4 210.667 89.1667 211.5 90.5L211 93C210.667 93.6667 209.9 95.1 209.5 95.5C209 96 210 98 210 98.5C210 99 211.5 101.5 211 102.5C210.5 103.5 210 103.5 208.5 104C207 104.5 206 104 204.5 104C203 104 202 102.5 202 102C202 101.6 200.667 101.833 200 102L198.5 105.5L202.5 107C202.833 107.333 203.6 108 204 108C204.5 108 205.5 108 207 108.5C208.2 108.9 209.5 108.333 210 108V110C210 110.5 209.5 112.5 209 113C208.5 113.5 207.5 115 207 115.5C206.5 116 204.5 117.5 204 118C203.5 118.5 202 117.5 201.5 117.5C201.1 117.5 200.333 116.5 200 116L201 112V109L199 109.5L197.5 111L197 114C196.833 115.167 196.5 117.6 196.5 118V120.792C196.5 121.025 198.5 123.361 199.5 124.5C200.167 125.5 201.5 127.6 201.5 128C201.5 128.4 201.833 129.833 202 130.5C201 131.5 198.9 133.5 198.5 133.5C198.1 133.5 196.667 135.833 196 137L196.5 142V144C196.833 144.5 197.5 145.7 197.5 146.5C197.5 147.3 196.167 148.5 195.5 149C194.5 149.5 192.4 150.6 192 151C191.5 151.5 189 154 188.5 154.202C188.1 154.364 188.333 155.801 188.5 156.5V160.5C188.5 161.5 188 162.5 187 162.5C186 162.5 184.5 160 184.5 159.5C184.5 159.1 185.833 156.333 186.5 155L185 154.5L182 155.5C180.5 155.333 177.4 155.1 177 155.5C176.5 156 175.5 157 175.5 157.5V159L179 162.5C179.8 163.3 179.333 164.833 179 165.5L176.5 167.5H169.5C168.7 167.5 167.833 168.5 167.5 169L166.5 172.5V176C166.5 177.5 165.5 176.5 164.5 176C163.5 175.5 162 173.5 161 173C160.2 172.6 158.667 172.5 158 172.5L156.5 175.5C156.667 176.5 157.2 178.6 158 179C159 179.5 160 180.5 161.5 181C163 181.5 165.5 180.5 166.5 180.5C167.5 180.5 169 181 169.5 183C170 185 169.5 184.5 168 186C166.5 187.5 165 186.5 164 185.5C163.2 184.7 160.333 183.5 159 183C158.333 183.333 156.7 184.2 155.5 185C154 186 153.5 187 153.5 187.5C153.5 188 155 190.5 155.5 191.5C156 192.5 157.5 193 159 193C160.2 193 161.5 194.333 162 195L161 201L159 202.5L153.5 203.5L151 204.5C151.333 205.167 152.2 206.7 153 207.5C154 208.5 153.5 209.5 153 210C152.5 210.5 151 211.5 150 212C149 212.5 147 208 146.5 207.5C146.1 207.1 144.333 206.667 143.5 206.5L139 208V213C140.833 213.667 144.8 215 146 215C147.2 215 146.833 217 146.5 218C146 219 144.9 221.1 144.5 221.5C144.1 221.9 142.333 223.333 141.5 224C141.333 224.833 141 226.7 141 227.5C141 228.5 142.5 231 143.5 231.5C144.5 232 145 233.5 146 233.5C146.8 233.5 147.667 235.167 148 236L146 239.5L142.5 236L138 238L132.5 236V238L132 243C133 244.333 135.4 247 137 247C139 247 141 247 143.5 249.5C145.5 251.5 142.667 253 141 253.5L132.5 249.5L127.5 247L123 249.5C122.667 250 122 251.3 122 252.5C122 254 124.5 254.5 126.5 255.5C128.5 256.5 130 259 131.5 259.5C133 260 131.5 263 130 264C128.5 265 126.5 266.5 124.5 266.5C122.9 266.5 122.167 268.167 122 269L124.5 273C124.833 274 125.3 276.3 124.5 277.5C123.7 278.7 122.5 281.667 122 283L124.5 285L129 280L132.5 283C130.833 284.333 127.3 287 126.5 287C125.5 287 124.5 289.5 126.5 291C128.5 292.5 129.5 291 130.5 291C131.3 291 136.5 285.667 139 283L137 291L134 294.5L132.5 298.5V304.5C133 306.5 134.2 310.7 135 311.5C136 312.5 138 311.5 139 311.5C139.8 311.5 140.667 307.5 141 305.5H141.5V311.5L138 316L139 321.5L138 325.5L134 326.5L129 325.5L125.5 326.5L127.5 330.5L132 335L135 338L130 342.5C129.167 344.667 127.1 349 125.5 349C123.9 349 124.167 351.667 124.5 353C124.833 353.833 125.5 355.8 125.5 357C125.5 358.5 129 359 130.5 359C131.7 359 133.333 356.667 134 355.5L132.5 349L134 347.5L138 349L141 354.5L139 360.5L137 365.5L130.5 369L129.5 372V378L131.5 380.5L139 382L141.5 384.5L137 389L132 394.5V399C132.667 400.167 134.2 402.5 135 402.5C135.8 402.5 139.333 401.5 141 401L143.5 397L146 394.5L148 399L145 402.5L139 405.5L142.5 408L145 410C146.5 410.833 149.5 412.9 149.5 414.5C149.5 416.5 146 415.5 145 415.5C144.2 415.5 140.667 411.833 139 410H137.5L135 415.5C135.667 416.833 137.2 419.8 138 421C139 422.5 142.5 421 145 422.5C147 423.7 148.833 422 149.5 421L152 423.5L150.5 427.5L149.5 429.5C149.167 430.5 148.5 432.6 148.5 433C148.5 433.5 150 434.5 151.5 435C153 435.5 155 435.5 157 435.5C158.6 435.5 160 435.833 160.5 436L161 437C160.333 438 158.9 440 158.5 440C158 440 156.5 442 156 442.5C155.6 442.9 154.167 442.667 153.5 442.5L151 444.5L152 448L151.5 449.5L150.5 452L148.5 452.5L145 450.5H143.5C142.833 451 141.4 452 141 452C140.6 452 139.5 451.667 139 451.5C138 452 135.8 453 135 453C134.2 453 132.333 454.333 131.5 455L129.5 457L129 461C129 461.667 129.2 463.2 130 464C130.8 464.8 131.333 464.667 131.5 464.5C133.333 464.667 137.1 465 137.5 465C137.9 465 140.333 465.333 141.5 465.5L142.5 464.5V462.222V460C143.167 459.667 144.6 459 145 459C145.5 459 148 460 148.5 460.5C149 461 148 463 148 463.5C148 464 145.5 468 145 468.5C144.6 468.9 142.167 470.333 141 471L139 473C138.6 473.4 137.5 474.167 137 474.5L135 473.5L134 471L132 470.5C131.5 471 130.5 472.1 130.5 472.5C130.5 473 131 475 131.5 475C131.9 475 133.333 476 134 476.5H138C139.5 476.5 139.5 479 139 479.5C138.6 479.9 138.167 482.333 138 483.5L132.5 485L129 485.5L127.5 488V491.5V494.5L124.5 496.5L121.5 498.5L118 500.5L117.5 502.5L119.5 504.5C119.9 504.9 120.333 506.333 120.5 507C119.5 507.167 117.4 507.5 117 507.5C116.6 507.5 115.5 505.167 115 504L114 502L110 503.5L108 506L107.5 509.5V513.5H108.5H116L117.5 516L108.5 517L105.5 519L103 523.5V531.5L101.5 534C100.333 534.333 97.8 535 97 535C96.2 535 94.6667 533.667 94 533L92 531.5L88.5 534L90.5 537C90.5 537.667 90.8 539 92 539C93.5 539 96.5 539 97 538C97.4 537.2 100.167 538.333 101.5 539V541L98 543L94 545L88.5 546.5V550.5V554L90.5 559C91 559.667 92.6 561.5 95 563.5C98 566 95 564.5 95 567C95 569 93 568.5 92 568L89.5 567L87 563.5V560H85.5L83 561V564.5C83.3333 565.167 84.3 566.6 85.5 567C86.7 567.4 86 569.5 85.5 570.5L87 572.5L89.5 577.5L87 581.5L80 583H74V585.5L80 592L79.5 595.5L77.5 600.5L76.5 602.5L79.5 605.5L84 611L81 615L76.5 618.5L296 618V623L292.5 626L293.5 628.5V631.5H290.5L289.5 634.5L291.5 636.5L290.5 638V640L288 642.5V645L284 648L285 650.5L284 653.5L283 658.5L284 664L286 670.5V675.5L289 679L290.5 683.5L301.5 692V696.5L306 707V714L309.5 719.5L308.5 722.5L314 729L325 727.5L328 725.5L332 718.5L334 717L344 710L337 706L339.5 703.5H341.5L349 707L348 710H351L364 707L377.5 702L390.5 700L397.5 698.5L403 701L406.5 704.5C408.333 705.333 412.2 707 413 707C413.8 707 417.667 705.333 419.5 704.5L424.5 702L426.5 702.5C427 703.167 428.1 704.6 428.5 705C428.9 705.4 429 700.833 429 698.5L432.5 699.5C431.833 701.667 430.5 706.1 430.5 706.5C430.5 707 433.5 707.5 434 708C434.5 708.5 439 709 440.5 709.5C441.7 709.9 443 707 443.5 705.5H450C451.2 705.5 450.167 703.833 449.5 703L450 700.5L442 489.5L484.5 82L482.5 79.5L477.5 75L472 66.5Z" fill="#FFD597"/>
<path d="M472 66.5L230 67L230.5 69L232 70.5L234.5 72L235.5 78L232.5 81C231.833 81.3333 230.4 82.1 230 82.5C229.5 83 228.5 84 228.5 84.5C228.5 85 228 86.5 226.5 87C225.3 87.4 224.667 86.5 224.5 86C223.667 86.5 221.9 87.5 221.5 87.5C221 87.5 217.5 90 216.5 90.5C215.5 91 214.5 90.5 214.5 90C214.5 89.5 213.5 88 213.5 87.5C213.5 87 214.5 86.5 214.5 86V83C214 82.8333 212.8 82.5 212 82.5C211.2 82.5 210 82.8333 209.5 83C209.333 83.8333 209 85.6 209 86C209 86.4 210.667 89.1667 211.5 90.5L211 93C210.667 93.6667 209.9 95.1 209.5 95.5C209 96 210 98 210 98.5C210 99 211.5 101.5 211 102.5C210.5 103.5 210 103.5 208.5 104C207 104.5 206 104 204.5 104C203 104 202 102.5 202 102C202 101.6 200.667 101.833 200 102L198.5 105.5L202.5 107C202.833 107.333 203.6 108 204 108C204.5 108 205.5 108 207 108.5C208.2 108.9 209.5 108.333 210 108V110C210 110.5 209.5 112.5 209 113C208.5 113.5 207.5 115 207 115.5C206.5 116 204.5 117.5 204 118C203.5 118.5 202 117.5 201.5 117.5C201.1 117.5 200.333 116.5 200 116L201 112V109L199 109.5L197.5 111L197 114C196.833 115.167 196.5 117.6 196.5 118V120.792C196.5 121.025 198.5 123.361 199.5 124.5C200.167 125.5 201.5 127.6 201.5 128C201.5 128.4 201.833 129.833 202 130.5C201 131.5 198.9 133.5 198.5 133.5C198.1 133.5 196.667 135.833 196 137L196.5 142V144C196.833 144.5 197.5 145.7 197.5 146.5C197.5 147.3 196.167 148.5 195.5 149C194.5 149.5 192.4 150.6 192 151C191.5 151.5 189 154 188.5 154.202C188.1 154.364 188.333 155.801 188.5 156.5V160.5C188.5 161.5 188 162.5 187 162.5C186 162.5 184.5 160 184.5 159.5C184.5 159.1 185.833 156.333 186.5 155L185 154.5L182 155.5C180.5 155.333 177.4 155.1 177 155.5C176.5 156 175.5 157 175.5 157.5V159L179 162.5C179.8 163.3 179.333 164.833 179 165.5L176.5 167.5H169.5C168.7 167.5 167.833 168.5 167.5 169L166.5 172.5V176C166.5 177.5 165.5 176.5 164.5 176C163.5 175.5 162 173.5 161 173C160.2 172.6 158.667 172.5 158 172.5L156.5 175.5C156.667 176.5 157.2 178.6 158 179C159 179.5 160 180.5 161.5 181C163 181.5 165.5 180.5 166.5 180.5C167.5 180.5 169 181 169.5 183C170 185 169.5 184.5 168 186C166.5 187.5 165 186.5 164 185.5C163.2 184.7 160.333 183.5 159 183C158.333 183.333 156.7 184.2 155.5 185C154 186 153.5 187 153.5 187.5C153.5 188 155 190.5 155.5 191.5C156 192.5 157.5 193 159 193C160.2 193 161.5 194.333 162 195L161 201L159 202.5L153.5 203.5L151 204.5C151.333 205.167 152.2 206.7 153 207.5C154 208.5 153.5 209.5 153 210C152.5 210.5 151 211.5 150 212C149 212.5 147 208 146.5 207.5C146.1 207.1 144.333 206.667 143.5 206.5L139 208V213C140.833 213.667 144.8 215 146 215C147.2 215 146.833 217 146.5 218C146 219 144.9 221.1 144.5 221.5C144.1 221.9 142.333 223.333 141.5 224C141.333 224.833 141 226.7 141 227.5C141 228.5 142.5 231 143.5 231.5C144.5 232 145 233.5 146 233.5C146.8 233.5 147.667 235.167 148 236L146 239.5L142.5 236L138 238L132.5 236V238L132 243C133 244.333 135.4 247 137 247C139 247 141 247 143.5 249.5C145.5 251.5 142.667 253 141 253.5L132.5 249.5L127.5 247L123 249.5C122.667 250 122 251.3 122 252.5C122 254 124.5 254.5 126.5 255.5C128.5 256.5 130 259 131.5 259.5C133 260 131.5 263 130 264C128.5 265 126.5 266.5 124.5 266.5C122.9 266.5 122.167 268.167 122 269L124.5 273C124.833 274 125.3 276.3 124.5 277.5C123.7 278.7 122.5 281.667 122 283L124.5 285L129 280L132.5 283C130.833 284.333 127.3 287 126.5 287C125.5 287 124.5 289.5 126.5 291C128.5 292.5 129.5 291 130.5 291C131.3 291 136.5 285.667 139 283L137 291L134 294.5L132.5 298.5V304.5C133 306.5 134.2 310.7 135 311.5C136 312.5 138 311.5 139 311.5C139.8 311.5 140.667 307.5 141 305.5H141.5V311.5L138 316L139 321.5L138 325.5L134 326.5L129 325.5L125.5 326.5L127.5 330.5L132 335L135 338L130 342.5C129.167 344.667 127.1 349 125.5 349C123.9 349 124.167 351.667 124.5 353C124.833 353.833 125.5 355.8 125.5 357C125.5 358.5 129 359 130.5 359C131.7 359 133.333 356.667 134 355.5L132.5 349L134 347.5L138 349L141 354.5L139 360.5L137 365.5L130.5 369L129.5 372V378L131.5 380.5L139 382L141.5 384.5L137 389L132 394.5V399C132.667 400.167 134.2 402.5 135 402.5C135.8 402.5 139.333 401.5 141 401L143.5 397L146 394.5L148 399L145 402.5L139 405.5L142.5 408L145 410C146.5 410.833 149.5 412.9 149.5 414.5C149.5 416.5 146 415.5 145 415.5C144.2 415.5 140.667 411.833 139 410H137.5L135 415.5C135.667 416.833 137.2 419.8 138 421C139 422.5 142.5 421 145 422.5C147 423.7 148.833 422 149.5 421L152 423.5L150.5 427.5L149.5 429.5C149.167 430.5 148.5 432.6 148.5 433C148.5 433.5 150 434.5 151.5 435C153 435.5 155 435.5 157 435.5C158.6 435.5 160 435.833 160.5 436L161 437C160.333 438 158.9 440 158.5 440C158 440 156.5 442 156 442.5C155.6 442.9 154.167 442.667 153.5 442.5L151 444.5L152 448L151.5 449.5L150.5 452L148.5 452.5L145 450.5H143.5C142.833 451 141.4 452 141 452C140.6 452 139.5 451.667 139 451.5C138 452 135.8 453 135 453C134.2 453 132.333 454.333 131.5 455L129.5 457L129 461C129 461.667 129.2 463.2 130 464C130.8 464.8 131.333 464.667 131.5 464.5C133.333 464.667 137.1 465 137.5 465C137.9 465 140.333 465.333 141.5 465.5L142.5 464.5V462.222V460C143.167 459.667 144.6 459 145 459C145.5 459 148 460 148.5 460.5C149 461 148 463 148 463.5C148 464 145.5 468 145 468.5C144.6 468.9 142.167 470.333 141 471L139 473C138.6 473.4 137.5 474.167 137 474.5L135 473.5L134 471L132 470.5C131.5 471 130.5 472.1 130.5 472.5C130.5 473 131 475 131.5 475C131.9 475 133.333 476 134 476.5H138C139.5 476.5 139.5 479 139 479.5C138.6 479.9 138.167 482.333 138 483.5L132.5 485L129 485.5L127.5 488V491.5V494.5L124.5 496.5L121.5 498.5L118 500.5L117.5 502.5L119.5 504.5C119.9 504.9 120.333 506.333 120.5 507C119.5 507.167 117.4 507.5 117 507.5C116.6 507.5 115.5 505.167 115 504L114 502L110 503.5L108 506L107.5 509.5V513.5H108.5H116L117.5 516L108.5 517L105.5 519L103 523.5V531.5L101.5 534C100.333 534.333 97.8 535 97 535C96.2 535 94.6667 533.667 94 533L92 531.5L88.5 534L90.5 537C90.5 537.667 90.8 539 92 539C93.5 539 96.5 539 97 538C97.4 537.2 100.167 538.333 101.5 539V541L98 543L94 545L88.5 546.5V550.5V554L90.5 559C91 559.667 92.6 561.5 95 563.5C98 566 95 564.5 95 567C95 569 93 568.5 92 568L89.5 567L87 563.5V560H85.5L83 561V564.5C83.3333 565.167 84.3 566.6 85.5 567C86.7 567.4 86 569.5 85.5 570.5L87 572.5L89.5 577.5L87 581.5L80 583H74V585.5L80 592L79.5 595.5L77.5 600.5L76.5 602.5L79.5 605.5L84 611L81 615L76.5 618.5L296 618V623L292.5 626L293.5 628.5V631.5H290.5L289.5 634.5L291.5 636.5L290.5 638V640L288 642.5V645L284 648L285 650.5L284 653.5L283 658.5L284 664L286 670.5V675.5L289 679L290.5 683.5L301.5 692V696.5L306 707V714L309.5 719.5L308.5 722.5L314 729L325 727.5L328 725.5L332 718.5L334 717L344 710L337 706L339.5 703.5H341.5L349 707L348 710H351L364 707L377.5 702L390.5 700L397.5 698.5L403 701L406.5 704.5C408.333 705.333 412.2 707 413 707C413.8 707 417.667 705.333 419.5 704.5L424.5 702L426.5 702.5C427 703.167 428.1 704.6 428.5 705C428.9 705.4 429 700.833 429 698.5L432.5 699.5C431.833 701.667 430.5 706.1 430.5 706.5C430.5 707 433.5 707.5 434 708C434.5 708.5 439 709 440.5 709.5C441.7 709.9 443 707 443.5 705.5H450C451.2 705.5 450.167 703.833 449.5 703L450 700.5L442 489.5L484.5 82L482.5 79.5L477.5 75L472 66.5Z" stroke="black"/>
</g>
<path d="M306.46 681.5C306.281 680.95 306.044 680.457 305.75 680.022C305.461 679.581 305.115 679.205 304.712 678.895C304.315 678.584 303.863 678.347 303.357 678.184C302.85 678.021 302.295 677.939 301.69 677.939C300.699 677.939 299.798 678.195 298.987 678.707C298.176 679.219 297.53 679.973 297.051 680.969C296.572 681.966 296.332 683.188 296.332 684.636C296.332 686.085 296.575 687.307 297.059 688.304C297.544 689.3 298.2 690.054 299.028 690.566C299.855 691.078 300.786 691.334 301.821 691.334C302.779 691.334 303.623 691.13 304.353 690.721C305.088 690.307 305.66 689.725 306.068 688.973C306.482 688.217 306.689 687.326 306.689 686.303L307.31 686.433H302.278V684.636H308.649V686.433C308.649 687.811 308.355 689.009 307.767 690.027C307.184 691.045 306.379 691.835 305.349 692.396C304.326 692.951 303.15 693.229 301.821 693.229C300.34 693.229 299.039 692.88 297.917 692.183C296.801 691.486 295.929 690.495 295.303 689.21C294.683 687.925 294.372 686.401 294.372 684.636C294.372 683.313 294.549 682.123 294.903 681.067C295.262 680.005 295.769 679.101 296.422 678.355C297.076 677.609 297.849 677.038 298.742 676.64C299.635 676.243 300.618 676.044 301.69 676.044C302.572 676.044 303.395 676.177 304.157 676.444C304.925 676.706 305.608 677.079 306.207 677.563C306.811 678.042 307.315 678.617 307.718 679.287C308.121 679.951 308.399 680.689 308.551 681.5H306.46ZM319.763 687.871V680.455H321.691V693H319.763V690.876H319.633C319.339 691.513 318.881 692.055 318.26 692.502C317.64 692.943 316.856 693.163 315.908 693.163C315.124 693.163 314.427 692.992 313.817 692.649C313.207 692.3 312.728 691.778 312.38 691.081C312.031 690.378 311.857 689.493 311.857 688.426V680.455H313.785V688.295C313.785 689.21 314.04 689.94 314.552 690.484C315.07 691.029 315.728 691.301 316.529 691.301C317.008 691.301 317.495 691.179 317.991 690.934C318.492 690.689 318.911 690.313 319.249 689.806C319.592 689.3 319.763 688.655 319.763 687.871ZM327.149 676.273V693H325.221V676.273H327.149ZM336.266 680.455V682.088H329.503V680.455H336.266ZM331.529 693V678.723C331.529 678.004 331.697 677.405 332.035 676.926C332.373 676.447 332.811 676.088 333.35 675.848C333.889 675.608 334.458 675.489 335.057 675.489C335.531 675.489 335.917 675.527 336.217 675.603C336.516 675.679 336.74 675.75 336.887 675.815L336.331 677.482C336.233 677.449 336.097 677.408 335.923 677.359C335.754 677.31 335.531 677.286 335.253 677.286C334.616 677.286 334.156 677.446 333.873 677.767C333.595 678.089 333.456 678.56 333.456 679.18V693H331.529ZM338.967 697.705V680.455H340.83V682.447H341.058C341.2 682.23 341.396 681.952 341.646 681.614C341.902 681.271 342.267 680.966 342.741 680.7C343.22 680.427 343.868 680.291 344.685 680.291C345.741 680.291 346.672 680.555 347.478 681.083C348.284 681.612 348.913 682.36 349.365 683.33C349.817 684.299 350.043 685.442 350.043 686.76C350.043 688.089 349.817 689.24 349.365 690.215C348.913 691.184 348.287 691.935 347.486 692.469C346.686 692.997 345.763 693.261 344.717 693.261C343.911 693.261 343.266 693.128 342.782 692.861C342.297 692.589 341.924 692.281 341.663 691.938C341.401 691.59 341.2 691.301 341.058 691.072H340.895V697.705H338.967ZM340.862 686.727C340.862 687.675 341.001 688.511 341.279 689.235C341.556 689.953 341.962 690.517 342.496 690.925C343.029 691.328 343.683 691.53 344.456 691.53C345.262 691.53 345.934 691.317 346.473 690.893C347.018 690.463 347.426 689.885 347.699 689.161C347.976 688.432 348.115 687.62 348.115 686.727C348.115 685.845 347.979 685.05 347.707 684.342C347.44 683.629 347.034 683.065 346.49 682.652C345.951 682.232 345.273 682.023 344.456 682.023C343.672 682.023 343.013 682.221 342.479 682.619C341.946 683.011 341.543 683.561 341.271 684.269C340.998 684.971 340.862 685.791 340.862 686.727ZM358.08 693.261C356.947 693.261 355.953 692.992 355.098 692.453C354.249 691.914 353.585 691.16 353.105 690.19C352.632 689.221 352.395 688.089 352.395 686.793C352.395 685.486 352.632 684.345 353.105 683.37C353.585 682.396 354.249 681.639 355.098 681.1C355.953 680.561 356.947 680.291 358.08 680.291C359.212 680.291 360.203 680.561 361.053 681.1C361.907 681.639 362.572 682.396 363.045 683.37C363.525 684.345 363.764 685.486 363.764 686.793C363.764 688.089 363.525 689.221 363.045 690.19C362.572 691.16 361.907 691.914 361.053 692.453C360.203 692.992 359.212 693.261 358.08 693.261ZM358.08 691.53C358.94 691.53 359.648 691.309 360.203 690.868C360.759 690.427 361.17 689.847 361.436 689.129C361.703 688.41 361.837 687.631 361.837 686.793C361.837 685.954 361.703 685.173 361.436 684.449C361.17 683.724 360.759 683.139 360.203 682.692C359.648 682.246 358.94 682.023 358.08 682.023C357.219 682.023 356.511 682.246 355.956 682.692C355.401 683.139 354.989 683.724 354.723 684.449C354.456 685.173 354.322 685.954 354.322 686.793C354.322 687.631 354.456 688.41 354.723 689.129C354.989 689.847 355.401 690.427 355.956 690.868C356.511 691.309 357.219 691.53 358.08 691.53ZM366.707 693V680.455H368.569V682.349H368.699C368.928 681.729 369.342 681.225 369.941 680.838C370.54 680.452 371.215 680.259 371.967 680.259C372.108 680.259 372.285 680.261 372.497 680.267C372.71 680.272 372.87 680.28 372.979 680.291V682.251C372.914 682.235 372.764 682.211 372.53 682.178C372.301 682.14 372.059 682.121 371.803 682.121C371.193 682.121 370.649 682.249 370.17 682.505C369.696 682.755 369.32 683.104 369.043 683.55C368.77 683.991 368.634 684.495 368.634 685.061V693H366.707ZM381.506 680.455V682.088H375.005V680.455H381.506ZM376.9 677.449H378.827V689.406C378.827 689.951 378.906 690.359 379.064 690.631C379.228 690.898 379.434 691.078 379.685 691.17C379.941 691.258 380.21 691.301 380.494 691.301C380.706 691.301 380.88 691.29 381.016 691.268C381.152 691.241 381.261 691.219 381.343 691.203L381.735 692.935C381.604 692.984 381.422 693.033 381.188 693.082C380.954 693.136 380.657 693.163 380.297 693.163C379.753 693.163 379.219 693.046 378.697 692.812C378.179 692.578 377.749 692.221 377.406 691.742C377.069 691.263 376.9 690.659 376.9 689.929V677.449Z" fill="black"/>
<path d="M321.955 36.196V33.5455H335.881V36.196H330.486V51H327.349V36.196H321.955ZM352.909 33.5455V51H350.097L341.872 39.1108H341.727V51H338.565V33.5455H341.395L349.611 45.4432H349.764V33.5455H352.909Z" fill="#005A5E"/>
<path d="M488.963 417H485.588L491.733 399.545H495.636L501.79 417H498.415L493.753 403.125H493.616L488.963 417ZM489.074 410.156H498.278V412.696H489.074V410.156ZM504.089 417V399.545H507.251V414.349H514.938V417H504.089Z" fill="#005A5E"/>
<path d="M131.722 679V661.545H134.884V676.349H142.571V679H131.722ZM148.213 679H144.838L150.983 661.545H154.886L161.04 679H157.665L153.003 665.125H152.866L148.213 679ZM148.324 672.156H157.528V674.696H148.324V672.156Z" fill="#005A5E"/>
<path d="M77.9631 205H74.5881L80.733 187.545H84.6364L90.7898 205H87.4148L82.7528 191.125H82.6165L77.9631 205ZM78.0739 198.156H87.2784V200.696H78.0739V198.156ZM93.0888 205V187.545H99.6342C100.975 187.545 102.1 187.778 103.009 188.244C103.924 188.71 104.614 189.364 105.08 190.205C105.552 191.04 105.788 192.014 105.788 193.128C105.788 194.247 105.549 195.219 105.072 196.043C104.6 196.861 103.904 197.494 102.984 197.943C102.063 198.386 100.933 198.608 99.5916 198.608H94.9297V195.983H99.1655C99.9496 195.983 100.592 195.875 101.092 195.659C101.592 195.437 101.961 195.116 102.2 194.696C102.444 194.27 102.566 193.747 102.566 193.128C102.566 192.509 102.444 191.98 102.2 191.543C101.955 191.099 101.583 190.764 101.083 190.537C100.583 190.304 99.9382 190.188 99.1484 190.188H96.2507V205H93.0888ZM102.106 197.091L106.427 205H102.898L98.6541 197.091H102.106Z" fill="#005A5E"/>
<circle cx="242.511" cy="440.511" r="9.01136" fill="#FF8F87" stroke="black"/>
<path d="M228.86 403.818H232.66V416.496C232.66 417.668 232.396 418.686 231.87 419.55C231.349 420.414 230.624 421.08 229.695 421.547C228.765 422.015 227.685 422.249 226.454 422.249C225.359 422.249 224.365 422.056 223.471 421.672C222.583 421.281 221.879 420.689 221.358 419.896C220.837 419.097 220.58 418.094 220.586 416.886H224.412C224.424 417.366 224.522 417.777 224.705 418.12C224.895 418.458 225.152 418.718 225.478 418.902C225.809 419.079 226.2 419.168 226.65 419.168C227.123 419.168 227.522 419.067 227.848 418.866C228.179 418.659 228.431 418.357 228.603 417.961C228.774 417.564 228.86 417.076 228.86 416.496V403.818ZM239.656 422.257C238.786 422.257 238.01 422.107 237.33 421.805C236.649 421.497 236.11 421.044 235.714 420.446C235.323 419.843 235.128 419.091 235.128 418.191C235.128 417.434 235.267 416.798 235.545 416.283C235.823 415.768 236.202 415.353 236.681 415.04C237.161 414.726 237.705 414.489 238.315 414.33C238.931 414.17 239.576 414.057 240.25 413.992C241.043 413.909 241.683 413.832 242.168 413.761C242.653 413.684 243.005 413.572 243.224 413.424C243.443 413.276 243.553 413.057 243.553 412.767V412.714C243.553 412.152 243.375 411.717 243.02 411.409C242.671 411.101 242.174 410.947 241.529 410.947C240.848 410.947 240.307 411.098 239.904 411.4C239.502 411.696 239.235 412.069 239.105 412.518L235.607 412.234C235.785 411.406 236.134 410.69 236.655 410.086C237.176 409.476 237.847 409.009 238.67 408.683C239.499 408.352 240.458 408.186 241.547 408.186C242.304 408.186 243.029 408.275 243.722 408.452C244.42 408.63 245.038 408.905 245.577 409.278C246.122 409.651 246.551 410.13 246.864 410.716C247.178 411.296 247.335 411.992 247.335 412.803V422H243.748V420.109H243.642C243.423 420.535 243.13 420.911 242.763 421.237C242.396 421.556 241.955 421.808 241.44 421.991C240.925 422.169 240.33 422.257 239.656 422.257ZM240.739 419.647C241.295 419.647 241.786 419.538 242.212 419.319C242.638 419.094 242.973 418.792 243.216 418.413C243.458 418.035 243.58 417.605 243.58 417.126V415.679C243.461 415.756 243.298 415.827 243.091 415.892C242.89 415.951 242.662 416.007 242.408 416.061C242.153 416.108 241.899 416.152 241.644 416.194C241.39 416.229 241.159 416.262 240.952 416.292C240.508 416.357 240.12 416.46 239.789 416.602C239.457 416.744 239.2 416.937 239.016 417.179C238.833 417.416 238.741 417.712 238.741 418.067C238.741 418.582 238.928 418.976 239.3 419.248C239.679 419.514 240.159 419.647 240.739 419.647ZM256.43 422.266C255.033 422.266 253.832 421.97 252.826 421.379C251.826 420.781 251.056 419.952 250.518 418.893C249.985 417.833 249.719 416.614 249.719 415.235C249.719 413.838 249.988 412.613 250.526 411.56C251.071 410.5 251.843 409.675 252.844 409.083C253.844 408.485 255.033 408.186 256.412 408.186C257.602 408.186 258.644 408.402 259.537 408.834C260.431 409.266 261.138 409.873 261.659 410.654C262.18 411.435 262.467 412.353 262.52 413.406H258.952C258.851 412.726 258.585 412.178 258.153 411.764C257.726 411.344 257.167 411.134 256.475 411.134C255.889 411.134 255.377 411.293 254.939 411.613C254.507 411.927 254.169 412.385 253.927 412.989C253.684 413.593 253.563 414.324 253.563 415.182C253.563 416.052 253.681 416.792 253.918 417.401C254.16 418.011 254.501 418.475 254.939 418.795C255.377 419.115 255.889 419.275 256.475 419.275C256.907 419.275 257.294 419.186 257.638 419.008C257.987 418.831 258.274 418.573 258.499 418.236C258.73 417.893 258.881 417.481 258.952 417.002H262.52C262.461 418.043 262.177 418.961 261.668 419.754C261.165 420.541 260.47 421.157 259.582 421.6C258.694 422.044 257.644 422.266 256.43 422.266ZM268.369 418.076L268.378 413.539H268.928L273.296 408.364H277.637L271.769 415.217H270.872L268.369 418.076ZM264.942 422V403.818H268.724V422H264.942ZM273.465 422L269.452 416.061L271.973 413.388L277.895 422H273.465ZM290.839 412.252L287.376 412.465C287.317 412.169 287.19 411.903 286.994 411.666C286.799 411.424 286.542 411.231 286.222 411.089C285.908 410.941 285.533 410.867 285.095 410.867C284.509 410.867 284.014 410.991 283.612 411.24C283.209 411.483 283.008 411.808 283.008 412.217C283.008 412.542 283.138 412.817 283.399 413.042C283.659 413.267 284.106 413.448 284.739 413.584L287.207 414.081C288.533 414.353 289.522 414.791 290.173 415.395C290.824 415.999 291.149 416.792 291.149 417.774C291.149 418.668 290.886 419.452 290.359 420.127C289.838 420.801 289.122 421.328 288.211 421.707C287.305 422.08 286.261 422.266 285.077 422.266C283.272 422.266 281.833 421.891 280.762 421.139C279.697 420.381 279.072 419.351 278.889 418.049L282.609 417.854C282.721 418.404 282.993 418.825 283.426 419.115C283.858 419.399 284.411 419.541 285.086 419.541C285.749 419.541 286.281 419.414 286.684 419.159C287.092 418.899 287.299 418.564 287.305 418.156C287.299 417.813 287.154 417.531 286.87 417.312C286.586 417.088 286.148 416.916 285.556 416.798L283.195 416.327C281.863 416.061 280.872 415.599 280.221 414.942C279.575 414.285 279.253 413.448 279.253 412.43C279.253 411.554 279.49 410.799 279.963 410.166C280.443 409.533 281.114 409.044 281.978 408.701C282.848 408.358 283.866 408.186 285.032 408.186C286.755 408.186 288.11 408.55 289.098 409.278C290.093 410.006 290.673 410.997 290.839 412.252ZM299.692 422.266C298.313 422.266 297.12 421.973 296.114 421.387C295.114 420.796 294.342 419.973 293.797 418.919C293.253 417.86 292.98 416.632 292.98 415.235C292.98 413.826 293.253 412.595 293.797 411.542C294.342 410.482 295.114 409.66 296.114 409.074C297.12 408.482 298.313 408.186 299.692 408.186C301.071 408.186 302.261 408.482 303.261 409.074C304.267 409.66 305.042 410.482 305.587 411.542C306.131 412.595 306.404 413.826 306.404 415.235C306.404 416.632 306.131 417.86 305.587 418.919C305.042 419.973 304.267 420.796 303.261 421.387C302.261 421.973 301.071 422.266 299.692 422.266ZM299.71 419.337C300.337 419.337 300.861 419.159 301.281 418.804C301.701 418.443 302.018 417.952 302.231 417.33C302.45 416.709 302.559 416.002 302.559 415.208C302.559 414.415 302.45 413.708 302.231 413.087C302.018 412.465 301.701 411.974 301.281 411.613C300.861 411.252 300.337 411.071 299.71 411.071C299.076 411.071 298.544 411.252 298.112 411.613C297.686 411.974 297.363 412.465 297.144 413.087C296.931 413.708 296.824 414.415 296.824 415.208C296.824 416.002 296.931 416.709 297.144 417.33C297.363 417.952 297.686 418.443 298.112 418.804C298.544 419.159 299.076 419.337 299.71 419.337ZM312.645 414.116V422H308.863V408.364H312.467V410.77H312.627C312.929 409.976 313.435 409.349 314.145 408.887C314.855 408.42 315.716 408.186 316.729 408.186C317.675 408.186 318.501 408.393 319.205 408.808C319.91 409.222 320.457 409.814 320.848 410.583C321.238 411.347 321.434 412.258 321.434 413.317V422H317.652V413.992C317.658 413.158 317.445 412.507 317.013 412.039C316.581 411.566 315.986 411.329 315.228 411.329C314.719 411.329 314.269 411.438 313.879 411.657C313.494 411.876 313.192 412.196 312.973 412.616C312.76 413.03 312.651 413.531 312.645 414.116Z" fill="black"/>
<path d="M240.145 91.3636C240.038 90.464 239.606 89.7656 238.849 89.2685C238.091 88.7713 237.162 88.5227 236.061 88.5227C235.256 88.5227 234.552 88.6529 233.948 88.9134C233.35 89.1738 232.883 89.5318 232.545 89.9876C232.214 90.4433 232.048 90.9612 232.048 91.5412C232.048 92.0265 232.164 92.4438 232.395 92.793C232.631 93.1362 232.933 93.4233 233.3 93.6541C233.667 93.879 234.052 94.0655 234.454 94.2134C234.857 94.3555 235.227 94.4709 235.564 94.5597L237.411 95.0568C237.884 95.1811 238.411 95.3527 238.991 95.5717C239.577 95.7907 240.136 96.0896 240.669 96.4684C241.207 96.8413 241.651 97.3207 242 97.9066C242.35 98.4925 242.524 99.2116 242.524 100.064C242.524 101.046 242.267 101.934 241.752 102.727C241.243 103.52 240.497 104.151 239.515 104.618C238.538 105.086 237.351 105.32 235.955 105.32C234.652 105.32 233.525 105.109 232.572 104.689C231.625 104.269 230.879 103.683 230.335 102.931C229.796 102.18 229.491 101.307 229.42 100.312H231.693C231.752 100.999 231.983 101.567 232.386 102.017C232.794 102.461 233.309 102.792 233.93 103.011C234.558 103.224 235.232 103.331 235.955 103.331C236.795 103.331 237.55 103.195 238.218 102.923C238.887 102.644 239.417 102.26 239.808 101.768C240.198 101.271 240.393 100.691 240.393 100.028C240.393 99.4247 240.225 98.9335 239.887 98.5547C239.55 98.1759 239.106 97.8681 238.556 97.6314C238.005 97.3946 237.411 97.1875 236.771 97.0099L234.534 96.3707C233.114 95.9624 231.989 95.3794 231.161 94.6218C230.332 93.8642 229.918 92.8729 229.918 91.6477C229.918 90.6297 230.193 89.742 230.743 88.9844C231.3 88.2209 232.045 87.629 232.98 87.2088C233.922 86.7827 234.972 86.5696 236.132 86.5696C237.304 86.5696 238.346 86.7797 239.257 87.1999C240.169 87.6142 240.891 88.1824 241.423 88.9045C241.962 89.6265 242.246 90.4463 242.276 91.3636H240.145ZM251.4 105.284C250.169 105.284 249.089 104.991 248.159 104.405C247.236 103.819 246.514 103 245.993 101.946C245.478 100.893 245.221 99.6615 245.221 98.2528C245.221 96.8324 245.478 95.5924 245.993 94.533C246.514 93.4736 247.236 92.6509 248.159 92.065C249.089 91.479 250.169 91.1861 251.4 91.1861C252.631 91.1861 253.708 91.479 254.631 92.065C255.561 92.6509 256.283 93.4736 256.797 94.533C257.318 95.5924 257.579 96.8324 257.579 98.2528C257.579 99.6615 257.318 100.893 256.797 101.946C256.283 103 255.561 103.819 254.631 104.405C253.708 104.991 252.631 105.284 251.4 105.284ZM251.4 103.402C252.335 103.402 253.104 103.162 253.708 102.683C254.312 102.203 254.759 101.573 255.049 100.792C255.339 100.011 255.484 99.1643 255.484 98.2528C255.484 97.3414 255.339 96.4921 255.049 95.7049C254.759 94.9177 254.312 94.2815 253.708 93.7962C253.104 93.3108 252.335 93.0682 251.4 93.0682C250.465 93.0682 249.695 93.3108 249.092 93.7962C248.488 94.2815 248.041 94.9177 247.751 95.7049C247.461 96.4921 247.316 97.3414 247.316 98.2528C247.316 99.1643 247.461 100.011 247.751 100.792C248.041 101.573 248.488 102.203 249.092 102.683C249.695 103.162 250.465 103.402 251.4 103.402ZM269.371 99.4247V91.3636H271.466V105H269.371V102.692H269.229C268.909 103.384 268.412 103.973 267.737 104.458C267.063 104.938 266.21 105.178 265.18 105.178C264.328 105.178 263.571 104.991 262.908 104.618C262.245 104.239 261.724 103.671 261.345 102.914C260.966 102.15 260.777 101.188 260.777 100.028V91.3636H262.872V99.8864C262.872 100.881 263.15 101.674 263.707 102.266C264.269 102.857 264.985 103.153 265.855 103.153C266.376 103.153 266.906 103.02 267.444 102.754C267.989 102.488 268.444 102.079 268.811 101.529C269.184 100.978 269.371 100.277 269.371 99.4247ZM281.234 91.3636V93.1392H274.167V91.3636H281.234ZM276.227 88.0966H278.322V101.094C278.322 101.686 278.408 102.129 278.579 102.425C278.757 102.715 278.982 102.911 279.254 103.011C279.532 103.106 279.825 103.153 280.133 103.153C280.364 103.153 280.553 103.142 280.701 103.118C280.849 103.088 280.967 103.065 281.056 103.047L281.482 104.929C281.34 104.982 281.142 105.036 280.888 105.089C280.633 105.148 280.31 105.178 279.92 105.178C279.328 105.178 278.748 105.05 278.18 104.796C277.618 104.541 277.15 104.154 276.777 103.633C276.41 103.112 276.227 102.455 276.227 101.662V88.0966ZM286.774 96.7969V105H284.678V86.8182H286.774V93.4943H286.951C287.271 92.79 287.75 92.2307 288.389 91.8164C289.034 91.3962 289.893 91.1861 290.964 91.1861C291.893 91.1861 292.707 91.3725 293.405 91.7454C294.104 92.1123 294.645 92.6776 295.03 93.4411C295.421 94.1986 295.616 95.1634 295.616 96.3352V105H293.521V96.4773C293.521 95.3942 293.24 94.5567 292.677 93.9648C292.121 93.3671 291.349 93.0682 290.36 93.0682C289.674 93.0682 289.058 93.2132 288.514 93.5032C287.975 93.7932 287.549 94.2164 287.235 94.7727C286.927 95.3291 286.774 96.0038 286.774 96.7969ZM303.462 105.32C302.598 105.32 301.813 105.157 301.109 104.831C300.405 104.5 299.845 104.023 299.431 103.402C299.017 102.775 298.81 102.017 298.81 101.129C298.81 100.348 298.964 99.7147 299.271 99.2294C299.579 98.7382 299.99 98.3535 300.505 98.0753C301.02 97.7971 301.588 97.59 302.21 97.4538C302.837 97.3118 303.468 97.1993 304.101 97.1165C304.929 97.0099 305.601 96.93 306.116 96.8768C306.637 96.8176 307.016 96.7199 307.252 96.5838C307.495 96.4477 307.616 96.2109 307.616 95.8736V95.8026C307.616 94.9266 307.377 94.246 306.897 93.7607C306.424 93.2753 305.705 93.0327 304.74 93.0327C303.74 93.0327 302.956 93.2517 302.387 93.6896C301.819 94.1276 301.42 94.5952 301.189 95.0923L299.2 94.3821C299.555 93.5535 300.029 92.9084 300.621 92.4467C301.219 91.9792 301.87 91.6536 302.574 91.4702C303.284 91.2808 303.982 91.1861 304.669 91.1861C305.107 91.1861 305.61 91.2393 306.178 91.3459C306.752 91.4465 307.306 91.6566 307.838 91.9762C308.377 92.2958 308.824 92.7782 309.179 93.4233C309.534 94.0684 309.712 94.9325 309.712 96.0156V105H307.616V103.153H307.51C307.368 103.449 307.131 103.766 306.8 104.103C306.468 104.441 306.027 104.728 305.477 104.964C304.926 105.201 304.255 105.32 303.462 105.32ZM303.781 103.438C304.61 103.438 305.308 103.275 305.876 102.949C306.451 102.624 306.883 102.203 307.173 101.689C307.469 101.174 307.616 100.632 307.616 100.064V98.1463C307.528 98.2528 307.332 98.3505 307.031 98.4393C306.735 98.5221 306.391 98.5961 306.001 98.6612C305.616 98.7204 305.24 98.7737 304.873 98.821C304.512 98.8625 304.219 98.898 303.994 98.9276C303.45 98.9986 302.941 99.114 302.467 99.2738C302 99.4277 301.621 99.6615 301.331 99.9751C301.047 100.283 300.905 100.703 300.905 101.236C300.905 101.964 301.174 102.514 301.713 102.887C302.257 103.254 302.947 103.438 303.781 103.438ZM324.198 91.3636L319.155 105H317.025L311.982 91.3636H314.255L318.019 102.23H318.161L321.925 91.3636H324.198ZM332.193 105.284C330.879 105.284 329.745 104.994 328.792 104.414C327.845 103.828 327.114 103.011 326.6 101.964C326.091 100.91 325.836 99.6851 325.836 98.2884C325.836 96.8916 326.091 95.6605 326.6 94.5952C327.114 93.5239 327.831 92.6894 328.748 92.0916C329.671 91.4879 330.748 91.1861 331.979 91.1861C332.69 91.1861 333.391 91.3045 334.084 91.5412C334.776 91.7779 335.406 92.1626 335.975 92.6953C336.543 93.2221 336.995 93.9205 337.333 94.7905C337.67 95.6605 337.839 96.7318 337.839 98.0043V98.892H327.328V97.081H335.708C335.708 96.3116 335.554 95.625 335.247 95.0213C334.945 94.4176 334.513 93.9412 333.95 93.592C333.394 93.2428 332.737 93.0682 331.979 93.0682C331.145 93.0682 330.423 93.2753 329.813 93.6896C329.21 94.098 328.745 94.6307 328.419 95.2876C328.094 95.9446 327.931 96.6489 327.931 97.4006V98.608C327.931 99.6378 328.109 100.511 328.464 101.227C328.825 101.937 329.325 102.479 329.964 102.852C330.603 103.219 331.346 103.402 332.193 103.402C332.743 103.402 333.24 103.325 333.684 103.171C334.134 103.011 334.522 102.775 334.847 102.461C335.173 102.141 335.424 101.745 335.602 101.271L337.626 101.839C337.413 102.526 337.055 103.13 336.552 103.651C336.049 104.165 335.427 104.568 334.687 104.858C333.947 105.142 333.116 105.284 332.193 105.284ZM343.121 96.7969V105H341.026V91.3636H343.05V93.4943H343.228C343.547 92.8018 344.033 92.2455 344.684 91.8253C345.335 91.3991 346.175 91.1861 347.205 91.1861C348.128 91.1861 348.936 91.3755 349.629 91.7543C350.321 92.1271 350.86 92.6953 351.244 93.4588C351.629 94.2164 351.821 95.1752 351.821 96.3352V105H349.726V96.4773C349.726 95.406 349.448 94.5715 348.892 93.9737C348.335 93.37 347.572 93.0682 346.601 93.0682C345.932 93.0682 345.335 93.2132 344.808 93.5032C344.287 93.7932 343.876 94.2164 343.574 94.7727C343.272 95.3291 343.121 96.0038 343.121 96.7969Z" fill="black"/>
<path d="M375.207 185.771V183.818H388.844V185.771H383.126V202H380.925V185.771H375.207ZM398.696 196.425V188.364H400.791V202H398.696V199.692H398.554C398.234 200.384 397.737 200.973 397.062 201.458C396.388 201.938 395.535 202.178 394.506 202.178C393.653 202.178 392.896 201.991 392.233 201.618C391.57 201.239 391.049 200.671 390.67 199.914C390.292 199.15 390.102 198.188 390.102 197.028V188.364H392.197V196.886C392.197 197.881 392.476 198.674 393.032 199.266C393.594 199.857 394.31 200.153 395.18 200.153C395.701 200.153 396.231 200.02 396.769 199.754C397.314 199.488 397.77 199.079 398.137 198.529C398.509 197.978 398.696 197.277 398.696 196.425ZM404.629 207.114V188.364H406.653V190.53H406.901C407.055 190.293 407.268 189.991 407.54 189.624C407.819 189.251 408.215 188.92 408.73 188.63C409.251 188.334 409.955 188.186 410.843 188.186C411.991 188.186 413.003 188.473 413.879 189.047C414.755 189.621 415.439 190.435 415.93 191.489C416.421 192.542 416.667 193.785 416.667 195.217C416.667 196.661 416.421 197.913 415.93 198.973C415.439 200.026 414.758 200.843 413.888 201.423C413.018 201.997 412.015 202.284 410.879 202.284C410.003 202.284 409.301 202.139 408.775 201.849C408.248 201.553 407.842 201.219 407.558 200.846C407.274 200.467 407.055 200.153 406.901 199.905H406.724V207.114H404.629ZM406.688 195.182C406.688 196.212 406.839 197.12 407.141 197.907C407.443 198.689 407.884 199.301 408.464 199.745C409.044 200.183 409.754 200.402 410.594 200.402C411.47 200.402 412.201 200.171 412.787 199.71C413.379 199.242 413.823 198.615 414.119 197.827C414.421 197.034 414.572 196.152 414.572 195.182C414.572 194.223 414.424 193.359 414.128 192.589C413.838 191.814 413.397 191.202 412.805 190.752C412.219 190.296 411.482 190.068 410.594 190.068C409.742 190.068 409.026 190.284 408.446 190.716C407.866 191.142 407.428 191.74 407.132 192.51C406.836 193.273 406.688 194.164 406.688 195.182ZM425.58 202.284C424.266 202.284 423.133 201.994 422.18 201.414C421.233 200.828 420.502 200.011 419.987 198.964C419.478 197.91 419.224 196.685 419.224 195.288C419.224 193.892 419.478 192.661 419.987 191.595C420.502 190.524 421.218 189.689 422.136 189.092C423.059 188.488 424.136 188.186 425.367 188.186C426.077 188.186 426.779 188.304 427.471 188.541C428.164 188.778 428.794 189.163 429.362 189.695C429.93 190.222 430.383 190.92 430.721 191.79C431.058 192.661 431.227 193.732 431.227 195.004V195.892H420.715V194.081H429.096C429.096 193.312 428.942 192.625 428.634 192.021C428.332 191.418 427.9 190.941 427.338 190.592C426.782 190.243 426.125 190.068 425.367 190.068C424.533 190.068 423.811 190.275 423.201 190.69C422.597 191.098 422.133 191.631 421.807 192.288C421.482 192.945 421.319 193.649 421.319 194.401V195.608C421.319 196.638 421.496 197.511 421.852 198.227C422.213 198.937 422.713 199.479 423.352 199.852C423.991 200.219 424.734 200.402 425.58 200.402C426.131 200.402 426.628 200.325 427.072 200.171C427.522 200.011 427.909 199.775 428.235 199.461C428.56 199.141 428.812 198.745 428.989 198.271L431.013 198.839C430.8 199.526 430.442 200.13 429.939 200.651C429.436 201.165 428.815 201.568 428.075 201.858C427.335 202.142 426.504 202.284 425.58 202.284ZM436.509 183.818V202H434.414V183.818H436.509ZM445.886 202.284C444.655 202.284 443.575 201.991 442.646 201.405C441.722 200.819 441 200 440.479 198.946C439.965 197.893 439.707 196.661 439.707 195.253C439.707 193.832 439.965 192.592 440.479 191.533C441 190.474 441.722 189.651 442.646 189.065C443.575 188.479 444.655 188.186 445.886 188.186C447.117 188.186 448.194 188.479 449.118 189.065C450.047 189.651 450.769 190.474 451.284 191.533C451.805 192.592 452.065 193.832 452.065 195.253C452.065 196.661 451.805 197.893 451.284 198.946C450.769 200 450.047 200.819 449.118 201.405C448.194 201.991 447.117 202.284 445.886 202.284ZM445.886 200.402C446.821 200.402 447.591 200.162 448.194 199.683C448.798 199.203 449.245 198.573 449.535 197.792C449.825 197.011 449.97 196.164 449.97 195.253C449.97 194.341 449.825 193.492 449.535 192.705C449.245 191.918 448.798 191.281 448.194 190.796C447.591 190.311 446.821 190.068 445.886 190.068C444.951 190.068 444.182 190.311 443.578 190.796C442.974 191.281 442.527 191.918 442.237 192.705C441.947 193.492 441.802 194.341 441.802 195.253C441.802 196.164 441.947 197.011 442.237 197.792C442.527 198.573 442.974 199.203 443.578 199.683C444.182 200.162 444.951 200.402 445.886 200.402Z" fill="black"/>
<path d="M334.202 450.818H336.83L343.009 465.911H343.222L349.401 450.818H352.028V469H349.969V455.186H349.791L344.109 469H342.121L336.439 455.186H336.261V469H334.202V450.818ZM361.876 469.284C360.562 469.284 359.429 468.994 358.476 468.414C357.529 467.828 356.798 467.011 356.283 465.964C355.774 464.91 355.52 463.685 355.52 462.288C355.52 460.892 355.774 459.661 356.283 458.595C356.798 457.524 357.514 456.689 358.432 456.092C359.355 455.488 360.432 455.186 361.663 455.186C362.373 455.186 363.075 455.304 363.767 455.541C364.46 455.778 365.09 456.163 365.658 456.695C366.226 457.222 366.679 457.92 367.016 458.79C367.354 459.661 367.522 460.732 367.522 462.004V462.892H357.011V461.081H365.392C365.392 460.312 365.238 459.625 364.93 459.021C364.628 458.418 364.196 457.941 363.634 457.592C363.078 457.243 362.421 457.068 361.663 457.068C360.829 457.068 360.107 457.275 359.497 457.69C358.893 458.098 358.429 458.631 358.103 459.288C357.778 459.945 357.615 460.649 357.615 461.401V462.608C357.615 463.638 357.792 464.511 358.147 465.227C358.508 465.937 359.009 466.479 359.648 466.852C360.287 467.219 361.03 467.402 361.876 467.402C362.427 467.402 362.924 467.325 363.368 467.171C363.817 467.011 364.205 466.775 364.531 466.461C364.856 466.141 365.108 465.745 365.285 465.271L367.309 465.839C367.096 466.526 366.738 467.13 366.235 467.651C365.732 468.165 365.111 468.568 364.371 468.858C363.631 469.142 362.799 469.284 361.876 469.284ZM370.71 469V455.364H372.734V457.423H372.876C373.124 456.749 373.574 456.201 374.225 455.781C374.876 455.361 375.61 455.151 376.427 455.151C376.581 455.151 376.773 455.154 377.004 455.159C377.235 455.165 377.409 455.174 377.528 455.186V457.317C377.457 457.299 377.294 457.272 377.04 457.237C376.791 457.195 376.528 457.175 376.249 457.175C375.587 457.175 374.995 457.314 374.474 457.592C373.959 457.864 373.551 458.243 373.249 458.728C372.953 459.208 372.805 459.755 372.805 460.371V469H370.71ZM380.011 469V455.364H382.107V469H380.011ZM381.077 453.091C380.668 453.091 380.316 452.952 380.02 452.674C379.73 452.395 379.585 452.061 379.585 451.67C379.585 451.28 379.73 450.945 380.02 450.667C380.316 450.389 380.668 450.25 381.077 450.25C381.485 450.25 381.834 450.389 382.124 450.667C382.42 450.945 382.568 451.28 382.568 451.67C382.568 452.061 382.42 452.395 382.124 452.674C381.834 452.952 381.485 453.091 381.077 453.091ZM391.093 469.284C389.957 469.284 388.954 468.997 388.084 468.423C387.214 467.843 386.533 467.026 386.042 465.973C385.55 464.913 385.305 463.661 385.305 462.217C385.305 460.785 385.55 459.542 386.042 458.489C386.533 457.435 387.216 456.621 388.092 456.047C388.968 455.473 389.98 455.186 391.129 455.186C392.016 455.186 392.718 455.334 393.233 455.63C393.754 455.92 394.15 456.251 394.422 456.624C394.7 456.991 394.917 457.293 395.07 457.53H395.248V450.818H397.343V469H395.319V466.905H395.07C394.917 467.153 394.698 467.467 394.413 467.846C394.129 468.219 393.724 468.553 393.197 468.849C392.67 469.139 391.969 469.284 391.093 469.284ZM391.377 467.402C392.218 467.402 392.928 467.183 393.508 466.745C394.088 466.301 394.529 465.689 394.831 464.907C395.133 464.12 395.283 463.212 395.283 462.182C395.283 461.164 395.136 460.273 394.84 459.51C394.544 458.74 394.106 458.142 393.526 457.716C392.946 457.284 392.229 457.068 391.377 457.068C390.489 457.068 389.75 457.296 389.158 457.752C388.572 458.202 388.131 458.814 387.835 459.589C387.545 460.359 387.4 461.223 387.4 462.182C387.4 463.152 387.548 464.034 387.844 464.827C388.146 465.615 388.59 466.242 389.176 466.71C389.767 467.171 390.501 467.402 391.377 467.402ZM401.471 469V455.364H403.566V469H401.471ZM402.537 453.091C402.128 453.091 401.776 452.952 401.48 452.674C401.19 452.395 401.045 452.061 401.045 451.67C401.045 451.28 401.19 450.945 401.48 450.667C401.776 450.389 402.128 450.25 402.537 450.25C402.945 450.25 403.294 450.389 403.584 450.667C403.88 450.945 404.028 451.28 404.028 451.67C404.028 452.061 403.88 452.395 403.584 452.674C403.294 452.952 402.945 453.091 402.537 453.091ZM411.417 469.32C410.553 469.32 409.768 469.157 409.064 468.831C408.36 468.5 407.8 468.023 407.386 467.402C406.972 466.775 406.765 466.017 406.765 465.129C406.765 464.348 406.919 463.715 407.226 463.229C407.534 462.738 407.945 462.353 408.46 462.075C408.975 461.797 409.544 461.59 410.165 461.454C410.792 461.312 411.423 461.199 412.056 461.116C412.885 461.01 413.556 460.93 414.071 460.877C414.592 460.818 414.971 460.72 415.208 460.584C415.45 460.448 415.572 460.211 415.572 459.874V459.803C415.572 458.927 415.332 458.246 414.852 457.761C414.379 457.275 413.66 457.033 412.695 457.033C411.695 457.033 410.911 457.252 410.343 457.69C409.774 458.128 409.375 458.595 409.144 459.092L407.155 458.382C407.51 457.554 407.984 456.908 408.576 456.447C409.174 455.979 409.825 455.654 410.529 455.47C411.239 455.281 411.938 455.186 412.624 455.186C413.062 455.186 413.565 455.239 414.133 455.346C414.707 455.446 415.261 455.657 415.794 455.976C416.332 456.296 416.779 456.778 417.134 457.423C417.489 458.068 417.667 458.933 417.667 460.016V469H415.572V467.153H415.465C415.323 467.449 415.086 467.766 414.755 468.103C414.423 468.441 413.982 468.728 413.432 468.964C412.882 469.201 412.21 469.32 411.417 469.32ZM411.736 467.438C412.565 467.438 413.263 467.275 413.831 466.949C414.406 466.624 414.838 466.203 415.128 465.689C415.424 465.174 415.572 464.632 415.572 464.064V462.146C415.483 462.253 415.287 462.35 414.986 462.439C414.69 462.522 414.346 462.596 413.956 462.661C413.571 462.72 413.195 462.774 412.828 462.821C412.467 462.862 412.174 462.898 411.949 462.928C411.405 462.999 410.896 463.114 410.422 463.274C409.955 463.428 409.576 463.661 409.286 463.975C409.002 464.283 408.86 464.703 408.86 465.236C408.86 465.964 409.129 466.514 409.668 466.887C410.212 467.254 410.902 467.438 411.736 467.438ZM423.586 460.797V469H421.491V455.364H423.515V457.494H423.693C424.012 456.802 424.497 456.246 425.149 455.825C425.8 455.399 426.64 455.186 427.67 455.186C428.593 455.186 429.401 455.375 430.093 455.754C430.786 456.127 431.325 456.695 431.709 457.459C432.094 458.216 432.286 459.175 432.286 460.335V469H430.191V460.477C430.191 459.406 429.913 458.571 429.357 457.974C428.8 457.37 428.037 457.068 427.066 457.068C426.397 457.068 425.8 457.213 425.273 457.503C424.752 457.793 424.341 458.216 424.039 458.773C423.737 459.329 423.586 460.004 423.586 460.797Z" fill="black"/>
<path d="M277.202 606V587.818H279.403V595.915H289.098V587.818H291.3V606H289.098V597.868H279.403V606H277.202ZM299.436 606.32C298.572 606.32 297.788 606.157 297.084 605.831C296.379 605.5 295.82 605.023 295.406 604.402C294.991 603.775 294.784 603.017 294.784 602.129C294.784 601.348 294.938 600.715 295.246 600.229C295.554 599.738 295.965 599.353 296.48 599.075C296.995 598.797 297.563 598.59 298.184 598.454C298.812 598.312 299.442 598.199 300.075 598.116C300.904 598.01 301.576 597.93 302.091 597.877C302.612 597.818 302.99 597.72 303.227 597.584C303.47 597.448 303.591 597.211 303.591 596.874V596.803C303.591 595.927 303.351 595.246 302.872 594.761C302.398 594.275 301.679 594.033 300.715 594.033C299.714 594.033 298.93 594.252 298.362 594.69C297.794 595.128 297.394 595.595 297.164 596.092L295.175 595.382C295.53 594.554 296.003 593.908 296.595 593.447C297.193 592.979 297.844 592.654 298.548 592.47C299.259 592.281 299.957 592.186 300.644 592.186C301.082 592.186 301.585 592.239 302.153 592.346C302.727 592.446 303.28 592.657 303.813 592.976C304.352 593.296 304.798 593.778 305.154 594.423C305.509 595.068 305.686 595.933 305.686 597.016V606H303.591V604.153H303.485C303.343 604.449 303.106 604.766 302.774 605.103C302.443 605.441 302.002 605.728 301.452 605.964C300.901 606.201 300.229 606.32 299.436 606.32ZM299.756 604.438C300.584 604.438 301.283 604.275 301.851 603.949C302.425 603.624 302.857 603.203 303.147 602.689C303.443 602.174 303.591 601.632 303.591 601.064V599.146C303.502 599.253 303.307 599.35 303.005 599.439C302.709 599.522 302.366 599.596 301.975 599.661C301.591 599.72 301.215 599.774 300.848 599.821C300.487 599.862 300.194 599.898 299.969 599.928C299.424 599.999 298.915 600.114 298.442 600.274C297.974 600.428 297.596 600.661 297.306 600.975C297.021 601.283 296.879 601.703 296.879 602.236C296.879 602.964 297.149 603.514 297.687 603.887C298.232 604.254 298.921 604.438 299.756 604.438ZM315.441 592.364V594.139H308.374V592.364H315.441ZM310.434 589.097H312.529V602.094C312.529 602.686 312.615 603.129 312.786 603.425C312.964 603.715 313.189 603.911 313.461 604.011C313.739 604.106 314.032 604.153 314.34 604.153C314.571 604.153 314.76 604.142 314.908 604.118C315.056 604.088 315.174 604.065 315.263 604.047L315.689 605.929C315.547 605.982 315.349 606.036 315.095 606.089C314.84 606.148 314.517 606.178 314.127 606.178C313.535 606.178 312.955 606.05 312.387 605.796C311.825 605.541 311.357 605.154 310.984 604.633C310.617 604.112 310.434 603.455 310.434 602.662V589.097ZM324.523 592.364V594.139H317.456V592.364H324.523ZM319.516 589.097H321.611V602.094C321.611 602.686 321.697 603.129 321.868 603.425C322.046 603.715 322.271 603.911 322.543 604.011C322.821 604.106 323.114 604.153 323.422 604.153C323.653 604.153 323.842 604.142 323.99 604.118C324.138 604.088 324.256 604.065 324.345 604.047L324.771 605.929C324.629 605.982 324.431 606.036 324.177 606.089C323.922 606.148 323.6 606.178 323.209 606.178C322.617 606.178 322.037 606.05 321.469 605.796C320.907 605.541 320.439 605.154 320.066 604.633C319.699 604.112 319.516 603.455 319.516 602.662V589.097ZM327.674 606V592.364H329.77V606H327.674ZM328.74 590.091C328.331 590.091 327.979 589.952 327.683 589.674C327.393 589.395 327.248 589.061 327.248 588.67C327.248 588.28 327.393 587.945 327.683 587.667C327.979 587.389 328.331 587.25 328.74 587.25C329.148 587.25 329.497 587.389 329.787 587.667C330.083 587.945 330.231 588.28 330.231 588.67C330.231 589.061 330.083 589.395 329.787 589.674C329.497 589.952 329.148 590.091 328.74 590.091ZM339.324 606.284C338.01 606.284 336.877 605.994 335.924 605.414C334.977 604.828 334.246 604.011 333.731 602.964C333.222 601.91 332.968 600.685 332.968 599.288C332.968 597.892 333.222 596.661 333.731 595.595C334.246 594.524 334.962 593.689 335.88 593.092C336.803 592.488 337.88 592.186 339.111 592.186C339.822 592.186 340.523 592.304 341.215 592.541C341.908 592.778 342.538 593.163 343.106 593.695C343.675 594.222 344.127 594.92 344.465 595.79C344.802 596.661 344.971 597.732 344.971 599.004V599.892H334.459V598.081H342.84C342.84 597.312 342.686 596.625 342.378 596.021C342.077 595.418 341.644 594.941 341.082 594.592C340.526 594.243 339.869 594.068 339.111 594.068C338.277 594.068 337.555 594.275 336.945 594.69C336.341 595.098 335.877 595.631 335.551 596.288C335.226 596.945 335.063 597.649 335.063 598.401V599.608C335.063 600.638 335.241 601.511 335.596 602.227C335.957 602.937 336.457 603.479 337.096 603.852C337.735 604.219 338.478 604.402 339.324 604.402C339.875 604.402 340.372 604.325 340.816 604.171C341.266 604.011 341.653 603.775 341.979 603.461C342.304 603.141 342.556 602.745 342.733 602.271L344.758 602.839C344.545 603.526 344.186 604.13 343.683 604.651C343.18 605.165 342.559 605.568 341.819 605.858C341.079 606.142 340.248 606.284 339.324 606.284ZM357.817 595.418L355.935 595.95C355.816 595.637 355.642 595.332 355.411 595.036C355.186 594.734 354.878 594.485 354.488 594.29C354.097 594.095 353.597 593.997 352.987 593.997C352.153 593.997 351.457 594.19 350.901 594.574C350.351 594.953 350.075 595.435 350.075 596.021C350.075 596.542 350.265 596.953 350.644 597.255C351.022 597.557 351.614 597.809 352.419 598.01L354.443 598.507C355.663 598.803 356.571 599.256 357.169 599.865C357.767 600.469 358.066 601.247 358.066 602.2C358.066 602.982 357.841 603.68 357.391 604.295C356.947 604.911 356.325 605.396 355.526 605.751C354.727 606.107 353.798 606.284 352.739 606.284C351.348 606.284 350.197 605.982 349.285 605.379C348.374 604.775 347.797 603.893 347.554 602.733L349.543 602.236C349.732 602.97 350.09 603.52 350.617 603.887C351.15 604.254 351.845 604.438 352.703 604.438C353.68 604.438 354.455 604.23 355.029 603.816C355.609 603.396 355.899 602.893 355.899 602.307C355.899 601.833 355.734 601.437 355.402 601.117C355.071 600.792 354.562 600.549 353.875 600.389L351.602 599.857C350.354 599.561 349.436 599.102 348.85 598.48C348.27 597.853 347.98 597.069 347.98 596.128C347.98 595.358 348.196 594.678 348.628 594.086C349.066 593.494 349.661 593.029 350.413 592.692C351.17 592.355 352.029 592.186 352.987 592.186C354.337 592.186 355.396 592.482 356.166 593.074C356.941 593.666 357.491 594.447 357.817 595.418ZM361.503 606V587.818H363.599V594.53H363.776C363.93 594.293 364.143 593.991 364.415 593.624C364.694 593.251 365.09 592.92 365.605 592.63C366.126 592.334 366.83 592.186 367.718 592.186C368.866 592.186 369.878 592.473 370.754 593.047C371.63 593.621 372.314 594.435 372.805 595.489C373.296 596.542 373.542 597.785 373.542 599.217C373.542 600.661 373.296 601.913 372.805 602.973C372.314 604.026 371.633 604.843 370.763 605.423C369.893 605.997 368.89 606.284 367.753 606.284C366.878 606.284 366.176 606.139 365.649 605.849C365.123 605.553 364.717 605.219 364.433 604.846C364.149 604.467 363.93 604.153 363.776 603.905H363.528V606H361.503ZM363.563 599.182C363.563 600.212 363.714 601.12 364.016 601.907C364.318 602.689 364.759 603.301 365.339 603.745C365.919 604.183 366.629 604.402 367.469 604.402C368.345 604.402 369.076 604.171 369.662 603.71C370.254 603.242 370.698 602.615 370.994 601.827C371.296 601.034 371.447 600.152 371.447 599.182C371.447 598.223 371.299 597.359 371.003 596.589C370.713 595.814 370.272 595.202 369.68 594.752C369.094 594.296 368.357 594.068 367.469 594.068C366.617 594.068 365.901 594.284 365.321 594.716C364.741 595.142 364.303 595.74 364.007 596.51C363.711 597.273 363.563 598.164 363.563 599.182ZM385.34 600.425V592.364H387.436V606H385.34V603.692H385.198C384.879 604.384 384.382 604.973 383.707 605.458C383.032 605.938 382.18 606.178 381.15 606.178C380.298 606.178 379.54 605.991 378.877 605.618C378.215 605.239 377.694 604.671 377.315 603.914C376.936 603.15 376.747 602.188 376.747 601.028V592.364H378.842V600.886C378.842 601.881 379.12 602.674 379.676 603.266C380.239 603.857 380.955 604.153 381.825 604.153C382.346 604.153 382.875 604.02 383.414 603.754C383.958 603.488 384.414 603.079 384.781 602.529C385.154 601.978 385.34 601.277 385.34 600.425ZM391.273 606V592.364H393.297V594.423H393.439C393.688 593.749 394.138 593.201 394.789 592.781C395.44 592.361 396.174 592.151 396.99 592.151C397.144 592.151 397.337 592.154 397.567 592.159C397.798 592.165 397.973 592.174 398.091 592.186V594.317C398.02 594.299 397.857 594.272 397.603 594.237C397.354 594.195 397.091 594.175 396.813 594.175C396.15 594.175 395.558 594.314 395.037 594.592C394.522 594.864 394.114 595.243 393.812 595.728C393.516 596.208 393.368 596.755 393.368 597.371V606H391.273ZM405.664 611.398C404.652 611.398 403.782 611.268 403.054 611.007C402.326 610.753 401.719 610.415 401.234 609.995C400.755 609.581 400.373 609.137 400.089 608.663L401.758 607.491C401.947 607.74 402.187 608.024 402.477 608.344C402.767 608.669 403.163 608.95 403.667 609.187C404.176 609.43 404.841 609.551 405.664 609.551C406.765 609.551 407.673 609.285 408.39 608.752C409.106 608.219 409.464 607.385 409.464 606.249V603.479H409.286C409.132 603.727 408.913 604.035 408.629 604.402C408.351 604.763 407.949 605.086 407.422 605.37C406.901 605.648 406.197 605.787 405.309 605.787C404.208 605.787 403.22 605.527 402.344 605.006C401.474 604.485 400.784 603.727 400.275 602.733C399.772 601.739 399.521 600.531 399.521 599.111C399.521 597.714 399.766 596.498 400.257 595.462C400.749 594.42 401.432 593.615 402.308 593.047C403.184 592.473 404.196 592.186 405.344 592.186C406.232 592.186 406.937 592.334 407.457 592.63C407.984 592.92 408.387 593.251 408.665 593.624C408.949 593.991 409.168 594.293 409.322 594.53H409.535V592.364H411.559V606.391C411.559 607.562 411.293 608.515 410.76 609.249C410.233 609.989 409.523 610.531 408.629 610.874C407.741 611.223 406.753 611.398 405.664 611.398ZM405.593 603.905C406.433 603.905 407.144 603.712 407.724 603.328C408.304 602.943 408.745 602.39 409.047 601.668C409.348 600.946 409.499 600.081 409.499 599.075C409.499 598.093 409.351 597.226 409.055 596.474C408.759 595.722 408.321 595.134 407.741 594.707C407.161 594.281 406.445 594.068 405.593 594.068C404.705 594.068 403.965 594.293 403.374 594.743C402.788 595.193 402.347 595.796 402.051 596.554C401.761 597.312 401.616 598.152 401.616 599.075C401.616 600.022 401.764 600.86 402.06 601.588C402.362 602.31 402.805 602.878 403.391 603.292C403.983 603.701 404.717 603.905 405.593 603.905Z" fill="black"/>
<path d="M389.114 682V664.545H395.216C396.432 664.545 397.435 664.756 398.224 665.176C399.014 665.591 399.602 666.151 399.989 666.855C400.375 667.554 400.568 668.33 400.568 669.182C400.568 669.932 400.435 670.551 400.168 671.04C399.906 671.528 399.56 671.915 399.128 672.199C398.702 672.483 398.239 672.693 397.739 672.83V673C398.273 673.034 398.81 673.222 399.349 673.562C399.889 673.903 400.341 674.392 400.705 675.028C401.068 675.665 401.25 676.443 401.25 677.364C401.25 678.239 401.051 679.026 400.653 679.724C400.256 680.423 399.628 680.977 398.77 681.386C397.912 681.795 396.795 682 395.42 682H389.114ZM391.227 680.125H395.42C396.801 680.125 397.781 679.858 398.361 679.324C398.946 678.784 399.239 678.131 399.239 677.364C399.239 676.773 399.088 676.227 398.787 675.727C398.486 675.222 398.057 674.818 397.5 674.517C396.943 674.21 396.284 674.057 395.523 674.057H391.227V680.125ZM391.227 672.216H395.148C395.784 672.216 396.358 672.091 396.869 671.841C397.386 671.591 397.795 671.239 398.097 670.784C398.403 670.33 398.557 669.795 398.557 669.182C398.557 668.415 398.29 667.764 397.756 667.23C397.222 666.69 396.375 666.42 395.216 666.42H391.227V672.216ZM404.45 682V668.909H406.462V682H404.45ZM405.473 666.727C405.081 666.727 404.743 666.594 404.459 666.327C404.18 666.06 404.041 665.739 404.041 665.364C404.041 664.989 404.18 664.668 404.459 664.401C404.743 664.134 405.081 664 405.473 664C405.865 664 406.2 664.134 406.479 664.401C406.763 664.668 406.905 664.989 406.905 665.364C406.905 665.739 406.763 666.06 406.479 666.327C406.2 666.594 405.865 666.727 405.473 666.727ZM412.157 664.545V682H410.146V664.545H412.157ZM421.159 682.273C419.977 682.273 418.94 681.991 418.048 681.429C417.162 680.866 416.469 680.08 415.969 679.068C415.474 678.057 415.227 676.875 415.227 675.523C415.227 674.159 415.474 672.969 415.969 671.952C416.469 670.935 417.162 670.145 418.048 669.582C418.94 669.02 419.977 668.739 421.159 668.739C422.341 668.739 423.375 669.02 424.261 669.582C425.153 670.145 425.847 670.935 426.341 671.952C426.841 672.969 427.091 674.159 427.091 675.523C427.091 676.875 426.841 678.057 426.341 679.068C425.847 680.08 425.153 680.866 424.261 681.429C423.375 681.991 422.341 682.273 421.159 682.273ZM421.159 680.466C422.057 680.466 422.795 680.236 423.375 679.776C423.955 679.315 424.384 678.71 424.662 677.96C424.94 677.21 425.08 676.398 425.08 675.523C425.08 674.648 424.94 673.832 424.662 673.077C424.384 672.321 423.955 671.71 423.375 671.244C422.795 670.778 422.057 670.545 421.159 670.545C420.261 670.545 419.523 670.778 418.943 671.244C418.364 671.71 417.935 672.321 417.656 673.077C417.378 673.832 417.239 674.648 417.239 675.523C417.239 676.398 417.378 677.21 417.656 677.96C417.935 678.71 418.364 679.315 418.943 679.776C419.523 680.236 420.261 680.466 421.159 680.466ZM431.122 668.909L434.259 674.261L437.395 668.909H439.713L435.486 675.455L439.713 682H437.395L434.259 676.92L431.122 682H428.804L432.963 675.455L428.804 668.909H431.122ZM442.583 682V668.909H444.594V682H442.583ZM443.606 666.727C443.214 666.727 442.876 666.594 442.592 666.327C442.313 666.06 442.174 665.739 442.174 665.364C442.174 664.989 442.313 664.668 442.592 664.401C442.876 664.134 443.214 664 443.606 664C443.998 664 444.333 664.134 444.612 664.401C444.896 664.668 445.038 664.989 445.038 665.364C445.038 665.739 444.896 666.06 444.612 666.327C444.333 666.594 443.998 666.727 443.606 666.727Z" fill="black"/>
<circle cx="368.511" cy="705.511" r="9.01136" fill="#FFE587" stroke="black"/>
<circle cx="345.511" cy="572.511" r="9.01136" fill="#FFE587" stroke="black"/>
<circle cx="394.511" cy="696.511" r="9.01136" fill="#FFE587" stroke="black"/>
<circle cx="263.511" cy="71.5114" r="9.01136" fill="#FFE587" stroke="black"/>
<circle cx="414.511" cy="168.511" r="9.01136" fill="#FFE587" stroke="black"/>
<circle cx="416.511" cy="431.511" r="9.01136" fill="#FFE587" stroke="black"/>
<defs>
<filter id="filter0_d_160_365" x="69.5" y="65.9995" width="419.519" height="671.533" filterUnits="userSpaceOnUse" color-interpolation-filters="sRGB">
<feFlood flood-opacity="0" result="BackgroundImageFix"/>
<feColorMatrix in="SourceAlpha" type="matrix" values="0 0 0 0 0 0 0 0 0 0 0 0 0 0 0 0 0 0 127 0" result="hardAlpha"/>
<feOffset dy="4"/>
<feGaussianBlur stdDeviation="2"/>
<feComposite in2="hardAlpha" operator="out"/>
<feColorMatrix type="matrix" values="0 0 0 0 0 0 0 0 0 0 0 0 0 0 0 0 0 0 0.25 0"/>
<feBlend mode="normal" in2="BackgroundImageFix" result="effect1_dropShadow_160_365"/>
<feBlend mode="normal" in="SourceGraphic" in2="effect1_dropShadow_160_365" result="shape"/>
</filter>
</defs>
</svg>
