<svg width="892" height="762" viewBox="0 0 892 762" fill="none" xmlns="http://www.w3.org/2000/svg">
<rect x="0.5" y="0.5" width="891" height="761" rx="35.5" fill="#97DCFF" stroke="#717171"/>
<g filter="url(#filter0_d_159_231)">
<path d="M309 72L116.5 70.5H114L113 72V74.5L114 76.5L116 78.5H118H120C120.4 78.5 120.833 76.8333 121 76V74.5H123.5L125 78L123.5 79.5L121 82L120.5 83.5L121.5 86L124.5 89.5V93L126 98L127 101V104L124.5 105.5L125.5 106.5L127.5 107C128.333 107.167 130.1 107.5 130.5 107.5C131 107.5 134 109.5 134.5 110C134.9 110.4 135 112.5 135 113.5L138 114.5L142 116.5L142.5 119V123.5C143 123.833 144.2 124.6 145 125C145.8 125.4 146.333 126.5 146.5 127L147.5 130L149.5 131C150.5 131.5 150.5 134.5 150.5 135C150.5 135.4 149.833 137.167 149.5 138L149 139.5V142.5L150 144H155.5L165.5 155L168 156H170V158.5L171 160.5L173 160L175.5 160.5L178 164C178.833 164.5 180.6 165.5 181 165.5H185L188 165C188.667 164 190 161.9 190 161.5C190 161.1 193 160.667 194.5 160.5C195.333 161 197.2 162.1 198 162.5C198.8 162.9 197.667 164.667 197 165.5L197.5 168L202.5 170.5L204 172.5L202.5 175H198V177.5L201 178.5H204L202.5 183L201 184.5L197 182H194.5V184.5L193.5 189L190 190.5L186 196L185 198.5L184 202.5L180.5 203.5L179.5 207.5L180.5 209L184.5 212L186.5 215.5L189 219L192.5 221L197 228H201L202.5 229L202 230.5L200 233V237L202 241L206 244L208 246L207.5 249.5L209 251H211L213 252.5L215.5 255.5L219 256.5L222.5 255L226.5 258L229 259L231 258L232 259.5L231 263L229.5 597.5L680 598.5L682 608C683.667 609.167 687.1 611.6 687.5 612C687.9 612.4 688.333 613.833 688.5 614.5L687 619.5L688.5 623L687 625.5L684 626.5L683 630L673.5 636.5L671.5 642.5L664.5 647.5L662.5 650L661 652L659.5 654L658.5 657.5L657.5 660.5H724.5L726 655L727.5 650L731.5 647.5L735.5 644.5L736 642.5L734.5 638L729 633.5L726 631.5V630L730 629L733 630L737.5 629H740.5L742 627.5C741.5 627 740.5 625.9 740.5 625.5C740.5 625 739 623.5 737.5 623C736.3 622.6 735 621.833 734.5 621.5V619.5L736 618H740.5C741 618 742 617.5 743.5 616.5C745 615.5 745 614 745 613C745 612.2 743 608.667 742 607V604.5L743.5 600.5L740.5 596L739 592L740 589.5L742 588.5H745.5L748.5 591V595.5L746.5 598.5L747 601.5L750 603L753 600.5L754.5 595.5L756 589.5L757.5 584.5L759.5 582H762H764L766.5 584.5L769.5 588.5L774 588L775 584.5L777.5 579.5L780 576.5L778 574L777.5 570V567L780 565.5H783.5V562L779 560C778.5 559.167 777.5 557.3 777.5 556.5C777.5 555.7 779.833 555.167 781 555L783.5 551.5L784.5 545.5L785.5 539V537L782.5 536L781 538L777.5 537L776.5 533.5L775 531.5L772.5 529L770.5 526H767.5L766.5 527L767.5 529L769 531.5V534.5L767.5 535.5L757.5 529V521L751 512.5L750 509.5V503.5L744.5 499.5L745.5 496L747.5 492L752 490C752.333 489.5 753.1 488.3 753.5 487.5C753.9 486.7 753 482.833 752.5 481L746.5 472C745.667 470.167 744 466.4 744 466C744 465.6 743.667 462.833 743.5 461.5L747.5 458.5L744.5 455.5C744.333 454.333 744 451.8 744 451C744 450.2 744.333 448.667 744.5 448L743.5 446.5L737.5 444.5L736 441.5C735.333 441 733.9 439.9 733.5 439.5C733.1 439.1 731 439.667 730 440C729.833 438.833 729.5 436.1 729.5 434.5C729.5 432.9 728.5 432.833 728 433L720.5 426.5H717L715.5 425V423L711 420L707 423L702.5 424L699.5 421.5L698 417.5L701 415.5L702.5 413.5L701.5 411.5L697.5 412.5C696.667 412.333 695 411.9 695 411.5C695 411.1 693.333 409.667 692.5 409L690 406L686 405L681 399.5L677.5 398L674 396L669 390L664 384.5L659 378.5L658 371L659 363L662 357L666.5 350.5L668 342L671.5 336L677 328L678 323.5L675 317V314L678 309L682 305L684 300.5L682 297C679.667 295.667 674.7 292.7 673.5 291.5C672.3 290.3 667 289.333 664.5 289L654 283.5L650 283L646 289L641 295L637.5 295.5L632.5 293C631.333 291.667 629 288.9 629 288.5C629 288.1 628 284.667 627.5 283L625.5 276.5L624 272.5L626.5 266.5L622 245.5L604.5 230.5L590.5 219.5L586 209.5L579 206.5L577.5 202.5L574.5 200.5L557.5 184L558 176C555.667 173.667 551 168.9 551 168.5C551 168.1 550 166 549.5 165L551 160.5L551.5 157L545 143.5L544.5 140L543.5 131V120.5L545 112.5L549 102L551 97.5H545V95H542.5L541.5 91V87H537.5L531.5 80.5V75.5H529L525.5 74.5V71L521.5 67L460 69L421 69.5L332.5 71.5L309 72Z" fill="#FFD597"/>
<path d="M309 72L116.5 70.5H114L113 72V74.5L114 76.5L116 78.5H118H120C120.4 78.5 120.833 76.8333 121 76V74.5H123.5L125 78L123.5 79.5L121 82L120.5 83.5L121.5 86L124.5 89.5V93L126 98L127 101V104L124.5 105.5L125.5 106.5L127.5 107C128.333 107.167 130.1 107.5 130.5 107.5C131 107.5 134 109.5 134.5 110C134.9 110.4 135 112.5 135 113.5L138 114.5L142 116.5L142.5 119V123.5C143 123.833 144.2 124.6 145 125C145.8 125.4 146.333 126.5 146.5 127L147.5 130L149.5 131C150.5 131.5 150.5 134.5 150.5 135C150.5 135.4 149.833 137.167 149.5 138L149 139.5V142.5L150 144H155.5L165.5 155L168 156H170V158.5L171 160.5L173 160L175.5 160.5L178 164C178.833 164.5 180.6 165.5 181 165.5H185L188 165C188.667 164 190 161.9 190 161.5C190 161.1 193 160.667 194.5 160.5C195.333 161 197.2 162.1 198 162.5C198.8 162.9 197.667 164.667 197 165.5L197.5 168L202.5 170.5L204 172.5L202.5 175H198V177.5L201 178.5H204L202.5 183L201 184.5L197 182H194.5V184.5L193.5 189L190 190.5L186 196L185 198.5L184 202.5L180.5 203.5L179.5 207.5L180.5 209L184.5 212L186.5 215.5L189 219L192.5 221L197 228H201L202.5 229L202 230.5L200 233V237L202 241L206 244L208 246L207.5 249.5L209 251H211L213 252.5L215.5 255.5L219 256.5L222.5 255L226.5 258L229 259L231 258L232 259.5L231 263L229.5 597.5L680 598.5L682 608C683.667 609.167 687.1 611.6 687.5 612C687.9 612.4 688.333 613.833 688.5 614.5L687 619.5L688.5 623L687 625.5L684 626.5L683 630L673.5 636.5L671.5 642.5L664.5 647.5L662.5 650L661 652L659.5 654L658.5 657.5L657.5 660.5H724.5L726 655L727.5 650L731.5 647.5L735.5 644.5L736 642.5L734.5 638L729 633.5L726 631.5V630L730 629L733 630L737.5 629H740.5L742 627.5C741.5 627 740.5 625.9 740.5 625.5C740.5 625 739 623.5 737.5 623C736.3 622.6 735 621.833 734.5 621.5V619.5L736 618H740.5C741 618 742 617.5 743.5 616.5C745 615.5 745 614 745 613C745 612.2 743 608.667 742 607V604.5L743.5 600.5L740.5 596L739 592L740 589.5L742 588.5H745.5L748.5 591V595.5L746.5 598.5L747 601.5L750 603L753 600.5L754.5 595.5L756 589.5L757.5 584.5L759.5 582H762H764L766.5 584.5L769.5 588.5L774 588L775 584.5L777.5 579.5L780 576.5L778 574L777.5 570V567L780 565.5H783.5V562L779 560C778.5 559.167 777.5 557.3 777.5 556.5C777.5 555.7 779.833 555.167 781 555L783.5 551.5L784.5 545.5L785.5 539V537L782.5 536L781 538L777.5 537L776.5 533.5L775 531.5L772.5 529L770.5 526H767.5L766.5 527L767.5 529L769 531.5V534.5L767.5 535.5L757.5 529V521L751 512.5L750 509.5V503.5L744.5 499.5L745.5 496L747.5 492L752 490C752.333 489.5 753.1 488.3 753.5 487.5C753.9 486.7 753 482.833 752.5 481L746.5 472C745.667 470.167 744 466.4 744 466C744 465.6 743.667 462.833 743.5 461.5L747.5 458.5L744.5 455.5C744.333 454.333 744 451.8 744 451C744 450.2 744.333 448.667 744.5 448L743.5 446.5L737.5 444.5L736 441.5C735.333 441 733.9 439.9 733.5 439.5C733.1 439.1 731 439.667 730 440C729.833 438.833 729.5 436.1 729.5 434.5C729.5 432.9 728.5 432.833 728 433L720.5 426.5H717L715.5 425V423L711 420L707 423L702.5 424L699.5 421.5L698 417.5L701 415.5L702.5 413.5L701.5 411.5L697.5 412.5C696.667 412.333 695 411.9 695 411.5C695 411.1 693.333 409.667 692.5 409L690 406L686 405L681 399.5L677.5 398L674 396L669 390L664 384.5L659 378.5L658 371L659 363L662 357L666.5 350.5L668 342L671.5 336L677 328L678 323.5L675 317V314L678 309L682 305L684 300.5L682 297C679.667 295.667 674.7 292.7 673.5 291.5C672.3 290.3 667 289.333 664.5 289L654 283.5L650 283L646 289L641 295L637.5 295.5L632.5 293C631.333 291.667 629 288.9 629 288.5C629 288.1 628 284.667 627.5 283L625.5 276.5L624 272.5L626.5 266.5L622 245.5L604.5 230.5L590.5 219.5L586 209.5L579 206.5L577.5 202.5L574.5 200.5L557.5 184L558 176C555.667 173.667 551 168.9 551 168.5C551 168.1 550 166 549.5 165L551 160.5L551.5 157L545 143.5L544.5 140L543.5 131V120.5L545 112.5L549 102L551 97.5H545V95H542.5L541.5 91V87H537.5L531.5 80.5V75.5H529L525.5 74.5V71L521.5 67L460 69L421 69.5L332.5 71.5L309 72Z" stroke="black"/>
</g>
<path d="M355.884 30.5455V48H352.722V30.5455H355.884ZM361.549 48H358.174L364.319 30.5455H368.222L374.376 48H371.001L366.339 34.125H366.202L361.549 48ZM361.66 41.1562H370.864V43.696H361.66V41.1562Z" fill="#005A5E"/>
<path d="M646.884 168.545V186H643.722V168.545H646.884ZM650.308 186V168.545H653.469V183.349H661.157V186H650.308Z" fill="#005A5E"/>
<path d="M810.722 591V573.545H813.884V581.565H814.097L820.906 573.545H824.767L818.017 581.378L824.827 591H821.026L815.818 583.517L813.884 585.801V591H810.722ZM825.771 573.545H829.342L833.612 581.267H833.782L838.052 573.545H841.623L835.273 584.489V591H832.12V584.489L825.771 573.545Z" fill="#005A5E"/>
<path d="M766.955 669.196V666.545H780.881V669.196H775.486V684H772.349V669.196H766.955ZM797.909 666.545V684H795.097L786.872 672.111H786.727V684H783.565V666.545H786.395L794.611 678.443H794.764V666.545H797.909Z" fill="#005A5E"/>
<path d="M430.963 662H427.588L433.733 644.545H437.636L443.79 662H440.415L435.753 648.125H435.616L430.963 662ZM431.074 655.156H440.278V657.696H431.074V655.156ZM446.089 662V644.545H452.634C453.975 644.545 455.1 644.778 456.009 645.244C456.924 645.71 457.614 646.364 458.08 647.205C458.552 648.04 458.788 649.014 458.788 650.128C458.788 651.247 458.549 652.219 458.072 653.043C457.6 653.861 456.904 654.494 455.984 654.943C455.063 655.386 453.933 655.608 452.592 655.608H447.93V652.983H452.165C452.95 652.983 453.592 652.875 454.092 652.659C454.592 652.437 454.961 652.116 455.2 651.696C455.444 651.27 455.566 650.747 455.566 650.128C455.566 649.509 455.444 648.98 455.2 648.543C454.955 648.099 454.583 647.764 454.083 647.537C453.583 647.304 452.938 647.188 452.148 647.188H449.251V662H446.089ZM455.106 654.091L459.427 662H455.898L451.654 654.091H455.106Z" fill="#005A5E"/>
<path d="M162.318 594.273C162.318 596.153 161.966 597.764 161.261 599.105C160.563 600.44 159.608 601.463 158.398 602.173C157.193 602.884 155.827 603.239 154.298 603.239C152.77 603.239 151.401 602.884 150.19 602.173C148.986 601.457 148.031 600.432 147.327 599.097C146.628 597.756 146.278 596.148 146.278 594.273C146.278 592.392 146.628 590.784 147.327 589.449C148.031 588.108 148.986 587.082 150.19 586.372C151.401 585.662 152.77 585.307 154.298 585.307C155.827 585.307 157.193 585.662 158.398 586.372C159.608 587.082 160.563 588.108 161.261 589.449C161.966 590.784 162.318 592.392 162.318 594.273ZM159.139 594.273C159.139 592.949 158.932 591.832 158.517 590.923C158.108 590.009 157.54 589.318 156.812 588.852C156.085 588.381 155.247 588.145 154.298 588.145C153.349 588.145 152.511 588.381 151.784 588.852C151.057 589.318 150.486 590.009 150.071 590.923C149.662 591.832 149.457 592.949 149.457 594.273C149.457 595.597 149.662 596.716 150.071 597.631C150.486 598.54 151.057 599.23 151.784 599.702C152.511 600.168 153.349 600.401 154.298 600.401C155.247 600.401 156.085 600.168 156.812 599.702C157.54 599.23 158.108 598.54 158.517 597.631C158.932 596.716 159.139 595.597 159.139 594.273ZM165.308 603V585.545H168.469V593.565H168.683L175.492 585.545H179.353L172.603 593.378L179.413 603H175.612L170.404 595.517L168.469 597.801V603H165.308Z" fill="#005A5E"/>
<path d="M125.722 369V351.545H128.884V359.565H129.097L135.906 351.545H139.767L133.017 359.378L139.827 369H136.026L130.818 361.517L128.884 363.801V369H125.722ZM151.356 356.344C151.276 355.599 150.941 355.02 150.35 354.605C149.765 354.19 149.004 353.983 148.066 353.983C147.407 353.983 146.842 354.082 146.37 354.281C145.898 354.48 145.538 354.75 145.288 355.091C145.038 355.432 144.91 355.821 144.904 356.259C144.904 356.622 144.987 356.937 145.151 357.205C145.322 357.472 145.552 357.699 145.842 357.886C146.131 358.068 146.452 358.222 146.805 358.347C147.157 358.472 147.512 358.577 147.87 358.662L149.506 359.071C150.165 359.224 150.799 359.432 151.407 359.693C152.021 359.955 152.569 360.284 153.052 360.682C153.54 361.08 153.927 361.56 154.211 362.122C154.495 362.685 154.637 363.344 154.637 364.099C154.637 365.122 154.376 366.023 153.853 366.801C153.33 367.574 152.575 368.179 151.586 368.616C150.603 369.048 149.413 369.264 148.015 369.264C146.657 369.264 145.478 369.054 144.478 368.634C143.484 368.213 142.705 367.599 142.143 366.793C141.586 365.986 141.285 365.003 141.239 363.844H144.35C144.396 364.452 144.583 364.957 144.913 365.361C145.242 365.764 145.671 366.065 146.2 366.264C146.734 366.463 147.33 366.562 147.989 366.562C148.677 366.562 149.279 366.46 149.796 366.256C150.319 366.045 150.728 365.756 151.023 365.386C151.319 365.011 151.469 364.574 151.475 364.074C151.469 363.619 151.336 363.244 151.075 362.949C150.813 362.648 150.447 362.398 149.975 362.199C149.509 361.994 148.964 361.812 148.339 361.653L146.353 361.142C144.915 360.773 143.779 360.213 142.944 359.463C142.114 358.707 141.7 357.705 141.7 356.455C141.7 355.426 141.978 354.526 142.535 353.753C143.097 352.98 143.862 352.381 144.827 351.955C145.793 351.523 146.887 351.307 148.109 351.307C149.347 351.307 150.433 351.523 151.364 351.955C152.302 352.381 153.038 352.974 153.572 353.736C154.106 354.491 154.381 355.361 154.398 356.344H151.356Z" fill="#005A5E"/>
<path d="M73.0653 83.5455V101H70.2528L62.0284 89.1108H61.8835V101H58.7216V83.5455H61.5511L69.767 95.4432H69.9205V83.5455H73.0653ZM76.5107 101V83.5455H87.8629V86.196H79.6726V90.9347H87.2749V93.5852H79.6726V98.3494H87.9311V101H76.5107Z" fill="#005A5E"/>
<circle cx="475.511" cy="332.511" r="9.01136" fill="#FF8F87" stroke="black"/>
<path d="M395.86 349.818H399.66V362.496C399.66 363.668 399.396 364.686 398.87 365.55C398.349 366.414 397.624 367.08 396.695 367.547C395.765 368.015 394.685 368.249 393.454 368.249C392.359 368.249 391.365 368.056 390.471 367.672C389.583 367.281 388.879 366.689 388.358 365.896C387.837 365.097 387.58 364.094 387.586 362.886H391.412C391.424 363.366 391.522 363.777 391.705 364.12C391.895 364.458 392.152 364.718 392.478 364.902C392.809 365.079 393.2 365.168 393.65 365.168C394.123 365.168 394.522 365.067 394.848 364.866C395.179 364.659 395.431 364.357 395.603 363.961C395.774 363.564 395.86 363.076 395.86 362.496V349.818ZM408.982 368.266C407.579 368.266 406.371 367.982 405.359 367.414C404.353 366.84 403.578 366.029 403.033 364.982C402.489 363.928 402.217 362.682 402.217 361.244C402.217 359.841 402.489 358.61 403.033 357.551C403.578 356.491 404.344 355.666 405.333 355.074C406.327 354.482 407.493 354.186 408.831 354.186C409.73 354.186 410.568 354.331 411.343 354.621C412.124 354.905 412.805 355.334 413.385 355.908C413.971 356.482 414.427 357.205 414.752 358.075C415.078 358.939 415.24 359.951 415.24 361.111V362.15H403.726V359.806H411.68C411.68 359.261 411.562 358.779 411.325 358.359C411.089 357.938 410.76 357.61 410.34 357.373C409.926 357.131 409.443 357.009 408.893 357.009C408.319 357.009 407.81 357.142 407.366 357.409C406.928 357.669 406.585 358.021 406.336 358.465C406.087 358.903 405.96 359.391 405.954 359.93V362.158C405.954 362.833 406.078 363.416 406.327 363.907C406.582 364.399 406.94 364.777 407.401 365.044C407.863 365.31 408.41 365.443 409.044 365.443C409.464 365.443 409.849 365.384 410.198 365.266C410.547 365.147 410.846 364.97 411.094 364.733C411.343 364.496 411.532 364.206 411.663 363.863L415.161 364.094C414.983 364.934 414.619 365.668 414.069 366.295C413.524 366.917 412.82 367.402 411.956 367.751C411.097 368.095 410.106 368.266 408.982 368.266ZM425.042 354.364V357.205H416.625V354.364H425.042ZM418.552 368V353.378C418.552 352.39 418.744 351.57 419.129 350.919C419.52 350.268 420.052 349.78 420.727 349.454C421.402 349.129 422.168 348.966 423.026 348.966C423.606 348.966 424.136 349.01 424.615 349.099C425.101 349.188 425.462 349.268 425.699 349.339L425.024 352.18C424.876 352.132 424.692 352.088 424.473 352.047C424.26 352.005 424.041 351.984 423.816 351.984C423.26 351.984 422.872 352.115 422.653 352.375C422.434 352.629 422.325 352.988 422.325 353.449V368H418.552ZM434.685 354.364V357.205H426.269V354.364H434.685ZM428.195 368V353.378C428.195 352.39 428.388 351.57 428.772 350.919C429.163 350.268 429.696 349.78 430.37 349.454C431.045 349.129 431.812 348.966 432.67 348.966C433.25 348.966 433.78 349.01 434.259 349.099C434.744 349.188 435.105 349.268 435.342 349.339L434.667 352.18C434.519 352.132 434.336 352.088 434.117 352.047C433.904 352.005 433.685 351.984 433.46 351.984C432.904 351.984 432.516 352.115 432.297 352.375C432.078 352.629 431.968 352.988 431.968 353.449V368H428.195ZM442.722 368.266C441.319 368.266 440.112 367.982 439.1 367.414C438.093 366.84 437.318 366.029 436.774 364.982C436.229 363.928 435.957 362.682 435.957 361.244C435.957 359.841 436.229 358.61 436.774 357.551C437.318 356.491 438.085 355.666 439.073 355.074C440.067 354.482 441.233 354.186 442.571 354.186C443.47 354.186 444.308 354.331 445.083 354.621C445.865 354.905 446.545 355.334 447.125 355.908C447.711 356.482 448.167 357.205 448.492 358.075C448.818 358.939 448.981 359.951 448.981 361.111V362.15H437.466V359.806H445.421C445.421 359.261 445.302 358.779 445.066 358.359C444.829 357.938 444.5 357.61 444.08 357.373C443.666 357.131 443.183 357.009 442.633 357.009C442.059 357.009 441.55 357.142 441.106 357.409C440.668 357.669 440.325 358.021 440.076 358.465C439.828 358.903 439.7 359.391 439.694 359.93V362.158C439.694 362.833 439.819 363.416 440.067 363.907C440.322 364.399 440.68 364.777 441.142 365.044C441.603 365.31 442.151 365.443 442.784 365.443C443.204 365.443 443.589 365.384 443.938 365.266C444.287 365.147 444.586 364.97 444.835 364.733C445.083 364.496 445.273 364.206 445.403 363.863L448.901 364.094C448.723 364.934 448.359 365.668 447.809 366.295C447.264 366.917 446.56 367.402 445.696 367.751C444.838 368.095 443.846 368.266 442.722 368.266ZM451.449 368V354.364H455.115V356.743H455.257C455.506 355.897 455.923 355.257 456.509 354.825C457.095 354.387 457.77 354.168 458.533 354.168C458.723 354.168 458.927 354.18 459.146 354.204C459.365 354.228 459.557 354.26 459.723 354.301V357.657C459.545 357.604 459.3 357.557 458.986 357.515C458.672 357.474 458.385 357.453 458.125 357.453C457.568 357.453 457.071 357.574 456.633 357.817C456.201 358.054 455.858 358.385 455.604 358.811C455.355 359.238 455.231 359.729 455.231 360.285V368H451.449ZM473.024 358.252L469.562 358.465C469.503 358.169 469.375 357.903 469.18 357.666C468.985 357.424 468.727 357.231 468.408 357.089C468.094 356.941 467.718 356.867 467.28 356.867C466.694 356.867 466.2 356.991 465.797 357.24C465.395 357.483 465.194 357.808 465.194 358.217C465.194 358.542 465.324 358.817 465.584 359.042C465.845 359.267 466.292 359.448 466.925 359.584L469.393 360.081C470.719 360.353 471.707 360.791 472.358 361.395C473.009 361.999 473.335 362.792 473.335 363.774C473.335 364.668 473.071 365.452 472.545 366.127C472.024 366.801 471.308 367.328 470.396 367.707C469.491 368.08 468.446 368.266 467.262 368.266C465.457 368.266 464.019 367.891 462.948 367.139C461.882 366.381 461.258 365.351 461.074 364.049L464.794 363.854C464.907 364.404 465.179 364.825 465.611 365.115C466.043 365.399 466.597 365.541 467.271 365.541C467.934 365.541 468.467 365.414 468.869 365.159C469.278 364.899 469.485 364.564 469.491 364.156C469.485 363.813 469.34 363.531 469.056 363.312C468.772 363.088 468.334 362.916 467.742 362.798L465.38 362.327C464.049 362.061 463.057 361.599 462.406 360.942C461.761 360.285 461.438 359.448 461.438 358.43C461.438 357.554 461.675 356.799 462.149 356.166C462.628 355.533 463.3 355.044 464.164 354.701C465.034 354.358 466.052 354.186 467.218 354.186C468.94 354.186 470.296 354.55 471.284 355.278C472.278 356.006 472.858 356.997 473.024 358.252ZM481.877 368.266C480.498 368.266 479.306 367.973 478.3 367.387C477.299 366.796 476.527 365.973 475.983 364.919C475.438 363.86 475.166 362.632 475.166 361.235C475.166 359.826 475.438 358.595 475.983 357.542C476.527 356.482 477.299 355.66 478.3 355.074C479.306 354.482 480.498 354.186 481.877 354.186C483.257 354.186 484.446 354.482 485.446 355.074C486.453 355.66 487.228 356.482 487.772 357.542C488.317 358.595 488.589 359.826 488.589 361.235C488.589 362.632 488.317 363.86 487.772 364.919C487.228 365.973 486.453 366.796 485.446 367.387C484.446 367.973 483.257 368.266 481.877 368.266ZM481.895 365.337C482.523 365.337 483.046 365.159 483.467 364.804C483.887 364.443 484.203 363.952 484.417 363.33C484.636 362.709 484.745 362.002 484.745 361.208C484.745 360.415 484.636 359.708 484.417 359.087C484.203 358.465 483.887 357.974 483.467 357.613C483.046 357.252 482.523 357.071 481.895 357.071C481.262 357.071 480.729 357.252 480.297 357.613C479.871 357.974 479.549 358.465 479.33 359.087C479.116 359.708 479.01 360.415 479.01 361.208C479.01 362.002 479.116 362.709 479.33 363.33C479.549 363.952 479.871 364.443 480.297 364.804C480.729 365.159 481.262 365.337 481.895 365.337ZM494.83 360.116V368H491.048V354.364H494.653V356.77H494.812C495.114 355.976 495.62 355.349 496.331 354.887C497.041 354.42 497.902 354.186 498.914 354.186C499.861 354.186 500.687 354.393 501.391 354.808C502.095 355.222 502.643 355.814 503.033 356.583C503.424 357.347 503.619 358.258 503.619 359.317V368H499.837V359.992C499.843 359.158 499.63 358.507 499.198 358.039C498.766 357.566 498.171 357.329 497.414 357.329C496.905 357.329 496.455 357.438 496.064 357.657C495.68 357.876 495.378 358.196 495.159 358.616C494.946 359.03 494.836 359.531 494.83 360.116ZM528.499 356.184H524.611C524.54 355.681 524.395 355.234 524.176 354.843C523.957 354.446 523.676 354.109 523.333 353.831C522.989 353.553 522.593 353.34 522.143 353.192C521.699 353.044 521.217 352.97 520.696 352.97C519.755 352.97 518.935 353.204 518.237 353.671C517.538 354.133 516.997 354.808 516.612 355.695C516.227 356.577 516.035 357.648 516.035 358.909C516.035 360.205 516.227 361.294 516.612 362.176C517.003 363.058 517.547 363.724 518.246 364.174C518.944 364.623 519.752 364.848 520.669 364.848C521.184 364.848 521.661 364.78 522.099 364.644C522.542 364.508 522.936 364.31 523.279 364.049C523.623 363.783 523.907 363.46 524.132 363.082C524.362 362.703 524.522 362.271 524.611 361.786L528.499 361.803C528.399 362.638 528.147 363.443 527.745 364.218C527.348 364.987 526.813 365.677 526.138 366.287C525.469 366.89 524.67 367.37 523.741 367.725C522.818 368.074 521.773 368.249 520.607 368.249C518.985 368.249 517.535 367.882 516.257 367.148C514.984 366.414 513.978 365.351 513.238 363.961C512.505 362.57 512.138 360.886 512.138 358.909C512.138 356.926 512.51 355.24 513.256 353.849C514.002 352.458 515.014 351.398 516.292 350.67C517.571 349.937 519.009 349.57 520.607 349.57C521.661 349.57 522.637 349.718 523.537 350.013C524.442 350.309 525.244 350.741 525.943 351.31C526.641 351.872 527.209 352.561 527.647 353.378C528.091 354.195 528.375 355.13 528.499 356.184ZM531.185 368V354.364H534.967V368H531.185ZM533.085 352.606C532.523 352.606 532.04 352.419 531.638 352.047C531.241 351.668 531.043 351.215 531.043 350.688C531.043 350.167 531.241 349.721 531.638 349.348C532.04 348.969 532.523 348.779 533.085 348.779C533.647 348.779 534.127 348.969 534.523 349.348C534.926 349.721 535.127 350.167 535.127 350.688C535.127 351.215 534.926 351.668 534.523 352.047C534.127 352.419 533.647 352.606 533.085 352.606ZM545.25 354.364V357.205H537.038V354.364H545.25ZM538.902 351.097H542.684V363.81C542.684 364.159 542.737 364.431 542.844 364.626C542.95 364.816 543.098 364.949 543.288 365.026C543.483 365.103 543.708 365.141 543.962 365.141C544.14 365.141 544.318 365.127 544.495 365.097C544.673 365.061 544.809 365.035 544.903 365.017L545.498 367.831C545.309 367.891 545.043 367.959 544.699 368.036C544.356 368.118 543.939 368.169 543.448 368.186C542.536 368.222 541.737 368.101 541.051 367.822C540.37 367.544 539.84 367.112 539.461 366.526C539.083 365.94 538.896 365.201 538.902 364.307V351.097ZM550.048 373.114C549.569 373.114 549.119 373.075 548.699 372.998C548.284 372.927 547.941 372.835 547.669 372.723L548.521 369.9C548.965 370.036 549.365 370.11 549.72 370.122C550.081 370.134 550.391 370.051 550.652 369.873C550.918 369.696 551.134 369.394 551.3 368.968L551.522 368.391L546.63 354.364H550.608L553.431 364.378H553.573L556.422 354.364H560.426L555.126 369.474C554.872 370.208 554.526 370.847 554.088 371.391C553.656 371.942 553.108 372.365 552.445 372.661C551.782 372.963 550.983 373.114 550.048 373.114Z" fill="black"/>
<path d="M241.202 297V278.818H243.403V287.838H243.616L251.784 278.818H254.661L247.026 287.021L254.661 297H251.997L245.676 288.548L243.403 291.105V297H241.202ZM261.239 297.32C260.375 297.32 259.591 297.157 258.886 296.831C258.182 296.5 257.623 296.023 257.208 295.402C256.794 294.775 256.587 294.017 256.587 293.129C256.587 292.348 256.741 291.715 257.049 291.229C257.356 290.738 257.768 290.353 258.283 290.075C258.798 289.797 259.366 289.59 259.987 289.454C260.615 289.312 261.245 289.199 261.878 289.116C262.707 289.01 263.379 288.93 263.893 288.877C264.414 288.818 264.793 288.72 265.03 288.584C265.272 288.448 265.394 288.211 265.394 287.874V287.803C265.394 286.927 265.154 286.246 264.675 285.761C264.201 285.275 263.482 285.033 262.517 285.033C261.517 285.033 260.733 285.252 260.165 285.69C259.597 286.128 259.197 286.595 258.966 287.092L256.978 286.382C257.333 285.554 257.806 284.908 258.398 284.447C258.996 283.979 259.647 283.654 260.351 283.47C261.061 283.281 261.76 283.186 262.446 283.186C262.884 283.186 263.387 283.239 263.956 283.346C264.53 283.446 265.083 283.657 265.616 283.976C266.154 284.296 266.601 284.778 266.956 285.423C267.311 286.068 267.489 286.933 267.489 288.016V297H265.394V295.153H265.287C265.145 295.449 264.908 295.766 264.577 296.103C264.246 296.441 263.805 296.728 263.254 296.964C262.704 297.201 262.032 297.32 261.239 297.32ZM261.559 295.438C262.387 295.438 263.086 295.275 263.654 294.949C264.228 294.624 264.66 294.203 264.95 293.689C265.246 293.174 265.394 292.632 265.394 292.064V290.146C265.305 290.253 265.11 290.35 264.808 290.439C264.512 290.522 264.169 290.596 263.778 290.661C263.393 290.72 263.018 290.774 262.651 290.821C262.29 290.862 261.997 290.898 261.772 290.928C261.227 290.999 260.718 291.114 260.245 291.274C259.777 291.428 259.398 291.661 259.108 291.975C258.824 292.283 258.682 292.703 258.682 293.236C258.682 293.964 258.951 294.514 259.49 294.887C260.035 295.254 260.724 295.438 261.559 295.438ZM273.408 288.797V297H271.313V283.364H273.337V285.494H273.515C273.834 284.802 274.32 284.246 274.971 283.825C275.622 283.399 276.462 283.186 277.492 283.186C278.415 283.186 279.223 283.375 279.916 283.754C280.608 284.127 281.147 284.695 281.532 285.459C281.916 286.216 282.109 287.175 282.109 288.335V297H280.013V288.477C280.013 287.406 279.735 286.571 279.179 285.974C278.623 285.37 277.859 285.068 276.888 285.068C276.22 285.068 275.622 285.213 275.095 285.503C274.574 285.793 274.163 286.216 273.861 286.773C273.559 287.329 273.408 288.004 273.408 288.797ZM295.596 286.418L293.714 286.95C293.596 286.637 293.421 286.332 293.19 286.036C292.965 285.734 292.658 285.485 292.267 285.29C291.876 285.095 291.376 284.997 290.767 284.997C289.932 284.997 289.237 285.19 288.68 285.574C288.13 285.953 287.855 286.435 287.855 287.021C287.855 287.542 288.044 287.953 288.423 288.255C288.802 288.557 289.394 288.809 290.199 289.01L292.223 289.507C293.442 289.803 294.35 290.256 294.948 290.865C295.546 291.469 295.845 292.247 295.845 293.2C295.845 293.982 295.62 294.68 295.17 295.295C294.726 295.911 294.105 296.396 293.306 296.751C292.507 297.107 291.578 297.284 290.518 297.284C289.127 297.284 287.976 296.982 287.065 296.379C286.153 295.775 285.576 294.893 285.333 293.733L287.322 293.236C287.511 293.97 287.87 294.52 288.396 294.887C288.929 295.254 289.624 295.438 290.483 295.438C291.459 295.438 292.234 295.23 292.809 294.816C293.389 294.396 293.679 293.893 293.679 293.307C293.679 292.833 293.513 292.437 293.181 292.117C292.85 291.792 292.341 291.549 291.654 291.389L289.382 290.857C288.133 290.561 287.216 290.102 286.63 289.48C286.05 288.853 285.76 288.069 285.76 287.128C285.76 286.358 285.976 285.678 286.408 285.086C286.846 284.494 287.44 284.029 288.192 283.692C288.95 283.355 289.808 283.186 290.767 283.186C292.116 283.186 293.176 283.482 293.945 284.074C294.72 284.666 295.271 285.447 295.596 286.418ZM303.011 297.32C302.147 297.32 301.363 297.157 300.659 296.831C299.955 296.5 299.395 296.023 298.981 295.402C298.567 294.775 298.359 294.017 298.359 293.129C298.359 292.348 298.513 291.715 298.821 291.229C299.129 290.738 299.54 290.353 300.055 290.075C300.57 289.797 301.138 289.59 301.76 289.454C302.387 289.312 303.017 289.199 303.651 289.116C304.479 289.01 305.151 288.93 305.666 288.877C306.187 288.818 306.566 288.72 306.802 288.584C307.045 288.448 307.166 288.211 307.166 287.874V287.803C307.166 286.927 306.927 286.246 306.447 285.761C305.974 285.275 305.255 285.033 304.29 285.033C303.29 285.033 302.505 285.252 301.937 285.69C301.369 286.128 300.97 286.595 300.739 287.092L298.75 286.382C299.105 285.554 299.579 284.908 300.171 284.447C300.768 283.979 301.419 283.654 302.124 283.47C302.834 283.281 303.532 283.186 304.219 283.186C304.657 283.186 305.16 283.239 305.728 283.346C306.302 283.446 306.856 283.657 307.388 283.976C307.927 284.296 308.374 284.778 308.729 285.423C309.084 286.068 309.261 286.933 309.261 288.016V297H307.166V295.153H307.06C306.918 295.449 306.681 295.766 306.35 296.103C306.018 296.441 305.577 296.728 305.027 296.964C304.476 297.201 303.805 297.32 303.011 297.32ZM303.331 295.438C304.16 295.438 304.858 295.275 305.426 294.949C306 294.624 306.432 294.203 306.722 293.689C307.018 293.174 307.166 292.632 307.166 292.064V290.146C307.078 290.253 306.882 290.35 306.58 290.439C306.284 290.522 305.941 290.596 305.551 290.661C305.166 290.72 304.79 290.774 304.423 290.821C304.062 290.862 303.769 290.898 303.544 290.928C303 290.999 302.491 291.114 302.017 291.274C301.55 291.428 301.171 291.661 300.881 291.975C300.597 292.283 300.455 292.703 300.455 293.236C300.455 293.964 300.724 294.514 301.263 294.887C301.807 295.254 302.497 295.438 303.331 295.438ZM322.745 286.418L320.863 286.95C320.744 286.637 320.57 286.332 320.339 286.036C320.114 285.734 319.806 285.485 319.415 285.29C319.025 285.095 318.525 284.997 317.915 284.997C317.081 284.997 316.385 285.19 315.829 285.574C315.278 285.953 315.003 286.435 315.003 287.021C315.003 287.542 315.193 287.953 315.571 288.255C315.95 288.557 316.542 288.809 317.347 289.01L319.371 289.507C320.59 289.803 321.499 290.256 322.097 290.865C322.694 291.469 322.993 292.247 322.993 293.2C322.993 293.982 322.768 294.68 322.319 295.295C321.875 295.911 321.253 296.396 320.454 296.751C319.655 297.107 318.726 297.284 317.667 297.284C316.276 297.284 315.125 296.982 314.213 296.379C313.302 295.775 312.725 294.893 312.482 293.733L314.471 293.236C314.66 293.97 315.018 294.52 315.545 294.887C316.077 295.254 316.773 295.438 317.631 295.438C318.608 295.438 319.383 295.23 319.957 294.816C320.537 294.396 320.827 293.893 320.827 293.307C320.827 292.833 320.661 292.437 320.33 292.117C319.998 291.792 319.489 291.549 318.803 291.389L316.53 290.857C315.281 290.561 314.364 290.102 313.778 289.48C313.198 288.853 312.908 288.069 312.908 287.128C312.908 286.358 313.124 285.678 313.556 285.086C313.994 284.494 314.589 284.029 315.341 283.692C316.098 283.355 316.956 283.186 317.915 283.186C319.265 283.186 320.324 283.482 321.093 284.074C321.869 284.666 322.419 285.447 322.745 286.418ZM348.093 284.5H345.891C345.761 283.867 345.533 283.31 345.208 282.831C344.888 282.352 344.498 281.949 344.036 281.624C343.58 281.292 343.074 281.044 342.518 280.878C341.962 280.712 341.381 280.629 340.778 280.629C339.677 280.629 338.68 280.907 337.786 281.464C336.898 282.02 336.191 282.84 335.664 283.923C335.143 285.006 334.883 286.335 334.883 287.909C334.883 289.483 335.143 290.812 335.664 291.895C336.191 292.978 336.898 293.798 337.786 294.354C338.68 294.911 339.677 295.189 340.778 295.189C341.381 295.189 341.962 295.106 342.518 294.94C343.074 294.775 343.58 294.529 344.036 294.203C344.498 293.872 344.888 293.467 345.208 292.987C345.533 292.502 345.761 291.946 345.891 291.318H348.093C347.927 292.247 347.626 293.079 347.188 293.813C346.75 294.547 346.205 295.171 345.554 295.686C344.903 296.195 344.172 296.583 343.361 296.849C342.556 297.115 341.695 297.249 340.778 297.249C339.227 297.249 337.848 296.87 336.641 296.112C335.433 295.355 334.483 294.277 333.791 292.881C333.098 291.484 332.752 289.827 332.752 287.909C332.752 285.991 333.098 284.334 333.791 282.938C334.483 281.541 335.433 280.464 336.641 279.706C337.848 278.948 339.227 278.57 340.778 278.57C341.695 278.57 342.556 278.703 343.361 278.969C344.172 279.235 344.903 279.626 345.554 280.141C346.205 280.65 346.75 281.271 347.188 282.005C347.626 282.733 347.927 283.565 348.093 284.5ZM351.367 297V283.364H353.462V297H351.367ZM352.432 281.091C352.024 281.091 351.672 280.952 351.376 280.674C351.086 280.395 350.941 280.061 350.941 279.67C350.941 279.28 351.086 278.945 351.376 278.667C351.672 278.389 352.024 278.25 352.432 278.25C352.841 278.25 353.19 278.389 353.48 278.667C353.776 278.945 353.924 279.28 353.924 279.67C353.924 280.061 353.776 280.395 353.48 280.674C353.19 280.952 352.841 281.091 352.432 281.091ZM363.23 283.364V285.139H356.163V283.364H363.23ZM358.223 280.097H360.318V293.094C360.318 293.686 360.404 294.129 360.575 294.425C360.753 294.715 360.978 294.911 361.25 295.011C361.528 295.106 361.821 295.153 362.129 295.153C362.36 295.153 362.549 295.142 362.697 295.118C362.845 295.088 362.964 295.065 363.052 295.047L363.478 296.929C363.336 296.982 363.138 297.036 362.884 297.089C362.629 297.148 362.307 297.178 361.916 297.178C361.324 297.178 360.744 297.05 360.176 296.796C359.614 296.541 359.146 296.154 358.773 295.633C358.406 295.112 358.223 294.455 358.223 293.662V280.097ZM367.731 302.114C367.376 302.114 367.059 302.084 366.781 302.025C366.503 301.972 366.31 301.918 366.204 301.865L366.737 300.018C367.246 300.149 367.695 300.196 368.086 300.161C368.477 300.125 368.823 299.95 369.125 299.637C369.432 299.329 369.714 298.829 369.968 298.136L370.359 297.071L365.316 283.364H367.589L371.353 294.23H371.495L375.259 283.364H377.532L371.744 298.989C371.483 299.693 371.161 300.276 370.776 300.738C370.391 301.205 369.944 301.551 369.435 301.776C368.932 302.001 368.364 302.114 367.731 302.114Z" fill="black"/>
<path d="M410.832 252.5H408.631C408.5 251.867 408.273 251.31 407.947 250.831C407.627 250.352 407.237 249.949 406.775 249.624C406.319 249.292 405.813 249.044 405.257 248.878C404.701 248.712 404.121 248.629 403.517 248.629C402.416 248.629 401.419 248.907 400.525 249.464C399.637 250.02 398.93 250.84 398.403 251.923C397.883 253.006 397.622 254.335 397.622 255.909C397.622 257.483 397.883 258.812 398.403 259.895C398.93 260.978 399.637 261.798 400.525 262.354C401.419 262.911 402.416 263.189 403.517 263.189C404.121 263.189 404.701 263.106 405.257 262.94C405.813 262.775 406.319 262.529 406.775 262.203C407.237 261.872 407.627 261.467 407.947 260.987C408.273 260.502 408.5 259.946 408.631 259.318H410.832C410.667 260.247 410.365 261.079 409.927 261.813C409.489 262.547 408.944 263.171 408.293 263.686C407.642 264.195 406.911 264.583 406.1 264.849C405.296 265.115 404.434 265.249 403.517 265.249C401.966 265.249 400.587 264.87 399.38 264.112C398.173 263.355 397.223 262.277 396.53 260.881C395.838 259.484 395.491 257.827 395.491 255.909C395.491 253.991 395.838 252.334 396.53 250.938C397.223 249.541 398.173 248.464 399.38 247.706C400.587 246.948 401.966 246.57 403.517 246.57C404.434 246.57 405.296 246.703 406.1 246.969C406.911 247.235 407.642 247.626 408.293 248.141C408.944 248.65 409.489 249.271 409.927 250.005C410.365 250.733 410.667 251.565 410.832 252.5ZM419.646 265.284C418.415 265.284 417.335 264.991 416.405 264.405C415.482 263.819 414.76 263 414.239 261.946C413.724 260.893 413.467 259.661 413.467 258.253C413.467 256.832 413.724 255.592 414.239 254.533C414.76 253.474 415.482 252.651 416.405 252.065C417.335 251.479 418.415 251.186 419.646 251.186C420.877 251.186 421.954 251.479 422.877 252.065C423.807 252.651 424.529 253.474 425.044 254.533C425.564 255.592 425.825 256.832 425.825 258.253C425.825 259.661 425.564 260.893 425.044 261.946C424.529 263 423.807 263.819 422.877 264.405C421.954 264.991 420.877 265.284 419.646 265.284ZM419.646 263.402C420.581 263.402 421.35 263.162 421.954 262.683C422.558 262.203 423.005 261.573 423.295 260.792C423.585 260.011 423.73 259.164 423.73 258.253C423.73 257.341 423.585 256.492 423.295 255.705C423.005 254.918 422.558 254.281 421.954 253.796C421.35 253.311 420.581 253.068 419.646 253.068C418.711 253.068 417.941 253.311 417.338 253.796C416.734 254.281 416.287 254.918 415.997 255.705C415.707 256.492 415.562 257.341 415.562 258.253C415.562 259.164 415.707 260.011 415.997 260.792C416.287 261.573 416.734 262.203 417.338 262.683C417.941 263.162 418.711 263.402 419.646 263.402ZM431.118 246.818V265H429.023V246.818H431.118ZM443.549 259.425V251.364H445.645V265H443.549V262.692H443.407C443.088 263.384 442.591 263.973 441.916 264.458C441.241 264.938 440.389 265.178 439.359 265.178C438.507 265.178 437.749 264.991 437.086 264.618C436.424 264.239 435.903 263.671 435.524 262.914C435.145 262.15 434.956 261.188 434.956 260.028V251.364H437.051V259.886C437.051 260.881 437.329 261.674 437.885 262.266C438.448 262.857 439.164 263.153 440.034 263.153C440.555 263.153 441.084 263.02 441.623 262.754C442.167 262.488 442.623 262.079 442.99 261.529C443.363 260.978 443.549 260.277 443.549 259.425ZM449.482 265V251.364H451.506V253.494H451.684C451.968 252.766 452.427 252.201 453.06 251.799C453.693 251.39 454.454 251.186 455.341 251.186C456.241 251.186 456.99 251.39 457.588 251.799C458.191 252.201 458.662 252.766 458.999 253.494H459.141C459.49 252.79 460.014 252.231 460.713 251.816C461.411 251.396 462.248 251.186 463.225 251.186C464.444 251.186 465.441 251.568 466.217 252.331C466.992 253.089 467.38 254.27 467.38 255.874V265H465.285V255.874C465.285 254.867 465.009 254.148 464.459 253.716C463.909 253.284 463.26 253.068 462.515 253.068C461.556 253.068 460.813 253.358 460.286 253.938C459.76 254.512 459.496 255.24 459.496 256.122V265H457.366V255.661C457.366 254.885 457.114 254.261 456.611 253.787C456.108 253.308 455.46 253.068 454.667 253.068C454.122 253.068 453.613 253.213 453.14 253.503C452.672 253.793 452.293 254.196 452.003 254.711C451.719 255.22 451.577 255.808 451.577 256.477V265H449.482ZM471.495 265V246.818H473.59V253.53H473.767C473.921 253.293 474.134 252.991 474.407 252.624C474.685 252.251 475.081 251.92 475.596 251.63C476.117 251.334 476.821 251.186 477.709 251.186C478.857 251.186 479.869 251.473 480.745 252.047C481.621 252.621 482.305 253.435 482.796 254.489C483.287 255.542 483.533 256.785 483.533 258.217C483.533 259.661 483.287 260.913 482.796 261.973C482.305 263.026 481.624 263.843 480.754 264.423C479.884 264.997 478.881 265.284 477.745 265.284C476.869 265.284 476.167 265.139 475.641 264.849C475.114 264.553 474.708 264.219 474.424 263.846C474.14 263.467 473.921 263.153 473.767 262.905H473.519V265H471.495ZM473.554 258.182C473.554 259.212 473.705 260.12 474.007 260.907C474.309 261.689 474.75 262.301 475.33 262.745C475.91 263.183 476.62 263.402 477.461 263.402C478.337 263.402 479.067 263.171 479.653 262.71C480.245 262.242 480.689 261.615 480.985 260.827C481.287 260.034 481.438 259.152 481.438 258.182C481.438 257.223 481.29 256.359 480.994 255.589C480.704 254.814 480.263 254.202 479.671 253.752C479.085 253.296 478.348 253.068 477.461 253.068C476.608 253.068 475.892 253.284 475.312 253.716C474.732 254.142 474.294 254.74 473.998 255.51C473.702 256.273 473.554 257.164 473.554 258.182ZM486.738 265V251.364H488.833V265H486.738ZM487.803 249.091C487.395 249.091 487.043 248.952 486.747 248.674C486.457 248.395 486.312 248.061 486.312 247.67C486.312 247.28 486.457 246.945 486.747 246.667C487.043 246.389 487.395 246.25 487.803 246.25C488.212 246.25 488.561 246.389 488.851 246.667C489.147 246.945 489.295 247.28 489.295 247.67C489.295 248.061 489.147 248.395 488.851 248.674C488.561 248.952 488.212 249.091 487.803 249.091ZM496.683 265.32C495.819 265.32 495.035 265.157 494.331 264.831C493.626 264.5 493.067 264.023 492.653 263.402C492.238 262.775 492.031 262.017 492.031 261.129C492.031 260.348 492.185 259.715 492.493 259.229C492.801 258.738 493.212 258.353 493.727 258.075C494.242 257.797 494.81 257.59 495.432 257.454C496.059 257.312 496.689 257.199 497.323 257.116C498.151 257.01 498.823 256.93 499.338 256.877C499.859 256.818 500.237 256.72 500.474 256.584C500.717 256.448 500.838 256.211 500.838 255.874V255.803C500.838 254.927 500.598 254.246 500.119 253.761C499.646 253.275 498.926 253.033 497.962 253.033C496.961 253.033 496.177 253.252 495.609 253.69C495.041 254.128 494.641 254.595 494.411 255.092L492.422 254.382C492.777 253.554 493.251 252.908 493.842 252.447C494.44 251.979 495.091 251.654 495.796 251.47C496.506 251.281 497.204 251.186 497.891 251.186C498.329 251.186 498.832 251.239 499.4 251.346C499.974 251.446 500.527 251.657 501.06 251.976C501.599 252.296 502.046 252.778 502.401 253.423C502.756 254.068 502.933 254.933 502.933 256.016V265H500.838V263.153H500.732C500.59 263.449 500.353 263.766 500.021 264.103C499.69 264.441 499.249 264.728 498.699 264.964C498.148 265.201 497.476 265.32 496.683 265.32ZM497.003 263.438C497.832 263.438 498.53 263.275 499.098 262.949C499.672 262.624 500.104 262.203 500.394 261.689C500.69 261.174 500.838 260.632 500.838 260.064V258.146C500.749 258.253 500.554 258.35 500.252 258.439C499.956 258.522 499.613 258.596 499.222 258.661C498.838 258.72 498.462 258.774 498.095 258.821C497.734 258.862 497.441 258.898 497.216 258.928C496.671 258.999 496.162 259.114 495.689 259.274C495.221 259.428 494.843 259.661 494.553 259.975C494.269 260.283 494.127 260.703 494.127 261.236C494.127 261.964 494.396 262.514 494.934 262.887C495.479 263.254 496.168 263.438 497.003 263.438Z" fill="black"/>
<path d="M568.145 319.364C568.038 318.464 567.606 317.766 566.849 317.268C566.091 316.771 565.162 316.523 564.061 316.523C563.256 316.523 562.552 316.653 561.948 316.913C561.35 317.174 560.883 317.532 560.545 317.988C560.214 318.443 560.048 318.961 560.048 319.541C560.048 320.027 560.164 320.444 560.395 320.793C560.631 321.136 560.933 321.423 561.3 321.654C561.667 321.879 562.052 322.065 562.454 322.213C562.857 322.355 563.227 322.471 563.564 322.56L565.411 323.057C565.884 323.181 566.411 323.353 566.991 323.572C567.577 323.791 568.136 324.09 568.669 324.468C569.207 324.841 569.651 325.321 570 325.907C570.35 326.493 570.524 327.212 570.524 328.064C570.524 329.046 570.267 329.934 569.752 330.727C569.243 331.52 568.497 332.151 567.515 332.618C566.538 333.086 565.351 333.32 563.955 333.32C562.652 333.32 561.525 333.109 560.572 332.689C559.625 332.269 558.879 331.683 558.335 330.931C557.796 330.18 557.491 329.307 557.42 328.312H559.693C559.752 328.999 559.983 329.567 560.386 330.017C560.794 330.461 561.309 330.792 561.93 331.011C562.558 331.224 563.232 331.331 563.955 331.331C564.795 331.331 565.55 331.195 566.218 330.923C566.887 330.644 567.417 330.26 567.808 329.768C568.198 329.271 568.393 328.691 568.393 328.028C568.393 327.425 568.225 326.933 567.887 326.555C567.55 326.176 567.106 325.868 566.556 325.631C566.005 325.395 565.411 325.187 564.771 325.01L562.534 324.371C561.114 323.962 559.989 323.379 559.161 322.622C558.332 321.864 557.918 320.873 557.918 319.648C557.918 318.63 558.193 317.742 558.743 316.984C559.3 316.221 560.045 315.629 560.98 315.209C561.922 314.783 562.972 314.57 564.132 314.57C565.304 314.57 566.346 314.78 567.257 315.2C568.169 315.614 568.891 316.182 569.423 316.904C569.962 317.627 570.246 318.446 570.276 319.364H568.145ZM579.79 319.364V321.139H572.724V319.364H579.79ZM574.783 316.097H576.878V329.094C576.878 329.686 576.964 330.129 577.136 330.425C577.313 330.715 577.538 330.911 577.811 331.011C578.089 331.106 578.382 331.153 578.69 331.153C578.92 331.153 579.11 331.142 579.258 331.118C579.406 331.088 579.524 331.065 579.613 331.047L580.039 332.929C579.897 332.982 579.699 333.036 579.444 333.089C579.19 333.148 578.867 333.178 578.476 333.178C577.885 333.178 577.305 333.05 576.736 332.796C576.174 332.541 575.707 332.154 575.334 331.633C574.967 331.112 574.783 330.455 574.783 329.662V316.097ZM584.469 333.142C584.031 333.142 583.655 332.985 583.342 332.672C583.028 332.358 582.871 331.982 582.871 331.544C582.871 331.106 583.028 330.73 583.342 330.417C583.655 330.103 584.031 329.946 584.469 329.946C584.907 329.946 585.283 330.103 585.597 330.417C585.91 330.73 586.067 331.106 586.067 331.544C586.067 331.834 585.993 332.1 585.845 332.343C585.703 332.586 585.511 332.781 585.268 332.929C585.031 333.071 584.765 333.142 584.469 333.142ZM597.142 333V314.818H599.344V331.047H607.796V333H597.142ZM616.46 333.284C615.229 333.284 614.149 332.991 613.22 332.405C612.297 331.819 611.575 331 611.054 329.946C610.539 328.893 610.281 327.661 610.281 326.253C610.281 324.832 610.539 323.592 611.054 322.533C611.575 321.474 612.297 320.651 613.22 320.065C614.149 319.479 615.229 319.186 616.46 319.186C617.691 319.186 618.769 319.479 619.692 320.065C620.621 320.651 621.343 321.474 621.858 322.533C622.379 323.592 622.639 324.832 622.639 326.253C622.639 327.661 622.379 328.893 621.858 329.946C621.343 331 620.621 331.819 619.692 332.405C618.769 332.991 617.691 333.284 616.46 333.284ZM616.46 331.402C617.395 331.402 618.165 331.162 618.769 330.683C619.372 330.203 619.819 329.573 620.109 328.792C620.399 328.011 620.544 327.164 620.544 326.253C620.544 325.341 620.399 324.492 620.109 323.705C619.819 322.918 619.372 322.281 618.769 321.796C618.165 321.311 617.395 321.068 616.46 321.068C615.525 321.068 614.756 321.311 614.152 321.796C613.548 322.281 613.102 322.918 612.812 323.705C612.522 324.492 612.377 325.341 612.377 326.253C612.377 327.164 612.522 328.011 612.812 328.792C613.102 329.573 613.548 330.203 614.152 330.683C614.756 331.162 615.525 331.402 616.46 331.402ZM634.431 327.425V319.364H636.526V333H634.431V330.692H634.289C633.97 331.384 633.472 331.973 632.798 332.458C632.123 332.938 631.271 333.178 630.241 333.178C629.389 333.178 628.631 332.991 627.968 332.618C627.305 332.239 626.785 331.671 626.406 330.914C626.027 330.15 625.838 329.188 625.838 328.028V319.364H627.933V327.886C627.933 328.881 628.211 329.674 628.767 330.266C629.329 330.857 630.046 331.153 630.916 331.153C631.436 331.153 631.966 331.02 632.505 330.754C633.049 330.488 633.505 330.079 633.872 329.529C634.245 328.978 634.431 328.277 634.431 327.425ZM640.364 333V319.364H642.459V333H640.364ZM641.429 317.091C641.021 317.091 640.669 316.952 640.373 316.674C640.083 316.395 639.938 316.061 639.938 315.67C639.938 315.28 640.083 314.945 640.373 314.667C640.669 314.389 641.021 314.25 641.429 314.25C641.838 314.25 642.187 314.389 642.477 314.667C642.773 314.945 642.921 315.28 642.921 315.67C642.921 316.061 642.773 316.395 642.477 316.674C642.187 316.952 641.838 317.091 641.429 317.091ZM655.956 322.418L654.074 322.95C653.955 322.637 653.781 322.332 653.55 322.036C653.325 321.734 653.017 321.485 652.626 321.29C652.236 321.095 651.736 320.997 651.126 320.997C650.292 320.997 649.596 321.19 649.04 321.574C648.489 321.953 648.214 322.435 648.214 323.021C648.214 323.542 648.404 323.953 648.782 324.255C649.161 324.557 649.753 324.809 650.558 325.01L652.582 325.507C653.801 325.803 654.71 326.256 655.308 326.865C655.905 327.469 656.204 328.247 656.204 329.2C656.204 329.982 655.979 330.68 655.529 331.295C655.086 331.911 654.464 332.396 653.665 332.751C652.866 333.107 651.937 333.284 650.877 333.284C649.487 333.284 648.335 332.982 647.424 332.379C646.513 331.775 645.935 330.893 645.693 329.733L647.681 329.236C647.871 329.97 648.229 330.52 648.756 330.887C649.288 331.254 649.984 331.438 650.842 331.438C651.819 331.438 652.594 331.23 653.168 330.816C653.748 330.396 654.038 329.893 654.038 329.307C654.038 328.833 653.872 328.437 653.541 328.117C653.209 327.792 652.7 327.549 652.014 327.389L649.741 326.857C648.492 326.561 647.575 326.102 646.989 325.48C646.409 324.853 646.119 324.069 646.119 323.128C646.119 322.358 646.335 321.678 646.767 321.086C647.205 320.494 647.8 320.029 648.551 319.692C649.309 319.355 650.167 319.186 651.126 319.186C652.475 319.186 653.535 319.482 654.304 320.074C655.08 320.666 655.63 321.447 655.956 322.418Z" fill="black"/>
<path d="M490.202 451V432.818H496.345C497.766 432.818 498.932 433.061 499.843 433.546C500.754 434.026 501.429 434.685 501.867 435.526C502.305 436.366 502.524 437.322 502.524 438.393C502.524 439.465 502.305 440.415 501.867 441.243C501.429 442.072 500.757 442.723 499.852 443.196C498.946 443.664 497.789 443.898 496.381 443.898H491.409V441.909H496.31C497.28 441.909 498.062 441.767 498.653 441.483C499.251 441.199 499.683 440.796 499.95 440.276C500.222 439.749 500.358 439.121 500.358 438.393C500.358 437.665 500.222 437.029 499.95 436.485C499.677 435.94 499.242 435.52 498.645 435.224C498.047 434.922 497.257 434.771 496.274 434.771H492.403V451H490.202ZM498.76 442.832L503.234 451H500.678L496.274 442.832H498.76ZM511.302 451.284C510.071 451.284 508.991 450.991 508.062 450.405C507.138 449.819 506.416 449 505.896 447.946C505.381 446.893 505.123 445.661 505.123 444.253C505.123 442.832 505.381 441.592 505.896 440.533C506.416 439.474 507.138 438.651 508.062 438.065C508.991 437.479 510.071 437.186 511.302 437.186C512.533 437.186 513.61 437.479 514.534 438.065C515.463 438.651 516.185 439.474 516.7 440.533C517.221 441.592 517.481 442.832 517.481 444.253C517.481 445.661 517.221 446.893 516.7 447.946C516.185 449 515.463 449.819 514.534 450.405C513.61 450.991 512.533 451.284 511.302 451.284ZM511.302 449.402C512.237 449.402 513.007 449.162 513.61 448.683C514.214 448.203 514.661 447.573 514.951 446.792C515.241 446.011 515.386 445.164 515.386 444.253C515.386 443.341 515.241 442.492 514.951 441.705C514.661 440.918 514.214 440.281 513.61 439.796C513.007 439.311 512.237 439.068 511.302 439.068C510.367 439.068 509.598 439.311 508.994 439.796C508.39 440.281 507.943 440.918 507.653 441.705C507.363 442.492 507.218 443.341 507.218 444.253C507.218 445.164 507.363 446.011 507.653 446.792C507.943 447.573 508.39 448.203 508.994 448.683C509.598 449.162 510.367 449.402 511.302 449.402ZM522.775 432.818V451H520.679V432.818H522.775ZM528.707 432.818V451H526.612V432.818H528.707ZM536.557 451.32C535.693 451.32 534.909 451.157 534.205 450.831C533.5 450.5 532.941 450.023 532.527 449.402C532.113 448.775 531.905 448.017 531.905 447.129C531.905 446.348 532.059 445.715 532.367 445.229C532.675 444.738 533.086 444.353 533.601 444.075C534.116 443.797 534.684 443.59 535.306 443.454C535.933 443.312 536.563 443.199 537.197 443.116C538.025 443.01 538.697 442.93 539.212 442.877C539.733 442.818 540.111 442.72 540.348 442.584C540.591 442.448 540.712 442.211 540.712 441.874V441.803C540.712 440.927 540.472 440.246 539.993 439.761C539.52 439.275 538.8 439.033 537.836 439.033C536.836 439.033 536.051 439.252 535.483 439.69C534.915 440.128 534.515 440.595 534.285 441.092L532.296 440.382C532.651 439.554 533.125 438.908 533.716 438.447C534.314 437.979 534.965 437.654 535.67 437.47C536.38 437.281 537.078 437.186 537.765 437.186C538.203 437.186 538.706 437.239 539.274 437.346C539.848 437.446 540.401 437.657 540.934 437.976C541.473 438.296 541.92 438.778 542.275 439.423C542.63 440.068 542.807 440.933 542.807 442.016V451H540.712V449.153H540.606C540.464 449.449 540.227 449.766 539.895 450.103C539.564 450.441 539.123 450.728 538.573 450.964C538.022 451.201 537.35 451.32 536.557 451.32ZM536.877 449.438C537.706 449.438 538.404 449.275 538.972 448.949C539.546 448.624 539.978 448.203 540.268 447.689C540.564 447.174 540.712 446.632 540.712 446.064V444.146C540.623 444.253 540.428 444.35 540.126 444.439C539.83 444.522 539.487 444.596 539.096 444.661C538.712 444.72 538.336 444.774 537.969 444.821C537.608 444.862 537.315 444.898 537.09 444.928C536.546 444.999 536.037 445.114 535.563 445.274C535.095 445.428 534.717 445.661 534.427 445.975C534.143 446.283 534.001 446.703 534.001 447.236C534.001 447.964 534.27 448.514 534.808 448.887C535.353 449.254 536.042 449.438 536.877 449.438Z" fill="black"/>
<path d="M313.145 478.364C313.038 477.464 312.606 476.766 311.849 476.268C311.091 475.771 310.162 475.523 309.061 475.523C308.256 475.523 307.552 475.653 306.948 475.913C306.35 476.174 305.883 476.532 305.545 476.988C305.214 477.443 305.048 477.961 305.048 478.541C305.048 479.027 305.164 479.444 305.395 479.793C305.631 480.136 305.933 480.423 306.3 480.654C306.667 480.879 307.052 481.065 307.454 481.213C307.857 481.355 308.227 481.471 308.564 481.56L310.411 482.057C310.884 482.181 311.411 482.353 311.991 482.572C312.577 482.791 313.136 483.09 313.669 483.468C314.207 483.841 314.651 484.321 315 484.907C315.35 485.493 315.524 486.212 315.524 487.064C315.524 488.046 315.267 488.934 314.752 489.727C314.243 490.52 313.497 491.151 312.515 491.618C311.538 492.086 310.351 492.32 308.955 492.32C307.652 492.32 306.525 492.109 305.572 491.689C304.625 491.269 303.879 490.683 303.335 489.931C302.796 489.18 302.491 488.307 302.42 487.312H304.693C304.752 487.999 304.983 488.567 305.386 489.017C305.794 489.461 306.309 489.792 306.93 490.011C307.558 490.224 308.232 490.331 308.955 490.331C309.795 490.331 310.55 490.195 311.218 489.923C311.887 489.644 312.417 489.26 312.808 488.768C313.198 488.271 313.393 487.691 313.393 487.028C313.393 486.425 313.225 485.933 312.887 485.555C312.55 485.176 312.106 484.868 311.556 484.631C311.005 484.395 310.411 484.187 309.771 484.01L307.534 483.371C306.114 482.962 304.989 482.379 304.161 481.622C303.332 480.864 302.918 479.873 302.918 478.648C302.918 477.63 303.193 476.742 303.743 475.984C304.3 475.221 305.045 474.629 305.98 474.209C306.922 473.783 307.972 473.57 309.132 473.57C310.304 473.57 311.346 473.78 312.257 474.2C313.169 474.614 313.891 475.182 314.423 475.904C314.962 476.627 315.246 477.446 315.276 478.364H313.145ZM318.86 497.114V478.364H320.884V480.53H321.133C321.287 480.293 321.5 479.991 321.772 479.624C322.05 479.251 322.447 478.92 322.962 478.63C323.482 478.334 324.187 478.186 325.074 478.186C326.223 478.186 327.235 478.473 328.111 479.047C328.987 479.621 329.67 480.435 330.161 481.489C330.653 482.542 330.898 483.785 330.898 485.217C330.898 486.661 330.653 487.913 330.161 488.973C329.67 490.026 328.99 490.843 328.12 491.423C327.25 491.997 326.246 492.284 325.11 492.284C324.234 492.284 323.533 492.139 323.006 491.849C322.479 491.553 322.074 491.219 321.79 490.846C321.506 490.467 321.287 490.153 321.133 489.905H320.955V497.114H318.86ZM320.92 485.182C320.92 486.212 321.071 487.12 321.372 487.907C321.674 488.689 322.115 489.301 322.695 489.745C323.275 490.183 323.985 490.402 324.826 490.402C325.702 490.402 326.433 490.171 327.019 489.71C327.611 489.242 328.054 488.615 328.35 487.827C328.652 487.034 328.803 486.152 328.803 485.182C328.803 484.223 328.655 483.359 328.359 482.589C328.069 481.814 327.628 481.202 327.036 480.752C326.451 480.296 325.714 480.068 324.826 480.068C323.974 480.068 323.257 480.284 322.677 480.716C322.097 481.142 321.659 481.74 321.364 482.51C321.068 483.273 320.92 484.164 320.92 485.182ZM334.094 492V478.364H336.119V480.423H336.261C336.509 479.749 336.959 479.201 337.61 478.781C338.261 478.361 338.995 478.151 339.812 478.151C339.966 478.151 340.158 478.154 340.389 478.159C340.62 478.165 340.794 478.174 340.913 478.186V480.317C340.842 480.299 340.679 480.272 340.424 480.237C340.176 480.195 339.912 480.175 339.634 480.175C338.971 480.175 338.379 480.314 337.859 480.592C337.344 480.864 336.935 481.243 336.633 481.728C336.338 482.208 336.19 482.755 336.19 483.371V492H334.094ZM343.396 492V478.364H345.491V492H343.396ZM344.461 476.091C344.053 476.091 343.701 475.952 343.405 475.674C343.115 475.395 342.97 475.061 342.97 474.67C342.97 474.28 343.115 473.945 343.405 473.667C343.701 473.389 344.053 473.25 344.461 473.25C344.87 473.25 345.219 473.389 345.509 473.667C345.805 473.945 345.953 474.28 345.953 474.67C345.953 475.061 345.805 475.395 345.509 475.674C345.219 475.952 344.87 476.091 344.461 476.091ZM351.424 483.797V492H349.329V478.364H351.353V480.494H351.53C351.85 479.802 352.335 479.246 352.986 478.825C353.637 478.399 354.478 478.186 355.508 478.186C356.431 478.186 357.239 478.375 357.931 478.754C358.624 479.127 359.162 479.695 359.547 480.459C359.932 481.216 360.124 482.175 360.124 483.335V492H358.029V483.477C358.029 482.406 357.751 481.571 357.195 480.974C356.638 480.37 355.875 480.068 354.904 480.068C354.235 480.068 353.637 480.213 353.111 480.503C352.59 480.793 352.179 481.216 351.877 481.773C351.575 482.329 351.424 483.004 351.424 483.797ZM369.457 497.398C368.445 497.398 367.575 497.268 366.847 497.007C366.119 496.753 365.512 496.415 365.027 495.995C364.548 495.581 364.166 495.137 363.882 494.663L365.551 493.491C365.74 493.74 365.98 494.024 366.27 494.344C366.56 494.669 366.956 494.95 367.46 495.187C367.969 495.43 368.634 495.551 369.457 495.551C370.558 495.551 371.466 495.285 372.183 494.752C372.899 494.219 373.257 493.385 373.257 492.249V489.479H373.079C372.925 489.727 372.706 490.035 372.422 490.402C372.144 490.763 371.742 491.086 371.215 491.37C370.694 491.648 369.99 491.787 369.102 491.787C368.001 491.787 367.013 491.527 366.137 491.006C365.267 490.485 364.577 489.727 364.068 488.733C363.565 487.739 363.314 486.531 363.314 485.111C363.314 483.714 363.559 482.498 364.05 481.462C364.542 480.42 365.225 479.615 366.101 479.047C366.977 478.473 367.989 478.186 369.137 478.186C370.025 478.186 370.73 478.334 371.25 478.63C371.777 478.92 372.18 479.251 372.458 479.624C372.742 479.991 372.961 480.293 373.115 480.53H373.328V478.364H375.352V492.391C375.352 493.562 375.086 494.515 374.553 495.249C374.026 495.989 373.316 496.531 372.422 496.874C371.534 497.223 370.546 497.398 369.457 497.398ZM369.386 489.905C370.226 489.905 370.937 489.712 371.517 489.328C372.097 488.943 372.538 488.39 372.839 487.668C373.141 486.946 373.292 486.081 373.292 485.075C373.292 484.093 373.144 483.226 372.848 482.474C372.552 481.722 372.114 481.134 371.534 480.707C370.954 480.281 370.238 480.068 369.386 480.068C368.498 480.068 367.758 480.293 367.167 480.743C366.581 481.193 366.14 481.796 365.844 482.554C365.554 483.312 365.409 484.152 365.409 485.075C365.409 486.022 365.557 486.86 365.853 487.588C366.154 488.31 366.598 488.878 367.184 489.292C367.776 489.701 368.51 489.905 369.386 489.905ZM385.26 478.364V480.139H377.909V478.364H385.26ZM380.11 492V476.482C380.11 475.7 380.294 475.049 380.661 474.528C381.028 474.008 381.504 473.617 382.09 473.357C382.676 473.096 383.295 472.966 383.946 472.966C384.461 472.966 384.881 473.007 385.206 473.09C385.532 473.173 385.775 473.25 385.934 473.321L385.331 475.132C385.224 475.097 385.076 475.052 384.887 474.999C384.703 474.946 384.461 474.919 384.159 474.919C383.466 474.919 382.966 475.094 382.658 475.443C382.357 475.792 382.206 476.304 382.206 476.979V492H380.11ZM388.196 492V478.364H390.291V492H388.196ZM389.261 476.091C388.853 476.091 388.501 475.952 388.205 475.674C387.915 475.395 387.77 475.061 387.77 474.67C387.77 474.28 387.915 473.945 388.205 473.667C388.501 473.389 388.853 473.25 389.261 473.25C389.67 473.25 390.019 473.389 390.309 473.667C390.605 473.945 390.753 474.28 390.753 474.67C390.753 475.061 390.605 475.395 390.309 475.674C390.019 475.952 389.67 476.091 389.261 476.091ZM399.846 492.284C398.532 492.284 397.399 491.994 396.446 491.414C395.499 490.828 394.768 490.011 394.253 488.964C393.744 487.91 393.489 486.685 393.489 485.288C393.489 483.892 393.744 482.661 394.253 481.595C394.768 480.524 395.484 479.689 396.401 479.092C397.325 478.488 398.402 478.186 399.633 478.186C400.343 478.186 401.044 478.304 401.737 478.541C402.429 478.778 403.06 479.163 403.628 479.695C404.196 480.222 404.649 480.92 404.986 481.79C405.324 482.661 405.492 483.732 405.492 485.004V485.892H394.981V484.081H403.362C403.362 483.312 403.208 482.625 402.9 482.021C402.598 481.418 402.166 480.941 401.604 480.592C401.047 480.243 400.39 480.068 399.633 480.068C398.798 480.068 398.076 480.275 397.467 480.69C396.863 481.098 396.398 481.631 396.073 482.288C395.747 482.945 395.585 483.649 395.585 484.401V485.608C395.585 486.638 395.762 487.511 396.117 488.227C396.478 488.937 396.978 489.479 397.618 489.852C398.257 490.219 399 490.402 399.846 490.402C400.396 490.402 400.893 490.325 401.337 490.171C401.787 490.011 402.175 489.775 402.5 489.461C402.826 489.141 403.077 488.745 403.255 488.271L405.279 488.839C405.066 489.526 404.708 490.13 404.205 490.651C403.702 491.165 403.08 491.568 402.341 491.858C401.601 492.142 400.769 492.284 399.846 492.284ZM410.775 473.818V492H408.679V473.818H410.775ZM419.761 492.284C418.625 492.284 417.622 491.997 416.752 491.423C415.881 490.843 415.201 490.026 414.71 488.973C414.218 487.913 413.973 486.661 413.973 485.217C413.973 483.785 414.218 482.542 414.71 481.489C415.201 480.435 415.884 479.621 416.76 479.047C417.636 478.473 418.648 478.186 419.797 478.186C420.684 478.186 421.386 478.334 421.901 478.63C422.421 478.92 422.818 479.251 423.09 479.624C423.368 479.991 423.584 480.293 423.738 480.53H423.916V473.818H426.011V492H423.987V489.905H423.738C423.584 490.153 423.366 490.467 423.081 490.846C422.797 491.219 422.392 491.553 421.865 491.849C421.338 492.139 420.637 492.284 419.761 492.284ZM420.045 490.402C420.886 490.402 421.596 490.183 422.176 489.745C422.756 489.301 423.197 488.689 423.499 487.907C423.801 487.12 423.951 486.212 423.951 485.182C423.951 484.164 423.803 483.273 423.508 482.51C423.212 481.74 422.774 481.142 422.194 480.716C421.614 480.284 420.897 480.068 420.045 480.068C419.157 480.068 418.418 480.296 417.826 480.752C417.24 481.202 416.799 481.814 416.503 482.589C416.213 483.359 416.068 484.223 416.068 485.182C416.068 486.152 416.216 487.034 416.512 487.827C416.814 488.615 417.258 489.242 417.843 489.71C418.435 490.171 419.169 490.402 420.045 490.402Z" fill="black"/>
<circle cx="233.511" cy="263.511" r="9.01136" fill="#FFE587" stroke="black"/>
<circle cx="9.51136" cy="9.51136" r="9.01136" transform="matrix(1 0 0 -1 454 294.023)" fill="#FFE587" stroke="black"/>
<circle cx="673.511" cy="325.511" r="9.01136" fill="#FFE587" stroke="black"/>
<circle cx="517.511" cy="414.511" r="9.01136" fill="#FFE587" stroke="black"/>
<circle cx="363.511" cy="509.511" r="9.01136" fill="#FFE587" stroke="black"/>
<defs>
<filter id="filter0_d_159_231" x="108.5" y="66.4932" width="681.5" height="602.507" filterUnits="userSpaceOnUse" color-interpolation-filters="sRGB">
<feFlood flood-opacity="0" result="BackgroundImageFix"/>
<feColorMatrix in="SourceAlpha" type="matrix" values="0 0 0 0 0 0 0 0 0 0 0 0 0 0 0 0 0 0 127 0" result="hardAlpha"/>
<feOffset dy="4"/>
<feGaussianBlur stdDeviation="2"/>
<feComposite in2="hardAlpha" operator="out"/>
<feColorMatrix type="matrix" values="0 0 0 0 0 0 0 0 0 0 0 0 0 0 0 0 0 0 0.25 0"/>
<feBlend mode="normal" in2="BackgroundImageFix" result="effect1_dropShadow_159_231"/>
<feBlend mode="normal" in="SourceGraphic" in2="effect1_dropShadow_159_231" result="shape"/>
</filter>
</defs>
</svg>
