<svg width="1010" height="631" viewBox="0 0 1010 631" fill="none" xmlns="http://www.w3.org/2000/svg">
<rect x="0.5" y="0.5" width="1009" height="630" rx="35.5" fill="#8DDBFF" stroke="#717171"/>
<g filter="url(#filter0_d_218_40)">
<path d="M911 85.5H57L57.5 196L66.5 209H69L71 211.5L72.5 219H75L76.5 222L79 225L80 232H81L82.5 234L79 241.5H81L82.5 246.5L86 248L84.5 249.5L79 251V253.5L83.5 255L86 258.5L87.5 259.5L91.5 260.5L94 266L96.5 268L102.5 270.5L107 271.5L110 273.5L111 277.5L113.5 280.5L118 284L121.5 289.5L127 296L128 302H132.5L134 305.5L137 307L136 313L140.5 317.5L148 323.5L146.5 328L149.5 330L153 325.5H155L159 328L157 333L159 336.5L163.5 335L169.5 337.5L171.5 335L177.5 333L179.5 335V340L177.5 348.5L175.5 351V356L172.5 362V372.5L169.5 375.5L171.5 378.5V384L166.5 385.5L165.5 389L169.5 391V396L168 398.5L171.5 401.5L174 406L175.5 412.5L174 417.5L169.5 416V417.5L165.5 418.5L163.5 425L166.5 430V436L163.5 439.5L164.5 443.5L165.5 446.5L168 448L171.5 450L174 452.5L177.5 455L178.5 457L184 453.5L185 448H189L193 446.5L194.5 443.5L199 439.5L201 437V434H203H207.5L209.5 436V439.5L211.5 441.5H214.5L216.5 443.5V445L215.5 448L214.5 450L216.5 451H219L220.5 453.5L219 457V459.5L221.5 463V471L225.5 474V478L229 481.5L231.5 486.5L233.5 491.5L237.5 493L239.5 496L242 497.5L244 501.5V506L240.5 508L239.5 509.5L240.5 514L244 518.5L247 520L249.5 524L251 525.5L255.5 522H258L262 525.5L266 531L269.5 538L270 541L268.5 543.5L270.5 546.5V548C270.667 548.667 271.1 550 271.5 550C271.9 550 273 551.333 273.5 552L272 554.5L273.5 557L277.5 562.5C278.5 563 280.6 564.1 281 564.5L284.5 568L287.5 566.5V564.5L285.5 562L286 559.5L288 557L291.5 554.5L294.5 553.5L297.5 554.5L302.5 555.5H306.5L309 557L312.5 556.5L314.5 558.5L317.5 559L319.5 556L320 550H322L324 547.5H327.5L330.5 550H334.5L337.5 551.5L343 549L347 550L350 547.5H353.5L357 552L358.5 552.5L366 547.5L372 548.5L375 547.5L379 550H382.5L383.5 548.5L381.5 547.5L380 545V540.5L382.5 540L382 535.5L382.5 532.5H386.5L389 530L391 531L393.5 531.5L396.5 534.5L397 539H398L399.5 540V545L400.5 545.5L403 546.5L403.5 548.5L406.5 550L407.5 554L408.5 554.5L410.5 555L412.5 556V503.5H429.5L441 504H473.5H482L497 503L553 504H912L911 85.5Z" fill="#FFD597"/>
<path d="M911 85.5H57L57.5 196L66.5 209H69L71 211.5L72.5 219H75L76.5 222L79 225L80 232H81L82.5 234L79 241.5H81L82.5 246.5L86 248L84.5 249.5L79 251V253.5L83.5 255L86 258.5L87.5 259.5L91.5 260.5L94 266L96.5 268L102.5 270.5L107 271.5L110 273.5L111 277.5L113.5 280.5L118 284L121.5 289.5L127 296L128 302H132.5L134 305.5L137 307L136 313L140.5 317.5L148 323.5L146.5 328L149.5 330L153 325.5H155L159 328L157 333L159 336.5L163.5 335L169.5 337.5L171.5 335L177.5 333L179.5 335V340L177.5 348.5L175.5 351V356L172.5 362V372.5L169.5 375.5L171.5 378.5V384L166.5 385.5L165.5 389L169.5 391V396L168 398.5L171.5 401.5L174 406L175.5 412.5L174 417.5L169.5 416V417.5L165.5 418.5L163.5 425L166.5 430V436L163.5 439.5L164.5 443.5L165.5 446.5L168 448L171.5 450L174 452.5L177.5 455L178.5 457L184 453.5L185 448H189L193 446.5L194.5 443.5L199 439.5L201 437V434H203H207.5L209.5 436V439.5L211.5 441.5H214.5L216.5 443.5V445L215.5 448L214.5 450L216.5 451H219L220.5 453.5L219 457V459.5L221.5 463V471L225.5 474V478L229 481.5L231.5 486.5L233.5 491.5L237.5 493L239.5 496L242 497.5L244 501.5V506L240.5 508L239.5 509.5L240.5 514L244 518.5L247 520L249.5 524L251 525.5L255.5 522H258L262 525.5L266 531L269.5 538L270 541L268.5 543.5L270.5 546.5V548C270.667 548.667 271.1 550 271.5 550C271.9 550 273 551.333 273.5 552L272 554.5L273.5 557L277.5 562.5C278.5 563 280.6 564.1 281 564.5L284.5 568L287.5 566.5V564.5L285.5 562L286 559.5L288 557L291.5 554.5L294.5 553.5L297.5 554.5L302.5 555.5H306.5L309 557L312.5 556.5L314.5 558.5L317.5 559L319.5 556L320 550H322L324 547.5H327.5L330.5 550H334.5L337.5 551.5L343 549L347 550L350 547.5H353.5L357 552L358.5 552.5L366 547.5L372 548.5L375 547.5L379 550H382.5L383.5 548.5L381.5 547.5L380 545V540.5L382.5 540L382 535.5L382.5 532.5H386.5L389 530L391 531L393.5 531.5L396.5 534.5L397 539H398L399.5 540V545L400.5 545.5L403 546.5L403.5 548.5L406.5 550L407.5 554L408.5 554.5L410.5 555L412.5 556V503.5H429.5L441 504H473.5H482L497 503L553 504H912L911 85.5Z" stroke="black"/>
</g>
<path d="M952.065 190.545V208H949.253L941.028 196.111H940.884V208H937.722V190.545H940.551L948.767 202.443H948.92V190.545H952.065ZM961.425 208H955.511V190.545H961.545C963.278 190.545 964.766 190.895 966.011 191.594C967.261 192.287 968.221 193.284 968.891 194.585C969.562 195.886 969.897 197.443 969.897 199.256C969.897 201.074 969.559 202.636 968.883 203.943C968.212 205.25 967.244 206.253 965.977 206.952C964.715 207.651 963.198 208 961.425 208ZM958.673 205.264H961.272C962.488 205.264 963.502 205.043 964.315 204.599C965.127 204.151 965.738 203.483 966.147 202.597C966.556 201.705 966.761 200.591 966.761 199.256C966.761 197.92 966.556 196.812 966.147 195.932C965.738 195.045 965.133 194.384 964.332 193.946C963.536 193.503 962.548 193.281 961.366 193.281H958.673V205.264Z" fill="#005A5E"/>
<path d="M947.207 464.344C947.128 463.599 946.793 463.02 946.202 462.605C945.616 462.19 944.855 461.983 943.918 461.983C943.259 461.983 942.693 462.082 942.222 462.281C941.75 462.48 941.389 462.75 941.139 463.091C940.889 463.432 940.761 463.821 940.756 464.259C940.756 464.622 940.838 464.937 941.003 465.205C941.173 465.472 941.403 465.699 941.693 465.886C941.983 466.068 942.304 466.222 942.656 466.347C943.009 466.472 943.364 466.577 943.722 466.662L945.358 467.071C946.017 467.224 946.651 467.432 947.259 467.693C947.872 467.955 948.42 468.284 948.903 468.682C949.392 469.08 949.778 469.56 950.062 470.122C950.347 470.685 950.489 471.344 950.489 472.099C950.489 473.122 950.227 474.023 949.705 474.801C949.182 475.574 948.426 476.179 947.438 476.616C946.455 477.048 945.264 477.264 943.866 477.264C942.509 477.264 941.33 477.054 940.33 476.634C939.335 476.213 938.557 475.599 937.994 474.793C937.438 473.986 937.136 473.003 937.091 471.844H940.202C940.247 472.452 940.435 472.957 940.764 473.361C941.094 473.764 941.523 474.065 942.051 474.264C942.585 474.463 943.182 474.562 943.841 474.562C944.528 474.562 945.131 474.46 945.648 474.256C946.17 474.045 946.58 473.756 946.875 473.386C947.17 473.011 947.321 472.574 947.327 472.074C947.321 471.619 947.188 471.244 946.926 470.949C946.665 470.648 946.298 470.398 945.827 470.199C945.361 469.994 944.815 469.812 944.19 469.653L942.205 469.142C940.767 468.773 939.631 468.213 938.795 467.463C937.966 466.707 937.551 465.705 937.551 464.455C937.551 463.426 937.83 462.526 938.386 461.753C938.949 460.98 939.713 460.381 940.679 459.955C941.645 459.523 942.739 459.307 943.96 459.307C945.199 459.307 946.284 459.523 947.216 459.955C948.153 460.381 948.889 460.974 949.423 461.736C949.957 462.491 950.233 463.361 950.25 464.344H947.207ZM959.222 477H953.308V459.545H959.342C961.075 459.545 962.563 459.895 963.808 460.594C965.058 461.287 966.018 462.284 966.688 463.585C967.359 464.886 967.694 466.443 967.694 468.256C967.694 470.074 967.356 471.636 966.68 472.943C966.009 474.25 965.04 475.253 963.773 475.952C962.512 476.651 960.995 477 959.222 477ZM956.469 474.264H959.069C960.285 474.264 961.299 474.043 962.112 473.599C962.924 473.151 963.535 472.483 963.944 471.597C964.353 470.705 964.558 469.591 964.558 468.256C964.558 466.92 964.353 465.812 963.944 464.932C963.535 464.045 962.93 463.384 962.129 462.946C961.333 462.503 960.344 462.281 959.163 462.281H956.469V474.264Z" fill="#005A5E"/>
<path d="M585.395 554L580.469 536.545H583.869L587.014 549.372H587.176L590.534 536.545H593.628L596.994 549.381H597.148L600.293 536.545H603.693L598.767 554H595.648L592.153 541.753H592.017L588.514 554H585.395ZM604.692 536.545H608.263L612.533 544.267H612.704L616.974 536.545H620.545L614.195 547.489V554H611.042V547.489L604.692 536.545Z" fill="#005A5E"/>
<path d="M71.8835 362.545V380H68.7216V362.545H71.8835ZM81.2223 380H75.3075V362.545H81.3416C83.0746 362.545 84.5632 362.895 85.8075 363.594C87.0575 364.287 88.0178 365.284 88.6882 366.585C89.3587 367.886 89.6939 369.443 89.6939 371.256C89.6939 373.074 89.3558 374.636 88.6797 375.943C88.0092 377.25 87.0405 378.253 85.7734 378.952C84.5121 379.651 82.995 380 81.2223 380ZM78.4695 377.264H81.0689C82.2848 377.264 83.299 377.043 84.1115 376.599C84.924 376.151 85.5348 375.483 85.9439 374.597C86.353 373.705 86.5575 372.591 86.5575 371.256C86.5575 369.92 86.353 368.812 85.9439 367.932C85.5348 367.045 84.9297 366.384 84.1286 365.946C83.3331 365.503 82.3445 365.281 81.1626 365.281H78.4695V377.264Z" fill="#005A5E"/>
<circle cx="341.511" cy="341.511" r="9.01136" fill="#FF8F87" stroke="black"/>
<path d="M305.58 324V305.818H309.424V313.32H317.228V305.818H321.063V324H317.228V316.489H309.424V324H305.58ZM330.376 324.266C328.973 324.266 327.766 323.982 326.754 323.414C325.748 322.84 324.972 322.029 324.428 320.982C323.883 319.928 323.611 318.682 323.611 317.244C323.611 315.841 323.883 314.61 324.428 313.551C324.972 312.491 325.739 311.666 326.727 311.074C327.722 310.482 328.888 310.186 330.225 310.186C331.125 310.186 331.962 310.331 332.738 310.621C333.519 310.905 334.199 311.334 334.779 311.908C335.365 312.482 335.821 313.205 336.147 314.075C336.472 314.939 336.635 315.951 336.635 317.111V318.15H325.12V315.806H333.075C333.075 315.261 332.957 314.779 332.72 314.359C332.483 313.938 332.155 313.61 331.734 313.373C331.32 313.131 330.838 313.009 330.287 313.009C329.713 313.009 329.204 313.142 328.76 313.409C328.322 313.669 327.979 314.021 327.73 314.465C327.482 314.903 327.355 315.391 327.349 315.93V318.158C327.349 318.833 327.473 319.416 327.722 319.907C327.976 320.399 328.334 320.777 328.796 321.044C329.257 321.31 329.805 321.443 330.438 321.443C330.858 321.443 331.243 321.384 331.592 321.266C331.942 321.147 332.24 320.97 332.489 320.733C332.738 320.496 332.927 320.206 333.057 319.863L336.555 320.094C336.377 320.934 336.013 321.668 335.463 322.295C334.919 322.917 334.214 323.402 333.35 323.751C332.492 324.095 331.501 324.266 330.376 324.266ZM342.885 305.818V324H339.103V305.818H342.885ZM352.129 324.266C350.726 324.266 349.519 323.982 348.507 323.414C347.501 322.84 346.725 322.029 346.181 320.982C345.636 319.928 345.364 318.682 345.364 317.244C345.364 315.841 345.636 314.61 346.181 313.551C346.725 312.491 347.492 311.666 348.48 311.074C349.475 310.482 350.64 310.186 351.978 310.186C352.878 310.186 353.715 310.331 354.491 310.621C355.272 310.905 355.952 311.334 356.532 311.908C357.118 312.482 357.574 313.205 357.9 314.075C358.225 314.939 358.388 315.951 358.388 317.111V318.15H346.873V315.806H354.828C354.828 315.261 354.709 314.779 354.473 314.359C354.236 313.938 353.908 313.61 353.487 313.373C353.073 313.131 352.591 313.009 352.04 313.009C351.466 313.009 350.957 313.142 350.513 313.409C350.075 313.669 349.732 314.021 349.483 314.465C349.235 314.903 349.108 315.391 349.102 315.93V318.158C349.102 318.833 349.226 319.416 349.475 319.907C349.729 320.399 350.087 320.777 350.549 321.044C351.01 321.31 351.558 321.443 352.191 321.443C352.611 321.443 352.996 321.384 353.345 321.266C353.694 321.147 353.993 320.97 354.242 320.733C354.491 320.496 354.68 320.206 354.81 319.863L358.308 320.094C358.13 320.934 357.766 321.668 357.216 322.295C356.671 322.917 355.967 323.402 355.103 323.751C354.245 324.095 353.254 324.266 352.129 324.266ZM364.638 316.116V324H360.856V310.364H364.46V312.77H364.62C364.922 311.976 365.428 311.349 366.138 310.887C366.848 310.42 367.71 310.186 368.722 310.186C369.669 310.186 370.494 310.393 371.199 310.808C371.903 311.222 372.45 311.814 372.841 312.583C373.232 313.347 373.427 314.258 373.427 315.317V324H369.645V315.992C369.651 315.158 369.438 314.507 369.006 314.039C368.574 313.566 367.979 313.329 367.221 313.329C366.712 313.329 366.263 313.438 365.872 313.657C365.487 313.876 365.185 314.196 364.966 314.616C364.753 315.03 364.644 315.531 364.638 316.116ZM380.296 324.257C379.426 324.257 378.651 324.107 377.97 323.805C377.29 323.497 376.751 323.044 376.354 322.446C375.964 321.843 375.768 321.091 375.768 320.191C375.768 319.434 375.908 318.798 376.186 318.283C376.464 317.768 376.843 317.353 377.322 317.04C377.801 316.726 378.346 316.489 378.956 316.33C379.571 316.17 380.216 316.057 380.891 315.992C381.684 315.909 382.323 315.832 382.809 315.761C383.294 315.684 383.646 315.572 383.865 315.424C384.084 315.276 384.194 315.057 384.194 314.767V314.714C384.194 314.152 384.016 313.717 383.661 313.409C383.312 313.101 382.815 312.947 382.169 312.947C381.489 312.947 380.947 313.098 380.545 313.4C380.142 313.696 379.876 314.069 379.746 314.518L376.248 314.234C376.425 313.406 376.775 312.69 377.295 312.086C377.816 311.476 378.488 311.009 379.311 310.683C380.139 310.352 381.098 310.186 382.187 310.186C382.945 310.186 383.67 310.275 384.362 310.452C385.061 310.63 385.679 310.905 386.218 311.278C386.762 311.651 387.191 312.13 387.505 312.716C387.819 313.296 387.975 313.992 387.975 314.803V324H384.389V322.109H384.282C384.063 322.535 383.77 322.911 383.403 323.237C383.036 323.556 382.596 323.808 382.081 323.991C381.566 324.169 380.971 324.257 380.296 324.257ZM381.379 321.647C381.936 321.647 382.427 321.538 382.853 321.319C383.279 321.094 383.614 320.792 383.856 320.413C384.099 320.035 384.22 319.605 384.22 319.126V317.679C384.102 317.756 383.939 317.827 383.732 317.892C383.531 317.951 383.303 318.007 383.048 318.061C382.794 318.108 382.539 318.152 382.285 318.194C382.03 318.229 381.799 318.262 381.592 318.292C381.148 318.357 380.761 318.46 380.429 318.602C380.098 318.744 379.84 318.937 379.657 319.179C379.473 319.416 379.382 319.712 379.382 320.067C379.382 320.582 379.568 320.976 379.941 321.248C380.32 321.514 380.799 321.647 381.379 321.647Z" fill="black"/>
<path d="M551.202 411V392.818H557.558C558.825 392.818 559.869 393.037 560.692 393.475C561.515 393.907 562.127 394.49 562.53 395.224C562.932 395.952 563.134 396.76 563.134 397.648C563.134 398.429 562.994 399.074 562.716 399.583C562.444 400.092 562.083 400.495 561.633 400.79C561.189 401.086 560.707 401.305 560.186 401.447V401.625C560.742 401.661 561.302 401.856 561.864 402.211C562.426 402.566 562.897 403.075 563.276 403.738C563.654 404.401 563.844 405.212 563.844 406.17C563.844 407.082 563.637 407.902 563.222 408.63C562.808 409.358 562.154 409.935 561.26 410.361C560.367 410.787 559.204 411 557.771 411H551.202ZM553.403 409.047H557.771C559.21 409.047 560.23 408.769 560.834 408.212C561.444 407.65 561.749 406.969 561.749 406.17C561.749 405.555 561.592 404.987 561.278 404.466C560.964 403.939 560.518 403.519 559.938 403.205C559.357 402.886 558.671 402.726 557.878 402.726H553.403V409.047ZM553.403 400.808H557.487C558.15 400.808 558.748 400.678 559.281 400.418C559.819 400.157 560.245 399.79 560.559 399.317C560.879 398.843 561.038 398.287 561.038 397.648C561.038 396.849 560.76 396.171 560.204 395.615C559.647 395.052 558.766 394.771 557.558 394.771H553.403V400.808ZM567.177 411V397.364H569.273V411H567.177ZM568.243 395.091C567.834 395.091 567.482 394.952 567.186 394.674C566.896 394.395 566.751 394.061 566.751 393.67C566.751 393.28 566.896 392.945 567.186 392.667C567.482 392.389 567.834 392.25 568.243 392.25C568.651 392.25 569 392.389 569.29 392.667C569.586 392.945 569.734 393.28 569.734 393.67C569.734 394.061 569.586 394.395 569.29 394.674C569 394.952 568.651 395.091 568.243 395.091ZM575.205 392.818V411H573.11V392.818H575.205ZM581.138 392.818V411H579.043V392.818H581.138ZM584.975 411V397.364H587.07V411H584.975ZM586.041 395.091C585.632 395.091 585.28 394.952 584.984 394.674C584.694 394.395 584.549 394.061 584.549 393.67C584.549 393.28 584.694 392.945 584.984 392.667C585.28 392.389 585.632 392.25 586.041 392.25C586.449 392.25 586.798 392.389 587.088 392.667C587.384 392.945 587.532 393.28 587.532 393.67C587.532 394.061 587.384 394.395 587.088 394.674C586.798 394.952 586.449 395.091 586.041 395.091ZM593.003 402.797V411H590.908V397.364H592.932V399.494H593.11C593.429 398.802 593.914 398.246 594.566 397.825C595.217 397.399 596.057 397.186 597.087 397.186C598.01 397.186 598.818 397.375 599.51 397.754C600.203 398.127 600.742 398.695 601.126 399.459C601.511 400.216 601.703 401.175 601.703 402.335V411H599.608V402.477C599.608 401.406 599.33 400.571 598.774 399.974C598.217 399.37 597.454 399.068 596.483 399.068C595.814 399.068 595.217 399.213 594.69 399.503C594.169 399.793 593.758 400.216 593.456 400.773C593.154 401.329 593.003 402.004 593.003 402.797ZM611.036 416.398C610.024 416.398 609.154 416.268 608.426 416.007C607.698 415.753 607.091 415.415 606.606 414.995C606.127 414.581 605.745 414.137 605.461 413.663L607.13 412.491C607.319 412.74 607.559 413.024 607.849 413.344C608.139 413.669 608.536 413.95 609.039 414.187C609.548 414.43 610.213 414.551 611.036 414.551C612.137 414.551 613.045 414.285 613.762 413.752C614.478 413.219 614.836 412.385 614.836 411.249V408.479H614.658C614.504 408.727 614.285 409.035 614.001 409.402C613.723 409.763 613.321 410.086 612.794 410.37C612.273 410.648 611.569 410.787 610.681 410.787C609.58 410.787 608.592 410.527 607.716 410.006C606.846 409.485 606.156 408.727 605.647 407.733C605.144 406.739 604.893 405.531 604.893 404.111C604.893 402.714 605.138 401.498 605.63 400.462C606.121 399.42 606.804 398.615 607.68 398.047C608.556 397.473 609.568 397.186 610.717 397.186C611.604 397.186 612.309 397.334 612.829 397.63C613.356 397.92 613.759 398.251 614.037 398.624C614.321 398.991 614.54 399.293 614.694 399.53H614.907V397.364H616.931V411.391C616.931 412.562 616.665 413.515 616.132 414.249C615.605 414.989 614.895 415.531 614.001 415.874C613.114 416.223 612.125 416.398 611.036 416.398ZM610.965 408.905C611.806 408.905 612.516 408.712 613.096 408.328C613.676 407.943 614.117 407.39 614.419 406.668C614.72 405.946 614.871 405.081 614.871 404.075C614.871 403.093 614.723 402.226 614.427 401.474C614.132 400.722 613.694 400.134 613.114 399.707C612.534 399.281 611.817 399.068 610.965 399.068C610.077 399.068 609.338 399.293 608.746 399.743C608.16 400.193 607.719 400.796 607.423 401.554C607.133 402.312 606.988 403.152 606.988 404.075C606.988 405.022 607.136 405.86 607.432 406.588C607.734 407.31 608.177 407.878 608.763 408.292C609.355 408.701 610.089 408.905 610.965 408.905ZM630.425 400.418L628.543 400.95C628.425 400.637 628.25 400.332 628.019 400.036C627.795 399.734 627.487 399.485 627.096 399.29C626.706 399.095 626.205 398.997 625.596 398.997C624.761 398.997 624.066 399.19 623.509 399.574C622.959 399.953 622.684 400.435 622.684 401.021C622.684 401.542 622.873 401.953 623.252 402.255C623.631 402.557 624.223 402.809 625.028 403.01L627.052 403.507C628.271 403.803 629.179 404.256 629.777 404.865C630.375 405.469 630.674 406.247 630.674 407.2C630.674 407.982 630.449 408.68 629.999 409.295C629.555 409.911 628.934 410.396 628.135 410.751C627.336 411.107 626.407 411.284 625.347 411.284C623.956 411.284 622.805 410.982 621.894 410.379C620.982 409.775 620.405 408.893 620.163 407.733L622.151 407.236C622.341 407.97 622.699 408.52 623.225 408.887C623.758 409.254 624.454 409.438 625.312 409.438C626.288 409.438 627.064 409.23 627.638 408.816C628.218 408.396 628.508 407.893 628.508 407.307C628.508 406.833 628.342 406.437 628.011 406.117C627.679 405.792 627.17 405.549 626.484 405.389L624.211 404.857C622.962 404.561 622.045 404.102 621.459 403.48C620.879 402.853 620.589 402.069 620.589 401.128C620.589 400.358 620.805 399.678 621.237 399.086C621.675 398.494 622.27 398.029 623.021 397.692C623.779 397.355 624.637 397.186 625.596 397.186C626.945 397.186 628.005 397.482 628.774 398.074C629.549 398.666 630.1 399.447 630.425 400.418Z" fill="black"/>
<path d="M745.202 324.818H747.83L754.009 339.911H754.222L760.401 324.818H763.028V343H760.969V329.186H760.791L755.109 343H753.121L747.439 329.186H747.261V343H745.202V324.818ZM767.159 343V329.364H769.254V343H767.159ZM768.224 327.091C767.816 327.091 767.464 326.952 767.168 326.674C766.878 326.395 766.733 326.061 766.733 325.67C766.733 325.28 766.878 324.945 767.168 324.667C767.464 324.389 767.816 324.25 768.224 324.25C768.633 324.25 768.982 324.389 769.272 324.667C769.568 324.945 769.716 325.28 769.716 325.67C769.716 326.061 769.568 326.395 769.272 326.674C768.982 326.952 768.633 327.091 768.224 327.091ZM775.187 324.818V343H773.091V324.818H775.187ZM784.741 343.284C783.427 343.284 782.294 342.994 781.341 342.414C780.394 341.828 779.663 341.011 779.148 339.964C778.639 338.91 778.385 337.685 778.385 336.288C778.385 334.892 778.639 333.661 779.148 332.595C779.663 331.524 780.379 330.689 781.297 330.092C782.22 329.488 783.297 329.186 784.528 329.186C785.239 329.186 785.94 329.304 786.632 329.541C787.325 329.778 787.955 330.163 788.523 330.695C789.092 331.222 789.544 331.92 789.882 332.79C790.219 333.661 790.388 334.732 790.388 336.004V336.892H779.876V335.081H788.257C788.257 334.312 788.103 333.625 787.795 333.021C787.494 332.418 787.061 331.941 786.499 331.592C785.943 331.243 785.286 331.068 784.528 331.068C783.694 331.068 782.972 331.275 782.362 331.69C781.758 332.098 781.294 332.631 780.968 333.288C780.643 333.945 780.48 334.649 780.48 335.401V336.608C780.48 337.638 780.658 338.511 781.013 339.227C781.374 339.937 781.874 340.479 782.513 340.852C783.152 341.219 783.895 341.402 784.741 341.402C785.292 341.402 785.789 341.325 786.233 341.171C786.683 341.011 787.07 340.775 787.396 340.461C787.721 340.141 787.973 339.745 788.15 339.271L790.175 339.839C789.962 340.526 789.603 341.13 789.1 341.651C788.597 342.165 787.976 342.568 787.236 342.858C786.496 343.142 785.665 343.284 784.741 343.284ZM803.234 332.418L801.352 332.95C801.233 332.637 801.059 332.332 800.828 332.036C800.603 331.734 800.295 331.485 799.905 331.29C799.514 331.095 799.014 330.997 798.404 330.997C797.57 330.997 796.874 331.19 796.318 331.574C795.768 331.953 795.492 332.435 795.492 333.021C795.492 333.542 795.682 333.953 796.061 334.255C796.439 334.557 797.031 334.809 797.836 335.01L799.86 335.507C801.08 335.803 801.988 336.256 802.586 336.865C803.184 337.469 803.483 338.247 803.483 339.2C803.483 339.982 803.258 340.68 802.808 341.295C802.364 341.911 801.742 342.396 800.943 342.751C800.144 343.107 799.215 343.284 798.156 343.284C796.765 343.284 795.614 342.982 794.702 342.379C793.791 341.775 793.214 340.893 792.971 339.733L794.96 339.236C795.149 339.97 795.507 340.52 796.034 340.887C796.567 341.254 797.262 341.438 798.12 341.438C799.097 341.438 799.872 341.23 800.446 340.816C801.026 340.396 801.316 339.893 801.316 339.307C801.316 338.833 801.151 338.437 800.819 338.117C800.488 337.792 799.979 337.549 799.292 337.389L797.019 336.857C795.771 336.561 794.853 336.102 794.267 335.48C793.687 334.853 793.397 334.069 793.397 333.128C793.397 332.358 793.613 331.678 794.045 331.086C794.483 330.494 795.078 330.029 795.83 329.692C796.587 329.355 797.446 329.186 798.404 329.186C799.754 329.186 800.813 329.482 801.583 330.074C802.358 330.666 802.908 331.447 803.234 332.418ZM828.582 330.5H826.381C826.25 329.867 826.023 329.31 825.697 328.831C825.377 328.352 824.987 327.949 824.525 327.624C824.069 327.292 823.563 327.044 823.007 326.878C822.451 326.712 821.871 326.629 821.267 326.629C820.166 326.629 819.169 326.907 818.275 327.464C817.387 328.02 816.68 328.84 816.153 329.923C815.633 331.006 815.372 332.335 815.372 333.909C815.372 335.483 815.633 336.812 816.153 337.895C816.68 338.978 817.387 339.798 818.275 340.354C819.169 340.911 820.166 341.189 821.267 341.189C821.871 341.189 822.451 341.106 823.007 340.94C823.563 340.775 824.069 340.529 824.525 340.203C824.987 339.872 825.377 339.467 825.697 338.987C826.023 338.502 826.25 337.946 826.381 337.318H828.582C828.417 338.247 828.115 339.079 827.677 339.813C827.239 340.547 826.694 341.171 826.043 341.686C825.392 342.195 824.661 342.583 823.85 342.849C823.046 343.115 822.184 343.249 821.267 343.249C819.716 343.249 818.337 342.87 817.13 342.112C815.923 341.355 814.973 340.277 814.28 338.881C813.588 337.484 813.241 335.827 813.241 333.909C813.241 331.991 813.588 330.334 814.28 328.938C814.973 327.541 815.923 326.464 817.13 325.706C818.337 324.948 819.716 324.57 821.267 324.57C822.184 324.57 823.046 324.703 823.85 324.969C824.661 325.235 825.392 325.626 826.043 326.141C826.694 326.65 827.239 327.271 827.677 328.005C828.115 328.733 828.417 329.565 828.582 330.5ZM831.856 343V329.364H833.951V343H831.856ZM832.921 327.091C832.513 327.091 832.161 326.952 831.865 326.674C831.575 326.395 831.43 326.061 831.43 325.67C831.43 325.28 831.575 324.945 831.865 324.667C832.161 324.389 832.513 324.25 832.921 324.25C833.33 324.25 833.679 324.389 833.969 324.667C834.265 324.945 834.413 325.28 834.413 325.67C834.413 326.061 834.265 326.395 833.969 326.674C833.679 326.952 833.33 327.091 832.921 327.091ZM843.719 329.364V331.139H836.652V329.364H843.719ZM838.712 326.097H840.807V339.094C840.807 339.686 840.893 340.129 841.065 340.425C841.242 340.715 841.467 340.911 841.739 341.011C842.018 341.106 842.31 341.153 842.618 341.153C842.849 341.153 843.038 341.142 843.186 341.118C843.334 341.088 843.453 341.065 843.542 341.047L843.968 342.929C843.826 342.982 843.627 343.036 843.373 343.089C843.118 343.148 842.796 343.178 842.405 343.178C841.813 343.178 841.233 343.05 840.665 342.796C840.103 342.541 839.635 342.154 839.262 341.633C838.895 341.112 838.712 340.455 838.712 339.662V326.097ZM848.22 348.114C847.865 348.114 847.548 348.084 847.27 348.025C846.992 347.972 846.8 347.918 846.693 347.865L847.226 346.018C847.735 346.149 848.185 346.196 848.575 346.161C848.966 346.125 849.312 345.95 849.614 345.637C849.922 345.329 850.203 344.829 850.457 344.136L850.848 343.071L845.805 329.364H848.078L851.842 340.23H851.984L855.749 329.364H858.021L852.233 344.989C851.973 345.693 851.65 346.276 851.265 346.738C850.881 347.205 850.434 347.551 849.925 347.776C849.422 348.001 848.853 348.114 848.22 348.114Z" fill="black"/>
<path d="M365.202 462V443.818H371.558C372.825 443.818 373.869 444.037 374.692 444.475C375.515 444.907 376.127 445.49 376.53 446.224C376.932 446.952 377.134 447.76 377.134 448.648C377.134 449.429 376.994 450.074 376.716 450.583C376.444 451.092 376.083 451.495 375.633 451.79C375.189 452.086 374.707 452.305 374.186 452.447V452.625C374.742 452.661 375.302 452.856 375.864 453.211C376.426 453.566 376.897 454.075 377.276 454.738C377.654 455.401 377.844 456.212 377.844 457.17C377.844 458.082 377.637 458.902 377.222 459.63C376.808 460.358 376.154 460.935 375.26 461.361C374.367 461.787 373.204 462 371.771 462H365.202ZM367.403 460.047H371.771C373.21 460.047 374.23 459.769 374.834 459.212C375.444 458.65 375.749 457.969 375.749 457.17C375.749 456.555 375.592 455.987 375.278 455.466C374.964 454.939 374.518 454.519 373.938 454.205C373.357 453.886 372.671 453.726 371.878 453.726H367.403V460.047ZM367.403 451.808H371.487C372.15 451.808 372.748 451.678 373.281 451.418C373.819 451.157 374.245 450.79 374.559 450.317C374.879 449.843 375.038 449.287 375.038 448.648C375.038 447.849 374.76 447.171 374.204 446.615C373.647 446.052 372.766 445.771 371.558 445.771H367.403V451.808ZM386.717 462.284C385.486 462.284 384.406 461.991 383.477 461.405C382.553 460.819 381.831 460 381.311 458.946C380.796 457.893 380.538 456.661 380.538 455.253C380.538 453.832 380.796 452.592 381.311 451.533C381.831 450.474 382.553 449.651 383.477 449.065C384.406 448.479 385.486 448.186 386.717 448.186C387.948 448.186 389.025 448.479 389.949 449.065C390.878 449.651 391.6 450.474 392.115 451.533C392.636 452.592 392.896 453.832 392.896 455.253C392.896 456.661 392.636 457.893 392.115 458.946C391.6 460 390.878 460.819 389.949 461.405C389.025 461.991 387.948 462.284 386.717 462.284ZM386.717 460.402C387.652 460.402 388.422 460.162 389.025 459.683C389.629 459.203 390.076 458.573 390.366 457.792C390.656 457.011 390.801 456.164 390.801 455.253C390.801 454.341 390.656 453.492 390.366 452.705C390.076 451.918 389.629 451.281 389.025 450.796C388.422 450.311 387.652 450.068 386.717 450.068C385.782 450.068 385.013 450.311 384.409 450.796C383.805 451.281 383.358 451.918 383.068 452.705C382.778 453.492 382.633 454.341 382.633 455.253C382.633 456.164 382.778 457.011 383.068 457.792C383.358 458.573 383.805 459.203 384.409 459.683C385.013 460.162 385.782 460.402 386.717 460.402ZM395.704 462V460.402L403.445 450.459V450.317H395.952V448.364H406.144V450.033L398.616 459.905V460.047H406.393V462H395.704ZM414.946 462.284C413.633 462.284 412.499 461.994 411.546 461.414C410.599 460.828 409.868 460.011 409.353 458.964C408.844 457.91 408.59 456.685 408.59 455.288C408.59 453.892 408.844 452.661 409.353 451.595C409.868 450.524 410.584 449.689 411.502 449.092C412.425 448.488 413.502 448.186 414.733 448.186C415.444 448.186 416.145 448.304 416.837 448.541C417.53 448.778 418.16 449.163 418.728 449.695C419.297 450.222 419.749 450.92 420.087 451.79C420.424 452.661 420.593 453.732 420.593 455.004V455.892H410.081V454.081H418.462C418.462 453.312 418.308 452.625 418 452.021C417.699 451.418 417.267 450.941 416.704 450.592C416.148 450.243 415.491 450.068 414.733 450.068C413.899 450.068 413.177 450.275 412.567 450.69C411.964 451.098 411.499 451.631 411.173 452.288C410.848 452.945 410.685 453.649 410.685 454.401V455.608C410.685 456.638 410.863 457.511 411.218 458.227C411.579 458.937 412.079 459.479 412.718 459.852C413.357 460.219 414.1 460.402 414.946 460.402C415.497 460.402 415.994 460.325 416.438 460.171C416.888 460.011 417.275 459.775 417.601 459.461C417.926 459.141 418.178 458.745 418.356 458.271L420.38 458.839C420.167 459.526 419.809 460.13 419.305 460.651C418.802 461.165 418.181 461.568 417.441 461.858C416.701 462.142 415.87 462.284 414.946 462.284ZM423.78 462V448.364H425.804V450.494H425.982C426.266 449.766 426.724 449.201 427.358 448.799C427.991 448.39 428.752 448.186 429.639 448.186C430.539 448.186 431.288 448.39 431.885 448.799C432.489 449.201 432.96 449.766 433.297 450.494H433.439C433.788 449.79 434.312 449.231 435.01 448.816C435.709 448.396 436.546 448.186 437.523 448.186C438.742 448.186 439.739 448.568 440.515 449.331C441.29 450.089 441.678 451.27 441.678 452.874V462H439.582V452.874C439.582 451.867 439.307 451.148 438.757 450.716C438.206 450.284 437.558 450.068 436.813 450.068C435.854 450.068 435.111 450.358 434.584 450.938C434.057 451.512 433.794 452.24 433.794 453.122V462H431.663V452.661C431.663 451.885 431.412 451.261 430.909 450.787C430.406 450.308 429.758 450.068 428.965 450.068C428.42 450.068 427.911 450.213 427.438 450.503C426.97 450.793 426.591 451.196 426.301 451.711C426.017 452.22 425.875 452.808 425.875 453.477V462H423.78ZM449.521 462.32C448.657 462.32 447.873 462.157 447.169 461.831C446.464 461.5 445.905 461.023 445.491 460.402C445.076 459.775 444.869 459.017 444.869 458.129C444.869 457.348 445.023 456.715 445.331 456.229C445.639 455.738 446.05 455.353 446.565 455.075C447.08 454.797 447.648 454.59 448.269 454.454C448.897 454.312 449.527 454.199 450.16 454.116C450.989 454.01 451.661 453.93 452.176 453.877C452.697 453.818 453.075 453.72 453.312 453.584C453.555 453.448 453.676 453.211 453.676 452.874V452.803C453.676 451.927 453.436 451.246 452.957 450.761C452.483 450.275 451.764 450.033 450.8 450.033C449.799 450.033 449.015 450.252 448.447 450.69C447.879 451.128 447.479 451.595 447.248 452.092L445.26 451.382C445.615 450.554 446.088 449.908 446.68 449.447C447.278 448.979 447.929 448.654 448.633 448.47C449.344 448.281 450.042 448.186 450.729 448.186C451.167 448.186 451.67 448.239 452.238 448.346C452.812 448.446 453.365 448.657 453.898 448.976C454.437 449.296 454.883 449.778 455.239 450.423C455.594 451.068 455.771 451.933 455.771 453.016V462H453.676V460.153H453.57C453.427 460.449 453.191 460.766 452.859 461.103C452.528 461.441 452.087 461.728 451.536 461.964C450.986 462.201 450.314 462.32 449.521 462.32ZM449.841 460.438C450.669 460.438 451.368 460.275 451.936 459.949C452.51 459.624 452.942 459.203 453.232 458.689C453.528 458.174 453.676 457.632 453.676 457.064V455.146C453.587 455.253 453.392 455.35 453.09 455.439C452.794 455.522 452.451 455.596 452.06 455.661C451.676 455.72 451.3 455.774 450.933 455.821C450.572 455.862 450.279 455.898 450.054 455.928C449.509 455.999 449 456.114 448.527 456.274C448.059 456.428 447.681 456.661 447.391 456.975C447.106 457.283 446.964 457.703 446.964 458.236C446.964 458.964 447.234 459.514 447.772 459.887C448.317 460.254 449.006 460.438 449.841 460.438ZM461.691 453.797V462H459.595V448.364H461.619V450.494H461.797C462.117 449.802 462.602 449.246 463.253 448.825C463.904 448.399 464.744 448.186 465.774 448.186C466.698 448.186 467.506 448.375 468.198 448.754C468.89 449.127 469.429 449.695 469.814 450.459C470.198 451.216 470.391 452.175 470.391 453.335V462H468.296V453.477C468.296 452.406 468.017 451.571 467.461 450.974C466.905 450.37 466.141 450.068 465.171 450.068C464.502 450.068 463.904 450.213 463.377 450.503C462.856 450.793 462.445 451.216 462.143 451.773C461.841 452.329 461.691 453.004 461.691 453.797Z" fill="black"/>
<path d="M276.202 435V416.818H282.558C283.825 416.818 284.869 417.037 285.692 417.475C286.515 417.907 287.127 418.49 287.53 419.224C287.932 419.952 288.134 420.76 288.134 421.648C288.134 422.429 287.994 423.074 287.716 423.583C287.444 424.092 287.083 424.495 286.633 424.79C286.189 425.086 285.707 425.305 285.186 425.447V425.625C285.742 425.661 286.302 425.856 286.864 426.211C287.426 426.566 287.897 427.075 288.276 427.738C288.654 428.401 288.844 429.212 288.844 430.17C288.844 431.082 288.637 431.902 288.222 432.63C287.808 433.358 287.154 433.935 286.26 434.361C285.367 434.787 284.204 435 282.771 435H276.202ZM278.403 433.047H282.771C284.21 433.047 285.23 432.769 285.834 432.212C286.444 431.65 286.749 430.969 286.749 430.17C286.749 429.555 286.592 428.987 286.278 428.466C285.964 427.939 285.518 427.519 284.938 427.205C284.357 426.886 283.671 426.726 282.878 426.726H278.403V433.047ZM278.403 424.808H282.487C283.15 424.808 283.748 424.678 284.281 424.418C284.819 424.157 285.245 423.79 285.559 423.317C285.879 422.843 286.038 422.287 286.038 421.648C286.038 420.849 285.76 420.171 285.204 419.615C284.647 419.052 283.766 418.771 282.558 418.771H278.403V424.808ZM300.771 429.425V421.364H302.866V435H300.771V432.692H300.629C300.309 433.384 299.812 433.973 299.138 434.458C298.463 434.938 297.611 435.178 296.581 435.178C295.729 435.178 294.971 434.991 294.308 434.618C293.645 434.239 293.124 433.671 292.746 432.914C292.367 432.15 292.177 431.188 292.177 430.028V421.364H294.273V429.886C294.273 430.881 294.551 431.674 295.107 432.266C295.669 432.857 296.385 433.153 297.256 433.153C297.776 433.153 298.306 433.02 298.845 432.754C299.389 432.488 299.845 432.079 300.212 431.529C300.585 430.978 300.771 430.277 300.771 429.425ZM312.634 421.364V423.139H305.567V421.364H312.634ZM307.627 418.097H309.722V431.094C309.722 431.686 309.808 432.129 309.98 432.425C310.157 432.715 310.382 432.911 310.654 433.011C310.933 433.106 311.226 433.153 311.533 433.153C311.764 433.153 311.954 433.142 312.101 433.118C312.249 433.088 312.368 433.065 312.457 433.047L312.883 434.929C312.741 434.982 312.542 435.036 312.288 435.089C312.033 435.148 311.711 435.178 311.32 435.178C310.728 435.178 310.148 435.05 309.58 434.796C309.018 434.541 308.55 434.154 308.177 433.633C307.811 433.112 307.627 432.455 307.627 431.662V418.097ZM321.716 421.364V423.139H314.649V421.364H321.716ZM316.709 418.097H318.804V431.094C318.804 431.686 318.89 432.129 319.062 432.425C319.239 432.715 319.464 432.911 319.736 433.011C320.015 433.106 320.308 433.153 320.615 433.153C320.846 433.153 321.036 433.142 321.184 433.118C321.331 433.088 321.45 433.065 321.539 433.047L321.965 434.929C321.823 434.982 321.624 435.036 321.37 435.089C321.115 435.148 320.793 435.178 320.402 435.178C319.81 435.178 319.23 435.05 318.662 434.796C318.1 434.541 317.632 434.154 317.259 433.633C316.893 433.112 316.709 432.455 316.709 431.662V418.097ZM330.439 435.284C329.125 435.284 327.991 434.994 327.038 434.414C326.091 433.828 325.361 433.011 324.846 431.964C324.337 430.91 324.082 429.685 324.082 428.288C324.082 426.892 324.337 425.661 324.846 424.595C325.361 423.524 326.077 422.689 326.994 422.092C327.917 421.488 328.995 421.186 330.226 421.186C330.936 421.186 331.637 421.304 332.33 421.541C333.022 421.778 333.652 422.163 334.221 422.695C334.789 423.222 335.242 423.92 335.579 424.79C335.916 425.661 336.085 426.732 336.085 428.004V428.892H325.574V427.081H333.954C333.954 426.312 333.8 425.625 333.493 425.021C333.191 424.418 332.759 423.941 332.196 423.592C331.64 423.243 330.983 423.068 330.226 423.068C329.391 423.068 328.669 423.275 328.059 423.69C327.456 424.098 326.991 424.631 326.666 425.288C326.34 425.945 326.177 426.649 326.177 427.401V428.608C326.177 429.638 326.355 430.511 326.71 431.227C327.071 431.937 327.571 432.479 328.21 432.852C328.85 433.219 329.592 433.402 330.439 433.402C330.989 433.402 331.486 433.325 331.93 433.171C332.38 433.011 332.768 432.775 333.093 432.461C333.419 432.141 333.67 431.745 333.848 431.271L335.872 431.839C335.659 432.526 335.301 433.13 334.798 433.651C334.295 434.165 333.673 434.568 332.933 434.858C332.194 435.142 331.362 435.284 330.439 435.284Z" fill="black"/>
<path d="M371.631 220.5C371.435 219.902 371.178 219.367 370.858 218.893C370.545 218.414 370.169 218.005 369.731 217.668C369.299 217.331 368.808 217.073 368.257 216.896C367.707 216.718 367.103 216.629 366.446 216.629C365.369 216.629 364.389 216.907 363.507 217.464C362.626 218.02 361.924 218.84 361.403 219.923C360.883 221.006 360.622 222.335 360.622 223.909C360.622 225.483 360.886 226.812 361.412 227.895C361.939 228.978 362.652 229.798 363.552 230.354C364.451 230.911 365.464 231.189 366.588 231.189C367.63 231.189 368.547 230.967 369.34 230.523C370.139 230.073 370.761 229.44 371.205 228.623C371.654 227.801 371.879 226.833 371.879 225.72L372.554 225.862H367.085V223.909H374.01V225.862C374.01 227.36 373.69 228.662 373.051 229.768C372.418 230.875 371.542 231.733 370.423 232.343C369.311 232.947 368.032 233.249 366.588 233.249C364.978 233.249 363.564 232.87 362.344 232.112C361.131 231.355 360.184 230.277 359.504 228.881C358.829 227.484 358.491 225.827 358.491 223.909C358.491 222.471 358.684 221.178 359.069 220.029C359.459 218.875 360.01 217.893 360.72 217.082C361.43 216.271 362.27 215.65 363.241 215.218C364.212 214.786 365.28 214.57 366.446 214.57C367.405 214.57 368.299 214.715 369.127 215.005C369.962 215.289 370.704 215.694 371.355 216.221C372.012 216.742 372.56 217.366 372.998 218.094C373.436 218.816 373.738 219.618 373.903 220.5H371.631ZM377.497 233V219.364H379.521V221.423H379.663C379.911 220.749 380.361 220.201 381.012 219.781C381.663 219.361 382.397 219.151 383.214 219.151C383.368 219.151 383.56 219.154 383.791 219.159C384.022 219.165 384.197 219.174 384.315 219.186V221.317C384.244 221.299 384.081 221.272 383.827 221.237C383.578 221.195 383.315 221.175 383.036 221.175C382.374 221.175 381.782 221.314 381.261 221.592C380.746 221.864 380.338 222.243 380.036 222.728C379.74 223.208 379.592 223.755 379.592 224.371V233H377.497ZM392.101 233.284C390.787 233.284 389.653 232.994 388.701 232.414C387.754 231.828 387.023 231.011 386.508 229.964C385.999 228.91 385.744 227.685 385.744 226.288C385.744 224.892 385.999 223.661 386.508 222.595C387.023 221.524 387.739 220.689 388.656 220.092C389.579 219.488 390.657 219.186 391.888 219.186C392.598 219.186 393.299 219.304 393.992 219.541C394.684 219.778 395.315 220.163 395.883 220.695C396.451 221.222 396.904 221.92 397.241 222.79C397.578 223.661 397.747 224.732 397.747 226.004V226.892H387.236V225.081H395.616C395.616 224.312 395.463 223.625 395.155 223.021C394.853 222.418 394.421 221.941 393.859 221.592C393.302 221.243 392.645 221.068 391.888 221.068C391.053 221.068 390.331 221.275 389.722 221.69C389.118 222.098 388.653 222.631 388.328 223.288C388.002 223.945 387.839 224.649 387.839 225.401V226.608C387.839 227.638 388.017 228.511 388.372 229.227C388.733 229.937 389.233 230.479 389.872 230.852C390.512 231.219 391.254 231.402 392.101 231.402C392.651 231.402 393.148 231.325 393.592 231.171C394.042 231.011 394.43 230.775 394.755 230.461C395.081 230.141 395.332 229.745 395.51 229.271L397.534 229.839C397.321 230.526 396.963 231.13 396.46 231.651C395.957 232.165 395.335 232.568 394.595 232.858C393.856 233.142 393.024 233.284 392.101 233.284ZM404.947 233.32C404.083 233.32 403.299 233.157 402.594 232.831C401.89 232.5 401.331 232.023 400.916 231.402C400.502 230.775 400.295 230.017 400.295 229.129C400.295 228.348 400.449 227.715 400.757 227.229C401.064 226.738 401.476 226.353 401.991 226.075C402.506 225.797 403.074 225.59 403.695 225.454C404.323 225.312 404.953 225.199 405.586 225.116C406.415 225.01 407.087 224.93 407.601 224.877C408.122 224.818 408.501 224.72 408.738 224.584C408.98 224.448 409.102 224.211 409.102 223.874V223.803C409.102 222.927 408.862 222.246 408.383 221.761C407.909 221.275 407.19 221.033 406.225 221.033C405.225 221.033 404.441 221.252 403.873 221.69C403.305 222.128 402.905 222.595 402.674 223.092L400.686 222.382C401.041 221.554 401.514 220.908 402.106 220.447C402.704 219.979 403.355 219.654 404.059 219.47C404.769 219.281 405.468 219.186 406.154 219.186C406.592 219.186 407.095 219.239 407.664 219.346C408.238 219.446 408.791 219.657 409.324 219.976C409.862 220.296 410.309 220.778 410.664 221.423C411.019 222.068 411.197 222.933 411.197 224.016V233H409.102V231.153H408.995C408.853 231.449 408.617 231.766 408.285 232.103C407.954 232.441 407.513 232.728 406.962 232.964C406.412 233.201 405.74 233.32 404.947 233.32ZM405.267 231.438C406.095 231.438 406.794 231.275 407.362 230.949C407.936 230.624 408.368 230.203 408.658 229.689C408.954 229.174 409.102 228.632 409.102 228.064V226.146C409.013 226.253 408.818 226.35 408.516 226.439C408.22 226.522 407.877 226.596 407.486 226.661C407.101 226.72 406.726 226.774 406.359 226.821C405.998 226.862 405.705 226.898 405.48 226.928C404.935 226.999 404.426 227.114 403.953 227.274C403.485 227.428 403.106 227.661 402.816 227.975C402.532 228.283 402.39 228.703 402.39 229.236C402.39 229.964 402.659 230.514 403.198 230.887C403.743 231.254 404.432 231.438 405.267 231.438ZM420.952 219.364V221.139H413.885V219.364H420.952ZM415.944 216.097H418.04V229.094C418.04 229.686 418.125 230.129 418.297 230.425C418.475 230.715 418.7 230.911 418.972 231.011C419.25 231.106 419.543 231.153 419.851 231.153C420.081 231.153 420.271 231.142 420.419 231.118C420.567 231.088 420.685 231.065 420.774 231.047L421.2 232.929C421.058 232.982 420.86 233.036 420.605 233.089C420.351 233.148 420.028 233.178 419.638 233.178C419.046 233.178 418.466 233.05 417.898 232.796C417.335 232.541 416.868 232.154 416.495 231.633C416.128 231.112 415.944 230.455 415.944 229.662V216.097ZM431.419 233V214.818H442.32V216.771H433.62V222.915H441.504V224.868H433.62V233H431.419ZM449.82 233.32C448.956 233.32 448.172 233.157 447.467 232.831C446.763 232.5 446.204 232.023 445.79 231.402C445.375 230.775 445.168 230.017 445.168 229.129C445.168 228.348 445.322 227.715 445.63 227.229C445.937 226.738 446.349 226.353 446.864 226.075C447.379 225.797 447.947 225.59 448.568 225.454C449.196 225.312 449.826 225.199 450.459 225.116C451.288 225.01 451.96 224.93 452.475 224.877C452.995 224.818 453.374 224.72 453.611 224.584C453.854 224.448 453.975 224.211 453.975 223.874V223.803C453.975 222.927 453.735 222.246 453.256 221.761C452.782 221.275 452.063 221.033 451.098 221.033C450.098 221.033 449.314 221.252 448.746 221.69C448.178 222.128 447.778 222.595 447.547 223.092L445.559 222.382C445.914 221.554 446.387 220.908 446.979 220.447C447.577 219.979 448.228 219.654 448.932 219.47C449.642 219.281 450.341 219.186 451.027 219.186C451.465 219.186 451.968 219.239 452.537 219.346C453.111 219.446 453.664 219.657 454.197 219.976C454.735 220.296 455.182 220.778 455.537 221.423C455.892 222.068 456.07 222.933 456.07 224.016V233H453.975V231.153H453.868C453.726 231.449 453.49 231.766 453.158 232.103C452.827 232.441 452.386 232.728 451.835 232.964C451.285 233.201 450.613 233.32 449.82 233.32ZM450.14 231.438C450.968 231.438 451.667 231.275 452.235 230.949C452.809 230.624 453.241 230.203 453.531 229.689C453.827 229.174 453.975 228.632 453.975 228.064V226.146C453.886 226.253 453.691 226.35 453.389 226.439C453.093 226.522 452.75 226.596 452.359 226.661C451.974 226.72 451.599 226.774 451.232 226.821C450.871 226.862 450.578 226.898 450.353 226.928C449.808 226.999 449.299 227.114 448.826 227.274C448.358 227.428 447.979 227.661 447.689 227.975C447.405 228.283 447.263 228.703 447.263 229.236C447.263 229.964 447.533 230.514 448.071 230.887C448.616 231.254 449.305 231.438 450.14 231.438ZM461.989 214.818V233H459.894V214.818H461.989ZM467.922 214.818V233H465.827V214.818H467.922ZM481.419 222.418L479.536 222.95C479.418 222.637 479.243 222.332 479.013 222.036C478.788 221.734 478.48 221.485 478.089 221.29C477.699 221.095 477.199 220.997 476.589 220.997C475.754 220.997 475.059 221.19 474.503 221.574C473.952 221.953 473.677 222.435 473.677 223.021C473.677 223.542 473.866 223.953 474.245 224.255C474.624 224.557 475.216 224.809 476.021 225.01L478.045 225.507C479.264 225.803 480.173 226.256 480.77 226.865C481.368 227.469 481.667 228.247 481.667 229.2C481.667 229.982 481.442 230.68 480.992 231.295C480.548 231.911 479.927 232.396 479.128 232.751C478.329 233.107 477.4 233.284 476.34 233.284C474.95 233.284 473.798 232.982 472.887 232.379C471.975 231.775 471.398 230.893 471.156 229.733L473.144 229.236C473.334 229.97 473.692 230.52 474.219 230.887C474.751 231.254 475.447 231.438 476.305 231.438C477.281 231.438 478.057 231.23 478.631 230.816C479.211 230.396 479.501 229.893 479.501 229.307C479.501 228.833 479.335 228.437 479.004 228.117C478.672 227.792 478.163 227.549 477.477 227.389L475.204 226.857C473.955 226.561 473.038 226.102 472.452 225.48C471.872 224.853 471.582 224.069 471.582 223.128C471.582 222.358 471.798 221.678 472.23 221.086C472.668 220.494 473.263 220.029 474.014 219.692C474.772 219.355 475.63 219.186 476.589 219.186C477.938 219.186 478.998 219.482 479.767 220.074C480.543 220.666 481.093 221.447 481.419 222.418Z" fill="black"/>
<path d="M477.202 166V147.818H479.403V155.915H489.098V147.818H491.3V166H489.098V157.868H479.403V166H477.202ZM499.436 166.32C498.572 166.32 497.788 166.157 497.084 165.831C496.379 165.5 495.82 165.023 495.406 164.402C494.991 163.775 494.784 163.017 494.784 162.129C494.784 161.348 494.938 160.715 495.246 160.229C495.554 159.738 495.965 159.353 496.48 159.075C496.995 158.797 497.563 158.59 498.184 158.454C498.812 158.312 499.442 158.199 500.075 158.116C500.904 158.01 501.576 157.93 502.091 157.877C502.612 157.818 502.99 157.72 503.227 157.584C503.47 157.448 503.591 157.211 503.591 156.874V156.803C503.591 155.927 503.351 155.246 502.872 154.761C502.398 154.275 501.679 154.033 500.715 154.033C499.714 154.033 498.93 154.252 498.362 154.69C497.794 155.128 497.394 155.595 497.164 156.092L495.175 155.382C495.53 154.554 496.003 153.908 496.595 153.447C497.193 152.979 497.844 152.654 498.548 152.47C499.259 152.281 499.957 152.186 500.644 152.186C501.082 152.186 501.585 152.239 502.153 152.346C502.727 152.446 503.28 152.657 503.813 152.976C504.352 153.296 504.798 153.778 505.154 154.423C505.509 155.068 505.686 155.933 505.686 157.016V166H503.591V164.153H503.485C503.343 164.449 503.106 164.766 502.774 165.103C502.443 165.441 502.002 165.728 501.452 165.964C500.901 166.201 500.229 166.32 499.436 166.32ZM499.756 164.438C500.584 164.438 501.283 164.275 501.851 163.949C502.425 163.624 502.857 163.203 503.147 162.689C503.443 162.174 503.591 161.632 503.591 161.064V159.146C503.502 159.253 503.307 159.35 503.005 159.439C502.709 159.522 502.366 159.596 501.975 159.661C501.591 159.72 501.215 159.774 500.848 159.821C500.487 159.862 500.194 159.898 499.969 159.928C499.424 159.999 498.915 160.114 498.442 160.274C497.974 160.428 497.596 160.661 497.306 160.975C497.021 161.283 496.879 161.703 496.879 162.236C496.879 162.964 497.149 163.514 497.687 163.887C498.232 164.254 498.921 164.438 499.756 164.438ZM520.173 152.364L515.13 166H512.999L507.957 152.364H510.229L513.994 163.23H514.136L517.9 152.364H520.173ZM522.938 166V152.364H524.962V154.423H525.104C525.353 153.749 525.803 153.201 526.454 152.781C527.105 152.361 527.839 152.151 528.655 152.151C528.809 152.151 529.002 152.154 529.233 152.159C529.463 152.165 529.638 152.174 529.756 152.186V154.317C529.685 154.299 529.523 154.272 529.268 154.237C529.019 154.195 528.756 154.175 528.478 154.175C527.815 154.175 527.223 154.314 526.702 154.592C526.187 154.864 525.779 155.243 525.477 155.728C525.181 156.208 525.033 156.755 525.033 157.371V166H522.938ZM537.542 166.284C536.228 166.284 535.095 165.994 534.142 165.414C533.195 164.828 532.464 164.011 531.949 162.964C531.44 161.91 531.186 160.685 531.186 159.288C531.186 157.892 531.44 156.661 531.949 155.595C532.464 154.524 533.18 153.689 534.098 153.092C535.021 152.488 536.098 152.186 537.329 152.186C538.039 152.186 538.741 152.304 539.433 152.541C540.126 152.778 540.756 153.163 541.324 153.695C541.892 154.222 542.345 154.92 542.682 155.79C543.02 156.661 543.188 157.732 543.188 159.004V159.892H532.677V158.081H541.058C541.058 157.312 540.904 156.625 540.596 156.021C540.294 155.418 539.862 154.941 539.3 154.592C538.744 154.243 538.087 154.068 537.329 154.068C536.495 154.068 535.773 154.275 535.163 154.69C534.559 155.098 534.095 155.631 533.769 156.288C533.444 156.945 533.281 157.649 533.281 158.401V159.608C533.281 160.638 533.458 161.511 533.813 162.227C534.175 162.937 534.675 163.479 535.314 163.852C535.953 164.219 536.696 164.402 537.542 164.402C538.093 164.402 538.59 164.325 539.034 164.171C539.483 164.011 539.871 163.775 540.197 163.461C540.522 163.141 540.774 162.745 540.951 162.271L542.975 162.839C542.762 163.526 542.404 164.13 541.901 164.651C541.398 165.165 540.777 165.568 540.037 165.858C539.297 166.142 538.465 166.284 537.542 166.284Z" fill="black"/>
<path d="M150.202 273.818H152.83L159.009 288.911H159.222L165.401 273.818H168.028V292H165.969V278.186H165.791L160.109 292H158.121L152.439 278.186H152.261V292H150.202V273.818ZM172.159 292V278.364H174.254V292H172.159ZM173.224 276.091C172.816 276.091 172.464 275.952 172.168 275.674C171.878 275.395 171.733 275.061 171.733 274.67C171.733 274.28 171.878 273.945 172.168 273.667C172.464 273.389 172.816 273.25 173.224 273.25C173.633 273.25 173.982 273.389 174.272 273.667C174.568 273.945 174.716 274.28 174.716 274.67C174.716 275.061 174.568 275.395 174.272 275.674C173.982 275.952 173.633 276.091 173.224 276.091ZM187.751 281.418L185.868 281.95C185.75 281.637 185.575 281.332 185.345 281.036C185.12 280.734 184.812 280.485 184.421 280.29C184.031 280.095 183.531 279.997 182.921 279.997C182.086 279.997 181.391 280.19 180.835 280.574C180.284 280.953 180.009 281.435 180.009 282.021C180.009 282.542 180.198 282.953 180.577 283.255C180.956 283.557 181.548 283.809 182.353 284.01L184.377 284.507C185.596 284.803 186.505 285.256 187.102 285.865C187.7 286.469 187.999 287.247 187.999 288.2C187.999 288.982 187.774 289.68 187.324 290.295C186.881 290.911 186.259 291.396 185.46 291.751C184.661 292.107 183.732 292.284 182.672 292.284C181.282 292.284 180.13 291.982 179.219 291.379C178.307 290.775 177.73 289.893 177.488 288.733L179.476 288.236C179.666 288.97 180.024 289.52 180.551 289.887C181.083 290.254 181.779 290.438 182.637 290.438C183.613 290.438 184.389 290.23 184.963 289.816C185.543 289.396 185.833 288.893 185.833 288.307C185.833 287.833 185.667 287.437 185.336 287.117C185.004 286.792 184.495 286.549 183.809 286.389L181.536 285.857C180.287 285.561 179.37 285.102 178.784 284.48C178.204 283.853 177.914 283.069 177.914 282.128C177.914 281.358 178.13 280.678 178.562 280.086C179 279.494 179.595 279.029 180.346 278.692C181.104 278.355 181.962 278.186 182.921 278.186C184.27 278.186 185.33 278.482 186.099 279.074C186.875 279.666 187.425 280.447 187.751 281.418ZM200.812 281.418L198.93 281.95C198.812 281.637 198.637 281.332 198.406 281.036C198.181 280.734 197.873 280.485 197.483 280.29C197.092 280.095 196.592 279.997 195.983 279.997C195.148 279.997 194.453 280.19 193.896 280.574C193.346 280.953 193.071 281.435 193.071 282.021C193.071 282.542 193.26 282.953 193.639 283.255C194.018 283.557 194.609 283.809 195.414 284.01L197.438 284.507C198.658 284.803 199.566 285.256 200.164 285.865C200.762 286.469 201.061 287.247 201.061 288.2C201.061 288.982 200.836 289.68 200.386 290.295C199.942 290.911 199.321 291.396 198.522 291.751C197.723 292.107 196.793 292.284 195.734 292.284C194.343 292.284 193.192 291.982 192.28 291.379C191.369 290.775 190.792 289.893 190.549 288.733L192.538 288.236C192.727 288.97 193.085 289.52 193.612 289.887C194.145 290.254 194.84 290.438 195.698 290.438C196.675 290.438 197.45 290.23 198.024 289.816C198.604 289.396 198.894 288.893 198.894 288.307C198.894 287.833 198.729 287.437 198.397 287.117C198.066 286.792 197.557 286.549 196.87 286.389L194.598 285.857C193.349 285.561 192.431 285.102 191.845 284.48C191.265 283.853 190.975 283.069 190.975 282.128C190.975 281.358 191.191 280.678 191.623 280.086C192.061 279.494 192.656 279.029 193.408 278.692C194.166 278.355 195.024 278.186 195.983 278.186C197.332 278.186 198.391 278.482 199.161 279.074C199.936 279.666 200.487 280.447 200.812 281.418ZM209.754 292.284C208.523 292.284 207.443 291.991 206.514 291.405C205.591 290.819 204.868 290 204.348 288.946C203.833 287.893 203.575 286.661 203.575 285.253C203.575 283.832 203.833 282.592 204.348 281.533C204.868 280.474 205.591 279.651 206.514 279.065C207.443 278.479 208.523 278.186 209.754 278.186C210.985 278.186 212.063 278.479 212.986 279.065C213.915 279.651 214.637 280.474 215.152 281.533C215.673 282.592 215.933 283.832 215.933 285.253C215.933 286.661 215.673 287.893 215.152 288.946C214.637 290 213.915 290.819 212.986 291.405C212.063 291.991 210.985 292.284 209.754 292.284ZM209.754 290.402C210.689 290.402 211.459 290.162 212.062 289.683C212.666 289.203 213.113 288.573 213.403 287.792C213.693 287.011 213.838 286.164 213.838 285.253C213.838 284.341 213.693 283.492 213.403 282.705C213.113 281.918 212.666 281.281 212.062 280.796C211.459 280.311 210.689 280.068 209.754 280.068C208.819 280.068 208.05 280.311 207.446 280.796C206.842 281.281 206.395 281.918 206.105 282.705C205.815 283.492 205.67 284.341 205.67 285.253C205.67 286.164 205.815 287.011 206.105 287.792C206.395 288.573 206.842 289.203 207.446 289.683C208.05 290.162 208.819 290.402 209.754 290.402ZM227.725 286.425V278.364H229.82V292H227.725V289.692H227.583C227.264 290.384 226.766 290.973 226.092 291.458C225.417 291.938 224.565 292.178 223.535 292.178C222.683 292.178 221.925 291.991 221.262 291.618C220.599 291.239 220.078 290.671 219.7 289.914C219.321 289.15 219.131 288.188 219.131 287.028V278.364H221.227V286.886C221.227 287.881 221.505 288.674 222.061 289.266C222.623 289.857 223.34 290.153 224.21 290.153C224.73 290.153 225.26 290.02 225.799 289.754C226.343 289.488 226.799 289.079 227.166 288.529C227.539 287.978 227.725 287.277 227.725 286.425ZM235.753 273.818V292H233.658V273.818H235.753ZM243.603 292.32C242.739 292.32 241.955 292.157 241.251 291.831C240.546 291.5 239.987 291.023 239.573 290.402C239.158 289.775 238.951 289.017 238.951 288.129C238.951 287.348 239.105 286.715 239.413 286.229C239.721 285.738 240.132 285.353 240.647 285.075C241.162 284.797 241.73 284.59 242.351 284.454C242.979 284.312 243.609 284.199 244.242 284.116C245.071 284.01 245.743 283.93 246.258 283.877C246.779 283.818 247.157 283.72 247.394 283.584C247.637 283.448 247.758 283.211 247.758 282.874V282.803C247.758 281.927 247.518 281.246 247.039 280.761C246.565 280.275 245.846 280.033 244.882 280.033C243.881 280.033 243.097 280.252 242.529 280.69C241.961 281.128 241.561 281.595 241.331 282.092L239.342 281.382C239.697 280.554 240.17 279.908 240.762 279.447C241.36 278.979 242.011 278.654 242.715 278.47C243.426 278.281 244.124 278.186 244.811 278.186C245.249 278.186 245.752 278.239 246.32 278.346C246.894 278.446 247.447 278.657 247.98 278.976C248.519 279.296 248.965 279.778 249.321 280.423C249.676 281.068 249.853 281.933 249.853 283.016V292H247.758V290.153H247.652C247.509 290.449 247.273 290.766 246.941 291.103C246.61 291.441 246.169 291.728 245.619 291.964C245.068 292.201 244.396 292.32 243.603 292.32ZM243.923 290.438C244.751 290.438 245.45 290.275 246.018 289.949C246.592 289.624 247.024 289.203 247.314 288.689C247.61 288.174 247.758 287.632 247.758 287.064V285.146C247.669 285.253 247.474 285.35 247.172 285.439C246.876 285.522 246.533 285.596 246.142 285.661C245.758 285.72 245.382 285.774 245.015 285.821C244.654 285.862 244.361 285.898 244.136 285.928C243.591 285.999 243.082 286.114 242.609 286.274C242.141 286.428 241.763 286.661 241.473 286.975C241.188 287.283 241.046 287.703 241.046 288.236C241.046 288.964 241.316 289.514 241.854 289.887C242.399 290.254 243.088 290.438 243.923 290.438Z" fill="black"/>
<circle cx="592.511" cy="423.511" r="9.01136" fill="#FFE587" stroke="black"/>
<circle cx="782.511" cy="360.511" r="9.01136" fill="#FFE587" stroke="black"/>
<circle cx="411.511" cy="433.511" r="9.01136" fill="#FFE587" stroke="black"/>
<circle cx="307.511" cy="401.511" r="9.01136" fill="#FFE587" stroke="black"/>
<circle cx="391.511" cy="246.511" r="9.01136" fill="#FFE587" stroke="black"/>
<circle cx="507.511" cy="132.511" r="9.01136" fill="#FFE587" stroke="black"/>
<circle cx="199.511" cy="309.511" r="9.01136" fill="#FFE587" stroke="black"/>
<path d="M482.662 46.4347H479.474C479.384 45.9119 479.216 45.4489 478.972 45.0455C478.727 44.6364 478.423 44.2898 478.06 44.0057C477.696 43.7216 477.281 43.5085 476.815 43.3665C476.355 43.2188 475.858 43.1449 475.324 43.1449C474.375 43.1449 473.534 43.3835 472.801 43.8608C472.068 44.3324 471.494 45.0256 471.08 45.9403C470.665 46.8494 470.457 47.9602 470.457 49.2727C470.457 50.608 470.665 51.733 471.08 52.6477C471.5 53.5568 472.074 54.2443 472.801 54.7102C473.534 55.1705 474.372 55.4006 475.315 55.4006C475.838 55.4006 476.327 55.3324 476.781 55.196C477.241 55.054 477.653 54.8466 478.017 54.5739C478.386 54.3011 478.696 53.9659 478.946 53.5682C479.202 53.1705 479.378 52.7159 479.474 52.2045L482.662 52.2216C482.543 53.0511 482.284 53.8295 481.886 54.5568C481.494 55.2841 480.98 55.9261 480.344 56.483C479.707 57.0341 478.963 57.4659 478.111 57.7784C477.259 58.0852 476.313 58.2386 475.273 58.2386C473.739 58.2386 472.369 57.8835 471.165 57.1733C469.96 56.4631 469.011 55.4375 468.318 54.0966C467.625 52.7557 467.278 51.1477 467.278 49.2727C467.278 47.392 467.628 45.7841 468.327 44.4489C469.026 43.108 469.977 42.0824 471.182 41.3722C472.386 40.6619 473.75 40.3068 475.273 40.3068C476.244 40.3068 477.148 40.4432 477.983 40.7159C478.818 40.9886 479.563 41.3892 480.216 41.9176C480.869 42.4403 481.406 43.0824 481.827 43.8438C482.253 44.5994 482.531 45.4631 482.662 46.4347ZM489.188 58.2642C488.359 58.2642 487.612 58.1165 486.947 57.821C486.288 57.5199 485.765 57.0767 485.379 56.4915C484.998 55.9062 484.808 55.1847 484.808 54.3267C484.808 53.5881 484.944 52.9773 485.217 52.4943C485.489 52.0114 485.862 51.625 486.333 51.3352C486.805 51.0455 487.336 50.8267 487.927 50.679C488.523 50.5256 489.14 50.4148 489.776 50.3466C490.543 50.267 491.165 50.196 491.643 50.1335C492.12 50.0653 492.467 49.9631 492.683 49.8267C492.904 49.6847 493.015 49.4659 493.015 49.1705V49.1193C493.015 48.4773 492.825 47.9801 492.444 47.6278C492.063 47.2756 491.515 47.0994 490.799 47.0994C490.043 47.0994 489.444 47.2642 489.001 47.5938C488.563 47.9233 488.268 48.3125 488.114 48.7614L485.234 48.3523C485.461 47.5568 485.836 46.892 486.359 46.358C486.881 45.8182 487.521 45.4148 488.276 45.1477C489.032 44.875 489.867 44.7386 490.782 44.7386C491.413 44.7386 492.04 44.8125 492.665 44.9602C493.29 45.108 493.862 45.3523 494.379 45.6932C494.896 46.0284 495.31 46.4858 495.623 47.0653C495.941 47.6449 496.1 48.3693 496.1 49.2386V58H493.134V56.2017H493.032C492.844 56.5653 492.58 56.9062 492.239 57.2244C491.904 57.5369 491.481 57.7898 490.969 57.983C490.464 58.1705 489.87 58.2642 489.188 58.2642ZM489.989 55.9972C490.609 55.9972 491.146 55.875 491.6 55.6307C492.055 55.3807 492.404 55.0511 492.648 54.642C492.898 54.233 493.023 53.7869 493.023 53.304V51.7614C492.927 51.8409 492.762 51.9148 492.529 51.983C492.302 52.0511 492.046 52.1108 491.762 52.1619C491.478 52.2131 491.197 52.2585 490.918 52.2983C490.64 52.3381 490.398 52.3722 490.194 52.4006C489.734 52.4631 489.322 52.5653 488.958 52.7074C488.594 52.8494 488.308 53.0483 488.097 53.304C487.887 53.554 487.782 53.8778 487.782 54.2756C487.782 54.8438 487.989 55.2727 488.404 55.5625C488.819 55.8523 489.347 55.9972 489.989 55.9972ZM502.288 50.3295V58H499.202V44.9091H502.151V47.1335H502.305C502.606 46.4006 503.086 45.8182 503.745 45.3864C504.41 44.9545 505.231 44.7386 506.208 44.7386C507.112 44.7386 507.898 44.9318 508.569 45.3182C509.245 45.7045 509.768 46.2642 510.137 46.9972C510.512 47.7301 510.697 48.6193 510.691 49.6648V58H507.606V50.142C507.606 49.267 507.379 48.5824 506.924 48.0881C506.475 47.5937 505.853 47.3466 505.058 47.3466C504.518 47.3466 504.038 47.4659 503.617 47.7045C503.202 47.9375 502.876 48.2756 502.637 48.7188C502.404 49.1619 502.288 49.6989 502.288 50.3295ZM517.594 58.2642C516.765 58.2642 516.018 58.1165 515.353 57.821C514.694 57.5199 514.171 57.0767 513.785 56.4915C513.404 55.9062 513.214 55.1847 513.214 54.3267C513.214 53.5881 513.35 52.9773 513.623 52.4943C513.896 52.0114 514.268 51.625 514.739 51.3352C515.211 51.0455 515.742 50.8267 516.333 50.679C516.93 50.5256 517.546 50.4148 518.183 50.3466C518.95 50.267 519.572 50.196 520.049 50.1335C520.526 50.0653 520.873 49.9631 521.089 49.8267C521.31 49.6847 521.421 49.4659 521.421 49.1705V49.1193C521.421 48.4773 521.231 47.9801 520.85 47.6278C520.469 47.2756 519.921 47.0994 519.205 47.0994C518.45 47.0994 517.85 47.2642 517.407 47.5938C516.969 47.9233 516.674 48.3125 516.521 48.7614L513.64 48.3523C513.867 47.5568 514.242 46.892 514.765 46.358C515.288 45.8182 515.927 45.4148 516.683 45.1477C517.438 44.875 518.273 44.7386 519.188 44.7386C519.819 44.7386 520.447 44.8125 521.072 44.9602C521.697 45.108 522.268 45.3523 522.785 45.6932C523.302 46.0284 523.717 46.4858 524.029 47.0653C524.347 47.6449 524.506 48.3693 524.506 49.2386V58H521.54V56.2017H521.438C521.251 56.5653 520.987 56.9062 520.646 57.2244C520.31 57.5369 519.887 57.7898 519.376 57.983C518.87 58.1705 518.276 58.2642 517.594 58.2642ZM518.396 55.9972C519.015 55.9972 519.552 55.875 520.006 55.6307C520.461 55.3807 520.81 55.0511 521.055 54.642C521.305 54.233 521.43 53.7869 521.43 53.304V51.7614C521.333 51.8409 521.168 51.9148 520.935 51.983C520.708 52.0511 520.452 52.1108 520.168 52.1619C519.884 52.2131 519.603 52.2585 519.325 52.2983C519.046 52.3381 518.805 52.3722 518.6 52.4006C518.14 52.4631 517.728 52.5653 517.364 52.7074C517.001 52.8494 516.714 53.0483 516.504 53.304C516.293 53.554 516.188 53.8778 516.188 54.2756C516.188 54.8438 516.396 55.2727 516.81 55.5625C517.225 55.8523 517.754 55.9972 518.396 55.9972ZM532.467 58.2301C531.438 58.2301 530.518 57.9659 529.705 57.4375C528.893 56.9091 528.251 56.142 527.779 55.1364C527.308 54.1307 527.072 52.9091 527.072 51.4716C527.072 50.017 527.31 48.7898 527.788 47.7898C528.271 46.7841 528.921 46.0256 529.739 45.5142C530.558 44.9972 531.469 44.7386 532.475 44.7386C533.242 44.7386 533.873 44.8693 534.367 45.1307C534.862 45.3864 535.254 45.696 535.543 46.0597C535.833 46.4176 536.058 46.7557 536.217 47.0739H536.344V40.5455H539.438V58H536.404V55.9375H536.217C536.058 56.2557 535.827 56.5937 535.526 56.9517C535.225 57.304 534.827 57.6051 534.333 57.8551C533.839 58.1051 533.217 58.2301 532.467 58.2301ZM533.327 55.6989C533.981 55.6989 534.538 55.5227 534.998 55.1705C535.458 54.8125 535.808 54.3153 536.046 53.679C536.285 53.0426 536.404 52.3011 536.404 51.4545C536.404 50.608 536.285 49.8722 536.046 49.2472C535.813 48.6222 535.467 48.1364 535.006 47.7898C534.552 47.4432 533.992 47.2699 533.327 47.2699C532.64 47.2699 532.066 47.4489 531.606 47.8068C531.146 48.1648 530.799 48.6591 530.566 49.2898C530.333 49.9205 530.217 50.642 530.217 51.4545C530.217 52.2727 530.333 53.0028 530.566 53.6449C530.805 54.2812 531.154 54.7841 531.614 55.1534C532.08 55.517 532.651 55.6989 533.327 55.6989ZM546.493 58.2642C545.663 58.2642 544.916 58.1165 544.251 57.821C543.592 57.5199 543.07 57.0767 542.683 56.4915C542.303 55.9062 542.112 55.1847 542.112 54.3267C542.112 53.5881 542.249 52.9773 542.521 52.4943C542.794 52.0114 543.166 51.625 543.638 51.3352C544.109 51.0455 544.641 50.8267 545.232 50.679C545.828 50.5256 546.445 50.4148 547.081 50.3466C547.848 50.267 548.47 50.196 548.947 50.1335C549.425 50.0653 549.771 49.9631 549.987 49.8267C550.209 49.6847 550.32 49.4659 550.32 49.1705V49.1193C550.32 48.4773 550.129 47.9801 549.749 47.6278C549.368 47.2756 548.82 47.0994 548.104 47.0994C547.348 47.0994 546.749 47.2642 546.305 47.5938C545.868 47.9233 545.572 48.3125 545.419 48.7614L542.538 48.3523C542.766 47.5568 543.141 46.892 543.663 46.358C544.186 45.8182 544.825 45.4148 545.581 45.1477C546.337 44.875 547.172 44.7386 548.087 44.7386C548.717 44.7386 549.345 44.8125 549.97 44.9602C550.595 45.108 551.166 45.3523 551.683 45.6932C552.2 46.0284 552.615 46.4858 552.928 47.0653C553.246 47.6449 553.405 48.3693 553.405 49.2386V58H550.439V56.2017H550.337C550.149 56.5653 549.885 56.9062 549.544 57.2244C549.209 57.5369 548.786 57.7898 548.274 57.983C547.768 58.1705 547.175 58.2642 546.493 58.2642ZM547.294 55.9972C547.913 55.9972 548.45 55.875 548.905 55.6307C549.359 55.3807 549.709 55.0511 549.953 54.642C550.203 54.233 550.328 53.7869 550.328 53.304V51.7614C550.232 51.8409 550.067 51.9148 549.834 51.983C549.607 52.0511 549.351 52.1108 549.067 52.1619C548.783 52.2131 548.501 52.2585 548.223 52.2983C547.945 52.3381 547.703 52.3722 547.499 52.4006C547.038 52.4631 546.626 52.5653 546.263 52.7074C545.899 52.8494 545.612 53.0483 545.402 53.304C545.192 53.554 545.087 53.8778 545.087 54.2756C545.087 54.8438 545.294 55.2727 545.709 55.5625C546.124 55.8523 546.652 55.9972 547.294 55.9972Z" fill="#00943D"/>
<defs>
<filter id="filter0_d_218_40" x="52.4976" y="85" width="864.003" height="491.608" filterUnits="userSpaceOnUse" color-interpolation-filters="sRGB">
<feFlood flood-opacity="0" result="BackgroundImageFix"/>
<feColorMatrix in="SourceAlpha" type="matrix" values="0 0 0 0 0 0 0 0 0 0 0 0 0 0 0 0 0 0 127 0" result="hardAlpha"/>
<feOffset dy="4"/>
<feGaussianBlur stdDeviation="2"/>
<feComposite in2="hardAlpha" operator="out"/>
<feColorMatrix type="matrix" values="0 0 0 0 0 0 0 0 0 0 0 0 0 0 0 0 0 0 0.25 0"/>
<feBlend mode="normal" in2="BackgroundImageFix" result="effect1_dropShadow_218_40"/>
<feBlend mode="normal" in="SourceGraphic" in2="effect1_dropShadow_218_40" result="shape"/>
</filter>
</defs>
</svg>
