<svg width="1013" height="557" viewBox="0 0 1013 557" fill="none" xmlns="http://www.w3.org/2000/svg">
<rect x="0.5" y="0.5" width="1012" height="556" rx="35.5" fill="#97DCFF" stroke="#717171"/>
<g filter="url(#filter0_d_181_126)">
<path d="M616 87.5L93 87V340.5H281.5L282 464.5L917 465L913 461H909L907.5 458.5L909 454V449.5L902.5 441.5V438.5L901 436L896.5 433.5L894.5 432L893 428L885.5 426.5L887.5 422.5C886.833 420.667 885.5 416.9 885.5 416.5C885.5 416.1 884.833 414.667 884.5 414L884 410L882 408L881 405.5V403L882 402L884.5 400.5V398L883 396H881V399.5H879H876L874.5 398.5L873.5 395L874.5 392.5L875.5 389.5L872.5 384.5L867 380L863.5 376.5V373L868 368L867 366V358.5L870 355.5L868 351.5V343.5L864.5 340.5L865.5 336.5L863.5 334L864.5 330.5L863.5 323.5L865.5 319.5V317.5H861L860.5 309.5L859 306.5L862 305.5L864.5 303.5L863.5 301.5L859 300L857 298L859 295.5V283L853 282L851 281L853 276L851 273L848 277L844 274.5V268L841.5 264.5L843 259.5L841 255L845 252L842.5 249L846 241L842.5 238L841 233L837.5 228L839.5 226V220L839 218.5L835 217V215.5C834.667 215.167 833.9 214.5 833.5 214.5C833.1 214.5 831.667 214.833 831 215C830.5 214.667 829.6 213.9 830 213.5C830.4 213.1 830.833 211.667 831 211L828.5 209.5L827 208.5L826.5 203.5V200L825 199L821.5 196.5L819.5 193L818.5 188.5L821.5 186.5L822 184.5C820.667 182.167 817.9 177.4 817.5 177C817.1 176.6 814.333 173.167 813 171.5V164L815.5 159L815 155L812.5 153H804C803.167 152 801.5 149.8 801.5 149C801.5 148.2 796.833 149.333 794.5 150L792 144.5L788 141.5L785.5 138.5L787 131.5L779 130L776.5 125.5L766.5 121.5L762.5 123L760.5 119L745.5 116.5L743 113.5L738 111.5V107.5L720.5 103.5L713.5 106.5H700L688.5 107.5L682 105.5L679 105L677 105.5L675.5 109L671 114.5L668.5 116.5L663.5 117.5H660.5L650 108L645.5 107.5L639.5 103.5L634 102.5L628.5 99L622.5 95.5L620.5 94.5L619 92.5L616 87.5Z" fill="#FFD597"/>
<path d="M616 87.5L93 87V340.5H281.5L282 464.5L917 465L913 461H909L907.5 458.5L909 454V449.5L902.5 441.5V438.5L901 436L896.5 433.5L894.5 432L893 428L885.5 426.5L887.5 422.5C886.833 420.667 885.5 416.9 885.5 416.5C885.5 416.1 884.833 414.667 884.5 414L884 410L882 408L881 405.5V403L882 402L884.5 400.5V398L883 396H881V399.5H879H876L874.5 398.5L873.5 395L874.5 392.5L875.5 389.5L872.5 384.5L867 380L863.5 376.5V373L868 368L867 366V358.5L870 355.5L868 351.5V343.5L864.5 340.5L865.5 336.5L863.5 334L864.5 330.5L863.5 323.5L865.5 319.5V317.5H861L860.5 309.5L859 306.5L862 305.5L864.5 303.5L863.5 301.5L859 300L857 298L859 295.5V283L853 282L851 281L853 276L851 273L848 277L844 274.5V268L841.5 264.5L843 259.5L841 255L845 252L842.5 249L846 241L842.5 238L841 233L837.5 228L839.5 226V220L839 218.5L835 217V215.5C834.667 215.167 833.9 214.5 833.5 214.5C833.1 214.5 831.667 214.833 831 215C830.5 214.667 829.6 213.9 830 213.5C830.4 213.1 830.833 211.667 831 211L828.5 209.5L827 208.5L826.5 203.5V200L825 199L821.5 196.5L819.5 193L818.5 188.5L821.5 186.5L822 184.5C820.667 182.167 817.9 177.4 817.5 177C817.1 176.6 814.333 173.167 813 171.5V164L815.5 159L815 155L812.5 153H804C803.167 152 801.5 149.8 801.5 149C801.5 148.2 796.833 149.333 794.5 150L792 144.5L788 141.5L785.5 138.5L787 131.5L779 130L776.5 125.5L766.5 121.5L762.5 123L760.5 119L745.5 116.5L743 113.5L738 111.5V107.5L720.5 103.5L713.5 106.5H700L688.5 107.5L682 105.5L679 105L677 105.5L675.5 109L671 114.5L668.5 116.5L663.5 117.5H660.5L650 108L645.5 107.5L639.5 103.5L634 102.5L628.5 99L622.5 95.5L620.5 94.5L619 92.5L616 87.5Z" stroke="black"/>
</g>
<path d="M510.207 47.3438C510.128 46.5994 509.793 46.0199 509.202 45.6051C508.616 45.1903 507.855 44.983 506.918 44.983C506.259 44.983 505.693 45.0824 505.222 45.2812C504.75 45.4801 504.389 45.75 504.139 46.0909C503.889 46.4318 503.761 46.821 503.756 47.2585C503.756 47.6222 503.838 47.9375 504.003 48.2045C504.173 48.4716 504.403 48.6989 504.693 48.8864C504.983 49.0682 505.304 49.2216 505.656 49.3466C506.009 49.4716 506.364 49.5767 506.722 49.6619L508.358 50.071C509.017 50.2244 509.651 50.4318 510.259 50.6932C510.872 50.9545 511.42 51.2841 511.903 51.6818C512.392 52.0795 512.778 52.5597 513.062 53.1222C513.347 53.6847 513.489 54.3437 513.489 55.0994C513.489 56.1222 513.227 57.0227 512.705 57.8011C512.182 58.5739 511.426 59.179 510.438 59.6165C509.455 60.0483 508.264 60.2642 506.866 60.2642C505.509 60.2642 504.33 60.054 503.33 59.6335C502.335 59.2131 501.557 58.5994 500.994 57.7926C500.438 56.9858 500.136 56.0028 500.091 54.8438H503.202C503.247 55.4517 503.435 55.9574 503.764 56.3608C504.094 56.7642 504.523 57.0653 505.051 57.2642C505.585 57.4631 506.182 57.5625 506.841 57.5625C507.528 57.5625 508.131 57.4602 508.648 57.2557C509.17 57.0455 509.58 56.7557 509.875 56.3864C510.17 56.0114 510.321 55.5739 510.327 55.0739C510.321 54.6193 510.188 54.2443 509.926 53.9489C509.665 53.6477 509.298 53.3977 508.827 53.1989C508.361 52.9943 507.815 52.8125 507.19 52.6534L505.205 52.142C503.767 51.7727 502.631 51.2131 501.795 50.4631C500.966 49.7074 500.551 48.7045 500.551 47.4545C500.551 46.4261 500.83 45.5256 501.386 44.7528C501.949 43.9801 502.713 43.3807 503.679 42.9545C504.645 42.5227 505.739 42.3068 506.96 42.3068C508.199 42.3068 509.284 42.5227 510.216 42.9545C511.153 43.3807 511.889 43.9744 512.423 44.7358C512.957 45.4915 513.233 46.3608 513.25 47.3438H510.207ZM522.222 60H516.308V42.5455H522.342C524.075 42.5455 525.563 42.8949 526.808 43.5938C528.058 44.2869 529.018 45.2841 529.688 46.5852C530.359 47.8864 530.694 49.4432 530.694 51.2557C530.694 53.0739 530.356 54.6364 529.68 55.9432C529.009 57.25 528.04 58.2528 526.773 58.9517C525.512 59.6506 523.995 60 522.222 60ZM519.469 57.2642H522.069C523.285 57.2642 524.299 57.0426 525.112 56.5994C525.924 56.1506 526.535 55.483 526.944 54.5966C527.353 53.7045 527.558 52.5909 527.558 51.2557C527.558 49.9205 527.353 48.8125 526.944 47.9318C526.535 47.0455 525.93 46.3835 525.129 45.946C524.333 45.5028 523.344 45.2812 522.163 45.2812H519.469V57.2642Z" fill="#005A5E"/>
<path d="M888.884 185.545V203H885.722V185.545H888.884ZM894.549 203H891.174L897.319 185.545H901.222L907.376 203H904.001L899.339 189.125H899.202L894.549 203ZM894.66 196.156H903.864V198.696H894.66V196.156Z" fill="#005A5E"/>
<path d="M928.722 403.545H932.591L937.773 416.193H937.977L943.159 403.545H947.028V421H943.994V409.009H943.832L939.009 420.949H936.741L931.918 408.983H931.756V421H928.722V403.545ZM966.068 412.273C966.068 414.153 965.716 415.764 965.011 417.105C964.313 418.44 963.358 419.463 962.148 420.173C960.943 420.884 959.577 421.239 958.048 421.239C956.52 421.239 955.151 420.884 953.94 420.173C952.736 419.457 951.781 418.432 951.077 417.097C950.378 415.756 950.028 414.148 950.028 412.273C950.028 410.392 950.378 408.784 951.077 407.449C951.781 406.108 952.736 405.082 953.94 404.372C955.151 403.662 956.52 403.307 958.048 403.307C959.577 403.307 960.943 403.662 962.148 404.372C963.358 405.082 964.313 406.108 965.011 407.449C965.716 408.784 966.068 410.392 966.068 412.273ZM962.889 412.273C962.889 410.949 962.682 409.832 962.267 408.923C961.858 408.009 961.29 407.318 960.562 406.852C959.835 406.381 958.997 406.145 958.048 406.145C957.099 406.145 956.261 406.381 955.534 406.852C954.807 407.318 954.236 408.009 953.821 408.923C953.412 409.832 953.207 410.949 953.207 412.273C953.207 413.597 953.412 414.716 953.821 415.631C954.236 416.54 954.807 417.23 955.534 417.702C956.261 418.168 957.099 418.401 958.048 418.401C958.997 418.401 959.835 418.168 960.562 417.702C961.29 417.23 961.858 416.54 962.267 415.631C962.682 414.716 962.889 413.597 962.889 412.273Z" fill="#005A5E"/>
<path d="M528.722 514V496.545H531.884V504.565H532.097L538.906 496.545H542.767L536.017 504.378L542.827 514H539.026L533.818 506.517L531.884 508.801V514H528.722ZM554.356 501.344C554.276 500.599 553.941 500.02 553.35 499.605C552.765 499.19 552.004 498.983 551.066 498.983C550.407 498.983 549.842 499.082 549.37 499.281C548.898 499.48 548.538 499.75 548.288 500.091C548.038 500.432 547.91 500.821 547.904 501.259C547.904 501.622 547.987 501.937 548.151 502.205C548.322 502.472 548.552 502.699 548.842 502.886C549.131 503.068 549.452 503.222 549.805 503.347C550.157 503.472 550.512 503.577 550.87 503.662L552.506 504.071C553.165 504.224 553.799 504.432 554.407 504.693C555.021 504.955 555.569 505.284 556.052 505.682C556.54 506.08 556.927 506.56 557.211 507.122C557.495 507.685 557.637 508.344 557.637 509.099C557.637 510.122 557.376 511.023 556.853 511.801C556.33 512.574 555.575 513.179 554.586 513.616C553.603 514.048 552.413 514.264 551.015 514.264C549.657 514.264 548.478 514.054 547.478 513.634C546.484 513.213 545.705 512.599 545.143 511.793C544.586 510.986 544.285 510.003 544.239 508.844H547.35C547.396 509.452 547.583 509.957 547.913 510.361C548.242 510.764 548.671 511.065 549.2 511.264C549.734 511.463 550.33 511.562 550.989 511.562C551.677 511.562 552.279 511.46 552.796 511.256C553.319 511.045 553.728 510.756 554.023 510.386C554.319 510.011 554.469 509.574 554.475 509.074C554.469 508.619 554.336 508.244 554.075 507.949C553.813 507.648 553.447 507.398 552.975 507.199C552.509 506.994 551.964 506.812 551.339 506.653L549.353 506.142C547.915 505.773 546.779 505.213 545.944 504.463C545.114 503.707 544.7 502.705 544.7 501.455C544.7 500.426 544.978 499.526 545.535 498.753C546.097 497.98 546.862 497.381 547.827 496.955C548.793 496.523 549.887 496.307 551.109 496.307C552.347 496.307 553.433 496.523 554.364 496.955C555.302 497.381 556.038 497.974 556.572 498.736C557.106 499.491 557.381 500.361 557.398 501.344H554.356Z" fill="#005A5E"/>
<path d="M174.662 429.435H171.474C171.384 428.912 171.216 428.449 170.972 428.045C170.727 427.636 170.423 427.29 170.06 427.006C169.696 426.722 169.281 426.509 168.815 426.366C168.355 426.219 167.858 426.145 167.324 426.145C166.375 426.145 165.534 426.384 164.801 426.861C164.068 427.332 163.494 428.026 163.08 428.94C162.665 429.849 162.457 430.96 162.457 432.273C162.457 433.608 162.665 434.733 163.08 435.648C163.5 436.557 164.074 437.244 164.801 437.71C165.534 438.17 166.372 438.401 167.315 438.401C167.838 438.401 168.327 438.332 168.781 438.196C169.241 438.054 169.653 437.847 170.017 437.574C170.386 437.301 170.696 436.966 170.946 436.568C171.202 436.17 171.378 435.716 171.474 435.205L174.662 435.222C174.543 436.051 174.284 436.83 173.886 437.557C173.494 438.284 172.98 438.926 172.344 439.483C171.707 440.034 170.963 440.466 170.111 440.778C169.259 441.085 168.313 441.239 167.273 441.239C165.739 441.239 164.369 440.884 163.165 440.173C161.96 439.463 161.011 438.438 160.318 437.097C159.625 435.756 159.278 434.148 159.278 432.273C159.278 430.392 159.628 428.784 160.327 427.449C161.026 426.108 161.977 425.082 163.182 424.372C164.386 423.662 165.75 423.307 167.273 423.307C168.244 423.307 169.148 423.443 169.983 423.716C170.818 423.989 171.563 424.389 172.216 424.918C172.869 425.44 173.406 426.082 173.827 426.844C174.253 427.599 174.531 428.463 174.662 429.435ZM193.154 432.273C193.154 434.153 192.802 435.764 192.097 437.105C191.398 438.44 190.444 439.463 189.234 440.173C188.029 440.884 186.663 441.239 185.134 441.239C183.606 441.239 182.237 440.884 181.026 440.173C179.822 439.457 178.867 438.432 178.163 437.097C177.464 435.756 177.114 434.148 177.114 432.273C177.114 430.392 177.464 428.784 178.163 427.449C178.867 426.108 179.822 425.082 181.026 424.372C182.237 423.662 183.606 423.307 185.134 423.307C186.663 423.307 188.029 423.662 189.234 424.372C190.444 425.082 191.398 426.108 192.097 427.449C192.802 428.784 193.154 430.392 193.154 432.273ZM189.975 432.273C189.975 430.949 189.768 429.832 189.353 428.923C188.944 428.009 188.376 427.318 187.648 426.852C186.921 426.381 186.083 426.145 185.134 426.145C184.185 426.145 183.347 426.381 182.62 426.852C181.893 427.318 181.322 428.009 180.907 428.923C180.498 429.832 180.293 430.949 180.293 432.273C180.293 433.597 180.498 434.716 180.907 435.631C181.322 436.54 181.893 437.23 182.62 437.702C183.347 438.168 184.185 438.401 185.134 438.401C186.083 438.401 186.921 438.168 187.648 437.702C188.376 437.23 188.944 436.54 189.353 435.631C189.768 434.716 189.975 433.597 189.975 432.273Z" fill="#005A5E"/>
<path d="M37.3949 215L32.4688 197.545H35.8693L39.0142 210.372H39.1761L42.5341 197.545H45.6278L48.9943 210.381H49.1477L52.2926 197.545H55.6932L50.767 215H47.6477L44.1534 202.753H44.017L40.5142 215H37.3949ZM56.6925 197.545H60.2635L64.5334 205.267H64.7038L68.9737 197.545H72.5447L66.1953 208.489V215H63.0419V208.489L56.6925 197.545Z" fill="#005A5E"/>
<circle cx="785.511" cy="361.511" r="9.01136" fill="#FF8F87" stroke="black"/>
<path d="M741.58 392V373.818H745.424V388.831H753.219V392H741.58ZM755.694 392V378.364H759.476V392H755.694ZM757.594 376.606C757.031 376.606 756.549 376.419 756.147 376.047C755.75 375.668 755.552 375.215 755.552 374.688C755.552 374.167 755.75 373.721 756.147 373.348C756.549 372.969 757.031 372.779 757.594 372.779C758.156 372.779 758.635 372.969 759.032 373.348C759.434 373.721 759.636 374.167 759.636 374.688C759.636 375.215 759.434 375.668 759.032 376.047C758.635 376.419 758.156 376.606 757.594 376.606ZM766.287 384.116V392H762.505V378.364H766.11V380.77H766.27C766.571 379.976 767.077 379.349 767.788 378.887C768.498 378.42 769.359 378.186 770.371 378.186C771.318 378.186 772.144 378.393 772.848 378.808C773.552 379.222 774.1 379.814 774.49 380.583C774.881 381.347 775.076 382.258 775.076 383.317V392H771.294V383.992C771.3 383.158 771.087 382.507 770.655 382.039C770.223 381.566 769.628 381.329 768.871 381.329C768.362 381.329 767.912 381.438 767.521 381.657C767.137 381.876 766.835 382.196 766.616 382.616C766.403 383.03 766.293 383.531 766.287 384.116ZM784.218 392.266C782.822 392.266 781.62 391.97 780.614 391.379C779.614 390.781 778.844 389.952 778.306 388.893C777.773 387.833 777.507 386.614 777.507 385.235C777.507 383.838 777.776 382.613 778.315 381.56C778.859 380.5 779.631 379.675 780.632 379.083C781.632 378.485 782.822 378.186 784.201 378.186C785.39 378.186 786.432 378.402 787.326 378.834C788.219 379.266 788.927 379.873 789.447 380.654C789.968 381.435 790.255 382.353 790.309 383.406H786.74C786.639 382.726 786.373 382.178 785.941 381.764C785.514 381.344 784.955 381.134 784.263 381.134C783.677 381.134 783.165 381.293 782.727 381.613C782.295 381.927 781.957 382.385 781.715 382.989C781.472 383.593 781.351 384.324 781.351 385.182C781.351 386.052 781.469 386.792 781.706 387.401C781.949 388.011 782.289 388.475 782.727 388.795C783.165 389.115 783.677 389.275 784.263 389.275C784.695 389.275 785.082 389.186 785.426 389.008C785.775 388.831 786.062 388.573 786.287 388.236C786.518 387.893 786.669 387.481 786.74 387.002H790.309C790.249 388.043 789.965 388.961 789.456 389.754C788.953 390.541 788.258 391.157 787.37 391.6C786.482 392.044 785.432 392.266 784.218 392.266ZM798.891 392.266C797.512 392.266 796.32 391.973 795.313 391.387C794.313 390.796 793.541 389.973 792.996 388.919C792.452 387.86 792.18 386.632 792.18 385.235C792.18 383.826 792.452 382.595 792.996 381.542C793.541 380.482 794.313 379.66 795.313 379.074C796.32 378.482 797.512 378.186 798.891 378.186C800.27 378.186 801.46 378.482 802.46 379.074C803.466 379.66 804.242 380.482 804.786 381.542C805.331 382.595 805.603 383.826 805.603 385.235C805.603 386.632 805.331 387.86 804.786 388.919C804.242 389.973 803.466 390.796 802.46 391.387C801.46 391.973 800.27 392.266 798.891 392.266ZM798.909 389.337C799.536 389.337 800.06 389.159 800.48 388.804C800.901 388.443 801.217 387.952 801.43 387.33C801.649 386.709 801.759 386.002 801.759 385.208C801.759 384.415 801.649 383.708 801.43 383.087C801.217 382.465 800.901 381.974 800.48 381.613C800.06 381.252 799.536 381.071 798.909 381.071C798.276 381.071 797.743 381.252 797.311 381.613C796.885 381.974 796.562 382.465 796.343 383.087C796.13 383.708 796.024 384.415 796.024 385.208C796.024 386.002 796.13 386.709 796.343 387.33C796.562 387.952 796.885 388.443 797.311 388.804C797.743 389.159 798.276 389.337 798.909 389.337ZM811.844 373.818V392H808.062V373.818H811.844ZM818.655 384.116V392H814.873V378.364H818.478V380.77H818.638C818.94 379.976 819.446 379.349 820.156 378.887C820.866 378.42 821.727 378.186 822.739 378.186C823.686 378.186 824.512 378.393 825.216 378.808C825.92 379.222 826.468 379.814 826.859 380.583C827.249 381.347 827.445 382.258 827.445 383.317V392H823.663V383.992C823.668 383.158 823.455 382.507 823.023 382.039C822.591 381.566 821.996 381.329 821.239 381.329C820.73 381.329 820.28 381.438 819.889 381.657C819.505 381.876 819.203 382.196 818.984 382.616C818.771 383.03 818.661 383.531 818.655 384.116Z" fill="black"/>
<path d="M781.543 288.909C781.543 290.827 781.196 292.484 780.504 293.881C779.811 295.277 778.862 296.355 777.654 297.112C776.447 297.87 775.068 298.249 773.517 298.249C771.966 298.249 770.587 297.87 769.38 297.112C768.173 296.355 767.223 295.277 766.53 293.881C765.838 292.484 765.491 290.827 765.491 288.909C765.491 286.991 765.838 285.334 766.53 283.938C767.223 282.541 768.173 281.464 769.38 280.706C770.587 279.948 771.966 279.57 773.517 279.57C775.068 279.57 776.447 279.948 777.654 280.706C778.862 281.464 779.811 282.541 780.504 283.938C781.196 285.334 781.543 286.991 781.543 288.909ZM779.412 288.909C779.412 287.335 779.149 286.006 778.622 284.923C778.101 283.84 777.394 283.02 776.5 282.464C775.612 281.907 774.618 281.629 773.517 281.629C772.416 281.629 771.419 281.907 770.525 282.464C769.637 283.02 768.93 283.84 768.403 284.923C767.883 286.006 767.622 287.335 767.622 288.909C767.622 290.483 767.883 291.812 768.403 292.895C768.93 293.978 769.637 294.798 770.525 295.354C771.419 295.911 772.416 296.189 773.517 296.189C774.618 296.189 775.612 295.911 776.5 295.354C777.394 294.798 778.101 293.978 778.622 292.895C779.149 291.812 779.412 290.483 779.412 288.909ZM784.961 298V284.364H786.985V286.494H787.162C787.446 285.766 787.905 285.201 788.538 284.799C789.172 284.39 789.932 284.186 790.82 284.186C791.72 284.186 792.468 284.39 793.066 284.799C793.67 285.201 794.14 285.766 794.478 286.494H794.62C794.969 285.79 795.493 285.231 796.191 284.816C796.889 284.396 797.727 284.186 798.703 284.186C799.923 284.186 800.92 284.568 801.695 285.331C802.471 286.089 802.858 287.27 802.858 288.874V298H800.763V288.874C800.763 287.867 800.488 287.148 799.938 286.716C799.387 286.284 798.739 286.068 797.993 286.068C797.034 286.068 796.292 286.358 795.765 286.938C795.238 287.512 794.975 288.24 794.975 289.122V298H792.844V288.661C792.844 287.885 792.593 287.261 792.089 286.787C791.586 286.308 790.938 286.068 790.145 286.068C789.601 286.068 789.092 286.213 788.618 286.503C788.151 286.793 787.772 287.196 787.482 287.711C787.198 288.22 787.056 288.808 787.056 289.477V298H784.961ZM810.702 298.32C809.838 298.32 809.054 298.157 808.349 297.831C807.645 297.5 807.086 297.023 806.671 296.402C806.257 295.775 806.05 295.017 806.05 294.129C806.05 293.348 806.204 292.715 806.512 292.229C806.819 291.738 807.231 291.353 807.746 291.075C808.26 290.797 808.829 290.59 809.45 290.454C810.077 290.312 810.708 290.199 811.341 290.116C812.17 290.01 812.841 289.93 813.356 289.877C813.877 289.818 814.256 289.72 814.493 289.584C814.735 289.448 814.857 289.211 814.857 288.874V288.803C814.857 287.927 814.617 287.246 814.138 286.761C813.664 286.275 812.945 286.033 811.98 286.033C810.98 286.033 810.196 286.252 809.628 286.69C809.059 287.128 808.66 287.595 808.429 288.092L806.441 287.382C806.796 286.554 807.269 285.908 807.861 285.447C808.459 284.979 809.11 284.654 809.814 284.47C810.524 284.281 811.223 284.186 811.909 284.186C812.347 284.186 812.85 284.239 813.419 284.346C813.993 284.446 814.546 284.657 815.079 284.976C815.617 285.296 816.064 285.778 816.419 286.423C816.774 287.068 816.952 287.933 816.952 289.016V298H814.857V296.153H814.75C814.608 296.449 814.371 296.766 814.04 297.103C813.709 297.441 813.268 297.728 812.717 297.964C812.167 298.201 811.495 298.32 810.702 298.32ZM811.021 296.438C811.85 296.438 812.548 296.275 813.117 295.949C813.691 295.624 814.123 295.203 814.413 294.689C814.709 294.174 814.857 293.632 814.857 293.064V291.146C814.768 291.253 814.573 291.35 814.271 291.439C813.975 291.522 813.632 291.596 813.241 291.661C812.856 291.72 812.48 291.774 812.113 291.821C811.752 291.862 811.459 291.898 811.235 291.928C810.69 291.999 810.181 292.114 809.708 292.274C809.24 292.428 808.861 292.661 808.571 292.975C808.287 293.283 808.145 293.703 808.145 294.236C808.145 294.964 808.414 295.514 808.953 295.887C809.497 296.254 810.187 296.438 811.021 296.438ZM822.871 289.797V298H820.776V279.818H822.871V286.494H823.049C823.368 285.79 823.848 285.231 824.487 284.816C825.132 284.396 825.99 284.186 827.062 284.186C827.991 284.186 828.805 284.373 829.503 284.745C830.201 285.112 830.743 285.678 831.128 286.441C831.518 287.199 831.714 288.163 831.714 289.335V298H829.618V289.477C829.618 288.394 829.337 287.557 828.775 286.965C828.219 286.367 827.446 286.068 826.458 286.068C825.771 286.068 825.156 286.213 824.611 286.503C824.073 286.793 823.647 287.216 823.333 287.773C823.025 288.329 822.871 289.004 822.871 289.797ZM839.559 298.32C838.695 298.32 837.911 298.157 837.207 297.831C836.502 297.5 835.943 297.023 835.529 296.402C835.114 295.775 834.907 295.017 834.907 294.129C834.907 293.348 835.061 292.715 835.369 292.229C835.677 291.738 836.088 291.353 836.603 291.075C837.118 290.797 837.686 290.59 838.308 290.454C838.935 290.312 839.565 290.199 840.199 290.116C841.027 290.01 841.699 289.93 842.214 289.877C842.735 289.818 843.113 289.72 843.35 289.584C843.593 289.448 843.714 289.211 843.714 288.874V288.803C843.714 287.927 843.474 287.246 842.995 286.761C842.522 286.275 841.802 286.033 840.838 286.033C839.837 286.033 839.053 286.252 838.485 286.69C837.917 287.128 837.517 287.595 837.287 288.092L835.298 287.382C835.653 286.554 836.127 285.908 836.718 285.447C837.316 284.979 837.967 284.654 838.672 284.47C839.382 284.281 840.08 284.186 840.767 284.186C841.205 284.186 841.708 284.239 842.276 284.346C842.85 284.446 843.403 284.657 843.936 284.976C844.475 285.296 844.922 285.778 845.277 286.423C845.632 287.068 845.809 287.933 845.809 289.016V298H843.714V296.153H843.608C843.466 296.449 843.229 296.766 842.897 297.103C842.566 297.441 842.125 297.728 841.575 297.964C841.024 298.201 840.352 298.32 839.559 298.32ZM839.879 296.438C840.708 296.438 841.406 296.275 841.974 295.949C842.548 295.624 842.98 295.203 843.27 294.689C843.566 294.174 843.714 293.632 843.714 293.064V291.146C843.625 291.253 843.43 291.35 843.128 291.439C842.832 291.522 842.489 291.596 842.098 291.661C841.714 291.72 841.338 291.774 840.971 291.821C840.61 291.862 840.317 291.898 840.092 291.928C839.547 291.999 839.038 292.114 838.565 292.274C838.097 292.428 837.719 292.661 837.429 292.975C837.145 293.283 837.002 293.703 837.002 294.236C837.002 294.964 837.272 295.514 837.81 295.887C838.355 296.254 839.044 296.438 839.879 296.438Z" fill="black"/>
<path d="M742.202 334V315.818H748.558C749.825 315.818 750.869 316.037 751.692 316.475C752.515 316.907 753.127 317.49 753.53 318.224C753.932 318.952 754.134 319.76 754.134 320.648C754.134 321.429 753.994 322.074 753.716 322.583C753.444 323.092 753.083 323.495 752.633 323.79C752.189 324.086 751.707 324.305 751.186 324.447V324.625C751.742 324.661 752.302 324.856 752.864 325.211C753.426 325.566 753.897 326.075 754.276 326.738C754.654 327.401 754.844 328.212 754.844 329.17C754.844 330.082 754.637 330.902 754.222 331.63C753.808 332.358 753.154 332.935 752.26 333.361C751.367 333.787 750.204 334 748.771 334H742.202ZM744.403 332.047H748.771C750.21 332.047 751.23 331.769 751.834 331.212C752.444 330.65 752.749 329.969 752.749 329.17C752.749 328.555 752.592 327.987 752.278 327.466C751.964 326.939 751.518 326.519 750.938 326.205C750.357 325.886 749.671 325.726 748.878 325.726H744.403V332.047ZM744.403 323.808H748.487C749.15 323.808 749.748 323.678 750.281 323.418C750.819 323.157 751.245 322.79 751.559 322.317C751.879 321.843 752.038 321.287 752.038 320.648C752.038 319.849 751.76 319.171 751.204 318.615C750.647 318.052 749.766 317.771 748.558 317.771H744.403V323.808ZM763.895 334.284C762.581 334.284 761.447 333.994 760.494 333.414C759.548 332.828 758.817 332.011 758.302 330.964C757.793 329.91 757.538 328.685 757.538 327.288C757.538 325.892 757.793 324.661 758.302 323.595C758.817 322.524 759.533 321.689 760.45 321.092C761.373 320.488 762.451 320.186 763.682 320.186C764.392 320.186 765.093 320.304 765.786 320.541C766.478 320.778 767.108 321.163 767.677 321.695C768.245 322.222 768.698 322.92 769.035 323.79C769.372 324.661 769.541 325.732 769.541 327.004V327.892H759.03V326.081H767.41C767.41 325.312 767.256 324.625 766.949 324.021C766.647 323.418 766.215 322.941 765.653 322.592C765.096 322.243 764.439 322.068 763.682 322.068C762.847 322.068 762.125 322.275 761.515 322.69C760.912 323.098 760.447 323.631 760.122 324.288C759.796 324.945 759.633 325.649 759.633 326.401V327.608C759.633 328.638 759.811 329.511 760.166 330.227C760.527 330.937 761.027 331.479 761.666 331.852C762.306 332.219 763.048 332.402 763.895 332.402C764.445 332.402 764.942 332.325 765.386 332.171C765.836 332.011 766.224 331.775 766.549 331.461C766.875 331.141 767.126 330.745 767.304 330.271L769.328 330.839C769.115 331.526 768.757 332.13 768.254 332.651C767.751 333.165 767.129 333.568 766.389 333.858C765.65 334.142 764.818 334.284 763.895 334.284ZM774.823 315.818V334H772.728V315.818H774.823ZM780.756 315.818V334H778.661V315.818H780.756ZM790.311 334.284C788.997 334.284 787.863 333.994 786.911 333.414C785.964 332.828 785.233 332.011 784.718 330.964C784.209 329.91 783.954 328.685 783.954 327.288C783.954 325.892 784.209 324.661 784.718 323.595C785.233 322.524 785.949 321.689 786.866 321.092C787.789 320.488 788.867 320.186 790.098 320.186C790.808 320.186 791.509 320.304 792.202 320.541C792.894 320.778 793.525 321.163 794.093 321.695C794.661 322.222 795.114 322.92 795.451 323.79C795.788 324.661 795.957 325.732 795.957 327.004V327.892H785.446V326.081H793.826C793.826 325.312 793.672 324.625 793.365 324.021C793.063 323.418 792.631 322.941 792.069 322.592C791.512 322.243 790.855 322.068 790.098 322.068C789.263 322.068 788.541 322.275 787.931 322.69C787.328 323.098 786.863 323.631 786.538 324.288C786.212 324.945 786.049 325.649 786.049 326.401V327.608C786.049 328.638 786.227 329.511 786.582 330.227C786.943 330.937 787.443 331.479 788.082 331.852C788.722 332.219 789.464 332.402 790.311 332.402C790.861 332.402 791.358 332.325 791.802 332.171C792.252 332.011 792.64 331.775 792.965 331.461C793.291 331.141 793.542 330.745 793.72 330.271L795.744 330.839C795.531 331.526 795.173 332.13 794.67 332.651C794.167 333.165 793.545 333.568 792.805 333.858C792.066 334.142 791.234 334.284 790.311 334.284ZM809.88 320.364L804.837 334H802.706L797.664 320.364H799.937L803.701 331.23H803.843L807.607 320.364H809.88ZM821.239 328.425V320.364H823.334V334H821.239V331.692H821.097C820.777 332.384 820.28 332.973 819.605 333.458C818.931 333.938 818.078 334.178 817.049 334.178C816.196 334.178 815.439 333.991 814.776 333.618C814.113 333.239 813.592 332.671 813.213 331.914C812.835 331.15 812.645 330.188 812.645 329.028V320.364H814.74V328.886C814.74 329.881 815.018 330.674 815.575 331.266C816.137 331.857 816.853 332.153 817.723 332.153C818.244 332.153 818.774 332.02 819.312 331.754C819.857 331.488 820.313 331.079 820.68 330.529C821.052 329.978 821.239 329.277 821.239 328.425ZM832.889 334.284C831.575 334.284 830.442 333.994 829.489 333.414C828.542 332.828 827.811 332.011 827.296 330.964C826.787 329.91 826.532 328.685 826.532 327.288C826.532 325.892 826.787 324.661 827.296 323.595C827.811 322.524 828.527 321.689 829.444 321.092C830.368 320.488 831.445 320.186 832.676 320.186C833.386 320.186 834.087 320.304 834.78 320.541C835.472 320.778 836.103 321.163 836.671 321.695C837.239 322.222 837.692 322.92 838.029 323.79C838.366 324.661 838.535 325.732 838.535 327.004V327.892H828.024V326.081H836.404C836.404 325.312 836.251 324.625 835.943 324.021C835.641 323.418 835.209 322.941 834.647 322.592C834.09 322.243 833.433 322.068 832.676 322.068C831.841 322.068 831.119 322.275 830.51 322.69C829.906 323.098 829.441 323.631 829.116 324.288C828.79 324.945 828.627 325.649 828.627 326.401V327.608C828.627 328.638 828.805 329.511 829.16 330.227C829.521 330.937 830.021 331.479 830.661 331.852C831.3 332.219 832.042 332.402 832.889 332.402C833.439 332.402 833.936 332.325 834.38 332.171C834.83 332.011 835.218 331.775 835.543 331.461C835.869 331.141 836.12 330.745 836.298 330.271L838.322 330.839C838.109 331.526 837.751 332.13 837.248 332.651C836.745 333.165 836.123 333.568 835.384 333.858C834.644 334.142 833.812 334.284 832.889 334.284Z" fill="black"/>
<path d="M450.202 389V370.818H452.403V379.838H452.616L460.784 370.818H463.661L456.026 379.021L463.661 389H460.997L454.676 380.548L452.403 383.105V389H450.202ZM470.943 389.284C469.629 389.284 468.495 388.994 467.542 388.414C466.595 387.828 465.864 387.011 465.35 385.964C464.841 384.91 464.586 383.685 464.586 382.288C464.586 380.892 464.841 379.661 465.35 378.595C465.864 377.524 466.581 376.689 467.498 376.092C468.421 375.488 469.498 375.186 470.729 375.186C471.44 375.186 472.141 375.304 472.834 375.541C473.526 375.778 474.156 376.163 474.725 376.695C475.293 377.222 475.745 377.92 476.083 378.79C476.42 379.661 476.589 380.732 476.589 382.004V382.892H466.078V381.081H474.458C474.458 380.312 474.304 379.625 473.997 379.021C473.695 378.418 473.263 377.941 472.7 377.592C472.144 377.243 471.487 377.068 470.729 377.068C469.895 377.068 469.173 377.275 468.563 377.69C467.96 378.098 467.495 378.631 467.169 379.288C466.844 379.945 466.681 380.649 466.681 381.401V382.608C466.681 383.638 466.859 384.511 467.214 385.227C467.575 385.937 468.075 386.479 468.714 386.852C469.353 387.219 470.096 387.402 470.943 387.402C471.493 387.402 471.99 387.325 472.434 387.171C472.884 387.011 473.272 386.775 473.597 386.461C473.923 386.141 474.174 385.745 474.352 385.271L476.376 385.839C476.163 386.526 475.805 387.13 475.302 387.651C474.799 388.165 474.177 388.568 473.437 388.858C472.697 389.142 471.866 389.284 470.943 389.284ZM483.789 389.32C482.925 389.32 482.14 389.157 481.436 388.831C480.732 388.5 480.173 388.023 479.758 387.402C479.344 386.775 479.137 386.017 479.137 385.129C479.137 384.348 479.291 383.715 479.598 383.229C479.906 382.738 480.318 382.353 480.832 382.075C481.347 381.797 481.916 381.59 482.537 381.454C483.164 381.312 483.795 381.199 484.428 381.116C485.257 381.01 485.928 380.93 486.443 380.877C486.964 380.818 487.343 380.72 487.58 380.584C487.822 380.448 487.944 380.211 487.944 379.874V379.803C487.944 378.927 487.704 378.246 487.225 377.761C486.751 377.275 486.032 377.033 485.067 377.033C484.067 377.033 483.283 377.252 482.715 377.69C482.146 378.128 481.747 378.595 481.516 379.092L479.527 378.382C479.883 377.554 480.356 376.908 480.948 376.447C481.546 375.979 482.197 375.654 482.901 375.47C483.611 375.281 484.31 375.186 484.996 375.186C485.434 375.186 485.937 375.239 486.505 375.346C487.08 375.446 487.633 375.657 488.166 375.976C488.704 376.296 489.151 376.778 489.506 377.423C489.861 378.068 490.039 378.933 490.039 380.016V389H487.944V387.153H487.837C487.695 387.449 487.458 387.766 487.127 388.103C486.795 388.441 486.354 388.728 485.804 388.964C485.254 389.201 484.582 389.32 483.789 389.32ZM484.108 387.438C484.937 387.438 485.635 387.275 486.204 386.949C486.778 386.624 487.21 386.203 487.5 385.689C487.796 385.174 487.944 384.632 487.944 384.064V382.146C487.855 382.253 487.66 382.35 487.358 382.439C487.062 382.522 486.718 382.596 486.328 382.661C485.943 382.72 485.567 382.774 485.2 382.821C484.839 382.862 484.546 382.898 484.321 382.928C483.777 382.999 483.268 383.114 482.794 383.274C482.327 383.428 481.948 383.661 481.658 383.975C481.374 384.283 481.232 384.703 481.232 385.236C481.232 385.964 481.501 386.514 482.04 386.887C482.584 387.254 483.274 387.438 484.108 387.438ZM493.863 389V375.364H495.887V377.423H496.029C496.278 376.749 496.728 376.201 497.379 375.781C498.03 375.361 498.763 375.151 499.58 375.151C499.734 375.151 499.926 375.154 500.157 375.159C500.388 375.165 500.563 375.174 500.681 375.186V377.317C500.61 377.299 500.447 377.272 500.193 377.237C499.944 377.195 499.681 377.175 499.403 377.175C498.74 377.175 498.148 377.314 497.627 377.592C497.112 377.864 496.704 378.243 496.402 378.728C496.106 379.208 495.958 379.755 495.958 380.371V389H493.863ZM505.26 380.797V389H503.165V375.364H505.189V377.494H505.366C505.686 376.802 506.171 376.246 506.822 375.825C507.473 375.399 508.314 375.186 509.344 375.186C510.267 375.186 511.075 375.375 511.767 375.754C512.46 376.127 512.998 376.695 513.383 377.459C513.768 378.216 513.96 379.175 513.96 380.335V389H511.865V380.477C511.865 379.406 511.587 378.571 511.03 377.974C510.474 377.37 509.711 377.068 508.74 377.068C508.071 377.068 507.473 377.213 506.947 377.503C506.426 377.793 506.014 378.216 505.713 378.773C505.411 379.329 505.26 380.004 505.26 380.797ZM523.506 389.284C522.192 389.284 521.059 388.994 520.106 388.414C519.159 387.828 518.428 387.011 517.913 385.964C517.404 384.91 517.15 383.685 517.15 382.288C517.15 380.892 517.404 379.661 517.913 378.595C518.428 377.524 519.144 376.689 520.061 376.092C520.985 375.488 522.062 375.186 523.293 375.186C524.003 375.186 524.705 375.304 525.397 375.541C526.089 375.778 526.72 376.163 527.288 376.695C527.856 377.222 528.309 377.92 528.646 378.79C528.984 379.661 529.152 380.732 529.152 382.004V382.892H518.641V381.081H527.022C527.022 380.312 526.868 379.625 526.56 379.021C526.258 378.418 525.826 377.941 525.264 377.592C524.708 377.243 524.051 377.068 523.293 377.068C522.458 377.068 521.736 377.275 521.127 377.69C520.523 378.098 520.058 378.631 519.733 379.288C519.407 379.945 519.245 380.649 519.245 381.401V382.608C519.245 383.638 519.422 384.511 519.777 385.227C520.138 385.937 520.638 386.479 521.278 386.852C521.917 387.219 522.66 387.402 523.506 387.402C524.056 387.402 524.554 387.325 524.998 387.171C525.447 387.011 525.835 386.775 526.161 386.461C526.486 386.141 526.738 385.745 526.915 385.271L528.939 385.839C528.726 386.526 528.368 387.13 527.865 387.651C527.362 388.165 526.741 388.568 526.001 388.858C525.261 389.142 524.429 389.284 523.506 389.284ZM533.274 394.114C532.919 394.114 532.602 394.084 532.324 394.025C532.046 393.972 531.853 393.918 531.747 393.865L532.28 392.018C532.789 392.149 533.238 392.196 533.629 392.161C534.02 392.125 534.366 391.95 534.668 391.637C534.975 391.329 535.257 390.829 535.511 390.136L535.902 389.071L530.859 375.364H533.132L536.896 386.23H537.038L540.802 375.364H543.075L537.287 390.989C537.026 391.693 536.704 392.276 536.319 392.738C535.934 393.205 535.487 393.551 534.978 393.776C534.475 394.001 533.907 394.114 533.274 394.114Z" fill="black"/>
<path d="M568.202 430V411.818H570.403V419.915H580.098V411.818H582.3V430H580.098V421.868H570.403V430H568.202ZM590.436 430.32C589.572 430.32 588.788 430.157 588.084 429.831C587.379 429.5 586.82 429.023 586.406 428.402C585.991 427.775 585.784 427.017 585.784 426.129C585.784 425.348 585.938 424.715 586.246 424.229C586.554 423.738 586.965 423.353 587.48 423.075C587.995 422.797 588.563 422.59 589.184 422.454C589.812 422.312 590.442 422.199 591.075 422.116C591.904 422.01 592.576 421.93 593.091 421.877C593.612 421.818 593.99 421.72 594.227 421.584C594.47 421.448 594.591 421.211 594.591 420.874V420.803C594.591 419.927 594.351 419.246 593.872 418.761C593.398 418.275 592.679 418.033 591.715 418.033C590.714 418.033 589.93 418.252 589.362 418.69C588.794 419.128 588.394 419.595 588.164 420.092L586.175 419.382C586.53 418.554 587.003 417.908 587.595 417.447C588.193 416.979 588.844 416.654 589.548 416.47C590.259 416.281 590.957 416.186 591.644 416.186C592.082 416.186 592.585 416.239 593.153 416.346C593.727 416.446 594.28 416.657 594.813 416.976C595.352 417.296 595.798 417.778 596.154 418.423C596.509 419.068 596.686 419.933 596.686 421.016V430H594.591V428.153H594.485C594.343 428.449 594.106 428.766 593.774 429.103C593.443 429.441 593.002 429.728 592.452 429.964C591.901 430.201 591.229 430.32 590.436 430.32ZM590.756 428.438C591.584 428.438 592.283 428.275 592.851 427.949C593.425 427.624 593.857 427.203 594.147 426.689C594.443 426.174 594.591 425.632 594.591 425.064V423.146C594.502 423.253 594.307 423.35 594.005 423.439C593.709 423.522 593.366 423.596 592.975 423.661C592.591 423.72 592.215 423.774 591.848 423.821C591.487 423.862 591.194 423.898 590.969 423.928C590.424 423.999 589.915 424.114 589.442 424.274C588.974 424.428 588.596 424.661 588.306 424.975C588.021 425.283 587.879 425.703 587.879 426.236C587.879 426.964 588.149 427.514 588.687 427.887C589.232 428.254 589.921 428.438 590.756 428.438ZM610.169 419.418L608.287 419.95C608.169 419.637 607.994 419.332 607.764 419.036C607.539 418.734 607.231 418.485 606.84 418.29C606.45 418.095 605.95 417.997 605.34 417.997C604.505 417.997 603.81 418.19 603.254 418.574C602.703 418.953 602.428 419.435 602.428 420.021C602.428 420.542 602.617 420.953 602.996 421.255C603.375 421.557 603.967 421.809 604.772 422.01L606.796 422.507C608.015 422.803 608.924 423.256 609.521 423.865C610.119 424.469 610.418 425.247 610.418 426.2C610.418 426.982 610.193 427.68 609.743 428.295C609.299 428.911 608.678 429.396 607.879 429.751C607.08 430.107 606.151 430.284 605.091 430.284C603.7 430.284 602.549 429.982 601.638 429.379C600.726 428.775 600.149 427.893 599.907 426.733L601.895 426.236C602.085 426.97 602.443 427.52 602.97 427.887C603.502 428.254 604.198 428.438 605.056 428.438C606.032 428.438 606.808 428.23 607.382 427.816C607.962 427.396 608.252 426.893 608.252 426.307C608.252 425.833 608.086 425.437 607.755 425.117C607.423 424.792 606.914 424.549 606.228 424.389L603.955 423.857C602.706 423.561 601.789 423.102 601.203 422.48C600.623 421.853 600.333 421.069 600.333 420.128C600.333 419.358 600.549 418.678 600.981 418.086C601.419 417.494 602.014 417.029 602.765 416.692C603.523 416.355 604.381 416.186 605.34 416.186C606.689 416.186 607.749 416.482 608.518 417.074C609.294 417.666 609.844 418.447 610.169 419.418ZM619.502 416.364V418.139H612.436V416.364H619.502ZM614.495 413.097H616.59V426.094C616.59 426.686 616.676 427.129 616.848 427.425C617.025 427.715 617.25 427.911 617.523 428.011C617.801 428.106 618.094 428.153 618.401 428.153C618.632 428.153 618.822 428.142 618.97 428.118C619.118 428.088 619.236 428.065 619.325 428.047L619.751 429.929C619.609 429.982 619.411 430.036 619.156 430.089C618.902 430.148 618.579 430.178 618.188 430.178C617.597 430.178 617.017 430.05 616.448 429.796C615.886 429.541 615.419 429.154 615.046 428.633C614.679 428.112 614.495 427.455 614.495 426.662V413.097ZM622.654 430V416.364H624.749V430H622.654ZM623.719 414.091C623.311 414.091 622.959 413.952 622.663 413.674C622.373 413.395 622.228 413.061 622.228 412.67C622.228 412.28 622.373 411.945 622.663 411.667C622.959 411.389 623.311 411.25 623.719 411.25C624.128 411.25 624.477 411.389 624.767 411.667C625.063 411.945 625.211 412.28 625.211 412.67C625.211 413.061 625.063 413.395 624.767 413.674C624.477 413.952 624.128 414.091 623.719 414.091ZM630.682 421.797V430H628.587V416.364H630.611V418.494H630.788C631.108 417.802 631.593 417.246 632.244 416.825C632.895 416.399 633.736 416.186 634.766 416.186C635.689 416.186 636.497 416.375 637.189 416.754C637.882 417.127 638.42 417.695 638.805 418.459C639.19 419.216 639.382 420.175 639.382 421.335V430H637.287V421.477C637.287 420.406 637.009 419.571 636.452 418.974C635.896 418.37 635.132 418.068 634.162 418.068C633.493 418.068 632.895 418.213 632.369 418.503C631.848 418.793 631.436 419.216 631.134 419.773C630.833 420.329 630.682 421.004 630.682 421.797ZM648.715 435.398C647.703 435.398 646.833 435.268 646.105 435.007C645.377 434.753 644.77 434.415 644.285 433.995C643.805 433.581 643.424 433.137 643.14 432.663L644.809 431.491C644.998 431.74 645.238 432.024 645.528 432.344C645.818 432.669 646.214 432.95 646.717 433.187C647.226 433.43 647.892 433.551 648.715 433.551C649.816 433.551 650.724 433.285 651.44 432.752C652.156 432.219 652.515 431.385 652.515 430.249V427.479H652.337C652.183 427.727 651.964 428.035 651.68 428.402C651.402 428.763 650.999 429.086 650.473 429.37C649.952 429.648 649.248 429.787 648.36 429.787C647.259 429.787 646.27 429.527 645.395 429.006C644.525 428.485 643.835 427.727 643.326 426.733C642.823 425.739 642.571 424.531 642.571 423.111C642.571 421.714 642.817 420.498 643.308 419.462C643.799 418.42 644.483 417.615 645.359 417.047C646.235 416.473 647.247 416.186 648.395 416.186C649.283 416.186 649.987 416.334 650.508 416.63C651.035 416.92 651.437 417.251 651.716 417.624C652 417.991 652.219 418.293 652.373 418.53H652.586V416.364H654.61V430.391C654.61 431.562 654.343 432.515 653.811 433.249C653.284 433.989 652.574 434.531 651.68 434.874C650.792 435.223 649.804 435.398 648.715 435.398ZM648.644 427.905C649.484 427.905 650.194 427.712 650.775 427.328C651.355 426.943 651.795 426.39 652.097 425.668C652.399 424.946 652.55 424.081 652.55 423.075C652.55 422.093 652.402 421.226 652.106 420.474C651.81 419.722 651.372 419.134 650.792 418.707C650.212 418.281 649.496 418.068 648.644 418.068C647.756 418.068 647.016 418.293 646.424 418.743C645.838 419.193 645.397 419.796 645.102 420.554C644.812 421.312 644.667 422.152 644.667 423.075C644.667 424.022 644.815 424.86 645.11 425.588C645.412 426.31 645.856 426.878 646.442 427.292C647.034 427.701 647.768 427.905 648.644 427.905ZM668.104 419.418L666.222 419.95C666.104 419.637 665.929 419.332 665.698 419.036C665.473 418.734 665.165 418.485 664.775 418.29C664.384 418.095 663.884 417.997 663.275 417.997C662.44 417.997 661.745 418.19 661.188 418.574C660.638 418.953 660.363 419.435 660.363 420.021C660.363 420.542 660.552 420.953 660.931 421.255C661.31 421.557 661.901 421.809 662.706 422.01L664.73 422.507C665.95 422.803 666.858 423.256 667.456 423.865C668.054 424.469 668.353 425.247 668.353 426.2C668.353 426.982 668.128 427.68 667.678 428.295C667.234 428.911 666.613 429.396 665.814 429.751C665.015 430.107 664.085 430.284 663.026 430.284C661.635 430.284 660.484 429.982 659.572 429.379C658.661 428.775 658.084 427.893 657.841 426.733L659.83 426.236C660.019 426.97 660.377 427.52 660.904 427.887C661.437 428.254 662.132 428.438 662.99 428.438C663.967 428.438 664.742 428.23 665.316 427.816C665.896 427.396 666.186 426.893 666.186 426.307C666.186 425.833 666.021 425.437 665.689 425.117C665.358 424.792 664.849 424.549 664.162 424.389L661.89 423.857C660.641 423.561 659.723 423.102 659.137 422.48C658.557 421.853 658.267 421.069 658.267 420.128C658.267 419.358 658.483 418.678 658.915 418.086C659.353 417.494 659.948 417.029 660.7 416.692C661.458 416.355 662.316 416.186 663.275 416.186C664.624 416.186 665.683 416.482 666.453 417.074C667.228 417.666 667.779 418.447 668.104 419.418Z" fill="black"/>
<path d="M675.619 173.818V192H673.489L663.581 177.724H663.403V192H661.202V173.818H663.332L673.276 188.129H673.453V173.818H675.619ZM685.281 192.284C684.05 192.284 682.969 191.991 682.04 191.405C681.117 190.819 680.395 190 679.874 188.946C679.359 187.893 679.102 186.661 679.102 185.253C679.102 183.832 679.359 182.592 679.874 181.533C680.395 180.474 681.117 179.651 682.04 179.065C682.969 178.479 684.05 178.186 685.281 178.186C686.512 178.186 687.589 178.479 688.512 179.065C689.441 179.651 690.163 180.474 690.678 181.533C691.199 182.592 691.46 183.832 691.46 185.253C691.46 186.661 691.199 187.893 690.678 188.946C690.163 190 689.441 190.819 688.512 191.405C687.589 191.991 686.512 192.284 685.281 192.284ZM685.281 190.402C686.216 190.402 686.985 190.162 687.589 189.683C688.193 189.203 688.639 188.573 688.929 187.792C689.219 187.011 689.364 186.164 689.364 185.253C689.364 184.341 689.219 183.492 688.929 182.705C688.639 181.918 688.193 181.281 687.589 180.796C686.985 180.311 686.216 180.068 685.281 180.068C684.345 180.068 683.576 180.311 682.972 180.796C682.369 181.281 681.922 181.918 681.632 182.705C681.342 183.492 681.197 184.341 681.197 185.253C681.197 186.164 681.342 187.011 681.632 187.792C681.922 188.573 682.369 189.203 682.972 189.683C683.576 190.162 684.345 190.402 685.281 190.402ZM694.658 192V178.364H696.682V180.423H696.824C697.073 179.749 697.522 179.201 698.173 178.781C698.825 178.361 699.558 178.151 700.375 178.151C700.529 178.151 700.721 178.154 700.952 178.159C701.183 178.165 701.358 178.174 701.476 178.186V180.317C701.405 180.299 701.242 180.272 700.988 180.237C700.739 180.195 700.476 180.175 700.198 180.175C699.535 180.175 698.943 180.314 698.422 180.592C697.907 180.864 697.499 181.243 697.197 181.728C696.901 182.208 696.753 182.755 696.753 183.371V192H694.658ZM710.887 178.364V180.139H703.536V178.364H710.887ZM705.737 192V176.482C705.737 175.7 705.921 175.049 706.288 174.528C706.655 174.008 707.131 173.617 707.717 173.357C708.303 173.096 708.922 172.966 709.573 172.966C710.088 172.966 710.508 173.007 710.833 173.09C711.159 173.173 711.401 173.25 711.561 173.321L710.958 175.132C710.851 175.097 710.703 175.052 710.514 174.999C710.33 174.946 710.088 174.919 709.786 174.919C709.093 174.919 708.593 175.094 708.285 175.443C707.983 175.792 707.833 176.304 707.833 176.979V192H705.737ZM718.801 192.284C717.57 192.284 716.49 191.991 715.561 191.405C714.637 190.819 713.915 190 713.395 188.946C712.88 187.893 712.622 186.661 712.622 185.253C712.622 183.832 712.88 182.592 713.395 181.533C713.915 180.474 714.637 179.651 715.561 179.065C716.49 178.479 717.57 178.186 718.801 178.186C720.032 178.186 721.109 178.479 722.033 179.065C722.962 179.651 723.684 180.474 724.199 181.533C724.72 182.592 724.98 183.832 724.98 185.253C724.98 186.661 724.72 187.893 724.199 188.946C723.684 190 722.962 190.819 722.033 191.405C721.109 191.991 720.032 192.284 718.801 192.284ZM718.801 190.402C719.736 190.402 720.506 190.162 721.109 189.683C721.713 189.203 722.16 188.573 722.45 187.792C722.74 187.011 722.885 186.164 722.885 185.253C722.885 184.341 722.74 183.492 722.45 182.705C722.16 181.918 721.713 181.281 721.109 180.796C720.506 180.311 719.736 180.068 718.801 180.068C717.866 180.068 717.097 180.311 716.493 180.796C715.889 181.281 715.442 181.918 715.152 182.705C714.862 183.492 714.717 184.341 714.717 185.253C714.717 186.164 714.862 187.011 715.152 187.792C715.442 188.573 715.889 189.203 716.493 189.683C717.097 190.162 717.866 190.402 718.801 190.402ZM730.274 173.818V192H728.178V173.818H730.274ZM736.064 187.028L736.029 184.436H736.455L742.421 178.364H745.013L738.656 184.791H738.479L736.064 187.028ZM734.111 192V173.818H736.206V192H734.111ZM742.776 192L737.449 185.253L738.941 183.797L745.439 192H742.776Z" fill="black"/>
<path d="M568.631 318.5C568.435 317.902 568.178 317.367 567.858 316.893C567.545 316.414 567.169 316.005 566.731 315.668C566.299 315.331 565.808 315.073 565.257 314.896C564.707 314.718 564.103 314.629 563.446 314.629C562.369 314.629 561.389 314.907 560.507 315.464C559.626 316.02 558.924 316.84 558.403 317.923C557.883 319.006 557.622 320.335 557.622 321.909C557.622 323.483 557.886 324.812 558.412 325.895C558.939 326.978 559.652 327.798 560.552 328.354C561.451 328.911 562.464 329.189 563.588 329.189C564.63 329.189 565.547 328.967 566.34 328.523C567.139 328.073 567.761 327.44 568.205 326.623C568.654 325.801 568.879 324.833 568.879 323.72L569.554 323.862H564.085V321.909H571.01V323.862C571.01 325.36 570.69 326.662 570.051 327.768C569.418 328.875 568.542 329.733 567.423 330.343C566.311 330.947 565.032 331.249 563.588 331.249C561.978 331.249 560.564 330.87 559.344 330.112C558.131 329.355 557.184 328.277 556.504 326.881C555.829 325.484 555.491 323.827 555.491 321.909C555.491 320.471 555.684 319.178 556.069 318.029C556.459 316.875 557.01 315.893 557.72 315.082C558.43 314.271 559.27 313.65 560.241 313.218C561.212 312.786 562.28 312.57 563.446 312.57C564.405 312.57 565.299 312.715 566.127 313.005C566.962 313.289 567.704 313.694 568.355 314.221C569.012 314.742 569.56 315.366 569.998 316.094C570.436 316.816 570.738 317.618 570.903 318.5H568.631ZM574.497 331V317.364H576.521V319.423H576.663C576.911 318.749 577.361 318.201 578.012 317.781C578.663 317.361 579.397 317.151 580.214 317.151C580.368 317.151 580.56 317.154 580.791 317.159C581.022 317.165 581.197 317.174 581.315 317.186V319.317C581.244 319.299 581.081 319.272 580.827 319.237C580.578 319.195 580.315 319.175 580.036 319.175C579.374 319.175 578.782 319.314 578.261 319.592C577.746 319.864 577.338 320.243 577.036 320.728C576.74 321.208 576.592 321.755 576.592 322.371V331H574.497ZM587.811 331.32C586.947 331.32 586.163 331.157 585.459 330.831C584.754 330.5 584.195 330.023 583.781 329.402C583.366 328.775 583.159 328.017 583.159 327.129C583.159 326.348 583.313 325.715 583.621 325.229C583.929 324.738 584.34 324.353 584.855 324.075C585.37 323.797 585.938 323.59 586.559 323.454C587.187 323.312 587.817 323.199 588.45 323.116C589.279 323.01 589.951 322.93 590.466 322.877C590.987 322.818 591.365 322.72 591.602 322.584C591.845 322.448 591.966 322.211 591.966 321.874V321.803C591.966 320.927 591.726 320.246 591.247 319.761C590.773 319.275 590.054 319.033 589.09 319.033C588.089 319.033 587.305 319.252 586.737 319.69C586.169 320.128 585.769 320.595 585.539 321.092L583.55 320.382C583.905 319.554 584.378 318.908 584.97 318.447C585.568 317.979 586.219 317.654 586.923 317.47C587.634 317.281 588.332 317.186 589.019 317.186C589.457 317.186 589.96 317.239 590.528 317.346C591.102 317.446 591.655 317.657 592.188 317.976C592.727 318.296 593.173 318.778 593.529 319.423C593.884 320.068 594.061 320.933 594.061 322.016V331H591.966V329.153H591.86C591.718 329.449 591.481 329.766 591.149 330.103C590.818 330.441 590.377 330.728 589.827 330.964C589.276 331.201 588.604 331.32 587.811 331.32ZM588.131 329.438C588.959 329.438 589.658 329.275 590.226 328.949C590.8 328.624 591.232 328.203 591.522 327.689C591.818 327.174 591.966 326.632 591.966 326.064V324.146C591.877 324.253 591.682 324.35 591.38 324.439C591.084 324.522 590.741 324.596 590.35 324.661C589.966 324.72 589.59 324.774 589.223 324.821C588.862 324.862 588.569 324.898 588.344 324.928C587.799 324.999 587.29 325.114 586.817 325.274C586.349 325.428 585.971 325.661 585.681 325.975C585.396 326.283 585.254 326.703 585.254 327.236C585.254 327.964 585.524 328.514 586.062 328.887C586.607 329.254 587.296 329.438 588.131 329.438ZM599.981 322.797V331H597.885V317.364H599.91V319.494H600.087C600.407 318.802 600.892 318.246 601.543 317.825C602.194 317.399 603.035 317.186 604.064 317.186C604.988 317.186 605.796 317.375 606.488 317.754C607.18 318.127 607.719 318.695 608.104 319.459C608.488 320.216 608.681 321.175 608.681 322.335V331H606.586V322.477C606.586 321.406 606.307 320.571 605.751 319.974C605.195 319.37 604.431 319.068 603.461 319.068C602.792 319.068 602.194 319.213 601.667 319.503C601.147 319.793 600.735 320.216 600.433 320.773C600.131 321.329 599.981 322.004 599.981 322.797ZM617.659 331.284C616.522 331.284 615.519 330.997 614.649 330.423C613.779 329.843 613.098 329.026 612.607 327.973C612.116 326.913 611.87 325.661 611.87 324.217C611.87 322.785 612.116 321.542 612.607 320.489C613.098 319.435 613.782 318.621 614.658 318.047C615.534 317.473 616.546 317.186 617.694 317.186C618.582 317.186 619.283 317.334 619.798 317.63C620.319 317.92 620.715 318.251 620.988 318.624C621.266 318.991 621.482 319.293 621.636 319.53H621.813V312.818H623.909V331H621.884V328.905H621.636C621.482 329.153 621.263 329.467 620.979 329.846C620.695 330.219 620.289 330.553 619.763 330.849C619.236 331.139 618.535 331.284 617.659 331.284ZM617.943 329.402C618.783 329.402 619.493 329.183 620.073 328.745C620.653 328.301 621.094 327.689 621.396 326.907C621.698 326.12 621.849 325.212 621.849 324.182C621.849 323.164 621.701 322.273 621.405 321.51C621.109 320.74 620.671 320.142 620.091 319.716C619.511 319.284 618.795 319.068 617.943 319.068C617.055 319.068 616.315 319.296 615.723 319.752C615.137 320.202 614.696 320.814 614.4 321.589C614.11 322.359 613.965 323.223 613.965 324.182C613.965 325.152 614.113 326.034 614.409 326.827C614.711 327.615 615.155 328.242 615.741 328.71C616.333 329.171 617.067 329.402 617.943 329.402ZM637.554 312.818V331H635.352V312.818H637.554ZM651.343 320.418L649.461 320.95C649.343 320.637 649.168 320.332 648.937 320.036C648.713 319.734 648.405 319.485 648.014 319.29C647.623 319.095 647.123 318.997 646.514 318.997C645.679 318.997 644.984 319.19 644.427 319.574C643.877 319.953 643.602 320.435 643.602 321.021C643.602 321.542 643.791 321.953 644.17 322.255C644.549 322.557 645.141 322.809 645.946 323.01L647.97 323.507C649.189 323.803 650.097 324.256 650.695 324.865C651.293 325.469 651.592 326.247 651.592 327.2C651.592 327.982 651.367 328.68 650.917 329.295C650.473 329.911 649.852 330.396 649.053 330.751C648.254 331.107 647.325 331.284 646.265 331.284C644.874 331.284 643.723 330.982 642.812 330.379C641.9 329.775 641.323 328.893 641.081 327.733L643.069 327.236C643.259 327.97 643.617 328.52 644.143 328.887C644.676 329.254 645.371 329.438 646.23 329.438C647.206 329.438 647.982 329.23 648.556 328.816C649.136 328.396 649.426 327.893 649.426 327.307C649.426 326.833 649.26 326.437 648.929 326.117C648.597 325.792 648.088 325.549 647.402 325.389L645.129 324.857C643.88 324.561 642.963 324.102 642.377 323.48C641.797 322.853 641.507 322.069 641.507 321.128C641.507 320.358 641.723 319.678 642.155 319.086C642.593 318.494 643.188 318.029 643.939 317.692C644.697 317.355 645.555 317.186 646.514 317.186C647.863 317.186 648.923 317.482 649.692 318.074C650.467 318.666 651.018 319.447 651.343 320.418ZM656.841 312.818V331H654.746V312.818H656.841ZM664.691 331.32C663.827 331.32 663.043 331.157 662.339 330.831C661.634 330.5 661.075 330.023 660.661 329.402C660.246 328.775 660.039 328.017 660.039 327.129C660.039 326.348 660.193 325.715 660.501 325.229C660.809 324.738 661.22 324.353 661.735 324.075C662.25 323.797 662.818 323.59 663.439 323.454C664.067 323.312 664.697 323.199 665.33 323.116C666.159 323.01 666.831 322.93 667.346 322.877C667.866 322.818 668.245 322.72 668.482 322.584C668.725 322.448 668.846 322.211 668.846 321.874V321.803C668.846 320.927 668.606 320.246 668.127 319.761C667.653 319.275 666.934 319.033 665.97 319.033C664.969 319.033 664.185 319.252 663.617 319.69C663.049 320.128 662.649 320.595 662.418 321.092L660.43 320.382C660.785 319.554 661.258 318.908 661.85 318.447C662.448 317.979 663.099 317.654 663.803 317.47C664.514 317.281 665.212 317.186 665.899 317.186C666.336 317.186 666.84 317.239 667.408 317.346C667.982 317.446 668.535 317.657 669.068 317.976C669.607 318.296 670.053 318.778 670.408 319.423C670.764 320.068 670.941 320.933 670.941 322.016V331H668.846V329.153H668.739C668.597 329.449 668.361 329.766 668.029 330.103C667.698 330.441 667.257 330.728 666.706 330.964C666.156 331.201 665.484 331.32 664.691 331.32ZM665.011 329.438C665.839 329.438 666.538 329.275 667.106 328.949C667.68 328.624 668.112 328.203 668.402 327.689C668.698 327.174 668.846 326.632 668.846 326.064V324.146C668.757 324.253 668.562 324.35 668.26 324.439C667.964 324.522 667.621 324.596 667.23 324.661C666.845 324.72 666.47 324.774 666.103 324.821C665.742 324.862 665.449 324.898 665.224 324.928C664.679 324.999 664.17 325.114 663.697 325.274C663.229 325.428 662.85 325.661 662.56 325.975C662.276 326.283 662.134 326.703 662.134 327.236C662.134 327.964 662.404 328.514 662.942 328.887C663.487 329.254 664.176 329.438 665.011 329.438ZM676.86 322.797V331H674.765V317.364H676.789V319.494H676.967C677.287 318.802 677.772 318.246 678.423 317.825C679.074 317.399 679.914 317.186 680.944 317.186C681.868 317.186 682.675 317.375 683.368 317.754C684.06 318.127 684.599 318.695 684.984 319.459C685.368 320.216 685.561 321.175 685.561 322.335V331H683.466V322.477C683.466 321.406 683.187 320.571 682.631 319.974C682.075 319.37 681.311 319.068 680.341 319.068C679.672 319.068 679.074 319.213 678.547 319.503C678.026 319.793 677.615 320.216 677.313 320.773C677.011 321.329 676.86 322.004 676.86 322.797ZM694.538 331.284C693.402 331.284 692.399 330.997 691.529 330.423C690.659 329.843 689.978 329.026 689.487 327.973C688.996 326.913 688.75 325.661 688.75 324.217C688.75 322.785 688.996 321.542 689.487 320.489C689.978 319.435 690.662 318.621 691.538 318.047C692.414 317.473 693.426 317.186 694.574 317.186C695.462 317.186 696.163 317.334 696.678 317.63C697.199 317.92 697.595 318.251 697.868 318.624C698.146 318.991 698.362 319.293 698.516 319.53H698.693V312.818H700.788V331H698.764V328.905H698.516C698.362 329.153 698.143 329.467 697.859 329.846C697.575 330.219 697.169 330.553 696.642 330.849C696.116 331.139 695.414 331.284 694.538 331.284ZM694.823 329.402C695.663 329.402 696.373 329.183 696.953 328.745C697.533 328.301 697.974 327.689 698.276 326.907C698.578 326.12 698.729 325.212 698.729 324.182C698.729 323.164 698.581 322.273 698.285 321.51C697.989 320.74 697.551 320.142 696.971 319.716C696.391 319.284 695.675 319.068 694.823 319.068C693.935 319.068 693.195 319.296 692.603 319.752C692.017 320.202 691.576 320.814 691.28 321.589C690.99 322.359 690.845 323.223 690.845 324.182C690.845 325.152 690.993 326.034 691.289 326.827C691.591 327.615 692.035 328.242 692.621 328.71C693.213 329.171 693.947 329.402 694.823 329.402Z" fill="black"/>
<circle cx="857.511" cy="305.511" r="9.01136" fill="#FFE587" stroke="black"/>
<circle cx="855.511" cy="325.511" r="9.01136" fill="#FFE587" stroke="black"/>
<circle cx="560.511" cy="380.511" r="9.01136" fill="#FFE587" stroke="black"/>
<circle cx="628.511" cy="348.511" r="9.01136" fill="#FFE587" stroke="black"/>
<circle cx="625.511" cy="393.511" r="9.01136" fill="#FFE587" stroke="black"/>
<circle cx="717.511" cy="209.511" r="9.01136" fill="#FFE587" stroke="black"/>
<defs>
<filter id="filter0_d_181_126" x="88.5" y="86.4995" width="833.708" height="387.001" filterUnits="userSpaceOnUse" color-interpolation-filters="sRGB">
<feFlood flood-opacity="0" result="BackgroundImageFix"/>
<feColorMatrix in="SourceAlpha" type="matrix" values="0 0 0 0 0 0 0 0 0 0 0 0 0 0 0 0 0 0 127 0" result="hardAlpha"/>
<feOffset dy="4"/>
<feGaussianBlur stdDeviation="2"/>
<feComposite in2="hardAlpha" operator="out"/>
<feColorMatrix type="matrix" values="0 0 0 0 0 0 0 0 0 0 0 0 0 0 0 0 0 0 0.25 0"/>
<feBlend mode="normal" in2="BackgroundImageFix" result="effect1_dropShadow_181_126"/>
<feBlend mode="normal" in="SourceGraphic" in2="effect1_dropShadow_181_126" result="shape"/>
</filter>
</defs>
</svg>
