<svg width="680" height="874" viewBox="0 0 680 874" fill="none" xmlns="http://www.w3.org/2000/svg">
<rect x="0.5" y="0.5" width="679" height="873" rx="35.5" fill="#8DDBFF" stroke="#717171"/>
<g filter="url(#filter0_d_224_265)">
<path d="M561.5 84L79 84.5V404L89 412.5L202 514.5L311.5 615L415 713.5L513.5 809.5V806L516 804L514 801.5L513.5 799.5L514.5 798L518 797.5L518.5 794.5L518 787.5L516 774.5L510.5 762L511.5 758L511 754.5L511.5 749L510.5 747L509.5 742L508 739.5L508.5 734.5L508 731.5V726.5L509.5 725L510.5 722.5L506 717L505 711.5L504.5 706.5L505.5 702.5L509.5 700L513 698.5L518.5 696L522 695.5L525 697L527 699C527.5 699.5 531 695.5 531.5 695.5C531.9 695.5 534.333 696.167 535.5 696.5V700L538.5 703L541 704.5L546 708.5H551L554.5 704L557 699L558.5 695.5L561 691L561.5 84Z" fill="#FFD597"/>
<path d="M561.5 84L79 84.5V404L89 412.5L202 514.5L311.5 615L415 713.5L513.5 809.5V806L516 804L514 801.5L513.5 799.5L514.5 798L518 797.5L518.5 794.5L518 787.5L516 774.5L510.5 762L511.5 758L511 754.5L511.5 749L510.5 747L509.5 742L508 739.5L508.5 734.5L508 731.5V726.5L509.5 725L510.5 722.5L506 717L505 711.5L504.5 706.5L505.5 702.5L509.5 700L513 698.5L518.5 696L522 695.5L525 697L527 699C527.5 699.5 531 695.5 531.5 695.5C531.9 695.5 534.333 696.167 535.5 696.5V700L538.5 703L541 704.5L546 708.5H551L554.5 704L557 699L558.5 695.5L561 691L561.5 84Z" stroke="black"/>
</g>
<path d="M595.724 343.545H598.886V354.949C598.886 356.199 598.591 357.298 598 358.247C597.415 359.196 596.591 359.937 595.528 360.472C594.466 361 593.224 361.264 591.804 361.264C590.378 361.264 589.134 361 588.071 360.472C587.009 359.937 586.185 359.196 585.599 358.247C585.014 357.298 584.722 356.199 584.722 354.949V343.545H587.884V354.685C587.884 355.412 588.043 356.06 588.361 356.628C588.685 357.196 589.139 357.642 589.724 357.966C590.31 358.284 591.003 358.443 591.804 358.443C592.605 358.443 593.298 358.284 593.884 357.966C594.474 357.642 594.929 357.196 595.247 356.628C595.565 356.06 595.724 355.412 595.724 354.685V343.545ZM601.556 346.196V343.545H615.482V346.196H610.087V361H606.951V346.196H601.556Z" fill="#005A5E"/>
<path d="M586.963 751H583.588L589.733 733.545H593.636L599.79 751H596.415L591.753 737.125H591.616L586.963 751ZM587.074 744.156H596.278V746.696H587.074V744.156ZM601.765 751V749.031L610.714 736.196H601.714V733.545H614.634V735.514L605.694 748.349H614.685V751H601.765Z" fill="#005A5E"/>
<path d="M187.662 594.435H184.474C184.384 593.912 184.216 593.449 183.972 593.045C183.727 592.636 183.423 592.29 183.06 592.006C182.696 591.722 182.281 591.509 181.815 591.366C181.355 591.219 180.858 591.145 180.324 591.145C179.375 591.145 178.534 591.384 177.801 591.861C177.068 592.332 176.494 593.026 176.08 593.94C175.665 594.849 175.457 595.96 175.457 597.273C175.457 598.608 175.665 599.733 176.08 600.648C176.5 601.557 177.074 602.244 177.801 602.71C178.534 603.17 179.372 603.401 180.315 603.401C180.838 603.401 181.327 603.332 181.781 603.196C182.241 603.054 182.653 602.847 183.017 602.574C183.386 602.301 183.696 601.966 183.946 601.568C184.202 601.17 184.378 600.716 184.474 600.205L187.662 600.222C187.543 601.051 187.284 601.83 186.886 602.557C186.494 603.284 185.98 603.926 185.344 604.483C184.707 605.034 183.963 605.466 183.111 605.778C182.259 606.085 181.313 606.239 180.273 606.239C178.739 606.239 177.369 605.884 176.165 605.173C174.96 604.463 174.011 603.438 173.318 602.097C172.625 600.756 172.278 599.148 172.278 597.273C172.278 595.392 172.628 593.784 173.327 592.449C174.026 591.108 174.977 590.082 176.182 589.372C177.386 588.662 178.75 588.307 180.273 588.307C181.244 588.307 182.148 588.443 182.983 588.716C183.818 588.989 184.563 589.389 185.216 589.918C185.869 590.44 186.406 591.082 186.827 591.844C187.253 592.599 187.531 593.463 187.662 594.435ZM192.588 606H189.213L195.358 588.545H199.261L205.415 606H202.04L197.378 592.125H197.241L192.588 606ZM192.699 599.156H201.903V601.696H192.699V599.156Z" fill="#005A5E"/>
<path d="M474.884 43.5455V61H471.722V43.5455H474.884ZM484.222 61H478.308V43.5455H484.342C486.075 43.5455 487.563 43.8949 488.808 44.5938C490.058 45.2869 491.018 46.2841 491.688 47.5852C492.359 48.8864 492.694 50.4432 492.694 52.2557C492.694 54.0739 492.356 55.6364 491.68 56.9432C491.009 58.25 490.04 59.2528 488.773 59.9517C487.512 60.6506 485.995 61 484.222 61ZM481.469 58.2642H484.069C485.285 58.2642 486.299 58.0426 487.112 57.5994C487.924 57.1506 488.535 56.483 488.944 55.5966C489.353 54.7045 489.558 53.5909 489.558 52.2557C489.558 50.9205 489.353 49.8125 488.944 48.9318C488.535 48.0455 487.93 47.3835 487.129 46.946C486.333 46.5028 485.344 46.2812 484.163 46.2812H481.469V58.2642Z" fill="#005A5E"/>
<path d="M145.318 52.2727C145.318 54.1534 144.966 55.7642 144.261 57.1051C143.563 58.4403 142.608 59.4631 141.398 60.1733C140.193 60.8835 138.827 61.2386 137.298 61.2386C135.77 61.2386 134.401 60.8835 133.19 60.1733C131.986 59.4574 131.031 58.4318 130.327 57.0966C129.628 55.7557 129.278 54.1477 129.278 52.2727C129.278 50.392 129.628 48.7841 130.327 47.4489C131.031 46.108 131.986 45.0824 133.19 44.3722C134.401 43.6619 135.77 43.3068 137.298 43.3068C138.827 43.3068 140.193 43.6619 141.398 44.3722C142.608 45.0824 143.563 46.108 144.261 47.4489C144.966 48.7841 145.318 50.392 145.318 52.2727ZM142.139 52.2727C142.139 50.9489 141.932 49.8324 141.517 48.9233C141.108 48.0085 140.54 47.3182 139.812 46.8523C139.085 46.3807 138.247 46.1449 137.298 46.1449C136.349 46.1449 135.511 46.3807 134.784 46.8523C134.057 47.3182 133.486 48.0085 133.071 48.9233C132.662 49.8324 132.457 50.9489 132.457 52.2727C132.457 53.5966 132.662 54.7159 133.071 55.6307C133.486 56.5398 134.057 57.2301 134.784 57.7017C135.511 58.1676 136.349 58.4006 137.298 58.4006C138.247 58.4006 139.085 58.1676 139.812 57.7017C140.54 57.2301 141.108 56.5398 141.517 55.6307C141.932 54.7159 142.139 53.5966 142.139 52.2727ZM148.308 61V43.5455H154.853C156.194 43.5455 157.319 43.7784 158.228 44.2443C159.143 44.7102 159.833 45.3636 160.299 46.2045C160.771 47.0398 161.006 48.0142 161.006 49.1278C161.006 50.2472 160.768 51.2187 160.29 52.0426C159.819 52.8608 159.123 53.4943 158.202 53.9432C157.282 54.3864 156.151 54.608 154.81 54.608H150.148V51.983H154.384C155.168 51.983 155.81 51.875 156.31 51.6591C156.81 51.4375 157.18 51.1165 157.418 50.696C157.663 50.2699 157.785 49.7472 157.785 49.1278C157.785 48.5085 157.663 47.9801 157.418 47.5426C157.174 47.0994 156.802 46.7642 156.302 46.5369C155.802 46.304 155.157 46.1875 154.367 46.1875H151.469V61H148.308ZM157.325 53.0909L161.646 61H158.117L153.873 53.0909H157.325Z" fill="#005A5E"/>
<circle cx="97.5114" cy="380.511" r="9.01136" fill="#FF8F87" stroke="black"/>
<path d="M129.623 378.184H125.734C125.663 377.681 125.518 377.234 125.299 376.843C125.08 376.446 124.799 376.109 124.456 375.831C124.112 375.553 123.716 375.34 123.266 375.192C122.822 375.044 122.34 374.97 121.819 374.97C120.878 374.97 120.058 375.204 119.36 375.671C118.661 376.133 118.12 376.808 117.735 377.695C117.35 378.577 117.158 379.648 117.158 380.909C117.158 382.205 117.35 383.294 117.735 384.176C118.126 385.058 118.67 385.724 119.369 386.174C120.067 386.623 120.875 386.848 121.792 386.848C122.307 386.848 122.784 386.78 123.222 386.644C123.665 386.508 124.059 386.31 124.402 386.049C124.746 385.783 125.03 385.46 125.255 385.082C125.485 384.703 125.645 384.271 125.734 383.786L129.623 383.803C129.522 384.638 129.27 385.443 128.868 386.218C128.471 386.987 127.936 387.677 127.261 388.287C126.592 388.89 125.793 389.37 124.864 389.725C123.941 390.074 122.896 390.249 121.73 390.249C120.108 390.249 118.658 389.882 117.38 389.148C116.107 388.414 115.101 387.351 114.362 385.961C113.628 384.57 113.261 382.886 113.261 380.909C113.261 378.926 113.634 377.24 114.379 375.849C115.125 374.458 116.137 373.398 117.415 372.67C118.694 371.937 120.132 371.57 121.73 371.57C122.784 371.57 123.76 371.718 124.66 372.013C125.565 372.309 126.367 372.741 127.066 373.31C127.764 373.872 128.332 374.561 128.77 375.378C129.214 376.195 129.498 377.13 129.623 378.184ZM136.197 390.257C135.327 390.257 134.551 390.107 133.871 389.805C133.19 389.497 132.651 389.044 132.255 388.446C131.864 387.843 131.669 387.091 131.669 386.191C131.669 385.434 131.808 384.798 132.086 384.283C132.364 383.768 132.743 383.353 133.222 383.04C133.702 382.726 134.246 382.489 134.856 382.33C135.472 382.17 136.117 382.057 136.791 381.992C137.584 381.909 138.224 381.832 138.709 381.761C139.194 381.684 139.546 381.572 139.765 381.424C139.984 381.276 140.094 381.057 140.094 380.767V380.714C140.094 380.152 139.916 379.717 139.561 379.409C139.212 379.101 138.715 378.947 138.07 378.947C137.389 378.947 136.848 379.098 136.445 379.4C136.043 379.696 135.776 380.069 135.646 380.518L132.148 380.234C132.326 379.406 132.675 378.69 133.196 378.086C133.717 377.476 134.388 377.009 135.211 376.683C136.04 376.352 136.999 376.186 138.088 376.186C138.845 376.186 139.57 376.275 140.263 376.452C140.961 376.63 141.579 376.905 142.118 377.278C142.663 377.651 143.092 378.13 143.405 378.716C143.719 379.296 143.876 379.992 143.876 380.803V390H140.289V388.109H140.183C139.964 388.535 139.671 388.911 139.304 389.237C138.937 389.556 138.496 389.808 137.981 389.991C137.466 390.169 136.871 390.257 136.197 390.257ZM137.28 387.647C137.836 387.647 138.327 387.538 138.753 387.319C139.18 387.094 139.514 386.792 139.757 386.413C139.999 386.035 140.121 385.605 140.121 385.126V383.679C140.002 383.756 139.839 383.827 139.632 383.892C139.431 383.951 139.203 384.007 138.949 384.061C138.694 384.108 138.44 384.152 138.185 384.194C137.931 384.229 137.7 384.262 137.493 384.292C137.049 384.357 136.661 384.46 136.33 384.602C135.998 384.744 135.741 384.937 135.557 385.179C135.374 385.416 135.282 385.712 135.282 386.067C135.282 386.582 135.469 386.976 135.841 387.248C136.22 387.514 136.7 387.647 137.28 387.647ZM146.81 390V376.364H150.477V378.743H150.619C150.867 377.897 151.284 377.257 151.87 376.825C152.456 376.387 153.131 376.168 153.895 376.168C154.084 376.168 154.288 376.18 154.507 376.204C154.726 376.228 154.918 376.26 155.084 376.301V379.657C154.907 379.604 154.661 379.557 154.347 379.515C154.034 379.474 153.747 379.453 153.486 379.453C152.93 379.453 152.433 379.574 151.995 379.817C151.563 380.054 151.219 380.385 150.965 380.811C150.716 381.238 150.592 381.729 150.592 382.285V390H146.81ZM168.385 380.252L164.923 380.465C164.864 380.169 164.737 379.903 164.541 379.666C164.346 379.424 164.089 379.231 163.769 379.089C163.455 378.941 163.079 378.867 162.641 378.867C162.055 378.867 161.561 378.991 161.159 379.24C160.756 379.483 160.555 379.808 160.555 380.217C160.555 380.542 160.685 380.817 160.946 381.042C161.206 381.267 161.653 381.448 162.286 381.584L164.754 382.081C166.08 382.353 167.069 382.791 167.72 383.395C168.371 383.999 168.696 384.792 168.696 385.774C168.696 386.668 168.433 387.452 167.906 388.127C167.385 388.801 166.669 389.328 165.758 389.707C164.852 390.08 163.807 390.266 162.624 390.266C160.819 390.266 159.38 389.891 158.309 389.139C157.244 388.381 156.619 387.351 156.436 386.049L160.156 385.854C160.268 386.404 160.54 386.825 160.972 387.115C161.404 387.399 161.958 387.541 162.633 387.541C163.295 387.541 163.828 387.414 164.231 387.159C164.639 386.899 164.846 386.564 164.852 386.156C164.846 385.813 164.701 385.531 164.417 385.312C164.133 385.088 163.695 384.916 163.103 384.798L160.742 384.327C159.41 384.061 158.419 383.599 157.767 382.942C157.122 382.285 156.8 381.448 156.8 380.43C156.8 379.554 157.037 378.799 157.51 378.166C157.989 377.533 158.661 377.044 159.525 376.701C160.395 376.358 161.413 376.186 162.579 376.186C164.302 376.186 165.657 376.55 166.645 377.278C167.64 378.006 168.22 378.997 168.385 380.252ZM177.239 390.266C175.86 390.266 174.667 389.973 173.661 389.387C172.661 388.796 171.888 387.973 171.344 386.919C170.799 385.86 170.527 384.632 170.527 383.235C170.527 381.826 170.799 380.595 171.344 379.542C171.888 378.482 172.661 377.66 173.661 377.074C174.667 376.482 175.86 376.186 177.239 376.186C178.618 376.186 179.807 376.482 180.808 377.074C181.814 377.66 182.589 378.482 183.134 379.542C183.678 380.595 183.95 381.826 183.95 383.235C183.95 384.632 183.678 385.86 183.134 386.919C182.589 387.973 181.814 388.796 180.808 389.387C179.807 389.973 178.618 390.266 177.239 390.266ZM177.257 387.337C177.884 387.337 178.408 387.159 178.828 386.804C179.248 386.443 179.565 385.952 179.778 385.33C179.997 384.709 180.106 384.002 180.106 383.208C180.106 382.415 179.997 381.708 179.778 381.087C179.565 380.465 179.248 379.974 178.828 379.613C178.408 379.252 177.884 379.071 177.257 379.071C176.623 379.071 176.091 379.252 175.659 379.613C175.232 379.974 174.91 380.465 174.691 381.087C174.478 381.708 174.371 382.415 174.371 383.208C174.371 384.002 174.478 384.709 174.691 385.33C174.91 385.952 175.232 386.443 175.659 386.804C176.091 387.159 176.623 387.337 177.257 387.337ZM190.192 382.116V390H186.41V376.364H190.014V378.77H190.174C190.476 377.976 190.982 377.349 191.692 376.887C192.402 376.42 193.263 376.186 194.275 376.186C195.222 376.186 196.048 376.393 196.752 376.808C197.457 377.222 198.004 377.814 198.395 378.583C198.785 379.347 198.981 380.258 198.981 381.317V390H195.199V381.992C195.205 381.158 194.992 380.507 194.559 380.039C194.127 379.566 193.533 379.329 192.775 379.329C192.266 379.329 191.816 379.438 191.426 379.657C191.041 379.876 190.739 380.196 190.52 380.616C190.307 381.03 190.198 381.531 190.192 382.116ZM223.861 378.184H219.972C219.901 377.681 219.756 377.234 219.537 376.843C219.318 376.446 219.037 376.109 218.694 375.831C218.351 375.553 217.954 375.34 217.504 375.192C217.06 375.044 216.578 374.97 216.057 374.97C215.116 374.97 214.296 375.204 213.598 375.671C212.9 376.133 212.358 376.808 211.973 377.695C211.589 378.577 211.396 379.648 211.396 380.909C211.396 382.205 211.589 383.294 211.973 384.176C212.364 385.058 212.908 385.724 213.607 386.174C214.305 386.623 215.113 386.848 216.031 386.848C216.545 386.848 217.022 386.78 217.46 386.644C217.904 386.508 218.297 386.31 218.641 386.049C218.984 385.783 219.268 385.46 219.493 385.082C219.724 384.703 219.884 384.271 219.972 383.786L223.861 383.803C223.76 384.638 223.509 385.443 223.106 386.218C222.71 386.987 222.174 387.677 221.499 388.287C220.83 388.89 220.031 389.37 219.102 389.725C218.179 390.074 217.134 390.249 215.968 390.249C214.347 390.249 212.897 389.882 211.618 389.148C210.346 388.414 209.34 387.351 208.6 385.961C207.866 384.57 207.499 382.886 207.499 380.909C207.499 378.926 207.872 377.24 208.618 375.849C209.363 374.458 210.375 373.398 211.654 372.67C212.932 371.937 214.37 371.57 215.968 371.57C217.022 371.57 217.998 371.718 218.898 372.013C219.804 372.309 220.606 372.741 221.304 373.31C222.002 373.872 222.571 374.561 223.009 375.378C223.452 376.195 223.737 377.13 223.861 378.184ZM226.546 390V376.364H230.328V390H226.546ZM228.446 374.606C227.884 374.606 227.402 374.419 226.999 374.047C226.603 373.668 226.404 373.215 226.404 372.688C226.404 372.167 226.603 371.721 226.999 371.348C227.402 370.969 227.884 370.779 228.446 370.779C229.008 370.779 229.488 370.969 229.884 371.348C230.287 371.721 230.488 372.167 230.488 372.688C230.488 373.215 230.287 373.668 229.884 374.047C229.488 374.419 229.008 374.606 228.446 374.606ZM240.611 376.364V379.205H232.399V376.364H240.611ZM234.263 373.097H238.045V385.81C238.045 386.159 238.099 386.431 238.205 386.626C238.312 386.816 238.46 386.949 238.649 387.026C238.844 387.103 239.069 387.141 239.324 387.141C239.501 387.141 239.679 387.127 239.856 387.097C240.034 387.061 240.17 387.035 240.265 387.017L240.86 389.831C240.67 389.891 240.404 389.959 240.061 390.036C239.717 390.118 239.3 390.169 238.809 390.186C237.897 390.222 237.098 390.101 236.412 389.822C235.731 389.544 235.201 389.112 234.823 388.526C234.444 387.94 234.257 387.201 234.263 386.307V373.097ZM245.41 395.114C244.93 395.114 244.48 395.075 244.06 394.998C243.646 394.927 243.303 394.835 243.03 394.723L243.883 391.9C244.326 392.036 244.726 392.11 245.081 392.122C245.442 392.134 245.753 392.051 246.013 391.873C246.28 391.696 246.496 391.394 246.661 390.968L246.883 390.391L241.992 376.364H245.969L248.792 386.378H248.934L251.784 376.364H255.788L250.488 391.474C250.233 392.208 249.887 392.847 249.449 393.391C249.017 393.942 248.469 394.365 247.807 394.661C247.144 394.963 246.345 395.114 245.41 395.114Z" fill="black"/>
<path d="M422.202 671V652.818H424.403V669.047H432.855V671H422.202ZM439.993 671.32C439.129 671.32 438.345 671.157 437.64 670.831C436.936 670.5 436.377 670.023 435.962 669.402C435.548 668.775 435.341 668.017 435.341 667.129C435.341 666.348 435.495 665.715 435.803 665.229C436.11 664.738 436.522 664.353 437.037 664.075C437.551 663.797 438.12 663.59 438.741 663.454C439.368 663.312 439.999 663.199 440.632 663.116C441.461 663.01 442.132 662.93 442.647 662.877C443.168 662.818 443.547 662.72 443.784 662.584C444.026 662.448 444.148 662.211 444.148 661.874V661.803C444.148 660.927 443.908 660.246 443.429 659.761C442.955 659.275 442.236 659.033 441.271 659.033C440.271 659.033 439.487 659.252 438.919 659.69C438.35 660.128 437.951 660.595 437.72 661.092L435.732 660.382C436.087 659.554 436.56 658.908 437.152 658.447C437.75 657.979 438.401 657.654 439.105 657.47C439.815 657.281 440.514 657.186 441.2 657.186C441.638 657.186 442.141 657.239 442.71 657.346C443.284 657.446 443.837 657.657 444.37 657.976C444.908 658.296 445.355 658.778 445.71 659.423C446.065 660.068 446.243 660.933 446.243 662.016V671H444.148V669.153H444.041C443.899 669.449 443.662 669.766 443.331 670.103C443 670.441 442.559 670.728 442.008 670.964C441.458 671.201 440.786 671.32 439.993 671.32ZM440.312 669.438C441.141 669.438 441.839 669.275 442.408 668.949C442.982 668.624 443.414 668.203 443.704 667.689C444 667.174 444.148 666.632 444.148 666.064V664.146C444.059 664.253 443.864 664.35 443.562 664.439C443.266 664.522 442.923 664.596 442.532 664.661C442.147 664.72 441.771 664.774 441.404 664.821C441.043 664.862 440.75 664.898 440.526 664.928C439.981 664.999 439.472 665.114 438.999 665.274C438.531 665.428 438.152 665.661 437.862 665.975C437.578 666.283 437.436 666.703 437.436 667.236C437.436 667.964 437.705 668.514 438.244 668.887C438.788 669.254 439.478 669.438 440.312 669.438ZM459.726 660.418L457.844 660.95C457.726 660.637 457.551 660.332 457.32 660.036C457.095 659.734 456.788 659.485 456.397 659.29C456.006 659.095 455.506 658.997 454.897 658.997C454.062 658.997 453.367 659.19 452.81 659.574C452.26 659.953 451.985 660.435 451.985 661.021C451.985 661.542 452.174 661.953 452.553 662.255C452.932 662.557 453.523 662.809 454.328 663.01L456.353 663.507C457.572 663.803 458.48 664.256 459.078 664.865C459.676 665.469 459.975 666.247 459.975 667.2C459.975 667.982 459.75 668.68 459.3 669.295C458.856 669.911 458.235 670.396 457.436 670.751C456.637 671.107 455.707 671.284 454.648 671.284C453.257 671.284 452.106 670.982 451.195 670.379C450.283 669.775 449.706 668.893 449.463 667.733L451.452 667.236C451.641 667.97 451.999 668.52 452.526 668.887C453.059 669.254 453.754 669.438 454.612 669.438C455.589 669.438 456.364 669.23 456.938 668.816C457.518 668.396 457.809 667.893 457.809 667.307C457.809 666.833 457.643 666.437 457.311 666.117C456.98 665.792 456.471 665.549 455.784 665.389L453.512 664.857C452.263 664.561 451.345 664.102 450.759 663.48C450.179 662.853 449.889 662.069 449.889 661.128C449.889 660.358 450.105 659.678 450.538 659.086C450.976 658.494 451.57 658.029 452.322 657.692C453.08 657.355 453.938 657.186 454.897 657.186C456.246 657.186 457.305 657.482 458.075 658.074C458.85 658.666 459.401 659.447 459.726 660.418ZM471.19 652.818L476.587 668.124H476.8L482.198 652.818H484.506L477.83 671H475.558L468.881 652.818H471.19ZM491.502 671.284C490.188 671.284 489.055 670.994 488.102 670.414C487.155 669.828 486.424 669.011 485.909 667.964C485.4 666.91 485.146 665.685 485.146 664.288C485.146 662.892 485.4 661.661 485.909 660.595C486.424 659.524 487.14 658.689 488.058 658.092C488.981 657.488 490.058 657.186 491.289 657.186C491.999 657.186 492.701 657.304 493.393 657.541C494.086 657.778 494.716 658.163 495.284 658.695C495.852 659.222 496.305 659.92 496.642 660.79C496.98 661.661 497.148 662.732 497.148 664.004V664.892H486.637V663.081H495.018C495.018 662.312 494.864 661.625 494.556 661.021C494.254 660.418 493.822 659.941 493.26 659.592C492.704 659.243 492.047 659.068 491.289 659.068C490.455 659.068 489.732 659.275 489.123 659.69C488.519 660.098 488.055 660.631 487.729 661.288C487.404 661.945 487.241 662.649 487.241 663.401V664.608C487.241 665.638 487.418 666.511 487.773 667.227C488.134 667.937 488.635 668.479 489.274 668.852C489.913 669.219 490.656 669.402 491.502 669.402C492.053 669.402 492.55 669.325 492.994 669.171C493.443 669.011 493.831 668.775 494.157 668.461C494.482 668.141 494.734 667.745 494.911 667.271L496.935 667.839C496.722 668.526 496.364 669.13 495.861 669.651C495.358 670.165 494.737 670.568 493.997 670.858C493.257 671.142 492.425 671.284 491.502 671.284ZM505.84 676.398C504.828 676.398 503.958 676.268 503.23 676.007C502.502 675.753 501.895 675.415 501.41 674.995C500.93 674.581 500.549 674.137 500.265 673.663L501.934 672.491C502.123 672.74 502.363 673.024 502.653 673.344C502.943 673.669 503.339 673.95 503.842 674.187C504.351 674.43 505.017 674.551 505.84 674.551C506.941 674.551 507.849 674.285 508.565 673.752C509.281 673.219 509.64 672.385 509.64 671.249V668.479H509.462C509.308 668.727 509.089 669.035 508.805 669.402C508.527 669.763 508.124 670.086 507.598 670.37C507.077 670.648 506.373 670.787 505.485 670.787C504.384 670.787 503.395 670.527 502.52 670.006C501.65 669.485 500.96 668.727 500.451 667.733C499.948 666.739 499.696 665.531 499.696 664.111C499.696 662.714 499.942 661.498 500.433 660.462C500.924 659.42 501.608 658.615 502.484 658.047C503.36 657.473 504.372 657.186 505.52 657.186C506.408 657.186 507.112 657.334 507.633 657.63C508.16 657.92 508.562 658.251 508.841 658.624C509.125 658.991 509.344 659.293 509.498 659.53H509.711V657.364H511.735V671.391C511.735 672.562 511.468 673.515 510.936 674.249C510.409 674.989 509.699 675.531 508.805 675.874C507.917 676.223 506.929 676.398 505.84 676.398ZM505.769 668.905C506.609 668.905 507.319 668.712 507.9 668.328C508.48 667.943 508.92 667.39 509.222 666.668C509.524 665.946 509.675 665.081 509.675 664.075C509.675 663.093 509.527 662.226 509.231 661.474C508.935 660.722 508.497 660.134 507.917 659.707C507.337 659.281 506.621 659.068 505.769 659.068C504.881 659.068 504.141 659.293 503.549 659.743C502.963 660.193 502.522 660.796 502.227 661.554C501.937 662.312 501.792 663.152 501.792 664.075C501.792 665.022 501.94 665.86 502.235 666.588C502.537 667.31 502.981 667.878 503.567 668.292C504.159 668.701 504.893 668.905 505.769 668.905ZM519.583 671.32C518.719 671.32 517.934 671.157 517.23 670.831C516.526 670.5 515.967 670.023 515.552 669.402C515.138 668.775 514.931 668.017 514.931 667.129C514.931 666.348 515.085 665.715 515.392 665.229C515.7 664.738 516.112 664.353 516.626 664.075C517.141 663.797 517.71 663.59 518.331 663.454C518.958 663.312 519.589 663.199 520.222 663.116C521.051 663.01 521.722 662.93 522.237 662.877C522.758 662.818 523.137 662.72 523.374 662.584C523.616 662.448 523.738 662.211 523.738 661.874V661.803C523.738 660.927 523.498 660.246 523.018 659.761C522.545 659.275 521.826 659.033 520.861 659.033C519.861 659.033 519.077 659.252 518.509 659.69C517.94 660.128 517.541 660.595 517.31 661.092L515.321 660.382C515.676 659.554 516.15 658.908 516.742 658.447C517.34 657.979 517.991 657.654 518.695 657.47C519.405 657.281 520.104 657.186 520.79 657.186C521.228 657.186 521.731 657.239 522.299 657.346C522.873 657.446 523.427 657.657 523.96 657.976C524.498 658.296 524.945 658.778 525.3 659.423C525.655 660.068 525.833 660.933 525.833 662.016V671H523.738V669.153H523.631C523.489 669.449 523.252 669.766 522.921 670.103C522.589 670.441 522.148 670.728 521.598 670.964C521.048 671.201 520.376 671.32 519.583 671.32ZM519.902 669.438C520.731 669.438 521.429 669.275 521.998 668.949C522.572 668.624 523.004 668.203 523.294 667.689C523.59 667.174 523.738 666.632 523.738 666.064V664.146C523.649 664.253 523.453 664.35 523.152 664.439C522.856 664.522 522.512 664.596 522.122 664.661C521.737 664.72 521.361 664.774 520.994 664.821C520.633 664.862 520.34 664.898 520.115 664.928C519.571 664.999 519.062 665.114 518.588 665.274C518.121 665.428 517.742 665.661 517.452 665.975C517.168 666.283 517.026 666.703 517.026 667.236C517.026 667.964 517.295 668.514 517.834 668.887C518.378 669.254 519.068 669.438 519.902 669.438ZM539.316 660.418L537.434 660.95C537.315 660.637 537.141 660.332 536.91 660.036C536.685 659.734 536.377 659.485 535.987 659.29C535.596 659.095 535.096 658.997 534.486 658.997C533.652 658.997 532.956 659.19 532.4 659.574C531.85 659.953 531.574 660.435 531.574 661.021C531.574 661.542 531.764 661.953 532.143 662.255C532.521 662.557 533.113 662.809 533.918 663.01L535.942 663.507C537.162 663.803 538.07 664.256 538.668 664.865C539.266 665.469 539.565 666.247 539.565 667.2C539.565 667.982 539.34 668.68 538.89 669.295C538.446 669.911 537.824 670.396 537.025 670.751C536.226 671.107 535.297 671.284 534.238 671.284C532.847 671.284 531.696 670.982 530.784 670.379C529.873 669.775 529.296 668.893 529.053 667.733L531.042 667.236C531.231 667.97 531.589 668.52 532.116 668.887C532.649 669.254 533.344 669.438 534.202 669.438C535.179 669.438 535.954 669.23 536.528 668.816C537.108 668.396 537.398 667.893 537.398 667.307C537.398 666.833 537.233 666.437 536.901 666.117C536.57 665.792 536.061 665.549 535.374 665.389L533.101 664.857C531.853 664.561 530.935 664.102 530.349 663.48C529.769 662.853 529.479 662.069 529.479 661.128C529.479 660.358 529.695 659.678 530.127 659.086C530.565 658.494 531.16 658.029 531.912 657.692C532.669 657.355 533.528 657.186 534.486 657.186C535.836 657.186 536.895 657.482 537.665 658.074C538.44 658.666 538.99 659.447 539.316 660.418Z" fill="black"/>
<path d="M90.2017 327V308.818H96.3452C97.7656 308.818 98.9316 309.061 99.843 309.546C100.754 310.026 101.429 310.685 101.867 311.526C102.305 312.366 102.524 313.322 102.524 314.393C102.524 315.465 102.305 316.415 101.867 317.243C101.429 318.072 100.757 318.723 99.8519 319.196C98.9464 319.664 97.7893 319.898 96.3807 319.898H91.4091V317.909H96.3097C97.2803 317.909 98.0616 317.767 98.6534 317.483C99.2512 317.199 99.6832 316.796 99.9496 316.276C100.222 315.749 100.358 315.121 100.358 314.393C100.358 313.665 100.222 313.029 99.9496 312.485C99.6773 311.94 99.2423 311.52 98.6445 311.224C98.0468 310.922 97.2566 310.771 96.2741 310.771H92.4034V327H90.2017ZM98.7599 318.832L103.234 327H100.678L96.2741 318.832H98.7599ZM111.48 327.284C110.166 327.284 109.032 326.994 108.079 326.414C107.132 325.828 106.402 325.011 105.887 323.964C105.378 322.91 105.123 321.685 105.123 320.288C105.123 318.892 105.378 317.661 105.887 316.595C106.402 315.524 107.118 314.689 108.035 314.092C108.958 313.488 110.036 313.186 111.267 313.186C111.977 313.186 112.678 313.304 113.371 313.541C114.063 313.778 114.693 314.163 115.262 314.695C115.83 315.222 116.283 315.92 116.62 316.79C116.957 317.661 117.126 318.732 117.126 320.004V320.892H106.615V319.081H114.995C114.995 318.312 114.841 317.625 114.534 317.021C114.232 316.418 113.8 315.941 113.237 315.592C112.681 315.243 112.024 315.068 111.267 315.068C110.432 315.068 109.71 315.275 109.1 315.69C108.497 316.098 108.032 316.631 107.707 317.288C107.381 317.945 107.218 318.649 107.218 319.401V320.608C107.218 321.638 107.396 322.511 107.751 323.227C108.112 323.937 108.612 324.479 109.251 324.852C109.891 325.219 110.633 325.402 111.48 325.402C112.03 325.402 112.527 325.325 112.971 325.171C113.421 325.011 113.809 324.775 114.134 324.461C114.46 324.141 114.711 323.745 114.889 323.271L116.913 323.839C116.7 324.526 116.342 325.13 115.839 325.651C115.336 326.165 114.714 326.568 113.974 326.858C113.235 327.142 112.403 327.284 111.48 327.284ZM122.408 318.797V327H120.313V313.364H122.337V315.494H122.515C122.834 314.802 123.32 314.246 123.971 313.825C124.622 313.399 125.462 313.186 126.492 313.186C127.415 313.186 128.223 313.375 128.916 313.754C129.608 314.127 130.147 314.695 130.532 315.459C130.916 316.216 131.109 317.175 131.109 318.335V327H129.013V318.477C129.013 317.406 128.735 316.571 128.179 315.974C127.623 315.37 126.859 315.068 125.888 315.068C125.22 315.068 124.622 315.213 124.095 315.503C123.574 315.793 123.163 316.216 122.861 316.773C122.559 317.329 122.408 318.004 122.408 318.797ZM140.477 327.284C139.246 327.284 138.166 326.991 137.237 326.405C136.313 325.819 135.591 325 135.07 323.946C134.555 322.893 134.298 321.661 134.298 320.253C134.298 318.832 134.555 317.592 135.07 316.533C135.591 315.474 136.313 314.651 137.237 314.065C138.166 313.479 139.246 313.186 140.477 313.186C141.708 313.186 142.785 313.479 143.708 314.065C144.638 314.651 145.36 315.474 145.875 316.533C146.395 317.592 146.656 318.832 146.656 320.253C146.656 321.661 146.395 322.893 145.875 323.946C145.36 325 144.638 325.819 143.708 326.405C142.785 326.991 141.708 327.284 140.477 327.284ZM140.477 325.402C141.412 325.402 142.181 325.162 142.785 324.683C143.389 324.203 143.836 323.573 144.126 322.792C144.416 322.011 144.561 321.164 144.561 320.253C144.561 319.341 144.416 318.492 144.126 317.705C143.836 316.918 143.389 316.281 142.785 315.796C142.181 315.311 141.412 315.068 140.477 315.068C139.542 315.068 138.772 315.311 138.169 315.796C137.565 316.281 137.118 316.918 136.828 317.705C136.538 318.492 136.393 319.341 136.393 320.253C136.393 321.164 136.538 322.011 136.828 322.792C137.118 323.573 137.565 324.203 138.169 324.683C138.772 325.162 139.542 325.402 140.477 325.402Z" fill="black"/>
<path d="M400.202 193V174.818H411.175V176.771H402.403V182.915H410.607V184.868H402.403V191.047H411.317V193H400.202ZM416.954 174.818V193H414.859V174.818H416.954ZM422.745 188.028L422.709 185.436H423.135L429.101 179.364H431.694L425.337 185.791H425.16L422.745 188.028ZM420.792 193V174.818H422.887V193H420.792ZM429.456 193L424.13 186.253L425.621 184.797L432.12 193H429.456ZM439.369 193.284C438.137 193.284 437.057 192.991 436.128 192.405C435.205 191.819 434.483 191 433.962 189.946C433.447 188.893 433.19 187.661 433.19 186.253C433.19 184.832 433.447 183.592 433.962 182.533C434.483 181.474 435.205 180.651 436.128 180.065C437.057 179.479 438.137 179.186 439.369 179.186C440.6 179.186 441.677 179.479 442.6 180.065C443.529 180.651 444.251 181.474 444.766 182.533C445.287 183.592 445.547 184.832 445.547 186.253C445.547 187.661 445.287 188.893 444.766 189.946C444.251 191 443.529 191.819 442.6 192.405C441.677 192.991 440.6 193.284 439.369 193.284ZM439.369 191.402C440.304 191.402 441.073 191.162 441.677 190.683C442.28 190.203 442.727 189.573 443.017 188.792C443.307 188.011 443.452 187.164 443.452 186.253C443.452 185.341 443.307 184.492 443.017 183.705C442.727 182.918 442.28 182.281 441.677 181.796C441.073 181.311 440.304 181.068 439.369 181.068C438.433 181.068 437.664 181.311 437.06 181.796C436.457 182.281 436.01 182.918 435.72 183.705C435.43 184.492 435.285 185.341 435.285 186.253C435.285 187.164 435.43 188.011 435.72 188.792C436.01 189.573 436.457 190.203 437.06 190.683C437.664 191.162 438.433 191.402 439.369 191.402Z" fill="black"/>
<path d="M251.207 464.771V462.818H264.844V464.771H259.126V481H256.925V464.771H251.207ZM271.52 481.284C270.289 481.284 269.209 480.991 268.279 480.405C267.356 479.819 266.634 479 266.113 477.946C265.598 476.893 265.341 475.661 265.341 474.253C265.341 472.832 265.598 471.592 266.113 470.533C266.634 469.474 267.356 468.651 268.279 468.065C269.209 467.479 270.289 467.186 271.52 467.186C272.751 467.186 273.828 467.479 274.751 468.065C275.681 468.651 276.403 469.474 276.918 470.533C277.438 471.592 277.699 472.832 277.699 474.253C277.699 475.661 277.438 476.893 276.918 477.946C276.403 479 275.681 479.819 274.751 480.405C273.828 480.991 272.751 481.284 271.52 481.284ZM271.52 479.402C272.455 479.402 273.224 479.162 273.828 478.683C274.432 478.203 274.879 477.573 275.169 476.792C275.459 476.011 275.604 475.164 275.604 474.253C275.604 473.341 275.459 472.492 275.169 471.705C274.879 470.918 274.432 470.281 273.828 469.796C273.224 469.311 272.455 469.068 271.52 469.068C270.585 469.068 269.815 469.311 269.212 469.796C268.608 470.281 268.161 470.918 267.871 471.705C267.581 472.492 267.436 473.341 267.436 474.253C267.436 475.164 267.581 476.011 267.871 476.792C268.161 477.573 268.608 478.203 269.212 478.683C269.815 479.162 270.585 479.402 271.52 479.402ZM282.992 472.797V481H280.897V467.364H282.921V469.494H283.099C283.418 468.802 283.904 468.246 284.555 467.825C285.206 467.399 286.046 467.186 287.076 467.186C287.999 467.186 288.807 467.375 289.5 467.754C290.192 468.127 290.731 468.695 291.116 469.459C291.5 470.216 291.693 471.175 291.693 472.335V481H289.597V472.477C289.597 471.406 289.319 470.571 288.763 469.974C288.207 469.37 287.443 469.068 286.472 469.068C285.804 469.068 285.206 469.213 284.679 469.503C284.158 469.793 283.747 470.216 283.445 470.773C283.143 471.329 282.992 472.004 282.992 472.797ZM301.061 481.284C299.83 481.284 298.75 480.991 297.82 480.405C296.897 479.819 296.175 479 295.654 477.946C295.139 476.893 294.882 475.661 294.882 474.253C294.882 472.832 295.139 471.592 295.654 470.533C296.175 469.474 296.897 468.651 297.82 468.065C298.75 467.479 299.83 467.186 301.061 467.186C302.292 467.186 303.369 467.479 304.292 468.065C305.222 468.651 305.944 469.474 306.459 470.533C306.979 471.592 307.24 472.832 307.24 474.253C307.24 475.661 306.979 476.893 306.459 477.946C305.944 479 305.222 479.819 304.292 480.405C303.369 480.991 302.292 481.284 301.061 481.284ZM301.061 479.402C301.996 479.402 302.765 479.162 303.369 478.683C303.973 478.203 304.42 477.573 304.71 476.792C305 476.011 305.145 475.164 305.145 474.253C305.145 473.341 305 472.492 304.71 471.705C304.42 470.918 303.973 470.281 303.369 469.796C302.765 469.311 301.996 469.068 301.061 469.068C300.126 469.068 299.356 469.311 298.753 469.796C298.149 470.281 297.702 470.918 297.412 471.705C297.122 472.492 296.977 473.341 296.977 474.253C296.977 475.164 297.122 476.011 297.412 476.792C297.702 477.573 298.149 478.203 298.753 478.683C299.356 479.162 300.126 479.402 301.061 479.402ZM310.438 486.114V467.364H312.462V469.53H312.711C312.865 469.293 313.078 468.991 313.35 468.624C313.628 468.251 314.025 467.92 314.54 467.63C315.061 467.334 315.765 467.186 316.653 467.186C317.801 467.186 318.813 467.473 319.689 468.047C320.565 468.621 321.248 469.435 321.74 470.489C322.231 471.542 322.476 472.785 322.476 474.217C322.476 475.661 322.231 476.913 321.74 477.973C321.248 479.026 320.568 479.843 319.698 480.423C318.828 480.997 317.824 481.284 316.688 481.284C315.812 481.284 315.111 481.139 314.584 480.849C314.057 480.553 313.652 480.219 313.368 479.846C313.084 479.467 312.865 479.153 312.711 478.905H312.533V486.114H310.438ZM312.498 474.182C312.498 475.212 312.649 476.12 312.951 476.907C313.252 477.689 313.693 478.301 314.273 478.745C314.853 479.183 315.564 479.402 316.404 479.402C317.28 479.402 318.011 479.171 318.597 478.71C319.189 478.242 319.633 477.615 319.929 476.827C320.23 476.034 320.381 475.152 320.381 474.182C320.381 473.223 320.233 472.359 319.937 471.589C319.647 470.814 319.206 470.202 318.615 469.752C318.029 469.296 317.292 469.068 316.404 469.068C315.552 469.068 314.836 469.284 314.256 469.716C313.676 470.142 313.238 470.74 312.942 471.51C312.646 472.273 312.498 473.164 312.498 474.182ZM329.685 481.32C328.821 481.32 328.037 481.157 327.333 480.831C326.628 480.5 326.069 480.023 325.655 479.402C325.24 478.775 325.033 478.017 325.033 477.129C325.033 476.348 325.187 475.715 325.495 475.229C325.803 474.738 326.214 474.353 326.729 474.075C327.244 473.797 327.812 473.59 328.434 473.454C329.061 473.312 329.691 473.199 330.324 473.116C331.153 473.01 331.825 472.93 332.34 472.877C332.861 472.818 333.239 472.72 333.476 472.584C333.719 472.448 333.84 472.211 333.84 471.874V471.803C333.84 470.927 333.6 470.246 333.121 469.761C332.648 469.275 331.928 469.033 330.964 469.033C329.963 469.033 329.179 469.252 328.611 469.69C328.043 470.128 327.643 470.595 327.413 471.092L325.424 470.382C325.779 469.554 326.253 468.908 326.844 468.447C327.442 467.979 328.093 467.654 328.797 467.47C329.508 467.281 330.206 467.186 330.893 467.186C331.331 467.186 331.834 467.239 332.402 467.346C332.976 467.446 333.529 467.657 334.062 467.976C334.601 468.296 335.047 468.778 335.403 469.423C335.758 470.068 335.935 470.933 335.935 472.016V481H333.84V479.153H333.734C333.592 479.449 333.355 479.766 333.023 480.103C332.692 480.441 332.251 480.728 331.701 480.964C331.15 481.201 330.478 481.32 329.685 481.32ZM330.005 479.438C330.833 479.438 331.532 479.275 332.1 478.949C332.674 478.624 333.106 478.203 333.396 477.689C333.692 477.174 333.84 476.632 333.84 476.064V474.146C333.751 474.253 333.556 474.35 333.254 474.439C332.958 474.522 332.615 474.596 332.224 474.661C331.84 474.72 331.464 474.774 331.097 474.821C330.736 474.862 330.443 474.898 330.218 474.928C329.673 474.999 329.164 475.114 328.691 475.274C328.223 475.428 327.845 475.661 327.555 475.975C327.271 476.283 327.128 476.703 327.128 477.236C327.128 477.964 327.398 478.514 327.936 478.887C328.481 479.254 329.17 479.438 330.005 479.438ZM341.855 472.797V481H339.759V462.818H341.855V469.494H342.032C342.352 468.79 342.831 468.231 343.47 467.816C344.115 467.396 344.974 467.186 346.045 467.186C346.974 467.186 347.788 467.373 348.486 467.745C349.185 468.112 349.726 468.678 350.111 469.441C350.502 470.199 350.697 471.163 350.697 472.335V481H348.602V472.477C348.602 471.394 348.321 470.557 347.758 469.965C347.202 469.367 346.43 469.068 345.441 469.068C344.755 469.068 344.139 469.213 343.595 469.503C343.056 469.793 342.63 470.216 342.316 470.773C342.008 471.329 341.855 472.004 341.855 472.797Z" fill="black"/>
<path d="M479.202 409V390.818H490.175V392.771H481.403V398.915H489.607V400.868H481.403V407.047H490.317V409H479.202ZM495.954 390.818V409H493.859V390.818H495.954ZM501.141 414.114C500.786 414.114 500.469 414.084 500.191 414.025C499.913 413.972 499.721 413.918 499.614 413.865L500.147 412.018C500.656 412.149 501.106 412.196 501.496 412.161C501.887 412.125 502.233 411.95 502.535 411.637C502.843 411.329 503.124 410.829 503.378 410.136L503.769 409.071L498.726 395.364H500.999L504.763 406.23H504.905L508.669 395.364H510.942L505.154 410.989C504.893 411.693 504.571 412.276 504.186 412.738C503.801 413.205 503.355 413.551 502.846 413.776C502.343 414.001 501.774 414.114 501.141 414.114Z" fill="black"/>
<path d="M366.202 330V311.818H377.175V313.771H368.403V319.915H376.607V321.868H368.403V328.047H377.317V330H366.202ZM389.453 324.425V316.364H391.548V330H389.453V327.692H389.311C388.991 328.384 388.494 328.973 387.819 329.458C387.145 329.938 386.292 330.178 385.262 330.178C384.41 330.178 383.653 329.991 382.99 329.618C382.327 329.239 381.806 328.671 381.427 327.914C381.048 327.15 380.859 326.188 380.859 325.028V316.364H382.954V324.886C382.954 325.881 383.232 326.674 383.789 327.266C384.351 327.857 385.067 328.153 385.937 328.153C386.458 328.153 386.988 328.02 387.526 327.754C388.071 327.488 388.527 327.079 388.893 326.529C389.266 325.978 389.453 325.277 389.453 324.425ZM395.385 330V316.364H397.41V318.423H397.552C397.8 317.749 398.25 317.201 398.901 316.781C399.552 316.361 400.286 316.151 401.103 316.151C401.257 316.151 401.449 316.154 401.68 316.159C401.911 316.165 402.085 316.174 402.204 316.186V318.317C402.133 318.299 401.97 318.272 401.715 318.237C401.467 318.195 401.203 318.175 400.925 318.175C400.262 318.175 399.67 318.314 399.15 318.592C398.635 318.864 398.226 319.243 397.924 319.728C397.629 320.208 397.481 320.755 397.481 321.371V330H395.385ZM409.989 330.284C408.676 330.284 407.542 329.994 406.589 329.414C405.642 328.828 404.911 328.011 404.396 326.964C403.887 325.91 403.633 324.685 403.633 323.288C403.633 321.892 403.887 320.661 404.396 319.595C404.911 318.524 405.627 317.689 406.545 317.092C407.468 316.488 408.545 316.186 409.776 316.186C410.487 316.186 411.188 316.304 411.88 316.541C412.573 316.778 413.203 317.163 413.771 317.695C414.34 318.222 414.792 318.92 415.13 319.79C415.467 320.661 415.636 321.732 415.636 323.004V323.892H405.124V322.081H413.505C413.505 321.312 413.351 320.625 413.043 320.021C412.742 319.418 412.31 318.941 411.747 318.592C411.191 318.243 410.534 318.068 409.776 318.068C408.942 318.068 408.22 318.275 407.61 318.69C407.006 319.098 406.542 319.631 406.216 320.288C405.891 320.945 405.728 321.649 405.728 322.401V323.608C405.728 324.638 405.906 325.511 406.261 326.227C406.622 326.937 407.122 327.479 407.761 327.852C408.4 328.219 409.143 328.402 409.989 328.402C410.54 328.402 411.037 328.325 411.481 328.171C411.931 328.011 412.318 327.775 412.644 327.461C412.969 327.141 413.221 326.745 413.399 326.271L415.423 326.839C415.21 327.526 414.852 328.13 414.348 328.651C413.845 329.165 413.224 329.568 412.484 329.858C411.744 330.142 410.913 330.284 409.989 330.284ZM420.776 325.028L420.741 322.436H421.167L427.133 316.364H429.725L423.368 322.791H423.191L420.776 325.028ZM418.823 330V311.818H420.918V330H418.823ZM427.488 330L422.161 323.253L423.652 321.797L430.151 330H427.488ZM436.434 330.32C435.57 330.32 434.786 330.157 434.082 329.831C433.377 329.5 432.818 329.023 432.404 328.402C431.989 327.775 431.782 327.017 431.782 326.129C431.782 325.348 431.936 324.715 432.244 324.229C432.552 323.738 432.963 323.353 433.478 323.075C433.993 322.797 434.561 322.59 435.183 322.454C435.81 322.312 436.44 322.199 437.074 322.116C437.902 322.01 438.574 321.93 439.089 321.877C439.61 321.818 439.988 321.72 440.225 321.584C440.468 321.448 440.589 321.211 440.589 320.874V320.803C440.589 319.927 440.349 319.246 439.87 318.761C439.397 318.275 438.677 318.033 437.713 318.033C436.712 318.033 435.928 318.252 435.36 318.69C434.792 319.128 434.392 319.595 434.162 320.092L432.173 319.382C432.528 318.554 433.002 317.908 433.593 317.447C434.191 316.979 434.842 316.654 435.547 316.47C436.257 316.281 436.955 316.186 437.642 316.186C438.08 316.186 438.583 316.239 439.151 316.346C439.725 316.446 440.278 316.657 440.811 316.976C441.35 317.296 441.797 317.778 442.152 318.423C442.507 319.068 442.684 319.933 442.684 321.016V330H440.589V328.153H440.483C440.341 328.449 440.104 328.766 439.772 329.103C439.441 329.441 439 329.728 438.45 329.964C437.899 330.201 437.227 330.32 436.434 330.32ZM436.754 328.438C437.583 328.438 438.281 328.275 438.849 327.949C439.423 327.624 439.855 327.203 440.145 326.689C440.441 326.174 440.589 325.632 440.589 325.064V323.146C440.5 323.253 440.305 323.35 440.003 323.439C439.707 323.522 439.364 323.596 438.973 323.661C438.589 323.72 438.213 323.774 437.846 323.821C437.485 323.862 437.192 323.898 436.967 323.928C436.422 323.999 435.913 324.114 435.44 324.274C434.972 324.428 434.594 324.661 434.304 324.975C434.02 325.283 433.877 325.703 433.877 326.236C433.877 326.964 434.147 327.514 434.685 327.887C435.23 328.254 435.919 328.438 436.754 328.438Z" fill="black"/>
<circle cx="472.511" cy="691.511" r="9.01136" fill="#FFE587" stroke="black"/>
<circle cx="93.5114" cy="344.511" r="9.01136" fill="#FFE587" stroke="black"/>
<circle cx="404.511" cy="347.511" r="9.01136" fill="#FFE587" stroke="black"/>
<circle cx="423.511" cy="207.511" r="9.01136" fill="#FFE587" stroke="black"/>
<circle cx="301.511" cy="498.511" r="9.01136" fill="#FFE587" stroke="black"/>
<circle cx="495.511" cy="375.511" r="9.01136" fill="#FFE587" stroke="black"/>
<defs>
<filter id="filter0_d_224_265" x="74.5" y="83.4995" width="491.5" height="735.186" filterUnits="userSpaceOnUse" color-interpolation-filters="sRGB">
<feFlood flood-opacity="0" result="BackgroundImageFix"/>
<feColorMatrix in="SourceAlpha" type="matrix" values="0 0 0 0 0 0 0 0 0 0 0 0 0 0 0 0 0 0 127 0" result="hardAlpha"/>
<feOffset dy="4"/>
<feGaussianBlur stdDeviation="2"/>
<feComposite in2="hardAlpha" operator="out"/>
<feColorMatrix type="matrix" values="0 0 0 0 0 0 0 0 0 0 0 0 0 0 0 0 0 0 0.25 0"/>
<feBlend mode="normal" in2="BackgroundImageFix" result="effect1_dropShadow_224_265"/>
<feBlend mode="normal" in="SourceGraphic" in2="effect1_dropShadow_224_265" result="shape"/>
</filter>
</defs>
</svg>
