<svg width="610" height="837" viewBox="0 0 610 837" fill="none" xmlns="http://www.w3.org/2000/svg">
<rect x="0.5" y="0.5" width="609" height="836" rx="35.5" fill="#97DCFF" stroke="#8D8D8D"/>
<path d="M464.872 712H461.497L470.54 694.545H474.443L477.699 712H474.324L471.98 698.125H471.844L464.872 712ZM466.116 705.156H475.321L474.895 707.696H465.69L466.116 705.156ZM487.76 698.909L487.359 701.295H479.842L480.234 698.909H487.76ZM482.604 695.773H485.689L483.643 708.062C483.581 708.477 483.592 708.795 483.678 709.017C483.768 709.233 483.913 709.381 484.112 709.46C484.317 709.54 484.547 709.58 484.803 709.58C484.99 709.58 485.166 709.565 485.331 709.537C485.496 709.503 485.626 709.477 485.723 709.46L485.859 711.872C485.672 711.929 485.419 711.991 485.101 712.06C484.788 712.128 484.413 712.168 483.976 712.179C483.192 712.196 482.51 712.077 481.93 711.821C481.357 711.56 480.936 711.159 480.669 710.619C480.408 710.074 480.348 709.392 480.49 708.574L482.604 695.773ZM494.423 694.545L491.525 712H488.44L491.337 694.545H494.423ZM498.43 712.264C497.601 712.264 496.879 712.116 496.266 711.821C495.652 711.52 495.2 711.077 494.911 710.491C494.626 709.906 494.555 709.185 494.697 708.327C494.822 707.588 495.061 706.977 495.413 706.494C495.771 706.011 496.209 705.625 496.726 705.335C497.249 705.04 497.817 704.818 498.43 704.67C499.05 704.523 499.68 704.415 500.322 704.347C501.107 704.267 501.74 704.193 502.223 704.125C502.712 704.057 503.078 703.955 503.322 703.818C503.567 703.676 503.714 703.46 503.766 703.17V703.119C503.868 702.477 503.766 701.98 503.459 701.628C503.152 701.276 502.641 701.099 501.925 701.099C501.175 701.099 500.544 701.264 500.033 701.594C499.521 701.923 499.149 702.312 498.916 702.761L496.121 702.352C496.473 701.557 496.956 700.892 497.57 700.358C498.183 699.818 498.891 699.415 499.692 699.148C500.499 698.875 501.359 698.739 502.274 698.739C502.899 698.739 503.51 698.812 504.107 698.96C504.709 699.108 505.24 699.352 505.7 699.693C506.166 700.028 506.507 700.486 506.723 701.065C506.945 701.645 506.982 702.369 506.834 703.239L505.376 712H502.411L502.717 710.202H502.615C502.371 710.565 502.053 710.906 501.661 711.224C501.268 711.537 500.803 711.79 500.263 711.983C499.723 712.17 499.112 712.264 498.43 712.264ZM499.598 709.997C500.217 709.997 500.774 709.875 501.268 709.631C501.763 709.381 502.169 709.051 502.487 708.642C502.805 708.233 503.004 707.787 503.084 707.304L503.339 705.761C503.226 705.841 503.05 705.915 502.811 705.983C502.572 706.051 502.305 706.111 502.01 706.162C501.72 706.213 501.433 706.259 501.149 706.298C500.865 706.338 500.621 706.372 500.416 706.401C499.945 706.463 499.513 706.565 499.121 706.707C498.734 706.849 498.413 707.048 498.158 707.304C497.908 707.554 497.751 707.878 497.689 708.276C497.598 708.838 497.732 709.267 498.089 709.562C498.447 709.852 498.95 709.997 499.598 709.997ZM512.842 704.33L511.581 712H508.487L510.669 698.909H513.626L513.251 701.134H513.413C513.822 700.401 514.396 699.818 515.135 699.386C515.874 698.955 516.734 698.739 517.717 698.739C518.609 698.739 519.359 698.932 519.967 699.318C520.575 699.699 521.007 700.259 521.263 700.997C521.518 701.73 521.558 702.619 521.382 703.665L519.984 712H516.899L518.203 704.142C518.351 703.273 518.24 702.591 517.871 702.097C517.507 701.597 516.922 701.347 516.115 701.347C515.575 701.347 515.078 701.466 514.624 701.705C514.169 701.937 513.786 702.276 513.473 702.719C513.166 703.162 512.956 703.699 512.842 704.33ZM531.822 698.909L531.422 701.295H523.905L524.297 698.909H531.822ZM526.666 695.773H529.751L527.706 708.062C527.643 708.477 527.655 708.795 527.74 709.017C527.831 709.233 527.976 709.381 528.175 709.46C528.379 709.54 528.609 709.58 528.865 709.58C529.053 709.58 529.229 709.565 529.393 709.537C529.558 709.503 529.689 709.477 529.786 709.46L529.922 711.872C529.734 711.929 529.482 711.991 529.163 712.06C528.851 712.128 528.476 712.168 528.038 712.179C527.254 712.196 526.572 712.077 525.993 711.821C525.419 711.56 524.999 711.159 524.732 710.619C524.47 710.074 524.411 709.392 524.553 708.574L526.666 695.773ZM532.221 712L534.403 698.909H537.488L535.306 712H532.221ZM536.397 697.034C535.903 697.034 535.494 696.869 535.17 696.54C534.846 696.21 534.704 695.815 534.744 695.355C534.783 694.895 534.991 694.5 535.366 694.17C535.746 693.841 536.181 693.676 536.67 693.676C537.164 693.676 537.57 693.841 537.888 694.17C538.212 694.5 538.354 694.895 538.315 695.355C538.281 695.815 538.073 696.21 537.692 696.54C537.317 696.869 536.886 697.034 536.397 697.034ZM544.155 712.256C542.848 712.256 541.774 711.969 540.933 711.395C540.092 710.821 539.504 710.028 539.169 709.017C538.839 708 538.786 706.83 539.007 705.506C539.223 704.176 539.669 703.003 540.345 701.986C541.027 700.963 541.885 700.168 542.919 699.599C543.953 699.026 545.109 698.739 546.388 698.739C547.45 698.739 548.357 698.935 549.107 699.327C549.862 699.713 550.425 700.261 550.794 700.972C551.169 701.676 551.314 702.5 551.229 703.443H548.271C548.26 702.812 548.064 702.287 547.683 701.866C547.303 701.44 546.746 701.227 546.013 701.227C545.376 701.227 544.791 701.398 544.257 701.739C543.723 702.074 543.271 702.557 542.902 703.188C542.533 703.818 542.277 704.574 542.135 705.455C541.987 706.347 541.99 707.114 542.143 707.756C542.303 708.392 542.589 708.884 543.004 709.23C543.425 709.571 543.956 709.741 544.598 709.741C545.053 709.741 545.476 709.656 545.868 709.486C546.26 709.31 546.604 709.057 546.899 708.727C547.2 708.398 547.436 707.997 547.607 707.526H550.555C550.322 708.452 549.908 709.273 549.311 709.989C548.72 710.699 547.987 711.256 547.112 711.659C546.237 712.057 545.251 712.256 544.155 712.256ZM479.642 732.477C479.335 734.33 478.73 735.909 477.827 737.216C476.929 738.517 475.832 739.514 474.537 740.207C473.247 740.895 471.858 741.239 470.369 741.239C468.807 741.239 467.466 740.875 466.347 740.148C465.227 739.415 464.42 738.366 463.926 737.003C463.438 735.639 463.352 734.003 463.67 732.094C463.977 730.247 464.58 728.668 465.477 727.355C466.375 726.043 467.474 725.04 468.776 724.347C470.077 723.653 471.48 723.307 472.986 723.307C474.537 723.307 475.866 723.673 476.974 724.406C478.088 725.134 478.889 726.182 479.378 727.551C479.872 728.92 479.96 730.562 479.642 732.477ZM476.531 732.094C476.741 730.804 476.722 729.716 476.472 728.83C476.227 727.943 475.793 727.276 475.168 726.827C474.543 726.372 473.773 726.145 472.858 726.145C471.869 726.145 470.955 726.392 470.114 726.886C469.278 727.375 468.568 728.091 467.983 729.034C467.403 729.977 467.006 731.125 466.79 732.477C466.563 733.773 466.577 734.861 466.832 735.741C467.088 736.622 467.531 737.287 468.162 737.736C468.793 738.179 469.563 738.401 470.472 738.401C471.455 738.401 472.364 738.156 473.199 737.668C474.034 737.179 474.741 736.466 475.321 735.528C475.906 734.591 476.31 733.446 476.531 732.094ZM486.756 741.256C485.45 741.256 484.376 740.969 483.535 740.395C482.694 739.821 482.106 739.028 481.771 738.017C481.441 737 481.387 735.83 481.609 734.506C481.825 733.176 482.271 732.003 482.947 730.986C483.629 729.963 484.487 729.168 485.521 728.599C486.555 728.026 487.711 727.739 488.989 727.739C490.052 727.739 490.958 727.935 491.708 728.327C492.464 728.713 493.026 729.261 493.396 729.972C493.771 730.676 493.915 731.5 493.83 732.443H490.873C490.862 731.812 490.665 731.287 490.285 730.866C489.904 730.44 489.347 730.227 488.614 730.227C487.978 730.227 487.393 730.398 486.859 730.739C486.325 731.074 485.873 731.557 485.504 732.188C485.134 732.818 484.879 733.574 484.737 734.455C484.589 735.347 484.592 736.114 484.745 736.756C484.904 737.392 485.191 737.884 485.606 738.23C486.026 738.571 486.558 738.741 487.2 738.741C487.654 738.741 488.077 738.656 488.469 738.486C488.862 738.31 489.205 738.057 489.501 737.727C489.802 737.398 490.038 736.997 490.208 736.526H493.157C492.924 737.452 492.509 738.273 491.913 738.989C491.322 739.699 490.589 740.256 489.714 740.659C488.839 741.057 487.853 741.256 486.756 741.256ZM500.693 741.256C499.381 741.256 498.295 740.983 497.438 740.438C496.58 739.886 495.977 739.108 495.631 738.102C495.29 737.091 495.233 735.901 495.46 734.531C495.682 733.185 496.134 732.003 496.815 730.986C497.497 729.963 498.349 729.168 499.372 728.599C500.401 728.026 501.537 727.739 502.781 727.739C503.588 727.739 504.33 727.869 505.006 728.131C505.682 728.386 506.253 728.784 506.719 729.324C507.185 729.864 507.506 730.551 507.682 731.386C507.858 732.216 507.849 733.205 507.656 734.352L507.511 735.298H496.773L497.105 733.219H504.878C504.98 732.628 504.946 732.102 504.776 731.642C504.605 731.176 504.321 730.81 503.923 730.543C503.526 730.276 503.028 730.142 502.432 730.142C501.824 730.142 501.256 730.298 500.727 730.611C500.205 730.918 499.764 731.315 499.406 731.804C499.048 732.293 498.821 732.807 498.724 733.347L498.375 735.341C498.25 736.159 498.278 736.827 498.46 737.344C498.642 737.861 498.96 738.241 499.415 738.486C499.869 738.73 500.443 738.852 501.136 738.852C501.591 738.852 502.011 738.79 502.398 738.665C502.784 738.54 503.128 738.352 503.429 738.102C503.736 737.847 503.991 737.534 504.196 737.165L507.017 737.489C506.705 738.25 506.247 738.915 505.645 739.483C505.043 740.045 504.321 740.483 503.48 740.795C502.645 741.102 501.716 741.256 500.693 741.256ZM512.915 741.264C512.085 741.264 511.364 741.116 510.75 740.821C510.136 740.52 509.685 740.077 509.395 739.491C509.111 738.906 509.04 738.185 509.182 737.327C509.307 736.588 509.545 735.977 509.898 735.494C510.256 735.011 510.693 734.625 511.21 734.335C511.733 734.04 512.301 733.818 512.915 733.67C513.534 733.523 514.165 733.415 514.807 733.347C515.591 733.267 516.224 733.193 516.707 733.125C517.196 733.057 517.563 732.955 517.807 732.818C518.051 732.676 518.199 732.46 518.25 732.17V732.119C518.352 731.477 518.25 730.98 517.943 730.628C517.636 730.276 517.125 730.099 516.409 730.099C515.659 730.099 515.028 730.264 514.517 730.594C514.006 730.923 513.634 731.312 513.401 731.761L510.605 731.352C510.957 730.557 511.44 729.892 512.054 729.358C512.668 728.818 513.375 728.415 514.176 728.148C514.983 727.875 515.844 727.739 516.759 727.739C517.384 727.739 517.994 727.812 518.591 727.96C519.193 728.108 519.724 728.352 520.185 728.693C520.651 729.028 520.991 729.486 521.207 730.065C521.429 730.645 521.466 731.369 521.318 732.239L519.861 741H516.895L517.202 739.202H517.099C516.855 739.565 516.537 739.906 516.145 740.224C515.753 740.537 515.287 740.79 514.747 740.983C514.207 741.17 513.597 741.264 512.915 741.264ZM514.082 738.997C514.702 738.997 515.259 738.875 515.753 738.631C516.247 738.381 516.653 738.051 516.972 737.642C517.29 737.233 517.489 736.787 517.568 736.304L517.824 734.761C517.71 734.841 517.534 734.915 517.295 734.983C517.057 735.051 516.79 735.111 516.494 735.162C516.205 735.213 515.918 735.259 515.634 735.298C515.349 735.338 515.105 735.372 514.901 735.401C514.429 735.463 513.997 735.565 513.605 735.707C513.219 735.849 512.898 736.048 512.642 736.304C512.392 736.554 512.236 736.878 512.173 737.276C512.082 737.838 512.216 738.267 512.574 738.562C512.932 738.852 513.435 738.997 514.082 738.997ZM527.327 733.33L526.065 741H522.972L525.153 727.909H528.111L527.736 730.134H527.898C528.307 729.401 528.881 728.818 529.619 728.386C530.358 727.955 531.219 727.739 532.202 727.739C533.094 727.739 533.844 727.932 534.452 728.318C535.06 728.699 535.491 729.259 535.747 729.997C536.003 730.73 536.043 731.619 535.866 732.665L534.469 741H531.384L532.688 733.142C532.835 732.273 532.724 731.591 532.355 731.097C531.991 730.597 531.406 730.347 530.599 730.347C530.06 730.347 529.563 730.466 529.108 730.705C528.653 730.937 528.27 731.276 527.957 731.719C527.651 732.162 527.44 732.699 527.327 733.33Z" fill="#017D83"/>
<path d="M202.662 84.4347H199.474C199.384 83.9119 199.216 83.4489 198.972 83.0455C198.727 82.6364 198.423 82.2898 198.06 82.0057C197.696 81.7216 197.281 81.5085 196.815 81.3665C196.355 81.2188 195.858 81.1449 195.324 81.1449C194.375 81.1449 193.534 81.3835 192.801 81.8608C192.068 82.3324 191.494 83.0256 191.08 83.9403C190.665 84.8494 190.457 85.9602 190.457 87.2727C190.457 88.608 190.665 89.733 191.08 90.6477C191.5 91.5568 192.074 92.2443 192.801 92.7102C193.534 93.1705 194.372 93.4006 195.315 93.4006C195.838 93.4006 196.327 93.3324 196.781 93.196C197.241 93.054 197.653 92.8466 198.017 92.5739C198.386 92.3011 198.696 91.9659 198.946 91.5682C199.202 91.1705 199.378 90.7159 199.474 90.2045L202.662 90.2216C202.543 91.0511 202.284 91.8295 201.886 92.5568C201.494 93.2841 200.98 93.9261 200.344 94.483C199.707 95.0341 198.963 95.4659 198.111 95.7784C197.259 96.0852 196.313 96.2386 195.273 96.2386C193.739 96.2386 192.369 95.8835 191.165 95.1733C189.96 94.4631 189.011 93.4375 188.318 92.0966C187.625 90.7557 187.278 89.1477 187.278 87.2727C187.278 85.392 187.628 83.7841 188.327 82.4489C189.026 81.108 189.977 80.0824 191.182 79.3722C192.386 78.6619 193.75 78.3068 195.273 78.3068C196.244 78.3068 197.148 78.4432 197.983 78.7159C198.818 78.9886 199.563 79.3892 200.216 79.9176C200.869 80.4403 201.406 81.0824 201.827 81.8438C202.253 82.5994 202.531 83.4631 202.662 84.4347ZM209.188 96.2642C208.359 96.2642 207.612 96.1165 206.947 95.821C206.288 95.5199 205.765 95.0767 205.379 94.4915C204.998 93.9062 204.808 93.1847 204.808 92.3267C204.808 91.5881 204.944 90.9773 205.217 90.4943C205.489 90.0114 205.862 89.625 206.333 89.3352C206.805 89.0455 207.336 88.8267 207.927 88.679C208.523 88.5256 209.14 88.4148 209.776 88.3466C210.543 88.267 211.165 88.196 211.643 88.1335C212.12 88.0653 212.467 87.9631 212.683 87.8267C212.904 87.6847 213.015 87.4659 213.015 87.1705V87.1193C213.015 86.4773 212.825 85.9801 212.444 85.6278C212.063 85.2756 211.515 85.0994 210.799 85.0994C210.043 85.0994 209.444 85.2642 209.001 85.5938C208.563 85.9233 208.268 86.3125 208.114 86.7614L205.234 86.3523C205.461 85.5568 205.836 84.892 206.359 84.358C206.881 83.8182 207.521 83.4148 208.276 83.1477C209.032 82.875 209.867 82.7386 210.782 82.7386C211.413 82.7386 212.04 82.8125 212.665 82.9602C213.29 83.108 213.862 83.3523 214.379 83.6932C214.896 84.0284 215.31 84.4858 215.623 85.0653C215.941 85.6449 216.1 86.3693 216.1 87.2386V96H213.134V94.2017H213.032C212.844 94.5653 212.58 94.9062 212.239 95.2244C211.904 95.5369 211.481 95.7898 210.969 95.983C210.464 96.1705 209.87 96.2642 209.188 96.2642ZM209.989 93.9972C210.609 93.9972 211.146 93.875 211.6 93.6307C212.055 93.3807 212.404 93.0511 212.648 92.642C212.898 92.233 213.023 91.7869 213.023 91.304V89.7614C212.927 89.8409 212.762 89.9148 212.529 89.983C212.302 90.0511 212.046 90.1108 211.762 90.1619C211.478 90.2131 211.197 90.2585 210.918 90.2983C210.64 90.3381 210.398 90.3722 210.194 90.4006C209.734 90.4631 209.322 90.5653 208.958 90.7074C208.594 90.8494 208.308 91.0483 208.097 91.304C207.887 91.554 207.782 91.8778 207.782 92.2756C207.782 92.8438 207.989 93.2727 208.404 93.5625C208.819 93.8523 209.347 93.9972 209.989 93.9972ZM222.288 88.3295V96H219.202V82.9091H222.151V85.1335H222.305C222.606 84.4006 223.086 83.8182 223.745 83.3864C224.41 82.9545 225.231 82.7386 226.208 82.7386C227.112 82.7386 227.898 82.9318 228.569 83.3182C229.245 83.7045 229.768 84.2642 230.137 84.9972C230.512 85.7301 230.697 86.6193 230.691 87.6648V96H227.606V88.142C227.606 87.267 227.379 86.5824 226.924 86.0881C226.475 85.5937 225.853 85.3466 225.058 85.3466C224.518 85.3466 224.038 85.4659 223.617 85.7045C223.202 85.9375 222.876 86.2756 222.637 86.7188C222.404 87.1619 222.288 87.6989 222.288 88.3295ZM237.594 96.2642C236.765 96.2642 236.018 96.1165 235.353 95.821C234.694 95.5199 234.171 95.0767 233.785 94.4915C233.404 93.9062 233.214 93.1847 233.214 92.3267C233.214 91.5881 233.35 90.9773 233.623 90.4943C233.896 90.0114 234.268 89.625 234.739 89.3352C235.211 89.0455 235.742 88.8267 236.333 88.679C236.93 88.5256 237.546 88.4148 238.183 88.3466C238.95 88.267 239.572 88.196 240.049 88.1335C240.526 88.0653 240.873 87.9631 241.089 87.8267C241.31 87.6847 241.421 87.4659 241.421 87.1705V87.1193C241.421 86.4773 241.231 85.9801 240.85 85.6278C240.469 85.2756 239.921 85.0994 239.205 85.0994C238.45 85.0994 237.85 85.2642 237.407 85.5938C236.969 85.9233 236.674 86.3125 236.521 86.7614L233.64 86.3523C233.867 85.5568 234.242 84.892 234.765 84.358C235.288 83.8182 235.927 83.4148 236.683 83.1477C237.438 82.875 238.273 82.7386 239.188 82.7386C239.819 82.7386 240.447 82.8125 241.072 82.9602C241.697 83.108 242.268 83.3523 242.785 83.6932C243.302 84.0284 243.717 84.4858 244.029 85.0653C244.347 85.6449 244.506 86.3693 244.506 87.2386V96H241.54V94.2017H241.438C241.251 94.5653 240.987 94.9062 240.646 95.2244C240.31 95.5369 239.887 95.7898 239.376 95.983C238.87 96.1705 238.276 96.2642 237.594 96.2642ZM238.396 93.9972C239.015 93.9972 239.552 93.875 240.006 93.6307C240.461 93.3807 240.81 93.0511 241.055 92.642C241.305 92.233 241.43 91.7869 241.43 91.304V89.7614C241.333 89.8409 241.168 89.9148 240.935 89.983C240.708 90.0511 240.452 90.1108 240.168 90.1619C239.884 90.2131 239.603 90.2585 239.325 90.2983C239.046 90.3381 238.805 90.3722 238.6 90.4006C238.14 90.4631 237.728 90.5653 237.364 90.7074C237.001 90.8494 236.714 91.0483 236.504 91.304C236.293 91.554 236.188 91.8778 236.188 92.2756C236.188 92.8438 236.396 93.2727 236.81 93.5625C237.225 93.8523 237.754 93.9972 238.396 93.9972ZM252.467 96.2301C251.438 96.2301 250.518 95.9659 249.705 95.4375C248.893 94.9091 248.251 94.142 247.779 93.1364C247.308 92.1307 247.072 90.9091 247.072 89.4716C247.072 88.017 247.31 86.7898 247.788 85.7898C248.271 84.7841 248.921 84.0256 249.739 83.5142C250.558 82.9972 251.469 82.7386 252.475 82.7386C253.242 82.7386 253.873 82.8693 254.367 83.1307C254.862 83.3864 255.254 83.696 255.543 84.0597C255.833 84.4176 256.058 84.7557 256.217 85.0739H256.344V78.5455H259.438V96H256.404V93.9375H256.217C256.058 94.2557 255.827 94.5937 255.526 94.9517C255.225 95.304 254.827 95.6051 254.333 95.8551C253.839 96.1051 253.217 96.2301 252.467 96.2301ZM253.327 93.6989C253.981 93.6989 254.538 93.5227 254.998 93.1705C255.458 92.8125 255.808 92.3153 256.046 91.679C256.285 91.0426 256.404 90.3011 256.404 89.4545C256.404 88.608 256.285 87.8722 256.046 87.2472C255.813 86.6222 255.467 86.1364 255.006 85.7898C254.552 85.4432 253.992 85.2699 253.327 85.2699C252.64 85.2699 252.066 85.4489 251.606 85.8068C251.146 86.1648 250.799 86.6591 250.566 87.2898C250.333 87.9205 250.217 88.642 250.217 89.4545C250.217 90.2727 250.333 91.0028 250.566 91.6449C250.805 92.2812 251.154 92.7841 251.614 93.1534C252.08 93.517 252.651 93.6989 253.327 93.6989ZM266.493 96.2642C265.663 96.2642 264.916 96.1165 264.251 95.821C263.592 95.5199 263.07 95.0767 262.683 94.4915C262.303 93.9062 262.112 93.1847 262.112 92.3267C262.112 91.5881 262.249 90.9773 262.521 90.4943C262.794 90.0114 263.166 89.625 263.638 89.3352C264.109 89.0455 264.641 88.8267 265.232 88.679C265.828 88.5256 266.445 88.4148 267.081 88.3466C267.848 88.267 268.47 88.196 268.947 88.1335C269.425 88.0653 269.771 87.9631 269.987 87.8267C270.209 87.6847 270.32 87.4659 270.32 87.1705V87.1193C270.32 86.4773 270.129 85.9801 269.749 85.6278C269.368 85.2756 268.82 85.0994 268.104 85.0994C267.348 85.0994 266.749 85.2642 266.305 85.5938C265.868 85.9233 265.572 86.3125 265.419 86.7614L262.538 86.3523C262.766 85.5568 263.141 84.892 263.663 84.358C264.186 83.8182 264.825 83.4148 265.581 83.1477C266.337 82.875 267.172 82.7386 268.087 82.7386C268.717 82.7386 269.345 82.8125 269.97 82.9602C270.595 83.108 271.166 83.3523 271.683 83.6932C272.2 84.0284 272.615 84.4858 272.928 85.0653C273.246 85.6449 273.405 86.3693 273.405 87.2386V96H270.439V94.2017H270.337C270.149 94.5653 269.885 94.9062 269.544 95.2244C269.209 95.5369 268.786 95.7898 268.274 95.983C267.768 96.1705 267.175 96.2642 266.493 96.2642ZM267.294 93.9972C267.913 93.9972 268.45 93.875 268.905 93.6307C269.359 93.3807 269.709 93.0511 269.953 92.642C270.203 92.233 270.328 91.7869 270.328 91.304V89.7614C270.232 89.8409 270.067 89.9148 269.834 89.983C269.607 90.0511 269.351 90.1108 269.067 90.1619C268.783 90.2131 268.501 90.2585 268.223 90.2983C267.945 90.3381 267.703 90.3722 267.499 90.4006C267.038 90.4631 266.626 90.5653 266.263 90.7074C265.899 90.8494 265.612 91.0483 265.402 91.304C265.192 91.554 265.087 91.8778 265.087 92.2756C265.087 92.8438 265.294 93.2727 265.709 93.5625C266.124 93.8523 266.652 93.9972 267.294 93.9972Z" fill="#00943D"/>
<g filter="url(#filter0_d_51_53)">
<path d="M325.5 69.5L318 86.5L319.5 92.5L316 95.5L312.5 102L306 108L304.5 114L308 116.5L304.5 125L297.235 130V134L302.5 136.5V149L306 151.5L304.5 157.5L295.5 168.5L291.5 184L280 198V204L287.5 224.5L293 232V241.5L295.5 246.5L293 251H287.5L285.5 254L289 257.5L285.5 262.5V271L280 273.5L269 290.5L254.5 295.5L245 299L237 312.5L232.5 316.5L223.5 312.5L219.5 315L208 316.5L194.5 324.5L191 333V358.5L194.5 369.5L192.5 381.5V386.5L178.5 410.5L180 432L170.5 441.5L166 450V462L161.5 473.5L144.5 491.5L136 522.5L128 527.5V539.5L124 546.5L126 552.5L124 578L118.5 585.5L122.5 590V596.5L124 602.5L116 619L112 646.5L116 654V663.5L112 673V682L114 685.5L112 688.5L110 695L98 700.5V713.5L93 720V731L95.5 742.5L101 748.5L98 753.5L105 752L114 764L346.5 772L355 760.5L361.5 758.5L369.5 759.5L369 746L373.5 740.5L380 738L392.5 741.5L399 729L417.5 722.5L424.5 720L436.5 727.208L443.5 723.5V715.5L446.5 711.5L450 703.5L464.5 677.5L454 664.5L440.5 652L441.5 630.5L438.5 619.5L435 617.5L426 609V605.5L423.5 600.5L419.5 596L415 595.5L410.5 591L408.5 582.5L409 573.5L414 567.5V560.5L411.5 557.5L415 547.5L414 544L413.5 539.5L416 536L411.5 531.5L405 353L398.5 196.5L389 40.5L384.5 44.0377L379 58L374 56.5L370 59.5L366.5 55L361 56.5L358 51.5L354 50V44.0377L349.5 42L339 50H333.5L330.5 58L325.5 59.5H316L325.5 69.5Z" fill="#FFD597"/>
<path d="M325.5 69.5L318 86.5L319.5 92.5L316 95.5L312.5 102L306 108L304.5 114L308 116.5L304.5 125L297.235 130V134L302.5 136.5V149L306 151.5L304.5 157.5L295.5 168.5L291.5 184L280 198V204L287.5 224.5L293 232V241.5L295.5 246.5L293 251H287.5L285.5 254L289 257.5L285.5 262.5V271L280 273.5L269 290.5L254.5 295.5L245 299L237 312.5L232.5 316.5L223.5 312.5L219.5 315L208 316.5L194.5 324.5L191 333V358.5L194.5 369.5L192.5 381.5V386.5L178.5 410.5L180 432L170.5 441.5L166 450V462L161.5 473.5L144.5 491.5L136 522.5L128 527.5V539.5L124 546.5L126 552.5L124 578L118.5 585.5L122.5 590V596.5L124 602.5L116 619L112 646.5L116 654V663.5L112 673V682L114 685.5L112 688.5L110 695L98 700.5V713.5L93 720V731L95.5 742.5L101 748.5L98 753.5L105 752L114 764L346.5 772L355 760.5L361.5 758.5L369.5 759.5L369 746L373.5 740.5L380 738L392.5 741.5L399 729L417.5 722.5L424.5 720L436.5 727.208L443.5 723.5V715.5L446.5 711.5L450 703.5L464.5 677.5L454 664.5L440.5 652L441.5 630.5L438.5 619.5L435 617.5L426 609V605.5L423.5 600.5L419.5 596L415 595.5L410.5 591L408.5 582.5L409 573.5L414 567.5V560.5L411.5 557.5L415 547.5L414 544L413.5 539.5L416 536L411.5 531.5L405 353L398.5 196.5L389 40.5L384.5 44.0377L379 58L374 56.5L370 59.5L366.5 55L361 56.5L358 51.5L354 50V44.0377L349.5 42L339 50H333.5L330.5 58L325.5 59.5H316L325.5 69.5Z" stroke="black"/>
</g>
<path d="M427.722 388.545H431.591L436.773 401.193H436.977L442.159 388.545H446.028V406H442.994V394.009H442.832L438.009 405.949H435.741L430.918 393.983H430.756V406H427.722V388.545ZM449.472 406V388.545H460.824V391.196H452.634V395.935H460.236V398.585H452.634V403.349H460.892V406H449.472Z" fill="#005A5E"/>
<path d="M112.057 430.545L116.599 444.284H116.778L121.312 430.545H124.79L118.636 448H114.733L108.588 430.545H112.057ZM126.322 433.196V430.545H140.248V433.196H134.853V448H131.717V433.196H126.322Z" fill="#005A5E"/>
<path d="M285.722 786.545H289.591L294.773 799.193H294.977L300.159 786.545H304.028V804H300.994V792.009H300.832L296.009 803.949H293.741L288.918 791.983H288.756V804H285.722V786.545ZM309.713 804H306.338L312.483 786.545H316.386L322.54 804H319.165L314.503 790.125H314.366L309.713 804ZM309.824 797.156H319.028V799.696H309.824V797.156Z" fill="#005A5E"/>
<circle cx="312.511" cy="754.511" r="9.01136" fill="#FFEEB3" stroke="black"/>
<circle cx="380.511" cy="415.511" r="9.01136" fill="#FFEEB3" stroke="black"/>
<circle cx="248.511" cy="324.511" r="9.01136" fill="#FFEEB3" stroke="black"/>
<circle cx="427.511" cy="636.511" r="9.01136" fill="#FFEEB3" stroke="black"/>
<circle cx="408.511" cy="604.511" r="9.01136" fill="#FFEEB3" stroke="black"/>
<circle cx="315.511" cy="688.511" r="9.01136" fill="#FFEEB3" stroke="black"/>
<path d="M221.619 740.818V759H219.489L209.581 744.724H209.403V759H207.202V740.818H209.332L219.276 755.129H219.453V740.818H221.619ZM229.754 759.32C228.89 759.32 228.105 759.157 227.401 758.831C226.697 758.5 226.137 758.023 225.723 757.402C225.309 756.775 225.102 756.017 225.102 755.129C225.102 754.348 225.256 753.715 225.563 753.229C225.871 752.738 226.282 752.353 226.797 752.075C227.312 751.797 227.88 751.59 228.502 751.454C229.129 751.312 229.76 751.199 230.393 751.116C231.221 751.01 231.893 750.93 232.408 750.877C232.929 750.818 233.308 750.72 233.544 750.584C233.787 750.448 233.908 750.211 233.908 749.874V749.803C233.908 748.927 233.669 748.246 233.189 747.761C232.716 747.275 231.997 747.033 231.032 747.033C230.032 747.033 229.248 747.252 228.679 747.69C228.111 748.128 227.712 748.595 227.481 749.092L225.492 748.382C225.847 747.554 226.321 746.908 226.913 746.447C227.511 745.979 228.162 745.654 228.866 745.47C229.576 745.281 230.274 745.186 230.961 745.186C231.399 745.186 231.902 745.239 232.47 745.346C233.044 745.446 233.598 745.657 234.13 745.976C234.669 746.296 235.116 746.778 235.471 747.423C235.826 748.068 236.004 748.933 236.004 750.016V759H233.908V757.153H233.802C233.66 757.449 233.423 757.766 233.092 758.103C232.76 758.441 232.319 758.728 231.769 758.964C231.218 759.201 230.547 759.32 229.754 759.32ZM230.073 757.438C230.902 757.438 231.6 757.275 232.168 756.949C232.743 756.624 233.175 756.203 233.465 755.689C233.761 755.174 233.908 754.632 233.908 754.064V752.146C233.82 752.253 233.624 752.35 233.323 752.439C233.027 752.522 232.683 752.596 232.293 752.661C231.908 752.72 231.532 752.774 231.165 752.821C230.804 752.862 230.511 752.898 230.286 752.928C229.742 752.999 229.233 753.114 228.759 753.274C228.292 753.428 227.913 753.661 227.623 753.975C227.339 754.283 227.197 754.703 227.197 755.236C227.197 755.964 227.466 756.514 228.005 756.887C228.549 757.254 229.239 757.438 230.073 757.438ZM249.487 748.418L247.605 748.95C247.486 748.637 247.312 748.332 247.081 748.036C246.856 747.734 246.548 747.485 246.158 747.29C245.767 747.095 245.267 746.997 244.657 746.997C243.823 746.997 243.127 747.19 242.571 747.574C242.021 747.953 241.745 748.435 241.745 749.021C241.745 749.542 241.935 749.953 242.314 750.255C242.692 750.557 243.284 750.809 244.089 751.01L246.113 751.507C247.333 751.803 248.241 752.256 248.839 752.865C249.437 753.469 249.735 754.247 249.735 755.2C249.735 755.982 249.511 756.68 249.061 757.295C248.617 757.911 247.995 758.396 247.196 758.751C246.397 759.107 245.468 759.284 244.409 759.284C243.018 759.284 241.867 758.982 240.955 758.379C240.044 757.775 239.467 756.893 239.224 755.733L241.213 755.236C241.402 755.97 241.76 756.52 242.287 756.887C242.82 757.254 243.515 757.438 244.373 757.438C245.35 757.438 246.125 757.23 246.699 756.816C247.279 756.396 247.569 755.893 247.569 755.307C247.569 754.833 247.404 754.437 247.072 754.117C246.741 753.792 246.232 753.549 245.545 753.389L243.272 752.857C242.024 752.561 241.106 752.102 240.52 751.48C239.94 750.853 239.65 750.069 239.65 749.128C239.65 748.358 239.866 747.678 240.298 747.086C240.736 746.494 241.331 746.029 242.083 745.692C242.84 745.355 243.699 745.186 244.657 745.186C246.007 745.186 247.066 745.482 247.836 746.074C248.611 746.666 249.161 747.447 249.487 748.418ZM254.984 750.797V759H252.889V740.818H254.984V747.494H255.162C255.482 746.79 255.961 746.231 256.6 745.816C257.245 745.396 258.104 745.186 259.175 745.186C260.104 745.186 260.918 745.373 261.616 745.745C262.315 746.112 262.856 746.678 263.241 747.441C263.631 748.199 263.827 749.163 263.827 750.335V759H261.732V750.477C261.732 749.394 261.45 748.557 260.888 747.965C260.332 747.367 259.56 747.068 258.571 747.068C257.885 747.068 257.269 747.213 256.725 747.503C256.186 747.793 255.76 748.216 255.446 748.773C255.138 749.329 254.984 750.004 254.984 750.797ZM276.254 753.425V745.364H278.349V759H276.254V756.692H276.112C275.792 757.384 275.295 757.973 274.62 758.458C273.945 758.938 273.093 759.178 272.063 759.178C271.211 759.178 270.453 758.991 269.79 758.618C269.128 758.239 268.607 757.671 268.228 756.914C267.849 756.15 267.66 755.188 267.66 754.028V745.364H269.755V753.886C269.755 754.881 270.033 755.674 270.589 756.266C271.152 756.857 271.868 757.153 272.738 757.153C273.259 757.153 273.788 757.02 274.327 756.754C274.872 756.488 275.327 756.079 275.694 755.529C276.067 754.978 276.254 754.277 276.254 753.425ZM286.199 759.32C285.335 759.32 284.551 759.157 283.846 758.831C283.142 758.5 282.583 758.023 282.168 757.402C281.754 756.775 281.547 756.017 281.547 755.129C281.547 754.348 281.701 753.715 282.009 753.229C282.316 752.738 282.728 752.353 283.243 752.075C283.758 751.797 284.326 751.59 284.947 751.454C285.575 751.312 286.205 751.199 286.838 751.116C287.667 751.01 288.339 750.93 288.853 750.877C289.374 750.818 289.753 750.72 289.99 750.584C290.232 750.448 290.354 750.211 290.354 749.874V749.803C290.354 748.927 290.114 748.246 289.635 747.761C289.161 747.275 288.442 747.033 287.477 747.033C286.477 747.033 285.693 747.252 285.125 747.69C284.557 748.128 284.157 748.595 283.926 749.092L281.938 748.382C282.293 747.554 282.766 746.908 283.358 746.447C283.956 745.979 284.607 745.654 285.311 745.47C286.021 745.281 286.72 745.186 287.406 745.186C287.844 745.186 288.347 745.239 288.916 745.346C289.49 745.446 290.043 745.657 290.576 745.976C291.114 746.296 291.561 746.778 291.916 747.423C292.271 748.068 292.449 748.933 292.449 750.016V759H290.354V757.153H290.247C290.105 757.449 289.868 757.766 289.537 758.103C289.206 758.441 288.765 758.728 288.214 758.964C287.664 759.201 286.992 759.32 286.199 759.32ZM286.519 757.438C287.347 757.438 288.046 757.275 288.614 756.949C289.188 756.624 289.62 756.203 289.91 755.689C290.206 755.174 290.354 754.632 290.354 754.064V752.146C290.265 752.253 290.07 752.35 289.768 752.439C289.472 752.522 289.129 752.596 288.738 752.661C288.353 752.72 287.977 752.774 287.611 752.821C287.249 752.862 286.957 752.898 286.732 752.928C286.187 752.999 285.678 753.114 285.205 753.274C284.737 753.428 284.358 753.661 284.068 753.975C283.784 754.283 283.642 754.703 283.642 755.236C283.642 755.964 283.911 756.514 284.45 756.887C284.995 757.254 285.684 757.438 286.519 757.438Z" fill="black"/>
<path d="M165.202 675.818H167.83L174.009 690.911H174.222L180.401 675.818H183.028V694H180.969V680.186H180.791L175.109 694H173.121L167.439 680.186H167.261V694H165.202V675.818ZM191.172 694.32C190.307 694.32 189.523 694.157 188.819 693.831C188.115 693.5 187.555 693.023 187.141 692.402C186.727 691.775 186.52 691.017 186.52 690.129C186.52 689.348 186.674 688.715 186.981 688.229C187.289 687.738 187.7 687.353 188.215 687.075C188.73 686.797 189.298 686.59 189.92 686.454C190.547 686.312 191.178 686.199 191.811 686.116C192.639 686.01 193.311 685.93 193.826 685.877C194.347 685.818 194.726 685.72 194.962 685.584C195.205 685.448 195.326 685.211 195.326 684.874V684.803C195.326 683.927 195.087 683.246 194.607 682.761C194.134 682.275 193.415 682.033 192.45 682.033C191.45 682.033 190.666 682.252 190.097 682.69C189.529 683.128 189.13 683.595 188.899 684.092L186.91 683.382C187.265 682.554 187.739 681.908 188.331 681.447C188.928 680.979 189.58 680.654 190.284 680.47C190.994 680.281 191.692 680.186 192.379 680.186C192.817 680.186 193.32 680.239 193.888 680.346C194.462 680.446 195.016 680.657 195.548 680.976C196.087 681.296 196.534 681.778 196.889 682.423C197.244 683.068 197.422 683.933 197.422 685.016V694H195.326V692.153H195.22C195.078 692.449 194.841 692.766 194.51 693.103C194.178 693.441 193.737 693.728 193.187 693.964C192.636 694.201 191.965 694.32 191.172 694.32ZM191.491 692.438C192.32 692.438 193.018 692.275 193.586 691.949C194.16 691.624 194.593 691.203 194.883 690.689C195.178 690.174 195.326 689.632 195.326 689.064V687.146C195.238 687.253 195.042 687.35 194.741 687.439C194.445 687.522 194.101 687.596 193.711 687.661C193.326 687.72 192.95 687.774 192.583 687.821C192.222 687.862 191.929 687.898 191.704 687.928C191.16 687.999 190.651 688.114 190.177 688.274C189.71 688.428 189.331 688.661 189.041 688.975C188.757 689.283 188.615 689.703 188.615 690.236C188.615 690.964 188.884 691.514 189.423 691.887C189.967 692.254 190.657 692.438 191.491 692.438ZM203.341 685.797V694H201.246V680.364H203.27V682.494H203.447C203.767 681.802 204.252 681.246 204.903 680.825C205.554 680.399 206.395 680.186 207.425 680.186C208.348 680.186 209.156 680.375 209.848 680.754C210.541 681.127 211.079 681.695 211.464 682.459C211.849 683.216 212.041 684.175 212.041 685.335V694H209.946V685.477C209.946 684.406 209.668 683.571 209.112 682.974C208.555 682.37 207.792 682.068 206.821 682.068C206.152 682.068 205.554 682.213 205.028 682.503C204.507 682.793 204.096 683.216 203.794 683.773C203.492 684.329 203.341 685.004 203.341 685.797ZM221.41 694.284C220.131 694.284 219.03 693.982 218.107 693.379C217.184 692.775 216.473 691.943 215.976 690.884C215.479 689.824 215.231 688.614 215.231 687.253C215.231 685.868 215.485 684.646 215.994 683.586C216.509 682.521 217.225 681.689 218.142 681.092C219.066 680.488 220.143 680.186 221.374 680.186C222.333 680.186 223.197 680.364 223.966 680.719C224.736 681.074 225.366 681.571 225.857 682.21C226.349 682.849 226.653 683.595 226.772 684.447H224.677C224.517 683.826 224.162 683.276 223.611 682.796C223.067 682.311 222.333 682.068 221.41 682.068C220.593 682.068 219.877 682.281 219.261 682.707C218.651 683.128 218.175 683.722 217.832 684.492C217.494 685.255 217.326 686.152 217.326 687.182C217.326 688.235 217.491 689.153 217.823 689.934C218.16 690.715 218.634 691.322 219.243 691.754C219.859 692.186 220.581 692.402 221.41 692.402C221.954 692.402 222.448 692.307 222.892 692.118C223.336 691.929 223.712 691.656 224.02 691.301C224.327 690.946 224.546 690.52 224.677 690.023H226.772C226.653 690.828 226.36 691.553 225.893 692.198C225.431 692.837 224.819 693.346 224.055 693.725C223.298 694.098 222.416 694.284 221.41 694.284ZM231.93 685.797V694H229.835V675.818H231.93V682.494H232.107C232.427 681.79 232.906 681.231 233.546 680.816C234.191 680.396 235.049 680.186 236.12 680.186C237.049 680.186 237.863 680.373 238.562 680.745C239.26 681.112 239.801 681.678 240.186 682.441C240.577 683.199 240.772 684.163 240.772 685.335V694H238.677V685.477C238.677 684.394 238.396 683.557 237.834 682.965C237.277 682.367 236.505 682.068 235.516 682.068C234.83 682.068 234.214 682.213 233.67 682.503C233.131 682.793 232.705 683.216 232.391 683.773C232.084 684.329 231.93 685.004 231.93 685.797ZM250.322 694.284C249.009 694.284 247.875 693.994 246.922 693.414C245.975 692.828 245.244 692.011 244.729 690.964C244.22 689.91 243.966 688.685 243.966 687.288C243.966 685.892 244.22 684.661 244.729 683.595C245.244 682.524 245.96 681.689 246.878 681.092C247.801 680.488 248.878 680.186 250.109 680.186C250.82 680.186 251.521 680.304 252.213 680.541C252.906 680.778 253.536 681.163 254.104 681.695C254.673 682.222 255.125 682.92 255.463 683.79C255.8 684.661 255.969 685.732 255.969 687.004V687.892H245.457V686.081H253.838C253.838 685.312 253.684 684.625 253.376 684.021C253.075 683.418 252.643 682.941 252.08 682.592C251.524 682.243 250.867 682.068 250.109 682.068C249.275 682.068 248.553 682.275 247.943 682.69C247.339 683.098 246.875 683.631 246.549 684.288C246.224 684.945 246.061 685.649 246.061 686.401V687.608C246.061 688.638 246.239 689.511 246.594 690.227C246.955 690.937 247.455 691.479 248.094 691.852C248.733 692.219 249.476 692.402 250.322 692.402C250.873 692.402 251.37 692.325 251.814 692.171C252.264 692.011 252.651 691.775 252.977 691.461C253.302 691.141 253.554 690.745 253.732 690.271L255.756 690.839C255.543 691.526 255.185 692.13 254.681 692.651C254.178 693.165 253.557 693.568 252.817 693.858C252.077 694.142 251.246 694.284 250.322 694.284ZM268.815 683.418L266.933 683.95C266.815 683.637 266.64 683.332 266.409 683.036C266.184 682.734 265.876 682.485 265.486 682.29C265.095 682.095 264.595 681.997 263.985 681.997C263.151 681.997 262.455 682.19 261.899 682.574C261.349 682.953 261.074 683.435 261.074 684.021C261.074 684.542 261.263 684.953 261.642 685.255C262.02 685.557 262.612 685.809 263.417 686.01L265.441 686.507C266.661 686.803 267.569 687.256 268.167 687.865C268.765 688.469 269.064 689.247 269.064 690.2C269.064 690.982 268.839 691.68 268.389 692.295C267.945 692.911 267.324 693.396 266.525 693.751C265.725 694.107 264.796 694.284 263.737 694.284C262.346 694.284 261.195 693.982 260.283 693.379C259.372 692.775 258.795 691.893 258.552 690.733L260.541 690.236C260.73 690.97 261.088 691.52 261.615 691.887C262.148 692.254 262.843 692.438 263.701 692.438C264.678 692.438 265.453 692.23 266.027 691.816C266.607 691.396 266.897 690.893 266.897 690.307C266.897 689.833 266.732 689.437 266.4 689.117C266.069 688.792 265.56 688.549 264.873 688.389L262.6 687.857C261.352 687.561 260.434 687.102 259.848 686.48C259.268 685.853 258.978 685.069 258.978 684.128C258.978 683.358 259.194 682.678 259.626 682.086C260.064 681.494 260.659 681.029 261.411 680.692C262.168 680.355 263.027 680.186 263.985 680.186C265.335 680.186 266.394 680.482 267.164 681.074C267.939 681.666 268.489 682.447 268.815 683.418ZM278.148 680.364V682.139H271.081V680.364H278.148ZM273.141 677.097H275.236V690.094C275.236 690.686 275.322 691.129 275.493 691.425C275.671 691.715 275.896 691.911 276.168 692.011C276.446 692.106 276.739 692.153 277.047 692.153C277.278 692.153 277.467 692.142 277.615 692.118C277.763 692.088 277.881 692.065 277.97 692.047L278.396 693.929C278.254 693.982 278.056 694.036 277.802 694.089C277.547 694.148 277.225 694.178 276.834 694.178C276.242 694.178 275.662 694.05 275.094 693.796C274.532 693.541 274.064 693.154 273.691 692.633C273.324 692.112 273.141 691.455 273.141 690.662V677.097ZM286.87 694.284C285.556 694.284 284.423 693.994 283.47 693.414C282.523 692.828 281.792 692.011 281.277 690.964C280.768 689.91 280.514 688.685 280.514 687.288C280.514 685.892 280.768 684.661 281.277 683.595C281.792 682.524 282.508 681.689 283.426 681.092C284.349 680.488 285.426 680.186 286.657 680.186C287.367 680.186 288.069 680.304 288.761 680.541C289.454 680.778 290.084 681.163 290.652 681.695C291.22 682.222 291.673 682.92 292.011 683.79C292.348 684.661 292.517 685.732 292.517 687.004V687.892H282.005V686.081H290.386C290.386 685.312 290.232 684.625 289.924 684.021C289.622 683.418 289.19 682.941 288.628 682.592C288.072 682.243 287.415 682.068 286.657 682.068C285.823 682.068 285.101 682.275 284.491 682.69C283.887 683.098 283.423 683.631 283.097 684.288C282.772 684.945 282.609 685.649 282.609 686.401V687.608C282.609 688.638 282.786 689.511 283.142 690.227C283.503 690.937 284.003 691.479 284.642 691.852C285.281 692.219 286.024 692.402 286.87 692.402C287.421 692.402 287.918 692.325 288.362 692.171C288.812 692.011 289.199 691.775 289.525 691.461C289.85 691.141 290.102 690.745 290.279 690.271L292.304 690.839C292.09 691.526 291.732 692.13 291.229 692.651C290.726 693.165 290.105 693.568 289.365 693.858C288.625 694.142 287.794 694.284 286.87 694.284ZM295.704 694V680.364H297.728V682.423H297.87C298.119 681.749 298.568 681.201 299.219 680.781C299.87 680.361 300.604 680.151 301.421 680.151C301.575 680.151 301.767 680.154 301.998 680.159C302.229 680.165 302.404 680.174 302.522 680.186V682.317C302.451 682.299 302.288 682.272 302.034 682.237C301.785 682.195 301.522 682.175 301.244 682.175C300.581 682.175 299.989 682.314 299.468 682.592C298.953 682.864 298.545 683.243 298.243 683.728C297.947 684.208 297.799 684.755 297.799 685.371V694H295.704Z" fill="black"/>
<path d="M319.832 436.5H317.631C317.5 435.867 317.273 435.31 316.947 434.831C316.627 434.352 316.237 433.949 315.775 433.624C315.319 433.292 314.813 433.044 314.257 432.878C313.701 432.712 313.121 432.629 312.517 432.629C311.416 432.629 310.419 432.907 309.525 433.464C308.637 434.02 307.93 434.84 307.403 435.923C306.883 437.006 306.622 438.335 306.622 439.909C306.622 441.483 306.883 442.812 307.403 443.895C307.93 444.978 308.637 445.798 309.525 446.354C310.419 446.911 311.416 447.189 312.517 447.189C313.121 447.189 313.701 447.106 314.257 446.94C314.813 446.775 315.319 446.529 315.775 446.203C316.237 445.872 316.627 445.467 316.947 444.987C317.273 444.502 317.5 443.946 317.631 443.318H319.832C319.667 444.247 319.365 445.079 318.927 445.813C318.489 446.547 317.944 447.171 317.293 447.686C316.642 448.195 315.911 448.583 315.1 448.849C314.296 449.115 313.434 449.249 312.517 449.249C310.966 449.249 309.587 448.87 308.38 448.112C307.173 447.355 306.223 446.277 305.53 444.881C304.838 443.484 304.491 441.827 304.491 439.909C304.491 437.991 304.838 436.334 305.53 434.938C306.223 433.541 307.173 432.464 308.38 431.706C309.587 430.948 310.966 430.57 312.517 430.57C313.434 430.57 314.296 430.703 315.1 430.969C315.911 431.235 316.642 431.626 317.293 432.141C317.944 432.65 318.489 433.271 318.927 434.005C319.365 434.733 319.667 435.565 319.832 436.5ZM328.646 449.284C327.415 449.284 326.335 448.991 325.405 448.405C324.482 447.819 323.76 447 323.239 445.946C322.724 444.893 322.467 443.661 322.467 442.253C322.467 440.832 322.724 439.592 323.239 438.533C323.76 437.474 324.482 436.651 325.405 436.065C326.335 435.479 327.415 435.186 328.646 435.186C329.877 435.186 330.954 435.479 331.877 436.065C332.807 436.651 333.529 437.474 334.044 438.533C334.564 439.592 334.825 440.832 334.825 442.253C334.825 443.661 334.564 444.893 334.044 445.946C333.529 447 332.807 447.819 331.877 448.405C330.954 448.991 329.877 449.284 328.646 449.284ZM328.646 447.402C329.581 447.402 330.35 447.162 330.954 446.683C331.558 446.203 332.005 445.573 332.295 444.792C332.585 444.011 332.73 443.164 332.73 442.253C332.73 441.341 332.585 440.492 332.295 439.705C332.005 438.918 331.558 438.281 330.954 437.796C330.35 437.311 329.581 437.068 328.646 437.068C327.711 437.068 326.941 437.311 326.338 437.796C325.734 438.281 325.287 438.918 324.997 439.705C324.707 440.492 324.562 441.341 324.562 442.253C324.562 443.164 324.707 444.011 324.997 444.792C325.287 445.573 325.734 446.203 326.338 446.683C326.941 447.162 327.711 447.402 328.646 447.402ZM340.118 440.797V449H338.023V435.364H340.047V437.494H340.225C340.544 436.802 341.03 436.246 341.681 435.825C342.332 435.399 343.172 435.186 344.202 435.186C345.125 435.186 345.933 435.375 346.626 435.754C347.318 436.127 347.857 436.695 348.241 437.459C348.626 438.216 348.819 439.175 348.819 440.335V449H346.723V440.477C346.723 439.406 346.445 438.571 345.889 437.974C345.333 437.37 344.569 437.068 343.598 437.068C342.93 437.068 342.332 437.213 341.805 437.503C341.284 437.793 340.873 438.216 340.571 438.773C340.269 439.329 340.118 440.004 340.118 440.797ZM355.737 449L351.582 435.364H353.783L356.731 445.804H356.873L359.785 435.364H362.022L364.899 445.768H365.041L367.988 435.364H370.19L366.035 449H363.975L360.992 438.524H360.779L357.796 449H355.737ZM376.972 449.32C376.108 449.32 375.324 449.157 374.62 448.831C373.915 448.5 373.356 448.023 372.942 447.402C372.528 446.775 372.32 446.017 372.32 445.129C372.32 444.348 372.474 443.715 372.782 443.229C373.09 442.738 373.501 442.353 374.016 442.075C374.531 441.797 375.099 441.59 375.721 441.454C376.348 441.312 376.978 441.199 377.612 441.116C378.44 441.01 379.112 440.93 379.627 440.877C380.148 440.818 380.526 440.72 380.763 440.584C381.006 440.448 381.127 440.211 381.127 439.874V439.803C381.127 438.927 380.888 438.246 380.408 437.761C379.935 437.275 379.216 437.033 378.251 437.033C377.251 437.033 376.466 437.252 375.898 437.69C375.33 438.128 374.93 438.595 374.7 439.092L372.711 438.382C373.066 437.554 373.54 436.908 374.131 436.447C374.729 435.979 375.38 435.654 376.085 435.47C376.795 435.281 377.493 435.186 378.18 435.186C378.618 435.186 379.121 435.239 379.689 435.346C380.263 435.446 380.816 435.657 381.349 435.976C381.888 436.296 382.335 436.778 382.69 437.423C383.045 438.068 383.222 438.933 383.222 440.016V449H381.127V447.153H381.021C380.879 447.449 380.642 447.766 380.31 448.103C379.979 448.441 379.538 448.728 378.988 448.964C378.437 449.201 377.765 449.32 376.972 449.32ZM377.292 447.438C378.121 447.438 378.819 447.275 379.387 446.949C379.961 446.624 380.393 446.203 380.683 445.689C380.979 445.174 381.127 444.632 381.127 444.064V442.146C381.038 442.253 380.843 442.35 380.541 442.439C380.245 442.522 379.902 442.596 379.511 442.661C379.127 442.72 378.751 442.774 378.384 442.821C378.023 442.862 377.73 442.898 377.505 442.928C376.961 442.999 376.452 443.114 375.978 443.274C375.511 443.428 375.132 443.661 374.842 443.975C374.558 444.283 374.416 444.703 374.416 445.236C374.416 445.964 374.685 446.514 375.223 446.887C375.768 447.254 376.457 447.438 377.292 447.438ZM387.908 454.114C387.553 454.114 387.236 454.084 386.958 454.025C386.68 453.972 386.487 453.918 386.381 453.865L386.913 452.018C387.422 452.149 387.872 452.196 388.263 452.161C388.653 452.125 389 451.95 389.301 451.637C389.609 451.329 389.89 450.829 390.145 450.136L390.536 449.071L385.493 435.364H387.766L391.53 446.23H391.672L395.436 435.364H397.709L391.92 450.989C391.66 451.693 391.337 452.276 390.953 452.738C390.568 453.205 390.121 453.551 389.612 453.776C389.109 454.001 388.541 454.114 387.908 454.114Z" fill="black"/>
<path d="M217.202 358V339.818H219.403V356.047H227.855V358H217.202ZM230.98 358V344.364H233.075V358H230.98ZM232.045 342.091C231.637 342.091 231.285 341.952 230.989 341.674C230.699 341.395 230.554 341.061 230.554 340.67C230.554 340.28 230.699 339.945 230.989 339.667C231.285 339.389 231.637 339.25 232.045 339.25C232.454 339.25 232.803 339.389 233.093 339.667C233.389 339.945 233.537 340.28 233.537 340.67C233.537 341.061 233.389 341.395 233.093 341.674C232.803 341.952 232.454 342.091 232.045 342.091ZM242.843 344.364V346.139H235.776V344.364H242.843ZM237.836 341.097H239.931V354.094C239.931 354.686 240.017 355.129 240.189 355.425C240.366 355.715 240.591 355.911 240.863 356.011C241.142 356.106 241.435 356.153 241.742 356.153C241.973 356.153 242.162 356.142 242.31 356.118C242.458 356.088 242.577 356.065 242.666 356.047L243.092 357.929C242.95 357.982 242.751 358.036 242.497 358.089C242.242 358.148 241.92 358.178 241.529 358.178C240.937 358.178 240.357 358.05 239.789 357.796C239.227 357.541 238.759 357.154 238.386 356.633C238.02 356.112 237.836 355.455 237.836 354.662V341.097ZM251.925 344.364V346.139H244.858V344.364H251.925ZM246.918 341.097H249.013V354.094C249.013 354.686 249.099 355.129 249.271 355.425C249.448 355.715 249.673 355.911 249.945 356.011C250.224 356.106 250.517 356.153 250.824 356.153C251.055 356.153 251.245 356.142 251.392 356.118C251.54 356.088 251.659 356.065 251.748 356.047L252.174 357.929C252.032 357.982 251.833 358.036 251.579 358.089C251.324 358.148 251.002 358.178 250.611 358.178C250.019 358.178 249.439 358.05 248.871 357.796C248.309 357.541 247.841 357.154 247.468 356.633C247.102 356.112 246.918 355.455 246.918 354.662V341.097ZM257.465 339.818V358H255.37V339.818H257.465ZM267.02 358.284C265.706 358.284 264.572 357.994 263.619 357.414C262.673 356.828 261.942 356.011 261.427 354.964C260.918 353.91 260.663 352.685 260.663 351.288C260.663 349.892 260.918 348.661 261.427 347.595C261.942 346.524 262.658 345.689 263.575 345.092C264.498 344.488 265.576 344.186 266.807 344.186C267.517 344.186 268.218 344.304 268.911 344.541C269.603 344.778 270.233 345.163 270.802 345.695C271.37 346.222 271.823 346.92 272.16 347.79C272.497 348.661 272.666 349.732 272.666 351.004V351.892H262.155V350.081H270.535C270.535 349.312 270.381 348.625 270.074 348.021C269.772 347.418 269.34 346.941 268.778 346.592C268.221 346.243 267.564 346.068 266.807 346.068C265.972 346.068 265.25 346.275 264.64 346.69C264.037 347.098 263.572 347.631 263.247 348.288C262.921 348.945 262.758 349.649 262.758 350.401V351.608C262.758 352.638 262.936 353.511 263.291 354.227C263.652 354.937 264.152 355.479 264.791 355.852C265.431 356.219 266.173 356.402 267.02 356.402C267.57 356.402 268.067 356.325 268.511 356.171C268.961 356.011 269.349 355.775 269.674 355.461C270 355.141 270.251 354.745 270.429 354.271L272.453 354.839C272.24 355.526 271.882 356.13 271.379 356.651C270.876 357.165 270.254 357.568 269.514 357.858C268.775 358.142 267.943 358.284 267.02 358.284ZM281.784 344.364V346.139H274.717V344.364H281.784ZM276.776 341.097H278.872V354.094C278.872 354.686 278.957 355.129 279.129 355.425C279.307 355.715 279.532 355.911 279.804 356.011C280.082 356.106 280.375 356.153 280.683 356.153C280.914 356.153 281.103 356.142 281.251 356.118C281.399 356.088 281.517 356.065 281.606 356.047L282.032 357.929C281.89 357.982 281.692 358.036 281.437 358.089C281.183 358.148 280.86 358.178 280.47 358.178C279.878 358.178 279.298 358.05 278.73 357.796C278.167 357.541 277.7 357.154 277.327 356.633C276.96 356.112 276.776 355.455 276.776 354.662V341.097ZM290.328 358.284C289.097 358.284 288.017 357.991 287.088 357.405C286.165 356.819 285.443 356 284.922 354.946C284.407 353.893 284.15 352.661 284.15 351.253C284.15 349.832 284.407 348.592 284.922 347.533C285.443 346.474 286.165 345.651 287.088 345.065C288.017 344.479 289.097 344.186 290.328 344.186C291.56 344.186 292.637 344.479 293.56 345.065C294.489 345.651 295.211 346.474 295.726 347.533C296.247 348.592 296.507 349.832 296.507 351.253C296.507 352.661 296.247 353.893 295.726 354.946C295.211 356 294.489 356.819 293.56 357.405C292.637 357.991 291.56 358.284 290.328 358.284ZM290.328 356.402C291.264 356.402 292.033 356.162 292.637 355.683C293.24 355.203 293.687 354.573 293.977 353.792C294.267 353.011 294.412 352.164 294.412 351.253C294.412 350.341 294.267 349.492 293.977 348.705C293.687 347.918 293.24 347.281 292.637 346.796C292.033 346.311 291.264 346.068 290.328 346.068C289.393 346.068 288.624 346.311 288.02 346.796C287.417 347.281 286.97 347.918 286.68 348.705C286.39 349.492 286.245 350.341 286.245 351.253C286.245 352.164 286.39 353.011 286.68 353.792C286.97 354.573 287.417 355.203 288.02 355.683C288.624 356.162 289.393 356.402 290.328 356.402ZM301.801 349.797V358H299.706V344.364H301.73V346.494H301.907C302.227 345.802 302.712 345.246 303.363 344.825C304.014 344.399 304.855 344.186 305.885 344.186C306.808 344.186 307.616 344.375 308.308 344.754C309.001 345.127 309.539 345.695 309.924 346.459C310.309 347.216 310.501 348.175 310.501 349.335V358H308.406V349.477C308.406 348.406 308.128 347.571 307.571 346.974C307.015 346.37 306.252 346.068 305.281 346.068C304.612 346.068 304.014 346.213 303.488 346.503C302.967 346.793 302.555 347.216 302.254 347.773C301.952 348.329 301.801 349.004 301.801 349.797Z" fill="black"/>
<path d="M374.812 670H369.202V651.818H375.061C376.825 651.818 378.334 652.182 379.589 652.91C380.844 653.632 381.805 654.671 382.474 656.026C383.143 657.376 383.477 658.991 383.477 660.874C383.477 662.768 383.14 664.398 382.465 665.765C381.79 667.127 380.808 668.174 379.518 668.908C378.228 669.636 376.659 670 374.812 670ZM371.403 668.047H374.67C376.174 668.047 377.42 667.757 378.408 667.177C379.396 666.597 380.133 665.771 380.619 664.7C381.104 663.629 381.347 662.353 381.347 660.874C381.347 659.406 381.107 658.142 380.627 657.083C380.148 656.017 379.432 655.201 378.479 654.632C377.526 654.058 376.339 653.771 374.919 653.771H371.403V668.047ZM392.426 670.284C391.195 670.284 390.115 669.991 389.186 669.405C388.262 668.819 387.54 668 387.02 666.946C386.505 665.893 386.247 664.661 386.247 663.253C386.247 661.832 386.505 660.592 387.02 659.533C387.54 658.474 388.262 657.651 389.186 657.065C390.115 656.479 391.195 656.186 392.426 656.186C393.657 656.186 394.734 656.479 395.658 657.065C396.587 657.651 397.309 658.474 397.824 659.533C398.345 660.592 398.605 661.832 398.605 663.253C398.605 664.661 398.345 665.893 397.824 666.946C397.309 668 396.587 668.819 395.658 669.405C394.734 669.991 393.657 670.284 392.426 670.284ZM392.426 668.402C393.361 668.402 394.131 668.162 394.734 667.683C395.338 667.203 395.785 666.573 396.075 665.792C396.365 665.011 396.51 664.164 396.51 663.253C396.51 662.341 396.365 661.492 396.075 660.705C395.785 659.918 395.338 659.281 394.734 658.796C394.131 658.311 393.361 658.068 392.426 658.068C391.491 658.068 390.722 658.311 390.118 658.796C389.514 659.281 389.067 659.918 388.777 660.705C388.487 661.492 388.342 662.341 388.342 663.253C388.342 664.164 388.487 665.011 388.777 665.792C389.067 666.573 389.514 667.203 390.118 667.683C390.722 668.162 391.491 668.402 392.426 668.402ZM412.466 656.364L407.423 670H405.292L400.25 656.364H402.522L406.287 667.23H406.429L410.193 656.364H412.466ZM420.46 670.284C419.146 670.284 418.013 669.994 417.06 669.414C416.113 668.828 415.382 668.011 414.867 666.964C414.358 665.91 414.104 664.685 414.104 663.288C414.104 661.892 414.358 660.661 414.867 659.595C415.382 658.524 416.098 657.689 417.016 657.092C417.939 656.488 419.016 656.186 420.247 656.186C420.957 656.186 421.659 656.304 422.351 656.541C423.044 656.778 423.674 657.163 424.242 657.695C424.81 658.222 425.263 658.92 425.6 659.79C425.938 660.661 426.106 661.732 426.106 663.004V663.892H415.595V662.081H423.976C423.976 661.312 423.822 660.625 423.514 660.021C423.212 659.418 422.78 658.941 422.218 658.592C421.662 658.243 421.005 658.068 420.247 658.068C419.413 658.068 418.69 658.275 418.081 658.69C417.477 659.098 417.013 659.631 416.687 660.288C416.362 660.945 416.199 661.649 416.199 662.401V663.608C416.199 664.638 416.376 665.511 416.731 666.227C417.092 666.937 417.593 667.479 418.232 667.852C418.871 668.219 419.614 668.402 420.46 668.402C421.011 668.402 421.508 668.325 421.952 668.171C422.401 668.011 422.789 667.775 423.115 667.461C423.44 667.141 423.692 666.745 423.869 666.271L425.893 666.839C425.68 667.526 425.322 668.13 424.819 668.651C424.316 669.165 423.695 669.568 422.955 669.858C422.215 670.142 421.383 670.284 420.46 670.284ZM429.294 670V656.364H431.318V658.423H431.46C431.708 657.749 432.158 657.201 432.809 656.781C433.46 656.361 434.194 656.151 435.011 656.151C435.165 656.151 435.357 656.154 435.588 656.159C435.819 656.165 435.993 656.174 436.112 656.186V658.317C436.041 658.299 435.878 658.272 435.623 658.237C435.375 658.195 435.112 658.175 434.833 658.175C434.17 658.175 433.579 658.314 433.058 658.592C432.543 658.864 432.134 659.243 431.833 659.728C431.537 660.208 431.389 660.755 431.389 661.371V670H429.294Z" fill="black"/>
<path d="M288.202 592V573.818H294.345C295.766 573.818 296.932 574.061 297.843 574.546C298.754 575.026 299.429 575.685 299.867 576.526C300.305 577.366 300.524 578.322 300.524 579.393C300.524 580.465 300.305 581.415 299.867 582.243C299.429 583.072 298.757 583.723 297.852 584.196C296.946 584.664 295.789 584.898 294.381 584.898H289.409V582.909H294.31C295.28 582.909 296.062 582.767 296.653 582.483C297.251 582.199 297.683 581.796 297.95 581.276C298.222 580.749 298.358 580.121 298.358 579.393C298.358 578.665 298.222 578.029 297.95 577.485C297.677 576.94 297.242 576.52 296.645 576.224C296.047 575.922 295.257 575.771 294.274 575.771H290.403V592H288.202ZM296.76 583.832L301.234 592H298.678L294.274 583.832H296.76ZM309.302 592.284C308.071 592.284 306.991 591.991 306.062 591.405C305.138 590.819 304.416 590 303.896 588.946C303.381 587.893 303.123 586.661 303.123 585.253C303.123 583.832 303.381 582.592 303.896 581.533C304.416 580.474 305.138 579.651 306.062 579.065C306.991 578.479 308.071 578.186 309.302 578.186C310.533 578.186 311.61 578.479 312.534 579.065C313.463 579.651 314.185 580.474 314.7 581.533C315.221 582.592 315.481 583.832 315.481 585.253C315.481 586.661 315.221 587.893 314.7 588.946C314.185 590 313.463 590.819 312.534 591.405C311.61 591.991 310.533 592.284 309.302 592.284ZM309.302 590.402C310.237 590.402 311.007 590.162 311.61 589.683C312.214 589.203 312.661 588.573 312.951 587.792C313.241 587.011 313.386 586.164 313.386 585.253C313.386 584.341 313.241 583.492 312.951 582.705C312.661 581.918 312.214 581.281 311.61 580.796C311.007 580.311 310.237 580.068 309.302 580.068C308.367 580.068 307.598 580.311 306.994 580.796C306.39 581.281 305.943 581.918 305.653 582.705C305.363 583.492 305.218 584.341 305.218 585.253C305.218 586.164 305.363 587.011 305.653 587.792C305.943 588.573 306.39 589.203 306.994 589.683C307.598 590.162 308.367 590.402 309.302 590.402ZM324.219 592.284C322.941 592.284 321.84 591.982 320.917 591.379C319.993 590.775 319.283 589.943 318.786 588.884C318.289 587.824 318.04 586.614 318.04 585.253C318.04 583.868 318.295 582.646 318.804 581.586C319.319 580.521 320.035 579.689 320.952 579.092C321.875 578.488 322.953 578.186 324.184 578.186C325.142 578.186 326.007 578.364 326.776 578.719C327.545 579.074 328.176 579.571 328.667 580.21C329.158 580.849 329.463 581.595 329.581 582.447H327.486C327.326 581.826 326.971 581.276 326.421 580.796C325.876 580.311 325.142 580.068 324.219 580.068C323.402 580.068 322.686 580.281 322.071 580.707C321.461 581.128 320.985 581.722 320.641 582.492C320.304 583.255 320.135 584.152 320.135 585.182C320.135 586.235 320.301 587.153 320.632 587.934C320.97 588.715 321.443 589.322 322.053 589.754C322.668 590.186 323.391 590.402 324.219 590.402C324.764 590.402 325.258 590.307 325.702 590.118C326.146 589.929 326.521 589.656 326.829 589.301C327.137 588.946 327.356 588.52 327.486 588.023H329.581C329.463 588.828 329.17 589.553 328.702 590.198C328.241 590.837 327.628 591.346 326.865 591.725C326.107 592.098 325.225 592.284 324.219 592.284ZM334.739 583.797V592H332.644V573.818H334.739V580.494H334.917C335.237 579.79 335.716 579.231 336.355 578.816C337 578.396 337.858 578.186 338.93 578.186C339.859 578.186 340.673 578.373 341.371 578.745C342.069 579.112 342.611 579.678 342.996 580.441C343.386 581.199 343.582 582.163 343.582 583.335V592H341.487V583.477C341.487 582.394 341.205 581.557 340.643 580.965C340.087 580.367 339.314 580.068 338.326 580.068C337.639 580.068 337.024 580.213 336.479 580.503C335.941 580.793 335.515 581.216 335.201 581.773C334.893 582.329 334.739 583.004 334.739 583.797ZM353.132 592.284C351.818 592.284 350.685 591.994 349.732 591.414C348.785 590.828 348.054 590.011 347.539 588.964C347.03 587.91 346.775 586.685 346.775 585.288C346.775 583.892 347.03 582.661 347.539 581.595C348.054 580.524 348.77 579.689 349.687 579.092C350.611 578.488 351.688 578.186 352.919 578.186C353.629 578.186 354.331 578.304 355.023 578.541C355.715 578.778 356.346 579.163 356.914 579.695C357.482 580.222 357.935 580.92 358.272 581.79C358.61 582.661 358.778 583.732 358.778 585.004V585.892H348.267V584.081H356.648C356.648 583.312 356.494 582.625 356.186 582.021C355.884 581.418 355.452 580.941 354.89 580.592C354.333 580.243 353.677 580.068 352.919 580.068C352.084 580.068 351.362 580.275 350.753 580.69C350.149 581.098 349.684 581.631 349.359 582.288C349.033 582.945 348.871 583.649 348.871 584.401V585.608C348.871 586.638 349.048 587.511 349.403 588.227C349.764 588.937 350.264 589.479 350.904 589.852C351.543 590.219 352.286 590.402 353.132 590.402C353.682 590.402 354.18 590.325 354.623 590.171C355.073 590.011 355.461 589.775 355.786 589.461C356.112 589.141 356.364 588.745 356.541 588.271L358.565 588.839C358.352 589.526 357.994 590.13 357.491 590.651C356.988 591.165 356.367 591.568 355.627 591.858C354.887 592.142 354.055 592.284 353.132 592.284ZM371.625 581.418L369.742 581.95C369.624 581.637 369.449 581.332 369.219 581.036C368.994 580.734 368.686 580.485 368.295 580.29C367.905 580.095 367.405 579.997 366.795 579.997C365.96 579.997 365.265 580.19 364.709 580.574C364.158 580.953 363.883 581.435 363.883 582.021C363.883 582.542 364.072 582.953 364.451 583.255C364.83 583.557 365.422 583.809 366.227 584.01L368.251 584.507C369.47 584.803 370.379 585.256 370.976 585.865C371.574 586.469 371.873 587.247 371.873 588.2C371.873 588.982 371.648 589.68 371.198 590.295C370.755 590.911 370.133 591.396 369.334 591.751C368.535 592.107 367.606 592.284 366.546 592.284C365.156 592.284 364.004 591.982 363.093 591.379C362.181 590.775 361.604 589.893 361.362 588.733L363.35 588.236C363.54 588.97 363.898 589.52 364.425 589.887C364.957 590.254 365.653 590.438 366.511 590.438C367.487 590.438 368.263 590.23 368.837 589.816C369.417 589.396 369.707 588.893 369.707 588.307C369.707 587.833 369.541 587.437 369.21 587.117C368.878 586.792 368.369 586.549 367.683 586.389L365.41 585.857C364.161 585.561 363.244 585.102 362.658 584.48C362.078 583.853 361.788 583.069 361.788 582.128C361.788 581.358 362.004 580.678 362.436 580.086C362.874 579.494 363.469 579.029 364.22 578.692C364.978 578.355 365.836 578.186 366.795 578.186C368.144 578.186 369.204 578.482 369.973 579.074C370.749 579.666 371.299 580.447 371.625 581.418ZM380.957 578.364V580.139H373.891V578.364H380.957ZM375.95 575.097H378.045V588.094C378.045 588.686 378.131 589.129 378.303 589.425C378.48 589.715 378.705 589.911 378.978 590.011C379.256 590.106 379.549 590.153 379.857 590.153C380.087 590.153 380.277 590.142 380.425 590.118C380.573 590.088 380.691 590.065 380.78 590.047L381.206 591.929C381.064 591.982 380.866 592.036 380.611 592.089C380.357 592.148 380.034 592.178 379.643 592.178C379.052 592.178 378.472 592.05 377.903 591.796C377.341 591.541 376.874 591.154 376.501 590.633C376.134 590.112 375.95 589.455 375.95 588.662V575.097ZM389.68 592.284C388.366 592.284 387.233 591.994 386.28 591.414C385.333 590.828 384.602 590.011 384.087 588.964C383.578 587.91 383.323 586.685 383.323 585.288C383.323 583.892 383.578 582.661 384.087 581.595C384.602 580.524 385.318 579.689 386.235 579.092C387.159 578.488 388.236 578.186 389.467 578.186C390.177 578.186 390.878 578.304 391.571 578.541C392.263 578.778 392.894 579.163 393.462 579.695C394.03 580.222 394.483 580.92 394.82 581.79C395.157 582.661 395.326 583.732 395.326 585.004V585.892H384.815V584.081H393.195C393.195 583.312 393.042 582.625 392.734 582.021C392.432 581.418 392 580.941 391.438 580.592C390.881 580.243 390.224 580.068 389.467 580.068C388.632 580.068 387.91 580.275 387.301 580.69C386.697 581.098 386.232 581.631 385.907 582.288C385.581 582.945 385.419 583.649 385.419 584.401V585.608C385.419 586.638 385.596 587.511 385.951 588.227C386.312 588.937 386.812 589.479 387.452 589.852C388.091 590.219 388.834 590.402 389.68 590.402C390.23 590.402 390.727 590.325 391.171 590.171C391.621 590.011 392.009 589.775 392.334 589.461C392.66 589.141 392.911 588.745 393.089 588.271L395.113 588.839C394.9 589.526 394.542 590.13 394.039 590.651C393.536 591.165 392.914 591.568 392.175 591.858C391.435 592.142 390.603 592.284 389.68 592.284ZM398.513 592V578.364H400.537V580.423H400.68C400.928 579.749 401.378 579.201 402.029 578.781C402.68 578.361 403.414 578.151 404.231 578.151C404.385 578.151 404.577 578.154 404.808 578.159C405.039 578.165 405.213 578.174 405.331 578.186V580.317C405.26 580.299 405.098 580.272 404.843 580.237C404.595 580.195 404.331 580.175 404.053 580.175C403.39 580.175 402.798 580.314 402.278 580.592C401.763 580.864 401.354 581.243 401.052 581.728C400.756 582.208 400.608 582.755 400.608 583.371V592H398.513Z" fill="black"/>
<circle cx="296.511" cy="630.511" r="9.01136" fill="#FF8F87" stroke="black"/>
<path d="M191.623 627.184H187.734C187.663 626.681 187.518 626.234 187.299 625.843C187.08 625.446 186.799 625.109 186.456 624.831C186.112 624.553 185.716 624.34 185.266 624.192C184.822 624.044 184.34 623.97 183.819 623.97C182.878 623.97 182.058 624.204 181.36 624.671C180.661 625.133 180.12 625.808 179.735 626.695C179.35 627.577 179.158 628.648 179.158 629.909C179.158 631.205 179.35 632.294 179.735 633.176C180.126 634.058 180.67 634.724 181.369 635.174C182.067 635.623 182.875 635.848 183.792 635.848C184.307 635.848 184.784 635.78 185.222 635.644C185.665 635.508 186.059 635.31 186.402 635.049C186.746 634.783 187.03 634.46 187.255 634.082C187.485 633.703 187.645 633.271 187.734 632.786L191.623 632.803C191.522 633.638 191.27 634.443 190.868 635.218C190.471 635.987 189.936 636.677 189.261 637.287C188.592 637.89 187.793 638.37 186.864 638.725C185.941 639.074 184.896 639.249 183.73 639.249C182.108 639.249 180.658 638.882 179.38 638.148C178.107 637.414 177.101 636.351 176.362 634.961C175.628 633.57 175.261 631.886 175.261 629.909C175.261 627.926 175.634 626.24 176.379 624.849C177.125 623.458 178.137 622.398 179.415 621.67C180.694 620.937 182.132 620.57 183.73 620.57C184.784 620.57 185.76 620.718 186.66 621.013C187.565 621.309 188.367 621.741 189.066 622.31C189.764 622.872 190.332 623.561 190.77 624.378C191.214 625.195 191.498 626.13 191.623 627.184ZM200.469 639.266C199.09 639.266 197.898 638.973 196.892 638.387C195.891 637.796 195.119 636.973 194.574 635.919C194.03 634.86 193.758 633.632 193.758 632.235C193.758 630.826 194.03 629.595 194.574 628.542C195.119 627.482 195.891 626.66 196.892 626.074C197.898 625.482 199.09 625.186 200.469 625.186C201.848 625.186 203.038 625.482 204.038 626.074C205.044 626.66 205.82 627.482 206.364 628.542C206.909 629.595 207.181 630.826 207.181 632.235C207.181 633.632 206.909 634.86 206.364 635.919C205.82 636.973 205.044 637.796 204.038 638.387C203.038 638.973 201.848 639.266 200.469 639.266ZM200.487 636.337C201.114 636.337 201.638 636.159 202.058 635.804C202.479 635.443 202.795 634.952 203.008 634.33C203.227 633.709 203.337 633.002 203.337 632.208C203.337 631.415 203.227 630.708 203.008 630.087C202.795 629.465 202.479 628.974 202.058 628.613C201.638 628.252 201.114 628.071 200.487 628.071C199.854 628.071 199.321 628.252 198.889 628.613C198.463 628.974 198.14 629.465 197.921 630.087C197.708 630.708 197.602 631.415 197.602 632.208C197.602 633.002 197.708 633.709 197.921 634.33C198.14 634.952 198.463 635.443 198.889 635.804C199.321 636.159 199.854 636.337 200.487 636.337ZM213.422 631.116V639H209.64V625.364H213.244V627.77H213.404C213.706 626.976 214.212 626.349 214.922 625.887C215.633 625.42 216.494 625.186 217.506 625.186C218.453 625.186 219.278 625.393 219.983 625.808C220.687 626.222 221.235 626.814 221.625 627.583C222.016 628.347 222.211 629.258 222.211 630.317V639H218.429V630.992C218.435 630.158 218.222 629.507 217.79 629.039C217.358 628.566 216.763 628.329 216.006 628.329C215.497 628.329 215.047 628.438 214.656 628.657C214.271 628.876 213.97 629.196 213.751 629.616C213.537 630.03 213.428 630.531 213.422 631.116ZM231.353 639.266C229.956 639.266 228.755 638.97 227.749 638.379C226.748 637.781 225.979 636.952 225.44 635.893C224.908 634.833 224.641 633.614 224.641 632.235C224.641 630.838 224.911 629.613 225.449 628.56C225.994 627.5 226.766 626.675 227.766 626.083C228.767 625.485 229.956 625.186 231.335 625.186C232.525 625.186 233.567 625.402 234.46 625.834C235.354 626.266 236.061 626.873 236.582 627.654C237.103 628.435 237.39 629.353 237.443 630.406H233.874C233.774 629.726 233.507 629.178 233.075 628.764C232.649 628.344 232.09 628.134 231.397 628.134C230.812 628.134 230.3 628.293 229.862 628.613C229.43 628.927 229.092 629.385 228.85 629.989C228.607 630.593 228.486 631.324 228.486 632.182C228.486 633.052 228.604 633.792 228.841 634.401C229.083 635.011 229.424 635.475 229.862 635.795C230.3 636.115 230.812 636.275 231.397 636.275C231.83 636.275 232.217 636.186 232.56 636.008C232.91 635.831 233.197 635.573 233.422 635.236C233.652 634.893 233.803 634.481 233.874 634.002H237.443C237.384 635.043 237.1 635.961 236.591 636.754C236.088 637.541 235.392 638.157 234.505 638.6C233.617 639.044 232.566 639.266 231.353 639.266ZM246.026 639.266C244.647 639.266 243.454 638.973 242.448 638.387C241.448 637.796 240.676 636.973 240.131 635.919C239.587 634.86 239.314 633.632 239.314 632.235C239.314 630.826 239.587 629.595 240.131 628.542C240.676 627.482 241.448 626.66 242.448 626.074C243.454 625.482 244.647 625.186 246.026 625.186C247.405 625.186 248.595 625.482 249.595 626.074C250.601 626.66 251.376 627.482 251.921 628.542C252.465 629.595 252.738 630.826 252.738 632.235C252.738 633.632 252.465 634.86 251.921 635.919C251.376 636.973 250.601 637.796 249.595 638.387C248.595 638.973 247.405 639.266 246.026 639.266ZM246.044 636.337C246.671 636.337 247.195 636.159 247.615 635.804C248.035 635.443 248.352 634.952 248.565 634.33C248.784 633.709 248.893 633.002 248.893 632.208C248.893 631.415 248.784 630.708 248.565 630.087C248.352 629.465 248.035 628.974 247.615 628.613C247.195 628.252 246.671 628.071 246.044 628.071C245.41 628.071 244.878 628.252 244.446 628.613C244.02 628.974 243.697 629.465 243.478 630.087C243.265 630.708 243.158 631.415 243.158 632.208C243.158 633.002 243.265 633.709 243.478 634.33C243.697 634.952 244.02 635.443 244.446 635.804C244.878 636.159 245.41 636.337 246.044 636.337ZM255.197 639V625.364H258.863V627.743H259.005C259.254 626.897 259.671 626.257 260.257 625.825C260.843 625.387 261.518 625.168 262.281 625.168C262.471 625.168 262.675 625.18 262.894 625.204C263.113 625.228 263.305 625.26 263.471 625.301V628.657C263.293 628.604 263.048 628.557 262.734 628.515C262.42 628.474 262.133 628.453 261.873 628.453C261.317 628.453 260.819 628.574 260.381 628.817C259.949 629.054 259.606 629.385 259.352 629.811C259.103 630.238 258.979 630.729 258.979 631.285V639H255.197ZM269.816 639.222C268.781 639.222 267.842 638.956 267.002 638.423C266.168 637.884 265.505 637.094 265.013 636.053C264.528 635.005 264.285 633.721 264.285 632.2C264.285 630.637 264.537 629.338 265.04 628.302C265.543 627.261 266.212 626.482 267.046 625.967C267.887 625.446 268.807 625.186 269.807 625.186C270.571 625.186 271.207 625.316 271.716 625.577C272.231 625.831 272.645 626.151 272.959 626.536C273.279 626.914 273.521 627.287 273.687 627.654H273.802V620.818H277.576V639H273.847V636.816H273.687C273.509 637.195 273.258 637.571 272.932 637.944C272.613 638.31 272.196 638.615 271.681 638.858C271.172 639.101 270.55 639.222 269.816 639.222ZM271.015 636.212C271.624 636.212 272.139 636.047 272.56 635.715C272.986 635.378 273.311 634.907 273.536 634.304C273.767 633.7 273.882 632.993 273.882 632.182C273.882 631.371 273.77 630.667 273.545 630.069C273.32 629.471 272.995 629.009 272.568 628.684C272.142 628.358 271.624 628.196 271.015 628.196C270.393 628.196 269.87 628.364 269.443 628.702C269.017 629.039 268.695 629.507 268.476 630.104C268.257 630.702 268.147 631.395 268.147 632.182C268.147 632.975 268.257 633.676 268.476 634.286C268.701 634.89 269.023 635.363 269.443 635.706C269.87 636.044 270.393 636.212 271.015 636.212Z" fill="black"/>
<defs>
<filter id="filter0_d_51_53" x="88.5" y="39.5172" width="380.602" height="740.992" filterUnits="userSpaceOnUse" color-interpolation-filters="sRGB">
<feFlood flood-opacity="0" result="BackgroundImageFix"/>
<feColorMatrix in="SourceAlpha" type="matrix" values="0 0 0 0 0 0 0 0 0 0 0 0 0 0 0 0 0 0 127 0" result="hardAlpha"/>
<feOffset dy="4"/>
<feGaussianBlur stdDeviation="2"/>
<feComposite in2="hardAlpha" operator="out"/>
<feColorMatrix type="matrix" values="0 0 0 0 0 0 0 0 0 0 0 0 0 0 0 0 0 0 0.25 0"/>
<feBlend mode="normal" in2="BackgroundImageFix" result="effect1_dropShadow_51_53"/>
<feBlend mode="normal" in="SourceGraphic" in2="effect1_dropShadow_51_53" result="shape"/>
</filter>
</defs>
</svg>
