<svg width="1111" height="964" viewBox="0 0 1111 964" fill="none" xmlns="http://www.w3.org/2000/svg">
<rect x="0.5" y="0.5" width="1110" height="963" rx="35.5" fill="#97DCFF" stroke="#717171"/>
<g filter="url(#filter0_d_90_159)">
<path d="M186 461.5L189 470.5L190 479.5L184 486.5L168.5 496.5L165.5 504.5L153.5 518.5L142 523L128.5 532.5L121 540L106 550.5L81 566V610L617 610.5L621 616L626 620L629.5 631H638L650.5 640L647.5 646L653.5 649L654.5 673.5L652 675.5L662.5 693.5L671.5 697L674.5 701L677 700.5L681.5 702.5L683 701L685.5 704L691 702.5L692.5 708.5L697 714L792.5 772.5L791 787L786.5 798.5L782 809.5L779.5 819.5L780.5 823.5L779 833L775.5 834L773 830L768 829.5L758.5 831L757.5 840.5L752 845L750.5 854L770.5 843.5L778.5 836.5L782 840.5L791 839L794 835.495L799 834H808.5L811 838L817.5 839L821 834L826.5 835.495L831 833.392L843 830L858 827.5L869 823.5L876.501 819L885.5 820.5L903 814L909.5 815L913 813H922L936 805.5L947.5 807L959 799.749L960 795.5L965 796.5L970 791.338L975 795.5L988.766 788.535L1025 773.115C1024.22 766.438 1056 761.5 1037 760L1031 761.5V765.5H1027.5L1025 768.5L1014.5 772.5L1005.5 765.5L1002.5 768.5L998 766.5L996 768.5L995.5 772.5H985.5L978.5 778L967.5 790L963 787.5L952 786L968.5 773.115H972.5V769.5L977 766.5V759L975 757.5C975 757.5 958.42 774.516 950 774.516C941.58 774.516 914.607 779.402 914.607 779.402L900 778H890.5L885.5 780.124V785L876.501 788.535L866.5 782.5L862.5 785L860 791.338L854.048 788.535L850 782.5H845.628L844 785L845.628 793H842L834.5 788.535L825.5 791.338L823 799.749L817.5 793L815 796.5L809 805.5L804.5 796.5L823 772.5L817 756.5L845.628 738.07L837 724L845.628 602.5L843 592.5L872 486L870 479L873.695 353L868 347L865.5 340.5H856.855L855 350.5L852 347L850 338.5L859.661 313.5L855 292.5L850 272.669L853.5 248.5L863.5 230.5L859.661 204L853.5 193L855 184L850 167.5L852 155.5L856.855 158L855 149.5L859.661 142.5L856.855 138.5C857.79 125.416 861.5 105 861.5 105C861.5 102.757 851.613 104.065 846 105L701.5 105L692.5 107L681.5 105L666 113.5L645.5 124L622 138.5L597 159L579 179L568 193.5V202L555.5 215.5L548 221L540 219.5L536 221L531.5 228L528.5 225.5L522.866 228L521.5 234H525L527.113 236.5L516.5 240.5L510.5 244L505 248.5L498 255.5L495.5 260.5V264.5L502.5 267L502 272.669L505 277.5L504 282L506.5 283L514 273.5L510.5 266L514 267L520.5 266L521.5 272.669L514 281L518.5 284L527.113 278.5L529.5 280.5L522.866 287L521.5 294L513.5 299.5L506.5 297L504 302L506.027 306.313L511.64 317.527L513.5 349.5L508.5 356.5L497.5 358.5L492 358L487 358.5L476 367L465 374L451 388L431.5 396L420.5 401L416.5 400L391 398L370.5 398.832L347.5 404.5L338.5 399L331.5 391.5C319.338 385.893 291.991 382.5 287.5 382.5H254H228.5L209.5 388L190.5 392L166 400.5L167 420.5L165 424.5L164.5 432L169.5 433.5L172.5 435.5L170.5 441L171.5 447L176 449.5L184 455L186 461.5Z" fill="#FFD597"/>
<path d="M186 461.5L189 470.5L190 479.5L184 486.5L168.5 496.5L165.5 504.5L153.5 518.5L142 523L128.5 532.5L121 540L106 550.5L81 566V610L617 610.5L621 616L626 620L629.5 631H638L650.5 640L647.5 646L653.5 649L654.5 673.5L652 675.5L662.5 693.5L671.5 697L674.5 701L677 700.5L681.5 702.5L683 701L685.5 704L691 702.5L692.5 708.5L697 714L792.5 772.5L791 787L786.5 798.5L782 809.5L779.5 819.5L780.5 823.5L779 833L775.5 834L773 830L768 829.5L758.5 831L757.5 840.5L752 845L750.5 854L770.5 843.5L778.5 836.5L782 840.5L791 839L794 835.495L799 834H808.5L811 838L817.5 839L821 834L826.5 835.495L831 833.392L843 830L858 827.5L869 823.5L876.501 819L885.5 820.5L903 814L909.5 815L913 813H922L936 805.5L947.5 807L959 799.749L960 795.5L965 796.5L970 791.338L975 795.5L988.766 788.535L1025 773.115C1024.22 766.438 1056 761.5 1037 760L1031 761.5V765.5H1027.5L1025 768.5L1014.5 772.5L1005.5 765.5L1002.5 768.5L998 766.5L996 768.5L995.5 772.5H985.5L978.5 778L967.5 790L963 787.5L952 786L968.5 773.115H972.5V769.5L977 766.5V759L975 757.5C975 757.5 958.42 774.516 950 774.516C941.58 774.516 914.607 779.402 914.607 779.402L900 778H890.5L885.5 780.124V785L876.501 788.535L866.5 782.5L862.5 785L860 791.338L854.048 788.535L850 782.5H845.628L844 785L845.628 793H842L834.5 788.535L825.5 791.338L823 799.749L817.5 793L815 796.5L809 805.5L804.5 796.5L823 772.5L817 756.5L845.628 738.07L837 724L845.628 602.5L843 592.5L872 486L870 479L873.695 353L868 347L865.5 340.5H856.855L855 350.5L852 347L850 338.5L859.661 313.5L855 292.5L850 272.669L853.5 248.5L863.5 230.5L859.661 204L853.5 193L855 184L850 167.5L852 155.5L856.855 158L855 149.5L859.661 142.5L856.855 138.5C857.79 125.416 861.5 105 861.5 105C861.5 102.757 851.613 104.065 846 105L701.5 105L692.5 107L681.5 105L666 113.5L645.5 124L622 138.5L597 159L579 179L568 193.5V202L555.5 215.5L548 221L540 219.5L536 221L531.5 228L528.5 225.5L522.866 228L521.5 234H525L527.113 236.5L516.5 240.5L510.5 244L505 248.5L498 255.5L495.5 260.5V264.5L502.5 267L502 272.669L505 277.5L504 282L506.5 283L514 273.5L510.5 266L514 267L520.5 266L521.5 272.669L514 281L518.5 284L527.113 278.5L529.5 280.5L522.866 287L521.5 294L513.5 299.5L506.5 297L504 302L506.027 306.313L511.64 317.527L513.5 349.5L508.5 356.5L497.5 358.5L492 358L487 358.5L476 367L465 374L451 388L431.5 396L420.5 401L416.5 400L391 398L370.5 398.832L347.5 404.5L338.5 399L331.5 391.5C319.338 385.893 291.991 382.5 287.5 382.5H254H228.5L209.5 388L190.5 392L166 400.5L167 420.5L165 424.5L164.5 432L169.5 433.5L172.5 435.5L170.5 441L171.5 447L176 449.5L184 455L186 461.5Z" stroke="black"/>
</g>
<line x1="872.042" y1="486.605" x2="894.5" y2="487.396" stroke="#FFE587" stroke-width="2"/>
<line x1="861" y1="104" x2="883.472" y2="104" stroke="#00E45F" stroke-width="2"/>
<line x1="706.49" y1="104.852" x2="719.49" y2="97.14" stroke="#00E45F" stroke-width="2"/>
<line x1="144.631" y1="409.368" x2="165.515" y2="401.071" stroke="#00E45F" stroke-width="2"/>
<line x1="163.798" y1="467.562" x2="185.806" y2="463.021" stroke="#00E45F" stroke-width="2"/>
<path d="M884.722 625.545H888.591L893.773 638.193H893.977L899.159 625.545H903.028V643H899.994V631.009H899.832L895.009 642.949H892.741L887.918 630.983H887.756V643H884.722V625.545ZM908.713 643H905.338L911.483 625.545H915.386L921.54 643H918.165L913.503 629.125H913.366L908.713 643ZM908.824 636.156H918.028V638.696H908.824V636.156Z" fill="#005A5E"/>
<path d="M358.722 662V644.545H365.267C366.608 644.545 367.733 644.795 368.642 645.295C369.557 645.795 370.247 646.483 370.713 647.358C371.185 648.227 371.42 649.216 371.42 650.324C371.42 651.443 371.185 652.437 370.713 653.307C370.241 654.176 369.545 654.861 368.625 655.361C367.705 655.855 366.571 656.102 365.224 656.102H360.886V653.503H364.798C365.582 653.503 366.224 653.366 366.724 653.094C367.224 652.821 367.594 652.446 367.832 651.969C368.077 651.491 368.199 650.943 368.199 650.324C368.199 649.705 368.077 649.159 367.832 648.688C367.594 648.216 367.222 647.849 366.716 647.588C366.216 647.321 365.571 647.188 364.781 647.188H361.884V662H358.722ZM374.463 662H371.088L377.233 644.545H381.136L387.29 662H383.915L379.253 648.125H379.116L374.463 662ZM374.574 655.156H383.778V657.696H374.574V655.156Z" fill="#005A5E"/>
<path d="M696.065 827.545V845H693.253L685.028 833.111H684.884V845H681.722V827.545H684.551L692.767 839.443H692.92V827.545H696.065ZM706.397 827.545H709.533V839.818C709.528 840.943 709.289 841.912 708.817 842.724C708.346 843.531 707.687 844.153 706.84 844.591C705.999 845.023 705.019 845.239 703.9 845.239C702.877 845.239 701.957 845.057 701.138 844.693C700.326 844.324 699.681 843.778 699.204 843.057C698.727 842.335 698.488 841.437 698.488 840.364H701.633C701.638 840.835 701.741 841.241 701.94 841.582C702.144 841.923 702.425 842.185 702.783 842.366C703.141 842.548 703.553 842.639 704.019 842.639C704.525 842.639 704.954 842.534 705.306 842.324C705.658 842.108 705.925 841.79 706.107 841.369C706.295 840.949 706.391 840.432 706.397 839.818V827.545Z" fill="#005A5E"/>
<path d="M898.057 290.545L902.599 304.284H902.778L907.312 290.545H910.79L904.636 308H900.733L894.588 290.545H898.057ZM912.322 293.196V290.545H926.248V293.196H920.853V308H917.717V293.196H912.322Z" fill="#005A5E"/>
<circle cx="811.511" cy="503.511" r="9.01136" fill="#FF8F87" stroke="black"/>
<path d="M761.714 479H757.595L763.871 460.818H768.825L775.093 479H770.974L766.419 464.973H766.277L761.714 479ZM761.457 471.853H771.187V474.854H761.457V471.853ZM780.992 460.818V479H777.21V460.818H780.992ZM784.093 479V460.818H787.875V467.654H787.99C788.156 467.287 788.396 466.914 788.709 466.536C789.029 466.151 789.443 465.831 789.952 465.577C790.467 465.316 791.106 465.186 791.87 465.186C792.864 465.186 793.782 465.446 794.622 465.967C795.463 466.482 796.134 467.261 796.637 468.302C797.14 469.338 797.392 470.637 797.392 472.2C797.392 473.721 797.146 475.005 796.655 476.053C796.17 477.094 795.507 477.884 794.666 478.423C793.832 478.956 792.897 479.222 791.861 479.222C791.127 479.222 790.503 479.101 789.988 478.858C789.479 478.615 789.062 478.31 788.736 477.944C788.411 477.571 788.162 477.195 787.99 476.816H787.822V479H784.093ZM787.795 472.182C787.795 472.993 787.907 473.7 788.132 474.304C788.357 474.907 788.683 475.378 789.109 475.715C789.535 476.047 790.053 476.212 790.663 476.212C791.278 476.212 791.799 476.044 792.225 475.706C792.651 475.363 792.974 474.89 793.193 474.286C793.418 473.676 793.53 472.975 793.53 472.182C793.53 471.395 793.421 470.702 793.202 470.104C792.983 469.507 792.66 469.039 792.234 468.702C791.808 468.364 791.284 468.196 790.663 468.196C790.047 468.196 789.526 468.358 789.1 468.684C788.68 469.009 788.357 469.471 788.132 470.069C787.907 470.667 787.795 471.371 787.795 472.182ZM803.804 479.257C802.934 479.257 802.159 479.107 801.478 478.805C800.797 478.497 800.259 478.044 799.862 477.446C799.472 476.843 799.276 476.091 799.276 475.191C799.276 474.434 799.415 473.798 799.694 473.283C799.972 472.768 800.35 472.353 800.83 472.04C801.309 471.726 801.854 471.489 802.463 471.33C803.079 471.17 803.724 471.057 804.399 470.992C805.192 470.909 805.831 470.832 806.316 470.761C806.802 470.684 807.154 470.572 807.373 470.424C807.592 470.276 807.701 470.057 807.701 469.767V469.714C807.701 469.152 807.524 468.717 807.169 468.409C806.819 468.101 806.322 467.947 805.677 467.947C804.997 467.947 804.455 468.098 804.053 468.4C803.65 468.696 803.384 469.069 803.254 469.518L799.756 469.234C799.933 468.406 800.282 467.69 800.803 467.086C801.324 466.476 801.996 466.009 802.819 465.683C803.647 465.352 804.606 465.186 805.695 465.186C806.453 465.186 807.178 465.275 807.87 465.452C808.568 465.63 809.187 465.905 809.725 466.278C810.27 466.651 810.699 467.13 811.013 467.716C811.326 468.296 811.483 468.992 811.483 469.803V479H807.897V477.109H807.79C807.571 477.535 807.278 477.911 806.911 478.237C806.544 478.556 806.103 478.808 805.588 478.991C805.074 479.169 804.479 479.257 803.804 479.257ZM804.887 476.647C805.443 476.647 805.935 476.538 806.361 476.319C806.787 476.094 807.121 475.792 807.364 475.413C807.607 475.035 807.728 474.605 807.728 474.126V472.679C807.61 472.756 807.447 472.827 807.24 472.892C807.038 472.951 806.811 473.007 806.556 473.061C806.302 473.108 806.047 473.152 805.793 473.194C805.538 473.229 805.307 473.262 805.1 473.292C804.656 473.357 804.269 473.46 803.937 473.602C803.606 473.744 803.348 473.937 803.165 474.179C802.981 474.416 802.89 474.712 802.89 475.067C802.89 475.582 803.076 475.976 803.449 476.248C803.828 476.514 804.307 476.647 804.887 476.647ZM818.199 471.116V479H814.417V465.364H818.022V467.77H818.182C818.483 466.976 818.99 466.349 819.7 465.887C820.41 465.42 821.271 465.186 822.283 465.186C823.23 465.186 824.056 465.393 824.76 465.808C825.464 466.222 826.012 466.814 826.403 467.583C826.793 468.347 826.988 469.258 826.988 470.317V479H823.206V470.992C823.212 470.158 822.999 469.507 822.567 469.039C822.135 468.566 821.54 468.329 820.783 468.329C820.274 468.329 819.824 468.438 819.433 468.657C819.049 468.876 818.747 469.196 818.528 469.616C818.315 470.03 818.205 470.531 818.199 471.116ZM831.816 484.114C831.336 484.114 830.887 484.075 830.466 483.998C830.052 483.927 829.709 483.835 829.437 483.723L830.289 480.9C830.733 481.036 831.132 481.11 831.487 481.122C831.848 481.134 832.159 481.051 832.419 480.873C832.686 480.696 832.902 480.394 833.068 479.968L833.29 479.391L828.398 465.364H832.375L835.198 475.378H835.34L838.19 465.364H842.194L836.894 480.474C836.639 481.208 836.293 481.847 835.855 482.391C835.423 482.942 834.876 483.365 834.213 483.661C833.55 483.963 832.751 484.114 831.816 484.114Z" fill="black"/>
<path d="M200.202 494V475.818H206.558C207.825 475.818 208.869 476.037 209.692 476.475C210.515 476.907 211.127 477.49 211.53 478.224C211.932 478.952 212.134 479.76 212.134 480.648C212.134 481.429 211.994 482.074 211.716 482.583C211.444 483.092 211.083 483.495 210.633 483.79C210.189 484.086 209.707 484.305 209.186 484.447V484.625C209.742 484.661 210.302 484.856 210.864 485.211C211.426 485.566 211.897 486.075 212.276 486.738C212.654 487.401 212.844 488.212 212.844 489.17C212.844 490.082 212.637 490.902 212.222 491.63C211.808 492.358 211.154 492.935 210.26 493.361C209.367 493.787 208.204 494 206.771 494H200.202ZM202.403 492.047H206.771C208.21 492.047 209.23 491.769 209.834 491.212C210.444 490.65 210.749 489.969 210.749 489.17C210.749 488.555 210.592 487.987 210.278 487.466C209.964 486.939 209.518 486.519 208.938 486.205C208.357 485.886 207.671 485.726 206.878 485.726H202.403V492.047ZM202.403 483.808H206.487C207.15 483.808 207.748 483.678 208.281 483.418C208.819 483.157 209.245 482.79 209.559 482.317C209.879 481.843 210.038 481.287 210.038 480.648C210.038 479.849 209.76 479.171 209.204 478.615C208.647 478.052 207.766 477.771 206.558 477.771H202.403V483.808ZM224.771 488.425V480.364H226.866V494H224.771V491.692H224.629C224.309 492.384 223.812 492.973 223.138 493.458C222.463 493.938 221.611 494.178 220.581 494.178C219.729 494.178 218.971 493.991 218.308 493.618C217.645 493.239 217.124 492.671 216.746 491.914C216.367 491.15 216.177 490.188 216.177 489.028V480.364H218.273V488.886C218.273 489.881 218.551 490.674 219.107 491.266C219.669 491.857 220.385 492.153 221.256 492.153C221.776 492.153 222.306 492.02 222.845 491.754C223.389 491.488 223.845 491.079 224.212 490.529C224.585 489.978 224.771 489.277 224.771 488.425ZM236.776 480.364V482.139H229.425V480.364H236.776ZM231.627 494V478.482C231.627 477.7 231.811 477.049 232.177 476.528C232.544 476.008 233.021 475.617 233.607 475.357C234.193 475.096 234.811 474.966 235.462 474.966C235.977 474.966 236.397 475.007 236.723 475.09C237.048 475.173 237.291 475.25 237.451 475.321L236.847 477.132C236.741 477.097 236.593 477.052 236.403 476.999C236.22 476.946 235.977 476.919 235.675 476.919C234.983 476.919 234.483 477.094 234.175 477.443C233.873 477.792 233.722 478.304 233.722 478.979V494H231.627ZM245.785 480.364V482.139H238.434V480.364H245.785ZM240.636 494V478.482C240.636 477.7 240.819 477.049 241.186 476.528C241.553 476.008 242.03 475.617 242.616 475.357C243.202 475.096 243.82 474.966 244.471 474.966C244.986 474.966 245.406 475.007 245.732 475.09C246.057 475.173 246.3 475.25 246.46 475.321L245.856 477.132C245.749 477.097 245.602 477.052 245.412 476.999C245.229 476.946 244.986 476.919 244.684 476.919C243.992 476.919 243.492 477.094 243.184 477.443C242.882 477.792 242.731 478.304 242.731 478.979V494H240.636ZM252.343 494.32C251.479 494.32 250.695 494.157 249.991 493.831C249.287 493.5 248.727 493.023 248.313 492.402C247.899 491.775 247.691 491.017 247.691 490.129C247.691 489.348 247.845 488.715 248.153 488.229C248.461 487.738 248.872 487.353 249.387 487.075C249.902 486.797 250.47 486.59 251.092 486.454C251.719 486.312 252.349 486.199 252.983 486.116C253.811 486.01 254.483 485.93 254.998 485.877C255.519 485.818 255.898 485.72 256.134 485.584C256.377 485.448 256.498 485.211 256.498 484.874V484.803C256.498 483.927 256.259 483.246 255.779 482.761C255.306 482.275 254.587 482.033 253.622 482.033C252.622 482.033 251.837 482.252 251.269 482.69C250.701 483.128 250.302 483.595 250.071 484.092L248.082 483.382C248.437 482.554 248.911 481.908 249.503 481.447C250.1 480.979 250.751 480.654 251.456 480.47C252.166 480.281 252.864 480.186 253.551 480.186C253.989 480.186 254.492 480.239 255.06 480.346C255.634 480.446 256.188 480.657 256.72 480.976C257.259 481.296 257.706 481.778 258.061 482.423C258.416 483.068 258.593 483.933 258.593 485.016V494H256.498V492.153H256.392C256.25 492.449 256.013 492.766 255.682 493.103C255.35 493.441 254.909 493.728 254.359 493.964C253.808 494.201 253.137 494.32 252.343 494.32ZM252.663 492.438C253.492 492.438 254.19 492.275 254.758 491.949C255.332 491.624 255.764 491.203 256.054 490.689C256.35 490.174 256.498 489.632 256.498 489.064V487.146C256.41 487.253 256.214 487.35 255.912 487.439C255.616 487.522 255.273 487.596 254.883 487.661C254.498 487.72 254.122 487.774 253.755 487.821C253.394 487.862 253.101 487.898 252.876 487.928C252.332 487.999 251.823 488.114 251.349 488.274C250.882 488.428 250.503 488.661 250.213 488.975C249.929 489.283 249.787 489.703 249.787 490.236C249.787 490.964 250.056 491.514 250.595 491.887C251.139 492.254 251.829 492.438 252.663 492.438ZM264.513 475.818V494H262.418V475.818H264.513ZM273.89 494.284C272.659 494.284 271.579 493.991 270.65 493.405C269.726 492.819 269.004 492 268.483 490.946C267.968 489.893 267.711 488.661 267.711 487.253C267.711 485.832 267.968 484.592 268.483 483.533C269.004 482.474 269.726 481.651 270.65 481.065C271.579 480.479 272.659 480.186 273.89 480.186C275.121 480.186 276.198 480.479 277.122 481.065C278.051 481.651 278.773 482.474 279.288 483.533C279.809 484.592 280.069 485.832 280.069 487.253C280.069 488.661 279.809 489.893 279.288 490.946C278.773 492 278.051 492.819 277.122 493.405C276.198 493.991 275.121 494.284 273.89 494.284ZM273.89 492.402C274.825 492.402 275.595 492.162 276.198 491.683C276.802 491.203 277.249 490.573 277.539 489.792C277.829 489.011 277.974 488.164 277.974 487.253C277.974 486.341 277.829 485.492 277.539 484.705C277.249 483.918 276.802 483.281 276.198 482.796C275.595 482.311 274.825 482.068 273.89 482.068C272.955 482.068 272.185 482.311 271.582 482.796C270.978 483.281 270.531 483.918 270.241 484.705C269.951 485.492 269.806 486.341 269.806 487.253C269.806 488.164 269.951 489.011 270.241 489.792C270.531 490.573 270.978 491.203 271.582 491.683C272.185 492.162 272.955 492.402 273.89 492.402Z" fill="black"/>
<path d="M317.202 446V427.818H323.345C324.766 427.818 325.932 428.061 326.843 428.546C327.754 429.026 328.429 429.685 328.867 430.526C329.305 431.366 329.524 432.322 329.524 433.393C329.524 434.465 329.305 435.415 328.867 436.243C328.429 437.072 327.757 437.723 326.852 438.196C325.946 438.664 324.789 438.898 323.381 438.898H318.409V436.909H323.31C324.28 436.909 325.062 436.767 325.653 436.483C326.251 436.199 326.683 435.796 326.95 435.276C327.222 434.749 327.358 434.121 327.358 433.393C327.358 432.665 327.222 432.029 326.95 431.485C326.677 430.94 326.242 430.52 325.645 430.224C325.047 429.922 324.257 429.771 323.274 429.771H319.403V446H317.202ZM325.76 437.832L330.234 446H327.678L323.274 437.832H325.76ZM338.302 446.284C337.071 446.284 335.991 445.991 335.062 445.405C334.138 444.819 333.416 444 332.896 442.946C332.381 441.893 332.123 440.661 332.123 439.253C332.123 437.832 332.381 436.592 332.896 435.533C333.416 434.474 334.138 433.651 335.062 433.065C335.991 432.479 337.071 432.186 338.302 432.186C339.533 432.186 340.61 432.479 341.534 433.065C342.463 433.651 343.185 434.474 343.7 435.533C344.221 436.592 344.481 437.832 344.481 439.253C344.481 440.661 344.221 441.893 343.7 442.946C343.185 444 342.463 444.819 341.534 445.405C340.61 445.991 339.533 446.284 338.302 446.284ZM338.302 444.402C339.237 444.402 340.007 444.162 340.61 443.683C341.214 443.203 341.661 442.573 341.951 441.792C342.241 441.011 342.386 440.164 342.386 439.253C342.386 438.341 342.241 437.492 341.951 436.705C341.661 435.918 341.214 435.281 340.61 434.796C340.007 434.311 339.237 434.068 338.302 434.068C337.367 434.068 336.598 434.311 335.994 434.796C335.39 435.281 334.943 435.918 334.653 436.705C334.363 437.492 334.218 438.341 334.218 439.253C334.218 440.164 334.363 441.011 334.653 441.792C334.943 442.573 335.39 443.203 335.994 443.683C336.598 444.162 337.367 444.402 338.302 444.402ZM353.219 446.284C351.941 446.284 350.84 445.982 349.917 445.379C348.993 444.775 348.283 443.943 347.786 442.884C347.289 441.824 347.04 440.614 347.04 439.253C347.04 437.868 347.295 436.646 347.804 435.586C348.319 434.521 349.035 433.689 349.952 433.092C350.875 432.488 351.953 432.186 353.184 432.186C354.142 432.186 355.007 432.364 355.776 432.719C356.545 433.074 357.176 433.571 357.667 434.21C358.158 434.849 358.463 435.595 358.581 436.447H356.486C356.326 435.826 355.971 435.276 355.421 434.796C354.876 434.311 354.142 434.068 353.219 434.068C352.402 434.068 351.686 434.281 351.071 434.707C350.461 435.128 349.985 435.722 349.641 436.492C349.304 437.255 349.135 438.152 349.135 439.182C349.135 440.235 349.301 441.153 349.632 441.934C349.97 442.715 350.443 443.322 351.053 443.754C351.668 444.186 352.391 444.402 353.219 444.402C353.764 444.402 354.258 444.307 354.702 444.118C355.146 443.929 355.521 443.656 355.829 443.301C356.137 442.946 356.356 442.52 356.486 442.023H358.581C358.463 442.828 358.17 443.553 357.702 444.198C357.241 444.837 356.628 445.346 355.865 445.725C355.107 446.098 354.225 446.284 353.219 446.284ZM363.739 437.797V446H361.644V427.818H363.739V434.494H363.917C364.237 433.79 364.716 433.231 365.355 432.816C366 432.396 366.858 432.186 367.93 432.186C368.859 432.186 369.673 432.373 370.371 432.745C371.069 433.112 371.611 433.678 371.996 434.441C372.386 435.199 372.582 436.163 372.582 437.335V446H370.487V437.477C370.487 436.394 370.205 435.557 369.643 434.965C369.087 434.367 368.314 434.068 367.326 434.068C366.639 434.068 366.024 434.213 365.479 434.503C364.941 434.793 364.515 435.216 364.201 435.773C363.893 436.329 363.739 437.004 363.739 437.797ZM382.132 446.284C380.818 446.284 379.685 445.994 378.732 445.414C377.785 444.828 377.054 444.011 376.539 442.964C376.03 441.91 375.775 440.685 375.775 439.288C375.775 437.892 376.03 436.661 376.539 435.595C377.054 434.524 377.77 433.689 378.687 433.092C379.611 432.488 380.688 432.186 381.919 432.186C382.629 432.186 383.331 432.304 384.023 432.541C384.715 432.778 385.346 433.163 385.914 433.695C386.482 434.222 386.935 434.92 387.272 435.79C387.61 436.661 387.778 437.732 387.778 439.004V439.892H377.267V438.081H385.648C385.648 437.312 385.494 436.625 385.186 436.021C384.884 435.418 384.452 434.941 383.89 434.592C383.333 434.243 382.677 434.068 381.919 434.068C381.084 434.068 380.362 434.275 379.753 434.69C379.149 435.098 378.684 435.631 378.359 436.288C378.033 436.945 377.871 437.649 377.871 438.401V439.608C377.871 440.638 378.048 441.511 378.403 442.227C378.764 442.937 379.264 443.479 379.904 443.852C380.543 444.219 381.286 444.402 382.132 444.402C382.682 444.402 383.18 444.325 383.623 444.171C384.073 444.011 384.461 443.775 384.786 443.461C385.112 443.141 385.364 442.745 385.541 442.271L387.565 442.839C387.352 443.526 386.994 444.13 386.491 444.651C385.988 445.165 385.367 445.568 384.627 445.858C383.887 446.142 383.055 446.284 382.132 446.284ZM400.625 435.418L398.742 435.95C398.624 435.637 398.449 435.332 398.219 435.036C397.994 434.734 397.686 434.485 397.295 434.29C396.905 434.095 396.405 433.997 395.795 433.997C394.96 433.997 394.265 434.19 393.709 434.574C393.158 434.953 392.883 435.435 392.883 436.021C392.883 436.542 393.072 436.953 393.451 437.255C393.83 437.557 394.422 437.809 395.227 438.01L397.251 438.507C398.47 438.803 399.379 439.256 399.976 439.865C400.574 440.469 400.873 441.247 400.873 442.2C400.873 442.982 400.648 443.68 400.198 444.295C399.755 444.911 399.133 445.396 398.334 445.751C397.535 446.107 396.606 446.284 395.546 446.284C394.156 446.284 393.004 445.982 392.093 445.379C391.181 444.775 390.604 443.893 390.362 442.733L392.35 442.236C392.54 442.97 392.898 443.52 393.425 443.887C393.957 444.254 394.653 444.438 395.511 444.438C396.487 444.438 397.263 444.23 397.837 443.816C398.417 443.396 398.707 442.893 398.707 442.307C398.707 441.833 398.541 441.437 398.21 441.117C397.878 440.792 397.369 440.549 396.683 440.389L394.41 439.857C393.161 439.561 392.244 439.102 391.658 438.48C391.078 437.853 390.788 437.069 390.788 436.128C390.788 435.358 391.004 434.678 391.436 434.086C391.874 433.494 392.469 433.029 393.22 432.692C393.978 432.355 394.836 432.186 395.795 432.186C397.144 432.186 398.204 432.482 398.973 433.074C399.749 433.666 400.299 434.447 400.625 435.418ZM409.957 432.364V434.139H402.891V432.364H409.957ZM404.95 429.097H407.045V442.094C407.045 442.686 407.131 443.129 407.303 443.425C407.48 443.715 407.705 443.911 407.978 444.011C408.256 444.106 408.549 444.153 408.857 444.153C409.087 444.153 409.277 444.142 409.425 444.118C409.573 444.088 409.691 444.065 409.78 444.047L410.206 445.929C410.064 445.982 409.866 446.036 409.611 446.089C409.357 446.148 409.034 446.178 408.643 446.178C408.052 446.178 407.472 446.05 406.903 445.796C406.341 445.541 405.874 445.154 405.501 444.633C405.134 444.112 404.95 443.455 404.95 442.662V429.097ZM418.68 446.284C417.366 446.284 416.233 445.994 415.28 445.414C414.333 444.828 413.602 444.011 413.087 442.964C412.578 441.91 412.323 440.685 412.323 439.288C412.323 437.892 412.578 436.661 413.087 435.595C413.602 434.524 414.318 433.689 415.235 433.092C416.159 432.488 417.236 432.186 418.467 432.186C419.177 432.186 419.878 432.304 420.571 432.541C421.263 432.778 421.894 433.163 422.462 433.695C423.03 434.222 423.483 434.92 423.82 435.79C424.157 436.661 424.326 437.732 424.326 439.004V439.892H413.815V438.081H422.195C422.195 437.312 422.042 436.625 421.734 436.021C421.432 435.418 421 434.941 420.438 434.592C419.881 434.243 419.224 434.068 418.467 434.068C417.632 434.068 416.91 434.275 416.301 434.69C415.697 435.098 415.232 435.631 414.907 436.288C414.581 436.945 414.419 437.649 414.419 438.401V439.608C414.419 440.638 414.596 441.511 414.951 442.227C415.312 442.937 415.812 443.479 416.452 443.852C417.091 444.219 417.834 444.402 418.68 444.402C419.23 444.402 419.727 444.325 420.171 444.171C420.621 444.011 421.009 443.775 421.334 443.461C421.66 443.141 421.911 442.745 422.089 442.271L424.113 442.839C423.9 443.526 423.542 444.13 423.039 444.651C422.536 445.165 421.914 445.568 421.175 445.858C420.435 446.142 419.603 446.284 418.68 446.284ZM427.513 446V432.364H429.537V434.423H429.68C429.928 433.749 430.378 433.201 431.029 432.781C431.68 432.361 432.414 432.151 433.231 432.151C433.385 432.151 433.577 432.154 433.808 432.159C434.039 432.165 434.213 432.174 434.331 432.186V434.317C434.26 434.299 434.098 434.272 433.843 434.237C433.595 434.195 433.331 434.175 433.053 434.175C432.39 434.175 431.798 434.314 431.278 434.592C430.763 434.864 430.354 435.243 430.052 435.728C429.756 436.208 429.608 436.755 429.608 437.371V446H427.513Z" fill="black"/>
<path d="M497.145 457.364C497.038 456.464 496.606 455.766 495.849 455.268C495.091 454.771 494.162 454.523 493.061 454.523C492.256 454.523 491.552 454.653 490.948 454.913C490.35 455.174 489.883 455.532 489.545 455.988C489.214 456.443 489.048 456.961 489.048 457.541C489.048 458.027 489.164 458.444 489.395 458.793C489.631 459.136 489.933 459.423 490.3 459.654C490.667 459.879 491.052 460.065 491.454 460.213C491.857 460.355 492.227 460.471 492.564 460.56L494.411 461.057C494.884 461.181 495.411 461.353 495.991 461.572C496.577 461.791 497.136 462.09 497.669 462.468C498.207 462.841 498.651 463.321 499 463.907C499.35 464.493 499.524 465.212 499.524 466.064C499.524 467.046 499.267 467.934 498.752 468.727C498.243 469.52 497.497 470.151 496.515 470.618C495.538 471.086 494.351 471.32 492.955 471.32C491.652 471.32 490.525 471.109 489.572 470.689C488.625 470.269 487.879 469.683 487.335 468.931C486.796 468.18 486.491 467.307 486.42 466.312H488.693C488.752 466.999 488.983 467.567 489.386 468.017C489.794 468.461 490.309 468.792 490.93 469.011C491.558 469.224 492.232 469.331 492.955 469.331C493.795 469.331 494.55 469.195 495.218 468.923C495.887 468.644 496.417 468.26 496.808 467.768C497.198 467.271 497.393 466.691 497.393 466.028C497.393 465.425 497.225 464.933 496.887 464.555C496.55 464.176 496.106 463.868 495.556 463.631C495.005 463.395 494.411 463.187 493.771 463.01L491.534 462.371C490.114 461.962 488.989 461.379 488.161 460.622C487.332 459.864 486.918 458.873 486.918 457.648C486.918 456.63 487.193 455.742 487.743 454.984C488.3 454.221 489.045 453.629 489.98 453.209C490.922 452.783 491.972 452.57 493.132 452.57C494.304 452.57 495.346 452.78 496.257 453.2C497.169 453.614 497.891 454.182 498.423 454.904C498.962 455.627 499.246 456.446 499.276 457.364H497.145ZM504.209 476.114C503.854 476.114 503.538 476.084 503.259 476.025C502.981 475.972 502.789 475.918 502.682 475.865L503.215 474.018C503.724 474.149 504.174 474.196 504.565 474.161C504.955 474.125 505.301 473.95 505.603 473.637C505.911 473.329 506.192 472.829 506.447 472.136L506.837 471.071L501.795 457.364H504.067L507.832 468.23H507.974L511.738 457.364H514.011L508.222 472.989C507.962 473.693 507.639 474.276 507.255 474.738C506.87 475.205 506.423 475.551 505.914 475.776C505.411 476.001 504.843 476.114 504.209 476.114ZM516.776 471V457.364H518.8V459.423H518.942C519.191 458.749 519.641 458.201 520.292 457.781C520.943 457.361 521.677 457.151 522.493 457.151C522.647 457.151 522.84 457.154 523.07 457.159C523.301 457.165 523.476 457.174 523.594 457.186V459.317C523.523 459.299 523.36 459.272 523.106 459.237C522.857 459.195 522.594 459.175 522.316 459.175C521.653 459.175 521.061 459.314 520.54 459.592C520.025 459.864 519.617 460.243 519.315 460.728C519.019 461.208 518.871 461.755 518.871 462.371V471H516.776ZM530.091 471.32C529.226 471.32 528.442 471.157 527.738 470.831C527.034 470.5 526.474 470.023 526.06 469.402C525.646 468.775 525.439 468.017 525.439 467.129C525.439 466.348 525.592 465.715 525.9 465.229C526.208 464.738 526.619 464.353 527.134 464.075C527.649 463.797 528.217 463.59 528.839 463.454C529.466 463.312 530.096 463.199 530.73 463.116C531.558 463.01 532.23 462.93 532.745 462.877C533.266 462.818 533.645 462.72 533.881 462.584C534.124 462.448 534.245 462.211 534.245 461.874V461.803C534.245 460.927 534.006 460.246 533.526 459.761C533.053 459.275 532.334 459.033 531.369 459.033C530.369 459.033 529.585 459.252 529.016 459.69C528.448 460.128 528.049 460.595 527.818 461.092L525.829 460.382C526.184 459.554 526.658 458.908 527.25 458.447C527.847 457.979 528.498 457.654 529.203 457.47C529.913 457.281 530.611 457.186 531.298 457.186C531.736 457.186 532.239 457.239 532.807 457.346C533.381 457.446 533.935 457.657 534.467 457.976C535.006 458.296 535.453 458.778 535.808 459.423C536.163 460.068 536.341 460.933 536.341 462.016V471H534.245V469.153H534.139C533.997 469.449 533.76 469.766 533.429 470.103C533.097 470.441 532.656 470.728 532.106 470.964C531.555 471.201 530.884 471.32 530.091 471.32ZM530.41 469.438C531.239 469.438 531.937 469.275 532.505 468.949C533.079 468.624 533.511 468.203 533.801 467.689C534.097 467.174 534.245 466.632 534.245 466.064V464.146C534.157 464.253 533.961 464.35 533.659 464.439C533.364 464.522 533.02 464.596 532.63 464.661C532.245 464.72 531.869 464.774 531.502 464.821C531.141 464.862 530.848 464.898 530.623 464.928C530.079 464.999 529.57 465.114 529.096 465.274C528.629 465.428 528.25 465.661 527.96 465.975C527.676 466.283 527.534 466.703 527.534 467.236C527.534 467.964 527.803 468.514 528.342 468.887C528.886 469.254 529.576 469.438 530.41 469.438ZM545.704 471.284C544.426 471.284 543.325 470.982 542.402 470.379C541.479 469.775 540.768 468.943 540.271 467.884C539.774 466.824 539.525 465.614 539.525 464.253C539.525 462.868 539.78 461.646 540.289 460.586C540.804 459.521 541.52 458.689 542.437 458.092C543.361 457.488 544.438 457.186 545.669 457.186C546.628 457.186 547.492 457.364 548.261 457.719C549.031 458.074 549.661 458.571 550.152 459.21C550.643 459.849 550.948 460.595 551.067 461.447H548.972C548.812 460.826 548.457 460.276 547.906 459.796C547.362 459.311 546.628 459.068 545.704 459.068C544.888 459.068 544.172 459.281 543.556 459.707C542.946 460.128 542.47 460.722 542.127 461.492C541.789 462.255 541.621 463.152 541.621 464.182C541.621 465.235 541.786 466.153 542.118 466.934C542.455 467.715 542.929 468.322 543.538 468.754C544.154 469.186 544.876 469.402 545.704 469.402C546.249 469.402 546.743 469.307 547.187 469.118C547.631 468.929 548.007 468.656 548.315 468.301C548.622 467.946 548.841 467.52 548.972 467.023H551.067C550.948 467.828 550.655 468.553 550.188 469.198C549.726 469.837 549.114 470.346 548.35 470.725C547.592 471.098 546.711 471.284 545.704 471.284ZM562.723 465.425V457.364H564.818V471H562.723V468.692H562.581C562.262 469.384 561.764 469.973 561.09 470.458C560.415 470.938 559.563 471.178 558.533 471.178C557.681 471.178 556.923 470.991 556.26 470.618C555.597 470.239 555.076 469.671 554.698 468.914C554.319 468.15 554.13 467.188 554.13 466.028V457.364H556.225V465.886C556.225 466.881 556.503 467.674 557.059 468.266C557.621 468.857 558.338 469.153 559.208 469.153C559.728 469.153 560.258 469.02 560.797 468.754C561.341 468.488 561.797 468.079 562.164 467.529C562.537 466.978 562.723 466.277 562.723 465.425ZM578.315 460.418L576.433 460.95C576.315 460.637 576.14 460.332 575.909 460.036C575.684 459.734 575.376 459.485 574.986 459.29C574.595 459.095 574.095 458.997 573.485 458.997C572.651 458.997 571.955 459.19 571.399 459.574C570.849 459.953 570.574 460.435 570.574 461.021C570.574 461.542 570.763 461.953 571.142 462.255C571.52 462.557 572.112 462.809 572.917 463.01L574.941 463.507C576.161 463.803 577.069 464.256 577.667 464.865C578.265 465.469 578.564 466.247 578.564 467.2C578.564 467.982 578.339 468.68 577.889 469.295C577.445 469.911 576.824 470.396 576.025 470.751C575.225 471.107 574.296 471.284 573.237 471.284C571.846 471.284 570.695 470.982 569.783 470.379C568.872 469.775 568.295 468.893 568.052 467.733L570.041 467.236C570.23 467.97 570.588 468.52 571.115 468.887C571.648 469.254 572.343 469.438 573.201 469.438C574.178 469.438 574.953 469.23 575.527 468.816C576.107 468.396 576.397 467.893 576.397 467.307C576.397 466.833 576.232 466.437 575.9 466.117C575.569 465.792 575.06 465.549 574.373 465.389L572.1 464.857C570.852 464.561 569.934 464.102 569.348 463.48C568.768 462.853 568.478 462.069 568.478 461.128C568.478 460.358 568.694 459.678 569.126 459.086C569.564 458.494 570.159 458.029 570.911 457.692C571.668 457.355 572.527 457.186 573.485 457.186C574.835 457.186 575.894 457.482 576.664 458.074C577.439 458.666 577.989 459.447 578.315 460.418ZM587.435 471.284C586.121 471.284 584.987 470.994 584.035 470.414C583.088 469.828 582.357 469.011 581.842 467.964C581.333 466.91 581.078 465.685 581.078 464.288C581.078 462.892 581.333 461.661 581.842 460.595C582.357 459.524 583.073 458.689 583.99 458.092C584.913 457.488 585.991 457.186 587.222 457.186C587.932 457.186 588.633 457.304 589.326 457.541C590.018 457.778 590.649 458.163 591.217 458.695C591.785 459.222 592.238 459.92 592.575 460.79C592.912 461.661 593.081 462.732 593.081 464.004V464.892H582.57V463.081H590.95C590.95 462.312 590.796 461.625 590.489 461.021C590.187 460.418 589.755 459.941 589.193 459.592C588.636 459.243 587.979 459.068 587.222 459.068C586.387 459.068 585.665 459.275 585.055 459.69C584.452 460.098 583.987 460.631 583.662 461.288C583.336 461.945 583.173 462.649 583.173 463.401V464.608C583.173 465.638 583.351 466.511 583.706 467.227C584.067 467.937 584.567 468.479 585.206 468.852C585.846 469.219 586.588 469.402 587.435 469.402C587.985 469.402 588.482 469.325 588.926 469.171C589.376 469.011 589.764 468.775 590.089 468.461C590.415 468.141 590.666 467.745 590.844 467.271L592.868 467.839C592.655 468.526 592.297 469.13 591.794 469.651C591.291 470.165 590.669 470.568 589.929 470.858C589.19 471.142 588.358 471.284 587.435 471.284Z" fill="black"/>
<path d="M538.504 312L533.533 293.818H535.77L539.57 308.626H539.747L543.618 293.818H546.104L549.974 308.626H550.152L553.952 293.818H556.189L551.217 312H548.945L544.932 297.511H544.79L540.777 312H538.504ZM561.391 312.32C560.527 312.32 559.743 312.157 559.039 311.831C558.334 311.5 557.775 311.023 557.361 310.402C556.946 309.775 556.739 309.017 556.739 308.129C556.739 307.348 556.893 306.715 557.201 306.229C557.509 305.738 557.92 305.353 558.435 305.075C558.95 304.797 559.518 304.59 560.14 304.454C560.767 304.312 561.397 304.199 562.031 304.116C562.859 304.01 563.531 303.93 564.046 303.877C564.567 303.818 564.945 303.72 565.182 303.584C565.425 303.448 565.546 303.211 565.546 302.874V302.803C565.546 301.927 565.306 301.246 564.827 300.761C564.354 300.275 563.634 300.033 562.67 300.033C561.67 300.033 560.885 300.252 560.317 300.69C559.749 301.128 559.349 301.595 559.119 302.092L557.13 301.382C557.485 300.554 557.959 299.908 558.55 299.447C559.148 298.979 559.799 298.654 560.504 298.47C561.214 298.281 561.912 298.186 562.599 298.186C563.037 298.186 563.54 298.239 564.108 298.346C564.682 298.446 565.235 298.657 565.768 298.976C566.307 299.296 566.754 299.778 567.109 300.423C567.464 301.068 567.641 301.933 567.641 303.016V312H565.546V310.153H565.44C565.298 310.449 565.061 310.766 564.729 311.103C564.398 311.441 563.957 311.728 563.407 311.964C562.856 312.201 562.184 312.32 561.391 312.32ZM561.711 310.438C562.54 310.438 563.238 310.275 563.806 309.949C564.38 309.624 564.812 309.203 565.102 308.689C565.398 308.174 565.546 307.632 565.546 307.064V305.146C565.457 305.253 565.262 305.35 564.96 305.439C564.664 305.522 564.321 305.596 563.93 305.661C563.546 305.72 563.17 305.774 562.803 305.821C562.442 305.862 562.149 305.898 561.924 305.928C561.379 305.999 560.871 306.114 560.397 306.274C559.929 306.428 559.551 306.661 559.261 306.975C558.977 307.283 558.835 307.703 558.835 308.236C558.835 308.964 559.104 309.514 559.642 309.887C560.187 310.254 560.876 310.438 561.711 310.438ZM577.396 298.364V300.139H570.329V298.364H577.396ZM572.389 295.097H574.484V308.094C574.484 308.686 574.57 309.129 574.741 309.425C574.919 309.715 575.144 309.911 575.416 310.011C575.694 310.106 575.987 310.153 576.295 310.153C576.526 310.153 576.715 310.142 576.863 310.118C577.011 310.088 577.13 310.065 577.218 310.047L577.644 311.929C577.502 311.982 577.304 312.036 577.05 312.089C576.795 312.148 576.473 312.178 576.082 312.178C575.49 312.178 574.91 312.05 574.342 311.796C573.78 311.541 573.312 311.154 572.939 310.633C572.572 310.112 572.389 309.455 572.389 308.662V295.097ZM586.118 312.284C584.804 312.284 583.671 311.994 582.718 311.414C581.771 310.828 581.04 310.011 580.525 308.964C580.016 307.91 579.762 306.685 579.762 305.288C579.762 303.892 580.016 302.661 580.525 301.595C581.04 300.524 581.756 299.689 582.674 299.092C583.597 298.488 584.674 298.186 585.905 298.186C586.616 298.186 587.317 298.304 588.009 298.541C588.702 298.778 589.332 299.163 589.9 299.695C590.468 300.222 590.921 300.92 591.259 301.79C591.596 302.661 591.765 303.732 591.765 305.004V305.892H581.253V304.081H589.634C589.634 303.312 589.48 302.625 589.172 302.021C588.87 301.418 588.438 300.941 587.876 300.592C587.32 300.243 586.663 300.068 585.905 300.068C585.071 300.068 584.349 300.275 583.739 300.69C583.135 301.098 582.671 301.631 582.345 302.288C582.02 302.945 581.857 303.649 581.857 304.401V305.608C581.857 306.638 582.035 307.511 582.39 308.227C582.751 308.937 583.251 309.479 583.89 309.852C584.529 310.219 585.272 310.402 586.118 310.402C586.669 310.402 587.166 310.325 587.61 310.171C588.06 310.011 588.447 309.775 588.773 309.461C589.098 309.141 589.35 308.745 589.527 308.271L591.552 308.839C591.339 309.526 590.98 310.13 590.477 310.651C589.974 311.165 589.353 311.568 588.613 311.858C587.873 312.142 587.042 312.284 586.118 312.284ZM594.952 312V298.364H596.976V300.423H597.118C597.367 299.749 597.816 299.201 598.467 298.781C599.118 298.361 599.852 298.151 600.669 298.151C600.823 298.151 601.015 298.154 601.246 298.159C601.477 298.165 601.652 298.174 601.77 298.186V300.317C601.699 300.299 601.536 300.272 601.282 300.237C601.033 300.195 600.77 300.175 600.492 300.175C599.829 300.175 599.237 300.314 598.716 300.592C598.201 300.864 597.793 301.243 597.491 301.728C597.195 302.208 597.047 302.755 597.047 303.371V312H594.952ZM611.038 298.364V300.139H603.972V298.364H611.038ZM606.031 295.097H608.127V308.094C608.127 308.686 608.212 309.129 608.384 309.425C608.562 309.715 608.786 309.911 609.059 310.011C609.337 310.106 609.63 310.153 609.938 310.153C610.168 310.153 610.358 310.142 610.506 310.118C610.654 310.088 610.772 310.065 610.861 310.047L611.287 311.929C611.145 311.982 610.947 312.036 610.692 312.089C610.438 312.148 610.115 312.178 609.725 312.178C609.133 312.178 608.553 312.05 607.984 311.796C607.422 311.541 606.955 311.154 606.582 310.633C606.215 310.112 606.031 309.455 606.031 308.662V295.097ZM619.583 312.284C618.352 312.284 617.272 311.991 616.343 311.405C615.42 310.819 614.698 310 614.177 308.946C613.662 307.893 613.404 306.661 613.404 305.253C613.404 303.832 613.662 302.592 614.177 301.533C614.698 300.474 615.42 299.651 616.343 299.065C617.272 298.479 618.352 298.186 619.583 298.186C620.814 298.186 621.892 298.479 622.815 299.065C623.744 299.651 624.466 300.474 624.981 301.533C625.502 302.592 625.762 303.832 625.762 305.253C625.762 306.661 625.502 307.893 624.981 308.946C624.466 310 623.744 310.819 622.815 311.405C621.892 311.991 620.814 312.284 619.583 312.284ZM619.583 310.402C620.518 310.402 621.288 310.162 621.892 309.683C622.495 309.203 622.942 308.573 623.232 307.792C623.522 307.011 623.667 306.164 623.667 305.253C623.667 304.341 623.522 303.492 623.232 302.705C622.942 301.918 622.495 301.281 621.892 300.796C621.288 300.311 620.518 300.068 619.583 300.068C618.648 300.068 617.879 300.311 617.275 300.796C616.671 301.281 616.225 301.918 615.935 302.705C615.645 303.492 615.5 304.341 615.5 305.253C615.5 306.164 615.645 307.011 615.935 307.792C616.225 308.573 616.671 309.203 617.275 309.683C617.879 310.162 618.648 310.402 619.583 310.402ZM631.586 312L627.431 298.364H629.633L632.581 308.804H632.723L635.634 298.364H637.872L640.748 308.768H640.89L643.838 298.364H646.039L641.884 312H639.825L636.842 301.524H636.629L633.646 312H631.586ZM650.904 303.797V312H648.809V298.364H650.833V300.494H651.011C651.331 299.802 651.816 299.246 652.467 298.825C653.118 298.399 653.958 298.186 654.988 298.186C655.911 298.186 656.719 298.375 657.412 298.754C658.104 299.127 658.643 299.695 659.028 300.459C659.412 301.216 659.605 302.175 659.605 303.335V312H657.509V303.477C657.509 302.406 657.231 301.571 656.675 300.974C656.119 300.37 655.355 300.068 654.384 300.068C653.716 300.068 653.118 300.213 652.591 300.503C652.07 300.793 651.659 301.216 651.357 301.773C651.055 302.329 650.904 303.004 650.904 303.797Z" fill="black"/>
<path d="M400.202 571V552.818H411.175V554.771H402.403V560.915H410.607V562.868H402.403V569.047H411.317V571H400.202ZM416.954 552.818V571H414.859V552.818H416.954ZM420.792 571V557.364H422.816V559.494H422.993C423.277 558.766 423.736 558.201 424.369 557.799C425.003 557.39 425.763 557.186 426.651 557.186C427.551 557.186 428.299 557.39 428.897 557.799C429.501 558.201 429.971 558.766 430.309 559.494H430.451C430.8 558.79 431.324 558.231 432.022 557.816C432.72 557.396 433.558 557.186 434.535 557.186C435.754 557.186 436.751 557.568 437.526 558.331C438.302 559.089 438.689 560.27 438.689 561.874V571H436.594V561.874C436.594 560.867 436.319 560.148 435.769 559.716C435.218 559.284 434.57 559.068 433.824 559.068C432.866 559.068 432.123 559.358 431.596 559.938C431.069 560.512 430.806 561.24 430.806 562.122V571H428.675V561.661C428.675 560.885 428.424 560.261 427.921 559.787C427.417 559.308 426.769 559.068 425.976 559.068C425.432 559.068 424.923 559.213 424.449 559.503C423.982 559.793 423.603 560.196 423.313 560.711C423.029 561.22 422.887 561.808 422.887 562.477V571H420.792ZM442.52 571V557.364H444.615V571H442.52ZM443.585 555.091C443.177 555.091 442.825 554.952 442.529 554.674C442.239 554.395 442.094 554.061 442.094 553.67C442.094 553.28 442.239 552.945 442.529 552.667C442.825 552.389 443.177 552.25 443.585 552.25C443.994 552.25 444.343 552.389 444.633 552.667C444.929 552.945 445.077 553.28 445.077 553.67C445.077 554.061 444.929 554.395 444.633 554.674C444.343 554.952 443.994 555.091 443.585 555.091ZM448.453 571V557.364H450.477V559.423H450.619C450.868 558.749 451.317 558.201 451.968 557.781C452.619 557.361 453.353 557.151 454.17 557.151C454.324 557.151 454.516 557.154 454.747 557.159C454.978 557.165 455.153 557.174 455.271 557.186V559.317C455.2 559.299 455.037 559.272 454.783 559.237C454.534 559.195 454.271 559.175 453.993 559.175C453.33 559.175 452.738 559.314 452.217 559.592C451.702 559.864 451.294 560.243 450.992 560.728C450.696 561.208 450.548 561.755 450.548 562.371V571H448.453ZM461.767 571.32C460.903 571.32 460.119 571.157 459.415 570.831C458.71 570.5 458.151 570.023 457.737 569.402C457.322 568.775 457.115 568.017 457.115 567.129C457.115 566.348 457.269 565.715 457.577 565.229C457.885 564.738 458.296 564.353 458.811 564.075C459.326 563.797 459.894 563.59 460.516 563.454C461.143 563.312 461.773 563.199 462.407 563.116C463.235 563.01 463.907 562.93 464.422 562.877C464.943 562.818 465.321 562.72 465.558 562.584C465.801 562.448 465.922 562.211 465.922 561.874V561.803C465.922 560.927 465.682 560.246 465.203 559.761C464.73 559.275 464.01 559.033 463.046 559.033C462.045 559.033 461.261 559.252 460.693 559.69C460.125 560.128 459.725 560.595 459.495 561.092L457.506 560.382C457.861 559.554 458.335 558.908 458.926 558.447C459.524 557.979 460.175 557.654 460.88 557.47C461.59 557.281 462.288 557.186 462.975 557.186C463.413 557.186 463.916 557.239 464.484 557.346C465.058 557.446 465.611 557.657 466.144 557.976C466.683 558.296 467.13 558.778 467.485 559.423C467.84 560.068 468.017 560.933 468.017 562.016V571H465.922V569.153H465.816C465.674 569.449 465.437 569.766 465.105 570.103C464.774 570.441 464.333 570.728 463.783 570.964C463.232 571.201 462.56 571.32 461.767 571.32ZM462.087 569.438C462.916 569.438 463.614 569.275 464.182 568.949C464.756 568.624 465.188 568.203 465.478 567.689C465.774 567.174 465.922 566.632 465.922 566.064V564.146C465.833 564.253 465.638 564.35 465.336 564.439C465.04 564.522 464.697 564.596 464.306 564.661C463.922 564.72 463.546 564.774 463.179 564.821C462.818 564.862 462.525 564.898 462.3 564.928C461.755 564.999 461.246 565.114 460.773 565.274C460.305 565.428 459.927 565.661 459.637 565.975C459.353 566.283 459.21 566.703 459.21 567.236C459.21 567.964 459.48 568.514 460.018 568.887C460.563 569.254 461.252 569.438 462.087 569.438Z" fill="black"/>
<path d="M686.619 769.818V788H684.489L674.581 773.724H674.403V788H672.202V769.818H674.332L684.276 784.129H684.453V769.818H686.619ZM696.458 788.284C695.144 788.284 694.011 787.994 693.058 787.414C692.111 786.828 691.38 786.011 690.865 784.964C690.356 783.91 690.102 782.685 690.102 781.288C690.102 779.892 690.356 778.661 690.865 777.595C691.38 776.524 692.096 775.689 693.014 775.092C693.937 774.488 695.014 774.186 696.245 774.186C696.955 774.186 697.657 774.304 698.349 774.541C699.042 774.778 699.672 775.163 700.24 775.695C700.808 776.222 701.261 776.92 701.598 777.79C701.936 778.661 702.104 779.732 702.104 781.004V781.892H691.593V780.081H699.974C699.974 779.312 699.82 778.625 699.512 778.021C699.21 777.418 698.778 776.941 698.216 776.592C697.66 776.243 697.003 776.068 696.245 776.068C695.411 776.068 694.689 776.275 694.079 776.69C693.475 777.098 693.011 777.631 692.685 778.288C692.36 778.945 692.197 779.649 692.197 780.401V781.608C692.197 782.638 692.374 783.511 692.729 784.227C693.091 784.937 693.591 785.479 694.23 785.852C694.869 786.219 695.612 786.402 696.458 786.402C697.009 786.402 697.506 786.325 697.95 786.171C698.399 786.011 698.787 785.775 699.113 785.461C699.438 785.141 699.69 784.745 699.867 784.271L701.891 784.839C701.678 785.526 701.32 786.13 700.817 786.651C700.314 787.165 699.693 787.568 698.953 787.858C698.213 788.142 697.381 788.284 696.458 788.284ZM708.381 788L704.226 774.364H706.428L709.375 784.804H709.517L712.429 774.364H714.667L717.543 784.768H717.685L720.633 774.364H722.834L718.679 788H716.62L713.637 777.524H713.424L710.441 788H708.381ZM731.357 769.818H733.878L738.921 778.305H739.134L744.177 769.818H746.698L740.128 780.507V788H737.927V780.507L731.357 769.818ZM752.872 788.284C751.641 788.284 750.561 787.991 749.632 787.405C748.709 786.819 747.987 786 747.466 784.946C746.951 783.893 746.693 782.661 746.693 781.253C746.693 779.832 746.951 778.592 747.466 777.533C747.987 776.474 748.709 775.651 749.632 775.065C750.561 774.479 751.641 774.186 752.872 774.186C754.103 774.186 755.181 774.479 756.104 775.065C757.033 775.651 757.755 776.474 758.27 777.533C758.791 778.592 759.051 779.832 759.051 781.253C759.051 782.661 758.791 783.893 758.27 784.946C757.755 786 757.033 786.819 756.104 787.405C755.181 787.991 754.103 788.284 752.872 788.284ZM752.872 786.402C753.808 786.402 754.577 786.162 755.181 785.683C755.784 785.203 756.231 784.573 756.521 783.792C756.811 783.011 756.956 782.164 756.956 781.253C756.956 780.341 756.811 779.492 756.521 778.705C756.231 777.918 755.784 777.281 755.181 776.796C754.577 776.311 753.808 776.068 752.872 776.068C751.937 776.068 751.168 776.311 750.564 776.796C749.96 777.281 749.514 777.918 749.224 778.705C748.934 779.492 748.789 780.341 748.789 781.253C748.789 782.164 748.934 783.011 749.224 783.792C749.514 784.573 749.96 785.203 750.564 785.683C751.168 786.162 751.937 786.402 752.872 786.402ZM762.25 788V774.364H764.274V776.423H764.416C764.664 775.749 765.114 775.201 765.765 774.781C766.416 774.361 767.15 774.151 767.967 774.151C768.121 774.151 768.313 774.154 768.544 774.159C768.775 774.165 768.949 774.174 769.068 774.186V776.317C768.997 776.299 768.834 776.272 768.58 776.237C768.331 776.195 768.068 776.175 767.789 776.175C767.127 776.175 766.535 776.314 766.014 776.592C765.499 776.864 765.091 777.243 764.789 777.728C764.493 778.208 764.345 778.755 764.345 779.371V788H762.25ZM773.505 783.028L773.469 780.436H773.895L779.861 774.364H782.453L776.097 780.791H775.919L773.505 783.028ZM771.551 788V769.818H773.647V788H771.551ZM780.216 788L774.889 781.253L776.381 779.797L782.88 788H780.216Z" fill="black"/>
<path d="M792.202 858V839.818H794.403V847.915H804.098V839.818H806.3V858H804.098V849.868H794.403V858H792.202ZM816.141 858.284C814.827 858.284 813.693 857.994 812.741 857.414C811.794 856.828 811.063 856.011 810.548 854.964C810.039 853.91 809.784 852.685 809.784 851.288C809.784 849.892 810.039 848.661 810.548 847.595C811.063 846.524 811.779 845.689 812.696 845.092C813.619 844.488 814.697 844.186 815.928 844.186C816.638 844.186 817.339 844.304 818.032 844.541C818.724 844.778 819.355 845.163 819.923 845.695C820.491 846.222 820.944 846.92 821.281 847.79C821.618 848.661 821.787 849.732 821.787 851.004V851.892H811.276V850.081H819.656C819.656 849.312 819.503 848.625 819.195 848.021C818.893 847.418 818.461 846.941 817.899 846.592C817.342 846.243 816.685 846.068 815.928 846.068C815.093 846.068 814.371 846.275 813.762 846.69C813.158 847.098 812.693 847.631 812.368 848.288C812.042 848.945 811.879 849.649 811.879 850.401V851.608C811.879 852.638 812.057 853.511 812.412 854.227C812.773 854.937 813.273 855.479 813.912 855.852C814.552 856.219 815.294 856.402 816.141 856.402C816.691 856.402 817.188 856.325 817.632 856.171C818.082 856.011 818.47 855.775 818.795 855.461C819.121 855.141 819.372 854.745 819.55 854.271L821.574 854.839C821.361 855.526 821.003 856.13 820.5 856.651C819.997 857.165 819.375 857.568 818.635 857.858C817.896 858.142 817.064 858.284 816.141 858.284ZM824.974 858V844.364H826.998V846.494H827.176C827.46 845.766 827.919 845.201 828.552 844.799C829.185 844.39 829.946 844.186 830.834 844.186C831.733 844.186 832.482 844.39 833.08 844.799C833.683 845.201 834.154 845.766 834.491 846.494H834.633C834.983 845.79 835.506 845.231 836.205 844.816C836.903 844.396 837.741 844.186 838.717 844.186C839.936 844.186 840.934 844.568 841.709 845.331C842.484 846.089 842.872 847.27 842.872 848.874V858H840.777V848.874C840.777 847.867 840.502 847.148 839.951 846.716C839.401 846.284 838.753 846.068 838.007 846.068C837.048 846.068 836.305 846.358 835.779 846.938C835.252 847.512 834.988 848.24 834.988 849.122V858H832.858V848.661C832.858 847.885 832.606 847.261 832.103 846.787C831.6 846.308 830.952 846.068 830.159 846.068C829.614 846.068 829.105 846.213 828.632 846.503C828.164 846.793 827.786 847.196 827.496 847.711C827.211 848.22 827.069 848.808 827.069 849.477V858H824.974ZM846.703 863.114V844.364H848.727V846.53H848.975C849.129 846.293 849.342 845.991 849.615 845.624C849.893 845.251 850.289 844.92 850.804 844.63C851.325 844.334 852.029 844.186 852.917 844.186C854.065 844.186 855.078 844.473 855.953 845.047C856.829 845.621 857.513 846.435 858.004 847.489C858.496 848.542 858.741 849.785 858.741 851.217C858.741 852.661 858.496 853.913 858.004 854.973C857.513 856.026 856.832 856.843 855.962 857.423C855.092 857.997 854.089 858.284 852.953 858.284C852.077 858.284 851.375 858.139 850.849 857.849C850.322 857.553 849.917 857.219 849.632 856.846C849.348 856.467 849.129 856.153 848.975 855.905H848.798V863.114H846.703ZM848.762 851.182C848.762 852.212 848.913 853.12 849.215 853.907C849.517 854.689 849.958 855.301 850.538 855.745C851.118 856.183 851.828 856.402 852.669 856.402C853.545 856.402 854.276 856.171 854.862 855.71C855.453 855.242 855.897 854.615 856.193 853.827C856.495 853.034 856.646 852.152 856.646 851.182C856.646 850.223 856.498 849.359 856.202 848.589C855.912 847.814 855.471 847.202 854.879 846.752C854.293 846.296 853.556 846.068 852.669 846.068C851.816 846.068 851.1 846.284 850.52 846.716C849.94 847.142 849.502 847.74 849.206 848.51C848.91 849.273 848.762 850.164 848.762 851.182ZM871.596 847.418L869.714 847.95C869.596 847.637 869.421 847.332 869.19 847.036C868.965 846.734 868.658 846.485 868.267 846.29C867.876 846.095 867.376 845.997 866.767 845.997C865.932 845.997 865.237 846.19 864.68 846.574C864.13 846.953 863.855 847.435 863.855 848.021C863.855 848.542 864.044 848.953 864.423 849.255C864.802 849.557 865.394 849.809 866.199 850.01L868.223 850.507C869.442 850.803 870.35 851.256 870.948 851.865C871.546 852.469 871.845 853.247 871.845 854.2C871.845 854.982 871.62 855.68 871.17 856.295C870.726 856.911 870.105 857.396 869.306 857.751C868.507 858.107 867.578 858.284 866.518 858.284C865.127 858.284 863.976 857.982 863.065 857.379C862.153 856.775 861.576 855.893 861.333 854.733L863.322 854.236C863.511 854.97 863.87 855.52 864.396 855.887C864.929 856.254 865.624 856.438 866.483 856.438C867.459 856.438 868.234 856.23 868.809 855.816C869.389 855.396 869.679 854.893 869.679 854.307C869.679 853.833 869.513 853.437 869.181 853.117C868.85 852.792 868.341 852.549 867.654 852.389L865.382 851.857C864.133 851.561 863.216 851.102 862.63 850.48C862.05 849.853 861.76 849.069 861.76 848.128C861.76 847.358 861.976 846.678 862.408 846.086C862.846 845.494 863.44 845.029 864.192 844.692C864.95 844.355 865.808 844.186 866.767 844.186C868.116 844.186 869.176 844.482 869.945 845.074C870.72 845.666 871.271 846.447 871.596 847.418ZM880.929 844.364V846.139H873.862V844.364H880.929ZM875.922 841.097H878.017V854.094C878.017 854.686 878.103 855.129 878.275 855.425C878.452 855.715 878.677 855.911 878.949 856.011C879.227 856.106 879.52 856.153 879.828 856.153C880.059 856.153 880.248 856.142 880.396 856.118C880.544 856.088 880.663 856.065 880.752 856.047L881.178 857.929C881.036 857.982 880.837 858.036 880.583 858.089C880.328 858.148 880.006 858.178 879.615 858.178C879.023 858.178 878.443 858.05 877.875 857.796C877.313 857.541 876.845 857.154 876.472 856.633C876.105 856.112 875.922 855.455 875.922 854.662V841.097ZM889.652 858.284C888.338 858.284 887.204 857.994 886.251 857.414C885.304 856.828 884.573 856.011 884.059 854.964C883.55 853.91 883.295 852.685 883.295 851.288C883.295 849.892 883.55 848.661 884.059 847.595C884.573 846.524 885.29 845.689 886.207 845.092C887.13 844.488 888.207 844.186 889.438 844.186C890.149 844.186 890.85 844.304 891.543 844.541C892.235 844.778 892.865 845.163 893.434 845.695C894.002 846.222 894.454 846.92 894.792 847.79C895.129 848.661 895.298 849.732 895.298 851.004V851.892H884.786V850.081H893.167C893.167 849.312 893.013 848.625 892.706 848.021C892.404 847.418 891.972 846.941 891.409 846.592C890.853 846.243 890.196 846.068 889.438 846.068C888.604 846.068 887.882 846.275 887.272 846.69C886.669 847.098 886.204 847.631 885.878 848.288C885.553 848.945 885.39 849.649 885.39 850.401V851.608C885.39 852.638 885.568 853.511 885.923 854.227C886.284 854.937 886.784 855.479 887.423 855.852C888.062 856.219 888.805 856.402 889.652 856.402C890.202 856.402 890.699 856.325 891.143 856.171C891.593 856.011 891.98 855.775 892.306 855.461C892.632 855.141 892.883 854.745 893.061 854.271L895.085 854.839C894.872 855.526 894.514 856.13 894.011 856.651C893.507 857.165 892.886 857.568 892.146 857.858C891.406 858.142 890.575 858.284 889.652 858.284ZM902.498 858.32C901.634 858.32 900.849 858.157 900.145 857.831C899.441 857.5 898.882 857.023 898.467 856.402C898.053 855.775 897.846 855.017 897.846 854.129C897.846 853.348 898 852.715 898.307 852.229C898.615 851.738 899.027 851.353 899.541 851.075C900.056 850.797 900.625 850.59 901.246 850.454C901.873 850.312 902.504 850.199 903.137 850.116C903.966 850.01 904.637 849.93 905.152 849.877C905.673 849.818 906.052 849.72 906.289 849.584C906.531 849.448 906.653 849.211 906.653 848.874V848.803C906.653 847.927 906.413 847.246 905.934 846.761C905.46 846.275 904.741 846.033 903.776 846.033C902.776 846.033 901.992 846.252 901.424 846.69C900.855 847.128 900.456 847.595 900.225 848.092L898.236 847.382C898.592 846.554 899.065 845.908 899.657 845.447C900.255 844.979 900.906 844.654 901.61 844.47C902.32 844.281 903.019 844.186 903.705 844.186C904.143 844.186 904.646 844.239 905.214 844.346C905.789 844.446 906.342 844.657 906.875 844.976C907.413 845.296 907.86 845.778 908.215 846.423C908.57 847.068 908.748 847.933 908.748 849.016V858H906.653V856.153H906.546C906.404 856.449 906.167 856.766 905.836 857.103C905.504 857.441 905.063 857.728 904.513 857.964C903.963 858.201 903.291 858.32 902.498 858.32ZM902.817 856.438C903.646 856.438 904.344 856.275 904.913 855.949C905.487 855.624 905.919 855.203 906.209 854.689C906.505 854.174 906.653 853.632 906.653 853.064V851.146C906.564 851.253 906.369 851.35 906.067 851.439C905.771 851.522 905.427 851.596 905.037 851.661C904.652 851.72 904.276 851.774 903.909 851.821C903.548 851.862 903.255 851.898 903.03 851.928C902.486 851.999 901.977 852.114 901.503 852.274C901.036 852.428 900.657 852.661 900.367 852.975C900.083 853.283 899.941 853.703 899.941 854.236C899.941 854.964 900.21 855.514 900.749 855.887C901.293 856.254 901.983 856.438 902.817 856.438ZM917.721 858.284C916.585 858.284 915.581 857.997 914.711 857.423C913.841 856.843 913.161 856.026 912.67 854.973C912.178 853.913 911.933 852.661 911.933 851.217C911.933 849.785 912.178 848.542 912.67 847.489C913.161 846.435 913.844 845.621 914.72 845.047C915.596 844.473 916.608 844.186 917.757 844.186C918.644 844.186 919.346 844.334 919.861 844.63C920.381 844.92 920.778 845.251 921.05 845.624C921.328 845.991 921.544 846.293 921.698 846.53H921.876V839.818H923.971V858H921.947V855.905H921.698C921.544 856.153 921.325 856.467 921.041 856.846C920.757 857.219 920.352 857.553 919.825 857.849C919.298 858.139 918.597 858.284 917.721 858.284ZM918.005 856.402C918.846 856.402 919.556 856.183 920.136 855.745C920.716 855.301 921.157 854.689 921.459 853.907C921.76 853.12 921.911 852.212 921.911 851.182C921.911 850.164 921.763 849.273 921.468 848.51C921.172 847.74 920.734 847.142 920.154 846.716C919.574 846.284 918.857 846.068 918.005 846.068C917.117 846.068 916.378 846.296 915.786 846.752C915.2 847.202 914.759 847.814 914.463 848.589C914.173 849.359 914.028 850.223 914.028 851.182C914.028 852.152 914.176 853.034 914.472 853.827C914.774 854.615 915.218 855.242 915.803 855.71C916.395 856.171 917.129 856.402 918.005 856.402Z" fill="black"/>
<circle cx="197.511" cy="456.511" r="9.01136" fill="#FFE587" stroke="black"/>
<circle cx="344.511" cy="412.511" r="9.01136" fill="#FFE587" stroke="black"/>
<circle cx="517.511" cy="436.511" r="9.01136" fill="#FFE587" stroke="black"/>
<circle cx="547.511" cy="275.511" r="9.01136" fill="#FFE587" stroke="black"/>
<circle cx="436.511" cy="588.511" r="9.01136" fill="#FFE587" stroke="black"/>
<circle cx="795.511" cy="797.511" r="9.01136" fill="#FFE587" stroke="black"/>
<circle cx="842.511" cy="812.511" r="9.01136" fill="#FFE587" stroke="black"/>
<path d="M950.454 846H947.079L956.122 828.545H960.025L963.281 846H959.906L957.562 832.125H957.426L950.454 846ZM951.699 839.156H960.903L960.477 841.696H951.272L951.699 839.156ZM973.342 832.909L972.941 835.295H965.424L965.816 832.909H973.342ZM968.186 829.773H971.271L969.225 842.062C969.163 842.477 969.174 842.795 969.26 843.017C969.35 843.233 969.495 843.381 969.694 843.46C969.899 843.54 970.129 843.58 970.385 843.58C970.572 843.58 970.748 843.565 970.913 843.537C971.078 843.503 971.208 843.477 971.305 843.46L971.441 845.872C971.254 845.929 971.001 845.991 970.683 846.06C970.37 846.128 969.995 846.168 969.558 846.179C968.774 846.196 968.092 846.077 967.512 845.821C966.939 845.56 966.518 845.159 966.251 844.619C965.99 844.074 965.93 843.392 966.072 842.574L968.186 829.773ZM980.005 828.545L977.107 846H974.022L976.919 828.545H980.005ZM984.012 846.264C983.183 846.264 982.461 846.116 981.848 845.821C981.234 845.52 980.782 845.077 980.493 844.491C980.208 843.906 980.137 843.185 980.279 842.327C980.404 841.588 980.643 840.977 980.995 840.494C981.353 840.011 981.791 839.625 982.308 839.335C982.831 839.04 983.399 838.818 984.012 838.67C984.632 838.523 985.262 838.415 985.904 838.347C986.689 838.267 987.322 838.193 987.805 838.125C988.294 838.057 988.66 837.955 988.904 837.818C989.149 837.676 989.297 837.46 989.348 837.17V837.119C989.45 836.477 989.348 835.98 989.041 835.628C988.734 835.276 988.223 835.099 987.507 835.099C986.757 835.099 986.126 835.264 985.615 835.594C985.103 835.923 984.731 836.312 984.498 836.761L981.703 836.352C982.055 835.557 982.538 834.892 983.152 834.358C983.765 833.818 984.473 833.415 985.274 833.148C986.081 832.875 986.941 832.739 987.856 832.739C988.481 832.739 989.092 832.812 989.689 832.96C990.291 833.108 990.822 833.352 991.282 833.693C991.748 834.028 992.089 834.486 992.305 835.065C992.527 835.645 992.564 836.369 992.416 837.239L990.958 846H987.993L988.299 844.202H988.197C987.953 844.565 987.635 844.906 987.243 845.224C986.85 845.537 986.385 845.79 985.845 845.983C985.305 846.17 984.694 846.264 984.012 846.264ZM985.18 843.997C985.799 843.997 986.356 843.875 986.85 843.631C987.345 843.381 987.751 843.051 988.069 842.642C988.387 842.233 988.586 841.787 988.666 841.304L988.922 839.761C988.808 839.841 988.632 839.915 988.393 839.983C988.154 840.051 987.887 840.111 987.592 840.162C987.302 840.213 987.015 840.259 986.731 840.298C986.447 840.338 986.203 840.372 985.998 840.401C985.527 840.463 985.095 840.565 984.703 840.707C984.316 840.849 983.995 841.048 983.74 841.304C983.49 841.554 983.333 841.878 983.271 842.276C983.18 842.838 983.314 843.267 983.672 843.562C984.029 843.852 984.532 843.997 985.18 843.997ZM998.424 838.33L997.163 846H994.069L996.251 832.909H999.208L998.833 835.134H998.995C999.404 834.401 999.978 833.818 1000.72 833.386C1001.46 832.955 1002.32 832.739 1003.3 832.739C1004.19 832.739 1004.94 832.932 1005.55 833.318C1006.16 833.699 1006.59 834.259 1006.84 834.997C1007.1 835.73 1007.14 836.619 1006.96 837.665L1005.57 846H1002.48L1003.79 838.142C1003.93 837.273 1003.82 836.591 1003.45 836.097C1003.09 835.597 1002.5 835.347 1001.7 835.347C1001.16 835.347 1000.66 835.466 1000.21 835.705C999.751 835.937 999.368 836.276 999.055 836.719C998.748 837.162 998.538 837.699 998.424 838.33ZM1017.4 832.909L1017 835.295H1009.49L1009.88 832.909H1017.4ZM1012.25 829.773H1015.33L1013.29 842.062C1013.23 842.477 1013.24 842.795 1013.32 843.017C1013.41 843.233 1013.56 843.381 1013.76 843.46C1013.96 843.54 1014.19 843.58 1014.45 843.58C1014.63 843.58 1014.81 843.565 1014.98 843.537C1015.14 843.503 1015.27 843.477 1015.37 843.46L1015.5 845.872C1015.32 845.929 1015.06 845.991 1014.75 846.06C1014.43 846.128 1014.06 846.168 1013.62 846.179C1012.84 846.196 1012.15 846.077 1011.57 845.821C1011 845.56 1010.58 845.159 1010.31 844.619C1010.05 844.074 1009.99 843.392 1010.13 842.574L1012.25 829.773ZM1017.8 846L1019.98 832.909H1023.07L1020.89 846H1017.8ZM1021.98 831.034C1021.48 831.034 1021.08 830.869 1020.75 830.54C1020.43 830.21 1020.29 829.815 1020.33 829.355C1020.37 828.895 1020.57 828.5 1020.95 828.17C1021.33 827.841 1021.76 827.676 1022.25 827.676C1022.75 827.676 1023.15 827.841 1023.47 828.17C1023.79 828.5 1023.94 828.895 1023.9 829.355C1023.86 829.815 1023.66 830.21 1023.27 830.54C1022.9 830.869 1022.47 831.034 1021.98 831.034ZM1029.74 846.256C1028.43 846.256 1027.36 845.969 1026.52 845.395C1025.67 844.821 1025.09 844.028 1024.75 843.017C1024.42 842 1024.37 840.83 1024.59 839.506C1024.81 838.176 1025.25 837.003 1025.93 835.986C1026.61 834.963 1027.47 834.168 1028.5 833.599C1029.54 833.026 1030.69 832.739 1031.97 832.739C1033.03 832.739 1033.94 832.935 1034.69 833.327C1035.44 833.713 1036.01 834.261 1036.38 834.972C1036.75 835.676 1036.9 836.5 1036.81 837.443H1033.85C1033.84 836.812 1033.65 836.287 1033.27 835.866C1032.88 835.44 1032.33 835.227 1031.59 835.227C1030.96 835.227 1030.37 835.398 1029.84 835.739C1029.31 836.074 1028.85 836.557 1028.48 837.188C1028.11 837.818 1027.86 838.574 1027.72 839.455C1027.57 840.347 1027.57 841.114 1027.73 841.756C1027.88 842.392 1028.17 842.884 1028.59 843.23C1029.01 843.571 1029.54 843.741 1030.18 843.741C1030.63 843.741 1031.06 843.656 1031.45 843.486C1031.84 843.31 1032.19 843.057 1032.48 842.727C1032.78 842.398 1033.02 841.997 1033.19 841.526H1036.14C1035.9 842.452 1035.49 843.273 1034.89 843.989C1034.3 844.699 1033.57 845.256 1032.69 845.659C1031.82 846.057 1030.83 846.256 1029.74 846.256ZM972.595 866.477C972.288 868.33 971.683 869.909 970.78 871.216C969.882 872.517 968.786 873.514 967.49 874.207C966.2 874.895 964.811 875.239 963.322 875.239C961.76 875.239 960.419 874.875 959.3 874.148C958.18 873.415 957.374 872.366 956.879 871.003C956.391 869.639 956.305 868.003 956.624 866.094C956.93 864.247 957.533 862.668 958.43 861.355C959.328 860.043 960.428 859.04 961.729 858.347C963.03 857.653 964.433 857.307 965.939 857.307C967.49 857.307 968.82 857.673 969.928 858.406C971.041 859.134 971.842 860.182 972.331 861.551C972.825 862.92 972.913 864.562 972.595 866.477ZM969.484 866.094C969.695 864.804 969.675 863.716 969.425 862.83C969.18 861.943 968.746 861.276 968.121 860.827C967.496 860.372 966.726 860.145 965.811 860.145C964.822 860.145 963.908 860.392 963.067 860.886C962.232 861.375 961.521 862.091 960.936 863.034C960.357 863.977 959.959 865.125 959.743 866.477C959.516 867.773 959.53 868.861 959.786 869.741C960.041 870.622 960.484 871.287 961.115 871.736C961.746 872.179 962.516 872.401 963.425 872.401C964.408 872.401 965.317 872.156 966.152 871.668C966.987 871.179 967.695 870.466 968.274 869.528C968.859 868.591 969.263 867.446 969.484 866.094ZM979.71 875.256C978.403 875.256 977.329 874.969 976.488 874.395C975.647 873.821 975.059 873.028 974.724 872.017C974.394 871 974.34 869.83 974.562 868.506C974.778 867.176 975.224 866.003 975.9 864.986C976.582 863.963 977.44 863.168 978.474 862.599C979.508 862.026 980.664 861.739 981.942 861.739C983.005 861.739 983.911 861.935 984.661 862.327C985.417 862.713 985.979 863.261 986.349 863.972C986.724 864.676 986.869 865.5 986.783 866.443H983.826C983.815 865.812 983.619 865.287 983.238 864.866C982.857 864.44 982.3 864.227 981.567 864.227C980.931 864.227 980.346 864.398 979.812 864.739C979.278 865.074 978.826 865.557 978.457 866.188C978.087 866.818 977.832 867.574 977.69 868.455C977.542 869.347 977.545 870.114 977.698 870.756C977.857 871.392 978.144 871.884 978.559 872.23C978.979 872.571 979.511 872.741 980.153 872.741C980.607 872.741 981.031 872.656 981.423 872.486C981.815 872.31 982.158 872.057 982.454 871.727C982.755 871.398 982.991 870.997 983.161 870.526H986.11C985.877 871.452 985.462 872.273 984.866 872.989C984.275 873.699 983.542 874.256 982.667 874.659C981.792 875.057 980.806 875.256 979.71 875.256ZM993.646 875.256C992.334 875.256 991.249 874.983 990.391 874.438C989.533 873.886 988.93 873.108 988.584 872.102C988.243 871.091 988.186 869.901 988.413 868.531C988.635 867.185 989.087 866.003 989.768 864.986C990.45 863.963 991.303 863.168 992.325 862.599C993.354 862.026 994.49 861.739 995.734 861.739C996.541 861.739 997.283 861.869 997.959 862.131C998.635 862.386 999.206 862.784 999.672 863.324C1000.14 863.864 1000.46 864.551 1000.63 865.386C1000.81 866.216 1000.8 867.205 1000.61 868.352L1000.46 869.298H989.726L990.058 867.219H997.831C997.933 866.628 997.899 866.102 997.729 865.642C997.558 865.176 997.274 864.81 996.876 864.543C996.479 864.276 995.982 864.142 995.385 864.142C994.777 864.142 994.209 864.298 993.68 864.611C993.158 864.918 992.717 865.315 992.359 865.804C992.001 866.293 991.774 866.807 991.678 867.347L991.328 869.341C991.203 870.159 991.232 870.827 991.413 871.344C991.595 871.861 991.913 872.241 992.368 872.486C992.822 872.73 993.396 872.852 994.089 872.852C994.544 872.852 994.964 872.79 995.351 872.665C995.737 872.54 996.081 872.352 996.382 872.102C996.689 871.847 996.945 871.534 997.149 871.165L999.97 871.489C999.658 872.25 999.2 872.915 998.598 873.483C997.996 874.045 997.274 874.483 996.433 874.795C995.598 875.102 994.669 875.256 993.646 875.256ZM1005.87 875.264C1005.04 875.264 1004.32 875.116 1003.7 874.821C1003.09 874.52 1002.64 874.077 1002.35 873.491C1002.06 872.906 1001.99 872.185 1002.13 871.327C1002.26 870.588 1002.5 869.977 1002.85 869.494C1003.21 869.011 1003.65 868.625 1004.16 868.335C1004.69 868.04 1005.25 867.818 1005.87 867.67C1006.49 867.523 1007.12 867.415 1007.76 867.347C1008.54 867.267 1009.18 867.193 1009.66 867.125C1010.15 867.057 1010.52 866.955 1010.76 866.818C1011 866.676 1011.15 866.46 1011.2 866.17V866.119C1011.31 865.477 1011.2 864.98 1010.9 864.628C1010.59 864.276 1010.08 864.099 1009.36 864.099C1008.61 864.099 1007.98 864.264 1007.47 864.594C1006.96 864.923 1006.59 865.312 1006.35 865.761L1003.56 865.352C1003.91 864.557 1004.39 863.892 1005.01 863.358C1005.62 862.818 1006.33 862.415 1007.13 862.148C1007.94 861.875 1008.8 861.739 1009.71 861.739C1010.34 861.739 1010.95 861.812 1011.54 861.96C1012.15 862.108 1012.68 862.352 1013.14 862.693C1013.6 863.028 1013.94 863.486 1014.16 864.065C1014.38 864.645 1014.42 865.369 1014.27 866.239L1012.81 875H1009.85L1010.15 873.202H1010.05C1009.81 873.565 1009.49 873.906 1009.1 874.224C1008.71 874.537 1008.24 874.79 1007.7 874.983C1007.16 875.17 1006.55 875.264 1005.87 875.264ZM1007.04 872.997C1007.65 872.997 1008.21 872.875 1008.71 872.631C1009.2 872.381 1009.61 872.051 1009.92 871.642C1010.24 871.233 1010.44 870.787 1010.52 870.304L1010.78 868.761C1010.66 868.841 1010.49 868.915 1010.25 868.983C1010.01 869.051 1009.74 869.111 1009.45 869.162C1009.16 869.213 1008.87 869.259 1008.59 869.298C1008.3 869.338 1008.06 869.372 1007.85 869.401C1007.38 869.463 1006.95 869.565 1006.56 869.707C1006.17 869.849 1005.85 870.048 1005.6 870.304C1005.35 870.554 1005.19 870.878 1005.13 871.276C1005.04 871.838 1005.17 872.267 1005.53 872.562C1005.88 872.852 1006.39 872.997 1007.04 872.997ZM1020.28 867.33L1019.02 875H1015.92L1018.11 861.909H1021.06L1020.69 864.134H1020.85C1021.26 863.401 1021.83 862.818 1022.57 862.386C1023.31 861.955 1024.17 861.739 1025.15 861.739C1026.05 861.739 1026.8 861.932 1027.4 862.318C1028.01 862.699 1028.44 863.259 1028.7 863.997C1028.96 864.73 1029 865.619 1028.82 866.665L1027.42 875H1024.34L1025.64 867.142C1025.79 866.273 1025.68 865.591 1025.31 865.097C1024.94 864.597 1024.36 864.347 1023.55 864.347C1023.01 864.347 1022.52 864.466 1022.06 864.705C1021.61 864.937 1021.22 865.276 1020.91 865.719C1020.6 866.162 1020.39 866.699 1020.28 867.33Z" fill="#017D83"/>
<path d="M349.858 327V309.545H353.02V324.349H360.708V327H349.858ZM367.083 327.264C366.253 327.264 365.506 327.116 364.841 326.821C364.182 326.52 363.659 326.077 363.273 325.491C362.892 324.906 362.702 324.185 362.702 323.327C362.702 322.588 362.838 321.977 363.111 321.494C363.384 321.011 363.756 320.625 364.228 320.335C364.699 320.045 365.23 319.827 365.821 319.679C366.418 319.526 367.034 319.415 367.671 319.347C368.438 319.267 369.06 319.196 369.537 319.134C370.015 319.065 370.361 318.963 370.577 318.827C370.799 318.685 370.909 318.466 370.909 318.17V318.119C370.909 317.477 370.719 316.98 370.338 316.628C369.958 316.276 369.409 316.099 368.694 316.099C367.938 316.099 367.338 316.264 366.895 316.594C366.458 316.923 366.162 317.312 366.009 317.761L363.128 317.352C363.355 316.557 363.73 315.892 364.253 315.358C364.776 314.818 365.415 314.415 366.171 314.148C366.926 313.875 367.762 313.739 368.676 313.739C369.307 313.739 369.935 313.812 370.56 313.96C371.185 314.108 371.756 314.352 372.273 314.693C372.79 315.028 373.205 315.486 373.517 316.065C373.836 316.645 373.995 317.369 373.995 318.239V327H371.029V325.202H370.926C370.739 325.565 370.475 325.906 370.134 326.224C369.799 326.537 369.375 326.79 368.864 326.983C368.358 327.17 367.765 327.264 367.083 327.264ZM367.884 324.997C368.503 324.997 369.04 324.875 369.495 324.631C369.949 324.381 370.299 324.051 370.543 323.642C370.793 323.233 370.918 322.787 370.918 322.304V320.761C370.821 320.841 370.657 320.915 370.424 320.983C370.196 321.051 369.941 321.111 369.657 321.162C369.373 321.213 369.091 321.259 368.813 321.298C368.534 321.338 368.293 321.372 368.088 321.401C367.628 321.463 367.216 321.565 366.853 321.707C366.489 321.849 366.202 322.048 365.992 322.304C365.782 322.554 365.676 322.878 365.676 323.276C365.676 323.844 365.884 324.273 366.299 324.562C366.713 324.852 367.242 324.997 367.884 324.997ZM379.909 322.892L379.901 319.168H380.395L385.1 313.909H388.705L382.918 320.352H382.279L379.909 322.892ZM377.097 327V309.545H380.182V327H377.097ZM385.313 327L381.051 321.043L383.131 318.869L389.003 327H385.313ZM396.017 327.256C394.705 327.256 393.571 326.983 392.617 326.438C391.668 325.886 390.938 325.108 390.426 324.102C389.915 323.091 389.659 321.901 389.659 320.531C389.659 319.185 389.915 318.003 390.426 316.986C390.944 315.963 391.665 315.168 392.591 314.599C393.517 314.026 394.605 313.739 395.855 313.739C396.662 313.739 397.424 313.869 398.14 314.131C398.861 314.386 399.498 314.784 400.049 315.324C400.605 315.864 401.043 316.551 401.361 317.386C401.679 318.216 401.838 319.205 401.838 320.352V321.298H391.108V319.219H398.881C398.875 318.628 398.748 318.102 398.498 317.642C398.248 317.176 397.898 316.81 397.449 316.543C397.006 316.276 396.489 316.142 395.898 316.142C395.267 316.142 394.713 316.295 394.236 316.602C393.759 316.903 393.387 317.301 393.12 317.795C392.858 318.284 392.725 318.821 392.719 319.406V321.222C392.719 321.983 392.858 322.636 393.137 323.182C393.415 323.722 393.804 324.136 394.304 324.426C394.804 324.71 395.39 324.852 396.06 324.852C396.509 324.852 396.915 324.79 397.279 324.665C397.642 324.534 397.958 324.344 398.225 324.094C398.492 323.844 398.694 323.534 398.83 323.165L401.711 323.489C401.529 324.25 401.182 324.915 400.671 325.483C400.165 326.045 399.517 326.483 398.728 326.795C397.938 327.102 397.034 327.256 396.017 327.256ZM349.576 347.273C349.576 349.153 349.224 350.764 348.519 352.105C347.82 353.44 346.866 354.463 345.656 355.173C344.451 355.884 343.085 356.239 341.556 356.239C340.028 356.239 338.658 355.884 337.448 355.173C336.244 354.457 335.289 353.432 334.585 352.097C333.886 350.756 333.536 349.148 333.536 347.273C333.536 345.392 333.886 343.784 334.585 342.449C335.289 341.108 336.244 340.082 337.448 339.372C338.658 338.662 340.028 338.307 341.556 338.307C343.085 338.307 344.451 338.662 345.656 339.372C346.866 340.082 347.82 341.108 348.519 342.449C349.224 343.784 349.576 345.392 349.576 347.273ZM346.397 347.273C346.397 345.949 346.19 344.832 345.775 343.923C345.366 343.009 344.798 342.318 344.07 341.852C343.343 341.381 342.505 341.145 341.556 341.145C340.607 341.145 339.769 341.381 339.042 341.852C338.315 342.318 337.744 343.009 337.329 343.923C336.92 344.832 336.715 345.949 336.715 347.273C336.715 348.597 336.92 349.716 337.329 350.631C337.744 351.54 338.315 352.23 339.042 352.702C339.769 353.168 340.607 353.401 341.556 353.401C342.505 353.401 343.343 353.168 344.07 352.702C344.798 352.23 345.366 351.54 345.775 350.631C346.19 349.716 346.397 348.597 346.397 347.273ZM355.514 348.33V356H352.429V342.909H355.378V345.134H355.531C355.832 344.401 356.313 343.818 356.972 343.386C357.636 342.955 358.457 342.739 359.435 342.739C360.338 342.739 361.125 342.932 361.795 343.318C362.472 343.705 362.994 344.264 363.364 344.997C363.739 345.73 363.923 346.619 363.918 347.665V356H360.832V348.142C360.832 347.267 360.605 346.582 360.151 346.088C359.702 345.594 359.08 345.347 358.284 345.347C357.744 345.347 357.264 345.466 356.844 345.705C356.429 345.937 356.102 346.276 355.864 346.719C355.631 347.162 355.514 347.699 355.514 348.33ZM373.591 342.909V345.295H366.065V342.909H373.591ZM367.923 339.773H371.009V352.062C371.009 352.477 371.071 352.795 371.196 353.017C371.327 353.233 371.497 353.381 371.707 353.46C371.918 353.54 372.151 353.58 372.406 353.58C372.599 353.58 372.776 353.565 372.935 353.537C373.099 353.509 373.224 353.483 373.31 353.46L373.83 355.872C373.665 355.929 373.429 355.991 373.122 356.06C372.821 356.128 372.452 356.168 372.014 356.179C371.241 356.202 370.545 356.085 369.926 355.83C369.307 355.568 368.815 355.165 368.452 354.619C368.094 354.074 367.918 353.392 367.923 352.574V339.773ZM379.938 356.264C379.109 356.264 378.362 356.116 377.697 355.821C377.038 355.52 376.515 355.077 376.129 354.491C375.748 353.906 375.558 353.185 375.558 352.327C375.558 351.588 375.694 350.977 375.967 350.494C376.239 350.011 376.612 349.625 377.083 349.335C377.555 349.045 378.086 348.827 378.677 348.679C379.273 348.526 379.89 348.415 380.526 348.347C381.293 348.267 381.915 348.196 382.393 348.134C382.87 348.065 383.217 347.963 383.433 347.827C383.654 347.685 383.765 347.466 383.765 347.17V347.119C383.765 346.477 383.575 345.98 383.194 345.628C382.813 345.276 382.265 345.099 381.549 345.099C380.793 345.099 380.194 345.264 379.751 345.594C379.313 345.923 379.018 346.312 378.864 346.761L375.984 346.352C376.211 345.557 376.586 344.892 377.109 344.358C377.631 343.818 378.271 343.415 379.026 343.148C379.782 342.875 380.617 342.739 381.532 342.739C382.163 342.739 382.79 342.812 383.415 342.96C384.04 343.108 384.612 343.352 385.129 343.693C385.646 344.028 386.06 344.486 386.373 345.065C386.691 345.645 386.85 346.369 386.85 347.239V356H383.884V354.202H383.782C383.594 354.565 383.33 354.906 382.989 355.224C382.654 355.537 382.231 355.79 381.719 355.983C381.214 356.17 380.62 356.264 379.938 356.264ZM380.739 353.997C381.359 353.997 381.896 353.875 382.35 353.631C382.805 353.381 383.154 353.051 383.398 352.642C383.648 352.233 383.773 351.787 383.773 351.304V349.761C383.677 349.841 383.512 349.915 383.279 349.983C383.052 350.051 382.796 350.111 382.512 350.162C382.228 350.213 381.947 350.259 381.668 350.298C381.39 350.338 381.148 350.372 380.944 350.401C380.484 350.463 380.072 350.565 379.708 350.707C379.344 350.849 379.058 351.048 378.847 351.304C378.637 351.554 378.532 351.878 378.532 352.276C378.532 352.844 378.739 353.273 379.154 353.562C379.569 353.852 380.097 353.997 380.739 353.997ZM389.952 356V342.909H392.944V345.091H393.08C393.319 344.335 393.728 343.753 394.308 343.344C394.893 342.929 395.56 342.722 396.31 342.722C396.481 342.722 396.671 342.73 396.881 342.747C397.097 342.759 397.276 342.778 397.418 342.807V345.645C397.288 345.599 397.08 345.56 396.796 345.526C396.518 345.486 396.248 345.466 395.987 345.466C395.424 345.466 394.918 345.588 394.469 345.832C394.026 346.071 393.677 346.403 393.421 346.83C393.165 347.256 393.038 347.747 393.038 348.304V356H389.952ZM399.468 356V342.909H402.553V356H399.468ZM401.019 341.051C400.531 341.051 400.11 340.889 399.758 340.565C399.406 340.236 399.229 339.841 399.229 339.381C399.229 338.915 399.406 338.52 399.758 338.196C400.11 337.866 400.531 337.702 401.019 337.702C401.513 337.702 401.934 337.866 402.281 338.196C402.633 338.52 402.809 338.915 402.809 339.381C402.809 339.841 402.633 340.236 402.281 340.565C401.934 340.889 401.513 341.051 401.019 341.051ZM411.436 356.256C410.158 356.256 409.05 355.974 408.112 355.412C407.175 354.849 406.447 354.062 405.93 353.051C405.419 352.04 405.163 350.858 405.163 349.506C405.163 348.153 405.419 346.969 405.93 345.952C406.447 344.935 407.175 344.145 408.112 343.582C409.05 343.02 410.158 342.739 411.436 342.739C412.714 342.739 413.822 343.02 414.76 343.582C415.697 344.145 416.422 344.935 416.933 345.952C417.45 346.969 417.709 348.153 417.709 349.506C417.709 350.858 417.45 352.04 416.933 353.051C416.422 354.062 415.697 354.849 414.76 355.412C413.822 355.974 412.714 356.256 411.436 356.256ZM411.453 353.784C412.146 353.784 412.726 353.594 413.192 353.213C413.658 352.827 414.004 352.31 414.232 351.662C414.464 351.014 414.581 350.293 414.581 349.497C414.581 348.696 414.464 347.972 414.232 347.324C414.004 346.67 413.658 346.151 413.192 345.764C412.726 345.378 412.146 345.185 411.453 345.185C410.743 345.185 410.152 345.378 409.68 345.764C409.214 346.151 408.865 346.67 408.632 347.324C408.405 347.972 408.291 348.696 408.291 349.497C408.291 350.293 408.405 351.014 408.632 351.662C408.865 352.31 409.214 352.827 409.68 353.213C410.152 353.594 410.743 353.784 411.453 353.784Z" fill="#017D83"/>
<path d="M60.8583 502V484.545H64.0202V499.349H71.7077V502H60.8583ZM78.0827 502.264C77.2532 502.264 76.506 502.116 75.8413 501.821C75.1822 501.52 74.6594 501.077 74.2731 500.491C73.8924 499.906 73.7021 499.185 73.7021 498.327C73.7021 497.588 73.8384 496.977 74.1112 496.494C74.3839 496.011 74.756 495.625 75.2276 495.335C75.6992 495.045 76.2305 494.827 76.8214 494.679C77.418 494.526 78.0344 494.415 78.6708 494.347C79.4379 494.267 80.06 494.196 80.5373 494.134C81.0146 494.065 81.3612 493.963 81.5771 493.827C81.7987 493.685 81.9094 493.466 81.9094 493.17V493.119C81.9094 492.477 81.7191 491.98 81.3384 491.628C80.9577 491.276 80.4094 491.099 79.6935 491.099C78.9379 491.099 78.3384 491.264 77.8952 491.594C77.4577 491.923 77.1623 492.312 77.0089 492.761L74.1282 492.352C74.3555 491.557 74.7305 490.892 75.2532 490.358C75.7759 489.818 76.4151 489.415 77.1708 489.148C77.9265 488.875 78.7617 488.739 79.6765 488.739C80.3072 488.739 80.935 488.812 81.56 488.96C82.185 489.108 82.756 489.352 83.2731 489.693C83.7901 490.028 84.2049 490.486 84.5174 491.065C84.8356 491.645 84.9947 492.369 84.9947 493.239V502H82.0288V500.202H81.9265C81.739 500.565 81.4748 500.906 81.1339 501.224C80.7987 501.537 80.3754 501.79 79.864 501.983C79.3583 502.17 78.7646 502.264 78.0827 502.264ZM78.8839 499.997C79.5032 499.997 80.0401 499.875 80.4947 499.631C80.9492 499.381 81.2987 499.051 81.543 498.642C81.793 498.233 81.918 497.787 81.918 497.304V495.761C81.8214 495.841 81.6566 495.915 81.4237 495.983C81.1964 496.051 80.9407 496.111 80.6566 496.162C80.3725 496.213 80.0913 496.259 79.8129 496.298C79.5344 496.338 79.293 496.372 79.0884 496.401C78.6282 496.463 78.2163 496.565 77.8526 496.707C77.489 496.849 77.2021 497.048 76.9918 497.304C76.7816 497.554 76.6765 497.878 76.6765 498.276C76.6765 498.844 76.8839 499.273 77.2987 499.562C77.7134 499.852 78.2418 499.997 78.8839 499.997ZM90.9094 497.892L90.9009 494.168H91.3952L96.0998 488.909H99.7049L93.918 495.352H93.2788L90.9094 497.892ZM88.0969 502V484.545H91.1822V502H88.0969ZM96.3129 502L92.0515 496.043L94.131 493.869L100.003 502H96.3129ZM107.017 502.256C105.705 502.256 104.571 501.983 103.617 501.438C102.668 500.886 101.938 500.108 101.426 499.102C100.915 498.091 100.659 496.901 100.659 495.531C100.659 494.185 100.915 493.003 101.426 491.986C101.944 490.963 102.665 490.168 103.591 489.599C104.517 489.026 105.605 488.739 106.855 488.739C107.662 488.739 108.424 488.869 109.14 489.131C109.861 489.386 110.498 489.784 111.049 490.324C111.605 490.864 112.043 491.551 112.361 492.386C112.679 493.216 112.838 494.205 112.838 495.352V496.298H102.108V494.219H109.881C109.875 493.628 109.748 493.102 109.498 492.642C109.248 492.176 108.898 491.81 108.449 491.543C108.006 491.276 107.489 491.142 106.898 491.142C106.267 491.142 105.713 491.295 105.236 491.602C104.759 491.903 104.387 492.301 104.12 492.795C103.858 493.284 103.725 493.821 103.719 494.406V496.222C103.719 496.983 103.858 497.636 104.137 498.182C104.415 498.722 104.804 499.136 105.304 499.426C105.804 499.71 106.39 499.852 107.06 499.852C107.509 499.852 107.915 499.79 108.279 499.665C108.642 499.534 108.958 499.344 109.225 499.094C109.492 498.844 109.694 498.534 109.83 498.165L112.711 498.489C112.529 499.25 112.182 499.915 111.671 500.483C111.165 501.045 110.517 501.483 109.728 501.795C108.938 502.102 108.034 502.256 107.017 502.256ZM65.9325 531V513.545H77.2848V516.196H69.0945V520.935H76.6967V523.585H69.0945V528.349H77.353V531H65.9325ZM80.3743 531V517.909H83.3658V520.091H83.5021C83.7408 519.335 84.1499 518.753 84.7294 518.344C85.3146 517.929 85.9822 517.722 86.7322 517.722C86.9027 517.722 87.093 517.73 87.3033 517.747C87.5192 517.759 87.6982 517.778 87.8402 517.807V520.645C87.7095 520.599 87.5021 520.56 87.218 520.526C86.9396 520.486 86.6697 520.466 86.4084 520.466C85.8459 520.466 85.3402 520.588 84.8913 520.832C84.4482 521.071 84.0987 521.403 83.843 521.83C83.5874 522.256 83.4595 522.747 83.4595 523.304V531H80.3743ZM89.8899 531V517.909H92.9751V531H89.8899ZM91.4411 516.051C90.9524 516.051 90.532 515.889 90.1797 515.565C89.8274 515.236 89.6513 514.841 89.6513 514.381C89.6513 513.915 89.8274 513.52 90.1797 513.196C90.532 512.866 90.9524 512.702 91.4411 512.702C91.9354 512.702 92.3558 512.866 92.7024 513.196C93.0547 513.52 93.2308 513.915 93.2308 514.381C93.2308 514.841 93.0547 515.236 92.7024 515.565C92.3558 515.889 91.9354 516.051 91.4411 516.051ZM101.943 531.256C100.631 531.256 99.4972 530.983 98.5426 530.438C97.5938 529.886 96.8636 529.108 96.3523 528.102C95.8409 527.091 95.5852 525.901 95.5852 524.531C95.5852 523.185 95.8409 522.003 96.3523 520.986C96.8693 519.963 97.5909 519.168 98.517 518.599C99.4432 518.026 100.531 517.739 101.781 517.739C102.588 517.739 103.349 517.869 104.065 518.131C104.787 518.386 105.423 518.784 105.974 519.324C106.531 519.864 106.969 520.551 107.287 521.386C107.605 522.216 107.764 523.205 107.764 524.352V525.298H97.0341V523.219H104.807C104.801 522.628 104.673 522.102 104.423 521.642C104.173 521.176 103.824 520.81 103.375 520.543C102.932 520.276 102.415 520.142 101.824 520.142C101.193 520.142 100.639 520.295 100.162 520.602C99.6847 520.903 99.3125 521.301 99.0455 521.795C98.7841 522.284 98.6506 522.821 98.6449 523.406V525.222C98.6449 525.983 98.7841 526.636 99.0625 527.182C99.3409 527.722 99.7301 528.136 100.23 528.426C100.73 528.71 101.315 528.852 101.986 528.852C102.435 528.852 102.841 528.79 103.205 528.665C103.568 528.534 103.884 528.344 104.151 528.094C104.418 527.844 104.619 527.534 104.756 527.165L107.636 527.489C107.455 528.25 107.108 528.915 106.597 529.483C106.091 530.045 105.443 530.483 104.653 530.795C103.864 531.102 102.96 531.256 101.943 531.256Z" fill="#017D83"/>
<path d="M498.662 103.435H495.474C495.384 102.912 495.216 102.449 494.972 102.045C494.727 101.636 494.423 101.29 494.06 101.006C493.696 100.722 493.281 100.509 492.815 100.366C492.355 100.219 491.858 100.145 491.324 100.145C490.375 100.145 489.534 100.384 488.801 100.861C488.068 101.332 487.494 102.026 487.08 102.94C486.665 103.849 486.457 104.96 486.457 106.273C486.457 107.608 486.665 108.733 487.08 109.648C487.5 110.557 488.074 111.244 488.801 111.71C489.534 112.17 490.372 112.401 491.315 112.401C491.838 112.401 492.327 112.332 492.781 112.196C493.241 112.054 493.653 111.847 494.017 111.574C494.386 111.301 494.696 110.966 494.946 110.568C495.202 110.17 495.378 109.716 495.474 109.205L498.662 109.222C498.543 110.051 498.284 110.83 497.886 111.557C497.494 112.284 496.98 112.926 496.344 113.483C495.707 114.034 494.963 114.466 494.111 114.778C493.259 115.085 492.313 115.239 491.273 115.239C489.739 115.239 488.369 114.884 487.165 114.173C485.96 113.463 485.011 112.438 484.318 111.097C483.625 109.756 483.278 108.148 483.278 106.273C483.278 104.392 483.628 102.784 484.327 101.449C485.026 100.108 485.977 99.0824 487.182 98.3722C488.386 97.6619 489.75 97.3068 491.273 97.3068C492.244 97.3068 493.148 97.4432 493.983 97.7159C494.818 97.9886 495.563 98.3892 496.216 98.9176C496.869 99.4403 497.406 100.082 497.827 100.844C498.253 101.599 498.531 102.463 498.662 103.435ZM505.188 115.264C504.359 115.264 503.612 115.116 502.947 114.821C502.288 114.52 501.765 114.077 501.379 113.491C500.998 112.906 500.808 112.185 500.808 111.327C500.808 110.588 500.944 109.977 501.217 109.494C501.489 109.011 501.862 108.625 502.333 108.335C502.805 108.045 503.336 107.827 503.927 107.679C504.523 107.526 505.14 107.415 505.776 107.347C506.543 107.267 507.165 107.196 507.643 107.134C508.12 107.065 508.467 106.963 508.683 106.827C508.904 106.685 509.015 106.466 509.015 106.17V106.119C509.015 105.477 508.825 104.98 508.444 104.628C508.063 104.276 507.515 104.099 506.799 104.099C506.043 104.099 505.444 104.264 505.001 104.594C504.563 104.923 504.268 105.312 504.114 105.761L501.234 105.352C501.461 104.557 501.836 103.892 502.359 103.358C502.881 102.818 503.521 102.415 504.276 102.148C505.032 101.875 505.867 101.739 506.782 101.739C507.413 101.739 508.04 101.812 508.665 101.96C509.29 102.108 509.862 102.352 510.379 102.693C510.896 103.028 511.31 103.486 511.623 104.065C511.941 104.645 512.1 105.369 512.1 106.239V115H509.134V113.202H509.032C508.844 113.565 508.58 113.906 508.239 114.224C507.904 114.537 507.481 114.79 506.969 114.983C506.464 115.17 505.87 115.264 505.188 115.264ZM505.989 112.997C506.609 112.997 507.146 112.875 507.6 112.631C508.055 112.381 508.404 112.051 508.648 111.642C508.898 111.233 509.023 110.787 509.023 110.304V108.761C508.927 108.841 508.762 108.915 508.529 108.983C508.302 109.051 508.046 109.111 507.762 109.162C507.478 109.213 507.197 109.259 506.918 109.298C506.64 109.338 506.398 109.372 506.194 109.401C505.734 109.463 505.322 109.565 504.958 109.707C504.594 109.849 504.308 110.048 504.097 110.304C503.887 110.554 503.782 110.878 503.782 111.276C503.782 111.844 503.989 112.273 504.404 112.562C504.819 112.852 505.347 112.997 505.989 112.997ZM518.288 107.33V115H515.202V101.909H518.151V104.134H518.305C518.606 103.401 519.086 102.818 519.745 102.386C520.41 101.955 521.231 101.739 522.208 101.739C523.112 101.739 523.898 101.932 524.569 102.318C525.245 102.705 525.768 103.264 526.137 103.997C526.512 104.73 526.697 105.619 526.691 106.665V115H523.606V107.142C523.606 106.267 523.379 105.582 522.924 105.088C522.475 104.594 521.853 104.347 521.058 104.347C520.518 104.347 520.038 104.466 519.617 104.705C519.202 104.937 518.876 105.276 518.637 105.719C518.404 106.162 518.288 106.699 518.288 107.33ZM533.594 115.264C532.765 115.264 532.018 115.116 531.353 114.821C530.694 114.52 530.171 114.077 529.785 113.491C529.404 112.906 529.214 112.185 529.214 111.327C529.214 110.588 529.35 109.977 529.623 109.494C529.896 109.011 530.268 108.625 530.739 108.335C531.211 108.045 531.742 107.827 532.333 107.679C532.93 107.526 533.546 107.415 534.183 107.347C534.95 107.267 535.572 107.196 536.049 107.134C536.526 107.065 536.873 106.963 537.089 106.827C537.31 106.685 537.421 106.466 537.421 106.17V106.119C537.421 105.477 537.231 104.98 536.85 104.628C536.469 104.276 535.921 104.099 535.205 104.099C534.45 104.099 533.85 104.264 533.407 104.594C532.969 104.923 532.674 105.312 532.521 105.761L529.64 105.352C529.867 104.557 530.242 103.892 530.765 103.358C531.288 102.818 531.927 102.415 532.683 102.148C533.438 101.875 534.273 101.739 535.188 101.739C535.819 101.739 536.447 101.812 537.072 101.96C537.697 102.108 538.268 102.352 538.785 102.693C539.302 103.028 539.717 103.486 540.029 104.065C540.347 104.645 540.506 105.369 540.506 106.239V115H537.54V113.202H537.438C537.251 113.565 536.987 113.906 536.646 114.224C536.31 114.537 535.887 114.79 535.376 114.983C534.87 115.17 534.276 115.264 533.594 115.264ZM534.396 112.997C535.015 112.997 535.552 112.875 536.006 112.631C536.461 112.381 536.81 112.051 537.055 111.642C537.305 111.233 537.43 110.787 537.43 110.304V108.761C537.333 108.841 537.168 108.915 536.935 108.983C536.708 109.051 536.452 109.111 536.168 109.162C535.884 109.213 535.603 109.259 535.325 109.298C535.046 109.338 534.805 109.372 534.6 109.401C534.14 109.463 533.728 109.565 533.364 109.707C533.001 109.849 532.714 110.048 532.504 110.304C532.293 110.554 532.188 110.878 532.188 111.276C532.188 111.844 532.396 112.273 532.81 112.562C533.225 112.852 533.754 112.997 534.396 112.997ZM548.467 115.23C547.438 115.23 546.518 114.966 545.705 114.438C544.893 113.909 544.251 113.142 543.779 112.136C543.308 111.131 543.072 109.909 543.072 108.472C543.072 107.017 543.31 105.79 543.788 104.79C544.271 103.784 544.921 103.026 545.739 102.514C546.558 101.997 547.469 101.739 548.475 101.739C549.242 101.739 549.873 101.869 550.367 102.131C550.862 102.386 551.254 102.696 551.543 103.06C551.833 103.418 552.058 103.756 552.217 104.074H552.344V97.5455H555.438V115H552.404V112.938H552.217C552.058 113.256 551.827 113.594 551.526 113.952C551.225 114.304 550.827 114.605 550.333 114.855C549.839 115.105 549.217 115.23 548.467 115.23ZM549.327 112.699C549.981 112.699 550.538 112.523 550.998 112.17C551.458 111.812 551.808 111.315 552.046 110.679C552.285 110.043 552.404 109.301 552.404 108.455C552.404 107.608 552.285 106.872 552.046 106.247C551.813 105.622 551.467 105.136 551.006 104.79C550.552 104.443 549.992 104.27 549.327 104.27C548.64 104.27 548.066 104.449 547.606 104.807C547.146 105.165 546.799 105.659 546.566 106.29C546.333 106.92 546.217 107.642 546.217 108.455C546.217 109.273 546.333 110.003 546.566 110.645C546.805 111.281 547.154 111.784 547.614 112.153C548.08 112.517 548.651 112.699 549.327 112.699ZM562.493 115.264C561.663 115.264 560.916 115.116 560.251 114.821C559.592 114.52 559.07 114.077 558.683 113.491C558.303 112.906 558.112 112.185 558.112 111.327C558.112 110.588 558.249 109.977 558.521 109.494C558.794 109.011 559.166 108.625 559.638 108.335C560.109 108.045 560.641 107.827 561.232 107.679C561.828 107.526 562.445 107.415 563.081 107.347C563.848 107.267 564.47 107.196 564.947 107.134C565.425 107.065 565.771 106.963 565.987 106.827C566.209 106.685 566.32 106.466 566.32 106.17V106.119C566.32 105.477 566.129 104.98 565.749 104.628C565.368 104.276 564.82 104.099 564.104 104.099C563.348 104.099 562.749 104.264 562.305 104.594C561.868 104.923 561.572 105.312 561.419 105.761L558.538 105.352C558.766 104.557 559.141 103.892 559.663 103.358C560.186 102.818 560.825 102.415 561.581 102.148C562.337 101.875 563.172 101.739 564.087 101.739C564.717 101.739 565.345 101.812 565.97 101.96C566.595 102.108 567.166 102.352 567.683 102.693C568.2 103.028 568.615 103.486 568.928 104.065C569.246 104.645 569.405 105.369 569.405 106.239V115H566.439V113.202H566.337C566.149 113.565 565.885 113.906 565.544 114.224C565.209 114.537 564.786 114.79 564.274 114.983C563.768 115.17 563.175 115.264 562.493 115.264ZM563.294 112.997C563.913 112.997 564.45 112.875 564.905 112.631C565.359 112.381 565.709 112.051 565.953 111.642C566.203 111.233 566.328 110.787 566.328 110.304V108.761C566.232 108.841 566.067 108.915 565.834 108.983C565.607 109.051 565.351 109.111 565.067 109.162C564.783 109.213 564.501 109.259 564.223 109.298C563.945 109.338 563.703 109.372 563.499 109.401C563.038 109.463 562.626 109.565 562.263 109.707C561.899 109.849 561.612 110.048 561.402 110.304C561.192 110.554 561.087 110.878 561.087 111.276C561.087 111.844 561.294 112.273 561.709 112.562C562.124 112.852 562.652 112.997 563.294 112.997Z" fill="#00943D"/>
<defs>
<filter id="filter0_d_90_159" x="76.5" y="103.261" width="971.065" height="759.649" filterUnits="userSpaceOnUse" color-interpolation-filters="sRGB">
<feFlood flood-opacity="0" result="BackgroundImageFix"/>
<feColorMatrix in="SourceAlpha" type="matrix" values="0 0 0 0 0 0 0 0 0 0 0 0 0 0 0 0 0 0 127 0" result="hardAlpha"/>
<feOffset dy="4"/>
<feGaussianBlur stdDeviation="2"/>
<feComposite in2="hardAlpha" operator="out"/>
<feColorMatrix type="matrix" values="0 0 0 0 0 0 0 0 0 0 0 0 0 0 0 0 0 0 0.25 0"/>
<feBlend mode="normal" in2="BackgroundImageFix" result="effect1_dropShadow_90_159"/>
<feBlend mode="normal" in="SourceGraphic" in2="effect1_dropShadow_90_159" result="shape"/>
</filter>
</defs>
</svg>
