<svg width="647" height="672" viewBox="0 0 647 672" fill="none" xmlns="http://www.w3.org/2000/svg">
<rect x="0.5" y="0.5" width="646" height="671" rx="35.5" fill="#8DDBFF" stroke="#717171"/>
<path d="M196.662 614.435H193.474C193.384 613.912 193.216 613.449 192.972 613.045C192.727 612.636 192.423 612.29 192.06 612.006C191.696 611.722 191.281 611.509 190.815 611.366C190.355 611.219 189.858 611.145 189.324 611.145C188.375 611.145 187.534 611.384 186.801 611.861C186.068 612.332 185.494 613.026 185.08 613.94C184.665 614.849 184.457 615.96 184.457 617.273C184.457 618.608 184.665 619.733 185.08 620.648C185.5 621.557 186.074 622.244 186.801 622.71C187.534 623.17 188.372 623.401 189.315 623.401C189.838 623.401 190.327 623.332 190.781 623.196C191.241 623.054 191.653 622.847 192.017 622.574C192.386 622.301 192.696 621.966 192.946 621.568C193.202 621.17 193.378 620.716 193.474 620.205L196.662 620.222C196.543 621.051 196.284 621.83 195.886 622.557C195.494 623.284 194.98 623.926 194.344 624.483C193.707 625.034 192.963 625.466 192.111 625.778C191.259 626.085 190.313 626.239 189.273 626.239C187.739 626.239 186.369 625.884 185.165 625.173C183.96 624.463 183.011 623.438 182.318 622.097C181.625 620.756 181.278 619.148 181.278 617.273C181.278 615.392 181.628 613.784 182.327 612.449C183.026 611.108 183.977 610.082 185.182 609.372C186.386 608.662 187.75 608.307 189.273 608.307C190.244 608.307 191.148 608.443 191.983 608.716C192.818 608.989 193.563 609.389 194.216 609.918C194.869 610.44 195.406 611.082 195.827 611.844C196.253 612.599 196.531 613.463 196.662 614.435ZM203.188 626.264C202.359 626.264 201.612 626.116 200.947 625.821C200.288 625.52 199.765 625.077 199.379 624.491C198.998 623.906 198.808 623.185 198.808 622.327C198.808 621.588 198.944 620.977 199.217 620.494C199.489 620.011 199.862 619.625 200.333 619.335C200.805 619.045 201.336 618.827 201.927 618.679C202.523 618.526 203.14 618.415 203.776 618.347C204.543 618.267 205.165 618.196 205.643 618.134C206.12 618.065 206.467 617.963 206.683 617.827C206.904 617.685 207.015 617.466 207.015 617.17V617.119C207.015 616.477 206.825 615.98 206.444 615.628C206.063 615.276 205.515 615.099 204.799 615.099C204.043 615.099 203.444 615.264 203.001 615.594C202.563 615.923 202.268 616.312 202.114 616.761L199.234 616.352C199.461 615.557 199.836 614.892 200.359 614.358C200.881 613.818 201.521 613.415 202.276 613.148C203.032 612.875 203.867 612.739 204.782 612.739C205.413 612.739 206.04 612.812 206.665 612.96C207.29 613.108 207.862 613.352 208.379 613.693C208.896 614.028 209.31 614.486 209.623 615.065C209.941 615.645 210.1 616.369 210.1 617.239V626H207.134V624.202H207.032C206.844 624.565 206.58 624.906 206.239 625.224C205.904 625.537 205.481 625.79 204.969 625.983C204.464 626.17 203.87 626.264 203.188 626.264ZM203.989 623.997C204.609 623.997 205.146 623.875 205.6 623.631C206.055 623.381 206.404 623.051 206.648 622.642C206.898 622.233 207.023 621.787 207.023 621.304V619.761C206.927 619.841 206.762 619.915 206.529 619.983C206.302 620.051 206.046 620.111 205.762 620.162C205.478 620.213 205.197 620.259 204.918 620.298C204.64 620.338 204.398 620.372 204.194 620.401C203.734 620.463 203.322 620.565 202.958 620.707C202.594 620.849 202.308 621.048 202.097 621.304C201.887 621.554 201.782 621.878 201.782 622.276C201.782 622.844 201.989 623.273 202.404 623.562C202.819 623.852 203.347 623.997 203.989 623.997ZM216.288 618.33V626H213.202V612.909H216.151V615.134H216.305C216.606 614.401 217.086 613.818 217.745 613.386C218.41 612.955 219.231 612.739 220.208 612.739C221.112 612.739 221.898 612.932 222.569 613.318C223.245 613.705 223.768 614.264 224.137 614.997C224.512 615.73 224.697 616.619 224.691 617.665V626H221.606V618.142C221.606 617.267 221.379 616.582 220.924 616.088C220.475 615.594 219.853 615.347 219.058 615.347C218.518 615.347 218.038 615.466 217.617 615.705C217.202 615.937 216.876 616.276 216.637 616.719C216.404 617.162 216.288 617.699 216.288 618.33ZM231.594 626.264C230.765 626.264 230.018 626.116 229.353 625.821C228.694 625.52 228.171 625.077 227.785 624.491C227.404 623.906 227.214 623.185 227.214 622.327C227.214 621.588 227.35 620.977 227.623 620.494C227.896 620.011 228.268 619.625 228.739 619.335C229.211 619.045 229.742 618.827 230.333 618.679C230.93 618.526 231.546 618.415 232.183 618.347C232.95 618.267 233.572 618.196 234.049 618.134C234.526 618.065 234.873 617.963 235.089 617.827C235.31 617.685 235.421 617.466 235.421 617.17V617.119C235.421 616.477 235.231 615.98 234.85 615.628C234.469 615.276 233.921 615.099 233.205 615.099C232.45 615.099 231.85 615.264 231.407 615.594C230.969 615.923 230.674 616.312 230.521 616.761L227.64 616.352C227.867 615.557 228.242 614.892 228.765 614.358C229.288 613.818 229.927 613.415 230.683 613.148C231.438 612.875 232.273 612.739 233.188 612.739C233.819 612.739 234.447 612.812 235.072 612.96C235.697 613.108 236.268 613.352 236.785 613.693C237.302 614.028 237.717 614.486 238.029 615.065C238.347 615.645 238.506 616.369 238.506 617.239V626H235.54V624.202H235.438C235.251 624.565 234.987 624.906 234.646 625.224C234.31 625.537 233.887 625.79 233.376 625.983C232.87 626.17 232.276 626.264 231.594 626.264ZM232.396 623.997C233.015 623.997 233.552 623.875 234.006 623.631C234.461 623.381 234.81 623.051 235.055 622.642C235.305 622.233 235.43 621.787 235.43 621.304V619.761C235.333 619.841 235.168 619.915 234.935 619.983C234.708 620.051 234.452 620.111 234.168 620.162C233.884 620.213 233.603 620.259 233.325 620.298C233.046 620.338 232.805 620.372 232.6 620.401C232.14 620.463 231.728 620.565 231.364 620.707C231.001 620.849 230.714 621.048 230.504 621.304C230.293 621.554 230.188 621.878 230.188 622.276C230.188 622.844 230.396 623.273 230.81 623.562C231.225 623.852 231.754 623.997 232.396 623.997ZM246.467 626.23C245.438 626.23 244.518 625.966 243.705 625.438C242.893 624.909 242.251 624.142 241.779 623.136C241.308 622.131 241.072 620.909 241.072 619.472C241.072 618.017 241.31 616.79 241.788 615.79C242.271 614.784 242.921 614.026 243.739 613.514C244.558 612.997 245.469 612.739 246.475 612.739C247.242 612.739 247.873 612.869 248.367 613.131C248.862 613.386 249.254 613.696 249.543 614.06C249.833 614.418 250.058 614.756 250.217 615.074H250.344V608.545H253.438V626H250.404V623.938H250.217C250.058 624.256 249.827 624.594 249.526 624.952C249.225 625.304 248.827 625.605 248.333 625.855C247.839 626.105 247.217 626.23 246.467 626.23ZM247.327 623.699C247.981 623.699 248.538 623.523 248.998 623.17C249.458 622.812 249.808 622.315 250.046 621.679C250.285 621.043 250.404 620.301 250.404 619.455C250.404 618.608 250.285 617.872 250.046 617.247C249.813 616.622 249.467 616.136 249.006 615.79C248.552 615.443 247.992 615.27 247.327 615.27C246.64 615.27 246.066 615.449 245.606 615.807C245.146 616.165 244.799 616.659 244.566 617.29C244.333 617.92 244.217 618.642 244.217 619.455C244.217 620.273 244.333 621.003 244.566 621.645C244.805 622.281 245.154 622.784 245.614 623.153C246.08 623.517 246.651 623.699 247.327 623.699ZM260.493 626.264C259.663 626.264 258.916 626.116 258.251 625.821C257.592 625.52 257.07 625.077 256.683 624.491C256.303 623.906 256.112 623.185 256.112 622.327C256.112 621.588 256.249 620.977 256.521 620.494C256.794 620.011 257.166 619.625 257.638 619.335C258.109 619.045 258.641 618.827 259.232 618.679C259.828 618.526 260.445 618.415 261.081 618.347C261.848 618.267 262.47 618.196 262.947 618.134C263.425 618.065 263.771 617.963 263.987 617.827C264.209 617.685 264.32 617.466 264.32 617.17V617.119C264.32 616.477 264.129 615.98 263.749 615.628C263.368 615.276 262.82 615.099 262.104 615.099C261.348 615.099 260.749 615.264 260.305 615.594C259.868 615.923 259.572 616.312 259.419 616.761L256.538 616.352C256.766 615.557 257.141 614.892 257.663 614.358C258.186 613.818 258.825 613.415 259.581 613.148C260.337 612.875 261.172 612.739 262.087 612.739C262.717 612.739 263.345 612.812 263.97 612.96C264.595 613.108 265.166 613.352 265.683 613.693C266.2 614.028 266.615 614.486 266.928 615.065C267.246 615.645 267.405 616.369 267.405 617.239V626H264.439V624.202H264.337C264.149 624.565 263.885 624.906 263.544 625.224C263.209 625.537 262.786 625.79 262.274 625.983C261.768 626.17 261.175 626.264 260.493 626.264ZM261.294 623.997C261.913 623.997 262.45 623.875 262.905 623.631C263.359 623.381 263.709 623.051 263.953 622.642C264.203 622.233 264.328 621.787 264.328 621.304V619.761C264.232 619.841 264.067 619.915 263.834 619.983C263.607 620.051 263.351 620.111 263.067 620.162C262.783 620.213 262.501 620.259 262.223 620.298C261.945 620.338 261.703 620.372 261.499 620.401C261.038 620.463 260.626 620.565 260.263 620.707C259.899 620.849 259.612 621.048 259.402 621.304C259.192 621.554 259.087 621.878 259.087 622.276C259.087 622.844 259.294 623.273 259.709 623.562C260.124 623.852 260.652 623.997 261.294 623.997Z" fill="#00943D"/>
<g filter="url(#filter0_d_219_85)">
<path d="M543 108H107.5L107 603H167.5V564.5H288.5L286 562.5L282.5 558.5L282 546H538.5L543 108Z" fill="#FFD597"/>
<path d="M543 108H107.5L107 603H167.5V564.5H288.5L286 562.5L282.5 558.5L282 546H538.5L543 108Z" stroke="black"/>
</g>
<path d="M559.955 439.196V436.545H573.881V439.196H568.486V454H565.349V439.196H559.955ZM579.207 436.545L583.051 442.938H583.188L587.048 436.545H590.653L585.276 445.273L590.739 454H587.074L583.188 447.651H583.051L579.165 454H575.517L581.031 445.273L575.585 436.545H579.207Z" fill="#005A5E"/>
<path d="M576.318 135.273C576.318 137.153 575.966 138.764 575.261 140.105C574.563 141.44 573.608 142.463 572.398 143.173C571.193 143.884 569.827 144.239 568.298 144.239C566.77 144.239 565.401 143.884 564.19 143.173C562.986 142.457 562.031 141.432 561.327 140.097C560.628 138.756 560.278 137.148 560.278 135.273C560.278 133.392 560.628 131.784 561.327 130.449C562.031 129.108 562.986 128.082 564.19 127.372C565.401 126.662 566.77 126.307 568.298 126.307C569.827 126.307 571.193 126.662 572.398 127.372C573.608 128.082 574.563 129.108 575.261 130.449C575.966 131.784 576.318 133.392 576.318 135.273ZM573.139 135.273C573.139 133.949 572.932 132.832 572.517 131.923C572.108 131.009 571.54 130.318 570.812 129.852C570.085 129.381 569.247 129.145 568.298 129.145C567.349 129.145 566.511 129.381 565.784 129.852C565.057 130.318 564.486 131.009 564.071 131.923C563.662 132.832 563.457 133.949 563.457 135.273C563.457 136.597 563.662 137.716 564.071 138.631C564.486 139.54 565.057 140.23 565.784 140.702C566.511 141.168 567.349 141.401 568.298 141.401C569.247 141.401 570.085 141.168 570.812 140.702C571.54 140.23 572.108 139.54 572.517 138.631C572.932 137.716 573.139 136.597 573.139 135.273ZM579.308 144V126.545H582.469V134.565H582.683L589.492 126.545H593.353L586.603 134.378L593.413 144H589.612L584.404 136.517L582.469 138.801V144H579.308Z" fill="#005A5E"/>
<path d="M352.662 72.4347H349.474C349.384 71.9119 349.216 71.4489 348.972 71.0455C348.727 70.6364 348.423 70.2898 348.06 70.0057C347.696 69.7216 347.281 69.5085 346.815 69.3665C346.355 69.2188 345.858 69.1449 345.324 69.1449C344.375 69.1449 343.534 69.3835 342.801 69.8608C342.068 70.3324 341.494 71.0256 341.08 71.9403C340.665 72.8494 340.457 73.9602 340.457 75.2727C340.457 76.608 340.665 77.733 341.08 78.6477C341.5 79.5568 342.074 80.2443 342.801 80.7102C343.534 81.1705 344.372 81.4006 345.315 81.4006C345.838 81.4006 346.327 81.3324 346.781 81.196C347.241 81.054 347.653 80.8466 348.017 80.5739C348.386 80.3011 348.696 79.9659 348.946 79.5682C349.202 79.1705 349.378 78.7159 349.474 78.2045L352.662 78.2216C352.543 79.0511 352.284 79.8295 351.886 80.5568C351.494 81.2841 350.98 81.9261 350.344 82.483C349.707 83.0341 348.963 83.4659 348.111 83.7784C347.259 84.0852 346.313 84.2386 345.273 84.2386C343.739 84.2386 342.369 83.8835 341.165 83.1733C339.96 82.4631 339.011 81.4375 338.318 80.0966C337.625 78.7557 337.278 77.1477 337.278 75.2727C337.278 73.392 337.628 71.7841 338.327 70.4489C339.026 69.108 339.977 68.0824 341.182 67.3722C342.386 66.6619 343.75 66.3068 345.273 66.3068C346.244 66.3068 347.148 66.4432 347.983 66.7159C348.818 66.9886 349.563 67.3892 350.216 67.9176C350.869 68.4403 351.406 69.0824 351.827 69.8438C352.253 70.5994 352.531 71.4631 352.662 72.4347ZM371.154 75.2727C371.154 77.1534 370.802 78.7642 370.097 80.1051C369.398 81.4403 368.444 82.4631 367.234 83.1733C366.029 83.8835 364.663 84.2386 363.134 84.2386C361.606 84.2386 360.237 83.8835 359.026 83.1733C357.822 82.4574 356.867 81.4318 356.163 80.0966C355.464 78.7557 355.114 77.1477 355.114 75.2727C355.114 73.392 355.464 71.7841 356.163 70.4489C356.867 69.108 357.822 68.0824 359.026 67.3722C360.237 66.6619 361.606 66.3068 363.134 66.3068C364.663 66.3068 366.029 66.6619 367.234 67.3722C368.444 68.0824 369.398 69.108 370.097 70.4489C370.802 71.7841 371.154 73.392 371.154 75.2727ZM367.975 75.2727C367.975 73.9489 367.768 72.8324 367.353 71.9233C366.944 71.0085 366.376 70.3182 365.648 69.8523C364.921 69.3807 364.083 69.1449 363.134 69.1449C362.185 69.1449 361.347 69.3807 360.62 69.8523C359.893 70.3182 359.322 71.0085 358.907 71.9233C358.498 72.8324 358.293 73.9489 358.293 75.2727C358.293 76.5966 358.498 77.7159 358.907 78.6307C359.322 79.5398 359.893 80.2301 360.62 80.7017C361.347 81.1676 362.185 81.4006 363.134 81.4006C364.083 81.4006 364.921 81.1676 365.648 80.7017C366.376 80.2301 366.944 79.5398 367.353 78.6307C367.768 77.7159 367.975 76.5966 367.975 75.2727Z" fill="#005A5E"/>
<path d="M62.7244 67.5455H65.8864V78.9489C65.8864 80.1989 65.5909 81.2983 65 82.2472C64.4148 83.196 63.5909 83.9375 62.5284 84.4716C61.4659 85 60.2244 85.2642 58.804 85.2642C57.3778 85.2642 56.1335 85 55.071 84.4716C54.0085 83.9375 53.1847 83.196 52.5994 82.2472C52.0142 81.2983 51.7216 80.1989 51.7216 78.9489V67.5455H54.8835V78.6847C54.8835 79.4119 55.0426 80.0597 55.3608 80.6278C55.6847 81.196 56.1392 81.642 56.7244 81.9659C57.3097 82.2841 58.0028 82.4432 58.804 82.4432C59.6051 82.4432 60.2983 82.2841 60.8835 81.9659C61.4744 81.642 61.929 81.196 62.2472 80.6278C62.5653 80.0597 62.7244 79.4119 62.7244 78.6847V67.5455ZM68.5561 70.196V67.5455H82.4822V70.196H77.0874V85H73.951V70.196H68.5561Z" fill="#005A5E"/>
<path d="M53.9631 338H50.5881L56.733 320.545H60.6364L66.7898 338H63.4148L58.7528 324.125H58.6165L53.9631 338ZM54.0739 331.156H63.2784V333.696H54.0739V331.156ZM68.7649 338V336.031L77.7138 323.196H68.7138V320.545H81.6342V322.514L72.6939 335.349H81.6854V338H68.7649Z" fill="#005A5E"/>
<circle cx="329.511" cy="224.511" r="9.01136" fill="#FF8F87" stroke="black"/>
<path d="M306.444 194.047C306.373 193.331 306.068 192.775 305.529 192.378C304.991 191.982 304.26 191.783 303.336 191.783C302.709 191.783 302.179 191.872 301.747 192.05C301.315 192.221 300.984 192.461 300.753 192.769C300.528 193.077 300.415 193.426 300.415 193.816C300.404 194.142 300.472 194.426 300.62 194.669C300.774 194.911 300.984 195.121 301.25 195.299C301.516 195.471 301.824 195.622 302.173 195.752C302.522 195.876 302.895 195.983 303.292 196.071L304.925 196.462C305.719 196.64 306.446 196.876 307.109 197.172C307.772 197.468 308.346 197.832 308.832 198.264C309.317 198.696 309.693 199.205 309.959 199.791C310.231 200.377 310.371 201.049 310.376 201.806C310.371 202.919 310.086 203.884 309.524 204.701C308.968 205.511 308.163 206.142 307.109 206.592C306.062 207.036 304.798 207.257 303.319 207.257C301.851 207.257 300.572 207.033 299.483 206.583C298.4 206.133 297.554 205.467 296.944 204.585C296.341 203.697 296.024 202.6 295.994 201.292H299.714C299.756 201.901 299.93 202.41 300.238 202.819C300.552 203.221 300.969 203.526 301.49 203.733C302.016 203.934 302.611 204.035 303.274 204.035C303.925 204.035 304.49 203.94 304.97 203.751C305.455 203.561 305.831 203.298 306.097 202.961C306.364 202.623 306.497 202.236 306.497 201.798C306.497 201.389 306.375 201.046 306.133 200.768C305.896 200.49 305.547 200.253 305.085 200.058C304.629 199.862 304.07 199.685 303.407 199.525L301.428 199.028C299.895 198.655 298.684 198.072 297.797 197.279C296.909 196.486 296.468 195.417 296.474 194.074C296.468 192.973 296.761 192.011 297.353 191.189C297.95 190.366 298.77 189.724 299.812 189.262C300.853 188.8 302.037 188.57 303.363 188.57C304.712 188.57 305.89 188.8 306.896 189.262C307.908 189.724 308.696 190.366 309.258 191.189C309.82 192.011 310.11 192.964 310.128 194.047H306.444ZM316.78 207.257C315.91 207.257 315.134 207.107 314.454 206.805C313.773 206.497 313.234 206.044 312.838 205.446C312.447 204.843 312.252 204.091 312.252 203.191C312.252 202.434 312.391 201.798 312.669 201.283C312.947 200.768 313.326 200.353 313.805 200.04C314.285 199.726 314.829 199.489 315.439 199.33C316.055 199.17 316.7 199.057 317.374 198.992C318.167 198.909 318.807 198.832 319.292 198.761C319.777 198.684 320.129 198.572 320.348 198.424C320.567 198.276 320.677 198.057 320.677 197.767V197.714C320.677 197.152 320.499 196.717 320.144 196.409C319.795 196.101 319.298 195.947 318.653 195.947C317.972 195.947 317.431 196.098 317.028 196.4C316.626 196.696 316.359 197.069 316.229 197.518L312.731 197.234C312.909 196.406 313.258 195.69 313.779 195.086C314.3 194.476 314.971 194.009 315.794 193.683C316.623 193.352 317.582 193.186 318.671 193.186C319.428 193.186 320.153 193.275 320.846 193.452C321.544 193.63 322.162 193.905 322.701 194.278C323.246 194.651 323.675 195.13 323.988 195.716C324.302 196.296 324.459 196.992 324.459 197.803V207H320.872V205.109H320.766C320.547 205.535 320.254 205.911 319.887 206.237C319.52 206.556 319.079 206.808 318.564 206.991C318.049 207.169 317.454 207.257 316.78 207.257ZM317.863 204.647C318.419 204.647 318.91 204.538 319.336 204.319C319.763 204.094 320.097 203.792 320.34 203.413C320.582 203.035 320.704 202.605 320.704 202.126V200.679C320.585 200.756 320.422 200.827 320.215 200.892C320.014 200.951 319.786 201.007 319.532 201.061C319.277 201.108 319.023 201.152 318.768 201.194C318.514 201.229 318.283 201.262 318.076 201.292C317.632 201.357 317.244 201.46 316.913 201.602C316.581 201.744 316.324 201.937 316.14 202.179C315.957 202.416 315.865 202.712 315.865 203.067C315.865 203.582 316.052 203.976 316.424 204.248C316.803 204.514 317.283 204.647 317.863 204.647ZM331.175 199.116V207H327.393V193.364H330.997V195.77H331.157C331.459 194.976 331.965 194.349 332.675 193.887C333.386 193.42 334.247 193.186 335.259 193.186C336.206 193.186 337.031 193.393 337.736 193.808C338.44 194.222 338.987 194.814 339.378 195.583C339.769 196.347 339.964 197.258 339.964 198.317V207H336.182V198.992C336.188 198.158 335.975 197.507 335.543 197.039C335.111 196.566 334.516 196.329 333.758 196.329C333.249 196.329 332.8 196.438 332.409 196.657C332.024 196.876 331.722 197.196 331.503 197.616C331.29 198.03 331.181 198.531 331.175 199.116ZM350.198 193.364V196.205H341.986V193.364H350.198ZM343.85 190.097H347.632V202.81C347.632 203.159 347.686 203.431 347.792 203.626C347.899 203.816 348.047 203.949 348.236 204.026C348.431 204.103 348.656 204.141 348.911 204.141C349.088 204.141 349.266 204.127 349.443 204.097C349.621 204.061 349.757 204.035 349.852 204.017L350.447 206.831C350.257 206.891 349.991 206.959 349.648 207.036C349.304 207.118 348.887 207.169 348.396 207.186C347.484 207.222 346.685 207.101 345.999 206.822C345.318 206.544 344.788 206.112 344.41 205.526C344.031 204.94 343.844 204.201 343.85 203.307V190.097ZM356.55 207.257C355.68 207.257 354.905 207.107 354.224 206.805C353.543 206.497 353.005 206.044 352.608 205.446C352.218 204.843 352.022 204.091 352.022 203.191C352.022 202.434 352.161 201.798 352.44 201.283C352.718 200.768 353.097 200.353 353.576 200.04C354.055 199.726 354.6 199.489 355.21 199.33C355.825 199.17 356.47 199.057 357.145 198.992C357.938 198.909 358.577 198.832 359.062 198.761C359.548 198.684 359.9 198.572 360.119 198.424C360.338 198.276 360.447 198.057 360.447 197.767V197.714C360.447 197.152 360.27 196.717 359.915 196.409C359.566 196.101 359.068 195.947 358.423 195.947C357.743 195.947 357.201 196.098 356.799 196.4C356.396 196.696 356.13 197.069 356 197.518L352.502 197.234C352.679 196.406 353.029 195.69 353.549 195.086C354.07 194.476 354.742 194.009 355.565 193.683C356.393 193.352 357.352 193.186 358.441 193.186C359.199 193.186 359.924 193.275 360.616 193.452C361.315 193.63 361.933 193.905 362.472 194.278C363.016 194.651 363.445 195.13 363.759 195.716C364.073 196.296 364.229 196.992 364.229 197.803V207H360.643V205.109H360.536C360.317 205.535 360.024 205.911 359.657 206.237C359.29 206.556 358.849 206.808 358.335 206.991C357.82 207.169 357.225 207.257 356.55 207.257ZM357.633 204.647C358.19 204.647 358.681 204.538 359.107 204.319C359.533 204.094 359.867 203.792 360.11 203.413C360.353 203.035 360.474 202.605 360.474 202.126V200.679C360.356 200.756 360.193 200.827 359.986 200.892C359.785 200.951 359.557 201.007 359.302 201.061C359.048 201.108 358.793 201.152 358.539 201.194C358.284 201.229 358.053 201.262 357.846 201.292C357.402 201.357 357.015 201.46 356.683 201.602C356.352 201.744 356.094 201.937 355.911 202.179C355.727 202.416 355.636 202.712 355.636 203.067C355.636 203.582 355.822 203.976 356.195 204.248C356.574 204.514 357.053 204.647 357.633 204.647ZM373.021 207V188.818H385.059V191.988H376.865V196.32H384.26V199.489H376.865V207H373.021ZM392.787 207.266C391.384 207.266 390.177 206.982 389.165 206.414C388.159 205.84 387.384 205.029 386.839 203.982C386.295 202.928 386.022 201.682 386.022 200.244C386.022 198.841 386.295 197.61 386.839 196.551C387.384 195.491 388.15 194.666 389.138 194.074C390.133 193.482 391.299 193.186 392.636 193.186C393.536 193.186 394.373 193.331 395.149 193.621C395.93 193.905 396.611 194.334 397.191 194.908C397.777 195.482 398.232 196.205 398.558 197.075C398.883 197.939 399.046 198.951 399.046 200.111V201.15H387.532V198.806H395.486C395.486 198.261 395.368 197.779 395.131 197.359C394.894 196.938 394.566 196.61 394.146 196.373C393.731 196.131 393.249 196.009 392.698 196.009C392.124 196.009 391.615 196.142 391.171 196.409C390.733 196.669 390.39 197.021 390.142 197.465C389.893 197.903 389.766 198.391 389.76 198.93V201.158C389.76 201.833 389.884 202.416 390.133 202.907C390.387 203.399 390.745 203.777 391.207 204.044C391.669 204.31 392.216 204.443 392.849 204.443C393.27 204.443 393.654 204.384 394.003 204.266C394.353 204.147 394.652 203.97 394.9 203.733C395.149 203.496 395.338 203.206 395.468 202.863L398.966 203.094C398.789 203.934 398.425 204.668 397.874 205.295C397.33 205.917 396.625 206.402 395.761 206.751C394.903 207.095 393.912 207.266 392.787 207.266Z" fill="black"/>
<path d="M238.947 315H236.639L243.315 296.818H245.588L252.264 315H249.956L244.523 299.695H244.381L238.947 315ZM239.8 307.898H249.104V309.851H239.8V307.898ZM256.907 296.818V315H254.812V296.818H256.907ZM261.029 315V296.818H263.124V303.53H263.302C263.455 303.293 263.669 302.991 263.941 302.624C264.219 302.251 264.616 301.92 265.13 301.63C265.651 301.334 266.356 301.186 267.243 301.186C268.392 301.186 269.404 301.473 270.28 302.047C271.156 302.621 271.839 303.435 272.33 304.489C272.822 305.542 273.067 306.785 273.067 308.217C273.067 309.661 272.822 310.913 272.33 311.973C271.839 313.026 271.158 313.843 270.288 314.423C269.418 314.997 268.415 315.284 267.279 315.284C266.403 315.284 265.702 315.139 265.175 314.849C264.648 314.553 264.243 314.219 263.959 313.846C263.674 313.467 263.455 313.153 263.302 312.905H263.053V315H261.029ZM263.089 308.182C263.089 309.212 263.239 310.12 263.541 310.907C263.843 311.689 264.284 312.301 264.864 312.745C265.444 313.183 266.154 313.402 266.995 313.402C267.871 313.402 268.602 313.171 269.188 312.71C269.779 312.242 270.223 311.615 270.519 310.827C270.821 310.034 270.972 309.152 270.972 308.182C270.972 307.223 270.824 306.359 270.528 305.589C270.238 304.814 269.797 304.202 269.205 303.752C268.619 303.296 267.883 303.068 266.995 303.068C266.142 303.068 265.426 303.284 264.846 303.716C264.266 304.142 263.828 304.74 263.532 305.51C263.236 306.273 263.089 307.164 263.089 308.182ZM284.866 309.425V301.364H286.961V315H284.866V312.692H284.724C284.404 313.384 283.907 313.973 283.232 314.458C282.558 314.938 281.705 315.178 280.676 315.178C279.823 315.178 279.066 314.991 278.403 314.618C277.74 314.239 277.219 313.671 276.84 312.914C276.461 312.15 276.272 311.188 276.272 310.028V301.364H278.367V309.886C278.367 310.881 278.645 311.674 279.202 312.266C279.764 312.857 280.48 313.153 281.35 313.153C281.871 313.153 282.401 313.02 282.939 312.754C283.484 312.488 283.94 312.079 284.307 311.529C284.679 310.978 284.866 310.277 284.866 309.425ZM300.102 320.114V312.905H299.925C299.771 313.153 299.552 313.467 299.268 313.846C298.984 314.219 298.578 314.553 298.052 314.849C297.525 315.139 296.824 315.284 295.948 315.284C294.811 315.284 293.808 314.997 292.938 314.423C292.068 313.843 291.387 313.026 290.896 311.973C290.405 310.913 290.159 309.661 290.159 308.217C290.159 306.785 290.405 305.542 290.896 304.489C291.387 303.435 292.071 302.621 292.947 302.047C293.823 301.473 294.835 301.186 295.983 301.186C296.871 301.186 297.572 301.334 298.087 301.63C298.608 301.92 299.005 302.251 299.277 302.624C299.555 302.991 299.771 303.293 299.925 303.53H300.173V301.364H302.198V320.114H300.102ZM296.232 313.402C297.072 313.402 297.782 313.183 298.362 312.745C298.942 312.301 299.383 311.689 299.685 310.907C299.987 310.12 300.138 309.212 300.138 308.182C300.138 307.164 299.99 306.273 299.694 305.51C299.398 304.74 298.96 304.142 298.38 303.716C297.8 303.284 297.084 303.068 296.232 303.068C295.344 303.068 294.604 303.296 294.012 303.752C293.426 304.202 292.985 304.814 292.689 305.589C292.399 306.359 292.254 307.223 292.254 308.182C292.254 309.152 292.402 310.034 292.698 310.827C293 311.615 293.444 312.242 294.03 312.71C294.622 313.171 295.356 313.402 296.232 313.402ZM314.627 309.425V301.364H316.722V315H314.627V312.692H314.485C314.165 313.384 313.668 313.973 312.993 314.458C312.318 314.938 311.466 315.178 310.436 315.178C309.584 315.178 308.826 314.991 308.164 314.618C307.501 314.239 306.98 313.671 306.601 312.914C306.222 312.15 306.033 311.188 306.033 310.028V301.364H308.128V309.886C308.128 310.881 308.406 311.674 308.963 312.266C309.525 312.857 310.241 313.153 311.111 313.153C311.632 313.153 312.162 313.02 312.7 312.754C313.245 312.488 313.7 312.079 314.067 311.529C314.44 310.978 314.627 310.277 314.627 309.425ZM326.277 315.284C324.963 315.284 323.829 314.994 322.876 314.414C321.929 313.828 321.198 313.011 320.684 311.964C320.175 310.91 319.92 309.685 319.92 308.288C319.92 306.892 320.175 305.661 320.684 304.595C321.198 303.524 321.915 302.689 322.832 302.092C323.755 301.488 324.832 301.186 326.063 301.186C326.774 301.186 327.475 301.304 328.168 301.541C328.86 301.778 329.49 302.163 330.059 302.695C330.627 303.222 331.079 303.92 331.417 304.79C331.754 305.661 331.923 306.732 331.923 308.004V308.892H321.411V307.081H329.792C329.792 306.312 329.638 305.625 329.331 305.021C329.029 304.418 328.597 303.941 328.034 303.592C327.478 303.243 326.821 303.068 326.063 303.068C325.229 303.068 324.507 303.275 323.897 303.69C323.294 304.098 322.829 304.631 322.503 305.288C322.178 305.945 322.015 306.649 322.015 307.401V308.608C322.015 309.638 322.193 310.511 322.548 311.227C322.909 311.937 323.409 312.479 324.048 312.852C324.687 313.219 325.43 313.402 326.277 313.402C326.827 313.402 327.324 313.325 327.768 313.171C328.218 313.011 328.605 312.775 328.931 312.461C329.257 312.141 329.508 311.745 329.686 311.271L331.71 311.839C331.497 312.526 331.139 313.13 330.636 313.651C330.132 314.165 329.511 314.568 328.771 314.858C328.031 315.142 327.2 315.284 326.277 315.284ZM335.11 315V301.364H337.134V303.423H337.276C337.525 302.749 337.975 302.201 338.626 301.781C339.277 301.361 340.011 301.151 340.827 301.151C340.981 301.151 341.174 301.154 341.404 301.159C341.635 301.165 341.81 301.174 341.928 301.186V303.317C341.857 303.299 341.694 303.272 341.44 303.237C341.191 303.195 340.928 303.175 340.65 303.175C339.987 303.175 339.395 303.314 338.874 303.592C338.359 303.864 337.951 304.243 337.649 304.728C337.353 305.208 337.205 305.755 337.205 306.371V315H335.11ZM353.301 320.114V312.905H353.123C352.969 313.153 352.75 313.467 352.466 313.846C352.182 314.219 351.777 314.553 351.25 314.849C350.723 315.139 350.022 315.284 349.146 315.284C348.009 315.284 347.006 314.997 346.136 314.423C345.266 313.843 344.586 313.026 344.094 311.973C343.603 310.913 343.358 309.661 343.358 308.217C343.358 306.785 343.603 305.542 344.094 304.489C344.586 303.435 345.269 302.621 346.145 302.047C347.021 301.473 348.033 301.186 349.181 301.186C350.069 301.186 350.771 301.334 351.285 301.63C351.806 301.92 352.203 302.251 352.475 302.624C352.753 302.991 352.969 303.293 353.123 303.53H353.372V301.364H355.396V320.114H353.301ZM349.43 313.402C350.27 313.402 350.981 313.183 351.561 312.745C352.141 312.301 352.582 311.689 352.883 310.907C353.185 310.12 353.336 309.212 353.336 308.182C353.336 307.164 353.188 306.273 352.892 305.51C352.596 304.74 352.158 304.142 351.578 303.716C350.998 303.284 350.282 303.068 349.43 303.068C348.542 303.068 347.802 303.296 347.21 303.752C346.625 304.202 346.184 304.814 345.888 305.589C345.598 306.359 345.453 307.223 345.453 308.182C345.453 309.152 345.601 310.034 345.897 310.827C346.198 311.615 346.642 312.242 347.228 312.71C347.82 313.171 348.554 313.402 349.43 313.402ZM367.825 309.425V301.364H369.92V315H367.825V312.692H367.683C367.363 313.384 366.866 313.973 366.191 314.458C365.517 314.938 364.664 315.178 363.634 315.178C362.782 315.178 362.025 314.991 361.362 314.618C360.699 314.239 360.178 313.671 359.799 312.914C359.42 312.15 359.231 311.188 359.231 310.028V301.364H361.326V309.886C361.326 310.881 361.604 311.674 362.161 312.266C362.723 312.857 363.439 313.153 364.309 313.153C364.83 313.153 365.36 313.02 365.898 312.754C366.443 312.488 366.899 312.079 367.266 311.529C367.638 310.978 367.825 310.277 367.825 309.425ZM379.475 315.284C378.161 315.284 377.027 314.994 376.075 314.414C375.128 313.828 374.397 313.011 373.882 311.964C373.373 310.91 373.118 309.685 373.118 308.288C373.118 306.892 373.373 305.661 373.882 304.595C374.397 303.524 375.113 302.689 376.03 302.092C376.953 301.488 378.031 301.186 379.262 301.186C379.972 301.186 380.673 301.304 381.366 301.541C382.058 301.778 382.689 302.163 383.257 302.695C383.825 303.222 384.278 303.92 384.615 304.79C384.952 305.661 385.121 306.732 385.121 308.004V308.892H374.61V307.081H382.99C382.99 306.312 382.837 305.625 382.529 305.021C382.227 304.418 381.795 303.941 381.233 303.592C380.676 303.243 380.019 303.068 379.262 303.068C378.427 303.068 377.705 303.275 377.096 303.69C376.492 304.098 376.027 304.631 375.702 305.288C375.376 305.945 375.213 306.649 375.213 307.401V308.608C375.213 309.638 375.391 310.511 375.746 311.227C376.107 311.937 376.607 312.479 377.246 312.852C377.886 313.219 378.628 313.402 379.475 313.402C380.025 313.402 380.522 313.325 380.966 313.171C381.416 313.011 381.804 312.775 382.129 312.461C382.455 312.141 382.706 311.745 382.884 311.271L384.908 311.839C384.695 312.526 384.337 313.13 383.834 313.651C383.331 314.165 382.709 314.568 381.969 314.858C381.23 315.142 380.398 315.284 379.475 315.284Z" fill="black"/>
<path d="M133.202 164V145.818H144.104V147.771H135.403V153.915H143.287V155.868H135.403V164H133.202ZM151.603 164.32C150.739 164.32 149.955 164.157 149.251 163.831C148.546 163.5 147.987 163.023 147.573 162.402C147.158 161.775 146.951 161.017 146.951 160.129C146.951 159.348 147.105 158.715 147.413 158.229C147.721 157.738 148.132 157.353 148.647 157.075C149.162 156.797 149.73 156.59 150.351 156.454C150.979 156.312 151.609 156.199 152.242 156.116C153.071 156.01 153.743 155.93 154.258 155.877C154.779 155.818 155.157 155.72 155.394 155.584C155.637 155.448 155.758 155.211 155.758 154.874V154.803C155.758 153.927 155.518 153.246 155.039 152.761C154.565 152.275 153.846 152.033 152.882 152.033C151.881 152.033 151.097 152.252 150.529 152.69C149.961 153.128 149.561 153.595 149.331 154.092L147.342 153.382C147.697 152.554 148.17 151.908 148.762 151.447C149.36 150.979 150.011 150.654 150.715 150.47C151.426 150.281 152.124 150.186 152.811 150.186C153.249 150.186 153.752 150.239 154.32 150.346C154.894 150.446 155.447 150.657 155.98 150.976C156.519 151.296 156.965 151.778 157.321 152.423C157.676 153.068 157.853 153.933 157.853 155.016V164H155.758V162.153H155.652C155.509 162.449 155.273 162.766 154.941 163.103C154.61 163.441 154.169 163.728 153.619 163.964C153.068 164.201 152.396 164.32 151.603 164.32ZM151.923 162.438C152.751 162.438 153.45 162.275 154.018 161.949C154.592 161.624 155.024 161.203 155.314 160.689C155.61 160.174 155.758 159.632 155.758 159.064V157.146C155.669 157.253 155.474 157.35 155.172 157.439C154.876 157.522 154.533 157.596 154.142 157.661C153.758 157.72 153.382 157.774 153.015 157.821C152.654 157.862 152.361 157.898 152.136 157.928C151.591 157.999 151.082 158.114 150.609 158.274C150.141 158.428 149.763 158.661 149.473 158.975C149.188 159.283 149.046 159.703 149.046 160.236C149.046 160.964 149.316 161.514 149.854 161.887C150.399 162.254 151.088 162.438 151.923 162.438ZM161.677 164V150.364H163.702V152.423H163.844C164.092 151.749 164.542 151.201 165.193 150.781C165.844 150.361 166.578 150.151 167.395 150.151C167.549 150.151 167.741 150.154 167.972 150.159C168.203 150.165 168.377 150.174 168.496 150.186V152.317C168.425 152.299 168.262 152.272 168.007 152.237C167.759 152.195 167.495 152.175 167.217 152.175C166.554 152.175 165.962 152.314 165.442 152.592C164.927 152.864 164.518 153.243 164.216 153.728C163.921 154.208 163.773 154.755 163.773 155.371V164H161.677ZM170.979 164V150.364H173.003V152.494H173.181C173.465 151.766 173.924 151.201 174.557 150.799C175.19 150.39 175.951 150.186 176.839 150.186C177.738 150.186 178.487 150.39 179.085 150.799C179.688 151.201 180.159 151.766 180.496 152.494H180.638C180.987 151.79 181.511 151.231 182.21 150.816C182.908 150.396 183.745 150.186 184.722 150.186C185.941 150.186 186.939 150.568 187.714 151.331C188.489 152.089 188.877 153.27 188.877 154.874V164H186.782V154.874C186.782 153.867 186.506 153.148 185.956 152.716C185.406 152.284 184.758 152.068 184.012 152.068C183.053 152.068 182.31 152.358 181.783 152.938C181.257 153.512 180.993 154.24 180.993 155.122V164H178.863V154.661C178.863 153.885 178.611 153.261 178.108 152.787C177.605 152.308 176.957 152.068 176.164 152.068C175.619 152.068 175.11 152.213 174.637 152.503C174.169 152.793 173.79 153.196 173.5 153.711C173.216 154.22 173.074 154.808 173.074 155.477V164H170.979ZM192.708 164V150.364H194.803V164H192.708ZM193.773 148.091C193.365 148.091 193.012 147.952 192.717 147.674C192.427 147.395 192.282 147.061 192.282 146.67C192.282 146.28 192.427 145.945 192.717 145.667C193.012 145.389 193.365 145.25 193.773 145.25C194.181 145.25 194.531 145.389 194.821 145.667C195.117 145.945 195.264 146.28 195.264 146.67C195.264 147.061 195.117 147.395 194.821 147.674C194.531 147.952 194.181 148.091 193.773 148.091ZM200.735 155.797V164H198.64V150.364H200.664V152.494H200.842C201.162 151.802 201.647 151.246 202.298 150.825C202.949 150.399 203.789 150.186 204.819 150.186C205.743 150.186 206.55 150.375 207.243 150.754C207.935 151.127 208.474 151.695 208.859 152.459C209.243 153.216 209.436 154.175 209.436 155.335V164H207.341V155.477C207.341 154.406 207.062 153.571 206.506 152.974C205.95 152.37 205.186 152.068 204.216 152.068C203.547 152.068 202.949 152.213 202.422 152.503C201.901 152.793 201.49 153.216 201.188 153.773C200.886 154.329 200.735 155.004 200.735 155.797ZM218.769 169.398C217.756 169.398 216.886 169.268 216.158 169.007C215.43 168.753 214.824 168.415 214.339 167.995C213.859 167.581 213.477 167.137 213.193 166.663L214.862 165.491C215.052 165.74 215.291 166.024 215.581 166.344C215.871 166.669 216.268 166.95 216.771 167.187C217.28 167.43 217.946 167.551 218.769 167.551C219.869 167.551 220.778 167.285 221.494 166.752C222.21 166.219 222.568 165.385 222.568 164.249V161.479H222.391C222.237 161.727 222.018 162.035 221.734 162.402C221.456 162.763 221.053 163.086 220.526 163.37C220.006 163.648 219.301 163.787 218.413 163.787C217.313 163.787 216.324 163.527 215.448 163.006C214.578 162.485 213.889 161.727 213.38 160.733C212.877 159.739 212.625 158.531 212.625 157.111C212.625 155.714 212.871 154.498 213.362 153.462C213.853 152.42 214.537 151.615 215.413 151.047C216.289 150.473 217.301 150.186 218.449 150.186C219.337 150.186 220.041 150.334 220.562 150.63C221.089 150.92 221.491 151.251 221.769 151.624C222.053 151.991 222.272 152.293 222.426 152.53H222.639V150.364H224.663V164.391C224.663 165.562 224.397 166.515 223.864 167.249C223.338 167.989 222.627 168.531 221.734 168.874C220.846 169.223 219.858 169.398 218.769 169.398ZM218.698 161.905C219.538 161.905 220.248 161.712 220.828 161.328C221.408 160.943 221.849 160.39 222.151 159.668C222.453 158.946 222.604 158.081 222.604 157.075C222.604 156.093 222.456 155.226 222.16 154.474C221.864 153.722 221.426 153.134 220.846 152.707C220.266 152.281 219.55 152.068 218.698 152.068C217.81 152.068 217.07 152.293 216.478 152.743C215.892 153.193 215.451 153.796 215.155 154.554C214.865 155.312 214.72 156.152 214.72 157.075C214.72 158.022 214.868 158.86 215.164 159.588C215.466 160.31 215.91 160.878 216.496 161.292C217.088 161.701 217.822 161.905 218.698 161.905ZM234.429 150.364V152.139H227.362V150.364H234.429ZM229.422 147.097H231.517V160.094C231.517 160.686 231.603 161.129 231.775 161.425C231.952 161.715 232.177 161.911 232.449 162.011C232.727 162.106 233.02 162.153 233.328 162.153C233.559 162.153 233.748 162.142 233.896 162.118C234.044 162.088 234.163 162.065 234.252 162.047L234.678 163.929C234.536 163.982 234.337 164.036 234.083 164.089C233.828 164.148 233.506 164.178 233.115 164.178C232.523 164.178 231.943 164.05 231.375 163.796C230.813 163.541 230.345 163.154 229.972 162.633C229.605 162.112 229.422 161.455 229.422 160.662V147.097ZM242.974 164.284C241.743 164.284 240.663 163.991 239.734 163.405C238.81 162.819 238.088 162 237.567 160.946C237.052 159.893 236.795 158.661 236.795 157.253C236.795 155.832 237.052 154.592 237.567 153.533C238.088 152.474 238.81 151.651 239.734 151.065C240.663 150.479 241.743 150.186 242.974 150.186C244.205 150.186 245.282 150.479 246.206 151.065C247.135 151.651 247.857 152.474 248.372 153.533C248.893 154.592 249.153 155.832 249.153 157.253C249.153 158.661 248.893 159.893 248.372 160.946C247.857 162 247.135 162.819 246.206 163.405C245.282 163.991 244.205 164.284 242.974 164.284ZM242.974 162.402C243.909 162.402 244.679 162.162 245.282 161.683C245.886 161.203 246.333 160.573 246.623 159.792C246.913 159.011 247.058 158.164 247.058 157.253C247.058 156.341 246.913 155.492 246.623 154.705C246.333 153.918 245.886 153.281 245.282 152.796C244.679 152.311 243.909 152.068 242.974 152.068C242.039 152.068 241.269 152.311 240.666 152.796C240.062 153.281 239.615 153.918 239.325 154.705C239.035 155.492 238.89 156.341 238.89 157.253C238.89 158.164 239.035 159.011 239.325 159.792C239.615 160.573 240.062 161.203 240.666 161.683C241.269 162.162 242.039 162.402 242.974 162.402ZM254.446 155.797V164H252.351V150.364H254.375V152.494H254.553C254.873 151.802 255.358 151.246 256.009 150.825C256.66 150.399 257.5 150.186 258.53 150.186C259.453 150.186 260.261 150.375 260.954 150.754C261.646 151.127 262.185 151.695 262.57 152.459C262.954 153.216 263.147 154.175 263.147 155.335V164H261.051V155.477C261.051 154.406 260.773 153.571 260.217 152.974C259.661 152.37 258.897 152.068 257.926 152.068C257.258 152.068 256.66 152.213 256.133 152.503C255.612 152.793 255.201 153.216 254.899 153.773C254.597 154.329 254.446 155.004 254.446 155.797Z" fill="black"/>
<path d="M158.202 244V225.818H164.345C165.766 225.818 166.932 226.061 167.843 226.546C168.754 227.026 169.429 227.685 169.867 228.526C170.305 229.366 170.524 230.322 170.524 231.393C170.524 232.465 170.305 233.415 169.867 234.243C169.429 235.072 168.757 235.723 167.852 236.196C166.946 236.664 165.789 236.898 164.381 236.898H159.409V234.909H164.31C165.28 234.909 166.062 234.767 166.653 234.483C167.251 234.199 167.683 233.796 167.95 233.276C168.222 232.749 168.358 232.121 168.358 231.393C168.358 230.665 168.222 230.029 167.95 229.485C167.677 228.94 167.242 228.52 166.645 228.224C166.047 227.922 165.257 227.771 164.274 227.771H160.403V244H158.202ZM166.76 235.832L171.234 244H168.678L164.274 235.832H166.76ZM173.909 244V230.364H176.004V244H173.909ZM174.974 228.091C174.566 228.091 174.214 227.952 173.918 227.674C173.628 227.395 173.483 227.061 173.483 226.67C173.483 226.28 173.628 225.945 173.918 225.667C174.214 225.389 174.566 225.25 174.974 225.25C175.383 225.25 175.732 225.389 176.022 225.667C176.318 225.945 176.466 226.28 176.466 226.67C176.466 227.061 176.318 227.395 176.022 227.674C175.732 227.952 175.383 228.091 174.974 228.091ZM185.381 244.284C184.15 244.284 183.07 243.991 182.141 243.405C181.218 242.819 180.495 242 179.975 240.946C179.46 239.893 179.202 238.661 179.202 237.253C179.202 235.832 179.46 234.592 179.975 233.533C180.495 232.474 181.218 231.651 182.141 231.065C183.07 230.479 184.15 230.186 185.381 230.186C186.612 230.186 187.689 230.479 188.613 231.065C189.542 231.651 190.264 232.474 190.779 233.533C191.3 234.592 191.56 235.832 191.56 237.253C191.56 238.661 191.3 239.893 190.779 240.946C190.264 242 189.542 242.819 188.613 243.405C187.689 243.991 186.612 244.284 185.381 244.284ZM185.381 242.402C186.316 242.402 187.086 242.162 187.689 241.683C188.293 241.203 188.74 240.573 189.03 239.792C189.32 239.011 189.465 238.164 189.465 237.253C189.465 236.341 189.32 235.492 189.03 234.705C188.74 233.918 188.293 233.281 187.689 232.796C187.086 232.311 186.316 232.068 185.381 232.068C184.446 232.068 183.677 232.311 183.073 232.796C182.469 233.281 182.022 233.918 181.732 234.705C181.442 235.492 181.297 236.341 181.297 237.253C181.297 238.164 181.442 239.011 181.732 239.792C182.022 240.573 182.469 241.203 183.073 241.683C183.677 242.162 184.446 242.402 185.381 242.402ZM202.074 244V225.818H208.217C209.638 225.818 210.804 226.061 211.715 226.546C212.627 227.026 213.301 227.685 213.739 228.526C214.177 229.366 214.396 230.322 214.396 231.393C214.396 232.465 214.177 233.415 213.739 234.243C213.301 235.072 212.63 235.723 211.724 236.196C210.818 236.664 209.661 236.898 208.253 236.898H203.281V234.909H208.182C209.152 234.909 209.934 234.767 210.525 234.483C211.123 234.199 211.555 233.796 211.822 233.276C212.094 232.749 212.23 232.121 212.23 231.393C212.23 230.665 212.094 230.029 211.822 229.485C211.549 228.94 211.114 228.52 210.517 228.224C209.919 227.922 209.129 227.771 208.146 227.771H204.275V244H202.074ZM210.632 235.832L215.106 244H212.55L208.146 235.832H210.632ZM221.794 244.32C220.93 244.32 220.145 244.157 219.441 243.831C218.737 243.5 218.177 243.023 217.763 242.402C217.349 241.775 217.142 241.017 217.142 240.129C217.142 239.348 217.296 238.715 217.603 238.229C217.911 237.738 218.322 237.353 218.837 237.075C219.352 236.797 219.92 236.59 220.542 236.454C221.169 236.312 221.8 236.199 222.433 236.116C223.261 236.01 223.933 235.93 224.448 235.877C224.969 235.818 225.348 235.72 225.585 235.584C225.827 235.448 225.949 235.211 225.949 234.874V234.803C225.949 233.927 225.709 233.246 225.229 232.761C224.756 232.275 224.037 232.033 223.072 232.033C222.072 232.033 221.288 232.252 220.719 232.69C220.151 233.128 219.752 233.595 219.521 234.092L217.532 233.382C217.887 232.554 218.361 231.908 218.953 231.447C219.551 230.979 220.202 230.654 220.906 230.47C221.616 230.281 222.315 230.186 223.001 230.186C223.439 230.186 223.942 230.239 224.51 230.346C225.084 230.446 225.638 230.657 226.17 230.976C226.709 231.296 227.156 231.778 227.511 232.423C227.866 233.068 228.044 233.933 228.044 235.016V244H225.949V242.153H225.842C225.7 242.449 225.463 242.766 225.132 243.103C224.8 243.441 224.359 243.728 223.809 243.964C223.259 244.201 222.587 244.32 221.794 244.32ZM222.113 242.438C222.942 242.438 223.64 242.275 224.208 241.949C224.783 241.624 225.215 241.203 225.505 240.689C225.801 240.174 225.949 239.632 225.949 239.064V237.146C225.86 237.253 225.664 237.35 225.363 237.439C225.067 237.522 224.723 237.596 224.333 237.661C223.948 237.72 223.572 237.774 223.205 237.821C222.844 237.862 222.551 237.898 222.326 237.928C221.782 237.999 221.273 238.114 220.799 238.274C220.332 238.428 219.953 238.661 219.663 238.975C219.379 239.283 219.237 239.703 219.237 240.236C219.237 240.964 219.506 241.514 220.045 241.887C220.589 242.254 221.279 242.438 222.113 242.438ZM233.963 235.797V244H231.868V230.364H233.892V232.494H234.07C234.389 231.802 234.874 231.246 235.525 230.825C236.177 230.399 237.017 230.186 238.047 230.186C238.97 230.186 239.778 230.375 240.47 230.754C241.163 231.127 241.701 231.695 242.086 232.459C242.471 233.216 242.663 234.175 242.663 235.335V244H240.568V235.477C240.568 234.406 240.29 233.571 239.734 232.974C239.177 232.37 238.414 232.068 237.443 232.068C236.774 232.068 236.177 232.213 235.65 232.503C235.129 232.793 234.718 233.216 234.416 233.773C234.114 234.329 233.963 235.004 233.963 235.797ZM252.032 244.284C250.753 244.284 249.652 243.982 248.729 243.379C247.806 242.775 247.096 241.943 246.598 240.884C246.101 239.824 245.853 238.614 245.853 237.253C245.853 235.868 246.107 234.646 246.616 233.586C247.131 232.521 247.847 231.689 248.765 231.092C249.688 230.488 250.765 230.186 251.996 230.186C252.955 230.186 253.819 230.364 254.588 230.719C255.358 231.074 255.988 231.571 256.479 232.21C256.971 232.849 257.275 233.595 257.394 234.447H255.299C255.139 233.826 254.784 233.276 254.233 232.796C253.689 232.311 252.955 232.068 252.032 232.068C251.215 232.068 250.499 232.281 249.883 232.707C249.274 233.128 248.797 233.722 248.454 234.492C248.116 235.255 247.948 236.152 247.948 237.182C247.948 238.235 248.114 239.153 248.445 239.934C248.782 240.715 249.256 241.322 249.865 241.754C250.481 242.186 251.203 242.402 252.032 242.402C252.576 242.402 253.07 242.307 253.514 242.118C253.958 241.929 254.334 241.656 254.642 241.301C254.949 240.946 255.168 240.52 255.299 240.023H257.394C257.275 240.828 256.982 241.553 256.515 242.198C256.053 242.837 255.441 243.346 254.677 243.725C253.92 244.098 253.038 244.284 252.032 244.284ZM262.552 235.797V244H260.457V225.818H262.552V232.494H262.729C263.049 231.79 263.528 231.231 264.168 230.816C264.813 230.396 265.671 230.186 266.742 230.186C267.671 230.186 268.485 230.373 269.184 230.745C269.882 231.112 270.424 231.678 270.808 232.441C271.199 233.199 271.394 234.163 271.394 235.335V244H269.299V235.477C269.299 234.394 269.018 233.557 268.456 232.965C267.899 232.367 267.127 232.068 266.138 232.068C265.452 232.068 264.836 232.213 264.292 232.503C263.753 232.793 263.327 233.216 263.013 233.773C262.706 234.329 262.552 235.004 262.552 235.797ZM280.767 244.284C279.536 244.284 278.456 243.991 277.527 243.405C276.603 242.819 275.881 242 275.36 240.946C274.845 239.893 274.588 238.661 274.588 237.253C274.588 235.832 274.845 234.592 275.36 233.533C275.881 232.474 276.603 231.651 277.527 231.065C278.456 230.479 279.536 230.186 280.767 230.186C281.998 230.186 283.075 230.479 283.998 231.065C284.928 231.651 285.65 232.474 286.165 233.533C286.686 234.592 286.946 235.832 286.946 237.253C286.946 238.661 286.686 239.893 286.165 240.946C285.65 242 284.928 242.819 283.998 243.405C283.075 243.991 281.998 244.284 280.767 244.284ZM280.767 242.402C281.702 242.402 282.472 242.162 283.075 241.683C283.679 241.203 284.126 240.573 284.416 239.792C284.706 239.011 284.851 238.164 284.851 237.253C284.851 236.341 284.706 235.492 284.416 234.705C284.126 233.918 283.679 233.281 283.075 232.796C282.472 232.311 281.702 232.068 280.767 232.068C279.832 232.068 279.062 232.311 278.459 232.796C277.855 233.281 277.408 233.918 277.118 234.705C276.828 235.492 276.683 236.341 276.683 237.253C276.683 238.164 276.828 239.011 277.118 239.792C277.408 240.573 277.855 241.203 278.459 241.683C279.062 242.162 279.832 242.402 280.767 242.402Z" fill="black"/>
<path d="M213.202 501V482.818H215.403V499.047H223.855V501H213.202ZM230.993 501.32C230.129 501.32 229.345 501.157 228.64 500.831C227.936 500.5 227.377 500.023 226.962 499.402C226.548 498.775 226.341 498.017 226.341 497.129C226.341 496.348 226.495 495.715 226.803 495.229C227.11 494.738 227.522 494.353 228.037 494.075C228.551 493.797 229.12 493.59 229.741 493.454C230.368 493.312 230.999 493.199 231.632 493.116C232.461 493.01 233.132 492.93 233.647 492.877C234.168 492.818 234.547 492.72 234.784 492.584C235.026 492.448 235.148 492.211 235.148 491.874V491.803C235.148 490.927 234.908 490.246 234.429 489.761C233.955 489.275 233.236 489.033 232.271 489.033C231.271 489.033 230.487 489.252 229.919 489.69C229.35 490.128 228.951 490.595 228.72 491.092L226.732 490.382C227.087 489.554 227.56 488.908 228.152 488.447C228.75 487.979 229.401 487.654 230.105 487.47C230.815 487.281 231.514 487.186 232.2 487.186C232.638 487.186 233.141 487.239 233.71 487.346C234.284 487.446 234.837 487.657 235.37 487.976C235.908 488.296 236.355 488.778 236.71 489.423C237.065 490.068 237.243 490.933 237.243 492.016V501H235.148V499.153H235.041C234.899 499.449 234.662 499.766 234.331 500.103C234 500.441 233.559 500.728 233.008 500.964C232.458 501.201 231.786 501.32 230.993 501.32ZM231.312 499.438C232.141 499.438 232.839 499.275 233.408 498.949C233.982 498.624 234.414 498.203 234.704 497.689C235 497.174 235.148 496.632 235.148 496.064V494.146C235.059 494.253 234.864 494.35 234.562 494.439C234.266 494.522 233.923 494.596 233.532 494.661C233.147 494.72 232.771 494.774 232.404 494.821C232.043 494.862 231.75 494.898 231.526 494.928C230.981 494.999 230.472 495.114 229.999 495.274C229.531 495.428 229.152 495.661 228.862 495.975C228.578 496.283 228.436 496.703 228.436 497.236C228.436 497.964 228.705 498.514 229.244 498.887C229.788 499.254 230.478 499.438 231.312 499.438ZM250.726 490.418L248.844 490.95C248.726 490.637 248.551 490.332 248.32 490.036C248.095 489.734 247.788 489.485 247.397 489.29C247.006 489.095 246.506 488.997 245.897 488.997C245.062 488.997 244.367 489.19 243.81 489.574C243.26 489.953 242.985 490.435 242.985 491.021C242.985 491.542 243.174 491.953 243.553 492.255C243.932 492.557 244.523 492.809 245.328 493.01L247.353 493.507C248.572 493.803 249.48 494.256 250.078 494.865C250.676 495.469 250.975 496.247 250.975 497.2C250.975 497.982 250.75 498.68 250.3 499.295C249.856 499.911 249.235 500.396 248.436 500.751C247.637 501.107 246.707 501.284 245.648 501.284C244.257 501.284 243.106 500.982 242.195 500.379C241.283 499.775 240.706 498.893 240.463 497.733L242.452 497.236C242.641 497.97 242.999 498.52 243.526 498.887C244.059 499.254 244.754 499.438 245.612 499.438C246.589 499.438 247.364 499.23 247.938 498.816C248.518 498.396 248.809 497.893 248.809 497.307C248.809 496.833 248.643 496.437 248.311 496.117C247.98 495.792 247.471 495.549 246.784 495.389L244.512 494.857C243.263 494.561 242.345 494.102 241.759 493.48C241.179 492.853 240.889 492.069 240.889 491.128C240.889 490.358 241.105 489.678 241.538 489.086C241.976 488.494 242.57 488.029 243.322 487.692C244.08 487.355 244.938 487.186 245.897 487.186C247.246 487.186 248.305 487.482 249.075 488.074C249.85 488.666 250.401 489.447 250.726 490.418ZM276.075 488.5H273.873C273.743 487.867 273.515 487.31 273.189 486.831C272.87 486.352 272.479 485.949 272.017 485.624C271.562 485.292 271.056 485.044 270.499 484.878C269.943 484.712 269.363 484.629 268.759 484.629C267.658 484.629 266.661 484.907 265.767 485.464C264.88 486.02 264.172 486.84 263.646 487.923C263.125 489.006 262.864 490.335 262.864 491.909C262.864 493.483 263.125 494.812 263.646 495.895C264.172 496.978 264.88 497.798 265.767 498.354C266.661 498.911 267.658 499.189 268.759 499.189C269.363 499.189 269.943 499.106 270.499 498.94C271.056 498.775 271.562 498.529 272.017 498.203C272.479 497.872 272.87 497.467 273.189 496.987C273.515 496.502 273.743 495.946 273.873 495.318H276.075C275.909 496.247 275.607 497.079 275.169 497.813C274.731 498.547 274.187 499.171 273.536 499.686C272.884 500.195 272.154 500.583 271.343 500.849C270.538 501.115 269.677 501.249 268.759 501.249C267.209 501.249 265.83 500.87 264.622 500.112C263.415 499.355 262.465 498.277 261.772 496.881C261.08 495.484 260.734 493.827 260.734 491.909C260.734 489.991 261.08 488.334 261.772 486.938C262.465 485.541 263.415 484.464 264.622 483.706C265.83 482.948 267.209 482.57 268.759 482.57C269.677 482.57 270.538 482.703 271.343 482.969C272.154 483.235 272.884 483.626 273.536 484.141C274.187 484.65 274.731 485.271 275.169 486.005C275.607 486.733 275.909 487.565 276.075 488.5ZM279.348 501V487.364H281.372V489.423H281.514C281.763 488.749 282.213 488.201 282.864 487.781C283.515 487.361 284.249 487.151 285.066 487.151C285.219 487.151 285.412 487.154 285.643 487.159C285.873 487.165 286.048 487.174 286.166 487.186V489.317C286.095 489.299 285.933 489.272 285.678 489.237C285.43 489.195 285.166 489.175 284.888 489.175C284.225 489.175 283.633 489.314 283.112 489.592C282.598 489.864 282.189 490.243 281.887 490.728C281.591 491.208 281.443 491.755 281.443 492.371V501H279.348ZM297.244 495.425V487.364H299.339V501H297.244V498.692H297.102C296.782 499.384 296.285 499.973 295.61 500.458C294.936 500.938 294.083 501.178 293.053 501.178C292.201 501.178 291.444 500.991 290.781 500.618C290.118 500.239 289.597 499.671 289.218 498.914C288.839 498.15 288.65 497.188 288.65 496.028V487.364H290.745V495.886C290.745 496.881 291.023 497.674 291.58 498.266C292.142 498.857 292.858 499.153 293.728 499.153C294.249 499.153 294.779 499.02 295.317 498.754C295.862 498.488 296.318 498.079 296.684 497.529C297.057 496.978 297.244 496.277 297.244 495.425ZM308.716 501.284C307.438 501.284 306.337 500.982 305.414 500.379C304.49 499.775 303.78 498.943 303.283 497.884C302.786 496.824 302.537 495.614 302.537 494.253C302.537 492.868 302.792 491.646 303.301 490.586C303.816 489.521 304.532 488.689 305.449 488.092C306.372 487.488 307.45 487.186 308.681 487.186C309.639 487.186 310.504 487.364 311.273 487.719C312.042 488.074 312.673 488.571 313.164 489.21C313.655 489.849 313.96 490.595 314.078 491.447H311.983C311.823 490.826 311.468 490.276 310.918 489.796C310.373 489.311 309.639 489.068 308.716 489.068C307.899 489.068 307.183 489.281 306.568 489.707C305.958 490.128 305.482 490.722 305.138 491.492C304.801 492.255 304.632 493.152 304.632 494.182C304.632 495.235 304.798 496.153 305.13 496.934C305.467 497.715 305.94 498.322 306.55 498.754C307.166 499.186 307.888 499.402 308.716 499.402C309.261 499.402 309.755 499.307 310.199 499.118C310.643 498.929 311.018 498.656 311.326 498.301C311.634 497.946 311.853 497.52 311.983 497.023H314.078C313.96 497.828 313.667 498.553 313.199 499.198C312.738 499.837 312.125 500.346 311.362 500.725C310.604 501.098 309.722 501.284 308.716 501.284ZM322.859 501.284C321.545 501.284 320.411 500.994 319.458 500.414C318.511 499.828 317.78 499.011 317.266 497.964C316.757 496.91 316.502 495.685 316.502 494.288C316.502 492.892 316.757 491.661 317.266 490.595C317.78 489.524 318.497 488.689 319.414 488.092C320.337 487.488 321.414 487.186 322.646 487.186C323.356 487.186 324.057 487.304 324.75 487.541C325.442 487.778 326.072 488.163 326.641 488.695C327.209 489.222 327.661 489.92 327.999 490.79C328.336 491.661 328.505 492.732 328.505 494.004V494.892H317.994V493.081H326.374C326.374 492.312 326.22 491.625 325.913 491.021C325.611 490.418 325.179 489.941 324.616 489.592C324.06 489.243 323.403 489.068 322.646 489.068C321.811 489.068 321.089 489.275 320.479 489.69C319.876 490.098 319.411 490.631 319.085 491.288C318.76 491.945 318.597 492.649 318.597 493.401V494.608C318.597 495.638 318.775 496.511 319.13 497.227C319.491 497.937 319.991 498.479 320.63 498.852C321.269 499.219 322.012 499.402 322.859 499.402C323.409 499.402 323.906 499.325 324.35 499.171C324.8 499.011 325.188 498.775 325.513 498.461C325.839 498.141 326.09 497.745 326.268 497.271L328.292 497.839C328.079 498.526 327.721 499.13 327.218 499.651C326.715 500.165 326.093 500.568 325.353 500.858C324.613 501.142 323.782 501.284 322.859 501.284ZM341.351 490.418L339.469 490.95C339.351 490.637 339.176 490.332 338.945 490.036C338.72 489.734 338.413 489.485 338.022 489.29C337.631 489.095 337.131 488.997 336.522 488.997C335.687 488.997 334.992 489.19 334.435 489.574C333.885 489.953 333.61 490.435 333.61 491.021C333.61 491.542 333.799 491.953 334.178 492.255C334.557 492.557 335.148 492.809 335.953 493.01L337.978 493.507C339.197 493.803 340.105 494.256 340.703 494.865C341.301 495.469 341.6 496.247 341.6 497.2C341.6 497.982 341.375 498.68 340.925 499.295C340.481 499.911 339.86 500.396 339.061 500.751C338.262 501.107 337.332 501.284 336.273 501.284C334.882 501.284 333.731 500.982 332.82 500.379C331.908 499.775 331.331 498.893 331.088 497.733L333.077 497.236C333.266 497.97 333.624 498.52 334.151 498.887C334.684 499.254 335.379 499.438 336.237 499.438C337.214 499.438 337.989 499.23 338.563 498.816C339.143 498.396 339.434 497.893 339.434 497.307C339.434 496.833 339.268 496.437 338.936 496.117C338.605 495.792 338.096 495.549 337.409 495.389L335.137 494.857C333.888 494.561 332.97 494.102 332.384 493.48C331.804 492.853 331.514 492.069 331.514 491.128C331.514 490.358 331.73 489.678 332.163 489.086C332.601 488.494 333.195 488.029 333.947 487.692C334.705 487.355 335.563 487.186 336.522 487.186C337.871 487.186 338.93 487.482 339.7 488.074C340.475 488.666 341.026 489.447 341.351 490.418Z" fill="black"/>
<path d="M387.202 407V388.818H393.345C394.766 388.818 395.932 389.061 396.843 389.546C397.754 390.026 398.429 390.685 398.867 391.526C399.305 392.366 399.524 393.322 399.524 394.393C399.524 395.465 399.305 396.415 398.867 397.243C398.429 398.072 397.757 398.723 396.852 399.196C395.946 399.664 394.789 399.898 393.381 399.898H388.409V397.909H393.31C394.28 397.909 395.062 397.767 395.653 397.483C396.251 397.199 396.683 396.796 396.95 396.276C397.222 395.749 397.358 395.121 397.358 394.393C397.358 393.665 397.222 393.029 396.95 392.485C396.677 391.94 396.242 391.52 395.645 391.224C395.047 390.922 394.257 390.771 393.274 390.771H389.403V407H387.202ZM395.76 398.832L400.234 407H397.678L393.274 398.832H395.76ZM408.302 407.284C407.071 407.284 405.991 406.991 405.062 406.405C404.138 405.819 403.416 405 402.896 403.946C402.381 402.893 402.123 401.661 402.123 400.253C402.123 398.832 402.381 397.592 402.896 396.533C403.416 395.474 404.138 394.651 405.062 394.065C405.991 393.479 407.071 393.186 408.302 393.186C409.533 393.186 410.61 393.479 411.534 394.065C412.463 394.651 413.185 395.474 413.7 396.533C414.221 397.592 414.481 398.832 414.481 400.253C414.481 401.661 414.221 402.893 413.7 403.946C413.185 405 412.463 405.819 411.534 406.405C410.61 406.991 409.533 407.284 408.302 407.284ZM408.302 405.402C409.237 405.402 410.007 405.162 410.61 404.683C411.214 404.203 411.661 403.573 411.951 402.792C412.241 402.011 412.386 401.164 412.386 400.253C412.386 399.341 412.241 398.492 411.951 397.705C411.661 396.918 411.214 396.281 410.61 395.796C410.007 395.311 409.237 395.068 408.302 395.068C407.367 395.068 406.598 395.311 405.994 395.796C405.39 396.281 404.943 396.918 404.653 397.705C404.363 398.492 404.218 399.341 404.218 400.253C404.218 401.164 404.363 402.011 404.653 402.792C404.943 403.573 405.39 404.203 405.994 404.683C406.598 405.162 407.367 405.402 408.302 405.402ZM427.338 396.418L425.456 396.95C425.338 396.637 425.163 396.332 424.933 396.036C424.708 395.734 424.4 395.485 424.009 395.29C423.619 395.095 423.118 394.997 422.509 394.997C421.674 394.997 420.979 395.19 420.423 395.574C419.872 395.953 419.597 396.435 419.597 397.021C419.597 397.542 419.786 397.953 420.165 398.255C420.544 398.557 421.136 398.809 421.941 399.01L423.965 399.507C425.184 399.803 426.093 400.256 426.69 400.865C427.288 401.469 427.587 402.247 427.587 403.2C427.587 403.982 427.362 404.68 426.912 405.295C426.468 405.911 425.847 406.396 425.048 406.751C424.249 407.107 423.32 407.284 422.26 407.284C420.869 407.284 419.718 406.982 418.807 406.379C417.895 405.775 417.318 404.893 417.076 403.733L419.064 403.236C419.254 403.97 419.612 404.52 420.138 404.887C420.671 405.254 421.367 405.438 422.225 405.438C423.201 405.438 423.977 405.23 424.551 404.816C425.131 404.396 425.421 403.893 425.421 403.307C425.421 402.833 425.255 402.437 424.924 402.117C424.592 401.792 424.083 401.549 423.397 401.389L421.124 400.857C419.875 400.561 418.958 400.102 418.372 399.48C417.792 398.853 417.502 398.069 417.502 397.128C417.502 396.358 417.718 395.678 418.15 395.086C418.588 394.494 419.183 394.029 419.934 393.692C420.692 393.355 421.55 393.186 422.509 393.186C423.858 393.186 424.918 393.482 425.687 394.074C426.462 394.666 427.013 395.447 427.338 396.418ZM433.83 407L429.676 393.364H431.877L434.825 403.804H434.967L437.879 393.364H440.116L442.992 403.768H443.134L446.082 393.364H448.283L444.129 407H442.069L439.086 396.524H438.873L435.89 407H433.83ZM456.307 407.284C454.993 407.284 453.859 406.994 452.907 406.414C451.96 405.828 451.229 405.011 450.714 403.964C450.205 402.91 449.95 401.685 449.95 400.288C449.95 398.892 450.205 397.661 450.714 396.595C451.229 395.524 451.945 394.689 452.862 394.092C453.786 393.488 454.863 393.186 456.094 393.186C456.804 393.186 457.505 393.304 458.198 393.541C458.89 393.778 459.521 394.163 460.089 394.695C460.657 395.222 461.11 395.92 461.447 396.79C461.784 397.661 461.953 398.732 461.953 400.004V400.892H451.442V399.081H459.822C459.822 398.312 459.669 397.625 459.361 397.021C459.059 396.418 458.627 395.941 458.065 395.592C457.508 395.243 456.851 395.068 456.094 395.068C455.259 395.068 454.537 395.275 453.928 395.69C453.324 396.098 452.859 396.631 452.534 397.288C452.208 397.945 452.045 398.649 452.045 399.401V400.608C452.045 401.638 452.223 402.511 452.578 403.227C452.939 403.937 453.439 404.479 454.078 404.852C454.718 405.219 455.46 405.402 456.307 405.402C456.857 405.402 457.354 405.325 457.798 405.171C458.248 405.011 458.636 404.775 458.961 404.461C459.287 404.141 459.538 403.745 459.716 403.271L461.74 403.839C461.527 404.526 461.169 405.13 460.666 405.651C460.163 406.165 459.541 406.568 458.801 406.858C458.062 407.142 457.23 407.284 456.307 407.284ZM467.235 388.818V407H465.14V388.818H467.235ZM473.168 388.818V407H471.073V388.818H473.168Z" fill="black"/>
<path d="M454.202 520V501.818H456.403V509.915H466.098V501.818H468.3V520H466.098V511.868H456.403V520H454.202ZM477.963 520.284C476.732 520.284 475.652 519.991 474.723 519.405C473.8 518.819 473.077 518 472.557 516.946C472.042 515.893 471.784 514.661 471.784 513.253C471.784 511.832 472.042 510.592 472.557 509.533C473.077 508.474 473.8 507.651 474.723 507.065C475.652 506.479 476.732 506.186 477.963 506.186C479.194 506.186 480.271 506.479 481.195 507.065C482.124 507.651 482.846 508.474 483.361 509.533C483.882 510.592 484.142 511.832 484.142 513.253C484.142 514.661 483.882 515.893 483.361 516.946C482.846 518 482.124 518.819 481.195 519.405C480.271 519.991 479.194 520.284 477.963 520.284ZM477.963 518.402C478.898 518.402 479.668 518.162 480.271 517.683C480.875 517.203 481.322 516.573 481.612 515.792C481.902 515.011 482.047 514.164 482.047 513.253C482.047 512.341 481.902 511.492 481.612 510.705C481.322 509.918 480.875 509.281 480.271 508.796C479.668 508.311 478.898 508.068 477.963 508.068C477.028 508.068 476.259 508.311 475.655 508.796C475.051 509.281 474.604 509.918 474.314 510.705C474.024 511.492 473.879 512.341 473.879 513.253C473.879 514.164 474.024 515.011 474.314 515.792C474.604 516.573 475.051 517.203 475.655 517.683C476.259 518.162 477.028 518.402 477.963 518.402ZM487.625 520V501.818H489.72V508.53H489.897C490.051 508.293 490.264 507.991 490.536 507.624C490.815 507.251 491.211 506.92 491.726 506.63C492.247 506.334 492.951 506.186 493.839 506.186C494.987 506.186 495.999 506.473 496.875 507.047C497.751 507.621 498.435 508.435 498.926 509.489C499.417 510.542 499.663 511.785 499.663 513.217C499.663 514.661 499.417 515.913 498.926 516.973C498.435 518.026 497.754 518.843 496.884 519.423C496.014 519.997 495.011 520.284 493.875 520.284C492.999 520.284 492.297 520.139 491.771 519.849C491.244 519.553 490.838 519.219 490.554 518.846C490.27 518.467 490.051 518.153 489.897 517.905H489.649V520H487.625ZM489.684 513.182C489.684 514.212 489.835 515.12 490.137 515.907C490.439 516.689 490.88 517.301 491.46 517.745C492.04 518.183 492.75 518.402 493.59 518.402C494.466 518.402 495.197 518.171 495.783 517.71C496.375 517.242 496.819 516.615 497.115 515.827C497.417 515.034 497.568 514.152 497.568 513.182C497.568 512.223 497.42 511.359 497.124 510.589C496.834 509.814 496.393 509.202 495.801 508.752C495.215 508.296 494.478 508.068 493.59 508.068C492.738 508.068 492.022 508.284 491.442 508.716C490.862 509.142 490.424 509.74 490.128 510.51C489.832 511.273 489.684 512.164 489.684 513.182ZM503.152 520V501.818H505.247V508.53H505.425C505.579 508.293 505.792 507.991 506.064 507.624C506.342 507.251 506.739 506.92 507.253 506.63C507.774 506.334 508.479 506.186 509.366 506.186C510.515 506.186 511.527 506.473 512.403 507.047C513.279 507.621 513.962 508.435 514.453 509.489C514.945 510.542 515.19 511.785 515.19 513.217C515.19 514.661 514.945 515.913 514.453 516.973C513.962 518.026 513.282 518.843 512.411 519.423C511.541 519.997 510.538 520.284 509.402 520.284C508.526 520.284 507.825 520.139 507.298 519.849C506.771 519.553 506.366 519.219 506.082 518.846C505.797 518.467 505.579 518.153 505.425 517.905H505.176V520H503.152ZM505.212 513.182C505.212 514.212 505.362 515.12 505.664 515.907C505.966 516.689 506.407 517.301 506.987 517.745C507.567 518.183 508.277 518.402 509.118 518.402C509.994 518.402 510.725 518.171 511.311 517.71C511.902 517.242 512.346 516.615 512.642 515.827C512.944 515.034 513.095 514.152 513.095 513.182C513.095 512.223 512.947 511.359 512.651 510.589C512.361 509.814 511.92 509.202 511.328 508.752C510.742 508.296 510.006 508.068 509.118 508.068C508.266 508.068 507.549 508.284 506.969 508.716C506.389 509.142 505.951 509.74 505.655 510.51C505.36 511.273 505.212 512.164 505.212 513.182ZM528.054 509.418L526.172 509.95C526.054 509.637 525.879 509.332 525.648 509.036C525.423 508.734 525.116 508.485 524.725 508.29C524.334 508.095 523.834 507.997 523.225 507.997C522.39 507.997 521.695 508.19 521.138 508.574C520.588 508.953 520.313 509.435 520.313 510.021C520.313 510.542 520.502 510.953 520.881 511.255C521.26 511.557 521.852 511.809 522.657 512.01L524.681 512.507C525.9 512.803 526.808 513.256 527.406 513.865C528.004 514.469 528.303 515.247 528.303 516.2C528.303 516.982 528.078 517.68 527.628 518.295C527.184 518.911 526.563 519.396 525.764 519.751C524.965 520.107 524.036 520.284 522.976 520.284C521.585 520.284 520.434 519.982 519.523 519.379C518.611 518.775 518.034 517.893 517.791 516.733L519.78 516.236C519.969 516.97 520.328 517.52 520.854 517.887C521.387 518.254 522.082 518.438 522.941 518.438C523.917 518.438 524.693 518.23 525.267 517.816C525.847 517.396 526.137 516.893 526.137 516.307C526.137 515.833 525.971 515.437 525.639 515.117C525.308 514.792 524.799 514.549 524.112 514.389L521.84 513.857C520.591 513.561 519.674 513.102 519.088 512.48C518.508 511.853 518.218 511.069 518.218 510.128C518.218 509.358 518.434 508.678 518.866 508.086C519.304 507.494 519.898 507.029 520.65 506.692C521.408 506.355 522.266 506.186 523.225 506.186C524.574 506.186 525.634 506.482 526.403 507.074C527.178 507.666 527.729 508.447 528.054 509.418Z" fill="black"/>
<path d="M281 270.616C285.977 270.616 290.011 274.651 290.011 279.627C290.011 284.604 285.977 288.638 281 288.638C276.024 288.638 271.989 284.604 271.989 279.627C271.989 274.651 276.024 270.616 281 270.616Z" fill="#FFE587" stroke="black"/>
<path d="M278.512 249.5C283.488 249.5 287.522 253.535 287.522 258.512C287.522 263.488 283.488 267.522 278.512 267.522C273.535 267.522 269.5 263.488 269.5 258.512C269.5 253.535 273.535 249.5 278.512 249.5Z" fill="#FFE587" stroke="black"/>
<path d="M170.512 123.5C175.488 123.5 179.522 127.535 179.522 132.512C179.522 137.488 175.488 141.522 170.512 141.522C165.535 141.522 161.5 137.488 161.5 132.512C161.5 127.535 165.535 123.5 170.512 123.5Z" fill="#FFE587" stroke="black"/>
<circle cx="269.511" cy="518.511" r="9.01136" fill="#FFE587" stroke="black"/>
<circle cx="430.511" cy="424.511" r="9.01136" fill="#FFE587" stroke="black"/>
<circle cx="533.511" cy="486.511" r="9.01136" fill="#FFE587" stroke="black"/>
<defs>
<filter id="filter0_d_219_85" x="102.5" y="107.5" width="445.006" height="504" filterUnits="userSpaceOnUse" color-interpolation-filters="sRGB">
<feFlood flood-opacity="0" result="BackgroundImageFix"/>
<feColorMatrix in="SourceAlpha" type="matrix" values="0 0 0 0 0 0 0 0 0 0 0 0 0 0 0 0 0 0 127 0" result="hardAlpha"/>
<feOffset dy="4"/>
<feGaussianBlur stdDeviation="2"/>
<feComposite in2="hardAlpha" operator="out"/>
<feColorMatrix type="matrix" values="0 0 0 0 0 0 0 0 0 0 0 0 0 0 0 0 0 0 0.25 0"/>
<feBlend mode="normal" in2="BackgroundImageFix" result="effect1_dropShadow_219_85"/>
<feBlend mode="normal" in="SourceGraphic" in2="effect1_dropShadow_219_85" result="shape"/>
</filter>
</defs>
</svg>
