<svg width="721" height="1008" viewBox="0 0 721 1008" fill="none" xmlns="http://www.w3.org/2000/svg">
<rect x="0.5" y="0.5" width="720" height="1007" rx="35.5" fill="#97DCFF" stroke="#717171"/>
<path d="M564.454 659H561.079L570.122 641.545H574.025L577.281 659H573.906L571.562 645.125H571.426L564.454 659ZM565.699 652.156H574.903L574.477 654.696H565.272L565.699 652.156ZM587.342 645.909L586.941 648.295H579.424L579.816 645.909H587.342ZM582.186 642.773H585.271L583.225 655.062C583.163 655.477 583.174 655.795 583.26 656.017C583.35 656.233 583.495 656.381 583.694 656.46C583.899 656.54 584.129 656.58 584.385 656.58C584.572 656.58 584.748 656.565 584.913 656.537C585.078 656.503 585.208 656.477 585.305 656.46L585.441 658.872C585.254 658.929 585.001 658.991 584.683 659.06C584.37 659.128 583.995 659.168 583.558 659.179C582.774 659.196 582.092 659.077 581.512 658.821C580.939 658.56 580.518 658.159 580.251 657.619C579.99 657.074 579.93 656.392 580.072 655.574L582.186 642.773ZM594.005 641.545L591.107 659H588.022L590.919 641.545H594.005ZM598.012 659.264C597.183 659.264 596.461 659.116 595.848 658.821C595.234 658.52 594.782 658.077 594.493 657.491C594.208 656.906 594.137 656.185 594.279 655.327C594.404 654.588 594.643 653.977 594.995 653.494C595.353 653.011 595.791 652.625 596.308 652.335C596.831 652.04 597.399 651.818 598.012 651.67C598.632 651.523 599.262 651.415 599.904 651.347C600.689 651.267 601.322 651.193 601.805 651.125C602.294 651.057 602.66 650.955 602.904 650.818C603.149 650.676 603.297 650.46 603.348 650.17V650.119C603.45 649.477 603.348 648.98 603.041 648.628C602.734 648.276 602.223 648.099 601.507 648.099C600.757 648.099 600.126 648.264 599.615 648.594C599.103 648.923 598.731 649.312 598.498 649.761L595.703 649.352C596.055 648.557 596.538 647.892 597.152 647.358C597.765 646.818 598.473 646.415 599.274 646.148C600.081 645.875 600.941 645.739 601.856 645.739C602.481 645.739 603.092 645.812 603.689 645.96C604.291 646.108 604.822 646.352 605.282 646.693C605.748 647.028 606.089 647.486 606.305 648.065C606.527 648.645 606.564 649.369 606.416 650.239L604.958 659H601.993L602.299 657.202H602.197C601.953 657.565 601.635 657.906 601.243 658.224C600.85 658.537 600.385 658.79 599.845 658.983C599.305 659.17 598.694 659.264 598.012 659.264ZM599.18 656.997C599.799 656.997 600.356 656.875 600.85 656.631C601.345 656.381 601.751 656.051 602.069 655.642C602.387 655.233 602.586 654.787 602.666 654.304L602.922 652.761C602.808 652.841 602.632 652.915 602.393 652.983C602.154 653.051 601.887 653.111 601.592 653.162C601.302 653.213 601.015 653.259 600.731 653.298C600.447 653.338 600.203 653.372 599.998 653.401C599.527 653.463 599.095 653.565 598.703 653.707C598.316 653.849 597.995 654.048 597.74 654.304C597.49 654.554 597.333 654.878 597.271 655.276C597.18 655.838 597.314 656.267 597.672 656.562C598.029 656.852 598.532 656.997 599.18 656.997ZM612.424 651.33L611.163 659H608.069L610.251 645.909H613.208L612.833 648.134H612.995C613.404 647.401 613.978 646.818 614.717 646.386C615.456 645.955 616.316 645.739 617.299 645.739C618.191 645.739 618.941 645.932 619.549 646.318C620.157 646.699 620.589 647.259 620.845 647.997C621.1 648.73 621.14 649.619 620.964 650.665L619.566 659H616.481L617.785 651.142C617.933 650.273 617.822 649.591 617.453 649.097C617.089 648.597 616.504 648.347 615.697 648.347C615.157 648.347 614.66 648.466 614.206 648.705C613.751 648.937 613.368 649.276 613.055 649.719C612.748 650.162 612.538 650.699 612.424 651.33ZM631.404 645.909L631.004 648.295H623.487L623.879 645.909H631.404ZM626.248 642.773H629.333L627.288 655.062C627.225 655.477 627.237 655.795 627.322 656.017C627.413 656.233 627.558 656.381 627.757 656.46C627.961 656.54 628.191 656.58 628.447 656.58C628.635 656.58 628.811 656.565 628.975 656.537C629.14 656.503 629.271 656.477 629.368 656.46L629.504 658.872C629.316 658.929 629.064 658.991 628.745 659.06C628.433 659.128 628.058 659.168 627.62 659.179C626.836 659.196 626.154 659.077 625.575 658.821C625.001 658.56 624.581 658.159 624.314 657.619C624.052 657.074 623.993 656.392 624.135 655.574L626.248 642.773ZM631.803 659L633.985 645.909H637.07L634.888 659H631.803ZM635.979 644.034C635.485 644.034 635.076 643.869 634.752 643.54C634.428 643.21 634.286 642.815 634.326 642.355C634.365 641.895 634.573 641.5 634.948 641.17C635.328 640.841 635.763 640.676 636.252 640.676C636.746 640.676 637.152 640.841 637.471 641.17C637.794 641.5 637.936 641.895 637.897 642.355C637.863 642.815 637.655 643.21 637.275 643.54C636.9 643.869 636.468 644.034 635.979 644.034ZM643.737 659.256C642.43 659.256 641.356 658.969 640.515 658.395C639.674 657.821 639.086 657.028 638.751 656.017C638.422 655 638.368 653.83 638.589 652.506C638.805 651.176 639.251 650.003 639.927 648.986C640.609 647.963 641.467 647.168 642.501 646.599C643.535 646.026 644.691 645.739 645.97 645.739C647.032 645.739 647.939 645.935 648.689 646.327C649.444 646.713 650.007 647.261 650.376 647.972C650.751 648.676 650.896 649.5 650.811 650.443H647.853C647.842 649.812 647.646 649.287 647.265 648.866C646.885 648.44 646.328 648.227 645.595 648.227C644.958 648.227 644.373 648.398 643.839 648.739C643.305 649.074 642.853 649.557 642.484 650.188C642.115 650.818 641.859 651.574 641.717 652.455C641.569 653.347 641.572 654.114 641.725 654.756C641.885 655.392 642.172 655.884 642.586 656.23C643.007 656.571 643.538 656.741 644.18 656.741C644.635 656.741 645.058 656.656 645.45 656.486C645.842 656.31 646.186 656.057 646.481 655.727C646.782 655.398 647.018 654.997 647.189 654.526H650.137C649.904 655.452 649.49 656.273 648.893 656.989C648.302 657.699 647.569 658.256 646.694 658.659C645.819 659.057 644.833 659.256 643.737 659.256ZM586.595 679.477C586.288 681.33 585.683 682.909 584.78 684.216C583.882 685.517 582.786 686.514 581.49 687.207C580.2 687.895 578.811 688.239 577.322 688.239C575.76 688.239 574.419 687.875 573.3 687.148C572.18 686.415 571.374 685.366 570.879 684.003C570.391 682.639 570.305 681.003 570.624 679.094C570.93 677.247 571.533 675.668 572.43 674.355C573.328 673.043 574.428 672.04 575.729 671.347C577.03 670.653 578.433 670.307 579.939 670.307C581.49 670.307 582.82 670.673 583.928 671.406C585.041 672.134 585.842 673.182 586.331 674.551C586.825 675.92 586.913 677.562 586.595 679.477ZM583.484 679.094C583.695 677.804 583.675 676.716 583.425 675.83C583.18 674.943 582.746 674.276 582.121 673.827C581.496 673.372 580.726 673.145 579.811 673.145C578.822 673.145 577.908 673.392 577.067 673.886C576.232 674.375 575.521 675.091 574.936 676.034C574.357 676.977 573.959 678.125 573.743 679.477C573.516 680.773 573.53 681.861 573.786 682.741C574.041 683.622 574.484 684.287 575.115 684.736C575.746 685.179 576.516 685.401 577.425 685.401C578.408 685.401 579.317 685.156 580.152 684.668C580.987 684.179 581.695 683.466 582.274 682.528C582.859 681.591 583.263 680.446 583.484 679.094ZM593.71 688.256C592.403 688.256 591.329 687.969 590.488 687.395C589.647 686.821 589.059 686.028 588.724 685.017C588.394 684 588.34 682.83 588.562 681.506C588.778 680.176 589.224 679.003 589.9 677.986C590.582 676.963 591.44 676.168 592.474 675.599C593.508 675.026 594.664 674.739 595.942 674.739C597.005 674.739 597.911 674.935 598.661 675.327C599.417 675.713 599.979 676.261 600.349 676.972C600.724 677.676 600.869 678.5 600.783 679.443H597.826C597.815 678.812 597.619 678.287 597.238 677.866C596.857 677.44 596.3 677.227 595.567 677.227C594.931 677.227 594.346 677.398 593.812 677.739C593.278 678.074 592.826 678.557 592.457 679.188C592.087 679.818 591.832 680.574 591.69 681.455C591.542 682.347 591.545 683.114 591.698 683.756C591.857 684.392 592.144 684.884 592.559 685.23C592.979 685.571 593.511 685.741 594.153 685.741C594.607 685.741 595.031 685.656 595.423 685.486C595.815 685.31 596.158 685.057 596.454 684.727C596.755 684.398 596.991 683.997 597.161 683.526H600.11C599.877 684.452 599.462 685.273 598.866 685.989C598.275 686.699 597.542 687.256 596.667 687.659C595.792 688.057 594.806 688.256 593.71 688.256ZM607.646 688.256C606.334 688.256 605.249 687.983 604.391 687.438C603.533 686.886 602.93 686.108 602.584 685.102C602.243 684.091 602.186 682.901 602.413 681.531C602.635 680.185 603.087 679.003 603.768 677.986C604.45 676.963 605.303 676.168 606.325 675.599C607.354 675.026 608.49 674.739 609.734 674.739C610.541 674.739 611.283 674.869 611.959 675.131C612.635 675.386 613.206 675.784 613.672 676.324C614.138 676.864 614.459 677.551 614.635 678.386C614.811 679.216 614.803 680.205 614.609 681.352L614.464 682.298H603.726L604.058 680.219H611.831C611.933 679.628 611.899 679.102 611.729 678.642C611.558 678.176 611.274 677.81 610.876 677.543C610.479 677.276 609.982 677.142 609.385 677.142C608.777 677.142 608.209 677.298 607.68 677.611C607.158 677.918 606.717 678.315 606.359 678.804C606.001 679.293 605.774 679.807 605.678 680.347L605.328 682.341C605.203 683.159 605.232 683.827 605.413 684.344C605.595 684.861 605.913 685.241 606.368 685.486C606.822 685.73 607.396 685.852 608.089 685.852C608.544 685.852 608.964 685.79 609.351 685.665C609.737 685.54 610.081 685.352 610.382 685.102C610.689 684.847 610.945 684.534 611.149 684.165L613.97 684.489C613.658 685.25 613.2 685.915 612.598 686.483C611.996 687.045 611.274 687.483 610.433 687.795C609.598 688.102 608.669 688.256 607.646 688.256ZM619.868 688.264C619.038 688.264 618.317 688.116 617.703 687.821C617.089 687.52 616.638 687.077 616.348 686.491C616.064 685.906 615.993 685.185 616.135 684.327C616.26 683.588 616.499 682.977 616.851 682.494C617.209 682.011 617.646 681.625 618.163 681.335C618.686 681.04 619.254 680.818 619.868 680.67C620.487 680.523 621.118 680.415 621.76 680.347C622.544 680.267 623.178 680.193 623.661 680.125C624.149 680.057 624.516 679.955 624.76 679.818C625.004 679.676 625.152 679.46 625.203 679.17V679.119C625.305 678.477 625.203 677.98 624.896 677.628C624.589 677.276 624.078 677.099 623.362 677.099C622.612 677.099 621.982 677.264 621.47 677.594C620.959 677.923 620.587 678.312 620.354 678.761L617.558 678.352C617.911 677.557 618.393 676.892 619.007 676.358C619.621 675.818 620.328 675.415 621.129 675.148C621.936 674.875 622.797 674.739 623.712 674.739C624.337 674.739 624.947 674.812 625.544 674.96C626.146 675.108 626.678 675.352 627.138 675.693C627.604 676.028 627.945 676.486 628.161 677.065C628.382 677.645 628.419 678.369 628.271 679.239L626.814 688H623.848L624.155 686.202H624.053C623.808 686.565 623.49 686.906 623.098 687.224C622.706 687.537 622.24 687.79 621.7 687.983C621.161 688.17 620.55 688.264 619.868 688.264ZM621.036 685.997C621.655 685.997 622.212 685.875 622.706 685.631C623.2 685.381 623.607 685.051 623.925 684.642C624.243 684.233 624.442 683.787 624.521 683.304L624.777 681.761C624.663 681.841 624.487 681.915 624.249 681.983C624.01 682.051 623.743 682.111 623.447 682.162C623.158 682.213 622.871 682.259 622.587 682.298C622.303 682.338 622.058 682.372 621.854 682.401C621.382 682.463 620.95 682.565 620.558 682.707C620.172 682.849 619.851 683.048 619.595 683.304C619.345 683.554 619.189 683.878 619.126 684.276C619.036 684.838 619.169 685.267 619.527 685.562C619.885 685.852 620.388 685.997 621.036 685.997ZM634.28 680.33L633.018 688H629.925L632.107 674.909H635.064L634.689 677.134H634.851C635.26 676.401 635.834 675.818 636.572 675.386C637.311 674.955 638.172 674.739 639.155 674.739C640.047 674.739 640.797 674.932 641.405 675.318C642.013 675.699 642.445 676.259 642.7 676.997C642.956 677.73 642.996 678.619 642.82 679.665L641.422 688H638.337L639.641 680.142C639.788 679.273 639.678 678.591 639.308 678.097C638.945 677.597 638.359 677.347 637.553 677.347C637.013 677.347 636.516 677.466 636.061 677.705C635.607 677.937 635.223 678.276 634.911 678.719C634.604 679.162 634.393 679.699 634.28 680.33Z" fill="#017D83"/>
<g filter="url(#filter0_d_90_199)">
<path d="M568.5 198.5L564 195.5L453 130.5L344.98 63L340.5 68L330 69L324 77H319L310.5 88L301 106L295.5 127.5L277.5 148.5L271 152L266 157L264 163L270 164L258 171L252.5 182L224 200.5V206.5L229 213.5L239 231.5L245.5 242.5L243.5 252.5H235.5L233.5 255L238 259.5L233.5 269L224 279.5L214.5 278.5L205.94 288L210 295L204 310.5L211.5 317.5L205.94 323V351.5L213 355.5L224 352.5L233.5 355.5L242.5 365V380.5L241 394.5L245 410L253.5 414H265.5L272 419L277 437.5L297 454.5L305.5 469.5L316.5 478.5L325.5 485.5L329.5 495L335 499.5L337.5 508.5L327.5 514L321 518.5L309.5 517L304 528L293 535L282 536.5L272.5 541.5L257.5 555L247 559.5L241 570.5L224 578.5V600L219 605.5L211 608L196.5 617L179 619.5L140 643L129 664L119 673L115 685.5L106 693L105 702L111.14 709.5L124 717L115 726V732.5L116 744L110.5 751L113 756.972L130 765L142 785L149.5 786.5L152.5 793.5L161 799.5L164.5 797.5L171 802.5L173.5 812L182.5 818.5L186 814.5L191.5 817.5L196 825.5L213.5 839L215.5 853L223 857.5L229 847L252 845.5L254 854L265 853L279 855.872L293 866.5L289.5 889.5L274.5 916.5L267.5 943L279 948L289.5 945.5L291.5 935L308 927L296.5 938L299.5 943L310.5 935L320 923.5L318 916.5L311.5 923.5H305L310.5 918.5L314 914.5L310.5 909.5L315 899.5H321.5L322.5 909.5L338 892L318 889.5L322.5 886L329 887.5L346 870L348.5 865L343 857.5L350 852H356.5L361 847L374.5 826L371.5 813H380L382.5 803.5L392.5 796L399 785L410.5 792L400.5 796L392.5 813L410.5 801L426 792L418 781.5L405 780V774.5L410.5 772.5L412 768L418 757.5H428L433 751V747L426 740V728.5L439 727L450 730.5L446.1 737L451.5 740L457 733.5L455.5 725.5L444.5 721L446.1 716L451.5 711L459 705H468L469.5 691.5L480 690L481.5 681.5L490.5 673.5L495 658L485 655L488.5 635L502.5 614L500.5 603.5L507.5 593V583L509.5 567L502.5 563.5L522 550V541.5L527.5 535L545.5 455.5L547.22 417.233L523.5 409.5L501.5 396L494 399.5L490 396L485 401.5L473 396L467 391.93L464.5 388L467 384.5V380L470 361L479 355.5L483.5 344.5V333L488.5 325L496.66 320.5L501.5 309L507 312L500 325.5H510L520 321L521 312L532.5 304L538.5 279.5L551 258L562.5 226.5L568.5 198.5Z" fill="#FFD597"/>
<path d="M568.5 198.5L564 195.5L453 130.5L344.98 63L340.5 68L330 69L324 77H319L310.5 88L301 106L295.5 127.5L277.5 148.5L271 152L266 157L264 163L270 164L258 171L252.5 182L224 200.5V206.5L229 213.5L239 231.5L245.5 242.5L243.5 252.5H235.5L233.5 255L238 259.5L233.5 269L224 279.5L214.5 278.5L205.94 288L210 295L204 310.5L211.5 317.5L205.94 323V351.5L213 355.5L224 352.5L233.5 355.5L242.5 365V380.5L241 394.5L245 410L253.5 414H265.5L272 419L277 437.5L297 454.5L305.5 469.5L316.5 478.5L325.5 485.5L329.5 495L335 499.5L337.5 508.5L327.5 514L321 518.5L309.5 517L304 528L293 535L282 536.5L272.5 541.5L257.5 555L247 559.5L241 570.5L224 578.5V600L219 605.5L211 608L196.5 617L179 619.5L140 643L129 664L119 673L115 685.5L106 693L105 702L111.14 709.5L124 717L115 726V732.5L116 744L110.5 751L113 756.972L130 765L142 785L149.5 786.5L152.5 793.5L161 799.5L164.5 797.5L171 802.5L173.5 812L182.5 818.5L186 814.5L191.5 817.5L196 825.5L213.5 839L215.5 853L223 857.5L229 847L252 845.5L254 854L265 853L279 855.872L293 866.5L289.5 889.5L274.5 916.5L267.5 943L279 948L289.5 945.5L291.5 935L308 927L296.5 938L299.5 943L310.5 935L320 923.5L318 916.5L311.5 923.5H305L310.5 918.5L314 914.5L310.5 909.5L315 899.5H321.5L322.5 909.5L338 892L318 889.5L322.5 886L329 887.5L346 870L348.5 865L343 857.5L350 852H356.5L361 847L374.5 826L371.5 813H380L382.5 803.5L392.5 796L399 785L410.5 792L400.5 796L392.5 813L410.5 801L426 792L418 781.5L405 780V774.5L410.5 772.5L412 768L418 757.5H428L433 751V747L426 740V728.5L439 727L450 730.5L446.1 737L451.5 740L457 733.5L455.5 725.5L444.5 721L446.1 716L451.5 711L459 705H468L469.5 691.5L480 690L481.5 681.5L490.5 673.5L495 658L485 655L488.5 635L502.5 614L500.5 603.5L507.5 593V583L509.5 567L502.5 563.5L522 550V541.5L527.5 535L545.5 455.5L547.22 417.233L523.5 409.5L501.5 396L494 399.5L490 396L485 401.5L473 396L467 391.93L464.5 388L467 384.5V380L470 361L479 355.5L483.5 344.5V333L488.5 325L496.66 320.5L501.5 309L507 312L500 325.5H510L520 321L521 312L532.5 304L538.5 279.5L551 258L562.5 226.5L568.5 198.5Z" stroke="black"/>
</g>
<path d="M485.065 90.5455V108H482.253L474.028 96.1108H473.884V108H470.722V90.5455H473.551L481.767 102.443H481.92V90.5455H485.065ZM487.317 90.5455H490.888L495.158 98.267H495.329L499.599 90.5455H503.17L496.82 101.489V108H493.667V101.489L487.317 90.5455Z" fill="#005A5E"/>
<path d="M184.722 475V457.545H191.267C192.608 457.545 193.733 457.795 194.642 458.295C195.557 458.795 196.247 459.483 196.713 460.358C197.185 461.227 197.42 462.216 197.42 463.324C197.42 464.443 197.185 465.437 196.713 466.307C196.241 467.176 195.545 467.861 194.625 468.361C193.705 468.855 192.571 469.102 191.224 469.102H186.886V466.503H190.798C191.582 466.503 192.224 466.366 192.724 466.094C193.224 465.821 193.594 465.446 193.832 464.969C194.077 464.491 194.199 463.943 194.199 463.324C194.199 462.705 194.077 462.159 193.832 461.688C193.594 461.216 193.222 460.849 192.716 460.588C192.216 460.321 191.571 460.188 190.781 460.188H187.884V475H184.722ZM200.463 475H197.088L203.233 457.545H207.136L213.29 475H209.915L205.253 461.125H205.116L200.463 475ZM200.574 468.156H209.778V470.696H200.574V468.156Z" fill="#005A5E"/>
<circle cx="327.511" cy="475.511" r="9.01136" fill="#FF8F87" stroke="black"/>
<path d="M345.888 463.988V460.818H360.82V463.988H355.254V479H351.454V463.988H345.888ZM361.792 479V465.364H365.459V467.743H365.601C365.85 466.897 366.267 466.257 366.853 465.825C367.439 465.387 368.113 465.168 368.877 465.168C369.066 465.168 369.271 465.18 369.49 465.204C369.709 465.228 369.901 465.26 370.067 465.301V468.657C369.889 468.604 369.643 468.557 369.33 468.515C369.016 468.474 368.729 468.453 368.469 468.453C367.912 468.453 367.415 468.574 366.977 468.817C366.545 469.054 366.202 469.385 365.947 469.811C365.699 470.238 365.574 470.729 365.574 471.285V479H361.792ZM377.602 479.266C376.199 479.266 374.992 478.982 373.979 478.414C372.973 477.84 372.198 477.029 371.653 475.982C371.109 474.928 370.837 473.682 370.837 472.244C370.837 470.841 371.109 469.61 371.653 468.551C372.198 467.491 372.964 466.666 373.953 466.074C374.947 465.482 376.113 465.186 377.451 465.186C378.35 465.186 379.188 465.331 379.963 465.621C380.744 465.905 381.425 466.334 382.005 466.908C382.591 467.482 383.047 468.205 383.372 469.075C383.698 469.939 383.861 470.951 383.861 472.111V473.15H372.346V470.806H380.301C380.301 470.261 380.182 469.779 379.945 469.359C379.709 468.938 379.38 468.61 378.96 468.373C378.546 468.131 378.063 468.009 377.513 468.009C376.939 468.009 376.43 468.142 375.986 468.409C375.548 468.669 375.205 469.021 374.956 469.465C374.707 469.903 374.58 470.391 374.574 470.93V473.158C374.574 473.833 374.699 474.416 374.947 474.907C375.202 475.399 375.56 475.777 376.021 476.044C376.483 476.31 377.031 476.443 377.664 476.443C378.084 476.443 378.469 476.384 378.818 476.266C379.167 476.147 379.466 475.97 379.715 475.733C379.963 475.496 380.153 475.206 380.283 474.863L383.781 475.094C383.603 475.934 383.239 476.668 382.689 477.295C382.144 477.917 381.44 478.402 380.576 478.751C379.718 479.095 378.726 479.266 377.602 479.266ZM390.111 471.116V479H386.329V465.364H389.933V467.77H390.093C390.395 466.976 390.901 466.349 391.611 465.887C392.321 465.42 393.182 465.186 394.194 465.186C395.141 465.186 395.967 465.393 396.671 465.808C397.376 466.222 397.923 466.814 398.314 467.583C398.704 468.347 398.9 469.258 398.9 470.317V479H395.118V470.992C395.124 470.158 394.91 469.507 394.478 469.039C394.046 468.566 393.452 468.329 392.694 468.329C392.185 468.329 391.735 468.438 391.345 468.657C390.96 468.876 390.658 469.196 390.439 469.616C390.226 470.03 390.116 470.531 390.111 471.116ZM409.134 465.364V468.205H400.922V465.364H409.134ZM402.786 462.097H406.568V474.81C406.568 475.159 406.621 475.431 406.728 475.626C406.834 475.816 406.982 475.949 407.172 476.026C407.367 476.103 407.592 476.141 407.846 476.141C408.024 476.141 408.201 476.127 408.379 476.097C408.556 476.061 408.693 476.035 408.787 476.017L409.382 478.831C409.193 478.891 408.926 478.959 408.583 479.036C408.24 479.118 407.823 479.169 407.331 479.186C406.42 479.222 405.621 479.101 404.934 478.822C404.254 478.544 403.724 478.112 403.345 477.526C402.966 476.94 402.78 476.201 402.786 475.307V462.097ZM417.612 479.266C416.233 479.266 415.04 478.973 414.034 478.387C413.034 477.796 412.261 476.973 411.717 475.919C411.172 474.86 410.9 473.632 410.9 472.235C410.9 470.826 411.172 469.595 411.717 468.542C412.261 467.482 413.034 466.66 414.034 466.074C415.04 465.482 416.233 465.186 417.612 465.186C418.991 465.186 420.181 465.482 421.181 466.074C422.187 466.66 422.962 467.482 423.507 468.542C424.051 469.595 424.324 470.826 424.324 472.235C424.324 473.632 424.051 474.86 423.507 475.919C422.962 476.973 422.187 477.796 421.181 478.387C420.181 478.973 418.991 479.266 417.612 479.266ZM417.63 476.337C418.257 476.337 418.781 476.159 419.201 475.804C419.621 475.443 419.938 474.952 420.151 474.33C420.37 473.709 420.479 473.002 420.479 472.208C420.479 471.415 420.37 470.708 420.151 470.087C419.938 469.465 419.621 468.974 419.201 468.613C418.781 468.252 418.257 468.071 417.63 468.071C416.996 468.071 416.464 468.252 416.032 468.613C415.605 468.974 415.283 469.465 415.064 470.087C414.851 470.708 414.744 471.415 414.744 472.208C414.744 473.002 414.851 473.709 415.064 474.33C415.283 474.952 415.605 475.443 416.032 475.804C416.464 476.159 416.996 476.337 417.63 476.337ZM430.565 471.116V479H426.783V465.364H430.387V467.77H430.547C430.849 466.976 431.355 466.349 432.065 465.887C432.775 465.42 433.636 465.186 434.648 465.186C435.595 465.186 436.421 465.393 437.125 465.808C437.83 466.222 438.377 466.814 438.768 467.583C439.158 468.347 439.354 469.258 439.354 470.317V479H435.572V470.992C435.578 470.158 435.365 469.507 434.933 469.039C434.5 468.566 433.906 468.329 433.148 468.329C432.639 468.329 432.189 468.438 431.799 468.657C431.414 468.876 431.112 469.196 430.893 469.616C430.68 470.03 430.571 470.531 430.565 471.116Z" fill="black"/>
<path d="M400.619 314.818V333H398.489L388.581 318.724H388.403V333H386.202V314.818H388.332L398.276 329.129H398.453V314.818H400.619ZM410.458 333.284C409.144 333.284 408.011 332.994 407.058 332.414C406.111 331.828 405.38 331.011 404.865 329.964C404.356 328.91 404.102 327.685 404.102 326.288C404.102 324.892 404.356 323.661 404.865 322.595C405.38 321.524 406.096 320.689 407.014 320.092C407.937 319.488 409.014 319.186 410.245 319.186C410.955 319.186 411.657 319.304 412.349 319.541C413.042 319.778 413.672 320.163 414.24 320.695C414.808 321.222 415.261 321.92 415.598 322.79C415.936 323.661 416.104 324.732 416.104 326.004V326.892H405.593V325.081H413.974C413.974 324.312 413.82 323.625 413.512 323.021C413.21 322.418 412.778 321.941 412.216 321.592C411.66 321.243 411.003 321.068 410.245 321.068C409.411 321.068 408.689 321.275 408.079 321.69C407.475 322.098 407.011 322.631 406.685 323.288C406.36 323.945 406.197 324.649 406.197 325.401V326.608C406.197 327.638 406.374 328.511 406.729 329.227C407.091 329.937 407.591 330.479 408.23 330.852C408.869 331.219 409.612 331.402 410.458 331.402C411.009 331.402 411.506 331.325 411.95 331.171C412.399 331.011 412.787 330.775 413.113 330.461C413.438 330.141 413.69 329.745 413.867 329.271L415.891 329.839C415.678 330.526 415.32 331.13 414.817 331.651C414.314 332.165 413.693 332.568 412.953 332.858C412.213 333.142 411.381 333.284 410.458 333.284ZM422.381 333L418.226 319.364H420.428L423.375 329.804H423.517L426.429 319.364H428.667L431.543 329.768H431.685L434.633 319.364H436.834L432.679 333H430.62L427.637 322.524H427.424L424.441 333H422.381ZM443.617 333.32C442.753 333.32 441.969 333.157 441.264 332.831C440.56 332.5 440.001 332.023 439.586 331.402C439.172 330.775 438.965 330.017 438.965 329.129C438.965 328.348 439.119 327.715 439.427 327.229C439.734 326.738 440.146 326.353 440.661 326.075C441.176 325.797 441.744 325.59 442.365 325.454C442.993 325.312 443.623 325.199 444.256 325.116C445.085 325.01 445.756 324.93 446.271 324.877C446.792 324.818 447.171 324.72 447.408 324.584C447.65 324.448 447.772 324.211 447.772 323.874V323.803C447.772 322.927 447.532 322.246 447.053 321.761C446.579 321.275 445.86 321.033 444.895 321.033C443.895 321.033 443.111 321.252 442.543 321.69C441.975 322.128 441.575 322.595 441.344 323.092L439.356 322.382C439.711 321.554 440.184 320.908 440.776 320.447C441.374 319.979 442.025 319.654 442.729 319.47C443.439 319.281 444.138 319.186 444.824 319.186C445.262 319.186 445.765 319.239 446.334 319.346C446.908 319.446 447.461 319.657 447.994 319.976C448.532 320.296 448.979 320.778 449.334 321.423C449.689 322.068 449.867 322.933 449.867 324.016V333H447.772V331.153H447.665C447.523 331.449 447.286 331.766 446.955 332.103C446.624 332.441 446.183 332.728 445.632 332.964C445.082 333.201 444.41 333.32 443.617 333.32ZM443.937 331.438C444.765 331.438 445.464 331.275 446.032 330.949C446.606 330.624 447.038 330.203 447.328 329.689C447.624 329.174 447.772 328.632 447.772 328.064V326.146C447.683 326.253 447.488 326.35 447.186 326.439C446.89 326.522 446.547 326.596 446.156 326.661C445.771 326.72 445.395 326.774 445.028 326.821C444.667 326.862 444.374 326.898 444.15 326.928C443.605 326.999 443.096 327.114 442.623 327.274C442.155 327.428 441.776 327.661 441.486 327.975C441.202 328.283 441.06 328.703 441.06 329.236C441.06 329.964 441.329 330.514 441.868 330.887C442.412 331.254 443.102 331.438 443.937 331.438ZM453.691 333V319.364H455.715V321.423H455.857C456.106 320.749 456.556 320.201 457.207 319.781C457.858 319.361 458.592 319.151 459.408 319.151C459.562 319.151 459.755 319.154 459.985 319.159C460.216 319.165 460.391 319.174 460.509 319.186V321.317C460.438 321.299 460.275 321.272 460.021 321.237C459.772 321.195 459.509 321.175 459.231 321.175C458.568 321.175 457.976 321.314 457.455 321.592C456.94 321.864 456.532 322.243 456.23 322.728C455.934 323.208 455.786 323.755 455.786 324.371V333H453.691ZM464.946 328.028L464.91 325.436H465.337L471.302 319.364H473.895L467.538 325.791H467.361L464.946 328.028ZM462.993 333V314.818H465.088V333H462.993ZM471.658 333L466.331 326.253L467.822 324.797L474.321 333H471.658Z" fill="black"/>
<path d="M428.202 236V217.818H434.345C435.772 217.818 436.938 218.076 437.843 218.591C438.754 219.1 439.429 219.789 439.867 220.659C440.305 221.529 440.524 222.5 440.524 223.571C440.524 224.642 440.305 225.616 439.867 226.492C439.435 227.368 438.766 228.066 437.861 228.587C436.955 229.102 435.795 229.359 434.381 229.359H429.977V227.406H434.31C435.286 227.406 436.07 227.238 436.662 226.9C437.254 226.563 437.683 226.107 437.95 225.533C438.222 224.953 438.358 224.299 438.358 223.571C438.358 222.843 438.222 222.192 437.95 221.618C437.683 221.044 437.251 220.594 436.653 220.268C436.056 219.937 435.263 219.771 434.274 219.771H430.403V236H428.202ZM447.8 236.32C446.935 236.32 446.151 236.157 445.447 235.831C444.743 235.5 444.183 235.023 443.769 234.402C443.355 233.775 443.148 233.017 443.148 232.129C443.148 231.348 443.301 230.715 443.609 230.229C443.917 229.738 444.328 229.353 444.843 229.075C445.358 228.797 445.926 228.59 446.548 228.454C447.175 228.312 447.805 228.199 448.439 228.116C449.267 228.01 449.939 227.93 450.454 227.877C450.975 227.818 451.354 227.72 451.59 227.584C451.833 227.448 451.954 227.211 451.954 226.874V226.803C451.954 225.927 451.715 225.246 451.235 224.761C450.762 224.275 450.043 224.033 449.078 224.033C448.078 224.033 447.294 224.252 446.725 224.69C446.157 225.128 445.758 225.595 445.527 226.092L443.538 225.382C443.893 224.554 444.367 223.908 444.959 223.447C445.556 222.979 446.207 222.654 446.912 222.47C447.622 222.281 448.32 222.186 449.007 222.186C449.445 222.186 449.948 222.239 450.516 222.346C451.09 222.446 451.644 222.657 452.176 222.976C452.715 223.296 453.162 223.778 453.517 224.423C453.872 225.068 454.05 225.933 454.05 227.016V236H451.954V234.153H451.848C451.706 234.449 451.469 234.766 451.138 235.103C450.806 235.441 450.365 235.728 449.815 235.964C449.264 236.201 448.593 236.32 447.8 236.32ZM448.119 234.438C448.948 234.438 449.646 234.275 450.214 233.949C450.788 233.624 451.22 233.203 451.51 232.689C451.806 232.174 451.954 231.632 451.954 231.064V229.146C451.866 229.253 451.67 229.35 451.368 229.439C451.073 229.522 450.729 229.596 450.339 229.661C449.954 229.72 449.578 229.774 449.211 229.821C448.85 229.862 448.557 229.898 448.332 229.928C447.788 229.999 447.279 230.114 446.805 230.274C446.338 230.428 445.959 230.661 445.669 230.975C445.385 231.283 445.243 231.703 445.243 232.236C445.243 232.964 445.512 233.514 446.051 233.887C446.595 234.254 447.285 234.438 448.119 234.438ZM463.804 222.364V224.139H456.737V222.364H463.804ZM458.797 219.097H460.892V232.094C460.892 232.686 460.978 233.129 461.15 233.425C461.327 233.715 461.552 233.911 461.824 234.011C462.102 234.106 462.395 234.153 462.703 234.153C462.934 234.153 463.123 234.142 463.271 234.118C463.419 234.088 463.538 234.065 463.627 234.047L464.053 235.929C463.911 235.982 463.712 236.036 463.458 236.089C463.203 236.148 462.881 236.178 462.49 236.178C461.898 236.178 461.318 236.05 460.75 235.796C460.188 235.541 459.72 235.154 459.347 234.633C458.98 234.112 458.797 233.455 458.797 232.662V219.097ZM472.527 236.284C471.213 236.284 470.079 235.994 469.126 235.414C468.179 234.828 467.448 234.011 466.934 232.964C466.425 231.91 466.17 230.685 466.17 229.288C466.17 227.892 466.425 226.661 466.934 225.595C467.448 224.524 468.165 223.689 469.082 223.092C470.005 222.488 471.082 222.186 472.313 222.186C473.024 222.186 473.725 222.304 474.418 222.541C475.11 222.778 475.74 223.163 476.309 223.695C476.877 224.222 477.329 224.92 477.667 225.79C478.004 226.661 478.173 227.732 478.173 229.004V229.892H467.661V228.081H476.042C476.042 227.312 475.888 226.625 475.581 226.021C475.279 225.418 474.847 224.941 474.284 224.592C473.728 224.243 473.071 224.068 472.313 224.068C471.479 224.068 470.757 224.275 470.147 224.69C469.544 225.098 469.079 225.631 468.753 226.288C468.428 226.945 468.265 227.649 468.265 228.401V229.608C468.265 230.638 468.443 231.511 468.798 232.227C469.159 232.937 469.659 233.479 470.298 233.852C470.937 234.219 471.68 234.402 472.527 234.402C473.077 234.402 473.574 234.325 474.018 234.171C474.468 234.011 474.855 233.775 475.181 233.461C475.507 233.141 475.758 232.745 475.936 232.271L477.96 232.839C477.747 233.526 477.389 234.13 476.886 234.651C476.382 235.165 475.761 235.568 475.021 235.858C474.281 236.142 473.45 236.284 472.527 236.284ZM481.36 236V222.364H483.384V224.423H483.526C483.775 223.749 484.225 223.201 484.876 222.781C485.527 222.361 486.261 222.151 487.077 222.151C487.231 222.151 487.424 222.154 487.654 222.159C487.885 222.165 488.06 222.174 488.178 222.186V224.317C488.107 224.299 487.944 224.272 487.69 224.237C487.441 224.195 487.178 224.175 486.9 224.175C486.237 224.175 485.645 224.314 485.124 224.592C484.609 224.864 484.201 225.243 483.899 225.728C483.603 226.208 483.455 226.755 483.455 227.371V236H481.36ZM500.321 225.418L498.439 225.95C498.32 225.637 498.146 225.332 497.915 225.036C497.69 224.734 497.382 224.485 496.992 224.29C496.601 224.095 496.101 223.997 495.491 223.997C494.657 223.997 493.961 224.19 493.405 224.574C492.855 224.953 492.579 225.435 492.579 226.021C492.579 226.542 492.769 226.953 493.148 227.255C493.526 227.557 494.118 227.809 494.923 228.01L496.947 228.507C498.166 228.803 499.075 229.256 499.673 229.865C500.271 230.469 500.569 231.247 500.569 232.2C500.569 232.982 500.345 233.68 499.895 234.295C499.451 234.911 498.829 235.396 498.03 235.751C497.231 236.107 496.302 236.284 495.243 236.284C493.852 236.284 492.701 235.982 491.789 235.379C490.878 234.775 490.301 233.893 490.058 232.733L492.047 232.236C492.236 232.97 492.594 233.52 493.121 233.887C493.654 234.254 494.349 234.438 495.207 234.438C496.184 234.438 496.959 234.23 497.533 233.816C498.113 233.396 498.403 232.893 498.403 232.307C498.403 231.833 498.238 231.437 497.906 231.117C497.575 230.792 497.066 230.549 496.379 230.389L494.106 229.857C492.858 229.561 491.94 229.102 491.354 228.48C490.774 227.853 490.484 227.069 490.484 226.128C490.484 225.358 490.7 224.678 491.132 224.086C491.57 223.494 492.165 223.029 492.917 222.692C493.674 222.355 494.532 222.186 495.491 222.186C496.841 222.186 497.9 222.482 498.67 223.074C499.445 223.666 499.995 224.447 500.321 225.418ZM509.263 236.284C508.032 236.284 506.952 235.991 506.023 235.405C505.099 234.819 504.377 234 503.856 232.946C503.342 231.893 503.084 230.661 503.084 229.253C503.084 227.832 503.342 226.592 503.856 225.533C504.377 224.474 505.099 223.651 506.023 223.065C506.952 222.479 508.032 222.186 509.263 222.186C510.494 222.186 511.571 222.479 512.495 223.065C513.424 223.651 514.146 224.474 514.661 225.533C515.182 226.592 515.442 227.832 515.442 229.253C515.442 230.661 515.182 231.893 514.661 232.946C514.146 234 513.424 234.819 512.495 235.405C511.571 235.991 510.494 236.284 509.263 236.284ZM509.263 234.402C510.198 234.402 510.968 234.162 511.571 233.683C512.175 233.203 512.622 232.573 512.912 231.792C513.202 231.011 513.347 230.164 513.347 229.253C513.347 228.341 513.202 227.492 512.912 226.705C512.622 225.918 512.175 225.281 511.571 224.796C510.968 224.311 510.198 224.068 509.263 224.068C508.328 224.068 507.559 224.311 506.955 224.796C506.351 225.281 505.904 225.918 505.614 226.705C505.324 227.492 505.179 228.341 505.179 229.253C505.179 230.164 505.324 231.011 505.614 231.792C505.904 232.573 506.351 233.203 506.955 233.683C507.559 234.162 508.328 234.402 509.263 234.402ZM520.735 227.797V236H518.64V222.364H520.664V224.494H520.842C521.162 223.802 521.647 223.246 522.298 222.825C522.949 222.399 523.789 222.186 524.819 222.186C525.743 222.186 526.55 222.375 527.243 222.754C527.935 223.127 528.474 223.695 528.859 224.459C529.243 225.216 529.436 226.175 529.436 227.335V236H527.341V227.477C527.341 226.406 527.062 225.571 526.506 224.974C525.95 224.37 525.186 224.068 524.216 224.068C523.547 224.068 522.949 224.213 522.422 224.503C521.901 224.793 521.49 225.216 521.188 225.773C520.886 226.329 520.735 227.004 520.735 227.797Z" fill="black"/>
<path d="M384.162 269.818H386.364V282.815C386.364 283.975 386.151 284.961 385.724 285.772C385.298 286.583 384.698 287.198 383.922 287.618C383.147 288.038 382.232 288.249 381.179 288.249C380.185 288.249 379.3 288.068 378.525 287.707C377.749 287.34 377.14 286.819 376.696 286.145C376.252 285.47 376.03 284.668 376.03 283.739H378.196C378.196 284.254 378.323 284.703 378.578 285.088C378.838 285.467 379.193 285.763 379.643 285.976C380.093 286.189 380.605 286.295 381.179 286.295C381.812 286.295 382.351 286.162 382.795 285.896C383.239 285.63 383.576 285.239 383.807 284.724C384.044 284.203 384.162 283.567 384.162 282.815V269.818ZM396.209 288.284C394.895 288.284 393.762 287.994 392.809 287.414C391.862 286.828 391.131 286.011 390.616 284.964C390.107 283.91 389.853 282.685 389.853 281.288C389.853 279.892 390.107 278.661 390.616 277.595C391.131 276.524 391.847 275.689 392.765 275.092C393.688 274.488 394.765 274.186 395.996 274.186C396.706 274.186 397.408 274.304 398.1 274.541C398.793 274.778 399.423 275.163 399.991 275.695C400.559 276.222 401.012 276.92 401.349 277.79C401.687 278.661 401.855 279.732 401.855 281.004V281.892H391.344V280.081H399.725C399.725 279.312 399.571 278.625 399.263 278.021C398.961 277.418 398.529 276.941 397.967 276.592C397.411 276.243 396.754 276.068 395.996 276.068C395.162 276.068 394.44 276.275 393.83 276.69C393.226 277.098 392.762 277.631 392.436 278.288C392.111 278.945 391.948 279.649 391.948 280.401V281.608C391.948 282.638 392.125 283.511 392.48 284.227C392.842 284.937 393.342 285.479 393.981 285.852C394.62 286.219 395.363 286.402 396.209 286.402C396.76 286.402 397.257 286.325 397.701 286.171C398.15 286.011 398.538 285.775 398.864 285.461C399.189 285.141 399.441 284.745 399.618 284.271L401.642 284.839C401.429 285.526 401.071 286.13 400.568 286.651C400.065 287.165 399.444 287.568 398.704 287.858C397.964 288.142 397.132 288.284 396.209 288.284ZM405.043 288V274.364H407.067V276.423H407.209C407.457 275.749 407.907 275.201 408.558 274.781C409.209 274.361 409.943 274.151 410.76 274.151C410.914 274.151 411.106 274.154 411.337 274.159C411.568 274.165 411.742 274.174 411.861 274.186V276.317C411.79 276.299 411.627 276.272 411.373 276.237C411.124 276.195 410.861 276.175 410.582 276.175C409.92 276.175 409.328 276.314 408.807 276.592C408.292 276.864 407.884 277.243 407.582 277.728C407.286 278.208 407.138 278.755 407.138 279.371V288H405.043ZM424.003 277.418L422.121 277.95C422.003 277.637 421.828 277.332 421.598 277.036C421.373 276.734 421.065 276.485 420.674 276.29C420.284 276.095 419.784 275.997 419.174 275.997C418.339 275.997 417.644 276.19 417.088 276.574C416.537 276.953 416.262 277.435 416.262 278.021C416.262 278.542 416.451 278.953 416.83 279.255C417.209 279.557 417.801 279.809 418.606 280.01L420.63 280.507C421.849 280.803 422.758 281.256 423.355 281.865C423.953 282.469 424.252 283.247 424.252 284.2C424.252 284.982 424.027 285.68 423.577 286.295C423.133 286.911 422.512 287.396 421.713 287.751C420.914 288.107 419.985 288.284 418.925 288.284C417.534 288.284 416.383 287.982 415.472 287.379C414.56 286.775 413.983 285.893 413.741 284.733L415.729 284.236C415.919 284.97 416.277 285.52 416.804 285.887C417.336 286.254 418.032 286.438 418.89 286.438C419.866 286.438 420.642 286.23 421.216 285.816C421.796 285.396 422.086 284.893 422.086 284.307C422.086 283.833 421.92 283.437 421.589 283.117C421.257 282.792 420.748 282.549 420.062 282.389L417.789 281.857C416.54 281.561 415.623 281.102 415.037 280.48C414.457 279.853 414.167 279.069 414.167 278.128C414.167 277.358 414.383 276.678 414.815 276.086C415.253 275.494 415.848 275.029 416.599 274.692C417.357 274.355 418.215 274.186 419.174 274.186C420.523 274.186 421.583 274.482 422.352 275.074C423.128 275.666 423.678 276.447 424.003 277.418ZM433.123 288.284C431.809 288.284 430.676 287.994 429.723 287.414C428.776 286.828 428.045 286.011 427.53 284.964C427.021 283.91 426.767 282.685 426.767 281.288C426.767 279.892 427.021 278.661 427.53 277.595C428.045 276.524 428.761 275.689 429.679 275.092C430.602 274.488 431.679 274.186 432.91 274.186C433.62 274.186 434.322 274.304 435.014 274.541C435.707 274.778 436.337 275.163 436.905 275.695C437.473 276.222 437.926 276.92 438.263 277.79C438.601 278.661 438.77 279.732 438.77 281.004V281.892H428.258V280.081H436.639C436.639 279.312 436.485 278.625 436.177 278.021C435.875 277.418 435.443 276.941 434.881 276.592C434.325 276.243 433.668 276.068 432.91 276.068C432.076 276.068 431.354 276.275 430.744 276.69C430.14 277.098 429.676 277.631 429.35 278.288C429.025 278.945 428.862 279.649 428.862 280.401V281.608C428.862 282.638 429.039 283.511 429.395 284.227C429.756 284.937 430.256 285.479 430.895 285.852C431.534 286.219 432.277 286.402 433.123 286.402C433.674 286.402 434.171 286.325 434.615 286.171C435.065 286.011 435.452 285.775 435.778 285.461C436.103 285.141 436.355 284.745 436.532 284.271L438.556 284.839C438.343 285.526 437.985 286.13 437.482 286.651C436.979 287.165 436.358 287.568 435.618 287.858C434.878 288.142 434.047 288.284 433.123 288.284ZM442.891 293.114C442.536 293.114 442.219 293.084 441.941 293.025C441.663 292.972 441.471 292.918 441.364 292.865L441.897 291.018C442.406 291.149 442.856 291.196 443.246 291.161C443.637 291.125 443.983 290.95 444.285 290.637C444.593 290.329 444.874 289.829 445.128 289.136L445.519 288.071L440.476 274.364H442.749L446.513 285.23H446.655L450.419 274.364H452.692L446.904 289.989C446.643 290.693 446.321 291.276 445.936 291.738C445.551 292.205 445.105 292.551 444.596 292.776C444.093 293.001 443.524 293.114 442.891 293.114ZM477.404 275.5H475.202C475.072 274.867 474.844 274.31 474.518 273.831C474.199 273.352 473.808 272.949 473.347 272.624C472.891 272.292 472.385 272.044 471.828 271.878C471.272 271.712 470.692 271.629 470.088 271.629C468.987 271.629 467.99 271.907 467.097 272.464C466.209 273.02 465.501 273.84 464.975 274.923C464.454 276.006 464.193 277.335 464.193 278.909C464.193 280.483 464.454 281.812 464.975 282.895C465.501 283.978 466.209 284.798 467.097 285.354C467.99 285.911 468.987 286.189 470.088 286.189C470.692 286.189 471.272 286.106 471.828 285.94C472.385 285.775 472.891 285.529 473.347 285.203C473.808 284.872 474.199 284.467 474.518 283.987C474.844 283.502 475.072 282.946 475.202 282.318H477.404C477.238 283.247 476.936 284.079 476.498 284.813C476.06 285.547 475.516 286.171 474.865 286.686C474.214 287.195 473.483 287.583 472.672 287.849C471.867 288.115 471.006 288.249 470.088 288.249C468.538 288.249 467.159 287.87 465.951 287.112C464.744 286.355 463.794 285.277 463.101 283.881C462.409 282.484 462.063 280.827 462.063 278.909C462.063 276.991 462.409 275.334 463.101 273.938C463.794 272.541 464.744 271.464 465.951 270.706C467.159 269.948 468.538 269.57 470.088 269.57C471.006 269.57 471.867 269.703 472.672 269.969C473.483 270.235 474.214 270.626 474.865 271.141C475.516 271.65 476.06 272.271 476.498 273.005C476.936 273.733 477.238 274.565 477.404 275.5ZM480.677 288V274.364H482.773V288H480.677ZM481.743 272.091C481.334 272.091 480.982 271.952 480.686 271.674C480.396 271.395 480.251 271.061 480.251 270.67C480.251 270.28 480.396 269.945 480.686 269.667C480.982 269.389 481.334 269.25 481.743 269.25C482.151 269.25 482.5 269.389 482.79 269.667C483.086 269.945 483.234 270.28 483.234 270.67C483.234 271.061 483.086 271.395 482.79 271.674C482.5 271.952 482.151 272.091 481.743 272.091ZM492.54 274.364V276.139H485.474V274.364H492.54ZM487.533 271.097H489.628V284.094C489.628 284.686 489.714 285.129 489.886 285.425C490.063 285.715 490.288 285.911 490.561 286.011C490.839 286.106 491.132 286.153 491.44 286.153C491.67 286.153 491.86 286.142 492.008 286.118C492.156 286.088 492.274 286.065 492.363 286.047L492.789 287.929C492.647 287.982 492.449 288.036 492.194 288.089C491.94 288.148 491.617 288.178 491.226 288.178C490.635 288.178 490.055 288.05 489.486 287.796C488.924 287.541 488.457 287.154 488.084 286.633C487.717 286.112 487.533 285.455 487.533 284.662V271.097ZM497.041 293.114C496.686 293.114 496.37 293.084 496.092 293.025C495.813 292.972 495.621 292.918 495.514 292.865L496.047 291.018C496.556 291.149 497.006 291.196 497.397 291.161C497.787 291.125 498.133 290.95 498.435 290.637C498.743 290.329 499.024 289.829 499.279 289.136L499.669 288.071L494.627 274.364H496.899L500.664 285.23H500.806L504.57 274.364H506.843L501.054 289.989C500.794 290.693 500.471 291.276 500.087 291.738C499.702 292.205 499.255 292.551 498.746 292.776C498.243 293.001 497.675 293.114 497.041 293.114Z" fill="black"/>
<circle cx="484.511" cy="308.511" r="9.01136" fill="#FFE587" stroke="black"/>
<path d="M267.543 790.909C267.543 792.827 267.196 794.484 266.504 795.881C265.811 797.277 264.862 798.355 263.654 799.112C262.447 799.87 261.068 800.249 259.517 800.249C257.966 800.249 256.587 799.87 255.38 799.112C254.173 798.355 253.223 797.277 252.53 795.881C251.838 794.484 251.491 792.827 251.491 790.909C251.491 788.991 251.838 787.334 252.53 785.938C253.223 784.541 254.173 783.464 255.38 782.706C256.587 781.948 257.966 781.57 259.517 781.57C261.068 781.57 262.447 781.948 263.654 782.706C264.862 783.464 265.811 784.541 266.504 785.938C267.196 787.334 267.543 788.991 267.543 790.909ZM265.412 790.909C265.412 789.335 265.149 788.006 264.622 786.923C264.101 785.84 263.394 785.02 262.5 784.464C261.612 783.907 260.618 783.629 259.517 783.629C258.416 783.629 257.419 783.907 256.525 784.464C255.637 785.02 254.93 785.84 254.403 786.923C253.883 788.006 253.622 789.335 253.622 790.909C253.622 792.483 253.883 793.812 254.403 794.895C254.93 795.978 255.637 796.798 256.525 797.354C257.419 797.911 258.416 798.189 259.517 798.189C260.618 798.189 261.612 797.911 262.5 797.354C263.394 796.798 264.101 795.978 264.622 794.895C265.149 793.812 265.412 792.483 265.412 790.909ZM276.5 800.284C275.222 800.284 274.121 799.982 273.198 799.379C272.275 798.775 271.564 797.943 271.067 796.884C270.57 795.824 270.321 794.614 270.321 793.253C270.321 791.868 270.576 790.646 271.085 789.586C271.6 788.521 272.316 787.689 273.233 787.092C274.157 786.488 275.234 786.186 276.465 786.186C277.424 786.186 278.288 786.364 279.057 786.719C279.827 787.074 280.457 787.571 280.948 788.21C281.439 788.849 281.744 789.595 281.863 790.447H279.767C279.608 789.826 279.252 789.276 278.702 788.796C278.158 788.311 277.424 788.068 276.5 788.068C275.684 788.068 274.967 788.281 274.352 788.707C273.742 789.128 273.266 789.722 272.923 790.492C272.585 791.255 272.417 792.152 272.417 793.182C272.417 794.235 272.582 795.153 272.914 795.934C273.251 796.715 273.725 797.322 274.334 797.754C274.95 798.186 275.672 798.402 276.5 798.402C277.045 798.402 277.539 798.307 277.983 798.118C278.427 797.929 278.803 797.656 279.11 797.301C279.418 796.946 279.637 796.52 279.767 796.023H281.863C281.744 796.828 281.451 797.553 280.984 798.198C280.522 798.837 279.909 799.346 279.146 799.725C278.388 800.098 277.507 800.284 276.5 800.284ZM290.643 800.284C289.329 800.284 288.195 799.994 287.243 799.414C286.296 798.828 285.565 798.011 285.05 796.964C284.541 795.91 284.286 794.685 284.286 793.288C284.286 791.892 284.541 790.661 285.05 789.595C285.565 788.524 286.281 787.689 287.198 787.092C288.121 786.488 289.199 786.186 290.43 786.186C291.14 786.186 291.841 786.304 292.534 786.541C293.226 786.778 293.857 787.163 294.425 787.695C294.993 788.222 295.446 788.92 295.783 789.79C296.12 790.661 296.289 791.732 296.289 793.004V793.892H285.778V792.081H294.158C294.158 791.312 294.004 790.625 293.697 790.021C293.395 789.418 292.963 788.941 292.401 788.592C291.844 788.243 291.187 788.068 290.43 788.068C289.595 788.068 288.873 788.275 288.263 788.69C287.66 789.098 287.195 789.631 286.87 790.288C286.544 790.945 286.381 791.649 286.381 792.401V793.608C286.381 794.638 286.559 795.511 286.914 796.227C287.275 796.937 287.775 797.479 288.414 797.852C289.054 798.219 289.796 798.402 290.643 798.402C291.193 798.402 291.69 798.325 292.134 798.171C292.584 798.011 292.972 797.775 293.297 797.461C293.623 797.141 293.874 796.745 294.052 796.271L296.076 796.839C295.863 797.526 295.505 798.13 295.002 798.651C294.499 799.165 293.877 799.568 293.137 799.858C292.398 800.142 291.566 800.284 290.643 800.284ZM303.489 800.32C302.625 800.32 301.841 800.157 301.136 799.831C300.432 799.5 299.873 799.023 299.458 798.402C299.044 797.775 298.837 797.017 298.837 796.129C298.837 795.348 298.991 794.715 299.299 794.229C299.606 793.738 300.018 793.353 300.533 793.075C301.048 792.797 301.616 792.59 302.237 792.454C302.865 792.312 303.495 792.199 304.128 792.116C304.957 792.01 305.629 791.93 306.143 791.877C306.664 791.818 307.043 791.72 307.28 791.584C307.522 791.448 307.644 791.211 307.644 790.874V790.803C307.644 789.927 307.404 789.246 306.925 788.761C306.451 788.275 305.732 788.033 304.767 788.033C303.767 788.033 302.983 788.252 302.415 788.69C301.847 789.128 301.447 789.595 301.216 790.092L299.228 789.382C299.583 788.554 300.056 787.908 300.648 787.447C301.246 786.979 301.897 786.654 302.601 786.47C303.311 786.281 304.01 786.186 304.696 786.186C305.134 786.186 305.637 786.239 306.206 786.346C306.78 786.446 307.333 786.657 307.866 786.976C308.404 787.296 308.851 787.778 309.206 788.423C309.561 789.068 309.739 789.933 309.739 791.016V800H307.644V798.153H307.537C307.395 798.449 307.158 798.766 306.827 799.103C306.496 799.441 306.055 799.728 305.504 799.964C304.954 800.201 304.282 800.32 303.489 800.32ZM303.809 798.438C304.637 798.438 305.336 798.275 305.904 797.949C306.478 797.624 306.91 797.203 307.2 796.689C307.496 796.174 307.644 795.632 307.644 795.064V793.146C307.555 793.253 307.36 793.35 307.058 793.439C306.762 793.522 306.419 793.596 306.028 793.661C305.643 793.72 305.268 793.774 304.901 793.821C304.54 793.862 304.247 793.898 304.022 793.928C303.477 793.999 302.968 794.114 302.495 794.274C302.027 794.428 301.648 794.661 301.358 794.975C301.074 795.283 300.932 795.703 300.932 796.236C300.932 796.964 301.201 797.514 301.74 797.887C302.285 798.254 302.974 798.438 303.809 798.438ZM315.658 791.797V800H313.563V786.364H315.587V788.494H315.765C316.084 787.802 316.57 787.246 317.221 786.825C317.872 786.399 318.712 786.186 319.742 786.186C320.665 786.186 321.473 786.375 322.166 786.754C322.858 787.127 323.397 787.695 323.782 788.459C324.166 789.216 324.359 790.175 324.359 791.335V800H322.263V791.477C322.263 790.406 321.985 789.571 321.429 788.974C320.873 788.37 320.109 788.068 319.138 788.068C318.47 788.068 317.872 788.213 317.345 788.503C316.824 788.793 316.413 789.216 316.111 789.773C315.809 790.329 315.658 791.004 315.658 791.797ZM350.133 787.5H347.931C347.801 786.867 347.573 786.31 347.248 785.831C346.928 785.352 346.538 784.949 346.076 784.624C345.62 784.292 345.114 784.044 344.558 783.878C344.002 783.712 343.422 783.629 342.818 783.629C341.717 783.629 340.72 783.907 339.826 784.464C338.938 785.02 338.231 785.84 337.704 786.923C337.183 788.006 336.923 789.335 336.923 790.909C336.923 792.483 337.183 793.812 337.704 794.895C338.231 795.978 338.938 796.798 339.826 797.354C340.72 797.911 341.717 798.189 342.818 798.189C343.422 798.189 344.002 798.106 344.558 797.94C345.114 797.775 345.62 797.529 346.076 797.203C346.538 796.872 346.928 796.467 347.248 795.987C347.573 795.502 347.801 794.946 347.931 794.318H350.133C349.967 795.247 349.666 796.079 349.228 796.813C348.79 797.547 348.245 798.171 347.594 798.686C346.943 799.195 346.212 799.583 345.401 799.849C344.596 800.115 343.735 800.249 342.818 800.249C341.267 800.249 339.888 799.87 338.681 799.112C337.473 798.355 336.523 797.277 335.831 795.881C335.138 794.484 334.792 792.827 334.792 790.909C334.792 788.991 335.138 787.334 335.831 785.938C336.523 784.541 337.473 783.464 338.681 782.706C339.888 781.948 341.267 781.57 342.818 781.57C343.735 781.57 344.596 781.703 345.401 781.969C346.212 782.235 346.943 782.626 347.594 783.141C348.245 783.65 348.79 784.271 349.228 785.005C349.666 785.733 349.967 786.565 350.133 787.5ZM353.407 800V786.364H355.502V800H353.407ZM354.472 784.091C354.064 784.091 353.712 783.952 353.416 783.674C353.126 783.395 352.981 783.061 352.981 782.67C352.981 782.28 353.126 781.945 353.416 781.667C353.712 781.389 354.064 781.25 354.472 781.25C354.881 781.25 355.23 781.389 355.52 781.667C355.816 781.945 355.964 782.28 355.964 782.67C355.964 783.061 355.816 783.395 355.52 783.674C355.23 783.952 354.881 784.091 354.472 784.091ZM365.27 786.364V788.139H358.203V786.364H365.27ZM360.263 783.097H362.358V796.094C362.358 796.686 362.444 797.129 362.615 797.425C362.793 797.715 363.018 797.911 363.29 798.011C363.568 798.106 363.861 798.153 364.169 798.153C364.4 798.153 364.589 798.142 364.737 798.118C364.885 798.088 365.004 798.065 365.092 798.047L365.518 799.929C365.376 799.982 365.178 800.036 364.924 800.089C364.669 800.148 364.347 800.178 363.956 800.178C363.364 800.178 362.784 800.05 362.216 799.796C361.654 799.541 361.186 799.154 360.813 798.633C360.446 798.112 360.263 797.455 360.263 796.662V783.097ZM369.771 805.114C369.416 805.114 369.099 805.084 368.821 805.025C368.543 804.972 368.35 804.918 368.244 804.865L368.777 803.018C369.286 803.149 369.735 803.196 370.126 803.161C370.517 803.125 370.863 802.95 371.165 802.637C371.473 802.329 371.754 801.829 372.008 801.136L372.399 800.071L367.356 786.364H369.629L373.393 797.23H373.535L377.299 786.364H379.572L373.784 801.989C373.523 802.693 373.201 803.276 372.816 803.738C372.431 804.205 371.984 804.551 371.475 804.776C370.972 805.001 370.404 805.114 369.771 805.114Z" fill="black"/>
<path d="M362.207 583.771V581.818H375.844V583.771H370.126V600H367.925V583.771H362.207ZM382.52 600.284C381.289 600.284 380.209 599.991 379.279 599.405C378.356 598.819 377.634 598 377.113 596.946C376.598 595.893 376.341 594.661 376.341 593.253C376.341 591.832 376.598 590.592 377.113 589.533C377.634 588.474 378.356 587.651 379.279 587.065C380.209 586.479 381.289 586.186 382.52 586.186C383.751 586.186 384.828 586.479 385.751 587.065C386.681 587.651 387.403 588.474 387.918 589.533C388.438 590.592 388.699 591.832 388.699 593.253C388.699 594.661 388.438 595.893 387.918 596.946C387.403 598 386.681 598.819 385.751 599.405C384.828 599.991 383.751 600.284 382.52 600.284ZM382.52 598.402C383.455 598.402 384.224 598.162 384.828 597.683C385.432 597.203 385.879 596.573 386.169 595.792C386.459 595.011 386.604 594.164 386.604 593.253C386.604 592.341 386.459 591.492 386.169 590.705C385.879 589.918 385.432 589.281 384.828 588.796C384.224 588.311 383.455 588.068 382.52 588.068C381.585 588.068 380.815 588.311 380.212 588.796C379.608 589.281 379.161 589.918 378.871 590.705C378.581 591.492 378.436 592.341 378.436 593.253C378.436 594.164 378.581 595.011 378.871 595.792C379.161 596.573 379.608 597.203 380.212 597.683C380.815 598.162 381.585 598.402 382.52 598.402ZM391.897 600V586.364H393.921V588.494H394.099C394.383 587.766 394.842 587.201 395.475 586.799C396.108 586.39 396.869 586.186 397.756 586.186C398.656 586.186 399.405 586.39 400.003 586.799C400.606 587.201 401.077 587.766 401.414 588.494H401.556C401.905 587.79 402.429 587.231 403.128 586.816C403.826 586.396 404.663 586.186 405.64 586.186C406.859 586.186 407.857 586.568 408.632 587.331C409.407 588.089 409.795 589.27 409.795 590.874V600H407.7V590.874C407.7 589.867 407.424 589.148 406.874 588.716C406.324 588.284 405.676 588.068 404.93 588.068C403.971 588.068 403.228 588.358 402.701 588.938C402.175 589.512 401.911 590.24 401.911 591.122V600H399.781V590.661C399.781 589.885 399.529 589.261 399.026 588.787C398.523 588.308 397.875 588.068 397.082 588.068C396.537 588.068 396.028 588.213 395.555 588.503C395.087 588.793 394.708 589.196 394.418 589.711C394.134 590.22 393.992 590.808 393.992 591.477V600H391.897ZM423.285 589.418L421.403 589.95C421.284 589.637 421.11 589.332 420.879 589.036C420.654 588.734 420.346 588.485 419.956 588.29C419.565 588.095 419.065 587.997 418.455 587.997C417.621 587.997 416.925 588.19 416.369 588.574C415.818 588.953 415.543 589.435 415.543 590.021C415.543 590.542 415.733 590.953 416.111 591.255C416.49 591.557 417.082 591.809 417.887 592.01L419.911 592.507C421.13 592.803 422.039 593.256 422.637 593.865C423.234 594.469 423.533 595.247 423.533 596.2C423.533 596.982 423.308 597.68 422.859 598.295C422.415 598.911 421.793 599.396 420.994 599.751C420.195 600.107 419.266 600.284 418.207 600.284C416.816 600.284 415.665 599.982 414.753 599.379C413.842 598.775 413.265 597.893 413.022 596.733L415.011 596.236C415.2 596.97 415.558 597.52 416.085 597.887C416.617 598.254 417.313 598.438 418.171 598.438C419.148 598.438 419.923 598.23 420.497 597.816C421.077 597.396 421.367 596.893 421.367 596.307C421.367 595.833 421.201 595.437 420.87 595.117C420.539 594.792 420.03 594.549 419.343 594.389L417.07 593.857C415.821 593.561 414.904 593.102 414.318 592.48C413.738 591.853 413.448 591.069 413.448 590.128C413.448 589.358 413.664 588.678 414.096 588.086C414.534 587.494 415.129 587.029 415.881 586.692C416.638 586.355 417.496 586.186 418.455 586.186C419.805 586.186 420.864 586.482 421.633 587.074C422.409 587.666 422.959 588.447 423.285 589.418ZM434.002 600V581.818H440.146C441.566 581.818 442.732 582.061 443.644 582.546C444.555 583.026 445.23 583.685 445.668 584.526C446.106 585.366 446.325 586.322 446.325 587.393C446.325 588.465 446.106 589.415 445.668 590.243C445.23 591.072 444.558 591.723 443.653 592.196C442.747 592.664 441.59 592.898 440.181 592.898H435.21V590.909H440.11C441.081 590.909 441.862 590.767 442.454 590.483C443.052 590.199 443.484 589.796 443.75 589.276C444.023 588.749 444.159 588.121 444.159 587.393C444.159 586.665 444.023 586.029 443.75 585.485C443.478 584.94 443.043 584.52 442.445 584.224C441.848 583.922 441.057 583.771 440.075 583.771H436.204V600H434.002ZM442.561 591.832L447.035 600H444.478L440.075 591.832H442.561ZM449.71 600V586.364H451.805V600H449.71ZM450.775 584.091C450.367 584.091 450.014 583.952 449.718 583.674C449.428 583.395 449.283 583.061 449.283 582.67C449.283 582.28 449.428 581.945 449.718 581.667C450.014 581.389 450.367 581.25 450.775 581.25C451.183 581.25 451.533 581.389 451.823 581.667C452.118 581.945 452.266 582.28 452.266 582.67C452.266 583.061 452.118 583.395 451.823 583.674C451.533 583.952 451.183 584.091 450.775 584.091ZM466.793 586.364L461.75 600H459.619L454.577 586.364H456.85L460.614 597.23H460.756L464.52 586.364H466.793ZM474.787 600.284C473.473 600.284 472.34 599.994 471.387 599.414C470.44 598.828 469.709 598.011 469.194 596.964C468.685 595.91 468.431 594.685 468.431 593.288C468.431 591.892 468.685 590.661 469.194 589.595C469.709 588.524 470.425 587.689 471.343 587.092C472.266 586.488 473.343 586.186 474.574 586.186C475.284 586.186 475.986 586.304 476.678 586.541C477.371 586.778 478.001 587.163 478.569 587.695C479.137 588.222 479.59 588.92 479.928 589.79C480.265 590.661 480.434 591.732 480.434 593.004V593.892H469.922V592.081H478.303C478.303 591.312 478.149 590.625 477.841 590.021C477.539 589.418 477.107 588.941 476.545 588.592C475.989 588.243 475.332 588.068 474.574 588.068C473.74 588.068 473.018 588.275 472.408 588.69C471.804 589.098 471.34 589.631 471.014 590.288C470.689 590.945 470.526 591.649 470.526 592.401V593.608C470.526 594.638 470.703 595.511 471.059 596.227C471.42 596.937 471.92 597.479 472.559 597.852C473.198 598.219 473.941 598.402 474.787 598.402C475.338 598.402 475.835 598.325 476.279 598.171C476.729 598.011 477.116 597.775 477.442 597.461C477.767 597.141 478.019 596.745 478.196 596.271L480.221 596.839C480.007 597.526 479.649 598.13 479.146 598.651C478.643 599.165 478.022 599.568 477.282 599.858C476.542 600.142 475.711 600.284 474.787 600.284ZM483.621 600V586.364H485.645V588.423H485.787C486.036 587.749 486.485 587.201 487.136 586.781C487.787 586.361 488.521 586.151 489.338 586.151C489.492 586.151 489.684 586.154 489.915 586.159C490.146 586.165 490.321 586.174 490.439 586.186V588.317C490.368 588.299 490.205 588.272 489.951 588.237C489.702 588.195 489.439 588.175 489.161 588.175C488.498 588.175 487.906 588.314 487.385 588.592C486.87 588.864 486.462 589.243 486.16 589.728C485.864 590.208 485.716 590.755 485.716 591.371V600H483.621Z" fill="black"/>
<circle cx="361.511" cy="819.511" r="9.01136" fill="#FFE587" stroke="black"/>
<circle cx="484.511" cy="569.511" r="9.01136" fill="#FFE587" stroke="black"/>
<circle cx="490.511" cy="256.511" r="9.01136" fill="#FFE587" stroke="black"/>
<circle cx="525.511" cy="279.511" r="9.01136" fill="#FFE587" stroke="black"/>
<defs>
<filter id="filter0_d_90_199" x="100.48" y="62.3531" width="472.58" height="894.172" filterUnits="userSpaceOnUse" color-interpolation-filters="sRGB">
<feFlood flood-opacity="0" result="BackgroundImageFix"/>
<feColorMatrix in="SourceAlpha" type="matrix" values="0 0 0 0 0 0 0 0 0 0 0 0 0 0 0 0 0 0 127 0" result="hardAlpha"/>
<feOffset dy="4"/>
<feGaussianBlur stdDeviation="2"/>
<feComposite in2="hardAlpha" operator="out"/>
<feColorMatrix type="matrix" values="0 0 0 0 0 0 0 0 0 0 0 0 0 0 0 0 0 0 0.25 0"/>
<feBlend mode="normal" in2="BackgroundImageFix" result="effect1_dropShadow_90_199"/>
<feBlend mode="normal" in="SourceGraphic" in2="effect1_dropShadow_90_199" result="shape"/>
</filter>
</defs>
</svg>
