<svg width="1128" height="544" viewBox="0 0 1128 544" fill="none" xmlns="http://www.w3.org/2000/svg">
<rect x="0.5" y="0.5" width="1127" height="543" rx="35.5" fill="#97DCFF" stroke="#717171"/>
<g filter="url(#filter0_d_147_88)">
<path d="M462 99.5L362.5 96L361.5 97.5L359 102.5C359 104.333 359.2 108.3 360 109.5C360.8 110.7 359.667 113.667 359 115C358.333 116.833 356.8 120.7 356 121.5C355 122.5 356.5 125 356.5 125.5C356.5 125.9 357.5 128.333 358 129.5C357.333 129.833 355.8 130.5 355 130.5C354.2 130.5 351.333 128.167 350 127L347 128C345.833 128.833 343.4 130.6 343 131C342.6 131.4 339.833 133.5 338.5 134.5L324.5 156.5C323.333 158 320.9 161 320.5 161C320 161 317 162 314.5 162.5C312.5 162.9 312 162 312 161.5C311.167 160 309.4 156.8 309 156C308.6 155.2 305.5 155.667 304 156L298 159.5H293.5L286.5 161.5L281.5 165.5C280.667 166.833 278.9 169.6 278.5 170C278 170.5 276.5 174 276 174.5C275.5 175 273 177.5 272 178C271 178.5 268.5 180.5 267 181C265.8 181.4 264.5 182.167 264 182.5L259 181L258.5 177.5C259.167 176 260.5 172.9 260.5 172.5C260.5 172 259 170.5 258.5 170C258.1 169.6 255.667 168.833 254.5 168.5C249.833 171.833 240.4 178.6 240 179C239.6 179.4 239.167 181.833 239 183C238.5 184.167 237.3 186.5 236.5 186.5H235L231.5 184.5H228H226.5L225.5 188.5L226.5 192.5L224.5 194.5L225.5 197.5C223.667 199.5 220 203.6 220 204C220 204.5 217 208 216 208H213L207.5 205.5L205.5 207H203.5L198.5 209.5L194 214H189L187.5 216L186.5 220L182.5 223.5H176L175.5 225.5L173 227.5L166.5 230L161.5 236L159 236.5H131.5L129 238L124.5 241.5L117.5 242.5L115.5 246.5L102 258L103.5 262L101 265.5L102 272L98 276.5C96.5 277.333 93.4 279 93 279C92.6 279 89.5 279.667 88 280L84 281L81.5 279L81 276.5L77.5 278.5L72.5 284L70.5 297L69.5 314.5L204 313L232.5 304L239 302L240 304L242.5 304.5L252 298.5L259.5 293.5L266.5 292.5L275 289L279 290L281 286L282.5 284.5L284.5 289L296.5 286H301L433.5 293.5V297L431.5 301L432 305L435 306L444.5 298.5L458 317L461.5 324.5L460 337L584.5 339.5L701 459L709 467H712.5L718 465L723.5 462.5L729 460C732.833 459.833 741 459.5 743 459.5C745 459.5 745.167 456.833 745 455.5L747 458.5L754.5 460C758.167 460.333 765.7 461 766.5 461C767.3 461 768.167 460 768.5 459.5L773.5 454.5C774.167 452.333 775.6 447.9 776 447.5C776.4 447.1 775.167 435.667 774.5 430L774 421.5L778.5 430L779 440L778.5 449.5L781.5 447L783.5 440L787.5 428.5L800 409.5L807 401.5L813 394L818.5 389H821.5L824 388.5L839.5 379.5L840.5 378V375C840.5 374.5 838.5 372 838 371.5C837.6 371.1 835.833 371 835 371L829.5 368.5L833 363C834 363.667 836.1 365.1 836.5 365.5C836.9 365.9 838.667 362.667 839.5 361C838.333 359.333 835.8 355.8 835 355L834.5 354.5L832 356.5V349.5L834 348.5L843 361.5L839.5 367L842 370.5L841.5 373L843 375.5H845L848 373.5L855.5 368C858.833 366.333 865.6 363 866 363C866.4 363 866.833 360.667 867 359.5L866.5 357C867.833 356.833 870.7 356.5 871.5 356.5H876C877 356.5 882 354 882.5 353.5C882.9 353.1 887 351.667 889 351C892.833 350.5 900.7 349.5 901.5 349.5C902.3 349.5 905.5 350.833 907 351.5L913 353L913.5 350.5C911.167 349 906.4 345.9 906 345.5C905.6 345.1 909.167 343.667 911 343C911.667 343.333 913.1 344 913.5 344C913.9 344 916 346.333 917 347.5L921 349.5L923.5 349L929.5 350.5L934 352.5L936 349L939.5 343L947.5 334L953 331L956 327.5L955.5 325.5C955.5 324.667 955.4 322.9 955 322.5C954.6 322.1 955.5 322.333 956 322.5L960 322L961.5 318L959 316L958 313L955.5 311L953.5 312L955.5 316L955 319L950 317.5C949.333 317.667 947.5 318.2 945.5 319C943.5 319.8 942 320.667 941.5 321V319.5C942 319 943.2 317.9 944 317.5C944.8 317.1 945.333 316 945.5 315.5L942.5 310C942.667 308.833 942.9 306.2 942.5 305C942.1 303.8 941.333 303.167 941 303L939.5 305.5V307.5L937 311L934 313H929.5C928.7 313 920.5 316 916.5 317.5C917.5 318.833 919.6 321.6 920 322C920.5 322.5 914.5 320 914.5 319C914.5 318 908 323.5 907 324C906 324.5 903.5 322 902.5 321.5C901.5 321 898 321.5 897.5 321.5C897.1 321.5 890 317.5 886.5 315.5L880 306.5L877.5 300.5L874.5 296L877 294L881 299C883 301.167 887.1 305.7 887.5 306.5C887.9 307.3 893.333 311.167 896 313L902.5 317.5L906.5 315.5C909.167 313.667 914.6 310 915 310C915.4 310 919.833 306.667 922 305L930.5 297.5L933.5 293.5C929.167 292.833 920.3 291.5 919.5 291.5C918.7 291.5 918.167 291.167 918 291L916.5 293L916 290L918.5 287.5L920.5 289.5L923 288.5C924.5 287.667 927.7 285.9 928.5 285.5C929.5 285 932 285.5 933.5 285.5C934.7 285.5 933 284.167 932 283.5L928.5 281.5L927 280.5C928.667 280.5 932.4 280.6 934 281C935.6 281.4 936.667 279.833 937 279V273.5C935.167 272.167 931.1 269.4 929.5 269C927.9 268.6 925.5 268.167 924.5 268C924.167 268.5 923.5 269.9 923.5 271.5C923.5 273.5 926.5 273 927 273.5C927.4 273.9 924.5 274.667 923 275L922 268.5L921.5 266.5L916 265.5L908 268L906.5 266.5C908.833 265.667 913.7 264 914.5 264C915.5 264 905.5 261 904.5 261C903.5 261 900.5 258 900 257.5L898 255.5C896.833 255.333 894.3 255 893.5 255H890.5C889.833 254.167 888.4 252.5 888 252.5C887.5 252.5 885.5 254 884.5 254C883.5 254 884 253 883.5 251C883.1 249.4 881.667 249 881 249L873.5 243.5L875 241.5H876.5L883.5 248L899.5 251.5L901 248.5L904 254C904.833 254 907.1 254.2 909.5 255C912.5 256 920 255.5 921.5 255.5C923 255.5 920.5 257.5 919.5 258.5C918.7 259.3 923.167 258.833 925.5 258.5V251.5L924.5 246L921.5 244V241.5L919.5 237.5H921.5C921.9 237.5 924.333 238.5 925.5 239L931.5 241.5L937 239.5L939.5 238.5L938 245L937 246.5C936.833 246 936.4 245 936 245C935.6 245 932.833 244.333 931.5 244L927.5 245L928.5 251.5C931.167 254.333 936.6 260.1 937 260.5C937.4 260.9 938.833 261 939.5 261V258.5L942.5 260L944 259V256L945.5 254C946.333 254.667 948.2 256 949 256C949.8 256 949.333 258 949 259L949.5 262C950.333 262.833 952.2 264.5 953 264.5C953.8 264.5 953.333 262.167 953 261V258.5L955.5 262L960 264.5L965 266.5L973 267L976 266.5L980.5 264.5L985 260.5V255.5L986 254C986.5 254.333 987.7 255.2 988.5 256C989.5 257 990.5 255.5 991.5 255C992.3 254.6 991.833 253.167 991.5 252.5L992.5 245C994 243.833 997.1 241.5 997.5 241.5C997.9 241.5 1001 238.833 1002.5 237.5L1003 233.5L1005 228.5L1007.5 231.5L1009 235H1013C1013.4 235 1015.5 234.667 1016.5 234.5L1017.5 231C1018.67 230 1021.2 228 1022 228C1022.8 228 1021 225.333 1020 224L1017.5 221V218.5L1019.5 218L1022.5 218.5L1022 211.5C1021.67 207.333 1021 198.8 1021 198C1021 197.2 1017.33 189.667 1015.5 186L1010.5 181.5L1006.5 179C1004.83 179.5 1001.3 180.5 1000.5 180.5C999.5 180.5 997.5 183 997 183C996.6 183 999.833 185 1001.5 186L1005.5 183L1007.5 184C1008.33 184.833 1010.1 186.7 1010.5 187.5C1010.9 188.3 1007 187.833 1005 187.5L1000 186.5L996.5 189L993.5 192V199C993.5 199.4 992.833 205.167 992.5 208C992 211.5 990.9 218.6 990.5 219C990.1 219.4 989 222.5 988.5 224H985.5L980 220.5C981.833 220.667 985.6 221 986 221C986.4 221 986.833 220 987 219.5L986 215V209.5L985.5 204V196.5L987.5 191L990.5 187.5L990 186L984.5 188V183H990V182L988.5 180.5L983 177.5L975.5 178L963.5 180L957 182.5L958 184L962.5 187.5H959C958.6 187.5 955.167 186.5 953.5 186L949.5 182.5L945.5 180C943.333 181 938.8 183 938 183C937.2 183 933 184 931 184.5L926.5 185.5L919 186L915 185.5L910 193V189.5L911 184L913 180L915 175.5L910 165.5L907.5 157L909 150L913 138.5V135.5L906 128C909 130 915.1 134.1 915.5 134.5C915.9 134.9 915.667 136.333 915.5 137V143.5C915.5 143.9 913.5 146.333 912.5 147.5L911.5 153L912.5 158L915 162.5L915.5 169L917.5 171.5L923.5 170.5C925 172 928 175.1 928 175.5C928 175.9 934.667 175 938 174.5L946.5 168.5L945 165.5L943 161L947.5 165.5H952L958 163.5L950.5 160.5L942 153L945.5 154.5L950.5 158H955.5L963.5 162.5C964.333 162.667 966.1 163.1 966.5 163.5C966.9 163.9 968.667 162.667 969.5 162L967.5 158.5L962.5 152.5L967 155.5L971.5 160C971.9 160.4 974 159.167 975 158.5L980 159L984.5 156.5L983.5 150.5L975 142L968.5 136.5L969.5 135.5L979 136.5L980 142L986 146.5L988 151.5L990.5 153L998.5 154.5H1001.5L996 149L995.5 141.5L996 138.5L1001.5 145L1005.5 153.5L1006 159.5L1010 165L1015 166.5L1014 162L1010.5 153.5L1006.5 141.5L1002.5 130.5L1000.5 120.5H999.5L998.5 124H997.5L991.5 115.5L987.5 105.5L986 101L612.5 102.5H576H523.5L495 101L476 100L462 99.5Z" fill="#FFD597" stroke="black"/>
<path d="M1001 101L990 101.5V102.5L991.5 104L993 106V109.5L997 108.5L999 111L1002 107.5L1001 101Z" fill="#FFD597"/>
<path d="M1008 111L1007 101.5H1005V105L1004 109.5L1006 115.5L1008 119.5L1009.5 126.5L1010 132.5L1013 138.5L1014.5 144L1016.5 147L1018.5 152L1019.5 158V163L1020.5 164L1021.5 166V170L1023.5 173.5L1028 178L1034 186.5L1036 192L1036.5 197L1039.5 201.5L1042.5 204L1040.5 197.5L1036 186.5L1024 163C1020.5 152.833 1013.4 132.4 1013 132C1012.6 131.6 1011.5 126.833 1011 124.5L1009.5 117L1008 111Z" fill="#FFD597"/>
<path d="M1026 185.5L1024.5 189L1026.5 192L1029 195.5C1029.33 197.167 1030 200.6 1030 201C1030 201.4 1033 200.833 1034.5 200.5L1034 195.5L1030.5 190L1026 185.5Z" fill="#FFD597"/>
<path d="M1001 101L990 101.5V102.5L991.5 104L993 106V109.5L997 108.5L999 111L1002 107.5L1001 101Z" stroke="black"/>
<path d="M1008 111L1007 101.5H1005V105L1004 109.5L1006 115.5L1008 119.5L1009.5 126.5L1010 132.5L1013 138.5L1014.5 144L1016.5 147L1018.5 152L1019.5 158V163L1020.5 164L1021.5 166V170L1023.5 173.5L1028 178L1034 186.5L1036 192L1036.5 197L1039.5 201.5L1042.5 204L1040.5 197.5L1036 186.5L1024 163C1020.5 152.833 1013.4 132.4 1013 132C1012.6 131.6 1011.5 126.833 1011 124.5L1009.5 117L1008 111Z" stroke="black"/>
<path d="M1026 185.5L1024.5 189L1026.5 192L1029 195.5C1029.33 197.167 1030 200.6 1030 201C1030 201.4 1033 200.833 1034.5 200.5L1034 195.5L1030.5 190L1026 185.5Z" stroke="black"/>
</g>
<path d="M670.057 65.5455L674.599 79.2841H674.778L679.312 65.5455H682.79L676.636 83H672.733L666.588 65.5455H670.057ZM685.291 83H681.916L688.061 65.5455H691.964L698.118 83H694.743L690.081 69.125H689.945L685.291 83ZM685.402 76.1562H694.607V78.696H685.402V76.1562Z" fill="#005A5E"/>
<path d="M144.955 151.196V148.545H158.881V151.196H153.486V166H150.349V151.196H144.955ZM175.909 148.545V166H173.097L164.872 154.111H164.727V166H161.565V148.545H164.395L172.611 160.443H172.764V148.545H175.909Z" fill="#005A5E"/>
<path d="M117.415 367.119C117.273 366.659 117.077 366.247 116.827 365.884C116.582 365.514 116.287 365.199 115.94 364.938C115.599 364.676 115.207 364.48 114.764 364.349C114.321 364.213 113.838 364.145 113.315 364.145C112.378 364.145 111.543 364.381 110.81 364.852C110.077 365.324 109.5 366.017 109.08 366.932C108.665 367.841 108.457 368.949 108.457 370.256C108.457 371.574 108.665 372.69 109.08 373.605C109.494 374.52 110.071 375.216 110.81 375.693C111.548 376.165 112.406 376.401 113.384 376.401C114.27 376.401 115.037 376.23 115.685 375.889C116.338 375.548 116.841 375.065 117.193 374.44C117.545 373.81 117.722 373.071 117.722 372.224L118.438 372.335H113.699V369.864H120.781V371.96C120.781 373.455 120.463 374.747 119.827 375.838C119.19 376.929 118.315 377.77 117.202 378.361C116.088 378.946 114.81 379.239 113.366 379.239C111.759 379.239 110.347 378.878 109.131 378.156C107.92 377.429 106.974 376.398 106.293 375.062C105.616 373.722 105.278 372.131 105.278 370.29C105.278 368.881 105.477 367.622 105.875 366.514C106.278 365.406 106.841 364.466 107.562 363.693C108.284 362.915 109.131 362.324 110.102 361.92C111.074 361.511 112.131 361.307 113.273 361.307C114.239 361.307 115.139 361.449 115.974 361.733C116.81 362.011 117.551 362.409 118.199 362.926C118.852 363.443 119.389 364.057 119.81 364.767C120.23 365.477 120.506 366.261 120.636 367.119H117.415ZM125.541 379H122.166L128.311 361.545H132.214L138.368 379H134.993L130.331 365.125H130.195L125.541 379ZM125.652 372.156H134.857V374.696H125.652V372.156Z" fill="#005A5E"/>
<path d="M444.207 394.344C444.128 393.599 443.793 393.02 443.202 392.605C442.616 392.19 441.855 391.983 440.918 391.983C440.259 391.983 439.693 392.082 439.222 392.281C438.75 392.48 438.389 392.75 438.139 393.091C437.889 393.432 437.761 393.821 437.756 394.259C437.756 394.622 437.838 394.937 438.003 395.205C438.173 395.472 438.403 395.699 438.693 395.886C438.983 396.068 439.304 396.222 439.656 396.347C440.009 396.472 440.364 396.577 440.722 396.662L442.358 397.071C443.017 397.224 443.651 397.432 444.259 397.693C444.872 397.955 445.42 398.284 445.903 398.682C446.392 399.08 446.778 399.56 447.062 400.122C447.347 400.685 447.489 401.344 447.489 402.099C447.489 403.122 447.227 404.023 446.705 404.801C446.182 405.574 445.426 406.179 444.438 406.616C443.455 407.048 442.264 407.264 440.866 407.264C439.509 407.264 438.33 407.054 437.33 406.634C436.335 406.213 435.557 405.599 434.994 404.793C434.438 403.986 434.136 403.003 434.091 401.844H437.202C437.247 402.452 437.435 402.957 437.764 403.361C438.094 403.764 438.523 404.065 439.051 404.264C439.585 404.463 440.182 404.562 440.841 404.562C441.528 404.562 442.131 404.46 442.648 404.256C443.17 404.045 443.58 403.756 443.875 403.386C444.17 403.011 444.321 402.574 444.327 402.074C444.321 401.619 444.188 401.244 443.926 400.949C443.665 400.648 443.298 400.398 442.827 400.199C442.361 399.994 441.815 399.812 441.19 399.653L439.205 399.142C437.767 398.773 436.631 398.213 435.795 397.463C434.966 396.707 434.551 395.705 434.551 394.455C434.551 393.426 434.83 392.526 435.386 391.753C435.949 390.98 436.713 390.381 437.679 389.955C438.645 389.523 439.739 389.307 440.96 389.307C442.199 389.307 443.284 389.523 444.216 389.955C445.153 390.381 445.889 390.974 446.423 391.736C446.957 392.491 447.233 393.361 447.25 394.344H444.207ZM465.248 395.435H462.06C461.969 394.912 461.802 394.449 461.558 394.045C461.313 393.636 461.009 393.29 460.646 393.006C460.282 392.722 459.867 392.509 459.401 392.366C458.941 392.219 458.444 392.145 457.91 392.145C456.961 392.145 456.12 392.384 455.387 392.861C454.654 393.332 454.08 394.026 453.665 394.94C453.251 395.849 453.043 396.96 453.043 398.273C453.043 399.608 453.251 400.733 453.665 401.648C454.086 402.557 454.66 403.244 455.387 403.71C456.12 404.17 456.958 404.401 457.901 404.401C458.424 404.401 458.913 404.332 459.367 404.196C459.827 404.054 460.239 403.847 460.603 403.574C460.972 403.301 461.282 402.966 461.532 402.568C461.788 402.17 461.964 401.716 462.06 401.205L465.248 401.222C465.129 402.051 464.87 402.83 464.472 403.557C464.08 404.284 463.566 404.926 462.93 405.483C462.293 406.034 461.549 406.466 460.697 406.778C459.844 407.085 458.898 407.239 457.859 407.239C456.325 407.239 454.955 406.884 453.751 406.173C452.546 405.463 451.597 404.438 450.904 403.097C450.211 401.756 449.864 400.148 449.864 398.273C449.864 396.392 450.214 394.784 450.913 393.449C451.612 392.108 452.563 391.082 453.768 390.372C454.972 389.662 456.336 389.307 457.859 389.307C458.83 389.307 459.734 389.443 460.569 389.716C461.404 389.989 462.148 390.389 462.802 390.918C463.455 391.44 463.992 392.082 464.413 392.844C464.839 393.599 465.117 394.463 465.248 395.435Z" fill="#005A5E"/>
<circle cx="701.511" cy="207.511" r="9.01136" fill="#FF8F87" stroke="black"/>
<path d="M668.58 241V222.818H675.754C677.127 222.818 678.299 223.064 679.269 223.555C680.246 224.04 680.989 224.73 681.498 225.624C682.012 226.511 682.27 227.556 682.27 228.757C682.27 229.965 682.009 231.004 681.489 231.874C680.968 232.738 680.213 233.401 679.225 233.862C678.242 234.324 677.053 234.555 675.656 234.555H670.853V231.465H675.034C675.768 231.465 676.378 231.365 676.863 231.163C677.349 230.962 677.71 230.66 677.946 230.258C678.189 229.855 678.31 229.355 678.31 228.757C678.31 228.154 678.189 227.645 677.946 227.23C677.71 226.816 677.346 226.502 676.854 226.289C676.369 226.07 675.757 225.961 675.017 225.961H672.424V241H668.58ZM678.399 232.726L682.918 241H678.674L674.253 232.726H678.399ZM688.804 241.257C687.934 241.257 687.159 241.107 686.478 240.805C685.797 240.497 685.259 240.044 684.862 239.446C684.472 238.843 684.276 238.091 684.276 237.191C684.276 236.434 684.415 235.798 684.694 235.283C684.972 234.768 685.35 234.353 685.83 234.04C686.309 233.726 686.854 233.489 687.463 233.33C688.079 233.17 688.724 233.057 689.399 232.992C690.192 232.909 690.831 232.832 691.316 232.761C691.802 232.684 692.154 232.572 692.373 232.424C692.592 232.276 692.701 232.057 692.701 231.767V231.714C692.701 231.152 692.524 230.717 692.169 230.409C691.819 230.101 691.322 229.947 690.677 229.947C689.997 229.947 689.455 230.098 689.053 230.4C688.65 230.696 688.384 231.069 688.254 231.518L684.756 231.234C684.933 230.406 685.282 229.69 685.803 229.086C686.324 228.476 686.996 228.009 687.819 227.683C688.647 227.352 689.606 227.186 690.695 227.186C691.453 227.186 692.178 227.275 692.87 227.452C693.568 227.63 694.187 227.905 694.725 228.278C695.27 228.651 695.699 229.13 696.013 229.716C696.326 230.296 696.483 230.992 696.483 231.803V241H692.897V239.109H692.79C692.571 239.535 692.278 239.911 691.911 240.237C691.544 240.556 691.103 240.808 690.588 240.991C690.074 241.169 689.479 241.257 688.804 241.257ZM689.887 238.647C690.443 238.647 690.935 238.538 691.361 238.319C691.787 238.094 692.121 237.792 692.364 237.413C692.607 237.035 692.728 236.605 692.728 236.126V234.679C692.61 234.756 692.447 234.827 692.24 234.892C692.038 234.951 691.811 235.007 691.556 235.061C691.302 235.108 691.047 235.152 690.793 235.194C690.538 235.229 690.307 235.262 690.1 235.292C689.656 235.357 689.269 235.46 688.937 235.602C688.606 235.744 688.348 235.937 688.165 236.179C687.981 236.416 687.89 236.712 687.89 237.067C687.89 237.582 688.076 237.976 688.449 238.248C688.828 238.514 689.307 238.647 689.887 238.647ZM703.199 222.818V241H699.417V222.818H703.199ZM712.443 241.266C711.041 241.266 709.833 240.982 708.821 240.414C707.815 239.84 707.04 239.029 706.495 237.982C705.951 236.928 705.679 235.682 705.679 234.244C705.679 232.841 705.951 231.61 706.495 230.551C707.04 229.491 707.806 228.666 708.795 228.074C709.789 227.482 710.955 227.186 712.293 227.186C713.192 227.186 714.03 227.331 714.805 227.621C715.586 227.905 716.267 228.334 716.847 228.908C717.433 229.482 717.889 230.205 718.214 231.075C718.54 231.939 718.702 232.951 718.702 234.111V235.15H707.188V232.806H715.142C715.142 232.261 715.024 231.779 714.787 231.359C714.55 230.938 714.222 230.61 713.802 230.373C713.387 230.131 712.905 230.009 712.355 230.009C711.781 230.009 711.272 230.142 710.828 230.409C710.39 230.669 710.046 231.021 709.798 231.465C709.549 231.903 709.422 232.391 709.416 232.93V235.158C709.416 235.833 709.54 236.416 709.789 236.907C710.043 237.399 710.402 237.777 710.863 238.044C711.325 238.31 711.872 238.443 712.506 238.443C712.926 238.443 713.311 238.384 713.66 238.266C714.009 238.147 714.308 237.97 714.556 237.733C714.805 237.496 714.994 237.206 715.125 236.863L718.622 237.094C718.445 237.934 718.081 238.668 717.53 239.295C716.986 239.917 716.282 240.402 715.418 240.751C714.559 241.095 713.568 241.266 712.443 241.266ZM721.17 241V227.364H724.952V241H721.17ZM723.07 225.606C722.508 225.606 722.026 225.419 721.623 225.047C721.227 224.668 721.028 224.215 721.028 223.688C721.028 223.167 721.227 222.721 721.623 222.348C722.026 221.969 722.508 221.779 723.07 221.779C723.632 221.779 724.112 221.969 724.508 222.348C724.911 222.721 725.112 223.167 725.112 223.688C725.112 224.215 724.911 224.668 724.508 225.047C724.112 225.419 723.632 225.606 723.07 225.606ZM734.125 246.398C732.9 246.398 731.85 246.229 730.974 245.892C730.104 245.56 729.411 245.107 728.896 244.533C728.381 243.959 728.047 243.314 727.893 242.598L731.391 242.127C731.498 242.4 731.666 242.654 731.897 242.891C732.128 243.128 732.433 243.317 732.811 243.459C733.196 243.607 733.664 243.681 734.214 243.681C735.037 243.681 735.714 243.48 736.247 243.077C736.786 242.681 737.055 242.015 737.055 241.08V238.585H736.895C736.73 238.964 736.481 239.322 736.15 239.659C735.818 239.997 735.392 240.272 734.871 240.485C734.35 240.698 733.729 240.805 733.007 240.805C731.983 240.805 731.051 240.568 730.21 240.094C729.376 239.615 728.71 238.884 728.213 237.902C727.721 236.913 727.476 235.664 727.476 234.155C727.476 232.61 727.727 231.32 728.23 230.284C728.734 229.249 729.402 228.473 730.237 227.958C731.077 227.444 731.998 227.186 732.998 227.186C733.761 227.186 734.401 227.316 734.915 227.577C735.43 227.831 735.845 228.151 736.158 228.536C736.478 228.914 736.724 229.287 736.895 229.654H737.037V227.364H740.793V241.133C740.793 242.293 740.509 243.264 739.94 244.045C739.372 244.826 738.585 245.412 737.579 245.803C736.579 246.199 735.427 246.398 734.125 246.398ZM734.205 237.964C734.815 237.964 735.33 237.813 735.75 237.511C736.176 237.203 736.502 236.765 736.727 236.197C736.957 235.623 737.073 234.936 737.073 234.137C737.073 233.338 736.96 232.646 736.735 232.06C736.511 231.468 736.185 231.009 735.759 230.684C735.333 230.358 734.815 230.196 734.205 230.196C733.584 230.196 733.06 230.364 732.634 230.702C732.208 231.033 731.885 231.495 731.666 232.087C731.447 232.679 731.338 233.362 731.338 234.137C731.338 234.925 731.447 235.605 731.666 236.179C731.891 236.748 732.214 237.188 732.634 237.502C733.06 237.81 733.584 237.964 734.205 237.964ZM747.584 233.116V241H743.802V222.818H747.478V229.77H747.637C747.945 228.965 748.442 228.334 749.129 227.879C749.815 227.417 750.677 227.186 751.712 227.186C752.659 227.186 753.485 227.393 754.189 227.808C754.9 228.216 755.45 228.805 755.841 229.574C756.237 230.338 756.432 231.252 756.426 232.317V241H752.645V232.992C752.65 232.152 752.437 231.498 752.005 231.03C751.579 230.563 750.981 230.329 750.212 230.329C749.697 230.329 749.241 230.438 748.845 230.657C748.454 230.876 748.146 231.196 747.922 231.616C747.703 232.03 747.59 232.531 747.584 233.116Z" fill="black"/>
<path d="M410.832 252.5H408.631C408.5 251.867 408.273 251.31 407.947 250.831C407.627 250.352 407.237 249.949 406.775 249.624C406.319 249.292 405.813 249.044 405.257 248.878C404.701 248.712 404.121 248.629 403.517 248.629C402.416 248.629 401.419 248.907 400.525 249.464C399.637 250.02 398.93 250.84 398.403 251.923C397.883 253.006 397.622 254.335 397.622 255.909C397.622 257.483 397.883 258.812 398.403 259.895C398.93 260.978 399.637 261.798 400.525 262.354C401.419 262.911 402.416 263.189 403.517 263.189C404.121 263.189 404.701 263.106 405.257 262.94C405.813 262.775 406.319 262.529 406.775 262.203C407.237 261.872 407.627 261.467 407.947 260.987C408.273 260.502 408.5 259.946 408.631 259.318H410.832C410.667 260.247 410.365 261.079 409.927 261.813C409.489 262.547 408.944 263.171 408.293 263.686C407.642 264.195 406.911 264.583 406.1 264.849C405.296 265.115 404.434 265.249 403.517 265.249C401.966 265.249 400.587 264.87 399.38 264.112C398.173 263.355 397.223 262.277 396.53 260.881C395.838 259.484 395.491 257.827 395.491 255.909C395.491 253.991 395.838 252.334 396.53 250.938C397.223 249.541 398.173 248.464 399.38 247.706C400.587 246.948 401.966 246.57 403.517 246.57C404.434 246.57 405.296 246.703 406.1 246.969C406.911 247.235 407.642 247.626 408.293 248.141C408.944 248.65 409.489 249.271 409.927 250.005C410.365 250.733 410.667 251.565 410.832 252.5ZM416.201 256.797V265H414.106V246.818H416.201V253.494H416.379C416.698 252.79 417.178 252.231 417.817 251.816C418.462 251.396 419.32 251.186 420.392 251.186C421.321 251.186 422.135 251.373 422.833 251.745C423.531 252.112 424.073 252.678 424.458 253.441C424.848 254.199 425.044 255.163 425.044 256.335V265H422.948V256.477C422.948 255.394 422.667 254.557 422.105 253.965C421.549 253.367 420.776 253.068 419.788 253.068C419.101 253.068 418.486 253.213 417.941 253.503C417.403 253.793 416.977 254.216 416.663 254.773C416.355 255.329 416.201 256.004 416.201 256.797ZM432.889 265.32C432.025 265.32 431.241 265.157 430.537 264.831C429.832 264.5 429.273 264.023 428.859 263.402C428.445 262.775 428.237 262.017 428.237 261.129C428.237 260.348 428.391 259.715 428.699 259.229C429.007 258.738 429.418 258.353 429.933 258.075C430.448 257.797 431.016 257.59 431.638 257.454C432.265 257.312 432.895 257.199 433.529 257.116C434.357 257.01 435.029 256.93 435.544 256.877C436.065 256.818 436.443 256.72 436.68 256.584C436.923 256.448 437.044 256.211 437.044 255.874V255.803C437.044 254.927 436.805 254.246 436.325 253.761C435.852 253.275 435.133 253.033 434.168 253.033C433.168 253.033 432.383 253.252 431.815 253.69C431.247 254.128 430.847 254.595 430.617 255.092L428.628 254.382C428.983 253.554 429.457 252.908 430.048 252.447C430.646 251.979 431.297 251.654 432.002 251.47C432.712 251.281 433.41 251.186 434.097 251.186C434.535 251.186 435.038 251.239 435.606 251.346C436.18 251.446 436.733 251.657 437.266 251.976C437.805 252.296 438.252 252.778 438.607 253.423C438.962 254.068 439.139 254.933 439.139 256.016V265H437.044V263.153H436.938C436.796 263.449 436.559 263.766 436.227 264.103C435.896 264.441 435.455 264.728 434.905 264.964C434.354 265.201 433.682 265.32 432.889 265.32ZM433.209 263.438C434.038 263.438 434.736 263.275 435.304 262.949C435.878 262.624 436.31 262.203 436.6 261.689C436.896 261.174 437.044 260.632 437.044 260.064V258.146C436.955 258.253 436.76 258.35 436.458 258.439C436.162 258.522 435.819 258.596 435.428 258.661C435.044 258.72 434.668 258.774 434.301 258.821C433.94 258.862 433.647 258.898 433.422 258.928C432.878 258.999 432.369 259.114 431.895 259.274C431.427 259.428 431.049 259.661 430.759 259.975C430.475 260.283 430.333 260.703 430.333 261.236C430.333 261.964 430.602 262.514 431.14 262.887C431.685 263.254 432.374 263.438 433.209 263.438ZM442.964 265V251.364H444.988V253.423H445.13C445.378 252.749 445.828 252.201 446.479 251.781C447.13 251.361 447.864 251.151 448.681 251.151C448.835 251.151 449.027 251.154 449.258 251.159C449.489 251.165 449.663 251.174 449.782 251.186V253.317C449.711 253.299 449.548 253.272 449.293 253.237C449.045 253.195 448.781 253.175 448.503 253.175C447.84 253.175 447.249 253.314 446.728 253.592C446.213 253.864 445.804 254.243 445.503 254.728C445.207 255.208 445.059 255.755 445.059 256.371V265H442.964ZM454.36 246.818V265H452.265V246.818H454.36ZM463.738 265.284C462.507 265.284 461.426 264.991 460.497 264.405C459.574 263.819 458.852 263 458.331 261.946C457.816 260.893 457.559 259.661 457.559 258.253C457.559 256.832 457.816 255.592 458.331 254.533C458.852 253.474 459.574 252.651 460.497 252.065C461.426 251.479 462.507 251.186 463.738 251.186C464.969 251.186 466.046 251.479 466.969 252.065C467.898 252.651 468.62 253.474 469.135 254.533C469.656 255.592 469.917 256.832 469.917 258.253C469.917 259.661 469.656 260.893 469.135 261.946C468.62 263 467.898 263.819 466.969 264.405C466.046 264.991 464.969 265.284 463.738 265.284ZM463.738 263.402C464.673 263.402 465.442 263.162 466.046 262.683C466.65 262.203 467.096 261.573 467.386 260.792C467.676 260.011 467.821 259.164 467.821 258.253C467.821 257.341 467.676 256.492 467.386 255.705C467.096 254.918 466.65 254.281 466.046 253.796C465.442 253.311 464.673 253.068 463.738 253.068C462.803 253.068 462.033 253.311 461.429 253.796C460.826 254.281 460.379 254.918 460.089 255.705C459.799 256.492 459.654 257.341 459.654 258.253C459.654 259.164 459.799 260.011 460.089 260.792C460.379 261.573 460.826 262.203 461.429 262.683C462.033 263.162 462.803 263.402 463.738 263.402ZM479.045 251.364V253.139H471.979V251.364H479.045ZM474.038 248.097H476.133V261.094C476.133 261.686 476.219 262.129 476.391 262.425C476.568 262.715 476.793 262.911 477.066 263.011C477.344 263.106 477.637 263.153 477.944 263.153C478.175 263.153 478.365 263.142 478.513 263.118C478.661 263.088 478.779 263.065 478.868 263.047L479.294 264.929C479.152 264.982 478.954 265.036 478.699 265.089C478.445 265.148 478.122 265.178 477.731 265.178C477.14 265.178 476.559 265.05 475.991 264.796C475.429 264.541 474.961 264.154 474.589 263.633C474.222 263.112 474.038 262.455 474.038 261.662V248.097ZM488.127 251.364V253.139H481.061V251.364H488.127ZM483.12 248.097H485.215V261.094C485.215 261.686 485.301 262.129 485.473 262.425C485.65 262.715 485.875 262.911 486.148 263.011C486.426 263.106 486.719 263.153 487.026 263.153C487.257 263.153 487.447 263.142 487.595 263.118C487.743 263.088 487.861 263.065 487.95 263.047L488.376 264.929C488.234 264.982 488.036 265.036 487.781 265.089C487.527 265.148 487.204 265.178 486.813 265.178C486.222 265.178 485.642 265.05 485.073 264.796C484.511 264.541 484.044 264.154 483.671 263.633C483.304 263.112 483.12 262.455 483.12 261.662V248.097ZM496.85 265.284C495.536 265.284 494.402 264.994 493.45 264.414C492.503 263.828 491.772 263.011 491.257 261.964C490.748 260.91 490.493 259.685 490.493 258.288C490.493 256.892 490.748 255.661 491.257 254.595C491.772 253.524 492.488 252.689 493.405 252.092C494.328 251.488 495.406 251.186 496.637 251.186C497.347 251.186 498.048 251.304 498.741 251.541C499.433 251.778 500.064 252.163 500.632 252.695C501.2 253.222 501.653 253.92 501.99 254.79C502.327 255.661 502.496 256.732 502.496 258.004V258.892H491.985V257.081H500.365C500.365 256.312 500.212 255.625 499.904 255.021C499.602 254.418 499.17 253.941 498.608 253.592C498.051 253.243 497.394 253.068 496.637 253.068C495.802 253.068 495.08 253.275 494.471 253.69C493.867 254.098 493.402 254.631 493.077 255.288C492.751 255.945 492.588 256.649 492.588 257.401V258.608C492.588 259.638 492.766 260.511 493.121 261.227C493.482 261.937 493.982 262.479 494.621 262.852C495.261 263.219 496.003 263.402 496.85 263.402C497.4 263.402 497.897 263.325 498.341 263.171C498.791 263.011 499.179 262.775 499.504 262.461C499.83 262.141 500.081 261.745 500.259 261.271L502.283 261.839C502.07 262.526 501.712 263.13 501.209 263.651C500.706 264.165 500.084 264.568 499.344 264.858C498.605 265.142 497.773 265.284 496.85 265.284Z" fill="black"/>
<path d="M517.631 187.5C517.435 186.902 517.178 186.367 516.858 185.893C516.545 185.414 516.169 185.005 515.731 184.668C515.299 184.331 514.808 184.073 514.257 183.896C513.707 183.718 513.103 183.629 512.446 183.629C511.369 183.629 510.389 183.907 509.507 184.464C508.626 185.02 507.924 185.84 507.403 186.923C506.883 188.006 506.622 189.335 506.622 190.909C506.622 192.483 506.886 193.812 507.412 194.895C507.939 195.978 508.652 196.798 509.552 197.354C510.451 197.911 511.464 198.189 512.588 198.189C513.63 198.189 514.547 197.967 515.34 197.523C516.139 197.073 516.761 196.44 517.205 195.623C517.654 194.801 517.879 193.833 517.879 192.72L518.554 192.862H513.085V190.909H520.01V192.862C520.01 194.36 519.69 195.662 519.051 196.768C518.418 197.875 517.542 198.733 516.423 199.343C515.311 199.947 514.032 200.249 512.588 200.249C510.978 200.249 509.564 199.87 508.344 199.112C507.131 198.355 506.184 197.277 505.504 195.881C504.829 194.484 504.491 192.827 504.491 190.909C504.491 189.471 504.684 188.178 505.069 187.029C505.459 185.875 506.01 184.893 506.72 184.082C507.43 183.271 508.27 182.65 509.241 182.218C510.212 181.786 511.28 181.57 512.446 181.57C513.405 181.57 514.299 181.715 515.127 182.005C515.962 182.289 516.704 182.694 517.355 183.221C518.012 183.742 518.56 184.366 518.998 185.094C519.436 185.816 519.738 186.618 519.903 187.5H517.631ZM523.497 200V186.364H525.521V188.423H525.663C525.911 187.749 526.361 187.201 527.012 186.781C527.663 186.361 528.397 186.151 529.214 186.151C529.368 186.151 529.56 186.154 529.791 186.159C530.022 186.165 530.197 186.174 530.315 186.186V188.317C530.244 188.299 530.081 188.272 529.827 188.237C529.578 188.195 529.315 188.175 529.036 188.175C528.374 188.175 527.782 188.314 527.261 188.592C526.746 188.864 526.338 189.243 526.036 189.728C525.74 190.208 525.592 190.755 525.592 191.371V200H523.497ZM538.101 200.284C536.787 200.284 535.653 199.994 534.701 199.414C533.754 198.828 533.023 198.011 532.508 196.964C531.999 195.91 531.744 194.685 531.744 193.288C531.744 191.892 531.999 190.661 532.508 189.595C533.023 188.524 533.739 187.689 534.656 187.092C535.579 186.488 536.657 186.186 537.888 186.186C538.598 186.186 539.299 186.304 539.992 186.541C540.684 186.778 541.315 187.163 541.883 187.695C542.451 188.222 542.904 188.92 543.241 189.79C543.578 190.661 543.747 191.732 543.747 193.004V193.892H533.236V192.081H541.616C541.616 191.312 541.463 190.625 541.155 190.021C540.853 189.418 540.421 188.941 539.859 188.592C539.302 188.243 538.645 188.068 537.888 188.068C537.053 188.068 536.331 188.275 535.722 188.69C535.118 189.098 534.653 189.631 534.328 190.288C534.002 190.945 533.839 191.649 533.839 192.401V193.608C533.839 194.638 534.017 195.511 534.372 196.227C534.733 196.937 535.233 197.479 535.872 197.852C536.512 198.219 537.254 198.402 538.101 198.402C538.651 198.402 539.148 198.325 539.592 198.171C540.042 198.011 540.43 197.775 540.755 197.461C541.081 197.141 541.332 196.745 541.51 196.271L543.534 196.839C543.321 197.526 542.963 198.13 542.46 198.651C541.957 199.165 541.335 199.568 540.595 199.858C539.856 200.142 539.024 200.284 538.101 200.284ZM552.652 200.284C551.338 200.284 550.204 199.994 549.251 199.414C548.304 198.828 547.573 198.011 547.059 196.964C546.55 195.91 546.295 194.685 546.295 193.288C546.295 191.892 546.55 190.661 547.059 189.595C547.573 188.524 548.29 187.689 549.207 187.092C550.13 186.488 551.207 186.186 552.438 186.186C553.149 186.186 553.85 186.304 554.543 186.541C555.235 186.778 555.865 187.163 556.434 187.695C557.002 188.222 557.454 188.92 557.792 189.79C558.129 190.661 558.298 191.732 558.298 193.004V193.892H547.786V192.081H556.167C556.167 191.312 556.013 190.625 555.706 190.021C555.404 189.418 554.972 188.941 554.409 188.592C553.853 188.243 553.196 188.068 552.438 188.068C551.604 188.068 550.882 188.275 550.272 188.69C549.669 189.098 549.204 189.631 548.878 190.288C548.553 190.945 548.39 191.649 548.39 192.401V193.608C548.39 194.638 548.568 195.511 548.923 196.227C549.284 196.937 549.784 197.479 550.423 197.852C551.062 198.219 551.805 198.402 552.652 198.402C553.202 198.402 553.699 198.325 554.143 198.171C554.593 198.011 554.98 197.775 555.306 197.461C555.632 197.141 555.883 196.745 556.061 196.271L558.085 196.839C557.872 197.526 557.514 198.13 557.011 198.651C556.507 199.165 555.886 199.568 555.146 199.858C554.406 200.142 553.575 200.284 552.652 200.284ZM563.58 191.797V200H561.485V186.364H563.509V188.494H563.687C564.006 187.802 564.492 187.246 565.143 186.825C565.794 186.399 566.634 186.186 567.664 186.186C568.587 186.186 569.395 186.375 570.088 186.754C570.78 187.127 571.319 187.695 571.703 188.459C572.088 189.216 572.28 190.175 572.28 191.335V200H570.185V191.477C570.185 190.406 569.907 189.571 569.351 188.974C568.794 188.37 568.031 188.068 567.06 188.068C566.391 188.068 565.794 188.213 565.267 188.503C564.746 188.793 564.335 189.216 564.033 189.773C563.731 190.329 563.58 191.004 563.58 191.797ZM585.768 189.418L583.886 189.95C583.768 189.637 583.593 189.332 583.362 189.036C583.137 188.734 582.83 188.485 582.439 188.29C582.048 188.095 581.548 187.997 580.939 187.997C580.104 187.997 579.409 188.19 578.852 188.574C578.302 188.953 578.027 189.435 578.027 190.021C578.027 190.542 578.216 190.953 578.595 191.255C578.974 191.557 579.565 191.809 580.37 192.01L582.395 192.507C583.614 192.803 584.522 193.256 585.12 193.865C585.718 194.469 586.017 195.247 586.017 196.2C586.017 196.982 585.792 197.68 585.342 198.295C584.898 198.911 584.277 199.396 583.478 199.751C582.679 200.107 581.749 200.284 580.69 200.284C579.299 200.284 578.148 199.982 577.237 199.379C576.325 198.775 575.748 197.893 575.505 196.733L577.494 196.236C577.683 196.97 578.041 197.52 578.568 197.887C579.101 198.254 579.796 198.438 580.654 198.438C581.631 198.438 582.406 198.23 582.98 197.816C583.56 197.396 583.85 196.893 583.85 196.307C583.85 195.833 583.685 195.437 583.353 195.117C583.022 194.792 582.513 194.549 581.826 194.389L579.554 193.857C578.305 193.561 577.387 193.102 576.801 192.48C576.221 191.853 575.931 191.069 575.931 190.128C575.931 189.358 576.147 188.678 576.58 188.086C577.018 187.494 577.612 187.029 578.364 186.692C579.122 186.355 579.98 186.186 580.939 186.186C582.288 186.186 583.347 186.482 584.117 187.074C584.892 187.666 585.443 188.447 585.768 189.418ZM589.455 200V181.818H591.55V188.53H591.727C591.881 188.293 592.094 187.991 592.367 187.624C592.645 187.251 593.041 186.92 593.556 186.63C594.077 186.334 594.781 186.186 595.669 186.186C596.817 186.186 597.829 186.473 598.705 187.047C599.581 187.621 600.265 188.435 600.756 189.489C601.247 190.542 601.493 191.785 601.493 193.217C601.493 194.661 601.247 195.913 600.756 196.973C600.265 198.026 599.584 198.843 598.714 199.423C597.844 199.997 596.841 200.284 595.705 200.284C594.829 200.284 594.127 200.139 593.601 199.849C593.074 199.553 592.668 199.219 592.384 198.846C592.1 198.467 591.881 198.153 591.727 197.905H591.479V200H589.455ZM591.514 193.182C591.514 194.212 591.665 195.12 591.967 195.907C592.269 196.689 592.71 197.301 593.29 197.745C593.87 198.183 594.58 198.402 595.421 198.402C596.296 198.402 597.027 198.171 597.613 197.71C598.205 197.242 598.649 196.615 598.945 195.827C599.247 195.034 599.398 194.152 599.398 193.182C599.398 192.223 599.25 191.359 598.954 190.589C598.664 189.814 598.223 189.202 597.631 188.752C597.045 188.296 596.308 188.068 595.421 188.068C594.568 188.068 593.852 188.284 593.272 188.716C592.692 189.142 592.254 189.74 591.958 190.51C591.662 191.273 591.514 192.164 591.514 193.182ZM610.238 200.284C609.007 200.284 607.926 199.991 606.997 199.405C606.074 198.819 605.352 198 604.831 196.946C604.316 195.893 604.059 194.661 604.059 193.253C604.059 191.832 604.316 190.592 604.831 189.533C605.352 188.474 606.074 187.651 606.997 187.065C607.926 186.479 609.007 186.186 610.238 186.186C611.469 186.186 612.546 186.479 613.469 187.065C614.398 187.651 615.12 188.474 615.635 189.533C616.156 190.592 616.417 191.832 616.417 193.253C616.417 194.661 616.156 195.893 615.635 196.946C615.12 198 614.398 198.819 613.469 199.405C612.546 199.991 611.469 200.284 610.238 200.284ZM610.238 198.402C611.173 198.402 611.942 198.162 612.546 197.683C613.15 197.203 613.596 196.573 613.886 195.792C614.176 195.011 614.321 194.164 614.321 193.253C614.321 192.341 614.176 191.492 613.886 190.705C613.596 189.918 613.15 189.281 612.546 188.796C611.942 188.311 611.173 188.068 610.238 188.068C609.303 188.068 608.533 188.311 607.929 188.796C607.326 189.281 606.879 189.918 606.589 190.705C606.299 191.492 606.154 192.341 606.154 193.253C606.154 194.164 606.299 195.011 606.589 195.792C606.879 196.573 607.326 197.203 607.929 197.683C608.533 198.162 609.303 198.402 610.238 198.402ZM619.615 200V186.364H621.639V188.423H621.781C622.03 187.749 622.479 187.201 623.131 186.781C623.782 186.361 624.515 186.151 625.332 186.151C625.486 186.151 625.678 186.154 625.909 186.159C626.14 186.165 626.315 186.174 626.433 186.186V188.317C626.362 188.299 626.199 188.272 625.945 188.237C625.696 188.195 625.433 188.175 625.155 188.175C624.492 188.175 623.9 188.314 623.379 188.592C622.864 188.864 622.456 189.243 622.154 189.728C621.858 190.208 621.71 190.755 621.71 191.371V200H619.615ZM634.041 200.284C632.81 200.284 631.73 199.991 630.801 199.405C629.878 198.819 629.156 198 628.635 196.946C628.12 195.893 627.862 194.661 627.862 193.253C627.862 191.832 628.12 190.592 628.635 189.533C629.156 188.474 629.878 187.651 630.801 187.065C631.73 186.479 632.81 186.186 634.041 186.186C635.272 186.186 636.35 186.479 637.273 187.065C638.202 187.651 638.924 188.474 639.439 189.533C639.96 190.592 640.22 191.832 640.22 193.253C640.22 194.661 639.96 195.893 639.439 196.946C638.924 198 638.202 198.819 637.273 199.405C636.35 199.991 635.272 200.284 634.041 200.284ZM634.041 198.402C634.977 198.402 635.746 198.162 636.35 197.683C636.953 197.203 637.4 196.573 637.69 195.792C637.98 195.011 638.125 194.164 638.125 193.253C638.125 192.341 637.98 191.492 637.69 190.705C637.4 189.918 636.953 189.281 636.35 188.796C635.746 188.311 634.977 188.068 634.041 188.068C633.106 188.068 632.337 188.311 631.733 188.796C631.129 189.281 630.683 189.918 630.393 190.705C630.103 191.492 629.958 192.341 629.958 193.253C629.958 194.164 630.103 195.011 630.393 195.792C630.683 196.573 631.129 197.203 631.733 197.683C632.337 198.162 633.106 198.402 634.041 198.402Z" fill="black"/>
<path d="M548.202 338V319.818H559.104V321.771H550.403V327.915H558.287V329.868H550.403V338H548.202ZM566.603 338.32C565.739 338.32 564.955 338.157 564.251 337.831C563.546 337.5 562.987 337.023 562.573 336.402C562.158 335.775 561.951 335.017 561.951 334.129C561.951 333.348 562.105 332.715 562.413 332.229C562.721 331.738 563.132 331.353 563.647 331.075C564.162 330.797 564.73 330.59 565.351 330.454C565.979 330.312 566.609 330.199 567.242 330.116C568.071 330.01 568.743 329.93 569.258 329.877C569.779 329.818 570.157 329.72 570.394 329.584C570.637 329.448 570.758 329.211 570.758 328.874V328.803C570.758 327.927 570.518 327.246 570.039 326.761C569.565 326.275 568.846 326.033 567.882 326.033C566.881 326.033 566.097 326.252 565.529 326.69C564.961 327.128 564.561 327.595 564.331 328.092L562.342 327.382C562.697 326.554 563.17 325.908 563.762 325.447C564.36 324.979 565.011 324.654 565.715 324.47C566.426 324.281 567.124 324.186 567.811 324.186C568.249 324.186 568.752 324.239 569.32 324.346C569.894 324.446 570.447 324.657 570.98 324.976C571.519 325.296 571.965 325.778 572.321 326.423C572.676 327.068 572.853 327.933 572.853 329.016V338H570.758V336.153H570.652C570.509 336.449 570.273 336.766 569.941 337.103C569.61 337.441 569.169 337.728 568.619 337.964C568.068 338.201 567.396 338.32 566.603 338.32ZM566.923 336.438C567.751 336.438 568.45 336.275 569.018 335.949C569.592 335.624 570.024 335.203 570.314 334.689C570.61 334.174 570.758 333.632 570.758 333.064V331.146C570.669 331.253 570.474 331.35 570.172 331.439C569.876 331.522 569.533 331.596 569.142 331.661C568.758 331.72 568.382 331.774 568.015 331.821C567.654 331.862 567.361 331.898 567.136 331.928C566.591 331.999 566.082 332.114 565.609 332.274C565.141 332.428 564.763 332.661 564.473 332.975C564.188 333.283 564.046 333.703 564.046 334.236C564.046 334.964 564.316 335.514 564.854 335.887C565.399 336.254 566.088 336.438 566.923 336.438ZM577.539 343.114C577.183 343.114 576.867 343.084 576.589 343.025C576.31 342.972 576.118 342.918 576.012 342.865L576.544 341.018C577.053 341.149 577.503 341.196 577.894 341.161C578.284 341.125 578.631 340.95 578.932 340.637C579.24 340.329 579.521 339.829 579.776 339.136L580.166 338.071L575.124 324.364H577.396L581.161 335.23H581.303L585.067 324.364H587.34L581.551 339.989C581.291 340.693 580.968 341.276 580.584 341.738C580.199 342.205 579.752 342.551 579.243 342.776C578.74 343.001 578.172 343.114 577.539 343.114ZM595.334 338.284C594.02 338.284 592.887 337.994 591.934 337.414C590.987 336.828 590.256 336.011 589.741 334.964C589.232 333.91 588.978 332.685 588.978 331.288C588.978 329.892 589.232 328.661 589.741 327.595C590.256 326.524 590.972 325.689 591.89 325.092C592.813 324.488 593.89 324.186 595.121 324.186C595.831 324.186 596.533 324.304 597.225 324.541C597.918 324.778 598.548 325.163 599.116 325.695C599.684 326.222 600.137 326.92 600.474 327.79C600.812 328.661 600.98 329.732 600.98 331.004V331.892H590.469V330.081H598.85C598.85 329.312 598.696 328.625 598.388 328.021C598.086 327.418 597.654 326.941 597.092 326.592C596.536 326.243 595.879 326.068 595.121 326.068C594.287 326.068 593.565 326.275 592.955 326.69C592.351 327.098 591.887 327.631 591.561 328.288C591.236 328.945 591.073 329.649 591.073 330.401V331.608C591.073 332.638 591.25 333.511 591.605 334.227C591.967 334.937 592.467 335.479 593.106 335.852C593.745 336.219 594.488 336.402 595.334 336.402C595.885 336.402 596.382 336.325 596.826 336.171C597.275 336.011 597.663 335.775 597.989 335.461C598.314 335.141 598.566 334.745 598.743 334.271L600.767 334.839C600.554 335.526 600.196 336.13 599.693 336.651C599.19 337.165 598.569 337.568 597.829 337.858C597.089 338.142 596.257 338.284 595.334 338.284ZM610.098 324.364V326.139H603.031V324.364H610.098ZM605.091 321.097H607.186V334.094C607.186 334.686 607.272 335.129 607.444 335.425C607.621 335.715 607.846 335.911 608.118 336.011C608.396 336.106 608.689 336.153 608.997 336.153C609.228 336.153 609.417 336.142 609.565 336.118C609.713 336.088 609.832 336.065 609.92 336.047L610.347 337.929C610.205 337.982 610.006 338.036 609.752 338.089C609.497 338.148 609.175 338.178 608.784 338.178C608.192 338.178 607.612 338.05 607.044 337.796C606.482 337.541 606.014 337.154 605.641 336.633C605.274 336.112 605.091 335.455 605.091 334.662V321.097ZM619.18 324.364V326.139H612.113V324.364H619.18ZM614.173 321.097H616.268V334.094C616.268 334.686 616.354 335.129 616.526 335.425C616.703 335.715 616.928 335.911 617.2 336.011C617.478 336.106 617.771 336.153 618.079 336.153C618.31 336.153 618.499 336.142 618.647 336.118C618.795 336.088 618.914 336.065 619.002 336.047L619.429 337.929C619.287 337.982 619.088 338.036 618.834 338.089C618.579 338.148 618.257 338.178 617.866 338.178C617.274 338.178 616.694 338.05 616.126 337.796C615.564 337.541 615.096 337.154 614.723 336.633C614.356 336.112 614.173 335.455 614.173 334.662V321.097ZM627.903 338.284C626.589 338.284 625.455 337.994 624.502 337.414C623.555 336.828 622.824 336.011 622.309 334.964C621.8 333.91 621.546 332.685 621.546 331.288C621.546 329.892 621.8 328.661 622.309 327.595C622.824 326.524 623.541 325.689 624.458 325.092C625.381 324.488 626.458 324.186 627.689 324.186C628.4 324.186 629.101 324.304 629.794 324.541C630.486 324.778 631.116 325.163 631.684 325.695C632.253 326.222 632.705 326.92 633.043 327.79C633.38 328.661 633.549 329.732 633.549 331.004V331.892H623.037V330.081H631.418C631.418 329.312 631.264 328.625 630.956 328.021C630.655 327.418 630.223 326.941 629.66 326.592C629.104 326.243 628.447 326.068 627.689 326.068C626.855 326.068 626.133 326.275 625.523 326.69C624.92 327.098 624.455 327.631 624.129 328.288C623.804 328.945 623.641 329.649 623.641 330.401V331.608C623.641 332.638 623.819 333.511 624.174 334.227C624.535 334.937 625.035 335.479 625.674 335.852C626.313 336.219 627.056 336.402 627.903 336.402C628.453 336.402 628.95 336.325 629.394 336.171C629.844 336.011 630.231 335.775 630.557 335.461C630.883 335.141 631.134 334.745 631.312 334.271L633.336 334.839C633.123 335.526 632.765 336.13 632.262 336.651C631.758 337.165 631.137 337.568 630.397 337.858C629.657 338.142 628.826 338.284 627.903 338.284ZM647.472 324.364L642.429 338H640.298L635.256 324.364H637.528L641.293 335.23H641.435L645.199 324.364H647.472ZM650.237 338V324.364H652.332V338H650.237ZM651.302 322.091C650.894 322.091 650.542 321.952 650.246 321.674C649.956 321.395 649.811 321.061 649.811 320.67C649.811 320.28 649.956 319.945 650.246 319.667C650.542 319.389 650.894 319.25 651.302 319.25C651.711 319.25 652.06 319.389 652.35 319.667C652.646 319.945 652.794 320.28 652.794 320.67C652.794 321.061 652.646 321.395 652.35 321.674C652.06 321.952 651.711 322.091 651.302 322.091ZM658.265 319.818V338H656.17V319.818H658.265ZM664.197 319.818V338H662.102V319.818H664.197ZM673.752 338.284C672.438 338.284 671.305 337.994 670.352 337.414C669.405 336.828 668.674 336.011 668.159 334.964C667.65 333.91 667.396 332.685 667.396 331.288C667.396 329.892 667.65 328.661 668.159 327.595C668.674 326.524 669.39 325.689 670.308 325.092C671.231 324.488 672.308 324.186 673.539 324.186C674.249 324.186 674.951 324.304 675.643 324.541C676.336 324.778 676.966 325.163 677.534 325.695C678.102 326.222 678.555 326.92 678.892 327.79C679.23 328.661 679.398 329.732 679.398 331.004V331.892H668.887V330.081H677.268C677.268 329.312 677.114 328.625 676.806 328.021C676.504 327.418 676.072 326.941 675.51 326.592C674.954 326.243 674.297 326.068 673.539 326.068C672.705 326.068 671.982 326.275 671.373 326.69C670.769 327.098 670.305 327.631 669.979 328.288C669.654 328.945 669.491 329.649 669.491 330.401V331.608C669.491 332.638 669.668 333.511 670.023 334.227C670.384 334.937 670.885 335.479 671.524 335.852C672.163 336.219 672.906 336.402 673.752 336.402C674.303 336.402 674.8 336.325 675.244 336.171C675.693 336.011 676.081 335.775 676.407 335.461C676.732 335.141 676.984 334.745 677.161 334.271L679.185 334.839C678.972 335.526 678.614 336.13 678.111 336.651C677.608 337.165 676.987 337.568 676.247 337.858C675.507 338.142 674.675 338.284 673.752 338.284Z" fill="black"/>
<path d="M795.631 252.5C795.435 251.902 795.178 251.367 794.858 250.893C794.545 250.414 794.169 250.005 793.731 249.668C793.299 249.331 792.808 249.073 792.257 248.896C791.707 248.718 791.103 248.629 790.446 248.629C789.369 248.629 788.389 248.907 787.507 249.464C786.626 250.02 785.924 250.84 785.403 251.923C784.883 253.006 784.622 254.335 784.622 255.909C784.622 257.483 784.886 258.812 785.412 259.895C785.939 260.978 786.652 261.798 787.552 262.354C788.451 262.911 789.464 263.189 790.588 263.189C791.63 263.189 792.547 262.967 793.34 262.523C794.139 262.073 794.761 261.44 795.205 260.623C795.654 259.801 795.879 258.833 795.879 257.72L796.554 257.862H791.085V255.909H798.01V257.862C798.01 259.36 797.69 260.662 797.051 261.768C796.418 262.875 795.542 263.733 794.423 264.343C793.311 264.947 792.032 265.249 790.588 265.249C788.978 265.249 787.564 264.87 786.344 264.112C785.131 263.355 784.184 262.277 783.504 260.881C782.829 259.484 782.491 257.827 782.491 255.909C782.491 254.471 782.684 253.178 783.069 252.029C783.459 250.875 784.01 249.893 784.72 249.082C785.43 248.271 786.27 247.65 787.241 247.218C788.212 246.786 789.28 246.57 790.446 246.57C791.405 246.57 792.299 246.715 793.127 247.005C793.962 247.289 794.704 247.694 795.355 248.221C796.012 248.742 796.56 249.366 796.998 250.094C797.436 250.816 797.738 251.618 797.903 252.5H795.631ZM801.497 265V251.364H803.521V253.423H803.663C803.911 252.749 804.361 252.201 805.012 251.781C805.663 251.361 806.397 251.151 807.214 251.151C807.368 251.151 807.56 251.154 807.791 251.159C808.022 251.165 808.197 251.174 808.315 251.186V253.317C808.244 253.299 808.081 253.272 807.827 253.237C807.578 253.195 807.315 253.175 807.036 253.175C806.374 253.175 805.782 253.314 805.261 253.592C804.746 253.864 804.338 254.243 804.036 254.728C803.74 255.208 803.592 255.755 803.592 256.371V265H801.497ZM816.101 265.284C814.787 265.284 813.653 264.994 812.701 264.414C811.754 263.828 811.023 263.011 810.508 261.964C809.999 260.91 809.744 259.685 809.744 258.288C809.744 256.892 809.999 255.661 810.508 254.595C811.023 253.524 811.739 252.689 812.656 252.092C813.579 251.488 814.657 251.186 815.888 251.186C816.598 251.186 817.299 251.304 817.992 251.541C818.684 251.778 819.315 252.163 819.883 252.695C820.451 253.222 820.904 253.92 821.241 254.79C821.578 255.661 821.747 256.732 821.747 258.004V258.892H811.236V257.081H819.616C819.616 256.312 819.463 255.625 819.155 255.021C818.853 254.418 818.421 253.941 817.859 253.592C817.302 253.243 816.645 253.068 815.888 253.068C815.053 253.068 814.331 253.275 813.722 253.69C813.118 254.098 812.653 254.631 812.328 255.288C812.002 255.945 811.839 256.649 811.839 257.401V258.608C811.839 259.638 812.017 260.511 812.372 261.227C812.733 261.937 813.233 262.479 813.872 262.852C814.512 263.219 815.254 263.402 816.101 263.402C816.651 263.402 817.148 263.325 817.592 263.171C818.042 263.011 818.43 262.775 818.755 262.461C819.081 262.141 819.332 261.745 819.51 261.271L821.534 261.839C821.321 262.526 820.963 263.13 820.46 263.651C819.957 264.165 819.335 264.568 818.595 264.858C817.856 265.142 817.024 265.284 816.101 265.284ZM830.652 265.284C829.338 265.284 828.204 264.994 827.251 264.414C826.304 263.828 825.573 263.011 825.059 261.964C824.55 260.91 824.295 259.685 824.295 258.288C824.295 256.892 824.55 255.661 825.059 254.595C825.573 253.524 826.29 252.689 827.207 252.092C828.13 251.488 829.207 251.186 830.438 251.186C831.149 251.186 831.85 251.304 832.543 251.541C833.235 251.778 833.865 252.163 834.434 252.695C835.002 253.222 835.454 253.92 835.792 254.79C836.129 255.661 836.298 256.732 836.298 258.004V258.892H825.786V257.081H834.167C834.167 256.312 834.013 255.625 833.706 255.021C833.404 254.418 832.972 253.941 832.409 253.592C831.853 253.243 831.196 253.068 830.438 253.068C829.604 253.068 828.882 253.275 828.272 253.69C827.669 254.098 827.204 254.631 826.878 255.288C826.553 255.945 826.39 256.649 826.39 257.401V258.608C826.39 259.638 826.568 260.511 826.923 261.227C827.284 261.937 827.784 262.479 828.423 262.852C829.062 263.219 829.805 263.402 830.652 263.402C831.202 263.402 831.699 263.325 832.143 263.171C832.593 263.011 832.98 262.775 833.306 262.461C833.632 262.141 833.883 261.745 834.061 261.271L836.085 261.839C835.872 262.526 835.514 263.13 835.011 263.651C834.507 264.165 833.886 264.568 833.146 264.858C832.406 265.142 831.575 265.284 830.652 265.284ZM841.58 256.797V265H839.485V251.364H841.509V253.494H841.687C842.006 252.802 842.492 252.246 843.143 251.825C843.794 251.399 844.634 251.186 845.664 251.186C846.587 251.186 847.395 251.375 848.088 251.754C848.78 252.127 849.319 252.695 849.703 253.459C850.088 254.216 850.28 255.175 850.28 256.335V265H848.185V256.477C848.185 255.406 847.907 254.571 847.351 253.974C846.794 253.37 846.031 253.068 845.06 253.068C844.391 253.068 843.794 253.213 843.267 253.503C842.746 253.793 842.335 254.216 842.033 254.773C841.731 255.329 841.58 256.004 841.58 256.797ZM864.771 251.364L859.729 265H857.598L852.555 251.364H854.828L858.592 262.23H858.734L862.499 251.364H864.771ZM867.537 265V251.364H869.632V265H867.537ZM868.602 249.091C868.194 249.091 867.842 248.952 867.546 248.674C867.256 248.395 867.111 248.061 867.111 247.67C867.111 247.28 867.256 246.945 867.546 246.667C867.842 246.389 868.194 246.25 868.602 246.25C869.01 246.25 869.36 246.389 869.65 246.667C869.946 246.945 870.094 247.28 870.094 247.67C870.094 248.061 869.946 248.395 869.65 248.674C869.36 248.952 869.01 249.091 868.602 249.091ZM875.565 246.818V265H873.469V246.818H875.565ZM881.497 246.818V265H879.402V246.818H881.497ZM891.052 265.284C889.738 265.284 888.605 264.994 887.652 264.414C886.705 263.828 885.974 263.011 885.459 261.964C884.95 260.91 884.695 259.685 884.695 258.288C884.695 256.892 884.95 255.661 885.459 254.595C885.974 253.524 886.69 252.689 887.607 252.092C888.531 251.488 889.608 251.186 890.839 251.186C891.549 251.186 892.25 251.304 892.943 251.541C893.635 251.778 894.266 252.163 894.834 252.695C895.402 253.222 895.855 253.92 896.192 254.79C896.53 255.661 896.698 256.732 896.698 258.004V258.892H886.187V257.081H894.568C894.568 256.312 894.414 255.625 894.106 255.021C893.804 254.418 893.372 253.941 892.81 253.592C892.253 253.243 891.596 253.068 890.839 253.068C890.004 253.068 889.282 253.275 888.673 253.69C888.069 254.098 887.604 254.631 887.279 255.288C886.953 255.945 886.791 256.649 886.791 257.401V258.608C886.791 259.638 886.968 260.511 887.323 261.227C887.684 261.937 888.184 262.479 888.824 262.852C889.463 263.219 890.206 263.402 891.052 263.402C891.602 263.402 892.1 263.325 892.543 263.171C892.993 263.011 893.381 262.775 893.706 262.461C894.032 262.141 894.283 261.745 894.461 261.271L896.485 261.839C896.272 262.526 895.914 263.13 895.411 263.651C894.908 264.165 894.286 264.568 893.547 264.858C892.807 265.142 891.975 265.284 891.052 265.284Z" fill="black"/>
<path d="M758.162 311.818H760.364V324.815C760.364 325.975 760.151 326.961 759.724 327.772C759.298 328.583 758.698 329.198 757.922 329.618C757.147 330.038 756.232 330.249 755.179 330.249C754.185 330.249 753.3 330.068 752.525 329.707C751.749 329.34 751.14 328.819 750.696 328.145C750.252 327.47 750.03 326.668 750.03 325.739H752.196C752.196 326.254 752.323 326.703 752.578 327.088C752.838 327.467 753.193 327.763 753.643 327.976C754.093 328.189 754.605 328.295 755.179 328.295C755.812 328.295 756.351 328.162 756.795 327.896C757.239 327.63 757.576 327.239 757.807 326.724C758.044 326.203 758.162 325.567 758.162 324.815V311.818ZM768.505 330.32C767.641 330.32 766.856 330.157 766.152 329.831C765.448 329.5 764.888 329.023 764.474 328.402C764.06 327.775 763.853 327.017 763.853 326.129C763.853 325.348 764.007 324.715 764.314 324.229C764.622 323.738 765.033 323.353 765.548 323.075C766.063 322.797 766.631 322.59 767.253 322.454C767.88 322.312 768.511 322.199 769.144 322.116C769.972 322.01 770.644 321.93 771.159 321.877C771.68 321.818 772.059 321.72 772.295 321.584C772.538 321.448 772.659 321.211 772.659 320.874V320.803C772.659 319.927 772.42 319.246 771.94 318.761C771.467 318.275 770.748 318.033 769.783 318.033C768.783 318.033 767.999 318.252 767.43 318.69C766.862 319.128 766.463 319.595 766.232 320.092L764.243 319.382C764.598 318.554 765.072 317.908 765.664 317.447C766.261 316.979 766.913 316.654 767.617 316.47C768.327 316.281 769.025 316.186 769.712 316.186C770.15 316.186 770.653 316.239 771.221 316.346C771.795 316.446 772.349 316.657 772.881 316.976C773.42 317.296 773.867 317.778 774.222 318.423C774.577 319.068 774.755 319.933 774.755 321.016V330H772.659V328.153H772.553C772.411 328.449 772.174 328.766 771.843 329.103C771.511 329.441 771.07 329.728 770.52 329.964C769.969 330.201 769.298 330.32 768.505 330.32ZM768.824 328.438C769.653 328.438 770.351 328.275 770.919 327.949C771.493 327.624 771.926 327.203 772.216 326.689C772.511 326.174 772.659 325.632 772.659 325.064V323.146C772.571 323.253 772.375 323.35 772.074 323.439C771.778 323.522 771.434 323.596 771.044 323.661C770.659 323.72 770.283 323.774 769.916 323.821C769.555 323.862 769.262 323.898 769.037 323.928C768.493 323.999 767.984 324.114 767.51 324.274C767.043 324.428 766.664 324.661 766.374 324.975C766.09 325.283 765.948 325.703 765.948 326.236C765.948 326.964 766.217 327.514 766.756 327.887C767.3 328.254 767.99 328.438 768.824 328.438ZM784.119 330.284C782.84 330.284 781.739 329.982 780.816 329.379C779.893 328.775 779.182 327.943 778.685 326.884C778.188 325.824 777.94 324.614 777.94 323.253C777.94 321.868 778.194 320.646 778.703 319.586C779.218 318.521 779.934 317.689 780.851 317.092C781.775 316.488 782.852 316.186 784.083 316.186C785.042 316.186 785.906 316.364 786.675 316.719C787.445 317.074 788.075 317.571 788.566 318.21C789.058 318.849 789.362 319.595 789.481 320.447H787.386C787.226 319.826 786.871 319.276 786.32 318.796C785.776 318.311 785.042 318.068 784.119 318.068C783.302 318.068 782.586 318.281 781.97 318.707C781.36 319.128 780.884 319.722 780.541 320.492C780.203 321.255 780.035 322.152 780.035 323.182C780.035 324.235 780.2 325.153 780.532 325.934C780.869 326.715 781.343 327.322 781.952 327.754C782.568 328.186 783.29 328.402 784.119 328.402C784.663 328.402 785.157 328.307 785.601 328.118C786.045 327.929 786.421 327.656 786.729 327.301C787.036 326.946 787.255 326.52 787.386 326.023H789.481C789.362 326.828 789.069 327.553 788.602 328.198C788.14 328.837 787.528 329.346 786.764 329.725C786.007 330.098 785.125 330.284 784.119 330.284ZM794.497 325.028L794.461 322.436H794.887L800.853 316.364H803.446L797.089 322.791H796.911L794.497 325.028ZM792.544 330V311.818H794.639V330H792.544ZM801.208 330L795.882 323.253L797.373 321.797L803.872 330H801.208ZM815.801 319.418L813.919 319.95C813.801 319.637 813.626 319.332 813.395 319.036C813.171 318.734 812.863 318.485 812.472 318.29C812.081 318.095 811.581 317.997 810.972 317.997C810.137 317.997 809.442 318.19 808.885 318.574C808.335 318.953 808.06 319.435 808.06 320.021C808.06 320.542 808.249 320.953 808.628 321.255C809.007 321.557 809.599 321.809 810.404 322.01L812.428 322.507C813.647 322.803 814.555 323.256 815.153 323.865C815.751 324.469 816.05 325.247 816.05 326.2C816.05 326.982 815.825 327.68 815.375 328.295C814.931 328.911 814.31 329.396 813.511 329.751C812.712 330.107 811.783 330.284 810.723 330.284C809.332 330.284 808.181 329.982 807.27 329.379C806.358 328.775 805.781 327.893 805.539 326.733L807.527 326.236C807.717 326.97 808.075 327.52 808.601 327.887C809.134 328.254 809.829 328.438 810.688 328.438C811.664 328.438 812.44 328.23 813.014 327.816C813.594 327.396 813.884 326.893 813.884 326.307C813.884 325.833 813.718 325.437 813.387 325.117C813.055 324.792 812.546 324.549 811.86 324.389L809.587 323.857C808.338 323.561 807.421 323.102 806.835 322.48C806.255 321.853 805.965 321.069 805.965 320.128C805.965 319.358 806.181 318.678 806.613 318.086C807.051 317.494 807.646 317.029 808.397 316.692C809.155 316.355 810.013 316.186 810.972 316.186C812.321 316.186 813.381 316.482 814.15 317.074C814.925 317.666 815.476 318.447 815.801 319.418ZM824.744 330.284C823.512 330.284 822.432 329.991 821.503 329.405C820.58 328.819 819.858 328 819.337 326.946C818.822 325.893 818.565 324.661 818.565 323.253C818.565 321.832 818.822 320.592 819.337 319.533C819.858 318.474 820.58 317.651 821.503 317.065C822.432 316.479 823.512 316.186 824.744 316.186C825.975 316.186 827.052 316.479 827.975 317.065C828.904 317.651 829.626 318.474 830.141 319.533C830.662 320.592 830.922 321.832 830.922 323.253C830.922 324.661 830.662 325.893 830.141 326.946C829.626 328 828.904 328.819 827.975 329.405C827.052 329.991 825.975 330.284 824.744 330.284ZM824.744 328.402C825.679 328.402 826.448 328.162 827.052 327.683C827.655 327.203 828.102 326.573 828.392 325.792C828.682 325.011 828.827 324.164 828.827 323.253C828.827 322.341 828.682 321.492 828.392 320.705C828.102 319.918 827.655 319.281 827.052 318.796C826.448 318.311 825.679 318.068 824.744 318.068C823.808 318.068 823.039 318.311 822.435 318.796C821.832 319.281 821.385 319.918 821.095 320.705C820.805 321.492 820.66 322.341 820.66 323.253C820.66 324.164 820.805 325.011 821.095 325.792C821.385 326.573 821.832 327.203 822.435 327.683C823.039 328.162 823.808 328.402 824.744 328.402ZM836.216 321.797V330H834.121V316.364H836.145V318.494H836.322C836.642 317.802 837.127 317.246 837.778 316.825C838.429 316.399 839.27 316.186 840.3 316.186C841.223 316.186 842.031 316.375 842.723 316.754C843.416 317.127 843.954 317.695 844.339 318.459C844.724 319.216 844.916 320.175 844.916 321.335V330H842.821V321.477C842.821 320.406 842.543 319.571 841.987 318.974C841.43 318.37 840.667 318.068 839.696 318.068C839.027 318.068 838.429 318.213 837.903 318.503C837.382 318.793 836.971 319.216 836.669 319.773C836.367 320.329 836.216 321.004 836.216 321.797ZM859.407 316.364L854.364 330H852.234L847.191 316.364H849.464L853.228 327.23H853.37L857.134 316.364H859.407ZM862.172 330V316.364H864.268V330H862.172ZM863.238 314.091C862.829 314.091 862.477 313.952 862.181 313.674C861.891 313.395 861.746 313.061 861.746 312.67C861.746 312.28 861.891 311.945 862.181 311.667C862.477 311.389 862.829 311.25 863.238 311.25C863.646 311.25 863.995 311.389 864.285 311.667C864.581 311.945 864.729 312.28 864.729 312.67C864.729 313.061 864.581 313.395 864.285 313.674C863.995 313.952 863.646 314.091 863.238 314.091ZM870.2 311.818V330H868.105V311.818H870.2ZM876.133 311.818V330H874.038V311.818H876.133ZM885.688 330.284C884.374 330.284 883.24 329.994 882.287 329.414C881.34 328.828 880.61 328.011 880.095 326.964C879.586 325.91 879.331 324.685 879.331 323.288C879.331 321.892 879.586 320.661 880.095 319.595C880.61 318.524 881.326 317.689 882.243 317.092C883.166 316.488 884.244 316.186 885.475 316.186C886.185 316.186 886.886 316.304 887.579 316.541C888.271 316.778 888.901 317.163 889.47 317.695C890.038 318.222 890.491 318.92 890.828 319.79C891.165 320.661 891.334 321.732 891.334 323.004V323.892H880.823V322.081H889.203C889.203 321.312 889.049 320.625 888.742 320.021C888.44 319.418 888.008 318.941 887.445 318.592C886.889 318.243 886.232 318.068 885.475 318.068C884.64 318.068 883.918 318.275 883.308 318.69C882.705 319.098 882.24 319.631 881.915 320.288C881.589 320.945 881.426 321.649 881.426 322.401V323.608C881.426 324.638 881.604 325.511 881.959 326.227C882.32 326.937 882.82 327.479 883.459 327.852C884.099 328.219 884.841 328.402 885.688 328.402C886.238 328.402 886.735 328.325 887.179 328.171C887.629 328.011 888.017 327.775 888.342 327.461C888.668 327.141 888.919 326.745 889.097 326.271L891.121 326.839C890.908 327.526 890.55 328.13 890.047 328.651C889.544 329.165 888.922 329.568 888.182 329.858C887.443 330.142 886.611 330.284 885.688 330.284Z" fill="black"/>
<path d="M636.812 159H631.202V140.818H637.061C638.825 140.818 640.334 141.182 641.589 141.91C642.844 142.632 643.805 143.671 644.474 145.026C645.143 146.376 645.477 147.991 645.477 149.874C645.477 151.768 645.14 153.398 644.465 154.765C643.79 156.127 642.808 157.174 641.518 157.908C640.228 158.636 638.659 159 636.812 159ZM633.403 157.047H636.67C638.174 157.047 639.42 156.757 640.408 156.177C641.396 155.597 642.133 154.771 642.619 153.7C643.104 152.629 643.347 151.353 643.347 149.874C643.347 148.406 643.107 147.142 642.627 146.083C642.148 145.017 641.432 144.201 640.479 143.632C639.526 143.058 638.339 142.771 636.919 142.771H633.403V157.047ZM657.48 153.425V145.364H659.575V159H657.48V156.692H657.338C657.018 157.384 656.521 157.973 655.847 158.458C655.172 158.938 654.32 159.178 653.29 159.178C652.438 159.178 651.68 158.991 651.017 158.618C650.354 158.239 649.833 157.671 649.455 156.914C649.076 156.15 648.886 155.188 648.886 154.028V145.364H650.982V153.886C650.982 154.881 651.26 155.674 651.816 156.266C652.378 156.857 653.094 157.153 653.964 157.153C654.485 157.153 655.015 157.02 655.554 156.754C656.098 156.488 656.554 156.079 656.921 155.529C657.294 154.978 657.48 154.277 657.48 153.425ZM663.413 159V145.364H665.437V147.423H665.579C665.828 146.749 666.277 146.201 666.928 145.781C667.579 145.361 668.313 145.151 669.13 145.151C669.284 145.151 669.476 145.154 669.707 145.159C669.938 145.165 670.113 145.174 670.231 145.186V147.317C670.16 147.299 669.997 147.272 669.743 147.237C669.494 147.195 669.231 147.175 668.953 147.175C668.29 147.175 667.698 147.314 667.177 147.592C666.662 147.864 666.254 148.243 665.952 148.728C665.656 149.208 665.508 149.755 665.508 150.371V159H663.413ZM674.81 150.797V159H672.714V140.818H674.81V147.494H674.987C675.307 146.79 675.786 146.231 676.425 145.816C677.071 145.396 677.929 145.186 679 145.186C679.929 145.186 680.743 145.373 681.441 145.745C682.14 146.112 682.681 146.678 683.066 147.441C683.457 148.199 683.652 149.163 683.652 150.335V159H681.557V150.477C681.557 149.394 681.276 148.557 680.713 147.965C680.157 147.367 679.385 147.068 678.396 147.068C677.71 147.068 677.094 147.213 676.55 147.503C676.011 147.793 675.585 148.216 675.271 148.773C674.964 149.329 674.81 150.004 674.81 150.797ZM691.498 159.32C690.634 159.32 689.849 159.157 689.145 158.831C688.441 158.5 687.882 158.023 687.467 157.402C687.053 156.775 686.846 156.017 686.846 155.129C686.846 154.348 687 153.715 687.307 153.229C687.615 152.738 688.027 152.353 688.541 152.075C689.056 151.797 689.625 151.59 690.246 151.454C690.873 151.312 691.504 151.199 692.137 151.116C692.966 151.01 693.637 150.93 694.152 150.877C694.673 150.818 695.052 150.72 695.289 150.584C695.531 150.448 695.653 150.211 695.653 149.874V149.803C695.653 148.927 695.413 148.246 694.934 147.761C694.46 147.275 693.741 147.033 692.776 147.033C691.776 147.033 690.992 147.252 690.424 147.69C689.855 148.128 689.456 148.595 689.225 149.092L687.236 148.382C687.592 147.554 688.065 146.908 688.657 146.447C689.255 145.979 689.906 145.654 690.61 145.47C691.32 145.281 692.019 145.186 692.705 145.186C693.143 145.186 693.646 145.239 694.214 145.346C694.789 145.446 695.342 145.657 695.875 145.976C696.413 146.296 696.86 146.778 697.215 147.423C697.57 148.068 697.748 148.933 697.748 150.016V159H695.653V157.153H695.546C695.404 157.449 695.167 157.766 694.836 158.103C694.504 158.441 694.063 158.728 693.513 158.964C692.963 159.201 692.291 159.32 691.498 159.32ZM691.817 157.438C692.646 157.438 693.344 157.275 693.913 156.949C694.487 156.624 694.919 156.203 695.209 155.689C695.505 155.174 695.653 154.632 695.653 154.064V152.146C695.564 152.253 695.369 152.35 695.067 152.439C694.771 152.522 694.427 152.596 694.037 152.661C693.652 152.72 693.276 152.774 692.909 152.821C692.548 152.862 692.255 152.898 692.03 152.928C691.486 152.999 690.977 153.114 690.503 153.274C690.036 153.428 689.657 153.661 689.367 153.975C689.083 154.283 688.941 154.703 688.941 155.236C688.941 155.964 689.21 156.514 689.749 156.887C690.293 157.254 690.983 157.438 691.817 157.438ZM701.572 159V145.364H703.596V147.494H703.774C704.058 146.766 704.516 146.201 705.15 145.799C705.783 145.39 706.544 145.186 707.431 145.186C708.331 145.186 709.08 145.39 709.677 145.799C710.281 146.201 710.752 146.766 711.089 147.494H711.231C711.58 146.79 712.104 146.231 712.802 145.816C713.501 145.396 714.338 145.186 715.315 145.186C716.534 145.186 717.531 145.568 718.307 146.331C719.082 147.089 719.47 148.27 719.47 149.874V159H717.374V149.874C717.374 148.867 717.099 148.148 716.549 147.716C715.998 147.284 715.35 147.068 714.605 147.068C713.646 147.068 712.903 147.358 712.376 147.938C711.849 148.512 711.586 149.24 711.586 150.122V159H709.455V149.661C709.455 148.885 709.204 148.261 708.701 147.787C708.198 147.308 707.55 147.068 706.757 147.068C706.212 147.068 705.703 147.213 705.23 147.503C704.762 147.793 704.383 148.196 704.093 148.711C703.809 149.22 703.667 149.808 703.667 150.477V159H701.572Z" fill="black"/>
<circle cx="454.511" cy="282.511" r="9.01136" fill="#FFE587" stroke="black"/>
<circle cx="572.511" cy="166.511" r="9.01136" fill="#FFE587" stroke="black"/>
<circle cx="671.511" cy="304.511" r="9.01136" fill="#FFE587" stroke="black"/>
<circle cx="833.511" cy="346.511" r="9.01136" fill="#FFE587" stroke="black"/>
<circle cx="838.511" cy="231.511" r="9.01136" fill="#FFE587" stroke="black"/>
<circle cx="671.511" cy="176.511" r="9.01136" fill="#FFE587" stroke="black"/>
<path d="M937.454 419H934.079L943.122 401.545H947.025L950.281 419H946.906L944.562 405.125H944.426L937.454 419ZM938.699 412.156H947.903L947.477 414.696H938.272L938.699 412.156ZM960.342 405.909L959.941 408.295H952.424L952.816 405.909H960.342ZM955.186 402.773H958.271L956.225 415.062C956.163 415.477 956.174 415.795 956.26 416.017C956.35 416.233 956.495 416.381 956.694 416.46C956.899 416.54 957.129 416.58 957.385 416.58C957.572 416.58 957.748 416.565 957.913 416.537C958.078 416.503 958.208 416.477 958.305 416.46L958.441 418.872C958.254 418.929 958.001 418.991 957.683 419.06C957.37 419.128 956.995 419.168 956.558 419.179C955.774 419.196 955.092 419.077 954.512 418.821C953.939 418.56 953.518 418.159 953.251 417.619C952.99 417.074 952.93 416.392 953.072 415.574L955.186 402.773ZM967.005 401.545L964.107 419H961.022L963.919 401.545H967.005ZM971.012 419.264C970.183 419.264 969.461 419.116 968.848 418.821C968.234 418.52 967.782 418.077 967.493 417.491C967.208 416.906 967.137 416.185 967.279 415.327C967.404 414.588 967.643 413.977 967.995 413.494C968.353 413.011 968.791 412.625 969.308 412.335C969.831 412.04 970.399 411.818 971.012 411.67C971.632 411.523 972.262 411.415 972.904 411.347C973.689 411.267 974.322 411.193 974.805 411.125C975.294 411.057 975.66 410.955 975.904 410.818C976.149 410.676 976.297 410.46 976.348 410.17V410.119C976.45 409.477 976.348 408.98 976.041 408.628C975.734 408.276 975.223 408.099 974.507 408.099C973.757 408.099 973.126 408.264 972.615 408.594C972.103 408.923 971.731 409.312 971.498 409.761L968.703 409.352C969.055 408.557 969.538 407.892 970.152 407.358C970.765 406.818 971.473 406.415 972.274 406.148C973.081 405.875 973.941 405.739 974.856 405.739C975.481 405.739 976.092 405.812 976.689 405.96C977.291 406.108 977.822 406.352 978.282 406.693C978.748 407.028 979.089 407.486 979.305 408.065C979.527 408.645 979.564 409.369 979.416 410.239L977.958 419H974.993L975.299 417.202H975.197C974.953 417.565 974.635 417.906 974.243 418.224C973.85 418.537 973.385 418.79 972.845 418.983C972.305 419.17 971.694 419.264 971.012 419.264ZM972.18 416.997C972.799 416.997 973.356 416.875 973.85 416.631C974.345 416.381 974.751 416.051 975.069 415.642C975.387 415.233 975.586 414.787 975.666 414.304L975.922 412.761C975.808 412.841 975.632 412.915 975.393 412.983C975.154 413.051 974.887 413.111 974.592 413.162C974.302 413.213 974.015 413.259 973.731 413.298C973.447 413.338 973.203 413.372 972.998 413.401C972.527 413.463 972.095 413.565 971.703 413.707C971.316 413.849 970.995 414.048 970.74 414.304C970.49 414.554 970.333 414.878 970.271 415.276C970.18 415.838 970.314 416.267 970.672 416.562C971.029 416.852 971.532 416.997 972.18 416.997ZM985.424 411.33L984.163 419H981.069L983.251 405.909H986.208L985.833 408.134H985.995C986.404 407.401 986.978 406.818 987.717 406.386C988.456 405.955 989.316 405.739 990.299 405.739C991.191 405.739 991.941 405.932 992.549 406.318C993.157 406.699 993.589 407.259 993.845 407.997C994.1 408.73 994.14 409.619 993.964 410.665L992.566 419H989.481L990.785 411.142C990.933 410.273 990.822 409.591 990.453 409.097C990.089 408.597 989.504 408.347 988.697 408.347C988.157 408.347 987.66 408.466 987.206 408.705C986.751 408.937 986.368 409.276 986.055 409.719C985.748 410.162 985.538 410.699 985.424 411.33ZM1004.4 405.909L1004 408.295H996.487L996.879 405.909H1004.4ZM999.248 402.773H1002.33L1000.29 415.062C1000.23 415.477 1000.24 415.795 1000.32 416.017C1000.41 416.233 1000.56 416.381 1000.76 416.46C1000.96 416.54 1001.19 416.58 1001.45 416.58C1001.63 416.58 1001.81 416.565 1001.98 416.537C1002.14 416.503 1002.27 416.477 1002.37 416.46L1002.5 418.872C1002.32 418.929 1002.06 418.991 1001.75 419.06C1001.43 419.128 1001.06 419.168 1000.62 419.179C999.836 419.196 999.154 419.077 998.575 418.821C998.001 418.56 997.581 418.159 997.314 417.619C997.052 417.074 996.993 416.392 997.135 415.574L999.248 402.773ZM1004.8 419L1006.98 405.909H1010.07L1007.89 419H1004.8ZM1008.98 404.034C1008.48 404.034 1008.08 403.869 1007.75 403.54C1007.43 403.21 1007.29 402.815 1007.33 402.355C1007.37 401.895 1007.57 401.5 1007.95 401.17C1008.33 400.841 1008.76 400.676 1009.25 400.676C1009.75 400.676 1010.15 400.841 1010.47 401.17C1010.79 401.5 1010.94 401.895 1010.9 402.355C1010.86 402.815 1010.66 403.21 1010.27 403.54C1009.9 403.869 1009.47 404.034 1008.98 404.034ZM1016.74 419.256C1015.43 419.256 1014.36 418.969 1013.52 418.395C1012.67 417.821 1012.09 417.028 1011.75 416.017C1011.42 415 1011.37 413.83 1011.59 412.506C1011.81 411.176 1012.25 410.003 1012.93 408.986C1013.61 407.963 1014.47 407.168 1015.5 406.599C1016.54 406.026 1017.69 405.739 1018.97 405.739C1020.03 405.739 1020.94 405.935 1021.69 406.327C1022.44 406.713 1023.01 407.261 1023.38 407.972C1023.75 408.676 1023.9 409.5 1023.81 410.443H1020.85C1020.84 409.812 1020.65 409.287 1020.27 408.866C1019.88 408.44 1019.33 408.227 1018.59 408.227C1017.96 408.227 1017.37 408.398 1016.84 408.739C1016.31 409.074 1015.85 409.557 1015.48 410.188C1015.11 410.818 1014.86 411.574 1014.72 412.455C1014.57 413.347 1014.57 414.114 1014.73 414.756C1014.88 415.392 1015.17 415.884 1015.59 416.23C1016.01 416.571 1016.54 416.741 1017.18 416.741C1017.63 416.741 1018.06 416.656 1018.45 416.486C1018.84 416.31 1019.19 416.057 1019.48 415.727C1019.78 415.398 1020.02 414.997 1020.19 414.526H1023.14C1022.9 415.452 1022.49 416.273 1021.89 416.989C1021.3 417.699 1020.57 418.256 1019.69 418.659C1018.82 419.057 1017.83 419.256 1016.74 419.256ZM959.595 439.477C959.288 441.33 958.683 442.909 957.78 444.216C956.882 445.517 955.786 446.514 954.49 447.207C953.2 447.895 951.811 448.239 950.322 448.239C948.76 448.239 947.419 447.875 946.3 447.148C945.18 446.415 944.374 445.366 943.879 444.003C943.391 442.639 943.305 441.003 943.624 439.094C943.93 437.247 944.533 435.668 945.43 434.355C946.328 433.043 947.428 432.04 948.729 431.347C950.03 430.653 951.433 430.307 952.939 430.307C954.49 430.307 955.82 430.673 956.928 431.406C958.041 432.134 958.842 433.182 959.331 434.551C959.825 435.92 959.913 437.562 959.595 439.477ZM956.484 439.094C956.695 437.804 956.675 436.716 956.425 435.83C956.18 434.943 955.746 434.276 955.121 433.827C954.496 433.372 953.726 433.145 952.811 433.145C951.822 433.145 950.908 433.392 950.067 433.886C949.232 434.375 948.521 435.091 947.936 436.034C947.357 436.977 946.959 438.125 946.743 439.477C946.516 440.773 946.53 441.861 946.786 442.741C947.041 443.622 947.484 444.287 948.115 444.736C948.746 445.179 949.516 445.401 950.425 445.401C951.408 445.401 952.317 445.156 953.152 444.668C953.987 444.179 954.695 443.466 955.274 442.528C955.859 441.591 956.263 440.446 956.484 439.094ZM966.71 448.256C965.403 448.256 964.329 447.969 963.488 447.395C962.647 446.821 962.059 446.028 961.724 445.017C961.394 444 961.34 442.83 961.562 441.506C961.778 440.176 962.224 439.003 962.9 437.986C963.582 436.963 964.44 436.168 965.474 435.599C966.508 435.026 967.664 434.739 968.942 434.739C970.005 434.739 970.911 434.935 971.661 435.327C972.417 435.713 972.979 436.261 973.349 436.972C973.724 437.676 973.869 438.5 973.783 439.443H970.826C970.815 438.812 970.619 438.287 970.238 437.866C969.857 437.44 969.3 437.227 968.567 437.227C967.931 437.227 967.346 437.398 966.812 437.739C966.278 438.074 965.826 438.557 965.457 439.188C965.087 439.818 964.832 440.574 964.69 441.455C964.542 442.347 964.545 443.114 964.698 443.756C964.857 444.392 965.144 444.884 965.559 445.23C965.979 445.571 966.511 445.741 967.153 445.741C967.607 445.741 968.031 445.656 968.423 445.486C968.815 445.31 969.158 445.057 969.454 444.727C969.755 444.398 969.991 443.997 970.161 443.526H973.11C972.877 444.452 972.462 445.273 971.866 445.989C971.275 446.699 970.542 447.256 969.667 447.659C968.792 448.057 967.806 448.256 966.71 448.256ZM980.646 448.256C979.334 448.256 978.249 447.983 977.391 447.438C976.533 446.886 975.93 446.108 975.584 445.102C975.243 444.091 975.186 442.901 975.413 441.531C975.635 440.185 976.087 439.003 976.768 437.986C977.45 436.963 978.303 436.168 979.325 435.599C980.354 435.026 981.49 434.739 982.734 434.739C983.541 434.739 984.283 434.869 984.959 435.131C985.635 435.386 986.206 435.784 986.672 436.324C987.138 436.864 987.459 437.551 987.635 438.386C987.811 439.216 987.803 440.205 987.609 441.352L987.464 442.298H976.726L977.058 440.219H984.831C984.933 439.628 984.899 439.102 984.729 438.642C984.558 438.176 984.274 437.81 983.876 437.543C983.479 437.276 982.982 437.142 982.385 437.142C981.777 437.142 981.209 437.298 980.68 437.611C980.158 437.918 979.717 438.315 979.359 438.804C979.001 439.293 978.774 439.807 978.678 440.347L978.328 442.341C978.203 443.159 978.232 443.827 978.413 444.344C978.595 444.861 978.913 445.241 979.368 445.486C979.822 445.73 980.396 445.852 981.089 445.852C981.544 445.852 981.964 445.79 982.351 445.665C982.737 445.54 983.081 445.352 983.382 445.102C983.689 444.847 983.945 444.534 984.149 444.165L986.97 444.489C986.658 445.25 986.2 445.915 985.598 446.483C984.996 447.045 984.274 447.483 983.433 447.795C982.598 448.102 981.669 448.256 980.646 448.256ZM992.868 448.264C992.038 448.264 991.317 448.116 990.703 447.821C990.089 447.52 989.638 447.077 989.348 446.491C989.064 445.906 988.993 445.185 989.135 444.327C989.26 443.588 989.499 442.977 989.851 442.494C990.209 442.011 990.646 441.625 991.163 441.335C991.686 441.04 992.254 440.818 992.868 440.67C993.487 440.523 994.118 440.415 994.76 440.347C995.544 440.267 996.178 440.193 996.661 440.125C997.149 440.057 997.516 439.955 997.76 439.818C998.004 439.676 998.152 439.46 998.203 439.17V439.119C998.305 438.477 998.203 437.98 997.896 437.628C997.589 437.276 997.078 437.099 996.362 437.099C995.612 437.099 994.982 437.264 994.47 437.594C993.959 437.923 993.587 438.312 993.354 438.761L990.558 438.352C990.911 437.557 991.393 436.892 992.007 436.358C992.621 435.818 993.328 435.415 994.129 435.148C994.936 434.875 995.797 434.739 996.712 434.739C997.337 434.739 997.947 434.812 998.544 434.96C999.146 435.108 999.678 435.352 1000.14 435.693C1000.6 436.028 1000.94 436.486 1001.16 437.065C1001.38 437.645 1001.42 438.369 1001.27 439.239L999.814 448H996.848L997.155 446.202H997.053C996.808 446.565 996.49 446.906 996.098 447.224C995.706 447.537 995.24 447.79 994.7 447.983C994.161 448.17 993.55 448.264 992.868 448.264ZM994.036 445.997C994.655 445.997 995.212 445.875 995.706 445.631C996.2 445.381 996.607 445.051 996.925 444.642C997.243 444.233 997.442 443.787 997.521 443.304L997.777 441.761C997.663 441.841 997.487 441.915 997.249 441.983C997.01 442.051 996.743 442.111 996.447 442.162C996.158 442.213 995.871 442.259 995.587 442.298C995.303 442.338 995.058 442.372 994.854 442.401C994.382 442.463 993.95 442.565 993.558 442.707C993.172 442.849 992.851 443.048 992.595 443.304C992.345 443.554 992.189 443.878 992.126 444.276C992.036 444.838 992.169 445.267 992.527 445.562C992.885 445.852 993.388 445.997 994.036 445.997ZM1007.28 440.33L1006.02 448H1002.92L1005.11 434.909H1008.06L1007.69 437.134H1007.85C1008.26 436.401 1008.83 435.818 1009.57 435.386C1010.31 434.955 1011.17 434.739 1012.15 434.739C1013.05 434.739 1013.8 434.932 1014.4 435.318C1015.01 435.699 1015.44 436.259 1015.7 436.997C1015.96 437.73 1016 438.619 1015.82 439.665L1014.42 448H1011.34L1012.64 440.142C1012.79 439.273 1012.68 438.591 1012.31 438.097C1011.94 437.597 1011.36 437.347 1010.55 437.347C1010.01 437.347 1009.52 437.466 1009.06 437.705C1008.61 437.937 1008.22 438.276 1007.91 438.719C1007.6 439.162 1007.39 439.699 1007.28 440.33Z" fill="#017D83"/>
<defs>
<filter id="filter0_d_147_88" x="64.9707" y="95.4907" width="982.502" height="380.009" filterUnits="userSpaceOnUse" color-interpolation-filters="sRGB">
<feFlood flood-opacity="0" result="BackgroundImageFix"/>
<feColorMatrix in="SourceAlpha" type="matrix" values="0 0 0 0 0 0 0 0 0 0 0 0 0 0 0 0 0 0 127 0" result="hardAlpha"/>
<feOffset dy="4"/>
<feGaussianBlur stdDeviation="2"/>
<feComposite in2="hardAlpha" operator="out"/>
<feColorMatrix type="matrix" values="0 0 0 0 0 0 0 0 0 0 0 0 0 0 0 0 0 0 0.25 0"/>
<feBlend mode="normal" in2="BackgroundImageFix" result="effect1_dropShadow_147_88"/>
<feBlend mode="normal" in="SourceGraphic" in2="effect1_dropShadow_147_88" result="shape"/>
</filter>
</defs>
</svg>
