<svg width="844" height="584" viewBox="0 0 844 584" fill="none" xmlns="http://www.w3.org/2000/svg">
<rect x="0.5" y="0.5" width="843" height="583" rx="35.5" fill="#97DCFF" stroke="#717171"/>
<g filter="url(#filter0_d_180_36)">
<path d="M711.395 84H93L93.5867 491.833L771.827 493L771.24 482.498L771.827 480.164L773 476.663V472.579L771.827 467.912L770.653 462.077V457.409L769.48 453.909V441.073L765.373 438.155L759.506 427.653L757.745 423.569L756.572 420.068L755.985 412.484L754.812 407.233L751.292 401.981L750.705 397.897L752.465 393.23V388.562L750.705 378.643L751.878 374.559L752.465 368.725L754.225 365.807L754.812 363.474L751.878 362.307L750.705 359.389L748.358 356.472V352.971L749.531 348.887L748.358 346.553L749.531 343.636L748.358 338.385L747.771 334.301L748.358 332.551L746.598 319.131L747.771 308.629L746.011 300.461L746.598 298.71L744.838 297.544L746.598 291.126L744.838 289.959L746.011 285.874L744.838 283.541L746.011 274.205L743.078 269.538V264.87L738.971 257.285L738.384 251.451L734.277 245.616L733.104 238.615L730.757 237.448L731.343 231.613L729.583 228.113L727.823 225.779L727.236 221.111L719.609 197.773L720.783 189.021L721.956 177.936L720.783 175.019L719.609 172.101V169.184L717.849 166.85L720.783 163.35L719.022 161.016L720.783 158.682L719.022 155.765L719.609 151.097L717.849 142.929L720.783 136.511L723.129 131.843V128.926V124.842L719.609 119.591L719.022 113.173L716.089 108.505L717.262 100.92L714.329 97.4194L711.982 92.7518V90.418V87.5007V85.7504L711.395 84Z" fill="#FFD597"/>
<path d="M711.395 84H93L93.5867 491.833L771.827 493L771.24 482.498L771.827 480.164L773 476.663V472.579L771.827 467.912L770.653 462.077V457.409L769.48 453.909V441.073L765.373 438.155L759.506 427.653L757.745 423.569L756.572 420.068L755.985 412.484L754.812 407.233L751.292 401.981L750.705 397.897L752.465 393.23V388.562L750.705 378.643L751.878 374.559L752.465 368.725L754.225 365.807L754.812 363.474L751.878 362.307L750.705 359.389L748.358 356.472V352.971L749.531 348.887L748.358 346.553L749.531 343.636L748.358 338.385L747.771 334.301L748.358 332.551L746.598 319.131L747.771 308.629L746.011 300.461L746.598 298.71L744.838 297.544L746.598 291.126L744.838 289.959L746.011 285.874L744.838 283.541L746.011 274.205L743.078 269.538V264.87L738.971 257.285L738.384 251.451L734.277 245.616L733.104 238.615L730.757 237.448L731.343 231.613L729.583 228.113L727.823 225.779L727.236 221.111L719.609 197.773L720.783 189.021L721.956 177.936L720.783 175.019L719.609 172.101V169.184L717.849 166.85L720.783 163.35L719.022 161.016L720.783 158.682L719.022 155.765L719.609 151.097L717.849 142.929L720.783 136.511L723.129 131.843V128.926V124.842L719.609 119.591L719.022 113.173L716.089 108.505L717.262 100.92L714.329 97.4194L711.982 92.7518V90.418V87.5007V85.7504L711.395 84Z" stroke="black"/>
</g>
<path d="M770.722 246.545H774.591L779.773 259.193H779.977L785.159 246.545H789.028V264H785.994V252.009H785.832L781.009 263.949H778.741L773.918 251.983H773.756V264H770.722V246.545ZM806.815 246.545V264H804.003L795.778 252.111H795.634V264H792.472V246.545H795.301L803.517 258.443H803.67V246.545H806.815Z" fill="#005A5E"/>
<path d="M419.207 514.344C419.128 513.599 418.793 513.02 418.202 512.605C417.616 512.19 416.855 511.983 415.918 511.983C415.259 511.983 414.693 512.082 414.222 512.281C413.75 512.48 413.389 512.75 413.139 513.091C412.889 513.432 412.761 513.821 412.756 514.259C412.756 514.622 412.838 514.937 413.003 515.205C413.173 515.472 413.403 515.699 413.693 515.886C413.983 516.068 414.304 516.222 414.656 516.347C415.009 516.472 415.364 516.577 415.722 516.662L417.358 517.071C418.017 517.224 418.651 517.432 419.259 517.693C419.872 517.955 420.42 518.284 420.903 518.682C421.392 519.08 421.778 519.56 422.062 520.122C422.347 520.685 422.489 521.344 422.489 522.099C422.489 523.122 422.227 524.023 421.705 524.801C421.182 525.574 420.426 526.179 419.438 526.616C418.455 527.048 417.264 527.264 415.866 527.264C414.509 527.264 413.33 527.054 412.33 526.634C411.335 526.213 410.557 525.599 409.994 524.793C409.438 523.986 409.136 523.003 409.091 521.844H412.202C412.247 522.452 412.435 522.957 412.764 523.361C413.094 523.764 413.523 524.065 414.051 524.264C414.585 524.463 415.182 524.562 415.841 524.562C416.528 524.562 417.131 524.46 417.648 524.256C418.17 524.045 418.58 523.756 418.875 523.386C419.17 523.011 419.321 522.574 419.327 522.074C419.321 521.619 419.188 521.244 418.926 520.949C418.665 520.648 418.298 520.398 417.827 520.199C417.361 519.994 416.815 519.812 416.19 519.653L414.205 519.142C412.767 518.773 411.631 518.213 410.795 517.463C409.966 516.707 409.551 515.705 409.551 514.455C409.551 513.426 409.83 512.526 410.386 511.753C410.949 510.98 411.713 510.381 412.679 509.955C413.645 509.523 414.739 509.307 415.96 509.307C417.199 509.307 418.284 509.523 419.216 509.955C420.153 510.381 420.889 510.974 421.423 511.736C421.957 512.491 422.233 513.361 422.25 514.344H419.207ZM431.222 527H425.308V509.545H431.342C433.075 509.545 434.563 509.895 435.808 510.594C437.058 511.287 438.018 512.284 438.688 513.585C439.359 514.886 439.694 516.443 439.694 518.256C439.694 520.074 439.356 521.636 438.68 522.943C438.009 524.25 437.04 525.253 435.773 525.952C434.512 526.651 432.995 527 431.222 527ZM428.469 524.264H431.069C432.285 524.264 433.299 524.043 434.112 523.599C434.924 523.151 435.535 522.483 435.944 521.597C436.353 520.705 436.558 519.591 436.558 518.256C436.558 516.92 436.353 515.812 435.944 514.932C435.535 514.045 434.93 513.384 434.129 512.946C433.333 512.503 432.344 512.281 431.163 512.281H428.469V524.264Z" fill="#005A5E"/>
<path d="M33.7216 274.545H37.5909L42.7727 287.193H42.9773L48.1591 274.545H52.0284V292H48.9943V280.009H48.8324L44.0085 291.949H41.7415L36.9176 279.983H36.7557V292H33.7216V274.545ZM69.8153 274.545V292H67.0028L58.7784 280.111H58.6335V292H55.4716V274.545H58.3011L66.517 286.443H66.6705V274.545H69.8153Z" fill="#005A5E"/>
<circle cx="389.511" cy="375.511" r="9.01136" fill="#FF8F87" stroke="black"/>
<path d="M333.58 409V390.818H340.86C342.198 390.818 343.313 391.016 344.207 391.413C345.101 391.81 345.772 392.36 346.222 393.064C346.672 393.763 346.897 394.568 346.897 395.479C346.897 396.189 346.755 396.814 346.471 397.352C346.187 397.885 345.796 398.323 345.299 398.666C344.808 399.004 344.246 399.243 343.612 399.385V399.563C344.305 399.592 344.953 399.788 345.556 400.149C346.166 400.51 346.66 401.016 347.039 401.667C347.418 402.312 347.607 403.081 347.607 403.975C347.607 404.94 347.368 405.801 346.888 406.559C346.415 407.31 345.713 407.905 344.784 408.343C343.855 408.781 342.71 409 341.348 409H333.58ZM337.424 405.857H340.558C341.629 405.857 342.411 405.653 342.902 405.245C343.393 404.83 343.639 404.28 343.639 403.593C343.639 403.09 343.518 402.646 343.275 402.262C343.032 401.877 342.686 401.575 342.236 401.356C341.792 401.137 341.263 401.028 340.647 401.028H337.424V405.857ZM337.424 398.426H340.274C340.801 398.426 341.268 398.335 341.677 398.151C342.091 397.962 342.417 397.696 342.653 397.352C342.896 397.009 343.017 396.598 343.017 396.118C343.017 395.461 342.784 394.932 342.316 394.529C341.854 394.127 341.197 393.925 340.345 393.925H337.424V398.426ZM350.038 409V395.364H353.82V409H350.038ZM351.937 393.606C351.375 393.606 350.893 393.419 350.49 393.047C350.094 392.668 349.896 392.215 349.896 391.688C349.896 391.167 350.094 390.721 350.49 390.348C350.893 389.969 351.375 389.779 351.937 389.779C352.5 389.779 352.979 389.969 353.376 390.348C353.778 390.721 353.979 391.167 353.979 391.688C353.979 392.215 353.778 392.668 353.376 393.047C352.979 393.419 352.5 393.606 351.937 393.606ZM368.195 399.252L364.733 399.465C364.673 399.169 364.546 398.903 364.351 398.666C364.156 398.424 363.898 398.231 363.578 398.089C363.265 397.941 362.889 397.867 362.451 397.867C361.865 397.867 361.371 397.991 360.968 398.24C360.566 398.483 360.365 398.808 360.365 399.217C360.365 399.542 360.495 399.817 360.755 400.042C361.016 400.267 361.463 400.448 362.096 400.584L364.564 401.081C365.89 401.353 366.878 401.791 367.529 402.395C368.18 402.999 368.506 403.792 368.506 404.774C368.506 405.668 368.242 406.452 367.716 407.127C367.195 407.801 366.479 408.328 365.567 408.707C364.662 409.08 363.617 409.266 362.433 409.266C360.628 409.266 359.19 408.891 358.119 408.139C357.053 407.381 356.429 406.351 356.245 405.049L359.965 404.854C360.078 405.404 360.35 405.825 360.782 406.115C361.214 406.399 361.767 406.541 362.442 406.541C363.105 406.541 363.638 406.414 364.04 406.159C364.449 405.899 364.656 405.564 364.662 405.156C364.656 404.813 364.511 404.531 364.227 404.312C363.942 404.088 363.504 403.916 362.913 403.798L360.551 403.327C359.219 403.061 358.228 402.599 357.577 401.942C356.932 401.285 356.609 400.448 356.609 399.43C356.609 398.554 356.846 397.799 357.32 397.166C357.799 396.533 358.471 396.044 359.335 395.701C360.205 395.358 361.223 395.186 362.389 395.186C364.111 395.186 365.467 395.55 366.455 396.278C367.449 397.006 368.029 397.997 368.195 399.252ZM370.887 409V395.364H374.492V397.77H374.651C374.935 396.971 375.409 396.34 376.072 395.879C376.735 395.417 377.528 395.186 378.451 395.186C379.386 395.186 380.182 395.42 380.839 395.887C381.496 396.349 381.934 396.976 382.153 397.77H382.295C382.573 396.988 383.076 396.364 383.804 395.896C384.538 395.423 385.405 395.186 386.406 395.186C387.678 395.186 388.711 395.592 389.504 396.402C390.303 397.207 390.703 398.35 390.703 399.829V409H386.929V400.575C386.929 399.817 386.728 399.249 386.326 398.87C385.923 398.492 385.42 398.302 384.816 398.302C384.13 398.302 383.594 398.521 383.21 398.959C382.825 399.391 382.633 399.962 382.633 400.673V409H378.966V400.495C378.966 399.826 378.774 399.294 378.389 398.897C378.01 398.5 377.51 398.302 376.889 398.302C376.468 398.302 376.09 398.409 375.752 398.622C375.421 398.829 375.157 399.122 374.962 399.501C374.767 399.874 374.669 400.312 374.669 400.815V409H370.887ZM397.578 409.257C396.708 409.257 395.933 409.107 395.252 408.805C394.572 408.497 394.033 408.044 393.637 407.446C393.246 406.843 393.051 406.091 393.051 405.191C393.051 404.434 393.19 403.798 393.468 403.283C393.746 402.768 394.125 402.353 394.604 402.04C395.084 401.726 395.628 401.489 396.238 401.33C396.853 401.17 397.498 401.057 398.173 400.992C398.966 400.909 399.605 400.832 400.091 400.761C400.576 400.684 400.928 400.572 401.147 400.424C401.366 400.276 401.476 400.057 401.476 399.767V399.714C401.476 399.152 401.298 398.717 400.943 398.409C400.594 398.101 400.097 397.947 399.452 397.947C398.771 397.947 398.229 398.098 397.827 398.4C397.425 398.696 397.158 399.069 397.028 399.518L393.53 399.234C393.708 398.406 394.057 397.69 394.578 397.086C395.099 396.476 395.77 396.009 396.593 395.683C397.422 395.352 398.38 395.186 399.469 395.186C400.227 395.186 400.952 395.275 401.644 395.452C402.343 395.63 402.961 395.905 403.5 396.278C404.044 396.651 404.474 397.13 404.787 397.716C405.101 398.296 405.258 398.992 405.258 399.803V409H401.671V407.109H401.565C401.346 407.535 401.053 407.911 400.686 408.237C400.319 408.556 399.878 408.808 399.363 408.991C398.848 409.169 398.253 409.257 397.578 409.257ZM398.661 406.647C399.218 406.647 399.709 406.538 400.135 406.319C400.561 406.094 400.896 405.792 401.138 405.413C401.381 405.035 401.502 404.605 401.502 404.126V402.679C401.384 402.756 401.221 402.827 401.014 402.892C400.813 402.951 400.585 403.007 400.331 403.061C400.076 403.108 399.822 403.152 399.567 403.194C399.313 403.229 399.082 403.262 398.875 403.292C398.431 403.357 398.043 403.46 397.712 403.602C397.38 403.744 397.123 403.937 396.939 404.179C396.756 404.416 396.664 404.712 396.664 405.067C396.664 405.582 396.85 405.976 397.223 406.248C397.602 406.514 398.081 406.647 398.661 406.647ZM408.192 409V395.364H411.858V397.743H412C412.249 396.897 412.666 396.257 413.252 395.825C413.838 395.387 414.513 395.168 415.276 395.168C415.466 395.168 415.67 395.18 415.889 395.204C416.108 395.228 416.3 395.26 416.466 395.301V398.657C416.288 398.604 416.043 398.557 415.729 398.515C415.415 398.474 415.128 398.453 414.868 398.453C414.312 398.453 413.814 398.574 413.377 398.817C412.944 399.054 412.601 399.385 412.347 399.811C412.098 400.238 411.974 400.729 411.974 401.285V409H408.192ZM423.948 409.266C422.551 409.266 421.35 408.97 420.343 408.379C419.343 407.781 418.574 406.952 418.035 405.893C417.502 404.833 417.236 403.614 417.236 402.235C417.236 400.838 417.505 399.613 418.044 398.56C418.589 397.5 419.361 396.675 420.361 396.083C421.361 395.485 422.551 395.186 423.93 395.186C425.12 395.186 426.161 395.402 427.055 395.834C427.949 396.266 428.656 396.873 429.177 397.654C429.698 398.435 429.985 399.353 430.038 400.406H426.469C426.368 399.726 426.102 399.178 425.67 398.764C425.244 398.344 424.685 398.134 423.992 398.134C423.406 398.134 422.894 398.293 422.456 398.613C422.024 398.927 421.687 399.385 421.444 399.989C421.202 400.593 421.08 401.324 421.08 402.182C421.08 403.052 421.199 403.792 421.435 404.401C421.678 405.011 422.018 405.475 422.456 405.795C422.894 406.115 423.406 406.275 423.992 406.275C424.424 406.275 424.812 406.186 425.155 406.008C425.504 405.831 425.791 405.573 426.016 405.236C426.247 404.893 426.398 404.481 426.469 404.002H430.038C429.979 405.043 429.695 405.961 429.186 406.754C428.683 407.541 427.987 408.157 427.099 408.6C426.212 409.044 425.161 409.266 423.948 409.266ZM435.886 405.076L435.895 400.539H436.446L440.813 395.364H445.155L439.286 402.217H438.39L435.886 405.076ZM432.459 409V390.818H436.241V409H432.459ZM440.982 409L436.969 403.061L439.491 400.388L445.412 409H440.982Z" fill="black"/>
<path d="M683.202 394V375.818H694.104V377.771H685.403V383.915H693.287V385.868H685.403V394H683.202ZM701.603 394.32C700.739 394.32 699.955 394.157 699.251 393.831C698.546 393.5 697.987 393.023 697.573 392.402C697.158 391.775 696.951 391.017 696.951 390.129C696.951 389.348 697.105 388.715 697.413 388.229C697.721 387.738 698.132 387.353 698.647 387.075C699.162 386.797 699.73 386.59 700.351 386.454C700.979 386.312 701.609 386.199 702.242 386.116C703.071 386.01 703.743 385.93 704.258 385.877C704.779 385.818 705.157 385.72 705.394 385.584C705.637 385.448 705.758 385.211 705.758 384.874V384.803C705.758 383.927 705.518 383.246 705.039 382.761C704.565 382.275 703.846 382.033 702.882 382.033C701.881 382.033 701.097 382.252 700.529 382.69C699.961 383.128 699.561 383.595 699.331 384.092L697.342 383.382C697.697 382.554 698.17 381.908 698.762 381.447C699.36 380.979 700.011 380.654 700.715 380.47C701.426 380.281 702.124 380.186 702.811 380.186C703.249 380.186 703.752 380.239 704.32 380.346C704.894 380.446 705.447 380.657 705.98 380.976C706.519 381.296 706.965 381.778 707.321 382.423C707.676 383.068 707.853 383.933 707.853 385.016V394H705.758V392.153H705.652C705.509 392.449 705.273 392.766 704.941 393.103C704.61 393.441 704.169 393.728 703.619 393.964C703.068 394.201 702.396 394.32 701.603 394.32ZM701.923 392.438C702.751 392.438 703.45 392.275 704.018 391.949C704.592 391.624 705.024 391.203 705.314 390.689C705.61 390.174 705.758 389.632 705.758 389.064V387.146C705.669 387.253 705.474 387.35 705.172 387.439C704.876 387.522 704.533 387.596 704.142 387.661C703.758 387.72 703.382 387.774 703.015 387.821C702.654 387.862 702.361 387.898 702.136 387.928C701.591 387.999 701.082 388.114 700.609 388.274C700.141 388.428 699.763 388.661 699.473 388.975C699.188 389.283 699.046 389.703 699.046 390.236C699.046 390.964 699.316 391.514 699.854 391.887C700.399 392.254 701.088 392.438 701.923 392.438ZM711.677 394V380.364H713.702V382.423H713.844C714.092 381.749 714.542 381.201 715.193 380.781C715.844 380.361 716.578 380.151 717.395 380.151C717.549 380.151 717.741 380.154 717.972 380.159C718.203 380.165 718.377 380.174 718.496 380.186V382.317C718.425 382.299 718.262 382.272 718.007 382.237C717.759 382.195 717.495 382.175 717.217 382.175C716.554 382.175 715.962 382.314 715.442 382.592C714.927 382.864 714.518 383.243 714.216 383.728C713.921 384.208 713.773 384.755 713.773 385.371V394H711.677ZM726.068 399.398C725.056 399.398 724.186 399.268 723.458 399.007C722.73 398.753 722.124 398.415 721.638 397.995C721.159 397.581 720.777 397.137 720.493 396.663L722.162 395.491C722.352 395.74 722.591 396.024 722.881 396.344C723.171 396.669 723.568 396.95 724.071 397.187C724.58 397.43 725.246 397.551 726.068 397.551C727.169 397.551 728.078 397.285 728.794 396.752C729.51 396.219 729.868 395.385 729.868 394.249V391.479H729.691C729.537 391.727 729.318 392.035 729.034 392.402C728.755 392.763 728.353 393.086 727.826 393.37C727.305 393.648 726.601 393.787 725.713 393.787C724.612 393.787 723.624 393.527 722.748 393.006C721.878 392.485 721.189 391.727 720.68 390.733C720.176 389.739 719.925 388.531 719.925 387.111C719.925 385.714 720.171 384.498 720.662 383.462C721.153 382.42 721.837 381.615 722.713 381.047C723.588 380.473 724.601 380.186 725.749 380.186C726.637 380.186 727.341 380.334 727.862 380.63C728.388 380.92 728.791 381.251 729.069 381.624C729.353 381.991 729.572 382.293 729.726 382.53H729.939V380.364H731.963V394.391C731.963 395.562 731.697 396.515 731.164 397.249C730.637 397.989 729.927 398.531 729.034 398.874C728.146 399.223 727.157 399.398 726.068 399.398ZM725.997 391.905C726.838 391.905 727.548 391.712 728.128 391.328C728.708 390.943 729.149 390.39 729.451 389.668C729.753 388.946 729.904 388.081 729.904 387.075C729.904 386.093 729.756 385.226 729.46 384.474C729.164 383.722 728.726 383.134 728.146 382.707C727.566 382.281 726.85 382.068 725.997 382.068C725.11 382.068 724.37 382.293 723.778 382.743C723.192 383.193 722.751 383.796 722.455 384.554C722.165 385.312 722.02 386.152 722.02 387.075C722.02 388.022 722.168 388.86 722.464 389.588C722.766 390.31 723.21 390.878 723.796 391.292C724.387 391.701 725.121 391.905 725.997 391.905ZM741.338 394.284C740.107 394.284 739.027 393.991 738.098 393.405C737.175 392.819 736.452 392 735.932 390.946C735.417 389.893 735.159 388.661 735.159 387.253C735.159 385.832 735.417 384.592 735.932 383.533C736.452 382.474 737.175 381.651 738.098 381.065C739.027 380.479 740.107 380.186 741.338 380.186C742.569 380.186 743.646 380.479 744.57 381.065C745.499 381.651 746.221 382.474 746.736 383.533C747.257 384.592 747.517 385.832 747.517 387.253C747.517 388.661 747.257 389.893 746.736 390.946C746.221 392 745.499 392.819 744.57 393.405C743.646 393.991 742.569 394.284 741.338 394.284ZM741.338 392.402C742.273 392.402 743.043 392.162 743.646 391.683C744.25 391.203 744.697 390.573 744.987 389.792C745.277 389.011 745.422 388.164 745.422 387.253C745.422 386.341 745.277 385.492 744.987 384.705C744.697 383.918 744.25 383.281 743.646 382.796C743.043 382.311 742.273 382.068 741.338 382.068C740.403 382.068 739.634 382.311 739.03 382.796C738.426 383.281 737.979 383.918 737.689 384.705C737.399 385.492 737.254 386.341 737.254 387.253C737.254 388.164 737.399 389.011 737.689 389.792C737.979 390.573 738.426 391.203 739.03 391.683C739.634 392.162 740.403 392.402 741.338 392.402Z" fill="black"/>
<path d="M607.631 248.5C607.435 247.902 607.178 247.367 606.858 246.893C606.545 246.414 606.169 246.005 605.731 245.668C605.299 245.331 604.808 245.073 604.257 244.896C603.707 244.718 603.103 244.629 602.446 244.629C601.369 244.629 600.389 244.907 599.507 245.464C598.626 246.02 597.924 246.84 597.403 247.923C596.883 249.006 596.622 250.335 596.622 251.909C596.622 253.483 596.886 254.812 597.412 255.895C597.939 256.978 598.652 257.798 599.552 258.354C600.451 258.911 601.464 259.189 602.588 259.189C603.63 259.189 604.547 258.967 605.34 258.523C606.139 258.073 606.761 257.44 607.205 256.623C607.654 255.801 607.879 254.833 607.879 253.72L608.554 253.862H603.085V251.909H610.01V253.862C610.01 255.36 609.69 256.662 609.051 257.768C608.418 258.875 607.542 259.733 606.423 260.343C605.311 260.947 604.032 261.249 602.588 261.249C600.978 261.249 599.564 260.87 598.344 260.112C597.131 259.355 596.184 258.277 595.504 256.881C594.829 255.484 594.491 253.827 594.491 251.909C594.491 250.471 594.684 249.178 595.069 248.029C595.459 246.875 596.01 245.893 596.72 245.082C597.43 244.271 598.27 243.65 599.241 243.218C600.212 242.786 601.28 242.57 602.446 242.57C603.405 242.57 604.299 242.715 605.127 243.005C605.962 243.289 606.704 243.694 607.355 244.221C608.012 244.742 608.56 245.366 608.998 246.094C609.436 246.816 609.738 247.618 609.903 248.5H607.631ZM613.497 261V247.364H615.521V249.423H615.663C615.911 248.749 616.361 248.201 617.012 247.781C617.663 247.361 618.397 247.151 619.214 247.151C619.368 247.151 619.56 247.154 619.791 247.159C620.022 247.165 620.197 247.174 620.315 247.186V249.317C620.244 249.299 620.081 249.272 619.827 249.237C619.578 249.195 619.315 249.175 619.036 249.175C618.374 249.175 617.782 249.314 617.261 249.592C616.746 249.864 616.338 250.243 616.036 250.728C615.74 251.208 615.592 251.755 615.592 252.371V261H613.497ZM626.811 261.32C625.947 261.32 625.163 261.157 624.459 260.831C623.754 260.5 623.195 260.023 622.781 259.402C622.366 258.775 622.159 258.017 622.159 257.129C622.159 256.348 622.313 255.715 622.621 255.229C622.929 254.738 623.34 254.353 623.855 254.075C624.37 253.797 624.938 253.59 625.559 253.454C626.187 253.312 626.817 253.199 627.45 253.116C628.279 253.01 628.951 252.93 629.466 252.877C629.987 252.818 630.365 252.72 630.602 252.584C630.845 252.448 630.966 252.211 630.966 251.874V251.803C630.966 250.927 630.726 250.246 630.247 249.761C629.773 249.275 629.054 249.033 628.09 249.033C627.089 249.033 626.305 249.252 625.737 249.69C625.169 250.128 624.769 250.595 624.539 251.092L622.55 250.382C622.905 249.554 623.378 248.908 623.97 248.447C624.568 247.979 625.219 247.654 625.923 247.47C626.634 247.281 627.332 247.186 628.019 247.186C628.457 247.186 628.96 247.239 629.528 247.346C630.102 247.446 630.655 247.657 631.188 247.976C631.727 248.296 632.173 248.778 632.529 249.423C632.884 250.068 633.061 250.933 633.061 252.016V261H630.966V259.153H630.86C630.718 259.449 630.481 259.766 630.149 260.103C629.818 260.441 629.377 260.728 628.827 260.964C628.276 261.201 627.604 261.32 626.811 261.32ZM627.131 259.438C627.959 259.438 628.658 259.275 629.226 258.949C629.8 258.624 630.232 258.203 630.522 257.689C630.818 257.174 630.966 256.632 630.966 256.064V254.146C630.877 254.253 630.682 254.35 630.38 254.439C630.084 254.522 629.741 254.596 629.35 254.661C628.966 254.72 628.59 254.774 628.223 254.821C627.862 254.862 627.569 254.898 627.344 254.928C626.799 254.999 626.29 255.114 625.817 255.274C625.349 255.428 624.971 255.661 624.681 255.975C624.396 256.283 624.254 256.703 624.254 257.236C624.254 257.964 624.524 258.514 625.062 258.887C625.607 259.254 626.296 259.438 627.131 259.438ZM638.981 252.797V261H636.885V247.364H638.91V249.494H639.087C639.407 248.802 639.892 248.246 640.543 247.825C641.194 247.399 642.035 247.186 643.064 247.186C643.988 247.186 644.796 247.375 645.488 247.754C646.18 248.127 646.719 248.695 647.104 249.459C647.488 250.216 647.681 251.175 647.681 252.335V261H645.586V252.477C645.586 251.406 645.307 250.571 644.751 249.974C644.195 249.37 643.431 249.068 642.461 249.068C641.792 249.068 641.194 249.213 640.667 249.503C640.147 249.793 639.735 250.216 639.433 250.773C639.131 251.329 638.981 252.004 638.981 252.797ZM657.44 247.364V249.139H650.373V247.364H657.44ZM652.433 244.097H654.528V257.094C654.528 257.686 654.614 258.129 654.785 258.425C654.963 258.715 655.188 258.911 655.46 259.011C655.738 259.106 656.031 259.153 656.339 259.153C656.57 259.153 656.759 259.142 656.907 259.118C657.055 259.088 657.173 259.065 657.262 259.047L657.688 260.929C657.546 260.982 657.348 261.036 657.094 261.089C656.839 261.148 656.517 261.178 656.126 261.178C655.534 261.178 654.954 261.05 654.386 260.796C653.824 260.541 653.356 260.154 652.983 259.633C652.616 259.112 652.433 258.455 652.433 257.662V244.097ZM667.907 261V242.818H678.809V244.771H670.108V250.915H677.992V252.868H670.108V261H667.907ZM686.834 261.284C685.603 261.284 684.523 260.991 683.594 260.405C682.671 259.819 681.949 259 681.428 257.946C680.913 256.893 680.655 255.661 680.655 254.253C680.655 252.832 680.913 251.592 681.428 250.533C681.949 249.474 682.671 248.651 683.594 248.065C684.523 247.479 685.603 247.186 686.834 247.186C688.065 247.186 689.143 247.479 690.066 248.065C690.995 248.651 691.717 249.474 692.232 250.533C692.753 251.592 693.013 252.832 693.013 254.253C693.013 255.661 692.753 256.893 692.232 257.946C691.717 259 690.995 259.819 690.066 260.405C689.143 260.991 688.065 261.284 686.834 261.284ZM686.834 259.402C687.769 259.402 688.539 259.162 689.143 258.683C689.746 258.203 690.193 257.573 690.483 256.792C690.773 256.011 690.918 255.164 690.918 254.253C690.918 253.341 690.773 252.492 690.483 251.705C690.193 250.918 689.746 250.281 689.143 249.796C688.539 249.311 687.769 249.068 686.834 249.068C685.899 249.068 685.13 249.311 684.526 249.796C683.922 250.281 683.476 250.918 683.186 251.705C682.896 252.492 682.751 253.341 682.751 254.253C682.751 255.164 682.896 256.011 683.186 256.792C683.476 257.573 683.922 258.203 684.526 258.683C685.13 259.162 685.899 259.402 686.834 259.402ZM696.212 261V247.364H698.236V249.423H698.378C698.626 248.749 699.076 248.201 699.727 247.781C700.378 247.361 701.112 247.151 701.929 247.151C702.083 247.151 702.275 247.154 702.506 247.159C702.737 247.165 702.911 247.174 703.03 247.186V249.317C702.959 249.299 702.796 249.272 702.541 249.237C702.293 249.195 702.03 249.175 701.751 249.175C701.088 249.175 700.497 249.314 699.976 249.592C699.461 249.864 699.052 250.243 698.751 250.728C698.455 251.208 698.307 251.755 698.307 252.371V261H696.212ZM707.466 256.028L707.431 253.436H707.857L713.823 247.364H716.415L710.059 253.791H709.881L707.466 256.028ZM705.513 261V242.818H707.608V261H705.513ZM714.178 261L708.851 254.253L710.343 252.797L716.841 261H714.178ZM728.771 250.418L726.889 250.95C726.771 250.637 726.596 250.332 726.365 250.036C726.14 249.734 725.832 249.485 725.442 249.29C725.051 249.095 724.551 248.997 723.941 248.997C723.107 248.997 722.412 249.19 721.855 249.574C721.305 249.953 721.03 250.435 721.03 251.021C721.03 251.542 721.219 251.953 721.598 252.255C721.977 252.557 722.568 252.809 723.373 253.01L725.397 253.507C726.617 253.803 727.525 254.256 728.123 254.865C728.721 255.469 729.02 256.247 729.02 257.2C729.02 257.982 728.795 258.68 728.345 259.295C727.901 259.911 727.28 260.396 726.481 260.751C725.682 261.107 724.752 261.284 723.693 261.284C722.302 261.284 721.151 260.982 720.239 260.379C719.328 259.775 718.751 258.893 718.508 257.733L720.497 257.236C720.686 257.97 721.044 258.52 721.571 258.887C722.104 259.254 722.799 259.438 723.657 259.438C724.634 259.438 725.409 259.23 725.983 258.816C726.563 258.396 726.853 257.893 726.853 257.307C726.853 256.833 726.688 256.437 726.356 256.117C726.025 255.792 725.516 255.549 724.829 255.389L722.557 254.857C721.308 254.561 720.39 254.102 719.804 253.48C719.224 252.853 718.934 252.069 718.934 251.128C718.934 250.358 719.15 249.678 719.582 249.086C720.02 248.494 720.615 248.029 721.367 247.692C722.124 247.355 722.983 247.186 723.941 247.186C725.291 247.186 726.35 247.482 727.12 248.074C727.895 248.666 728.446 249.447 728.771 250.418Z" fill="black"/>
<path d="M516.162 333.818H518.364V346.815C518.364 347.975 518.151 348.961 517.724 349.772C517.298 350.583 516.698 351.198 515.922 351.618C515.147 352.038 514.232 352.249 513.179 352.249C512.185 352.249 511.3 352.068 510.525 351.707C509.749 351.34 509.14 350.819 508.696 350.145C508.252 349.47 508.03 348.668 508.03 347.739H510.196C510.196 348.254 510.323 348.703 510.578 349.088C510.838 349.467 511.193 349.763 511.643 349.976C512.093 350.189 512.605 350.295 513.179 350.295C513.812 350.295 514.351 350.162 514.795 349.896C515.239 349.63 515.576 349.239 515.807 348.724C516.044 348.203 516.162 347.567 516.162 346.815V333.818ZM526.505 352.32C525.641 352.32 524.856 352.157 524.152 351.831C523.448 351.5 522.888 351.023 522.474 350.402C522.06 349.775 521.853 349.017 521.853 348.129C521.853 347.348 522.007 346.715 522.314 346.229C522.622 345.738 523.033 345.353 523.548 345.075C524.063 344.797 524.631 344.59 525.253 344.454C525.88 344.312 526.511 344.199 527.144 344.116C527.972 344.01 528.644 343.93 529.159 343.877C529.68 343.818 530.059 343.72 530.295 343.584C530.538 343.448 530.659 343.211 530.659 342.874V342.803C530.659 341.927 530.42 341.246 529.94 340.761C529.467 340.275 528.748 340.033 527.783 340.033C526.783 340.033 525.999 340.252 525.43 340.69C524.862 341.128 524.463 341.595 524.232 342.092L522.243 341.382C522.598 340.554 523.072 339.908 523.664 339.447C524.261 338.979 524.913 338.654 525.617 338.47C526.327 338.281 527.025 338.186 527.712 338.186C528.15 338.186 528.653 338.239 529.221 338.346C529.795 338.446 530.349 338.657 530.881 338.976C531.42 339.296 531.867 339.778 532.222 340.423C532.577 341.068 532.755 341.933 532.755 343.016V352H530.659V350.153H530.553C530.411 350.449 530.174 350.766 529.843 351.103C529.511 351.441 529.07 351.728 528.52 351.964C527.969 352.201 527.298 352.32 526.505 352.32ZM526.824 350.438C527.653 350.438 528.351 350.275 528.919 349.949C529.493 349.624 529.926 349.203 530.216 348.689C530.511 348.174 530.659 347.632 530.659 347.064V345.146C530.571 345.253 530.375 345.35 530.074 345.439C529.778 345.522 529.434 345.596 529.044 345.661C528.659 345.72 528.283 345.774 527.916 345.821C527.555 345.862 527.262 345.898 527.037 345.928C526.493 345.999 525.984 346.114 525.51 346.274C525.043 346.428 524.664 346.661 524.374 346.975C524.09 347.283 523.948 347.703 523.948 348.236C523.948 348.964 524.217 349.514 524.756 349.887C525.3 350.254 525.99 350.438 526.824 350.438ZM536.579 352V338.364H538.603V340.494H538.78C539.065 339.766 539.523 339.201 540.157 338.799C540.79 338.39 541.55 338.186 542.438 338.186C543.338 338.186 544.086 338.39 544.684 338.799C545.288 339.201 545.758 339.766 546.096 340.494H546.238C546.587 339.79 547.111 339.231 547.809 338.816C548.508 338.396 549.345 338.186 550.322 338.186C551.541 338.186 552.538 338.568 553.313 339.331C554.089 340.089 554.476 341.27 554.476 342.874V352H552.381V342.874C552.381 341.867 552.106 341.148 551.556 340.716C551.005 340.284 550.357 340.068 549.611 340.068C548.653 340.068 547.91 340.358 547.383 340.938C546.856 341.512 546.593 342.24 546.593 343.122V352H544.462V342.661C544.462 341.885 544.211 341.261 543.708 340.787C543.205 340.308 542.556 340.068 541.763 340.068C541.219 340.068 540.71 340.213 540.236 340.503C539.769 340.793 539.39 341.196 539.1 341.711C538.816 342.22 538.674 342.808 538.674 343.477V352H536.579ZM564.025 352.284C562.711 352.284 561.577 351.994 560.624 351.414C559.677 350.828 558.946 350.011 558.432 348.964C557.923 347.91 557.668 346.685 557.668 345.288C557.668 343.892 557.923 342.661 558.432 341.595C558.946 340.524 559.663 339.689 560.58 339.092C561.503 338.488 562.58 338.186 563.812 338.186C564.522 338.186 565.223 338.304 565.916 338.541C566.608 338.778 567.238 339.163 567.807 339.695C568.375 340.222 568.828 340.92 569.165 341.79C569.502 342.661 569.671 343.732 569.671 345.004V345.892H559.16V344.081H567.54C567.54 343.312 567.386 342.625 567.079 342.021C566.777 341.418 566.345 340.941 565.782 340.592C565.226 340.243 564.569 340.068 563.812 340.068C562.977 340.068 562.255 340.275 561.645 340.69C561.042 341.098 560.577 341.631 560.252 342.288C559.926 342.945 559.763 343.649 559.763 344.401V345.608C559.763 346.638 559.941 347.511 560.296 348.227C560.657 348.937 561.157 349.479 561.796 349.852C562.435 350.219 563.178 350.402 564.025 350.402C564.575 350.402 565.072 350.325 565.516 350.171C565.966 350.011 566.354 349.775 566.679 349.461C567.005 349.141 567.256 348.745 567.434 348.271L569.458 348.839C569.245 349.526 568.887 350.13 568.384 350.651C567.881 351.165 567.259 351.568 566.519 351.858C565.779 352.142 564.948 352.284 564.025 352.284ZM582.517 341.418L580.635 341.95C580.517 341.637 580.342 341.332 580.111 341.036C579.886 340.734 579.579 340.485 579.188 340.29C578.797 340.095 578.297 339.997 577.688 339.997C576.853 339.997 576.158 340.19 575.601 340.574C575.051 340.953 574.776 341.435 574.776 342.021C574.776 342.542 574.965 342.953 575.344 343.255C575.723 343.557 576.314 343.809 577.119 344.01L579.144 344.507C580.363 344.803 581.271 345.256 581.869 345.865C582.467 346.469 582.766 347.247 582.766 348.2C582.766 348.982 582.541 349.68 582.091 350.295C581.647 350.911 581.026 351.396 580.227 351.751C579.428 352.107 578.498 352.284 577.439 352.284C576.048 352.284 574.897 351.982 573.986 351.379C573.074 350.775 572.497 349.893 572.254 348.733L574.243 348.236C574.432 348.97 574.79 349.52 575.317 349.887C575.85 350.254 576.545 350.438 577.403 350.438C578.38 350.438 579.155 350.23 579.729 349.816C580.31 349.396 580.6 348.893 580.6 348.307C580.6 347.833 580.434 347.437 580.102 347.117C579.771 346.792 579.262 346.549 578.575 346.389L576.303 345.857C575.054 345.561 574.136 345.102 573.551 344.48C572.97 343.853 572.68 343.069 572.68 342.128C572.68 341.358 572.897 340.678 573.329 340.086C573.767 339.494 574.361 339.029 575.113 338.692C575.871 338.355 576.729 338.186 577.688 338.186C579.037 338.186 580.096 338.482 580.866 339.074C581.641 339.666 582.192 340.447 582.517 341.418ZM591.85 338.364V340.139H584.783V338.364H591.85ZM586.843 335.097H588.938V348.094C588.938 348.686 589.024 349.129 589.195 349.425C589.373 349.715 589.598 349.911 589.87 350.011C590.148 350.106 590.441 350.153 590.749 350.153C590.98 350.153 591.169 350.142 591.317 350.118C591.465 350.088 591.584 350.065 591.672 350.047L592.099 351.929C591.956 351.982 591.758 352.036 591.504 352.089C591.249 352.148 590.927 352.178 590.536 352.178C589.944 352.178 589.364 352.05 588.796 351.796C588.234 351.541 587.766 351.154 587.393 350.633C587.026 350.112 586.843 349.455 586.843 348.662V335.097ZM600.395 352.284C599.164 352.284 598.084 351.991 597.154 351.405C596.231 350.819 595.509 350 594.988 348.946C594.473 347.893 594.216 346.661 594.216 345.253C594.216 343.832 594.473 342.592 594.988 341.533C595.509 340.474 596.231 339.651 597.154 339.065C598.084 338.479 599.164 338.186 600.395 338.186C601.626 338.186 602.703 338.479 603.626 339.065C604.556 339.651 605.278 340.474 605.793 341.533C606.313 342.592 606.574 343.832 606.574 345.253C606.574 346.661 606.313 347.893 605.793 348.946C605.278 350 604.556 350.819 603.626 351.405C602.703 351.991 601.626 352.284 600.395 352.284ZM600.395 350.402C601.33 350.402 602.099 350.162 602.703 349.683C603.307 349.203 603.754 348.573 604.044 347.792C604.334 347.011 604.479 346.164 604.479 345.253C604.479 344.341 604.334 343.492 604.044 342.705C603.754 341.918 603.307 341.281 602.703 340.796C602.099 340.311 601.33 340.068 600.395 340.068C599.46 340.068 598.69 340.311 598.087 340.796C597.483 341.281 597.036 341.918 596.746 342.705C596.456 343.492 596.311 344.341 596.311 345.253C596.311 346.164 596.456 347.011 596.746 347.792C597.036 348.573 597.483 349.203 598.087 349.683C598.69 350.162 599.46 350.402 600.395 350.402ZM612.398 352L608.243 338.364H610.445L613.392 348.804H613.534L616.446 338.364H618.683L621.56 348.768H621.702L624.649 338.364H626.851L622.696 352H620.636L617.653 341.524H617.44L614.457 352H612.398ZM631.716 343.797V352H629.621V338.364H631.645V340.494H631.822C632.142 339.802 632.627 339.246 633.278 338.825C633.929 338.399 634.77 338.186 635.8 338.186C636.723 338.186 637.531 338.375 638.223 338.754C638.916 339.127 639.454 339.695 639.839 340.459C640.224 341.216 640.416 342.175 640.416 343.335V352H638.321V343.477C638.321 342.406 638.043 341.571 637.487 340.974C636.93 340.37 636.167 340.068 635.196 340.068C634.527 340.068 633.929 340.213 633.403 340.503C632.882 340.793 632.471 341.216 632.169 341.773C631.867 342.329 631.716 343.004 631.716 343.797Z" fill="black"/>
<path d="M309.202 202.818H311.83L318.009 217.911H318.222L324.401 202.818H327.028V221H324.969V207.186H324.791L319.109 221H317.121L311.439 207.186H311.261V221H309.202V202.818ZM331.159 221V207.364H333.254V221H331.159ZM332.224 205.091C331.816 205.091 331.464 204.952 331.168 204.674C330.878 204.395 330.733 204.061 330.733 203.67C330.733 203.28 330.878 202.945 331.168 202.667C331.464 202.389 331.816 202.25 332.224 202.25C332.633 202.25 332.982 202.389 333.272 202.667C333.568 202.945 333.716 203.28 333.716 203.67C333.716 204.061 333.568 204.395 333.272 204.674C332.982 204.952 332.633 205.091 332.224 205.091ZM339.187 212.797V221H337.091V207.364H339.116V209.494H339.293C339.613 208.802 340.098 208.246 340.749 207.825C341.4 207.399 342.241 207.186 343.27 207.186C344.194 207.186 345.002 207.375 345.694 207.754C346.387 208.127 346.925 208.695 347.31 209.459C347.695 210.216 347.887 211.175 347.887 212.335V221H345.792V212.477C345.792 211.406 345.514 210.571 344.957 209.974C344.401 209.37 343.637 209.068 342.667 209.068C341.998 209.068 341.4 209.213 340.873 209.503C340.353 209.793 339.941 210.216 339.639 210.773C339.338 211.329 339.187 212.004 339.187 212.797ZM357.255 221.284C356.024 221.284 354.944 220.991 354.015 220.405C353.092 219.819 352.369 219 351.849 217.946C351.334 216.893 351.076 215.661 351.076 214.253C351.076 212.832 351.334 211.592 351.849 210.533C352.369 209.474 353.092 208.651 354.015 208.065C354.944 207.479 356.024 207.186 357.255 207.186C358.486 207.186 359.563 207.479 360.487 208.065C361.416 208.651 362.138 209.474 362.653 210.533C363.174 211.592 363.434 212.832 363.434 214.253C363.434 215.661 363.174 216.893 362.653 217.946C362.138 219 361.416 219.819 360.487 220.405C359.563 220.991 358.486 221.284 357.255 221.284ZM357.255 219.402C358.19 219.402 358.96 219.162 359.563 218.683C360.167 218.203 360.614 217.573 360.904 216.792C361.194 216.011 361.339 215.164 361.339 214.253C361.339 213.341 361.194 212.492 360.904 211.705C360.614 210.918 360.167 210.281 359.563 209.796C358.96 209.311 358.19 209.068 357.255 209.068C356.32 209.068 355.551 209.311 354.947 209.796C354.343 210.281 353.896 210.918 353.606 211.705C353.316 212.492 353.171 213.341 353.171 214.253C353.171 215.164 353.316 216.011 353.606 216.792C353.896 217.573 354.343 218.203 354.947 218.683C355.551 219.162 356.32 219.402 357.255 219.402ZM372.563 207.364V209.139H365.496V207.364H372.563ZM367.556 204.097H369.651V217.094C369.651 217.686 369.737 218.129 369.908 218.425C370.086 218.715 370.311 218.911 370.583 219.011C370.861 219.106 371.154 219.153 371.462 219.153C371.693 219.153 371.882 219.142 372.03 219.118C372.178 219.088 372.297 219.065 372.385 219.047L372.811 220.929C372.669 220.982 372.471 221.036 372.217 221.089C371.962 221.148 371.64 221.178 371.249 221.178C370.657 221.178 370.077 221.05 369.509 220.796C368.947 220.541 368.479 220.154 368.106 219.633C367.739 219.112 367.556 218.455 367.556 217.662V204.097Z" fill="black"/>
<path d="M109.202 376.818H111.83L118.009 391.911H118.222L124.401 376.818H127.028V395H124.969V381.186H124.791L119.109 395H117.121L111.439 381.186H111.261V395H109.202V376.818ZM136.876 395.284C135.562 395.284 134.429 394.994 133.476 394.414C132.529 393.828 131.798 393.011 131.283 391.964C130.774 390.91 130.52 389.685 130.52 388.288C130.52 386.892 130.774 385.661 131.283 384.595C131.798 383.524 132.514 382.689 133.432 382.092C134.355 381.488 135.432 381.186 136.663 381.186C137.373 381.186 138.075 381.304 138.767 381.541C139.46 381.778 140.09 382.163 140.658 382.695C141.226 383.222 141.679 383.92 142.016 384.79C142.354 385.661 142.522 386.732 142.522 388.004V388.892H132.011V387.081H140.392C140.392 386.312 140.238 385.625 139.93 385.021C139.628 384.418 139.196 383.941 138.634 383.592C138.078 383.243 137.421 383.068 136.663 383.068C135.829 383.068 135.107 383.275 134.497 383.69C133.893 384.098 133.429 384.631 133.103 385.288C132.778 385.945 132.615 386.649 132.615 387.401V388.608C132.615 389.638 132.792 390.511 133.147 391.227C133.508 391.937 134.009 392.479 134.648 392.852C135.287 393.219 136.03 393.402 136.876 393.402C137.427 393.402 137.924 393.325 138.368 393.171C138.817 393.011 139.205 392.775 139.531 392.461C139.856 392.141 140.108 391.745 140.285 391.271L142.309 391.839C142.096 392.526 141.738 393.13 141.235 393.651C140.732 394.165 140.111 394.568 139.371 394.858C138.631 395.142 137.799 395.284 136.876 395.284ZM150.859 395.284C149.722 395.284 148.719 394.997 147.849 394.423C146.979 393.843 146.299 393.026 145.807 391.973C145.316 390.913 145.07 389.661 145.07 388.217C145.07 386.785 145.316 385.542 145.807 384.489C146.299 383.435 146.982 382.621 147.858 382.047C148.734 381.473 149.746 381.186 150.894 381.186C151.782 381.186 152.483 381.334 152.998 381.63C153.519 381.92 153.916 382.251 154.188 382.624C154.466 382.991 154.682 383.293 154.836 383.53H155.014V376.818H157.109V395H155.085V392.905H154.836C154.682 393.153 154.463 393.467 154.179 393.846C153.895 394.219 153.49 394.553 152.963 394.849C152.436 395.139 151.735 395.284 150.859 395.284ZM151.143 393.402C151.983 393.402 152.694 393.183 153.274 392.745C153.854 392.301 154.294 391.689 154.596 390.907C154.898 390.12 155.049 389.212 155.049 388.182C155.049 387.164 154.901 386.273 154.605 385.51C154.309 384.74 153.871 384.142 153.291 383.716C152.711 383.284 151.995 383.068 151.143 383.068C150.255 383.068 149.515 383.296 148.923 383.752C148.337 384.202 147.897 384.814 147.601 385.589C147.311 386.359 147.166 387.223 147.166 388.182C147.166 389.152 147.314 390.034 147.609 390.827C147.911 391.615 148.355 392.242 148.941 392.71C149.533 393.171 150.267 393.402 151.143 393.402ZM166.777 395.284C165.546 395.284 164.466 394.991 163.536 394.405C162.613 393.819 161.891 393 161.37 391.946C160.855 390.893 160.598 389.661 160.598 388.253C160.598 386.832 160.855 385.592 161.37 384.533C161.891 383.474 162.613 382.651 163.536 382.065C164.466 381.479 165.546 381.186 166.777 381.186C168.008 381.186 169.085 381.479 170.008 382.065C170.937 382.651 171.66 383.474 172.174 384.533C172.695 385.592 172.956 386.832 172.956 388.253C172.956 389.661 172.695 390.893 172.174 391.946C171.66 393 170.937 393.819 170.008 394.405C169.085 394.991 168.008 395.284 166.777 395.284ZM166.777 393.402C167.712 393.402 168.481 393.162 169.085 392.683C169.689 392.203 170.136 391.573 170.426 390.792C170.716 390.011 170.861 389.164 170.861 388.253C170.861 387.341 170.716 386.492 170.426 385.705C170.136 384.918 169.689 384.281 169.085 383.796C168.481 383.311 167.712 383.068 166.777 383.068C165.842 383.068 165.072 383.311 164.468 383.796C163.865 384.281 163.418 384.918 163.128 385.705C162.838 386.492 162.693 387.341 162.693 388.253C162.693 389.164 162.838 390.011 163.128 390.792C163.418 391.573 163.865 392.203 164.468 392.683C165.072 393.162 165.842 393.402 166.777 393.402ZM176.154 395V381.364H178.178V383.423H178.32C178.569 382.749 179.019 382.201 179.67 381.781C180.321 381.361 181.055 381.151 181.871 381.151C182.025 381.151 182.218 381.154 182.448 381.159C182.679 381.165 182.854 381.174 182.972 381.186V383.317C182.901 383.299 182.738 383.272 182.484 383.237C182.235 383.195 181.972 383.175 181.694 383.175C181.031 383.175 180.439 383.314 179.918 383.592C179.403 383.864 178.995 384.243 178.693 384.728C178.397 385.208 178.249 385.755 178.249 386.371V395H176.154ZM189.468 395.32C188.604 395.32 187.82 395.157 187.116 394.831C186.412 394.5 185.852 394.023 185.438 393.402C185.024 392.775 184.816 392.017 184.816 391.129C184.816 390.348 184.97 389.715 185.278 389.229C185.586 388.738 185.997 388.353 186.512 388.075C187.027 387.797 187.595 387.59 188.217 387.454C188.844 387.312 189.474 387.199 190.108 387.116C190.936 387.01 191.608 386.93 192.123 386.877C192.644 386.818 193.023 386.72 193.259 386.584C193.502 386.448 193.623 386.211 193.623 385.874V385.803C193.623 384.927 193.384 384.246 192.904 383.761C192.431 383.275 191.712 383.033 190.747 383.033C189.747 383.033 188.962 383.252 188.394 383.69C187.826 384.128 187.427 384.595 187.196 385.092L185.207 384.382C185.562 383.554 186.036 382.908 186.628 382.447C187.225 381.979 187.876 381.654 188.581 381.47C189.291 381.281 189.989 381.186 190.676 381.186C191.114 381.186 191.617 381.239 192.185 381.346C192.759 381.446 193.313 381.657 193.845 381.976C194.384 382.296 194.831 382.778 195.186 383.423C195.541 384.068 195.718 384.933 195.718 386.016V395H193.623V393.153H193.517C193.375 393.449 193.138 393.766 192.807 394.103C192.475 394.441 192.034 394.728 191.484 394.964C190.933 395.201 190.262 395.32 189.468 395.32ZM189.788 393.438C190.617 393.438 191.315 393.275 191.883 392.949C192.457 392.624 192.889 392.203 193.179 391.689C193.475 391.174 193.623 390.632 193.623 390.064V388.146C193.535 388.253 193.339 388.35 193.037 388.439C192.741 388.522 192.398 388.596 192.008 388.661C191.623 388.72 191.247 388.774 190.88 388.821C190.519 388.862 190.226 388.898 190.001 388.928C189.457 388.999 188.948 389.114 188.474 389.274C188.007 389.428 187.628 389.661 187.338 389.975C187.054 390.283 186.912 390.703 186.912 391.236C186.912 391.964 187.181 392.514 187.72 392.887C188.264 393.254 188.954 393.438 189.788 393.438Z" fill="black"/>
<circle cx="749.511" cy="369.511" r="9.01136" fill="#FFE587" stroke="black"/>
<circle cx="577.511" cy="365.511" r="9.01136" fill="#FFE587" stroke="black"/>
<circle cx="725.511" cy="228.511" r="9.01136" fill="#FFE587" stroke="black"/>
<circle cx="341.511" cy="187.511" r="9.01136" fill="#FFE587" stroke="black"/>
<circle cx="341.511" cy="187.511" r="9.01136" fill="#FFE587" stroke="black"/>
<circle cx="138.511" cy="361.511" r="9.01136" fill="#FFE587" stroke="black"/>
<path d="M387.662 52.4347H384.474C384.384 51.9119 384.216 51.4489 383.972 51.0455C383.727 50.6364 383.423 50.2898 383.06 50.0057C382.696 49.7216 382.281 49.5085 381.815 49.3665C381.355 49.2188 380.858 49.1449 380.324 49.1449C379.375 49.1449 378.534 49.3835 377.801 49.8608C377.068 50.3324 376.494 51.0256 376.08 51.9403C375.665 52.8494 375.457 53.9602 375.457 55.2727C375.457 56.608 375.665 57.733 376.08 58.6477C376.5 59.5568 377.074 60.2443 377.801 60.7102C378.534 61.1705 379.372 61.4006 380.315 61.4006C380.838 61.4006 381.327 61.3324 381.781 61.196C382.241 61.054 382.653 60.8466 383.017 60.5739C383.386 60.3011 383.696 59.9659 383.946 59.5682C384.202 59.1705 384.378 58.7159 384.474 58.2045L387.662 58.2216C387.543 59.0511 387.284 59.8295 386.886 60.5568C386.494 61.2841 385.98 61.9261 385.344 62.483C384.707 63.0341 383.963 63.4659 383.111 63.7784C382.259 64.0852 381.313 64.2386 380.273 64.2386C378.739 64.2386 377.369 63.8835 376.165 63.1733C374.96 62.4631 374.011 61.4375 373.318 60.0966C372.625 58.7557 372.278 57.1477 372.278 55.2727C372.278 53.392 372.628 51.7841 373.327 50.4489C374.026 49.108 374.977 48.0824 376.182 47.3722C377.386 46.6619 378.75 46.3068 380.273 46.3068C381.244 46.3068 382.148 46.4432 382.983 46.7159C383.818 46.9886 384.563 47.3892 385.216 47.9176C385.869 48.4403 386.406 49.0824 386.827 49.8438C387.253 50.5994 387.531 51.4631 387.662 52.4347ZM394.188 64.2642C393.359 64.2642 392.612 64.1165 391.947 63.821C391.288 63.5199 390.765 63.0767 390.379 62.4915C389.998 61.9062 389.808 61.1847 389.808 60.3267C389.808 59.5881 389.944 58.9773 390.217 58.4943C390.489 58.0114 390.862 57.625 391.333 57.3352C391.805 57.0455 392.336 56.8267 392.927 56.679C393.523 56.5256 394.14 56.4148 394.776 56.3466C395.543 56.267 396.165 56.196 396.643 56.1335C397.12 56.0653 397.467 55.9631 397.683 55.8267C397.904 55.6847 398.015 55.4659 398.015 55.1705V55.1193C398.015 54.4773 397.825 53.9801 397.444 53.6278C397.063 53.2756 396.515 53.0994 395.799 53.0994C395.043 53.0994 394.444 53.2642 394.001 53.5938C393.563 53.9233 393.268 54.3125 393.114 54.7614L390.234 54.3523C390.461 53.5568 390.836 52.892 391.359 52.358C391.881 51.8182 392.521 51.4148 393.276 51.1477C394.032 50.875 394.867 50.7386 395.782 50.7386C396.413 50.7386 397.04 50.8125 397.665 50.9602C398.29 51.108 398.862 51.3523 399.379 51.6932C399.896 52.0284 400.31 52.4858 400.623 53.0653C400.941 53.6449 401.1 54.3693 401.1 55.2386V64H398.134V62.2017H398.032C397.844 62.5653 397.58 62.9062 397.239 63.2244C396.904 63.5369 396.481 63.7898 395.969 63.983C395.464 64.1705 394.87 64.2642 394.188 64.2642ZM394.989 61.9972C395.609 61.9972 396.146 61.875 396.6 61.6307C397.055 61.3807 397.404 61.0511 397.648 60.642C397.898 60.233 398.023 59.7869 398.023 59.304V57.7614C397.927 57.8409 397.762 57.9148 397.529 57.983C397.302 58.0511 397.046 58.1108 396.762 58.1619C396.478 58.2131 396.197 58.2585 395.918 58.2983C395.64 58.3381 395.398 58.3722 395.194 58.4006C394.734 58.4631 394.322 58.5653 393.958 58.7074C393.594 58.8494 393.308 59.0483 393.097 59.304C392.887 59.554 392.782 59.8778 392.782 60.2756C392.782 60.8438 392.989 61.2727 393.404 61.5625C393.819 61.8523 394.347 61.9972 394.989 61.9972ZM407.288 56.3295V64H404.202V50.9091H407.151V53.1335H407.305C407.606 52.4006 408.086 51.8182 408.745 51.3864C409.41 50.9545 410.231 50.7386 411.208 50.7386C412.112 50.7386 412.898 50.9318 413.569 51.3182C414.245 51.7045 414.768 52.2642 415.137 52.9972C415.512 53.7301 415.697 54.6193 415.691 55.6648V64H412.606V56.142C412.606 55.267 412.379 54.5824 411.924 54.0881C411.475 53.5937 410.853 53.3466 410.058 53.3466C409.518 53.3466 409.038 53.4659 408.617 53.7045C408.202 53.9375 407.876 54.2756 407.637 54.7188C407.404 55.1619 407.288 55.6989 407.288 56.3295ZM422.594 64.2642C421.765 64.2642 421.018 64.1165 420.353 63.821C419.694 63.5199 419.171 63.0767 418.785 62.4915C418.404 61.9062 418.214 61.1847 418.214 60.3267C418.214 59.5881 418.35 58.9773 418.623 58.4943C418.896 58.0114 419.268 57.625 419.739 57.3352C420.211 57.0455 420.742 56.8267 421.333 56.679C421.93 56.5256 422.546 56.4148 423.183 56.3466C423.95 56.267 424.572 56.196 425.049 56.1335C425.526 56.0653 425.873 55.9631 426.089 55.8267C426.31 55.6847 426.421 55.4659 426.421 55.1705V55.1193C426.421 54.4773 426.231 53.9801 425.85 53.6278C425.469 53.2756 424.921 53.0994 424.205 53.0994C423.45 53.0994 422.85 53.2642 422.407 53.5938C421.969 53.9233 421.674 54.3125 421.521 54.7614L418.64 54.3523C418.867 53.5568 419.242 52.892 419.765 52.358C420.288 51.8182 420.927 51.4148 421.683 51.1477C422.438 50.875 423.273 50.7386 424.188 50.7386C424.819 50.7386 425.447 50.8125 426.072 50.9602C426.697 51.108 427.268 51.3523 427.785 51.6932C428.302 52.0284 428.717 52.4858 429.029 53.0653C429.347 53.6449 429.506 54.3693 429.506 55.2386V64H426.54V62.2017H426.438C426.251 62.5653 425.987 62.9062 425.646 63.2244C425.31 63.5369 424.887 63.7898 424.376 63.983C423.87 64.1705 423.276 64.2642 422.594 64.2642ZM423.396 61.9972C424.015 61.9972 424.552 61.875 425.006 61.6307C425.461 61.3807 425.81 61.0511 426.055 60.642C426.305 60.233 426.43 59.7869 426.43 59.304V57.7614C426.333 57.8409 426.168 57.9148 425.935 57.983C425.708 58.0511 425.452 58.1108 425.168 58.1619C424.884 58.2131 424.603 58.2585 424.325 58.2983C424.046 58.3381 423.805 58.3722 423.6 58.4006C423.14 58.4631 422.728 58.5653 422.364 58.7074C422.001 58.8494 421.714 59.0483 421.504 59.304C421.293 59.554 421.188 59.8778 421.188 60.2756C421.188 60.8438 421.396 61.2727 421.81 61.5625C422.225 61.8523 422.754 61.9972 423.396 61.9972ZM437.467 64.2301C436.438 64.2301 435.518 63.9659 434.705 63.4375C433.893 62.9091 433.251 62.142 432.779 61.1364C432.308 60.1307 432.072 58.9091 432.072 57.4716C432.072 56.017 432.31 54.7898 432.788 53.7898C433.271 52.7841 433.921 52.0256 434.739 51.5142C435.558 50.9972 436.469 50.7386 437.475 50.7386C438.242 50.7386 438.873 50.8693 439.367 51.1307C439.862 51.3864 440.254 51.696 440.543 52.0597C440.833 52.4176 441.058 52.7557 441.217 53.0739H441.344V46.5455H444.438V64H441.404V61.9375H441.217C441.058 62.2557 440.827 62.5937 440.526 62.9517C440.225 63.304 439.827 63.6051 439.333 63.8551C438.839 64.1051 438.217 64.2301 437.467 64.2301ZM438.327 61.6989C438.981 61.6989 439.538 61.5227 439.998 61.1705C440.458 60.8125 440.808 60.3153 441.046 59.679C441.285 59.0426 441.404 58.3011 441.404 57.4545C441.404 56.608 441.285 55.8722 441.046 55.2472C440.813 54.6222 440.467 54.1364 440.006 53.7898C439.552 53.4432 438.992 53.2699 438.327 53.2699C437.64 53.2699 437.066 53.4489 436.606 53.8068C436.146 54.1648 435.799 54.6591 435.566 55.2898C435.333 55.9205 435.217 56.642 435.217 57.4545C435.217 58.2727 435.333 59.0028 435.566 59.6449C435.805 60.2812 436.154 60.7841 436.614 61.1534C437.08 61.517 437.651 61.6989 438.327 61.6989ZM451.493 64.2642C450.663 64.2642 449.916 64.1165 449.251 63.821C448.592 63.5199 448.07 63.0767 447.683 62.4915C447.303 61.9062 447.112 61.1847 447.112 60.3267C447.112 59.5881 447.249 58.9773 447.521 58.4943C447.794 58.0114 448.166 57.625 448.638 57.3352C449.109 57.0455 449.641 56.8267 450.232 56.679C450.828 56.5256 451.445 56.4148 452.081 56.3466C452.848 56.267 453.47 56.196 453.947 56.1335C454.425 56.0653 454.771 55.9631 454.987 55.8267C455.209 55.6847 455.32 55.4659 455.32 55.1705V55.1193C455.32 54.4773 455.129 53.9801 454.749 53.6278C454.368 53.2756 453.82 53.0994 453.104 53.0994C452.348 53.0994 451.749 53.2642 451.305 53.5938C450.868 53.9233 450.572 54.3125 450.419 54.7614L447.538 54.3523C447.766 53.5568 448.141 52.892 448.663 52.358C449.186 51.8182 449.825 51.4148 450.581 51.1477C451.337 50.875 452.172 50.7386 453.087 50.7386C453.717 50.7386 454.345 50.8125 454.97 50.9602C455.595 51.108 456.166 51.3523 456.683 51.6932C457.2 52.0284 457.615 52.4858 457.928 53.0653C458.246 53.6449 458.405 54.3693 458.405 55.2386V64H455.439V62.2017H455.337C455.149 62.5653 454.885 62.9062 454.544 63.2244C454.209 63.5369 453.786 63.7898 453.274 63.983C452.768 64.1705 452.175 64.2642 451.493 64.2642ZM452.294 61.9972C452.913 61.9972 453.45 61.875 453.905 61.6307C454.359 61.3807 454.709 61.0511 454.953 60.642C455.203 60.233 455.328 59.7869 455.328 59.304V57.7614C455.232 57.8409 455.067 57.9148 454.834 57.983C454.607 58.0511 454.351 58.1108 454.067 58.1619C453.783 58.2131 453.501 58.2585 453.223 58.2983C452.945 58.3381 452.703 58.3722 452.499 58.4006C452.038 58.4631 451.626 58.5653 451.263 58.7074C450.899 58.8494 450.612 59.0483 450.402 59.304C450.192 59.554 450.087 59.8778 450.087 60.2756C450.087 60.8438 450.294 61.2727 450.709 61.5625C451.124 61.8523 451.652 61.9972 452.294 61.9972Z" fill="#00943D"/>
<defs>
<filter id="filter0_d_180_36" x="88.4995" y="83.5" width="689" height="418.001" filterUnits="userSpaceOnUse" color-interpolation-filters="sRGB">
<feFlood flood-opacity="0" result="BackgroundImageFix"/>
<feColorMatrix in="SourceAlpha" type="matrix" values="0 0 0 0 0 0 0 0 0 0 0 0 0 0 0 0 0 0 127 0" result="hardAlpha"/>
<feOffset dy="4"/>
<feGaussianBlur stdDeviation="2"/>
<feComposite in2="hardAlpha" operator="out"/>
<feColorMatrix type="matrix" values="0 0 0 0 0 0 0 0 0 0 0 0 0 0 0 0 0 0 0.25 0"/>
<feBlend mode="normal" in2="BackgroundImageFix" result="effect1_dropShadow_180_36"/>
<feBlend mode="normal" in="SourceGraphic" in2="effect1_dropShadow_180_36" result="shape"/>
</filter>
</defs>
</svg>
