<svg width="742" height="715" viewBox="0 0 742 715" fill="none" xmlns="http://www.w3.org/2000/svg">
<rect x="0.5" y="0.5" width="741" height="714" rx="35.5" fill="#97DCFF" stroke="#717171"/>
<path d="M672.722 210V192.545H679.267C680.608 192.545 681.733 192.795 682.642 193.295C683.557 193.795 684.247 194.483 684.713 195.358C685.185 196.227 685.42 197.216 685.42 198.324C685.42 199.443 685.185 200.437 684.713 201.307C684.241 202.176 683.545 202.861 682.625 203.361C681.705 203.855 680.571 204.102 679.224 204.102H674.886V201.503H678.798C679.582 201.503 680.224 201.366 680.724 201.094C681.224 200.821 681.594 200.446 681.832 199.969C682.077 199.491 682.199 198.943 682.199 198.324C682.199 197.705 682.077 197.159 681.832 196.688C681.594 196.216 681.222 195.849 680.716 195.588C680.216 195.321 679.571 195.188 678.781 195.188H675.884V210H672.722ZM688.463 210H685.088L691.233 192.545H695.136L701.29 210H697.915L693.253 196.125H693.116L688.463 210ZM688.574 203.156H697.778V205.696H688.574V203.156Z" fill="#005A5E"/>
<path d="M182.722 649V631.545H185.884V639.565H186.097L192.906 631.545H196.767L190.017 639.378L196.827 649H193.026L187.818 641.517L185.884 643.801V649H182.722ZM197.771 631.545H201.342L205.612 639.267H205.782L210.052 631.545H213.623L207.273 642.489V649H204.12V642.489L197.771 631.545Z" fill="#005A5E"/>
<path d="M558.395 564L553.469 546.545H556.869L560.014 559.372H560.176L563.534 546.545H566.628L569.994 559.381H570.148L573.293 546.545H576.693L571.767 564H568.648L565.153 551.753H565.017L561.514 564H558.395ZM581.221 546.545L585.763 560.284H585.942L590.477 546.545H593.954L587.8 564H583.897L577.752 546.545H581.221Z" fill="#005A5E"/>
<g filter="url(#filter0_d_93_137)">
<path d="M641.5 285.5V60L612 71L605 73.5L596.5 77L577.5 82.5L544.5 98.5L528.5 110L488 143L479.5 141.5L471 144.5L460.5 142L454 138.798L432.5 146L421 152L415.5 153.5L405 154.5L393.5 160.5L386.897 159.156L380 156.5L373 149.5L365 147.5L362 151L357.5 149.5L352 145.5L350 146V148.5L347.556 149.5L336 154L333.5 151.5L331 151L326.5 151.5L324.5 148L331.5 146L334.5 143.5H343L347.825 141L351 142.5L353 140.5L357.5 141L360 139.5H364V135L360 133.5L353 135L350.5 132.5V128.5L347.825 127L346.5 131.5L343 136.5L339 138H334.5L315.5 123L299 118L290.365 110.03L273 107L269 101.5L99.5 107.5V323L98 537.5L109.5 533L115.5 538.68L120.25 540.84L125 543L132.5 538.68L137.5 539.5L141 536.5L144 535.803L146.714 538.68V543L148.5 547L158.5 549.5L163.5 554L164.952 560.818L172.5 574V581.5L174.5 586L192 592.5L199 591.5L206 589L214 593.5L220.5 595.5L221.897 600.732L229 604L231 611L241.524 613.478L264.508 601.97L284.619 616.355L298 615.5L310.5 616.355L317.5 607.5L330.587 596.217L343.5 595V604.5L345.5 609.5V616.355L347.5 621L350.5 624L356 626.5H362.5L366.5 629.5L370.81 636.493L377.5 641L381 650L386.5 651.5L399.54 648L403 646.5H411L414.5 642.5L417.5 624L422.5 620L430.5 621L432.5 616.355L430.5 606.5L431.5 600L430.5 596.5L427 591.5L428.27 586.5L437.5 580.5L436 572.5L439.5 568L443.5 558L448.5 556.5L450 551H454.5L457.5 556.5L464 558L467.5 565.5L464 571.5L467.5 575.5L473 572.5L474 567L477.5 563.5L482.5 568H485V564.5L482.5 560L485 553.064L479 546V541.5L482.5 543L485 541.5L487.5 535.5L486 526.5L489 521L492.5 518V513L496.5 510.5H509L510 504L512 498L518.5 493.5L523 488.5L527.5 489.5L531.5 497L533 499L537.444 498.404L545 492.65L554 490L557.5 484.5L564 482.5L571 472.5L578 465.5L586.5 457L596 453L597 451L598 443L602.5 437L597 430L602.5 424V417.5L607.5 412L605.5 404.5L611 406V398L614 395.5V387.5L615 379L618 373V366.5L623 357.5L625 350.5L629 346.5L630.5 337.5L630 330L627 326L629.5 323.5L629 316.5L630.5 311.5L627 302L623.5 297.5L623 293.5L626 290L630 288L635 289.5L641.5 285.5Z" fill="#FFD597"/>
<path d="M641.5 285.5V60L612 71L605 73.5L596.5 77L577.5 82.5L544.5 98.5L528.5 110L488 143L479.5 141.5L471 144.5L460.5 142L454 138.798L432.5 146L421 152L415.5 153.5L405 154.5L393.5 160.5L386.897 159.156L380 156.5L373 149.5L365 147.5L362 151L357.5 149.5L352 145.5L350 146V148.5L347.556 149.5L336 154L333.5 151.5L331 151L326.5 151.5L324.5 148L331.5 146L334.5 143.5H343L347.825 141L351 142.5L353 140.5L357.5 141L360 139.5H364V135L360 133.5L353 135L350.5 132.5V128.5L347.825 127L346.5 131.5L343 136.5L339 138H334.5L315.5 123L299 118L290.365 110.03L273 107L269 101.5L99.5 107.5V323L98 537.5L109.5 533L115.5 538.68L120.25 540.84L125 543L132.5 538.68L137.5 539.5L141 536.5L144 535.803L146.714 538.68V543L148.5 547L158.5 549.5L163.5 554L164.952 560.818L172.5 574V581.5L174.5 586L192 592.5L199 591.5L206 589L214 593.5L220.5 595.5L221.897 600.732L229 604L231 611L241.524 613.478L264.508 601.97L284.619 616.355L298 615.5L310.5 616.355L317.5 607.5L330.587 596.217L343.5 595V604.5L345.5 609.5V616.355L347.5 621L350.5 624L356 626.5H362.5L366.5 629.5L370.81 636.493L377.5 641L381 650L386.5 651.5L399.54 648L403 646.5H411L414.5 642.5L417.5 624L422.5 620L430.5 621L432.5 616.355L430.5 606.5L431.5 600L430.5 596.5L427 591.5L428.27 586.5L437.5 580.5L436 572.5L439.5 568L443.5 558L448.5 556.5L450 551H454.5L457.5 556.5L464 558L467.5 565.5L464 571.5L467.5 575.5L473 572.5L474 567L477.5 563.5L482.5 568H485V564.5L482.5 560L485 553.064L479 546V541.5L482.5 543L485 541.5L487.5 535.5L486 526.5L489 521L492.5 518V513L496.5 510.5H509L510 504L512 498L518.5 493.5L523 488.5L527.5 489.5L531.5 497L533 499L537.444 498.404L545 492.65L554 490L557.5 484.5L564 482.5L571 472.5L578 465.5L586.5 457L596 453L597 451L598 443L602.5 437L597 430L602.5 424V417.5L607.5 412L605.5 404.5L611 406V398L614 395.5V387.5L615 379L618 373V366.5L623 357.5L625 350.5L629 346.5L630.5 337.5L630 330L627 326L629.5 323.5L629 316.5L630.5 311.5L627 302L623.5 297.5L623 293.5L626 290L630 288L635 289.5L641.5 285.5Z" stroke="black"/>
</g>
<path d="M168.722 57.5455H172.591L177.773 70.1932H177.977L183.159 57.5455H187.028V75H183.994V63.0085H183.832L179.009 74.9489H176.741L171.918 62.983H171.756V75H168.722V57.5455ZM193.634 57.5455V75H190.472V57.5455H193.634Z" fill="#005A5E"/>
<path d="M45.8835 321.545V339H42.7216V321.545H45.8835ZM63.6513 321.545V339H60.8388L52.6143 327.111H52.4695V339H49.3075V321.545H52.1371L60.353 333.443H60.5064V321.545H63.6513Z" fill="#005A5E"/>
<circle cx="330.511" cy="397.511" r="9.01136" fill="#FF8F87" stroke="black"/>
<path d="M290.623 368.184H286.734C286.663 367.681 286.518 367.234 286.299 366.843C286.08 366.446 285.799 366.109 285.456 365.831C285.112 365.553 284.716 365.34 284.266 365.192C283.822 365.044 283.34 364.97 282.819 364.97C281.878 364.97 281.058 365.204 280.36 365.671C279.661 366.133 279.12 366.808 278.735 367.695C278.35 368.577 278.158 369.648 278.158 370.909C278.158 372.205 278.35 373.294 278.735 374.176C279.126 375.058 279.67 375.724 280.369 376.174C281.067 376.623 281.875 376.848 282.792 376.848C283.307 376.848 283.784 376.78 284.222 376.644C284.665 376.508 285.059 376.31 285.402 376.049C285.746 375.783 286.03 375.46 286.255 375.082C286.485 374.703 286.645 374.271 286.734 373.786L290.623 373.803C290.522 374.638 290.27 375.443 289.868 376.218C289.471 376.987 288.936 377.677 288.261 378.287C287.592 378.89 286.793 379.37 285.864 379.725C284.941 380.074 283.896 380.249 282.73 380.249C281.108 380.249 279.658 379.882 278.38 379.148C277.107 378.414 276.101 377.351 275.362 375.961C274.628 374.57 274.261 372.886 274.261 370.909C274.261 368.926 274.634 367.24 275.379 365.849C276.125 364.458 277.137 363.398 278.415 362.67C279.694 361.937 281.132 361.57 282.73 361.57C283.784 361.57 284.76 361.718 285.66 362.013C286.565 362.309 287.367 362.741 288.066 363.31C288.764 363.872 289.332 364.561 289.77 365.378C290.214 366.195 290.498 367.13 290.623 368.184ZM299.469 380.266C298.09 380.266 296.898 379.973 295.892 379.387C294.891 378.796 294.119 377.973 293.574 376.919C293.03 375.86 292.758 374.632 292.758 373.235C292.758 371.826 293.03 370.595 293.574 369.542C294.119 368.482 294.891 367.66 295.892 367.074C296.898 366.482 298.09 366.186 299.469 366.186C300.848 366.186 302.038 366.482 303.038 367.074C304.044 367.66 304.82 368.482 305.364 369.542C305.909 370.595 306.181 371.826 306.181 373.235C306.181 374.632 305.909 375.86 305.364 376.919C304.82 377.973 304.044 378.796 303.038 379.387C302.038 379.973 300.848 380.266 299.469 380.266ZM299.487 377.337C300.114 377.337 300.638 377.159 301.058 376.804C301.479 376.443 301.795 375.952 302.008 375.33C302.227 374.709 302.337 374.002 302.337 373.208C302.337 372.415 302.227 371.708 302.008 371.087C301.795 370.465 301.479 369.974 301.058 369.613C300.638 369.252 300.114 369.071 299.487 369.071C298.854 369.071 298.321 369.252 297.889 369.613C297.463 369.974 297.14 370.465 296.921 371.087C296.708 371.708 296.602 372.415 296.602 373.208C296.602 374.002 296.708 374.709 296.921 375.33C297.14 375.952 297.463 376.443 297.889 376.804C298.321 377.159 298.854 377.337 299.487 377.337ZM312.422 361.818V380H308.64V361.818H312.422ZM324.196 374.194V366.364H327.978V380H324.347V377.523H324.205C323.897 378.322 323.385 378.964 322.669 379.45C321.959 379.935 321.092 380.178 320.068 380.178C319.157 380.178 318.355 379.97 317.662 379.556C316.97 379.142 316.428 378.553 316.038 377.789C315.653 377.026 315.458 376.112 315.452 375.046V366.364H319.234V374.371C319.239 375.176 319.456 375.813 319.882 376.28C320.308 376.748 320.879 376.982 321.595 376.982C322.051 376.982 322.477 376.878 322.873 376.671C323.27 376.458 323.59 376.144 323.832 375.73C324.081 375.315 324.202 374.804 324.196 374.194ZM331.003 380V366.364H334.608V368.77H334.768C335.052 367.971 335.525 367.34 336.188 366.879C336.851 366.417 337.644 366.186 338.567 366.186C339.502 366.186 340.298 366.42 340.955 366.887C341.612 367.349 342.05 367.976 342.269 368.77H342.411C342.69 367.988 343.193 367.364 343.921 366.896C344.655 366.423 345.522 366.186 346.522 366.186C347.794 366.186 348.827 366.592 349.62 367.402C350.419 368.207 350.819 369.35 350.819 370.829V380H347.046V371.575C347.046 370.817 346.844 370.249 346.442 369.87C346.039 369.492 345.536 369.302 344.933 369.302C344.246 369.302 343.711 369.521 343.326 369.959C342.941 370.391 342.749 370.962 342.749 371.673V380H339.082V371.495C339.082 370.826 338.89 370.294 338.505 369.897C338.126 369.5 337.626 369.302 337.005 369.302C336.585 369.302 336.206 369.409 335.868 369.622C335.537 369.829 335.274 370.122 335.078 370.501C334.883 370.874 334.785 371.312 334.785 371.815V380H331.003ZM353.877 380V361.818H357.659V368.654H357.775C357.94 368.287 358.18 367.914 358.494 367.536C358.813 367.151 359.228 366.831 359.737 366.577C360.251 366.316 360.891 366.186 361.654 366.186C362.648 366.186 363.566 366.446 364.406 366.967C365.247 367.482 365.918 368.261 366.422 369.302C366.925 370.338 367.176 371.637 367.176 373.2C367.176 374.721 366.931 376.005 366.439 377.053C365.954 378.094 365.291 378.884 364.451 379.423C363.616 379.956 362.681 380.222 361.645 380.222C360.911 380.222 360.287 380.101 359.772 379.858C359.263 379.615 358.846 379.31 358.52 378.944C358.195 378.571 357.946 378.195 357.775 377.816H357.606V380H353.877ZM357.579 373.182C357.579 373.993 357.692 374.7 357.917 375.304C358.141 375.907 358.467 376.378 358.893 376.715C359.319 377.047 359.837 377.212 360.447 377.212C361.062 377.212 361.583 377.044 362.009 376.706C362.435 376.363 362.758 375.89 362.977 375.286C363.202 374.676 363.314 373.975 363.314 373.182C363.314 372.395 363.205 371.702 362.986 371.104C362.767 370.507 362.444 370.039 362.018 369.702C361.592 369.364 361.068 369.196 360.447 369.196C359.831 369.196 359.31 369.358 358.884 369.684C358.464 370.009 358.141 370.471 357.917 371.069C357.692 371.667 357.579 372.371 357.579 373.182ZM378.444 374.194V366.364H382.226V380H378.595V377.523H378.453C378.145 378.322 377.633 378.964 376.917 379.45C376.207 379.935 375.34 380.178 374.316 380.178C373.405 380.178 372.603 379.97 371.91 379.556C371.218 379.142 370.676 378.553 370.286 377.789C369.901 377.026 369.706 376.112 369.7 375.046V366.364H373.482V374.371C373.488 375.176 373.704 375.813 374.13 376.28C374.556 376.748 375.127 376.982 375.843 376.982C376.299 376.982 376.725 376.878 377.122 376.671C377.518 376.458 377.838 376.144 378.08 375.73C378.329 375.315 378.45 374.804 378.444 374.194ZM396.597 370.252L393.135 370.465C393.076 370.169 392.949 369.903 392.753 369.666C392.558 369.424 392.3 369.231 391.981 369.089C391.667 368.941 391.291 368.867 390.853 368.867C390.267 368.867 389.773 368.991 389.371 369.24C388.968 369.483 388.767 369.808 388.767 370.217C388.767 370.542 388.897 370.817 389.158 371.042C389.418 371.267 389.865 371.448 390.498 371.584L392.966 372.081C394.292 372.353 395.28 372.791 395.931 373.395C396.583 373.999 396.908 374.792 396.908 375.774C396.908 376.668 396.645 377.452 396.118 378.127C395.597 378.801 394.881 379.328 393.969 379.707C393.064 380.08 392.019 380.266 390.836 380.266C389.03 380.266 387.592 379.891 386.521 379.139C385.456 378.381 384.831 377.351 384.648 376.049L388.368 375.854C388.48 376.404 388.752 376.825 389.184 377.115C389.616 377.399 390.17 377.541 390.844 377.541C391.507 377.541 392.04 377.414 392.442 377.159C392.851 376.899 393.058 376.564 393.064 376.156C393.058 375.813 392.913 375.531 392.629 375.312C392.345 375.088 391.907 374.916 391.315 374.798L388.953 374.327C387.622 374.061 386.63 373.599 385.979 372.942C385.334 372.285 385.012 371.448 385.012 370.43C385.012 369.554 385.248 368.799 385.722 368.166C386.201 367.533 386.873 367.044 387.737 366.701C388.607 366.358 389.625 366.186 390.791 366.186C392.513 366.186 393.869 366.55 394.857 367.278C395.852 368.006 396.432 368.997 396.597 370.252Z" fill="black"/>
<path d="M499.832 166.5H497.631C497.5 165.867 497.273 165.31 496.947 164.831C496.627 164.352 496.237 163.949 495.775 163.624C495.319 163.292 494.813 163.044 494.257 162.878C493.701 162.712 493.121 162.629 492.517 162.629C491.416 162.629 490.419 162.907 489.525 163.464C488.637 164.02 487.93 164.84 487.403 165.923C486.883 167.006 486.622 168.335 486.622 169.909C486.622 171.483 486.883 172.812 487.403 173.895C487.93 174.978 488.637 175.798 489.525 176.354C490.419 176.911 491.416 177.189 492.517 177.189C493.121 177.189 493.701 177.106 494.257 176.94C494.813 176.775 495.319 176.529 495.775 176.203C496.237 175.872 496.627 175.467 496.947 174.987C497.273 174.502 497.5 173.946 497.631 173.318H499.832C499.667 174.247 499.365 175.079 498.927 175.813C498.489 176.547 497.944 177.171 497.293 177.686C496.642 178.195 495.911 178.583 495.1 178.849C494.296 179.115 493.434 179.249 492.517 179.249C490.966 179.249 489.587 178.87 488.38 178.112C487.173 177.355 486.223 176.277 485.53 174.881C484.838 173.484 484.491 171.827 484.491 169.909C484.491 167.991 484.838 166.334 485.53 164.938C486.223 163.541 487.173 162.464 488.38 161.706C489.587 160.948 490.966 160.57 492.517 160.57C493.434 160.57 494.296 160.703 495.1 160.969C495.911 161.235 496.642 161.626 497.293 162.141C497.944 162.65 498.489 163.271 498.927 164.005C499.365 164.733 499.667 165.565 499.832 166.5ZM505.201 160.818V179H503.106V160.818H505.201ZM514.756 179.284C513.442 179.284 512.309 178.994 511.356 178.414C510.409 177.828 509.678 177.011 509.163 175.964C508.654 174.91 508.4 173.685 508.4 172.288C508.4 170.892 508.654 169.661 509.163 168.595C509.678 167.524 510.394 166.689 511.311 166.092C512.235 165.488 513.312 165.186 514.543 165.186C515.253 165.186 515.955 165.304 516.647 165.541C517.339 165.778 517.97 166.163 518.538 166.695C519.106 167.222 519.559 167.92 519.896 168.79C520.234 169.661 520.402 170.732 520.402 172.004V172.892H509.891V171.081H518.272C518.272 170.312 518.118 169.625 517.81 169.021C517.508 168.418 517.076 167.941 516.514 167.592C515.958 167.243 515.301 167.068 514.543 167.068C513.708 167.068 512.986 167.275 512.377 167.69C511.773 168.098 511.308 168.631 510.983 169.288C510.657 169.945 510.495 170.649 510.495 171.401V172.608C510.495 173.638 510.672 174.511 511.027 175.227C511.388 175.937 511.888 176.479 512.528 176.852C513.167 177.219 513.91 177.402 514.756 177.402C515.306 177.402 515.804 177.325 516.248 177.171C516.697 177.011 517.085 176.775 517.411 176.461C517.736 176.141 517.988 175.745 518.165 175.271L520.189 175.839C519.976 176.526 519.618 177.13 519.115 177.651C518.612 178.165 517.991 178.568 517.251 178.858C516.511 179.142 515.679 179.284 514.756 179.284ZM534.325 165.364L529.282 179H527.152L522.109 165.364H524.382L528.146 176.23H528.288L532.052 165.364H534.325ZM542.32 179.284C541.006 179.284 539.872 178.994 538.919 178.414C537.972 177.828 537.241 177.011 536.726 175.964C536.217 174.91 535.963 173.685 535.963 172.288C535.963 170.892 536.217 169.661 536.726 168.595C537.241 167.524 537.958 166.689 538.875 166.092C539.798 165.488 540.875 165.186 542.106 165.186C542.817 165.186 543.518 165.304 544.21 165.541C544.903 165.778 545.533 166.163 546.101 166.695C546.67 167.222 547.122 167.92 547.46 168.79C547.797 169.661 547.966 170.732 547.966 172.004V172.892H537.454V171.081H545.835C545.835 170.312 545.681 169.625 545.373 169.021C545.072 168.418 544.64 167.941 544.077 167.592C543.521 167.243 542.864 167.068 542.106 167.068C541.272 167.068 540.55 167.275 539.94 167.69C539.337 168.098 538.872 168.631 538.546 169.288C538.221 169.945 538.058 170.649 538.058 171.401V172.608C538.058 173.638 538.236 174.511 538.591 175.227C538.952 175.937 539.452 176.479 540.091 176.852C540.73 177.219 541.473 177.402 542.32 177.402C542.87 177.402 543.367 177.325 543.811 177.171C544.261 177.011 544.648 176.775 544.974 176.461C545.3 176.141 545.551 175.745 545.729 175.271L547.753 175.839C547.54 176.526 547.182 177.13 546.679 177.651C546.175 178.165 545.554 178.568 544.814 178.858C544.074 179.142 543.243 179.284 542.32 179.284ZM553.248 160.818V179H551.153V160.818H553.248ZM561.098 179.32C560.234 179.32 559.45 179.157 558.746 178.831C558.041 178.5 557.482 178.023 557.068 177.402C556.654 176.775 556.446 176.017 556.446 175.129C556.446 174.348 556.6 173.715 556.908 173.229C557.216 172.738 557.627 172.353 558.142 172.075C558.657 171.797 559.225 171.59 559.847 171.454C560.474 171.312 561.104 171.199 561.738 171.116C562.566 171.01 563.238 170.93 563.753 170.877C564.274 170.818 564.652 170.72 564.889 170.584C565.132 170.448 565.253 170.211 565.253 169.874V169.803C565.253 168.927 565.013 168.246 564.534 167.761C564.061 167.275 563.342 167.033 562.377 167.033C561.377 167.033 560.592 167.252 560.024 167.69C559.456 168.128 559.056 168.595 558.826 169.092L556.837 168.382C557.192 167.554 557.666 166.908 558.257 166.447C558.855 165.979 559.506 165.654 560.211 165.47C560.921 165.281 561.619 165.186 562.306 165.186C562.744 165.186 563.247 165.239 563.815 165.346C564.389 165.446 564.942 165.657 565.475 165.976C566.014 166.296 566.461 166.778 566.816 167.423C567.171 168.068 567.348 168.933 567.348 170.016V179H565.253V177.153H565.147C565.005 177.449 564.768 177.766 564.436 178.103C564.105 178.441 563.664 178.728 563.114 178.964C562.563 179.201 561.891 179.32 561.098 179.32ZM561.418 177.438C562.247 177.438 562.945 177.275 563.513 176.949C564.087 176.624 564.519 176.203 564.809 175.689C565.105 175.174 565.253 174.632 565.253 174.064V172.146C565.164 172.253 564.969 172.35 564.667 172.439C564.371 172.522 564.028 172.596 563.637 172.661C563.253 172.72 562.877 172.774 562.51 172.821C562.149 172.862 561.856 172.898 561.631 172.928C561.087 172.999 560.578 173.114 560.104 173.274C559.636 173.428 559.258 173.661 558.968 173.975C558.684 174.283 558.542 174.703 558.542 175.236C558.542 175.964 558.811 176.514 559.349 176.887C559.894 177.254 560.583 177.438 561.418 177.438ZM573.268 170.797V179H571.172V165.364H573.197V167.494H573.374C573.694 166.802 574.179 166.246 574.83 165.825C575.481 165.399 576.322 165.186 577.351 165.186C578.275 165.186 579.083 165.375 579.775 165.754C580.468 166.127 581.006 166.695 581.391 167.459C581.776 168.216 581.968 169.175 581.968 170.335V179H579.873V170.477C579.873 169.406 579.595 168.571 579.038 167.974C578.482 167.37 577.718 167.068 576.748 167.068C576.079 167.068 575.481 167.213 574.954 167.503C574.434 167.793 574.022 168.216 573.72 168.773C573.419 169.329 573.268 170.004 573.268 170.797ZM590.946 179.284C589.809 179.284 588.806 178.997 587.936 178.423C587.066 177.843 586.385 177.026 585.894 175.973C585.403 174.913 585.157 173.661 585.157 172.217C585.157 170.785 585.403 169.542 585.894 168.489C586.385 167.435 587.069 166.621 587.945 166.047C588.821 165.473 589.833 165.186 590.981 165.186C591.869 165.186 592.57 165.334 593.085 165.63C593.606 165.92 594.003 166.251 594.275 166.624C594.553 166.991 594.769 167.293 594.923 167.53H595.1V160.818H597.196V179H595.172V176.905H594.923C594.769 177.153 594.55 177.467 594.266 177.846C593.982 178.219 593.576 178.553 593.05 178.849C592.523 179.139 591.822 179.284 590.946 179.284ZM591.23 177.402C592.07 177.402 592.78 177.183 593.36 176.745C593.94 176.301 594.381 175.689 594.683 174.907C594.985 174.12 595.136 173.212 595.136 172.182C595.136 171.164 594.988 170.273 594.692 169.51C594.396 168.74 593.958 168.142 593.378 167.716C592.798 167.284 592.082 167.068 591.23 167.068C590.342 167.068 589.602 167.296 589.01 167.752C588.424 168.202 587.983 168.814 587.688 169.589C587.397 170.359 587.252 171.223 587.252 172.182C587.252 173.152 587.4 174.034 587.696 174.827C587.998 175.615 588.442 176.242 589.028 176.71C589.62 177.171 590.354 177.402 591.23 177.402Z" fill="black"/>
<path d="M439.947 220H437.639L444.315 201.818H446.588L453.264 220H450.956L445.523 204.695H445.381L439.947 220ZM440.8 212.898H450.104V214.851H440.8V212.898ZM457.765 215.028L457.73 212.436H458.156L464.122 206.364H466.714L460.358 212.791H460.18L457.765 215.028ZM455.812 220V201.818H457.907V220H455.812ZM464.477 220L459.15 213.253L460.642 211.797L467.14 220H464.477ZM469.411 220V206.364H471.435V208.423H471.577C471.826 207.749 472.275 207.201 472.926 206.781C473.577 206.361 474.311 206.151 475.128 206.151C475.282 206.151 475.474 206.154 475.705 206.159C475.936 206.165 476.111 206.174 476.229 206.186V208.317C476.158 208.299 475.995 208.272 475.741 208.237C475.492 208.195 475.229 208.175 474.951 208.175C474.288 208.175 473.696 208.314 473.175 208.592C472.66 208.864 472.252 209.243 471.95 209.728C471.654 210.208 471.506 210.755 471.506 211.371V220H469.411ZM483.837 220.284C482.606 220.284 481.526 219.991 480.597 219.405C479.674 218.819 478.951 218 478.431 216.946C477.916 215.893 477.658 214.661 477.658 213.253C477.658 211.832 477.916 210.592 478.431 209.533C478.951 208.474 479.674 207.651 480.597 207.065C481.526 206.479 482.606 206.186 483.837 206.186C485.068 206.186 486.146 206.479 487.069 207.065C487.998 207.651 488.72 208.474 489.235 209.533C489.756 210.592 490.016 211.832 490.016 213.253C490.016 214.661 489.756 215.893 489.235 216.946C488.72 218 487.998 218.819 487.069 219.405C486.146 219.991 485.068 220.284 483.837 220.284ZM483.837 218.402C484.772 218.402 485.542 218.162 486.146 217.683C486.749 217.203 487.196 216.573 487.486 215.792C487.776 215.011 487.921 214.164 487.921 213.253C487.921 212.341 487.776 211.492 487.486 210.705C487.196 209.918 486.749 209.281 486.146 208.796C485.542 208.311 484.772 208.068 483.837 208.068C482.902 208.068 482.133 208.311 481.529 208.796C480.925 209.281 480.478 209.918 480.188 210.705C479.898 211.492 479.753 212.341 479.753 213.253C479.753 214.164 479.898 215.011 480.188 215.792C480.478 216.573 480.925 217.203 481.529 217.683C482.133 218.162 482.902 218.402 483.837 218.402ZM495.31 211.797V220H493.214V206.364H495.239V208.494H495.416C495.736 207.802 496.221 207.246 496.872 206.825C497.523 206.399 498.364 206.186 499.393 206.186C500.317 206.186 501.125 206.375 501.817 206.754C502.51 207.127 503.048 207.695 503.433 208.459C503.818 209.216 504.01 210.175 504.01 211.335V220H501.915V211.477C501.915 210.406 501.637 209.571 501.08 208.974C500.524 208.37 499.76 208.068 498.79 208.068C498.121 208.068 497.523 208.213 496.996 208.503C496.476 208.793 496.064 209.216 495.762 209.773C495.461 210.329 495.31 211.004 495.31 211.797Z" fill="black"/>
<path d="M511.832 279.5H509.631C509.5 278.867 509.273 278.31 508.947 277.831C508.627 277.352 508.237 276.949 507.775 276.624C507.319 276.292 506.813 276.044 506.257 275.878C505.701 275.712 505.121 275.629 504.517 275.629C503.416 275.629 502.419 275.907 501.525 276.464C500.637 277.02 499.93 277.84 499.403 278.923C498.883 280.006 498.622 281.335 498.622 282.909C498.622 284.483 498.883 285.812 499.403 286.895C499.93 287.978 500.637 288.798 501.525 289.354C502.419 289.911 503.416 290.189 504.517 290.189C505.121 290.189 505.701 290.106 506.257 289.94C506.813 289.775 507.319 289.529 507.775 289.203C508.237 288.872 508.627 288.467 508.947 287.987C509.273 287.502 509.5 286.946 509.631 286.318H511.832C511.667 287.247 511.365 288.079 510.927 288.813C510.489 289.547 509.944 290.171 509.293 290.686C508.642 291.195 507.911 291.583 507.1 291.849C506.296 292.115 505.434 292.249 504.517 292.249C502.966 292.249 501.587 291.87 500.38 291.112C499.173 290.355 498.223 289.277 497.53 287.881C496.838 286.484 496.491 284.827 496.491 282.909C496.491 280.991 496.838 279.334 497.53 277.938C498.223 276.541 499.173 275.464 500.38 274.706C501.587 273.948 502.966 273.57 504.517 273.57C505.434 273.57 506.296 273.703 507.1 273.969C507.911 274.235 508.642 274.626 509.293 275.141C509.944 275.65 510.489 276.271 510.927 277.005C511.365 277.733 511.667 278.565 511.832 279.5ZM519.119 292.32C518.255 292.32 517.471 292.157 516.766 291.831C516.062 291.5 515.503 291.023 515.088 290.402C514.674 289.775 514.467 289.017 514.467 288.129C514.467 287.348 514.621 286.715 514.929 286.229C515.236 285.738 515.648 285.353 516.163 285.075C516.677 284.797 517.246 284.59 517.867 284.454C518.494 284.312 519.125 284.199 519.758 284.116C520.587 284.01 521.258 283.93 521.773 283.877C522.294 283.818 522.673 283.72 522.91 283.584C523.152 283.448 523.274 283.211 523.274 282.874V282.803C523.274 281.927 523.034 281.246 522.555 280.761C522.081 280.275 521.362 280.033 520.397 280.033C519.397 280.033 518.613 280.252 518.045 280.69C517.476 281.128 517.077 281.595 516.846 282.092L514.858 281.382C515.213 280.554 515.686 279.908 516.278 279.447C516.876 278.979 517.527 278.654 518.231 278.47C518.941 278.281 519.64 278.186 520.326 278.186C520.764 278.186 521.267 278.239 521.835 278.346C522.41 278.446 522.963 278.657 523.496 278.976C524.034 279.296 524.481 279.778 524.836 280.423C525.191 281.068 525.369 281.933 525.369 283.016V292H523.274V290.153H523.167C523.025 290.449 522.788 290.766 522.457 291.103C522.126 291.441 521.685 291.728 521.134 291.964C520.584 292.201 519.912 292.32 519.119 292.32ZM519.438 290.438C520.267 290.438 520.965 290.275 521.534 289.949C522.108 289.624 522.54 289.203 522.83 288.689C523.126 288.174 523.274 287.632 523.274 287.064V285.146C523.185 285.253 522.99 285.35 522.688 285.439C522.392 285.522 522.049 285.596 521.658 285.661C521.273 285.72 520.897 285.774 520.53 285.821C520.169 285.862 519.876 285.898 519.652 285.928C519.107 285.999 518.598 286.114 518.125 286.274C517.657 286.428 517.278 286.661 516.988 286.975C516.704 287.283 516.562 287.703 516.562 288.236C516.562 288.964 516.831 289.514 517.37 289.887C517.914 290.254 518.604 290.438 519.438 290.438ZM531.288 283.797V292H529.193V278.364H531.217V280.494H531.395C531.714 279.802 532.2 279.246 532.851 278.825C533.502 278.399 534.342 278.186 535.372 278.186C536.295 278.186 537.103 278.375 537.796 278.754C538.488 279.127 539.027 279.695 539.411 280.459C539.796 281.216 539.988 282.175 539.988 283.335V292H537.893V283.477C537.893 282.406 537.615 281.571 537.059 280.974C536.502 280.37 535.739 280.068 534.768 280.068C534.099 280.068 533.502 280.213 532.975 280.503C532.454 280.793 532.043 281.216 531.741 281.773C531.439 282.329 531.288 283.004 531.288 283.797ZM549.747 278.364V280.139H542.681V278.364H549.747ZM544.74 275.097H546.835V288.094C546.835 288.686 546.921 289.129 547.093 289.425C547.271 289.715 547.495 289.911 547.768 290.011C548.046 290.106 548.339 290.153 548.647 290.153C548.877 290.153 549.067 290.142 549.215 290.118C549.363 290.088 549.481 290.065 549.57 290.047L549.996 291.929C549.854 291.982 549.656 292.036 549.401 292.089C549.147 292.148 548.824 292.178 548.434 292.178C547.842 292.178 547.262 292.05 546.693 291.796C546.131 291.541 545.664 291.154 545.291 290.633C544.924 290.112 544.74 289.455 544.74 288.662V275.097ZM558.292 292.284C557.061 292.284 555.981 291.991 555.052 291.405C554.129 290.819 553.407 290 552.886 288.946C552.371 287.893 552.113 286.661 552.113 285.253C552.113 283.832 552.371 282.592 552.886 281.533C553.407 280.474 554.129 279.651 555.052 279.065C555.981 278.479 557.061 278.186 558.292 278.186C559.523 278.186 560.601 278.479 561.524 279.065C562.453 279.651 563.175 280.474 563.69 281.533C564.211 282.592 564.471 283.832 564.471 285.253C564.471 286.661 564.211 287.893 563.69 288.946C563.175 290 562.453 290.819 561.524 291.405C560.601 291.991 559.523 292.284 558.292 292.284ZM558.292 290.402C559.227 290.402 559.997 290.162 560.601 289.683C561.204 289.203 561.651 288.573 561.941 287.792C562.231 287.011 562.376 286.164 562.376 285.253C562.376 284.341 562.231 283.492 561.941 282.705C561.651 281.918 561.204 281.281 560.601 280.796C559.997 280.311 559.227 280.068 558.292 280.068C557.357 280.068 556.588 280.311 555.984 280.796C555.38 281.281 554.934 281.918 554.644 282.705C554.354 283.492 554.209 284.341 554.209 285.253C554.209 286.164 554.354 287.011 554.644 287.792C554.934 288.573 555.38 289.203 555.984 289.683C556.588 290.162 557.357 290.402 558.292 290.402ZM569.765 283.797V292H567.67V278.364H569.694V280.494H569.871C570.191 279.802 570.676 279.246 571.327 278.825C571.978 278.399 572.819 278.186 573.849 278.186C574.772 278.186 575.58 278.375 576.272 278.754C576.965 279.127 577.503 279.695 577.888 280.459C578.273 281.216 578.465 282.175 578.465 283.335V292H576.37V283.477C576.37 282.406 576.092 281.571 575.535 280.974C574.979 280.37 574.215 280.068 573.245 280.068C572.576 280.068 571.978 280.213 571.452 280.503C570.931 280.793 570.519 281.216 570.218 281.773C569.916 282.329 569.765 283.004 569.765 283.797Z" fill="black"/>
<path d="M226.207 129.771V127.818H239.844V129.771H234.126V146H231.925V129.771H226.207ZM246.52 146.284C245.289 146.284 244.209 145.991 243.279 145.405C242.356 144.819 241.634 144 241.113 142.946C240.598 141.893 240.341 140.661 240.341 139.253C240.341 137.832 240.598 136.592 241.113 135.533C241.634 134.474 242.356 133.651 243.279 133.065C244.209 132.479 245.289 132.186 246.52 132.186C247.751 132.186 248.828 132.479 249.751 133.065C250.681 133.651 251.403 134.474 251.918 135.533C252.438 136.592 252.699 137.832 252.699 139.253C252.699 140.661 252.438 141.893 251.918 142.946C251.403 144 250.681 144.819 249.751 145.405C248.828 145.991 247.751 146.284 246.52 146.284ZM246.52 144.402C247.455 144.402 248.224 144.162 248.828 143.683C249.432 143.203 249.879 142.573 250.169 141.792C250.459 141.011 250.604 140.164 250.604 139.253C250.604 138.341 250.459 137.492 250.169 136.705C249.879 135.918 249.432 135.281 248.828 134.796C248.224 134.311 247.455 134.068 246.52 134.068C245.585 134.068 244.815 134.311 244.212 134.796C243.608 135.281 243.161 135.918 242.871 136.705C242.581 137.492 242.436 138.341 242.436 139.253C242.436 140.164 242.581 141.011 242.871 141.792C243.161 142.573 243.608 143.203 244.212 143.683C244.815 144.162 245.585 144.402 246.52 144.402ZM257.992 127.818V146H255.897V127.818H257.992ZM267.547 146.284C266.233 146.284 265.1 145.994 264.147 145.414C263.2 144.828 262.469 144.011 261.954 142.964C261.445 141.91 261.191 140.685 261.191 139.288C261.191 137.892 261.445 136.661 261.954 135.595C262.469 134.524 263.185 133.689 264.102 133.092C265.026 132.488 266.103 132.186 267.334 132.186C268.044 132.186 268.746 132.304 269.438 132.541C270.131 132.778 270.761 133.163 271.329 133.695C271.897 134.222 272.35 134.92 272.687 135.79C273.025 136.661 273.193 137.732 273.193 139.004V139.892H262.682V138.081H271.063C271.063 137.312 270.909 136.625 270.601 136.021C270.299 135.418 269.867 134.941 269.305 134.592C268.749 134.243 268.092 134.068 267.334 134.068C266.499 134.068 265.777 134.275 265.168 134.69C264.564 135.098 264.099 135.631 263.774 136.288C263.448 136.945 263.286 137.649 263.286 138.401V139.608C263.286 140.638 263.463 141.511 263.818 142.227C264.179 142.937 264.68 143.479 265.319 143.852C265.958 144.219 266.701 144.402 267.547 144.402C268.097 144.402 268.595 144.325 269.039 144.171C269.488 144.011 269.876 143.775 270.202 143.461C270.527 143.141 270.779 142.745 270.956 142.271L272.98 142.839C272.767 143.526 272.409 144.13 271.906 144.651C271.403 145.165 270.782 145.568 270.042 145.858C269.302 146.142 268.47 146.284 267.547 146.284ZM281.53 146.284C280.393 146.284 279.39 145.997 278.52 145.423C277.65 144.843 276.969 144.026 276.478 142.973C275.987 141.913 275.741 140.661 275.741 139.217C275.741 137.785 275.987 136.542 276.478 135.489C276.969 134.435 277.653 133.621 278.529 133.047C279.405 132.473 280.417 132.186 281.565 132.186C282.453 132.186 283.154 132.334 283.669 132.63C284.19 132.92 284.587 133.251 284.859 133.624C285.137 133.991 285.353 134.293 285.507 134.53H285.684V127.818H287.78V146H285.756V143.905H285.507C285.353 144.153 285.134 144.467 284.85 144.846C284.566 145.219 284.16 145.553 283.634 145.849C283.107 146.139 282.406 146.284 281.53 146.284ZM281.814 144.402C282.654 144.402 283.364 144.183 283.944 143.745C284.524 143.301 284.965 142.689 285.267 141.907C285.569 141.12 285.72 140.212 285.72 139.182C285.72 138.164 285.572 137.273 285.276 136.51C284.98 135.74 284.542 135.142 283.962 134.716C283.382 134.284 282.666 134.068 281.814 134.068C280.926 134.068 280.186 134.296 279.594 134.752C279.008 135.202 278.567 135.814 278.271 136.589C277.981 137.359 277.836 138.223 277.836 139.182C277.836 140.152 277.984 141.034 278.28 141.827C278.582 142.615 279.026 143.242 279.612 143.71C280.204 144.171 280.938 144.402 281.814 144.402ZM297.448 146.284C296.217 146.284 295.136 145.991 294.207 145.405C293.284 144.819 292.562 144 292.041 142.946C291.526 141.893 291.269 140.661 291.269 139.253C291.269 137.832 291.526 136.592 292.041 135.533C292.562 134.474 293.284 133.651 294.207 133.065C295.136 132.479 296.217 132.186 297.448 132.186C298.679 132.186 299.756 132.479 300.679 133.065C301.608 133.651 302.33 134.474 302.845 135.533C303.366 136.592 303.627 137.832 303.627 139.253C303.627 140.661 303.366 141.893 302.845 142.946C302.33 144 301.608 144.819 300.679 145.405C299.756 145.991 298.679 146.284 297.448 146.284ZM297.448 144.402C298.383 144.402 299.152 144.162 299.756 143.683C300.36 143.203 300.806 142.573 301.096 141.792C301.386 141.011 301.531 140.164 301.531 139.253C301.531 138.341 301.386 137.492 301.096 136.705C300.806 135.918 300.36 135.281 299.756 134.796C299.152 134.311 298.383 134.068 297.448 134.068C296.512 134.068 295.743 134.311 295.139 134.796C294.536 135.281 294.089 135.918 293.799 136.705C293.509 137.492 293.364 138.341 293.364 139.253C293.364 140.164 293.509 141.011 293.799 141.792C294.089 142.573 294.536 143.203 295.139 143.683C295.743 144.162 296.512 144.402 297.448 144.402Z" fill="black"/>
<path d="M137.812 412H132.202V393.818H138.061C139.825 393.818 141.334 394.182 142.589 394.91C143.844 395.632 144.805 396.671 145.474 398.026C146.143 399.376 146.477 400.991 146.477 402.874C146.477 404.768 146.14 406.398 145.465 407.765C144.79 409.127 143.808 410.174 142.518 410.908C141.228 411.636 139.659 412 137.812 412ZM134.403 410.047H137.67C139.174 410.047 140.42 409.757 141.408 409.177C142.396 408.597 143.133 407.771 143.619 406.7C144.104 405.629 144.347 404.353 144.347 402.874C144.347 401.406 144.107 400.142 143.627 399.083C143.148 398.017 142.432 397.201 141.479 396.632C140.526 396.058 139.339 395.771 137.919 395.771H134.403V410.047ZM153.899 412.32C153.035 412.32 152.251 412.157 151.547 411.831C150.842 411.5 150.283 411.023 149.869 410.402C149.454 409.775 149.247 409.017 149.247 408.129C149.247 407.348 149.401 406.715 149.709 406.229C150.017 405.738 150.428 405.353 150.943 405.075C151.458 404.797 152.026 404.59 152.647 404.454C153.275 404.312 153.905 404.199 154.538 404.116C155.367 404.01 156.039 403.93 156.554 403.877C157.074 403.818 157.453 403.72 157.69 403.584C157.933 403.448 158.054 403.211 158.054 402.874V402.803C158.054 401.927 157.814 401.246 157.335 400.761C156.861 400.275 156.142 400.033 155.178 400.033C154.177 400.033 153.393 400.252 152.825 400.69C152.257 401.128 151.857 401.595 151.626 402.092L149.638 401.382C149.993 400.554 150.466 399.908 151.058 399.447C151.656 398.979 152.307 398.654 153.011 398.47C153.722 398.281 154.42 398.186 155.107 398.186C155.545 398.186 156.048 398.239 156.616 398.346C157.19 398.446 157.743 398.657 158.276 398.976C158.815 399.296 159.261 399.778 159.616 400.423C159.972 401.068 160.149 401.933 160.149 403.016V412H158.054V410.153H157.947C157.805 410.449 157.569 410.766 157.237 411.103C156.906 411.441 156.465 411.728 155.914 411.964C155.364 412.201 154.692 412.32 153.899 412.32ZM154.219 410.438C155.047 410.438 155.746 410.275 156.314 409.949C156.888 409.624 157.32 409.203 157.61 408.689C157.906 408.174 158.054 407.632 158.054 407.064V405.146C157.965 405.253 157.77 405.35 157.468 405.439C157.172 405.522 156.829 405.596 156.438 405.661C156.054 405.72 155.678 405.774 155.311 405.821C154.95 405.862 154.657 405.898 154.432 405.928C153.887 405.999 153.378 406.114 152.905 406.274C152.437 406.428 152.058 406.661 151.768 406.975C151.484 407.283 151.342 407.703 151.342 408.236C151.342 408.964 151.612 409.514 152.15 409.887C152.695 410.254 153.384 410.438 154.219 410.438ZM164.834 417.114C164.479 417.114 164.163 417.084 163.884 417.025C163.606 416.972 163.414 416.918 163.307 416.865L163.84 415.018C164.349 415.149 164.799 415.196 165.19 415.161C165.58 415.125 165.926 414.95 166.228 414.637C166.536 414.329 166.817 413.829 167.072 413.136L167.462 412.071L162.42 398.364H164.692L168.457 409.23H168.599L172.363 398.364H174.636L168.847 413.989C168.587 414.693 168.264 415.276 167.88 415.738C167.495 416.205 167.048 416.551 166.539 416.776C166.036 417.001 165.468 417.114 164.834 417.114ZM183.331 398.364V400.139H176.265V398.364H183.331ZM178.324 395.097H180.419V408.094C180.419 408.686 180.505 409.129 180.677 409.425C180.854 409.715 181.079 409.911 181.352 410.011C181.63 410.106 181.923 410.153 182.231 410.153C182.461 410.153 182.651 410.142 182.799 410.118C182.947 410.088 183.065 410.065 183.154 410.047L183.58 411.929C183.438 411.982 183.24 412.036 182.985 412.089C182.731 412.148 182.408 412.178 182.017 412.178C181.426 412.178 180.846 412.05 180.277 411.796C179.715 411.541 179.248 411.154 178.875 410.633C178.508 410.112 178.324 409.455 178.324 408.662V395.097ZM191.876 412.284C190.645 412.284 189.565 411.991 188.636 411.405C187.713 410.819 186.991 410 186.47 408.946C185.955 407.893 185.697 406.661 185.697 405.253C185.697 403.832 185.955 402.592 186.47 401.533C186.991 400.474 187.713 399.651 188.636 399.065C189.565 398.479 190.645 398.186 191.876 398.186C193.107 398.186 194.185 398.479 195.108 399.065C196.037 399.651 196.759 400.474 197.274 401.533C197.795 402.592 198.055 403.832 198.055 405.253C198.055 406.661 197.795 407.893 197.274 408.946C196.759 410 196.037 410.819 195.108 411.405C194.185 411.991 193.107 412.284 191.876 412.284ZM191.876 410.402C192.811 410.402 193.581 410.162 194.185 409.683C194.788 409.203 195.235 408.573 195.525 407.792C195.815 407.011 195.96 406.164 195.96 405.253C195.96 404.341 195.815 403.492 195.525 402.705C195.235 401.918 194.788 401.281 194.185 400.796C193.581 400.311 192.811 400.068 191.876 400.068C190.941 400.068 190.172 400.311 189.568 400.796C188.964 401.281 188.518 401.918 188.228 402.705C187.938 403.492 187.793 404.341 187.793 405.253C187.793 406.164 187.938 407.011 188.228 407.792C188.518 408.573 188.964 409.203 189.568 409.683C190.172 410.162 190.941 410.402 191.876 410.402ZM203.349 403.797V412H201.254V398.364H203.278V400.494H203.455C203.775 399.802 204.26 399.246 204.911 398.825C205.562 398.399 206.403 398.186 207.433 398.186C208.356 398.186 209.164 398.375 209.856 398.754C210.549 399.127 211.087 399.695 211.472 400.459C211.857 401.216 212.049 402.175 212.049 403.335V412H209.954V403.477C209.954 402.406 209.676 401.571 209.119 400.974C208.563 400.37 207.799 400.068 206.829 400.068C206.16 400.068 205.562 400.213 205.036 400.503C204.515 400.793 204.103 401.216 203.801 401.773C203.5 402.329 203.349 403.004 203.349 403.797Z" fill="black"/>
<path d="M163.202 304V285.818H165.403V302.047H173.855V304H163.202ZM176.98 304V290.364H179.075V304H176.98ZM178.045 288.091C177.637 288.091 177.285 287.952 176.989 287.674C176.699 287.395 176.554 287.061 176.554 286.67C176.554 286.28 176.699 285.945 176.989 285.667C177.285 285.389 177.637 285.25 178.045 285.25C178.454 285.25 178.803 285.389 179.093 285.667C179.389 285.945 179.537 286.28 179.537 286.67C179.537 287.061 179.389 287.395 179.093 287.674C178.803 287.952 178.454 288.091 178.045 288.091ZM182.913 304V290.364H184.937V292.494H185.114C185.399 291.766 185.857 291.201 186.491 290.799C187.124 290.39 187.884 290.186 188.772 290.186C189.672 290.186 190.42 290.39 191.018 290.799C191.622 291.201 192.092 291.766 192.43 292.494H192.572C192.921 291.79 193.445 291.231 194.143 290.816C194.842 290.396 195.679 290.186 196.656 290.186C197.875 290.186 198.872 290.568 199.647 291.331C200.423 292.089 200.81 293.27 200.81 294.874V304H198.715V294.874C198.715 293.867 198.44 293.148 197.89 292.716C197.339 292.284 196.691 292.068 195.945 292.068C194.987 292.068 194.244 292.358 193.717 292.938C193.19 293.512 192.927 294.24 192.927 295.122V304H190.796V294.661C190.796 293.885 190.545 293.261 190.042 292.787C189.539 292.308 188.89 292.068 188.097 292.068C187.553 292.068 187.044 292.213 186.57 292.503C186.103 292.793 185.724 293.196 185.434 293.711C185.15 294.22 185.008 294.808 185.008 295.477V304H182.913ZM208.654 304.32C207.79 304.32 207.006 304.157 206.301 303.831C205.597 303.5 205.038 303.023 204.623 302.402C204.209 301.775 204.002 301.017 204.002 300.129C204.002 299.348 204.156 298.715 204.464 298.229C204.771 297.738 205.183 297.353 205.698 297.075C206.213 296.797 206.781 296.59 207.402 296.454C208.03 296.312 208.66 296.199 209.293 296.116C210.122 296.01 210.794 295.93 211.309 295.877C211.829 295.818 212.208 295.72 212.445 295.584C212.688 295.448 212.809 295.211 212.809 294.874V294.803C212.809 293.927 212.569 293.246 212.09 292.761C211.616 292.275 210.897 292.033 209.932 292.033C208.932 292.033 208.148 292.252 207.58 292.69C207.012 293.128 206.612 293.595 206.381 294.092L204.393 293.382C204.748 292.554 205.221 291.908 205.813 291.447C206.411 290.979 207.062 290.654 207.766 290.47C208.476 290.281 209.175 290.186 209.861 290.186C210.299 290.186 210.802 290.239 211.371 290.346C211.945 290.446 212.498 290.657 213.031 290.976C213.569 291.296 214.016 291.778 214.371 292.423C214.726 293.068 214.904 293.933 214.904 295.016V304H212.809V302.153H212.702C212.56 302.449 212.324 302.766 211.992 303.103C211.661 303.441 211.22 303.728 210.669 303.964C210.119 304.201 209.447 304.32 208.654 304.32ZM208.974 302.438C209.802 302.438 210.501 302.275 211.069 301.949C211.643 301.624 212.075 301.203 212.365 300.689C212.661 300.174 212.809 299.632 212.809 299.064V297.146C212.72 297.253 212.525 297.35 212.223 297.439C211.927 297.522 211.584 297.596 211.193 297.661C210.808 297.72 210.433 297.774 210.066 297.821C209.705 297.862 209.412 297.898 209.187 297.928C208.642 297.999 208.133 298.114 207.66 298.274C207.192 298.428 206.813 298.661 206.523 298.975C206.239 299.283 206.097 299.703 206.097 300.236C206.097 300.964 206.367 301.514 206.905 301.887C207.45 302.254 208.139 302.438 208.974 302.438Z" fill="black"/>
<circle cx="500.511" cy="145.511" r="9.01136" fill="#FFE587" stroke="black"/>
<circle cx="519.511" cy="211.511" r="9.01136" fill="#FFE587" stroke="black"/>
<circle cx="533.511" cy="258.511" r="9.01136" fill="#FFE587" stroke="black"/>
<path d="M127.832 508.5H125.631C125.5 507.867 125.273 507.31 124.947 506.831C124.627 506.352 124.237 505.949 123.775 505.624C123.319 505.292 122.813 505.044 122.257 504.878C121.701 504.712 121.121 504.629 120.517 504.629C119.416 504.629 118.419 504.907 117.525 505.464C116.637 506.02 115.93 506.84 115.403 507.923C114.883 509.006 114.622 510.335 114.622 511.909C114.622 513.483 114.883 514.812 115.403 515.895C115.93 516.978 116.637 517.798 117.525 518.354C118.419 518.911 119.416 519.189 120.517 519.189C121.121 519.189 121.701 519.106 122.257 518.94C122.813 518.775 123.319 518.529 123.775 518.203C124.237 517.872 124.627 517.467 124.947 516.987C125.273 516.502 125.5 515.946 125.631 515.318H127.832C127.667 516.247 127.365 517.079 126.927 517.813C126.489 518.547 125.944 519.171 125.293 519.686C124.642 520.195 123.911 520.583 123.1 520.849C122.296 521.115 121.434 521.249 120.517 521.249C118.966 521.249 117.587 520.87 116.38 520.112C115.173 519.355 114.223 518.277 113.53 516.881C112.838 515.484 112.491 513.827 112.491 511.909C112.491 509.991 112.838 508.334 113.53 506.938C114.223 505.541 115.173 504.464 116.38 503.706C117.587 502.948 118.966 502.57 120.517 502.57C121.434 502.57 122.296 502.703 123.1 502.969C123.911 503.235 124.642 503.626 125.293 504.141C125.944 504.65 126.489 505.271 126.927 506.005C127.365 506.733 127.667 507.565 127.832 508.5ZM131.106 521V507.364H133.201V521H131.106ZM132.171 505.091C131.763 505.091 131.411 504.952 131.115 504.674C130.825 504.395 130.68 504.061 130.68 503.67C130.68 503.28 130.825 502.945 131.115 502.667C131.411 502.389 131.763 502.25 132.171 502.25C132.58 502.25 132.929 502.389 133.219 502.667C133.515 502.945 133.663 503.28 133.663 503.67C133.663 504.061 133.515 504.395 133.219 504.674C132.929 504.952 132.58 505.091 132.171 505.091ZM139.134 512.797V521H137.039V507.364H139.063V509.494H139.24C139.56 508.802 140.045 508.246 140.696 507.825C141.347 507.399 142.188 507.186 143.218 507.186C144.141 507.186 144.949 507.375 145.641 507.754C146.334 508.127 146.872 508.695 147.257 509.459C147.642 510.216 147.834 511.175 147.834 512.335V521H145.739V512.477C145.739 511.406 145.461 510.571 144.904 509.974C144.348 509.37 143.585 509.068 142.614 509.068C141.945 509.068 141.347 509.213 140.821 509.503C140.3 509.793 139.888 510.216 139.587 510.773C139.285 511.329 139.134 512.004 139.134 512.797ZM157.203 521.284C155.924 521.284 154.823 520.982 153.9 520.379C152.977 519.775 152.266 518.943 151.769 517.884C151.272 516.824 151.024 515.614 151.024 514.253C151.024 512.868 151.278 511.646 151.787 510.586C152.302 509.521 153.018 508.689 153.935 508.092C154.859 507.488 155.936 507.186 157.167 507.186C158.126 507.186 158.99 507.364 159.759 507.719C160.529 508.074 161.159 508.571 161.65 509.21C162.142 509.849 162.446 510.595 162.565 511.447H160.47C160.31 510.826 159.955 510.276 159.404 509.796C158.86 509.311 158.126 509.068 157.203 509.068C156.386 509.068 155.67 509.281 155.054 509.707C154.444 510.128 153.968 510.722 153.625 511.492C153.287 512.255 153.119 513.152 153.119 514.182C153.119 515.235 153.284 516.153 153.616 516.934C153.953 517.715 154.427 518.322 155.036 518.754C155.652 519.186 156.374 519.402 157.203 519.402C157.747 519.402 158.241 519.307 158.685 519.118C159.129 518.929 159.505 518.656 159.813 518.301C160.12 517.946 160.339 517.52 160.47 517.023H162.565C162.446 517.828 162.153 518.553 161.686 519.198C161.224 519.837 160.612 520.346 159.848 520.725C159.091 521.098 158.209 521.284 157.203 521.284ZM165.628 521V507.364H167.723V521H165.628ZM166.693 505.091C166.285 505.091 165.932 504.952 165.636 504.674C165.346 504.395 165.201 504.061 165.201 503.67C165.201 503.28 165.346 502.945 165.636 502.667C165.932 502.389 166.285 502.25 166.693 502.25C167.101 502.25 167.45 502.389 167.741 502.667C168.036 502.945 168.184 503.28 168.184 503.67C168.184 504.061 168.036 504.395 167.741 504.674C167.45 504.952 167.101 505.091 166.693 505.091ZM173.655 512.797V521H171.56V507.364H173.584V509.494H173.762C174.081 508.802 174.567 508.246 175.218 507.825C175.869 507.399 176.709 507.186 177.739 507.186C178.662 507.186 179.47 507.375 180.163 507.754C180.855 508.127 181.394 508.695 181.779 509.459C182.163 510.216 182.356 511.175 182.356 512.335V521H180.26V512.477C180.26 511.406 179.982 510.571 179.426 509.974C178.87 509.37 178.106 509.068 177.135 509.068C176.467 509.068 175.869 509.213 175.342 509.503C174.821 509.793 174.41 510.216 174.108 510.773C173.806 511.329 173.655 512.004 173.655 512.797ZM188.279 512.797V521H186.184V507.364H188.208V509.494H188.386C188.706 508.802 189.191 508.246 189.842 507.825C190.493 507.399 191.333 507.186 192.363 507.186C193.286 507.186 194.094 507.375 194.787 507.754C195.479 508.127 196.018 508.695 196.403 509.459C196.787 510.216 196.98 511.175 196.98 512.335V521H194.884V512.477C194.884 511.406 194.606 510.571 194.05 509.974C193.494 509.37 192.73 509.068 191.759 509.068C191.091 509.068 190.493 509.213 189.966 509.503C189.445 509.793 189.034 510.216 188.732 510.773C188.43 511.329 188.279 512.004 188.279 512.797ZM204.821 521.32C203.957 521.32 203.173 521.157 202.468 520.831C201.764 520.5 201.205 520.023 200.79 519.402C200.376 518.775 200.169 518.017 200.169 517.129C200.169 516.348 200.323 515.715 200.631 515.229C200.938 514.738 201.35 514.353 201.865 514.075C202.38 513.797 202.948 513.59 203.569 513.454C204.197 513.312 204.827 513.199 205.46 513.116C206.289 513.01 206.961 512.93 207.475 512.877C207.996 512.818 208.375 512.72 208.612 512.584C208.855 512.448 208.976 512.211 208.976 511.874V511.803C208.976 510.927 208.736 510.246 208.257 509.761C207.783 509.275 207.064 509.033 206.099 509.033C205.099 509.033 204.315 509.252 203.747 509.69C203.179 510.128 202.779 510.595 202.548 511.092L200.56 510.382C200.915 509.554 201.388 508.908 201.98 508.447C202.578 507.979 203.229 507.654 203.933 507.47C204.643 507.281 205.342 507.186 206.028 507.186C206.466 507.186 206.969 507.239 207.538 507.346C208.112 507.446 208.665 507.657 209.198 507.976C209.736 508.296 210.183 508.778 210.538 509.423C210.893 510.068 211.071 510.933 211.071 512.016V521H208.976V519.153H208.869C208.727 519.449 208.491 519.766 208.159 520.103C207.828 520.441 207.387 520.728 206.836 520.964C206.286 521.201 205.614 521.32 204.821 521.32ZM205.141 519.438C205.969 519.438 206.668 519.275 207.236 518.949C207.81 518.624 208.242 518.203 208.532 517.689C208.828 517.174 208.976 516.632 208.976 516.064V514.146C208.887 514.253 208.692 514.35 208.39 514.439C208.094 514.522 207.751 514.596 207.36 514.661C206.975 514.72 206.6 514.774 206.233 514.821C205.872 514.862 205.579 514.898 205.354 514.928C204.809 514.999 204.3 515.114 203.827 515.274C203.359 515.428 202.98 515.661 202.69 515.975C202.406 516.283 202.264 516.703 202.264 517.236C202.264 517.964 202.533 518.514 203.072 518.887C203.617 519.254 204.306 519.438 205.141 519.438ZM220.826 507.364V509.139H213.759V507.364H220.826ZM215.818 504.097H217.914V517.094C217.914 517.686 217.999 518.129 218.171 518.425C218.349 518.715 218.574 518.911 218.846 519.011C219.124 519.106 219.417 519.153 219.725 519.153C219.956 519.153 220.145 519.142 220.293 519.118C220.441 519.088 220.559 519.065 220.648 519.047L221.074 520.929C220.932 520.982 220.734 521.036 220.479 521.089C220.225 521.148 219.902 521.178 219.512 521.178C218.92 521.178 218.34 521.05 217.772 520.796C217.209 520.541 216.742 520.154 216.369 519.633C216.002 519.112 215.818 518.455 215.818 517.662V504.097ZM223.977 521V507.364H226.072V521H223.977ZM225.043 505.091C224.634 505.091 224.282 504.952 223.986 504.674C223.696 504.395 223.551 504.061 223.551 503.67C223.551 503.28 223.696 502.945 223.986 502.667C224.282 502.389 224.634 502.25 225.043 502.25C225.451 502.25 225.8 502.389 226.09 502.667C226.386 502.945 226.534 503.28 226.534 503.67C226.534 504.061 226.386 504.395 226.09 504.674C225.8 504.952 225.451 505.091 225.043 505.091Z" fill="black"/>
<circle cx="137.511" cy="538.511" r="9.01136" fill="#FFE587" stroke="black"/>
<circle cx="181.511" cy="428.511" r="9.01136" fill="#FFE587" stroke="black"/>
<circle cx="190.511" cy="270.511" r="9.01136" fill="#FFE587" stroke="black"/>
<circle cx="263.511" cy="113.511" r="9.01136" fill="#FFE587" stroke="black"/>
<path d="M388.858 81V63.5455H392.02V78.3494H399.708V81H388.858ZM406.083 81.2642C405.253 81.2642 404.506 81.1165 403.841 80.821C403.182 80.5199 402.659 80.0767 402.273 79.4915C401.892 78.9062 401.702 78.1847 401.702 77.3267C401.702 76.5881 401.838 75.9773 402.111 75.4943C402.384 75.0114 402.756 74.625 403.228 74.3352C403.699 74.0455 404.23 73.8267 404.821 73.679C405.418 73.5256 406.034 73.4148 406.671 73.3466C407.438 73.267 408.06 73.196 408.537 73.1335C409.015 73.0653 409.361 72.9631 409.577 72.8267C409.799 72.6847 409.909 72.4659 409.909 72.1705V72.1193C409.909 71.4773 409.719 70.9801 409.338 70.6278C408.958 70.2756 408.409 70.0994 407.694 70.0994C406.938 70.0994 406.338 70.2642 405.895 70.5938C405.458 70.9233 405.162 71.3125 405.009 71.7614L402.128 71.3523C402.355 70.5568 402.73 69.892 403.253 69.358C403.776 68.8182 404.415 68.4148 405.171 68.1477C405.926 67.875 406.762 67.7386 407.676 67.7386C408.307 67.7386 408.935 67.8125 409.56 67.9602C410.185 68.108 410.756 68.3523 411.273 68.6932C411.79 69.0284 412.205 69.4858 412.517 70.0653C412.836 70.6449 412.995 71.3693 412.995 72.2386V81H410.029V79.2017H409.926C409.739 79.5653 409.475 79.9062 409.134 80.2244C408.799 80.5369 408.375 80.7898 407.864 80.983C407.358 81.1705 406.765 81.2642 406.083 81.2642ZM406.884 78.9972C407.503 78.9972 408.04 78.875 408.495 78.6307C408.949 78.3807 409.299 78.0511 409.543 77.642C409.793 77.233 409.918 76.7869 409.918 76.304V74.7614C409.821 74.8409 409.657 74.9148 409.424 74.983C409.196 75.0511 408.941 75.1108 408.657 75.1619C408.373 75.2131 408.091 75.2585 407.813 75.2983C407.534 75.3381 407.293 75.3722 407.088 75.4006C406.628 75.4631 406.216 75.5653 405.853 75.7074C405.489 75.8494 405.202 76.0483 404.992 76.304C404.782 76.554 404.676 76.8778 404.676 77.2756C404.676 77.8438 404.884 78.2727 405.299 78.5625C405.713 78.8523 406.242 78.9972 406.884 78.9972ZM418.909 76.892L418.901 73.1676H419.395L424.1 67.9091H427.705L421.918 74.3523H421.279L418.909 76.892ZM416.097 81V63.5455H419.182V81H416.097ZM424.313 81L420.051 75.0426L422.131 72.8693L428.003 81H424.313ZM435.017 81.2557C433.705 81.2557 432.571 80.983 431.617 80.4375C430.668 79.8864 429.938 79.108 429.426 78.1023C428.915 77.0909 428.659 75.9006 428.659 74.5312C428.659 73.1847 428.915 72.0028 429.426 70.9858C429.944 69.9631 430.665 69.1676 431.591 68.5994C432.517 68.0256 433.605 67.7386 434.855 67.7386C435.662 67.7386 436.424 67.8693 437.14 68.1307C437.861 68.3864 438.498 68.7841 439.049 69.3239C439.605 69.8636 440.043 70.5511 440.361 71.3864C440.679 72.2159 440.838 73.2045 440.838 74.3523V75.2983H430.108V73.2188H437.881C437.875 72.6278 437.748 72.1023 437.498 71.642C437.248 71.1761 436.898 70.8097 436.449 70.5426C436.006 70.2756 435.489 70.142 434.898 70.142C434.267 70.142 433.713 70.2955 433.236 70.6023C432.759 70.9034 432.387 71.3011 432.12 71.7955C431.858 72.2841 431.725 72.821 431.719 73.4062V75.2216C431.719 75.983 431.858 76.6364 432.137 77.1818C432.415 77.7216 432.804 78.1364 433.304 78.4261C433.804 78.7102 434.39 78.8523 435.06 78.8523C435.509 78.8523 435.915 78.7898 436.279 78.6648C436.642 78.5341 436.958 78.3438 437.225 78.0938C437.492 77.8438 437.694 77.5341 437.83 77.1648L440.711 77.4886C440.529 78.25 440.182 78.9148 439.671 79.483C439.165 80.0455 438.517 80.483 437.728 80.7955C436.938 81.1023 436.034 81.2557 435.017 81.2557ZM393.933 110V92.5455H405.285V95.196H397.094V99.9347H404.697V102.585H397.094V107.349H405.353V110H393.933ZM408.374 110V96.9091H411.366V99.0909H411.502C411.741 98.3352 412.15 97.7528 412.729 97.3438C413.315 96.929 413.982 96.7216 414.732 96.7216C414.903 96.7216 415.093 96.7301 415.303 96.7472C415.519 96.7585 415.698 96.7784 415.84 96.8068V99.6449C415.71 99.5994 415.502 99.5597 415.218 99.5256C414.94 99.4858 414.67 99.4659 414.408 99.4659C413.846 99.4659 413.34 99.5881 412.891 99.8324C412.448 100.071 412.099 100.403 411.843 100.83C411.587 101.256 411.46 101.747 411.46 102.304V110H408.374ZM417.89 110V96.9091H420.975V110H417.89ZM419.441 95.0511C418.952 95.0511 418.532 94.8892 418.18 94.5653C417.827 94.2358 417.651 93.8409 417.651 93.3807C417.651 92.9148 417.827 92.5199 418.18 92.196C418.532 91.8665 418.952 91.7017 419.441 91.7017C419.935 91.7017 420.356 91.8665 420.702 92.196C421.055 92.5199 421.231 92.9148 421.231 93.3807C421.231 93.8409 421.055 94.2358 420.702 94.5653C420.356 94.8892 419.935 95.0511 419.441 95.0511ZM429.943 110.256C428.631 110.256 427.497 109.983 426.543 109.438C425.594 108.886 424.864 108.108 424.352 107.102C423.841 106.091 423.585 104.901 423.585 103.531C423.585 102.185 423.841 101.003 424.352 99.9858C424.869 98.9631 425.591 98.1676 426.517 97.5994C427.443 97.0256 428.531 96.7386 429.781 96.7386C430.588 96.7386 431.349 96.8693 432.065 97.1307C432.787 97.3864 433.423 97.7841 433.974 98.3239C434.531 98.8636 434.969 99.5511 435.287 100.386C435.605 101.216 435.764 102.205 435.764 103.352V104.298H425.034V102.219H432.807C432.801 101.628 432.673 101.102 432.423 100.642C432.173 100.176 431.824 99.8097 431.375 99.5426C430.932 99.2756 430.415 99.142 429.824 99.142C429.193 99.142 428.639 99.2955 428.162 99.6023C427.685 99.9034 427.313 100.301 427.045 100.795C426.784 101.284 426.651 101.821 426.645 102.406V104.222C426.645 104.983 426.784 105.636 427.062 106.182C427.341 106.722 427.73 107.136 428.23 107.426C428.73 107.71 429.315 107.852 429.986 107.852C430.435 107.852 430.841 107.79 431.205 107.665C431.568 107.534 431.884 107.344 432.151 107.094C432.418 106.844 432.619 106.534 432.756 106.165L435.636 106.489C435.455 107.25 435.108 107.915 434.597 108.483C434.091 109.045 433.443 109.483 432.653 109.795C431.864 110.102 430.96 110.256 429.943 110.256Z" fill="#017D83"/>
<defs>
<filter id="filter0_d_93_137" x="93.4946" y="59.2799" width="552.505" height="600.738" filterUnits="userSpaceOnUse" color-interpolation-filters="sRGB">
<feFlood flood-opacity="0" result="BackgroundImageFix"/>
<feColorMatrix in="SourceAlpha" type="matrix" values="0 0 0 0 0 0 0 0 0 0 0 0 0 0 0 0 0 0 127 0" result="hardAlpha"/>
<feOffset dy="4"/>
<feGaussianBlur stdDeviation="2"/>
<feComposite in2="hardAlpha" operator="out"/>
<feColorMatrix type="matrix" values="0 0 0 0 0 0 0 0 0 0 0 0 0 0 0 0 0 0 0.25 0"/>
<feBlend mode="normal" in2="BackgroundImageFix" result="effect1_dropShadow_93_137"/>
<feBlend mode="normal" in="SourceGraphic" in2="effect1_dropShadow_93_137" result="shape"/>
</filter>
</defs>
</svg>
