<svg width="955" height="561" viewBox="0 0 955 561" fill="none" xmlns="http://www.w3.org/2000/svg">
<rect x="0.5" y="0.5" width="954" height="560" rx="35.5" fill="#97DCFF" stroke="#717171"/>
<path d="M765.065 165.545V183H762.253L754.028 171.111H753.884V183H750.722V165.545H753.551L761.767 177.443H761.92V165.545H765.065ZM768.511 183V165.545H771.673V172.935H779.761V165.545H782.931V183H779.761V175.585H771.673V183H768.511Z" fill="#FFE587"/>
<circle cx="799.511" cy="223.511" r="9.01136" fill="#FF8F87" stroke="black"/>
<path d="M722.58 209V190.818H729.86C731.198 190.818 732.313 191.016 733.207 191.413C734.101 191.81 734.772 192.36 735.222 193.064C735.672 193.763 735.897 194.568 735.897 195.479C735.897 196.189 735.755 196.814 735.471 197.352C735.187 197.885 734.796 198.323 734.299 198.666C733.808 199.004 733.246 199.243 732.612 199.385V199.563C733.305 199.592 733.953 199.788 734.556 200.149C735.166 200.51 735.66 201.016 736.039 201.667C736.418 202.312 736.607 203.081 736.607 203.975C736.607 204.94 736.368 205.801 735.888 206.559C735.415 207.31 734.713 207.905 733.784 208.343C732.855 208.781 731.71 209 730.348 209H722.58ZM726.424 205.857H729.558C730.629 205.857 731.411 205.653 731.902 205.245C732.393 204.83 732.639 204.28 732.639 203.593C732.639 203.09 732.518 202.646 732.275 202.262C732.032 201.877 731.686 201.575 731.236 201.356C730.792 201.137 730.263 201.028 729.647 201.028H726.424V205.857ZM726.424 198.426H729.274C729.801 198.426 730.268 198.335 730.677 198.151C731.091 197.962 731.417 197.696 731.653 197.352C731.896 197.009 732.017 196.598 732.017 196.118C732.017 195.461 731.784 194.932 731.316 194.529C730.854 194.127 730.197 193.925 729.345 193.925H726.424V198.426ZM745.199 209.266C743.82 209.266 742.627 208.973 741.621 208.387C740.621 207.796 739.848 206.973 739.304 205.919C738.759 204.86 738.487 203.632 738.487 202.235C738.487 200.826 738.759 199.595 739.304 198.542C739.848 197.482 740.621 196.66 741.621 196.074C742.627 195.482 743.82 195.186 745.199 195.186C746.578 195.186 747.767 195.482 748.768 196.074C749.774 196.66 750.549 197.482 751.094 198.542C751.638 199.595 751.91 200.826 751.91 202.235C751.91 203.632 751.638 204.86 751.094 205.919C750.549 206.973 749.774 207.796 748.768 208.387C747.767 208.973 746.578 209.266 745.199 209.266ZM745.217 206.337C745.844 206.337 746.368 206.159 746.788 205.804C747.208 205.443 747.525 204.952 747.738 204.33C747.957 203.709 748.066 203.002 748.066 202.208C748.066 201.415 747.957 200.708 747.738 200.087C747.525 199.465 747.208 198.974 746.788 198.613C746.368 198.252 745.844 198.071 745.217 198.071C744.583 198.071 744.051 198.252 743.619 198.613C743.192 198.974 742.87 199.465 742.651 200.087C742.438 200.708 742.331 201.415 742.331 202.208C742.331 203.002 742.438 203.709 742.651 204.33C742.87 204.952 743.192 205.443 743.619 205.804C744.051 206.159 744.583 206.337 745.217 206.337ZM765.715 199.252L762.253 199.465C762.194 199.169 762.067 198.903 761.871 198.666C761.676 198.424 761.419 198.231 761.099 198.089C760.785 197.941 760.409 197.867 759.972 197.867C759.386 197.867 758.891 197.991 758.489 198.24C758.086 198.483 757.885 198.808 757.885 199.217C757.885 199.542 758.015 199.817 758.276 200.042C758.536 200.267 758.983 200.448 759.616 200.584L762.084 201.081C763.41 201.353 764.399 201.791 765.05 202.395C765.701 202.999 766.026 203.792 766.026 204.774C766.026 205.668 765.763 206.452 765.236 207.127C764.715 207.801 763.999 208.328 763.088 208.707C762.182 209.08 761.137 209.266 759.954 209.266C758.149 209.266 756.71 208.891 755.639 208.139C754.574 207.381 753.949 206.351 753.766 205.049L757.486 204.854C757.598 205.404 757.87 205.825 758.302 206.115C758.735 206.399 759.288 206.541 759.963 206.541C760.626 206.541 761.158 206.414 761.561 206.159C761.969 205.899 762.176 205.564 762.182 205.156C762.176 204.813 762.031 204.531 761.747 204.312C761.463 204.088 761.025 203.916 760.433 203.798L758.072 203.327C756.74 203.061 755.749 202.599 755.098 201.942C754.452 201.285 754.13 200.448 754.13 199.43C754.13 198.554 754.367 197.799 754.84 197.166C755.32 196.533 755.991 196.044 756.855 195.701C757.725 195.358 758.743 195.186 759.909 195.186C761.632 195.186 762.987 195.55 763.975 196.278C764.97 197.006 765.55 197.997 765.715 199.252ZM775.661 195.364V198.205H767.449V195.364H775.661ZM769.313 192.097H773.095V204.81C773.095 205.159 773.148 205.431 773.255 205.626C773.362 205.816 773.509 205.949 773.699 206.026C773.894 206.103 774.119 206.141 774.374 206.141C774.551 206.141 774.729 206.127 774.906 206.097C775.084 206.061 775.22 206.035 775.315 206.017L775.909 208.831C775.72 208.891 775.454 208.959 775.11 209.036C774.767 209.118 774.35 209.169 773.859 209.186C772.947 209.222 772.148 209.101 771.462 208.822C770.781 208.544 770.251 208.112 769.873 207.526C769.494 206.94 769.307 206.201 769.313 205.307V192.097ZM784.139 209.266C782.76 209.266 781.568 208.973 780.561 208.387C779.561 207.796 778.789 206.973 778.244 205.919C777.7 204.86 777.428 203.632 777.428 202.235C777.428 200.826 777.7 199.595 778.244 198.542C778.789 197.482 779.561 196.66 780.561 196.074C781.568 195.482 782.76 195.186 784.139 195.186C785.518 195.186 786.708 195.482 787.708 196.074C788.714 196.66 789.49 197.482 790.034 198.542C790.579 199.595 790.851 200.826 790.851 202.235C790.851 203.632 790.579 204.86 790.034 205.919C789.49 206.973 788.714 207.796 787.708 208.387C786.708 208.973 785.518 209.266 784.139 209.266ZM784.157 206.337C784.784 206.337 785.308 206.159 785.728 205.804C786.149 205.443 786.465 204.952 786.678 204.33C786.897 203.709 787.007 203.002 787.007 202.208C787.007 201.415 786.897 200.708 786.678 200.087C786.465 199.465 786.149 198.974 785.728 198.613C785.308 198.252 784.784 198.071 784.157 198.071C783.524 198.071 782.991 198.252 782.559 198.613C782.133 198.974 781.81 199.465 781.591 200.087C781.378 200.708 781.272 201.415 781.272 202.208C781.272 203.002 781.378 203.709 781.591 204.33C781.81 204.952 782.133 205.443 782.559 205.804C782.991 206.159 783.524 206.337 784.157 206.337ZM797.092 201.116V209H793.31V195.364H796.914V197.77H797.074C797.376 196.976 797.882 196.349 798.592 195.887C799.303 195.42 800.164 195.186 801.176 195.186C802.123 195.186 802.948 195.393 803.653 195.808C804.357 196.222 804.904 196.814 805.295 197.583C805.686 198.347 805.881 199.258 805.881 200.317V209H802.099V200.992C802.105 200.158 801.892 199.507 801.46 199.039C801.028 198.566 800.433 198.329 799.675 198.329C799.166 198.329 798.717 198.438 798.326 198.657C797.941 198.876 797.639 199.196 797.42 199.616C797.207 200.03 797.098 200.531 797.092 201.116Z" fill="black"/>
<path d="M713.504 271L708.533 252.818H710.77L714.57 267.626H714.747L718.618 252.818H721.104L724.974 267.626H725.152L728.952 252.818H731.189L726.217 271H723.945L719.932 256.511H719.79L715.777 271H713.504ZM737.918 271.284C736.687 271.284 735.607 270.991 734.678 270.405C733.755 269.819 733.033 269 732.512 267.946C731.997 266.893 731.739 265.661 731.739 264.253C731.739 262.832 731.997 261.592 732.512 260.533C733.033 259.474 733.755 258.651 734.678 258.065C735.607 257.479 736.687 257.186 737.918 257.186C739.149 257.186 740.227 257.479 741.15 258.065C742.079 258.651 742.801 259.474 743.316 260.533C743.837 261.592 744.097 262.832 744.097 264.253C744.097 265.661 743.837 266.893 743.316 267.946C742.801 269 742.079 269.819 741.15 270.405C740.227 270.991 739.149 271.284 737.918 271.284ZM737.918 269.402C738.853 269.402 739.623 269.162 740.227 268.683C740.83 268.203 741.277 267.573 741.567 266.792C741.857 266.011 742.002 265.164 742.002 264.253C742.002 263.341 741.857 262.492 741.567 261.705C741.277 260.918 740.83 260.281 740.227 259.796C739.623 259.311 738.853 259.068 737.918 259.068C736.983 259.068 736.214 259.311 735.61 259.796C735.006 260.281 734.56 260.918 734.27 261.705C733.98 262.492 733.835 263.341 733.835 264.253C733.835 265.164 733.98 266.011 734.27 266.792C734.56 267.573 735.006 268.203 735.61 268.683C736.214 269.162 736.983 269.402 737.918 269.402ZM747.296 271V257.364H749.32V259.423H749.462C749.71 258.749 750.16 258.201 750.811 257.781C751.462 257.361 752.196 257.151 753.013 257.151C753.167 257.151 753.359 257.154 753.59 257.159C753.821 257.165 753.995 257.174 754.114 257.186V259.317C754.043 259.299 753.88 259.272 753.625 259.237C753.377 259.195 753.113 259.175 752.835 259.175C752.172 259.175 751.581 259.314 751.06 259.592C750.545 259.864 750.136 260.243 749.835 260.728C749.539 261.208 749.391 261.755 749.391 262.371V271H747.296ZM761.722 271.284C760.444 271.284 759.343 270.982 758.419 270.379C757.496 269.775 756.786 268.943 756.289 267.884C755.792 266.824 755.543 265.614 755.543 264.253C755.543 262.868 755.798 261.646 756.307 260.586C756.821 259.521 757.538 258.689 758.455 258.092C759.378 257.488 760.455 257.186 761.687 257.186C762.645 257.186 763.509 257.364 764.279 257.719C765.048 258.074 765.679 258.571 766.17 259.21C766.661 259.849 766.966 260.595 767.084 261.447H764.989C764.829 260.826 764.474 260.276 763.924 259.796C763.379 259.311 762.645 259.068 761.722 259.068C760.905 259.068 760.189 259.281 759.574 259.707C758.964 260.128 758.488 260.722 758.144 261.492C757.807 262.255 757.638 263.152 757.638 264.182C757.638 265.235 757.804 266.153 758.135 266.934C758.473 267.715 758.946 268.322 759.556 268.754C760.171 269.186 760.893 269.402 761.722 269.402C762.267 269.402 762.761 269.307 763.205 269.118C763.649 268.929 764.024 268.656 764.332 268.301C764.64 267.946 764.859 267.52 764.989 267.023H767.084C766.966 267.828 766.673 268.553 766.205 269.198C765.744 269.837 765.131 270.346 764.368 270.725C763.61 271.098 762.728 271.284 761.722 271.284ZM775.864 271.284C774.551 271.284 773.417 270.994 772.464 270.414C771.517 269.828 770.786 269.011 770.271 267.964C769.762 266.91 769.508 265.685 769.508 264.288C769.508 262.892 769.762 261.661 770.271 260.595C770.786 259.524 771.502 258.689 772.42 258.092C773.343 257.488 774.42 257.186 775.651 257.186C776.362 257.186 777.063 257.304 777.755 257.541C778.448 257.778 779.078 258.163 779.646 258.695C780.215 259.222 780.667 259.92 781.005 260.79C781.342 261.661 781.511 262.732 781.511 264.004V264.892H770.999V263.081H779.38C779.38 262.312 779.226 261.625 778.918 261.021C778.617 260.418 778.185 259.941 777.622 259.592C777.066 259.243 776.409 259.068 775.651 259.068C774.817 259.068 774.095 259.275 773.485 259.69C772.881 260.098 772.417 260.631 772.091 261.288C771.766 261.945 771.603 262.649 771.603 263.401V264.608C771.603 265.638 771.781 266.511 772.136 267.227C772.497 267.937 772.997 268.479 773.636 268.852C774.275 269.219 775.018 269.402 775.864 269.402C776.415 269.402 776.912 269.325 777.356 269.171C777.806 269.011 778.193 268.775 778.519 268.461C778.844 268.141 779.096 267.745 779.274 267.271L781.298 267.839C781.085 268.526 780.727 269.13 780.223 269.651C779.72 270.165 779.099 270.568 778.359 270.858C777.619 271.142 776.788 271.284 775.864 271.284ZM794.357 260.418L792.475 260.95C792.357 260.637 792.182 260.332 791.951 260.036C791.726 259.734 791.418 259.485 791.028 259.29C790.637 259.095 790.137 258.997 789.527 258.997C788.693 258.997 787.997 259.19 787.441 259.574C786.891 259.953 786.616 260.435 786.616 261.021C786.616 261.542 786.805 261.953 787.184 262.255C787.562 262.557 788.154 262.809 788.959 263.01L790.983 263.507C792.203 263.803 793.111 264.256 793.709 264.865C794.307 265.469 794.606 266.247 794.606 267.2C794.606 267.982 794.381 268.68 793.931 269.295C793.487 269.911 792.866 270.396 792.066 270.751C791.267 271.107 790.338 271.284 789.279 271.284C787.888 271.284 786.737 270.982 785.825 270.379C784.914 269.775 784.337 268.893 784.094 267.733L786.083 267.236C786.272 267.97 786.63 268.52 787.157 268.887C787.69 269.254 788.385 269.438 789.243 269.438C790.22 269.438 790.995 269.23 791.569 268.816C792.149 268.396 792.439 267.893 792.439 267.307C792.439 266.833 792.274 266.437 791.942 266.117C791.611 265.792 791.102 265.549 790.415 265.389L788.142 264.857C786.894 264.561 785.976 264.102 785.39 263.48C784.81 262.853 784.52 262.069 784.52 261.128C784.52 260.358 784.736 259.678 785.168 259.086C785.606 258.494 786.201 258.029 786.953 257.692C787.71 257.355 788.569 257.186 789.527 257.186C790.877 257.186 791.936 257.482 792.706 258.074C793.481 258.666 794.031 259.447 794.357 260.418ZM803.69 257.364V259.139H796.623V257.364H803.69ZM798.683 254.097H800.778V267.094C800.778 267.686 800.864 268.129 801.035 268.425C801.213 268.715 801.438 268.911 801.71 269.011C801.988 269.106 802.281 269.153 802.589 269.153C802.82 269.153 803.009 269.142 803.157 269.118C803.305 269.088 803.423 269.065 803.512 269.047L803.938 270.929C803.796 270.982 803.598 271.036 803.344 271.089C803.089 271.148 802.767 271.178 802.376 271.178C801.784 271.178 801.204 271.05 800.636 270.796C800.074 270.541 799.606 270.154 799.233 269.633C798.866 269.112 798.683 268.455 798.683 267.662V254.097ZM812.412 271.284C811.098 271.284 809.965 270.994 809.012 270.414C808.065 269.828 807.334 269.011 806.819 267.964C806.31 266.91 806.056 265.685 806.056 264.288C806.056 262.892 806.31 261.661 806.819 260.595C807.334 259.524 808.05 258.689 808.968 258.092C809.891 257.488 810.968 257.186 812.199 257.186C812.909 257.186 813.611 257.304 814.303 257.541C814.996 257.778 815.626 258.163 816.194 258.695C816.762 259.222 817.215 259.92 817.553 260.79C817.89 261.661 818.059 262.732 818.059 264.004V264.892H807.547V263.081H815.928C815.928 262.312 815.774 261.625 815.466 261.021C815.164 260.418 814.732 259.941 814.17 259.592C813.614 259.243 812.957 259.068 812.199 259.068C811.365 259.068 810.643 259.275 810.033 259.69C809.429 260.098 808.965 260.631 808.639 261.288C808.314 261.945 808.151 262.649 808.151 263.401V264.608C808.151 265.638 808.328 266.511 808.684 267.227C809.045 267.937 809.545 268.479 810.184 268.852C810.823 269.219 811.566 269.402 812.412 269.402C812.963 269.402 813.46 269.325 813.904 269.171C814.354 269.011 814.741 268.775 815.067 268.461C815.392 268.141 815.644 267.745 815.821 267.271L817.846 267.839C817.632 268.526 817.274 269.13 816.771 269.651C816.268 270.165 815.647 270.568 814.907 270.858C814.167 271.142 813.336 271.284 812.412 271.284ZM821.246 271V257.364H823.27V259.423H823.412C823.661 258.749 824.11 258.201 824.761 257.781C825.412 257.361 826.146 257.151 826.963 257.151C827.117 257.151 827.309 257.154 827.54 257.159C827.771 257.165 827.946 257.174 828.064 257.186V259.317C827.993 259.299 827.83 259.272 827.576 259.237C827.327 259.195 827.064 259.175 826.786 259.175C826.123 259.175 825.531 259.314 825.01 259.592C824.495 259.864 824.087 260.243 823.785 260.728C823.489 261.208 823.341 261.755 823.341 262.371V271H821.246Z" fill="black"/>
<circle cx="770.511" cy="284.511" r="9.01136" fill="#FFE587" stroke="black"/>
<g filter="url(#filter0_d_184_252)">
<path d="M821 122.5H95V176.5H355V382H356.5H359.5H362L370 389L374 395L381.5 401.5L389.5 402.5L391.5 398.5H398.5L403.5 402.5L404.5 401.5H406L407 400.5V395L409 393.5L414 398.5H416.5H418.5V400.5L419.5 401.5L423 406L424 410L425 418.5L428 419.5L433.5 420.5H439L443 419.5L449.5 423L453 424.5H454.5H457.5L462.5 427.5H464H468.5L472 424.5L476 425.5L479.5 427.5L485 434.5H487.5L493.5 432L494 427.5L496 425.5L502.5 427.5L511.5 429L513.5 429.5L515.5 427.5L518 425.5L519.5 427.5V429.5L518 433.5L521 436.5L519.5 438.5L521 441L525 443L528.5 441H531.5L532.5 444L531.5 449L529.5 452.5L534.5 455L538 457H541.5L543.5 455L546.5 451L550.5 449L553.5 444L557 443L560.5 444L563.5 446L564 451H566.5L572 450L575 452.5L574 458.5L576.5 460H580.5L584.5 458.5L586.5 453.5L592 455L593 451L595.5 450L597.5 451L600 453.5V458L597.5 462V465.5C598.167 466.667 599.8 469.2 601 470C602.2 470.8 602.833 471 603 471L606.5 469L607.5 465.5V462L610 460L607.5 458L609 456L611.5 458.5L613 457L615.5 454V451V447L617 448L619 447L621 446L622.5 447L625 456L627 457L629 455L633.5 456L635.5 460L639 458.5L640.5 457L642.5 453.5L644 451L647 452.5H650V454L647 457L650.5 460H655L658.5 465.5H665L670.5 473H673.5V471L675.5 467.5L677.5 466.5L682 467.5L687 465.5V461L688.5 460V458.5H692L694 458L697.5 458.5L698.5 457L700.5 458V456H702L703.5 457L706 456L706.5 454H709L712 456L716 458L717 456L721.5 457L723 452.5L726.5 453.5L730.5 451H733L736 448H738.5L740 450V454L743 452.5L743.5 454L746.5 453.5L749 455H752H761.5L764.5 453.5L766 451.5L766.5 448L767.5 446H771L774 448H776.5V450V451H778.5L779.5 450L781 451L782.5 453.5L785 456L788.5 457H791L793.5 462.5L797 466.5L800.5 469H805L808 470L809.5 473L812.5 474L817 475H822L826 476.5L828 479.5L829.5 481.5L832 479.5L837 297L821 176.5V122.5Z" fill="#FFD597"/>
<path d="M821 122.5H95V176.5H355V382H356.5H359.5H362L370 389L374 395L381.5 401.5L389.5 402.5L391.5 398.5H398.5L403.5 402.5L404.5 401.5H406L407 400.5V395L409 393.5L414 398.5H416.5H418.5V400.5L419.5 401.5L423 406L424 410L425 418.5L428 419.5L433.5 420.5H439L443 419.5L449.5 423L453 424.5H454.5H457.5L462.5 427.5H464H468.5L472 424.5L476 425.5L479.5 427.5L485 434.5H487.5L493.5 432L494 427.5L496 425.5L502.5 427.5L511.5 429L513.5 429.5L515.5 427.5L518 425.5L519.5 427.5V429.5L518 433.5L521 436.5L519.5 438.5L521 441L525 443L528.5 441H531.5L532.5 444L531.5 449L529.5 452.5L534.5 455L538 457H541.5L543.5 455L546.5 451L550.5 449L553.5 444L557 443L560.5 444L563.5 446L564 451H566.5L572 450L575 452.5L574 458.5L576.5 460H580.5L584.5 458.5L586.5 453.5L592 455L593 451L595.5 450L597.5 451L600 453.5V458L597.5 462V465.5C598.167 466.667 599.8 469.2 601 470C602.2 470.8 602.833 471 603 471L606.5 469L607.5 465.5V462L610 460L607.5 458L609 456L611.5 458.5L613 457L615.5 454V451V447L617 448L619 447L621 446L622.5 447L625 456L627 457L629 455L633.5 456L635.5 460L639 458.5L640.5 457L642.5 453.5L644 451L647 452.5H650V454L647 457L650.5 460H655L658.5 465.5H665L670.5 473H673.5V471L675.5 467.5L677.5 466.5L682 467.5L687 465.5V461L688.5 460V458.5H692L694 458L697.5 458.5L698.5 457L700.5 458V456H702L703.5 457L706 456L706.5 454H709L712 456L716 458L717 456L721.5 457L723 452.5L726.5 453.5L730.5 451H733L736 448H738.5L740 450V454L743 452.5L743.5 454L746.5 453.5L749 455H752H761.5L764.5 453.5L766 451.5L766.5 448L767.5 446H771L774 448H776.5V450V451H778.5L779.5 450L781 451L782.5 453.5L785 456L788.5 457H791L793.5 462.5L797 466.5L800.5 469H805L808 470L809.5 473L812.5 474L817 475H822L826 476.5L828 479.5L829.5 481.5L832 479.5L837 297L821 176.5V122.5Z" stroke="black"/>
</g>
<path d="M520.722 89V71.5455H523.884V79.5653H524.097L530.906 71.5455H534.767L528.017 79.3778L534.827 89H531.026L525.818 81.517L523.884 83.8011V89H520.722ZM546.356 76.3438C546.276 75.5994 545.941 75.0199 545.35 74.6051C544.765 74.1903 544.004 73.983 543.066 73.983C542.407 73.983 541.842 74.0824 541.37 74.2812C540.898 74.4801 540.538 74.75 540.288 75.0909C540.038 75.4318 539.91 75.821 539.904 76.2585C539.904 76.6222 539.987 76.9375 540.151 77.2045C540.322 77.4716 540.552 77.6989 540.842 77.8864C541.131 78.0682 541.452 78.2216 541.805 78.3466C542.157 78.4716 542.512 78.5767 542.87 78.6619L544.506 79.071C545.165 79.2244 545.799 79.4318 546.407 79.6932C547.021 79.9545 547.569 80.2841 548.052 80.6818C548.54 81.0795 548.927 81.5597 549.211 82.1222C549.495 82.6847 549.637 83.3437 549.637 84.0994C549.637 85.1222 549.376 86.0227 548.853 86.8011C548.33 87.5739 547.575 88.179 546.586 88.6165C545.603 89.0483 544.413 89.2642 543.015 89.2642C541.657 89.2642 540.478 89.054 539.478 88.6335C538.484 88.2131 537.705 87.5994 537.143 86.7926C536.586 85.9858 536.285 85.0028 536.239 83.8438H539.35C539.396 84.4517 539.583 84.9574 539.913 85.3608C540.242 85.7642 540.671 86.0653 541.2 86.2642C541.734 86.4631 542.33 86.5625 542.989 86.5625C543.677 86.5625 544.279 86.4602 544.796 86.2557C545.319 86.0455 545.728 85.7557 546.023 85.3864C546.319 85.0114 546.469 84.5739 546.475 84.0739C546.469 83.6193 546.336 83.2443 546.075 82.9489C545.813 82.6477 545.447 82.3977 544.975 82.1989C544.509 81.9943 543.964 81.8125 543.339 81.6534L541.353 81.142C539.915 80.7727 538.779 80.2131 537.944 79.4631C537.114 78.7074 536.7 77.7045 536.7 76.4545C536.7 75.4261 536.978 74.5256 537.535 73.7528C538.097 72.9801 538.862 72.3807 539.827 71.9545C540.793 71.5227 541.887 71.3068 543.109 71.3068C544.347 71.3068 545.433 71.5227 546.364 71.9545C547.302 72.3807 548.038 72.9744 548.572 73.7358C549.106 74.4915 549.381 75.3608 549.398 76.3438H546.356Z" fill="#005A5E"/>
<path d="M856.722 126.545H860.591L865.773 139.193H865.977L871.159 126.545H875.028V144H871.994V132.009H871.832L867.009 143.949H864.741L859.918 131.983H859.756V144H856.722V126.545ZM894.068 135.273C894.068 137.153 893.716 138.764 893.011 140.105C892.313 141.44 891.358 142.463 890.148 143.173C888.943 143.884 887.577 144.239 886.048 144.239C884.52 144.239 883.151 143.884 881.94 143.173C880.736 142.457 879.781 141.432 879.077 140.097C878.378 138.756 878.028 137.148 878.028 135.273C878.028 133.392 878.378 131.784 879.077 130.449C879.781 129.108 880.736 128.082 881.94 127.372C883.151 126.662 884.52 126.307 886.048 126.307C887.577 126.307 888.943 126.662 890.148 127.372C891.358 128.082 892.313 129.108 893.011 130.449C893.716 131.784 894.068 133.392 894.068 135.273ZM890.889 135.273C890.889 133.949 890.682 132.832 890.267 131.923C889.858 131.009 889.29 130.318 888.562 129.852C887.835 129.381 886.997 129.145 886.048 129.145C885.099 129.145 884.261 129.381 883.534 129.852C882.807 130.318 882.236 131.009 881.821 131.923C881.412 132.832 881.207 133.949 881.207 135.273C881.207 136.597 881.412 137.716 881.821 138.631C882.236 139.54 882.807 140.23 883.534 140.702C884.261 141.168 885.099 141.401 886.048 141.401C886.997 141.401 887.835 141.168 888.562 140.702C889.29 140.23 889.858 139.54 890.267 138.631C890.682 137.716 890.889 136.597 890.889 135.273Z" fill="#005A5E"/>
<path d="M868.963 341H865.588L871.733 323.545H875.636L881.79 341H878.415L873.753 327.125H873.616L868.963 341ZM869.074 334.156H878.278V336.696H869.074V334.156ZM884.089 341V323.545H890.634C891.975 323.545 893.1 323.778 894.009 324.244C894.924 324.71 895.614 325.364 896.08 326.205C896.552 327.04 896.788 328.014 896.788 329.128C896.788 330.247 896.549 331.219 896.072 332.043C895.6 332.861 894.904 333.494 893.984 333.943C893.063 334.386 891.933 334.608 890.592 334.608H885.93V331.983H890.165C890.95 331.983 891.592 331.875 892.092 331.659C892.592 331.437 892.961 331.116 893.2 330.696C893.444 330.27 893.566 329.747 893.566 329.128C893.566 328.509 893.444 327.98 893.2 327.543C892.955 327.099 892.583 326.764 892.083 326.537C891.583 326.304 890.938 326.188 890.148 326.188H887.251V341H884.089ZM893.106 333.091L897.427 341H893.898L889.654 333.091H893.106Z" fill="#005A5E"/>
<path d="M334.955 478.196V475.545H348.881V478.196H343.486V493H340.349V478.196H334.955ZM354.207 475.545L358.051 481.938H358.188L362.048 475.545H365.653L360.276 484.273L365.739 493H362.074L358.188 486.651H358.051L354.165 493H350.517L356.031 484.273L350.585 475.545H354.207Z" fill="#005A5E"/>
<path d="M50.0653 140.545V158H47.2528L39.0284 146.111H38.8835V158H35.7216V140.545H38.5511L46.767 152.443H46.9205V140.545H50.0653ZM53.5107 140.545H57.38L62.5618 153.193H62.7663L67.9482 140.545H71.8175V158H68.7834V146.009H68.6214L63.7976 157.949H61.5305L56.7067 145.983H56.5447V158H53.5107V140.545Z" fill="#005A5E"/>
<path d="M118.662 65.4347H115.474C115.384 64.9119 115.216 64.4489 114.972 64.0455C114.727 63.6364 114.423 63.2898 114.06 63.0057C113.696 62.7216 113.281 62.5085 112.815 62.3665C112.355 62.2188 111.858 62.1449 111.324 62.1449C110.375 62.1449 109.534 62.3835 108.801 62.8608C108.068 63.3324 107.494 64.0256 107.08 64.9403C106.665 65.8494 106.457 66.9602 106.457 68.2727C106.457 69.608 106.665 70.733 107.08 71.6477C107.5 72.5568 108.074 73.2443 108.801 73.7102C109.534 74.1705 110.372 74.4006 111.315 74.4006C111.838 74.4006 112.327 74.3324 112.781 74.196C113.241 74.054 113.653 73.8466 114.017 73.5739C114.386 73.3011 114.696 72.9659 114.946 72.5682C115.202 72.1705 115.378 71.7159 115.474 71.2045L118.662 71.2216C118.543 72.0511 118.284 72.8295 117.886 73.5568C117.494 74.2841 116.98 74.9261 116.344 75.483C115.707 76.0341 114.963 76.4659 114.111 76.7784C113.259 77.0852 112.313 77.2386 111.273 77.2386C109.739 77.2386 108.369 76.8835 107.165 76.1733C105.96 75.4631 105.011 74.4375 104.318 73.0966C103.625 71.7557 103.278 70.1477 103.278 68.2727C103.278 66.392 103.628 64.7841 104.327 63.4489C105.026 62.108 105.977 61.0824 107.182 60.3722C108.386 59.6619 109.75 59.3068 111.273 59.3068C112.244 59.3068 113.148 59.4432 113.983 59.7159C114.818 59.9886 115.563 60.3892 116.216 60.9176C116.869 61.4403 117.406 62.0824 117.827 62.8438C118.253 63.5994 118.531 64.4631 118.662 65.4347ZM137.154 68.2727C137.154 70.1534 136.802 71.7642 136.097 73.1051C135.398 74.4403 134.444 75.4631 133.234 76.1733C132.029 76.8835 130.663 77.2386 129.134 77.2386C127.606 77.2386 126.237 76.8835 125.026 76.1733C123.822 75.4574 122.867 74.4318 122.163 73.0966C121.464 71.7557 121.114 70.1477 121.114 68.2727C121.114 66.392 121.464 64.7841 122.163 63.4489C122.867 62.108 123.822 61.0824 125.026 60.3722C126.237 59.6619 127.606 59.3068 129.134 59.3068C130.663 59.3068 132.029 59.6619 133.234 60.3722C134.444 61.0824 135.398 62.108 136.097 63.4489C136.802 64.7841 137.154 66.392 137.154 68.2727ZM133.975 68.2727C133.975 66.9489 133.768 65.8324 133.353 64.9233C132.944 64.0085 132.376 63.3182 131.648 62.8523C130.921 62.3807 130.083 62.1449 129.134 62.1449C128.185 62.1449 127.347 62.3807 126.62 62.8523C125.893 63.3182 125.322 64.0085 124.907 64.9233C124.498 65.8324 124.293 66.9489 124.293 68.2727C124.293 69.5966 124.498 70.7159 124.907 71.6307C125.322 72.5398 125.893 73.2301 126.62 73.7017C127.347 74.1676 128.185 74.4006 129.134 74.4006C130.083 74.4006 130.921 74.1676 131.648 73.7017C132.376 73.2301 132.944 72.5398 133.353 71.6307C133.768 70.7159 133.975 69.5966 133.975 68.2727Z" fill="#005A5E"/>
<circle cx="571.511" cy="284.511" r="9.01136" fill="#FF8F87" stroke="black"/>
<path d="M395.288 281.909C395.288 283.892 394.913 285.579 394.161 286.969C393.415 288.36 392.397 289.423 391.107 290.157C389.823 290.885 388.378 291.249 386.775 291.249C385.159 291.249 383.709 290.882 382.424 290.148C381.14 289.414 380.125 288.351 379.379 286.961C378.634 285.57 378.261 283.886 378.261 281.909C378.261 279.926 378.634 278.24 379.379 276.849C380.125 275.458 381.14 274.398 382.424 273.67C383.709 272.937 385.159 272.57 386.775 272.57C388.378 272.57 389.823 272.937 391.107 273.67C392.397 274.398 393.415 275.458 394.161 276.849C394.913 278.24 395.288 279.926 395.288 281.909ZM391.391 281.909C391.391 280.625 391.199 279.542 390.814 278.66C390.435 277.778 389.9 277.109 389.207 276.653C388.515 276.198 387.704 275.97 386.775 275.97C385.845 275.97 385.034 276.198 384.342 276.653C383.65 277.109 383.111 277.778 382.726 278.66C382.347 279.542 382.158 280.625 382.158 281.909C382.158 283.193 382.347 284.277 382.726 285.158C383.111 286.04 383.65 286.709 384.342 287.165C385.034 287.621 385.845 287.848 386.775 287.848C387.704 287.848 388.515 287.621 389.207 287.165C389.9 286.709 390.435 286.04 390.814 285.158C391.199 284.277 391.391 283.193 391.391 281.909ZM401.492 287.076L401.501 282.539H402.051L406.419 277.364H410.76L404.892 284.217H403.995L401.492 287.076ZM398.065 291V272.818H401.847V291H398.065ZM406.588 291L402.575 285.061L405.096 282.388L411.018 291H406.588ZM416.398 272.818V291H412.616V272.818H416.398ZM423.316 291.257C422.446 291.257 421.67 291.107 420.99 290.805C420.309 290.497 419.77 290.044 419.374 289.446C418.983 288.843 418.788 288.091 418.788 287.191C418.788 286.434 418.927 285.798 419.205 285.283C419.483 284.768 419.862 284.353 420.342 284.04C420.821 283.726 421.366 283.489 421.975 283.33C422.591 283.17 423.236 283.057 423.911 282.992C424.704 282.909 425.343 282.832 425.828 282.761C426.313 282.684 426.666 282.572 426.885 282.424C427.104 282.276 427.213 282.057 427.213 281.767V281.714C427.213 281.152 427.036 280.717 426.68 280.409C426.331 280.101 425.834 279.947 425.189 279.947C424.508 279.947 423.967 280.098 423.564 280.4C423.162 280.696 422.895 281.069 422.765 281.518L419.267 281.234C419.445 280.406 419.794 279.69 420.315 279.086C420.836 278.476 421.508 278.009 422.33 277.683C423.159 277.352 424.118 277.186 425.207 277.186C425.964 277.186 426.689 277.275 427.382 277.452C428.08 277.63 428.699 277.905 429.237 278.278C429.782 278.651 430.211 279.13 430.525 279.716C430.838 280.296 430.995 280.992 430.995 281.803V291H427.408V289.109H427.302C427.083 289.535 426.79 289.911 426.423 290.237C426.056 290.556 425.615 290.808 425.1 290.991C424.585 291.169 423.99 291.257 423.316 291.257ZM424.399 288.647C424.955 288.647 425.446 288.538 425.873 288.319C426.299 288.094 426.633 287.792 426.876 287.413C427.118 287.035 427.24 286.605 427.24 286.126V284.679C427.121 284.756 426.959 284.827 426.751 284.892C426.55 284.951 426.322 285.007 426.068 285.061C425.813 285.108 425.559 285.152 425.304 285.194C425.05 285.229 424.819 285.262 424.612 285.292C424.168 285.357 423.78 285.46 423.449 285.602C423.117 285.744 422.86 285.937 422.676 286.179C422.493 286.416 422.401 286.712 422.401 287.067C422.401 287.582 422.588 287.976 422.961 288.248C423.339 288.514 423.819 288.647 424.399 288.647ZM437.711 283.116V291H433.929V272.818H437.605V279.77H437.764C438.072 278.965 438.569 278.334 439.256 277.879C439.942 277.417 440.804 277.186 441.839 277.186C442.786 277.186 443.612 277.393 444.316 277.808C445.026 278.216 445.577 278.805 445.968 279.574C446.364 280.338 446.559 281.252 446.553 282.317V291H442.771V282.992C442.777 282.152 442.564 281.498 442.132 281.03C441.706 280.563 441.108 280.329 440.339 280.329C439.824 280.329 439.368 280.438 438.972 280.657C438.581 280.876 438.273 281.196 438.048 281.616C437.829 282.03 437.717 282.531 437.711 283.116ZM455.691 291.266C454.312 291.266 453.119 290.973 452.113 290.387C451.113 289.796 450.341 288.973 449.796 287.919C449.252 286.86 448.979 285.632 448.979 284.235C448.979 282.826 449.252 281.595 449.796 280.542C450.341 279.482 451.113 278.66 452.113 278.074C453.119 277.482 454.312 277.186 455.691 277.186C457.07 277.186 458.26 277.482 459.26 278.074C460.266 278.66 461.041 279.482 461.586 280.542C462.13 281.595 462.403 282.826 462.403 284.235C462.403 285.632 462.13 286.86 461.586 287.919C461.041 288.973 460.266 289.796 459.26 290.387C458.26 290.973 457.07 291.266 455.691 291.266ZM455.709 288.337C456.336 288.337 456.86 288.159 457.28 287.804C457.7 287.443 458.017 286.952 458.23 286.33C458.449 285.709 458.559 285.002 458.559 284.208C458.559 283.415 458.449 282.708 458.23 282.087C458.017 281.465 457.7 280.974 457.28 280.613C456.86 280.252 456.336 280.071 455.709 280.071C455.075 280.071 454.543 280.252 454.111 280.613C453.685 280.974 453.362 281.465 453.143 282.087C452.93 282.708 452.823 283.415 452.823 284.208C452.823 285.002 452.93 285.709 453.143 286.33C453.362 286.952 453.685 287.443 454.111 287.804C454.543 288.159 455.075 288.337 455.709 288.337ZM464.862 291V277.364H468.466V279.77H468.626C468.91 278.971 469.384 278.34 470.046 277.879C470.709 277.417 471.502 277.186 472.426 277.186C473.361 277.186 474.157 277.42 474.814 277.887C475.471 278.349 475.909 278.976 476.128 279.77H476.27C476.548 278.988 477.051 278.364 477.779 277.896C478.513 277.423 479.38 277.186 480.38 277.186C481.653 277.186 482.686 277.592 483.479 278.402C484.278 279.207 484.677 280.35 484.677 281.829V291H480.904V282.575C480.904 281.817 480.703 281.249 480.3 280.87C479.898 280.492 479.395 280.302 478.791 280.302C478.105 280.302 477.569 280.521 477.184 280.959C476.8 281.391 476.607 281.962 476.607 282.673V291H472.941V282.495C472.941 281.826 472.748 281.294 472.364 280.897C471.985 280.5 471.485 280.302 470.863 280.302C470.443 280.302 470.064 280.409 469.727 280.622C469.395 280.829 469.132 281.122 468.937 281.501C468.741 281.874 468.644 282.312 468.644 282.815V291H464.862ZM491.553 291.257C490.683 291.257 489.908 291.107 489.227 290.805C488.546 290.497 488.008 290.044 487.611 289.446C487.221 288.843 487.025 288.091 487.025 287.191C487.025 286.434 487.164 285.798 487.443 285.283C487.721 284.768 488.1 284.353 488.579 284.04C489.058 283.726 489.603 283.489 490.212 283.33C490.828 283.17 491.473 283.057 492.148 282.992C492.941 282.909 493.58 282.832 494.065 282.761C494.551 282.684 494.903 282.572 495.122 282.424C495.341 282.276 495.45 282.057 495.45 281.767V281.714C495.45 281.152 495.273 280.717 494.918 280.409C494.569 280.101 494.071 279.947 493.426 279.947C492.746 279.947 492.204 280.098 491.802 280.4C491.399 280.696 491.133 281.069 491.003 281.518L487.505 281.234C487.682 280.406 488.031 279.69 488.552 279.086C489.073 278.476 489.745 278.009 490.568 277.683C491.396 277.352 492.355 277.186 493.444 277.186C494.202 277.186 494.927 277.275 495.619 277.452C496.317 277.63 496.936 277.905 497.475 278.278C498.019 278.651 498.448 279.13 498.762 279.716C499.075 280.296 499.232 280.992 499.232 281.803V291H495.646V289.109H495.539C495.32 289.535 495.027 289.911 494.66 290.237C494.293 290.556 493.852 290.808 493.337 290.991C492.823 291.169 492.228 291.257 491.553 291.257ZM492.636 288.647C493.192 288.647 493.684 288.538 494.11 288.319C494.536 288.094 494.87 287.792 495.113 287.413C495.356 287.035 495.477 286.605 495.477 286.126V284.679C495.359 284.756 495.196 284.827 494.989 284.892C494.787 284.951 494.56 285.007 494.305 285.061C494.051 285.108 493.796 285.152 493.542 285.194C493.287 285.229 493.056 285.262 492.849 285.292C492.405 285.357 492.018 285.46 491.686 285.602C491.355 285.744 491.097 285.937 490.914 286.179C490.73 286.416 490.639 286.712 490.639 287.067C490.639 287.582 490.825 287.976 491.198 288.248C491.577 288.514 492.056 288.647 492.636 288.647ZM524.066 279.184H520.177C520.106 278.681 519.961 278.234 519.742 277.843C519.523 277.446 519.242 277.109 518.899 276.831C518.556 276.553 518.159 276.34 517.709 276.192C517.265 276.044 516.783 275.97 516.262 275.97C515.321 275.97 514.501 276.204 513.803 276.671C513.105 277.133 512.563 277.808 512.178 278.695C511.794 279.577 511.601 280.648 511.601 281.909C511.601 283.205 511.794 284.294 512.178 285.176C512.569 286.058 513.114 286.724 513.812 287.174C514.51 287.623 515.318 287.848 516.236 287.848C516.751 287.848 517.227 287.78 517.665 287.644C518.109 287.508 518.502 287.31 518.846 287.049C519.189 286.783 519.473 286.46 519.698 286.082C519.929 285.703 520.089 285.271 520.177 284.786L524.066 284.803C523.965 285.638 523.714 286.443 523.311 287.218C522.915 287.987 522.379 288.677 521.704 289.287C521.036 289.89 520.237 290.37 519.307 290.725C518.384 291.074 517.339 291.249 516.173 291.249C514.552 291.249 513.102 290.882 511.823 290.148C510.551 289.414 509.545 288.351 508.805 286.961C508.071 285.57 507.704 283.886 507.704 281.909C507.704 279.926 508.077 278.24 508.823 276.849C509.568 275.458 510.58 274.398 511.859 273.67C513.137 272.937 514.575 272.57 516.173 272.57C517.227 272.57 518.204 272.718 519.103 273.013C520.009 273.309 520.811 273.741 521.509 274.31C522.207 274.872 522.776 275.561 523.214 276.378C523.657 277.195 523.942 278.13 524.066 279.184ZM526.751 291V277.364H530.533V291H526.751ZM528.651 275.606C528.089 275.606 527.607 275.419 527.204 275.047C526.808 274.668 526.609 274.215 526.609 273.688C526.609 273.167 526.808 272.721 527.204 272.348C527.607 271.969 528.089 271.779 528.651 271.779C529.214 271.779 529.693 271.969 530.089 272.348C530.492 272.721 530.693 273.167 530.693 273.688C530.693 274.215 530.492 274.668 530.089 275.047C529.693 275.419 529.214 275.606 528.651 275.606ZM540.816 277.364V280.205H532.604V277.364H540.816ZM534.468 274.097H538.25V286.81C538.25 287.159 538.304 287.431 538.41 287.626C538.517 287.816 538.665 287.949 538.854 288.026C539.049 288.103 539.274 288.141 539.529 288.141C539.706 288.141 539.884 288.127 540.062 288.097C540.239 288.061 540.375 288.035 540.47 288.017L541.065 290.831C540.875 290.891 540.609 290.959 540.266 291.036C539.922 291.118 539.505 291.169 539.014 291.186C538.102 291.222 537.303 291.101 536.617 290.822C535.936 290.544 535.407 290.112 535.028 289.526C534.649 288.94 534.463 288.201 534.468 287.307V274.097ZM545.615 296.114C545.135 296.114 544.685 296.075 544.265 295.998C543.851 295.927 543.508 295.835 543.235 295.723L544.088 292.9C544.532 293.036 544.931 293.11 545.286 293.122C545.647 293.134 545.958 293.051 546.218 292.873C546.485 292.696 546.701 292.394 546.866 291.968L547.088 291.391L542.197 277.364H546.174L548.997 287.378H549.139L551.989 277.364H555.993L550.693 292.474C550.438 293.208 550.092 293.847 549.654 294.391C549.222 294.942 548.675 295.365 548.012 295.661C547.349 295.963 546.55 296.114 545.615 296.114Z" fill="black"/>
<path d="M668.207 230.771V228.818H681.844V230.771H676.126V247H673.925V230.771H668.207ZM691.696 241.425V233.364H693.791V247H691.696V244.692H691.554C691.234 245.384 690.737 245.973 690.062 246.458C689.388 246.938 688.535 247.178 687.506 247.178C686.653 247.178 685.896 246.991 685.233 246.618C684.57 246.239 684.049 245.671 683.67 244.914C683.292 244.15 683.102 243.188 683.102 242.028V233.364H685.197V241.886C685.197 242.881 685.476 243.674 686.032 244.266C686.594 244.857 687.31 245.153 688.18 245.153C688.701 245.153 689.231 245.02 689.769 244.754C690.314 244.488 690.77 244.079 691.137 243.529C691.509 242.978 691.696 242.277 691.696 241.425ZM699.724 228.818V247H697.629V228.818H699.724ZM713.22 236.418L711.338 236.95C711.22 236.637 711.045 236.332 710.814 236.036C710.589 235.734 710.282 235.485 709.891 235.29C709.5 235.095 709 234.997 708.391 234.997C707.556 234.997 706.861 235.19 706.304 235.574C705.754 235.953 705.479 236.435 705.479 237.021C705.479 237.542 705.668 237.953 706.047 238.255C706.426 238.557 707.018 238.809 707.823 239.01L709.847 239.507C711.066 239.803 711.974 240.256 712.572 240.865C713.17 241.469 713.469 242.247 713.469 243.2C713.469 243.982 713.244 244.68 712.794 245.295C712.35 245.911 711.729 246.396 710.93 246.751C710.131 247.107 709.202 247.284 708.142 247.284C706.751 247.284 705.6 246.982 704.689 246.379C703.777 245.775 703.2 244.893 702.957 243.733L704.946 243.236C705.136 243.97 705.494 244.52 706.02 244.887C706.553 245.254 707.248 245.438 708.107 245.438C709.083 245.438 709.859 245.23 710.433 244.816C711.013 244.396 711.303 243.893 711.303 243.307C711.303 242.833 711.137 242.437 710.805 242.117C710.474 241.792 709.965 241.549 709.278 241.389L707.006 240.857C705.757 240.561 704.84 240.102 704.254 239.48C703.674 238.853 703.384 238.069 703.384 237.128C703.384 236.358 703.6 235.678 704.032 235.086C704.47 234.494 705.064 234.029 705.816 233.692C706.574 233.355 707.432 233.186 708.391 233.186C709.74 233.186 710.8 233.482 711.569 234.074C712.344 234.666 712.895 235.447 713.22 236.418ZM720.635 247.32C719.771 247.32 718.987 247.157 718.283 246.831C717.579 246.5 717.019 246.023 716.605 245.402C716.191 244.775 715.983 244.017 715.983 243.129C715.983 242.348 716.137 241.715 716.445 241.229C716.753 240.738 717.164 240.353 717.679 240.075C718.194 239.797 718.762 239.59 719.384 239.454C720.011 239.312 720.641 239.199 721.275 239.116C722.103 239.01 722.775 238.93 723.29 238.877C723.811 238.818 724.19 238.72 724.426 238.584C724.669 238.448 724.79 238.211 724.79 237.874V237.803C724.79 236.927 724.551 236.246 724.071 235.761C723.598 235.275 722.879 235.033 721.914 235.033C720.914 235.033 720.129 235.252 719.561 235.69C718.993 236.128 718.594 236.595 718.363 237.092L716.374 236.382C716.729 235.554 717.203 234.908 717.795 234.447C718.392 233.979 719.043 233.654 719.748 233.47C720.458 233.281 721.156 233.186 721.843 233.186C722.281 233.186 722.784 233.239 723.352 233.346C723.926 233.446 724.48 233.657 725.012 233.976C725.551 234.296 725.998 234.778 726.353 235.423C726.708 236.068 726.885 236.933 726.885 238.016V247H724.79V245.153H724.684C724.542 245.449 724.305 245.766 723.974 246.103C723.642 246.441 723.201 246.728 722.651 246.964C722.1 247.201 721.429 247.32 720.635 247.32ZM720.955 245.438C721.784 245.438 722.482 245.275 723.05 244.949C723.624 244.624 724.056 244.203 724.346 243.689C724.642 243.174 724.79 242.632 724.79 242.064V240.146C724.702 240.253 724.506 240.35 724.204 240.439C723.908 240.522 723.565 240.596 723.175 240.661C722.79 240.72 722.414 240.774 722.047 240.821C721.686 240.862 721.393 240.898 721.168 240.928C720.624 240.999 720.115 241.114 719.641 241.274C719.174 241.428 718.795 241.661 718.505 241.975C718.221 242.283 718.079 242.703 718.079 243.236C718.079 243.964 718.348 244.514 718.887 244.887C719.431 245.254 720.121 245.438 720.955 245.438Z" fill="black"/>
<path d="M542.619 328.818V347H540.489L530.581 332.724H530.403V347H528.202V328.818H530.332L540.276 343.129H540.453V328.818H542.619ZM552.281 347.284C551.05 347.284 549.969 346.991 549.04 346.405C548.117 345.819 547.395 345 546.874 343.946C546.359 342.893 546.102 341.661 546.102 340.253C546.102 338.832 546.359 337.592 546.874 336.533C547.395 335.474 548.117 334.651 549.04 334.065C549.969 333.479 551.05 333.186 552.281 333.186C553.512 333.186 554.589 333.479 555.512 334.065C556.441 334.651 557.163 335.474 557.678 336.533C558.199 337.592 558.46 338.832 558.46 340.253C558.46 341.661 558.199 342.893 557.678 343.946C557.163 345 556.441 345.819 555.512 346.405C554.589 346.991 553.512 347.284 552.281 347.284ZM552.281 345.402C553.216 345.402 553.985 345.162 554.589 344.683C555.193 344.203 555.639 343.573 555.929 342.792C556.219 342.011 556.364 341.164 556.364 340.253C556.364 339.341 556.219 338.492 555.929 337.705C555.639 336.918 555.193 336.281 554.589 335.796C553.985 335.311 553.216 335.068 552.281 335.068C551.345 335.068 550.576 335.311 549.972 335.796C549.369 336.281 548.922 336.918 548.632 337.705C548.342 338.492 548.197 339.341 548.197 340.253C548.197 341.164 548.342 342.011 548.632 342.792C548.922 343.573 549.369 344.203 549.972 344.683C550.576 345.162 551.345 345.402 552.281 345.402ZM561.658 347V333.364H563.682V335.423H563.824C564.073 334.749 564.522 334.201 565.173 333.781C565.825 333.361 566.558 333.151 567.375 333.151C567.529 333.151 567.721 333.154 567.952 333.159C568.183 333.165 568.358 333.174 568.476 333.186V335.317C568.405 335.299 568.242 335.272 567.988 335.237C567.739 335.195 567.476 335.175 567.198 335.175C566.535 335.175 565.943 335.314 565.422 335.592C564.907 335.864 564.499 336.243 564.197 336.728C563.901 337.208 563.753 337.755 563.753 338.371V347H561.658ZM570.96 347V333.364H572.984V335.494H573.161C573.445 334.766 573.904 334.201 574.537 333.799C575.171 333.39 575.931 333.186 576.819 333.186C577.719 333.186 578.467 333.39 579.065 333.799C579.669 334.201 580.139 334.766 580.477 335.494H580.619C580.968 334.79 581.492 334.231 582.19 333.816C582.888 333.396 583.726 333.186 584.703 333.186C585.922 333.186 586.919 333.568 587.694 334.331C588.47 335.089 588.857 336.27 588.857 337.874V347H586.762V337.874C586.762 336.867 586.487 336.148 585.937 335.716C585.386 335.284 584.738 335.068 583.992 335.068C583.033 335.068 582.291 335.358 581.764 335.938C581.237 336.512 580.974 337.24 580.974 338.122V347H578.843V337.661C578.843 336.885 578.592 336.261 578.089 335.787C577.585 335.308 576.937 335.068 576.144 335.068C575.6 335.068 575.091 335.213 574.617 335.503C574.15 335.793 573.771 336.196 573.481 336.711C573.197 337.22 573.055 337.808 573.055 338.477V347H570.96ZM596.701 347.32C595.837 347.32 595.053 347.157 594.348 346.831C593.644 346.5 593.085 346.023 592.67 345.402C592.256 344.775 592.049 344.017 592.049 343.129C592.049 342.348 592.203 341.715 592.511 341.229C592.818 340.738 593.23 340.353 593.745 340.075C594.259 339.797 594.828 339.59 595.449 339.454C596.076 339.312 596.707 339.199 597.34 339.116C598.169 339.01 598.84 338.93 599.355 338.877C599.876 338.818 600.255 338.72 600.492 338.584C600.734 338.448 600.856 338.211 600.856 337.874V337.803C600.856 336.927 600.616 336.246 600.137 335.761C599.663 335.275 598.944 335.033 597.979 335.033C596.979 335.033 596.195 335.252 595.627 335.69C595.059 336.128 594.659 336.595 594.428 337.092L592.44 336.382C592.795 335.554 593.268 334.908 593.86 334.447C594.458 333.979 595.109 333.654 595.813 333.47C596.523 333.281 597.222 333.186 597.908 333.186C598.346 333.186 598.849 333.239 599.418 333.346C599.992 333.446 600.545 333.657 601.078 333.976C601.616 334.296 602.063 334.778 602.418 335.423C602.773 336.068 602.951 336.933 602.951 338.016V347H600.856V345.153H600.749C600.607 345.449 600.37 345.766 600.039 346.103C599.708 346.441 599.267 346.728 598.716 346.964C598.166 347.201 597.494 347.32 596.701 347.32ZM597.021 345.438C597.849 345.438 598.547 345.275 599.116 344.949C599.69 344.624 600.122 344.203 600.412 343.689C600.708 343.174 600.856 342.632 600.856 342.064V340.146C600.767 340.253 600.572 340.35 600.27 340.439C599.974 340.522 599.631 340.596 599.24 340.661C598.855 340.72 598.479 340.774 598.112 340.821C597.751 340.862 597.458 340.898 597.234 340.928C596.689 340.999 596.18 341.114 595.707 341.274C595.239 341.428 594.86 341.661 594.57 341.975C594.286 342.283 594.144 342.703 594.144 343.236C594.144 343.964 594.413 344.514 594.952 344.887C595.496 345.254 596.186 345.438 597.021 345.438ZM608.87 338.797V347H606.775V333.364H608.799V335.494H608.977C609.296 334.802 609.782 334.246 610.433 333.825C611.084 333.399 611.924 333.186 612.954 333.186C613.877 333.186 614.685 333.375 615.378 333.754C616.07 334.127 616.609 334.695 616.993 335.459C617.378 336.216 617.57 337.175 617.57 338.335V347H615.475V338.477C615.475 337.406 615.197 336.571 614.641 335.974C614.084 335.37 613.321 335.068 612.35 335.068C611.682 335.068 611.084 335.213 610.557 335.503C610.036 335.793 609.625 336.216 609.323 336.773C609.021 337.329 608.87 338.004 608.87 338.797Z" fill="black"/>
<path d="M457.202 410V391.818H459.403V408.047H467.855V410H457.202ZM474.993 410.32C474.129 410.32 473.345 410.157 472.64 409.831C471.936 409.5 471.377 409.023 470.962 408.402C470.548 407.775 470.341 407.017 470.341 406.129C470.341 405.348 470.495 404.715 470.803 404.229C471.11 403.738 471.522 403.353 472.037 403.075C472.551 402.797 473.12 402.59 473.741 402.454C474.368 402.312 474.999 402.199 475.632 402.116C476.461 402.01 477.132 401.93 477.647 401.877C478.168 401.818 478.547 401.72 478.784 401.584C479.026 401.448 479.148 401.211 479.148 400.874V400.803C479.148 399.927 478.908 399.246 478.429 398.761C477.955 398.275 477.236 398.033 476.271 398.033C475.271 398.033 474.487 398.252 473.919 398.69C473.35 399.128 472.951 399.595 472.72 400.092L470.732 399.382C471.087 398.554 471.56 397.908 472.152 397.447C472.75 396.979 473.401 396.654 474.105 396.47C474.815 396.281 475.514 396.186 476.2 396.186C476.638 396.186 477.141 396.239 477.71 396.346C478.284 396.446 478.837 396.657 479.37 396.976C479.908 397.296 480.355 397.778 480.71 398.423C481.065 399.068 481.243 399.933 481.243 401.016V410H479.148V408.153H479.041C478.899 408.449 478.662 408.766 478.331 409.103C478 409.441 477.559 409.728 477.008 409.964C476.458 410.201 475.786 410.32 474.993 410.32ZM475.312 408.438C476.141 408.438 476.839 408.275 477.408 407.949C477.982 407.624 478.414 407.203 478.704 406.689C479 406.174 479.148 405.632 479.148 405.064V403.146C479.059 403.253 478.864 403.35 478.562 403.439C478.266 403.522 477.923 403.596 477.532 403.661C477.147 403.72 476.771 403.774 476.404 403.821C476.043 403.862 475.75 403.898 475.526 403.928C474.981 403.999 474.472 404.114 473.999 404.274C473.531 404.428 473.152 404.661 472.862 404.975C472.578 405.283 472.436 405.703 472.436 406.236C472.436 406.964 472.705 407.514 473.244 407.887C473.788 408.254 474.478 408.438 475.312 408.438ZM488.157 410L484.002 396.364H486.203L489.151 406.804H489.293L492.205 396.364H494.442L497.318 406.768H497.46L500.408 396.364H502.61L498.455 410H496.395L493.412 399.524H493.199L490.216 410H488.157ZM511.31 396.364V398.139H504.243V396.364H511.31ZM506.303 393.097H508.398V406.094C508.398 406.686 508.484 407.129 508.655 407.425C508.833 407.715 509.058 407.911 509.33 408.011C509.608 408.106 509.901 408.153 510.209 408.153C510.44 408.153 510.629 408.142 510.777 408.118C510.925 408.088 511.044 408.065 511.132 408.047L511.559 409.929C511.416 409.982 511.218 410.036 510.964 410.089C510.709 410.148 510.387 410.178 509.996 410.178C509.404 410.178 508.824 410.05 508.256 409.796C507.694 409.541 507.226 409.154 506.853 408.633C506.486 408.112 506.303 407.455 506.303 406.662V393.097ZM519.855 410.284C518.624 410.284 517.544 409.991 516.614 409.405C515.691 408.819 514.969 408 514.448 406.946C513.933 405.893 513.676 404.661 513.676 403.253C513.676 401.832 513.933 400.592 514.448 399.533C514.969 398.474 515.691 397.651 516.614 397.065C517.544 396.479 518.624 396.186 519.855 396.186C521.086 396.186 522.163 396.479 523.086 397.065C524.016 397.651 524.738 398.474 525.253 399.533C525.773 400.592 526.034 401.832 526.034 403.253C526.034 404.661 525.773 405.893 525.253 406.946C524.738 408 524.016 408.819 523.086 409.405C522.163 409.991 521.086 410.284 519.855 410.284ZM519.855 408.402C520.79 408.402 521.559 408.162 522.163 407.683C522.767 407.203 523.214 406.573 523.504 405.792C523.794 405.011 523.939 404.164 523.939 403.253C523.939 402.341 523.794 401.492 523.504 400.705C523.214 399.918 522.767 399.281 522.163 398.796C521.559 398.311 520.79 398.068 519.855 398.068C518.92 398.068 518.15 398.311 517.547 398.796C516.943 399.281 516.496 399.918 516.206 400.705C515.916 401.492 515.771 402.341 515.771 403.253C515.771 404.164 515.916 405.011 516.206 405.792C516.496 406.573 516.943 407.203 517.547 407.683C518.15 408.162 518.92 408.402 519.855 408.402ZM531.327 401.797V410H529.232V396.364H531.256V398.494H531.434C531.753 397.802 532.239 397.246 532.89 396.825C533.541 396.399 534.381 396.186 535.411 396.186C536.334 396.186 537.142 396.375 537.835 396.754C538.527 397.127 539.066 397.695 539.45 398.459C539.835 399.216 540.028 400.175 540.028 401.335V410H537.932V401.477C537.932 400.406 537.654 399.571 537.098 398.974C536.541 398.37 535.778 398.068 534.807 398.068C534.139 398.068 533.541 398.213 533.014 398.503C532.493 398.793 532.082 399.216 531.78 399.773C531.478 400.329 531.327 401.004 531.327 401.797Z" fill="black"/>
<path d="M648.145 296.364C648.038 295.464 647.606 294.766 646.849 294.268C646.091 293.771 645.162 293.523 644.061 293.523C643.256 293.523 642.552 293.653 641.948 293.913C641.35 294.174 640.883 294.532 640.545 294.988C640.214 295.443 640.048 295.961 640.048 296.541C640.048 297.027 640.164 297.444 640.395 297.793C640.631 298.136 640.933 298.423 641.3 298.654C641.667 298.879 642.052 299.065 642.454 299.213C642.857 299.355 643.227 299.471 643.564 299.56L645.411 300.057C645.884 300.181 646.411 300.353 646.991 300.572C647.577 300.791 648.136 301.09 648.669 301.468C649.207 301.841 649.651 302.321 650 302.907C650.35 303.493 650.524 304.212 650.524 305.064C650.524 306.046 650.267 306.934 649.752 307.727C649.243 308.52 648.497 309.151 647.515 309.618C646.538 310.086 645.351 310.32 643.955 310.32C642.652 310.32 641.525 310.109 640.572 309.689C639.625 309.269 638.879 308.683 638.335 307.931C637.796 307.18 637.491 306.307 637.42 305.312H639.693C639.752 305.999 639.983 306.567 640.386 307.017C640.794 307.461 641.309 307.792 641.93 308.011C642.558 308.224 643.232 308.331 643.955 308.331C644.795 308.331 645.55 308.195 646.218 307.923C646.887 307.644 647.417 307.26 647.808 306.768C648.198 306.271 648.393 305.691 648.393 305.028C648.393 304.425 648.225 303.933 647.887 303.555C647.55 303.176 647.106 302.868 646.556 302.631C646.005 302.395 645.411 302.187 644.771 302.01L642.534 301.371C641.114 300.962 639.989 300.379 639.161 299.622C638.332 298.864 637.918 297.873 637.918 296.648C637.918 295.63 638.193 294.742 638.743 293.984C639.3 293.221 640.045 292.629 640.98 292.209C641.922 291.783 642.972 291.57 644.132 291.57C645.304 291.57 646.346 291.78 647.257 292.2C648.169 292.614 648.891 293.182 649.423 293.904C649.962 294.627 650.246 295.446 650.276 296.364H648.145ZM655.955 301.797V310H653.86V291.818H655.955V298.494H656.133C656.452 297.79 656.932 297.231 657.571 296.816C658.216 296.396 659.074 296.186 660.146 296.186C661.075 296.186 661.889 296.373 662.587 296.745C663.285 297.112 663.827 297.678 664.212 298.441C664.602 299.199 664.797 300.163 664.797 301.335V310H662.702V301.477C662.702 300.394 662.421 299.557 661.859 298.965C661.303 298.367 660.53 298.068 659.542 298.068C658.855 298.068 658.24 298.213 657.695 298.503C657.157 298.793 656.73 299.216 656.417 299.773C656.109 300.329 655.955 301.004 655.955 301.797ZM672.643 310.32C671.779 310.32 670.995 310.157 670.291 309.831C669.586 309.5 669.027 309.023 668.613 308.402C668.198 307.775 667.991 307.017 667.991 306.129C667.991 305.348 668.145 304.715 668.453 304.229C668.761 303.738 669.172 303.353 669.687 303.075C670.202 302.797 670.77 302.59 671.392 302.454C672.019 302.312 672.649 302.199 673.282 302.116C674.111 302.01 674.783 301.93 675.298 301.877C675.819 301.818 676.197 301.72 676.434 301.584C676.677 301.448 676.798 301.211 676.798 300.874V300.803C676.798 299.927 676.558 299.246 676.079 298.761C675.606 298.275 674.886 298.033 673.922 298.033C672.921 298.033 672.137 298.252 671.569 298.69C671.001 299.128 670.601 299.595 670.371 300.092L668.382 299.382C668.737 298.554 669.211 297.908 669.802 297.447C670.4 296.979 671.051 296.654 671.756 296.47C672.466 296.281 673.164 296.186 673.851 296.186C674.289 296.186 674.792 296.239 675.36 296.346C675.934 296.446 676.487 296.657 677.02 296.976C677.559 297.296 678.006 297.778 678.361 298.423C678.716 299.068 678.893 299.933 678.893 301.016V310H676.798V308.153H676.692C676.55 308.449 676.313 308.766 675.981 309.103C675.65 309.441 675.209 309.728 674.659 309.964C674.108 310.201 673.436 310.32 672.643 310.32ZM672.963 308.438C673.791 308.438 674.49 308.275 675.058 307.949C675.632 307.624 676.064 307.203 676.354 306.689C676.65 306.174 676.798 305.632 676.798 305.064V303.146C676.709 303.253 676.514 303.35 676.212 303.439C675.916 303.522 675.573 303.596 675.182 303.661C674.798 303.72 674.422 303.774 674.055 303.821C673.694 303.862 673.401 303.898 673.176 303.928C672.631 303.999 672.122 304.114 671.649 304.274C671.181 304.428 670.803 304.661 670.513 304.975C670.229 305.283 670.086 305.703 670.086 306.236C670.086 306.964 670.356 307.514 670.894 307.887C671.439 308.254 672.128 308.438 672.963 308.438ZM685.807 310L681.652 296.364H683.854L686.801 306.804H686.943L689.855 296.364H692.092L694.969 306.768H695.111L698.058 296.364H700.26L696.105 310H694.046L691.063 299.524H690.85L687.867 310H685.807ZM705.125 301.797V310H703.03V296.364H705.054V298.494H705.232C705.551 297.802 706.037 297.246 706.688 296.825C707.339 296.399 708.179 296.186 709.209 296.186C710.132 296.186 710.94 296.375 711.633 296.754C712.325 297.127 712.864 297.695 713.248 298.459C713.633 299.216 713.825 300.175 713.825 301.335V310H711.73V301.477C711.73 300.406 711.452 299.571 710.896 298.974C710.339 298.37 709.576 298.068 708.605 298.068C707.936 298.068 707.339 298.213 706.812 298.503C706.291 298.793 705.88 299.216 705.578 299.773C705.276 300.329 705.125 301.004 705.125 301.797ZM723.371 310.284C722.057 310.284 720.924 309.994 719.971 309.414C719.024 308.828 718.293 308.011 717.778 306.964C717.269 305.91 717.015 304.685 717.015 303.288C717.015 301.892 717.269 300.661 717.778 299.595C718.293 298.524 719.009 297.689 719.927 297.092C720.85 296.488 721.927 296.186 723.158 296.186C723.868 296.186 724.57 296.304 725.262 296.541C725.955 296.778 726.585 297.163 727.153 297.695C727.721 298.222 728.174 298.92 728.512 299.79C728.849 300.661 729.018 301.732 729.018 303.004V303.892H718.506V302.081H726.887C726.887 301.312 726.733 300.625 726.425 300.021C726.123 299.418 725.691 298.941 725.129 298.592C724.573 298.243 723.916 298.068 723.158 298.068C722.324 298.068 721.602 298.275 720.992 298.69C720.388 299.098 719.924 299.631 719.598 300.288C719.273 300.945 719.11 301.649 719.11 302.401V303.608C719.11 304.638 719.287 305.511 719.643 306.227C720.004 306.937 720.504 307.479 721.143 307.852C721.782 308.219 722.525 308.402 723.371 308.402C723.922 308.402 724.419 308.325 724.863 308.171C725.313 308.011 725.7 307.775 726.026 307.461C726.351 307.141 726.603 306.745 726.78 306.271L728.805 306.839C728.591 307.526 728.233 308.13 727.73 308.651C727.227 309.165 726.606 309.568 725.866 309.858C725.126 310.142 724.295 310.284 723.371 310.284ZM737.922 310.284C736.608 310.284 735.475 309.994 734.522 309.414C733.575 308.828 732.844 308.011 732.329 306.964C731.82 305.91 731.566 304.685 731.566 303.288C731.566 301.892 731.82 300.661 732.329 299.595C732.844 298.524 733.56 297.689 734.477 297.092C735.401 296.488 736.478 296.186 737.709 296.186C738.419 296.186 739.121 296.304 739.813 296.541C740.506 296.778 741.136 297.163 741.704 297.695C742.272 298.222 742.725 298.92 743.062 299.79C743.4 300.661 743.568 301.732 743.568 303.004V303.892H733.057V302.081H741.438C741.438 301.312 741.284 300.625 740.976 300.021C740.674 299.418 740.242 298.941 739.68 298.592C739.124 298.243 738.467 298.068 737.709 298.068C736.874 298.068 736.152 298.275 735.543 298.69C734.939 299.098 734.474 299.631 734.149 300.288C733.823 300.945 733.661 301.649 733.661 302.401V303.608C733.661 304.638 733.838 305.511 734.193 306.227C734.554 306.937 735.055 307.479 735.694 307.852C736.333 308.219 737.076 308.402 737.922 308.402C738.472 308.402 738.97 308.325 739.414 308.171C739.863 308.011 740.251 307.775 740.577 307.461C740.902 307.141 741.154 306.745 741.331 306.271L743.355 306.839C743.142 307.526 742.784 308.13 742.281 308.651C741.778 309.165 741.157 309.568 740.417 309.858C739.677 310.142 738.845 310.284 737.922 310.284Z" fill="black"/>
<path d="M534.202 183V164.818H540.345C541.772 164.818 542.938 165.076 543.843 165.591C544.754 166.1 545.429 166.789 545.867 167.659C546.305 168.529 546.524 169.5 546.524 170.571C546.524 171.642 546.305 172.616 545.867 173.492C545.435 174.368 544.766 175.066 543.861 175.587C542.955 176.102 541.795 176.359 540.381 176.359H535.977V174.406H540.31C541.286 174.406 542.07 174.238 542.662 173.9C543.254 173.563 543.683 173.107 543.95 172.533C544.222 171.953 544.358 171.299 544.358 170.571C544.358 169.843 544.222 169.192 543.95 168.618C543.683 168.044 543.251 167.594 542.653 167.268C542.056 166.937 541.263 166.771 540.274 166.771H536.403V183H534.202ZM555.18 183.284C553.949 183.284 552.869 182.991 551.94 182.405C551.016 181.819 550.294 181 549.773 179.946C549.259 178.893 549.001 177.661 549.001 176.253C549.001 174.832 549.259 173.592 549.773 172.533C550.294 171.474 551.016 170.651 551.94 170.065C552.869 169.479 553.949 169.186 555.18 169.186C556.411 169.186 557.488 169.479 558.412 170.065C559.341 170.651 560.063 171.474 560.578 172.533C561.099 173.592 561.359 174.832 561.359 176.253C561.359 177.661 561.099 178.893 560.578 179.946C560.063 181 559.341 181.819 558.412 182.405C557.488 182.991 556.411 183.284 555.18 183.284ZM555.18 181.402C556.115 181.402 556.885 181.162 557.488 180.683C558.092 180.203 558.539 179.573 558.829 178.792C559.119 178.011 559.264 177.164 559.264 176.253C559.264 175.341 559.119 174.492 558.829 173.705C558.539 172.918 558.092 172.281 557.488 171.796C556.885 171.311 556.115 171.068 555.18 171.068C554.245 171.068 553.475 171.311 552.872 171.796C552.268 172.281 551.821 172.918 551.531 173.705C551.241 174.492 551.096 175.341 551.096 176.253C551.096 177.164 551.241 178.011 551.531 178.792C551.821 179.573 552.268 180.203 552.872 180.683C553.475 181.162 554.245 181.402 555.18 181.402ZM566.652 174.797V183H564.557V169.364H566.581V171.494H566.759C567.079 170.802 567.564 170.246 568.215 169.825C568.866 169.399 569.706 169.186 570.736 169.186C571.66 169.186 572.467 169.375 573.16 169.754C573.852 170.127 574.391 170.695 574.776 171.459C575.16 172.216 575.353 173.175 575.353 174.335V183H573.258V174.477C573.258 173.406 572.979 172.571 572.423 171.974C571.867 171.37 571.103 171.068 570.133 171.068C569.464 171.068 568.866 171.213 568.339 171.503C567.818 171.793 567.407 172.216 567.105 172.773C566.803 173.329 566.652 174.004 566.652 174.797ZM584.721 183.284C583.443 183.284 582.342 182.982 581.419 182.379C580.495 181.775 579.785 180.943 579.288 179.884C578.791 178.824 578.542 177.614 578.542 176.253C578.542 174.868 578.797 173.646 579.306 172.586C579.82 171.521 580.537 170.689 581.454 170.092C582.377 169.488 583.454 169.186 584.686 169.186C585.644 169.186 586.508 169.364 587.278 169.719C588.047 170.074 588.678 170.571 589.169 171.21C589.66 171.849 589.965 172.595 590.083 173.447H587.988C587.828 172.826 587.473 172.276 586.923 171.796C586.378 171.311 585.644 171.068 584.721 171.068C583.904 171.068 583.188 171.281 582.573 171.707C581.963 172.128 581.487 172.722 581.143 173.492C580.806 174.255 580.637 175.152 580.637 176.182C580.637 177.235 580.803 178.153 581.134 178.934C581.472 179.715 581.945 180.322 582.555 180.754C583.17 181.186 583.892 181.402 584.721 181.402C585.266 181.402 585.76 181.307 586.204 181.118C586.648 180.929 587.023 180.656 587.331 180.301C587.639 179.946 587.858 179.52 587.988 179.023H590.083C589.965 179.828 589.672 180.553 589.204 181.198C588.743 181.837 588.13 182.346 587.367 182.725C586.609 183.098 585.727 183.284 584.721 183.284ZM597.159 183.32C596.295 183.32 595.511 183.157 594.806 182.831C594.102 182.5 593.543 182.023 593.128 181.402C592.714 180.775 592.507 180.017 592.507 179.129C592.507 178.348 592.661 177.715 592.969 177.229C593.276 176.738 593.688 176.353 594.203 176.075C594.718 175.797 595.286 175.59 595.907 175.454C596.535 175.312 597.165 175.199 597.798 175.116C598.627 175.01 599.298 174.93 599.813 174.877C600.334 174.818 600.713 174.72 600.95 174.584C601.192 174.448 601.314 174.211 601.314 173.874V173.803C601.314 172.927 601.074 172.246 600.595 171.761C600.121 171.275 599.402 171.033 598.437 171.033C597.437 171.033 596.653 171.252 596.085 171.69C595.517 172.128 595.117 172.595 594.886 173.092L592.898 172.382C593.253 171.554 593.726 170.908 594.318 170.447C594.916 169.979 595.567 169.654 596.271 169.47C596.981 169.281 597.68 169.186 598.366 169.186C598.804 169.186 599.307 169.239 599.876 169.346C600.45 169.446 601.003 169.657 601.536 169.976C602.074 170.296 602.521 170.778 602.876 171.423C603.231 172.068 603.409 172.933 603.409 174.016V183H601.314V181.153H601.207C601.065 181.449 600.828 181.766 600.497 182.103C600.166 182.441 599.725 182.728 599.174 182.964C598.624 183.201 597.952 183.32 597.159 183.32ZM597.479 181.438C598.307 181.438 599.006 181.275 599.574 180.949C600.148 180.624 600.58 180.203 600.87 179.689C601.166 179.174 601.314 178.632 601.314 178.064V176.146C601.225 176.253 601.03 176.35 600.728 176.439C600.432 176.522 600.089 176.596 599.698 176.661C599.313 176.72 598.937 176.774 598.57 176.821C598.209 176.862 597.916 176.898 597.692 176.928C597.147 176.999 596.638 177.114 596.165 177.274C595.697 177.428 595.318 177.661 595.028 177.975C594.744 178.283 594.602 178.703 594.602 179.236C594.602 179.964 594.871 180.514 595.41 180.887C595.954 181.254 596.644 181.438 597.479 181.438ZM629.179 170.5H626.977C626.847 169.867 626.619 169.31 626.294 168.831C625.974 168.352 625.584 167.949 625.122 167.624C624.666 167.292 624.16 167.044 623.604 166.878C623.047 166.712 622.467 166.629 621.864 166.629C620.763 166.629 619.766 166.907 618.872 167.464C617.984 168.02 617.277 168.84 616.75 169.923C616.229 171.006 615.969 172.335 615.969 173.909C615.969 175.483 616.229 176.812 616.75 177.895C617.277 178.978 617.984 179.798 618.872 180.354C619.766 180.911 620.763 181.189 621.864 181.189C622.467 181.189 623.047 181.106 623.604 180.94C624.16 180.775 624.666 180.529 625.122 180.203C625.584 179.872 625.974 179.467 626.294 178.987C626.619 178.502 626.847 177.946 626.977 177.318H629.179C629.013 178.247 628.712 179.079 628.274 179.813C627.836 180.547 627.291 181.171 626.64 181.686C625.989 182.195 625.258 182.583 624.447 182.849C623.642 183.115 622.781 183.249 621.864 183.249C620.313 183.249 618.934 182.87 617.727 182.112C616.519 181.355 615.569 180.277 614.877 178.881C614.184 177.484 613.838 175.827 613.838 173.909C613.838 171.991 614.184 170.334 614.877 168.938C615.569 167.541 616.519 166.464 617.727 165.706C618.934 164.948 620.313 164.57 621.864 164.57C622.781 164.57 623.642 164.703 624.447 164.969C625.258 165.235 625.989 165.626 626.64 166.141C627.291 166.65 627.836 167.271 628.274 168.005C628.712 168.733 629.013 169.565 629.179 170.5ZM632.453 183V169.364H634.548V183H632.453ZM633.518 167.091C633.11 167.091 632.758 166.952 632.462 166.674C632.172 166.395 632.027 166.061 632.027 165.67C632.027 165.28 632.172 164.945 632.462 164.667C632.758 164.389 633.11 164.25 633.518 164.25C633.926 164.25 634.276 164.389 634.566 164.667C634.862 164.945 635.01 165.28 635.01 165.67C635.01 166.061 634.862 166.395 634.566 166.674C634.276 166.952 633.926 167.091 633.518 167.091ZM644.316 169.364V171.139H637.249V169.364H644.316ZM639.309 166.097H641.404V179.094C641.404 179.686 641.49 180.129 641.661 180.425C641.839 180.715 642.064 180.911 642.336 181.011C642.614 181.106 642.907 181.153 643.215 181.153C643.446 181.153 643.635 181.142 643.783 181.118C643.931 181.088 644.049 181.065 644.138 181.047L644.564 182.929C644.422 182.982 644.224 183.036 643.97 183.089C643.715 183.148 643.392 183.178 643.002 183.178C642.41 183.178 641.83 183.05 641.262 182.796C640.7 182.541 640.232 182.154 639.859 181.633C639.492 181.112 639.309 180.455 639.309 179.662V166.097ZM648.817 188.114C648.462 188.114 648.145 188.084 647.867 188.025C647.589 187.972 647.396 187.918 647.29 187.865L647.823 186.018C648.332 186.149 648.781 186.196 649.172 186.161C649.563 186.125 649.909 185.95 650.211 185.637C650.518 185.329 650.8 184.829 651.054 184.136L651.445 183.071L646.402 169.364H648.675L652.439 180.23H652.581L656.345 169.364H658.618L652.83 184.989C652.569 185.693 652.247 186.276 651.862 186.738C651.477 187.205 651.03 187.551 650.521 187.776C650.018 188.001 649.45 188.114 648.817 188.114Z" fill="black"/>
<path d="M527.202 248V229.818H538.175V231.771H529.403V237.915H537.607V239.868H529.403V246.047H538.317V248H527.202ZM547.008 248.284C545.872 248.284 544.869 247.997 543.999 247.423C543.129 246.843 542.448 246.026 541.957 244.973C541.465 243.913 541.22 242.661 541.22 241.217C541.22 239.785 541.465 238.542 541.957 237.489C542.448 236.435 543.132 235.621 544.007 235.047C544.883 234.473 545.895 234.186 547.044 234.186C547.931 234.186 548.633 234.334 549.148 234.63C549.669 234.92 550.065 235.251 550.337 235.624C550.616 235.991 550.832 236.293 550.985 236.53H551.163V229.818H553.258V248H551.234V245.905H550.985C550.832 246.153 550.613 246.467 550.328 246.846C550.044 247.219 549.639 247.553 549.112 247.849C548.585 248.139 547.884 248.284 547.008 248.284ZM547.292 246.402C548.133 246.402 548.843 246.183 549.423 245.745C550.003 245.301 550.444 244.689 550.746 243.907C551.048 243.12 551.199 242.212 551.199 241.182C551.199 240.164 551.051 239.273 550.755 238.51C550.459 237.74 550.021 237.142 549.441 236.716C548.861 236.284 548.145 236.068 547.292 236.068C546.404 236.068 545.665 236.296 545.073 236.752C544.487 237.202 544.046 237.814 543.75 238.589C543.46 239.359 543.315 240.223 543.315 241.182C543.315 242.152 543.463 243.034 543.759 243.827C544.061 244.615 544.505 245.242 545.091 245.71C545.682 246.171 546.416 246.402 547.292 246.402ZM557.386 248V234.364H559.411V236.494H559.588C559.872 235.766 560.331 235.201 560.964 234.799C561.597 234.39 562.358 234.186 563.246 234.186C564.145 234.186 564.894 234.39 565.492 234.799C566.096 235.201 566.566 235.766 566.903 236.494H567.045C567.395 235.79 567.918 235.231 568.617 234.816C569.315 234.396 570.153 234.186 571.129 234.186C572.348 234.186 573.346 234.568 574.121 235.331C574.896 236.089 575.284 237.27 575.284 238.874V248H573.189V238.874C573.189 237.867 572.914 237.148 572.363 236.716C571.813 236.284 571.165 236.068 570.419 236.068C569.46 236.068 568.717 236.358 568.191 236.938C567.664 237.512 567.401 238.24 567.401 239.122V248H565.27V238.661C565.27 237.885 565.018 237.261 564.515 236.787C564.012 236.308 563.364 236.068 562.571 236.068C562.027 236.068 561.518 236.213 561.044 236.503C560.576 236.793 560.198 237.196 559.908 237.711C559.624 238.22 559.482 238.808 559.482 239.477V248H557.386ZM584.655 248.284C583.424 248.284 582.343 247.991 581.414 247.405C580.491 246.819 579.769 246 579.248 244.946C578.733 243.893 578.476 242.661 578.476 241.253C578.476 239.832 578.733 238.592 579.248 237.533C579.769 236.474 580.491 235.651 581.414 235.065C582.343 234.479 583.424 234.186 584.655 234.186C585.886 234.186 586.963 234.479 587.886 235.065C588.815 235.651 589.537 236.474 590.052 237.533C590.573 238.592 590.834 239.832 590.834 241.253C590.834 242.661 590.573 243.893 590.052 244.946C589.537 246 588.815 246.819 587.886 247.405C586.963 247.991 585.886 248.284 584.655 248.284ZM584.655 246.402C585.59 246.402 586.359 246.162 586.963 245.683C587.567 245.203 588.013 244.573 588.303 243.792C588.593 243.011 588.738 242.164 588.738 241.253C588.738 240.341 588.593 239.492 588.303 238.705C588.013 237.918 587.567 237.281 586.963 236.796C586.359 236.311 585.59 236.068 584.655 236.068C583.72 236.068 582.95 236.311 582.346 236.796C581.743 237.281 581.296 237.918 581.006 238.705C580.716 239.492 580.571 240.341 580.571 241.253C580.571 242.164 580.716 243.011 581.006 243.792C581.296 244.573 581.743 245.203 582.346 245.683C582.95 246.162 583.72 246.402 584.655 246.402ZM596.127 239.797V248H594.032V234.364H596.056V236.494H596.234C596.553 235.802 597.039 235.246 597.69 234.825C598.341 234.399 599.181 234.186 600.211 234.186C601.134 234.186 601.942 234.375 602.634 234.754C603.327 235.127 603.866 235.695 604.25 236.459C604.635 237.216 604.827 238.175 604.827 239.335V248H602.732V239.477C602.732 238.406 602.454 237.571 601.898 236.974C601.341 236.37 600.578 236.068 599.607 236.068C598.938 236.068 598.341 236.213 597.814 236.503C597.293 236.793 596.882 237.216 596.58 237.773C596.278 238.329 596.127 239.004 596.127 239.797ZM613.805 248.284C612.669 248.284 611.665 247.997 610.795 247.423C609.925 246.843 609.245 246.026 608.754 244.973C608.262 243.913 608.017 242.661 608.017 241.217C608.017 239.785 608.262 238.542 608.754 237.489C609.245 236.435 609.928 235.621 610.804 235.047C611.68 234.473 612.692 234.186 613.841 234.186C614.728 234.186 615.43 234.334 615.945 234.63C616.465 234.92 616.862 235.251 617.134 235.624C617.412 235.991 617.628 236.293 617.782 236.53H617.96V229.818H620.055V248H618.031V245.905H617.782C617.628 246.153 617.409 246.467 617.125 246.846C616.841 247.219 616.436 247.553 615.909 247.849C615.382 248.139 614.681 248.284 613.805 248.284ZM614.089 246.402C614.93 246.402 615.64 246.183 616.22 245.745C616.8 245.301 617.241 244.689 617.543 243.907C617.844 243.12 617.995 242.212 617.995 241.182C617.995 240.164 617.847 239.273 617.551 238.51C617.256 237.74 616.818 237.142 616.238 236.716C615.658 236.284 614.941 236.068 614.089 236.068C613.201 236.068 612.462 236.296 611.87 236.752C611.284 237.202 610.843 237.814 610.547 238.589C610.257 239.359 610.112 240.223 610.112 241.182C610.112 242.152 610.26 243.034 610.556 243.827C610.858 244.615 611.301 245.242 611.887 245.71C612.479 246.171 613.213 246.402 614.089 246.402Z" fill="black"/>
<circle cx="698.511" cy="214.511" r="9.01136" fill="#FFE587" stroke="black"/>
<circle cx="573.511" cy="313.511" r="9.01136" fill="#FFE587" stroke="black"/>
<circle cx="606.511" cy="154.511" r="9.01136" fill="#FFE587" stroke="black"/>
<circle cx="493.511" cy="376.511" r="9.01136" fill="#FFE587" stroke="black"/>
<circle cx="621.511" cy="301.511" r="9.01136" fill="#FFE587" stroke="black"/>
<circle cx="571.511" cy="262.511" r="9.01136" fill="#FFE587" stroke="black"/>
<defs>
<filter id="filter0_d_184_252" x="90.5" y="122" width="751.001" height="368.213" filterUnits="userSpaceOnUse" color-interpolation-filters="sRGB">
<feFlood flood-opacity="0" result="BackgroundImageFix"/>
<feColorMatrix in="SourceAlpha" type="matrix" values="0 0 0 0 0 0 0 0 0 0 0 0 0 0 0 0 0 0 127 0" result="hardAlpha"/>
<feOffset dy="4"/>
<feGaussianBlur stdDeviation="2"/>
<feComposite in2="hardAlpha" operator="out"/>
<feColorMatrix type="matrix" values="0 0 0 0 0 0 0 0 0 0 0 0 0 0 0 0 0 0 0.25 0"/>
<feBlend mode="normal" in2="BackgroundImageFix" result="effect1_dropShadow_184_252"/>
<feBlend mode="normal" in="SourceGraphic" in2="effect1_dropShadow_184_252" result="shape"/>
</filter>
</defs>
</svg>
