<svg width="833" height="650" viewBox="0 0 833 650" fill="none" xmlns="http://www.w3.org/2000/svg">
<rect x="0.5" y="0.5" width="832" height="649" rx="35.5" fill="#8DDBFF" stroke="#717171"/>
<g filter="url(#filter0_d_226_364)">
<path d="M151 73.5L142 65V68.5L144 77L147 82.5V89.5L144 93.5L141 97.5L142 100.5L144 104.5V112.5L143 117L144 122L146 124.5L145 129L144 139V145.5L143 152.5L145 151L146 149.5V144.5C146 143.7 147.667 144.833 148.5 145.5L150 149.5L148.5 153.5L145 152.5L143 155.5L146 161L144 166L143 173.5V181.5L144 188.5L143 193L141.5 200L139.5 205V210V221.5L138 224L136 229.5L134 236L136 242L135 251.5V257.5L134 274L131.5 290.5L130.5 313.5L127 349.5L124.5 365.5L120 385L117 395.5L113 402.5L115 401.5L117 397.5L120 394H122L124.5 396.5V400.5H123.5L121 396.5L119 398L117.5 400.5L115 403.5L112 406L110 405L108 406V409.5V416L106.5 425.5L104.5 434L103.5 442L97.5 458.5L95 463V465L97.5 470V474.5L101 477L102.5 481L105.5 485.5L108 494.5L105.5 502.5L104.5 508L105.5 521.5L107 529.5L109.5 535L111 541V546L114 550.5L118.5 555L123.5 559.5H727.5V348L728.5 346.5L731.5 344.5V341.5L732.5 338.5L731.5 334.5L734 331L735.5 326.5L731.5 324V318.5H735.5C737.5 318.5 736.333 316.167 735.5 315L738 311.5V309L735.5 306.5H731.5V300.5H727.5L725 302L723.5 300.5C722.833 299.5 721.3 297.3 720.5 296.5C719.7 295.7 718.833 297.833 718.5 299H716C715.2 299 714 298 713.5 297.5L710.5 294.5L712.5 292L713.5 290L711.5 287.5C710.667 286.667 709 284.7 709 283.5C709 282 710.5 281 710.5 279V272.5L717 267V264L718.5 262C719.167 259.833 720.5 255.4 720.5 255C720.5 254.6 722.5 249.5 723.5 247C723.833 245.667 724.6 242.9 725 242.5C725.5 242 728 240.5 728.5 240.5C728.9 240.5 733.333 237.833 735.5 236.5L736.5 234.5L738 231L741.5 225.5L743.5 220L742.5 218L741.5 213L742.5 208.5L746 205.5L747 200.5L752 195.5L754.5 183.5L757 179.5V173L759.5 168.5L763.5 161L766.5 156.5V151L768 149.5L770 145.5L773 142.5L774.5 139.5L773 135L771.5 132.5L769 129L768.5 125.5L768 123L764 118.5L761.5 118H757.5V116L755.5 115V113.5L753.5 113H751.5L749.5 113.5L747.5 111.5L746.5 108L742.5 104L741 101.5L740 97.5L739 95L737 92.5L734 92L563 91L562 92L560 94L555.5 97.5L550.5 99.5H547.5H542H538L530 100.5L520.5 102.5L514.5 101H511L508.5 104.5L503 107.5L498.5 110H493.5L479 113.5L473 116.5L464 119.5L459.5 125H455L449.5 127L442 128H436L429 123.5L425 122L419 125L406.5 130.5L401 135L397.5 134H387.5L380.5 139L377.5 137.5L375.5 132.5L371.5 130.5L364.5 127L358.5 128L349.5 125H347.5L334 128H322L314 135L301.5 141L297 142H294L287.5 146.5H283L278.5 144.5L274 143.5L266.5 141L253 137.5L246 134L244 130.5L245 127V120.5L242.5 114.5L243 108.5L241 101.5V95.5L236 87L234 81.5L226.5 77L220 70.5H212L202 75L200 73.5L193 68L187.5 64L182 65L176 66.5L164 70.5L162.5 68H155V70.5L151 73.5Z" fill="#FFD597"/>
<path d="M151 73.5L142 65V68.5L144 77L147 82.5V89.5L144 93.5L141 97.5L142 100.5L144 104.5V112.5L143 117L144 122L146 124.5L145 129L144 139V145.5L143 152.5L145 151L146 149.5V144.5C146 143.7 147.667 144.833 148.5 145.5L150 149.5L148.5 153.5L145 152.5L143 155.5L146 161L144 166L143 173.5V181.5L144 188.5L143 193L141.5 200L139.5 205V210V221.5L138 224L136 229.5L134 236L136 242L135 251.5V257.5L134 274L131.5 290.5L130.5 313.5L127 349.5L124.5 365.5L120 385L117 395.5L113 402.5L115 401.5L117 397.5L120 394H122L124.5 396.5V400.5H123.5L121 396.5L119 398L117.5 400.5L115 403.5L112 406L110 405L108 406V409.5V416L106.5 425.5L104.5 434L103.5 442L97.5 458.5L95 463V465L97.5 470V474.5L101 477L102.5 481L105.5 485.5L108 494.5L105.5 502.5L104.5 508L105.5 521.5L107 529.5L109.5 535L111 541V546L114 550.5L118.5 555L123.5 559.5H727.5V348L728.5 346.5L731.5 344.5V341.5L732.5 338.5L731.5 334.5L734 331L735.5 326.5L731.5 324V318.5H735.5C737.5 318.5 736.333 316.167 735.5 315L738 311.5V309L735.5 306.5H731.5V300.5H727.5L725 302L723.5 300.5C722.833 299.5 721.3 297.3 720.5 296.5C719.7 295.7 718.833 297.833 718.5 299H716C715.2 299 714 298 713.5 297.5L710.5 294.5L712.5 292L713.5 290L711.5 287.5C710.667 286.667 709 284.7 709 283.5C709 282 710.5 281 710.5 279V272.5L717 267V264L718.5 262C719.167 259.833 720.5 255.4 720.5 255C720.5 254.6 722.5 249.5 723.5 247C723.833 245.667 724.6 242.9 725 242.5C725.5 242 728 240.5 728.5 240.5C728.9 240.5 733.333 237.833 735.5 236.5L736.5 234.5L738 231L741.5 225.5L743.5 220L742.5 218L741.5 213L742.5 208.5L746 205.5L747 200.5L752 195.5L754.5 183.5L757 179.5V173L759.5 168.5L763.5 161L766.5 156.5V151L768 149.5L770 145.5L773 142.5L774.5 139.5L773 135L771.5 132.5L769 129L768.5 125.5L768 123L764 118.5L761.5 118H757.5V116L755.5 115V113.5L753.5 113H751.5L749.5 113.5L747.5 111.5L746.5 108L742.5 104L741 101.5L740 97.5L739 95L737 92.5L734 92L563 91L562 92L560 94L555.5 97.5L550.5 99.5H547.5H542H538L530 100.5L520.5 102.5L514.5 101H511L508.5 104.5L503 107.5L498.5 110H493.5L479 113.5L473 116.5L464 119.5L459.5 125H455L449.5 127L442 128H436L429 123.5L425 122L419 125L406.5 130.5L401 135L397.5 134H387.5L380.5 139L377.5 137.5L375.5 132.5L371.5 130.5L364.5 127L358.5 128L349.5 125H347.5L334 128H322L314 135L301.5 141L297 142H294L287.5 146.5H283L278.5 144.5L274 143.5L266.5 141L253 137.5L246 134L244 130.5L245 127V120.5L242.5 114.5L243 108.5L241 101.5V95.5L236 87L234 81.5L226.5 77L220 70.5H212L202 75L200 73.5L193 68L187.5 64L182 65L176 66.5L164 70.5L162.5 68H155V70.5L151 73.5Z" stroke="black"/>
</g>
<path d="M464.395 82L459.469 64.5455H462.869L466.014 77.3722H466.176L469.534 64.5455H472.628L475.994 77.3807H476.148L479.293 64.5455H482.693L477.767 82H474.648L471.153 69.7528H471.017L467.514 82H464.395ZM485.487 82H482.112L488.256 64.5455H492.16L498.313 82H494.938L490.276 68.125H490.14L485.487 82ZM485.597 75.1562H494.802V77.696H485.597V75.1562Z" fill="#005A5E"/>
<path d="M768.884 262.545V280H765.722V262.545H768.884ZM778.222 280H772.308V262.545H778.342C780.075 262.545 781.563 262.895 782.808 263.594C784.058 264.287 785.018 265.284 785.688 266.585C786.359 267.886 786.694 269.443 786.694 271.256C786.694 273.074 786.356 274.636 785.68 275.943C785.009 277.25 784.04 278.253 782.773 278.952C781.512 279.651 779.995 280 778.222 280ZM775.469 277.264H778.069C779.285 277.264 780.299 277.043 781.112 276.599C781.924 276.151 782.535 275.483 782.944 274.597C783.353 273.705 783.558 272.591 783.558 271.256C783.558 269.92 783.353 268.812 782.944 267.932C782.535 267.045 781.93 266.384 781.129 265.946C780.333 265.503 779.344 265.281 778.163 265.281H775.469V277.264Z" fill="#005A5E"/>
<path d="M619.065 584.545V602H616.253L608.028 590.111H607.884V602H604.722V584.545H607.551L615.767 596.443H615.92V584.545H619.065ZM624.846 584.545L629.388 598.284H629.567L634.102 584.545H637.579L631.425 602H627.522L621.377 584.545H624.846Z" fill="#005A5E"/>
<path d="M288.662 591.435H285.474C285.384 590.912 285.216 590.449 284.972 590.045C284.727 589.636 284.423 589.29 284.06 589.006C283.696 588.722 283.281 588.509 282.815 588.366C282.355 588.219 281.858 588.145 281.324 588.145C280.375 588.145 279.534 588.384 278.801 588.861C278.068 589.332 277.494 590.026 277.08 590.94C276.665 591.849 276.457 592.96 276.457 594.273C276.457 595.608 276.665 596.733 277.08 597.648C277.5 598.557 278.074 599.244 278.801 599.71C279.534 600.17 280.372 600.401 281.315 600.401C281.838 600.401 282.327 600.332 282.781 600.196C283.241 600.054 283.653 599.847 284.017 599.574C284.386 599.301 284.696 598.966 284.946 598.568C285.202 598.17 285.378 597.716 285.474 597.205L288.662 597.222C288.543 598.051 288.284 598.83 287.886 599.557C287.494 600.284 286.98 600.926 286.344 601.483C285.707 602.034 284.963 602.466 284.111 602.778C283.259 603.085 282.313 603.239 281.273 603.239C279.739 603.239 278.369 602.884 277.165 602.173C275.96 601.463 275.011 600.438 274.318 599.097C273.625 597.756 273.278 596.148 273.278 594.273C273.278 592.392 273.628 590.784 274.327 589.449C275.026 588.108 275.977 587.082 277.182 586.372C278.386 585.662 279.75 585.307 281.273 585.307C282.244 585.307 283.148 585.443 283.983 585.716C284.818 585.989 285.563 586.389 286.216 586.918C286.869 587.44 287.406 588.082 287.827 588.844C288.253 589.599 288.531 590.463 288.662 591.435ZM293.588 603H290.213L296.358 585.545H300.261L306.415 603H303.04L298.378 589.125H298.241L293.588 603ZM293.699 596.156H302.903V598.696H293.699V596.156Z" fill="#005A5E"/>
<circle cx="222.511" cy="219.511" r="9.01136" fill="#FF8F87" stroke="black"/>
<path d="M199.444 240.047C199.373 239.331 199.068 238.775 198.529 238.378C197.991 237.982 197.26 237.783 196.336 237.783C195.709 237.783 195.179 237.872 194.747 238.05C194.315 238.221 193.984 238.461 193.753 238.769C193.528 239.077 193.415 239.426 193.415 239.816C193.404 240.142 193.472 240.426 193.62 240.669C193.774 240.911 193.984 241.121 194.25 241.299C194.516 241.471 194.824 241.622 195.173 241.752C195.522 241.876 195.895 241.983 196.292 242.071L197.925 242.462C198.719 242.64 199.446 242.876 200.109 243.172C200.772 243.468 201.346 243.832 201.832 244.264C202.317 244.696 202.693 245.205 202.959 245.791C203.231 246.377 203.371 247.049 203.376 247.806C203.371 248.919 203.086 249.884 202.524 250.701C201.968 251.511 201.163 252.142 200.109 252.592C199.062 253.036 197.798 253.257 196.319 253.257C194.851 253.257 193.572 253.033 192.483 252.583C191.4 252.133 190.554 251.467 189.944 250.585C189.341 249.697 189.024 248.6 188.994 247.292H192.714C192.756 247.901 192.93 248.41 193.238 248.819C193.552 249.221 193.969 249.526 194.49 249.733C195.016 249.934 195.611 250.035 196.274 250.035C196.925 250.035 197.49 249.94 197.97 249.751C198.455 249.561 198.831 249.298 199.097 248.961C199.364 248.623 199.497 248.236 199.497 247.798C199.497 247.389 199.375 247.046 199.133 246.768C198.896 246.49 198.547 246.253 198.085 246.058C197.629 245.862 197.07 245.685 196.407 245.525L194.428 245.028C192.895 244.655 191.684 244.072 190.797 243.279C189.909 242.486 189.468 241.417 189.474 240.074C189.468 238.973 189.761 238.011 190.353 237.189C190.95 236.366 191.77 235.724 192.812 235.262C193.853 234.8 195.037 234.57 196.363 234.57C197.712 234.57 198.89 234.8 199.896 235.262C200.908 235.724 201.696 236.366 202.258 237.189C202.82 238.011 203.11 238.964 203.128 240.047H199.444ZM209.78 253.257C208.91 253.257 208.134 253.107 207.454 252.805C206.773 252.497 206.234 252.044 205.838 251.446C205.447 250.843 205.252 250.091 205.252 249.191C205.252 248.434 205.391 247.798 205.669 247.283C205.947 246.768 206.326 246.353 206.805 246.04C207.285 245.726 207.829 245.489 208.439 245.33C209.055 245.17 209.7 245.057 210.374 244.992C211.167 244.909 211.807 244.832 212.292 244.761C212.777 244.684 213.129 244.572 213.348 244.424C213.567 244.276 213.677 244.057 213.677 243.767V243.714C213.677 243.152 213.499 242.717 213.144 242.409C212.795 242.101 212.298 241.947 211.653 241.947C210.972 241.947 210.431 242.098 210.028 242.4C209.626 242.696 209.359 243.069 209.229 243.518L205.731 243.234C205.909 242.406 206.258 241.69 206.779 241.086C207.3 240.476 207.971 240.009 208.794 239.683C209.623 239.352 210.582 239.186 211.671 239.186C212.428 239.186 213.153 239.275 213.846 239.452C214.544 239.63 215.162 239.905 215.701 240.278C216.246 240.651 216.675 241.13 216.988 241.716C217.302 242.296 217.459 242.992 217.459 243.803V253H213.872V251.109H213.766C213.547 251.535 213.254 251.911 212.887 252.237C212.52 252.556 212.079 252.808 211.564 252.991C211.049 253.169 210.454 253.257 209.78 253.257ZM210.863 250.647C211.419 250.647 211.91 250.538 212.336 250.319C212.763 250.094 213.097 249.792 213.34 249.413C213.582 249.035 213.704 248.605 213.704 248.126V246.679C213.585 246.756 213.422 246.827 213.215 246.892C213.014 246.951 212.786 247.007 212.532 247.061C212.277 247.108 212.023 247.152 211.768 247.194C211.514 247.229 211.283 247.262 211.076 247.292C210.632 247.357 210.244 247.46 209.913 247.602C209.581 247.744 209.324 247.937 209.14 248.179C208.957 248.416 208.865 248.712 208.865 249.067C208.865 249.582 209.052 249.976 209.424 250.248C209.803 250.514 210.283 250.647 210.863 250.647ZM224.175 234.818V253H220.393V234.818H224.175ZM233.419 253.266C232.016 253.266 230.809 252.982 229.797 252.414C228.791 251.84 228.015 251.029 227.471 249.982C226.926 248.928 226.654 247.682 226.654 246.244C226.654 244.841 226.926 243.61 227.471 242.551C228.015 241.491 228.782 240.666 229.77 240.074C230.765 239.482 231.931 239.186 233.268 239.186C234.168 239.186 235.005 239.331 235.781 239.621C236.562 239.905 237.242 240.334 237.822 240.908C238.408 241.482 238.864 242.205 239.19 243.075C239.515 243.939 239.678 244.951 239.678 246.111V247.15H228.163V244.806H236.118C236.118 244.261 236 243.779 235.763 243.359C235.526 242.938 235.198 242.61 234.777 242.373C234.363 242.131 233.881 242.009 233.33 242.009C232.756 242.009 232.247 242.142 231.803 242.409C231.365 242.669 231.022 243.021 230.773 243.465C230.525 243.903 230.398 244.391 230.392 244.93V247.158C230.392 247.833 230.516 248.416 230.765 248.907C231.019 249.399 231.377 249.777 231.839 250.044C232.3 250.31 232.848 250.443 233.481 250.443C233.901 250.443 234.286 250.384 234.635 250.266C234.984 250.147 235.283 249.97 235.532 249.733C235.781 249.496 235.97 249.206 236.1 248.863L239.598 249.094C239.42 249.934 239.056 250.668 238.506 251.295C237.962 251.917 237.257 252.402 236.393 252.751C235.535 253.095 234.544 253.266 233.419 253.266ZM242.146 253V239.364H245.75V241.77H245.91C246.194 240.971 246.668 240.34 247.331 239.879C247.993 239.417 248.787 239.186 249.71 239.186C250.645 239.186 251.441 239.42 252.098 239.887C252.755 240.349 253.193 240.976 253.412 241.77H253.554C253.832 240.988 254.335 240.364 255.063 239.896C255.797 239.423 256.664 239.186 257.664 239.186C258.937 239.186 259.97 239.592 260.763 240.402C261.562 241.207 261.961 242.35 261.961 243.829V253H258.188V244.575C258.188 243.817 257.987 243.249 257.585 242.87C257.182 242.492 256.679 242.302 256.075 242.302C255.389 242.302 254.853 242.521 254.468 242.959C254.084 243.391 253.891 243.962 253.891 244.673V253H250.225V244.495C250.225 243.826 250.032 243.294 249.648 242.897C249.269 242.5 248.769 242.302 248.147 242.302C247.727 242.302 247.348 242.409 247.011 242.622C246.68 242.829 246.416 243.122 246.221 243.501C246.026 243.874 245.928 244.312 245.928 244.815V253H242.146Z" fill="black"/>
<path d="M193.202 361V342.818H204.175V344.771H195.403V350.915H203.607V352.868H195.403V359.047H204.317V361H193.202ZM216.453 355.425V347.364H218.548V361H216.453V358.692H216.311C215.991 359.384 215.494 359.973 214.819 360.458C214.145 360.938 213.292 361.178 212.262 361.178C211.41 361.178 210.653 360.991 209.99 360.618C209.327 360.239 208.806 359.671 208.427 358.914C208.048 358.15 207.859 357.188 207.859 356.028V347.364H209.954V355.886C209.954 356.881 210.232 357.674 210.789 358.266C211.351 358.857 212.067 359.153 212.937 359.153C213.458 359.153 213.988 359.02 214.526 358.754C215.071 358.488 215.527 358.079 215.893 357.529C216.266 356.978 216.453 356.277 216.453 355.425ZM227.89 366.398C226.878 366.398 226.008 366.268 225.28 366.007C224.552 365.753 223.945 365.415 223.46 364.995C222.98 364.581 222.598 364.137 222.314 363.663L223.983 362.491C224.173 362.74 224.412 363.024 224.703 363.344C224.993 363.669 225.389 363.95 225.892 364.187C226.401 364.43 227.067 364.551 227.89 364.551C228.991 364.551 229.899 364.285 230.615 363.752C231.331 363.219 231.689 362.385 231.689 361.249V358.479H231.512C231.358 358.727 231.139 359.035 230.855 359.402C230.577 359.763 230.174 360.086 229.647 360.37C229.127 360.648 228.422 360.787 227.535 360.787C226.434 360.787 225.445 360.527 224.569 360.006C223.699 359.485 223.01 358.727 222.501 357.733C221.998 356.739 221.746 355.531 221.746 354.111C221.746 352.714 221.992 351.498 222.483 350.462C222.974 349.42 223.658 348.615 224.534 348.047C225.41 347.473 226.422 347.186 227.57 347.186C228.458 347.186 229.162 347.334 229.683 347.63C230.21 347.92 230.612 348.251 230.89 348.624C231.174 348.991 231.393 349.293 231.547 349.53H231.76V347.364H233.785V361.391C233.785 362.562 233.518 363.515 232.986 364.249C232.459 364.989 231.749 365.531 230.855 365.874C229.967 366.223 228.979 366.398 227.89 366.398ZM227.819 358.905C228.659 358.905 229.369 358.712 229.949 358.328C230.529 357.943 230.97 357.39 231.272 356.668C231.574 355.946 231.725 355.081 231.725 354.075C231.725 353.093 231.577 352.226 231.281 351.474C230.985 350.722 230.547 350.134 229.967 349.707C229.387 349.281 228.671 349.068 227.819 349.068C226.931 349.068 226.191 349.293 225.599 349.743C225.013 350.193 224.572 350.796 224.276 351.554C223.986 352.312 223.841 353.152 223.841 354.075C223.841 355.022 223.989 355.86 224.285 356.588C224.587 357.31 225.031 357.878 225.617 358.292C226.209 358.701 226.943 358.905 227.819 358.905ZM243.337 361.284C242.023 361.284 240.89 360.994 239.937 360.414C238.99 359.828 238.259 359.011 237.744 357.964C237.235 356.91 236.981 355.685 236.981 354.288C236.981 352.892 237.235 351.661 237.744 350.595C238.259 349.524 238.975 348.689 239.892 348.092C240.816 347.488 241.893 347.186 243.124 347.186C243.834 347.186 244.536 347.304 245.228 347.541C245.921 347.778 246.551 348.163 247.119 348.695C247.687 349.222 248.14 349.92 248.477 350.79C248.815 351.661 248.983 352.732 248.983 354.004V354.892H238.472V353.081H246.853C246.853 352.312 246.699 351.625 246.391 351.021C246.089 350.418 245.657 349.941 245.095 349.592C244.539 349.243 243.882 349.068 243.124 349.068C242.29 349.068 241.567 349.275 240.958 349.69C240.354 350.098 239.89 350.631 239.564 351.288C239.238 351.945 239.076 352.649 239.076 353.401V354.608C239.076 355.638 239.253 356.511 239.608 357.227C239.969 357.937 240.47 358.479 241.109 358.852C241.748 359.219 242.491 359.402 243.337 359.402C243.888 359.402 244.385 359.325 244.829 359.171C245.278 359.011 245.666 358.775 245.992 358.461C246.317 358.141 246.569 357.745 246.746 357.271L248.77 357.839C248.557 358.526 248.199 359.13 247.696 359.651C247.193 360.165 246.572 360.568 245.832 360.858C245.092 361.142 244.26 361.284 243.337 361.284ZM254.266 352.797V361H252.171V347.364H254.195V349.494H254.372C254.692 348.802 255.177 348.246 255.828 347.825C256.479 347.399 257.32 347.186 258.35 347.186C259.273 347.186 260.081 347.375 260.773 347.754C261.466 348.127 262.004 348.695 262.389 349.459C262.774 350.216 262.966 351.175 262.966 352.335V361H260.871V352.477C260.871 351.406 260.593 350.571 260.036 349.974C259.48 349.37 258.716 349.068 257.746 349.068C257.077 349.068 256.479 349.213 255.953 349.503C255.432 349.793 255.02 350.216 254.718 350.773C254.417 351.329 254.266 352.004 254.266 352.797ZM272.512 361.284C271.198 361.284 270.065 360.994 269.112 360.414C268.165 359.828 267.434 359.011 266.919 357.964C266.41 356.91 266.155 355.685 266.155 354.288C266.155 352.892 266.41 351.661 266.919 350.595C267.434 349.524 268.15 348.689 269.067 348.092C269.991 347.488 271.068 347.186 272.299 347.186C273.009 347.186 273.71 347.304 274.403 347.541C275.095 347.778 275.726 348.163 276.294 348.695C276.862 349.222 277.315 349.92 277.652 350.79C277.99 351.661 278.158 352.732 278.158 354.004V354.892H267.647V353.081H276.028C276.028 352.312 275.874 351.625 275.566 351.021C275.264 350.418 274.832 349.941 274.27 349.592C273.713 349.243 273.056 349.068 272.299 349.068C271.464 349.068 270.742 349.275 270.133 349.69C269.529 350.098 269.064 350.631 268.739 351.288C268.413 351.945 268.251 352.649 268.251 353.401V354.608C268.251 355.638 268.428 356.511 268.783 357.227C269.144 357.937 269.644 358.479 270.284 358.852C270.923 359.219 271.666 359.402 272.512 359.402C273.062 359.402 273.559 359.325 274.003 359.171C274.453 359.011 274.841 358.775 275.166 358.461C275.492 358.141 275.743 357.745 275.921 357.271L277.945 357.839C277.732 358.526 277.374 359.13 276.871 359.651C276.368 360.165 275.746 360.568 275.007 360.858C274.267 361.142 273.435 361.284 272.512 361.284Z" fill="black"/>
<path d="M331.202 304V285.818H337.558C338.825 285.818 339.869 286.037 340.692 286.475C341.515 286.907 342.127 287.49 342.53 288.224C342.932 288.952 343.134 289.76 343.134 290.648C343.134 291.429 342.994 292.074 342.716 292.583C342.444 293.092 342.083 293.495 341.633 293.79C341.189 294.086 340.707 294.305 340.186 294.447V294.625C340.742 294.661 341.302 294.856 341.864 295.211C342.426 295.566 342.897 296.075 343.276 296.738C343.654 297.401 343.844 298.212 343.844 299.17C343.844 300.082 343.637 300.902 343.222 301.63C342.808 302.358 342.154 302.935 341.26 303.361C340.367 303.787 339.204 304 337.771 304H331.202ZM333.403 302.047H337.771C339.21 302.047 340.23 301.769 340.834 301.212C341.444 300.65 341.749 299.969 341.749 299.17C341.749 298.555 341.592 297.987 341.278 297.466C340.964 296.939 340.518 296.519 339.938 296.205C339.357 295.886 338.671 295.726 337.878 295.726H333.403V302.047ZM333.403 293.808H337.487C338.15 293.808 338.748 293.678 339.281 293.418C339.819 293.157 340.245 292.79 340.559 292.317C340.879 291.843 341.038 291.287 341.038 290.648C341.038 289.849 340.76 289.171 340.204 288.615C339.647 288.052 338.766 287.771 337.558 287.771H333.403V293.808ZM352.895 304.284C351.581 304.284 350.447 303.994 349.494 303.414C348.548 302.828 347.817 302.011 347.302 300.964C346.793 299.91 346.538 298.685 346.538 297.288C346.538 295.892 346.793 294.661 347.302 293.595C347.817 292.524 348.533 291.689 349.45 291.092C350.373 290.488 351.451 290.186 352.682 290.186C353.392 290.186 354.093 290.304 354.786 290.541C355.478 290.778 356.108 291.163 356.677 291.695C357.245 292.222 357.698 292.92 358.035 293.79C358.372 294.661 358.541 295.732 358.541 297.004V297.892H348.03V296.081H356.41C356.41 295.312 356.256 294.625 355.949 294.021C355.647 293.418 355.215 292.941 354.653 292.592C354.096 292.243 353.439 292.068 352.682 292.068C351.847 292.068 351.125 292.275 350.515 292.69C349.912 293.098 349.447 293.631 349.122 294.288C348.796 294.945 348.633 295.649 348.633 296.401V297.608C348.633 298.638 348.811 299.511 349.166 300.227C349.527 300.937 350.027 301.479 350.666 301.852C351.306 302.219 352.048 302.402 352.895 302.402C353.445 302.402 353.942 302.325 354.386 302.171C354.836 302.011 355.224 301.775 355.549 301.461C355.875 301.141 356.126 300.745 356.304 300.271L358.328 300.839C358.115 301.526 357.757 302.13 357.254 302.651C356.751 303.165 356.129 303.568 355.389 303.858C354.65 304.142 353.818 304.284 352.895 304.284ZM363.823 295.797V304H361.728V290.364H363.752V292.494H363.93C364.249 291.802 364.735 291.246 365.386 290.825C366.037 290.399 366.877 290.186 367.907 290.186C368.83 290.186 369.638 290.375 370.331 290.754C371.023 291.127 371.562 291.695 371.947 292.459C372.331 293.216 372.524 294.175 372.524 295.335V304H370.428V295.477C370.428 294.406 370.15 293.571 369.594 292.974C369.038 292.37 368.274 292.068 367.303 292.068C366.635 292.068 366.037 292.213 365.51 292.503C364.989 292.793 364.578 293.216 364.276 293.773C363.974 294.329 363.823 295.004 363.823 295.797ZM381.501 304.284C380.365 304.284 379.362 303.997 378.492 303.423C377.622 302.843 376.941 302.026 376.45 300.973C375.959 299.913 375.713 298.661 375.713 297.217C375.713 295.785 375.959 294.542 376.45 293.489C376.941 292.435 377.625 291.621 378.501 291.047C379.377 290.473 380.389 290.186 381.537 290.186C382.425 290.186 383.126 290.334 383.641 290.63C384.162 290.92 384.558 291.251 384.831 291.624C385.109 291.991 385.325 292.293 385.479 292.53H385.656V285.818H387.751V304H385.727V301.905H385.479C385.325 302.153 385.106 302.467 384.822 302.846C384.538 303.219 384.132 303.553 383.605 303.849C383.079 304.139 382.377 304.284 381.501 304.284ZM381.785 302.402C382.626 302.402 383.336 302.183 383.916 301.745C384.496 301.301 384.937 300.689 385.239 299.907C385.541 299.12 385.692 298.212 385.692 297.182C385.692 296.164 385.544 295.273 385.248 294.51C384.952 293.74 384.514 293.142 383.934 292.716C383.354 292.284 382.638 292.068 381.785 292.068C380.898 292.068 380.158 292.296 379.566 292.752C378.98 293.202 378.539 293.814 378.243 294.589C377.953 295.359 377.808 296.223 377.808 297.182C377.808 298.152 377.956 299.034 378.252 299.827C378.554 300.615 378.998 301.242 379.584 301.71C380.176 302.171 380.909 302.402 381.785 302.402Z" fill="black"/>
<path d="M527.202 412V393.818H533.558C534.825 393.818 535.869 394.037 536.692 394.475C537.515 394.907 538.127 395.49 538.53 396.224C538.932 396.952 539.134 397.76 539.134 398.648C539.134 399.429 538.994 400.074 538.716 400.583C538.444 401.092 538.083 401.495 537.633 401.79C537.189 402.086 536.707 402.305 536.186 402.447V402.625C536.742 402.661 537.302 402.856 537.864 403.211C538.426 403.566 538.897 404.075 539.276 404.738C539.654 405.401 539.844 406.212 539.844 407.17C539.844 408.082 539.637 408.902 539.222 409.63C538.808 410.358 538.154 410.935 537.26 411.361C536.367 411.787 535.204 412 533.771 412H527.202ZM529.403 410.047H533.771C535.21 410.047 536.23 409.769 536.834 409.212C537.444 408.65 537.749 407.969 537.749 407.17C537.749 406.555 537.592 405.987 537.278 405.466C536.964 404.939 536.518 404.519 535.938 404.205C535.357 403.886 534.671 403.726 533.878 403.726H529.403V410.047ZM529.403 401.808H533.487C534.15 401.808 534.748 401.678 535.281 401.418C535.819 401.157 536.245 400.79 536.559 400.317C536.879 399.843 537.038 399.287 537.038 398.648C537.038 397.849 536.76 397.171 536.204 396.615C535.647 396.052 534.766 395.771 533.558 395.771H529.403V401.808ZM551.771 406.425V398.364H553.866V412H551.771V409.692H551.629C551.309 410.384 550.812 410.973 550.138 411.458C549.463 411.938 548.611 412.178 547.581 412.178C546.729 412.178 545.971 411.991 545.308 411.618C544.645 411.239 544.124 410.671 543.746 409.914C543.367 409.15 543.177 408.188 543.177 407.028V398.364H545.273V406.886C545.273 407.881 545.551 408.674 546.107 409.266C546.669 409.857 547.385 410.153 548.256 410.153C548.776 410.153 549.306 410.02 549.845 409.754C550.389 409.488 550.845 409.079 551.212 408.529C551.585 407.978 551.771 407.277 551.771 406.425ZM557.704 412V398.364H559.728V400.423H559.87C560.119 399.749 560.568 399.201 561.219 398.781C561.87 398.361 562.604 398.151 563.421 398.151C563.575 398.151 563.767 398.154 563.998 398.159C564.229 398.165 564.404 398.174 564.522 398.186V400.317C564.451 400.299 564.288 400.272 564.034 400.237C563.785 400.195 563.522 400.175 563.244 400.175C562.581 400.175 561.989 400.314 561.468 400.592C560.953 400.864 560.545 401.243 560.243 401.728C559.947 402.208 559.799 402.755 559.799 403.371V412H557.704ZM569.101 403.797V412H567.006V398.364H569.03V400.494H569.207C569.527 399.802 570.012 399.246 570.663 398.825C571.314 398.399 572.155 398.186 573.184 398.186C574.108 398.186 574.916 398.375 575.608 398.754C576.301 399.127 576.839 399.695 577.224 400.459C577.609 401.216 577.801 402.175 577.801 403.335V412H575.706V403.477C575.706 402.406 575.428 401.571 574.871 400.974C574.315 400.37 573.551 400.068 572.581 400.068C571.912 400.068 571.314 400.213 570.787 400.503C570.267 400.793 569.855 401.216 569.553 401.773C569.252 402.329 569.101 403.004 569.101 403.797ZM591.289 401.418L589.407 401.95C589.288 401.637 589.114 401.332 588.883 401.036C588.658 400.734 588.35 400.485 587.959 400.29C587.569 400.095 587.069 399.997 586.459 399.997C585.625 399.997 584.929 400.19 584.373 400.574C583.822 400.953 583.547 401.435 583.547 402.021C583.547 402.542 583.737 402.953 584.115 403.255C584.494 403.557 585.086 403.809 585.891 404.01L587.915 404.507C589.134 404.803 590.043 405.256 590.641 405.865C591.238 406.469 591.537 407.247 591.537 408.2C591.537 408.982 591.312 409.68 590.862 410.295C590.419 410.911 589.797 411.396 588.998 411.751C588.199 412.107 587.27 412.284 586.21 412.284C584.82 412.284 583.668 411.982 582.757 411.379C581.846 410.775 581.268 409.893 581.026 408.733L583.014 408.236C583.204 408.97 583.562 409.52 584.089 409.887C584.621 410.254 585.317 410.438 586.175 410.438C587.152 410.438 587.927 410.23 588.501 409.816C589.081 409.396 589.371 408.893 589.371 408.307C589.371 407.833 589.205 407.437 588.874 407.117C588.542 406.792 588.033 406.549 587.347 406.389L585.074 405.857C583.825 405.561 582.908 405.102 582.322 404.48C581.742 403.853 581.452 403.069 581.452 402.128C581.452 401.358 581.668 400.678 582.1 400.086C582.538 399.494 583.133 399.029 583.884 398.692C584.642 398.355 585.5 398.186 586.459 398.186C587.809 398.186 588.868 398.482 589.637 399.074C590.413 399.666 590.963 400.447 591.289 401.418Z" fill="black"/>
<path d="M600.202 218V199.818H606.558C607.825 199.818 608.869 200.037 609.692 200.475C610.515 200.907 611.127 201.49 611.53 202.224C611.932 202.952 612.134 203.76 612.134 204.648C612.134 205.429 611.994 206.074 611.716 206.583C611.444 207.092 611.083 207.495 610.633 207.79C610.189 208.086 609.707 208.305 609.186 208.447V208.625C609.742 208.661 610.302 208.856 610.864 209.211C611.426 209.566 611.897 210.075 612.276 210.738C612.654 211.401 612.844 212.212 612.844 213.17C612.844 214.082 612.637 214.902 612.222 215.63C611.808 216.358 611.154 216.935 610.26 217.361C609.367 217.787 608.204 218 606.771 218H600.202ZM602.403 216.047H606.771C608.21 216.047 609.23 215.769 609.834 215.212C610.444 214.65 610.749 213.969 610.749 213.17C610.749 212.555 610.592 211.987 610.278 211.466C609.964 210.939 609.518 210.519 608.938 210.205C608.357 209.886 607.671 209.726 606.878 209.726H602.403V216.047ZM602.403 207.808H606.487C607.15 207.808 607.748 207.678 608.281 207.418C608.819 207.157 609.245 206.79 609.559 206.317C609.879 205.843 610.038 205.287 610.038 204.648C610.038 203.849 609.76 203.171 609.204 202.615C608.647 202.052 607.766 201.771 606.558 201.771H602.403V207.808ZM620.19 218.32C619.326 218.32 618.542 218.157 617.838 217.831C617.133 217.5 616.574 217.023 616.16 216.402C615.745 215.775 615.538 215.017 615.538 214.129C615.538 213.348 615.692 212.715 616 212.229C616.308 211.738 616.719 211.353 617.234 211.075C617.749 210.797 618.317 210.59 618.938 210.454C619.566 210.312 620.196 210.199 620.829 210.116C621.658 210.01 622.33 209.93 622.845 209.877C623.365 209.818 623.744 209.72 623.981 209.584C624.224 209.448 624.345 209.211 624.345 208.874V208.803C624.345 207.927 624.105 207.246 623.626 206.761C623.152 206.275 622.433 206.033 621.469 206.033C620.468 206.033 619.684 206.252 619.116 206.69C618.548 207.128 618.148 207.595 617.917 208.092L615.929 207.382C616.284 206.554 616.757 205.908 617.349 205.447C617.947 204.979 618.598 204.654 619.302 204.47C620.013 204.281 620.711 204.186 621.398 204.186C621.836 204.186 622.339 204.239 622.907 204.346C623.481 204.446 624.034 204.657 624.567 204.976C625.106 205.296 625.552 205.778 625.907 206.423C626.263 207.068 626.44 207.933 626.44 209.016V218H624.345V216.153H624.238C624.096 216.449 623.86 216.766 623.528 217.103C623.197 217.441 622.756 217.728 622.205 217.964C621.655 218.201 620.983 218.32 620.19 218.32ZM620.51 216.438C621.338 216.438 622.037 216.275 622.605 215.949C623.179 215.624 623.611 215.203 623.901 214.689C624.197 214.174 624.345 213.632 624.345 213.064V211.146C624.256 211.253 624.061 211.35 623.759 211.439C623.463 211.522 623.12 211.596 622.729 211.661C622.345 211.72 621.969 211.774 621.602 211.821C621.241 211.862 620.948 211.898 620.723 211.928C620.178 211.999 619.669 212.114 619.196 212.274C618.728 212.428 618.349 212.661 618.059 212.975C617.775 213.283 617.633 213.703 617.633 214.236C617.633 214.964 617.903 215.514 618.441 215.887C618.986 216.254 619.675 216.438 620.51 216.438ZM632.217 213.028L632.182 210.436H632.608L638.574 204.364H641.166L634.81 210.791H634.632L632.217 213.028ZM630.264 218V199.818H632.359V218H630.264ZM638.929 218L633.602 211.253L635.094 209.797L641.592 218H638.929ZM649.019 218.284C647.705 218.284 646.571 217.994 645.619 217.414C644.672 216.828 643.941 216.011 643.426 214.964C642.917 213.91 642.662 212.685 642.662 211.288C642.662 209.892 642.917 208.661 643.426 207.595C643.941 206.524 644.657 205.689 645.574 205.092C646.497 204.488 647.575 204.186 648.806 204.186C649.516 204.186 650.217 204.304 650.91 204.541C651.602 204.778 652.233 205.163 652.801 205.695C653.369 206.222 653.822 206.92 654.159 207.79C654.496 208.661 654.665 209.732 654.665 211.004V211.892H644.154V210.081H652.534C652.534 209.312 652.38 208.625 652.073 208.021C651.771 207.418 651.339 206.941 650.777 206.592C650.22 206.243 649.563 206.068 648.806 206.068C647.971 206.068 647.249 206.275 646.639 206.69C646.036 207.098 645.571 207.631 645.246 208.288C644.92 208.945 644.757 209.649 644.757 210.401V211.608C644.757 212.638 644.935 213.511 645.29 214.227C645.651 214.937 646.151 215.479 646.79 215.852C647.43 216.219 648.172 216.402 649.019 216.402C649.569 216.402 650.066 216.325 650.51 216.171C650.96 216.011 651.348 215.775 651.673 215.461C651.999 215.141 652.25 214.745 652.428 214.271L654.452 214.839C654.239 215.526 653.881 216.13 653.378 216.651C652.875 217.165 652.253 217.568 651.513 217.858C650.774 218.142 649.942 218.284 649.019 218.284ZM657.852 218V204.364H659.876V206.423H660.018C660.267 205.749 660.717 205.201 661.368 204.781C662.019 204.361 662.753 204.151 663.57 204.151C663.723 204.151 663.916 204.154 664.147 204.159C664.377 204.165 664.552 204.174 664.67 204.186V206.317C664.599 206.299 664.437 206.272 664.182 206.237C663.934 206.195 663.67 206.175 663.392 206.175C662.729 206.175 662.137 206.314 661.616 206.592C661.101 206.864 660.693 207.243 660.391 207.728C660.095 208.208 659.947 208.755 659.947 209.371V218H657.852ZM689.1 205.5H686.898C686.768 204.867 686.54 204.31 686.215 203.831C685.895 203.352 685.504 202.949 685.043 202.624C684.587 202.292 684.081 202.044 683.525 201.878C682.968 201.712 682.388 201.629 681.785 201.629C680.684 201.629 679.686 201.907 678.793 202.464C677.905 203.02 677.198 203.84 676.671 204.923C676.15 206.006 675.89 207.335 675.89 208.909C675.89 210.483 676.15 211.812 676.671 212.895C677.198 213.978 677.905 214.798 678.793 215.354C679.686 215.911 680.684 216.189 681.785 216.189C682.388 216.189 682.968 216.106 683.525 215.94C684.081 215.775 684.587 215.529 685.043 215.203C685.504 214.872 685.895 214.467 686.215 213.987C686.54 213.502 686.768 212.946 686.898 212.318H689.1C688.934 213.247 688.632 214.079 688.194 214.813C687.756 215.547 687.212 216.171 686.561 216.686C685.91 217.195 685.179 217.583 684.368 217.849C683.563 218.115 682.702 218.249 681.785 218.249C680.234 218.249 678.855 217.87 677.648 217.112C676.44 216.355 675.49 215.277 674.798 213.881C674.105 212.484 673.759 210.827 673.759 208.909C673.759 206.991 674.105 205.334 674.798 203.938C675.49 202.541 676.44 201.464 677.648 200.706C678.855 199.948 680.234 199.57 681.785 199.57C682.702 199.57 683.563 199.703 684.368 199.969C685.179 200.235 685.91 200.626 686.561 201.141C687.212 201.65 687.756 202.271 688.194 203.005C688.632 203.733 688.934 204.565 689.1 205.5ZM692.374 218V204.364H694.469V218H692.374ZM693.439 202.091C693.031 202.091 692.678 201.952 692.383 201.674C692.093 201.395 691.948 201.061 691.948 200.67C691.948 200.28 692.093 199.945 692.383 199.667C692.678 199.389 693.031 199.25 693.439 199.25C693.847 199.25 694.197 199.389 694.487 199.667C694.783 199.945 694.93 200.28 694.93 200.67C694.93 201.061 694.783 201.395 694.487 201.674C694.197 201.952 693.847 202.091 693.439 202.091ZM704.237 204.364V206.139H697.17V204.364H704.237ZM699.23 201.097H701.325V214.094C701.325 214.686 701.411 215.129 701.582 215.425C701.76 215.715 701.985 215.911 702.257 216.011C702.535 216.106 702.828 216.153 703.136 216.153C703.367 216.153 703.556 216.142 703.704 216.118C703.852 216.088 703.97 216.065 704.059 216.047L704.485 217.929C704.343 217.982 704.145 218.036 703.89 218.089C703.636 218.148 703.313 218.178 702.923 218.178C702.331 218.178 701.751 218.05 701.183 217.796C700.62 217.541 700.153 217.154 699.78 216.633C699.413 216.112 699.23 215.455 699.23 214.662V201.097ZM708.738 223.114C708.383 223.114 708.066 223.084 707.788 223.025C707.51 222.972 707.317 222.918 707.211 222.865L707.743 221.018C708.252 221.149 708.702 221.196 709.093 221.161C709.483 221.125 709.83 220.95 710.132 220.637C710.439 220.329 710.72 219.829 710.975 219.136L711.366 218.071L706.323 204.364H708.596L712.36 215.23H712.502L716.266 204.364H718.539L712.751 219.989C712.49 220.693 712.168 221.276 711.783 221.738C711.398 222.205 710.951 222.551 710.442 222.776C709.939 223.001 709.371 223.114 708.738 223.114Z" fill="black"/>
<path d="M204.202 485.818H206.83L213.009 500.911H213.222L219.401 485.818H222.028V504H219.969V490.186H219.791L214.109 504H212.121L206.439 490.186H206.261V504H204.202V485.818ZM231.876 504.284C230.562 504.284 229.429 503.994 228.476 503.414C227.529 502.828 226.798 502.011 226.283 500.964C225.774 499.91 225.52 498.685 225.52 497.288C225.52 495.892 225.774 494.661 226.283 493.595C226.798 492.524 227.514 491.689 228.432 491.092C229.355 490.488 230.432 490.186 231.663 490.186C232.373 490.186 233.075 490.304 233.767 490.541C234.46 490.778 235.09 491.163 235.658 491.695C236.226 492.222 236.679 492.92 237.016 493.79C237.354 494.661 237.522 495.732 237.522 497.004V497.892H227.011V496.081H235.392C235.392 495.312 235.238 494.625 234.93 494.021C234.628 493.418 234.196 492.941 233.634 492.592C233.078 492.243 232.421 492.068 231.663 492.068C230.829 492.068 230.107 492.275 229.497 492.69C228.893 493.098 228.429 493.631 228.103 494.288C227.778 494.945 227.615 495.649 227.615 496.401V497.608C227.615 498.638 227.792 499.511 228.147 500.227C228.508 500.937 229.009 501.479 229.648 501.852C230.287 502.219 231.03 502.402 231.876 502.402C232.427 502.402 232.924 502.325 233.368 502.171C233.817 502.011 234.205 501.775 234.531 501.461C234.856 501.141 235.108 500.745 235.285 500.271L237.309 500.839C237.096 501.526 236.738 502.13 236.235 502.651C235.732 503.165 235.111 503.568 234.371 503.858C233.631 504.142 232.799 504.284 231.876 504.284ZM245.859 504.284C244.722 504.284 243.719 503.997 242.849 503.423C241.979 502.843 241.299 502.026 240.807 500.973C240.316 499.913 240.07 498.661 240.07 497.217C240.07 495.785 240.316 494.542 240.807 493.489C241.299 492.435 241.982 491.621 242.858 491.047C243.734 490.473 244.746 490.186 245.894 490.186C246.782 490.186 247.483 490.334 247.998 490.63C248.519 490.92 248.916 491.251 249.188 491.624C249.466 491.991 249.682 492.293 249.836 492.53H250.014V485.818H252.109V504H250.085V501.905H249.836C249.682 502.153 249.463 502.467 249.179 502.846C248.895 503.219 248.49 503.553 247.963 503.849C247.436 504.139 246.735 504.284 245.859 504.284ZM246.143 502.402C246.983 502.402 247.694 502.183 248.274 501.745C248.854 501.301 249.294 500.689 249.596 499.907C249.898 499.12 250.049 498.212 250.049 497.182C250.049 496.164 249.901 495.273 249.605 494.51C249.309 493.74 248.871 493.142 248.291 492.716C247.711 492.284 246.995 492.068 246.143 492.068C245.255 492.068 244.515 492.296 243.923 492.752C243.337 493.202 242.897 493.814 242.601 494.589C242.311 495.359 242.166 496.223 242.166 497.182C242.166 498.152 242.314 499.034 242.609 499.827C242.911 500.615 243.355 501.242 243.941 501.71C244.533 502.171 245.267 502.402 246.143 502.402ZM262.309 490.364V492.139H254.959V490.364H262.309ZM257.16 504V488.482C257.16 487.7 257.344 487.049 257.711 486.528C258.078 486.008 258.554 485.617 259.14 485.357C259.726 485.096 260.344 484.966 260.995 484.966C261.51 484.966 261.931 485.007 262.256 485.09C262.582 485.173 262.824 485.25 262.984 485.321L262.38 487.132C262.274 487.097 262.126 487.052 261.937 486.999C261.753 486.946 261.51 486.919 261.209 486.919C260.516 486.919 260.016 487.094 259.708 487.443C259.406 487.792 259.255 488.304 259.255 488.979V504H257.16ZM270.224 504.284C268.993 504.284 267.913 503.991 266.984 503.405C266.06 502.819 265.338 502 264.817 500.946C264.302 499.893 264.045 498.661 264.045 497.253C264.045 495.832 264.302 494.592 264.817 493.533C265.338 492.474 266.06 491.651 266.984 491.065C267.913 490.479 268.993 490.186 270.224 490.186C271.455 490.186 272.532 490.479 273.456 491.065C274.385 491.651 275.107 492.474 275.622 493.533C276.143 494.592 276.403 495.832 276.403 497.253C276.403 498.661 276.143 499.893 275.622 500.946C275.107 502 274.385 502.819 273.456 503.405C272.532 503.991 271.455 504.284 270.224 504.284ZM270.224 502.402C271.159 502.402 271.929 502.162 272.532 501.683C273.136 501.203 273.583 500.573 273.873 499.792C274.163 499.011 274.308 498.164 274.308 497.253C274.308 496.341 274.163 495.492 273.873 494.705C273.583 493.918 273.136 493.281 272.532 492.796C271.929 492.311 271.159 492.068 270.224 492.068C269.289 492.068 268.519 492.311 267.916 492.796C267.312 493.281 266.865 493.918 266.575 494.705C266.285 495.492 266.14 496.341 266.14 497.253C266.14 498.164 266.285 499.011 266.575 499.792C266.865 500.573 267.312 501.203 267.916 501.683C268.519 502.162 269.289 502.402 270.224 502.402ZM279.601 504V490.364H281.625V492.423H281.767C282.016 491.749 282.466 491.201 283.117 490.781C283.768 490.361 284.502 490.151 285.319 490.151C285.472 490.151 285.665 490.154 285.896 490.159C286.126 490.165 286.301 490.174 286.419 490.186V492.317C286.348 492.299 286.186 492.272 285.931 492.237C285.683 492.195 285.419 492.175 285.141 492.175C284.478 492.175 283.886 492.314 283.365 492.592C282.85 492.864 282.442 493.243 282.14 493.728C281.844 494.208 281.696 494.755 281.696 495.371V504H279.601ZM293.637 504.284C292.501 504.284 291.498 503.997 290.627 503.423C289.757 502.843 289.077 502.026 288.586 500.973C288.094 499.913 287.849 498.661 287.849 497.217C287.849 495.785 288.094 494.542 288.586 493.489C289.077 492.435 289.76 491.621 290.636 491.047C291.512 490.473 292.524 490.186 293.673 490.186C294.56 490.186 295.262 490.334 295.777 490.63C296.297 490.92 296.694 491.251 296.966 491.624C297.244 491.991 297.46 492.293 297.614 492.53H297.792V485.818H299.887V504H297.863V501.905H297.614C297.46 502.153 297.241 502.467 296.957 502.846C296.673 503.219 296.268 503.553 295.741 503.849C295.214 504.139 294.513 504.284 293.637 504.284ZM293.921 502.402C294.762 502.402 295.472 502.183 296.052 501.745C296.632 501.301 297.073 500.689 297.375 499.907C297.676 499.12 297.827 498.212 297.827 497.182C297.827 496.164 297.679 495.273 297.384 494.51C297.088 493.74 296.65 493.142 296.07 492.716C295.49 492.284 294.773 492.068 293.921 492.068C293.033 492.068 292.294 492.296 291.702 492.752C291.116 493.202 290.675 493.814 290.379 494.589C290.089 495.359 289.944 496.223 289.944 497.182C289.944 498.152 290.092 499.034 290.388 499.827C290.69 500.615 291.134 501.242 291.719 501.71C292.311 502.171 293.045 502.402 293.921 502.402Z" fill="black"/>
<path d="M148.202 189V170.818H154.558C155.825 170.818 156.869 171.037 157.692 171.475C158.515 171.907 159.127 172.49 159.53 173.224C159.932 173.952 160.134 174.76 160.134 175.648C160.134 176.429 159.994 177.074 159.716 177.583C159.444 178.092 159.083 178.495 158.633 178.79C158.189 179.086 157.707 179.305 157.186 179.447V179.625C157.742 179.661 158.302 179.856 158.864 180.211C159.426 180.566 159.897 181.075 160.276 181.738C160.654 182.401 160.844 183.212 160.844 184.17C160.844 185.082 160.637 185.902 160.222 186.63C159.808 187.358 159.154 187.935 158.26 188.361C157.367 188.787 156.204 189 154.771 189H148.202ZM150.403 187.047H154.771C156.21 187.047 157.23 186.769 157.834 186.212C158.444 185.65 158.749 184.969 158.749 184.17C158.749 183.555 158.592 182.987 158.278 182.466C157.964 181.939 157.518 181.519 156.938 181.205C156.357 180.886 155.671 180.726 154.878 180.726H150.403V187.047ZM150.403 178.808H154.487C155.15 178.808 155.748 178.678 156.281 178.418C156.819 178.157 157.245 177.79 157.559 177.317C157.879 176.843 158.038 176.287 158.038 175.648C158.038 174.849 157.76 174.171 157.204 173.615C156.647 173.052 155.766 172.771 154.558 172.771H150.403V178.808ZM169.895 189.284C168.581 189.284 167.447 188.994 166.494 188.414C165.548 187.828 164.817 187.011 164.302 185.964C163.793 184.91 163.538 183.685 163.538 182.288C163.538 180.892 163.793 179.661 164.302 178.595C164.817 177.524 165.533 176.689 166.45 176.092C167.373 175.488 168.451 175.186 169.682 175.186C170.392 175.186 171.093 175.304 171.786 175.541C172.478 175.778 173.108 176.163 173.677 176.695C174.245 177.222 174.698 177.92 175.035 178.79C175.372 179.661 175.541 180.732 175.541 182.004V182.892H165.03V181.081H173.41C173.41 180.312 173.256 179.625 172.949 179.021C172.647 178.418 172.215 177.941 171.653 177.592C171.096 177.243 170.439 177.068 169.682 177.068C168.847 177.068 168.125 177.275 167.515 177.69C166.912 178.098 166.447 178.631 166.122 179.288C165.796 179.945 165.633 180.649 165.633 181.401V182.608C165.633 183.638 165.811 184.511 166.166 185.227C166.527 185.937 167.027 186.479 167.666 186.852C168.306 187.219 169.048 187.402 169.895 187.402C170.445 187.402 170.942 187.325 171.386 187.171C171.836 187.011 172.224 186.775 172.549 186.461C172.875 186.141 173.126 185.745 173.304 185.271L175.328 185.839C175.115 186.526 174.757 187.13 174.254 187.651C173.751 188.165 173.129 188.568 172.389 188.858C171.65 189.142 170.818 189.284 169.895 189.284ZM182.741 189.32C181.877 189.32 181.093 189.157 180.388 188.831C179.684 188.5 179.125 188.023 178.71 187.402C178.296 186.775 178.089 186.017 178.089 185.129C178.089 184.348 178.243 183.715 178.551 183.229C178.858 182.738 179.27 182.353 179.785 182.075C180.3 181.797 180.868 181.59 181.489 181.454C182.117 181.312 182.747 181.199 183.38 181.116C184.209 181.01 184.881 180.93 185.395 180.877C185.916 180.818 186.295 180.72 186.532 180.584C186.774 180.448 186.896 180.211 186.896 179.874V179.803C186.896 178.927 186.656 178.246 186.177 177.761C185.703 177.275 184.984 177.033 184.019 177.033C183.019 177.033 182.235 177.252 181.667 177.69C181.099 178.128 180.699 178.595 180.468 179.092L178.48 178.382C178.835 177.554 179.308 176.908 179.9 176.447C180.498 175.979 181.149 175.654 181.853 175.47C182.563 175.281 183.262 175.186 183.948 175.186C184.386 175.186 184.889 175.239 185.458 175.346C186.032 175.446 186.585 175.657 187.118 175.976C187.656 176.296 188.103 176.778 188.458 177.423C188.813 178.068 188.991 178.933 188.991 180.016V189H186.896V187.153H186.789C186.647 187.449 186.41 187.766 186.079 188.103C185.748 188.441 185.307 188.728 184.756 188.964C184.206 189.201 183.534 189.32 182.741 189.32ZM183.061 187.438C183.889 187.438 184.588 187.275 185.156 186.949C185.73 186.624 186.162 186.203 186.452 185.689C186.748 185.174 186.896 184.632 186.896 184.064V182.146C186.807 182.253 186.612 182.35 186.31 182.439C186.014 182.522 185.671 182.596 185.28 182.661C184.895 182.72 184.519 182.774 184.153 182.821C183.791 182.862 183.499 182.898 183.274 182.928C182.729 182.999 182.22 183.114 181.747 183.274C181.279 183.428 180.9 183.661 180.61 183.975C180.326 184.283 180.184 184.703 180.184 185.236C180.184 185.964 180.453 186.514 180.992 186.887C181.537 187.254 182.226 187.438 183.061 187.438ZM203.477 175.364L198.435 189H196.304L191.261 175.364H193.534L197.298 186.23H197.44L201.205 175.364H203.477ZM211.472 189.284C210.158 189.284 209.025 188.994 208.072 188.414C207.125 187.828 206.394 187.011 205.879 185.964C205.37 184.91 205.115 183.685 205.115 182.288C205.115 180.892 205.37 179.661 205.879 178.595C206.394 177.524 207.11 176.689 208.027 176.092C208.951 175.488 210.028 175.186 211.259 175.186C211.969 175.186 212.67 175.304 213.363 175.541C214.055 175.778 214.686 176.163 215.254 176.695C215.822 177.222 216.275 177.92 216.612 178.79C216.949 179.661 217.118 180.732 217.118 182.004V182.892H206.607V181.081H214.987C214.987 180.312 214.834 179.625 214.526 179.021C214.224 178.418 213.792 177.941 213.23 177.592C212.673 177.243 212.016 177.068 211.259 177.068C210.424 177.068 209.702 177.275 209.093 177.69C208.489 178.098 208.024 178.631 207.699 179.288C207.373 179.945 207.21 180.649 207.21 181.401V182.608C207.21 183.638 207.388 184.511 207.743 185.227C208.104 185.937 208.604 186.479 209.244 186.852C209.883 187.219 210.626 187.402 211.472 187.402C212.022 187.402 212.519 187.325 212.963 187.171C213.413 187.011 213.801 186.775 214.126 186.461C214.452 186.141 214.703 185.745 214.881 185.271L216.905 185.839C216.692 186.526 216.334 187.13 215.831 187.651C215.328 188.165 214.706 188.568 213.967 188.858C213.227 189.142 212.395 189.284 211.472 189.284ZM220.305 189V175.364H222.329V177.423H222.472C222.72 176.749 223.17 176.201 223.821 175.781C224.472 175.361 225.206 175.151 226.023 175.151C226.177 175.151 226.369 175.154 226.6 175.159C226.831 175.165 227.005 175.174 227.123 175.186V177.317C227.052 177.299 226.89 177.272 226.635 177.237C226.387 177.195 226.123 177.175 225.845 177.175C225.182 177.175 224.59 177.314 224.07 177.592C223.555 177.864 223.146 178.243 222.844 178.728C222.548 179.208 222.4 179.755 222.4 180.371V189H220.305ZM236.392 175.364V177.139H229.325V175.364H236.392ZM231.385 172.097H233.48V185.094C233.48 185.686 233.566 186.129 233.737 186.425C233.915 186.715 234.14 186.911 234.412 187.011C234.69 187.106 234.983 187.153 235.291 187.153C235.522 187.153 235.711 187.142 235.859 187.118C236.007 187.088 236.126 187.065 236.214 187.047L236.641 188.929C236.498 188.982 236.3 189.036 236.046 189.089C235.791 189.148 235.469 189.178 235.078 189.178C234.486 189.178 233.906 189.05 233.338 188.796C232.776 188.541 232.308 188.154 231.935 187.633C231.568 187.112 231.385 186.455 231.385 185.662V172.097ZM244.937 189.284C243.706 189.284 242.626 188.991 241.696 188.405C240.773 187.819 240.051 187 239.53 185.946C239.015 184.893 238.758 183.661 238.758 182.253C238.758 180.832 239.015 179.592 239.53 178.533C240.051 177.474 240.773 176.651 241.696 176.065C242.626 175.479 243.706 175.186 244.937 175.186C246.168 175.186 247.245 175.479 248.168 176.065C249.098 176.651 249.82 177.474 250.335 178.533C250.855 179.592 251.116 180.832 251.116 182.253C251.116 183.661 250.855 184.893 250.335 185.946C249.82 187 249.098 187.819 248.168 188.405C247.245 188.991 246.168 189.284 244.937 189.284ZM244.937 187.402C245.872 187.402 246.641 187.162 247.245 186.683C247.849 186.203 248.296 185.573 248.586 184.792C248.876 184.011 249.021 183.164 249.021 182.253C249.021 181.341 248.876 180.492 248.586 179.705C248.296 178.918 247.849 178.281 247.245 177.796C246.641 177.311 245.872 177.068 244.937 177.068C244.002 177.068 243.232 177.311 242.629 177.796C242.025 178.281 241.578 178.918 241.288 179.705C240.998 180.492 240.853 181.341 240.853 182.253C240.853 183.164 240.998 184.011 241.288 184.792C241.578 185.573 242.025 186.203 242.629 186.683C243.232 187.162 244.002 187.402 244.937 187.402ZM256.409 180.797V189H254.314V175.364H256.338V177.494H256.516C256.835 176.802 257.321 176.246 257.972 175.825C258.623 175.399 259.463 175.186 260.493 175.186C261.416 175.186 262.224 175.375 262.917 175.754C263.609 176.127 264.148 176.695 264.532 177.459C264.917 178.216 265.11 179.175 265.11 180.335V189H263.014V180.477C263.014 179.406 262.736 178.571 262.18 177.974C261.624 177.37 260.86 177.068 259.889 177.068C259.221 177.068 258.623 177.213 258.096 177.503C257.575 177.793 257.164 178.216 256.862 178.773C256.56 179.329 256.409 180.004 256.409 180.797Z" fill="black"/>
<path d="M267.202 165V146.818H273.345C274.772 146.818 275.938 147.076 276.843 147.591C277.754 148.1 278.429 148.789 278.867 149.659C279.305 150.529 279.524 151.5 279.524 152.571C279.524 153.642 279.305 154.616 278.867 155.492C278.435 156.368 277.766 157.066 276.861 157.587C275.955 158.102 274.795 158.359 273.381 158.359H268.977V156.406H273.31C274.286 156.406 275.07 156.238 275.662 155.9C276.254 155.563 276.683 155.107 276.95 154.533C277.222 153.953 277.358 153.299 277.358 152.571C277.358 151.843 277.222 151.192 276.95 150.618C276.683 150.044 276.251 149.594 275.653 149.268C275.056 148.937 274.263 148.771 273.274 148.771H269.403V165H267.202ZM288.18 165.284C286.949 165.284 285.869 164.991 284.94 164.405C284.016 163.819 283.294 163 282.773 161.946C282.259 160.893 282.001 159.661 282.001 158.253C282.001 156.832 282.259 155.592 282.773 154.533C283.294 153.474 284.016 152.651 284.94 152.065C285.869 151.479 286.949 151.186 288.18 151.186C289.411 151.186 290.488 151.479 291.412 152.065C292.341 152.651 293.063 153.474 293.578 154.533C294.099 155.592 294.359 156.832 294.359 158.253C294.359 159.661 294.099 160.893 293.578 161.946C293.063 163 292.341 163.819 291.412 164.405C290.488 164.991 289.411 165.284 288.18 165.284ZM288.18 163.402C289.115 163.402 289.885 163.162 290.488 162.683C291.092 162.203 291.539 161.573 291.829 160.792C292.119 160.011 292.264 159.164 292.264 158.253C292.264 157.341 292.119 156.492 291.829 155.705C291.539 154.918 291.092 154.281 290.488 153.796C289.885 153.311 289.115 153.068 288.18 153.068C287.245 153.068 286.475 153.311 285.872 153.796C285.268 154.281 284.821 154.918 284.531 155.705C284.241 156.492 284.096 157.341 284.096 158.253C284.096 159.164 284.241 160.011 284.531 160.792C284.821 161.573 285.268 162.203 285.872 162.683C286.475 163.162 287.245 163.402 288.18 163.402ZM297.557 165V151.364H299.581V153.423H299.723C299.972 152.749 300.422 152.201 301.073 151.781C301.724 151.361 302.458 151.151 303.275 151.151C303.428 151.151 303.621 151.154 303.852 151.159C304.082 151.165 304.257 151.174 304.375 151.186V153.317C304.304 153.299 304.142 153.272 303.887 153.237C303.639 153.195 303.375 153.175 303.097 153.175C302.434 153.175 301.842 153.314 301.321 153.592C300.807 153.864 300.398 154.243 300.096 154.728C299.8 155.208 299.652 155.755 299.652 156.371V165H297.557ZM313.644 151.364V153.139H306.577V151.364H313.644ZM308.637 148.097H310.732V161.094C310.732 161.686 310.818 162.129 310.989 162.425C311.167 162.715 311.392 162.911 311.664 163.011C311.942 163.106 312.235 163.153 312.543 163.153C312.774 163.153 312.963 163.142 313.111 163.118C313.259 163.088 313.378 163.065 313.466 163.047L313.892 164.929C313.75 164.982 313.552 165.036 313.298 165.089C313.043 165.148 312.721 165.178 312.33 165.178C311.738 165.178 311.158 165.05 310.59 164.796C310.028 164.541 309.56 164.154 309.187 163.633C308.82 163.112 308.637 162.455 308.637 161.662V148.097ZM319.184 146.818V165H317.089V146.818H319.184ZM327.034 165.32C326.17 165.32 325.386 165.157 324.681 164.831C323.977 164.5 323.418 164.023 323.003 163.402C322.589 162.775 322.382 162.017 322.382 161.129C322.382 160.348 322.536 159.715 322.844 159.229C323.151 158.738 323.563 158.353 324.078 158.075C324.593 157.797 325.161 157.59 325.782 157.454C326.41 157.312 327.04 157.199 327.673 157.116C328.502 157.01 329.173 156.93 329.688 156.877C330.209 156.818 330.588 156.72 330.825 156.584C331.067 156.448 331.189 156.211 331.189 155.874V155.803C331.189 154.927 330.949 154.246 330.47 153.761C329.996 153.275 329.277 153.033 328.312 153.033C327.312 153.033 326.528 153.252 325.96 153.69C325.392 154.128 324.992 154.595 324.761 155.092L322.773 154.382C323.128 153.554 323.601 152.908 324.193 152.447C324.791 151.979 325.442 151.654 326.146 151.47C326.856 151.281 327.555 151.186 328.241 151.186C328.679 151.186 329.182 151.239 329.751 151.346C330.325 151.446 330.878 151.657 331.411 151.976C331.949 152.296 332.396 152.778 332.751 153.423C333.106 154.068 333.284 154.933 333.284 156.016V165H331.189V163.153H331.082C330.94 163.449 330.703 163.766 330.372 164.103C330.041 164.441 329.6 164.728 329.049 164.964C328.499 165.201 327.827 165.32 327.034 165.32ZM327.354 163.438C328.182 163.438 328.881 163.275 329.449 162.949C330.023 162.624 330.455 162.203 330.745 161.689C331.041 161.174 331.189 160.632 331.189 160.064V158.146C331.1 158.253 330.905 158.35 330.603 158.439C330.307 158.522 329.964 158.596 329.573 158.661C329.188 158.72 328.812 158.774 328.445 158.821C328.084 158.862 327.791 158.898 327.567 158.928C327.022 158.999 326.513 159.114 326.04 159.274C325.572 159.428 325.193 159.661 324.903 159.975C324.619 160.283 324.477 160.703 324.477 161.236C324.477 161.964 324.746 162.514 325.285 162.887C325.829 163.254 326.519 163.438 327.354 163.438ZM339.203 156.797V165H337.108V151.364H339.132V153.494H339.31C339.629 152.802 340.115 152.246 340.766 151.825C341.417 151.399 342.257 151.186 343.287 151.186C344.21 151.186 345.018 151.375 345.711 151.754C346.403 152.127 346.942 152.695 347.326 153.459C347.711 154.216 347.903 155.175 347.903 156.335V165H345.808V156.477C345.808 155.406 345.53 154.571 344.974 153.974C344.417 153.37 343.654 153.068 342.683 153.068C342.015 153.068 341.417 153.213 340.89 153.503C340.369 153.793 339.958 154.216 339.656 154.773C339.354 155.329 339.203 156.004 339.203 156.797ZM356.881 165.284C355.745 165.284 354.742 164.997 353.872 164.423C353.002 163.843 352.321 163.026 351.83 161.973C351.338 160.913 351.093 159.661 351.093 158.217C351.093 156.785 351.338 155.542 351.83 154.489C352.321 153.435 353.005 152.621 353.881 152.047C354.756 151.473 355.769 151.186 356.917 151.186C357.805 151.186 358.506 151.334 359.021 151.63C359.542 151.92 359.938 152.251 360.21 152.624C360.489 152.991 360.705 153.293 360.858 153.53H361.036V146.818H363.131V165H361.107V162.905H360.858C360.705 163.153 360.486 163.467 360.202 163.846C359.917 164.219 359.512 164.553 358.985 164.849C358.459 165.139 357.757 165.284 356.881 165.284ZM357.165 163.402C358.006 163.402 358.716 163.183 359.296 162.745C359.876 162.301 360.317 161.689 360.619 160.907C360.921 160.12 361.072 159.212 361.072 158.182C361.072 157.164 360.924 156.273 360.628 155.51C360.332 154.74 359.894 154.142 359.314 153.716C358.734 153.284 358.018 153.068 357.165 153.068C356.278 153.068 355.538 153.296 354.946 153.752C354.36 154.202 353.919 154.814 353.623 155.589C353.333 156.359 353.188 157.223 353.188 158.182C353.188 159.152 353.336 160.034 353.632 160.827C353.934 161.615 354.378 162.242 354.964 162.71C355.555 163.171 356.289 163.402 357.165 163.402Z" fill="black"/>
<circle cx="219.511" cy="321.511" r="9.01136" fill="#FFE587" stroke="black"/>
<circle cx="236.511" cy="155.511" r="9.01136" fill="#FFE587" stroke="black"/>
<circle cx="367.511" cy="320.511" r="9.01136" fill="#FFE587" stroke="black"/>
<circle cx="556.511" cy="375.511" r="9.01136" fill="#FFE587" stroke="black"/>
<circle cx="659.511" cy="235.511" r="9.01136" fill="#FFE587" stroke="black"/>
<circle cx="232.511" cy="518.511" r="9.01136" fill="#FFE587" stroke="black"/>
<circle cx="255.511" cy="146.511" r="9.01136" fill="#FFE587" stroke="black"/>
<path d="M28.4542 292H25.0792L34.1218 274.545H38.0252L41.2809 292H37.9059L35.5621 278.125H35.4258L28.4542 292ZM29.6985 285.156H38.9031L38.4769 287.696H29.2724L29.6985 285.156ZM51.342 278.909L50.9414 281.295H43.4244L43.8164 278.909H51.342ZM46.1857 275.773H49.271L47.2255 288.062C47.163 288.477 47.1744 288.795 47.2596 289.017C47.3505 289.233 47.4954 289.381 47.6942 289.46C47.8988 289.54 48.1289 289.58 48.3846 289.58C48.5721 289.58 48.7482 289.565 48.913 289.537C49.0778 289.503 49.2085 289.477 49.305 289.46L49.4414 291.872C49.2539 291.929 49.0011 291.991 48.6829 292.06C48.3704 292.128 47.9954 292.168 47.5579 292.179C46.7738 292.196 46.092 292.077 45.5124 291.821C44.9386 291.56 44.5181 291.159 44.2511 290.619C43.9897 290.074 43.93 289.392 44.0721 288.574L46.1857 275.773ZM58.0046 274.545L55.1069 292H52.0217L54.9194 274.545H58.0046ZM62.0124 292.264C61.1829 292.264 60.4613 292.116 59.8477 291.821C59.234 291.52 58.7823 291.077 58.4925 290.491C58.2085 289.906 58.1374 289.185 58.2795 288.327C58.4045 287.588 58.6431 286.977 58.9954 286.494C59.3533 286.011 59.7908 285.625 60.3079 285.335C60.8306 285.04 61.3988 284.818 62.0124 284.67C62.6317 284.523 63.2624 284.415 63.9045 284.347C64.6886 284.267 65.3221 284.193 65.805 284.125C66.2937 284.057 66.6602 283.955 66.9045 283.818C67.1488 283.676 67.2965 283.46 67.3477 283.17V283.119C67.4499 282.477 67.3477 281.98 67.0408 281.628C66.734 281.276 66.2227 281.099 65.5067 281.099C64.7567 281.099 64.1261 281.264 63.6147 281.594C63.1033 281.923 62.7312 282.312 62.4982 282.761L59.7028 282.352C60.055 281.557 60.538 280.892 61.1516 280.358C61.7653 279.818 62.4727 279.415 63.2738 279.148C64.0806 278.875 64.9414 278.739 65.8562 278.739C66.4812 278.739 67.092 278.812 67.6886 278.96C68.2908 279.108 68.8221 279.352 69.2823 279.693C69.7482 280.028 70.0891 280.486 70.305 281.065C70.5266 281.645 70.5636 282.369 70.4158 283.239L68.9585 292H65.9925L66.2994 290.202H66.1971C65.9528 290.565 65.6346 290.906 65.2425 291.224C64.8505 291.537 64.3846 291.79 63.8448 291.983C63.305 292.17 62.6942 292.264 62.0124 292.264ZM63.18 289.997C63.7994 289.997 64.3562 289.875 64.8505 289.631C65.3448 289.381 65.7511 289.051 66.0692 288.642C66.3874 288.233 66.5863 287.787 66.6658 287.304L66.9215 285.761C66.8079 285.841 66.6317 285.915 66.3931 285.983C66.1545 286.051 65.8874 286.111 65.592 286.162C65.3022 286.213 65.0153 286.259 64.7312 286.298C64.4471 286.338 64.2028 286.372 63.9982 286.401C63.5266 286.463 63.0948 286.565 62.7028 286.707C62.3164 286.849 61.9954 287.048 61.7397 287.304C61.4897 287.554 61.3335 287.878 61.271 288.276C61.18 288.838 61.3136 289.267 61.6715 289.562C62.0295 289.852 62.5323 289.997 63.18 289.997ZM76.4244 284.33L75.163 292H72.0692L74.2511 278.909H77.2085L76.8335 281.134H76.9954C77.4045 280.401 77.9783 279.818 78.717 279.386C79.4556 278.955 80.3164 278.739 81.2994 278.739C82.1914 278.739 82.9414 278.932 83.5494 279.318C84.1573 279.699 84.5891 280.259 84.8448 280.997C85.1005 281.73 85.1403 282.619 84.9641 283.665L83.5664 292H80.4812L81.7852 284.142C81.9329 283.273 81.8221 282.591 81.4528 282.097C81.0891 281.597 80.5039 281.347 79.6971 281.347C79.1573 281.347 78.6602 281.466 78.2056 281.705C77.7511 281.937 77.3675 282.276 77.055 282.719C76.7482 283.162 76.538 283.699 76.4244 284.33ZM95.4045 278.909L95.0039 281.295H87.4869L87.8789 278.909H95.4045ZM90.2482 275.773H93.3335L91.288 288.062C91.2255 288.477 91.2369 288.795 91.3221 289.017C91.413 289.233 91.5579 289.381 91.7567 289.46C91.9613 289.54 92.1914 289.58 92.4471 289.58C92.6346 289.58 92.8107 289.565 92.9755 289.537C93.1403 289.503 93.271 289.477 93.3675 289.46L93.5039 291.872C93.3164 291.929 93.0636 291.991 92.7454 292.06C92.4329 292.128 92.0579 292.168 91.6204 292.179C90.8363 292.196 90.1545 292.077 89.5749 291.821C89.0011 291.56 88.5806 291.159 88.3136 290.619C88.0522 290.074 87.9925 289.392 88.1346 288.574L90.2482 275.773ZM95.8029 292L97.9847 278.909H101.07L98.8881 292H95.8029ZM99.979 277.034C99.4847 277.034 99.0756 276.869 98.7518 276.54C98.4279 276.21 98.2859 275.815 98.3256 275.355C98.3654 274.895 98.5728 274.5 98.9478 274.17C99.3285 273.841 99.7631 273.676 100.252 273.676C100.746 273.676 101.152 273.841 101.471 274.17C101.794 274.5 101.936 274.895 101.897 275.355C101.863 275.815 101.655 276.21 101.275 276.54C100.9 276.869 100.468 277.034 99.979 277.034ZM107.737 292.256C106.43 292.256 105.356 291.969 104.515 291.395C103.674 290.821 103.086 290.028 102.751 289.017C102.422 288 102.368 286.83 102.589 285.506C102.805 284.176 103.251 283.003 103.927 281.986C104.609 280.963 105.467 280.168 106.501 279.599C107.535 279.026 108.691 278.739 109.97 278.739C111.032 278.739 111.939 278.935 112.689 279.327C113.444 279.713 114.007 280.261 114.376 280.972C114.751 281.676 114.896 282.5 114.811 283.443H111.853C111.842 282.812 111.646 282.287 111.265 281.866C110.885 281.44 110.328 281.227 109.595 281.227C108.958 281.227 108.373 281.398 107.839 281.739C107.305 282.074 106.853 282.557 106.484 283.188C106.115 283.818 105.859 284.574 105.717 285.455C105.569 286.347 105.572 287.114 105.725 287.756C105.885 288.392 106.172 288.884 106.586 289.23C107.007 289.571 107.538 289.741 108.18 289.741C108.635 289.741 109.058 289.656 109.45 289.486C109.842 289.31 110.186 289.057 110.481 288.727C110.782 288.398 111.018 287.997 111.189 287.526H114.137C113.904 288.452 113.49 289.273 112.893 289.989C112.302 290.699 111.569 291.256 110.694 291.659C109.819 292.057 108.833 292.256 107.737 292.256ZM50.5952 312.477C50.2884 314.33 49.6832 315.909 48.7798 317.216C47.8821 318.517 46.7855 319.514 45.4901 320.207C44.2003 320.895 42.8111 321.239 41.3224 321.239C39.7599 321.239 38.419 320.875 37.2997 320.148C36.1804 319.415 35.3736 318.366 34.8793 317.003C34.3906 315.639 34.3054 314.003 34.6236 312.094C34.9304 310.247 35.5327 308.668 36.4304 307.355C37.3281 306.043 38.4276 305.04 39.7287 304.347C41.0298 303.653 42.4332 303.307 43.9389 303.307C45.4901 303.307 46.8196 303.673 47.9276 304.406C49.0412 305.134 49.8423 306.182 50.331 307.551C50.8253 308.92 50.9134 310.562 50.5952 312.477ZM47.4844 312.094C47.6946 310.804 47.6747 309.716 47.4247 308.83C47.1804 307.943 46.7457 307.276 46.1207 306.827C45.4957 306.372 44.7259 306.145 43.8111 306.145C42.8224 306.145 41.9077 306.392 41.0668 306.886C40.2315 307.375 39.5213 308.091 38.9361 309.034C38.3565 309.977 37.9588 311.125 37.7429 312.477C37.5156 313.773 37.5298 314.861 37.7855 315.741C38.0412 316.622 38.4844 317.287 39.1151 317.736C39.7457 318.179 40.5156 318.401 41.4247 318.401C42.4077 318.401 43.3168 318.156 44.152 317.668C44.9872 317.179 45.6946 316.466 46.2741 315.528C46.8594 314.591 47.2628 313.446 47.4844 312.094ZM57.7095 321.256C56.4027 321.256 55.3288 320.969 54.4879 320.395C53.647 319.821 53.0589 319.028 52.7237 318.017C52.3942 317 52.3402 315.83 52.5618 314.506C52.7777 313.176 53.2237 312.003 53.8999 310.986C54.5817 309.963 55.4396 309.168 56.4737 308.599C57.5078 308.026 58.6641 307.739 59.9425 307.739C61.005 307.739 61.9112 307.935 62.6612 308.327C63.4169 308.713 63.9794 309.261 64.3487 309.972C64.7237 310.676 64.8686 311.5 64.7834 312.443H61.826C61.8146 311.812 61.6186 311.287 61.2379 310.866C60.8572 310.44 60.3004 310.227 59.5675 310.227C58.9311 310.227 58.3459 310.398 57.8118 310.739C57.2777 311.074 56.826 311.557 56.4567 312.188C56.0874 312.818 55.8317 313.574 55.6896 314.455C55.5419 315.347 55.5447 316.114 55.6982 316.756C55.8572 317.392 56.1442 317.884 56.5589 318.23C56.9794 318.571 57.5107 318.741 58.1527 318.741C58.6072 318.741 59.0305 318.656 59.4226 318.486C59.8146 318.31 60.1584 318.057 60.4538 317.727C60.755 317.398 60.9908 316.997 61.1612 316.526H64.1101C63.8771 317.452 63.4624 318.273 62.8658 318.989C62.2749 319.699 61.5419 320.256 60.6669 320.659C59.7919 321.057 58.8061 321.256 57.7095 321.256ZM71.6463 321.256C70.3338 321.256 69.2486 320.983 68.3906 320.438C67.5327 319.886 66.9304 319.108 66.5838 318.102C66.2429 317.091 66.1861 315.901 66.4134 314.531C66.6349 313.185 67.0866 312.003 67.7685 310.986C68.4503 309.963 69.3026 309.168 70.3253 308.599C71.3537 308.026 72.4901 307.739 73.7344 307.739C74.5412 307.739 75.2827 307.869 75.9588 308.131C76.6349 308.386 77.206 308.784 77.6719 309.324C78.1378 309.864 78.4588 310.551 78.6349 311.386C78.8111 312.216 78.8026 313.205 78.6094 314.352L78.4645 315.298H67.7259L68.0582 313.219H75.831C75.9332 312.628 75.8991 312.102 75.7287 311.642C75.5582 311.176 75.2741 310.81 74.8764 310.543C74.4787 310.276 73.9815 310.142 73.3849 310.142C72.777 310.142 72.2088 310.298 71.6804 310.611C71.1577 310.918 70.7173 311.315 70.3594 311.804C70.0014 312.293 69.7741 312.807 69.6776 313.347L69.3281 315.341C69.2031 316.159 69.2315 316.827 69.4134 317.344C69.5952 317.861 69.9134 318.241 70.3679 318.486C70.8224 318.73 71.3963 318.852 72.0895 318.852C72.544 318.852 72.9645 318.79 73.3509 318.665C73.7372 318.54 74.081 318.352 74.3821 318.102C74.6889 317.847 74.9446 317.534 75.1491 317.165L77.9702 317.489C77.6577 318.25 77.2003 318.915 76.598 319.483C75.9957 320.045 75.2741 320.483 74.4332 320.795C73.598 321.102 72.669 321.256 71.6463 321.256ZM83.8679 321.264C83.0384 321.264 82.3168 321.116 81.7031 320.821C81.0895 320.52 80.6378 320.077 80.348 319.491C80.0639 318.906 79.9929 318.185 80.1349 317.327C80.2599 316.588 80.4986 315.977 80.8509 315.494C81.2088 315.011 81.6463 314.625 82.1634 314.335C82.6861 314.04 83.2543 313.818 83.8679 313.67C84.4872 313.523 85.1179 313.415 85.7599 313.347C86.544 313.267 87.1776 313.193 87.6605 313.125C88.1491 313.057 88.5156 312.955 88.7599 312.818C89.0043 312.676 89.152 312.46 89.2031 312.17V312.119C89.3054 311.477 89.2031 310.98 88.8963 310.628C88.5895 310.276 88.0781 310.099 87.3622 310.099C86.6122 310.099 85.9815 310.264 85.4702 310.594C84.9588 310.923 84.5866 311.312 84.3537 311.761L81.5582 311.352C81.9105 310.557 82.3935 309.892 83.0071 309.358C83.6207 308.818 84.3281 308.415 85.1293 308.148C85.9361 307.875 86.7969 307.739 87.7116 307.739C88.3366 307.739 88.9474 307.812 89.544 307.96C90.1463 308.108 90.6776 308.352 91.1378 308.693C91.6037 309.028 91.9446 309.486 92.1605 310.065C92.3821 310.645 92.419 311.369 92.2713 312.239L90.8139 321H87.848L88.1548 319.202H88.0526C87.8082 319.565 87.4901 319.906 87.098 320.224C86.706 320.537 86.2401 320.79 85.7003 320.983C85.1605 321.17 84.5497 321.264 83.8679 321.264ZM85.0355 318.997C85.6548 318.997 86.2116 318.875 86.706 318.631C87.2003 318.381 87.6065 318.051 87.9247 317.642C88.2429 317.233 88.4418 316.787 88.5213 316.304L88.777 314.761C88.6634 314.841 88.4872 314.915 88.2486 314.983C88.0099 315.051 87.7429 315.111 87.4474 315.162C87.1577 315.213 86.8707 315.259 86.5866 315.298C86.3026 315.338 86.0582 315.372 85.8537 315.401C85.3821 315.463 84.9503 315.565 84.5582 315.707C84.1719 315.849 83.8509 316.048 83.5952 316.304C83.3452 316.554 83.1889 316.878 83.1264 317.276C83.0355 317.838 83.169 318.267 83.527 318.562C83.8849 318.852 84.3878 318.997 85.0355 318.997ZM98.2798 313.33L97.0185 321H93.9247L96.1065 307.909H99.0639L98.6889 310.134H98.8509C99.2599 309.401 99.8338 308.818 100.572 308.386C101.311 307.955 102.172 307.739 103.155 307.739C104.047 307.739 104.797 307.932 105.405 308.318C106.013 308.699 106.445 309.259 106.7 309.997C106.956 310.73 106.996 311.619 106.82 312.665L105.422 321H102.337L103.641 313.142C103.788 312.273 103.678 311.591 103.308 311.097C102.945 310.597 102.359 310.347 101.553 310.347C101.013 310.347 100.516 310.466 100.061 310.705C99.6065 310.937 99.223 311.276 98.9105 311.719C98.6037 312.162 98.3935 312.699 98.2798 313.33Z" fill="#017D83"/>
<defs>
<filter id="filter0_d_226_364" x="90.5" y="63.4697" width="688.54" height="504.53" filterUnits="userSpaceOnUse" color-interpolation-filters="sRGB">
<feFlood flood-opacity="0" result="BackgroundImageFix"/>
<feColorMatrix in="SourceAlpha" type="matrix" values="0 0 0 0 0 0 0 0 0 0 0 0 0 0 0 0 0 0 127 0" result="hardAlpha"/>
<feOffset dy="4"/>
<feGaussianBlur stdDeviation="2"/>
<feComposite in2="hardAlpha" operator="out"/>
<feColorMatrix type="matrix" values="0 0 0 0 0 0 0 0 0 0 0 0 0 0 0 0 0 0 0.25 0"/>
<feBlend mode="normal" in2="BackgroundImageFix" result="effect1_dropShadow_226_364"/>
<feBlend mode="normal" in="SourceGraphic" in2="effect1_dropShadow_226_364" result="shape"/>
</filter>
</defs>
</svg>
