<svg width="984" height="668" viewBox="0 0 984 668" fill="none" xmlns="http://www.w3.org/2000/svg">
<rect x="0.5" y="0.5" width="983" height="667" rx="35.5" fill="#97DCFF" stroke="#717171"/>
<g filter="url(#filter0_d_93_82)">
<path d="M824 141L219 141.615V92L205.5 98.5L196.5 103L183 112L176 114L167.5 120L154.5 129L135.5 136.5L115 145.5V555L766.5 554L770 547.5L774.5 541.5L781 537L788 535L795 534H802.5L809.5 537L815.5 539.5L822 534L830.5 530L839 529.5L846 526.5L854.024 523.5L854.5 513.5L860.5 509L864.5 507.5L866.5 502.5L870.5 501.5L874.5 498.5L880.5 493.5L888 491.5L894 488.5L898 482L903.5 483L911 478L910 474.5L903.5 465.5L893.5 458.5L891 452L884.5 447L880.5 442.5L878.5 435L876 432.5L872 431L868 431.5L864 428.5V421V408.5L859.5 402L856 401.5L847.5 402L845.5 395V389L848 384L845 380.5L847.5 372L846.5 369.5L849 364.5L855 365L859 361.5L860.5 351.5L864.5 352L865.5 348L854.5 327L869.5 317L871 312L877 308.5L875.5 307L876 304.5L880.5 302L884 298.5L889.5 290.5L891 286.5L892.5 280.5L896 272.5L905.5 263L915.5 258L913.5 254L909 250V245.5L905.5 247H901L899 244L894.5 245L892 243L888 243.5V240.5L882 236L879.5 237L875 236V232L873 231.5L872.5 228.5L870 227.5L871 224.5L863 213.5L867 210.5L866.5 203L864.613 202L865.5 198.5L864.613 196L866.5 191L864.613 185L859.5 181.5L863 175.5L858.5 174L852 167.5L837.5 165.5L833 149L828 147.5L824 141Z" fill="#FFD597"/>
<path d="M824 141L219 141.615V92L205.5 98.5L196.5 103L183 112L176 114L167.5 120L154.5 129L135.5 136.5L115 145.5V555L766.5 554L770 547.5L774.5 541.5L781 537L788 535L795 534H802.5L809.5 537L815.5 539.5L822 534L830.5 530L839 529.5L846 526.5L854.024 523.5L854.5 513.5L860.5 509L864.5 507.5L866.5 502.5L870.5 501.5L874.5 498.5L880.5 493.5L888 491.5L894 488.5L898 482L903.5 483L911 478L910 474.5L903.5 465.5L893.5 458.5L891 452L884.5 447L880.5 442.5L878.5 435L876 432.5L872 431L868 431.5L864 428.5V421V408.5L859.5 402L856 401.5L847.5 402L845.5 395V389L848 384L845 380.5L847.5 372L846.5 369.5L849 364.5L855 365L859 361.5L860.5 351.5L864.5 352L865.5 348L854.5 327L869.5 317L871 312L877 308.5L875.5 307L876 304.5L880.5 302L884 298.5L889.5 290.5L891 286.5L892.5 280.5L896 272.5L905.5 263L915.5 258L913.5 254L909 250V245.5L905.5 247H901L899 244L894.5 245L892 243L888 243.5V240.5L882 236L879.5 237L875 236V232L873 231.5L872.5 228.5L870 227.5L871 224.5L863 213.5L867 210.5L866.5 203L864.613 202L865.5 198.5L864.613 196L866.5 191L864.613 185L859.5 181.5L863 175.5L858.5 174L852 167.5L837.5 165.5L833 149L828 147.5L824 141Z" stroke="black"/>
</g>
<path d="M540.065 83.5455V101H537.253L529.028 89.1108H528.884V101H525.722V83.5455H528.551L536.767 95.4432H536.92V83.5455H540.065ZM542.317 83.5455H545.888L550.158 91.267H550.329L554.599 83.5455H558.17L551.82 94.4886V101H548.667V94.4886L542.317 83.5455Z" fill="#005A5E"/>
<path d="M68.3182 274.273C68.3182 276.153 67.9659 277.764 67.2614 279.105C66.5625 280.44 65.608 281.463 64.3977 282.173C63.1932 282.884 61.8267 283.239 60.2983 283.239C58.7699 283.239 57.4006 282.884 56.1903 282.173C54.9858 281.457 54.0313 280.432 53.3267 279.097C52.6278 277.756 52.2784 276.148 52.2784 274.273C52.2784 272.392 52.6278 270.784 53.3267 269.449C54.0313 268.108 54.9858 267.082 56.1903 266.372C57.4006 265.662 58.7699 265.307 60.2983 265.307C61.8267 265.307 63.1932 265.662 64.3977 266.372C65.608 267.082 66.5625 268.108 67.2614 269.449C67.9659 270.784 68.3182 272.392 68.3182 274.273ZM65.1392 274.273C65.1392 272.949 64.9318 271.832 64.517 270.923C64.108 270.009 63.5398 269.318 62.8125 268.852C62.0852 268.381 61.2472 268.145 60.2983 268.145C59.3494 268.145 58.5114 268.381 57.7841 268.852C57.0568 269.318 56.4858 270.009 56.071 270.923C55.6619 271.832 55.4574 272.949 55.4574 274.273C55.4574 275.597 55.6619 276.716 56.071 277.631C56.4858 278.54 57.0568 279.23 57.7841 279.702C58.5114 280.168 59.3494 280.401 60.2983 280.401C61.2472 280.401 62.0852 280.168 62.8125 279.702C63.5398 279.23 64.108 278.54 64.517 277.631C64.9318 276.716 65.1392 275.597 65.1392 274.273ZM71.3075 283V265.545H74.4695V272.935H82.5575V265.545H85.728V283H82.5575V275.585H74.4695V283H71.3075Z" fill="#005A5E"/>
<path d="M140.395 602L135.469 584.545H138.869L142.014 597.372H142.176L145.534 584.545H148.628L151.994 597.381H152.148L155.293 584.545H158.693L153.767 602H150.648L147.153 589.753H147.017L143.514 602H140.395ZM163.221 584.545L167.763 598.284H167.942L172.477 584.545H175.954L169.8 602H165.897L159.752 584.545H163.221Z" fill="#005A5E"/>
<path d="M579.722 584.545H583.591L588.773 597.193H588.977L594.159 584.545H598.028V602H594.994V590.009H594.832L590.009 601.949H587.741L582.918 589.983H582.756V602H579.722V584.545ZM607.386 602H601.472V584.545H607.506C609.239 584.545 610.727 584.895 611.972 585.594C613.222 586.287 614.182 587.284 614.852 588.585C615.523 589.886 615.858 591.443 615.858 593.256C615.858 595.074 615.52 596.636 614.844 597.943C614.173 599.25 613.205 600.253 611.938 600.952C610.676 601.651 609.159 602 607.386 602ZM604.634 599.264H607.233C608.449 599.264 609.463 599.043 610.276 598.599C611.088 598.151 611.699 597.483 612.108 596.597C612.517 595.705 612.722 594.591 612.722 593.256C612.722 591.92 612.517 590.812 612.108 589.932C611.699 589.045 611.094 588.384 610.293 587.946C609.497 587.503 608.509 587.281 607.327 587.281H604.634V599.264Z" fill="#005A5E"/>
<path d="M785.636 602H779.722V584.545H785.756C787.489 584.545 788.977 584.895 790.222 585.594C791.472 586.287 792.432 587.284 793.102 588.585C793.773 589.886 794.108 591.443 794.108 593.256C794.108 595.074 793.77 596.636 793.094 597.943C792.423 599.25 791.455 600.253 790.188 600.952C788.926 601.651 787.409 602 785.636 602ZM782.884 599.264H785.483C786.699 599.264 787.713 599.043 788.526 598.599C789.338 598.151 789.949 597.483 790.358 596.597C790.767 595.705 790.972 594.591 790.972 593.256C790.972 591.92 790.767 590.812 790.358 589.932C789.949 589.045 789.344 588.384 788.543 587.946C787.747 587.503 786.759 587.281 785.577 587.281H782.884V599.264ZM797.112 602V584.545H808.464V587.196H800.274V591.935H807.876V594.585H800.274V599.349H808.533V602H797.112Z" fill="#005A5E"/>
<circle cx="611.511" cy="457.511" r="9.01136" fill="#FF8F87" stroke="black"/>
<path d="M525.58 492V473.818H529.424V481.32H537.228V473.818H541.063V492H537.228V484.489H529.424V492H525.58ZM548.05 492.257C547.18 492.257 546.405 492.107 545.724 491.805C545.043 491.497 544.505 491.044 544.108 490.446C543.718 489.843 543.522 489.091 543.522 488.191C543.522 487.434 543.661 486.798 543.94 486.283C544.218 485.768 544.597 485.353 545.076 485.04C545.555 484.726 546.1 484.489 546.71 484.33C547.325 484.17 547.97 484.057 548.645 483.992C549.438 483.909 550.077 483.832 550.562 483.761C551.048 483.684 551.4 483.572 551.619 483.424C551.838 483.276 551.947 483.057 551.947 482.767V482.714C551.947 482.152 551.77 481.717 551.415 481.409C551.066 481.101 550.568 480.947 549.923 480.947C549.243 480.947 548.701 481.098 548.299 481.4C547.896 481.696 547.63 482.069 547.5 482.518L544.002 482.234C544.179 481.406 544.529 480.69 545.049 480.086C545.57 479.476 546.242 479.009 547.065 478.683C547.893 478.352 548.852 478.186 549.941 478.186C550.699 478.186 551.424 478.275 552.116 478.452C552.815 478.63 553.433 478.905 553.972 479.278C554.516 479.651 554.945 480.13 555.259 480.716C555.573 481.296 555.729 481.992 555.729 482.803V492H552.143V490.109H552.036C551.817 490.535 551.524 490.911 551.157 491.237C550.79 491.556 550.349 491.808 549.835 491.991C549.32 492.169 548.725 492.257 548.05 492.257ZM549.133 489.647C549.69 489.647 550.181 489.538 550.607 489.319C551.033 489.094 551.367 488.792 551.61 488.413C551.853 488.035 551.974 487.605 551.974 487.126V485.679C551.856 485.756 551.693 485.827 551.486 485.892C551.285 485.951 551.057 486.007 550.802 486.061C550.548 486.108 550.293 486.152 550.039 486.194C549.784 486.229 549.553 486.262 549.346 486.292C548.902 486.357 548.515 486.46 548.183 486.602C547.852 486.744 547.594 486.937 547.411 487.179C547.227 487.416 547.136 487.712 547.136 488.067C547.136 488.582 547.322 488.976 547.695 489.248C548.074 489.514 548.553 489.647 549.133 489.647ZM558.664 492V478.364H562.33V480.743H562.472C562.721 479.897 563.138 479.257 563.724 478.825C564.31 478.387 564.985 478.168 565.748 478.168C565.937 478.168 566.142 478.18 566.361 478.204C566.58 478.228 566.772 478.26 566.938 478.301V481.657C566.76 481.604 566.515 481.557 566.201 481.515C565.887 481.474 565.6 481.453 565.34 481.453C564.783 481.453 564.286 481.574 563.848 481.817C563.416 482.054 563.073 482.385 562.818 482.811C562.57 483.238 562.445 483.729 562.445 484.285V492H558.664ZM568.893 492V478.364H572.56V480.743H572.702C572.95 479.897 573.367 479.257 573.953 478.825C574.539 478.387 575.214 478.168 575.978 478.168C576.167 478.168 576.371 478.18 576.59 478.204C576.809 478.228 577.001 478.26 577.167 478.301V481.657C576.99 481.604 576.744 481.557 576.43 481.515C576.117 481.474 575.83 481.453 575.569 481.453C575.013 481.453 574.516 481.574 574.078 481.817C573.646 482.054 573.302 482.385 573.048 482.811C572.799 483.238 572.675 483.729 572.675 484.285V492H568.893ZM579.123 492V478.364H582.904V492H579.123ZM581.022 476.606C580.46 476.606 579.978 476.419 579.575 476.047C579.179 475.668 578.98 475.215 578.98 474.688C578.98 474.167 579.179 473.721 579.575 473.348C579.978 472.969 580.46 472.779 581.022 472.779C581.585 472.779 582.064 472.969 582.461 473.348C582.863 473.721 583.064 474.167 583.064 474.688C583.064 475.215 582.863 475.668 582.461 476.047C582.064 476.419 581.585 476.606 581.022 476.606ZM597.28 482.252L593.818 482.465C593.758 482.169 593.631 481.903 593.436 481.666C593.241 481.424 592.983 481.231 592.663 481.089C592.35 480.941 591.974 480.867 591.536 480.867C590.95 480.867 590.456 480.991 590.053 481.24C589.651 481.483 589.45 481.808 589.45 482.217C589.45 482.542 589.58 482.817 589.84 483.042C590.101 483.267 590.548 483.448 591.181 483.584L593.649 484.081C594.975 484.353 595.963 484.791 596.614 485.395C597.265 485.999 597.591 486.792 597.591 487.774C597.591 488.668 597.327 489.452 596.801 490.127C596.28 490.801 595.564 491.328 594.652 491.707C593.747 492.08 592.702 492.266 591.518 492.266C589.713 492.266 588.275 491.891 587.204 491.139C586.138 490.381 585.514 489.351 585.33 488.049L589.05 487.854C589.163 488.404 589.435 488.825 589.867 489.115C590.299 489.399 590.852 489.541 591.527 489.541C592.19 489.541 592.723 489.414 593.125 489.159C593.533 488.899 593.741 488.564 593.747 488.156C593.741 487.813 593.596 487.531 593.312 487.312C593.027 487.088 592.589 486.916 591.998 486.798L589.636 486.327C588.304 486.061 587.313 485.599 586.662 484.942C586.017 484.285 585.694 483.448 585.694 482.43C585.694 481.554 585.931 480.799 586.405 480.166C586.884 479.533 587.556 479.044 588.42 478.701C589.29 478.358 590.308 478.186 591.474 478.186C593.196 478.186 594.551 478.55 595.54 479.278C596.534 480.006 597.114 480.997 597.28 482.252ZM600.043 492V473.818H603.825V480.654H603.941C604.106 480.287 604.346 479.914 604.66 479.536C604.979 479.151 605.394 478.831 605.903 478.577C606.417 478.316 607.057 478.186 607.82 478.186C608.814 478.186 609.732 478.446 610.572 478.967C611.413 479.482 612.084 480.261 612.588 481.302C613.091 482.338 613.342 483.637 613.342 485.2C613.342 486.721 613.097 488.005 612.605 489.053C612.12 490.094 611.457 490.884 610.617 491.423C609.782 491.956 608.847 492.222 607.811 492.222C607.077 492.222 606.453 492.101 605.938 491.858C605.429 491.615 605.012 491.31 604.686 490.944C604.361 490.571 604.112 490.195 603.941 489.816H603.772V492H600.043ZM603.745 485.182C603.745 485.993 603.858 486.7 604.083 487.304C604.307 487.907 604.633 488.378 605.059 488.715C605.485 489.047 606.003 489.212 606.613 489.212C607.228 489.212 607.749 489.044 608.175 488.706C608.601 488.363 608.924 487.89 609.143 487.286C609.368 486.676 609.48 485.975 609.48 485.182C609.48 484.395 609.371 483.702 609.152 483.104C608.933 482.507 608.61 482.039 608.184 481.702C607.758 481.364 607.234 481.196 606.613 481.196C605.997 481.196 605.476 481.358 605.05 481.684C604.63 482.009 604.307 482.471 604.083 483.069C603.858 483.667 603.745 484.371 603.745 485.182ZM624.61 486.194V478.364H628.392V492H624.761V489.523H624.619C624.311 490.322 623.8 490.964 623.083 491.45C622.373 491.935 621.506 492.178 620.482 492.178C619.571 492.178 618.769 491.97 618.076 491.556C617.384 491.142 616.842 490.553 616.452 489.789C616.067 489.026 615.872 488.112 615.866 487.046V478.364H619.648V486.371C619.654 487.176 619.87 487.813 620.296 488.28C620.722 488.748 621.293 488.982 622.009 488.982C622.465 488.982 622.891 488.878 623.288 488.671C623.684 488.458 624.004 488.144 624.246 487.73C624.495 487.315 624.616 486.804 624.61 486.194ZM631.417 492V478.364H635.084V480.743H635.226C635.475 479.897 635.892 479.257 636.478 478.825C637.064 478.387 637.738 478.168 638.502 478.168C638.691 478.168 638.896 478.18 639.115 478.204C639.334 478.228 639.526 478.26 639.692 478.301V481.657C639.514 481.604 639.268 481.557 638.955 481.515C638.641 481.474 638.354 481.453 638.094 481.453C637.537 481.453 637.04 481.574 636.602 481.817C636.17 482.054 635.827 482.385 635.572 482.811C635.324 483.238 635.199 483.729 635.199 484.285V492H631.417ZM647.156 497.398C645.93 497.398 644.88 497.229 644.004 496.892C643.134 496.56 642.441 496.107 641.927 495.533C641.412 494.959 641.077 494.314 640.923 493.598L644.421 493.127C644.528 493.4 644.696 493.654 644.927 493.891C645.158 494.128 645.463 494.317 645.842 494.459C646.226 494.607 646.694 494.681 647.244 494.681C648.067 494.681 648.745 494.48 649.277 494.077C649.816 493.681 650.085 493.015 650.085 492.08V489.585H649.926C649.76 489.964 649.511 490.322 649.18 490.659C648.848 490.997 648.422 491.272 647.901 491.485C647.381 491.698 646.759 491.805 646.037 491.805C645.013 491.805 644.081 491.568 643.241 491.094C642.406 490.615 641.74 489.884 641.243 488.902C640.752 487.913 640.506 486.664 640.506 485.155C640.506 483.61 640.758 482.32 641.261 481.284C641.764 480.249 642.433 479.473 643.267 478.958C644.108 478.444 645.028 478.186 646.028 478.186C646.792 478.186 647.431 478.316 647.946 478.577C648.461 478.831 648.875 479.151 649.189 479.536C649.508 479.914 649.754 480.287 649.926 480.654H650.068V478.364H653.823V492.133C653.823 493.293 653.539 494.264 652.971 495.045C652.402 495.826 651.615 496.412 650.609 496.803C649.609 497.199 648.458 497.398 647.156 497.398ZM647.236 488.964C647.845 488.964 648.36 488.813 648.78 488.511C649.206 488.203 649.532 487.765 649.757 487.197C649.988 486.623 650.103 485.936 650.103 485.137C650.103 484.338 649.991 483.646 649.766 483.06C649.541 482.468 649.215 482.009 648.789 481.684C648.363 481.358 647.845 481.196 647.236 481.196C646.614 481.196 646.09 481.364 645.664 481.702C645.238 482.033 644.915 482.495 644.696 483.087C644.477 483.679 644.368 484.362 644.368 485.137C644.368 485.925 644.477 486.605 644.696 487.179C644.921 487.748 645.244 488.188 645.664 488.502C646.09 488.81 646.614 488.964 647.236 488.964Z" fill="black"/>
<path d="M137.202 459V440.818H143.345C144.772 440.818 145.938 441.076 146.843 441.591C147.754 442.1 148.429 442.789 148.867 443.659C149.305 444.529 149.524 445.5 149.524 446.571C149.524 447.642 149.305 448.616 148.867 449.492C148.435 450.368 147.766 451.066 146.861 451.587C145.955 452.102 144.795 452.359 143.381 452.359H138.977V450.406H143.31C144.286 450.406 145.07 450.238 145.662 449.9C146.254 449.563 146.683 449.107 146.95 448.533C147.222 447.953 147.358 447.299 147.358 446.571C147.358 445.843 147.222 445.192 146.95 444.618C146.683 444.044 146.251 443.594 145.653 443.268C145.056 442.937 144.263 442.771 143.274 442.771H139.403V459H137.202ZM152.787 459V445.364H154.882V459H152.787ZM153.852 443.091C153.444 443.091 153.092 442.952 152.796 442.674C152.506 442.395 152.361 442.061 152.361 441.67C152.361 441.28 152.506 440.945 152.796 440.667C153.092 440.389 153.444 440.25 153.852 440.25C154.26 440.25 154.61 440.389 154.9 440.667C155.196 440.945 155.344 441.28 155.344 441.67C155.344 442.061 155.196 442.395 154.9 442.674C154.61 442.952 154.26 443.091 153.852 443.091ZM164.65 445.364V447.139H157.583V445.364H164.65ZM159.643 442.097H161.738V455.094C161.738 455.686 161.824 456.129 161.995 456.425C162.173 456.715 162.398 456.911 162.67 457.011C162.948 457.106 163.241 457.153 163.549 457.153C163.78 457.153 163.969 457.142 164.117 457.118C164.265 457.088 164.383 457.065 164.472 457.047L164.898 458.929C164.756 458.982 164.558 459.036 164.304 459.089C164.049 459.148 163.726 459.178 163.336 459.178C162.744 459.178 162.164 459.05 161.596 458.796C161.034 458.541 160.566 458.154 160.193 457.633C159.826 457.112 159.643 456.455 159.643 455.662V442.097ZM173.732 445.364V447.139H166.665V445.364H173.732ZM168.725 442.097H170.82V455.094C170.82 455.686 170.906 456.129 171.077 456.425C171.255 456.715 171.48 456.911 171.752 457.011C172.03 457.106 172.323 457.153 172.631 457.153C172.862 457.153 173.051 457.142 173.199 457.118C173.347 457.088 173.465 457.065 173.554 457.047L173.98 458.929C173.838 458.982 173.64 459.036 173.386 459.089C173.131 459.148 172.809 459.178 172.418 459.178C171.826 459.178 171.246 459.05 170.678 458.796C170.116 458.541 169.648 458.154 169.275 457.633C168.908 457.112 168.725 456.455 168.725 455.662V442.097ZM186.298 448.418L184.416 448.95C184.298 448.637 184.123 448.332 183.892 448.036C183.668 447.734 183.36 447.485 182.969 447.29C182.579 447.095 182.078 446.997 181.469 446.997C180.634 446.997 179.939 447.19 179.383 447.574C178.832 447.953 178.557 448.435 178.557 449.021C178.557 449.542 178.746 449.953 179.125 450.255C179.504 450.557 180.096 450.809 180.901 451.01L182.925 451.507C184.144 451.803 185.053 452.256 185.65 452.865C186.248 453.469 186.547 454.247 186.547 455.2C186.547 455.982 186.322 456.68 185.872 457.295C185.428 457.911 184.807 458.396 184.008 458.751C183.209 459.107 182.28 459.284 181.22 459.284C179.829 459.284 178.678 458.982 177.767 458.379C176.855 457.775 176.278 456.893 176.036 455.733L178.024 455.236C178.214 455.97 178.572 456.52 179.098 456.887C179.631 457.254 180.327 457.438 181.185 457.438C182.161 457.438 182.937 457.23 183.511 456.816C184.091 456.396 184.381 455.893 184.381 455.307C184.381 454.833 184.215 454.437 183.884 454.117C183.552 453.792 183.043 453.549 182.357 453.389L180.084 452.857C178.835 452.561 177.918 452.102 177.332 451.48C176.752 450.853 176.462 450.069 176.462 449.128C176.462 448.358 176.678 447.678 177.11 447.086C177.548 446.494 178.143 446.029 178.894 445.692C179.652 445.355 180.51 445.186 181.469 445.186C182.818 445.186 183.878 445.482 184.647 446.074C185.422 446.666 185.973 447.447 186.298 448.418ZM189.985 459V440.818H192.08V447.53H192.258C192.412 447.293 192.625 446.991 192.897 446.624C193.175 446.251 193.572 445.92 194.086 445.63C194.607 445.334 195.312 445.186 196.199 445.186C197.348 445.186 198.36 445.473 199.236 446.047C200.112 446.621 200.795 447.435 201.286 448.489C201.778 449.542 202.023 450.785 202.023 452.217C202.023 453.661 201.778 454.913 201.286 455.973C200.795 457.026 200.115 457.843 199.244 458.423C198.374 458.997 197.371 459.284 196.235 459.284C195.359 459.284 194.658 459.139 194.131 458.849C193.604 458.553 193.199 458.219 192.915 457.846C192.631 457.467 192.412 457.153 192.258 456.905H192.009V459H189.985ZM192.045 452.182C192.045 453.212 192.195 454.12 192.497 454.907C192.799 455.689 193.24 456.301 193.82 456.745C194.4 457.183 195.11 457.402 195.951 457.402C196.827 457.402 197.558 457.171 198.144 456.71C198.735 456.242 199.179 455.615 199.475 454.827C199.777 454.034 199.928 453.152 199.928 452.182C199.928 451.223 199.78 450.359 199.484 449.589C199.194 448.814 198.753 448.202 198.161 447.752C197.575 447.296 196.839 447.068 195.951 447.068C195.099 447.068 194.382 447.284 193.802 447.716C193.222 448.142 192.784 448.74 192.488 449.51C192.193 450.273 192.045 451.164 192.045 452.182ZM213.822 453.425V445.364H215.917V459H213.822V456.692H213.68C213.36 457.384 212.863 457.973 212.188 458.458C211.514 458.938 210.661 459.178 209.632 459.178C208.779 459.178 208.022 458.991 207.359 458.618C206.696 458.239 206.175 457.671 205.796 456.914C205.418 456.15 205.228 455.188 205.228 454.028V445.364H207.323V453.886C207.323 454.881 207.602 455.674 208.158 456.266C208.72 456.857 209.436 457.153 210.306 457.153C210.827 457.153 211.357 457.02 211.895 456.754C212.44 456.488 212.896 456.079 213.263 455.529C213.635 454.978 213.822 454.277 213.822 453.425ZM219.755 459V445.364H221.779V447.423H221.921C222.169 446.749 222.619 446.201 223.27 445.781C223.921 445.361 224.655 445.151 225.472 445.151C225.626 445.151 225.818 445.154 226.049 445.159C226.28 445.165 226.454 445.174 226.573 445.186V447.317C226.502 447.299 226.339 447.272 226.084 447.237C225.836 447.195 225.572 447.175 225.294 447.175C224.631 447.175 224.04 447.314 223.519 447.592C223.004 447.864 222.595 448.243 222.294 448.728C221.998 449.208 221.85 449.755 221.85 450.371V459H219.755ZM234.146 464.398C233.133 464.398 232.263 464.268 231.535 464.007C230.807 463.753 230.201 463.415 229.715 462.995C229.236 462.581 228.854 462.137 228.57 461.663L230.239 460.491C230.429 460.74 230.668 461.024 230.958 461.344C231.248 461.669 231.645 461.95 232.148 462.187C232.657 462.43 233.323 462.551 234.146 462.551C235.246 462.551 236.155 462.285 236.871 461.752C237.587 461.219 237.945 460.385 237.945 459.249V456.479H237.768C237.614 456.727 237.395 457.035 237.111 457.402C236.833 457.763 236.43 458.086 235.903 458.37C235.382 458.648 234.678 458.787 233.79 458.787C232.69 458.787 231.701 458.527 230.825 458.006C229.955 457.485 229.266 456.727 228.757 455.733C228.254 454.739 228.002 453.531 228.002 452.111C228.002 450.714 228.248 449.498 228.739 448.462C229.23 447.42 229.914 446.615 230.79 446.047C231.666 445.473 232.678 445.186 233.826 445.186C234.714 445.186 235.418 445.334 235.939 445.63C236.466 445.92 236.868 446.251 237.146 446.624C237.43 446.991 237.649 447.293 237.803 447.53H238.016V445.364H240.04V459.391C240.04 460.562 239.774 461.515 239.241 462.249C238.715 462.989 238.004 463.531 237.111 463.874C236.223 464.223 235.235 464.398 234.146 464.398ZM234.074 456.905C234.915 456.905 235.625 456.712 236.205 456.328C236.785 455.943 237.226 455.39 237.528 454.668C237.83 453.946 237.981 453.081 237.981 452.075C237.981 451.093 237.833 450.226 237.537 449.474C237.241 448.722 236.803 448.134 236.223 447.707C235.643 447.281 234.927 447.068 234.074 447.068C233.187 447.068 232.447 447.293 231.855 447.743C231.269 448.193 230.828 448.796 230.532 449.554C230.242 450.312 230.097 451.152 230.097 452.075C230.097 453.022 230.245 453.86 230.541 454.588C230.843 455.31 231.287 455.878 231.873 456.292C232.465 456.701 233.199 456.905 234.074 456.905ZM245.971 450.797V459H243.876V440.818H245.971V447.494H246.148C246.468 446.79 246.947 446.231 247.587 445.816C248.232 445.396 249.09 445.186 250.161 445.186C251.09 445.186 251.904 445.373 252.603 445.745C253.301 446.112 253.842 446.678 254.227 447.441C254.618 448.199 254.813 449.163 254.813 450.335V459H252.718V450.477C252.718 449.394 252.437 448.557 251.875 447.965C251.318 447.367 250.546 447.068 249.557 447.068C248.871 447.068 248.255 447.213 247.711 447.503C247.172 447.793 246.746 448.216 246.432 448.773C246.125 449.329 245.971 450.004 245.971 450.797Z" fill="black"/>
<path d="M154.202 155V136.818H165.175V138.771H156.403V144.915H164.607V146.868H156.403V153.047H165.317V155H154.202ZM168.859 155V141.364H170.883V143.423H171.025C171.274 142.749 171.724 142.201 172.375 141.781C173.026 141.361 173.76 141.151 174.576 141.151C174.73 141.151 174.923 141.154 175.153 141.159C175.384 141.165 175.559 141.174 175.677 141.186V143.317C175.606 143.299 175.443 143.272 175.189 143.237C174.94 143.195 174.677 143.175 174.399 143.175C173.736 143.175 173.144 143.314 172.623 143.592C172.108 143.864 171.7 144.243 171.398 144.728C171.102 145.208 170.954 145.755 170.954 146.371V155H168.859ZM178.161 155V141.364H180.256V155H178.161ZM179.226 139.091C178.818 139.091 178.466 138.952 178.17 138.674C177.88 138.395 177.735 138.061 177.735 137.67C177.735 137.28 177.88 136.945 178.17 136.667C178.466 136.389 178.818 136.25 179.226 136.25C179.634 136.25 179.984 136.389 180.274 136.667C180.57 136.945 180.718 137.28 180.718 137.67C180.718 138.061 180.57 138.395 180.274 138.674C179.984 138.952 179.634 139.091 179.226 139.091ZM189.811 155.284C188.497 155.284 187.363 154.994 186.411 154.414C185.464 153.828 184.733 153.011 184.218 151.964C183.709 150.91 183.454 149.685 183.454 148.288C183.454 146.892 183.709 145.661 184.218 144.595C184.733 143.524 185.449 142.689 186.366 142.092C187.289 141.488 188.367 141.186 189.598 141.186C190.308 141.186 191.009 141.304 191.702 141.541C192.394 141.778 193.025 142.163 193.593 142.695C194.161 143.222 194.614 143.92 194.951 144.79C195.288 145.661 195.457 146.732 195.457 148.004V148.892H184.946V147.081H193.326C193.326 146.312 193.172 145.625 192.865 145.021C192.563 144.418 192.131 143.941 191.569 143.592C191.012 143.243 190.355 143.068 189.598 143.068C188.763 143.068 188.041 143.275 187.431 143.69C186.828 144.098 186.363 144.631 186.038 145.288C185.712 145.945 185.549 146.649 185.549 147.401V148.608C185.549 149.638 185.727 150.511 186.082 151.227C186.443 151.937 186.943 152.479 187.582 152.852C188.222 153.219 188.964 153.402 189.811 153.402C190.361 153.402 190.858 153.325 191.302 153.171C191.752 153.011 192.14 152.775 192.465 152.461C192.791 152.141 193.042 151.745 193.22 151.271L195.244 151.839C195.031 152.526 194.673 153.13 194.17 153.651C193.667 154.165 193.045 154.568 192.305 154.858C191.566 155.142 190.734 155.284 189.811 155.284Z" fill="black"/>
<circle cx="180.511" cy="422.511" r="9.01136" fill="#FFE587" stroke="black"/>
<circle cx="174.511" cy="121.511" r="9.01136" fill="#FFE587" stroke="black"/>
<path d="M690.202 516V497.818H696.345C697.772 497.818 698.938 498.076 699.843 498.591C700.754 499.1 701.429 499.789 701.867 500.659C702.305 501.529 702.524 502.5 702.524 503.571C702.524 504.642 702.305 505.616 701.867 506.492C701.435 507.368 700.766 508.066 699.861 508.587C698.955 509.102 697.795 509.359 696.381 509.359H691.977V507.406H696.31C697.286 507.406 698.07 507.238 698.662 506.9C699.254 506.563 699.683 506.107 699.95 505.533C700.222 504.953 700.358 504.299 700.358 503.571C700.358 502.843 700.222 502.192 699.95 501.618C699.683 501.044 699.251 500.594 698.653 500.268C698.056 499.937 697.263 499.771 696.274 499.771H692.403V516H690.202ZM707.882 507.797V516H705.787V497.818H707.882V504.494H708.059C708.379 503.79 708.858 503.231 709.498 502.816C710.143 502.396 711.001 502.186 712.072 502.186C713.001 502.186 713.815 502.373 714.514 502.745C715.212 503.112 715.754 503.678 716.138 504.441C716.529 505.199 716.724 506.163 716.724 507.335V516H714.629V507.477C714.629 506.394 714.348 505.557 713.786 504.965C713.229 504.367 712.457 504.068 711.469 504.068C710.782 504.068 710.166 504.213 709.622 504.503C709.083 504.793 708.657 505.216 708.344 505.773C708.036 506.329 707.882 507.004 707.882 507.797ZM720.557 516V502.364H722.652V516H720.557ZM721.623 500.091C721.214 500.091 720.862 499.952 720.566 499.674C720.276 499.395 720.131 499.061 720.131 498.67C720.131 498.28 720.276 497.945 720.566 497.667C720.862 497.389 721.214 497.25 721.623 497.25C722.031 497.25 722.38 497.389 722.67 497.667C722.966 497.945 723.114 498.28 723.114 498.67C723.114 499.061 722.966 499.395 722.67 499.674C722.38 499.952 722.031 500.091 721.623 500.091ZM728.585 497.818V516H726.49V497.818H728.585ZM736.435 516.32C735.571 516.32 734.787 516.157 734.083 515.831C733.378 515.5 732.819 515.023 732.405 514.402C731.99 513.775 731.783 513.017 731.783 512.129C731.783 511.348 731.937 510.715 732.245 510.229C732.553 509.738 732.964 509.353 733.479 509.075C733.994 508.797 734.562 508.59 735.184 508.454C735.811 508.312 736.441 508.199 737.074 508.116C737.903 508.01 738.575 507.93 739.09 507.877C739.611 507.818 739.989 507.72 740.226 507.584C740.469 507.448 740.59 507.211 740.59 506.874V506.803C740.59 505.927 740.35 505.246 739.871 504.761C739.398 504.275 738.678 504.033 737.714 504.033C736.713 504.033 735.929 504.252 735.361 504.69C734.793 505.128 734.393 505.595 734.163 506.092L732.174 505.382C732.529 504.554 733.003 503.908 733.594 503.447C734.192 502.979 734.843 502.654 735.547 502.47C736.258 502.281 736.956 502.186 737.643 502.186C738.081 502.186 738.584 502.239 739.152 502.346C739.726 502.446 740.279 502.657 740.812 502.976C741.351 503.296 741.797 503.778 742.153 504.423C742.508 505.068 742.685 505.933 742.685 507.016V516H740.59V514.153H740.484C740.342 514.449 740.105 514.766 739.773 515.103C739.442 515.441 739.001 515.728 738.451 515.964C737.9 516.201 737.228 516.32 736.435 516.32ZM736.755 514.438C737.583 514.438 738.282 514.275 738.85 513.949C739.424 513.624 739.856 513.203 740.146 512.689C740.442 512.174 740.59 511.632 740.59 511.064V509.146C740.501 509.253 740.306 509.35 740.004 509.439C739.708 509.522 739.365 509.596 738.974 509.661C738.59 509.72 738.214 509.774 737.847 509.821C737.486 509.862 737.193 509.898 736.968 509.928C736.423 509.999 735.914 510.114 735.441 510.274C734.973 510.428 734.595 510.661 734.305 510.975C734.021 511.283 733.878 511.703 733.878 512.236C733.878 512.964 734.148 513.514 734.686 513.887C735.231 514.254 735.92 514.438 736.755 514.438ZM751.659 516.284C750.522 516.284 749.519 515.997 748.649 515.423C747.779 514.843 747.098 514.026 746.607 512.973C746.116 511.913 745.87 510.661 745.87 509.217C745.87 507.785 746.116 506.542 746.607 505.489C747.098 504.435 747.782 503.621 748.658 503.047C749.534 502.473 750.546 502.186 751.694 502.186C752.582 502.186 753.283 502.334 753.798 502.63C754.319 502.92 754.715 503.251 754.988 503.624C755.266 503.991 755.482 504.293 755.636 504.53H755.813V497.818H757.909V516H755.884V513.905H755.636C755.482 514.153 755.263 514.467 754.979 514.846C754.695 515.219 754.289 515.553 753.763 515.849C753.236 516.139 752.535 516.284 751.659 516.284ZM751.943 514.402C752.783 514.402 753.493 514.183 754.073 513.745C754.653 513.301 755.094 512.689 755.396 511.907C755.698 511.12 755.849 510.212 755.849 509.182C755.849 508.164 755.701 507.273 755.405 506.51C755.109 505.74 754.671 505.142 754.091 504.716C753.511 504.284 752.795 504.068 751.943 504.068C751.055 504.068 750.315 504.296 749.723 504.752C749.137 505.202 748.696 505.814 748.4 506.589C748.11 507.359 747.965 508.223 747.965 509.182C747.965 510.152 748.113 511.034 748.409 511.827C748.711 512.615 749.155 513.242 749.741 513.71C750.333 514.171 751.067 514.402 751.943 514.402ZM767.754 516.284C766.44 516.284 765.307 515.994 764.354 515.414C763.407 514.828 762.676 514.011 762.161 512.964C761.652 511.91 761.398 510.685 761.398 509.288C761.398 507.892 761.652 506.661 762.161 505.595C762.676 504.524 763.392 503.689 764.309 503.092C765.233 502.488 766.31 502.186 767.541 502.186C768.251 502.186 768.953 502.304 769.645 502.541C770.338 502.778 770.968 503.163 771.536 503.695C772.104 504.222 772.557 504.92 772.894 505.79C773.232 506.661 773.4 507.732 773.4 509.004V509.892H762.889V508.081H771.27C771.27 507.312 771.116 506.625 770.808 506.021C770.506 505.418 770.074 504.941 769.512 504.592C768.956 504.243 768.299 504.068 767.541 504.068C766.706 504.068 765.984 504.275 765.375 504.69C764.771 505.098 764.307 505.631 763.981 506.288C763.655 506.945 763.493 507.649 763.493 508.401V509.608C763.493 510.638 763.67 511.511 764.025 512.227C764.386 512.937 764.887 513.479 765.526 513.852C766.165 514.219 766.908 514.402 767.754 514.402C768.305 514.402 768.802 514.325 769.246 514.171C769.695 514.011 770.083 513.775 770.409 513.461C770.734 513.141 770.986 512.745 771.163 512.271L773.187 512.839C772.974 513.526 772.616 514.13 772.113 514.651C771.61 515.165 770.989 515.568 770.249 515.858C769.509 516.142 768.677 516.284 767.754 516.284ZM778.683 497.818V516H776.588V497.818H778.683ZM782.52 521.114V502.364H784.544V504.53H784.793C784.947 504.293 785.16 503.991 785.432 503.624C785.71 503.251 786.107 502.92 786.622 502.63C787.143 502.334 787.847 502.186 788.735 502.186C789.883 502.186 790.895 502.473 791.771 503.047C792.647 503.621 793.33 504.435 793.822 505.489C794.313 506.542 794.559 507.785 794.559 509.217C794.559 510.661 794.313 511.913 793.822 512.973C793.33 514.026 792.65 514.843 791.78 515.423C790.91 515.997 789.907 516.284 788.77 516.284C787.894 516.284 787.193 516.139 786.666 515.849C786.139 515.553 785.734 515.219 785.45 514.846C785.166 514.467 784.947 514.153 784.793 513.905H784.615V521.114H782.52ZM784.58 509.182C784.58 510.212 784.731 511.12 785.033 511.907C785.334 512.689 785.775 513.301 786.355 513.745C786.935 514.183 787.646 514.402 788.486 514.402C789.362 514.402 790.093 514.171 790.679 513.71C791.271 513.242 791.715 512.615 792.011 511.827C792.312 511.034 792.463 510.152 792.463 509.182C792.463 508.223 792.315 507.359 792.019 506.589C791.729 505.814 791.289 505.202 790.697 504.752C790.111 504.296 789.374 504.068 788.486 504.068C787.634 504.068 786.918 504.284 786.338 504.716C785.758 505.142 785.32 505.74 785.024 506.51C784.728 507.273 784.58 508.164 784.58 509.182ZM799.85 507.797V516H797.755V497.818H799.85V504.494H800.027C800.347 503.79 800.826 503.231 801.465 502.816C802.111 502.396 802.969 502.186 804.04 502.186C804.969 502.186 805.783 502.373 806.481 502.745C807.18 503.112 807.721 503.678 808.106 504.441C808.497 505.199 808.692 506.163 808.692 507.335V516H806.597V507.477C806.597 506.394 806.316 505.557 805.753 504.965C805.197 504.367 804.425 504.068 803.436 504.068C802.75 504.068 802.134 504.213 801.59 504.503C801.051 504.793 800.625 505.216 800.311 505.773C800.004 506.329 799.85 507.004 799.85 507.797ZM812.525 516V502.364H814.62V516H812.525ZM813.59 500.091C813.182 500.091 812.83 499.952 812.534 499.674C812.244 499.395 812.099 499.061 812.099 498.67C812.099 498.28 812.244 497.945 812.534 497.667C812.83 497.389 813.182 497.25 813.59 497.25C813.999 497.25 814.348 497.389 814.638 497.667C814.934 497.945 815.082 498.28 815.082 498.67C815.082 499.061 814.934 499.395 814.638 499.674C814.348 499.952 813.999 500.091 813.59 500.091ZM822.47 516.32C821.606 516.32 820.822 516.157 820.118 515.831C819.414 515.5 818.854 515.023 818.44 514.402C818.026 513.775 817.818 513.017 817.818 512.129C817.818 511.348 817.972 510.715 818.28 510.229C818.588 509.738 818.999 509.353 819.514 509.075C820.029 508.797 820.597 508.59 821.219 508.454C821.846 508.312 822.476 508.199 823.11 508.116C823.938 508.01 824.61 507.93 825.125 507.877C825.646 507.818 826.025 507.72 826.261 507.584C826.504 507.448 826.625 507.211 826.625 506.874V506.803C826.625 505.927 826.386 505.246 825.906 504.761C825.433 504.275 824.714 504.033 823.749 504.033C822.749 504.033 821.964 504.252 821.396 504.69C820.828 505.128 820.429 505.595 820.198 506.092L818.209 505.382C818.564 504.554 819.038 503.908 819.63 503.447C820.227 502.979 820.878 502.654 821.583 502.47C822.293 502.281 822.991 502.186 823.678 502.186C824.116 502.186 824.619 502.239 825.187 502.346C825.761 502.446 826.315 502.657 826.847 502.976C827.386 503.296 827.833 503.778 828.188 504.423C828.543 505.068 828.72 505.933 828.72 507.016V516H826.625V514.153H826.519C826.377 514.449 826.14 514.766 825.809 515.103C825.477 515.441 825.036 515.728 824.486 515.964C823.935 516.201 823.264 516.32 822.47 516.32ZM822.79 514.438C823.619 514.438 824.317 514.275 824.885 513.949C825.459 513.624 825.891 513.203 826.181 512.689C826.477 512.174 826.625 511.632 826.625 511.064V509.146C826.536 509.253 826.341 509.35 826.039 509.439C825.743 509.522 825.4 509.596 825.009 509.661C824.625 509.72 824.249 509.774 823.882 509.821C823.521 509.862 823.228 509.898 823.003 509.928C822.459 509.999 821.95 510.114 821.476 510.274C821.009 510.428 820.63 510.661 820.34 510.975C820.056 511.283 819.914 511.703 819.914 512.236C819.914 512.964 820.183 513.514 820.722 513.887C821.266 514.254 821.956 514.438 822.79 514.438Z" fill="black"/>
<path d="M722.947 378H720.639L727.315 359.818H729.588L736.264 378H733.956L728.523 362.695H728.381L722.947 378ZM723.8 370.898H733.104V372.851H723.8V370.898ZM740.907 359.818V378H738.812V359.818H740.907ZM746.84 359.818V378H744.745V359.818H746.84ZM756.395 378.284C755.081 378.284 753.947 377.994 752.994 377.414C752.048 376.828 751.317 376.011 750.802 374.964C750.293 373.91 750.038 372.685 750.038 371.288C750.038 369.892 750.293 368.661 750.802 367.595C751.317 366.524 752.033 365.689 752.95 365.092C753.873 364.488 754.951 364.186 756.182 364.186C756.892 364.186 757.593 364.304 758.286 364.541C758.978 364.778 759.608 365.163 760.177 365.695C760.745 366.222 761.198 366.92 761.535 367.79C761.872 368.661 762.041 369.732 762.041 371.004V371.892H751.53V370.081H759.91C759.91 369.312 759.756 368.625 759.449 368.021C759.147 367.418 758.715 366.941 758.153 366.592C757.596 366.243 756.939 366.068 756.182 366.068C755.347 366.068 754.625 366.275 754.015 366.69C753.412 367.098 752.947 367.631 752.622 368.288C752.296 368.945 752.133 369.649 752.133 370.401V371.608C752.133 372.638 752.311 373.511 752.666 374.227C753.027 374.937 753.527 375.479 754.166 375.852C754.806 376.219 755.548 376.402 756.395 376.402C756.945 376.402 757.442 376.325 757.886 376.171C758.336 376.011 758.724 375.775 759.049 375.461C759.375 375.141 759.626 374.745 759.804 374.271L761.828 374.839C761.615 375.526 761.257 376.13 760.754 376.651C760.251 377.165 759.629 377.568 758.889 377.858C758.15 378.142 757.318 378.284 756.395 378.284ZM767.323 369.797V378H765.228V364.364H767.252V366.494H767.43C767.749 365.802 768.235 365.246 768.886 364.825C769.537 364.399 770.377 364.186 771.407 364.186C772.33 364.186 773.138 364.375 773.831 364.754C774.523 365.127 775.062 365.695 775.447 366.459C775.831 367.216 776.024 368.175 776.024 369.335V378H773.928V369.477C773.928 368.406 773.65 367.571 773.094 366.974C772.538 366.37 771.774 366.068 770.803 366.068C770.135 366.068 769.537 366.213 769.01 366.503C768.489 366.793 768.078 367.216 767.776 367.773C767.474 368.329 767.323 369.004 767.323 369.797ZM785.783 364.364V366.139H778.716V364.364H785.783ZM780.775 361.097H782.871V374.094C782.871 374.686 782.956 375.129 783.128 375.425C783.306 375.715 783.531 375.911 783.803 376.011C784.081 376.106 784.374 376.153 784.682 376.153C784.913 376.153 785.102 376.142 785.25 376.118C785.398 376.088 785.516 376.065 785.605 376.047L786.031 377.929C785.889 377.982 785.691 378.036 785.436 378.089C785.182 378.148 784.859 378.178 784.469 378.178C783.877 378.178 783.297 378.05 782.729 377.796C782.166 377.541 781.699 377.154 781.326 376.633C780.959 376.112 780.775 375.455 780.775 374.662V361.097ZM794.328 378.284C793.096 378.284 792.016 377.991 791.087 377.405C790.164 376.819 789.442 376 788.921 374.946C788.406 373.893 788.149 372.661 788.149 371.253C788.149 369.832 788.406 368.592 788.921 367.533C789.442 366.474 790.164 365.651 791.087 365.065C792.016 364.479 793.096 364.186 794.328 364.186C795.559 364.186 796.636 364.479 797.559 365.065C798.488 365.651 799.21 366.474 799.725 367.533C800.246 368.592 800.506 369.832 800.506 371.253C800.506 372.661 800.246 373.893 799.725 374.946C799.21 376 798.488 376.819 797.559 377.405C796.636 377.991 795.559 378.284 794.328 378.284ZM794.328 376.402C795.263 376.402 796.032 376.162 796.636 375.683C797.239 375.203 797.686 374.573 797.976 373.792C798.266 373.011 798.411 372.164 798.411 371.253C798.411 370.341 798.266 369.492 797.976 368.705C797.686 367.918 797.239 367.281 796.636 366.796C796.032 366.311 795.263 366.068 794.328 366.068C793.392 366.068 792.623 366.311 792.019 366.796C791.416 367.281 790.969 367.918 790.679 368.705C790.389 369.492 790.244 370.341 790.244 371.253C790.244 372.164 790.389 373.011 790.679 373.792C790.969 374.573 791.416 375.203 792.019 375.683C792.623 376.162 793.392 376.402 794.328 376.402ZM806.33 378L802.176 364.364H804.377L807.325 374.804H807.467L810.379 364.364H812.616L815.492 374.768H815.634L818.582 364.364H820.783L816.629 378H814.569L811.586 367.524H811.373L808.39 378H806.33ZM825.649 369.797V378H823.553V364.364H825.578V366.494H825.755C826.075 365.802 826.56 365.246 827.211 364.825C827.862 364.399 828.703 364.186 829.732 364.186C830.656 364.186 831.464 364.375 832.156 364.754C832.848 365.127 833.387 365.695 833.772 366.459C834.156 367.216 834.349 368.175 834.349 369.335V378H832.254V369.477C832.254 368.406 831.975 367.571 831.419 366.974C830.863 366.37 830.099 366.068 829.129 366.068C828.46 366.068 827.862 366.213 827.335 366.503C826.814 366.793 826.403 367.216 826.101 367.773C825.799 368.329 825.649 369.004 825.649 369.797Z" fill="black"/>
<path d="M747.145 269.364C747.038 268.464 746.606 267.766 745.849 267.268C745.091 266.771 744.162 266.523 743.061 266.523C742.256 266.523 741.552 266.653 740.948 266.913C740.35 267.174 739.883 267.532 739.545 267.988C739.214 268.443 739.048 268.961 739.048 269.541C739.048 270.027 739.164 270.444 739.395 270.793C739.631 271.136 739.933 271.423 740.3 271.654C740.667 271.879 741.052 272.065 741.454 272.213C741.857 272.355 742.227 272.471 742.564 272.56L744.411 273.057C744.884 273.181 745.411 273.353 745.991 273.572C746.577 273.791 747.136 274.09 747.669 274.468C748.207 274.841 748.651 275.321 749 275.907C749.35 276.493 749.524 277.212 749.524 278.064C749.524 279.046 749.267 279.934 748.752 280.727C748.243 281.52 747.497 282.151 746.515 282.618C745.538 283.086 744.351 283.32 742.955 283.32C741.652 283.32 740.525 283.109 739.572 282.689C738.625 282.269 737.879 281.683 737.335 280.931C736.796 280.18 736.491 279.307 736.42 278.312H738.693C738.752 278.999 738.983 279.567 739.386 280.017C739.794 280.461 740.309 280.792 740.93 281.011C741.558 281.224 742.232 281.331 742.955 281.331C743.795 281.331 744.55 281.195 745.218 280.923C745.887 280.644 746.417 280.26 746.808 279.768C747.198 279.271 747.393 278.691 747.393 278.028C747.393 277.425 747.225 276.933 746.887 276.555C746.55 276.176 746.106 275.868 745.556 275.631C745.005 275.395 744.411 275.187 743.771 275.01L741.534 274.371C740.114 273.962 738.989 273.379 738.161 272.622C737.332 271.864 736.918 270.873 736.918 269.648C736.918 268.63 737.193 267.742 737.743 266.984C738.3 266.221 739.045 265.629 739.98 265.209C740.922 264.783 741.972 264.57 743.132 264.57C744.304 264.57 745.346 264.78 746.257 265.2C747.169 265.614 747.891 266.182 748.423 266.904C748.962 267.627 749.246 268.446 749.276 269.364H747.145ZM758.4 283.284C757.121 283.284 756.021 282.982 755.097 282.379C754.174 281.775 753.464 280.943 752.967 279.884C752.469 278.824 752.221 277.614 752.221 276.253C752.221 274.868 752.475 273.646 752.984 272.586C753.499 271.521 754.215 270.689 755.133 270.092C756.056 269.488 757.133 269.186 758.364 269.186C759.323 269.186 760.187 269.364 760.957 269.719C761.726 270.074 762.356 270.571 762.848 271.21C763.339 271.849 763.644 272.595 763.762 273.447H761.667C761.507 272.826 761.152 272.276 760.601 271.796C760.057 271.311 759.323 271.068 758.4 271.068C757.583 271.068 756.867 271.281 756.251 271.707C755.642 272.128 755.165 272.722 754.822 273.492C754.485 274.255 754.316 275.152 754.316 276.182C754.316 277.235 754.482 278.153 754.813 278.934C755.15 279.715 755.624 280.322 756.234 280.754C756.849 281.186 757.571 281.402 758.4 281.402C758.944 281.402 759.438 281.307 759.882 281.118C760.326 280.929 760.702 280.656 761.01 280.301C761.318 279.946 761.537 279.52 761.667 279.023H763.762C763.644 279.828 763.351 280.553 762.883 281.198C762.421 281.837 761.809 282.346 761.045 282.725C760.288 283.098 759.406 283.284 758.4 283.284ZM766.825 283V269.364H768.849V271.423H768.991C769.24 270.749 769.689 270.201 770.34 269.781C770.992 269.361 771.725 269.151 772.542 269.151C772.696 269.151 772.888 269.154 773.119 269.159C773.35 269.165 773.525 269.174 773.643 269.186V271.317C773.572 271.299 773.409 271.272 773.155 271.237C772.906 271.195 772.643 271.175 772.365 271.175C771.702 271.175 771.11 271.314 770.589 271.592C770.074 271.864 769.666 272.243 769.364 272.728C769.068 273.208 768.92 273.755 768.92 274.371V283H766.825ZM780.139 283.32C779.275 283.32 778.491 283.157 777.787 282.831C777.082 282.5 776.523 282.023 776.109 281.402C775.695 280.775 775.487 280.017 775.487 279.129C775.487 278.348 775.641 277.715 775.949 277.229C776.257 276.738 776.668 276.353 777.183 276.075C777.698 275.797 778.266 275.59 778.888 275.454C779.515 275.312 780.145 275.199 780.779 275.116C781.607 275.01 782.279 274.93 782.794 274.877C783.315 274.818 783.693 274.72 783.93 274.584C784.173 274.448 784.294 274.211 784.294 273.874V273.803C784.294 272.927 784.055 272.246 783.575 271.761C783.102 271.275 782.383 271.033 781.418 271.033C780.418 271.033 779.633 271.252 779.065 271.69C778.497 272.128 778.097 272.595 777.867 273.092L775.878 272.382C776.233 271.554 776.707 270.908 777.298 270.447C777.896 269.979 778.547 269.654 779.252 269.47C779.962 269.281 780.66 269.186 781.347 269.186C781.785 269.186 782.288 269.239 782.856 269.346C783.43 269.446 783.983 269.657 784.516 269.976C785.055 270.296 785.502 270.778 785.857 271.423C786.212 272.068 786.389 272.933 786.389 274.016V283H784.294V281.153H784.188C784.046 281.449 783.809 281.766 783.477 282.103C783.146 282.441 782.705 282.728 782.155 282.964C781.604 283.201 780.932 283.32 780.139 283.32ZM780.459 281.438C781.288 281.438 781.986 281.275 782.554 280.949C783.128 280.624 783.56 280.203 783.85 279.689C784.146 279.174 784.294 278.632 784.294 278.064V276.146C784.205 276.253 784.01 276.35 783.708 276.439C783.412 276.522 783.069 276.596 782.678 276.661C782.294 276.72 781.918 276.774 781.551 276.821C781.19 276.862 780.897 276.898 780.672 276.928C780.128 276.999 779.619 277.114 779.145 277.274C778.677 277.428 778.299 277.661 778.009 277.975C777.725 278.283 777.583 278.703 777.583 279.236C777.583 279.964 777.852 280.514 778.39 280.887C778.935 281.254 779.624 281.438 780.459 281.438ZM792.309 274.797V283H790.214V269.364H792.238V271.494H792.415C792.735 270.802 793.22 270.246 793.871 269.825C794.522 269.399 795.363 269.186 796.392 269.186C797.316 269.186 798.124 269.375 798.816 269.754C799.509 270.127 800.047 270.695 800.432 271.459C800.817 272.216 801.009 273.175 801.009 274.335V283H798.914V274.477C798.914 273.406 798.636 272.571 798.079 271.974C797.523 271.37 796.759 271.068 795.789 271.068C795.12 271.068 794.522 271.213 793.995 271.503C793.475 271.793 793.063 272.216 792.761 272.773C792.46 273.329 792.309 274.004 792.309 274.797ZM810.768 269.364V271.139H803.701V269.364H810.768ZM805.761 266.097H807.856V279.094C807.856 279.686 807.942 280.129 808.113 280.425C808.291 280.715 808.516 280.911 808.788 281.011C809.066 281.106 809.359 281.153 809.667 281.153C809.898 281.153 810.087 281.142 810.235 281.118C810.383 281.088 810.502 281.065 810.59 281.047L811.017 282.929C810.874 282.982 810.676 283.036 810.422 283.089C810.167 283.148 809.845 283.178 809.454 283.178C808.862 283.178 808.282 283.05 807.714 282.796C807.152 282.541 806.684 282.154 806.311 281.633C805.944 281.112 805.761 280.455 805.761 279.662V266.097ZM819.313 283.284C818.082 283.284 817.002 282.991 816.072 282.405C815.149 281.819 814.427 281 813.906 279.946C813.391 278.893 813.134 277.661 813.134 276.253C813.134 274.832 813.391 273.592 813.906 272.533C814.427 271.474 815.149 270.651 816.072 270.065C817.002 269.479 818.082 269.186 819.313 269.186C820.544 269.186 821.621 269.479 822.544 270.065C823.474 270.651 824.196 271.474 824.711 272.533C825.231 273.592 825.492 274.832 825.492 276.253C825.492 277.661 825.231 278.893 824.711 279.946C824.196 281 823.474 281.819 822.544 282.405C821.621 282.991 820.544 283.284 819.313 283.284ZM819.313 281.402C820.248 281.402 821.017 281.162 821.621 280.683C822.225 280.203 822.672 279.573 822.962 278.792C823.252 278.011 823.397 277.164 823.397 276.253C823.397 275.341 823.252 274.492 822.962 273.705C822.672 272.918 822.225 272.281 821.621 271.796C821.017 271.311 820.248 271.068 819.313 271.068C818.378 271.068 817.608 271.311 817.005 271.796C816.401 272.281 815.954 272.918 815.664 273.705C815.374 274.492 815.229 275.341 815.229 276.253C815.229 277.164 815.374 278.011 815.664 278.792C815.954 279.573 816.401 280.203 817.005 280.683C817.608 281.162 818.378 281.402 819.313 281.402ZM830.785 274.797V283H828.69V269.364H830.714V271.494H830.892C831.211 270.802 831.697 270.246 832.348 269.825C832.999 269.399 833.839 269.186 834.869 269.186C835.792 269.186 836.6 269.375 837.293 269.754C837.985 270.127 838.524 270.695 838.908 271.459C839.293 272.216 839.486 273.175 839.486 274.335V283H837.39V274.477C837.39 273.406 837.112 272.571 836.556 271.974C835.999 271.37 835.236 271.068 834.265 271.068C833.597 271.068 832.999 271.213 832.472 271.503C831.951 271.793 831.54 272.216 831.238 272.773C830.936 273.329 830.785 274.004 830.785 274.797Z" fill="black"/>
<path d="M361.947 394H359.639L366.315 375.818H368.588L375.264 394H372.956L367.523 378.695H367.381L361.947 394ZM362.8 386.898H372.104V388.851H362.8V386.898ZM379.907 375.818V394H377.812V375.818H379.907ZM389.675 380.364V382.139H382.608V380.364H389.675ZM384.668 377.097H386.763V390.094C386.763 390.686 386.849 391.129 387.021 391.425C387.198 391.715 387.423 391.911 387.695 392.011C387.974 392.106 388.267 392.153 388.574 392.153C388.805 392.153 388.995 392.142 389.142 392.118C389.29 392.088 389.409 392.065 389.498 392.047L389.924 393.929C389.782 393.982 389.583 394.036 389.329 394.089C389.074 394.148 388.752 394.178 388.361 394.178C387.769 394.178 387.189 394.05 386.621 393.796C386.059 393.541 385.591 393.154 385.218 392.633C384.852 392.112 384.668 391.455 384.668 390.662V377.097ZM398.22 394.284C396.989 394.284 395.909 393.991 394.98 393.405C394.056 392.819 393.334 392 392.813 390.946C392.299 389.893 392.041 388.661 392.041 387.253C392.041 385.832 392.299 384.592 392.813 383.533C393.334 382.474 394.056 381.651 394.98 381.065C395.909 380.479 396.989 380.186 398.22 380.186C399.451 380.186 400.528 380.479 401.452 381.065C402.381 381.651 403.103 382.474 403.618 383.533C404.139 384.592 404.399 385.832 404.399 387.253C404.399 388.661 404.139 389.893 403.618 390.946C403.103 392 402.381 392.819 401.452 393.405C400.528 393.991 399.451 394.284 398.22 394.284ZM398.22 392.402C399.155 392.402 399.925 392.162 400.528 391.683C401.132 391.203 401.579 390.573 401.869 389.792C402.159 389.011 402.304 388.164 402.304 387.253C402.304 386.341 402.159 385.492 401.869 384.705C401.579 383.918 401.132 383.281 400.528 382.796C399.925 382.311 399.155 382.068 398.22 382.068C397.285 382.068 396.516 382.311 395.912 382.796C395.308 383.281 394.861 383.918 394.571 384.705C394.281 385.492 394.136 386.341 394.136 387.253C394.136 388.164 394.281 389.011 394.571 389.792C394.861 390.573 395.308 391.203 395.912 391.683C396.516 392.162 397.285 392.402 398.22 392.402ZM413.137 394.284C411.906 394.284 410.826 393.991 409.897 393.405C408.973 392.819 408.251 392 407.73 390.946C407.216 389.893 406.958 388.661 406.958 387.253C406.958 385.832 407.216 384.592 407.73 383.533C408.251 382.474 408.973 381.651 409.897 381.065C410.826 380.479 411.906 380.186 413.137 380.186C414.368 380.186 415.445 380.479 416.369 381.065C417.298 381.651 418.02 382.474 418.535 383.533C419.056 384.592 419.316 385.832 419.316 387.253C419.316 388.661 419.056 389.893 418.535 390.946C418.02 392 417.298 392.819 416.369 393.405C415.445 393.991 414.368 394.284 413.137 394.284ZM413.137 392.402C414.072 392.402 414.842 392.162 415.445 391.683C416.049 391.203 416.496 390.573 416.786 389.792C417.076 389.011 417.221 388.164 417.221 387.253C417.221 386.341 417.076 385.492 416.786 384.705C416.496 383.918 416.049 383.281 415.445 382.796C414.842 382.311 414.072 382.068 413.137 382.068C412.202 382.068 411.433 382.311 410.829 382.796C410.225 383.281 409.778 383.918 409.488 384.705C409.198 385.492 409.053 386.341 409.053 387.253C409.053 388.164 409.198 389.011 409.488 389.792C409.778 390.573 410.225 391.203 410.829 391.683C411.433 392.162 412.202 392.402 413.137 392.402ZM424.609 385.797V394H422.514V380.364H424.538V382.494H424.716C425.036 381.802 425.521 381.246 426.172 380.825C426.823 380.399 427.663 380.186 428.693 380.186C429.617 380.186 430.424 380.375 431.117 380.754C431.809 381.127 432.348 381.695 432.733 382.459C433.117 383.216 433.31 384.175 433.31 385.335V394H431.215V385.477C431.215 384.406 430.936 383.571 430.38 382.974C429.824 382.37 429.06 382.068 428.09 382.068C427.421 382.068 426.823 382.213 426.296 382.503C425.775 382.793 425.364 383.216 425.062 383.773C424.76 384.329 424.609 385.004 424.609 385.797ZM441.151 394.32C440.287 394.32 439.503 394.157 438.798 393.831C438.094 393.5 437.535 393.023 437.121 392.402C436.706 391.775 436.499 391.017 436.499 390.129C436.499 389.348 436.653 388.715 436.961 388.229C437.269 387.738 437.68 387.353 438.195 387.075C438.71 386.797 439.278 386.59 439.899 386.454C440.527 386.312 441.157 386.199 441.79 386.116C442.619 386.01 443.291 385.93 443.806 385.877C444.326 385.818 444.705 385.72 444.942 385.584C445.185 385.448 445.306 385.211 445.306 384.874V384.803C445.306 383.927 445.066 383.246 444.587 382.761C444.113 382.275 443.394 382.033 442.43 382.033C441.429 382.033 440.645 382.252 440.077 382.69C439.509 383.128 439.109 383.595 438.878 384.092L436.89 383.382C437.245 382.554 437.718 381.908 438.31 381.447C438.908 380.979 439.559 380.654 440.263 380.47C440.974 380.281 441.672 380.186 442.358 380.186C442.796 380.186 443.3 380.239 443.868 380.346C444.442 380.446 444.995 380.657 445.528 380.976C446.066 381.296 446.513 381.778 446.868 382.423C447.224 383.068 447.401 383.933 447.401 385.016V394H445.306V392.153H445.199C445.057 392.449 444.821 392.766 444.489 393.103C444.158 393.441 443.717 393.728 443.166 393.964C442.616 394.201 441.944 394.32 441.151 394.32ZM441.471 392.438C442.299 392.438 442.998 392.275 443.566 391.949C444.14 391.624 444.572 391.203 444.862 390.689C445.158 390.174 445.306 389.632 445.306 389.064V387.146C445.217 387.253 445.022 387.35 444.72 387.439C444.424 387.522 444.081 387.596 443.69 387.661C443.305 387.72 442.93 387.774 442.563 387.821C442.202 387.862 441.909 387.898 441.684 387.928C441.139 387.999 440.63 388.114 440.157 388.274C439.689 388.428 439.31 388.661 439.02 388.975C438.736 389.283 438.594 389.703 438.594 390.236C438.594 390.964 438.864 391.514 439.402 391.887C439.947 392.254 440.636 392.438 441.471 392.438Z" fill="black"/>
<path d="M698.202 431V412.818H704.345C705.766 412.818 706.932 413.061 707.843 413.546C708.754 414.026 709.429 414.685 709.867 415.526C710.305 416.366 710.524 417.322 710.524 418.393C710.524 419.465 710.305 420.415 709.867 421.243C709.429 422.072 708.757 422.723 707.852 423.196C706.946 423.664 705.789 423.898 704.381 423.898H699.409V421.909H704.31C705.28 421.909 706.062 421.767 706.653 421.483C707.251 421.199 707.683 420.796 707.95 420.276C708.222 419.749 708.358 419.121 708.358 418.393C708.358 417.665 708.222 417.029 707.95 416.485C707.677 415.94 707.242 415.52 706.645 415.224C706.047 414.922 705.257 414.771 704.274 414.771H700.403V431H698.202ZM706.76 422.832L711.234 431H708.678L704.274 422.832H706.76ZM719.48 431.284C718.166 431.284 717.032 430.994 716.079 430.414C715.132 429.828 714.402 429.011 713.887 427.964C713.378 426.91 713.123 425.685 713.123 424.288C713.123 422.892 713.378 421.661 713.887 420.595C714.402 419.524 715.118 418.689 716.035 418.092C716.958 417.488 718.036 417.186 719.267 417.186C719.977 417.186 720.678 417.304 721.371 417.541C722.063 417.778 722.693 418.163 723.262 418.695C723.83 419.222 724.283 419.92 724.62 420.79C724.957 421.661 725.126 422.732 725.126 424.004V424.892H714.615V423.081H722.995C722.995 422.312 722.841 421.625 722.534 421.021C722.232 420.418 721.8 419.941 721.237 419.592C720.681 419.243 720.024 419.068 719.267 419.068C718.432 419.068 717.71 419.275 717.1 419.69C716.497 420.098 716.032 420.631 715.707 421.288C715.381 421.945 715.218 422.649 715.218 423.401V424.608C715.218 425.638 715.396 426.511 715.751 427.227C716.112 427.937 716.612 428.479 717.251 428.852C717.891 429.219 718.633 429.402 719.48 429.402C720.03 429.402 720.527 429.325 720.971 429.171C721.421 429.011 721.809 428.775 722.134 428.461C722.46 428.141 722.711 427.745 722.889 427.271L724.913 427.839C724.7 428.526 724.342 429.13 723.839 429.651C723.336 430.165 722.714 430.568 721.974 430.858C721.235 431.142 720.403 431.284 719.48 431.284ZM732.326 431.32C731.462 431.32 730.678 431.157 729.973 430.831C729.269 430.5 728.71 430.023 728.295 429.402C727.881 428.775 727.674 428.017 727.674 427.129C727.674 426.348 727.828 425.715 728.136 425.229C728.443 424.738 728.855 424.353 729.37 424.075C729.884 423.797 730.453 423.59 731.074 423.454C731.701 423.312 732.332 423.199 732.965 423.116C733.794 423.01 734.465 422.93 734.98 422.877C735.501 422.818 735.88 422.72 736.117 422.584C736.359 422.448 736.481 422.211 736.481 421.874V421.803C736.481 420.927 736.241 420.246 735.762 419.761C735.288 419.275 734.569 419.033 733.604 419.033C732.604 419.033 731.82 419.252 731.252 419.69C730.684 420.128 730.284 420.595 730.053 421.092L728.065 420.382C728.42 419.554 728.893 418.908 729.485 418.447C730.083 417.979 730.734 417.654 731.438 417.47C732.148 417.281 732.847 417.186 733.533 417.186C733.971 417.186 734.474 417.239 735.043 417.346C735.617 417.446 736.17 417.657 736.703 417.976C737.241 418.296 737.688 418.778 738.043 419.423C738.398 420.068 738.576 420.933 738.576 422.016V431H736.481V429.153H736.374C736.232 429.449 735.995 429.766 735.664 430.103C735.333 430.441 734.892 430.728 734.341 430.964C733.791 431.201 733.119 431.32 732.326 431.32ZM732.646 429.438C733.474 429.438 734.172 429.275 734.741 428.949C735.315 428.624 735.747 428.203 736.037 427.689C736.333 427.174 736.481 426.632 736.481 426.064V424.146C736.392 424.253 736.197 424.35 735.895 424.439C735.599 424.522 735.256 424.596 734.865 424.661C734.48 424.72 734.104 424.774 733.737 424.821C733.376 424.862 733.083 424.898 732.859 424.928C732.314 424.999 731.805 425.114 731.332 425.274C730.864 425.428 730.485 425.661 730.195 425.975C729.911 426.283 729.769 426.703 729.769 427.236C729.769 427.964 730.038 428.514 730.577 428.887C731.121 429.254 731.811 429.438 732.646 429.438ZM747.549 431.284C746.413 431.284 745.41 430.997 744.54 430.423C743.67 429.843 742.989 429.026 742.498 427.973C742.006 426.913 741.761 425.661 741.761 424.217C741.761 422.785 742.006 421.542 742.498 420.489C742.989 419.435 743.673 418.621 744.548 418.047C745.424 417.473 746.436 417.186 747.585 417.186C748.472 417.186 749.174 417.334 749.689 417.63C750.21 417.92 750.606 418.251 750.878 418.624C751.157 418.991 751.373 419.293 751.526 419.53H751.704V412.818H753.799V431H751.775V428.905H751.526C751.373 429.153 751.154 429.467 750.869 429.846C750.585 430.219 750.18 430.553 749.653 430.849C749.126 431.139 748.425 431.284 747.549 431.284ZM747.833 429.402C748.674 429.402 749.384 429.183 749.964 428.745C750.544 428.301 750.985 427.689 751.287 426.907C751.589 426.12 751.74 425.212 751.74 424.182C751.74 423.164 751.592 422.273 751.296 421.51C751 420.74 750.562 420.142 749.982 419.716C749.402 419.284 748.686 419.068 747.833 419.068C746.945 419.068 746.206 419.296 745.614 419.752C745.028 420.202 744.587 420.814 744.291 421.589C744.001 422.359 743.856 423.223 743.856 424.182C743.856 425.152 744.004 426.034 744.3 426.827C744.602 427.615 745.046 428.242 745.632 428.71C746.223 429.171 746.957 429.402 747.833 429.402ZM757.927 431V417.364H760.023V431H757.927ZM758.993 415.091C758.584 415.091 758.232 414.952 757.936 414.674C757.646 414.395 757.501 414.061 757.501 413.67C757.501 413.28 757.646 412.945 757.936 412.667C758.232 412.389 758.584 412.25 758.993 412.25C759.401 412.25 759.75 412.389 760.04 412.667C760.336 412.945 760.484 413.28 760.484 413.67C760.484 414.061 760.336 414.395 760.04 414.674C759.75 414.952 759.401 415.091 758.993 415.091ZM765.955 422.797V431H763.86V417.364H765.884V419.494H766.062C766.381 418.802 766.867 418.246 767.518 417.825C768.169 417.399 769.009 417.186 770.039 417.186C770.962 417.186 771.77 417.375 772.463 417.754C773.155 418.127 773.694 418.695 774.078 419.459C774.463 420.216 774.655 421.175 774.655 422.335V431H772.56V422.477C772.56 421.406 772.282 420.571 771.726 419.974C771.169 419.37 770.406 419.068 769.435 419.068C768.766 419.068 768.169 419.213 767.642 419.503C767.121 419.793 766.71 420.216 766.408 420.773C766.106 421.329 765.955 422.004 765.955 422.797ZM783.988 436.398C782.976 436.398 782.106 436.268 781.378 436.007C780.65 435.753 780.044 435.415 779.558 434.995C779.079 434.581 778.697 434.137 778.413 433.663L780.082 432.491C780.271 432.74 780.511 433.024 780.801 433.344C781.091 433.669 781.488 433.95 781.991 434.187C782.5 434.43 783.166 434.551 783.988 434.551C785.089 434.551 785.998 434.285 786.714 433.752C787.43 433.219 787.788 432.385 787.788 431.249V428.479H787.61C787.457 428.727 787.238 429.035 786.953 429.402C786.675 429.763 786.273 430.086 785.746 430.37C785.225 430.648 784.521 430.787 783.633 430.787C782.532 430.787 781.544 430.527 780.668 430.006C779.798 429.485 779.108 428.727 778.599 427.733C778.096 426.739 777.845 425.531 777.845 424.111C777.845 422.714 778.09 421.498 778.582 420.462C779.073 419.42 779.757 418.615 780.632 418.047C781.508 417.473 782.52 417.186 783.669 417.186C784.556 417.186 785.261 417.334 785.782 417.63C786.308 417.92 786.711 418.251 786.989 418.624C787.273 418.991 787.492 419.293 787.646 419.53H787.859V417.364H789.883V431.391C789.883 432.562 789.617 433.515 789.084 434.249C788.557 434.989 787.847 435.531 786.953 435.874C786.066 436.223 785.077 436.398 783.988 436.398ZM783.917 428.905C784.758 428.905 785.468 428.712 786.048 428.328C786.628 427.943 787.069 427.39 787.371 426.668C787.673 425.946 787.824 425.081 787.824 424.075C787.824 423.093 787.676 422.226 787.38 421.474C787.084 420.722 786.646 420.134 786.066 419.707C785.486 419.281 784.77 419.068 783.917 419.068C783.029 419.068 782.29 419.293 781.698 419.743C781.112 420.193 780.671 420.796 780.375 421.554C780.085 422.312 779.94 423.152 779.94 424.075C779.94 425.022 780.088 425.86 780.384 426.588C780.686 427.31 781.13 427.878 781.716 428.292C782.307 428.701 783.041 428.905 783.917 428.905Z" fill="black"/>
<circle cx="845.511" cy="510.511" r="9.01136" fill="#FFE587" stroke="black"/>
<circle cx="805.511" cy="395.511" r="9.01136" fill="#FFE587" stroke="black"/>
<circle cx="405.511" cy="412.511" r="9.01136" fill="#FFE587" stroke="black"/>
<circle cx="405.511" cy="412.511" r="9.01136" fill="#FFE587" stroke="black"/>
<circle cx="779.511" cy="249.511" r="9.01136" fill="#FFE587" stroke="black"/>
<circle cx="744.511" cy="447.511" r="9.01136" fill="#FFE587" stroke="black"/>
<path d="M111.858 72V54.5455H115.02V69.3494H122.708V72H111.858ZM129.083 72.2642C128.253 72.2642 127.506 72.1165 126.841 71.821C126.182 71.5199 125.659 71.0767 125.273 70.4915C124.892 69.9062 124.702 69.1847 124.702 68.3267C124.702 67.5881 124.838 66.9773 125.111 66.4943C125.384 66.0114 125.756 65.625 126.228 65.3352C126.699 65.0455 127.23 64.8267 127.821 64.679C128.418 64.5256 129.034 64.4148 129.671 64.3466C130.438 64.267 131.06 64.196 131.537 64.1335C132.015 64.0653 132.361 63.9631 132.577 63.8267C132.799 63.6847 132.909 63.4659 132.909 63.1705V63.1193C132.909 62.4773 132.719 61.9801 132.338 61.6278C131.958 61.2756 131.409 61.0994 130.694 61.0994C129.938 61.0994 129.338 61.2642 128.895 61.5938C128.458 61.9233 128.162 62.3125 128.009 62.7614L125.128 62.3523C125.355 61.5568 125.73 60.892 126.253 60.358C126.776 59.8182 127.415 59.4148 128.171 59.1477C128.926 58.875 129.762 58.7386 130.676 58.7386C131.307 58.7386 131.935 58.8125 132.56 58.9602C133.185 59.108 133.756 59.3523 134.273 59.6932C134.79 60.0284 135.205 60.4858 135.517 61.0653C135.836 61.6449 135.995 62.3693 135.995 63.2386V72H133.029V70.2017H132.926C132.739 70.5653 132.475 70.9062 132.134 71.2244C131.799 71.5369 131.375 71.7898 130.864 71.983C130.358 72.1705 129.765 72.2642 129.083 72.2642ZM129.884 69.9972C130.503 69.9972 131.04 69.875 131.495 69.6307C131.949 69.3807 132.299 69.0511 132.543 68.642C132.793 68.233 132.918 67.7869 132.918 67.304V65.7614C132.821 65.8409 132.657 65.9148 132.424 65.983C132.196 66.0511 131.941 66.1108 131.657 66.1619C131.373 66.2131 131.091 66.2585 130.813 66.2983C130.534 66.3381 130.293 66.3722 130.088 66.4006C129.628 66.4631 129.216 66.5653 128.853 66.7074C128.489 66.8494 128.202 67.0483 127.992 67.304C127.782 67.554 127.676 67.8778 127.676 68.2756C127.676 68.8438 127.884 69.2727 128.299 69.5625C128.713 69.8523 129.242 69.9972 129.884 69.9972ZM141.909 67.892L141.901 64.1676H142.395L147.1 58.9091H150.705L144.918 65.3523H144.279L141.909 67.892ZM139.097 72V54.5455H142.182V72H139.097ZM147.313 72L143.051 66.0426L145.131 63.8693L151.003 72H147.313ZM158.017 72.2557C156.705 72.2557 155.571 71.983 154.617 71.4375C153.668 70.8864 152.938 70.108 152.426 69.1023C151.915 68.0909 151.659 66.9006 151.659 65.5312C151.659 64.1847 151.915 63.0028 152.426 61.9858C152.944 60.9631 153.665 60.1676 154.591 59.5994C155.517 59.0256 156.605 58.7386 157.855 58.7386C158.662 58.7386 159.424 58.8693 160.14 59.1307C160.861 59.3864 161.498 59.7841 162.049 60.3239C162.605 60.8636 163.043 61.5511 163.361 62.3864C163.679 63.2159 163.838 64.2045 163.838 65.3523V66.2983H153.108V64.2188H160.881C160.875 63.6278 160.748 63.1023 160.498 62.642C160.248 62.1761 159.898 61.8097 159.449 61.5426C159.006 61.2756 158.489 61.142 157.898 61.142C157.267 61.142 156.713 61.2955 156.236 61.6023C155.759 61.9034 155.387 62.3011 155.12 62.7955C154.858 63.2841 154.725 63.821 154.719 64.4062V66.2216C154.719 66.983 154.858 67.6364 155.137 68.1818C155.415 68.7216 155.804 69.1364 156.304 69.4261C156.804 69.7102 157.39 69.8523 158.06 69.8523C158.509 69.8523 158.915 69.7898 159.279 69.6648C159.642 69.5341 159.958 69.3438 160.225 69.0938C160.492 68.8438 160.694 68.5341 160.83 68.1648L163.711 68.4886C163.529 69.25 163.182 69.9148 162.671 70.483C162.165 71.0455 161.517 71.483 160.728 71.7955C159.938 72.1023 159.034 72.2557 158.017 72.2557ZM116.933 101V83.5455H128.285V86.196H120.094V90.9347H127.697V93.5852H120.094V98.3494H128.353V101H116.933ZM131.374 101V87.9091H134.366V90.0909H134.502C134.741 89.3352 135.15 88.7528 135.729 88.3438C136.315 87.929 136.982 87.7216 137.732 87.7216C137.903 87.7216 138.093 87.7301 138.303 87.7472C138.519 87.7585 138.698 87.7784 138.84 87.8068V90.6449C138.71 90.5994 138.502 90.5597 138.218 90.5256C137.94 90.4858 137.67 90.4659 137.408 90.4659C136.846 90.4659 136.34 90.5881 135.891 90.8324C135.448 91.071 135.099 91.4034 134.843 91.8295C134.587 92.2557 134.46 92.7472 134.46 93.304V101H131.374ZM140.89 101V87.9091H143.975V101H140.89ZM142.441 86.0511C141.952 86.0511 141.532 85.8892 141.18 85.5653C140.827 85.2358 140.651 84.8409 140.651 84.3807C140.651 83.9148 140.827 83.5199 141.18 83.196C141.532 82.8665 141.952 82.7017 142.441 82.7017C142.935 82.7017 143.356 82.8665 143.702 83.196C144.055 83.5199 144.231 83.9148 144.231 84.3807C144.231 84.8409 144.055 85.2358 143.702 85.5653C143.356 85.8892 142.935 86.0511 142.441 86.0511ZM152.943 101.256C151.631 101.256 150.497 100.983 149.543 100.438C148.594 99.8864 147.864 99.108 147.352 98.1023C146.841 97.0909 146.585 95.9006 146.585 94.5312C146.585 93.1847 146.841 92.0028 147.352 90.9858C147.869 89.9631 148.591 89.1676 149.517 88.5994C150.443 88.0256 151.531 87.7386 152.781 87.7386C153.588 87.7386 154.349 87.8693 155.065 88.1307C155.787 88.3864 156.423 88.7841 156.974 89.3239C157.531 89.8636 157.969 90.5511 158.287 91.3864C158.605 92.2159 158.764 93.2045 158.764 94.3523V95.2983H148.034V93.2188H155.807C155.801 92.6278 155.673 92.1023 155.423 91.642C155.173 91.1761 154.824 90.8097 154.375 90.5426C153.932 90.2756 153.415 90.142 152.824 90.142C152.193 90.142 151.639 90.2955 151.162 90.6023C150.685 90.9034 150.313 91.3011 150.045 91.7955C149.784 92.2841 149.651 92.821 149.645 93.4062V95.2216C149.645 95.983 149.784 96.6364 150.062 97.1818C150.341 97.7216 150.73 98.1364 151.23 98.4261C151.73 98.7102 152.315 98.8523 152.986 98.8523C153.435 98.8523 153.841 98.7898 154.205 98.6648C154.568 98.5341 154.884 98.3438 155.151 98.0938C155.418 97.8438 155.619 97.5341 155.756 97.1648L158.636 97.4886C158.455 98.25 158.108 98.9148 157.597 99.483C157.091 100.045 156.443 100.483 155.653 100.795C154.864 101.102 153.96 101.256 152.943 101.256Z" fill="#017D83"/>
<path d="M904.065 363.545V381H901.253L893.028 369.111H892.884V381H889.722V363.545H892.551L900.767 375.443H900.92V363.545H904.065ZM914.397 363.545H917.533V375.818C917.528 376.943 917.289 377.912 916.817 378.724C916.346 379.531 915.687 380.153 914.84 380.591C913.999 381.023 913.019 381.239 911.9 381.239C910.877 381.239 909.957 381.057 909.138 380.693C908.326 380.324 907.681 379.778 907.204 379.057C906.727 378.335 906.488 377.437 906.488 376.364H909.633C909.638 376.835 909.741 377.241 909.94 377.582C910.144 377.923 910.425 378.185 910.783 378.366C911.141 378.548 911.553 378.639 912.019 378.639C912.525 378.639 912.954 378.534 913.306 378.324C913.658 378.108 913.925 377.79 914.107 377.369C914.295 376.949 914.391 376.432 914.397 375.818V363.545Z" fill="#005A5E"/>
<defs>
<filter id="filter0_d_93_82" x="110.5" y="91.2043" width="809.671" height="472.296" filterUnits="userSpaceOnUse" color-interpolation-filters="sRGB">
<feFlood flood-opacity="0" result="BackgroundImageFix"/>
<feColorMatrix in="SourceAlpha" type="matrix" values="0 0 0 0 0 0 0 0 0 0 0 0 0 0 0 0 0 0 127 0" result="hardAlpha"/>
<feOffset dy="4"/>
<feGaussianBlur stdDeviation="2"/>
<feComposite in2="hardAlpha" operator="out"/>
<feColorMatrix type="matrix" values="0 0 0 0 0 0 0 0 0 0 0 0 0 0 0 0 0 0 0.25 0"/>
<feBlend mode="normal" in2="BackgroundImageFix" result="effect1_dropShadow_93_82"/>
<feBlend mode="normal" in="SourceGraphic" in2="effect1_dropShadow_93_82" result="shape"/>
</filter>
</defs>
</svg>
