<svg width="652" height="843" viewBox="0 0 652 843" fill="none" xmlns="http://www.w3.org/2000/svg">
<rect x="0.5" y="0.5" width="651" height="842" rx="35.5" fill="#97DCFF" stroke="#717171"/>
<path d="M424.872 723H421.497L430.54 705.545H434.443L437.699 723H434.324L431.98 709.125H431.844L424.872 723ZM426.116 716.156H435.321L434.895 718.696H425.69L426.116 716.156ZM447.76 709.909L447.359 712.295H439.842L440.234 709.909H447.76ZM442.604 706.773H445.689L443.643 719.062C443.581 719.477 443.592 719.795 443.678 720.017C443.768 720.233 443.913 720.381 444.112 720.46C444.317 720.54 444.547 720.58 444.803 720.58C444.99 720.58 445.166 720.565 445.331 720.537C445.496 720.503 445.626 720.477 445.723 720.46L445.859 722.872C445.672 722.929 445.419 722.991 445.101 723.06C444.788 723.128 444.413 723.168 443.976 723.179C443.192 723.196 442.51 723.077 441.93 722.821C441.357 722.56 440.936 722.159 440.669 721.619C440.408 721.074 440.348 720.392 440.49 719.574L442.604 706.773ZM454.423 705.545L451.525 723H448.44L451.337 705.545H454.423ZM458.43 723.264C457.601 723.264 456.879 723.116 456.266 722.821C455.652 722.52 455.2 722.077 454.911 721.491C454.626 720.906 454.555 720.185 454.697 719.327C454.822 718.588 455.061 717.977 455.413 717.494C455.771 717.011 456.209 716.625 456.726 716.335C457.249 716.04 457.817 715.818 458.43 715.67C459.05 715.523 459.68 715.415 460.322 715.347C461.107 715.267 461.74 715.193 462.223 715.125C462.712 715.057 463.078 714.955 463.322 714.818C463.567 714.676 463.714 714.46 463.766 714.17V714.119C463.868 713.477 463.766 712.98 463.459 712.628C463.152 712.276 462.641 712.099 461.925 712.099C461.175 712.099 460.544 712.264 460.033 712.594C459.521 712.923 459.149 713.312 458.916 713.761L456.121 713.352C456.473 712.557 456.956 711.892 457.57 711.358C458.183 710.818 458.891 710.415 459.692 710.148C460.499 709.875 461.359 709.739 462.274 709.739C462.899 709.739 463.51 709.812 464.107 709.96C464.709 710.108 465.24 710.352 465.7 710.693C466.166 711.028 466.507 711.486 466.723 712.065C466.945 712.645 466.982 713.369 466.834 714.239L465.376 723H462.411L462.717 721.202H462.615C462.371 721.565 462.053 721.906 461.661 722.224C461.268 722.537 460.803 722.79 460.263 722.983C459.723 723.17 459.112 723.264 458.43 723.264ZM459.598 720.997C460.217 720.997 460.774 720.875 461.268 720.631C461.763 720.381 462.169 720.051 462.487 719.642C462.805 719.233 463.004 718.787 463.084 718.304L463.339 716.761C463.226 716.841 463.05 716.915 462.811 716.983C462.572 717.051 462.305 717.111 462.01 717.162C461.72 717.213 461.433 717.259 461.149 717.298C460.865 717.338 460.621 717.372 460.416 717.401C459.945 717.463 459.513 717.565 459.121 717.707C458.734 717.849 458.413 718.048 458.158 718.304C457.908 718.554 457.751 718.878 457.689 719.276C457.598 719.838 457.732 720.267 458.089 720.562C458.447 720.852 458.95 720.997 459.598 720.997ZM472.842 715.33L471.581 723H468.487L470.669 709.909H473.626L473.251 712.134H473.413C473.822 711.401 474.396 710.818 475.135 710.386C475.874 709.955 476.734 709.739 477.717 709.739C478.609 709.739 479.359 709.932 479.967 710.318C480.575 710.699 481.007 711.259 481.263 711.997C481.518 712.73 481.558 713.619 481.382 714.665L479.984 723H476.899L478.203 715.142C478.351 714.273 478.24 713.591 477.871 713.097C477.507 712.597 476.922 712.347 476.115 712.347C475.575 712.347 475.078 712.466 474.624 712.705C474.169 712.937 473.786 713.276 473.473 713.719C473.166 714.162 472.956 714.699 472.842 715.33ZM491.822 709.909L491.422 712.295H483.905L484.297 709.909H491.822ZM486.666 706.773H489.751L487.706 719.062C487.643 719.477 487.655 719.795 487.74 720.017C487.831 720.233 487.976 720.381 488.175 720.46C488.379 720.54 488.609 720.58 488.865 720.58C489.053 720.58 489.229 720.565 489.393 720.537C489.558 720.503 489.689 720.477 489.786 720.46L489.922 722.872C489.734 722.929 489.482 722.991 489.163 723.06C488.851 723.128 488.476 723.168 488.038 723.179C487.254 723.196 486.572 723.077 485.993 722.821C485.419 722.56 484.999 722.159 484.732 721.619C484.47 721.074 484.411 720.392 484.553 719.574L486.666 706.773ZM492.221 723L494.403 709.909H497.488L495.306 723H492.221ZM496.397 708.034C495.903 708.034 495.494 707.869 495.17 707.54C494.846 707.21 494.704 706.815 494.744 706.355C494.783 705.895 494.991 705.5 495.366 705.17C495.746 704.841 496.181 704.676 496.67 704.676C497.164 704.676 497.57 704.841 497.888 705.17C498.212 705.5 498.354 705.895 498.315 706.355C498.281 706.815 498.073 707.21 497.692 707.54C497.317 707.869 496.886 708.034 496.397 708.034ZM504.155 723.256C502.848 723.256 501.774 722.969 500.933 722.395C500.092 721.821 499.504 721.028 499.169 720.017C498.839 719 498.786 717.83 499.007 716.506C499.223 715.176 499.669 714.003 500.345 712.986C501.027 711.963 501.885 711.168 502.919 710.599C503.953 710.026 505.109 709.739 506.388 709.739C507.45 709.739 508.357 709.935 509.107 710.327C509.862 710.713 510.425 711.261 510.794 711.972C511.169 712.676 511.314 713.5 511.229 714.443H508.271C508.26 713.812 508.064 713.287 507.683 712.866C507.303 712.44 506.746 712.227 506.013 712.227C505.376 712.227 504.791 712.398 504.257 712.739C503.723 713.074 503.271 713.557 502.902 714.188C502.533 714.818 502.277 715.574 502.135 716.455C501.987 717.347 501.99 718.114 502.143 718.756C502.303 719.392 502.589 719.884 503.004 720.23C503.425 720.571 503.956 720.741 504.598 720.741C505.053 720.741 505.476 720.656 505.868 720.486C506.26 720.31 506.604 720.057 506.899 719.727C507.2 719.398 507.436 718.997 507.607 718.526H510.555C510.322 719.452 509.908 720.273 509.311 720.989C508.72 721.699 507.987 722.256 507.112 722.659C506.237 723.057 505.251 723.256 504.155 723.256ZM439.642 743.477C439.335 745.33 438.73 746.909 437.827 748.216C436.929 749.517 435.832 750.514 434.537 751.207C433.247 751.895 431.858 752.239 430.369 752.239C428.807 752.239 427.466 751.875 426.347 751.148C425.227 750.415 424.42 749.366 423.926 748.003C423.438 746.639 423.352 745.003 423.67 743.094C423.977 741.247 424.58 739.668 425.477 738.355C426.375 737.043 427.474 736.04 428.776 735.347C430.077 734.653 431.48 734.307 432.986 734.307C434.537 734.307 435.866 734.673 436.974 735.406C438.088 736.134 438.889 737.182 439.378 738.551C439.872 739.92 439.96 741.562 439.642 743.477ZM436.531 743.094C436.741 741.804 436.722 740.716 436.472 739.83C436.227 738.943 435.793 738.276 435.168 737.827C434.543 737.372 433.773 737.145 432.858 737.145C431.869 737.145 430.955 737.392 430.114 737.886C429.278 738.375 428.568 739.091 427.983 740.034C427.403 740.977 427.006 742.125 426.79 743.477C426.563 744.773 426.577 745.861 426.832 746.741C427.088 747.622 427.531 748.287 428.162 748.736C428.793 749.179 429.563 749.401 430.472 749.401C431.455 749.401 432.364 749.156 433.199 748.668C434.034 748.179 434.741 747.466 435.321 746.528C435.906 745.591 436.31 744.446 436.531 743.094ZM446.756 752.256C445.45 752.256 444.376 751.969 443.535 751.395C442.694 750.821 442.106 750.028 441.771 749.017C441.441 748 441.387 746.83 441.609 745.506C441.825 744.176 442.271 743.003 442.947 741.986C443.629 740.963 444.487 740.168 445.521 739.599C446.555 739.026 447.711 738.739 448.989 738.739C450.052 738.739 450.958 738.935 451.708 739.327C452.464 739.713 453.026 740.261 453.396 740.972C453.771 741.676 453.915 742.5 453.83 743.443H450.873C450.862 742.812 450.665 742.287 450.285 741.866C449.904 741.44 449.347 741.227 448.614 741.227C447.978 741.227 447.393 741.398 446.859 741.739C446.325 742.074 445.873 742.557 445.504 743.188C445.134 743.818 444.879 744.574 444.737 745.455C444.589 746.347 444.592 747.114 444.745 747.756C444.904 748.392 445.191 748.884 445.606 749.23C446.026 749.571 446.558 749.741 447.2 749.741C447.654 749.741 448.077 749.656 448.469 749.486C448.862 749.31 449.205 749.057 449.501 748.727C449.802 748.398 450.038 747.997 450.208 747.526H453.157C452.924 748.452 452.509 749.273 451.913 749.989C451.322 750.699 450.589 751.256 449.714 751.659C448.839 752.057 447.853 752.256 446.756 752.256ZM460.693 752.256C459.381 752.256 458.295 751.983 457.438 751.438C456.58 750.886 455.977 750.108 455.631 749.102C455.29 748.091 455.233 746.901 455.46 745.531C455.682 744.185 456.134 743.003 456.815 741.986C457.497 740.963 458.349 740.168 459.372 739.599C460.401 739.026 461.537 738.739 462.781 738.739C463.588 738.739 464.33 738.869 465.006 739.131C465.682 739.386 466.253 739.784 466.719 740.324C467.185 740.864 467.506 741.551 467.682 742.386C467.858 743.216 467.849 744.205 467.656 745.352L467.511 746.298H456.773L457.105 744.219H464.878C464.98 743.628 464.946 743.102 464.776 742.642C464.605 742.176 464.321 741.81 463.923 741.543C463.526 741.276 463.028 741.142 462.432 741.142C461.824 741.142 461.256 741.298 460.727 741.611C460.205 741.918 459.764 742.315 459.406 742.804C459.048 743.293 458.821 743.807 458.724 744.347L458.375 746.341C458.25 747.159 458.278 747.827 458.46 748.344C458.642 748.861 458.96 749.241 459.415 749.486C459.869 749.73 460.443 749.852 461.136 749.852C461.591 749.852 462.011 749.79 462.398 749.665C462.784 749.54 463.128 749.352 463.429 749.102C463.736 748.847 463.991 748.534 464.196 748.165L467.017 748.489C466.705 749.25 466.247 749.915 465.645 750.483C465.043 751.045 464.321 751.483 463.48 751.795C462.645 752.102 461.716 752.256 460.693 752.256ZM472.915 752.264C472.085 752.264 471.364 752.116 470.75 751.821C470.136 751.52 469.685 751.077 469.395 750.491C469.111 749.906 469.04 749.185 469.182 748.327C469.307 747.588 469.545 746.977 469.898 746.494C470.256 746.011 470.693 745.625 471.21 745.335C471.733 745.04 472.301 744.818 472.915 744.67C473.534 744.523 474.165 744.415 474.807 744.347C475.591 744.267 476.224 744.193 476.707 744.125C477.196 744.057 477.563 743.955 477.807 743.818C478.051 743.676 478.199 743.46 478.25 743.17V743.119C478.352 742.477 478.25 741.98 477.943 741.628C477.636 741.276 477.125 741.099 476.409 741.099C475.659 741.099 475.028 741.264 474.517 741.594C474.006 741.923 473.634 742.312 473.401 742.761L470.605 742.352C470.957 741.557 471.44 740.892 472.054 740.358C472.668 739.818 473.375 739.415 474.176 739.148C474.983 738.875 475.844 738.739 476.759 738.739C477.384 738.739 477.994 738.812 478.591 738.96C479.193 739.108 479.724 739.352 480.185 739.693C480.651 740.028 480.991 740.486 481.207 741.065C481.429 741.645 481.466 742.369 481.318 743.239L479.861 752H476.895L477.202 750.202H477.099C476.855 750.565 476.537 750.906 476.145 751.224C475.753 751.537 475.287 751.79 474.747 751.983C474.207 752.17 473.597 752.264 472.915 752.264ZM474.082 749.997C474.702 749.997 475.259 749.875 475.753 749.631C476.247 749.381 476.653 749.051 476.972 748.642C477.29 748.233 477.489 747.787 477.568 747.304L477.824 745.761C477.71 745.841 477.534 745.915 477.295 745.983C477.057 746.051 476.79 746.111 476.494 746.162C476.205 746.213 475.918 746.259 475.634 746.298C475.349 746.338 475.105 746.372 474.901 746.401C474.429 746.463 473.997 746.565 473.605 746.707C473.219 746.849 472.898 747.048 472.642 747.304C472.392 747.554 472.236 747.878 472.173 748.276C472.082 748.838 472.216 749.267 472.574 749.562C472.932 749.852 473.435 749.997 474.082 749.997ZM487.327 744.33L486.065 752H482.972L485.153 738.909H488.111L487.736 741.134H487.898C488.307 740.401 488.881 739.818 489.619 739.386C490.358 738.955 491.219 738.739 492.202 738.739C493.094 738.739 493.844 738.932 494.452 739.318C495.06 739.699 495.491 740.259 495.747 740.997C496.003 741.73 496.043 742.619 495.866 743.665L494.469 752H491.384L492.688 744.142C492.835 743.273 492.724 742.591 492.355 742.097C491.991 741.597 491.406 741.347 490.599 741.347C490.06 741.347 489.563 741.466 489.108 741.705C488.653 741.937 488.27 742.276 487.957 742.719C487.651 743.162 487.44 743.699 487.327 744.33Z" fill="#017D83"/>
<g filter="url(#filter0_d_55_147)">
<path d="M509 417L513 414.055H518V402L513 388L521 381L527 372.5L500 330.5L451 301.5L441.5 285V270.5L435 259.5L441.5 249V238L446 222L441.5 204.5V183.5L409 187V61.5L97.5 72L106.5 426L99.5 662.5L82 660.5L74.5 669.5H68L64.5 676.5V685L74.5 695.5L72.5 707.5L70.5 714.606L68 720.5L70.5 726.5L74.5 738L59.5 753L52 763L55 772L91.5 759L93.5 753L109.5 746L132 753L138 746H148L152.5 738L160.5 730.5H174.5L181.5 720.5L199 724L208.5 714.606V707.5L223 711.5L218.5 718.5L195.5 730.5L178 736L169 733.5L162.5 736L160.5 741.5L138 753L155 750H164.5L178 741.5L199 730.5L218.5 726.5L237.5 718.5L265.5 711.5L293.5 707.5L312 705L308 689L317 660.5L325.5 656.5L321.5 676L329 689L321.5 698L317 689V702L325.5 711.5L334 718.5V707.5L344 687L350 685L353 676L357 671L353 647.5L378 633L372.5 614.422L382 609V599.5V581.028L385.5 564.5V550.5L375.5 536.5L372.5 534.5L375.5 521.5H369.5L365.5 515L361.091 510.5L357 504.5L361.091 497.541L367.5 504.5L375.5 497.541L391.5 493V480L385.5 477.5L394 466.5L389.5 461L394 454.5L391.5 443V419.5L378 414.055H367.5H361.091L365.5 406.5L361.091 399V392.5L382 399L399.5 395L403 410L411 414.055L416 410V399L424 392.5L420.5 388V381V372.5L439 357.5H459L466.5 372.5L475.5 377L474.5 397.5L466.5 399L464.5 414.055L468.5 432.278L472.5 429L479.5 410L486 414.055L493 422.5L492 434L500 438.5L506 422.5L509 417Z" fill="#FFD597"/>
<path d="M562 410L550.5 406.5L538.5 429L533.5 450L536 454.5L533.5 470.5L542 487.5H538.5L533.5 497.541L538.5 504.5V524L533.5 519L530.5 521.5L533.5 524V534.5L542 539.5L538.5 554L542 568V581.028L547 590L553.5 596V605L547 614.422L550.5 626L556.5 620H567.5V609V599.5H575.5L581 605L589.5 599.5V590L604.5 584L595 487.5L589.5 473.5V461L595 454.5V419.5L564.5 414.055L562 410Z" fill="#FFD597"/>
<path d="M424 620L428.5 626L436.5 633L445.5 628.5L452 623.5L460 626L466.5 628.5L464.5 614.422L472.5 609V596L479.5 593L488.5 599.5L497.5 590L509 599.5V609H515.5V599.5L513 590L515.5 578.5L524 554L518 546L521 528L515.5 524L518 504.5L513 497.541V487.5L515.5 461C517.333 461 521.6 460.4 524 458C526.4 455.6 523 451.667 521 450H530.5L533.5 434L527 432.278L515.5 443H509L500 447V454.5L488.5 461L492 466.5L486 490.5H479.5V497.541V504.5L472.5 510.5L464.5 528V536.5L468.5 546L460 542.5V561L456.5 558L452 561V568V581.028L456.5 605H449.5H442L433 609L424 620Z" fill="#FFD597"/>
<path d="M442 426L436.5 417L428.5 422.5L420.5 419.5L424 432.278L428.5 429L433 426V432.278L430.5 440.5L433 450L445.5 454.5L449.5 458V466.5L442 483V497.541L452 504.5L460 493L468.5 477.5L466.5 461L460 450H445.5L439 438.5L445.5 432.278L442 426Z" fill="#FFD597"/>
<path d="M420.5 587L428.5 605H411V590L406.5 593V599.5L411 614.422L403 617.5V626L397.5 628.5L394 626L397.5 612.5L394 593L399.5 587L403 590L406.5 584L411 573.5L399.5 564.5L406.5 542.5V524L411 519L416 508L424 510.5V528L420.5 539.5L424 554V568L428.5 573.5L420.5 581.028V587Z" fill="#FFD597"/>
<path d="M509 417L513 414.055H518V402L513 388L521 381L527 372.5L500 330.5L451 301.5L441.5 285V270.5L435 259.5L441.5 249V238L446 222L441.5 204.5V183.5L409 187V61.5L97.5 72L106.5 426L99.5 662.5L82 660.5L74.5 669.5H68L64.5 676.5V685L74.5 695.5L72.5 707.5L70.5 714.606L68 720.5L70.5 726.5L74.5 738L59.5 753L52 763L55 772L91.5 759L93.5 753L109.5 746L132 753L138 746H148L152.5 738L160.5 730.5H174.5L181.5 720.5L199 724L208.5 714.606V707.5L223 711.5L218.5 718.5L195.5 730.5L178 736L169 733.5L162.5 736L160.5 741.5L138 753L155 750H164.5L178 741.5L199 730.5L218.5 726.5L237.5 718.5L265.5 711.5L293.5 707.5L312 705L308 689L317 660.5L325.5 656.5L321.5 676L329 689L321.5 698L317 689V702L325.5 711.5L334 718.5V707.5L344 687L350 685L353 676L357 671L353 647.5L378 633L372.5 614.422L382 609V599.5V581.028L385.5 564.5V550.5L375.5 536.5L372.5 534.5L375.5 521.5H369.5L365.5 515L361.091 510.5L357 504.5L361.091 497.541L367.5 504.5L375.5 497.541L391.5 493V480L385.5 477.5L394 466.5L389.5 461L394 454.5L391.5 443V419.5L378 414.055H367.5H361.091L365.5 406.5L361.091 399V392.5L382 399L399.5 395L403 410L411 414.055L416 410V399L424 392.5L420.5 388V381V372.5L439 357.5H459L466.5 372.5L475.5 377L474.5 397.5L466.5 399L464.5 414.055L468.5 432.278L472.5 429L479.5 410L486 414.055L493 422.5L492 434L500 438.5L506 422.5L509 417Z" stroke="black"/>
<path d="M562 410L550.5 406.5L538.5 429L533.5 450L536 454.5L533.5 470.5L542 487.5H538.5L533.5 497.541L538.5 504.5V524L533.5 519L530.5 521.5L533.5 524V534.5L542 539.5L538.5 554L542 568V581.028L547 590L553.5 596V605L547 614.422L550.5 626L556.5 620H567.5V609V599.5H575.5L581 605L589.5 599.5V590L604.5 584L595 487.5L589.5 473.5V461L595 454.5V419.5L564.5 414.055L562 410Z" stroke="black"/>
<path d="M424 620L428.5 626L436.5 633L445.5 628.5L452 623.5L460 626L466.5 628.5L464.5 614.422L472.5 609V596L479.5 593L488.5 599.5L497.5 590L509 599.5V609H515.5V599.5L513 590L515.5 578.5L524 554L518 546L521 528L515.5 524L518 504.5L513 497.541V487.5L515.5 461C517.333 461 521.6 460.4 524 458C526.4 455.6 523 451.667 521 450H530.5L533.5 434L527 432.278L515.5 443H509L500 447V454.5L488.5 461L492 466.5L486 490.5H479.5V497.541V504.5L472.5 510.5L464.5 528V536.5L468.5 546L460 542.5V561L456.5 558L452 561V568V581.028L456.5 605H449.5H442L433 609L424 620Z" stroke="black"/>
<path d="M442 426L436.5 417L428.5 422.5L420.5 419.5L424 432.278L428.5 429L433 426V432.278L430.5 440.5L433 450L445.5 454.5L449.5 458V466.5L442 483V497.541L452 504.5L460 493L468.5 477.5L466.5 461L460 450H445.5L439 438.5L445.5 432.278L442 426Z" stroke="black"/>
<path d="M420.5 587L428.5 605H411V590L406.5 593V599.5L411 614.422L403 617.5V626L397.5 628.5L394 626L397.5 612.5L394 593L399.5 587L403 590L406.5 584L411 573.5L399.5 564.5L406.5 542.5V524L411 519L416 508L424 510.5V528L420.5 539.5L424 554V568L428.5 573.5L420.5 581.028V587Z" stroke="black"/>
</g>
<path d="M229.58 260V241.818H236.754C238.133 241.818 239.307 242.082 240.278 242.608C241.249 243.129 241.989 243.854 242.498 244.783C243.012 245.707 243.27 246.772 243.27 247.979C243.27 249.187 243.009 250.252 242.489 251.175C241.968 252.099 241.213 252.818 240.225 253.333C239.242 253.848 238.053 254.105 236.656 254.105H232.084V251.025H236.034C236.774 251.025 237.384 250.897 237.863 250.643C238.349 250.382 238.71 250.024 238.946 249.569C239.189 249.107 239.31 248.577 239.31 247.979C239.31 247.376 239.189 246.849 238.946 246.399C238.71 245.943 238.349 245.591 237.863 245.343C237.378 245.088 236.762 244.961 236.017 244.961H233.424V260H229.58ZM245.696 260V246.364H249.362V248.743H249.504C249.753 247.897 250.17 247.257 250.756 246.825C251.342 246.387 252.017 246.168 252.78 246.168C252.97 246.168 253.174 246.18 253.393 246.204C253.612 246.228 253.804 246.26 253.97 246.301V249.657C253.792 249.604 253.547 249.557 253.233 249.515C252.919 249.474 252.632 249.453 252.372 249.453C251.816 249.453 251.318 249.574 250.88 249.817C250.448 250.054 250.105 250.385 249.851 250.811C249.602 251.238 249.478 251.729 249.478 252.285V260H245.696ZM261.452 260.266C260.073 260.266 258.88 259.973 257.874 259.387C256.874 258.796 256.101 257.973 255.557 256.919C255.012 255.86 254.74 254.632 254.74 253.235C254.74 251.826 255.012 250.595 255.557 249.542C256.101 248.482 256.874 247.66 257.874 247.074C258.88 246.482 260.073 246.186 261.452 246.186C262.831 246.186 264.02 246.482 265.021 247.074C266.027 247.66 266.802 248.482 267.347 249.542C267.891 250.595 268.163 251.826 268.163 253.235C268.163 254.632 267.891 255.86 267.347 256.919C266.802 257.973 266.027 258.796 265.021 259.387C264.02 259.973 262.831 260.266 261.452 260.266ZM261.469 257.337C262.097 257.337 262.621 257.159 263.041 256.804C263.461 256.443 263.778 255.952 263.991 255.33C264.21 254.709 264.319 254.002 264.319 253.208C264.319 252.415 264.21 251.708 263.991 251.087C263.778 250.465 263.461 249.974 263.041 249.613C262.621 249.252 262.097 249.071 261.469 249.071C260.836 249.071 260.304 249.252 259.871 249.613C259.445 249.974 259.123 250.465 258.904 251.087C258.691 251.708 258.584 252.415 258.584 253.208C258.584 254.002 258.691 254.709 258.904 255.33C259.123 255.952 259.445 256.443 259.871 256.804C260.304 257.159 260.836 257.337 261.469 257.337ZM282.896 246.364L278.129 260H273.867L269.1 246.364H273.095L275.927 256.12H276.069L278.892 246.364H282.896ZM284.831 260V246.364H288.613V260H284.831ZM286.731 244.606C286.169 244.606 285.687 244.419 285.284 244.047C284.888 243.668 284.689 243.215 284.689 242.688C284.689 242.167 284.888 241.721 285.284 241.348C285.687 240.969 286.169 240.779 286.731 240.779C287.294 240.779 287.773 240.969 288.17 241.348C288.572 241.721 288.773 242.167 288.773 242.688C288.773 243.215 288.572 243.668 288.17 244.047C287.773 244.419 287.294 244.606 286.731 244.606ZM296.668 260.222C295.632 260.222 294.694 259.956 293.854 259.423C293.019 258.884 292.356 258.094 291.865 257.053C291.38 256.005 291.137 254.721 291.137 253.2C291.137 251.637 291.389 250.338 291.892 249.302C292.395 248.261 293.063 247.482 293.898 246.967C294.738 246.446 295.659 246.186 296.659 246.186C297.422 246.186 298.059 246.316 298.568 246.577C299.083 246.831 299.497 247.151 299.811 247.536C300.13 247.914 300.373 248.287 300.539 248.654H300.654V241.818H304.427V260H300.698V257.816H300.539C300.361 258.195 300.11 258.571 299.784 258.944C299.464 259.31 299.047 259.615 298.532 259.858C298.023 260.101 297.402 260.222 296.668 260.222ZM297.866 257.212C298.476 257.212 298.991 257.047 299.411 256.715C299.837 256.378 300.163 255.907 300.388 255.304C300.619 254.7 300.734 253.993 300.734 253.182C300.734 252.371 300.621 251.667 300.397 251.069C300.172 250.471 299.846 250.009 299.42 249.684C298.994 249.358 298.476 249.196 297.866 249.196C297.245 249.196 296.721 249.364 296.295 249.702C295.869 250.039 295.546 250.507 295.327 251.104C295.108 251.702 294.999 252.395 294.999 253.182C294.999 253.975 295.108 254.676 295.327 255.286C295.552 255.89 295.875 256.363 296.295 256.706C296.721 257.044 297.245 257.212 297.866 257.212ZM313.751 260.266C312.348 260.266 311.141 259.982 310.129 259.414C309.123 258.84 308.347 258.029 307.803 256.982C307.258 255.928 306.986 254.682 306.986 253.244C306.986 251.841 307.258 250.61 307.803 249.551C308.347 248.491 309.114 247.666 310.102 247.074C311.097 246.482 312.263 246.186 313.6 246.186C314.5 246.186 315.337 246.331 316.113 246.621C316.894 246.905 317.574 247.334 318.154 247.908C318.74 248.482 319.196 249.205 319.522 250.075C319.847 250.939 320.01 251.951 320.01 253.111V254.15H308.495V251.806H316.45C316.45 251.261 316.332 250.779 316.095 250.359C315.858 249.938 315.53 249.61 315.109 249.373C314.695 249.131 314.213 249.009 313.662 249.009C313.088 249.009 312.579 249.142 312.135 249.409C311.697 249.669 311.354 250.021 311.105 250.465C310.857 250.903 310.73 251.391 310.724 251.93V254.158C310.724 254.833 310.848 255.416 311.097 255.907C311.351 256.399 311.709 256.777 312.171 257.044C312.632 257.31 313.18 257.443 313.813 257.443C314.233 257.443 314.618 257.384 314.967 257.266C315.317 257.147 315.615 256.97 315.864 256.733C316.113 256.496 316.302 256.206 316.432 255.863L319.93 256.094C319.752 256.934 319.388 257.668 318.838 258.295C318.294 258.917 317.589 259.402 316.725 259.751C315.867 260.095 314.876 260.266 313.751 260.266ZM326.26 252.116V260H322.478V246.364H326.082V248.77H326.242C326.544 247.976 327.05 247.349 327.76 246.887C328.471 246.42 329.332 246.186 330.344 246.186C331.291 246.186 332.116 246.393 332.821 246.808C333.525 247.222 334.072 247.814 334.463 248.583C334.854 249.347 335.049 250.258 335.049 251.317V260H331.267V251.992C331.273 251.158 331.06 250.507 330.628 250.039C330.196 249.566 329.601 249.329 328.843 249.329C328.334 249.329 327.885 249.438 327.494 249.657C327.109 249.876 326.807 250.196 326.588 250.616C326.375 251.03 326.266 251.531 326.26 252.116ZM344.191 260.266C342.794 260.266 341.593 259.97 340.587 259.379C339.586 258.781 338.817 257.952 338.278 256.893C337.746 255.833 337.479 254.614 337.479 253.235C337.479 251.838 337.749 250.613 338.287 249.56C338.832 248.5 339.604 247.675 340.604 247.083C341.605 246.485 342.794 246.186 344.173 246.186C345.363 246.186 346.405 246.402 347.298 246.834C348.192 247.266 348.899 247.873 349.42 248.654C349.941 249.435 350.228 250.353 350.281 251.406H346.712C346.612 250.726 346.345 250.178 345.913 249.764C345.487 249.344 344.928 249.134 344.235 249.134C343.649 249.134 343.137 249.293 342.699 249.613C342.267 249.927 341.93 250.385 341.687 250.989C341.445 251.593 341.323 252.324 341.323 253.182C341.323 254.052 341.442 254.792 341.679 255.401C341.921 256.011 342.262 256.475 342.699 256.795C343.137 257.115 343.649 257.275 344.235 257.275C344.667 257.275 345.055 257.186 345.398 257.008C345.748 256.831 346.035 256.573 346.259 256.236C346.49 255.893 346.641 255.481 346.712 255.002H350.281C350.222 256.043 349.938 256.961 349.429 257.754C348.926 258.541 348.23 259.157 347.343 259.6C346.455 260.044 345.404 260.266 344.191 260.266ZM358.917 260.266C357.514 260.266 356.307 259.982 355.295 259.414C354.289 258.84 353.513 258.029 352.969 256.982C352.424 255.928 352.152 254.682 352.152 253.244C352.152 251.841 352.424 250.61 352.969 249.551C353.513 248.491 354.28 247.666 355.268 247.074C356.263 246.482 357.429 246.186 358.766 246.186C359.666 246.186 360.503 246.331 361.279 246.621C362.06 246.905 362.74 247.334 363.32 247.908C363.906 248.482 364.362 249.205 364.688 250.075C365.013 250.939 365.176 251.951 365.176 253.111V254.15H353.661V251.806H361.616C361.616 251.261 361.498 250.779 361.261 250.359C361.024 249.938 360.696 249.61 360.275 249.373C359.861 249.131 359.379 249.009 358.828 249.009C358.254 249.009 357.745 249.142 357.301 249.409C356.863 249.669 356.52 250.021 356.271 250.465C356.023 250.903 355.896 251.391 355.89 251.93V254.158C355.89 254.833 356.014 255.416 356.263 255.907C356.517 256.399 356.875 256.777 357.337 257.044C357.798 257.31 358.346 257.443 358.979 257.443C359.399 257.443 359.784 257.384 360.133 257.266C360.483 257.147 360.781 256.97 361.03 256.733C361.279 256.496 361.468 256.206 361.598 255.863L365.096 256.094C364.919 256.934 364.555 257.668 364.004 258.295C363.46 258.917 362.755 259.402 361.891 259.751C361.033 260.095 360.042 260.266 358.917 260.266Z" fill="black"/>
<path d="M279.504 388L274.533 369.818H276.77L280.57 384.626H280.747L284.618 369.818H287.104L290.974 384.626H291.152L294.952 369.818H297.189L292.217 388H289.945L285.932 373.511H285.79L281.777 388H279.504ZM302.391 388.32C301.527 388.32 300.743 388.157 300.039 387.831C299.334 387.5 298.775 387.023 298.361 386.402C297.946 385.775 297.739 385.017 297.739 384.129C297.739 383.348 297.893 382.715 298.201 382.229C298.509 381.738 298.92 381.353 299.435 381.075C299.95 380.797 300.518 380.59 301.14 380.454C301.767 380.312 302.397 380.199 303.031 380.116C303.859 380.01 304.531 379.93 305.046 379.877C305.567 379.818 305.945 379.72 306.182 379.584C306.425 379.448 306.546 379.211 306.546 378.874V378.803C306.546 377.927 306.306 377.246 305.827 376.761C305.354 376.275 304.634 376.033 303.67 376.033C302.67 376.033 301.885 376.252 301.317 376.69C300.749 377.128 300.349 377.595 300.119 378.092L298.13 377.382C298.485 376.554 298.959 375.908 299.55 375.447C300.148 374.979 300.799 374.654 301.504 374.47C302.214 374.281 302.912 374.186 303.599 374.186C304.037 374.186 304.54 374.239 305.108 374.346C305.682 374.446 306.235 374.657 306.768 374.976C307.307 375.296 307.754 375.778 308.109 376.423C308.464 377.068 308.641 377.933 308.641 379.016V388H306.546V386.153H306.44C306.298 386.449 306.061 386.766 305.729 387.103C305.398 387.441 304.957 387.728 304.407 387.964C303.856 388.201 303.184 388.32 302.391 388.32ZM302.711 386.438C303.54 386.438 304.238 386.275 304.806 385.949C305.38 385.624 305.812 385.203 306.102 384.689C306.398 384.174 306.546 383.632 306.546 383.064V381.146C306.457 381.253 306.262 381.35 305.96 381.439C305.664 381.522 305.321 381.596 304.93 381.661C304.546 381.72 304.17 381.774 303.803 381.821C303.442 381.862 303.149 381.898 302.924 381.928C302.379 381.999 301.871 382.114 301.397 382.274C300.929 382.428 300.551 382.661 300.261 382.975C299.977 383.283 299.835 383.703 299.835 384.236C299.835 384.964 300.104 385.514 300.642 385.887C301.187 386.254 301.876 386.438 302.711 386.438ZM312.465 388V374.364H314.49V376.423H314.632C314.88 375.749 315.33 375.201 315.981 374.781C316.632 374.361 317.366 374.151 318.183 374.151C318.337 374.151 318.529 374.154 318.76 374.159C318.991 374.165 319.165 374.174 319.284 374.186V376.317C319.213 376.299 319.05 376.272 318.795 376.237C318.547 376.195 318.283 376.175 318.005 376.175C317.342 376.175 316.751 376.314 316.23 376.592C315.715 376.864 315.306 377.243 315.005 377.728C314.709 378.208 314.561 378.755 314.561 379.371V388H312.465ZM325.076 388L320.922 374.364H323.123L326.071 384.804H326.213L329.125 374.364H331.362L334.238 384.768H334.38L337.328 374.364H339.53L335.375 388H333.315L330.332 377.524H330.119L327.136 388H325.076ZM342.299 388V374.364H344.395V388H342.299ZM343.365 372.091C342.956 372.091 342.604 371.952 342.308 371.674C342.018 371.395 341.873 371.061 341.873 370.67C341.873 370.28 342.018 369.945 342.308 369.667C342.604 369.389 342.956 369.25 343.365 369.25C343.773 369.25 344.122 369.389 344.412 369.667C344.708 369.945 344.856 370.28 344.856 370.67C344.856 371.061 344.708 371.395 344.412 371.674C344.122 371.952 343.773 372.091 343.365 372.091ZM353.772 388.284C352.493 388.284 351.393 387.982 350.469 387.379C349.546 386.775 348.836 385.943 348.339 384.884C347.841 383.824 347.593 382.614 347.593 381.253C347.593 379.868 347.847 378.646 348.356 377.586C348.871 376.521 349.587 375.689 350.505 375.092C351.428 374.488 352.505 374.186 353.736 374.186C354.695 374.186 355.559 374.364 356.329 374.719C357.098 375.074 357.728 375.571 358.22 376.21C358.711 376.849 359.016 377.595 359.134 378.447H357.039C356.879 377.826 356.524 377.276 355.974 376.796C355.429 376.311 354.695 376.068 353.772 376.068C352.955 376.068 352.239 376.281 351.623 376.707C351.014 377.128 350.537 377.722 350.194 378.492C349.857 379.255 349.688 380.152 349.688 381.182C349.688 382.235 349.854 383.153 350.185 383.934C350.523 384.715 350.996 385.322 351.606 385.754C352.221 386.186 352.943 386.402 353.772 386.402C354.316 386.402 354.811 386.307 355.254 386.118C355.698 385.929 356.074 385.656 356.382 385.301C356.69 384.946 356.909 384.52 357.039 384.023H359.134C359.016 384.828 358.723 385.553 358.255 386.198C357.794 386.837 357.181 387.346 356.417 387.725C355.66 388.098 354.778 388.284 353.772 388.284ZM364.15 383.028L364.115 380.436H364.541L370.507 374.364H373.099L366.742 380.791H366.565L364.15 383.028ZM362.197 388V369.818H364.292V388H362.197ZM370.862 388L365.535 381.253L367.026 379.797L373.525 388H370.862Z" fill="black"/>
<path d="M231.504 113L226.533 94.8182H228.77L232.57 109.626H232.747L236.618 94.8182H239.104L242.974 109.626H243.152L246.952 94.8182H249.189L244.217 113H241.945L237.932 98.5114H237.79L233.777 113H231.504ZM255.918 113.284C254.687 113.284 253.607 112.991 252.678 112.405C251.755 111.819 251.033 111 250.512 109.946C249.997 108.893 249.739 107.661 249.739 106.253C249.739 104.832 249.997 103.592 250.512 102.533C251.033 101.474 251.755 100.651 252.678 100.065C253.607 99.479 254.687 99.1861 255.918 99.1861C257.149 99.1861 258.227 99.479 259.15 100.065C260.079 100.651 260.801 101.474 261.316 102.533C261.837 103.592 262.097 104.832 262.097 106.253C262.097 107.661 261.837 108.893 261.316 109.946C260.801 111 260.079 111.819 259.15 112.405C258.227 112.991 257.149 113.284 255.918 113.284ZM255.918 111.402C256.853 111.402 257.623 111.162 258.227 110.683C258.83 110.203 259.277 109.573 259.567 108.792C259.857 108.011 260.002 107.164 260.002 106.253C260.002 105.341 259.857 104.492 259.567 103.705C259.277 102.918 258.83 102.281 258.227 101.796C257.623 101.311 256.853 101.068 255.918 101.068C254.983 101.068 254.214 101.311 253.61 101.796C253.006 102.281 252.56 102.918 252.27 103.705C251.98 104.492 251.835 105.341 251.835 106.253C251.835 107.164 251.98 108.011 252.27 108.792C252.56 109.573 253.006 110.203 253.61 110.683C254.214 111.162 254.983 111.402 255.918 111.402ZM270.835 113.284C269.604 113.284 268.524 112.991 267.595 112.405C266.672 111.819 265.95 111 265.429 109.946C264.914 108.893 264.656 107.661 264.656 106.253C264.656 104.832 264.914 103.592 265.429 102.533C265.95 101.474 266.672 100.651 267.595 100.065C268.524 99.479 269.604 99.1861 270.835 99.1861C272.066 99.1861 273.144 99.479 274.067 100.065C274.996 100.651 275.718 101.474 276.233 102.533C276.754 103.592 277.014 104.832 277.014 106.253C277.014 107.661 276.754 108.893 276.233 109.946C275.718 111 274.996 111.819 274.067 112.405C273.144 112.991 272.066 113.284 270.835 113.284ZM270.835 111.402C271.77 111.402 272.54 111.162 273.144 110.683C273.747 110.203 274.194 109.573 274.484 108.792C274.774 108.011 274.919 107.164 274.919 106.253C274.919 105.341 274.774 104.492 274.484 103.705C274.194 102.918 273.747 102.281 273.144 101.796C272.54 101.311 271.77 101.068 270.835 101.068C269.9 101.068 269.131 101.311 268.527 101.796C267.923 102.281 267.477 102.918 267.187 103.705C266.897 104.492 266.752 105.341 266.752 106.253C266.752 107.164 266.897 108.011 267.187 108.792C267.477 109.573 267.923 110.203 268.527 110.683C269.131 111.162 269.9 111.402 270.835 111.402ZM282.308 104.797V113H280.213V99.3636H282.237V101.494H282.414C282.734 100.802 283.219 100.246 283.87 99.8253C284.521 99.3991 285.362 99.1861 286.392 99.1861C287.315 99.1861 288.123 99.3755 288.815 99.7543C289.508 100.127 290.046 100.695 290.431 101.459C290.816 102.216 291.008 103.175 291.008 104.335V113H288.913V104.477C288.913 103.406 288.635 102.571 288.078 101.974C287.522 101.37 286.758 101.068 285.788 101.068C285.119 101.068 284.521 101.213 283.994 101.503C283.474 101.793 283.062 102.216 282.76 102.773C282.459 103.329 282.308 104.004 282.308 104.797ZM304.496 102.418L302.614 102.95C302.495 102.637 302.321 102.332 302.09 102.036C301.865 101.734 301.557 101.485 301.166 101.29C300.776 101.095 300.276 100.997 299.666 100.997C298.832 100.997 298.136 101.19 297.58 101.574C297.029 101.953 296.754 102.435 296.754 103.021C296.754 103.542 296.944 103.953 297.322 104.255C297.701 104.557 298.293 104.809 299.098 105.01L301.122 105.507C302.341 105.803 303.25 106.256 303.848 106.865C304.445 107.469 304.744 108.247 304.744 109.2C304.744 109.982 304.519 110.68 304.07 111.295C303.626 111.911 303.004 112.396 302.205 112.751C301.406 113.107 300.477 113.284 299.418 113.284C298.027 113.284 296.876 112.982 295.964 112.379C295.053 111.775 294.476 110.893 294.233 109.733L296.222 109.236C296.411 109.97 296.769 110.52 297.296 110.887C297.828 111.254 298.524 111.438 299.382 111.438C300.359 111.438 301.134 111.23 301.708 110.816C302.288 110.396 302.578 109.893 302.578 109.307C302.578 108.833 302.412 108.437 302.081 108.117C301.749 107.792 301.24 107.549 300.554 107.389L298.281 106.857C297.032 106.561 296.115 106.102 295.529 105.48C294.949 104.853 294.659 104.069 294.659 103.128C294.659 102.358 294.875 101.678 295.307 101.086C295.745 100.494 296.34 100.029 297.092 99.6921C297.849 99.3548 298.707 99.1861 299.666 99.1861C301.016 99.1861 302.075 99.482 302.844 100.074C303.62 100.666 304.17 101.447 304.496 102.418ZM313.438 113.284C312.207 113.284 311.127 112.991 310.197 112.405C309.274 111.819 308.552 111 308.031 109.946C307.516 108.893 307.259 107.661 307.259 106.253C307.259 104.832 307.516 103.592 308.031 102.533C308.552 101.474 309.274 100.651 310.197 100.065C311.127 99.479 312.207 99.1861 313.438 99.1861C314.669 99.1861 315.746 99.479 316.669 100.065C317.599 100.651 318.321 101.474 318.836 102.533C319.356 103.592 319.617 104.832 319.617 106.253C319.617 107.661 319.356 108.893 318.836 109.946C318.321 111 317.599 111.819 316.669 112.405C315.746 112.991 314.669 113.284 313.438 113.284ZM313.438 111.402C314.373 111.402 315.142 111.162 315.746 110.683C316.35 110.203 316.797 109.573 317.087 108.792C317.377 108.011 317.522 107.164 317.522 106.253C317.522 105.341 317.377 104.492 317.087 103.705C316.797 102.918 316.35 102.281 315.746 101.796C315.142 101.311 314.373 101.068 313.438 101.068C312.503 101.068 311.733 101.311 311.13 101.796C310.526 102.281 310.079 102.918 309.789 103.705C309.499 104.492 309.354 105.341 309.354 106.253C309.354 107.164 309.499 108.011 309.789 108.792C310.079 109.573 310.526 110.203 311.13 110.683C311.733 111.162 312.503 111.402 313.438 111.402ZM328.355 113.284C327.076 113.284 325.976 112.982 325.052 112.379C324.129 111.775 323.419 110.943 322.922 109.884C322.424 108.824 322.176 107.614 322.176 106.253C322.176 104.868 322.43 103.646 322.939 102.586C323.454 101.521 324.17 100.689 325.088 100.092C326.011 99.4879 327.088 99.1861 328.319 99.1861C329.278 99.1861 330.142 99.3636 330.912 99.7188C331.681 100.074 332.311 100.571 332.803 101.21C333.294 101.849 333.599 102.595 333.717 103.447H331.622C331.462 102.826 331.107 102.276 330.557 101.796C330.012 101.311 329.278 101.068 328.355 101.068C327.538 101.068 326.822 101.281 326.206 101.707C325.597 102.128 325.12 102.722 324.777 103.492C324.44 104.255 324.271 105.152 324.271 106.182C324.271 107.235 324.437 108.153 324.768 108.934C325.106 109.715 325.579 110.322 326.189 110.754C326.804 111.186 327.526 111.402 328.355 111.402C328.899 111.402 329.394 111.307 329.837 111.118C330.281 110.929 330.657 110.656 330.965 110.301C331.273 109.946 331.492 109.52 331.622 109.023H333.717C333.599 109.828 333.306 110.553 332.838 111.198C332.377 111.837 331.764 112.346 331 112.725C330.243 113.098 329.361 113.284 328.355 113.284ZM338.733 108.028L338.698 105.436H339.124L345.09 99.3636H347.682L341.325 105.791H341.148L338.733 108.028ZM336.78 113V94.8182H338.875V113H336.78ZM345.445 113L340.118 106.253L341.609 104.797L348.108 113H345.445ZM355.534 113.284C354.22 113.284 353.087 112.994 352.134 112.414C351.187 111.828 350.456 111.011 349.941 109.964C349.432 108.91 349.178 107.685 349.178 106.288C349.178 104.892 349.432 103.661 349.941 102.595C350.456 101.524 351.172 100.689 352.09 100.092C353.013 99.4879 354.09 99.1861 355.321 99.1861C356.032 99.1861 356.733 99.3045 357.425 99.5412C358.118 99.7779 358.748 100.163 359.316 100.695C359.884 101.222 360.337 101.92 360.675 102.79C361.012 103.661 361.181 104.732 361.181 106.004V106.892H350.669V105.081H359.05C359.05 104.312 358.896 103.625 358.588 103.021C358.286 102.418 357.854 101.941 357.292 101.592C356.736 101.243 356.079 101.068 355.321 101.068C354.487 101.068 353.765 101.275 353.155 101.69C352.551 102.098 352.087 102.631 351.761 103.288C351.436 103.945 351.273 104.649 351.273 105.401V106.608C351.273 107.638 351.451 108.511 351.806 109.227C352.167 109.937 352.667 110.479 353.306 110.852C353.945 111.219 354.688 111.402 355.534 111.402C356.085 111.402 356.582 111.325 357.026 111.171C357.476 111.011 357.863 110.775 358.189 110.461C358.514 110.141 358.766 109.745 358.943 109.271L360.968 109.839C360.755 110.526 360.396 111.13 359.893 111.651C359.39 112.165 358.769 112.568 358.029 112.858C357.289 113.142 356.458 113.284 355.534 113.284ZM370.298 99.3636V101.139H363.231V99.3636H370.298ZM365.291 96.0966H367.386V109.094C367.386 109.686 367.472 110.129 367.644 110.425C367.821 110.715 368.046 110.911 368.318 111.011C368.597 111.106 368.89 111.153 369.197 111.153C369.428 111.153 369.618 111.142 369.766 111.118C369.914 111.088 370.032 111.065 370.121 111.047L370.547 112.929C370.405 112.982 370.206 113.036 369.952 113.089C369.697 113.148 369.375 113.178 368.984 113.178C368.392 113.178 367.812 113.05 367.244 112.796C366.682 112.541 366.214 112.154 365.842 111.633C365.475 111.112 365.291 110.455 365.291 109.662V96.0966Z" fill="black"/>
<path d="M286.832 319.5H284.631C284.5 318.867 284.273 318.31 283.947 317.831C283.627 317.352 283.237 316.949 282.775 316.624C282.319 316.292 281.813 316.044 281.257 315.878C280.701 315.712 280.121 315.629 279.517 315.629C278.416 315.629 277.419 315.907 276.525 316.464C275.637 317.02 274.93 317.84 274.403 318.923C273.883 320.006 273.622 321.335 273.622 322.909C273.622 324.483 273.883 325.812 274.403 326.895C274.93 327.978 275.637 328.798 276.525 329.354C277.419 329.911 278.416 330.189 279.517 330.189C280.121 330.189 280.701 330.106 281.257 329.94C281.813 329.775 282.319 329.529 282.775 329.203C283.237 328.872 283.627 328.467 283.947 327.987C284.273 327.502 284.5 326.946 284.631 326.318H286.832C286.667 327.247 286.365 328.079 285.927 328.813C285.489 329.547 284.944 330.171 284.293 330.686C283.642 331.195 282.911 331.583 282.1 331.849C281.296 332.115 280.434 332.249 279.517 332.249C277.966 332.249 276.587 331.87 275.38 331.112C274.173 330.355 273.223 329.277 272.53 327.881C271.838 326.484 271.491 324.827 271.491 322.909C271.491 320.991 271.838 319.334 272.53 317.938C273.223 316.541 274.173 315.464 275.38 314.706C276.587 313.948 277.966 313.57 279.517 313.57C280.434 313.57 281.296 313.703 282.1 313.969C282.911 314.235 283.642 314.626 284.293 315.141C284.944 315.65 285.489 316.271 285.927 317.005C286.365 317.733 286.667 318.565 286.832 319.5ZM290.106 332V318.364H292.13V320.423H292.272C292.521 319.749 292.971 319.201 293.622 318.781C294.273 318.361 295.007 318.151 295.823 318.151C295.977 318.151 296.17 318.154 296.4 318.159C296.631 318.165 296.806 318.174 296.924 318.186V320.317C296.853 320.299 296.69 320.272 296.436 320.237C296.187 320.195 295.924 320.175 295.646 320.175C294.983 320.175 294.391 320.314 293.87 320.592C293.355 320.864 292.947 321.243 292.645 321.728C292.349 322.208 292.201 322.755 292.201 323.371V332H290.106ZM303.421 332.32C302.557 332.32 301.772 332.157 301.068 331.831C300.364 331.5 299.804 331.023 299.39 330.402C298.976 329.775 298.769 329.017 298.769 328.129C298.769 327.348 298.923 326.715 299.23 326.229C299.538 325.738 299.949 325.353 300.464 325.075C300.979 324.797 301.547 324.59 302.169 324.454C302.796 324.312 303.427 324.199 304.06 324.116C304.888 324.01 305.56 323.93 306.075 323.877C306.596 323.818 306.975 323.72 307.211 323.584C307.454 323.448 307.575 323.211 307.575 322.874V322.803C307.575 321.927 307.336 321.246 306.856 320.761C306.383 320.275 305.664 320.033 304.699 320.033C303.699 320.033 302.915 320.252 302.346 320.69C301.778 321.128 301.379 321.595 301.148 322.092L299.159 321.382C299.514 320.554 299.988 319.908 300.58 319.447C301.177 318.979 301.829 318.654 302.533 318.47C303.243 318.281 303.941 318.186 304.628 318.186C305.066 318.186 305.569 318.239 306.137 318.346C306.711 318.446 307.265 318.657 307.797 318.976C308.336 319.296 308.783 319.778 309.138 320.423C309.493 321.068 309.671 321.933 309.671 323.016V332H307.575V330.153H307.469C307.327 330.449 307.09 330.766 306.759 331.103C306.427 331.441 305.986 331.728 305.436 331.964C304.885 332.201 304.214 332.32 303.421 332.32ZM303.74 330.438C304.569 330.438 305.267 330.275 305.835 329.949C306.41 329.624 306.842 329.203 307.132 328.689C307.427 328.174 307.575 327.632 307.575 327.064V325.146C307.487 325.253 307.291 325.35 306.99 325.439C306.694 325.522 306.35 325.596 305.96 325.661C305.575 325.72 305.199 325.774 304.832 325.821C304.471 325.862 304.178 325.898 303.953 325.928C303.409 325.999 302.9 326.114 302.426 326.274C301.959 326.428 301.58 326.661 301.29 326.975C301.006 327.283 300.864 327.703 300.864 328.236C300.864 328.964 301.133 329.514 301.672 329.887C302.216 330.254 302.906 330.438 303.74 330.438ZM315.59 323.797V332H313.495V318.364H315.519V320.494H315.696C316.016 319.802 316.501 319.246 317.152 318.825C317.803 318.399 318.644 318.186 319.674 318.186C320.597 318.186 321.405 318.375 322.097 318.754C322.79 319.127 323.328 319.695 323.713 320.459C324.098 321.216 324.29 322.175 324.29 323.335V332H322.195V323.477C322.195 322.406 321.917 321.571 321.361 320.974C320.804 320.37 320.041 320.068 319.07 320.068C318.401 320.068 317.803 320.213 317.277 320.503C316.756 320.793 316.345 321.216 316.043 321.773C315.741 322.329 315.59 323.004 315.59 323.797ZM337.778 321.418L335.896 321.95C335.777 321.637 335.603 321.332 335.372 321.036C335.147 320.734 334.839 320.485 334.449 320.29C334.058 320.095 333.558 319.997 332.948 319.997C332.114 319.997 331.418 320.19 330.862 320.574C330.312 320.953 330.036 321.435 330.036 322.021C330.036 322.542 330.226 322.953 330.605 323.255C330.983 323.557 331.575 323.809 332.38 324.01L334.404 324.507C335.624 324.803 336.532 325.256 337.13 325.865C337.728 326.469 338.026 327.247 338.026 328.2C338.026 328.982 337.802 329.68 337.352 330.295C336.908 330.911 336.286 331.396 335.487 331.751C334.688 332.107 333.759 332.284 332.7 332.284C331.309 332.284 330.158 331.982 329.246 331.379C328.335 330.775 327.758 329.893 327.515 328.733L329.504 328.236C329.693 328.97 330.051 329.52 330.578 329.887C331.111 330.254 331.806 330.438 332.664 330.438C333.641 330.438 334.416 330.23 334.99 329.816C335.57 329.396 335.86 328.893 335.86 328.307C335.86 327.833 335.695 327.437 335.363 327.117C335.032 326.792 334.523 326.549 333.836 326.389L331.563 325.857C330.315 325.561 329.397 325.102 328.811 324.48C328.231 323.853 327.941 323.069 327.941 322.128C327.941 321.358 328.157 320.678 328.589 320.086C329.027 319.494 329.622 319.029 330.374 318.692C331.131 318.355 331.99 318.186 332.948 318.186C334.298 318.186 335.357 318.482 336.127 319.074C336.902 319.666 337.452 320.447 337.778 321.418ZM347.111 318.364V320.139H340.044V318.364H347.111ZM342.104 315.097H344.199V328.094C344.199 328.686 344.285 329.129 344.456 329.425C344.634 329.715 344.859 329.911 345.131 330.011C345.409 330.106 345.702 330.153 346.01 330.153C346.241 330.153 346.43 330.142 346.578 330.118C346.726 330.088 346.844 330.065 346.933 330.047L347.359 331.929C347.217 331.982 347.019 332.036 346.764 332.089C346.51 332.148 346.187 332.178 345.797 332.178C345.205 332.178 344.625 332.05 344.057 331.796C343.494 331.541 343.027 331.154 342.654 330.633C342.287 330.112 342.104 329.455 342.104 328.662V315.097ZM355.656 332.284C354.425 332.284 353.344 331.991 352.415 331.405C351.492 330.819 350.77 330 350.249 328.946C349.734 327.893 349.477 326.661 349.477 325.253C349.477 323.832 349.734 322.592 350.249 321.533C350.77 320.474 351.492 319.651 352.415 319.065C353.344 318.479 354.425 318.186 355.656 318.186C356.887 318.186 357.964 318.479 358.887 319.065C359.816 319.651 360.538 320.474 361.053 321.533C361.574 322.592 361.835 323.832 361.835 325.253C361.835 326.661 361.574 327.893 361.053 328.946C360.538 330 359.816 330.819 358.887 331.405C357.964 331.991 356.887 332.284 355.656 332.284ZM355.656 330.402C356.591 330.402 357.36 330.162 357.964 329.683C358.568 329.203 359.014 328.573 359.304 327.792C359.594 327.011 359.739 326.164 359.739 325.253C359.739 324.341 359.594 323.492 359.304 322.705C359.014 321.918 358.568 321.281 357.964 320.796C357.36 320.311 356.591 320.068 355.656 320.068C354.72 320.068 353.951 320.311 353.347 320.796C352.744 321.281 352.297 321.918 352.007 322.705C351.717 323.492 351.572 324.341 351.572 325.253C351.572 326.164 351.717 327.011 352.007 327.792C352.297 328.573 352.744 329.203 353.347 329.683C353.951 330.162 354.72 330.402 355.656 330.402ZM367.128 323.797V332H365.033V318.364H367.057V320.494H367.235C367.554 319.802 368.039 319.246 368.691 318.825C369.342 318.399 370.182 318.186 371.212 318.186C372.135 318.186 372.943 318.375 373.635 318.754C374.328 319.127 374.867 319.695 375.251 320.459C375.636 321.216 375.828 322.175 375.828 323.335V332H373.733V323.477C373.733 322.406 373.455 321.571 372.899 320.974C372.342 320.37 371.579 320.068 370.608 320.068C369.939 320.068 369.342 320.213 368.815 320.503C368.294 320.793 367.883 321.216 367.581 321.773C367.279 322.329 367.128 323.004 367.128 323.797Z" fill="black"/>
<path d="M171.619 633.818V652H169.489L159.581 637.724H159.403V652H157.202V633.818H159.332L169.276 648.129H169.453V633.818H171.619ZM179.754 652.32C178.89 652.32 178.105 652.157 177.401 651.831C176.697 651.5 176.137 651.023 175.723 650.402C175.309 649.775 175.102 649.017 175.102 648.129C175.102 647.348 175.256 646.715 175.563 646.229C175.871 645.738 176.282 645.353 176.797 645.075C177.312 644.797 177.88 644.59 178.502 644.454C179.129 644.312 179.76 644.199 180.393 644.116C181.221 644.01 181.893 643.93 182.408 643.877C182.929 643.818 183.308 643.72 183.544 643.584C183.787 643.448 183.908 643.211 183.908 642.874V642.803C183.908 641.927 183.669 641.246 183.189 640.761C182.716 640.275 181.997 640.033 181.032 640.033C180.032 640.033 179.248 640.252 178.679 640.69C178.111 641.128 177.712 641.595 177.481 642.092L175.492 641.382C175.847 640.554 176.321 639.908 176.913 639.447C177.511 638.979 178.162 638.654 178.866 638.47C179.576 638.281 180.274 638.186 180.961 638.186C181.399 638.186 181.902 638.239 182.47 638.346C183.044 638.446 183.598 638.657 184.13 638.976C184.669 639.296 185.116 639.778 185.471 640.423C185.826 641.068 186.004 641.933 186.004 643.016V652H183.908V650.153H183.802C183.66 650.449 183.423 650.766 183.092 651.103C182.76 651.441 182.319 651.728 181.769 651.964C181.218 652.201 180.547 652.32 179.754 652.32ZM180.073 650.438C180.902 650.438 181.6 650.275 182.168 649.949C182.743 649.624 183.175 649.203 183.465 648.689C183.761 648.174 183.908 647.632 183.908 647.064V645.146C183.82 645.253 183.624 645.35 183.323 645.439C183.027 645.522 182.683 645.596 182.293 645.661C181.908 645.72 181.532 645.774 181.165 645.821C180.804 645.862 180.511 645.898 180.286 645.928C179.742 645.999 179.233 646.114 178.759 646.274C178.292 646.428 177.913 646.661 177.623 646.975C177.339 647.283 177.197 647.703 177.197 648.236C177.197 648.964 177.466 649.514 178.005 649.887C178.549 650.254 179.239 650.438 180.073 650.438ZM189.828 652V638.364H191.852V640.423H191.994C192.243 639.749 192.692 639.201 193.343 638.781C193.994 638.361 194.728 638.151 195.545 638.151C195.699 638.151 195.891 638.154 196.122 638.159C196.353 638.165 196.528 638.174 196.646 638.186V640.317C196.575 640.299 196.412 640.272 196.158 640.237C195.909 640.195 195.646 640.175 195.368 640.175C194.705 640.175 194.113 640.314 193.592 640.592C193.077 640.864 192.669 641.243 192.367 641.728C192.071 642.208 191.923 642.755 191.923 643.371V652H189.828ZM199.13 652V638.364H201.154V640.423H201.296C201.544 639.749 201.994 639.201 202.645 638.781C203.296 638.361 204.03 638.151 204.847 638.151C205.001 638.151 205.193 638.154 205.424 638.159C205.655 638.165 205.829 638.174 205.948 638.186V640.317C205.877 640.299 205.714 640.272 205.459 640.237C205.211 640.195 204.947 640.175 204.669 640.175C204.006 640.175 203.415 640.314 202.894 640.592C202.379 640.864 201.97 641.243 201.669 641.728C201.373 642.208 201.225 642.755 201.225 643.371V652H199.13ZM212.444 652.32C211.58 652.32 210.796 652.157 210.091 651.831C209.387 651.5 208.828 651.023 208.414 650.402C207.999 649.775 207.792 649.017 207.792 648.129C207.792 647.348 207.946 646.715 208.254 646.229C208.561 645.738 208.973 645.353 209.488 645.075C210.003 644.797 210.571 644.59 211.192 644.454C211.82 644.312 212.45 644.199 213.083 644.116C213.912 644.01 214.584 643.93 215.099 643.877C215.619 643.818 215.998 643.72 216.235 643.584C216.478 643.448 216.599 643.211 216.599 642.874V642.803C216.599 641.927 216.359 641.246 215.88 640.761C215.406 640.275 214.687 640.033 213.722 640.033C212.722 640.033 211.938 640.252 211.37 640.69C210.802 641.128 210.402 641.595 210.171 642.092L208.183 641.382C208.538 640.554 209.011 639.908 209.603 639.447C210.201 638.979 210.852 638.654 211.556 638.47C212.267 638.281 212.965 638.186 213.651 638.186C214.089 638.186 214.593 638.239 215.161 638.346C215.735 638.446 216.288 638.657 216.821 638.976C217.359 639.296 217.806 639.778 218.161 640.423C218.517 641.068 218.694 641.933 218.694 643.016V652H216.599V650.153H216.492C216.35 650.449 216.114 650.766 215.782 651.103C215.451 651.441 215.01 651.728 214.459 651.964C213.909 652.201 213.237 652.32 212.444 652.32ZM212.764 650.438C213.592 650.438 214.291 650.275 214.859 649.949C215.433 649.624 215.865 649.203 216.155 648.689C216.451 648.174 216.599 647.632 216.599 647.064V645.146C216.51 645.253 216.315 645.35 216.013 645.439C215.717 645.522 215.374 645.596 214.983 645.661C214.598 645.72 214.223 645.774 213.856 645.821C213.495 645.862 213.202 645.898 212.977 645.928C212.432 645.999 211.923 646.114 211.45 646.274C210.982 646.428 210.603 646.661 210.313 646.975C210.029 647.283 209.887 647.703 209.887 648.236C209.887 648.964 210.157 649.514 210.695 649.887C211.24 650.254 211.929 650.438 212.764 650.438ZM228.022 657.398C227.01 657.398 226.14 657.268 225.412 657.007C224.684 656.753 224.078 656.415 223.592 655.995C223.113 655.581 222.731 655.137 222.447 654.663L224.116 653.491C224.306 653.74 224.545 654.024 224.835 654.344C225.125 654.669 225.522 654.95 226.025 655.187C226.534 655.43 227.2 655.551 228.022 655.551C229.123 655.551 230.032 655.285 230.748 654.752C231.464 654.219 231.822 653.385 231.822 652.249V649.479H231.645C231.491 649.727 231.272 650.035 230.988 650.402C230.709 650.763 230.307 651.086 229.78 651.37C229.259 651.648 228.555 651.787 227.667 651.787C226.566 651.787 225.578 651.527 224.702 651.006C223.832 650.485 223.143 649.727 222.634 648.733C222.131 647.739 221.879 646.531 221.879 645.111C221.879 643.714 222.125 642.498 222.616 641.462C223.107 640.42 223.791 639.615 224.667 639.047C225.543 638.473 226.555 638.186 227.703 638.186C228.591 638.186 229.295 638.334 229.816 638.63C230.343 638.92 230.745 639.251 231.023 639.624C231.307 639.991 231.526 640.293 231.68 640.53H231.893V638.364H233.917V652.391C233.917 653.562 233.651 654.515 233.118 655.249C232.592 655.989 231.881 656.531 230.988 656.874C230.1 657.223 229.111 657.398 228.022 657.398ZM227.951 649.905C228.792 649.905 229.502 649.712 230.082 649.328C230.662 648.943 231.103 648.39 231.405 647.668C231.707 646.946 231.858 646.081 231.858 645.075C231.858 644.093 231.71 643.226 231.414 642.474C231.118 641.722 230.68 641.134 230.1 640.707C229.52 640.281 228.804 640.068 227.951 640.068C227.064 640.068 226.324 640.293 225.732 640.743C225.146 641.193 224.705 641.796 224.409 642.554C224.119 643.312 223.974 644.152 223.974 645.075C223.974 646.022 224.122 646.86 224.418 647.588C224.72 648.31 225.164 648.878 225.75 649.292C226.342 649.701 227.075 649.905 227.951 649.905ZM241.765 652.32C240.901 652.32 240.117 652.157 239.413 651.831C238.708 651.5 238.149 651.023 237.735 650.402C237.321 649.775 237.113 649.017 237.113 648.129C237.113 647.348 237.267 646.715 237.575 646.229C237.883 645.738 238.294 645.353 238.809 645.075C239.324 644.797 239.892 644.59 240.514 644.454C241.141 644.312 241.771 644.199 242.405 644.116C243.233 644.01 243.905 643.93 244.42 643.877C244.941 643.818 245.319 643.72 245.556 643.584C245.799 643.448 245.92 643.211 245.92 642.874V642.803C245.92 641.927 245.68 641.246 245.201 640.761C244.728 640.275 244.008 640.033 243.044 640.033C242.044 640.033 241.259 640.252 240.691 640.69C240.123 641.128 239.723 641.595 239.493 642.092L237.504 641.382C237.859 640.554 238.333 639.908 238.924 639.447C239.522 638.979 240.173 638.654 240.878 638.47C241.588 638.281 242.286 638.186 242.973 638.186C243.411 638.186 243.914 638.239 244.482 638.346C245.056 638.446 245.609 638.657 246.142 638.976C246.681 639.296 247.128 639.778 247.483 640.423C247.838 641.068 248.015 641.933 248.015 643.016V652H245.92V650.153H245.814C245.672 650.449 245.435 650.766 245.103 651.103C244.772 651.441 244.331 651.728 243.781 651.964C243.23 652.201 242.558 652.32 241.765 652.32ZM242.085 650.438C242.914 650.438 243.612 650.275 244.18 649.949C244.754 649.624 245.186 649.203 245.476 648.689C245.772 648.174 245.92 647.632 245.92 647.064V645.146C245.831 645.253 245.636 645.35 245.334 645.439C245.038 645.522 244.695 645.596 244.304 645.661C243.92 645.72 243.544 645.774 243.177 645.821C242.816 645.862 242.523 645.898 242.298 645.928C241.754 645.999 241.245 646.114 240.771 646.274C240.303 646.428 239.925 646.661 239.635 646.975C239.351 647.283 239.209 647.703 239.209 648.236C239.209 648.964 239.478 649.514 240.016 649.887C240.561 650.254 241.25 650.438 242.085 650.438ZM253.935 643.797V652H251.839V638.364H253.864V640.494H254.041C254.361 639.802 254.846 639.246 255.497 638.825C256.148 638.399 256.989 638.186 258.018 638.186C258.942 638.186 259.75 638.375 260.442 638.754C261.135 639.127 261.673 639.695 262.058 640.459C262.443 641.216 262.635 642.175 262.635 643.335V652H260.54V643.477C260.54 642.406 260.262 641.571 259.705 640.974C259.149 640.37 258.385 640.068 257.415 640.068C256.746 640.068 256.148 640.213 255.621 640.503C255.101 640.793 254.689 641.216 254.387 641.773C254.086 642.329 253.935 643.004 253.935 643.797ZM276.123 641.418L274.241 641.95C274.122 641.637 273.948 641.332 273.717 641.036C273.492 640.734 273.184 640.485 272.793 640.29C272.403 640.095 271.903 639.997 271.293 639.997C270.459 639.997 269.763 640.19 269.207 640.574C268.656 640.953 268.381 641.435 268.381 642.021C268.381 642.542 268.571 642.953 268.949 643.255C269.328 643.557 269.92 643.809 270.725 644.01L272.749 644.507C273.968 644.803 274.877 645.256 275.475 645.865C276.072 646.469 276.371 647.247 276.371 648.2C276.371 648.982 276.146 649.68 275.696 650.295C275.253 650.911 274.631 651.396 273.832 651.751C273.033 652.107 272.104 652.284 271.044 652.284C269.654 652.284 268.502 651.982 267.591 651.379C266.68 650.775 266.102 649.893 265.86 648.733L267.848 648.236C268.038 648.97 268.396 649.52 268.923 649.887C269.455 650.254 270.151 650.438 271.009 650.438C271.986 650.438 272.761 650.23 273.335 649.816C273.915 649.396 274.205 648.893 274.205 648.307C274.205 647.833 274.039 647.437 273.708 647.117C273.376 646.792 272.867 646.549 272.181 646.389L269.908 645.857C268.659 645.561 267.742 645.102 267.156 644.48C266.576 643.853 266.286 643.069 266.286 642.128C266.286 641.358 266.502 640.678 266.934 640.086C267.372 639.494 267.967 639.029 268.718 638.692C269.476 638.355 270.334 638.186 271.293 638.186C272.642 638.186 273.702 638.482 274.471 639.074C275.247 639.666 275.797 640.447 276.123 641.418ZM285.242 652.284C283.928 652.284 282.795 651.994 281.842 651.414C280.895 650.828 280.164 650.011 279.649 648.964C279.14 647.91 278.886 646.685 278.886 645.288C278.886 643.892 279.14 642.661 279.649 641.595C280.164 640.524 280.88 639.689 281.798 639.092C282.721 638.488 283.798 638.186 285.029 638.186C285.74 638.186 286.441 638.304 287.133 638.541C287.826 638.778 288.456 639.163 289.024 639.695C289.593 640.222 290.045 640.92 290.383 641.79C290.72 642.661 290.889 643.732 290.889 645.004V645.892H280.377V644.081H288.758C288.758 643.312 288.604 642.625 288.296 642.021C287.994 641.418 287.562 640.941 287 640.592C286.444 640.243 285.787 640.068 285.029 640.068C284.195 640.068 283.473 640.275 282.863 640.69C282.259 641.098 281.795 641.631 281.469 642.288C281.144 642.945 280.981 643.649 280.981 644.401V645.608C280.981 646.638 281.159 647.511 281.514 648.227C281.875 648.937 282.375 649.479 283.014 649.852C283.653 650.219 284.396 650.402 285.242 650.402C285.793 650.402 286.29 650.325 286.734 650.171C287.184 650.011 287.571 649.775 287.897 649.461C288.222 649.141 288.474 648.745 288.651 648.271L290.676 648.839C290.463 649.526 290.104 650.13 289.601 650.651C289.098 651.165 288.477 651.568 287.737 651.858C286.997 652.142 286.166 652.284 285.242 652.284ZM300.006 638.364V640.139H292.939V638.364H300.006ZM294.999 635.097H297.094V648.094C297.094 648.686 297.18 649.129 297.352 649.425C297.529 649.715 297.754 649.911 298.026 650.011C298.305 650.106 298.598 650.153 298.905 650.153C299.136 650.153 299.326 650.142 299.474 650.118C299.622 650.088 299.74 650.065 299.829 650.047L300.255 651.929C300.113 651.982 299.914 652.036 299.66 652.089C299.405 652.148 299.083 652.178 298.692 652.178C298.1 652.178 297.52 652.05 296.952 651.796C296.39 651.541 295.922 651.154 295.55 650.633C295.183 650.112 294.999 649.455 294.999 648.662V635.097ZM309.088 638.364V640.139H302.021V638.364H309.088ZM304.081 635.097H306.176V648.094C306.176 648.686 306.262 649.129 306.434 649.425C306.611 649.715 306.836 649.911 307.108 650.011C307.387 650.106 307.68 650.153 307.987 650.153C308.218 650.153 308.408 650.142 308.556 650.118C308.704 650.088 308.822 650.065 308.911 650.047L309.337 651.929C309.195 651.982 308.997 652.036 308.742 652.089C308.488 652.148 308.165 652.178 307.774 652.178C307.182 652.178 306.602 652.05 306.034 651.796C305.472 651.541 305.004 651.154 304.632 650.633C304.265 650.112 304.081 649.455 304.081 648.662V635.097Z" fill="black"/>
<path d="M281.202 191V172.818H287.345C288.772 172.818 289.938 173.076 290.843 173.591C291.754 174.1 292.429 174.789 292.867 175.659C293.305 176.529 293.524 177.5 293.524 178.571C293.524 179.642 293.305 180.616 292.867 181.492C292.435 182.368 291.766 183.066 290.861 183.587C289.955 184.102 288.795 184.359 287.381 184.359H282.977V182.406H287.31C288.286 182.406 289.07 182.238 289.662 181.9C290.254 181.563 290.683 181.107 290.95 180.533C291.222 179.953 291.358 179.299 291.358 178.571C291.358 177.843 291.222 177.192 290.95 176.618C290.683 176.044 290.251 175.594 289.653 175.268C289.056 174.937 288.263 174.771 287.274 174.771H283.403V191H281.202ZM300.8 191.32C299.935 191.32 299.151 191.157 298.447 190.831C297.743 190.5 297.183 190.023 296.769 189.402C296.355 188.775 296.148 188.017 296.148 187.129C296.148 186.348 296.301 185.715 296.609 185.229C296.917 184.738 297.328 184.353 297.843 184.075C298.358 183.797 298.926 183.59 299.548 183.454C300.175 183.312 300.805 183.199 301.439 183.116C302.267 183.01 302.939 182.93 303.454 182.877C303.975 182.818 304.354 182.72 304.59 182.584C304.833 182.448 304.954 182.211 304.954 181.874V181.803C304.954 180.927 304.715 180.246 304.235 179.761C303.762 179.275 303.043 179.033 302.078 179.033C301.078 179.033 300.294 179.252 299.725 179.69C299.157 180.128 298.758 180.595 298.527 181.092L296.538 180.382C296.893 179.554 297.367 178.908 297.959 178.447C298.556 177.979 299.207 177.654 299.912 177.47C300.622 177.281 301.32 177.186 302.007 177.186C302.445 177.186 302.948 177.239 303.516 177.346C304.09 177.446 304.644 177.657 305.176 177.976C305.715 178.296 306.162 178.778 306.517 179.423C306.872 180.068 307.05 180.933 307.05 182.016V191H304.954V189.153H304.848C304.706 189.449 304.469 189.766 304.138 190.103C303.806 190.441 303.365 190.728 302.815 190.964C302.264 191.201 301.593 191.32 300.8 191.32ZM301.119 189.438C301.948 189.438 302.646 189.275 303.214 188.949C303.788 188.624 304.22 188.203 304.51 187.689C304.806 187.174 304.954 186.632 304.954 186.064V184.146C304.866 184.253 304.67 184.35 304.368 184.439C304.073 184.522 303.729 184.596 303.339 184.661C302.954 184.72 302.578 184.774 302.211 184.821C301.85 184.862 301.557 184.898 301.332 184.928C300.788 184.999 300.279 185.114 299.805 185.274C299.338 185.428 298.959 185.661 298.669 185.975C298.385 186.283 298.243 186.703 298.243 187.236C298.243 187.964 298.512 188.514 299.051 188.887C299.595 189.254 300.285 189.438 301.119 189.438ZM313.963 191L309.808 177.364H312.01L314.957 187.804H315.1L318.011 177.364H320.249L323.125 187.768H323.267L326.215 177.364H328.416L324.261 191H322.202L319.219 180.524H319.006L316.023 191H313.963ZM337.117 177.364V179.139H330.05V177.364H337.117ZM332.109 174.097H334.205V187.094C334.205 187.686 334.29 188.129 334.462 188.425C334.64 188.715 334.865 188.911 335.137 189.011C335.415 189.106 335.708 189.153 336.016 189.153C336.247 189.153 336.436 189.142 336.584 189.118C336.732 189.088 336.85 189.065 336.939 189.047L337.365 190.929C337.223 190.982 337.025 191.036 336.77 191.089C336.516 191.148 336.193 191.178 335.803 191.178C335.211 191.178 334.631 191.05 334.063 190.796C333.5 190.541 333.033 190.154 332.66 189.633C332.293 189.112 332.109 188.455 332.109 187.662V174.097ZM348.862 185.425V177.364H350.957V191H348.862V188.692H348.72C348.4 189.384 347.903 189.973 347.228 190.458C346.554 190.938 345.701 191.178 344.672 191.178C343.819 191.178 343.062 190.991 342.399 190.618C341.736 190.239 341.215 189.671 340.836 188.914C340.458 188.15 340.268 187.188 340.268 186.028V177.364H342.363V185.886C342.363 186.881 342.642 187.674 343.198 188.266C343.76 188.857 344.476 189.153 345.346 189.153C345.867 189.153 346.397 189.02 346.935 188.754C347.48 188.488 347.936 188.079 348.303 187.529C348.676 186.978 348.862 186.277 348.862 185.425ZM360.334 191.284C359.056 191.284 357.955 190.982 357.032 190.379C356.108 189.775 355.398 188.943 354.901 187.884C354.404 186.824 354.155 185.614 354.155 184.253C354.155 182.868 354.41 181.646 354.919 180.586C355.434 179.521 356.15 178.689 357.067 178.092C357.991 177.488 359.068 177.186 360.299 177.186C361.258 177.186 362.122 177.364 362.891 177.719C363.661 178.074 364.291 178.571 364.782 179.21C365.273 179.849 365.578 180.595 365.697 181.447H363.601C363.442 180.826 363.086 180.276 362.536 179.796C361.992 179.311 361.258 179.068 360.334 179.068C359.518 179.068 358.801 179.281 358.186 179.707C357.576 180.128 357.1 180.722 356.757 181.492C356.419 182.255 356.251 183.152 356.251 184.182C356.251 185.235 356.416 186.153 356.748 186.934C357.085 187.715 357.559 188.322 358.168 188.754C358.784 189.186 359.506 189.402 360.334 189.402C360.879 189.402 361.373 189.307 361.817 189.118C362.261 188.929 362.637 188.656 362.944 188.301C363.252 187.946 363.471 187.52 363.601 187.023H365.697C365.578 187.828 365.285 188.553 364.818 189.198C364.356 189.837 363.743 190.346 362.98 190.725C362.222 191.098 361.34 191.284 360.334 191.284ZM370.713 186.028L370.677 183.436H371.103L377.069 177.364H379.661L373.305 183.791H373.127L370.713 186.028ZM368.759 191V172.818H370.855V191H368.759ZM377.424 191L372.097 184.253L373.589 182.797L380.088 191H377.424ZM387.514 191.284C386.2 191.284 385.067 190.994 384.114 190.414C383.167 189.828 382.436 189.011 381.921 187.964C381.412 186.91 381.157 185.685 381.157 184.288C381.157 182.892 381.412 181.661 381.921 180.595C382.436 179.524 383.152 178.689 384.069 178.092C384.993 177.488 386.07 177.186 387.301 177.186C388.011 177.186 388.712 177.304 389.405 177.541C390.097 177.778 390.728 178.163 391.296 178.695C391.864 179.222 392.317 179.92 392.654 180.79C392.991 181.661 393.16 182.732 393.16 184.004V184.892H382.649V183.081H391.029C391.029 182.312 390.876 181.625 390.568 181.021C390.266 180.418 389.834 179.941 389.272 179.592C388.715 179.243 388.058 179.068 387.301 179.068C386.466 179.068 385.744 179.275 385.135 179.69C384.531 180.098 384.066 180.631 383.741 181.288C383.415 181.945 383.252 182.649 383.252 183.401V184.608C383.252 185.638 383.43 186.511 383.785 187.227C384.146 187.937 384.646 188.479 385.286 188.852C385.925 189.219 386.667 189.402 387.514 189.402C388.064 189.402 388.561 189.325 389.005 189.171C389.455 189.011 389.843 188.775 390.168 188.461C390.494 188.141 390.745 187.745 390.923 187.271L392.947 187.839C392.734 188.526 392.376 189.13 391.873 189.651C391.37 190.165 390.748 190.568 390.009 190.858C389.269 191.142 388.437 191.284 387.514 191.284ZM402.278 177.364V179.139H395.211V177.364H402.278ZM397.271 174.097H399.366V187.094C399.366 187.686 399.452 188.129 399.623 188.425C399.801 188.715 400.026 188.911 400.298 189.011C400.576 189.106 400.869 189.153 401.177 189.153C401.408 189.153 401.597 189.142 401.745 189.118C401.893 189.088 402.011 189.065 402.1 189.047L402.526 190.929C402.384 190.982 402.186 191.036 401.931 191.089C401.677 191.148 401.354 191.178 400.964 191.178C400.372 191.178 399.792 191.05 399.224 190.796C398.661 190.541 398.194 190.154 397.821 189.633C397.454 189.112 397.271 188.455 397.271 187.662V174.097Z" fill="black"/>
<circle cx="389.511" cy="389.511" r="9.01136" fill="#FFE587" stroke="black"/>
<circle cx="377.511" cy="302.511" r="9.01136" fill="#FFE587" stroke="black"/>
<circle cx="330.511" cy="643.511" r="9.01136" fill="#FFE587" stroke="black"/>
<circle cx="311.511" cy="79.5114" r="9.01136" fill="#FFE587" stroke="black"/>
<circle cx="408.511" cy="205.511" r="9.01136" fill="#FFE587" stroke="black"/>
<circle cx="384.511" cy="251.511" r="9.01136" fill="#FF8F87" stroke="black"/>
<path d="M60.6619 366.435H57.4744C57.3835 365.912 57.2159 365.449 56.9716 365.045C56.7273 364.636 56.4233 364.29 56.0597 364.006C55.696 363.722 55.2813 363.509 54.8153 363.366C54.3551 363.219 53.858 363.145 53.3239 363.145C52.375 363.145 51.5341 363.384 50.8011 363.861C50.0682 364.332 49.4943 365.026 49.0795 365.94C48.6648 366.849 48.4574 367.96 48.4574 369.273C48.4574 370.608 48.6648 371.733 49.0795 372.648C49.5 373.557 50.0739 374.244 50.8011 374.71C51.5341 375.17 52.3722 375.401 53.3153 375.401C53.8381 375.401 54.3267 375.332 54.7812 375.196C55.2415 375.054 55.6534 374.847 56.017 374.574C56.3864 374.301 56.696 373.966 56.946 373.568C57.2017 373.17 57.3778 372.716 57.4744 372.205L60.6619 372.222C60.5426 373.051 60.2841 373.83 59.8864 374.557C59.4943 375.284 58.9801 375.926 58.3438 376.483C57.7074 377.034 56.9631 377.466 56.1108 377.778C55.2585 378.085 54.3125 378.239 53.2727 378.239C51.7386 378.239 50.3693 377.884 49.1648 377.173C47.9602 376.463 47.0114 375.438 46.3182 374.097C45.625 372.756 45.2784 371.148 45.2784 369.273C45.2784 367.392 45.6278 365.784 46.3267 364.449C47.0256 363.108 47.9773 362.082 49.1818 361.372C50.3864 360.662 51.75 360.307 53.2727 360.307C54.2443 360.307 55.1477 360.443 55.983 360.716C56.8182 360.989 57.5625 361.389 58.2159 361.918C58.8693 362.44 59.4063 363.082 59.8267 363.844C60.2528 364.599 60.5313 365.463 60.6619 366.435ZM62.7905 363.196V360.545H76.7166V363.196H71.3217V378H68.1854V363.196H62.7905Z" fill="#005A5E"/>
<path d="M497.722 151.545H501.591L506.773 164.193H506.977L512.159 151.545H516.028V169H512.994V157.009H512.832L508.009 168.949H505.741L500.918 156.983H500.756V169H497.722V151.545ZM521.713 169H518.338L524.483 151.545H528.386L534.54 169H531.165L526.503 155.125H526.366L521.713 169ZM521.824 162.156H531.028V164.696H521.824V162.156Z" fill="#005A5E"/>
<defs>
<filter id="filter0_d_55_147" x="47.4424" y="60.9828" width="561.592" height="719.659" filterUnits="userSpaceOnUse" color-interpolation-filters="sRGB">
<feFlood flood-opacity="0" result="BackgroundImageFix"/>
<feColorMatrix in="SourceAlpha" type="matrix" values="0 0 0 0 0 0 0 0 0 0 0 0 0 0 0 0 0 0 127 0" result="hardAlpha"/>
<feOffset dy="4"/>
<feGaussianBlur stdDeviation="2"/>
<feComposite in2="hardAlpha" operator="out"/>
<feColorMatrix type="matrix" values="0 0 0 0 0 0 0 0 0 0 0 0 0 0 0 0 0 0 0.25 0"/>
<feBlend mode="normal" in2="BackgroundImageFix" result="effect1_dropShadow_55_147"/>
<feBlend mode="normal" in="SourceGraphic" in2="effect1_dropShadow_55_147" result="shape"/>
</filter>
</defs>
</svg>
