<svg width="1048" height="681" viewBox="0 0 1048 681" fill="none" xmlns="http://www.w3.org/2000/svg">
<g clip-path="url(#clip0_214_2)">
<rect width="1048" height="681" fill="white"/>
<path d="M1007.12 0.567383H40.8756C18.6142 0.567383 0.567871 18.607 0.567871 40.8599V640.14C0.567871 662.393 18.6142 680.432 40.8756 680.432H1007.12C1029.39 680.432 1047.43 662.393 1047.43 640.14V40.8599C1047.43 18.607 1029.39 0.567383 1007.12 0.567383Z" fill="#8DDBFF" stroke="#717171"/>
<path d="M917.954 105.07L123.817 103.285L124.412 246.716H122.626V541.315L712.574 541.911L716.146 548.458L718.527 550.838L722.099 552.029L732.814 557.981L738.172 559.766L745.315 564.527H749.482L753.054 566.907L756.626 571.073L760.793 574.645L764.365 575.239C765.953 575.041 769.366 574.525 770.318 574.049C771.271 573.573 773.493 571.867 774.485 571.073L778.057 566.313L779.247 561.551L782.224 560.955L786.391 562.741L800.084 564.527C802.266 563.931 806.87 562.741 807.823 562.741C808.775 562.741 812.585 563.535 814.371 563.931L819.134 562.741L826.277 563.931L828.658 560.955L830.444 561.551L834.611 562.741L839.374 560.955L842.946 562.741L848.303 563.931L850.089 568.693L855.447 571.073L856.637 572.859L858.423 574.645L869.734 575.834L874.496 577.025L876.878 581.191C877.275 581.389 878.187 581.905 878.664 582.381C879.14 582.858 881.244 580.993 882.235 580.001L892.355 584.166L894.141 589.523L903.071 590.713L904.858 591.903V592.499L903.071 597.26L903.666 599.046L905.452 602.617L909.619 605.592L911.406 607.973L913.192 612.734L920.336 611.544L923.312 614.52L925.693 616.305L928.075 615.114V612.138L926.884 603.211L923.907 595.474L919.74 591.309L915.573 587.142L912 582.381V577.025L914.978 571.073L916.764 565.717L920.336 563.931L921.526 552.029L924.503 547.267L922.717 544.887L925.693 540.126L924.503 537.15L923.907 535.365L928.67 531.794L930.456 525.842L931.051 522.866C930.456 521.675 929.145 519.176 928.67 518.701C928.193 518.224 928.075 516.121 928.075 515.129V510.963L926.289 509.178H920.931L918.55 508.583L919.74 506.797V504.417L916.169 502.036V499.06L918.55 498.465L921.526 497.275L922.717 489.538V485.371L921.526 483.586L917.954 480.61L915.573 477.635V475.254L916.169 472.278L914.978 471.088V468.112C914.978 467.636 916.565 467.518 917.359 467.518L919.74 468.112H923.312L930.456 468.707V202.08L926.289 192.557L912.597 184.821L907.833 184.225L904.858 183.036L900.69 175.893L894.737 163.396L886.998 156.253L888.188 153.873V150.302L894.737 144.945L907.239 134.828L910.214 132.448C910.811 131.257 911.882 128.758 911.406 128.281C910.93 127.805 913.985 125.305 915.573 124.116L917.359 121.734L917.954 105.07Z" fill="#FFD597" stroke="black"/>
<path d="M955.715 266.208H960.108L965.992 280.564H966.223L972.107 266.208H976.5V286.02H973.055V272.41H972.871L967.395 285.962H964.82L959.344 272.381H959.16V286.02H955.715V266.208ZM996.696 266.208V286.02H993.503L984.164 272.526H984.001V286.02H980.41V266.208H983.623L992.951 279.713H993.125V266.208H996.696Z" fill="#00282B"/>
<path d="M487.172 52.8291V72.64H483.979L474.64 59.1457H474.477V72.64H470.887V52.8291H474.099L483.428 66.333H483.601V52.8291H487.172ZM497.8 72.64H491.085V52.8291H497.936C499.904 52.8291 501.593 53.2257 503.007 54.0189C504.426 54.8056 505.516 55.9374 506.277 57.4142C507.039 58.891 507.419 60.658 507.419 62.7152C507.419 64.7788 507.035 66.5523 506.268 68.0355C505.506 69.5187 504.407 70.6569 502.968 71.4501C501.535 72.2434 499.813 72.64 497.8 72.64ZM494.675 69.5348H497.626C499.007 69.5348 500.158 69.2833 501.081 68.7803C502.003 68.2709 502.697 67.5132 503.161 66.5071C503.626 65.4946 503.858 64.2306 503.858 62.7152C503.858 61.1997 503.626 59.9421 503.161 58.9426C502.697 57.9366 502.01 57.1852 501.1 56.6887C500.197 56.1856 499.075 55.9341 497.733 55.9341H494.675V69.5348Z" fill="#00282B"/>
<path d="M967.253 492.073V511.885H963.663V492.073H967.253ZM973.685 511.885H969.853L976.83 492.073H981.262L988.249 511.885H984.417L979.124 496.137H978.968L973.685 511.885ZM973.811 504.117H984.262V507H973.811V504.117Z" fill="#00282B"/>
<path d="M491.714 577.199V597.01H488.521L479.182 583.516H479.019V597.01H475.429V577.199H478.641L487.97 590.703H488.143V577.199H491.714ZM495.627 597.01V577.199H508.516V580.208H499.217V585.586H507.849V588.594H499.217V594.001H508.593V597.01H495.627Z" fill="#00282B"/>
<path d="M52.6782 408.6L47.085 388.789H50.946L54.5168 403.347H54.7006L58.5134 388.789H62.0261L65.8485 403.357H66.0227L69.5935 388.789H73.4546L67.8612 408.6H64.3195L60.352 394.7H60.1971L56.2199 408.6H52.6782ZM74.5892 388.789H78.6438L83.492 397.553H83.6855L88.5336 388.789H92.5883L85.379 401.21V408.6H81.7985V401.21L74.5892 388.789Z" fill="#00282B"/>
<path d="M48.5073 157.249H52.9006L58.7842 171.604H59.0165L64.9001 157.249H69.2934V177.06H65.8484V163.45H65.6646L60.1874 177.002H57.6133L52.1362 163.421H51.9523V177.06H48.5073V157.249ZM72.3319 160.257V157.249H88.1441V160.257H82.0186V177.06H78.4574V160.257H72.3319Z" fill="#00282B"/>
<path d="M514.929 351.308C520.58 351.308 525.161 346.729 525.161 341.08C525.161 335.431 520.58 330.852 514.929 330.852C509.278 330.852 504.697 335.431 504.697 341.08C504.697 346.729 509.278 351.308 514.929 351.308Z" fill="#FF8F87" stroke="black"/>
<path d="M144.429 419.95V399.313H151.404C153.017 399.313 154.341 399.589 155.375 400.14C156.41 400.684 157.176 401.432 157.673 402.387C158.171 403.34 158.419 404.425 158.419 405.641C158.419 406.858 158.171 407.936 157.673 408.876C157.176 409.817 156.413 410.556 155.386 411.092C154.357 411.624 153.043 411.889 151.445 411.889H145.799V409.632H151.364C152.465 409.632 153.353 409.47 154.024 409.148C154.703 408.826 155.194 408.368 155.497 407.778C155.806 407.18 155.96 406.467 155.96 405.641C155.96 404.815 155.806 404.093 155.497 403.475C155.187 402.857 154.693 402.38 154.015 402.044C153.336 401.701 152.439 401.53 151.323 401.53H146.928V419.95H144.429ZM154.146 410.679L159.226 419.95H156.323L151.323 410.679H154.146ZM166.819 420.313C165.837 420.313 164.947 420.128 164.148 419.758C163.348 419.382 162.713 418.841 162.242 418.136C161.772 417.425 161.537 416.564 161.537 415.556C161.537 414.67 161.712 413.951 162.061 413.4C162.41 412.843 162.877 412.406 163.462 412.09C164.047 411.775 164.692 411.54 165.398 411.385C166.11 411.224 166.826 411.096 167.545 411.002C168.485 410.881 169.248 410.791 169.833 410.73C170.424 410.663 170.855 410.552 171.123 410.398C171.399 410.243 171.536 409.974 171.536 409.592V409.511C171.536 408.517 171.265 407.744 170.72 407.194C170.182 406.642 169.366 406.367 168.27 406.367C167.135 406.367 166.245 406.616 165.599 407.113C164.954 407.61 164.501 408.14 164.239 408.704L161.98 407.899C162.383 406.959 162.921 406.226 163.594 405.702C164.271 405.171 165.012 404.802 165.811 404.593C166.617 404.379 167.41 404.271 168.19 404.271C168.687 404.271 169.258 404.331 169.903 404.453C170.555 404.566 171.184 404.806 171.788 405.168C172.4 405.531 172.908 406.078 173.311 406.81C173.714 407.542 173.916 408.524 173.916 409.753V419.95H171.536V417.854H171.416C171.254 418.19 170.985 418.549 170.609 418.932C170.232 419.315 169.732 419.641 169.107 419.909C168.482 420.178 167.72 420.313 166.819 420.313ZM167.182 418.177C168.123 418.177 168.915 417.992 169.56 417.622C170.212 417.253 170.704 416.775 171.033 416.192C171.368 415.607 171.536 414.992 171.536 414.348V412.171C171.436 412.292 171.213 412.402 170.872 412.503C170.536 412.597 170.145 412.681 169.702 412.755C169.265 412.822 168.838 412.883 168.421 412.937C168.012 412.983 167.679 413.024 167.423 413.058C166.806 413.139 166.228 413.269 165.69 413.451C165.159 413.626 164.729 413.89 164.4 414.247C164.077 414.596 163.916 415.073 163.916 415.678C163.916 416.504 164.221 417.128 164.833 417.552C165.451 417.968 166.235 418.177 167.182 418.177ZM178.258 425.754V404.473H180.556V406.931H180.837C181.012 406.663 181.254 406.32 181.564 405.903C181.88 405.48 182.329 405.104 182.914 404.775C183.506 404.439 184.305 404.271 185.313 404.271C186.617 404.271 187.767 404.597 188.76 405.248C189.755 405.9 190.532 406.824 191.089 408.02C191.647 409.215 191.926 410.626 191.926 412.251C191.926 413.89 191.647 415.311 191.089 416.514C190.532 417.709 189.758 418.637 188.771 419.295C187.783 419.947 186.644 420.272 185.354 420.272C184.359 420.272 183.562 420.108 182.965 419.779C182.367 419.443 181.907 419.064 181.583 418.64C181.261 418.21 181.012 417.854 180.837 417.572H180.636V425.754H178.258ZM180.595 412.212C180.595 413.381 180.767 414.411 181.11 415.304C181.453 416.192 181.953 416.887 182.612 417.391C183.271 417.888 184.077 418.136 185.032 418.136C186.026 418.136 186.856 417.874 187.52 417.351C188.193 416.82 188.697 416.108 189.033 415.214C189.376 414.314 189.547 413.312 189.547 412.212C189.547 411.123 189.379 410.142 189.043 409.268C188.714 408.389 188.213 407.694 187.541 407.183C186.876 406.666 186.039 406.407 185.032 406.407C184.063 406.407 183.25 406.652 182.592 407.143C181.933 407.626 181.436 408.305 181.1 409.179C180.764 410.045 180.595 411.056 180.595 412.212ZM195.555 419.95V404.473H197.933V419.95H195.555ZM196.764 401.893C196.301 401.893 195.901 401.735 195.565 401.42C195.236 401.103 195.071 400.724 195.071 400.28C195.071 399.838 195.236 399.458 195.565 399.142C195.901 398.826 196.301 398.669 196.764 398.669C197.228 398.669 197.625 398.826 197.954 399.142C198.29 399.458 198.458 399.838 198.458 400.28C198.458 400.724 198.29 401.103 197.954 401.42C197.625 401.735 197.228 401.893 196.764 401.893ZM208.138 420.272C206.848 420.272 205.708 419.947 204.72 419.295C203.732 418.637 202.96 417.709 202.401 416.514C201.844 415.311 201.566 413.89 201.566 412.251C201.566 410.626 201.844 409.215 202.401 408.02C202.96 406.824 203.736 405.9 204.73 405.248C205.725 404.597 206.874 404.271 208.177 404.271C209.186 404.271 209.983 404.439 210.566 404.775C211.158 405.104 211.609 405.48 211.917 405.903C212.233 406.32 212.478 406.663 212.653 406.931H212.855V399.313H215.234V419.95H212.936V417.572H212.653C212.478 417.854 212.23 418.21 211.907 418.64C211.585 419.064 211.125 419.443 210.527 419.779C209.928 420.108 209.132 420.272 208.138 420.272ZM208.46 418.136C209.414 418.136 210.221 417.888 210.88 417.391C211.538 416.887 212.039 416.192 212.381 415.304C212.724 414.411 212.895 413.381 212.895 412.212C212.895 411.056 212.727 410.045 212.391 409.179C212.055 408.305 211.557 407.626 210.899 407.143C210.24 406.652 209.427 406.407 208.46 406.407C207.452 406.407 206.612 406.666 205.941 407.183C205.275 407.694 204.774 408.389 204.438 409.268C204.109 410.142 203.944 411.123 203.944 412.212C203.944 413.312 204.112 414.314 204.449 415.214C204.79 416.108 205.294 416.82 205.96 417.351C206.632 417.874 207.465 418.136 208.46 418.136ZM244.839 405.762H242.339C242.191 405.044 241.932 404.412 241.563 403.868C241.2 403.324 240.757 402.867 240.233 402.498C239.715 402.121 239.14 401.84 238.509 401.651C237.877 401.463 237.218 401.369 236.533 401.369C235.283 401.369 234.151 401.684 233.136 402.317C232.128 402.948 231.325 403.878 230.727 405.108C230.135 406.337 229.84 407.845 229.84 409.632C229.84 411.418 230.135 412.927 230.727 414.156C231.325 415.385 232.128 416.316 233.136 416.947C234.151 417.579 235.283 417.894 236.533 417.894C237.218 417.894 237.877 417.8 238.509 417.612C239.14 417.425 239.715 417.145 240.233 416.775C240.757 416.4 241.2 415.94 241.563 415.395C241.932 414.845 242.191 414.214 242.339 413.501H244.839C244.651 414.555 244.309 415.5 243.812 416.333C243.314 417.166 242.695 417.874 241.956 418.459C241.217 419.036 240.387 419.477 239.466 419.779C238.552 420.08 237.575 420.233 236.533 420.233C234.772 420.233 233.207 419.802 231.836 418.942C230.465 418.083 229.386 416.859 228.6 415.275C227.813 413.689 227.421 411.809 227.421 409.632C227.421 407.455 227.813 405.574 228.6 403.99C229.386 402.404 230.465 401.182 231.836 400.321C233.207 399.461 234.772 399.032 236.533 399.032C237.575 399.032 238.552 399.183 239.466 399.485C240.387 399.787 241.217 400.23 241.956 400.815C242.695 401.393 243.314 402.098 243.812 402.931C244.309 403.757 244.651 404.701 244.839 405.762ZM248.557 419.95V404.473H250.935V419.95H248.557ZM249.766 401.893C249.303 401.893 248.903 401.735 248.567 401.42C248.237 401.103 248.073 400.724 248.073 400.28C248.073 399.838 248.237 399.458 248.567 399.142C248.903 398.826 249.303 398.669 249.766 398.669C250.23 398.669 250.626 398.826 250.956 399.142C251.292 399.458 251.46 399.838 251.46 400.28C251.46 400.724 251.292 401.103 250.956 401.42C250.626 401.735 250.23 401.893 249.766 401.893ZM262.026 404.473V406.488H254.002V404.473H262.026ZM256.341 400.765H258.72V415.517C258.72 416.189 258.817 416.691 259.012 417.027C259.214 417.356 259.469 417.579 259.778 417.692C260.094 417.8 260.426 417.854 260.776 417.854C261.038 417.854 261.253 417.841 261.421 417.814C261.589 417.78 261.723 417.754 261.824 417.733L262.308 419.869C262.146 419.93 261.922 419.991 261.633 420.051C261.344 420.118 260.978 420.152 260.534 420.152C259.862 420.152 259.203 420.007 258.559 419.718C257.92 419.429 257.389 418.99 256.966 418.398C256.549 417.807 256.341 417.061 256.341 416.161V400.765ZM267.137 425.754C266.734 425.754 266.374 425.72 266.058 425.653C265.742 425.593 265.523 425.532 265.403 425.472L266.008 423.375C266.586 423.524 267.096 423.577 267.54 423.538C267.984 423.497 268.377 423.298 268.719 422.943C269.068 422.593 269.388 422.026 269.677 421.239L270.121 420.031L264.395 404.473H266.975L271.249 416.806H271.41L275.684 404.473H278.265L271.693 422.207C271.397 423.007 271.031 423.668 270.594 424.193C270.157 424.723 269.649 425.115 269.071 425.371C268.5 425.626 267.855 425.754 267.137 425.754Z" fill="black"/>
<path d="M143.293 518.695V498.058H145.793V507.249H156.801V498.058H159.301V518.695H156.801V509.465H145.793V518.695H143.293ZM170.272 519.017C168.875 519.017 167.648 518.685 166.594 518.02C165.546 517.355 164.725 516.425 164.134 515.229C163.549 514.034 163.257 512.635 163.257 511.037C163.257 509.424 163.549 508.017 164.134 506.815C164.725 505.613 165.546 504.679 166.594 504.014C167.648 503.349 168.875 503.016 170.272 503.016C171.67 503.016 172.893 503.349 173.942 504.014C174.997 504.679 175.817 505.613 176.401 506.815C176.993 508.017 177.288 509.424 177.288 511.037C177.288 512.635 176.993 514.034 176.401 515.229C175.817 516.425 174.997 517.355 173.942 518.02C172.893 518.685 171.67 519.017 170.272 519.017ZM170.272 516.881C171.334 516.881 172.208 516.609 172.893 516.065C173.579 515.52 174.086 514.805 174.416 513.919C174.745 513.033 174.909 512.071 174.909 511.037C174.909 510.002 174.745 509.038 174.416 508.145C174.086 507.252 173.579 506.529 172.893 505.979C172.208 505.428 171.334 505.152 170.272 505.152C169.211 505.152 168.338 505.428 167.652 505.979C166.966 506.529 166.458 507.252 166.129 508.145C165.8 509.038 165.635 510.002 165.635 511.037C165.635 512.071 165.8 513.033 166.129 513.919C166.458 514.805 166.966 515.52 167.652 516.065C168.338 516.609 169.211 516.881 170.272 516.881ZM187.653 503.218V505.233H179.629V503.218H187.653ZM181.968 499.51H184.347V514.262C184.347 514.934 184.445 515.436 184.639 515.772C184.841 516.102 185.097 516.324 185.405 516.438C185.721 516.545 186.054 516.599 186.403 516.599C186.666 516.599 186.88 516.586 187.048 516.559C187.216 516.525 187.351 516.499 187.451 516.478L187.935 518.614C187.774 518.675 187.549 518.736 187.261 518.796C186.971 518.863 186.605 518.897 186.162 518.897C185.489 518.897 184.831 518.752 184.186 518.464C183.548 518.174 183.016 517.735 182.593 517.144C182.176 516.552 181.968 515.806 181.968 514.906V499.51ZM210.828 503.218C210.706 502.197 210.216 501.404 209.356 500.839C208.495 500.275 207.441 499.994 206.19 499.994C205.276 499.994 204.477 500.141 203.791 500.436C203.113 500.733 202.582 501.139 202.199 501.656C201.822 502.173 201.634 502.761 201.634 503.419C201.634 503.971 201.766 504.444 202.028 504.84C202.296 505.229 202.639 505.555 203.056 505.817C203.472 506.073 203.909 506.284 204.366 506.452C204.823 506.613 205.244 506.745 205.626 506.846L207.723 507.41C208.26 507.551 208.859 507.746 209.517 507.994C210.183 508.243 210.817 508.582 211.423 509.011C212.033 509.435 212.538 509.979 212.934 510.645C213.331 511.31 213.529 512.126 213.529 513.093C213.529 514.207 213.237 515.215 212.652 516.115C212.074 517.015 211.227 517.731 210.112 518.262C209.003 518.793 207.655 519.058 206.07 519.058C204.592 519.058 203.311 518.819 202.229 518.342C201.154 517.865 200.308 517.2 199.689 516.347C199.077 515.494 198.732 514.504 198.651 513.374H201.231C201.299 514.154 201.56 514.799 202.018 515.309C202.481 515.813 203.066 516.189 203.772 516.438C204.484 516.679 205.25 516.801 206.07 516.801C207.024 516.801 207.881 516.646 208.641 516.338C209.399 516.021 210.001 515.585 210.445 515.027C210.888 514.463 211.11 513.804 211.11 513.052C211.11 512.367 210.918 511.809 210.536 511.38C210.152 510.95 209.648 510.6 209.023 510.331C208.398 510.063 207.723 509.827 206.997 509.626L204.457 508.901C202.844 508.437 201.567 507.775 200.627 506.916C199.686 506.056 199.216 504.931 199.216 503.541C199.216 502.385 199.528 501.377 200.152 500.517C200.785 499.651 201.631 498.979 202.693 498.502C203.762 498.019 204.954 497.777 206.271 497.777C207.602 497.777 208.785 498.015 209.819 498.492C210.855 498.962 211.675 499.607 212.279 500.426C212.891 501.247 213.213 502.176 213.247 503.218H210.828ZM217.317 524.499V503.218H219.615V505.677H219.897C220.072 505.408 220.314 505.065 220.623 504.648C220.939 504.225 221.389 503.849 221.974 503.52C222.566 503.184 223.365 503.016 224.373 503.016C225.677 503.016 226.826 503.342 227.82 503.993C228.815 504.645 229.591 505.569 230.149 506.765C230.707 507.96 230.985 509.371 230.985 510.996C230.985 512.635 230.707 514.056 230.149 515.259C229.591 516.455 228.818 517.382 227.831 518.04C226.843 518.692 225.703 519.017 224.413 519.017C223.418 519.017 222.622 518.853 222.024 518.524C221.426 518.188 220.966 517.809 220.643 517.385C220.321 516.955 220.072 516.599 219.897 516.317H219.695V524.499H217.317ZM219.656 510.957C219.656 512.126 219.827 513.156 220.17 514.05C220.512 514.937 221.012 515.632 221.671 516.136C222.329 516.633 223.137 516.881 224.091 516.881C225.085 516.881 225.915 516.619 226.58 516.096C227.253 515.565 227.757 514.853 228.093 513.959C228.435 513.059 228.606 512.058 228.606 510.957C228.606 509.868 228.438 508.888 228.102 508.014C227.773 507.134 227.272 506.439 226.601 505.929C225.936 505.411 225.099 505.152 224.091 505.152C223.123 505.152 222.31 505.397 221.652 505.888C220.993 506.371 220.496 507.05 220.16 507.924C219.824 508.79 219.656 509.801 219.656 510.957ZM234.615 518.695V503.218H236.913V505.555H237.074C237.356 504.79 237.867 504.168 238.606 503.692C239.345 503.215 240.178 502.976 241.106 502.976C241.281 502.976 241.499 502.98 241.761 502.986C242.023 502.992 242.221 503.003 242.356 503.016V505.435C242.276 505.414 242.09 505.384 241.801 505.344C241.519 505.296 241.22 505.274 240.904 505.274C240.151 505.274 239.48 505.431 238.889 505.747C238.304 506.056 237.839 506.486 237.498 507.036C237.162 507.581 236.994 508.202 236.994 508.901V518.695H234.615ZM245.175 518.695V503.218H247.554V518.695H245.175ZM246.386 500.638C245.921 500.638 245.522 500.481 245.186 500.165C244.856 499.848 244.692 499.469 244.692 499.026C244.692 498.583 244.856 498.203 245.186 497.887C245.522 497.572 245.921 497.414 246.386 497.414C246.849 497.414 247.245 497.572 247.575 497.887C247.911 498.203 248.079 498.583 248.079 499.026C248.079 499.469 247.911 499.848 247.575 500.165C247.245 500.481 246.849 500.638 246.386 500.638ZM254.291 509.385V518.695H251.912V503.218H254.21V505.636H254.412C254.774 504.85 255.326 504.219 256.065 503.741C256.804 503.258 257.758 503.016 258.928 503.016C259.976 503.016 260.893 503.231 261.68 503.661C262.466 504.084 263.078 504.729 263.514 505.596C263.951 506.455 264.169 507.544 264.169 508.86V518.695H261.79V509.021C261.79 507.806 261.474 506.858 260.843 506.181C260.211 505.495 259.344 505.152 258.242 505.152C257.482 505.152 256.804 505.317 256.206 505.646C255.615 505.975 255.148 506.455 254.805 507.087C254.462 507.718 254.291 508.485 254.291 509.385ZM274.766 524.822C273.617 524.822 272.629 524.674 271.802 524.378C270.976 524.09 270.287 523.706 269.736 523.229C269.192 522.759 268.758 522.256 268.436 521.718L270.331 520.387C270.545 520.67 270.818 520.992 271.147 521.356C271.476 521.724 271.927 522.043 272.498 522.312C273.076 522.588 273.831 522.725 274.766 522.725C276.016 522.725 277.048 522.424 277.861 521.819C278.674 521.214 279.08 520.267 279.08 518.978V515.834H278.878C278.703 516.115 278.455 516.465 278.132 516.881C277.817 517.291 277.36 517.658 276.762 517.98C276.17 518.296 275.371 518.453 274.363 518.453C273.113 518.453 271.991 518.158 270.996 517.567C270.008 516.976 269.225 516.115 268.647 514.987C268.076 513.859 267.791 512.488 267.791 510.876C267.791 509.29 268.069 507.91 268.628 506.734C269.185 505.552 269.961 504.638 270.955 503.993C271.95 503.342 273.099 503.016 274.404 503.016C275.411 503.016 276.211 503.184 276.802 503.52C277.4 503.849 277.858 504.225 278.173 504.648C278.496 505.065 278.744 505.408 278.919 505.677H279.161V503.218H281.459V519.139C281.459 520.468 281.157 521.55 280.552 522.383C279.954 523.223 279.147 523.838 278.132 524.227C277.125 524.623 276.002 524.822 274.766 524.822ZM274.685 516.317C275.64 516.317 276.446 516.098 277.105 515.662C277.763 515.225 278.264 514.598 278.607 513.778C278.949 512.959 279.12 511.977 279.12 510.835C279.12 509.721 278.952 508.737 278.616 507.883C278.281 507.03 277.784 506.362 277.125 505.878C276.467 505.394 275.653 505.152 274.685 505.152C273.677 505.152 272.838 505.408 272.166 505.918C271.5 506.429 271 507.114 270.663 507.974C270.334 508.834 270.17 509.788 270.17 510.835C270.17 511.91 270.338 512.861 270.674 513.687C271.017 514.507 271.52 515.152 272.185 515.621C272.857 516.086 273.691 516.317 274.685 516.317ZM296.781 506.684L294.644 507.288C294.51 506.933 294.311 506.587 294.049 506.251C293.794 505.908 293.445 505.626 293.001 505.404C292.558 505.183 291.989 505.072 291.298 505.072C290.35 505.072 289.56 505.291 288.929 505.727C288.303 506.157 287.991 506.704 287.991 507.369C287.991 507.96 288.206 508.427 288.636 508.769C289.066 509.112 289.739 509.398 290.653 509.626L292.951 510.191C294.335 510.526 295.367 511.041 296.045 511.732C296.724 512.417 297.063 513.3 297.063 514.382C297.063 515.27 296.808 516.062 296.297 516.76C295.793 517.459 295.088 518.01 294.18 518.412C293.273 518.817 292.218 519.017 291.015 519.017C289.436 519.017 288.129 518.675 287.094 517.99C286.059 517.305 285.404 516.304 285.129 514.987L287.386 514.423C287.602 515.256 288.008 515.88 288.606 516.297C289.211 516.713 290.001 516.922 290.975 516.922C292.083 516.922 292.964 516.686 293.616 516.216C294.275 515.74 294.604 515.169 294.604 514.504C294.604 513.966 294.416 513.516 294.04 513.153C293.663 512.784 293.085 512.508 292.306 512.327L289.725 511.723C288.307 511.387 287.266 510.866 286.6 510.16C285.942 509.448 285.613 508.558 285.613 507.49C285.613 506.616 285.858 505.845 286.348 505.173C286.846 504.501 287.521 503.973 288.374 503.59C289.235 503.208 290.209 503.016 291.298 503.016C292.829 503.016 294.033 503.352 294.906 504.024C295.786 504.696 296.412 505.582 296.781 506.684Z" fill="black"/>
<path d="M474.132 374.55V353.913H482.277C483.843 353.913 485.176 354.213 486.279 354.81C487.381 355.401 488.221 356.224 488.799 357.279C489.383 358.327 489.676 359.536 489.676 360.906C489.676 362.277 489.38 363.486 488.789 364.534C488.198 365.582 487.34 366.398 486.218 366.983C485.102 367.567 483.752 367.859 482.166 367.859H476.975V364.363H481.46C482.3 364.363 482.993 364.218 483.537 363.93C484.088 363.634 484.498 363.227 484.766 362.711C485.042 362.186 485.18 361.585 485.18 360.906C485.18 360.222 485.042 359.624 484.766 359.113C484.498 358.595 484.088 358.196 483.537 357.914C482.986 357.625 482.286 357.481 481.441 357.481H478.496V374.55H474.132ZM492.43 374.55V359.073H496.725V374.55H492.43ZM494.588 357.078C493.948 357.078 493.401 356.866 492.945 356.443C492.494 356.013 492.269 355.499 492.269 354.901C492.269 354.31 492.494 353.803 492.945 353.38C493.401 352.95 493.948 352.734 494.588 352.734C495.226 352.734 495.77 352.95 496.22 353.38C496.677 353.803 496.906 354.31 496.906 354.901C496.906 355.499 496.677 356.013 496.22 356.443C495.77 356.866 495.226 357.078 494.588 357.078ZM507.22 374.852C505.627 374.852 504.257 374.53 503.108 373.885C501.965 373.233 501.085 372.313 500.467 371.125C499.848 369.928 499.539 368.514 499.539 366.882C499.539 365.289 499.848 363.892 500.467 362.69C501.085 361.487 501.956 360.551 503.077 359.879C504.206 359.207 505.53 358.871 507.049 358.871C508.07 358.871 509.021 359.036 509.901 359.365C510.789 359.687 511.561 360.174 512.22 360.826C512.885 361.477 513.403 362.298 513.772 363.285C514.142 364.266 514.327 365.414 514.327 366.731V367.91H501.253V365.25H510.285C510.285 364.631 510.15 364.084 509.882 363.607C509.613 363.13 509.239 362.757 508.762 362.488C508.292 362.214 507.744 362.075 507.119 362.075C506.468 362.075 505.89 362.226 505.386 362.529C504.888 362.824 504.499 363.224 504.216 363.728C503.935 364.225 503.789 364.779 503.782 365.391V367.919C503.782 368.685 503.924 369.347 504.206 369.904C504.495 370.463 504.902 370.892 505.427 371.195C505.95 371.497 506.572 371.648 507.291 371.648C507.768 371.648 508.205 371.581 508.601 371.447C508.997 371.312 509.337 371.111 509.62 370.842C509.901 370.573 510.117 370.244 510.265 369.854L514.236 370.117C514.034 371.07 513.621 371.903 512.996 372.615C512.378 373.321 511.578 373.871 510.597 374.267C509.623 374.658 508.497 374.852 507.22 374.852ZM517.129 374.55V359.073H521.292V361.773H521.453C521.736 360.813 522.209 360.087 522.875 359.596C523.54 359.099 524.306 358.851 525.173 358.851C525.388 358.851 525.62 358.864 525.869 358.892C526.117 358.919 526.335 358.955 526.524 359.002V362.811C526.322 362.751 526.044 362.697 525.687 362.65C525.331 362.603 525.005 362.579 524.709 362.579C524.077 362.579 523.513 362.716 523.015 362.992C522.525 363.261 522.135 363.637 521.847 364.12C521.564 364.605 521.424 365.162 521.424 365.793V374.55H517.129ZM528.744 374.55V359.073H532.907V361.773H533.069C533.35 360.813 533.825 360.087 534.49 359.596C535.154 359.099 535.921 358.851 536.788 358.851C537.003 358.851 537.234 358.864 537.483 358.892C537.732 358.919 537.951 358.955 538.138 359.002V362.811C537.937 362.751 537.658 362.697 537.301 362.65C536.946 362.603 536.62 362.579 536.324 362.579C535.692 362.579 535.128 362.716 534.631 362.992C534.14 363.261 533.751 363.637 533.461 364.12C533.179 364.605 533.038 365.162 533.038 365.793V374.55H528.744ZM546.694 374.852C545.102 374.852 543.73 374.53 542.581 373.885C541.439 373.233 540.559 372.313 539.94 371.125C539.322 369.928 539.012 368.514 539.012 366.882C539.012 365.289 539.322 363.892 539.94 362.69C540.559 361.487 541.429 360.551 542.552 359.879C543.68 359.207 545.004 358.871 546.522 358.871C547.544 358.871 548.496 359.036 549.376 359.365C550.262 359.687 551.036 360.174 551.694 360.826C552.359 361.477 552.876 362.298 553.246 363.285C553.616 364.266 553.8 365.414 553.8 366.731V367.91H540.727V365.25H549.758C549.758 364.631 549.624 364.084 549.355 363.607C549.086 363.13 548.714 362.757 548.237 362.488C547.765 362.214 547.218 362.075 546.594 362.075C545.942 362.075 545.364 362.226 544.86 362.529C544.363 362.824 543.972 363.224 543.69 363.728C543.408 364.225 543.264 364.779 543.257 365.391V367.919C543.257 368.685 543.398 369.347 543.68 369.904C543.969 370.463 544.375 370.892 544.9 371.195C545.424 371.497 546.045 371.648 546.765 371.648C547.242 371.648 547.678 371.581 548.075 371.447C548.472 371.312 548.811 371.111 549.093 370.842C549.376 370.573 549.59 370.244 549.739 369.854L553.709 370.117C553.508 371.07 553.095 371.903 552.47 372.615C551.852 373.321 551.053 373.871 550.07 374.267C549.096 374.658 547.971 374.852 546.694 374.852Z" fill="black"/>
<path d="M782.474 479.383C782.353 478.362 781.862 477.569 781.003 477.004C780.142 476.44 779.087 476.158 777.837 476.158C776.923 476.158 776.124 476.306 775.438 476.601C774.759 476.897 774.229 477.304 773.845 477.821C773.469 478.338 773.281 478.926 773.281 479.584C773.281 480.135 773.413 480.609 773.675 481.005C773.943 481.394 774.286 481.72 774.702 481.982C775.119 482.238 775.556 482.449 776.013 482.617C776.47 482.778 776.89 482.909 777.273 483.01L779.37 483.575C779.907 483.715 780.506 483.911 781.164 484.159C781.829 484.408 782.464 484.747 783.069 485.176C783.68 485.599 784.184 486.144 784.581 486.809C784.978 487.474 785.176 488.29 785.176 489.257C785.176 490.372 784.884 491.38 784.299 492.28C783.721 493.18 782.874 493.896 781.759 494.426C780.65 494.957 779.302 495.223 777.717 495.223C776.237 495.223 774.958 494.984 773.876 494.507C772.801 494.03 771.954 493.365 771.336 492.512C770.724 491.659 770.377 490.668 770.297 489.539H772.878C772.945 490.319 773.207 490.963 773.665 491.474C774.128 491.978 774.713 492.354 775.418 492.602C776.131 492.844 776.896 492.966 777.717 492.966C778.671 492.966 779.528 492.811 780.286 492.502C781.046 492.186 781.648 491.75 782.092 491.192C782.535 490.627 782.756 489.969 782.756 489.217C782.756 488.532 782.565 487.974 782.181 487.545C781.799 487.115 781.295 486.765 780.67 486.496C780.045 486.228 779.37 485.992 778.643 485.791L776.103 485.066C774.491 484.602 773.214 483.94 772.274 483.081C771.332 482.221 770.862 481.096 770.862 479.705C770.862 478.55 771.175 477.542 771.799 476.682C772.431 475.816 773.277 475.144 774.339 474.667C775.409 474.184 776.601 473.942 777.918 473.942C779.249 473.942 780.432 474.18 781.466 474.657C782.502 475.127 783.321 475.771 783.925 476.591C784.537 477.411 784.86 478.341 784.894 479.383H782.474ZM788.963 494.86V479.383H791.342V494.86H788.963ZM790.173 476.803C789.709 476.803 789.31 476.645 788.974 476.33C788.644 476.013 788.48 475.634 788.48 475.19C788.48 474.748 788.644 474.367 788.974 474.052C789.31 473.736 789.709 473.579 790.173 473.579C790.637 473.579 791.033 473.736 791.363 474.052C791.699 474.367 791.867 474.748 791.867 475.19C791.867 475.634 791.699 476.013 791.363 476.33C791.033 476.645 790.637 476.803 790.173 476.803ZM801.989 495.182C800.591 495.182 799.365 494.85 798.31 494.185C797.262 493.519 796.442 492.59 795.851 491.394C795.266 490.198 794.973 488.8 794.973 487.202C794.973 485.589 795.266 484.182 795.851 482.98C796.442 481.778 797.262 480.844 798.31 480.179C799.365 479.514 800.591 479.181 801.989 479.181C803.387 479.181 804.611 479.514 805.659 480.179C806.714 480.844 807.533 481.778 808.118 482.98C808.71 484.182 809.005 485.589 809.005 487.202C809.005 488.8 808.71 490.198 808.118 491.394C807.533 492.59 806.714 493.519 805.659 494.185C804.611 494.85 803.387 495.182 801.989 495.182ZM801.989 493.046C803.052 493.046 803.925 492.774 804.611 492.23C805.295 491.685 805.803 490.97 806.132 490.084C806.461 489.197 806.626 488.236 806.626 487.202C806.626 486.167 806.461 485.203 806.132 484.31C805.803 483.417 805.295 482.694 804.611 482.143C803.925 481.593 803.052 481.317 801.989 481.317C800.927 481.317 800.054 481.593 799.368 482.143C798.683 482.694 798.176 483.417 797.847 484.31C797.518 485.203 797.353 486.167 797.353 487.202C797.353 488.236 797.518 489.197 797.847 490.084C798.176 490.97 798.683 491.685 799.368 492.23C800.054 492.774 800.927 493.046 801.989 493.046ZM822.394 488.532V479.383H824.774V494.86H822.394V492.24H822.233C821.87 493.026 821.306 493.694 820.54 494.245C819.773 494.79 818.806 495.062 817.636 495.062C816.669 495.062 815.808 494.85 815.055 494.426C814.303 493.996 813.712 493.351 813.282 492.492C812.852 491.625 812.637 490.533 812.637 489.217V479.383H815.016V489.055C815.016 490.185 815.331 491.085 815.963 491.757C816.602 492.428 817.415 492.764 818.403 492.764C818.994 492.764 819.595 492.613 820.207 492.311C820.825 492.009 821.342 491.545 821.759 490.92C822.183 490.295 822.394 489.499 822.394 488.532ZM830.904 479.383L834.614 485.711L838.324 479.383H841.065L836.065 487.121L841.065 494.86H838.324L834.614 488.855L830.904 494.86H828.163L833.082 487.121L828.163 479.383H830.904ZM852.765 494.86V474.223H865.144V476.44H855.266V483.413H864.217V485.63H855.266V494.86H852.765ZM873.659 495.223C872.678 495.223 871.788 495.038 870.988 494.668C870.188 494.292 869.554 493.751 869.083 493.046C868.612 492.334 868.377 491.474 868.377 490.466C868.377 489.58 868.552 488.861 868.901 488.31C869.251 487.752 869.718 487.316 870.303 487C870.887 486.684 871.533 486.45 872.238 486.295C872.95 486.134 873.666 486.006 874.385 485.912C875.326 485.791 876.088 485.7 876.673 485.64C877.264 485.573 877.695 485.462 877.964 485.308C878.239 485.153 878.377 484.884 878.377 484.502V484.421C878.377 483.427 878.105 482.654 877.561 482.104C877.023 481.552 876.206 481.277 875.111 481.277C873.975 481.277 873.085 481.526 872.44 482.023C871.794 482.52 871.341 483.05 871.079 483.614L868.82 482.808C869.224 481.869 869.762 481.135 870.434 480.612C871.113 480.081 871.852 479.712 872.651 479.503C873.457 479.289 874.251 479.181 875.03 479.181C875.527 479.181 876.098 479.241 876.743 479.363C877.396 479.476 878.024 479.716 878.629 480.078C879.24 480.441 879.748 480.988 880.151 481.72C880.554 482.452 880.756 483.434 880.756 484.663V494.86H878.377V492.764H878.256C878.094 493.099 877.825 493.459 877.45 493.842C877.073 494.225 876.573 494.551 875.947 494.819C875.323 495.088 874.56 495.223 873.659 495.223ZM874.022 493.087C874.963 493.087 875.755 492.902 876.402 492.532C877.053 492.163 877.544 491.685 877.873 491.102C878.209 490.517 878.377 489.902 878.377 489.257V487.081C878.276 487.202 878.055 487.312 877.712 487.413C877.376 487.507 876.986 487.591 876.542 487.665C876.105 487.732 875.678 487.793 875.262 487.847C874.852 487.893 874.519 487.934 874.265 487.968C873.646 488.049 873.068 488.179 872.531 488.361C871.999 488.536 871.569 488.8 871.24 489.156C870.917 489.506 870.756 489.983 870.756 490.588C870.756 491.414 871.062 492.038 871.674 492.462C872.291 492.878 873.075 493.087 874.022 493.087ZM887.476 474.223V494.86H885.098V474.223H887.476ZM894.213 474.223V494.86H891.834V474.223H894.213ZM909.537 482.849L907.4 483.453C907.266 483.098 907.067 482.752 906.805 482.416C906.549 482.073 906.201 481.79 905.757 481.569C905.313 481.348 904.745 481.236 904.054 481.236C903.106 481.236 902.317 481.456 901.684 481.891C901.06 482.322 900.747 482.869 900.747 483.534C900.747 484.125 900.962 484.592 901.392 484.934C901.823 485.277 902.495 485.563 903.409 485.791L905.707 486.355C907.091 486.691 908.122 487.205 908.801 487.897C909.48 488.582 909.819 489.465 909.819 490.547C909.819 491.434 909.564 492.227 909.053 492.925C908.549 493.624 907.844 494.174 906.937 494.577C906.029 494.981 904.975 495.182 903.771 495.182C902.192 495.182 900.885 494.839 899.85 494.155C898.815 493.469 898.16 492.468 897.885 491.152L900.142 490.588C900.358 491.421 900.764 492.045 901.362 492.462C901.967 492.878 902.756 493.087 903.731 493.087C904.839 493.087 905.721 492.851 906.372 492.381C907.031 491.904 907.36 491.333 907.36 490.668C907.36 490.13 907.172 489.681 906.796 489.318C906.419 488.949 905.841 488.673 905.062 488.491L902.481 487.888C901.063 487.552 900.022 487.031 899.356 486.325C898.698 485.613 898.369 484.723 898.369 483.655C898.369 482.781 898.614 482.009 899.104 481.337C899.602 480.666 900.277 480.138 901.13 479.755C901.991 479.373 902.965 479.181 904.054 479.181C905.585 479.181 906.789 479.517 907.662 480.189C908.542 480.861 909.168 481.747 909.537 482.849Z" fill="black"/>
<path d="M779.133 387.035V366.398H786.35C787.788 366.398 788.974 366.647 789.908 367.144C790.842 367.634 791.537 368.296 791.995 369.129C792.451 369.955 792.681 370.873 792.681 371.88C792.681 372.767 792.522 373.499 792.206 374.077C791.897 374.654 791.487 375.112 790.976 375.447C790.472 375.783 789.925 376.031 789.333 376.192V376.394C789.965 376.435 790.601 376.656 791.239 377.059C791.877 377.462 792.412 378.04 792.842 378.793C793.271 379.545 793.487 380.466 793.487 381.553C793.487 382.588 793.252 383.519 792.781 384.345C792.311 385.171 791.568 385.826 790.553 386.31C789.539 386.793 788.218 387.035 786.591 387.035H779.133ZM781.632 384.818H786.591C788.225 384.818 789.383 384.503 790.069 383.871C790.762 383.233 791.108 382.46 791.108 381.553C791.108 380.855 790.93 380.21 790.573 379.619C790.217 379.021 789.71 378.544 789.052 378.188C788.392 377.826 787.613 377.644 786.713 377.644H781.632V384.818ZM781.632 375.467H786.269C787.022 375.467 787.701 375.319 788.306 375.024C788.917 374.728 789.4 374.312 789.757 373.775C790.12 373.237 790.301 372.606 790.301 371.88C790.301 370.974 789.985 370.204 789.354 369.573C788.721 368.934 787.721 368.615 786.35 368.615H781.632V375.467ZM797.271 387.035V371.558H799.571V373.895H799.732C800.013 373.13 800.524 372.508 801.263 372.031C802.003 371.555 802.836 371.316 803.764 371.316C803.938 371.316 804.156 371.32 804.419 371.325C804.681 371.332 804.879 371.342 805.014 371.356V373.775C804.933 373.754 804.748 373.724 804.459 373.684C804.177 373.636 803.877 373.614 803.561 373.614C802.809 373.614 802.137 373.771 801.546 374.087C800.961 374.396 800.497 374.826 800.154 375.376C799.819 375.921 799.651 376.542 799.651 377.241V387.035H797.271ZM813.652 387.357C812.254 387.357 811.028 387.025 809.972 386.36C808.924 385.694 808.104 384.765 807.513 383.569C806.928 382.373 806.636 380.975 806.636 379.377C806.636 377.764 806.928 376.357 807.513 375.155C808.104 373.953 808.924 373.019 809.972 372.354C811.028 371.689 812.254 371.356 813.652 371.356C815.05 371.356 816.273 371.689 817.321 372.354C818.377 373.019 819.196 373.953 819.781 375.155C820.372 376.357 820.668 377.764 820.668 379.377C820.668 380.975 820.372 382.373 819.781 383.569C819.196 384.765 818.377 385.694 817.321 386.36C816.273 387.025 815.05 387.357 813.652 387.357ZM813.652 385.221C814.714 385.221 815.587 384.949 816.273 384.405C816.958 383.86 817.466 383.145 817.795 382.259C818.125 381.372 818.289 380.411 818.289 379.377C818.289 378.342 818.125 377.378 817.795 376.485C817.466 375.592 816.958 374.869 816.273 374.318C815.587 373.768 814.714 373.492 813.652 373.492C812.59 373.492 811.716 373.768 811.032 374.318C810.346 374.869 809.838 375.592 809.509 376.485C809.18 377.378 809.015 378.342 809.015 379.377C809.015 380.411 809.18 381.372 809.509 382.259C809.838 383.145 810.346 383.86 811.032 384.405C811.716 384.949 812.59 385.221 813.652 385.221ZM830.589 387.357C829.192 387.357 827.965 387.025 826.909 386.36C825.861 385.694 825.042 384.765 824.45 383.569C823.865 382.373 823.573 380.975 823.573 379.377C823.573 377.764 823.865 376.357 824.45 375.155C825.042 373.953 825.861 373.019 826.909 372.354C827.965 371.689 829.192 371.356 830.589 371.356C831.987 371.356 833.21 371.689 834.258 372.354C835.314 373.019 836.134 373.953 836.718 375.155C837.309 376.357 837.605 377.764 837.605 379.377C837.605 380.975 837.309 382.373 836.718 383.569C836.134 384.765 835.314 385.694 834.258 386.36C833.21 387.025 831.987 387.357 830.589 387.357ZM830.589 385.221C831.651 385.221 832.524 384.949 833.21 384.405C833.896 383.86 834.403 383.145 834.732 382.259C835.062 381.372 835.226 380.411 835.226 379.377C835.226 378.342 835.062 377.378 834.732 376.485C834.403 375.592 833.896 374.869 833.21 374.318C832.524 373.768 831.651 373.492 830.589 373.492C829.528 373.492 828.653 373.768 827.969 374.318C827.283 374.869 826.775 375.592 826.446 376.485C826.117 377.378 825.952 378.342 825.952 379.377C825.952 380.411 826.117 381.372 826.446 382.259C826.775 383.145 827.283 383.86 827.969 384.405C828.653 384.949 829.528 385.221 830.589 385.221ZM843.454 381.392L843.414 378.45H843.898L850.672 371.558H853.615L846.398 378.853H846.196L843.454 381.392ZM841.236 387.035V366.398H843.615V387.035H841.236ZM851.075 387.035L845.026 379.377L846.72 377.725L854.098 387.035H851.075ZM856.677 387.035V371.558H859.056V387.035H856.677ZM857.886 368.978C857.423 368.978 857.023 368.82 856.687 368.505C856.358 368.188 856.193 367.809 856.193 367.365C856.193 366.923 856.358 366.542 856.687 366.227C857.023 365.911 857.423 365.754 857.886 365.754C858.349 365.754 858.747 365.911 859.076 366.227C859.412 366.542 859.58 366.923 859.58 367.365C859.58 367.809 859.412 368.188 859.076 368.505C858.747 368.82 858.349 368.978 857.886 368.978ZM865.792 377.725V387.035H863.412V371.558H865.71V373.976H865.912C866.276 373.19 866.826 372.559 867.566 372.081C868.305 371.598 869.258 371.356 870.428 371.356C871.477 371.356 872.393 371.571 873.18 372.001C873.966 372.424 874.578 373.069 875.015 373.936C875.451 374.795 875.67 375.884 875.67 377.2V387.035H873.292V377.361C873.292 376.146 872.975 375.198 872.343 374.52C871.712 373.835 870.845 373.492 869.743 373.492C868.984 373.492 868.305 373.657 867.706 373.986C867.115 374.315 866.648 374.795 866.305 375.427C865.962 376.058 865.792 376.824 865.792 377.725ZM886.267 393.162C885.118 393.162 884.13 393.014 883.304 392.718C882.477 392.43 881.788 392.046 881.237 391.569C880.692 391.099 880.259 390.595 879.936 390.057L881.831 388.727C882.047 389.01 882.318 389.332 882.647 389.695C882.977 390.064 883.428 390.383 883.999 390.652C884.577 390.928 885.333 391.065 886.267 391.065C887.516 391.065 888.548 390.763 889.361 390.158C890.174 389.553 890.581 388.607 890.581 387.318V384.174H890.38C890.205 384.455 889.956 384.805 889.634 385.221C889.318 385.631 888.861 385.998 888.262 386.32C887.672 386.635 886.871 386.793 885.864 386.793C884.614 386.793 883.491 386.498 882.496 385.907C881.509 385.315 880.726 384.455 880.148 383.327C879.577 382.199 879.291 380.828 879.291 379.216C879.291 377.63 879.57 376.25 880.128 375.074C880.685 373.892 881.462 372.978 882.457 372.333C883.451 371.682 884.6 371.356 885.904 371.356C886.912 371.356 887.712 371.524 888.303 371.86C888.901 372.189 889.358 372.565 889.673 372.988C889.996 373.405 890.245 373.747 890.42 374.016H890.661V371.558H892.961V387.479C892.961 388.808 892.657 389.889 892.052 390.723C891.455 391.562 890.649 392.178 889.634 392.567C888.626 392.963 887.504 393.162 886.267 393.162ZM886.187 384.657C887.14 384.657 887.947 384.438 888.605 384.002C889.264 383.565 889.764 382.938 890.107 382.118C890.45 381.299 890.622 380.317 890.622 379.175C890.622 378.06 890.454 377.076 890.117 376.223C889.781 375.369 889.284 374.702 888.626 374.217C887.967 373.734 887.154 373.492 886.187 373.492C885.178 373.492 884.338 373.747 883.666 374.258C883.001 374.769 882.5 375.453 882.164 376.314C881.834 377.174 881.67 378.127 881.67 379.175C881.67 380.25 881.838 381.201 882.174 382.027C882.517 382.847 883.021 383.491 883.686 383.961C884.359 384.426 885.192 384.657 886.187 384.657ZM908.282 375.024L906.145 375.628C906.01 375.273 905.812 374.927 905.55 374.591C905.295 374.248 904.945 373.965 904.502 373.744C904.058 373.523 903.491 373.412 902.798 373.412C901.851 373.412 901.061 373.631 900.429 374.066C899.805 374.497 899.492 375.044 899.492 375.709C899.492 376.3 899.707 376.767 900.138 377.109C900.567 377.452 901.239 377.738 902.153 377.966L904.451 378.53C905.835 378.866 906.867 379.38 907.546 380.072C908.225 380.757 908.564 381.64 908.564 382.722C908.564 383.609 908.308 384.402 907.798 385.1C907.294 385.799 906.588 386.349 905.681 386.752C904.774 387.156 903.719 387.357 902.516 387.357C900.937 387.357 899.63 387.014 898.595 386.33C897.56 385.645 896.905 384.643 896.629 383.327L898.887 382.763C899.102 383.596 899.509 384.22 900.107 384.637C900.712 385.053 901.501 385.262 902.475 385.262C903.585 385.262 904.465 385.026 905.116 384.556C905.775 384.079 906.104 383.508 906.104 382.843C906.104 382.305 905.916 381.856 905.54 381.493C905.164 381.124 904.586 380.848 903.806 380.666L901.225 380.063C899.808 379.727 898.766 379.206 898.101 378.5C897.442 377.788 897.113 376.898 897.113 375.83C897.113 374.956 897.358 374.184 897.849 373.513C898.346 372.841 899.022 372.313 899.875 371.93C900.735 371.548 901.709 371.356 902.798 371.356C904.331 371.356 905.533 371.692 906.407 372.364C907.287 373.036 907.912 373.922 908.282 375.024Z" fill="black"/>
<path d="M764.716 298.505L759.071 277.868H761.611L765.926 294.676H766.127L770.522 277.868H773.345L777.739 294.676H777.941L782.256 277.868H784.796L779.15 298.505H776.57L772.014 282.06H771.853L767.296 298.505H764.716ZM790.702 298.868C789.721 298.868 788.831 298.683 788.031 298.313C787.231 297.937 786.596 297.396 786.126 296.691C785.655 295.98 785.42 295.119 785.42 294.111C785.42 293.225 785.595 292.507 785.945 291.955C786.294 291.398 786.761 290.961 787.346 290.645C787.93 290.33 788.575 290.095 789.282 289.94C789.994 289.779 790.709 289.651 791.429 289.557C792.369 289.436 793.132 289.346 793.717 289.285C794.308 289.218 794.737 289.107 795.006 288.953C795.282 288.798 795.42 288.529 795.42 288.147V288.066C795.42 287.072 795.147 286.299 794.603 285.749C794.066 285.197 793.249 284.922 792.154 284.922C791.019 284.922 790.128 285.171 789.483 285.668C788.838 286.165 788.383 286.695 788.122 287.259L785.864 286.454C786.267 285.514 786.805 284.781 787.476 284.257C788.155 283.726 788.894 283.357 789.695 283.148C790.501 282.934 791.294 282.826 792.074 282.826C792.571 282.826 793.142 282.886 793.787 283.008C794.439 283.121 795.067 283.361 795.672 283.723C796.284 284.086 796.791 284.633 797.194 285.365C797.597 286.097 797.798 287.079 797.798 288.308V298.505H795.42V296.409H795.299C795.138 296.745 794.869 297.104 794.492 297.487C794.116 297.871 793.616 298.196 792.991 298.464C792.365 298.733 791.602 298.868 790.702 298.868ZM791.065 296.732C792.007 296.732 792.799 296.547 793.444 296.177C794.096 295.808 794.586 295.33 794.916 294.747C795.252 294.162 795.42 293.547 795.42 292.903V290.726C795.319 290.847 795.097 290.957 794.754 291.058C794.418 291.152 794.029 291.236 793.585 291.31C793.149 291.377 792.722 291.438 792.305 291.492C791.895 291.538 791.563 291.579 791.307 291.613C790.688 291.694 790.112 291.824 789.573 292.006C789.042 292.181 788.613 292.445 788.284 292.802C787.961 293.151 787.8 293.628 787.8 294.233C787.8 295.059 788.105 295.683 788.716 296.107C789.335 296.523 790.117 296.732 791.065 296.732ZM808.875 283.028V285.043H800.85V283.028H808.875ZM803.189 279.32H805.568V294.072C805.568 294.744 805.666 295.246 805.86 295.582C806.062 295.911 806.318 296.134 806.626 296.247C806.942 296.355 807.275 296.409 807.624 296.409C807.887 296.409 808.101 296.396 808.269 296.369C808.437 296.335 808.573 296.309 808.672 296.288L809.156 298.424C808.995 298.485 808.77 298.546 808.482 298.606C808.192 298.673 807.827 298.707 807.383 298.707C806.71 298.707 806.052 298.562 805.407 298.273C804.769 297.984 804.237 297.545 803.814 296.953C803.397 296.362 803.189 295.616 803.189 294.716V279.32ZM818.778 298.827C817.286 298.827 815.999 298.498 814.917 297.84C813.842 297.175 813.012 296.247 812.427 295.059C811.849 293.863 811.561 292.472 811.561 290.887C811.561 289.302 811.849 287.905 812.427 286.695C813.012 285.48 813.825 284.532 814.867 283.854C815.915 283.169 817.138 282.826 818.536 282.826C819.343 282.826 820.139 282.96 820.925 283.229C821.712 283.498 822.427 283.935 823.072 284.539C823.717 285.137 824.231 285.929 824.615 286.917C824.998 287.905 825.19 289.121 825.19 290.565V291.572H813.254V289.517H822.77C822.77 288.644 822.595 287.864 822.245 287.179C821.902 286.494 821.412 285.953 820.774 285.557C820.143 285.161 819.397 284.962 818.536 284.962C817.589 284.962 816.769 285.197 816.077 285.668C815.391 286.131 814.864 286.736 814.494 287.482C814.125 288.228 813.94 289.027 813.94 289.88V291.25C813.94 292.419 814.142 293.41 814.545 294.223C814.955 295.028 815.522 295.644 816.248 296.067C816.974 296.484 817.817 296.691 818.778 296.691C819.403 296.691 819.968 296.604 820.472 296.429C820.983 296.247 821.422 295.98 821.792 295.623C822.161 295.26 822.447 294.811 822.648 294.273L824.948 294.917C824.706 295.697 824.298 296.383 823.727 296.974C823.156 297.557 822.451 298.015 821.611 298.344C820.77 298.666 819.827 298.827 818.778 298.827ZM828.808 298.505V283.028H831.106V285.365H831.267C831.55 284.6 832.06 283.978 832.799 283.501C833.538 283.025 834.372 282.786 835.299 282.786C835.474 282.786 835.692 282.79 835.954 282.795C836.217 282.802 836.416 282.812 836.549 282.826V285.245C836.469 285.224 836.284 285.194 835.995 285.154C835.713 285.106 835.414 285.084 835.098 285.084C834.346 285.084 833.673 285.241 833.082 285.557C832.497 285.866 832.034 286.296 831.691 286.846C831.355 287.391 831.187 288.012 831.187 288.711V298.505H828.808ZM847.073 283.028V285.043H839.05V283.028H847.073ZM841.388 279.32H843.767V294.072C843.767 294.744 843.864 295.246 844.059 295.582C844.261 295.911 844.516 296.134 844.826 296.247C845.141 296.355 845.474 296.409 845.824 296.409C846.085 296.409 846.3 296.396 846.469 296.369C846.637 296.335 846.771 296.309 846.872 296.288L847.355 298.424C847.194 298.485 846.969 298.546 846.68 298.606C846.391 298.673 846.025 298.707 845.582 298.707C844.91 298.707 844.251 298.562 843.605 298.273C842.967 297.984 842.437 297.545 842.013 296.953C841.596 296.362 841.388 295.616 841.388 294.716V279.32ZM856.775 298.827C855.377 298.827 854.151 298.495 853.096 297.83C852.048 297.165 851.228 296.235 850.637 295.039C850.052 293.844 849.759 292.445 849.759 290.847C849.759 289.234 850.052 287.827 850.637 286.625C851.228 285.423 852.048 284.489 853.096 283.824C854.151 283.159 855.377 282.826 856.775 282.826C858.173 282.826 859.397 283.159 860.445 283.824C861.499 284.489 862.319 285.423 862.904 286.625C863.495 287.827 863.791 289.234 863.791 290.847C863.791 292.445 863.495 293.844 862.904 295.039C862.319 296.235 861.499 297.165 860.445 297.83C859.397 298.495 858.173 298.827 856.775 298.827ZM856.775 296.691C857.836 296.691 858.711 296.419 859.397 295.875C860.081 295.33 860.589 294.615 860.918 293.729C861.247 292.842 861.412 291.881 861.412 290.847C861.412 289.812 861.247 288.848 860.918 287.955C860.589 287.062 860.081 286.339 859.397 285.788C858.711 285.238 857.836 284.962 856.775 284.962C855.713 284.962 854.84 285.238 854.154 285.788C853.469 286.339 852.962 287.062 852.633 287.955C852.304 288.848 852.139 289.812 852.139 290.847C852.139 291.881 852.304 292.842 852.633 293.729C852.962 294.615 853.469 295.33 854.154 295.875C854.84 296.419 855.713 296.691 856.775 296.691ZM870.403 298.505L865.686 283.028H868.186L871.533 294.878H871.694L875 283.028H877.541L880.806 294.837H880.967L884.315 283.028H886.814L882.096 298.505H879.758L876.371 286.615H876.129L872.742 298.505H870.403ZM892.338 289.195V298.505H889.959V283.028H892.257V285.446H892.459C892.822 284.66 893.373 284.029 894.112 283.551C894.851 283.068 895.805 282.826 896.975 282.826C898.023 282.826 898.94 283.041 899.727 283.471C900.513 283.894 901.125 284.539 901.562 285.406C901.998 286.265 902.217 287.354 902.217 288.67V298.505H899.837V288.831C899.837 287.616 899.521 286.668 898.89 285.99C898.259 285.305 897.391 284.962 896.289 284.962C895.53 284.962 894.851 285.127 894.253 285.456C893.661 285.785 893.195 286.265 892.852 286.897C892.509 287.528 892.338 288.295 892.338 289.195Z" fill="black"/>
<path d="M642.592 220.19H639.972L647.552 199.553H650.133L657.713 220.19H655.092L648.923 202.819H648.762L642.592 220.19ZM643.561 212.129H654.125V214.346H643.561V212.129ZM660.928 220.19V199.553H663.307V207.172H663.509C663.684 206.903 663.926 206.56 664.235 206.143C664.55 205.72 665.001 205.344 665.586 205.015C666.177 204.679 666.977 204.511 667.985 204.511C669.288 204.511 670.437 204.837 671.432 205.488C672.427 206.14 673.202 207.064 673.761 208.26C674.318 209.455 674.598 210.866 674.598 212.491C674.598 214.13 674.318 215.551 673.761 216.754C673.202 217.95 672.43 218.877 671.442 219.535C670.455 220.187 669.316 220.512 668.025 220.512C667.03 220.512 666.234 220.348 665.636 220.019C665.037 219.683 664.578 219.304 664.255 218.88C663.933 218.45 663.684 218.094 663.509 217.812H663.226V220.19H660.928ZM663.267 212.452C663.267 213.621 663.439 214.651 663.782 215.544C664.125 216.432 664.624 217.127 665.283 217.631C665.941 218.128 666.749 218.376 667.702 218.376C668.697 218.376 669.527 218.114 670.192 217.591C670.864 217.06 671.369 216.348 671.705 215.454C672.046 214.554 672.218 213.553 672.218 212.452C672.218 211.363 672.05 210.383 671.715 209.509C671.386 208.629 670.885 207.934 670.213 207.424C669.547 206.906 668.711 206.647 667.702 206.647C666.735 206.647 665.922 206.892 665.263 207.383C664.605 207.866 664.107 208.545 663.771 209.419C663.435 210.285 663.267 211.296 663.267 212.452ZM684.728 220.512C683.236 220.512 681.948 220.183 680.868 219.525C679.792 218.86 678.962 217.933 678.378 216.744C677.8 215.548 677.51 214.158 677.51 212.572C677.51 210.987 677.8 209.59 678.378 208.38C678.962 207.165 679.775 206.217 680.816 205.539C681.866 204.854 683.088 204.511 684.486 204.511C685.292 204.511 686.088 204.645 686.875 204.914C687.661 205.183 688.377 205.62 689.022 206.224C689.667 206.822 690.181 207.614 690.564 208.602C690.947 209.59 691.139 210.806 691.139 212.25V213.257H679.204V211.202H688.719C688.719 210.329 688.545 209.549 688.196 208.864C687.853 208.179 687.362 207.638 686.724 207.242C686.092 206.846 685.346 206.647 684.486 206.647C683.538 206.647 682.718 206.882 682.027 207.353C681.341 207.816 680.813 208.421 680.444 209.167C680.074 209.913 679.889 210.712 679.889 211.565V212.935C679.889 214.104 680.091 215.095 680.494 215.908C680.904 216.714 681.472 217.329 682.197 217.752C682.924 218.169 683.766 218.376 684.728 218.376C685.352 218.376 685.917 218.289 686.421 218.114C686.932 217.933 687.372 217.665 687.741 217.308C688.112 216.945 688.397 216.496 688.599 215.958L690.897 216.602C690.655 217.382 690.248 218.068 689.677 218.659C689.106 219.242 688.4 219.7 687.56 220.029C686.721 220.351 685.776 220.512 684.728 220.512ZM694.757 220.19V204.713H697.055V207.05H697.217C697.499 206.285 698.01 205.663 698.749 205.186C699.489 204.71 700.322 204.471 701.25 204.471C701.423 204.471 701.642 204.475 701.905 204.481C702.166 204.487 702.365 204.498 702.499 204.511V206.93C702.418 206.909 702.234 206.879 701.944 206.839C701.663 206.791 701.363 206.769 701.048 206.769C700.295 206.769 699.623 206.926 699.031 207.242C698.447 207.551 697.983 207.981 697.64 208.531C697.304 209.076 697.136 209.697 697.136 210.396V220.19H694.757ZM710.694 220.512C709.404 220.512 708.265 220.187 707.278 219.535C706.29 218.877 705.517 217.95 704.959 216.754C704.4 215.551 704.122 214.13 704.122 212.491C704.122 210.866 704.4 209.455 704.959 208.26C705.517 207.064 706.292 206.14 707.287 205.488C708.281 204.837 709.43 204.511 710.735 204.511C711.742 204.511 712.539 204.679 713.124 205.015C713.715 205.344 714.165 205.72 714.474 206.143C714.79 206.56 715.036 206.903 715.21 207.172H715.412V199.553H717.791V220.19H715.492V217.812H715.21C715.036 218.094 714.787 218.45 714.464 218.88C714.141 219.304 713.681 219.683 713.083 220.019C712.485 220.348 711.689 220.512 710.694 220.512ZM711.017 218.376C711.971 218.376 712.778 218.128 713.436 217.631C714.095 217.127 714.595 216.432 714.938 215.544C715.281 214.651 715.452 213.621 715.452 212.452C715.452 211.296 715.285 210.285 714.949 209.419C714.612 208.545 714.115 207.866 713.457 207.383C712.798 206.892 711.985 206.647 711.017 206.647C710.008 206.647 709.169 206.906 708.497 207.424C707.832 207.934 707.331 208.629 706.995 209.509C706.666 210.383 706.501 211.363 706.501 212.452C706.501 213.553 706.669 214.554 707.005 215.454C707.348 216.348 707.852 217.06 708.517 217.591C709.188 218.114 710.022 218.376 711.017 218.376ZM728.97 220.512C727.478 220.512 726.19 220.183 725.108 219.525C724.033 218.86 723.204 217.933 722.62 216.744C722.042 215.548 721.752 214.158 721.752 212.572C721.752 210.987 722.042 209.59 722.62 208.38C723.204 207.165 724.017 206.217 725.058 205.539C726.106 204.854 727.33 204.511 728.728 204.511C729.534 204.511 730.33 204.645 731.117 204.914C731.903 205.183 732.618 205.62 733.264 206.224C733.909 206.822 734.423 207.614 734.806 208.602C735.189 209.59 735.381 210.806 735.381 212.25V213.257H723.446V211.202H732.961C732.961 210.329 732.786 209.549 732.438 208.864C732.095 208.179 731.604 207.638 730.965 207.242C730.334 206.846 729.588 206.647 728.728 206.647C727.78 206.647 726.96 206.882 726.268 207.353C725.583 207.816 725.055 208.421 724.686 209.167C724.316 209.913 724.131 210.712 724.131 211.565V212.935C724.131 214.104 724.333 215.095 724.736 215.908C725.146 216.714 725.714 217.329 726.439 217.752C727.166 218.169 728.008 218.376 728.97 218.376C729.594 218.376 730.159 218.289 730.663 218.114C731.174 217.933 731.614 217.665 731.983 217.308C732.354 216.945 732.639 216.496 732.841 215.958L735.139 216.602C734.897 217.382 734.49 218.068 733.919 218.659C733.348 219.242 732.642 219.7 731.802 220.029C730.963 220.351 730.018 220.512 728.97 220.512ZM745.49 220.512C744 220.512 742.712 220.183 741.63 219.525C740.555 218.86 739.725 217.933 739.14 216.744C738.562 215.548 738.274 214.158 738.274 212.572C738.274 210.987 738.562 209.59 739.14 208.38C739.725 207.165 740.538 206.217 741.58 205.539C742.628 204.854 743.851 204.511 745.249 204.511C746.056 204.511 746.852 204.645 747.638 204.914C748.424 205.183 749.14 205.62 749.785 206.224C750.431 206.822 750.944 207.614 751.328 208.602C751.71 209.59 751.902 210.806 751.902 212.25V213.257H739.967V211.202H749.483C749.483 210.329 749.308 209.549 748.958 208.864C748.616 208.179 748.126 207.638 747.487 207.242C746.855 206.846 746.109 206.647 745.249 206.647C744.302 206.647 743.482 206.882 742.789 207.353C742.103 207.816 741.577 208.421 741.206 209.167C740.837 209.913 740.652 210.712 740.652 211.565V212.935C740.652 214.104 740.854 215.095 741.258 215.908C741.667 216.714 742.235 217.329 742.961 217.752C743.686 218.169 744.53 218.376 745.49 218.376C746.116 218.376 746.68 218.289 747.185 218.114C747.695 217.933 748.135 217.665 748.505 217.308C748.874 216.945 749.16 216.496 749.362 215.958L751.66 216.602C751.418 217.382 751.012 218.068 750.44 218.659C749.869 219.242 749.164 219.7 748.323 220.029C747.483 220.351 746.54 220.512 745.49 220.512ZM757.899 210.88V220.19H755.521V204.713H757.819V207.131H758.021C758.383 206.345 758.935 205.714 759.674 205.236C760.413 204.753 761.367 204.511 762.537 204.511C763.585 204.511 764.502 204.726 765.289 205.156C766.075 205.579 766.687 206.224 767.123 207.091C767.56 207.95 767.778 209.039 767.778 210.355V220.19H765.399V210.516C765.399 209.301 765.083 208.353 764.452 207.676C763.82 206.99 762.953 206.647 761.851 206.647C761.091 206.647 760.413 206.812 759.815 207.141C759.223 207.47 758.757 207.95 758.414 208.582C758.071 209.213 757.899 209.98 757.899 210.88Z" fill="black"/>
<path d="M900.974 470.483C906.625 470.483 911.206 465.904 911.206 460.255C911.206 454.606 906.625 450.027 900.974 450.027C895.324 450.027 890.743 454.606 890.743 460.255C890.743 465.904 895.324 470.483 900.974 470.483Z" fill="#FFE587" stroke="black"/>
<path d="M896.433 359.253C902.084 359.253 906.665 354.674 906.665 349.025C906.665 343.376 902.084 338.797 896.433 338.797C890.782 338.797 886.201 343.376 886.201 349.025C886.201 354.674 890.782 359.253 896.433 359.253Z" fill="#FFE587" stroke="black"/>
<path d="M860.099 270.723C865.75 270.723 870.331 266.144 870.331 260.495C870.331 254.846 865.75 250.267 860.099 250.267C854.448 250.267 849.867 254.846 849.867 260.495C849.867 266.144 854.448 270.723 860.099 270.723Z" fill="#FFE587" stroke="black"/>
<path d="M210.635 392.168C216.285 392.168 220.866 387.589 220.866 381.94C220.866 376.291 216.285 371.712 210.635 371.712C204.984 371.712 200.403 376.291 200.403 381.94C200.403 387.589 204.984 392.168 210.635 392.168Z" fill="#FFE587" stroke="black"/>
<path d="M183.384 487.508C189.035 487.508 193.616 482.929 193.616 477.28C193.616 471.631 189.035 467.052 183.384 467.052C177.733 467.052 173.152 471.631 173.152 477.28C173.152 482.929 177.733 487.508 183.384 487.508Z" fill="#FFE587" stroke="black"/>
<path d="M711.358 187.868C717.009 187.868 721.59 183.289 721.59 177.64C721.59 171.991 717.009 167.412 711.358 167.412C705.707 167.412 701.126 171.991 701.126 177.64C701.126 183.289 705.707 187.868 711.358 187.868Z" fill="#FFE587" stroke="black"/>
</g>
<defs>
<clipPath id="clip0_214_2">
<rect width="1048" height="681" fill="white"/>
</clipPath>
</defs>
</svg>
