<svg width="853" height="728" viewBox="0 0 853 728" fill="none" xmlns="http://www.w3.org/2000/svg">
<rect x="0.5" y="0.5" width="852" height="727" rx="35.5" fill="#97DCFF" stroke="#717171"/>
<g filter="url(#filter0_d_147_81)">
<path d="M405.5 94L230.5 85L224.5 84L220.5 85L216.5 87.5C215.333 87 212.7 86 211.5 86C210 86 210 86 209 87.5C208.2 88.7 207.667 87 207.5 86V82L205 83L202.5 85L200 90H197C196.2 90 193.667 89.3333 192.5 89L186.5 93C184.1 94.6 183.167 92.3333 183 91L180 93C179.167 93.6667 177.2 95 176 95C174.8 95 173.5 96 173 96.5H170C169.2 96.5 168 97.5 167.5 98H163L161.5 101.5L157 104.5L152 108.5H148L149 104.5L102.5 119L100 124V132C100 132.8 97 133.333 95.5 133.5H93L89 136L85 141.5L80 143V147H77V152H74L69 157L70.5 161.5L65 170L66.5 176.5L70.5 178.5L77 185.5L85 190.5L93 192L105.5 209L113 212.5H123.5L135.5 214.5L138 224L142 232.5L145.5 238L148 247L155.5 252V264.5L158 271.5L163.5 275.5L165.5 279.5C166.667 280.5 169.1 282.6 169.5 283C169.9 283.4 169.667 285.167 169.5 286C171.667 288.667 176 294.1 176 294.5C176 294.9 176.333 296.333 176.5 297C176.833 297.667 177.6 299.1 178 299.5C178.4 299.9 178.5 302.333 178.5 303.5L182.5 309.5L188 310.5L194.5 318C196.5 320 200.6 324 201 324H205.5L220 333.5V338.5L222.5 340.5L227 342.5L228.5 350L234 358L237 366.5C238.333 367.833 241.3 370.5 242.5 370.5H248L258 378L266.5 390C268 391.167 271.4 393.6 273 394C274.6 394.4 275.667 397.167 276 398.5V402L273 405.5L276 411L273 413.5C275.167 415.667 279.8 420.2 281 421C282.2 421.8 286.833 426 289 428L286.5 433L293.5 439H297H299V445L305.5 453.5L319 459L324 463.5L338.5 474.5L336 481V485L345 498.5L349 504.5C349 507.5 348.7 513.8 347.5 515C346.3 516.2 349.333 516.5 351 516.5L349 530L351 531.5L353.5 538L351 544L362.5 553.5H366L370.5 554.5V558L378.5 561.5V565.5L382 573.5L381.5 578C383.167 581.167 386.6 587.8 387 589C387.4 590.2 390.5 591.5 392 592L393.5 602L390 605.5L389 609.5L393 616V619V623.5L395 626.5V632C395 633 402.5 635 403.5 636C404.3 636.8 408.5 635.667 410.5 635C413 636.833 418.2 640.5 419 640.5C419.8 640.5 423.333 642.167 425 643V642.5L427 640.5L429 636.5L434.5 632V626L429 628.5L428 628L432 624.5V623L436 624.5L441.5 618L434.5 615L429 616L430 614H436L438 612.5L441.5 615V609.5C441 608.167 440 605.3 440 604.5C440 603.7 442 605.833 443 607C443 604.833 443.3 600.3 444.5 599.5C446 598.5 443 597.5 441.5 596.5C440.3 595.7 441 598.833 441.5 600.5L439 602.5L436 601L433.5 599.5C432.167 599 429.4 598 429 598C428.6 598 428.167 596 428 595C431.333 596.333 438.3 599.1 439.5 599.5C440.7 599.9 440 598.667 439.5 598L440.5 593.5L438.5 591V587.5L440 583L437 581.5L435 578C435.833 577.667 437.8 577 439 577C440.2 577 436.833 566 435 560.5L430.5 556L433.5 554.5L436 559.5L438.5 564.5L443 565.5V567.5L440 568.5L443 578L447 585L451.5 589L456.5 596.5C457 597.333 458.2 599.1 459 599.5C460 600 460 597.5 460 596.5V590L457.5 588C456.667 588 455 587.9 455 587.5C455 587.1 453.667 586.333 453 586L455 584.5L456.5 580.5L458 576.5L460 575L456.5 571.5H459L461.5 574C462 575.167 462.9 577.6 462.5 578L460 580.5L459 585L463 589L464 593.5L463 603.5V611.5H464L469 608L475.5 603.5L480 600.5C482 599.5 486.1 597.5 486.5 597.5C486.9 597.5 489.667 595.833 491 595C490.5 594.5 489.3 593.5 488.5 593.5C487.7 593.5 486.167 594.5 485.5 595L484.5 591L483 593.5L478.5 596.5L473.5 603.5L470.5 602.5V600.5L473.5 597.5L477.5 592V589C478.667 588 481.2 585.8 482 585C483 584 486 583 486.5 582.5C486.9 582.1 488.667 581.667 489.5 581.5H492L489.5 583L487.5 586L490 591L493 590L496 582.5C495.833 581.833 495.4 580.4 495 580C494.5 579.5 495 576.5 495 575C495 573.8 493.667 573.833 493 574L490 575L486 574H480L473.5 572.5L476 570C476.833 570.333 478.8 571.1 480 571.5C481.5 572 484 572.5 486 572.5C488 572.5 488 569.5 488.5 568.5C489 567.5 484 566.5 483 565.5C482.2 564.7 479.667 564.167 478.5 564C478.333 565 477.9 566.9 477.5 566.5C477.1 566.1 475.333 566.333 474.5 566.5H470.5L466.5 563H460L455.5 561.5L453 559.5H458L463 561.5L466 560L472 564L474.5 563L476 561.5H478.5C480.167 561.167 483.6 560.5 484 560.5C484.4 560.5 486.5 563.833 487.5 565.5L490 564H497.5C497.9 564 497.667 567 497.5 568.5C498.5 568.333 500.7 568 501.5 568C502.3 568 504.833 565.667 506 564.5L503.5 560.5C502 559.667 498.8 557.8 498 557C497.2 556.2 497 554.667 497 554L500 552H502L499 554V556L502 557L505.5 560.5L508 564L510.5 567.5L512.5 565.5C514 564.333 517.1 561.9 517.5 561.5C517.9 561.1 521 559 522.5 558L529 553.5L523.5 546L521.5 547.5L518.5 543L515 544.5L512 543L511 541.5L518.5 540.5L520 536H522L520.5 532.5L528.5 528L529 525.5C530 525.333 532.1 525 532.5 525C532.9 525 533.667 523.667 534 523H534.5L535.5 526L528 530V532.5L527 533L524 533.5L523.5 537.5L521 538L520.5 543L521.5 544L526 545.5L528.5 549.5L534 554L538 550L542 547.5C544.833 546.833 550.7 545.5 551.5 545.5C552.3 545.5 556.833 544.5 559 544L560 541.5C557.5 540.833 552.4 539.5 552 539.5C551.5 539.5 554.5 538.5 555.5 538.5C556.5 538.5 558 539.5 560 539.5C561.6 539.5 562.667 538.833 563 538.5C565 537.5 569.1 535.4 569.5 535C569.9 534.6 573.667 532.5 575.5 531.5C575.833 529.667 576.6 525.9 577 525.5C577.4 525.1 578.167 523.667 578.5 523L575.5 521L571.5 518.5L565.5 516.5L562.5 513.5L564 507.5L561.5 505.5H555.5L560.5 503.5L565.833 505.5L565 511L569.5 516.5L572 514.5L568 509V506.5V502L571 503.5V506.5L574 505.5L574.5 498.5L580.5 497L583.5 489.5L586 488.5L583.5 493L581.5 500.5L577.5 501L575.5 505.5L573 509L574 513.5C575.5 514.5 579 516.8 581 518C583 519.2 585.667 517.5 585.5 516.5L590.5 513.5L597 510V507L591 504.5L597 499.5C597.333 500 598.3 501 599.5 501C601 501 601 499.5 601.5 498.5C601.9 497.7 601.667 497.167 601.5 497C601.833 496.5 602.5 495.3 602.5 494.5C602.5 493.7 604.167 495.167 605 496C605 496.833 604.8 498.5 604 498.5C603.2 498.5 602.667 500.167 602.5 501L601.5 503L598 504.5L601.5 506.5L610.5 498.5L614 496C614.833 495.667 616.6 494.9 617 494.5C617.5 494 621 492.5 621.5 492C621.9 491.6 622.333 489.5 622.5 488.5L622 487.5L618.5 488.5L617 487.5L616 484.5L617 482.5L618.5 479L621.5 474.5L623 473L626 472.5L628 471H630.5L634 474.5H638.5L645 473L651.5 469.5L652 464L656 461.5C658 460.333 662.1 457.9 662.5 457.5C662.9 457.1 664.667 456 665.5 455.5L666 451.5L669.5 454L673 451.5L676.5 448L677 445.5V443L676.5 440V435.5L675.5 433L672 431.5L668.5 430L664.5 426.5L663.5 422.5L664.5 417L666.5 412.5L669 414L667.5 417.5L666 420.5L667 423L671.5 422.5L677 423.5V427L678.5 435L680 440.5H681.5L680.5 437V431L681.5 423.5L683 414.5L688 402.5L694 392.5L700.5 386L715 364.5L731.5 347L744 338L760 330L775 326L606.5 156C551.833 155 442.4 153 442 153C441.6 153 442.167 146 442.5 142.5V138L442 131.5L441 127.5L421 101.5L407.5 112H405.5L403.5 109.5V106L406.5 101.5L404.5 97L405.5 94Z" fill="#FFD597" stroke="black"/>
<path d="M457.5 605L459.5 610V613L461 615L454 622.5L444 630L439 631.5V626C441 624.167 445.2 620.4 446 620C446.8 619.6 449.333 618.833 450.5 618.5L454 617L449 617.5L443.5 618.5L444 612H447.5L450 606.5L452 605H455H457.5Z" fill="#FFD597"/>
<path d="M444 609L447.5 603.5L449 604.5V606.5L447.5 610L444 611V609Z" fill="#FFD597"/>
<path d="M457.5 605L459.5 610V613L461 615L454 622.5L444 630L439 631.5V626C441 624.167 445.2 620.4 446 620C446.8 619.6 449.333 618.833 450.5 618.5L454 617L449 617.5L443.5 618.5L444 612H447.5L450 606.5L452 605H455H457.5Z" stroke="black"/>
<path d="M444 609L447.5 603.5L449 604.5V606.5L447.5 610L444 611V609Z" stroke="black"/>
</g>
<path d="M507.065 87.5455V105H504.253L496.028 93.1108H495.884V105H492.722V87.5455H495.551L503.767 99.4432H503.92V87.5455H507.065ZM525.451 93.4347H522.263C522.173 92.9119 522.005 92.4489 521.761 92.0455C521.516 91.6364 521.212 91.2898 520.849 91.0057C520.485 90.7216 520.07 90.5085 519.604 90.3665C519.144 90.2188 518.647 90.1449 518.113 90.1449C517.164 90.1449 516.323 90.3835 515.59 90.8608C514.857 91.3324 514.283 92.0256 513.869 92.9403C513.454 93.8494 513.246 94.9602 513.246 96.2727C513.246 97.608 513.454 98.733 513.869 99.6477C514.289 100.557 514.863 101.244 515.59 101.71C516.323 102.17 517.161 102.401 518.104 102.401C518.627 102.401 519.116 102.332 519.57 102.196C520.031 102.054 520.442 101.847 520.806 101.574C521.175 101.301 521.485 100.966 521.735 100.568C521.991 100.17 522.167 99.7159 522.263 99.2045L525.451 99.2216C525.332 100.051 525.073 100.83 524.675 101.557C524.283 102.284 523.769 102.926 523.133 103.483C522.496 104.034 521.752 104.466 520.9 104.778C520.048 105.085 519.102 105.239 518.062 105.239C516.528 105.239 515.158 104.884 513.954 104.173C512.749 103.463 511.8 102.438 511.107 101.097C510.414 99.7557 510.067 98.1477 510.067 96.2727C510.067 94.392 510.417 92.7841 511.116 91.4489C511.815 90.108 512.766 89.0824 513.971 88.3722C515.175 87.6619 516.539 87.3068 518.062 87.3068C519.033 87.3068 519.937 87.4432 520.772 87.7159C521.607 87.9886 522.352 88.3892 523.005 88.9176C523.658 89.4403 524.195 90.0824 524.616 90.8438C525.042 91.5994 525.32 92.4631 525.451 93.4347Z" fill="#005A5E"/>
<path d="M186.415 412.119C186.273 411.659 186.077 411.247 185.827 410.884C185.582 410.514 185.287 410.199 184.94 409.938C184.599 409.676 184.207 409.48 183.764 409.349C183.321 409.213 182.838 409.145 182.315 409.145C181.378 409.145 180.543 409.381 179.81 409.852C179.077 410.324 178.5 411.017 178.08 411.932C177.665 412.841 177.457 413.949 177.457 415.256C177.457 416.574 177.665 417.69 178.08 418.605C178.494 419.52 179.071 420.216 179.81 420.693C180.548 421.165 181.406 421.401 182.384 421.401C183.27 421.401 184.037 421.23 184.685 420.889C185.338 420.548 185.841 420.065 186.193 419.44C186.545 418.81 186.722 418.071 186.722 417.224L187.438 417.335H182.699V414.864H189.781V416.96C189.781 418.455 189.463 419.747 188.827 420.838C188.19 421.929 187.315 422.77 186.202 423.361C185.088 423.946 183.81 424.239 182.366 424.239C180.759 424.239 179.347 423.878 178.131 423.156C176.92 422.429 175.974 421.398 175.293 420.062C174.616 418.722 174.278 417.131 174.278 415.29C174.278 413.881 174.477 412.622 174.875 411.514C175.278 410.406 175.841 409.466 176.562 408.693C177.284 407.915 178.131 407.324 179.102 406.92C180.074 406.511 181.131 406.307 182.273 406.307C183.239 406.307 184.139 406.449 184.974 406.733C185.81 407.011 186.551 407.409 187.199 407.926C187.852 408.443 188.389 409.057 188.81 409.767C189.23 410.477 189.506 411.261 189.636 412.119H186.415ZM194.541 424H191.166L197.311 406.545H201.214L207.368 424H203.993L199.331 410.125H199.195L194.541 424ZM194.652 417.156H203.857V419.696H194.652V417.156Z" fill="#005A5E"/>
<circle cx="405.511" cy="296.511" r="9.01136" fill="#FF8F87" stroke="black"/>
<path d="M362.623 264.184H358.734C358.663 263.681 358.518 263.234 358.299 262.843C358.08 262.446 357.799 262.109 357.456 261.831C357.112 261.553 356.716 261.34 356.266 261.192C355.822 261.044 355.34 260.97 354.819 260.97C353.878 260.97 353.058 261.204 352.36 261.671C351.661 262.133 351.12 262.808 350.735 263.695C350.35 264.577 350.158 265.648 350.158 266.909C350.158 268.205 350.35 269.294 350.735 270.176C351.126 271.058 351.67 271.724 352.369 272.174C353.067 272.623 353.875 272.848 354.792 272.848C355.307 272.848 355.784 272.78 356.222 272.644C356.665 272.508 357.059 272.31 357.402 272.049C357.746 271.783 358.03 271.46 358.255 271.082C358.485 270.703 358.645 270.271 358.734 269.786L362.623 269.803C362.522 270.638 362.27 271.443 361.868 272.218C361.471 272.987 360.936 273.677 360.261 274.287C359.592 274.89 358.793 275.37 357.864 275.725C356.941 276.074 355.896 276.249 354.73 276.249C353.108 276.249 351.658 275.882 350.38 275.148C349.107 274.414 348.101 273.351 347.362 271.961C346.628 270.57 346.261 268.886 346.261 266.909C346.261 264.926 346.634 263.24 347.379 261.849C348.125 260.458 349.137 259.398 350.415 258.67C351.694 257.937 353.132 257.57 354.73 257.57C355.784 257.57 356.76 257.718 357.66 258.013C358.565 258.309 359.367 258.741 360.066 259.31C360.764 259.872 361.332 260.561 361.77 261.378C362.214 262.195 362.498 263.13 362.623 264.184ZM371.469 276.266C370.09 276.266 368.898 275.973 367.892 275.387C366.891 274.796 366.119 273.973 365.574 272.919C365.03 271.86 364.758 270.632 364.758 269.235C364.758 267.826 365.03 266.595 365.574 265.542C366.119 264.482 366.891 263.66 367.892 263.074C368.898 262.482 370.09 262.186 371.469 262.186C372.848 262.186 374.038 262.482 375.038 263.074C376.044 263.66 376.82 264.482 377.364 265.542C377.909 266.595 378.181 267.826 378.181 269.235C378.181 270.632 377.909 271.86 377.364 272.919C376.82 273.973 376.044 274.796 375.038 275.387C374.038 275.973 372.848 276.266 371.469 276.266ZM371.487 273.337C372.114 273.337 372.638 273.159 373.058 272.804C373.479 272.443 373.795 271.952 374.008 271.33C374.227 270.709 374.337 270.002 374.337 269.208C374.337 268.415 374.227 267.708 374.008 267.087C373.795 266.465 373.479 265.974 373.058 265.613C372.638 265.252 372.114 265.071 371.487 265.071C370.854 265.071 370.321 265.252 369.889 265.613C369.463 265.974 369.14 266.465 368.921 267.087C368.708 267.708 368.602 268.415 368.602 269.208C368.602 270.002 368.708 270.709 368.921 271.33C369.14 271.952 369.463 272.443 369.889 272.804C370.321 273.159 370.854 273.337 371.487 273.337ZM384.422 257.818V276H380.64V257.818H384.422ZM396.196 270.194V262.364H399.978V276H396.347V273.523H396.205C395.897 274.322 395.385 274.964 394.669 275.45C393.959 275.935 393.092 276.178 392.068 276.178C391.157 276.178 390.355 275.97 389.662 275.556C388.97 275.142 388.428 274.553 388.038 273.789C387.653 273.026 387.458 272.112 387.452 271.046V262.364H391.234V270.371C391.239 271.176 391.456 271.813 391.882 272.28C392.308 272.748 392.879 272.982 393.595 272.982C394.051 272.982 394.477 272.878 394.873 272.671C395.27 272.458 395.59 272.144 395.832 271.73C396.081 271.315 396.202 270.804 396.196 270.194ZM403.003 276V262.364H406.608V264.77H406.768C407.052 263.971 407.525 263.34 408.188 262.879C408.851 262.417 409.644 262.186 410.567 262.186C411.502 262.186 412.298 262.42 412.955 262.887C413.612 263.349 414.05 263.976 414.269 264.77H414.411C414.69 263.988 415.193 263.364 415.921 262.896C416.655 262.423 417.522 262.186 418.522 262.186C419.794 262.186 420.827 262.592 421.62 263.402C422.419 264.207 422.819 265.35 422.819 266.829V276H419.046V267.575C419.046 266.817 418.844 266.249 418.442 265.87C418.039 265.492 417.536 265.302 416.933 265.302C416.246 265.302 415.711 265.521 415.326 265.959C414.941 266.391 414.749 266.962 414.749 267.673V276H411.082V267.495C411.082 266.826 410.89 266.294 410.505 265.897C410.126 265.5 409.626 265.302 409.005 265.302C408.585 265.302 408.206 265.409 407.868 265.622C407.537 265.829 407.274 266.122 407.078 266.501C406.883 266.874 406.785 267.312 406.785 267.815V276H403.003ZM425.877 276V257.818H429.659V264.654H429.775C429.94 264.287 430.18 263.914 430.494 263.536C430.813 263.151 431.228 262.831 431.737 262.577C432.251 262.316 432.891 262.186 433.654 262.186C434.648 262.186 435.566 262.446 436.406 262.967C437.247 263.482 437.918 264.261 438.422 265.302C438.925 266.338 439.176 267.637 439.176 269.2C439.176 270.721 438.931 272.005 438.439 273.053C437.954 274.094 437.291 274.884 436.451 275.423C435.616 275.956 434.681 276.222 433.645 276.222C432.911 276.222 432.287 276.101 431.772 275.858C431.263 275.615 430.846 275.31 430.52 274.944C430.195 274.571 429.946 274.195 429.775 273.816H429.606V276H425.877ZM429.579 269.182C429.579 269.993 429.692 270.7 429.917 271.304C430.141 271.907 430.467 272.378 430.893 272.715C431.319 273.047 431.837 273.212 432.447 273.212C433.062 273.212 433.583 273.044 434.009 272.706C434.435 272.363 434.758 271.89 434.977 271.286C435.202 270.676 435.314 269.975 435.314 269.182C435.314 268.395 435.205 267.702 434.986 267.104C434.767 266.507 434.444 266.039 434.018 265.702C433.592 265.364 433.068 265.196 432.447 265.196C431.831 265.196 431.31 265.358 430.884 265.684C430.464 266.009 430.141 266.471 429.917 267.069C429.692 267.667 429.579 268.371 429.579 269.182ZM441.7 276V262.364H445.482V276H441.7ZM443.6 260.606C443.037 260.606 442.555 260.419 442.152 260.047C441.756 259.668 441.558 259.215 441.558 258.688C441.558 258.167 441.756 257.721 442.152 257.348C442.555 256.969 443.037 256.779 443.6 256.779C444.162 256.779 444.641 256.969 445.038 257.348C445.44 257.721 445.641 258.167 445.641 258.688C445.641 259.215 445.44 259.668 445.038 260.047C444.641 260.419 444.162 260.606 443.6 260.606ZM452.4 276.257C451.53 276.257 450.754 276.107 450.074 275.805C449.393 275.497 448.854 275.044 448.458 274.446C448.067 273.843 447.872 273.091 447.872 272.191C447.872 271.434 448.011 270.798 448.289 270.283C448.567 269.768 448.946 269.353 449.426 269.04C449.905 268.726 450.45 268.489 451.059 268.33C451.675 268.17 452.32 268.057 452.994 267.992C453.788 267.909 454.427 267.832 454.912 267.761C455.397 267.684 455.75 267.572 455.969 267.424C456.188 267.276 456.297 267.057 456.297 266.767V266.714C456.297 266.152 456.119 265.717 455.764 265.409C455.415 265.101 454.918 264.947 454.273 264.947C453.592 264.947 453.051 265.098 452.648 265.4C452.246 265.696 451.979 266.069 451.849 266.518L448.351 266.234C448.529 265.406 448.878 264.69 449.399 264.086C449.92 263.476 450.592 263.009 451.414 262.683C452.243 262.352 453.202 262.186 454.291 262.186C455.048 262.186 455.773 262.275 456.466 262.452C457.164 262.63 457.783 262.905 458.321 263.278C458.866 263.651 459.295 264.13 459.608 264.716C459.922 265.296 460.079 265.992 460.079 266.803V276H456.492V274.109H456.386C456.167 274.535 455.874 274.911 455.507 275.237C455.14 275.556 454.699 275.808 454.184 275.991C453.669 276.169 453.074 276.257 452.4 276.257ZM453.483 273.647C454.039 273.647 454.53 273.538 454.956 273.319C455.383 273.094 455.717 272.792 455.96 272.413C456.202 272.035 456.324 271.605 456.324 271.126V269.679C456.205 269.756 456.043 269.827 455.835 269.892C455.634 269.951 455.406 270.007 455.152 270.061C454.897 270.108 454.643 270.152 454.388 270.194C454.134 270.229 453.903 270.262 453.696 270.292C453.252 270.357 452.864 270.46 452.533 270.602C452.201 270.744 451.944 270.937 451.76 271.179C451.577 271.416 451.485 271.712 451.485 272.067C451.485 272.582 451.672 272.976 452.045 273.248C452.423 273.514 452.903 273.647 453.483 273.647Z" fill="black"/>
<path d="M367.619 501.818V520H365.489L355.581 505.724H355.403V520H353.202V501.818H355.332L365.276 516.129H365.453V501.818H367.619ZM377.281 520.284C376.05 520.284 374.969 519.991 374.04 519.405C373.117 518.819 372.395 518 371.874 516.946C371.359 515.893 371.102 514.661 371.102 513.253C371.102 511.832 371.359 510.592 371.874 509.533C372.395 508.474 373.117 507.651 374.04 507.065C374.969 506.479 376.05 506.186 377.281 506.186C378.512 506.186 379.589 506.479 380.512 507.065C381.441 507.651 382.163 508.474 382.678 509.533C383.199 510.592 383.46 511.832 383.46 513.253C383.46 514.661 383.199 515.893 382.678 516.946C382.163 518 381.441 518.819 380.512 519.405C379.589 519.991 378.512 520.284 377.281 520.284ZM377.281 518.402C378.216 518.402 378.985 518.162 379.589 517.683C380.193 517.203 380.639 516.573 380.929 515.792C381.219 515.011 381.364 514.164 381.364 513.253C381.364 512.341 381.219 511.492 380.929 510.705C380.639 509.918 380.193 509.281 379.589 508.796C378.985 508.311 378.216 508.068 377.281 508.068C376.345 508.068 375.576 508.311 374.972 508.796C374.369 509.281 373.922 509.918 373.632 510.705C373.342 511.492 373.197 512.341 373.197 513.253C373.197 514.164 373.342 515.011 373.632 515.792C373.922 516.573 374.369 517.203 374.972 517.683C375.576 518.162 376.345 518.402 377.281 518.402ZM386.658 520V506.364H388.682V508.423H388.824C389.073 507.749 389.522 507.201 390.173 506.781C390.825 506.361 391.558 506.151 392.375 506.151C392.529 506.151 392.721 506.154 392.952 506.159C393.183 506.165 393.358 506.174 393.476 506.186V508.317C393.405 508.299 393.242 508.272 392.988 508.237C392.739 508.195 392.476 508.175 392.198 508.175C391.535 508.175 390.943 508.314 390.422 508.592C389.907 508.864 389.499 509.243 389.197 509.728C388.901 510.208 388.753 510.755 388.753 511.371V520H386.658ZM402.744 506.364V508.139H395.678V506.364H402.744ZM397.737 503.097H399.833V516.094C399.833 516.686 399.918 517.129 400.09 517.425C400.268 517.715 400.492 517.911 400.765 518.011C401.043 518.106 401.336 518.153 401.644 518.153C401.874 518.153 402.064 518.142 402.212 518.118C402.36 518.088 402.478 518.065 402.567 518.047L402.993 519.929C402.851 519.982 402.653 520.036 402.398 520.089C402.144 520.148 401.821 520.178 401.431 520.178C400.839 520.178 400.259 520.05 399.691 519.796C399.128 519.541 398.661 519.154 398.288 518.633C397.921 518.112 397.737 517.455 397.737 516.662V503.097ZM408.284 511.797V520H406.189V501.818H408.284V508.494H408.462C408.781 507.79 409.261 507.231 409.9 506.816C410.545 506.396 411.403 506.186 412.475 506.186C413.404 506.186 414.218 506.373 414.916 506.745C415.614 507.112 416.156 507.678 416.541 508.441C416.931 509.199 417.127 510.163 417.127 511.335V520H415.031V511.477C415.031 510.394 414.75 509.557 414.188 508.965C413.632 508.367 412.859 508.068 411.871 508.068C411.184 508.068 410.569 508.213 410.024 508.503C409.486 508.793 409.06 509.216 408.746 509.773C408.438 510.329 408.284 511.004 408.284 511.797ZM442.906 507.5H440.704C440.574 506.867 440.346 506.31 440.02 505.831C439.701 505.352 439.31 504.949 438.848 504.624C438.393 504.292 437.887 504.044 437.33 503.878C436.774 503.712 436.194 503.629 435.59 503.629C434.489 503.629 433.492 503.907 432.598 504.464C431.711 505.02 431.003 505.84 430.477 506.923C429.956 508.006 429.695 509.335 429.695 510.909C429.695 512.483 429.956 513.812 430.477 514.895C431.003 515.978 431.711 516.798 432.598 517.354C433.492 517.911 434.489 518.189 435.59 518.189C436.194 518.189 436.774 518.106 437.33 517.94C437.887 517.775 438.393 517.529 438.848 517.203C439.31 516.872 439.701 516.467 440.02 515.987C440.346 515.502 440.574 514.946 440.704 514.318H442.906C442.74 515.247 442.438 516.079 442 516.813C441.562 517.547 441.018 518.171 440.367 518.686C439.716 519.195 438.985 519.583 438.174 519.849C437.369 520.115 436.508 520.249 435.59 520.249C434.04 520.249 432.661 519.87 431.453 519.112C430.246 518.355 429.296 517.277 428.603 515.881C427.911 514.484 427.565 512.827 427.565 510.909C427.565 508.991 427.911 507.334 428.603 505.938C429.296 504.541 430.246 503.464 431.453 502.706C432.661 501.948 434.04 501.57 435.59 501.57C436.508 501.57 437.369 501.703 438.174 501.969C438.985 502.235 439.716 502.626 440.367 503.141C441.018 503.65 441.562 504.271 442 505.005C442.438 505.733 442.74 506.565 442.906 507.5ZM448.275 511.797V520H446.179V501.818H448.275V508.494H448.452C448.772 507.79 449.251 507.231 449.89 506.816C450.535 506.396 451.394 506.186 452.465 506.186C453.394 506.186 454.208 506.373 454.906 506.745C455.605 507.112 456.146 507.678 456.531 508.441C456.922 509.199 457.117 510.163 457.117 511.335V520H455.022V511.477C455.022 510.394 454.741 509.557 454.178 508.965C453.622 508.367 452.85 508.068 451.861 508.068C451.175 508.068 450.559 508.213 450.015 508.503C449.476 508.793 449.05 509.216 448.736 509.773C448.428 510.329 448.275 511.004 448.275 511.797ZM464.963 520.32C464.099 520.32 463.314 520.157 462.61 519.831C461.906 519.5 461.346 519.023 460.932 518.402C460.518 517.775 460.311 517.017 460.311 516.129C460.311 515.348 460.465 514.715 460.772 514.229C461.08 513.738 461.491 513.353 462.006 513.075C462.521 512.797 463.089 512.59 463.711 512.454C464.338 512.312 464.969 512.199 465.602 512.116C466.43 512.01 467.102 511.93 467.617 511.877C468.138 511.818 468.517 511.72 468.753 511.584C468.996 511.448 469.117 511.211 469.117 510.874V510.803C469.117 509.927 468.878 509.246 468.398 508.761C467.925 508.275 467.206 508.033 466.241 508.033C465.241 508.033 464.457 508.252 463.888 508.69C463.32 509.128 462.921 509.595 462.69 510.092L460.701 509.382C461.056 508.554 461.53 507.908 462.122 507.447C462.719 506.979 463.371 506.654 464.075 506.47C464.785 506.281 465.483 506.186 466.17 506.186C466.608 506.186 467.111 506.239 467.679 506.346C468.253 506.446 468.807 506.657 469.339 506.976C469.878 507.296 470.325 507.778 470.68 508.423C471.035 509.068 471.213 509.933 471.213 511.016V520H469.117V518.153H469.011C468.869 518.449 468.632 518.766 468.301 519.103C467.969 519.441 467.528 519.728 466.978 519.964C466.427 520.201 465.756 520.32 464.963 520.32ZM465.282 518.438C466.111 518.438 466.809 518.275 467.377 517.949C467.951 517.624 468.384 517.203 468.674 516.689C468.969 516.174 469.117 515.632 469.117 515.064V513.146C469.029 513.253 468.833 513.35 468.532 513.439C468.236 513.522 467.892 513.596 467.502 513.661C467.117 513.72 466.741 513.774 466.374 513.821C466.013 513.862 465.72 513.898 465.495 513.928C464.951 513.999 464.442 514.114 463.968 514.274C463.501 514.428 463.122 514.661 462.832 514.975C462.548 515.283 462.406 515.703 462.406 516.236C462.406 516.964 462.675 517.514 463.214 517.887C463.758 518.254 464.448 518.438 465.282 518.438ZM475.037 520V506.364H477.061V508.423H477.203C477.452 507.749 477.901 507.201 478.552 506.781C479.203 506.361 479.937 506.151 480.754 506.151C480.908 506.151 481.1 506.154 481.331 506.159C481.562 506.165 481.737 506.174 481.855 506.186V508.317C481.784 508.299 481.621 508.272 481.367 508.237C481.118 508.195 480.855 508.175 480.577 508.175C479.914 508.175 479.322 508.314 478.801 508.592C478.286 508.864 477.878 509.243 477.576 509.728C477.28 510.208 477.132 510.755 477.132 511.371V520H475.037ZM486.434 501.818V520H484.339V501.818H486.434ZM495.988 520.284C494.675 520.284 493.541 519.994 492.588 519.414C491.641 518.828 490.91 518.011 490.395 516.964C489.886 515.91 489.632 514.685 489.632 513.288C489.632 511.892 489.886 510.661 490.395 509.595C490.91 508.524 491.626 507.689 492.544 507.092C493.467 506.488 494.544 506.186 495.775 506.186C496.486 506.186 497.187 506.304 497.879 506.541C498.572 506.778 499.202 507.163 499.77 507.695C500.339 508.222 500.791 508.92 501.129 509.79C501.466 510.661 501.635 511.732 501.635 513.004V513.892H491.123V512.081H499.504C499.504 511.312 499.35 510.625 499.042 510.021C498.741 509.418 498.309 508.941 497.746 508.592C497.19 508.243 496.533 508.068 495.775 508.068C494.941 508.068 494.219 508.275 493.609 508.69C493.006 509.098 492.541 509.631 492.215 510.288C491.89 510.945 491.727 511.649 491.727 512.401V513.608C491.727 514.638 491.905 515.511 492.26 516.227C492.621 516.937 493.121 517.479 493.76 517.852C494.399 518.219 495.142 518.402 495.988 518.402C496.539 518.402 497.036 518.325 497.48 518.171C497.93 518.011 498.317 517.775 498.643 517.461C498.968 517.141 499.22 516.745 499.398 516.271L501.422 516.839C501.209 517.526 500.851 518.13 500.347 518.651C499.844 519.165 499.223 519.568 498.483 519.858C497.743 520.142 496.912 520.284 495.988 520.284ZM514.481 509.418L512.599 509.95C512.481 509.637 512.306 509.332 512.075 509.036C511.85 508.734 511.542 508.485 511.152 508.29C510.761 508.095 510.261 507.997 509.651 507.997C508.817 507.997 508.122 508.19 507.565 508.574C507.015 508.953 506.74 509.435 506.74 510.021C506.74 510.542 506.929 510.953 507.308 511.255C507.686 511.557 508.278 511.809 509.083 512.01L511.107 512.507C512.327 512.803 513.235 513.256 513.833 513.865C514.431 514.469 514.73 515.247 514.73 516.2C514.73 516.982 514.505 517.68 514.055 518.295C513.611 518.911 512.99 519.396 512.191 519.751C511.392 520.107 510.462 520.284 509.403 520.284C508.012 520.284 506.861 519.982 505.949 519.379C505.038 518.775 504.461 517.893 504.218 516.733L506.207 516.236C506.396 516.97 506.754 517.52 507.281 517.887C507.814 518.254 508.509 518.438 509.367 518.438C510.344 518.438 511.119 518.23 511.693 517.816C512.273 517.396 512.563 516.893 512.563 516.307C512.563 515.833 512.398 515.437 512.066 515.117C511.735 514.792 511.226 514.549 510.539 514.389L508.267 513.857C507.018 513.561 506.1 513.102 505.514 512.48C504.934 511.853 504.644 511.069 504.644 510.128C504.644 509.358 504.86 508.678 505.292 508.086C505.73 507.494 506.325 507.029 507.077 506.692C507.834 506.355 508.693 506.186 509.651 506.186C511.001 506.186 512.06 506.482 512.83 507.074C513.605 507.666 514.155 508.447 514.481 509.418ZM523.814 506.364V508.139H516.747V506.364H523.814ZM518.807 503.097H520.902V516.094C520.902 516.686 520.988 517.129 521.159 517.425C521.337 517.715 521.562 517.911 521.834 518.011C522.112 518.106 522.405 518.153 522.713 518.153C522.944 518.153 523.133 518.142 523.281 518.118C523.429 518.088 523.547 518.065 523.636 518.047L524.062 519.929C523.92 519.982 523.722 520.036 523.468 520.089C523.213 520.148 522.891 520.178 522.5 520.178C521.908 520.178 521.328 520.05 520.76 519.796C520.198 519.541 519.73 519.154 519.357 518.633C518.99 518.112 518.807 517.455 518.807 516.662V503.097ZM532.359 520.284C531.128 520.284 530.048 519.991 529.118 519.405C528.195 518.819 527.473 518 526.952 516.946C526.437 515.893 526.18 514.661 526.18 513.253C526.18 511.832 526.437 510.592 526.952 509.533C527.473 508.474 528.195 507.651 529.118 507.065C530.048 506.479 531.128 506.186 532.359 506.186C533.59 506.186 534.667 506.479 535.59 507.065C536.52 507.651 537.242 508.474 537.756 509.533C538.277 510.592 538.538 511.832 538.538 513.253C538.538 514.661 538.277 515.893 537.756 516.946C537.242 518 536.52 518.819 535.59 519.405C534.667 519.991 533.59 520.284 532.359 520.284ZM532.359 518.402C533.294 518.402 534.063 518.162 534.667 517.683C535.271 517.203 535.718 516.573 536.008 515.792C536.298 515.011 536.443 514.164 536.443 513.253C536.443 512.341 536.298 511.492 536.008 510.705C535.718 509.918 535.271 509.281 534.667 508.796C534.063 508.311 533.294 508.068 532.359 508.068C531.424 508.068 530.654 508.311 530.051 508.796C529.447 509.281 529 509.918 528.71 510.705C528.42 511.492 528.275 512.341 528.275 513.253C528.275 514.164 528.42 515.011 528.71 515.792C529 516.573 529.447 517.203 530.051 517.683C530.654 518.162 531.424 518.402 532.359 518.402ZM543.831 511.797V520H541.736V506.364H543.76V508.494H543.938C544.257 507.802 544.743 507.246 545.394 506.825C546.045 506.399 546.885 506.186 547.915 506.186C548.838 506.186 549.646 506.375 550.339 506.754C551.031 507.127 551.57 507.695 551.954 508.459C552.339 509.216 552.531 510.175 552.531 511.335V520H550.436V511.477C550.436 510.406 550.158 509.571 549.602 508.974C549.045 508.37 548.282 508.068 547.311 508.068C546.642 508.068 546.045 508.213 545.518 508.503C544.997 508.793 544.586 509.216 544.284 509.773C543.982 510.329 543.831 511.004 543.831 511.797Z" fill="black"/>
<path d="M608.832 511.5H606.631C606.5 510.867 606.273 510.31 605.947 509.831C605.627 509.352 605.237 508.949 604.775 508.624C604.319 508.292 603.813 508.044 603.257 507.878C602.701 507.712 602.121 507.629 601.517 507.629C600.416 507.629 599.419 507.907 598.525 508.464C597.637 509.02 596.93 509.84 596.403 510.923C595.883 512.006 595.622 513.335 595.622 514.909C595.622 516.483 595.883 517.812 596.403 518.895C596.93 519.978 597.637 520.798 598.525 521.354C599.419 521.911 600.416 522.189 601.517 522.189C602.121 522.189 602.701 522.106 603.257 521.94C603.813 521.775 604.319 521.529 604.775 521.203C605.237 520.872 605.627 520.467 605.947 519.987C606.273 519.502 606.5 518.946 606.631 518.318H608.832C608.667 519.247 608.365 520.079 607.927 520.813C607.489 521.547 606.944 522.171 606.293 522.686C605.642 523.195 604.911 523.583 604.1 523.849C603.296 524.115 602.434 524.249 601.517 524.249C599.966 524.249 598.587 523.87 597.38 523.112C596.173 522.355 595.223 521.277 594.53 519.881C593.838 518.484 593.491 516.827 593.491 514.909C593.491 512.991 593.838 511.334 594.53 509.938C595.223 508.541 596.173 507.464 597.38 506.706C598.587 505.948 599.966 505.57 601.517 505.57C602.434 505.57 603.296 505.703 604.1 505.969C604.911 506.235 605.642 506.626 606.293 507.141C606.944 507.65 607.489 508.271 607.927 509.005C608.365 509.733 608.667 510.565 608.832 511.5ZM614.201 515.797V524H612.106V505.818H614.201V512.494H614.379C614.698 511.79 615.178 511.231 615.817 510.816C616.462 510.396 617.32 510.186 618.392 510.186C619.321 510.186 620.135 510.373 620.833 510.745C621.531 511.112 622.073 511.678 622.458 512.441C622.848 513.199 623.044 514.163 623.044 515.335V524H620.948V515.477C620.948 514.394 620.667 513.557 620.105 512.965C619.549 512.367 618.776 512.068 617.788 512.068C617.101 512.068 616.486 512.213 615.941 512.503C615.403 512.793 614.977 513.216 614.663 513.773C614.355 514.329 614.201 515.004 614.201 515.797ZM630.889 524.32C630.025 524.32 629.241 524.157 628.537 523.831C627.832 523.5 627.273 523.023 626.859 522.402C626.445 521.775 626.237 521.017 626.237 520.129C626.237 519.348 626.391 518.715 626.699 518.229C627.007 517.738 627.418 517.353 627.933 517.075C628.448 516.797 629.016 516.59 629.638 516.454C630.265 516.312 630.895 516.199 631.529 516.116C632.357 516.01 633.029 515.93 633.544 515.877C634.065 515.818 634.443 515.72 634.68 515.584C634.923 515.448 635.044 515.211 635.044 514.874V514.803C635.044 513.927 634.805 513.246 634.325 512.761C633.852 512.275 633.133 512.033 632.168 512.033C631.168 512.033 630.383 512.252 629.815 512.69C629.247 513.128 628.847 513.595 628.617 514.092L626.628 513.382C626.983 512.554 627.457 511.908 628.048 511.447C628.646 510.979 629.297 510.654 630.002 510.47C630.712 510.281 631.41 510.186 632.097 510.186C632.535 510.186 633.038 510.239 633.606 510.346C634.18 510.446 634.733 510.657 635.266 510.976C635.805 511.296 636.252 511.778 636.607 512.423C636.962 513.068 637.139 513.933 637.139 515.016V524H635.044V522.153H634.938C634.796 522.449 634.559 522.766 634.227 523.103C633.896 523.441 633.455 523.728 632.905 523.964C632.354 524.201 631.682 524.32 630.889 524.32ZM631.209 522.438C632.038 522.438 632.736 522.275 633.304 521.949C633.878 521.624 634.31 521.203 634.6 520.689C634.896 520.174 635.044 519.632 635.044 519.064V517.146C634.955 517.253 634.76 517.35 634.458 517.439C634.162 517.522 633.819 517.596 633.428 517.661C633.044 517.72 632.668 517.774 632.301 517.821C631.94 517.862 631.647 517.898 631.422 517.928C630.878 517.999 630.369 518.114 629.895 518.274C629.427 518.428 629.049 518.661 628.759 518.975C628.475 519.283 628.333 519.703 628.333 520.236C628.333 520.964 628.602 521.514 629.14 521.887C629.685 522.254 630.374 522.438 631.209 522.438ZM640.964 524V510.364H642.988V512.423H643.13C643.378 511.749 643.828 511.201 644.479 510.781C645.13 510.361 645.864 510.151 646.681 510.151C646.835 510.151 647.027 510.154 647.258 510.159C647.489 510.165 647.663 510.174 647.782 510.186V512.317C647.711 512.299 647.548 512.272 647.293 512.237C647.045 512.195 646.781 512.175 646.503 512.175C645.84 512.175 645.249 512.314 644.728 512.592C644.213 512.864 643.804 513.243 643.503 513.728C643.207 514.208 643.059 514.755 643.059 515.371V524H640.964ZM652.36 505.818V524H650.265V505.818H652.36ZM661.915 524.284C660.601 524.284 659.468 523.994 658.515 523.414C657.568 522.828 656.837 522.011 656.322 520.964C655.813 519.91 655.559 518.685 655.559 517.288C655.559 515.892 655.813 514.661 656.322 513.595C656.837 512.524 657.553 511.689 658.471 511.092C659.394 510.488 660.471 510.186 661.702 510.186C662.412 510.186 663.114 510.304 663.806 510.541C664.499 510.778 665.129 511.163 665.697 511.695C666.265 512.222 666.718 512.92 667.055 513.79C667.393 514.661 667.562 515.732 667.562 517.004V517.892H657.05V516.081H665.431C665.431 515.312 665.277 514.625 664.969 514.021C664.667 513.418 664.235 512.941 663.673 512.592C663.117 512.243 662.46 512.068 661.702 512.068C660.868 512.068 660.146 512.275 659.536 512.69C658.932 513.098 658.468 513.631 658.142 514.288C657.817 514.945 657.654 515.649 657.654 516.401V517.608C657.654 518.638 657.831 519.511 658.187 520.227C658.548 520.937 659.048 521.479 659.687 521.852C660.326 522.219 661.069 522.402 661.915 522.402C662.466 522.402 662.963 522.325 663.407 522.171C663.857 522.011 664.244 521.775 664.57 521.461C664.895 521.141 665.147 520.745 665.324 520.271L667.348 520.839C667.135 521.526 666.777 522.13 666.274 522.651C665.771 523.165 665.15 523.568 664.41 523.858C663.67 524.142 662.839 524.284 661.915 524.284ZM680.408 513.418L678.526 513.95C678.407 513.637 678.233 513.332 678.002 513.036C677.777 512.734 677.469 512.485 677.079 512.29C676.688 512.095 676.188 511.997 675.578 511.997C674.744 511.997 674.048 512.19 673.492 512.574C672.941 512.953 672.666 513.435 672.666 514.021C672.666 514.542 672.856 514.953 673.234 515.255C673.613 515.557 674.205 515.809 675.01 516.01L677.034 516.507C678.253 516.803 679.162 517.256 679.76 517.865C680.357 518.469 680.656 519.247 680.656 520.2C680.656 520.982 680.431 521.68 679.982 522.295C679.538 522.911 678.916 523.396 678.117 523.751C677.318 524.107 676.389 524.284 675.33 524.284C673.939 524.284 672.788 523.982 671.876 523.379C670.965 522.775 670.388 521.893 670.145 520.733L672.134 520.236C672.323 520.97 672.681 521.52 673.208 521.887C673.741 522.254 674.436 522.438 675.294 522.438C676.271 522.438 677.046 522.23 677.62 521.816C678.2 521.396 678.49 520.893 678.49 520.307C678.49 519.833 678.324 519.437 677.993 519.117C677.662 518.792 677.153 518.549 676.466 518.389L674.193 517.857C672.944 517.561 672.027 517.102 671.441 516.48C670.861 515.853 670.571 515.069 670.571 514.128C670.571 513.358 670.787 512.678 671.219 512.086C671.657 511.494 672.252 511.029 673.004 510.692C673.761 510.355 674.619 510.186 675.578 510.186C676.928 510.186 677.987 510.482 678.756 511.074C679.532 511.666 680.082 512.447 680.408 513.418ZM689.741 510.364V512.139H682.674V510.364H689.741ZM684.733 507.097H686.829V520.094C686.829 520.686 686.914 521.129 687.086 521.425C687.264 521.715 687.489 521.911 687.761 522.011C688.039 522.106 688.332 522.153 688.64 522.153C688.871 522.153 689.06 522.142 689.208 522.118C689.356 522.088 689.474 522.065 689.563 522.047L689.989 523.929C689.847 523.982 689.649 524.036 689.394 524.089C689.14 524.148 688.817 524.178 688.427 524.178C687.835 524.178 687.255 524.05 686.687 523.796C686.124 523.541 685.657 523.154 685.284 522.633C684.917 522.112 684.733 521.455 684.733 520.662V507.097ZM698.286 524.284C697.054 524.284 695.974 523.991 695.045 523.405C694.122 522.819 693.4 522 692.879 520.946C692.364 519.893 692.107 518.661 692.107 517.253C692.107 515.832 692.364 514.592 692.879 513.533C693.4 512.474 694.122 511.651 695.045 511.065C695.974 510.479 697.054 510.186 698.286 510.186C699.517 510.186 700.594 510.479 701.517 511.065C702.446 511.651 703.168 512.474 703.683 513.533C704.204 514.592 704.464 515.832 704.464 517.253C704.464 518.661 704.204 519.893 703.683 520.946C703.168 522 702.446 522.819 701.517 523.405C700.594 523.991 699.517 524.284 698.286 524.284ZM698.286 522.402C699.221 522.402 699.99 522.162 700.594 521.683C701.197 521.203 701.644 520.573 701.934 519.792C702.224 519.011 702.369 518.164 702.369 517.253C702.369 516.341 702.224 515.492 701.934 514.705C701.644 513.918 701.197 513.281 700.594 512.796C699.99 512.311 699.221 512.068 698.286 512.068C697.35 512.068 696.581 512.311 695.977 512.796C695.374 513.281 694.927 513.918 694.637 514.705C694.347 515.492 694.202 516.341 694.202 517.253C694.202 518.164 694.347 519.011 694.637 519.792C694.927 520.573 695.374 521.203 695.977 521.683C696.581 522.162 697.35 522.402 698.286 522.402ZM709.758 515.797V524H707.663V510.364H709.687V512.494H709.864C710.184 511.802 710.669 511.246 711.32 510.825C711.971 510.399 712.812 510.186 713.842 510.186C714.765 510.186 715.573 510.375 716.265 510.754C716.958 511.127 717.496 511.695 717.881 512.459C718.266 513.216 718.458 514.175 718.458 515.335V524H716.363V515.477C716.363 514.406 716.085 513.571 715.528 512.974C714.972 512.37 714.209 512.068 713.238 512.068C712.569 512.068 711.971 512.213 711.445 512.503C710.924 512.793 710.513 513.216 710.211 513.773C709.909 514.329 709.758 515.004 709.758 515.797Z" fill="black"/>
<circle cx="578.511" cy="509.511" r="9.01136" fill="#FFE587" stroke="black"/>
<circle cx="555.511" cy="495.511" r="9.01136" fill="#FFE587" stroke="black"/>
<circle cx="533.511" cy="472.511" r="9.01136" fill="#FFE587" stroke="black"/>
<circle cx="592.511" cy="263.511" r="9.01136" fill="#FFE587" stroke="black"/>
<circle cx="715.511" cy="353.511" r="9.01136" fill="#FFE587" stroke="black"/>
<path d="M160.631 122.5C160.435 121.902 160.178 121.367 159.858 120.893C159.545 120.414 159.169 120.005 158.731 119.668C158.299 119.331 157.808 119.073 157.257 118.896C156.707 118.718 156.103 118.629 155.446 118.629C154.369 118.629 153.389 118.907 152.507 119.464C151.626 120.02 150.924 120.84 150.403 121.923C149.883 123.006 149.622 124.335 149.622 125.909C149.622 127.483 149.886 128.812 150.412 129.895C150.939 130.978 151.652 131.798 152.552 132.354C153.451 132.911 154.464 133.189 155.588 133.189C156.63 133.189 157.547 132.967 158.34 132.523C159.139 132.073 159.761 131.44 160.205 130.623C160.654 129.801 160.879 128.833 160.879 127.72L161.554 127.862H156.085V125.909H163.01V127.862C163.01 129.36 162.69 130.662 162.051 131.768C161.418 132.875 160.542 133.733 159.423 134.343C158.311 134.947 157.032 135.249 155.588 135.249C153.978 135.249 152.564 134.87 151.344 134.112C150.131 133.355 149.184 132.277 148.504 130.881C147.829 129.484 147.491 127.827 147.491 125.909C147.491 124.471 147.684 123.178 148.069 122.029C148.459 120.875 149.01 119.893 149.72 119.082C150.43 118.271 151.27 117.65 152.241 117.218C153.212 116.786 154.28 116.57 155.446 116.57C156.405 116.57 157.299 116.715 158.127 117.005C158.962 117.289 159.704 117.694 160.355 118.221C161.012 118.742 161.56 119.366 161.998 120.094C162.436 120.816 162.738 121.618 162.903 122.5H160.631ZM166.497 135V121.364H168.521V123.423H168.663C168.911 122.749 169.361 122.201 170.012 121.781C170.663 121.361 171.397 121.151 172.214 121.151C172.368 121.151 172.56 121.154 172.791 121.159C173.022 121.165 173.197 121.174 173.315 121.186V123.317C173.244 123.299 173.081 123.272 172.827 123.237C172.578 123.195 172.315 123.175 172.036 123.175C171.374 123.175 170.782 123.314 170.261 123.592C169.746 123.864 169.338 124.243 169.036 124.728C168.74 125.208 168.592 125.755 168.592 126.371V135H166.497ZM181.101 135.284C179.787 135.284 178.653 134.994 177.701 134.414C176.754 133.828 176.023 133.011 175.508 131.964C174.999 130.91 174.744 129.685 174.744 128.288C174.744 126.892 174.999 125.661 175.508 124.595C176.023 123.524 176.739 122.689 177.656 122.092C178.579 121.488 179.657 121.186 180.888 121.186C181.598 121.186 182.299 121.304 182.992 121.541C183.684 121.778 184.315 122.163 184.883 122.695C185.451 123.222 185.904 123.92 186.241 124.79C186.578 125.661 186.747 126.732 186.747 128.004V128.892H176.236V127.081H184.616C184.616 126.312 184.463 125.625 184.155 125.021C183.853 124.418 183.421 123.941 182.859 123.592C182.302 123.243 181.645 123.068 180.888 123.068C180.053 123.068 179.331 123.275 178.722 123.69C178.118 124.098 177.653 124.631 177.328 125.288C177.002 125.945 176.839 126.649 176.839 127.401V128.608C176.839 129.638 177.017 130.511 177.372 131.227C177.733 131.937 178.233 132.479 178.872 132.852C179.512 133.219 180.254 133.402 181.101 133.402C181.651 133.402 182.148 133.325 182.592 133.171C183.042 133.011 183.43 132.775 183.755 132.461C184.081 132.141 184.332 131.745 184.51 131.271L186.534 131.839C186.321 132.526 185.963 133.13 185.46 133.651C184.957 134.165 184.335 134.568 183.595 134.858C182.856 135.142 182.024 135.284 181.101 135.284ZM195.652 135.284C194.338 135.284 193.204 134.994 192.251 134.414C191.304 133.828 190.573 133.011 190.059 131.964C189.55 130.91 189.295 129.685 189.295 128.288C189.295 126.892 189.55 125.661 190.059 124.595C190.573 123.524 191.29 122.689 192.207 122.092C193.13 121.488 194.207 121.186 195.438 121.186C196.149 121.186 196.85 121.304 197.543 121.541C198.235 121.778 198.865 122.163 199.434 122.695C200.002 123.222 200.454 123.92 200.792 124.79C201.129 125.661 201.298 126.732 201.298 128.004V128.892H190.786V127.081H199.167C199.167 126.312 199.013 125.625 198.706 125.021C198.404 124.418 197.972 123.941 197.409 123.592C196.853 123.243 196.196 123.068 195.438 123.068C194.604 123.068 193.882 123.275 193.272 123.69C192.669 124.098 192.204 124.631 191.878 125.288C191.553 125.945 191.39 126.649 191.39 127.401V128.608C191.39 129.638 191.568 130.511 191.923 131.227C192.284 131.937 192.784 132.479 193.423 132.852C194.062 133.219 194.805 133.402 195.652 133.402C196.202 133.402 196.699 133.325 197.143 133.171C197.593 133.011 197.98 132.775 198.306 132.461C198.632 132.141 198.883 131.745 199.061 131.271L201.085 131.839C200.872 132.526 200.514 133.13 200.011 133.651C199.507 134.165 198.886 134.568 198.146 134.858C197.406 135.142 196.575 135.284 195.652 135.284ZM206.58 126.797V135H204.485V121.364H206.509V123.494H206.687C207.006 122.802 207.492 122.246 208.143 121.825C208.794 121.399 209.634 121.186 210.664 121.186C211.587 121.186 212.395 121.375 213.088 121.754C213.78 122.127 214.319 122.695 214.703 123.459C215.088 124.216 215.28 125.175 215.28 126.335V135H213.185V126.477C213.185 125.406 212.907 124.571 212.351 123.974C211.794 123.37 211.031 123.068 210.06 123.068C209.391 123.068 208.794 123.213 208.267 123.503C207.746 123.793 207.335 124.216 207.033 124.773C206.731 125.329 206.58 126.004 206.58 126.797ZM229.771 121.364L224.729 135H222.598L217.555 121.364H219.828L223.592 132.23H223.734L227.499 121.364H229.771ZM232.537 135V121.364H234.632V135H232.537ZM233.602 119.091C233.194 119.091 232.842 118.952 232.546 118.674C232.256 118.395 232.111 118.061 232.111 117.67C232.111 117.28 232.256 116.945 232.546 116.667C232.842 116.389 233.194 116.25 233.602 116.25C234.01 116.25 234.36 116.389 234.65 116.667C234.946 116.945 235.094 117.28 235.094 117.67C235.094 118.061 234.946 118.395 234.65 118.674C234.36 118.952 234.01 119.091 233.602 119.091ZM240.565 116.818V135H238.469V116.818H240.565ZM246.497 116.818V135H244.402V116.818H246.497ZM256.052 135.284C254.738 135.284 253.605 134.994 252.652 134.414C251.705 133.828 250.974 133.011 250.459 131.964C249.95 130.91 249.695 129.685 249.695 128.288C249.695 126.892 249.95 125.661 250.459 124.595C250.974 123.524 251.69 122.689 252.607 122.092C253.531 121.488 254.608 121.186 255.839 121.186C256.549 121.186 257.25 121.304 257.943 121.541C258.635 121.778 259.266 122.163 259.834 122.695C260.402 123.222 260.855 123.92 261.192 124.79C261.53 125.661 261.698 126.732 261.698 128.004V128.892H251.187V127.081H259.568C259.568 126.312 259.414 125.625 259.106 125.021C258.804 124.418 258.372 123.941 257.81 123.592C257.253 123.243 256.596 123.068 255.839 123.068C255.004 123.068 254.282 123.275 253.673 123.69C253.069 124.098 252.604 124.631 252.279 125.288C251.953 125.945 251.791 126.649 251.791 127.401V128.608C251.791 129.638 251.968 130.511 252.323 131.227C252.684 131.937 253.184 132.479 253.824 132.852C254.463 133.219 255.206 133.402 256.052 133.402C256.602 133.402 257.1 133.325 257.543 133.171C257.993 133.011 258.381 132.775 258.706 132.461C259.032 132.141 259.283 131.745 259.461 131.271L261.485 131.839C261.272 132.526 260.914 133.13 260.411 133.651C259.908 134.165 259.286 134.568 258.547 134.858C257.807 135.142 256.975 135.284 256.052 135.284Z" fill="black"/>
<path d="M461.145 445.364C461.038 444.464 460.606 443.766 459.849 443.268C459.091 442.771 458.162 442.523 457.061 442.523C456.256 442.523 455.552 442.653 454.948 442.913C454.35 443.174 453.883 443.532 453.545 443.988C453.214 444.443 453.048 444.961 453.048 445.541C453.048 446.027 453.164 446.444 453.395 446.793C453.631 447.136 453.933 447.423 454.3 447.654C454.667 447.879 455.052 448.065 455.454 448.213C455.857 448.355 456.227 448.471 456.564 448.56L458.411 449.057C458.884 449.181 459.411 449.353 459.991 449.572C460.577 449.791 461.136 450.09 461.669 450.468C462.207 450.841 462.651 451.321 463 451.907C463.35 452.493 463.524 453.212 463.524 454.064C463.524 455.046 463.267 455.934 462.752 456.727C462.243 457.52 461.497 458.151 460.515 458.618C459.538 459.086 458.351 459.32 456.955 459.32C455.652 459.32 454.525 459.109 453.572 458.689C452.625 458.269 451.879 457.683 451.335 456.931C450.796 456.18 450.491 455.307 450.42 454.312H452.693C452.752 454.999 452.983 455.567 453.386 456.017C453.794 456.461 454.309 456.792 454.93 457.011C455.558 457.224 456.232 457.331 456.955 457.331C457.795 457.331 458.55 457.195 459.218 456.923C459.887 456.644 460.417 456.26 460.808 455.768C461.198 455.271 461.393 454.691 461.393 454.028C461.393 453.425 461.225 452.933 460.887 452.555C460.55 452.176 460.106 451.868 459.556 451.631C459.005 451.395 458.411 451.187 457.771 451.01L455.534 450.371C454.114 449.962 452.989 449.379 452.161 448.622C451.332 447.864 450.918 446.873 450.918 445.648C450.918 444.63 451.193 443.742 451.743 442.984C452.3 442.221 453.045 441.629 453.98 441.209C454.922 440.783 455.972 440.57 457.132 440.57C458.304 440.57 459.346 440.78 460.257 441.2C461.169 441.614 461.891 442.182 462.423 442.904C462.962 443.627 463.246 444.446 463.276 445.364H461.145ZM475.454 453.425V445.364H477.549V459H475.454V456.692H475.312C474.992 457.384 474.495 457.973 473.82 458.458C473.146 458.938 472.293 459.178 471.263 459.178C470.411 459.178 469.654 458.991 468.991 458.618C468.328 458.239 467.807 457.671 467.428 456.914C467.049 456.15 466.86 455.188 466.86 454.028V445.364H468.955V453.886C468.955 454.881 469.233 455.674 469.79 456.266C470.352 456.857 471.068 457.153 471.938 457.153C472.459 457.153 472.989 457.02 473.527 456.754C474.072 456.488 474.527 456.079 474.894 455.529C475.267 454.978 475.454 454.277 475.454 453.425ZM481.386 459V445.364H483.411V447.494H483.588C483.872 446.766 484.331 446.201 484.964 445.799C485.597 445.39 486.358 445.186 487.246 445.186C488.145 445.186 488.894 445.39 489.492 445.799C490.096 446.201 490.566 446.766 490.903 447.494H491.045C491.395 446.79 491.918 446.231 492.617 445.816C493.315 445.396 494.153 445.186 495.129 445.186C496.348 445.186 497.346 445.568 498.121 446.331C498.896 447.089 499.284 448.27 499.284 449.874V459H497.189V449.874C497.189 448.867 496.914 448.148 496.363 447.716C495.813 447.284 495.165 447.068 494.419 447.068C493.46 447.068 492.717 447.358 492.191 447.938C491.664 448.512 491.401 449.24 491.401 450.122V459H489.27V449.661C489.27 448.885 489.018 448.261 488.515 447.787C488.012 447.308 487.364 447.068 486.571 447.068C486.027 447.068 485.518 447.213 485.044 447.503C484.576 447.793 484.198 448.196 483.908 448.711C483.624 449.22 483.482 449.808 483.482 450.477V459H481.386ZM503.115 459V445.364H505.139V447.494H505.317C505.601 446.766 506.059 446.201 506.693 445.799C507.326 445.39 508.086 445.186 508.974 445.186C509.874 445.186 510.623 445.39 511.22 445.799C511.824 446.201 512.295 446.766 512.632 447.494H512.774C513.123 446.79 513.647 446.231 514.345 445.816C515.044 445.396 515.881 445.186 516.858 445.186C518.077 445.186 519.074 445.568 519.85 446.331C520.625 447.089 521.013 448.27 521.013 449.874V459H518.917V449.874C518.917 448.867 518.642 448.148 518.092 447.716C517.541 447.284 516.893 447.068 516.148 447.068C515.189 447.068 514.446 447.358 513.919 447.938C513.392 448.512 513.129 449.24 513.129 450.122V459H510.998V449.661C510.998 448.885 510.747 448.261 510.244 447.787C509.741 447.308 509.093 447.068 508.3 447.068C507.755 447.068 507.246 447.213 506.773 447.503C506.305 447.793 505.926 448.196 505.636 448.711C505.352 449.22 505.21 449.808 505.21 450.477V459H503.115ZM530.561 459.284C529.247 459.284 528.113 458.994 527.161 458.414C526.214 457.828 525.483 457.011 524.968 455.964C524.459 454.91 524.204 453.685 524.204 452.288C524.204 450.892 524.459 449.661 524.968 448.595C525.483 447.524 526.199 446.689 527.116 446.092C528.039 445.488 529.117 445.186 530.348 445.186C531.058 445.186 531.759 445.304 532.452 445.541C533.144 445.778 533.775 446.163 534.343 446.695C534.911 447.222 535.364 447.92 535.701 448.79C536.038 449.661 536.207 450.732 536.207 452.004V452.892H525.696V451.081H534.076C534.076 450.312 533.922 449.625 533.615 449.021C533.313 448.418 532.881 447.941 532.319 447.592C531.762 447.243 531.105 447.068 530.348 447.068C529.513 447.068 528.791 447.275 528.181 447.69C527.578 448.098 527.113 448.631 526.788 449.288C526.462 449.945 526.299 450.649 526.299 451.401V452.608C526.299 453.638 526.477 454.511 526.832 455.227C527.193 455.937 527.693 456.479 528.332 456.852C528.972 457.219 529.714 457.402 530.561 457.402C531.111 457.402 531.608 457.325 532.052 457.171C532.502 457.011 532.89 456.775 533.215 456.461C533.541 456.141 533.792 455.745 533.97 455.271L535.994 455.839C535.781 456.526 535.423 457.13 534.92 457.651C534.417 458.165 533.795 458.568 533.055 458.858C532.316 459.142 531.484 459.284 530.561 459.284ZM539.394 459V445.364H541.418V447.423H541.56C541.809 446.749 542.259 446.201 542.91 445.781C543.561 445.361 544.295 445.151 545.112 445.151C545.265 445.151 545.458 445.154 545.689 445.159C545.919 445.165 546.094 445.174 546.212 445.186V447.317C546.141 447.299 545.979 447.272 545.724 447.237C545.475 447.195 545.212 447.175 544.934 447.175C544.271 447.175 543.679 447.314 543.158 447.592C542.643 447.864 542.235 448.243 541.933 448.728C541.637 449.208 541.489 449.755 541.489 450.371V459H539.394ZM550.791 450.797V459H548.696V445.364H550.72V447.494H550.898C551.217 446.802 551.703 446.246 552.354 445.825C553.005 445.399 553.845 445.186 554.875 445.186C555.798 445.186 556.606 445.375 557.299 445.754C557.991 446.127 558.53 446.695 558.914 447.459C559.299 448.216 559.491 449.175 559.491 450.335V459H557.396V450.477C557.396 449.406 557.118 448.571 556.562 447.974C556.005 447.37 555.242 447.068 554.271 447.068C553.602 447.068 553.005 447.213 552.478 447.503C551.957 447.793 551.546 448.216 551.244 448.773C550.942 449.329 550.791 450.004 550.791 450.797ZM573.982 445.364L568.94 459H566.809L561.766 445.364H564.039L567.803 456.23H567.945L571.71 445.364H573.982ZM576.748 459V445.364H578.843V459H576.748ZM577.813 443.091C577.405 443.091 577.052 442.952 576.757 442.674C576.467 442.395 576.322 442.061 576.322 441.67C576.322 441.28 576.467 440.945 576.757 440.667C577.052 440.389 577.405 440.25 577.813 440.25C578.221 440.25 578.571 440.389 578.861 440.667C579.157 440.945 579.305 441.28 579.305 441.67C579.305 442.061 579.157 442.395 578.861 442.674C578.571 442.952 578.221 443.091 577.813 443.091ZM584.775 440.818V459H582.68V440.818H584.775ZM590.708 440.818V459H588.613V440.818H590.708ZM600.263 459.284C598.949 459.284 597.816 458.994 596.863 458.414C595.916 457.828 595.185 457.011 594.67 455.964C594.161 454.91 593.906 453.685 593.906 452.288C593.906 450.892 594.161 449.661 594.67 448.595C595.185 447.524 595.901 446.689 596.818 446.092C597.742 445.488 598.819 445.186 600.05 445.186C600.76 445.186 601.461 445.304 602.154 445.541C602.846 445.778 603.477 446.163 604.045 446.695C604.613 447.222 605.066 447.92 605.403 448.79C605.741 449.661 605.909 450.732 605.909 452.004V452.892H595.398V451.081H603.778C603.778 450.312 603.625 449.625 603.317 449.021C603.015 448.418 602.583 447.941 602.021 447.592C601.464 447.243 600.807 447.068 600.05 447.068C599.215 447.068 598.493 447.275 597.884 447.69C597.28 448.098 596.815 448.631 596.49 449.288C596.164 449.945 596.002 450.649 596.002 451.401V452.608C596.002 453.638 596.179 454.511 596.534 455.227C596.895 455.937 597.395 456.479 598.035 456.852C598.674 457.219 599.417 457.402 600.263 457.402C600.813 457.402 601.31 457.325 601.754 457.171C602.204 457.011 602.592 456.775 602.917 456.461C603.243 456.141 603.494 455.745 603.672 455.271L605.696 455.839C605.483 456.526 605.125 457.13 604.622 457.651C604.119 458.165 603.497 458.568 602.758 458.858C602.018 459.142 601.186 459.284 600.263 459.284Z" fill="black"/>
<path d="M542.202 246V227.818H553.104V229.771H544.403V235.915H552.287V237.868H544.403V246H542.202ZM558.686 227.818V246H556.59V227.818H558.686ZM568.063 246.284C566.832 246.284 565.752 245.991 564.822 245.405C563.899 244.819 563.177 244 562.656 242.946C562.141 241.893 561.884 240.661 561.884 239.253C561.884 237.832 562.141 236.592 562.656 235.533C563.177 234.474 563.899 233.651 564.822 233.065C565.752 232.479 566.832 232.186 568.063 232.186C569.294 232.186 570.371 232.479 571.294 233.065C572.224 233.651 572.946 234.474 573.461 235.533C573.981 236.592 574.242 237.832 574.242 239.253C574.242 240.661 573.981 241.893 573.461 242.946C572.946 244 572.224 244.819 571.294 245.405C570.371 245.991 569.294 246.284 568.063 246.284ZM568.063 244.402C568.998 244.402 569.767 244.162 570.371 243.683C570.975 243.203 571.422 242.573 571.712 241.792C572.002 241.011 572.147 240.164 572.147 239.253C572.147 238.341 572.002 237.492 571.712 236.705C571.422 235.918 570.975 235.281 570.371 234.796C569.767 234.311 568.998 234.068 568.063 234.068C567.128 234.068 566.358 234.311 565.755 234.796C565.151 235.281 564.704 235.918 564.414 236.705C564.124 237.492 563.979 238.341 563.979 239.253C563.979 240.164 564.124 241.011 564.414 241.792C564.704 242.573 565.151 243.203 565.755 243.683C566.358 244.162 567.128 244.402 568.063 244.402ZM577.44 246V232.364H579.464V234.423H579.606C579.855 233.749 580.305 233.201 580.956 232.781C581.607 232.361 582.341 232.151 583.157 232.151C583.311 232.151 583.504 232.154 583.734 232.159C583.965 232.165 584.14 232.174 584.258 232.186V234.317C584.187 234.299 584.024 234.272 583.77 234.237C583.521 234.195 583.258 234.175 582.98 234.175C582.317 234.175 581.725 234.314 581.204 234.592C580.689 234.864 580.281 235.243 579.979 235.728C579.683 236.208 579.535 236.755 579.535 237.371V246H577.44ZM592.044 246.284C590.73 246.284 589.597 245.994 588.644 245.414C587.697 244.828 586.966 244.011 586.451 242.964C585.942 241.91 585.688 240.685 585.688 239.288C585.688 237.892 585.942 236.661 586.451 235.595C586.966 234.524 587.682 233.689 588.6 233.092C589.523 232.488 590.6 232.186 591.831 232.186C592.541 232.186 593.243 232.304 593.935 232.541C594.628 232.778 595.258 233.163 595.826 233.695C596.394 234.222 596.847 234.92 597.184 235.79C597.522 236.661 597.69 237.732 597.69 239.004V239.892H587.179V238.081H595.56C595.56 237.312 595.406 236.625 595.098 236.021C594.796 235.418 594.364 234.941 593.802 234.592C593.246 234.243 592.589 234.068 591.831 234.068C590.997 234.068 590.274 234.275 589.665 234.69C589.061 235.098 588.597 235.631 588.271 236.288C587.946 236.945 587.783 237.649 587.783 238.401V239.608C587.783 240.638 587.96 241.511 588.315 242.227C588.676 242.937 589.177 243.479 589.816 243.852C590.455 244.219 591.198 244.402 592.044 244.402C592.595 244.402 593.092 244.325 593.536 244.171C593.985 244.011 594.373 243.775 594.699 243.461C595.024 243.141 595.276 242.745 595.453 242.271L597.477 242.839C597.264 243.526 596.906 244.13 596.403 244.651C595.9 245.165 595.279 245.568 594.539 245.858C593.799 246.142 592.967 246.284 592.044 246.284ZM602.973 237.797V246H600.878V232.364H602.902V234.494H603.079C603.399 233.802 603.884 233.246 604.535 232.825C605.186 232.399 606.027 232.186 607.057 232.186C607.98 232.186 608.788 232.375 609.48 232.754C610.173 233.127 610.711 233.695 611.096 234.459C611.481 235.216 611.673 236.175 611.673 237.335V246H609.578V237.477C609.578 236.406 609.3 235.571 608.743 234.974C608.187 234.37 607.424 234.068 606.453 234.068C605.784 234.068 605.186 234.213 604.66 234.503C604.139 234.793 603.727 235.216 603.426 235.773C603.124 236.329 602.973 237.004 602.973 237.797ZM621.041 246.284C619.763 246.284 618.662 245.982 617.739 245.379C616.816 244.775 616.105 243.943 615.608 242.884C615.111 241.824 614.862 240.614 614.862 239.253C614.862 237.868 615.117 236.646 615.626 235.586C616.141 234.521 616.857 233.689 617.774 233.092C618.698 232.488 619.775 232.186 621.006 232.186C621.965 232.186 622.829 232.364 623.598 232.719C624.368 233.074 624.998 233.571 625.489 234.21C625.98 234.849 626.285 235.595 626.404 236.447H624.308C624.149 235.826 623.794 235.276 623.243 234.796C622.699 234.311 621.965 234.068 621.041 234.068C620.225 234.068 619.508 234.281 618.893 234.707C618.283 235.128 617.807 235.722 617.464 236.492C617.126 237.255 616.958 238.152 616.958 239.182C616.958 240.235 617.123 241.153 617.455 241.934C617.792 242.715 618.266 243.322 618.875 243.754C619.491 244.186 620.213 244.402 621.041 244.402C621.586 244.402 622.08 244.307 622.524 244.118C622.968 243.929 623.344 243.656 623.651 243.301C623.959 242.946 624.178 242.52 624.308 242.023H626.404C626.285 242.828 625.992 243.553 625.525 244.198C625.063 244.837 624.45 245.346 623.687 245.725C622.929 246.098 622.048 246.284 621.041 246.284ZM635.184 246.284C633.87 246.284 632.736 245.994 631.784 245.414C630.837 244.828 630.106 244.011 629.591 242.964C629.082 241.91 628.827 240.685 628.827 239.288C628.827 237.892 629.082 236.661 629.591 235.595C630.106 234.524 630.822 233.689 631.739 233.092C632.662 232.488 633.74 232.186 634.971 232.186C635.681 232.186 636.382 232.304 637.075 232.541C637.767 232.778 638.398 233.163 638.966 233.695C639.534 234.222 639.987 234.92 640.324 235.79C640.661 236.661 640.83 237.732 640.83 239.004V239.892H630.319V238.081H638.699C638.699 237.312 638.546 236.625 638.238 236.021C637.936 235.418 637.504 234.941 636.942 234.592C636.385 234.243 635.728 234.068 634.971 234.068C634.136 234.068 633.414 234.275 632.805 234.69C632.201 235.098 631.736 235.631 631.411 236.288C631.085 236.945 630.922 237.649 630.922 238.401V239.608C630.922 240.638 631.1 241.511 631.455 242.227C631.816 242.937 632.316 243.479 632.955 243.852C633.595 244.219 634.337 244.402 635.184 244.402C635.734 244.402 636.231 244.325 636.675 244.171C637.125 244.011 637.513 243.775 637.838 243.461C638.164 243.141 638.415 242.745 638.593 242.271L640.617 242.839C640.404 243.526 640.046 244.13 639.543 244.651C639.04 245.165 638.418 245.568 637.678 245.858C636.939 246.142 636.107 246.284 635.184 246.284Z" fill="black"/>
<path d="M545.202 343.818H547.83L554.009 358.911H554.222L560.401 343.818H563.028V362H560.969V348.186H560.791L555.109 362H553.121L547.439 348.186H547.261V362H545.202V343.818ZM568.508 367.114C568.153 367.114 567.836 367.084 567.558 367.025C567.28 366.972 567.088 366.918 566.981 366.865L567.514 365.018C568.023 365.149 568.473 365.196 568.863 365.161C569.254 365.125 569.6 364.95 569.902 364.637C570.21 364.329 570.491 363.829 570.745 363.136L571.136 362.071L566.093 348.364H568.366L572.13 359.23H572.272L576.037 348.364H578.309L572.521 363.989C572.261 364.693 571.938 365.276 571.553 365.738C571.169 366.205 570.722 366.551 570.213 366.776C569.71 367.001 569.142 367.114 568.508 367.114ZM581.075 362V348.364H583.099V350.423H583.241C583.49 349.749 583.939 349.201 584.59 348.781C585.242 348.361 585.975 348.151 586.792 348.151C586.946 348.151 587.138 348.154 587.369 348.159C587.6 348.165 587.775 348.174 587.893 348.186V350.317C587.822 350.299 587.659 350.272 587.405 350.237C587.156 350.195 586.893 350.175 586.615 350.175C585.952 350.175 585.36 350.314 584.839 350.592C584.324 350.864 583.916 351.243 583.614 351.728C583.318 352.208 583.17 352.755 583.17 353.371V362H581.075ZM597.161 348.364V350.139H590.095V348.364H597.161ZM592.154 345.097H594.25V358.094C594.25 358.686 594.335 359.129 594.507 359.425C594.685 359.715 594.909 359.911 595.182 360.011C595.46 360.106 595.753 360.153 596.061 360.153C596.291 360.153 596.481 360.142 596.629 360.118C596.777 360.088 596.895 360.065 596.984 360.047L597.41 361.929C597.268 361.982 597.07 362.036 596.815 362.089C596.561 362.148 596.238 362.178 595.848 362.178C595.256 362.178 594.676 362.05 594.108 361.796C593.545 361.541 593.078 361.154 592.705 360.633C592.338 360.112 592.154 359.455 592.154 358.662V345.097ZM602.701 343.818V362H600.606V343.818H602.701ZM612.256 362.284C610.942 362.284 609.809 361.994 608.856 361.414C607.909 360.828 607.178 360.011 606.663 358.964C606.154 357.91 605.9 356.685 605.9 355.288C605.9 353.892 606.154 352.661 606.663 351.595C607.178 350.524 607.894 349.689 608.811 349.092C609.735 348.488 610.812 348.186 612.043 348.186C612.753 348.186 613.455 348.304 614.147 348.541C614.839 348.778 615.47 349.163 616.038 349.695C616.606 350.222 617.059 350.92 617.396 351.79C617.734 352.661 617.902 353.732 617.902 355.004V355.892H607.391V354.081H615.772C615.772 353.312 615.618 352.625 615.31 352.021C615.008 351.418 614.576 350.941 614.014 350.592C613.458 350.243 612.801 350.068 612.043 350.068C611.208 350.068 610.486 350.275 609.877 350.69C609.273 351.098 608.808 351.631 608.483 352.288C608.157 352.945 607.995 353.649 607.995 354.401V355.608C607.995 356.638 608.172 357.511 608.527 358.227C608.888 358.937 609.388 359.479 610.028 359.852C610.667 360.219 611.41 360.402 612.256 360.402C612.806 360.402 613.304 360.325 613.748 360.171C614.197 360.011 614.585 359.775 614.911 359.461C615.236 359.141 615.488 358.745 615.665 358.271L617.689 358.839C617.476 359.526 617.118 360.13 616.615 360.651C616.112 361.165 615.491 361.568 614.751 361.858C614.011 362.142 613.179 362.284 612.256 362.284ZM628.405 362V343.818H634.761C636.028 343.818 637.073 344.037 637.895 344.475C638.718 344.907 639.33 345.49 639.733 346.224C640.135 346.952 640.337 347.76 640.337 348.648C640.337 349.429 640.198 350.074 639.919 350.583C639.647 351.092 639.286 351.495 638.836 351.79C638.392 352.086 637.91 352.305 637.389 352.447V352.625C637.946 352.661 638.505 352.856 639.067 353.211C639.629 353.566 640.1 354.075 640.479 354.738C640.857 355.401 641.047 356.212 641.047 357.17C641.047 358.082 640.84 358.902 640.425 359.63C640.011 360.358 639.357 360.935 638.463 361.361C637.57 361.787 636.407 362 634.974 362H628.405ZM630.607 360.047H634.974C636.413 360.047 637.434 359.769 638.037 359.212C638.647 358.65 638.952 357.969 638.952 357.17C638.952 356.555 638.795 355.987 638.481 355.466C638.167 354.939 637.721 354.519 637.141 354.205C636.561 353.886 635.874 353.726 635.081 353.726H630.607V360.047ZM630.607 351.808H634.69C635.353 351.808 635.951 351.678 636.484 351.418C637.022 351.157 637.448 350.79 637.762 350.317C638.082 349.843 638.241 349.287 638.241 348.648C638.241 347.849 637.963 347.171 637.407 346.615C636.851 346.052 635.969 345.771 634.761 345.771H630.607V351.808ZM650.098 362.284C648.784 362.284 647.651 361.994 646.698 361.414C645.751 360.828 645.02 360.011 644.505 358.964C643.996 357.91 643.741 356.685 643.741 355.288C643.741 353.892 643.996 352.661 644.505 351.595C645.02 350.524 645.736 349.689 646.653 349.092C647.577 348.488 648.654 348.186 649.885 348.186C650.595 348.186 651.296 348.304 651.989 348.541C652.681 348.778 653.312 349.163 653.88 349.695C654.448 350.222 654.901 350.92 655.238 351.79C655.575 352.661 655.744 353.732 655.744 355.004V355.892H645.233V354.081H653.613C653.613 353.312 653.46 352.625 653.152 352.021C652.85 351.418 652.418 350.941 651.856 350.592C651.299 350.243 650.642 350.068 649.885 350.068C649.05 350.068 648.328 350.275 647.719 350.69C647.115 351.098 646.65 351.631 646.325 352.288C645.999 352.945 645.836 353.649 645.836 354.401V355.608C645.836 356.638 646.014 357.511 646.369 358.227C646.73 358.937 647.23 359.479 647.869 359.852C648.509 360.219 649.251 360.402 650.098 360.402C650.648 360.402 651.145 360.325 651.589 360.171C652.039 360.011 652.427 359.775 652.752 359.461C653.078 359.141 653.329 358.745 653.507 358.271L655.531 358.839C655.318 359.526 654.96 360.13 654.457 360.651C653.954 361.165 653.332 361.568 652.593 361.858C651.853 362.142 651.021 362.284 650.098 362.284ZM662.944 362.32C662.08 362.32 661.296 362.157 660.591 361.831C659.887 361.5 659.328 361.023 658.914 360.402C658.499 359.775 658.292 359.017 658.292 358.129C658.292 357.348 658.446 356.715 658.754 356.229C659.061 355.738 659.473 355.353 659.988 355.075C660.503 354.797 661.071 354.59 661.692 354.454C662.32 354.312 662.95 354.199 663.583 354.116C664.412 354.01 665.084 353.93 665.599 353.877C666.119 353.818 666.498 353.72 666.735 353.584C666.978 353.448 667.099 353.211 667.099 352.874V352.803C667.099 351.927 666.859 351.246 666.38 350.761C665.906 350.275 665.187 350.033 664.222 350.033C663.222 350.033 662.438 350.252 661.87 350.69C661.302 351.128 660.902 351.595 660.671 352.092L658.683 351.382C659.038 350.554 659.511 349.908 660.103 349.447C660.701 348.979 661.352 348.654 662.056 348.47C662.767 348.281 663.465 348.186 664.151 348.186C664.589 348.186 665.093 348.239 665.661 348.346C666.235 348.446 666.788 348.657 667.321 348.976C667.859 349.296 668.306 349.778 668.661 350.423C669.017 351.068 669.194 351.933 669.194 353.016V362H667.099V360.153H666.992C666.85 360.449 666.614 360.766 666.282 361.103C665.951 361.441 665.51 361.728 664.959 361.964C664.409 362.201 663.737 362.32 662.944 362.32ZM663.264 360.438C664.092 360.438 664.791 360.275 665.359 359.949C665.933 359.624 666.365 359.203 666.655 358.689C666.951 358.174 667.099 357.632 667.099 357.064V355.146C667.01 355.253 666.815 355.35 666.513 355.439C666.217 355.522 665.874 355.596 665.483 355.661C665.098 355.72 664.723 355.774 664.356 355.821C663.995 355.862 663.702 355.898 663.477 355.928C662.932 355.999 662.423 356.114 661.95 356.274C661.482 356.428 661.103 356.661 660.813 356.975C660.529 357.283 660.387 357.703 660.387 358.236C660.387 358.964 660.657 359.514 661.195 359.887C661.74 360.254 662.429 360.438 663.264 360.438ZM678.558 362.284C677.28 362.284 676.179 361.982 675.255 361.379C674.332 360.775 673.622 359.943 673.125 358.884C672.628 357.824 672.379 356.614 672.379 355.253C672.379 353.868 672.633 352.646 673.142 351.586C673.657 350.521 674.374 349.689 675.291 349.092C676.214 348.488 677.291 348.186 678.522 348.186C679.481 348.186 680.345 348.364 681.115 348.719C681.884 349.074 682.515 349.571 683.006 350.21C683.497 350.849 683.802 351.595 683.92 352.447H681.825C681.665 351.826 681.31 351.276 680.76 350.796C680.215 350.311 679.481 350.068 678.558 350.068C677.741 350.068 677.025 350.281 676.41 350.707C675.8 351.128 675.323 351.722 674.98 352.492C674.643 353.255 674.474 354.152 674.474 355.182C674.474 356.235 674.64 357.153 674.971 357.934C675.309 358.715 675.782 359.322 676.392 359.754C677.007 360.186 677.729 360.402 678.558 360.402C679.102 360.402 679.597 360.307 680.041 360.118C680.484 359.929 680.86 359.656 681.168 359.301C681.476 358.946 681.695 358.52 681.825 358.023H683.92C683.802 358.828 683.509 359.553 683.041 360.198C682.58 360.837 681.967 361.346 681.204 361.725C680.446 362.098 679.564 362.284 678.558 362.284ZM689.078 353.797V362H686.983V343.818H689.078V350.494H689.256C689.575 349.79 690.055 349.231 690.694 348.816C691.339 348.396 692.197 348.186 693.269 348.186C694.198 348.186 695.012 348.373 695.71 348.745C696.408 349.112 696.95 349.678 697.335 350.441C697.725 351.199 697.921 352.163 697.921 353.335V362H695.825V353.477C695.825 352.394 695.544 351.557 694.982 350.965C694.426 350.367 693.653 350.068 692.665 350.068C691.978 350.068 691.363 350.213 690.818 350.503C690.28 350.793 689.854 351.216 689.54 351.773C689.232 352.329 689.078 353.004 689.078 353.797Z" fill="black"/>
<circle cx="204.511" cy="148.511" r="9.01136" fill="#FFE587" stroke="black"/>
<path d="M599.454 589H596.079L605.122 571.545H609.025L612.281 589H608.906L606.562 575.125H606.426L599.454 589ZM600.699 582.156H609.903L609.477 584.696H600.272L600.699 582.156ZM622.342 575.909L621.941 578.295H614.424L614.816 575.909H622.342ZM617.186 572.773H620.271L618.225 585.062C618.163 585.477 618.174 585.795 618.26 586.017C618.35 586.233 618.495 586.381 618.694 586.46C618.899 586.54 619.129 586.58 619.385 586.58C619.572 586.58 619.748 586.565 619.913 586.537C620.078 586.503 620.208 586.477 620.305 586.46L620.441 588.872C620.254 588.929 620.001 588.991 619.683 589.06C619.37 589.128 618.995 589.168 618.558 589.179C617.774 589.196 617.092 589.077 616.512 588.821C615.939 588.56 615.518 588.159 615.251 587.619C614.99 587.074 614.93 586.392 615.072 585.574L617.186 572.773ZM629.005 571.545L626.107 589H623.022L625.919 571.545H629.005ZM633.012 589.264C632.183 589.264 631.461 589.116 630.848 588.821C630.234 588.52 629.782 588.077 629.493 587.491C629.208 586.906 629.137 586.185 629.279 585.327C629.404 584.588 629.643 583.977 629.995 583.494C630.353 583.011 630.791 582.625 631.308 582.335C631.831 582.04 632.399 581.818 633.012 581.67C633.632 581.523 634.262 581.415 634.904 581.347C635.689 581.267 636.322 581.193 636.805 581.125C637.294 581.057 637.66 580.955 637.904 580.818C638.149 580.676 638.297 580.46 638.348 580.17V580.119C638.45 579.477 638.348 578.98 638.041 578.628C637.734 578.276 637.223 578.099 636.507 578.099C635.757 578.099 635.126 578.264 634.615 578.594C634.103 578.923 633.731 579.312 633.498 579.761L630.703 579.352C631.055 578.557 631.538 577.892 632.152 577.358C632.765 576.818 633.473 576.415 634.274 576.148C635.081 575.875 635.941 575.739 636.856 575.739C637.481 575.739 638.092 575.812 638.689 575.96C639.291 576.108 639.822 576.352 640.282 576.693C640.748 577.028 641.089 577.486 641.305 578.065C641.527 578.645 641.564 579.369 641.416 580.239L639.958 589H636.993L637.299 587.202H637.197C636.953 587.565 636.635 587.906 636.243 588.224C635.85 588.537 635.385 588.79 634.845 588.983C634.305 589.17 633.694 589.264 633.012 589.264ZM634.18 586.997C634.799 586.997 635.356 586.875 635.85 586.631C636.345 586.381 636.751 586.051 637.069 585.642C637.387 585.233 637.586 584.787 637.666 584.304L637.922 582.761C637.808 582.841 637.632 582.915 637.393 582.983C637.154 583.051 636.887 583.111 636.592 583.162C636.302 583.213 636.015 583.259 635.731 583.298C635.447 583.338 635.203 583.372 634.998 583.401C634.527 583.463 634.095 583.565 633.703 583.707C633.316 583.849 632.995 584.048 632.74 584.304C632.49 584.554 632.333 584.878 632.271 585.276C632.18 585.838 632.314 586.267 632.672 586.562C633.029 586.852 633.532 586.997 634.18 586.997ZM647.424 581.33L646.163 589H643.069L645.251 575.909H648.208L647.833 578.134H647.995C648.404 577.401 648.978 576.818 649.717 576.386C650.456 575.955 651.316 575.739 652.299 575.739C653.191 575.739 653.941 575.932 654.549 576.318C655.157 576.699 655.589 577.259 655.845 577.997C656.1 578.73 656.14 579.619 655.964 580.665L654.566 589H651.481L652.785 581.142C652.933 580.273 652.822 579.591 652.453 579.097C652.089 578.597 651.504 578.347 650.697 578.347C650.157 578.347 649.66 578.466 649.206 578.705C648.751 578.937 648.368 579.276 648.055 579.719C647.748 580.162 647.538 580.699 647.424 581.33ZM666.404 575.909L666.004 578.295H658.487L658.879 575.909H666.404ZM661.248 572.773H664.333L662.288 585.062C662.225 585.477 662.237 585.795 662.322 586.017C662.413 586.233 662.558 586.381 662.757 586.46C662.961 586.54 663.191 586.58 663.447 586.58C663.635 586.58 663.811 586.565 663.975 586.537C664.14 586.503 664.271 586.477 664.368 586.46L664.504 588.872C664.316 588.929 664.064 588.991 663.745 589.06C663.433 589.128 663.058 589.168 662.62 589.179C661.836 589.196 661.154 589.077 660.575 588.821C660.001 588.56 659.581 588.159 659.314 587.619C659.052 587.074 658.993 586.392 659.135 585.574L661.248 572.773ZM666.803 589L668.985 575.909H672.07L669.888 589H666.803ZM670.979 574.034C670.485 574.034 670.076 573.869 669.752 573.54C669.428 573.21 669.286 572.815 669.326 572.355C669.365 571.895 669.573 571.5 669.948 571.17C670.328 570.841 670.763 570.676 671.252 570.676C671.746 570.676 672.152 570.841 672.471 571.17C672.794 571.5 672.936 571.895 672.897 572.355C672.863 572.815 672.655 573.21 672.275 573.54C671.9 573.869 671.468 574.034 670.979 574.034ZM678.737 589.256C677.43 589.256 676.356 588.969 675.515 588.395C674.674 587.821 674.086 587.028 673.751 586.017C673.422 585 673.368 583.83 673.589 582.506C673.805 581.176 674.251 580.003 674.927 578.986C675.609 577.963 676.467 577.168 677.501 576.599C678.535 576.026 679.691 575.739 680.97 575.739C682.032 575.739 682.939 575.935 683.689 576.327C684.444 576.713 685.007 577.261 685.376 577.972C685.751 578.676 685.896 579.5 685.811 580.443H682.853C682.842 579.812 682.646 579.287 682.265 578.866C681.885 578.44 681.328 578.227 680.595 578.227C679.958 578.227 679.373 578.398 678.839 578.739C678.305 579.074 677.853 579.557 677.484 580.188C677.115 580.818 676.859 581.574 676.717 582.455C676.569 583.347 676.572 584.114 676.725 584.756C676.885 585.392 677.172 585.884 677.586 586.23C678.007 586.571 678.538 586.741 679.18 586.741C679.635 586.741 680.058 586.656 680.45 586.486C680.842 586.31 681.186 586.057 681.481 585.727C681.782 585.398 682.018 584.997 682.189 584.526H685.137C684.904 585.452 684.49 586.273 683.893 586.989C683.302 587.699 682.569 588.256 681.694 588.659C680.819 589.057 679.833 589.256 678.737 589.256ZM621.595 609.477C621.288 611.33 620.683 612.909 619.78 614.216C618.882 615.517 617.786 616.514 616.49 617.207C615.2 617.895 613.811 618.239 612.322 618.239C610.76 618.239 609.419 617.875 608.3 617.148C607.18 616.415 606.374 615.366 605.879 614.003C605.391 612.639 605.305 611.003 605.624 609.094C605.93 607.247 606.533 605.668 607.43 604.355C608.328 603.043 609.428 602.04 610.729 601.347C612.03 600.653 613.433 600.307 614.939 600.307C616.49 600.307 617.82 600.673 618.928 601.406C620.041 602.134 620.842 603.182 621.331 604.551C621.825 605.92 621.913 607.562 621.595 609.477ZM618.484 609.094C618.695 607.804 618.675 606.716 618.425 605.83C618.18 604.943 617.746 604.276 617.121 603.827C616.496 603.372 615.726 603.145 614.811 603.145C613.822 603.145 612.908 603.392 612.067 603.886C611.232 604.375 610.521 605.091 609.936 606.034C609.357 606.977 608.959 608.125 608.743 609.477C608.516 610.773 608.53 611.861 608.786 612.741C609.041 613.622 609.484 614.287 610.115 614.736C610.746 615.179 611.516 615.401 612.425 615.401C613.408 615.401 614.317 615.156 615.152 614.668C615.987 614.179 616.695 613.466 617.274 612.528C617.859 611.591 618.263 610.446 618.484 609.094ZM628.71 618.256C627.403 618.256 626.329 617.969 625.488 617.395C624.647 616.821 624.059 616.028 623.724 615.017C623.394 614 623.34 612.83 623.562 611.506C623.778 610.176 624.224 609.003 624.9 607.986C625.582 606.963 626.44 606.168 627.474 605.599C628.508 605.026 629.664 604.739 630.942 604.739C632.005 604.739 632.911 604.935 633.661 605.327C634.417 605.713 634.979 606.261 635.349 606.972C635.724 607.676 635.869 608.5 635.783 609.443H632.826C632.815 608.812 632.619 608.287 632.238 607.866C631.857 607.44 631.3 607.227 630.567 607.227C629.931 607.227 629.346 607.398 628.812 607.739C628.278 608.074 627.826 608.557 627.457 609.188C627.087 609.818 626.832 610.574 626.69 611.455C626.542 612.347 626.545 613.114 626.698 613.756C626.857 614.392 627.144 614.884 627.559 615.23C627.979 615.571 628.511 615.741 629.153 615.741C629.607 615.741 630.031 615.656 630.423 615.486C630.815 615.31 631.158 615.057 631.454 614.727C631.755 614.398 631.991 613.997 632.161 613.526H635.11C634.877 614.452 634.462 615.273 633.866 615.989C633.275 616.699 632.542 617.256 631.667 617.659C630.792 618.057 629.806 618.256 628.71 618.256ZM642.646 618.256C641.334 618.256 640.249 617.983 639.391 617.438C638.533 616.886 637.93 616.108 637.584 615.102C637.243 614.091 637.186 612.901 637.413 611.531C637.635 610.185 638.087 609.003 638.768 607.986C639.45 606.963 640.303 606.168 641.325 605.599C642.354 605.026 643.49 604.739 644.734 604.739C645.541 604.739 646.283 604.869 646.959 605.131C647.635 605.386 648.206 605.784 648.672 606.324C649.138 606.864 649.459 607.551 649.635 608.386C649.811 609.216 649.803 610.205 649.609 611.352L649.464 612.298H638.726L639.058 610.219H646.831C646.933 609.628 646.899 609.102 646.729 608.642C646.558 608.176 646.274 607.81 645.876 607.543C645.479 607.276 644.982 607.142 644.385 607.142C643.777 607.142 643.209 607.298 642.68 607.611C642.158 607.918 641.717 608.315 641.359 608.804C641.001 609.293 640.774 609.807 640.678 610.347L640.328 612.341C640.203 613.159 640.232 613.827 640.413 614.344C640.595 614.861 640.913 615.241 641.368 615.486C641.822 615.73 642.396 615.852 643.089 615.852C643.544 615.852 643.964 615.79 644.351 615.665C644.737 615.54 645.081 615.352 645.382 615.102C645.689 614.847 645.945 614.534 646.149 614.165L648.97 614.489C648.658 615.25 648.2 615.915 647.598 616.483C646.996 617.045 646.274 617.483 645.433 617.795C644.598 618.102 643.669 618.256 642.646 618.256ZM654.868 618.264C654.038 618.264 653.317 618.116 652.703 617.821C652.089 617.52 651.638 617.077 651.348 616.491C651.064 615.906 650.993 615.185 651.135 614.327C651.26 613.588 651.499 612.977 651.851 612.494C652.209 612.011 652.646 611.625 653.163 611.335C653.686 611.04 654.254 610.818 654.868 610.67C655.487 610.523 656.118 610.415 656.76 610.347C657.544 610.267 658.178 610.193 658.661 610.125C659.149 610.057 659.516 609.955 659.76 609.818C660.004 609.676 660.152 609.46 660.203 609.17V609.119C660.305 608.477 660.203 607.98 659.896 607.628C659.589 607.276 659.078 607.099 658.362 607.099C657.612 607.099 656.982 607.264 656.47 607.594C655.959 607.923 655.587 608.312 655.354 608.761L652.558 608.352C652.911 607.557 653.393 606.892 654.007 606.358C654.621 605.818 655.328 605.415 656.129 605.148C656.936 604.875 657.797 604.739 658.712 604.739C659.337 604.739 659.947 604.812 660.544 604.96C661.146 605.108 661.678 605.352 662.138 605.693C662.604 606.028 662.945 606.486 663.161 607.065C663.382 607.645 663.419 608.369 663.271 609.239L661.814 618H658.848L659.155 616.202H659.053C658.808 616.565 658.49 616.906 658.098 617.224C657.706 617.537 657.24 617.79 656.7 617.983C656.161 618.17 655.55 618.264 654.868 618.264ZM656.036 615.997C656.655 615.997 657.212 615.875 657.706 615.631C658.2 615.381 658.607 615.051 658.925 614.642C659.243 614.233 659.442 613.787 659.521 613.304L659.777 611.761C659.663 611.841 659.487 611.915 659.249 611.983C659.01 612.051 658.743 612.111 658.447 612.162C658.158 612.213 657.871 612.259 657.587 612.298C657.303 612.338 657.058 612.372 656.854 612.401C656.382 612.463 655.95 612.565 655.558 612.707C655.172 612.849 654.851 613.048 654.595 613.304C654.345 613.554 654.189 613.878 654.126 614.276C654.036 614.838 654.169 615.267 654.527 615.562C654.885 615.852 655.388 615.997 656.036 615.997ZM669.28 610.33L668.018 618H664.925L667.107 604.909H670.064L669.689 607.134H669.851C670.26 606.401 670.834 605.818 671.572 605.386C672.311 604.955 673.172 604.739 674.155 604.739C675.047 604.739 675.797 604.932 676.405 605.318C677.013 605.699 677.445 606.259 677.7 606.997C677.956 607.73 677.996 608.619 677.82 609.665L676.422 618H673.337L674.641 610.142C674.788 609.273 674.678 608.591 674.308 608.097C673.945 607.597 673.359 607.347 672.553 607.347C672.013 607.347 671.516 607.466 671.061 607.705C670.607 607.937 670.223 608.276 669.911 608.719C669.604 609.162 669.393 609.699 669.28 610.33Z" fill="#017D83"/>
<defs>
<filter id="filter0_d_147_81" x="60.4648" y="81.2617" width="719.498" height="570.547" filterUnits="userSpaceOnUse" color-interpolation-filters="sRGB">
<feFlood flood-opacity="0" result="BackgroundImageFix"/>
<feColorMatrix in="SourceAlpha" type="matrix" values="0 0 0 0 0 0 0 0 0 0 0 0 0 0 0 0 0 0 127 0" result="hardAlpha"/>
<feOffset dy="4"/>
<feGaussianBlur stdDeviation="2"/>
<feComposite in2="hardAlpha" operator="out"/>
<feColorMatrix type="matrix" values="0 0 0 0 0 0 0 0 0 0 0 0 0 0 0 0 0 0 0.25 0"/>
<feBlend mode="normal" in2="BackgroundImageFix" result="effect1_dropShadow_147_81"/>
<feBlend mode="normal" in="SourceGraphic" in2="effect1_dropShadow_147_81" result="shape"/>
</filter>
</defs>
</svg>
