<svg width="1014" height="446" viewBox="0 0 1014 446" fill="none" xmlns="http://www.w3.org/2000/svg">
<rect x="0.5" y="0.5" width="1013" height="445" rx="35.5" fill="#97DCFF" stroke="#717171"/>
<g filter="url(#filter0_d_143_434)">
<path d="M322.5 135.5H187L184.5 138C184.167 138.333 183.4 139.2 183 140C182.6 140.8 180.833 140.333 180 140L177.5 138L180 134.5L178.5 135.5L175.5 134.5H173C173.833 135.5 175.5 137.6 175.5 138C175.5 138.4 174.833 140.5 174.5 141.5L173 145L175.5 149L176.5 152.5C176 153.167 174.9 154.8 174.5 156C174.1 157.2 173.333 156.5 173 156L169 154.5L166.5 156V158.5L169 161L173 164C174.6 165.2 173.667 165.833 173 166C171.833 166.5 169.4 167.6 169 168C168.6 168.4 165.833 167.833 164.5 167.5L159.5 166L158 167.5L159.5 170C160.833 171 163.7 173.2 164.5 174C165.3 174.8 167.5 176.667 168.5 177.5C168.167 178.667 167.3 181.2 166.5 182C165.7 182.8 164.167 184 163.5 184.5L160.5 187V191C159.667 192 157.9 194.2 157.5 195C157.1 195.8 155.667 197.333 155 198L156.5 202.5L157.5 204.5L161 206.5L162.5 208.5L163.5 211.5C162.667 211.833 160.9 212.5 160.5 212.5C160 212.5 158.5 211 158 210.5C157.5 210 156 209.5 155.5 209.5H153.5C152.5 209.5 152 210.5 151 211C150.2 211.4 150.333 212.833 150.5 213.5L152 215C153.333 215.667 156.1 217 156.5 217C156.9 217 157.333 219 157.5 220L155 221.5C154.167 221.333 152.4 221 152 221C151.5 221 150 221 149.5 221.5C149.1 221.9 149 223 149 223.5L147.5 224.5L146.5 227.5L145 228.5H141.5L137 227.5H136L132.5 231.5V236.5L136 240.5L138 239.5L141 238.5L142.5 239.5L141 242.5L137 245.5L132.5 247V250.5C132.5 250.9 134.833 251.333 136 251.5L137 254L136 257.5C135.167 256.833 133.3 255.5 132.5 255.5C131.5 255.5 130 252.5 128.5 252.5C127 252.5 125.5 252 125.5 252.5C125.5 252.9 123.5 254.667 122.5 255.5L123.5 259.5L125.5 262.5C125.167 263.667 124.3 266.5 123.5 268.5C122.5 271 122 269.5 121 269.5C120 269.5 121 267 121 266C121 265.2 120.333 263.333 120 262.5H116.5L114 265L111 268.5V273.5L112 275C112.667 275 114 274.7 114 273.5V271L116.5 270.5L119 272L118.5 277L117 281L116 282.5C114.833 282.833 112.4 283.6 112 284C111.6 284.4 111.167 285.5 111 286C111.667 286.833 113.1 288.6 113.5 289C113.9 289.4 115.333 289.5 116 289.5C116.667 290 118.2 291.1 119 291.5C119.8 291.9 119.333 293.667 119 294.5C118 295.5 116 297.6 116 298C116 298.5 118 299.5 118.5 300C118.9 300.4 119.667 302.5 120 303.5L119 306C118.333 305.833 116.9 305.5 116.5 305.5C116.1 305.5 114.333 305.167 113.5 305L110 306V309L109 312.5L108 315.5C107.667 316 106.9 317 106.5 317H103C102.6 317 100.833 316 100 315.5L99 316L97.5 317.5V321L696 322C697.167 313 699.5 294.8 699.5 294C699.5 293.2 700.833 292.333 701.5 292L705.5 288L708.5 289.5L712 291C713.833 290.5 717.9 289.5 719.5 289.5C721.1 289.5 725.167 286.167 727 284.5V282L725 278L728.5 274.5L727 269.5L728.5 268L731.5 265L734.5 262.5H738L740.5 257L744.5 255.5H747.5L750.5 252.5L754 251H759.5H762L768.5 249.5L771.5 251H779L782 247.5L785 246L789 244L794 240H798L801 236.5L805 231H809.5C810 230.833 811.1 230.1 811.5 228.5C811.9 226.9 813 226.5 813.5 226.5L819 225H827.5L835 220.5L839 213L838 210.5L837 208.5L838 206L839.5 204.5L842 204H844.5L846.5 206.5H848.5L850 203.5L851.5 198L852.5 197L864.5 190H866L869.5 192.5V194L867.5 196V197.5L868 201.5L871 203L874.5 202.5L882.5 197.5L885 193L887 189L888.5 187.5L891 185.5L893 185L893.5 183.5H896C896.5 183 897.6 182 898 182C898.4 182 900.833 181.333 902 181L905 180L907 178.5L910 180L911.5 179L914.5 180L915.5 184.5H920C922.167 183.5 926.6 181.4 927 181C927.4 180.6 932.167 172.167 934.5 168L937.5 162L940.5 157.5L945.5 154.5L949 153L951 154.5L954.5 155.5L958 156V154.5L956.5 153L957 151.5L955.5 149.5L955 146.5L957 145C957.167 143.833 957.5 141.4 957.5 141C957.5 140.6 958.833 139.833 959.5 139.5L958.5 131L959.5 128L963 122.5L962 122L937.5 121L935.5 123.5H801H766.5H762L759.5 125L674 123.5L619 120H599.5L587.5 120.5H575L539 120L491.5 116.5H477.5L474.5 117L473 119H471.5L470 117.5L467 117L342.5 119L343.5 115.5L343 115L322.5 113V121.5L325 131.5L322.5 135.5Z" fill="#FFD597"/>
<path d="M322.5 135.5H187L184.5 138C184.167 138.333 183.4 139.2 183 140C182.6 140.8 180.833 140.333 180 140L177.5 138L180 134.5L178.5 135.5L175.5 134.5H173C173.833 135.5 175.5 137.6 175.5 138C175.5 138.4 174.833 140.5 174.5 141.5L173 145L175.5 149L176.5 152.5C176 153.167 174.9 154.8 174.5 156C174.1 157.2 173.333 156.5 173 156L169 154.5L166.5 156V158.5L169 161L173 164C174.6 165.2 173.667 165.833 173 166C171.833 166.5 169.4 167.6 169 168C168.6 168.4 165.833 167.833 164.5 167.5L159.5 166L158 167.5L159.5 170C160.833 171 163.7 173.2 164.5 174C165.3 174.8 167.5 176.667 168.5 177.5C168.167 178.667 167.3 181.2 166.5 182C165.7 182.8 164.167 184 163.5 184.5L160.5 187V191C159.667 192 157.9 194.2 157.5 195C157.1 195.8 155.667 197.333 155 198L156.5 202.5L157.5 204.5L161 206.5L162.5 208.5L163.5 211.5C162.667 211.833 160.9 212.5 160.5 212.5C160 212.5 158.5 211 158 210.5C157.5 210 156 209.5 155.5 209.5H153.5C152.5 209.5 152 210.5 151 211C150.2 211.4 150.333 212.833 150.5 213.5L152 215C153.333 215.667 156.1 217 156.5 217C156.9 217 157.333 219 157.5 220L155 221.5C154.167 221.333 152.4 221 152 221C151.5 221 150 221 149.5 221.5C149.1 221.9 149 223 149 223.5L147.5 224.5L146.5 227.5L145 228.5H141.5L137 227.5H136L132.5 231.5V236.5L136 240.5L138 239.5L141 238.5L142.5 239.5L141 242.5L137 245.5L132.5 247V250.5C132.5 250.9 134.833 251.333 136 251.5L137 254L136 257.5C135.167 256.833 133.3 255.5 132.5 255.5C131.5 255.5 130 252.5 128.5 252.5C127 252.5 125.5 252 125.5 252.5C125.5 252.9 123.5 254.667 122.5 255.5L123.5 259.5L125.5 262.5C125.167 263.667 124.3 266.5 123.5 268.5C122.5 271 122 269.5 121 269.5C120 269.5 121 267 121 266C121 265.2 120.333 263.333 120 262.5H116.5L114 265L111 268.5V273.5L112 275C112.667 275 114 274.7 114 273.5V271L116.5 270.5L119 272L118.5 277L117 281L116 282.5C114.833 282.833 112.4 283.6 112 284C111.6 284.4 111.167 285.5 111 286C111.667 286.833 113.1 288.6 113.5 289C113.9 289.4 115.333 289.5 116 289.5C116.667 290 118.2 291.1 119 291.5C119.8 291.9 119.333 293.667 119 294.5C118 295.5 116 297.6 116 298C116 298.5 118 299.5 118.5 300C118.9 300.4 119.667 302.5 120 303.5L119 306C118.333 305.833 116.9 305.5 116.5 305.5C116.1 305.5 114.333 305.167 113.5 305L110 306V309L109 312.5L108 315.5C107.667 316 106.9 317 106.5 317H103C102.6 317 100.833 316 100 315.5L99 316L97.5 317.5V321L696 322C697.167 313 699.5 294.8 699.5 294C699.5 293.2 700.833 292.333 701.5 292L705.5 288L708.5 289.5L712 291C713.833 290.5 717.9 289.5 719.5 289.5C721.1 289.5 725.167 286.167 727 284.5V282L725 278L728.5 274.5L727 269.5L728.5 268L731.5 265L734.5 262.5H738L740.5 257L744.5 255.5H747.5L750.5 252.5L754 251H759.5H762L768.5 249.5L771.5 251H779L782 247.5L785 246L789 244L794 240H798L801 236.5L805 231H809.5C810 230.833 811.1 230.1 811.5 228.5C811.9 226.9 813 226.5 813.5 226.5L819 225H827.5L835 220.5L839 213L838 210.5L837 208.5L838 206L839.5 204.5L842 204H844.5L846.5 206.5H848.5L850 203.5L851.5 198L852.5 197L864.5 190H866L869.5 192.5V194L867.5 196V197.5L868 201.5L871 203L874.5 202.5L882.5 197.5L885 193L887 189L888.5 187.5L891 185.5L893 185L893.5 183.5H896C896.5 183 897.6 182 898 182C898.4 182 900.833 181.333 902 181L905 180L907 178.5L910 180L911.5 179L914.5 180L915.5 184.5H920C922.167 183.5 926.6 181.4 927 181C927.4 180.6 932.167 172.167 934.5 168L937.5 162L940.5 157.5L945.5 154.5L949 153L951 154.5L954.5 155.5L958 156V154.5L956.5 153L957 151.5L955.5 149.5L955 146.5L957 145C957.167 143.833 957.5 141.4 957.5 141C957.5 140.6 958.833 139.833 959.5 139.5L958.5 131L959.5 128L963 122.5L962 122L937.5 121L935.5 123.5H801H766.5H762L759.5 125L674 123.5L619 120H599.5L587.5 120.5H575L539 120L491.5 116.5H477.5L474.5 117L473 119H471.5L470 117.5L467 117L342.5 119L343.5 115.5L343 115L322.5 113V121.5L325 131.5L322.5 135.5Z" stroke="black"/>
</g>
<path d="M499.722 91V73.5455H502.884V81.5653H503.097L509.906 73.5455H513.767L507.017 81.3778L513.827 91H510.026L504.818 83.517L502.884 85.8011V91H499.722ZM514.771 73.5455H518.342L522.612 81.267H522.782L527.052 73.5455H530.623L524.273 84.4886V91H521.12V84.4886L514.771 73.5455Z" fill="#005A5E"/>
<path d="M883.057 71.5455L887.599 85.2841H887.778L892.312 71.5455H895.79L889.636 89H885.733L879.588 71.5455H883.057ZM898.291 89H894.916L901.061 71.5455H904.964L911.118 89H907.743L903.081 75.125H902.945L898.291 89ZM898.402 82.1562H907.607V84.696H898.402V82.1562Z" fill="#005A5E"/>
<path d="M873.065 274.545V292H870.253L862.028 280.111H861.884V292H858.722V274.545H861.551L869.767 286.443H869.92V274.545H873.065ZM891.451 280.435H888.263C888.173 279.912 888.005 279.449 887.761 279.045C887.516 278.636 887.212 278.29 886.849 278.006C886.485 277.722 886.07 277.509 885.604 277.366C885.144 277.219 884.647 277.145 884.113 277.145C883.164 277.145 882.323 277.384 881.59 277.861C880.857 278.332 880.283 279.026 879.869 279.94C879.454 280.849 879.246 281.96 879.246 283.273C879.246 284.608 879.454 285.733 879.869 286.648C880.289 287.557 880.863 288.244 881.59 288.71C882.323 289.17 883.161 289.401 884.104 289.401C884.627 289.401 885.116 289.332 885.57 289.196C886.031 289.054 886.442 288.847 886.806 288.574C887.175 288.301 887.485 287.966 887.735 287.568C887.991 287.17 888.167 286.716 888.263 286.205L891.451 286.222C891.332 287.051 891.073 287.83 890.675 288.557C890.283 289.284 889.769 289.926 889.133 290.483C888.496 291.034 887.752 291.466 886.9 291.778C886.048 292.085 885.102 292.239 884.062 292.239C882.528 292.239 881.158 291.884 879.954 291.173C878.749 290.463 877.8 289.438 877.107 288.097C876.414 286.756 876.067 285.148 876.067 283.273C876.067 281.392 876.417 279.784 877.116 278.449C877.815 277.108 878.766 276.082 879.971 275.372C881.175 274.662 882.539 274.307 884.062 274.307C885.033 274.307 885.937 274.443 886.772 274.716C887.607 274.989 888.352 275.389 889.005 275.918C889.658 276.44 890.195 277.082 890.616 277.844C891.042 278.599 891.32 279.463 891.451 280.435Z" fill="#005A5E"/>
<path d="M724.415 362.119C724.273 361.659 724.077 361.247 723.827 360.884C723.582 360.514 723.287 360.199 722.94 359.938C722.599 359.676 722.207 359.48 721.764 359.349C721.321 359.213 720.838 359.145 720.315 359.145C719.378 359.145 718.543 359.381 717.81 359.852C717.077 360.324 716.5 361.017 716.08 361.932C715.665 362.841 715.457 363.949 715.457 365.256C715.457 366.574 715.665 367.69 716.08 368.605C716.494 369.52 717.071 370.216 717.81 370.693C718.548 371.165 719.406 371.401 720.384 371.401C721.27 371.401 722.037 371.23 722.685 370.889C723.338 370.548 723.841 370.065 724.193 369.44C724.545 368.81 724.722 368.071 724.722 367.224L725.438 367.335H720.699V364.864H727.781V366.96C727.781 368.455 727.463 369.747 726.827 370.838C726.19 371.929 725.315 372.77 724.202 373.361C723.088 373.946 721.81 374.239 720.366 374.239C718.759 374.239 717.347 373.878 716.131 373.156C714.92 372.429 713.974 371.398 713.293 370.062C712.616 368.722 712.278 367.131 712.278 365.29C712.278 363.881 712.477 362.622 712.875 361.514C713.278 360.406 713.841 359.466 714.562 358.693C715.284 357.915 716.131 357.324 717.102 356.92C718.074 356.511 719.131 356.307 720.273 356.307C721.239 356.307 722.139 356.449 722.974 356.733C723.81 357.011 724.551 357.409 725.199 357.926C725.852 358.443 726.389 359.057 726.81 359.767C727.23 360.477 727.506 361.261 727.636 362.119H724.415ZM732.541 374H729.166L735.311 356.545H739.214L745.368 374H741.993L737.331 360.125H737.195L732.541 374ZM732.652 367.156H741.857V369.696H732.652V367.156Z" fill="#005A5E"/>
<path d="M448.963 374H445.588L451.733 356.545H455.636L461.79 374H458.415L453.753 360.125H453.616L448.963 374ZM449.074 367.156H458.278V369.696H449.074V367.156ZM464.089 374V356.545H467.251V371.349H474.938V374H464.089Z" fill="#005A5E"/>
<path d="M193.722 356.545H197.591L202.773 369.193H202.977L208.159 356.545H212.028V374H208.994V362.009H208.832L204.009 373.949H201.741L196.918 361.983H196.756V374H193.722V356.545ZM224.957 361.344C224.878 360.599 224.543 360.02 223.952 359.605C223.366 359.19 222.605 358.983 221.668 358.983C221.009 358.983 220.443 359.082 219.972 359.281C219.5 359.48 219.139 359.75 218.889 360.091C218.639 360.432 218.511 360.821 218.506 361.259C218.506 361.622 218.588 361.937 218.753 362.205C218.923 362.472 219.153 362.699 219.443 362.886C219.733 363.068 220.054 363.222 220.406 363.347C220.759 363.472 221.114 363.577 221.472 363.662L223.108 364.071C223.767 364.224 224.401 364.432 225.009 364.693C225.622 364.955 226.17 365.284 226.653 365.682C227.142 366.08 227.528 366.56 227.812 367.122C228.097 367.685 228.239 368.344 228.239 369.099C228.239 370.122 227.977 371.023 227.455 371.801C226.932 372.574 226.176 373.179 225.188 373.616C224.205 374.048 223.014 374.264 221.616 374.264C220.259 374.264 219.08 374.054 218.08 373.634C217.085 373.213 216.307 372.599 215.744 371.793C215.188 370.986 214.886 370.003 214.841 368.844H217.952C217.997 369.452 218.185 369.957 218.514 370.361C218.844 370.764 219.273 371.065 219.801 371.264C220.335 371.463 220.932 371.562 221.591 371.562C222.278 371.562 222.881 371.46 223.398 371.256C223.92 371.045 224.33 370.756 224.625 370.386C224.92 370.011 225.071 369.574 225.077 369.074C225.071 368.619 224.938 368.244 224.676 367.949C224.415 367.648 224.048 367.398 223.577 367.199C223.111 366.994 222.565 366.812 221.94 366.653L219.955 366.142C218.517 365.773 217.381 365.213 216.545 364.463C215.716 363.707 215.301 362.705 215.301 361.455C215.301 360.426 215.58 359.526 216.136 358.753C216.699 357.98 217.463 357.381 218.429 356.955C219.395 356.523 220.489 356.307 221.71 356.307C222.949 356.307 224.034 356.523 224.966 356.955C225.903 357.381 226.639 357.974 227.173 358.736C227.707 359.491 227.983 360.361 228 361.344H224.957Z" fill="#005A5E"/>
<path d="M58.9631 244H55.5881L61.733 226.545H65.6364L71.7898 244H68.4148L63.7528 230.125H63.6165L58.9631 244ZM59.0739 237.156H68.2784V239.696H59.0739V237.156ZM74.0888 244V226.545H80.6342C81.9751 226.545 83.1001 226.778 84.0092 227.244C84.924 227.71 85.6143 228.364 86.0803 229.205C86.5518 230.04 86.7876 231.014 86.7876 232.128C86.7876 233.247 86.549 234.219 86.0717 235.043C85.6001 235.861 84.9041 236.494 83.9837 236.943C83.0632 237.386 81.9325 237.608 80.5916 237.608H75.9297V234.983H80.1655C80.9496 234.983 81.5916 234.875 82.0916 234.659C82.5916 234.437 82.9609 234.116 83.1996 233.696C83.4439 233.27 83.5661 232.747 83.5661 232.128C83.5661 231.509 83.4439 230.98 83.1996 230.543C82.9553 230.099 82.5831 229.764 82.0831 229.537C81.5831 229.304 80.9382 229.188 80.1484 229.188H77.2507V244H74.0888ZM83.1058 236.091L87.4268 244H83.8984L79.6541 236.091H83.1058Z" fill="#005A5E"/>
<path d="M108.722 83.5455H112.591L117.773 96.1932H117.977L123.159 83.5455H127.028V101H123.994V89.0085H123.832L119.009 100.949H116.741L111.918 88.983H111.756V101H108.722V83.5455ZM146.068 92.2727C146.068 94.1534 145.716 95.7642 145.011 97.1051C144.313 98.4403 143.358 99.4631 142.148 100.173C140.943 100.884 139.577 101.239 138.048 101.239C136.52 101.239 135.151 100.884 133.94 100.173C132.736 99.4574 131.781 98.4318 131.077 97.0966C130.378 95.7557 130.028 94.1477 130.028 92.2727C130.028 90.392 130.378 88.7841 131.077 87.4489C131.781 86.108 132.736 85.0824 133.94 84.3722C135.151 83.6619 136.52 83.3068 138.048 83.3068C139.577 83.3068 140.943 83.6619 142.148 84.3722C143.358 85.0824 144.313 86.108 145.011 87.4489C145.716 88.7841 146.068 90.392 146.068 92.2727ZM142.889 92.2727C142.889 90.9489 142.682 89.8324 142.267 88.9233C141.858 88.0085 141.29 87.3182 140.562 86.8523C139.835 86.3807 138.997 86.1449 138.048 86.1449C137.099 86.1449 136.261 86.3807 135.534 86.8523C134.807 87.3182 134.236 88.0085 133.821 88.9233C133.412 89.8324 133.207 90.9489 133.207 92.2727C133.207 93.5966 133.412 94.7159 133.821 95.6307C134.236 96.5398 134.807 97.2301 135.534 97.7017C136.261 98.1676 137.099 98.4006 138.048 98.4006C138.997 98.4006 139.835 98.1676 140.562 97.7017C141.29 97.2301 141.858 96.5398 142.267 95.6307C142.682 94.7159 142.889 93.5966 142.889 92.2727Z" fill="#005A5E"/>
<circle cx="450.511" cy="176.511" r="9.01136" fill="#FF8F87" stroke="black"/>
<path d="M424.788 187.818V206H421.468L413.558 194.556H413.424V206H409.58V187.818H412.954L420.802 199.253H420.962V187.818H424.788ZM431.782 206.257C430.911 206.257 430.136 206.107 429.456 205.805C428.775 205.497 428.236 205.044 427.84 204.446C427.449 203.843 427.254 203.091 427.254 202.191C427.254 201.434 427.393 200.798 427.671 200.283C427.949 199.768 428.328 199.353 428.807 199.04C429.287 198.726 429.831 198.489 430.441 198.33C431.056 198.17 431.702 198.057 432.376 197.992C433.169 197.909 433.809 197.832 434.294 197.761C434.779 197.684 435.131 197.572 435.35 197.424C435.569 197.276 435.679 197.057 435.679 196.767V196.714C435.679 196.152 435.501 195.717 435.146 195.409C434.797 195.101 434.3 194.947 433.655 194.947C432.974 194.947 432.433 195.098 432.03 195.4C431.628 195.696 431.361 196.069 431.231 196.518L427.733 196.234C427.911 195.406 428.26 194.69 428.781 194.086C429.302 193.476 429.973 193.009 430.796 192.683C431.625 192.352 432.583 192.186 433.672 192.186C434.43 192.186 435.155 192.275 435.848 192.452C436.546 192.63 437.164 192.905 437.703 193.278C438.248 193.651 438.677 194.13 438.99 194.716C439.304 195.296 439.461 195.992 439.461 196.803V206H435.874V204.109H435.768C435.549 204.535 435.256 204.911 434.889 205.237C434.522 205.556 434.081 205.808 433.566 205.991C433.051 206.169 432.456 206.257 431.782 206.257ZM432.865 203.647C433.421 203.647 433.912 203.538 434.338 203.319C434.764 203.094 435.099 202.792 435.342 202.413C435.584 202.035 435.706 201.605 435.706 201.126V199.679C435.587 199.756 435.424 199.827 435.217 199.892C435.016 199.951 434.788 200.007 434.534 200.061C434.279 200.108 434.025 200.152 433.77 200.194C433.516 200.229 433.285 200.262 433.078 200.292C432.634 200.357 432.246 200.46 431.915 200.602C431.583 200.744 431.326 200.937 431.142 201.179C430.959 201.416 430.867 201.712 430.867 202.067C430.867 202.582 431.054 202.976 431.426 203.248C431.805 203.514 432.285 203.647 432.865 203.647ZM453.741 196.252L450.278 196.465C450.219 196.169 450.092 195.903 449.897 195.666C449.701 195.424 449.444 195.231 449.124 195.089C448.811 194.941 448.435 194.867 447.997 194.867C447.411 194.867 446.917 194.991 446.514 195.24C446.112 195.483 445.911 195.808 445.911 196.217C445.911 196.542 446.041 196.817 446.301 197.042C446.562 197.267 447.008 197.448 447.642 197.584L450.11 198.081C451.436 198.353 452.424 198.791 453.075 199.395C453.726 199.999 454.052 200.792 454.052 201.774C454.052 202.668 453.788 203.452 453.261 204.127C452.741 204.801 452.024 205.328 451.113 205.707C450.207 206.08 449.163 206.266 447.979 206.266C446.174 206.266 444.736 205.891 443.665 205.139C442.599 204.381 441.975 203.351 441.791 202.049L445.511 201.854C445.624 202.404 445.896 202.825 446.328 203.115C446.76 203.399 447.313 203.541 447.988 203.541C448.651 203.541 449.184 203.414 449.586 203.159C449.994 202.899 450.202 202.564 450.207 202.156C450.202 201.813 450.057 201.531 449.772 201.312C449.488 201.088 449.05 200.916 448.459 200.798L446.097 200.327C444.765 200.061 443.774 199.599 443.123 198.942C442.478 198.285 442.155 197.448 442.155 196.43C442.155 195.554 442.392 194.799 442.866 194.166C443.345 193.533 444.017 193.044 444.881 192.701C445.751 192.358 446.769 192.186 447.935 192.186C449.657 192.186 451.012 192.55 452.001 193.278C452.995 194.006 453.575 194.997 453.741 196.252ZM460.215 198.116V206H456.433V187.818H460.108V194.77H460.268C460.576 193.965 461.073 193.334 461.76 192.879C462.446 192.417 463.307 192.186 464.343 192.186C465.29 192.186 466.116 192.393 466.82 192.808C467.53 193.216 468.081 193.805 468.471 194.574C468.868 195.338 469.063 196.252 469.057 197.317V206H465.275V197.992C465.281 197.152 465.068 196.498 464.636 196.03C464.21 195.563 463.612 195.329 462.843 195.329C462.328 195.329 461.872 195.438 461.476 195.657C461.085 195.876 460.777 196.196 460.552 196.616C460.333 197.03 460.221 197.531 460.215 198.116ZM484.258 192.364L479.491 206H475.23L470.462 192.364H474.457L477.289 202.12H477.431L480.255 192.364H484.258ZM486.194 206V192.364H489.976V206H486.194ZM488.094 190.606C487.531 190.606 487.049 190.419 486.647 190.047C486.25 189.668 486.052 189.215 486.052 188.688C486.052 188.167 486.25 187.721 486.647 187.348C487.049 186.969 487.531 186.779 488.094 186.779C488.656 186.779 489.135 186.969 489.532 187.348C489.934 187.721 490.136 188.167 490.136 188.688C490.136 189.215 489.934 189.668 489.532 190.047C489.135 190.419 488.656 190.606 488.094 190.606ZM496.787 187.818V206H493.005V187.818H496.787ZM503.599 187.818V206H499.817V187.818H503.599ZM512.843 206.266C511.44 206.266 510.233 205.982 509.221 205.414C508.215 204.84 507.439 204.029 506.895 202.982C506.35 201.928 506.078 200.682 506.078 199.244C506.078 197.841 506.35 196.61 506.895 195.551C507.439 194.491 508.206 193.666 509.194 193.074C510.188 192.482 511.354 192.186 512.692 192.186C513.592 192.186 514.429 192.331 515.204 192.621C515.986 192.905 516.666 193.334 517.246 193.908C517.832 194.482 518.288 195.205 518.613 196.075C518.939 196.939 519.102 197.951 519.102 199.111V200.15H507.587V197.806H515.542C515.542 197.261 515.423 196.779 515.187 196.359C514.95 195.938 514.621 195.61 514.201 195.373C513.787 195.131 513.305 195.009 512.754 195.009C512.18 195.009 511.671 195.142 511.227 195.409C510.789 195.669 510.446 196.021 510.197 196.465C509.949 196.903 509.821 197.391 509.816 197.93V200.158C509.816 200.833 509.94 201.416 510.188 201.907C510.443 202.399 510.801 202.777 511.263 203.044C511.724 203.31 512.272 203.443 512.905 203.443C513.325 203.443 513.71 203.384 514.059 203.266C514.408 203.147 514.707 202.97 514.956 202.733C515.204 202.496 515.394 202.206 515.524 201.863L519.022 202.094C518.844 202.934 518.48 203.668 517.93 204.295C517.385 204.917 516.681 205.402 515.817 205.751C514.959 206.095 513.967 206.266 512.843 206.266Z" fill="black"/>
<path d="M684.202 186V167.818H686.403V176.838H686.616L694.784 167.818H697.661L690.026 176.021L697.661 186H694.997L688.676 177.548L686.403 180.105V186H684.202ZM702.321 177.797V186H700.226V172.364H702.25V174.494H702.428C702.748 173.802 703.233 173.246 703.884 172.825C704.535 172.399 705.375 172.186 706.405 172.186C707.328 172.186 708.136 172.375 708.829 172.754C709.521 173.127 710.06 173.695 710.445 174.459C710.829 175.216 711.022 176.175 711.022 177.335V186H708.926V177.477C708.926 176.406 708.648 175.571 708.092 174.974C707.536 174.37 706.772 174.068 705.801 174.068C705.133 174.068 704.535 174.213 704.008 174.503C703.487 174.793 703.076 175.216 702.774 175.773C702.472 176.329 702.321 177.004 702.321 177.797ZM720.39 186.284C719.159 186.284 718.079 185.991 717.15 185.405C716.226 184.819 715.504 184 714.983 182.946C714.468 181.893 714.211 180.661 714.211 179.253C714.211 177.832 714.468 176.592 714.983 175.533C715.504 174.474 716.226 173.651 717.15 173.065C718.079 172.479 719.159 172.186 720.39 172.186C721.621 172.186 722.698 172.479 723.622 173.065C724.551 173.651 725.273 174.474 725.788 175.533C726.309 176.592 726.569 177.832 726.569 179.253C726.569 180.661 726.309 181.893 725.788 182.946C725.273 184 724.551 184.819 723.622 185.405C722.698 185.991 721.621 186.284 720.39 186.284ZM720.39 184.402C721.325 184.402 722.095 184.162 722.698 183.683C723.302 183.203 723.749 182.573 724.039 181.792C724.329 181.011 724.474 180.164 724.474 179.253C724.474 178.341 724.329 177.492 724.039 176.705C723.749 175.918 723.302 175.281 722.698 174.796C722.095 174.311 721.325 174.068 720.39 174.068C719.455 174.068 718.685 174.311 718.082 174.796C717.478 175.281 717.031 175.918 716.741 176.705C716.451 177.492 716.306 178.341 716.306 179.253C716.306 180.164 716.451 181.011 716.741 181.792C717.031 182.573 717.478 183.203 718.082 183.683C718.685 184.162 719.455 184.402 720.39 184.402ZM730.768 172.364L734.035 177.939L737.302 172.364H739.717L735.314 179.182L739.717 186H737.302L734.035 180.709L730.768 186H728.353L732.686 179.182L728.353 172.364H730.768ZM753.857 172.364L748.815 186H746.684L741.641 172.364H743.914L747.678 183.23H747.82L751.585 172.364H753.857ZM756.623 186V172.364H758.718V186H756.623ZM757.688 170.091C757.28 170.091 756.927 169.952 756.632 169.674C756.342 169.395 756.197 169.061 756.197 168.67C756.197 168.28 756.342 167.945 756.632 167.667C756.927 167.389 757.28 167.25 757.688 167.25C758.096 167.25 758.446 167.389 758.736 167.667C759.032 167.945 759.18 168.28 759.18 168.67C759.18 169.061 759.032 169.395 758.736 169.674C758.446 169.952 758.096 170.091 757.688 170.091ZM764.65 167.818V186H762.555V167.818H764.65ZM770.583 167.818V186H768.488V167.818H770.583ZM780.138 186.284C778.824 186.284 777.691 185.994 776.738 185.414C775.791 184.828 775.06 184.011 774.545 182.964C774.036 181.91 773.781 180.685 773.781 179.288C773.781 177.892 774.036 176.661 774.545 175.595C775.06 174.524 775.776 173.689 776.693 173.092C777.617 172.488 778.694 172.186 779.925 172.186C780.635 172.186 781.336 172.304 782.029 172.541C782.721 172.778 783.352 173.163 783.92 173.695C784.488 174.222 784.941 174.92 785.278 175.79C785.616 176.661 785.784 177.732 785.784 179.004V179.892H775.273V178.081H783.653C783.653 177.312 783.5 176.625 783.192 176.021C782.89 175.418 782.458 174.941 781.896 174.592C781.339 174.243 780.682 174.068 779.925 174.068C779.09 174.068 778.368 174.275 777.759 174.69C777.155 175.098 776.69 175.631 776.365 176.288C776.039 176.945 775.877 177.649 775.877 178.401V179.608C775.877 180.638 776.054 181.511 776.409 182.227C776.77 182.937 777.27 183.479 777.91 183.852C778.549 184.219 779.292 184.402 780.138 184.402C780.688 184.402 781.185 184.325 781.629 184.171C782.079 184.011 782.467 183.775 782.792 183.461C783.118 183.141 783.369 182.745 783.547 182.271L785.571 182.839C785.358 183.526 785 184.13 784.497 184.651C783.994 185.165 783.372 185.568 782.633 185.858C781.893 186.142 781.061 186.284 780.138 186.284Z" fill="black"/>
<path d="M814.202 162V143.818H816.403V152.838H816.616L824.784 143.818H827.661L820.026 152.021L827.661 162H824.997L818.676 153.548L816.403 156.105V162H814.202ZM831.081 162V148.364H833.176V162H831.081ZM832.146 146.091C831.738 146.091 831.386 145.952 831.09 145.674C830.8 145.395 830.655 145.061 830.655 144.67C830.655 144.28 830.8 143.945 831.09 143.667C831.386 143.389 831.738 143.25 832.146 143.25C832.554 143.25 832.904 143.389 833.194 143.667C833.49 143.945 833.638 144.28 833.638 144.67C833.638 145.061 833.49 145.395 833.194 145.674C832.904 145.952 832.554 146.091 832.146 146.091ZM839.108 153.797V162H837.013V148.364H839.037V150.494H839.215C839.535 149.802 840.02 149.246 840.671 148.825C841.322 148.399 842.162 148.186 843.192 148.186C844.116 148.186 844.923 148.375 845.616 148.754C846.308 149.127 846.847 149.695 847.232 150.459C847.616 151.216 847.809 152.175 847.809 153.335V162H845.714V153.477C845.714 152.406 845.435 151.571 844.879 150.974C844.323 150.37 843.559 150.068 842.589 150.068C841.92 150.068 841.322 150.213 840.795 150.503C840.274 150.793 839.863 151.216 839.561 151.773C839.259 152.329 839.108 153.004 839.108 153.797ZM857.142 167.398C856.13 167.398 855.259 167.268 854.532 167.007C853.804 166.753 853.197 166.415 852.712 165.995C852.232 165.581 851.85 165.137 851.566 164.663L853.235 163.491C853.425 163.74 853.664 164.024 853.954 164.344C854.244 164.669 854.641 164.95 855.144 165.187C855.653 165.43 856.319 165.551 857.142 165.551C858.242 165.551 859.151 165.285 859.867 164.752C860.583 164.219 860.941 163.385 860.941 162.249V159.479H860.764C860.61 159.727 860.391 160.035 860.107 160.402C859.829 160.763 859.426 161.086 858.899 161.37C858.379 161.648 857.674 161.787 856.786 161.787C855.686 161.787 854.697 161.527 853.821 161.006C852.951 160.485 852.262 159.727 851.753 158.733C851.25 157.739 850.998 156.531 850.998 155.111C850.998 153.714 851.244 152.498 851.735 151.462C852.226 150.42 852.91 149.615 853.786 149.047C854.662 148.473 855.674 148.186 856.822 148.186C857.71 148.186 858.414 148.334 858.935 148.63C859.462 148.92 859.864 149.251 860.142 149.624C860.426 149.991 860.645 150.293 860.799 150.53H861.012V148.364H863.036V162.391C863.036 163.562 862.77 164.515 862.237 165.249C861.711 165.989 861.001 166.531 860.107 166.874C859.219 167.223 858.231 167.398 857.142 167.398ZM857.071 159.905C857.911 159.905 858.621 159.712 859.201 159.328C859.781 158.943 860.222 158.39 860.524 157.668C860.826 156.946 860.977 156.081 860.977 155.075C860.977 154.093 860.829 153.226 860.533 152.474C860.237 151.722 859.799 151.134 859.219 150.707C858.639 150.281 857.923 150.068 857.071 150.068C856.183 150.068 855.443 150.293 854.851 150.743C854.265 151.193 853.824 151.796 853.528 152.554C853.238 153.312 853.093 154.152 853.093 155.075C853.093 156.022 853.241 156.86 853.537 157.588C853.839 158.31 854.283 158.878 854.869 159.292C855.461 159.701 856.195 159.905 857.071 159.905ZM876.531 151.418L874.649 151.95C874.53 151.637 874.356 151.332 874.125 151.036C873.9 150.734 873.592 150.485 873.202 150.29C872.811 150.095 872.311 149.997 871.701 149.997C870.867 149.997 870.171 150.19 869.615 150.574C869.065 150.953 868.789 151.435 868.789 152.021C868.789 152.542 868.979 152.953 869.358 153.255C869.736 153.557 870.328 153.809 871.133 154.01L873.157 154.507C874.376 154.803 875.285 155.256 875.883 155.865C876.48 156.469 876.779 157.247 876.779 158.2C876.779 158.982 876.554 159.68 876.105 160.295C875.661 160.911 875.039 161.396 874.24 161.751C873.441 162.107 872.512 162.284 871.453 162.284C870.062 162.284 868.911 161.982 867.999 161.379C867.088 160.775 866.511 159.893 866.268 158.733L868.257 158.236C868.446 158.97 868.804 159.52 869.331 159.887C869.864 160.254 870.559 160.438 871.417 160.438C872.394 160.438 873.169 160.23 873.743 159.816C874.323 159.396 874.613 158.893 874.613 158.307C874.613 157.833 874.447 157.437 874.116 157.117C873.785 156.792 873.276 156.549 872.589 156.389L870.316 155.857C869.068 155.561 868.15 155.102 867.564 154.48C866.984 153.853 866.694 153.069 866.694 152.128C866.694 151.358 866.91 150.678 867.342 150.086C867.78 149.494 868.375 149.029 869.127 148.692C869.884 148.355 870.742 148.186 871.701 148.186C873.051 148.186 874.11 148.482 874.88 149.074C875.655 149.666 876.205 150.447 876.531 151.418ZM879.933 167.114V148.364H881.957V150.53H882.206C882.36 150.293 882.573 149.991 882.845 149.624C883.123 149.251 883.52 148.92 884.035 148.63C884.556 148.334 885.26 148.186 886.148 148.186C887.296 148.186 888.308 148.473 889.184 149.047C890.06 149.621 890.743 150.435 891.235 151.489C891.726 152.542 891.972 153.785 891.972 155.217C891.972 156.661 891.726 157.913 891.235 158.973C890.743 160.026 890.063 160.843 889.193 161.423C888.323 161.997 887.32 162.284 886.183 162.284C885.307 162.284 884.606 162.139 884.079 161.849C883.552 161.553 883.147 161.219 882.863 160.846C882.579 160.467 882.36 160.153 882.206 159.905H882.028V167.114H879.933ZM881.993 155.182C881.993 156.212 882.144 157.12 882.446 157.907C882.748 158.689 883.188 159.301 883.768 159.745C884.348 160.183 885.059 160.402 885.899 160.402C886.775 160.402 887.506 160.171 888.092 159.71C888.684 159.242 889.128 158.615 889.424 157.827C889.725 157.034 889.876 156.152 889.876 155.182C889.876 154.223 889.728 153.359 889.433 152.589C889.143 151.814 888.702 151.202 888.11 150.752C887.524 150.296 886.787 150.068 885.899 150.068C885.047 150.068 884.331 150.284 883.751 150.716C883.171 151.142 882.733 151.74 882.437 152.51C882.141 153.273 881.993 154.164 881.993 155.182ZM900.707 162.284C899.476 162.284 898.396 161.991 897.467 161.405C896.544 160.819 895.822 160 895.301 158.946C894.786 157.893 894.528 156.661 894.528 155.253C894.528 153.832 894.786 152.592 895.301 151.533C895.822 150.474 896.544 149.651 897.467 149.065C898.396 148.479 899.476 148.186 900.707 148.186C901.938 148.186 903.016 148.479 903.939 149.065C904.868 149.651 905.59 150.474 906.105 151.533C906.626 152.592 906.886 153.832 906.886 155.253C906.886 156.661 906.626 157.893 906.105 158.946C905.59 160 904.868 160.819 903.939 161.405C903.016 161.991 901.938 162.284 900.707 162.284ZM900.707 160.402C901.643 160.402 902.412 160.162 903.016 159.683C903.619 159.203 904.066 158.573 904.356 157.792C904.646 157.011 904.791 156.164 904.791 155.253C904.791 154.341 904.646 153.492 904.356 152.705C904.066 151.918 903.619 151.281 903.016 150.796C902.412 150.311 901.643 150.068 900.707 150.068C899.772 150.068 899.003 150.311 898.399 150.796C897.795 151.281 897.349 151.918 897.059 152.705C896.769 153.492 896.624 154.341 896.624 155.253C896.624 156.164 896.769 157.011 897.059 157.792C897.349 158.573 897.795 159.203 898.399 159.683C899.003 160.162 899.772 160.402 900.707 160.402ZM910.085 162V148.364H912.109V150.423H912.251C912.499 149.749 912.949 149.201 913.6 148.781C914.251 148.361 914.985 148.151 915.802 148.151C915.956 148.151 916.148 148.154 916.379 148.159C916.61 148.165 916.784 148.174 916.903 148.186V150.317C916.832 150.299 916.669 150.272 916.415 150.237C916.166 150.195 915.903 150.175 915.624 150.175C914.962 150.175 914.37 150.314 913.849 150.592C913.334 150.864 912.926 151.243 912.624 151.728C912.328 152.208 912.18 152.755 912.18 153.371V162H910.085ZM926.171 148.364V150.139H919.104V148.364H926.171ZM921.164 145.097H923.259V158.094C923.259 158.686 923.345 159.129 923.517 159.425C923.694 159.715 923.919 159.911 924.191 160.011C924.47 160.106 924.763 160.153 925.07 160.153C925.301 160.153 925.491 160.142 925.639 160.118C925.787 160.088 925.905 160.065 925.994 160.047L926.42 161.929C926.278 161.982 926.08 162.036 925.825 162.089C925.571 162.148 925.248 162.178 924.857 162.178C924.265 162.178 923.685 162.05 923.117 161.796C922.555 161.541 922.087 161.154 921.715 160.633C921.348 160.112 921.164 159.455 921.164 158.662V145.097Z" fill="black"/>
<path d="M420.832 127.5H418.631C418.5 126.867 418.273 126.31 417.947 125.831C417.627 125.352 417.237 124.949 416.775 124.624C416.319 124.292 415.813 124.044 415.257 123.878C414.701 123.712 414.121 123.629 413.517 123.629C412.416 123.629 411.419 123.907 410.525 124.464C409.637 125.02 408.93 125.84 408.403 126.923C407.883 128.006 407.622 129.335 407.622 130.909C407.622 132.483 407.883 133.812 408.403 134.895C408.93 135.978 409.637 136.798 410.525 137.354C411.419 137.911 412.416 138.189 413.517 138.189C414.121 138.189 414.701 138.106 415.257 137.94C415.813 137.775 416.319 137.529 416.775 137.203C417.237 136.872 417.627 136.467 417.947 135.987C418.273 135.502 418.5 134.946 418.631 134.318H420.832C420.667 135.247 420.365 136.079 419.927 136.813C419.489 137.547 418.944 138.171 418.293 138.686C417.642 139.195 416.911 139.583 416.1 139.849C415.296 140.115 414.434 140.249 413.517 140.249C411.966 140.249 410.587 139.87 409.38 139.112C408.173 138.355 407.223 137.277 406.53 135.881C405.838 134.484 405.491 132.827 405.491 130.909C405.491 128.991 405.838 127.334 406.53 125.938C407.223 124.541 408.173 123.464 409.38 122.706C410.587 121.948 411.966 121.57 413.517 121.57C414.434 121.57 415.296 121.703 416.1 121.969C416.911 122.235 417.642 122.626 418.293 123.141C418.944 123.65 419.489 124.271 419.927 125.005C420.365 125.733 420.667 126.565 420.832 127.5ZM426.201 121.818V140H424.106V121.818H426.201ZM434.051 140.32C433.187 140.32 432.403 140.157 431.699 139.831C430.995 139.5 430.435 139.023 430.021 138.402C429.607 137.775 429.4 137.017 429.4 136.129C429.4 135.348 429.553 134.715 429.861 134.229C430.169 133.738 430.58 133.353 431.095 133.075C431.61 132.797 432.178 132.59 432.8 132.454C433.427 132.312 434.057 132.199 434.691 132.116C435.519 132.01 436.191 131.93 436.706 131.877C437.227 131.818 437.606 131.72 437.842 131.584C438.085 131.448 438.206 131.211 438.206 130.874V130.803C438.206 129.927 437.967 129.246 437.487 128.761C437.014 128.275 436.295 128.033 435.33 128.033C434.33 128.033 433.545 128.252 432.977 128.69C432.409 129.128 432.01 129.595 431.779 130.092L429.79 129.382C430.145 128.554 430.619 127.908 431.211 127.447C431.808 126.979 432.459 126.654 433.164 126.47C433.874 126.281 434.572 126.186 435.259 126.186C435.697 126.186 436.2 126.239 436.768 126.346C437.342 126.446 437.896 126.657 438.428 126.976C438.967 127.296 439.414 127.778 439.769 128.423C440.124 129.068 440.301 129.933 440.301 131.016V140H438.206V138.153H438.1C437.958 138.449 437.721 138.766 437.39 139.103C437.058 139.441 436.617 139.728 436.067 139.964C435.516 140.201 434.845 140.32 434.051 140.32ZM434.371 138.438C435.2 138.438 435.898 138.275 436.466 137.949C437.04 137.624 437.472 137.203 437.762 136.689C438.058 136.174 438.206 135.632 438.206 135.064V133.146C438.118 133.253 437.922 133.35 437.62 133.439C437.324 133.522 436.981 133.596 436.591 133.661C436.206 133.72 435.83 133.774 435.463 133.821C435.102 133.862 434.809 133.898 434.584 133.928C434.04 133.999 433.531 134.114 433.057 134.274C432.59 134.428 432.211 134.661 431.921 134.975C431.637 135.283 431.495 135.703 431.495 136.236C431.495 136.964 431.764 137.514 432.303 137.887C432.847 138.254 433.537 138.438 434.371 138.438ZM444.126 140V126.364H446.15V128.423H446.292C446.54 127.749 446.99 127.201 447.641 126.781C448.292 126.361 449.026 126.151 449.843 126.151C449.997 126.151 450.189 126.154 450.42 126.159C450.651 126.165 450.825 126.174 450.944 126.186V128.317C450.873 128.299 450.71 128.272 450.456 128.237C450.207 128.195 449.944 128.175 449.665 128.175C449.003 128.175 448.411 128.314 447.89 128.592C447.375 128.864 446.967 129.243 446.665 129.728C446.369 130.208 446.221 130.755 446.221 131.371V140H444.126ZM455.381 135.028L455.345 132.436H455.771L461.737 126.364H464.329L457.973 132.791H457.795L455.381 135.028ZM453.427 140V121.818H455.523V140H453.427ZM462.092 140L456.765 133.253L458.257 131.797L464.756 140H462.092ZM476.685 129.418L474.803 129.95C474.685 129.637 474.51 129.332 474.279 129.036C474.054 128.734 473.747 128.485 473.356 128.29C472.965 128.095 472.465 127.997 471.856 127.997C471.021 127.997 470.326 128.19 469.769 128.574C469.219 128.953 468.944 129.435 468.944 130.021C468.944 130.542 469.133 130.953 469.512 131.255C469.891 131.557 470.482 131.809 471.287 132.01L473.312 132.507C474.531 132.803 475.439 133.256 476.037 133.865C476.635 134.469 476.934 135.247 476.934 136.2C476.934 136.982 476.709 137.68 476.259 138.295C475.815 138.911 475.194 139.396 474.395 139.751C473.596 140.107 472.666 140.284 471.607 140.284C470.216 140.284 469.065 139.982 468.153 139.379C467.242 138.775 466.665 137.893 466.422 136.733L468.411 136.236C468.6 136.97 468.958 137.52 469.485 137.887C470.018 138.254 470.713 138.438 471.571 138.438C472.548 138.438 473.323 138.23 473.897 137.816C474.477 137.396 474.767 136.893 474.767 136.307C474.767 135.833 474.602 135.437 474.27 135.117C473.939 134.792 473.43 134.549 472.743 134.389L470.471 133.857C469.222 133.561 468.304 133.102 467.718 132.48C467.138 131.853 466.848 131.069 466.848 130.128C466.848 129.358 467.064 128.678 467.497 128.086C467.935 127.494 468.529 127.029 469.281 126.692C470.039 126.355 470.897 126.186 471.856 126.186C473.205 126.186 474.264 126.482 475.034 127.074C475.809 127.666 476.36 128.447 476.685 129.418ZM491.238 126.364L486.195 140H484.065L479.022 126.364H481.295L485.059 137.23H485.201L488.965 126.364H491.238ZM494.004 140V126.364H496.099V140H494.004ZM495.069 124.091C494.661 124.091 494.308 123.952 494.012 123.674C493.722 123.395 493.577 123.061 493.577 122.67C493.577 122.28 493.722 121.945 494.012 121.667C494.308 121.389 494.661 121.25 495.069 121.25C495.477 121.25 495.826 121.389 496.116 121.667C496.412 121.945 496.56 122.28 496.56 122.67C496.56 123.061 496.412 123.395 496.116 123.674C495.826 123.952 495.477 124.091 495.069 124.091ZM502.031 121.818V140H499.936V121.818H502.031ZM507.964 121.818V140H505.869V121.818H507.964ZM517.519 140.284C516.205 140.284 515.071 139.994 514.119 139.414C513.172 138.828 512.441 138.011 511.926 136.964C511.417 135.91 511.162 134.685 511.162 133.288C511.162 131.892 511.417 130.661 511.926 129.595C512.441 128.524 513.157 127.689 514.074 127.092C514.997 126.488 516.075 126.186 517.306 126.186C518.016 126.186 518.717 126.304 519.41 126.541C520.102 126.778 520.733 127.163 521.301 127.695C521.869 128.222 522.322 128.92 522.659 129.79C522.996 130.661 523.165 131.732 523.165 133.004V133.892H512.654V132.081H521.034C521.034 131.312 520.88 130.625 520.573 130.021C520.271 129.418 519.839 128.941 519.277 128.592C518.72 128.243 518.063 128.068 517.306 128.068C516.471 128.068 515.749 128.275 515.139 128.69C514.536 129.098 514.071 129.631 513.746 130.288C513.42 130.945 513.257 131.649 513.257 132.401V133.608C513.257 134.638 513.435 135.511 513.79 136.227C514.151 136.937 514.651 137.479 515.29 137.852C515.93 138.219 516.672 138.402 517.519 138.402C518.069 138.402 518.566 138.325 519.01 138.171C519.46 138.011 519.848 137.775 520.173 137.461C520.499 137.141 520.75 136.745 520.928 136.271L522.952 136.839C522.739 137.526 522.381 138.13 521.878 138.651C521.375 139.165 520.753 139.568 520.013 139.858C519.274 140.142 518.442 140.284 517.519 140.284Z" fill="black"/>
<path d="M209.162 207.818H211.364V220.815C211.364 221.975 211.151 222.961 210.724 223.772C210.298 224.583 209.698 225.198 208.922 225.618C208.147 226.038 207.232 226.249 206.179 226.249C205.185 226.249 204.3 226.068 203.525 225.707C202.749 225.34 202.14 224.819 201.696 224.145C201.252 223.47 201.03 222.668 201.03 221.739H203.196C203.196 222.254 203.323 222.703 203.578 223.088C203.838 223.467 204.193 223.763 204.643 223.976C205.093 224.189 205.605 224.295 206.179 224.295C206.812 224.295 207.351 224.162 207.795 223.896C208.239 223.63 208.576 223.239 208.807 222.724C209.044 222.203 209.162 221.567 209.162 220.815V207.818ZM219.505 226.32C218.641 226.32 217.856 226.157 217.152 225.831C216.448 225.5 215.888 225.023 215.474 224.402C215.06 223.775 214.853 223.017 214.853 222.129C214.853 221.348 215.007 220.715 215.314 220.229C215.622 219.738 216.033 219.353 216.548 219.075C217.063 218.797 217.631 218.59 218.253 218.454C218.88 218.312 219.511 218.199 220.144 218.116C220.972 218.01 221.644 217.93 222.159 217.877C222.68 217.818 223.059 217.72 223.295 217.584C223.538 217.448 223.659 217.211 223.659 216.874V216.803C223.659 215.927 223.42 215.246 222.94 214.761C222.467 214.275 221.748 214.033 220.783 214.033C219.783 214.033 218.999 214.252 218.43 214.69C217.862 215.128 217.463 215.595 217.232 216.092L215.243 215.382C215.598 214.554 216.072 213.908 216.664 213.447C217.261 212.979 217.913 212.654 218.617 212.47C219.327 212.281 220.025 212.186 220.712 212.186C221.15 212.186 221.653 212.239 222.221 212.346C222.795 212.446 223.349 212.657 223.881 212.976C224.42 213.296 224.867 213.778 225.222 214.423C225.577 215.068 225.755 215.933 225.755 217.016V226H223.659V224.153H223.553C223.411 224.449 223.174 224.766 222.843 225.103C222.511 225.441 222.07 225.728 221.52 225.964C220.969 226.201 220.298 226.32 219.505 226.32ZM219.824 224.438C220.653 224.438 221.351 224.275 221.919 223.949C222.493 223.624 222.926 223.203 223.216 222.689C223.511 222.174 223.659 221.632 223.659 221.064V219.146C223.571 219.253 223.375 219.35 223.074 219.439C222.778 219.522 222.434 219.596 222.044 219.661C221.659 219.72 221.283 219.774 220.916 219.821C220.555 219.862 220.262 219.898 220.037 219.928C219.493 219.999 218.984 220.114 218.51 220.274C218.043 220.428 217.664 220.661 217.374 220.975C217.09 221.283 216.948 221.703 216.948 222.236C216.948 222.964 217.217 223.514 217.756 223.887C218.3 224.254 218.99 224.438 219.824 224.438ZM235.119 226.284C233.84 226.284 232.739 225.982 231.816 225.379C230.893 224.775 230.182 223.943 229.685 222.884C229.188 221.824 228.94 220.614 228.94 219.253C228.94 217.868 229.194 216.646 229.703 215.586C230.218 214.521 230.934 213.689 231.851 213.092C232.775 212.488 233.852 212.186 235.083 212.186C236.042 212.186 236.906 212.364 237.675 212.719C238.445 213.074 239.075 213.571 239.566 214.21C240.058 214.849 240.362 215.595 240.481 216.447H238.386C238.226 215.826 237.871 215.276 237.32 214.796C236.776 214.311 236.042 214.068 235.119 214.068C234.302 214.068 233.586 214.281 232.97 214.707C232.36 215.128 231.884 215.722 231.541 216.492C231.203 217.255 231.035 218.152 231.035 219.182C231.035 220.235 231.2 221.153 231.532 221.934C231.869 222.715 232.343 223.322 232.952 223.754C233.568 224.186 234.29 224.402 235.119 224.402C235.663 224.402 236.157 224.307 236.601 224.118C237.045 223.929 237.421 223.656 237.729 223.301C238.036 222.946 238.255 222.52 238.386 222.023H240.481C240.362 222.828 240.069 223.553 239.602 224.198C239.14 224.837 238.528 225.346 237.764 225.725C237.007 226.098 236.125 226.284 235.119 226.284ZM245.497 221.028L245.461 218.436H245.887L251.853 212.364H254.446L248.089 218.791H247.911L245.497 221.028ZM243.544 226V207.818H245.639V226H243.544ZM252.208 226L246.882 219.253L248.373 217.797L254.872 226H252.208ZM266.801 215.418L264.919 215.95C264.801 215.637 264.626 215.332 264.395 215.036C264.171 214.734 263.863 214.485 263.472 214.29C263.081 214.095 262.581 213.997 261.972 213.997C261.137 213.997 260.442 214.19 259.885 214.574C259.335 214.953 259.06 215.435 259.06 216.021C259.06 216.542 259.249 216.953 259.628 217.255C260.007 217.557 260.599 217.809 261.404 218.01L263.428 218.507C264.647 218.803 265.555 219.256 266.153 219.865C266.751 220.469 267.05 221.247 267.05 222.2C267.05 222.982 266.825 223.68 266.375 224.295C265.931 224.911 265.31 225.396 264.511 225.751C263.712 226.107 262.783 226.284 261.723 226.284C260.332 226.284 259.181 225.982 258.27 225.379C257.358 224.775 256.781 223.893 256.539 222.733L258.527 222.236C258.717 222.97 259.075 223.52 259.601 223.887C260.134 224.254 260.829 224.438 261.688 224.438C262.664 224.438 263.44 224.23 264.014 223.816C264.594 223.396 264.884 222.893 264.884 222.307C264.884 221.833 264.718 221.437 264.387 221.117C264.055 220.792 263.546 220.549 262.86 220.389L260.587 219.857C259.338 219.561 258.421 219.102 257.835 218.48C257.255 217.853 256.965 217.069 256.965 216.128C256.965 215.358 257.181 214.678 257.613 214.086C258.051 213.494 258.646 213.029 259.397 212.692C260.155 212.355 261.013 212.186 261.972 212.186C263.321 212.186 264.381 212.482 265.15 213.074C265.925 213.666 266.476 214.447 266.801 215.418ZM275.744 226.284C274.512 226.284 273.432 225.991 272.503 225.405C271.58 224.819 270.858 224 270.337 222.946C269.822 221.893 269.565 220.661 269.565 219.253C269.565 217.832 269.822 216.592 270.337 215.533C270.858 214.474 271.58 213.651 272.503 213.065C273.432 212.479 274.512 212.186 275.744 212.186C276.975 212.186 278.052 212.479 278.975 213.065C279.904 213.651 280.626 214.474 281.141 215.533C281.662 216.592 281.922 217.832 281.922 219.253C281.922 220.661 281.662 221.893 281.141 222.946C280.626 224 279.904 224.819 278.975 225.405C278.052 225.991 276.975 226.284 275.744 226.284ZM275.744 224.402C276.679 224.402 277.448 224.162 278.052 223.683C278.655 223.203 279.102 222.573 279.392 221.792C279.682 221.011 279.827 220.164 279.827 219.253C279.827 218.341 279.682 217.492 279.392 216.705C279.102 215.918 278.655 215.281 278.052 214.796C277.448 214.311 276.679 214.068 275.744 214.068C274.808 214.068 274.039 214.311 273.435 214.796C272.832 215.281 272.385 215.918 272.095 216.705C271.805 217.492 271.66 218.341 271.66 219.253C271.66 220.164 271.805 221.011 272.095 221.792C272.385 222.573 272.832 223.203 273.435 223.683C274.039 224.162 274.808 224.402 275.744 224.402ZM287.216 217.797V226H285.121V212.364H287.145V214.494H287.322C287.642 213.802 288.127 213.246 288.778 212.825C289.429 212.399 290.27 212.186 291.3 212.186C292.223 212.186 293.031 212.375 293.723 212.754C294.416 213.127 294.954 213.695 295.339 214.459C295.724 215.216 295.916 216.175 295.916 217.335V226H293.821V217.477C293.821 216.406 293.543 215.571 292.987 214.974C292.43 214.37 291.667 214.068 290.696 214.068C290.027 214.068 289.429 214.213 288.903 214.503C288.382 214.793 287.971 215.216 287.669 215.773C287.367 216.329 287.216 217.004 287.216 217.797Z" fill="black"/>
<path d="M131.202 268.818H133.83L140.009 283.911H140.222L146.401 268.818H149.028V287H146.969V273.186H146.791L141.109 287H139.121L133.439 273.186H133.261V287H131.202V268.818ZM158.876 287.284C157.562 287.284 156.429 286.994 155.476 286.414C154.529 285.828 153.798 285.011 153.283 283.964C152.774 282.91 152.52 281.685 152.52 280.288C152.52 278.892 152.774 277.661 153.283 276.595C153.798 275.524 154.514 274.689 155.432 274.092C156.355 273.488 157.432 273.186 158.663 273.186C159.373 273.186 160.075 273.304 160.767 273.541C161.46 273.778 162.09 274.163 162.658 274.695C163.226 275.222 163.679 275.92 164.016 276.79C164.354 277.661 164.522 278.732 164.522 280.004V280.892H154.011V279.081H162.392C162.392 278.312 162.238 277.625 161.93 277.021C161.628 276.418 161.196 275.941 160.634 275.592C160.078 275.243 159.421 275.068 158.663 275.068C157.829 275.068 157.107 275.275 156.497 275.69C155.893 276.098 155.429 276.631 155.103 277.288C154.778 277.945 154.615 278.649 154.615 279.401V280.608C154.615 281.638 154.792 282.511 155.147 283.227C155.508 283.937 156.009 284.479 156.648 284.852C157.287 285.219 158.03 285.402 158.876 285.402C159.427 285.402 159.924 285.325 160.368 285.171C160.817 285.011 161.205 284.775 161.531 284.461C161.856 284.141 162.108 283.745 162.285 283.271L164.309 283.839C164.096 284.526 163.738 285.13 163.235 285.651C162.732 286.165 162.111 286.568 161.371 286.858C160.631 287.142 159.799 287.284 158.876 287.284ZM167.71 287V273.364H169.734V275.494H169.911C170.195 274.766 170.654 274.201 171.287 273.799C171.921 273.39 172.681 273.186 173.569 273.186C174.469 273.186 175.217 273.39 175.815 273.799C176.419 274.201 176.889 274.766 177.227 275.494H177.369C177.718 274.79 178.242 274.231 178.94 273.816C179.638 273.396 180.476 273.186 181.453 273.186C182.672 273.186 183.669 273.568 184.444 274.331C185.22 275.089 185.607 276.27 185.607 277.874V287H183.512V277.874C183.512 276.867 183.237 276.148 182.687 275.716C182.136 275.284 181.488 275.068 180.742 275.068C179.783 275.068 179.041 275.358 178.514 275.938C177.987 276.512 177.724 277.24 177.724 278.122V287H175.593V277.661C175.593 276.885 175.342 276.261 174.839 275.787C174.335 275.308 173.687 275.068 172.894 275.068C172.35 275.068 171.841 275.213 171.367 275.503C170.9 275.793 170.521 276.196 170.231 276.711C169.947 277.22 169.805 277.808 169.805 278.477V287H167.71ZM189.438 292.114V273.364H191.462V275.53H191.711C191.865 275.293 192.078 274.991 192.35 274.624C192.628 274.251 193.025 273.92 193.54 273.63C194.061 273.334 194.765 273.186 195.653 273.186C196.801 273.186 197.813 273.473 198.689 274.047C199.565 274.621 200.248 275.435 200.74 276.489C201.231 277.542 201.476 278.785 201.476 280.217C201.476 281.661 201.231 282.913 200.74 283.973C200.248 285.026 199.568 285.843 198.698 286.423C197.828 286.997 196.824 287.284 195.688 287.284C194.812 287.284 194.111 287.139 193.584 286.849C193.057 286.553 192.652 286.219 192.368 285.846C192.084 285.467 191.865 285.153 191.711 284.905H191.533V292.114H189.438ZM191.498 280.182C191.498 281.212 191.649 282.12 191.951 282.907C192.252 283.689 192.693 284.301 193.273 284.745C193.853 285.183 194.564 285.402 195.404 285.402C196.28 285.402 197.011 285.171 197.597 284.71C198.189 284.242 198.633 283.615 198.929 282.827C199.23 282.034 199.381 281.152 199.381 280.182C199.381 279.223 199.233 278.359 198.937 277.589C198.647 276.814 198.206 276.202 197.615 275.752C197.029 275.296 196.292 275.068 195.404 275.068C194.552 275.068 193.836 275.284 193.256 275.716C192.676 276.142 192.238 276.74 191.942 277.51C191.646 278.273 191.498 279.164 191.498 280.182ZM206.768 278.797V287H204.672V268.818H206.768V275.494H206.945C207.265 274.79 207.744 274.231 208.383 273.816C209.029 273.396 209.887 273.186 210.958 273.186C211.887 273.186 212.701 273.373 213.399 273.745C214.098 274.112 214.639 274.678 215.024 275.441C215.415 276.199 215.61 277.163 215.61 278.335V287H213.515V278.477C213.515 277.394 213.234 276.557 212.671 275.965C212.115 275.367 211.343 275.068 210.354 275.068C209.668 275.068 209.052 275.213 208.508 275.503C207.969 275.793 207.543 276.216 207.229 276.773C206.922 277.329 206.768 278.004 206.768 278.797ZM219.443 287V273.364H221.538V287H219.443ZM220.508 271.091C220.1 271.091 219.748 270.952 219.452 270.674C219.162 270.395 219.017 270.061 219.017 269.67C219.017 269.28 219.162 268.945 219.452 268.667C219.748 268.389 220.1 268.25 220.508 268.25C220.917 268.25 221.266 268.389 221.556 268.667C221.852 268.945 222 269.28 222 269.67C222 270.061 221.852 270.395 221.556 270.674C221.266 270.952 220.917 271.091 220.508 271.091ZM235.035 276.418L233.153 276.95C233.034 276.637 232.86 276.332 232.629 276.036C232.404 275.734 232.096 275.485 231.706 275.29C231.315 275.095 230.815 274.997 230.205 274.997C229.371 274.997 228.675 275.19 228.119 275.574C227.568 275.953 227.293 276.435 227.293 277.021C227.293 277.542 227.483 277.953 227.861 278.255C228.24 278.557 228.832 278.809 229.637 279.01L231.661 279.507C232.88 279.803 233.789 280.256 234.387 280.865C234.984 281.469 235.283 282.247 235.283 283.2C235.283 283.982 235.058 284.68 234.609 285.295C234.165 285.911 233.543 286.396 232.744 286.751C231.945 287.107 231.016 287.284 229.957 287.284C228.566 287.284 227.415 286.982 226.503 286.379C225.592 285.775 225.015 284.893 224.772 283.733L226.761 283.236C226.95 283.97 227.308 284.52 227.835 284.887C228.367 285.254 229.063 285.438 229.921 285.438C230.898 285.438 231.673 285.23 232.247 284.816C232.827 284.396 233.117 283.893 233.117 283.307C233.117 282.833 232.951 282.437 232.62 282.117C232.289 281.792 231.78 281.549 231.093 281.389L228.82 280.857C227.571 280.561 226.654 280.102 226.068 279.48C225.488 278.853 225.198 278.069 225.198 277.128C225.198 276.358 225.414 275.678 225.846 275.086C226.284 274.494 226.879 274.029 227.631 273.692C228.388 273.355 229.246 273.186 230.205 273.186C231.555 273.186 232.614 273.482 233.383 274.074C234.159 274.666 234.709 275.447 235.035 276.418Z" fill="black"/>
<path d="M536.832 282.5H534.631C534.5 281.867 534.273 281.31 533.947 280.831C533.627 280.352 533.237 279.949 532.775 279.624C532.319 279.292 531.813 279.044 531.257 278.878C530.701 278.712 530.121 278.629 529.517 278.629C528.416 278.629 527.419 278.907 526.525 279.464C525.637 280.02 524.93 280.84 524.403 281.923C523.883 283.006 523.622 284.335 523.622 285.909C523.622 287.483 523.883 288.812 524.403 289.895C524.93 290.978 525.637 291.798 526.525 292.354C527.419 292.911 528.416 293.189 529.517 293.189C530.121 293.189 530.701 293.106 531.257 292.94C531.813 292.775 532.319 292.529 532.775 292.203C533.237 291.872 533.627 291.467 533.947 290.987C534.273 290.502 534.5 289.946 534.631 289.318H536.832C536.667 290.247 536.365 291.079 535.927 291.813C535.489 292.547 534.944 293.171 534.293 293.686C533.642 294.195 532.911 294.583 532.1 294.849C531.296 295.115 530.434 295.249 529.517 295.249C527.966 295.249 526.587 294.87 525.38 294.112C524.173 293.355 523.223 292.277 522.53 290.881C521.838 289.484 521.491 287.827 521.491 285.909C521.491 283.991 521.838 282.334 522.53 280.938C523.223 279.541 524.173 278.464 525.38 277.706C526.587 276.948 527.966 276.57 529.517 276.57C530.434 276.57 531.296 276.703 532.1 276.969C532.911 277.235 533.642 277.626 534.293 278.141C534.944 278.65 535.489 279.271 535.927 280.005C536.365 280.733 536.667 281.565 536.832 282.5ZM542.201 286.797V295H540.106V276.818H542.201V283.494H542.379C542.698 282.79 543.178 282.231 543.817 281.816C544.462 281.396 545.32 281.186 546.392 281.186C547.321 281.186 548.135 281.373 548.833 281.745C549.531 282.112 550.073 282.678 550.458 283.441C550.848 284.199 551.044 285.163 551.044 286.335V295H548.948V286.477C548.948 285.394 548.667 284.557 548.105 283.965C547.549 283.367 546.776 283.068 545.788 283.068C545.101 283.068 544.486 283.213 543.941 283.503C543.403 283.793 542.977 284.216 542.663 284.773C542.355 285.329 542.201 286.004 542.201 286.797ZM558.889 295.32C558.025 295.32 557.241 295.157 556.537 294.831C555.832 294.5 555.273 294.023 554.859 293.402C554.445 292.775 554.237 292.017 554.237 291.129C554.237 290.348 554.391 289.715 554.699 289.229C555.007 288.738 555.418 288.353 555.933 288.075C556.448 287.797 557.016 287.59 557.638 287.454C558.265 287.312 558.895 287.199 559.529 287.116C560.357 287.01 561.029 286.93 561.544 286.877C562.065 286.818 562.443 286.72 562.68 286.584C562.923 286.448 563.044 286.211 563.044 285.874V285.803C563.044 284.927 562.805 284.246 562.325 283.761C561.852 283.275 561.133 283.033 560.168 283.033C559.168 283.033 558.383 283.252 557.815 283.69C557.247 284.128 556.847 284.595 556.617 285.092L554.628 284.382C554.983 283.554 555.457 282.908 556.048 282.447C556.646 281.979 557.297 281.654 558.002 281.47C558.712 281.281 559.41 281.186 560.097 281.186C560.535 281.186 561.038 281.239 561.606 281.346C562.18 281.446 562.733 281.657 563.266 281.976C563.805 282.296 564.252 282.778 564.607 283.423C564.962 284.068 565.139 284.933 565.139 286.016V295H563.044V293.153H562.938C562.796 293.449 562.559 293.766 562.227 294.103C561.896 294.441 561.455 294.728 560.905 294.964C560.354 295.201 559.682 295.32 558.889 295.32ZM559.209 293.438C560.038 293.438 560.736 293.275 561.304 292.949C561.878 292.624 562.31 292.203 562.6 291.689C562.896 291.174 563.044 290.632 563.044 290.064V288.146C562.955 288.253 562.76 288.35 562.458 288.439C562.162 288.522 561.819 288.596 561.428 288.661C561.044 288.72 560.668 288.774 560.301 288.821C559.94 288.862 559.647 288.898 559.422 288.928C558.878 288.999 558.369 289.114 557.895 289.274C557.427 289.428 557.049 289.661 556.759 289.975C556.475 290.283 556.333 290.703 556.333 291.236C556.333 291.964 556.602 292.514 557.14 292.887C557.685 293.254 558.374 293.438 559.209 293.438ZM574.894 281.364V283.139H567.827V281.364H574.894ZM569.887 278.097H571.982V291.094C571.982 291.686 572.068 292.129 572.239 292.425C572.417 292.715 572.642 292.911 572.914 293.011C573.192 293.106 573.485 293.153 573.793 293.153C574.024 293.153 574.213 293.142 574.361 293.118C574.509 293.088 574.628 293.065 574.716 293.047L575.142 294.929C575 294.982 574.802 295.036 574.548 295.089C574.293 295.148 573.971 295.178 573.58 295.178C572.988 295.178 572.408 295.05 571.84 294.796C571.278 294.541 570.81 294.154 570.437 293.633C570.07 293.112 569.887 292.455 569.887 291.662V278.097ZM583.976 281.364V283.139H576.909V281.364H583.976ZM578.969 278.097H581.064V291.094C581.064 291.686 581.15 292.129 581.321 292.425C581.499 292.715 581.724 292.911 581.996 293.011C582.274 293.106 582.567 293.153 582.875 293.153C583.106 293.153 583.295 293.142 583.443 293.118C583.591 293.088 583.71 293.065 583.798 293.047L584.225 294.929C584.082 294.982 583.884 295.036 583.63 295.089C583.375 295.148 583.053 295.178 582.662 295.178C582.07 295.178 581.49 295.05 580.922 294.796C580.36 294.541 579.892 294.154 579.519 293.633C579.152 293.112 578.969 292.455 578.969 291.662V278.097ZM591.14 295.32C590.276 295.32 589.492 295.157 588.788 294.831C588.083 294.5 587.524 294.023 587.11 293.402C586.696 292.775 586.488 292.017 586.488 291.129C586.488 290.348 586.642 289.715 586.95 289.229C587.258 288.738 587.669 288.353 588.184 288.075C588.699 287.797 589.267 287.59 589.889 287.454C590.516 287.312 591.146 287.199 591.78 287.116C592.608 287.01 593.28 286.93 593.795 286.877C594.316 286.818 594.694 286.72 594.931 286.584C595.174 286.448 595.295 286.211 595.295 285.874V285.803C595.295 284.927 595.055 284.246 594.576 283.761C594.103 283.275 593.383 283.033 592.419 283.033C591.419 283.033 590.634 283.252 590.066 283.69C589.498 284.128 589.098 284.595 588.868 285.092L586.879 284.382C587.234 283.554 587.708 282.908 588.299 282.447C588.897 281.979 589.548 281.654 590.253 281.47C590.963 281.281 591.661 281.186 592.348 281.186C592.786 281.186 593.289 281.239 593.857 281.346C594.431 281.446 594.984 281.657 595.517 281.976C596.056 282.296 596.503 282.778 596.858 283.423C597.213 284.068 597.39 284.933 597.39 286.016V295H595.295V293.153H595.189C595.047 293.449 594.81 293.766 594.478 294.103C594.147 294.441 593.706 294.728 593.156 294.964C592.605 295.201 591.933 295.32 591.14 295.32ZM591.46 293.438C592.289 293.438 592.987 293.275 593.555 292.949C594.129 292.624 594.561 292.203 594.851 291.689C595.147 291.174 595.295 290.632 595.295 290.064V288.146C595.206 288.253 595.011 288.35 594.709 288.439C594.413 288.522 594.07 288.596 593.679 288.661C593.295 288.72 592.919 288.774 592.552 288.821C592.191 288.862 591.898 288.898 591.673 288.928C591.129 288.999 590.62 289.114 590.146 289.274C589.678 289.428 589.3 289.661 589.01 289.975C588.726 290.283 588.584 290.703 588.584 291.236C588.584 291.964 588.853 292.514 589.391 292.887C589.936 293.254 590.625 293.438 591.46 293.438ZM603.31 286.797V295H601.214V281.364H603.239V283.494H603.416C603.736 282.802 604.221 282.246 604.872 281.825C605.523 281.399 606.364 281.186 607.393 281.186C608.317 281.186 609.125 281.375 609.817 281.754C610.51 282.127 611.048 282.695 611.433 283.459C611.818 284.216 612.01 285.175 612.01 286.335V295H609.915V286.477C609.915 285.406 609.637 284.571 609.08 283.974C608.524 283.37 607.76 283.068 606.79 283.068C606.121 283.068 605.523 283.213 604.996 283.503C604.476 283.793 604.064 284.216 603.762 284.773C603.461 285.329 603.31 286.004 603.31 286.797ZM621.378 295.284C620.147 295.284 619.067 294.991 618.138 294.405C617.215 293.819 616.493 293 615.972 291.946C615.457 290.893 615.199 289.661 615.199 288.253C615.199 286.832 615.457 285.592 615.972 284.533C616.493 283.474 617.215 282.651 618.138 282.065C619.067 281.479 620.147 281.186 621.378 281.186C622.609 281.186 623.687 281.479 624.61 282.065C625.539 282.651 626.261 283.474 626.776 284.533C627.297 285.592 627.557 286.832 627.557 288.253C627.557 289.661 627.297 290.893 626.776 291.946C626.261 293 625.539 293.819 624.61 294.405C623.687 294.991 622.609 295.284 621.378 295.284ZM621.378 293.402C622.313 293.402 623.083 293.162 623.687 292.683C624.29 292.203 624.737 291.573 625.027 290.792C625.317 290.011 625.462 289.164 625.462 288.253C625.462 287.341 625.317 286.492 625.027 285.705C624.737 284.918 624.29 284.281 623.687 283.796C623.083 283.311 622.313 283.068 621.378 283.068C620.443 283.068 619.674 283.311 619.07 283.796C618.466 284.281 618.02 284.918 617.729 285.705C617.439 286.492 617.294 287.341 617.294 288.253C617.294 289.164 617.439 290.011 617.729 290.792C618.02 291.573 618.466 292.203 619.07 292.683C619.674 293.162 620.443 293.402 621.378 293.402ZM636.295 295.284C635.064 295.284 633.984 294.991 633.055 294.405C632.132 293.819 631.41 293 630.889 291.946C630.374 290.893 630.116 289.661 630.116 288.253C630.116 286.832 630.374 285.592 630.889 284.533C631.41 283.474 632.132 282.651 633.055 282.065C633.984 281.479 635.064 281.186 636.295 281.186C637.526 281.186 638.604 281.479 639.527 282.065C640.456 282.651 641.178 283.474 641.693 284.533C642.214 285.592 642.474 286.832 642.474 288.253C642.474 289.661 642.214 290.893 641.693 291.946C641.178 293 640.456 293.819 639.527 294.405C638.604 294.991 637.526 295.284 636.295 295.284ZM636.295 293.402C637.23 293.402 638 293.162 638.604 292.683C639.207 292.203 639.654 291.573 639.944 290.792C640.234 290.011 640.379 289.164 640.379 288.253C640.379 287.341 640.234 286.492 639.944 285.705C639.654 284.918 639.207 284.281 638.604 283.796C638 283.311 637.23 283.068 636.295 283.068C635.36 283.068 634.591 283.311 633.987 283.796C633.383 284.281 632.936 284.918 632.646 285.705C632.356 286.492 632.211 287.341 632.211 288.253C632.211 289.164 632.356 290.011 632.646 290.792C632.936 291.573 633.383 292.203 633.987 292.683C634.591 293.162 635.36 293.402 636.295 293.402ZM651.177 300.398C650.165 300.398 649.295 300.268 648.567 300.007C647.839 299.753 647.232 299.415 646.747 298.995C646.267 298.581 645.886 298.137 645.601 297.663L647.271 296.491C647.46 296.74 647.7 297.024 647.99 297.344C648.28 297.669 648.676 297.95 649.179 298.187C649.688 298.43 650.354 298.551 651.177 298.551C652.278 298.551 653.186 298.285 653.902 297.752C654.618 297.219 654.976 296.385 654.976 295.249V292.479H654.799C654.645 292.727 654.426 293.035 654.142 293.402C653.864 293.763 653.461 294.086 652.935 294.37C652.414 294.648 651.709 294.787 650.822 294.787C649.721 294.787 648.732 294.527 647.856 294.006C646.986 293.485 646.297 292.727 645.788 291.733C645.285 290.739 645.033 289.531 645.033 288.111C645.033 286.714 645.279 285.498 645.77 284.462C646.261 283.42 646.945 282.615 647.821 282.047C648.697 281.473 649.709 281.186 650.857 281.186C651.745 281.186 652.449 281.334 652.97 281.63C653.497 281.92 653.899 282.251 654.177 282.624C654.462 282.991 654.681 283.293 654.834 283.53H655.047V281.364H657.072V295.391C657.072 296.562 656.805 297.515 656.273 298.249C655.746 298.989 655.036 299.531 654.142 299.874C653.254 300.223 652.266 300.398 651.177 300.398ZM651.106 292.905C651.946 292.905 652.656 292.712 653.236 292.328C653.816 291.943 654.257 291.39 654.559 290.668C654.861 289.946 655.012 289.081 655.012 288.075C655.012 287.093 654.864 286.226 654.568 285.474C654.272 284.722 653.834 284.134 653.254 283.707C652.674 283.281 651.958 283.068 651.106 283.068C650.218 283.068 649.478 283.293 648.886 283.743C648.3 284.193 647.859 284.796 647.563 285.554C647.273 286.312 647.128 287.152 647.128 288.075C647.128 289.022 647.276 289.86 647.572 290.588C647.874 291.31 648.318 291.878 648.904 292.292C649.496 292.701 650.23 292.905 651.106 292.905ZM664.92 295.32C664.056 295.32 663.271 295.157 662.567 294.831C661.863 294.5 661.303 294.023 660.889 293.402C660.475 292.775 660.268 292.017 660.268 291.129C660.268 290.348 660.422 289.715 660.729 289.229C661.037 288.738 661.448 288.353 661.963 288.075C662.478 287.797 663.046 287.59 663.668 287.454C664.295 287.312 664.926 287.199 665.559 287.116C666.387 287.01 667.059 286.93 667.574 286.877C668.095 286.818 668.474 286.72 668.71 286.584C668.953 286.448 669.074 286.211 669.074 285.874V285.803C669.074 284.927 668.835 284.246 668.355 283.761C667.882 283.275 667.163 283.033 666.198 283.033C665.198 283.033 664.414 283.252 663.845 283.69C663.277 284.128 662.878 284.595 662.647 285.092L660.658 284.382C661.013 283.554 661.487 282.908 662.079 282.447C662.677 281.979 663.328 281.654 664.032 281.47C664.742 281.281 665.44 281.186 666.127 281.186C666.565 281.186 667.068 281.239 667.636 281.346C668.21 281.446 668.764 281.657 669.296 281.976C669.835 282.296 670.282 282.778 670.637 283.423C670.992 284.068 671.17 284.933 671.17 286.016V295H669.074V293.153H668.968C668.826 293.449 668.589 293.766 668.258 294.103C667.926 294.441 667.485 294.728 666.935 294.964C666.384 295.201 665.713 295.32 664.92 295.32ZM665.239 293.438C666.068 293.438 666.766 293.275 667.334 292.949C667.909 292.624 668.341 292.203 668.631 291.689C668.927 291.174 669.074 290.632 669.074 290.064V288.146C668.986 288.253 668.79 288.35 668.489 288.439C668.193 288.522 667.849 288.596 667.459 288.661C667.074 288.72 666.698 288.774 666.331 288.821C665.97 288.862 665.677 288.898 665.452 288.928C664.908 288.999 664.399 289.114 663.925 289.274C663.458 289.428 663.079 289.661 662.789 289.975C662.505 290.283 662.363 290.703 662.363 291.236C662.363 291.964 662.632 292.514 663.171 292.887C663.715 293.254 664.405 293.438 665.239 293.438Z" fill="black"/>
<circle cx="736.511" cy="200.511" r="9.01136" fill="#FFE587" stroke="black"/>
<circle cx="872.511" cy="133.511" r="9.01136" fill="#FFE587" stroke="black"/>
<circle cx="390.511" cy="130.511" r="9.01136" fill="#FFE587" stroke="black"/>
<circle cx="244.511" cy="244.511" r="9.01136" fill="#FFE587" stroke="black"/>
<circle cx="128.511" cy="302.511" r="9.01136" fill="#FFE587" stroke="black"/>
<circle cx="598.511" cy="312.511" r="9.01136" fill="#FFE587" stroke="black"/>
<defs>
<filter id="filter0_d_143_434" x="93" y="112.449" width="874.72" height="218.052" filterUnits="userSpaceOnUse" color-interpolation-filters="sRGB">
<feFlood flood-opacity="0" result="BackgroundImageFix"/>
<feColorMatrix in="SourceAlpha" type="matrix" values="0 0 0 0 0 0 0 0 0 0 0 0 0 0 0 0 0 0 127 0" result="hardAlpha"/>
<feOffset dy="4"/>
<feGaussianBlur stdDeviation="2"/>
<feComposite in2="hardAlpha" operator="out"/>
<feColorMatrix type="matrix" values="0 0 0 0 0 0 0 0 0 0 0 0 0 0 0 0 0 0 0.25 0"/>
<feBlend mode="normal" in2="BackgroundImageFix" result="effect1_dropShadow_143_434"/>
<feBlend mode="normal" in="SourceGraphic" in2="effect1_dropShadow_143_434" result="shape"/>
</filter>
</defs>
</svg>
