<svg width="910" height="878" viewBox="0 0 910 878" fill="none" xmlns="http://www.w3.org/2000/svg">
<rect x="0.5" y="0.5" width="909" height="877" rx="35.5" fill="#97DCFF" stroke="#717171"/>
<path d="M165.065 241.545V259H162.253L154.028 247.111H153.884V259H150.722V241.545H153.551L161.767 253.443H161.92V241.545H165.065ZM168.511 241.545H172.38L177.562 254.193H177.766L182.948 241.545H186.817V259H183.783V247.009H183.621L178.798 258.949H176.531L171.707 246.983H171.545V259H168.511V241.545Z" fill="#005A5E"/>
<path d="M186.722 666.545H190.591L195.773 679.193H195.977L201.159 666.545H205.028V684H201.994V672.009H201.832L197.009 683.949H194.741L189.918 671.983H189.756V684H186.722V666.545ZM214.131 684.256C212.818 684.256 211.685 683.983 210.73 683.438C209.781 682.886 209.051 682.108 208.54 681.102C208.028 680.091 207.773 678.901 207.773 677.531C207.773 676.185 208.028 675.003 208.54 673.986C209.057 672.963 209.778 672.168 210.705 671.599C211.631 671.026 212.719 670.739 213.969 670.739C214.776 670.739 215.537 670.869 216.253 671.131C216.974 671.386 217.611 671.784 218.162 672.324C218.719 672.864 219.156 673.551 219.474 674.386C219.793 675.216 219.952 676.205 219.952 677.352V678.298H209.222V676.219H216.994C216.989 675.628 216.861 675.102 216.611 674.642C216.361 674.176 216.011 673.81 215.562 673.543C215.119 673.276 214.602 673.142 214.011 673.142C213.381 673.142 212.827 673.295 212.349 673.602C211.872 673.903 211.5 674.301 211.233 674.795C210.972 675.284 210.838 675.821 210.832 676.406V678.222C210.832 678.983 210.972 679.636 211.25 680.182C211.528 680.722 211.918 681.136 212.418 681.426C212.918 681.71 213.503 681.852 214.173 681.852C214.622 681.852 215.028 681.79 215.392 681.665C215.756 681.534 216.071 681.344 216.338 681.094C216.605 680.844 216.807 680.534 216.943 680.165L219.824 680.489C219.642 681.25 219.295 681.915 218.784 682.483C218.278 683.045 217.631 683.483 216.841 683.795C216.051 684.102 215.148 684.256 214.131 684.256ZM224.803 670.909L227.445 675.741L230.13 670.909H233.394L229.448 677.455L233.462 684H230.215L227.445 679.287L224.701 684H221.428L225.417 677.455L221.531 670.909H224.803ZM235.781 684V670.909H238.866V684H235.781ZM237.332 669.051C236.843 669.051 236.423 668.889 236.07 668.565C235.718 668.236 235.542 667.841 235.542 667.381C235.542 666.915 235.718 666.52 236.07 666.196C236.423 665.866 236.843 665.702 237.332 665.702C237.826 665.702 238.246 665.866 238.593 666.196C238.945 666.52 239.121 666.915 239.121 667.381C239.121 667.841 238.945 668.236 238.593 668.565C238.246 668.889 237.826 669.051 237.332 669.051ZM247.749 684.256C246.442 684.256 245.32 683.969 244.382 683.395C243.45 682.821 242.732 682.028 242.226 681.017C241.726 680 241.476 678.83 241.476 677.506C241.476 676.176 241.732 675.003 242.243 673.986C242.754 672.963 243.476 672.168 244.408 671.599C245.345 671.026 246.453 670.739 247.732 670.739C248.794 670.739 249.734 670.935 250.553 671.327C251.376 671.713 252.033 672.261 252.521 672.972C253.01 673.676 253.288 674.5 253.357 675.443H250.408C250.288 674.812 250.004 674.287 249.555 673.866C249.112 673.44 248.518 673.227 247.774 673.227C247.143 673.227 246.589 673.398 246.112 673.739C245.635 674.074 245.263 674.557 244.996 675.188C244.734 675.818 244.604 676.574 244.604 677.455C244.604 678.347 244.734 679.114 244.996 679.756C245.257 680.392 245.624 680.884 246.095 681.23C246.572 681.571 247.132 681.741 247.774 681.741C248.229 681.741 248.635 681.656 248.993 681.486C249.357 681.31 249.661 681.057 249.905 680.727C250.149 680.398 250.317 679.997 250.408 679.526H253.357C253.283 680.452 253.01 681.273 252.538 681.989C252.067 682.699 251.425 683.256 250.612 683.659C249.8 684.057 248.845 684.256 247.749 684.256ZM261.6 684.256C260.322 684.256 259.214 683.974 258.276 683.412C257.339 682.849 256.612 682.062 256.094 681.051C255.583 680.04 255.327 678.858 255.327 677.506C255.327 676.153 255.583 674.969 256.094 673.952C256.612 672.935 257.339 672.145 258.276 671.582C259.214 671.02 260.322 670.739 261.6 670.739C262.879 670.739 263.987 671.02 264.924 671.582C265.862 672.145 266.586 672.935 267.097 673.952C267.614 674.969 267.873 676.153 267.873 677.506C267.873 678.858 267.614 680.04 267.097 681.051C266.586 682.062 265.862 682.849 264.924 683.412C263.987 683.974 262.879 684.256 261.6 684.256ZM261.617 681.784C262.31 681.784 262.89 681.594 263.356 681.213C263.822 680.827 264.168 680.31 264.396 679.662C264.629 679.014 264.745 678.293 264.745 677.497C264.745 676.696 264.629 675.972 264.396 675.324C264.168 674.67 263.822 674.151 263.356 673.764C262.89 673.378 262.31 673.185 261.617 673.185C260.907 673.185 260.316 673.378 259.844 673.764C259.379 674.151 259.029 674.67 258.796 675.324C258.569 675.972 258.455 676.696 258.455 677.497C258.455 678.293 258.569 679.014 258.796 679.662C259.029 680.31 259.379 680.827 259.844 681.213C260.316 681.594 260.907 681.784 261.617 681.784Z" fill="#00943D"/>
<path d="M574.318 167.273C574.318 169.153 573.966 170.764 573.261 172.105C572.563 173.44 571.608 174.463 570.398 175.173C569.193 175.884 567.827 176.239 566.298 176.239C564.77 176.239 563.401 175.884 562.19 175.173C560.986 174.457 560.031 173.432 559.327 172.097C558.628 170.756 558.278 169.148 558.278 167.273C558.278 165.392 558.628 163.784 559.327 162.449C560.031 161.108 560.986 160.082 562.19 159.372C563.401 158.662 564.77 158.307 566.298 158.307C567.827 158.307 569.193 158.662 570.398 159.372C571.608 160.082 572.563 161.108 573.261 162.449C573.966 163.784 574.318 165.392 574.318 167.273ZM571.139 167.273C571.139 165.949 570.932 164.832 570.517 163.923C570.108 163.009 569.54 162.318 568.812 161.852C568.085 161.381 567.247 161.145 566.298 161.145C565.349 161.145 564.511 161.381 563.784 161.852C563.057 162.318 562.486 163.009 562.071 163.923C561.662 164.832 561.457 165.949 561.457 167.273C561.457 168.597 561.662 169.716 562.071 170.631C562.486 171.54 563.057 172.23 563.784 172.702C564.511 173.168 565.349 173.401 566.298 173.401C567.247 173.401 568.085 173.168 568.812 172.702C569.54 172.23 570.108 171.54 570.517 170.631C570.932 169.716 571.139 168.597 571.139 167.273ZM577.308 176V158.545H580.469V166.565H580.683L587.492 158.545H591.353L584.603 166.378L591.413 176H587.612L582.404 168.517L580.469 170.801V176H577.308Z" fill="#005A5E"/>
<path d="M826.963 263H823.588L829.733 245.545H833.636L839.79 263H836.415L831.753 249.125H831.616L826.963 263ZM827.074 256.156H836.278V258.696H827.074V256.156ZM842.089 263V245.545H848.634C849.975 245.545 851.1 245.778 852.009 246.244C852.924 246.71 853.614 247.364 854.08 248.205C854.552 249.04 854.788 250.014 854.788 251.128C854.788 252.247 854.549 253.219 854.072 254.043C853.6 254.861 852.904 255.494 851.984 255.943C851.063 256.386 849.933 256.608 848.592 256.608H843.93V253.983H848.165C848.95 253.983 849.592 253.875 850.092 253.659C850.592 253.437 850.961 253.116 851.2 252.696C851.444 252.27 851.566 251.747 851.566 251.128C851.566 250.509 851.444 249.98 851.2 249.543C850.955 249.099 850.583 248.764 850.083 248.537C849.583 248.304 848.938 248.188 848.148 248.188H845.251V263H842.089ZM851.106 255.091L855.427 263H851.898L847.654 255.091H851.106Z" fill="#005A5E"/>
<path d="M824.722 386V368.545H827.884V383.349H835.571V386H824.722ZM841.213 386H837.838L843.983 368.545H847.886L854.04 386H850.665L846.003 372.125H845.866L841.213 386ZM841.324 379.156H850.528V381.696H841.324V379.156Z" fill="#005A5E"/>
<g filter="url(#filter0_d_160_471)">
<path d="M803.5 394L791 379.5V271L789.5 268L786.5 269.545L781.5 268L772.937 269.545L765.5 264.5L748.583 257.381L726.934 241.162L720.5 241.5L718 246.5L710.697 247.92L704 246.568L701.226 242.514L690 245L686.343 249.271L680.5 246.5L676 247.92L668.5 249.271L664.5 254H658L654 259.5L650.5 254H645.5L639.5 249.271V246.5L636.5 244.5L632 249L623.5 247.5L621.5 241L617 241.5L616.5 246.5L610.5 249.271L611 257H606.513L604 253L606.513 247.92L604 245L596 248.5L590.5 251L587.5 244.5L581.5 245L581 240.5L577.173 238.459L567.701 246.568L559.5 246.5L559 238.5L551.038 237V227.647L544.273 228.998L536.155 226.295L529.39 233.053L522.624 226.295L511.8 227.647L505.5 227L500.976 222.24L486.092 221.5V215.483L483.386 210.077L476.621 206.022L473 211.428L465 208.5L456.5 211.428L438.736 192.443V56H259.192L257.428 380.372C187.07 379.921 45 379.033 45 379.083V387.129L53.1183 395.239L56 396L63.5 400L72 417.5L85.5 422.5L97.5 437.5L107.5 443.5L110.5 450L120 458L125 462L130 463L147 475.5L153.5 492L160.009 504.714L163 525.5L171.5 541.5L177.5 546.5L186 550.667L191.5 558L198 562.831L215 568L223 575H229L232.5 580L244.692 586.005L254.5 587.159L256 582L262 573L269 569.5L266.899 562.831L270.958 560.128L272.311 550.667L277 543L279.077 535.8L291 532L296.666 534.448L302 525.5L318 532L322 530L325.5 532L329 530L342.5 534.448L344.5 533.097L348 530V534.448L350.5 532L353 534.448H355.5L357.5 540.5L361 541.5V546.5L365 543V550.667L371 553.5L376 555L381 561.5L392.5 568.5V573.643L399 578.5L401 591L406 597L409 605.5L417 620L421 634L425.5 636.5L427.323 639.407L433.5 643L438.5 652L442 653.5V656.5L444.5 658.5L443.5 661L447.5 667L450 668.5L454 674L465.5 679L467.15 699L471.5 703L473 712L471.5 715.5V719H474.5L475.5 723.5L481.5 728.5L486 738L487.5 749L492 753.5L490.5 758L499 759L501 761H504H510L517.5 770L520.5 768.266L528 772L531 771L533 774.5H537L538 778L542 779.5L554 782.5L565.922 780.703L578 784.485L590.5 796L592 794L594.5 796L595.5 789L608 788V784.485L598.395 778L597.042 768.266L592 757L590.5 742.5L586.5 734L584.864 731.5V721L589.5 719L590.5 704H588.5L584.864 705L579.5 703V701L587.57 695.5V701L591.63 699L592.983 696.5L595.689 691.5L597.042 686L599.748 677.712V674L591.63 667L587.57 661H595.689L602 664H608L609.5 659H612L615 650.681V646L604 649L606.513 645L615 639L616 643.5L620 645L622.75 643.5L628.5 638V629L626.5 625.5L634.5 626.5L635.5 629H641.5L650 624.5V626.5L647.5 630.408L641.5 633.5L637.5 637L633 639L628.5 643.5L624.5 646L618.69 650.681L616 657L617.5 659L622.75 654.5L624.5 650.681L630.868 646L635.5 642L640 637L651.163 630.408L653 622.5L646.5 616.5L638.986 611.5L637.5 604.5L641.5 605.5V610.135L651.163 611.5L653 606.5L658 610.135L663 606.5L662 612.838L665 614.189L672 610.135L674.5 612.838H680V606.5L686.5 604.5L693 601.5H699L705.285 598L715 592.5L722.5 586.5L727.5 581.5L726 578.5V575L729.5 572L734.5 569.588L739 565.5L743.17 560L740.5 552.5L734.5 548.5L736.5 547L737.758 540L742 543.5L744.523 542.5L743.17 537.5L749.936 532.5L753.5 536.5L747.23 546L749.936 549.315L753.5 548.5L756.701 548H761L762.5 549.315L765 550.667H768.5L777.5 546L790.5 540L803.5 539L798.5 531L810.5 511.5L812 508V500.5L808.5 493.5L810.5 486.5V480L820 461V457.5L821 453.5L820 449L823 446L820 437.5L814 428V422.5L810.5 414L803.5 406.5L805 399L803.5 394Z" fill="#FFD597"/>
<path d="M803.5 394L791 379.5V271L789.5 268L786.5 269.545L781.5 268L772.937 269.545L765.5 264.5L748.583 257.381L726.934 241.162L720.5 241.5L718 246.5L710.697 247.92L704 246.568L701.226 242.514L690 245L686.343 249.271L680.5 246.5L676 247.92L668.5 249.271L664.5 254H658L654 259.5L650.5 254H645.5L639.5 249.271V246.5L636.5 244.5L632 249L623.5 247.5L621.5 241L617 241.5L616.5 246.5L610.5 249.271L611 257H606.513L604 253L606.513 247.92L604 245L596 248.5L590.5 251L587.5 244.5L581.5 245L581 240.5L577.173 238.459L567.701 246.568L559.5 246.5L559 238.5L551.038 237V227.647L544.273 228.998L536.155 226.295L529.39 233.053L522.624 226.295L511.8 227.647L505.5 227L500.976 222.24L486.092 221.5V215.483L483.386 210.077L476.621 206.022L473 211.428L465 208.5L456.5 211.428L438.736 192.443V56H259.192L257.428 380.372C187.07 379.921 45 379.033 45 379.083V387.129L53.1183 395.239L56 396L63.5 400L72 417.5L85.5 422.5L97.5 437.5L107.5 443.5L110.5 450L120 458L125 462L130 463L147 475.5L153.5 492L160.009 504.714L163 525.5L171.5 541.5L177.5 546.5L186 550.667L191.5 558L198 562.831L215 568L223 575H229L232.5 580L244.692 586.005L254.5 587.159L256 582L262 573L269 569.5L266.899 562.831L270.958 560.128L272.311 550.667L277 543L279.077 535.8L291 532L296.666 534.448L302 525.5L318 532L322 530L325.5 532L329 530L342.5 534.448L344.5 533.097L348 530V534.448L350.5 532L353 534.448H355.5L357.5 540.5L361 541.5V546.5L365 543V550.667L371 553.5L376 555L381 561.5L392.5 568.5V573.643L399 578.5L401 591L406 597L409 605.5L417 620L421 634L425.5 636.5L427.323 639.407L433.5 643L438.5 652L442 653.5V656.5L444.5 658.5L443.5 661L447.5 667L450 668.5L454 674L465.5 679L467.15 699L471.5 703L473 712L471.5 715.5V719H474.5L475.5 723.5L481.5 728.5L486 738L487.5 749L492 753.5L490.5 758L499 759L501 761H504H510L517.5 770L520.5 768.266L528 772L531 771L533 774.5H537L538 778L542 779.5L554 782.5L565.922 780.703L578 784.485L590.5 796L592 794L594.5 796L595.5 789L608 788V784.485L598.395 778L597.042 768.266L592 757L590.5 742.5L586.5 734L584.864 731.5V721L589.5 719L590.5 704H588.5L584.864 705L579.5 703V701L587.57 695.5V701L591.63 699L592.983 696.5L595.689 691.5L597.042 686L599.748 677.712V674L591.63 667L587.57 661H595.689L602 664H608L609.5 659H612L615 650.681V646L604 649L606.513 645L615 639L616 643.5L620 645L622.75 643.5L628.5 638V629L626.5 625.5L634.5 626.5L635.5 629H641.5L650 624.5V626.5L647.5 630.408L641.5 633.5L637.5 637L633 639L628.5 643.5L624.5 646L618.69 650.681L616 657L617.5 659L622.75 654.5L624.5 650.681L630.868 646L635.5 642L640 637L651.163 630.408L653 622.5L646.5 616.5L638.986 611.5L637.5 604.5L641.5 605.5V610.135L651.163 611.5L653 606.5L658 610.135L663 606.5L662 612.838L665 614.189L672 610.135L674.5 612.838H680V606.5L686.5 604.5L693 601.5H699L705.285 598L715 592.5L722.5 586.5L727.5 581.5L726 578.5V575L729.5 572L734.5 569.588L739 565.5L743.17 560L740.5 552.5L734.5 548.5L736.5 547L737.758 540L742 543.5L744.523 542.5L743.17 537.5L749.936 532.5L753.5 536.5L747.23 546L749.936 549.315L753.5 548.5L756.701 548H761L762.5 549.315L765 550.667H768.5L777.5 546L790.5 540L803.5 539L798.5 531L810.5 511.5L812 508V500.5L808.5 493.5L810.5 486.5V480L820 461V457.5L821 453.5L820 449L823 446L820 437.5L814 428V422.5L810.5 414L803.5 406.5L805 399L803.5 394Z" stroke="black"/>
</g>
<g filter="url(#filter1_d_160_471)">
<path d="M608 669.5L611 665L613 663.5H615L613 668L609.5 671.5L606.5 676.5L603.5 684L600.5 690.5L598.5 697.5L596.5 705.5L594.5 704L595.5 695.5L600.5 684L603.5 678.5L606.5 673.5L608 669.5Z" fill="#FFD597"/>
<path d="M608 669.5L611 665L613 663.5H615L613 668L609.5 671.5L606.5 676.5L603.5 684L600.5 690.5L598.5 697.5L596.5 705.5L594.5 704L595.5 695.5L600.5 684L603.5 678.5L606.5 673.5L608 669.5Z" stroke="black"/>
</g>
<circle cx="711.511" cy="532.511" r="9.01136" fill="#FFE587" stroke="black"/>
<path d="M681.202 515V496.818H683.403V504.915H693.098V496.818H695.3V515H693.098V506.868H683.403V515H681.202ZM704.963 515.284C703.732 515.284 702.652 514.991 701.723 514.405C700.8 513.819 700.077 513 699.557 511.946C699.042 510.893 698.784 509.661 698.784 508.253C698.784 506.832 699.042 505.592 699.557 504.533C700.077 503.474 700.8 502.651 701.723 502.065C702.652 501.479 703.732 501.186 704.963 501.186C706.194 501.186 707.271 501.479 708.195 502.065C709.124 502.651 709.846 503.474 710.361 504.533C710.882 505.592 711.142 506.832 711.142 508.253C711.142 509.661 710.882 510.893 710.361 511.946C709.846 513 709.124 513.819 708.195 514.405C707.271 514.991 706.194 515.284 704.963 515.284ZM704.963 513.402C705.898 513.402 706.668 513.162 707.271 512.683C707.875 512.203 708.322 511.573 708.612 510.792C708.902 510.011 709.047 509.164 709.047 508.253C709.047 507.341 708.902 506.492 708.612 505.705C708.322 504.918 707.875 504.281 707.271 503.796C706.668 503.311 705.898 503.068 704.963 503.068C704.028 503.068 703.259 503.311 702.655 503.796C702.051 504.281 701.604 504.918 701.314 505.705C701.024 506.492 700.879 507.341 700.879 508.253C700.879 509.164 701.024 510.011 701.314 510.792C701.604 511.573 702.051 512.203 702.655 512.683C703.259 513.162 704.028 513.402 704.963 513.402ZM722.934 509.425V501.364H725.029V515H722.934V512.692H722.792C722.473 513.384 721.975 513.973 721.301 514.458C720.626 514.938 719.774 515.178 718.744 515.178C717.892 515.178 717.134 514.991 716.471 514.618C715.808 514.239 715.287 513.671 714.909 512.914C714.53 512.15 714.34 511.188 714.34 510.028V501.364H716.436V509.886C716.436 510.881 716.714 511.674 717.27 512.266C717.832 512.857 718.549 513.153 719.419 513.153C719.939 513.153 720.469 513.02 721.008 512.754C721.552 512.488 722.008 512.079 722.375 511.529C722.748 510.978 722.934 510.277 722.934 509.425ZM738.526 504.418L736.644 504.95C736.525 504.637 736.351 504.332 736.12 504.036C735.895 503.734 735.587 503.485 735.197 503.29C734.806 503.095 734.306 502.997 733.696 502.997C732.862 502.997 732.166 503.19 731.61 503.574C731.06 503.953 730.784 504.435 730.784 505.021C730.784 505.542 730.974 505.953 731.353 506.255C731.731 506.557 732.323 506.809 733.128 507.01L735.152 507.507C736.372 507.803 737.28 508.256 737.878 508.865C738.476 509.469 738.775 510.247 738.775 511.2C738.775 511.982 738.55 512.68 738.1 513.295C737.656 513.911 737.034 514.396 736.235 514.751C735.436 515.107 734.507 515.284 733.448 515.284C732.057 515.284 730.906 514.982 729.994 514.379C729.083 513.775 728.506 512.893 728.263 511.733L730.252 511.236C730.441 511.97 730.799 512.52 731.326 512.887C731.859 513.254 732.554 513.438 733.412 513.438C734.389 513.438 735.164 513.23 735.738 512.816C736.318 512.396 736.608 511.893 736.608 511.307C736.608 510.833 736.443 510.437 736.111 510.117C735.78 509.792 735.271 509.549 734.584 509.389L732.311 508.857C731.063 508.561 730.145 508.102 729.559 507.48C728.979 506.853 728.689 506.069 728.689 505.128C728.689 504.358 728.905 503.678 729.337 503.086C729.775 502.494 730.37 502.029 731.122 501.692C731.879 501.355 732.738 501.186 733.696 501.186C735.046 501.186 736.105 501.482 736.875 502.074C737.65 502.666 738.2 503.447 738.526 504.418ZM747.859 501.364V503.139H740.792V501.364H747.859ZM742.852 498.097H744.947V511.094C744.947 511.686 745.033 512.129 745.204 512.425C745.382 512.715 745.607 512.911 745.879 513.011C746.157 513.106 746.45 513.153 746.758 513.153C746.989 513.153 747.178 513.142 747.326 513.118C747.474 513.088 747.592 513.065 747.681 513.047L748.107 514.929C747.965 514.982 747.767 515.036 747.513 515.089C747.258 515.148 746.935 515.178 746.545 515.178C745.953 515.178 745.373 515.05 744.805 514.796C744.243 514.541 743.775 514.154 743.402 513.633C743.035 513.112 742.852 512.455 742.852 511.662V498.097ZM756.404 515.284C755.173 515.284 754.092 514.991 753.163 514.405C752.24 513.819 751.518 513 750.997 511.946C750.482 510.893 750.225 509.661 750.225 508.253C750.225 506.832 750.482 505.592 750.997 504.533C751.518 503.474 752.24 502.651 753.163 502.065C754.092 501.479 755.173 501.186 756.404 501.186C757.635 501.186 758.712 501.479 759.635 502.065C760.564 502.651 761.286 503.474 761.801 504.533C762.322 505.592 762.583 506.832 762.583 508.253C762.583 509.661 762.322 510.893 761.801 511.946C761.286 513 760.564 513.819 759.635 514.405C758.712 514.991 757.635 515.284 756.404 515.284ZM756.404 513.402C757.339 513.402 758.108 513.162 758.712 512.683C759.316 512.203 759.762 511.573 760.052 510.792C760.342 510.011 760.487 509.164 760.487 508.253C760.487 507.341 760.342 506.492 760.052 505.705C759.762 504.918 759.316 504.281 758.712 503.796C758.108 503.311 757.339 503.068 756.404 503.068C755.469 503.068 754.699 503.311 754.095 503.796C753.492 504.281 753.045 504.918 752.755 505.705C752.465 506.492 752.32 507.341 752.32 508.253C752.32 509.164 752.465 510.011 752.755 510.792C753.045 511.573 753.492 512.203 754.095 512.683C754.699 513.162 755.469 513.402 756.404 513.402ZM767.876 506.797V515H765.781V501.364H767.805V503.494H767.983C768.302 502.802 768.788 502.246 769.439 501.825C770.09 501.399 770.93 501.186 771.96 501.186C772.883 501.186 773.691 501.375 774.384 501.754C775.076 502.127 775.615 502.695 775.999 503.459C776.384 504.216 776.576 505.175 776.576 506.335V515H774.481V506.477C774.481 505.406 774.203 504.571 773.647 503.974C773.09 503.37 772.327 503.068 771.356 503.068C770.687 503.068 770.09 503.213 769.563 503.503C769.042 503.793 768.631 504.216 768.329 504.773C768.027 505.329 767.876 506.004 767.876 506.797Z" fill="black"/>
<circle cx="626.511" cy="324.511" r="9.01136" fill="#FFE587" stroke="black"/>
<path d="M619.812 359H614.202V340.818H620.061C621.825 340.818 623.334 341.182 624.589 341.91C625.844 342.632 626.805 343.671 627.474 345.026C628.143 346.376 628.477 347.991 628.477 349.874C628.477 351.768 628.14 353.398 627.465 354.765C626.79 356.127 625.808 357.174 624.518 357.908C623.228 358.636 621.659 359 619.812 359ZM616.403 357.047H619.67C621.174 357.047 622.42 356.757 623.408 356.177C624.396 355.597 625.133 354.771 625.619 353.7C626.104 352.629 626.347 351.353 626.347 349.874C626.347 348.406 626.107 347.142 625.627 346.083C625.148 345.017 624.432 344.201 623.479 343.632C622.526 343.058 621.339 342.771 619.919 342.771H616.403V357.047ZM635.899 359.32C635.035 359.32 634.251 359.157 633.547 358.831C632.842 358.5 632.283 358.023 631.869 357.402C631.454 356.775 631.247 356.017 631.247 355.129C631.247 354.348 631.401 353.715 631.709 353.229C632.017 352.738 632.428 352.353 632.943 352.075C633.458 351.797 634.026 351.59 634.647 351.454C635.275 351.312 635.905 351.199 636.538 351.116C637.367 351.01 638.039 350.93 638.554 350.877C639.074 350.818 639.453 350.72 639.69 350.584C639.933 350.448 640.054 350.211 640.054 349.874V349.803C640.054 348.927 639.814 348.246 639.335 347.761C638.861 347.275 638.142 347.033 637.178 347.033C636.177 347.033 635.393 347.252 634.825 347.69C634.257 348.128 633.857 348.595 633.626 349.092L631.638 348.382C631.993 347.554 632.466 346.908 633.058 346.447C633.656 345.979 634.307 345.654 635.011 345.47C635.722 345.281 636.42 345.186 637.107 345.186C637.545 345.186 638.048 345.239 638.616 345.346C639.19 345.446 639.743 345.657 640.276 345.976C640.815 346.296 641.261 346.778 641.616 347.423C641.972 348.068 642.149 348.933 642.149 350.016V359H640.054V357.153H639.947C639.805 357.449 639.569 357.766 639.237 358.103C638.906 358.441 638.465 358.728 637.914 358.964C637.364 359.201 636.692 359.32 635.899 359.32ZM636.219 357.438C637.047 357.438 637.746 357.275 638.314 356.949C638.888 356.624 639.32 356.203 639.61 355.689C639.906 355.174 640.054 354.632 640.054 354.064V352.146C639.965 352.253 639.77 352.35 639.468 352.439C639.172 352.522 638.829 352.596 638.438 352.661C638.054 352.72 637.678 352.774 637.311 352.821C636.95 352.862 636.657 352.898 636.432 352.928C635.887 352.999 635.378 353.114 634.905 353.274C634.437 353.428 634.058 353.661 633.768 353.975C633.484 354.283 633.342 354.703 633.342 355.236C633.342 355.964 633.612 356.514 634.15 356.887C634.695 357.254 635.384 357.438 636.219 357.438ZM648.068 340.818V359H645.973V340.818H648.068ZM654.001 340.818V359H651.906V340.818H654.001ZM661.851 359.32C660.987 359.32 660.203 359.157 659.499 358.831C658.794 358.5 658.235 358.023 657.821 357.402C657.406 356.775 657.199 356.017 657.199 355.129C657.199 354.348 657.353 353.715 657.661 353.229C657.969 352.738 658.38 352.353 658.895 352.075C659.41 351.797 659.978 351.59 660.6 351.454C661.227 351.312 661.857 351.199 662.491 351.116C663.319 351.01 663.991 350.93 664.506 350.877C665.027 350.818 665.405 350.72 665.642 350.584C665.885 350.448 666.006 350.211 666.006 349.874V349.803C666.006 348.927 665.766 348.246 665.287 347.761C664.814 347.275 664.094 347.033 663.13 347.033C662.129 347.033 661.345 347.252 660.777 347.69C660.209 348.128 659.809 348.595 659.579 349.092L657.59 348.382C657.945 347.554 658.419 346.908 659.01 346.447C659.608 345.979 660.259 345.654 660.964 345.47C661.674 345.281 662.372 345.186 663.059 345.186C663.497 345.186 664 345.239 664.568 345.346C665.142 345.446 665.695 345.657 666.228 345.976C666.767 346.296 667.214 346.778 667.569 347.423C667.924 348.068 668.101 348.933 668.101 350.016V359H666.006V357.153H665.9C665.758 357.449 665.521 357.766 665.189 358.103C664.858 358.441 664.417 358.728 663.867 358.964C663.316 359.201 662.644 359.32 661.851 359.32ZM662.171 357.438C662.999 357.438 663.698 357.275 664.266 356.949C664.84 356.624 665.272 356.203 665.562 355.689C665.858 355.174 666.006 354.632 666.006 354.064V352.146C665.917 352.253 665.722 352.35 665.42 352.439C665.124 352.522 664.781 352.596 664.39 352.661C664.006 352.72 663.63 352.774 663.263 352.821C662.902 352.862 662.609 352.898 662.384 352.928C661.839 352.999 661.33 353.114 660.857 353.274C660.389 353.428 660.011 353.661 659.721 353.975C659.437 354.283 659.294 354.703 659.294 355.236C659.294 355.964 659.564 356.514 660.102 356.887C660.647 357.254 661.336 357.438 662.171 357.438ZM681.585 348.418L679.702 348.95C679.584 348.637 679.409 348.332 679.179 348.036C678.954 347.734 678.646 347.485 678.255 347.29C677.865 347.095 677.365 346.997 676.755 346.997C675.92 346.997 675.225 347.19 674.669 347.574C674.118 347.953 673.843 348.435 673.843 349.021C673.843 349.542 674.032 349.953 674.411 350.255C674.79 350.557 675.382 350.809 676.187 351.01L678.211 351.507C679.43 351.803 680.339 352.256 680.936 352.865C681.534 353.469 681.833 354.247 681.833 355.2C681.833 355.982 681.608 356.68 681.158 357.295C680.714 357.911 680.093 358.396 679.294 358.751C678.495 359.107 677.566 359.284 676.506 359.284C675.116 359.284 673.964 358.982 673.053 358.379C672.141 357.775 671.564 356.893 671.322 355.733L673.31 355.236C673.5 355.97 673.858 356.52 674.385 356.887C674.917 357.254 675.613 357.438 676.471 357.438C677.447 357.438 678.223 357.23 678.797 356.816C679.377 356.396 679.667 355.893 679.667 355.307C679.667 354.833 679.501 354.437 679.17 354.117C678.838 353.792 678.329 353.549 677.643 353.389L675.37 352.857C674.121 352.561 673.204 352.102 672.618 351.48C672.038 350.853 671.748 350.069 671.748 349.128C671.748 348.358 671.964 347.678 672.396 347.086C672.834 346.494 673.429 346.029 674.18 345.692C674.938 345.355 675.796 345.186 676.755 345.186C678.104 345.186 679.164 345.482 679.933 346.074C680.709 346.666 681.259 347.447 681.585 348.418Z" fill="black"/>
<circle cx="526.511" cy="557.511" r="9.01136" fill="#FFE587" stroke="black"/>
<path d="M492.145 582.364C492.038 581.464 491.606 580.766 490.849 580.268C490.091 579.771 489.162 579.523 488.061 579.523C487.256 579.523 486.552 579.653 485.948 579.913C485.35 580.174 484.883 580.532 484.545 580.988C484.214 581.443 484.048 581.961 484.048 582.541C484.048 583.027 484.164 583.444 484.395 583.793C484.631 584.136 484.933 584.423 485.3 584.654C485.667 584.879 486.052 585.065 486.454 585.213C486.857 585.355 487.227 585.471 487.564 585.56L489.411 586.057C489.884 586.181 490.411 586.353 490.991 586.572C491.577 586.791 492.136 587.09 492.669 587.468C493.207 587.841 493.651 588.321 494 588.907C494.35 589.493 494.524 590.212 494.524 591.064C494.524 592.046 494.267 592.934 493.752 593.727C493.243 594.52 492.497 595.151 491.515 595.618C490.538 596.086 489.351 596.32 487.955 596.32C486.652 596.32 485.525 596.109 484.572 595.689C483.625 595.269 482.879 594.683 482.335 593.931C481.796 593.18 481.491 592.307 481.42 591.312H483.693C483.752 591.999 483.983 592.567 484.386 593.017C484.794 593.461 485.309 593.792 485.93 594.011C486.558 594.224 487.232 594.331 487.955 594.331C488.795 594.331 489.55 594.195 490.218 593.923C490.887 593.644 491.417 593.26 491.808 592.768C492.198 592.271 492.393 591.691 492.393 591.028C492.393 590.425 492.225 589.933 491.887 589.555C491.55 589.176 491.106 588.868 490.556 588.631C490.005 588.395 489.411 588.187 488.771 588.01L486.534 587.371C485.114 586.962 483.989 586.379 483.161 585.622C482.332 584.864 481.918 583.873 481.918 582.648C481.918 581.63 482.193 580.742 482.743 579.984C483.3 579.221 484.045 578.629 484.98 578.209C485.922 577.783 486.972 577.57 488.132 577.57C489.304 577.57 490.346 577.78 491.257 578.2C492.169 578.614 492.891 579.182 493.423 579.904C493.962 580.627 494.246 581.446 494.276 582.364H492.145ZM501.873 596.32C501.009 596.32 500.224 596.157 499.52 595.831C498.816 595.5 498.257 595.023 497.842 594.402C497.428 593.775 497.221 593.017 497.221 592.129C497.221 591.348 497.375 590.715 497.682 590.229C497.99 589.738 498.402 589.353 498.916 589.075C499.431 588.797 500 588.59 500.621 588.454C501.248 588.312 501.879 588.199 502.512 588.116C503.341 588.01 504.012 587.93 504.527 587.877C505.048 587.818 505.427 587.72 505.664 587.584C505.906 587.448 506.028 587.211 506.028 586.874V586.803C506.028 585.927 505.788 585.246 505.309 584.761C504.835 584.275 504.116 584.033 503.151 584.033C502.151 584.033 501.367 584.252 500.799 584.69C500.23 585.128 499.831 585.595 499.6 586.092L497.611 585.382C497.967 584.554 498.44 583.908 499.032 583.447C499.63 582.979 500.281 582.654 500.985 582.47C501.695 582.281 502.394 582.186 503.08 582.186C503.518 582.186 504.021 582.239 504.589 582.346C505.164 582.446 505.717 582.657 506.25 582.976C506.788 583.296 507.235 583.778 507.59 584.423C507.945 585.068 508.123 585.933 508.123 587.016V596H506.028V594.153H505.921C505.779 594.449 505.542 594.766 505.211 595.103C504.879 595.441 504.438 595.728 503.888 595.964C503.338 596.201 502.666 596.32 501.873 596.32ZM502.192 594.438C503.021 594.438 503.719 594.275 504.288 593.949C504.862 593.624 505.294 593.203 505.584 592.689C505.88 592.174 506.028 591.632 506.028 591.064V589.146C505.939 589.253 505.744 589.35 505.442 589.439C505.146 589.522 504.802 589.596 504.412 589.661C504.027 589.72 503.651 589.774 503.284 589.821C502.923 589.862 502.63 589.898 502.405 589.928C501.861 589.999 501.352 590.114 500.878 590.274C500.411 590.428 500.032 590.661 499.742 590.975C499.458 591.283 499.316 591.703 499.316 592.236C499.316 592.964 499.585 593.514 500.124 593.887C500.668 594.254 501.358 594.438 502.192 594.438ZM514.042 587.797V596H511.947V582.364H513.971V584.494H514.149C514.468 583.802 514.954 583.246 515.605 582.825C516.256 582.399 517.096 582.186 518.126 582.186C519.049 582.186 519.857 582.375 520.55 582.754C521.242 583.127 521.781 583.695 522.165 584.459C522.55 585.216 522.742 586.175 522.742 587.335V596H520.647V587.477C520.647 586.406 520.369 585.571 519.813 584.974C519.256 584.37 518.493 584.068 517.522 584.068C516.853 584.068 516.256 584.213 515.729 584.503C515.208 584.793 514.797 585.216 514.495 585.773C514.193 586.329 514.042 587.004 514.042 587.797ZM534.632 596H532.324L539 577.818H541.273L547.949 596H545.641L540.207 580.695H540.065L534.632 596ZM535.484 588.898H544.788V590.851H535.484V588.898ZM552.592 587.797V596H550.497V582.364H552.521V584.494H552.698C553.018 583.802 553.503 583.246 554.154 582.825C554.805 582.399 555.646 582.186 556.676 582.186C557.599 582.186 558.407 582.375 559.099 582.754C559.792 583.127 560.33 583.695 560.715 584.459C561.1 585.216 561.292 586.175 561.292 587.335V596H559.197V587.477C559.197 586.406 558.919 585.571 558.362 584.974C557.806 584.37 557.043 584.068 556.072 584.068C555.403 584.068 554.805 584.213 554.279 584.503C553.758 584.793 553.347 585.216 553.045 585.773C552.743 586.329 552.592 587.004 552.592 587.797ZM571.051 582.364V584.139H563.984V582.364H571.051ZM566.044 579.097H568.139V592.094C568.139 592.686 568.225 593.129 568.397 593.425C568.574 593.715 568.799 593.911 569.071 594.011C569.35 594.106 569.643 594.153 569.95 594.153C570.181 594.153 570.371 594.142 570.518 594.118C570.666 594.088 570.785 594.065 570.874 594.047L571.3 595.929C571.158 595.982 570.959 596.036 570.705 596.089C570.45 596.148 570.128 596.178 569.737 596.178C569.145 596.178 568.565 596.05 567.997 595.796C567.435 595.541 566.967 595.154 566.594 594.633C566.228 594.112 566.044 593.455 566.044 592.662V579.097ZM579.596 596.284C578.365 596.284 577.285 595.991 576.356 595.405C575.432 594.819 574.71 594 574.189 592.946C573.675 591.893 573.417 590.661 573.417 589.253C573.417 587.832 573.675 586.592 574.189 585.533C574.71 584.474 575.432 583.651 576.356 583.065C577.285 582.479 578.365 582.186 579.596 582.186C580.827 582.186 581.904 582.479 582.828 583.065C583.757 583.651 584.479 584.474 584.994 585.533C585.515 586.592 585.775 587.832 585.775 589.253C585.775 590.661 585.515 591.893 584.994 592.946C584.479 594 583.757 594.819 582.828 595.405C581.904 595.991 580.827 596.284 579.596 596.284ZM579.596 594.402C580.531 594.402 581.301 594.162 581.904 593.683C582.508 593.203 582.955 592.573 583.245 591.792C583.535 591.011 583.68 590.164 583.68 589.253C583.68 588.341 583.535 587.492 583.245 586.705C582.955 585.918 582.508 585.281 581.904 584.796C581.301 584.311 580.531 584.068 579.596 584.068C578.661 584.068 577.892 584.311 577.288 584.796C576.684 585.281 576.237 585.918 575.947 586.705C575.657 587.492 575.512 588.341 575.512 589.253C575.512 590.164 575.657 591.011 575.947 591.792C576.237 592.573 576.684 593.203 577.288 593.683C577.892 594.162 578.661 594.402 579.596 594.402ZM591.068 587.797V596H588.973V582.364H590.997V584.494H591.175C591.495 583.802 591.98 583.246 592.631 582.825C593.282 582.399 594.122 582.186 595.152 582.186C596.076 582.186 596.883 582.375 597.576 582.754C598.268 583.127 598.807 583.695 599.192 584.459C599.576 585.216 599.769 586.175 599.769 587.335V596H597.674V587.477C597.674 586.406 597.395 585.571 596.839 584.974C596.283 584.37 595.519 584.068 594.549 584.068C593.88 584.068 593.282 584.213 592.755 584.503C592.234 584.793 591.823 585.216 591.521 585.773C591.219 586.329 591.068 587.004 591.068 587.797ZM603.597 596V582.364H605.692V596H603.597ZM604.663 580.091C604.254 580.091 603.902 579.952 603.606 579.674C603.316 579.395 603.171 579.061 603.171 578.67C603.171 578.28 603.316 577.945 603.606 577.667C603.902 577.389 604.254 577.25 604.663 577.25C605.071 577.25 605.42 577.389 605.71 577.667C606.006 577.945 606.154 578.28 606.154 578.67C606.154 579.061 606.006 579.395 605.71 579.674C605.42 579.952 605.071 580.091 604.663 580.091ZM615.07 596.284C613.839 596.284 612.758 595.991 611.829 595.405C610.906 594.819 610.184 594 609.663 592.946C609.148 591.893 608.891 590.661 608.891 589.253C608.891 587.832 609.148 586.592 609.663 585.533C610.184 584.474 610.906 583.651 611.829 583.065C612.758 582.479 613.839 582.186 615.07 582.186C616.301 582.186 617.378 582.479 618.301 583.065C619.23 583.651 619.953 584.474 620.467 585.533C620.988 586.592 621.249 587.832 621.249 589.253C621.249 590.661 620.988 591.893 620.467 592.946C619.953 594 619.23 594.819 618.301 595.405C617.378 595.991 616.301 596.284 615.07 596.284ZM615.07 594.402C616.005 594.402 616.774 594.162 617.378 593.683C617.982 593.203 618.428 592.573 618.718 591.792C619.008 591.011 619.153 590.164 619.153 589.253C619.153 588.341 619.008 587.492 618.718 586.705C618.428 585.918 617.982 585.281 617.378 584.796C616.774 584.311 616.005 584.068 615.07 584.068C614.135 584.068 613.365 584.311 612.761 584.796C612.158 585.281 611.711 585.918 611.421 586.705C611.131 587.492 610.986 588.341 610.986 589.253C610.986 590.164 611.131 591.011 611.421 591.792C611.711 592.573 612.158 593.203 612.761 593.683C613.365 594.162 614.135 594.402 615.07 594.402Z" fill="black"/>
<circle cx="571.148" cy="498.511" r="9.01136" fill="#FF8F87" stroke="black"/>
<path d="M535.714 481H531.595L537.871 462.818H542.825L549.093 481H544.974L540.419 466.973H540.277L535.714 481ZM535.457 473.853H545.187V476.854H535.457V473.853ZM559.955 475.194V467.364H563.737V481H560.106V478.523H559.964C559.656 479.322 559.144 479.964 558.428 480.45C557.718 480.935 556.851 481.178 555.827 481.178C554.915 481.178 554.113 480.97 553.421 480.556C552.729 480.142 552.187 479.553 551.796 478.789C551.412 478.026 551.216 477.112 551.21 476.046V467.364H554.992V475.371C554.998 476.176 555.214 476.813 555.64 477.28C556.067 477.748 556.638 477.982 557.354 477.982C557.81 477.982 558.236 477.878 558.632 477.671C559.029 477.458 559.348 477.144 559.591 476.73C559.84 476.315 559.961 475.804 559.955 475.194ZM578.108 471.252L574.646 471.465C574.586 471.169 574.459 470.903 574.264 470.666C574.069 470.424 573.811 470.231 573.492 470.089C573.178 469.941 572.802 469.867 572.364 469.867C571.778 469.867 571.284 469.991 570.881 470.24C570.479 470.483 570.278 470.808 570.278 471.217C570.278 471.542 570.408 471.817 570.668 472.042C570.929 472.267 571.376 472.448 572.009 472.584L574.477 473.081C575.803 473.353 576.791 473.791 577.442 474.395C578.093 474.999 578.419 475.792 578.419 476.774C578.419 477.668 578.155 478.452 577.629 479.127C577.108 479.801 576.392 480.328 575.48 480.707C574.575 481.08 573.53 481.266 572.346 481.266C570.541 481.266 569.103 480.891 568.032 480.139C566.966 479.381 566.342 478.351 566.158 477.049L569.878 476.854C569.991 477.404 570.263 477.825 570.695 478.115C571.127 478.399 571.68 478.541 572.355 478.541C573.018 478.541 573.551 478.414 573.953 478.159C574.362 477.899 574.569 477.564 574.575 477.156C574.569 476.813 574.424 476.531 574.14 476.312C573.856 476.088 573.418 475.916 572.826 475.798L570.464 475.327C569.133 475.061 568.141 474.599 567.49 473.942C566.845 473.285 566.522 472.448 566.522 471.43C566.522 470.554 566.759 469.799 567.233 469.166C567.712 468.533 568.384 468.044 569.248 467.701C570.118 467.358 571.136 467.186 572.302 467.186C574.024 467.186 575.38 467.55 576.368 468.278C577.362 469.006 577.942 469.997 578.108 471.252ZM588.053 467.364V470.205H579.841V467.364H588.053ZM581.706 464.097H585.488V476.81C585.488 477.159 585.541 477.431 585.648 477.626C585.754 477.816 585.902 477.949 586.091 478.026C586.287 478.103 586.512 478.141 586.766 478.141C586.944 478.141 587.121 478.127 587.299 478.097C587.476 478.061 587.613 478.035 587.707 478.017L588.302 480.831C588.113 480.891 587.846 480.959 587.503 481.036C587.16 481.118 586.742 481.169 586.251 481.186C585.34 481.222 584.541 481.101 583.854 480.822C583.174 480.544 582.644 480.112 582.265 479.526C581.886 478.94 581.7 478.201 581.706 477.307V464.097ZM590.517 481V467.364H594.299V481H590.517ZM592.417 465.606C591.855 465.606 591.372 465.419 590.97 465.047C590.573 464.668 590.375 464.215 590.375 463.688C590.375 463.167 590.573 462.721 590.97 462.348C591.372 461.969 591.855 461.779 592.417 461.779C592.979 461.779 593.459 461.969 593.855 462.348C594.258 462.721 594.459 463.167 594.459 463.688C594.459 464.215 594.258 464.668 593.855 465.047C593.459 465.419 592.979 465.606 592.417 465.606ZM601.111 473.116V481H597.329V467.364H600.933V469.77H601.093C601.395 468.976 601.901 468.349 602.611 467.887C603.321 467.42 604.182 467.186 605.194 467.186C606.141 467.186 606.967 467.393 607.671 467.808C608.376 468.222 608.923 468.814 609.314 469.583C609.704 470.347 609.9 471.258 609.9 472.317V481H606.118V472.992C606.124 472.158 605.91 471.507 605.478 471.039C605.046 470.566 604.452 470.329 603.694 470.329C603.185 470.329 602.735 470.438 602.345 470.657C601.96 470.876 601.658 471.196 601.439 471.616C601.226 472.03 601.116 472.531 601.111 473.116Z" fill="black"/>
<circle cx="591.511" cy="324.511" r="9.01136" fill="#FFE587" stroke="black"/>
<path d="M448.202 333V314.818H459.104V316.771H450.403V322.915H458.287V324.868H450.403V333H448.202ZM467.129 333.284C465.898 333.284 464.818 332.991 463.889 332.405C462.966 331.819 462.243 331 461.723 329.946C461.208 328.893 460.95 327.661 460.95 326.253C460.95 324.832 461.208 323.592 461.723 322.533C462.243 321.474 462.966 320.651 463.889 320.065C464.818 319.479 465.898 319.186 467.129 319.186C468.36 319.186 469.438 319.479 470.361 320.065C471.29 320.651 472.012 321.474 472.527 322.533C473.048 323.592 473.308 324.832 473.308 326.253C473.308 327.661 473.048 328.893 472.527 329.946C472.012 331 471.29 331.819 470.361 332.405C469.438 332.991 468.36 333.284 467.129 333.284ZM467.129 331.402C468.064 331.402 468.834 331.162 469.438 330.683C470.041 330.203 470.488 329.573 470.778 328.792C471.068 328.011 471.213 327.164 471.213 326.253C471.213 325.341 471.068 324.492 470.778 323.705C470.488 322.918 470.041 322.281 469.438 321.796C468.834 321.311 468.064 321.068 467.129 321.068C466.194 321.068 465.425 321.311 464.821 321.796C464.217 322.281 463.77 322.918 463.48 323.705C463.19 324.492 463.045 325.341 463.045 326.253C463.045 327.164 463.19 328.011 463.48 328.792C463.77 329.573 464.217 330.203 464.821 330.683C465.425 331.162 466.194 331.402 467.129 331.402ZM476.506 333V319.364H478.531V321.423H478.673C478.921 320.749 479.371 320.201 480.022 319.781C480.673 319.361 481.407 319.151 482.224 319.151C482.378 319.151 482.57 319.154 482.801 319.159C483.032 319.165 483.206 319.174 483.325 319.186V321.317C483.254 321.299 483.091 321.272 482.836 321.237C482.588 321.195 482.324 321.175 482.046 321.175C481.383 321.175 480.792 321.314 480.271 321.592C479.756 321.864 479.347 322.243 479.046 322.728C478.75 323.208 478.602 323.755 478.602 324.371V333H476.506ZM492.593 319.364V321.139H485.526V319.364H492.593ZM487.586 316.097H489.681V329.094C489.681 329.686 489.767 330.129 489.939 330.425C490.116 330.715 490.341 330.911 490.613 331.011C490.892 331.106 491.185 331.153 491.492 331.153C491.723 331.153 491.912 331.142 492.06 331.118C492.208 331.088 492.327 331.065 492.416 331.047L492.842 332.929C492.7 332.982 492.501 333.036 492.247 333.089C491.992 333.148 491.67 333.178 491.279 333.178C490.687 333.178 490.107 333.05 489.539 332.796C488.977 332.541 488.509 332.154 488.136 331.633C487.77 331.112 487.586 330.455 487.586 329.662V316.097ZM506.363 333L501.391 314.818H503.628L507.428 329.626H507.606L511.476 314.818H513.962L517.833 329.626H518.01L521.81 314.818H524.047L519.076 333H516.803L512.79 318.511H512.648L508.635 333H506.363ZM530.777 333.284C529.546 333.284 528.466 332.991 527.536 332.405C526.613 331.819 525.891 331 525.37 329.946C524.855 328.893 524.598 327.661 524.598 326.253C524.598 324.832 524.855 323.592 525.37 322.533C525.891 321.474 526.613 320.651 527.536 320.065C528.466 319.479 529.546 319.186 530.777 319.186C532.008 319.186 533.085 319.479 534.008 320.065C534.937 320.651 535.66 321.474 536.174 322.533C536.695 323.592 536.956 324.832 536.956 326.253C536.956 327.661 536.695 328.893 536.174 329.946C535.66 331 534.937 331.819 534.008 332.405C533.085 332.991 532.008 333.284 530.777 333.284ZM530.777 331.402C531.712 331.402 532.481 331.162 533.085 330.683C533.689 330.203 534.136 329.573 534.426 328.792C534.716 328.011 534.861 327.164 534.861 326.253C534.861 325.341 534.716 324.492 534.426 323.705C534.136 322.918 533.689 322.281 533.085 321.796C532.481 321.311 531.712 321.068 530.777 321.068C529.842 321.068 529.072 321.311 528.468 321.796C527.865 322.281 527.418 322.918 527.128 323.705C526.838 324.492 526.693 325.341 526.693 326.253C526.693 327.164 526.838 328.011 527.128 328.792C527.418 329.573 527.865 330.203 528.468 330.683C529.072 331.162 529.842 331.402 530.777 331.402ZM540.154 333V319.364H542.178V321.423H542.32C542.569 320.749 543.019 320.201 543.67 319.781C544.321 319.361 545.055 319.151 545.871 319.151C546.025 319.151 546.218 319.154 546.448 319.159C546.679 319.165 546.854 319.174 546.972 319.186V321.317C546.901 321.299 546.738 321.272 546.484 321.237C546.235 321.195 545.972 321.175 545.694 321.175C545.031 321.175 544.439 321.314 543.918 321.592C543.403 321.864 542.995 322.243 542.693 322.728C542.397 323.208 542.249 323.755 542.249 324.371V333H540.154ZM556.241 319.364V321.139H549.174V319.364H556.241ZM551.233 316.097H553.329V329.094C553.329 329.686 553.414 330.129 553.586 330.425C553.764 330.715 553.989 330.911 554.261 331.011C554.539 331.106 554.832 331.153 555.14 331.153C555.371 331.153 555.56 331.142 555.708 331.118C555.856 331.088 555.974 331.065 556.063 331.047L556.489 332.929C556.347 332.982 556.149 333.036 555.894 333.089C555.64 333.148 555.317 333.178 554.927 333.178C554.335 333.178 553.755 333.05 553.187 332.796C552.624 332.541 552.157 332.154 551.784 331.633C551.417 331.112 551.233 330.455 551.233 329.662V316.097ZM561.78 324.797V333H559.685V314.818H561.78V321.494H561.958C562.278 320.79 562.757 320.231 563.396 319.816C564.041 319.396 564.899 319.186 565.971 319.186C566.9 319.186 567.714 319.373 568.412 319.745C569.11 320.112 569.652 320.678 570.037 321.441C570.427 322.199 570.623 323.163 570.623 324.335V333H568.528V324.477C568.528 323.394 568.246 322.557 567.684 321.965C567.128 321.367 566.355 321.068 565.367 321.068C564.68 321.068 564.065 321.213 563.52 321.503C562.982 321.793 562.556 322.216 562.242 322.773C561.934 323.329 561.78 324.004 561.78 324.797Z" fill="black"/>
<circle cx="326.511" cy="152.511" r="9.01136" fill="#FFE587" stroke="black"/>
<path d="M291.947 135H289.639L296.315 116.818H298.588L305.264 135H302.956L297.523 119.695H297.381L291.947 135ZM292.8 127.898H302.104V129.851H292.8V127.898ZM307.812 135V121.364H309.836V123.494H310.014C310.298 122.766 310.757 122.201 311.39 121.799C312.023 121.39 312.784 121.186 313.672 121.186C314.571 121.186 315.32 121.39 315.918 121.799C316.521 122.201 316.992 122.766 317.329 123.494H317.471C317.82 122.79 318.344 122.231 319.043 121.816C319.741 121.396 320.578 121.186 321.555 121.186C322.774 121.186 323.772 121.568 324.547 122.331C325.322 123.089 325.71 124.27 325.71 125.874V135H323.615V125.874C323.615 124.867 323.339 124.148 322.789 123.716C322.239 123.284 321.591 123.068 320.845 123.068C319.886 123.068 319.143 123.358 318.616 123.938C318.09 124.512 317.826 125.24 317.826 126.122V135H315.696V125.661C315.696 124.885 315.444 124.261 314.941 123.787C314.438 123.308 313.79 123.068 312.997 123.068C312.452 123.068 311.943 123.213 311.47 123.503C311.002 123.793 310.623 124.196 310.333 124.711C310.049 125.22 309.907 125.808 309.907 126.477V135H307.812ZM333.553 135.32C332.689 135.32 331.905 135.157 331.201 134.831C330.497 134.5 329.937 134.023 329.523 133.402C329.109 132.775 328.901 132.017 328.901 131.129C328.901 130.348 329.055 129.715 329.363 129.229C329.671 128.738 330.082 128.353 330.597 128.075C331.112 127.797 331.68 127.59 332.302 127.454C332.929 127.312 333.559 127.199 334.193 127.116C335.021 127.01 335.693 126.93 336.208 126.877C336.729 126.818 337.108 126.72 337.344 126.584C337.587 126.448 337.708 126.211 337.708 125.874V125.803C337.708 124.927 337.469 124.246 336.989 123.761C336.516 123.275 335.797 123.033 334.832 123.033C333.832 123.033 333.047 123.252 332.479 123.69C331.911 124.128 331.512 124.595 331.281 125.092L329.292 124.382C329.647 123.554 330.121 122.908 330.713 122.447C331.31 121.979 331.961 121.654 332.666 121.47C333.376 121.281 334.074 121.186 334.761 121.186C335.199 121.186 335.702 121.239 336.27 121.346C336.844 121.446 337.398 121.657 337.93 121.976C338.469 122.296 338.916 122.778 339.271 123.423C339.626 124.068 339.803 124.933 339.803 126.016V135H337.708V133.153H337.602C337.46 133.449 337.223 133.766 336.892 134.103C336.56 134.441 336.119 134.728 335.569 134.964C335.018 135.201 334.347 135.32 333.553 135.32ZM333.873 133.438C334.702 133.438 335.4 133.275 335.968 132.949C336.542 132.624 336.974 132.203 337.264 131.689C337.56 131.174 337.708 130.632 337.708 130.064V128.146C337.619 128.253 337.424 128.35 337.122 128.439C336.826 128.522 336.483 128.596 336.093 128.661C335.708 128.72 335.332 128.774 334.965 128.821C334.604 128.862 334.311 128.898 334.086 128.928C333.542 128.999 333.033 129.114 332.559 129.274C332.092 129.428 331.713 129.661 331.423 129.975C331.139 130.283 330.997 130.703 330.997 131.236C330.997 131.964 331.266 132.514 331.805 132.887C332.349 133.254 333.039 133.438 333.873 133.438ZM343.628 135V121.364H345.652V123.423H345.794C346.042 122.749 346.492 122.201 347.143 121.781C347.794 121.361 348.528 121.151 349.345 121.151C349.499 121.151 349.691 121.154 349.922 121.159C350.153 121.165 350.327 121.174 350.446 121.186V123.317C350.375 123.299 350.212 123.272 349.957 123.237C349.709 123.195 349.446 123.175 349.167 123.175C348.504 123.175 347.913 123.314 347.392 123.592C346.877 123.864 346.468 124.243 346.167 124.728C345.871 125.208 345.723 125.755 345.723 126.371V135H343.628ZM352.929 135V121.364H355.025V135H352.929ZM353.995 119.091C353.586 119.091 353.234 118.952 352.938 118.674C352.648 118.395 352.503 118.061 352.503 117.67C352.503 117.28 352.648 116.945 352.938 116.667C353.234 116.389 353.586 116.25 353.995 116.25C354.403 116.25 354.752 116.389 355.042 116.667C355.338 116.945 355.486 117.28 355.486 117.67C355.486 118.061 355.338 118.395 355.042 118.674C354.752 118.952 354.403 119.091 353.995 119.091ZM360.957 116.818V135H358.862V116.818H360.957ZM366.89 116.818V135H364.795V116.818H366.89ZM376.267 135.284C375.036 135.284 373.956 134.991 373.027 134.405C372.103 133.819 371.381 133 370.86 131.946C370.345 130.893 370.088 129.661 370.088 128.253C370.088 126.832 370.345 125.592 370.86 124.533C371.381 123.474 372.103 122.651 373.027 122.065C373.956 121.479 375.036 121.186 376.267 121.186C377.498 121.186 378.575 121.479 379.498 122.065C380.428 122.651 381.15 123.474 381.665 124.533C382.186 125.592 382.446 126.832 382.446 128.253C382.446 129.661 382.186 130.893 381.665 131.946C381.15 133 380.428 133.819 379.498 134.405C378.575 134.991 377.498 135.284 376.267 135.284ZM376.267 133.402C377.202 133.402 377.972 133.162 378.575 132.683C379.179 132.203 379.626 131.573 379.916 130.792C380.206 130.011 380.351 129.164 380.351 128.253C380.351 127.341 380.206 126.492 379.916 125.705C379.626 124.918 379.179 124.281 378.575 123.796C377.972 123.311 377.202 123.068 376.267 123.068C375.332 123.068 374.562 123.311 373.959 123.796C373.355 124.281 372.908 124.918 372.618 125.705C372.328 126.492 372.183 127.341 372.183 128.253C372.183 129.164 372.328 130.011 372.618 130.792C372.908 131.573 373.355 132.203 373.959 132.683C374.562 133.162 375.332 133.402 376.267 133.402Z" fill="black"/>
<circle cx="331.511" cy="269.511" r="9.01136" fill="#FFE587" stroke="black"/>
<path d="M285.202 252V233.818H287.403V250.047H295.855V252H285.202ZM307.574 246.425V238.364H309.669V252H307.574V249.692H307.432C307.112 250.384 306.615 250.973 305.94 251.458C305.266 251.938 304.413 252.178 303.384 252.178C302.531 252.178 301.774 251.991 301.111 251.618C300.448 251.239 299.927 250.671 299.548 249.914C299.17 249.15 298.98 248.188 298.98 247.028V238.364H301.075V246.886C301.075 247.881 301.353 248.674 301.91 249.266C302.472 249.857 303.188 250.153 304.058 250.153C304.579 250.153 305.109 250.02 305.647 249.754C306.192 249.488 306.648 249.079 307.015 248.529C307.387 247.978 307.574 247.277 307.574 246.425ZM313.791 252V233.818H315.886V240.53H316.063C316.217 240.293 316.43 239.991 316.703 239.624C316.981 239.251 317.377 238.92 317.892 238.63C318.413 238.334 319.117 238.186 320.005 238.186C321.153 238.186 322.165 238.473 323.041 239.047C323.917 239.621 324.601 240.435 325.092 241.489C325.583 242.542 325.829 243.785 325.829 245.217C325.829 246.661 325.583 247.913 325.092 248.973C324.601 250.026 323.92 250.843 323.05 251.423C322.18 251.997 321.177 252.284 320.041 252.284C319.165 252.284 318.463 252.139 317.937 251.849C317.41 251.553 317.004 251.219 316.72 250.846C316.436 250.467 316.217 250.153 316.063 249.905H315.815V252H313.791ZM315.85 245.182C315.85 246.212 316.001 247.12 316.303 247.907C316.605 248.689 317.046 249.301 317.626 249.745C318.206 250.183 318.916 250.402 319.756 250.402C320.632 250.402 321.363 250.171 321.949 249.71C322.541 249.242 322.985 248.615 323.281 247.827C323.583 247.034 323.734 246.152 323.734 245.182C323.734 244.223 323.586 243.359 323.29 242.589C323 241.814 322.559 241.202 321.967 240.752C321.381 240.296 320.644 240.068 319.756 240.068C318.904 240.068 318.188 240.284 317.608 240.716C317.028 241.142 316.59 241.74 316.294 242.51C315.998 243.273 315.85 244.164 315.85 245.182ZM329.318 252V233.818H331.413V240.53H331.591C331.745 240.293 331.958 239.991 332.23 239.624C332.508 239.251 332.905 238.92 333.419 238.63C333.94 238.334 334.645 238.186 335.532 238.186C336.681 238.186 337.693 238.473 338.569 239.047C339.445 239.621 340.128 240.435 340.619 241.489C341.111 242.542 341.356 243.785 341.356 245.217C341.356 246.661 341.111 247.913 340.619 248.973C340.128 250.026 339.448 250.843 338.578 251.423C337.707 251.997 336.704 252.284 335.568 252.284C334.692 252.284 333.991 252.139 333.464 251.849C332.937 251.553 332.532 251.219 332.248 250.846C331.964 250.467 331.745 250.153 331.591 249.905H331.342V252H329.318ZM331.378 245.182C331.378 246.212 331.528 247.12 331.83 247.907C332.132 248.689 332.573 249.301 333.153 249.745C333.733 250.183 334.443 250.402 335.284 250.402C336.16 250.402 336.891 250.171 337.477 249.71C338.069 249.242 338.512 248.615 338.808 247.827C339.11 247.034 339.261 246.152 339.261 245.182C339.261 244.223 339.113 243.359 338.817 242.589C338.527 241.814 338.086 241.202 337.494 240.752C336.908 240.296 336.172 240.068 335.284 240.068C334.432 240.068 333.715 240.284 333.135 240.716C332.555 241.142 332.117 241.74 331.821 242.51C331.526 243.273 331.378 244.164 331.378 245.182ZM350.101 252.284C348.87 252.284 347.79 251.991 346.861 251.405C345.937 250.819 345.215 250 344.694 248.946C344.179 247.893 343.922 246.661 343.922 245.253C343.922 243.832 344.179 242.592 344.694 241.533C345.215 240.474 345.937 239.651 346.861 239.065C347.79 238.479 348.87 238.186 350.101 238.186C351.332 238.186 352.409 238.479 353.332 239.065C354.262 239.651 354.984 240.474 355.499 241.533C356.02 242.592 356.28 243.832 356.28 245.253C356.28 246.661 356.02 247.893 355.499 248.946C354.984 250 354.262 250.819 353.332 251.405C352.409 251.991 351.332 252.284 350.101 252.284ZM350.101 250.402C351.036 250.402 351.805 250.162 352.409 249.683C353.013 249.203 353.46 248.573 353.75 247.792C354.04 247.011 354.185 246.164 354.185 245.253C354.185 244.341 354.04 243.492 353.75 242.705C353.46 241.918 353.013 241.281 352.409 240.796C351.805 240.311 351.036 240.068 350.101 240.068C349.166 240.068 348.396 240.311 347.793 240.796C347.189 241.281 346.742 241.918 346.452 242.705C346.162 243.492 346.017 244.341 346.017 245.253C346.017 246.164 346.162 247.011 346.452 247.792C346.742 248.573 347.189 249.203 347.793 249.683C348.396 250.162 349.166 250.402 350.101 250.402ZM365.018 252.284C363.74 252.284 362.639 251.982 361.715 251.379C360.792 250.775 360.082 249.943 359.585 248.884C359.088 247.824 358.839 246.614 358.839 245.253C358.839 243.868 359.093 242.646 359.602 241.586C360.117 240.521 360.834 239.689 361.751 239.092C362.674 238.488 363.751 238.186 364.982 238.186C365.941 238.186 366.805 238.364 367.575 238.719C368.344 239.074 368.974 239.571 369.466 240.21C369.957 240.849 370.262 241.595 370.38 242.447H368.285C368.125 241.826 367.77 241.276 367.22 240.796C366.675 240.311 365.941 240.068 365.018 240.068C364.201 240.068 363.485 240.281 362.869 240.707C362.26 241.128 361.783 241.722 361.44 242.492C361.103 243.255 360.934 244.152 360.934 245.182C360.934 246.235 361.1 247.153 361.431 247.934C361.769 248.715 362.242 249.322 362.852 249.754C363.467 250.186 364.189 250.402 365.018 250.402C365.562 250.402 366.057 250.307 366.501 250.118C366.944 249.929 367.32 249.656 367.628 249.301C367.936 248.946 368.155 248.52 368.285 248.023H370.38C370.262 248.828 369.969 249.553 369.501 250.198C369.04 250.837 368.427 251.346 367.664 251.725C366.906 252.098 366.024 252.284 365.018 252.284ZM375.396 247.028L375.361 244.436H375.787L381.753 238.364H384.345L377.988 244.791H377.811L375.396 247.028ZM373.443 252V233.818H375.538V252H373.443ZM382.108 252L376.781 245.253L378.273 243.797L384.771 252H382.108Z" fill="black"/>
<circle cx="311.511" cy="376.511" r="9.01136" fill="#FFE587" stroke="black"/>
<path d="M271.202 391.818H273.83L280.009 406.911H280.222L286.401 391.818H289.028V410H286.969V396.186H286.791L281.109 410H279.121L273.439 396.186H273.261V410H271.202V391.818ZM293.159 410V396.364H295.254V410H293.159ZM294.224 394.091C293.816 394.091 293.464 393.952 293.168 393.674C292.878 393.395 292.733 393.061 292.733 392.67C292.733 392.28 292.878 391.945 293.168 391.667C293.464 391.389 293.816 391.25 294.224 391.25C294.633 391.25 294.982 391.389 295.272 391.667C295.568 391.945 295.716 392.28 295.716 392.67C295.716 393.061 295.568 393.395 295.272 393.674C294.982 393.952 294.633 394.091 294.224 394.091ZM304.241 410.284C303.104 410.284 302.101 409.997 301.231 409.423C300.361 408.843 299.68 408.026 299.189 406.973C298.698 405.913 298.452 404.661 298.452 403.217C298.452 401.785 298.698 400.542 299.189 399.489C299.68 398.435 300.364 397.621 301.24 397.047C302.116 396.473 303.128 396.186 304.276 396.186C305.164 396.186 305.865 396.334 306.38 396.63C306.901 396.92 307.298 397.251 307.57 397.624C307.848 397.991 308.064 398.293 308.218 398.53H308.395V391.818H310.491V410H308.466V407.905H308.218C308.064 408.153 307.845 408.467 307.561 408.846C307.277 409.219 306.871 409.553 306.345 409.849C305.818 410.139 305.117 410.284 304.241 410.284ZM304.525 408.402C305.365 408.402 306.075 408.183 306.655 407.745C307.235 407.301 307.676 406.689 307.978 405.907C308.28 405.12 308.431 404.212 308.431 403.182C308.431 402.164 308.283 401.273 307.987 400.51C307.691 399.74 307.253 399.142 306.673 398.716C306.093 398.284 305.377 398.068 304.525 398.068C303.637 398.068 302.897 398.296 302.305 398.752C301.719 399.202 301.278 399.814 300.982 400.589C300.692 401.359 300.547 402.223 300.547 403.182C300.547 404.152 300.695 405.034 300.991 405.827C301.293 406.615 301.737 407.242 302.323 407.71C302.915 408.171 303.649 408.402 304.525 408.402ZM316.714 391.818V410H314.619V391.818H316.714ZM324.564 410.32C323.7 410.32 322.916 410.157 322.212 409.831C321.507 409.5 320.948 409.023 320.534 408.402C320.119 407.775 319.912 407.017 319.912 406.129C319.912 405.348 320.066 404.715 320.374 404.229C320.682 403.738 321.093 403.353 321.608 403.075C322.123 402.797 322.691 402.59 323.312 402.454C323.94 402.312 324.57 402.199 325.203 402.116C326.032 402.01 326.704 401.93 327.219 401.877C327.739 401.818 328.118 401.72 328.355 401.584C328.598 401.448 328.719 401.211 328.719 400.874V400.803C328.719 399.927 328.479 399.246 328 398.761C327.526 398.275 326.807 398.033 325.843 398.033C324.842 398.033 324.058 398.252 323.49 398.69C322.922 399.128 322.522 399.595 322.291 400.092L320.303 399.382C320.658 398.554 321.131 397.908 321.723 397.447C322.321 396.979 322.972 396.654 323.676 396.47C324.387 396.281 325.085 396.186 325.772 396.186C326.21 396.186 326.713 396.239 327.281 396.346C327.855 396.446 328.408 396.657 328.941 396.976C329.48 397.296 329.926 397.778 330.282 398.423C330.637 399.068 330.814 399.933 330.814 401.016V410H328.719V408.153H328.612C328.47 408.449 328.234 408.766 327.902 409.103C327.571 409.441 327.13 409.728 326.579 409.964C326.029 410.201 325.357 410.32 324.564 410.32ZM324.884 408.438C325.712 408.438 326.411 408.275 326.979 407.949C327.553 407.624 327.985 407.203 328.275 406.689C328.571 406.174 328.719 405.632 328.719 405.064V403.146C328.63 403.253 328.435 403.35 328.133 403.439C327.837 403.522 327.494 403.596 327.103 403.661C326.719 403.72 326.343 403.774 325.976 403.821C325.615 403.862 325.322 403.898 325.097 403.928C324.552 403.999 324.043 404.114 323.57 404.274C323.102 404.428 322.724 404.661 322.434 404.975C322.149 405.283 322.007 405.703 322.007 406.236C322.007 406.964 322.277 407.514 322.815 407.887C323.36 408.254 324.049 408.438 324.884 408.438ZM336.733 401.797V410H334.638V396.364H336.662V398.494H336.84C337.16 397.802 337.645 397.246 338.296 396.825C338.947 396.399 339.787 396.186 340.817 396.186C341.741 396.186 342.548 396.375 343.241 396.754C343.933 397.127 344.472 397.695 344.857 398.459C345.241 399.216 345.434 400.175 345.434 401.335V410H343.339V401.477C343.339 400.406 343.06 399.571 342.504 398.974C341.948 398.37 341.184 398.068 340.214 398.068C339.545 398.068 338.947 398.213 338.42 398.503C337.899 398.793 337.488 399.216 337.186 399.773C336.884 400.329 336.733 401.004 336.733 401.797ZM354.411 410.284C353.275 410.284 352.272 409.997 351.402 409.423C350.532 408.843 349.851 408.026 349.36 406.973C348.869 405.913 348.623 404.661 348.623 403.217C348.623 401.785 348.869 400.542 349.36 399.489C349.851 398.435 350.535 397.621 351.411 397.047C352.287 396.473 353.299 396.186 354.447 396.186C355.335 396.186 356.036 396.334 356.551 396.63C357.072 396.92 357.468 397.251 357.741 397.624C358.019 397.991 358.235 398.293 358.389 398.53H358.566V391.818H360.661V410H358.637V407.905H358.389C358.235 408.153 358.016 408.467 357.732 408.846C357.448 409.219 357.042 409.553 356.516 409.849C355.989 410.139 355.287 410.284 354.411 410.284ZM354.696 408.402C355.536 408.402 356.246 408.183 356.826 407.745C357.406 407.301 357.847 406.689 358.149 405.907C358.451 405.12 358.602 404.212 358.602 403.182C358.602 402.164 358.454 401.273 358.158 400.51C357.862 399.74 357.424 399.142 356.844 398.716C356.264 398.284 355.548 398.068 354.696 398.068C353.808 398.068 353.068 398.296 352.476 398.752C351.89 399.202 351.449 399.814 351.153 400.589C350.863 401.359 350.718 402.223 350.718 403.182C350.718 404.152 350.866 405.034 351.162 405.827C351.464 406.615 351.908 407.242 352.494 407.71C353.086 408.171 353.82 408.402 354.696 408.402Z" fill="black"/>
<defs>
<filter id="filter0_d_160_471" x="40.5" y="55.5" width="787.076" height="749.438" filterUnits="userSpaceOnUse" color-interpolation-filters="sRGB">
<feFlood flood-opacity="0" result="BackgroundImageFix"/>
<feColorMatrix in="SourceAlpha" type="matrix" values="0 0 0 0 0 0 0 0 0 0 0 0 0 0 0 0 0 0 127 0" result="hardAlpha"/>
<feOffset dy="4"/>
<feGaussianBlur stdDeviation="2"/>
<feComposite in2="hardAlpha" operator="out"/>
<feColorMatrix type="matrix" values="0 0 0 0 0 0 0 0 0 0 0 0 0 0 0 0 0 0 0.25 0"/>
<feBlend mode="normal" in2="BackgroundImageFix" result="effect1_dropShadow_160_471"/>
<feBlend mode="normal" in="SourceGraphic" in2="effect1_dropShadow_160_471" result="shape"/>
</filter>
<filter id="filter1_d_160_471" x="589.97" y="663" width="29.7998" height="51.3521" filterUnits="userSpaceOnUse" color-interpolation-filters="sRGB">
<feFlood flood-opacity="0" result="BackgroundImageFix"/>
<feColorMatrix in="SourceAlpha" type="matrix" values="0 0 0 0 0 0 0 0 0 0 0 0 0 0 0 0 0 0 127 0" result="hardAlpha"/>
<feOffset dy="4"/>
<feGaussianBlur stdDeviation="2"/>
<feComposite in2="hardAlpha" operator="out"/>
<feColorMatrix type="matrix" values="0 0 0 0 0 0 0 0 0 0 0 0 0 0 0 0 0 0 0.25 0"/>
<feBlend mode="normal" in2="BackgroundImageFix" result="effect1_dropShadow_160_471"/>
<feBlend mode="normal" in="SourceGraphic" in2="effect1_dropShadow_160_471" result="shape"/>
</filter>
</defs>
</svg>
