<svg width="655" height="756" viewBox="0 0 655 756" fill="none" xmlns="http://www.w3.org/2000/svg">
<rect x="0.5" y="0.5" width="654" height="755" rx="35.5" fill="#8DDBFF" stroke="#717171"/>
<g filter="url(#filter0_d_223_176)">
<path d="M380 70.5L97 71L96.5 684H569L568.5 197H380V70.5Z" fill="#FFD597"/>
<path d="M380 70.5L97 71L96.5 684H569L568.5 197H380V70.5Z" stroke="black"/>
</g>
<path d="M449.395 151L444.469 133.545H447.869L451.014 146.372H451.176L454.534 133.545H457.628L460.994 146.381H461.148L464.293 133.545H467.693L462.767 151H459.648L456.153 138.753H456.017L452.514 151H449.395ZM468.692 133.545H472.263L476.533 141.267H476.704L480.974 133.545H484.545L478.195 144.489V151H475.042V144.489L468.692 133.545Z" fill="#005A5E"/>
<path d="M609.662 406.435H606.474C606.384 405.912 606.216 405.449 605.972 405.045C605.727 404.636 605.423 404.29 605.06 404.006C604.696 403.722 604.281 403.509 603.815 403.366C603.355 403.219 602.858 403.145 602.324 403.145C601.375 403.145 600.534 403.384 599.801 403.861C599.068 404.332 598.494 405.026 598.08 405.94C597.665 406.849 597.457 407.96 597.457 409.273C597.457 410.608 597.665 411.733 598.08 412.648C598.5 413.557 599.074 414.244 599.801 414.71C600.534 415.17 601.372 415.401 602.315 415.401C602.838 415.401 603.327 415.332 603.781 415.196C604.241 415.054 604.653 414.847 605.017 414.574C605.386 414.301 605.696 413.966 605.946 413.568C606.202 413.17 606.378 412.716 606.474 412.205L609.662 412.222C609.543 413.051 609.284 413.83 608.886 414.557C608.494 415.284 607.98 415.926 607.344 416.483C606.707 417.034 605.963 417.466 605.111 417.778C604.259 418.085 603.313 418.239 602.273 418.239C600.739 418.239 599.369 417.884 598.165 417.173C596.96 416.463 596.011 415.438 595.318 414.097C594.625 412.756 594.278 411.148 594.278 409.273C594.278 407.392 594.628 405.784 595.327 404.449C596.026 403.108 596.977 402.082 598.182 401.372C599.386 400.662 600.75 400.307 602.273 400.307C603.244 400.307 604.148 400.443 604.983 400.716C605.818 400.989 606.563 401.389 607.216 401.918C607.869 402.44 608.406 403.082 608.827 403.844C609.253 404.599 609.531 405.463 609.662 406.435ZM628.154 409.273C628.154 411.153 627.802 412.764 627.097 414.105C626.398 415.44 625.444 416.463 624.234 417.173C623.029 417.884 621.663 418.239 620.134 418.239C618.606 418.239 617.237 417.884 616.026 417.173C614.822 416.457 613.867 415.432 613.163 414.097C612.464 412.756 612.114 411.148 612.114 409.273C612.114 407.392 612.464 405.784 613.163 404.449C613.867 403.108 614.822 402.082 616.026 401.372C617.237 400.662 618.606 400.307 620.134 400.307C621.663 400.307 623.029 400.662 624.234 401.372C625.444 402.082 626.398 403.108 627.097 404.449C627.802 405.784 628.154 407.392 628.154 409.273ZM624.975 409.273C624.975 407.949 624.768 406.832 624.353 405.923C623.944 405.009 623.376 404.318 622.648 403.852C621.921 403.381 621.083 403.145 620.134 403.145C619.185 403.145 618.347 403.381 617.62 403.852C616.893 404.318 616.322 405.009 615.907 405.923C615.498 406.832 615.293 407.949 615.293 409.273C615.293 410.597 615.498 411.716 615.907 412.631C616.322 413.54 616.893 414.23 617.62 414.702C618.347 415.168 619.185 415.401 620.134 415.401C621.083 415.401 621.921 415.168 622.648 414.702C623.376 414.23 623.944 413.54 624.353 412.631C624.768 411.716 624.975 410.597 624.975 409.273Z" fill="#005A5E"/>
<path d="M309.963 726H306.588L312.733 708.545H316.636L322.79 726H319.415L314.753 712.125H314.616L309.963 726ZM310.074 719.156H319.278V721.696H310.074V719.156ZM324.765 726V724.031L333.714 711.196H324.714V708.545H337.634V710.514L328.694 723.349H337.685V726H324.765Z" fill="#005A5E"/>
<path d="M53.0653 401.545V419H50.2528L42.0284 407.111H41.8835V419H38.7216V401.545H41.5511L49.767 413.443H49.9205V401.545H53.0653ZM58.8459 401.545L63.3885 415.284H63.5675L68.1016 401.545H71.5788L65.4254 419H61.522L55.3771 401.545H58.8459Z" fill="#005A5E"/>
<path d="M239.884 32.5455V50H236.722V32.5455H239.884ZM249.222 50H243.308V32.5455H249.342C251.075 32.5455 252.563 32.8949 253.808 33.5938C255.058 34.2869 256.018 35.2841 256.688 36.5852C257.359 37.8864 257.694 39.4432 257.694 41.2557C257.694 43.0739 257.356 44.6364 256.68 45.9432C256.009 47.25 255.04 48.2528 253.773 48.9517C252.512 49.6506 250.995 50 249.222 50ZM246.469 47.2642H249.069C250.285 47.2642 251.299 47.0426 252.112 46.5994C252.924 46.1506 253.535 45.483 253.944 44.5966C254.353 43.7045 254.558 42.5909 254.558 41.2557C254.558 39.9205 254.353 38.8125 253.944 37.9318C253.535 37.0455 252.93 36.3835 252.129 35.946C251.333 35.5028 250.344 35.2812 249.163 35.2812H246.469V47.2642Z" fill="#005A5E"/>
<circle cx="297.511" cy="224.511" r="9.01136" fill="#FF8F87" stroke="black"/>
<path d="M322.444 220.047C322.373 219.331 322.068 218.775 321.529 218.378C320.991 217.982 320.26 217.783 319.336 217.783C318.709 217.783 318.179 217.872 317.747 218.05C317.315 218.221 316.984 218.461 316.753 218.769C316.528 219.077 316.415 219.426 316.415 219.816C316.404 220.142 316.472 220.426 316.62 220.669C316.774 220.911 316.984 221.121 317.25 221.299C317.516 221.471 317.824 221.622 318.173 221.752C318.522 221.876 318.895 221.983 319.292 222.071L320.925 222.462C321.719 222.64 322.446 222.876 323.109 223.172C323.772 223.468 324.346 223.832 324.832 224.264C325.317 224.696 325.693 225.205 325.959 225.791C326.231 226.377 326.371 227.049 326.376 227.806C326.371 228.919 326.086 229.884 325.524 230.701C324.968 231.511 324.163 232.142 323.109 232.592C322.062 233.036 320.798 233.257 319.319 233.257C317.851 233.257 316.572 233.033 315.483 232.583C314.4 232.133 313.554 231.467 312.944 230.585C312.341 229.697 312.024 228.6 311.994 227.292H315.714C315.756 227.901 315.93 228.41 316.238 228.819C316.552 229.221 316.969 229.526 317.49 229.733C318.016 229.934 318.611 230.035 319.274 230.035C319.925 230.035 320.49 229.94 320.97 229.751C321.455 229.561 321.831 229.298 322.097 228.961C322.364 228.623 322.497 228.236 322.497 227.798C322.497 227.389 322.375 227.046 322.133 226.768C321.896 226.49 321.547 226.253 321.085 226.058C320.629 225.862 320.07 225.685 319.407 225.525L317.428 225.028C315.895 224.655 314.684 224.072 313.797 223.279C312.909 222.486 312.468 221.417 312.474 220.074C312.468 218.973 312.761 218.011 313.353 217.189C313.95 216.366 314.77 215.724 315.812 215.262C316.853 214.8 318.037 214.57 319.363 214.57C320.712 214.57 321.89 214.8 322.896 215.262C323.908 215.724 324.696 216.366 325.258 217.189C325.82 218.011 326.11 218.964 326.128 220.047H322.444ZM332.78 233.257C331.91 233.257 331.134 233.107 330.454 232.805C329.773 232.497 329.234 232.044 328.838 231.446C328.447 230.843 328.252 230.091 328.252 229.191C328.252 228.434 328.391 227.798 328.669 227.283C328.947 226.768 329.326 226.353 329.805 226.04C330.285 225.726 330.829 225.489 331.439 225.33C332.055 225.17 332.7 225.057 333.374 224.992C334.167 224.909 334.807 224.832 335.292 224.761C335.777 224.684 336.129 224.572 336.348 224.424C336.567 224.276 336.677 224.057 336.677 223.767V223.714C336.677 223.152 336.499 222.717 336.144 222.409C335.795 222.101 335.298 221.947 334.653 221.947C333.972 221.947 333.431 222.098 333.028 222.4C332.626 222.696 332.359 223.069 332.229 223.518L328.731 223.234C328.909 222.406 329.258 221.69 329.779 221.086C330.3 220.476 330.971 220.009 331.794 219.683C332.623 219.352 333.582 219.186 334.671 219.186C335.428 219.186 336.153 219.275 336.846 219.452C337.544 219.63 338.162 219.905 338.701 220.278C339.246 220.651 339.675 221.13 339.988 221.716C340.302 222.296 340.459 222.992 340.459 223.803V233H336.872V231.109H336.766C336.547 231.535 336.254 231.911 335.887 232.237C335.52 232.556 335.079 232.808 334.564 232.991C334.049 233.169 333.454 233.257 332.78 233.257ZM333.863 230.647C334.419 230.647 334.91 230.538 335.336 230.319C335.763 230.094 336.097 229.792 336.34 229.413C336.582 229.035 336.704 228.605 336.704 228.126V226.679C336.585 226.756 336.422 226.827 336.215 226.892C336.014 226.951 335.786 227.007 335.532 227.061C335.277 227.108 335.023 227.152 334.768 227.194C334.514 227.229 334.283 227.262 334.076 227.292C333.632 227.357 333.244 227.46 332.913 227.602C332.581 227.744 332.324 227.937 332.14 228.179C331.957 228.416 331.865 228.712 331.865 229.067C331.865 229.582 332.052 229.976 332.424 230.248C332.803 230.514 333.283 230.647 333.863 230.647ZM347.175 214.818V233H343.393V214.818H347.175ZM357.458 219.364V222.205H349.246V219.364H357.458ZM351.11 216.097H354.892V228.81C354.892 229.159 354.945 229.431 355.052 229.626C355.158 229.816 355.306 229.949 355.496 230.026C355.691 230.103 355.916 230.141 356.17 230.141C356.348 230.141 356.526 230.127 356.703 230.097C356.881 230.061 357.017 230.035 357.112 230.017L357.706 232.831C357.517 232.891 357.251 232.959 356.907 233.036C356.564 233.118 356.147 233.169 355.656 233.186C354.744 233.222 353.945 233.101 353.259 232.822C352.578 232.544 352.048 232.112 351.669 231.526C351.291 230.94 351.104 230.201 351.11 229.307V216.097ZM365.778 233V214.818H369.623V229.831H377.417V233H365.778ZM383.781 233.257C382.911 233.257 382.135 233.107 381.455 232.805C380.774 232.497 380.235 232.044 379.839 231.446C379.448 230.843 379.253 230.091 379.253 229.191C379.253 228.434 379.392 227.798 379.67 227.283C379.948 226.768 380.327 226.353 380.806 226.04C381.286 225.726 381.83 225.489 382.44 225.33C383.056 225.17 383.701 225.057 384.375 224.992C385.168 224.909 385.808 224.832 386.293 224.761C386.778 224.684 387.13 224.572 387.349 224.424C387.568 224.276 387.678 224.057 387.678 223.767V223.714C387.678 223.152 387.5 222.717 387.145 222.409C386.796 222.101 386.299 221.947 385.654 221.947C384.973 221.947 384.432 222.098 384.029 222.4C383.627 222.696 383.36 223.069 383.23 223.518L379.732 223.234C379.91 222.406 380.259 221.69 380.78 221.086C381.301 220.476 381.972 220.009 382.795 219.683C383.624 219.352 384.583 219.186 385.672 219.186C386.429 219.186 387.154 219.275 387.847 219.452C388.545 219.63 389.163 219.905 389.702 220.278C390.247 220.651 390.676 221.13 390.989 221.716C391.303 222.296 391.46 222.992 391.46 223.803V233H387.873V231.109H387.767C387.548 231.535 387.255 231.911 386.888 232.237C386.521 232.556 386.08 232.808 385.565 232.991C385.05 233.169 384.455 233.257 383.781 233.257ZM384.864 230.647C385.42 230.647 385.911 230.538 386.337 230.319C386.763 230.094 387.098 229.792 387.341 229.413C387.583 229.035 387.705 228.605 387.705 228.126V226.679C387.586 226.756 387.423 226.827 387.216 226.892C387.015 226.951 386.787 227.007 386.533 227.061C386.278 227.108 386.024 227.152 385.769 227.194C385.515 227.229 385.284 227.262 385.077 227.292C384.633 227.357 384.245 227.46 383.914 227.602C383.582 227.744 383.325 227.937 383.141 228.179C382.958 228.416 382.866 228.712 382.866 229.067C382.866 229.582 383.053 229.976 383.425 230.248C383.804 230.514 384.284 230.647 384.864 230.647ZM397.821 229.076L397.83 224.539H398.38L402.748 219.364H407.089L401.221 226.217H400.324L397.821 229.076ZM394.394 233V214.818H398.176V233H394.394ZM402.917 233L398.904 227.061L401.425 224.388L407.347 233H402.917ZM414.598 233.266C413.195 233.266 411.988 232.982 410.976 232.414C409.969 231.84 409.194 231.029 408.65 229.982C408.105 228.928 407.833 227.682 407.833 226.244C407.833 224.841 408.105 223.61 408.65 222.551C409.194 221.491 409.961 220.666 410.949 220.074C411.943 219.482 413.109 219.186 414.447 219.186C415.346 219.186 416.184 219.331 416.959 219.621C417.741 219.905 418.421 220.334 419.001 220.908C419.587 221.482 420.043 222.205 420.368 223.075C420.694 223.939 420.857 224.951 420.857 226.111V227.15H409.342V224.806H417.297C417.297 224.261 417.178 223.779 416.941 223.359C416.705 222.938 416.376 222.61 415.956 222.373C415.542 222.131 415.059 222.009 414.509 222.009C413.935 222.009 413.426 222.142 412.982 222.409C412.544 222.669 412.201 223.021 411.952 223.465C411.704 223.903 411.576 224.391 411.57 224.93V227.158C411.57 227.833 411.695 228.416 411.943 228.907C412.198 229.399 412.556 229.777 413.017 230.044C413.479 230.31 414.027 230.443 414.66 230.443C415.08 230.443 415.465 230.384 415.814 230.266C416.163 230.147 416.462 229.97 416.711 229.733C416.959 229.496 417.149 229.206 417.279 228.863L420.777 229.094C420.599 229.934 420.235 230.668 419.685 231.295C419.14 231.917 418.436 232.402 417.572 232.751C416.714 233.095 415.722 233.266 414.598 233.266ZM445.224 221.184H441.336C441.265 220.681 441.12 220.234 440.901 219.843C440.682 219.446 440.4 219.109 440.057 218.831C439.714 218.553 439.317 218.34 438.868 218.192C438.424 218.044 437.941 217.97 437.42 217.97C436.479 217.97 435.66 218.204 434.961 218.671C434.263 219.133 433.721 219.808 433.337 220.695C432.952 221.577 432.76 222.648 432.76 223.909C432.76 225.205 432.952 226.294 433.337 227.176C433.727 228.058 434.272 228.724 434.97 229.174C435.669 229.623 436.476 229.848 437.394 229.848C437.909 229.848 438.385 229.78 438.823 229.644C439.267 229.508 439.661 229.31 440.004 229.049C440.347 228.783 440.631 228.46 440.856 228.082C441.087 227.703 441.247 227.271 441.336 226.786L445.224 226.803C445.123 227.638 444.872 228.443 444.469 229.218C444.073 229.987 443.537 230.677 442.863 231.287C442.194 231.89 441.395 232.37 440.466 232.725C439.542 233.074 438.498 233.249 437.332 233.249C435.71 233.249 434.26 232.882 432.982 232.148C431.709 231.414 430.703 230.351 429.963 228.961C429.229 227.57 428.862 225.886 428.862 223.909C428.862 221.926 429.235 220.24 429.981 218.849C430.727 217.458 431.739 216.398 433.017 215.67C434.295 214.937 435.734 214.57 437.332 214.57C438.385 214.57 439.362 214.718 440.261 215.013C441.167 215.309 441.969 215.741 442.667 216.31C443.366 216.872 443.934 217.561 444.372 218.378C444.816 219.195 445.1 220.13 445.224 221.184ZM447.91 233V219.364H451.692V233H447.91ZM449.809 217.606C449.247 217.606 448.765 217.419 448.362 217.047C447.966 216.668 447.768 216.215 447.768 215.688C447.768 215.167 447.966 214.721 448.362 214.348C448.765 213.969 449.247 213.779 449.809 213.779C450.372 213.779 450.851 213.969 451.248 214.348C451.65 214.721 451.851 215.167 451.851 215.688C451.851 216.215 451.65 216.668 451.248 217.047C450.851 217.419 450.372 217.606 449.809 217.606ZM461.974 219.364V222.205H453.762V219.364H461.974ZM455.627 216.097H459.409V228.81C459.409 229.159 459.462 229.431 459.568 229.626C459.675 229.816 459.823 229.949 460.012 230.026C460.208 230.103 460.433 230.141 460.687 230.141C460.865 230.141 461.042 230.127 461.22 230.097C461.397 230.061 461.533 230.035 461.628 230.017L462.223 232.831C462.034 232.891 461.767 232.959 461.424 233.036C461.081 233.118 460.663 233.169 460.172 233.186C459.261 233.222 458.462 233.101 457.775 232.822C457.094 232.544 456.565 232.112 456.186 231.526C455.807 230.94 455.621 230.201 455.627 229.307V216.097ZM466.773 238.114C466.293 238.114 465.844 238.075 465.423 237.998C465.009 237.927 464.666 237.835 464.394 237.723L465.246 234.9C465.69 235.036 466.089 235.11 466.444 235.122C466.805 235.134 467.116 235.051 467.377 234.873C467.643 234.696 467.859 234.394 468.025 233.968L468.247 233.391L463.355 219.364H467.332L470.155 229.378H470.297L473.147 219.364H477.151L471.851 234.474C471.596 235.208 471.25 235.847 470.812 236.391C470.38 236.942 469.833 237.365 469.17 237.661C468.507 237.963 467.708 238.114 466.773 238.114Z" fill="black"/>
<path d="M171.504 274L166.533 255.818H168.77L172.57 270.626H172.747L176.618 255.818H179.104L182.974 270.626H183.152L186.952 255.818H189.189L184.217 274H181.945L177.932 259.511H177.79L173.777 274H171.504ZM196.096 274.284C194.782 274.284 193.649 273.994 192.696 273.414C191.749 272.828 191.018 272.011 190.503 270.964C189.994 269.91 189.739 268.685 189.739 267.288C189.739 265.892 189.994 264.661 190.503 263.595C191.018 262.524 191.734 261.689 192.651 261.092C193.575 260.488 194.652 260.186 195.883 260.186C196.593 260.186 197.294 260.304 197.987 260.541C198.679 260.778 199.31 261.163 199.878 261.695C200.446 262.222 200.899 262.92 201.236 263.79C201.574 264.661 201.742 265.732 201.742 267.004V267.892H191.231V266.081H199.612C199.612 265.312 199.458 264.625 199.15 264.021C198.848 263.418 198.416 262.941 197.854 262.592C197.297 262.243 196.64 262.068 195.883 262.068C195.048 262.068 194.326 262.275 193.717 262.69C193.113 263.098 192.648 263.631 192.323 264.288C191.997 264.945 191.835 265.649 191.835 266.401V267.608C191.835 268.638 192.012 269.511 192.367 270.227C192.728 270.937 193.228 271.479 193.868 271.852C194.507 272.219 195.25 272.402 196.096 272.402C196.646 272.402 197.143 272.325 197.587 272.171C198.037 272.011 198.425 271.775 198.75 271.461C199.076 271.141 199.327 270.745 199.505 270.271L201.529 270.839C201.316 271.526 200.958 272.13 200.455 272.651C199.952 273.165 199.33 273.568 198.591 273.858C197.851 274.142 197.019 274.284 196.096 274.284ZM214.588 263.418L212.706 263.95C212.588 263.637 212.413 263.332 212.183 263.036C211.958 262.734 211.65 262.485 211.259 262.29C210.869 262.095 210.368 261.997 209.759 261.997C208.924 261.997 208.229 262.19 207.673 262.574C207.122 262.953 206.847 263.435 206.847 264.021C206.847 264.542 207.036 264.953 207.415 265.255C207.794 265.557 208.386 265.809 209.191 266.01L211.215 266.507C212.434 266.803 213.343 267.256 213.94 267.865C214.538 268.469 214.837 269.247 214.837 270.2C214.837 270.982 214.612 271.68 214.162 272.295C213.718 272.911 213.097 273.396 212.298 273.751C211.499 274.107 210.57 274.284 209.51 274.284C208.119 274.284 206.968 273.982 206.057 273.379C205.145 272.775 204.568 271.893 204.326 270.733L206.314 270.236C206.504 270.97 206.862 271.52 207.388 271.887C207.921 272.254 208.617 272.438 209.475 272.438C210.451 272.438 211.227 272.23 211.801 271.816C212.381 271.396 212.671 270.893 212.671 270.307C212.671 269.833 212.505 269.437 212.174 269.117C211.842 268.792 211.333 268.549 210.647 268.389L208.374 267.857C207.125 267.561 206.208 267.102 205.622 266.48C205.042 265.853 204.752 265.069 204.752 264.128C204.752 263.358 204.968 262.678 205.4 262.086C205.838 261.494 206.433 261.029 207.184 260.692C207.942 260.355 208.8 260.186 209.759 260.186C211.108 260.186 212.168 260.482 212.937 261.074C213.712 261.666 214.263 262.447 214.588 263.418ZM223.921 260.364V262.139H216.854V260.364H223.921ZM218.914 257.097H221.009V270.094C221.009 270.686 221.095 271.129 221.267 271.425C221.444 271.715 221.669 271.911 221.941 272.011C222.22 272.106 222.513 272.153 222.82 272.153C223.051 272.153 223.241 272.142 223.389 272.118C223.537 272.088 223.655 272.065 223.744 272.047L224.17 273.929C224.028 273.982 223.83 274.036 223.575 274.089C223.321 274.148 222.998 274.178 222.607 274.178C222.015 274.178 221.435 274.05 220.867 273.796C220.305 273.541 219.837 273.154 219.465 272.633C219.098 272.112 218.914 271.455 218.914 270.662V257.097ZM235.134 255.818L240.532 271.124H240.745L246.142 255.818H248.451L241.775 274H239.502L232.826 255.818H235.134ZM253.742 274.32C252.878 274.32 252.094 274.157 251.389 273.831C250.685 273.5 250.126 273.023 249.711 272.402C249.297 271.775 249.09 271.017 249.09 270.129C249.09 269.348 249.244 268.715 249.552 268.229C249.859 267.738 250.271 267.353 250.786 267.075C251.301 266.797 251.869 266.59 252.49 266.454C253.118 266.312 253.748 266.199 254.381 266.116C255.21 266.01 255.881 265.93 256.396 265.877C256.917 265.818 257.296 265.72 257.533 265.584C257.775 265.448 257.897 265.211 257.897 264.874V264.803C257.897 263.927 257.657 263.246 257.178 262.761C256.704 262.275 255.985 262.033 255.02 262.033C254.02 262.033 253.236 262.252 252.668 262.69C252.1 263.128 251.7 263.595 251.469 264.092L249.481 263.382C249.836 262.554 250.309 261.908 250.901 261.447C251.499 260.979 252.15 260.654 252.854 260.47C253.564 260.281 254.263 260.186 254.949 260.186C255.387 260.186 255.89 260.239 256.459 260.346C257.033 260.446 257.586 260.657 258.119 260.976C258.657 261.296 259.104 261.778 259.459 262.423C259.814 263.068 259.992 263.933 259.992 265.016V274H257.897V272.153H257.79C257.648 272.449 257.411 272.766 257.08 273.103C256.749 273.441 256.308 273.728 255.757 273.964C255.207 274.201 254.535 274.32 253.742 274.32ZM254.062 272.438C254.89 272.438 255.589 272.275 256.157 271.949C256.731 271.624 257.163 271.203 257.453 270.689C257.749 270.174 257.897 269.632 257.897 269.064V267.146C257.808 267.253 257.613 267.35 257.311 267.439C257.015 267.522 256.672 267.596 256.281 267.661C255.896 267.72 255.52 267.774 255.153 267.821C254.792 267.862 254.499 267.898 254.275 267.928C253.73 267.999 253.221 268.114 252.748 268.274C252.28 268.428 251.901 268.661 251.611 268.975C251.327 269.283 251.185 269.703 251.185 270.236C251.185 270.964 251.454 271.514 251.993 271.887C252.537 272.254 253.227 272.438 254.062 272.438ZM265.911 255.818V274H263.816V255.818H265.911ZM271.844 255.818V274H269.749V255.818H271.844ZM281.399 274.284C280.085 274.284 278.951 273.994 277.998 273.414C277.051 272.828 276.32 272.011 275.806 270.964C275.297 269.91 275.042 268.685 275.042 267.288C275.042 265.892 275.297 264.661 275.806 263.595C276.32 262.524 277.037 261.689 277.954 261.092C278.877 260.488 279.954 260.186 281.186 260.186C281.896 260.186 282.597 260.304 283.29 260.541C283.982 260.778 284.612 261.163 285.181 261.695C285.749 262.222 286.202 262.92 286.539 263.79C286.876 264.661 287.045 265.732 287.045 267.004V267.892H276.534V266.081H284.914C284.914 265.312 284.76 264.625 284.453 264.021C284.151 263.418 283.719 262.941 283.156 262.592C282.6 262.243 281.943 262.068 281.186 262.068C280.351 262.068 279.629 262.275 279.019 262.69C278.416 263.098 277.951 263.631 277.626 264.288C277.3 264.945 277.137 265.649 277.137 266.401V267.608C277.137 268.638 277.315 269.511 277.67 270.227C278.031 270.937 278.531 271.479 279.17 271.852C279.809 272.219 280.552 272.402 281.399 272.402C281.949 272.402 282.446 272.325 282.89 272.171C283.34 272.011 283.728 271.775 284.053 271.461C284.379 271.141 284.63 270.745 284.808 270.271L286.832 270.839C286.619 271.526 286.261 272.13 285.758 272.651C285.255 273.165 284.633 273.568 283.893 273.858C283.153 274.142 282.322 274.284 281.399 274.284ZM291.166 279.114C290.811 279.114 290.495 279.084 290.217 279.025C289.938 278.972 289.746 278.918 289.639 278.865L290.172 277.018C290.681 277.149 291.131 277.196 291.522 277.161C291.912 277.125 292.258 276.95 292.56 276.637C292.868 276.329 293.149 275.829 293.404 275.136L293.794 274.071L288.752 260.364H291.024L294.789 271.23H294.931L298.695 260.364H300.968L295.179 275.989C294.919 276.693 294.596 277.276 294.212 277.738C293.827 278.205 293.38 278.551 292.871 278.776C292.368 279.001 291.8 279.114 291.166 279.114Z" fill="black"/>
<path d="M267.543 142.909C267.543 144.827 267.196 146.484 266.504 147.881C265.811 149.277 264.862 150.355 263.654 151.112C262.447 151.87 261.068 152.249 259.517 152.249C257.966 152.249 256.587 151.87 255.38 151.112C254.173 150.355 253.223 149.277 252.53 147.881C251.838 146.484 251.491 144.827 251.491 142.909C251.491 140.991 251.838 139.334 252.53 137.938C253.223 136.541 254.173 135.464 255.38 134.706C256.587 133.948 257.966 133.57 259.517 133.57C261.068 133.57 262.447 133.948 263.654 134.706C264.862 135.464 265.811 136.541 266.504 137.938C267.196 139.334 267.543 140.991 267.543 142.909ZM265.412 142.909C265.412 141.335 265.149 140.006 264.622 138.923C264.101 137.84 263.394 137.02 262.5 136.464C261.612 135.907 260.618 135.629 259.517 135.629C258.416 135.629 257.419 135.907 256.525 136.464C255.637 137.02 254.93 137.84 254.403 138.923C253.883 140.006 253.622 141.335 253.622 142.909C253.622 144.483 253.883 145.812 254.403 146.895C254.93 147.978 255.637 148.798 256.525 149.354C257.419 149.911 258.416 150.189 259.517 150.189C260.618 150.189 261.612 149.911 262.5 149.354C263.394 148.798 264.101 147.978 264.622 146.895C265.149 145.812 265.412 144.483 265.412 142.909ZM276.465 157.398C275.453 157.398 274.583 157.268 273.855 157.007C273.127 156.753 272.52 156.415 272.035 155.995C271.555 155.581 271.174 155.137 270.89 154.663L272.559 153.491C272.748 153.74 272.988 154.024 273.278 154.344C273.568 154.669 273.964 154.95 274.467 155.187C274.976 155.43 275.642 155.551 276.465 155.551C277.566 155.551 278.474 155.285 279.19 154.752C279.906 154.219 280.265 153.385 280.265 152.249V149.479H280.087C279.933 149.727 279.714 150.035 279.43 150.402C279.152 150.763 278.749 151.086 278.223 151.37C277.702 151.648 276.998 151.787 276.11 151.787C275.009 151.787 274.02 151.527 273.145 151.006C272.275 150.485 271.585 149.727 271.076 148.733C270.573 147.739 270.321 146.531 270.321 145.111C270.321 143.714 270.567 142.498 271.058 141.462C271.549 140.42 272.233 139.615 273.109 139.047C273.985 138.473 274.997 138.186 276.145 138.186C277.033 138.186 277.737 138.334 278.258 138.63C278.785 138.92 279.187 139.251 279.466 139.624C279.75 139.991 279.969 140.293 280.123 140.53H280.336V138.364H282.36V152.391C282.36 153.562 282.093 154.515 281.561 155.249C281.034 155.989 280.324 156.531 279.43 156.874C278.542 157.223 277.554 157.398 276.465 157.398ZM276.394 149.905C277.234 149.905 277.944 149.712 278.525 149.328C279.105 148.943 279.545 148.39 279.847 147.668C280.149 146.946 280.3 146.081 280.3 145.075C280.3 144.093 280.152 143.226 279.856 142.474C279.56 141.722 279.122 141.134 278.542 140.707C277.962 140.281 277.246 140.068 276.394 140.068C275.506 140.068 274.766 140.293 274.174 140.743C273.588 141.193 273.147 141.796 272.852 142.554C272.562 143.312 272.417 144.152 272.417 145.075C272.417 146.022 272.565 146.86 272.86 147.588C273.162 148.31 273.606 148.878 274.192 149.292C274.784 149.701 275.518 149.905 276.394 149.905ZM291.344 152.284C290.208 152.284 289.205 151.997 288.335 151.423C287.464 150.843 286.784 150.026 286.293 148.973C285.801 147.913 285.556 146.661 285.556 145.217C285.556 143.785 285.801 142.542 286.293 141.489C286.784 140.435 287.467 139.621 288.343 139.047C289.219 138.473 290.231 138.186 291.38 138.186C292.267 138.186 292.969 138.334 293.484 138.63C294.004 138.92 294.401 139.251 294.673 139.624C294.951 139.991 295.167 140.293 295.321 140.53H295.499V133.818H297.594V152H295.57V149.905H295.321C295.167 150.153 294.949 150.467 294.664 150.846C294.38 151.219 293.975 151.553 293.448 151.849C292.921 152.139 292.22 152.284 291.344 152.284ZM291.628 150.402C292.469 150.402 293.179 150.183 293.759 149.745C294.339 149.301 294.78 148.689 295.082 147.907C295.384 147.12 295.534 146.212 295.534 145.182C295.534 144.164 295.386 143.273 295.091 142.51C294.795 141.74 294.357 141.142 293.777 140.716C293.197 140.284 292.48 140.068 291.628 140.068C290.74 140.068 290.001 140.296 289.409 140.752C288.823 141.202 288.382 141.814 288.086 142.589C287.796 143.359 287.651 144.223 287.651 145.182C287.651 146.152 287.799 147.034 288.095 147.827C288.397 148.615 288.841 149.242 289.426 149.71C290.018 150.171 290.752 150.402 291.628 150.402ZM307.44 152.284C306.126 152.284 304.992 151.994 304.039 151.414C303.092 150.828 302.362 150.011 301.847 148.964C301.338 147.91 301.083 146.685 301.083 145.288C301.083 143.892 301.338 142.661 301.847 141.595C302.362 140.524 303.078 139.689 303.995 139.092C304.918 138.488 305.996 138.186 307.227 138.186C307.937 138.186 308.638 138.304 309.331 138.541C310.023 138.778 310.653 139.163 311.222 139.695C311.79 140.222 312.243 140.92 312.58 141.79C312.917 142.661 313.086 143.732 313.086 145.004V145.892H302.575V144.081H310.955C310.955 143.312 310.801 142.625 310.494 142.021C310.192 141.418 309.76 140.941 309.197 140.592C308.641 140.243 307.984 140.068 307.227 140.068C306.392 140.068 305.67 140.275 305.06 140.69C304.457 141.098 303.992 141.631 303.667 142.288C303.341 142.945 303.178 143.649 303.178 144.401V145.608C303.178 146.638 303.356 147.511 303.711 148.227C304.072 148.937 304.572 149.479 305.211 149.852C305.85 150.219 306.593 150.402 307.44 150.402C307.99 150.402 308.487 150.325 308.931 150.171C309.381 150.011 309.769 149.775 310.094 149.461C310.42 149.141 310.671 148.745 310.849 148.271L312.873 148.839C312.66 149.526 312.302 150.13 311.799 150.651C311.296 151.165 310.674 151.568 309.934 151.858C309.194 152.142 308.363 152.284 307.44 152.284ZM318.368 143.797V152H316.273V138.364H318.297V140.494H318.475C318.794 139.802 319.28 139.246 319.931 138.825C320.582 138.399 321.422 138.186 322.452 138.186C323.375 138.186 324.183 138.375 324.876 138.754C325.568 139.127 326.107 139.695 326.491 140.459C326.876 141.216 327.069 142.175 327.069 143.335V152H324.973V143.477C324.973 142.406 324.695 141.571 324.139 140.974C323.583 140.37 322.819 140.068 321.848 140.068C321.18 140.068 320.582 140.213 320.055 140.503C319.534 140.793 319.123 141.216 318.821 141.773C318.519 142.329 318.368 143.004 318.368 143.797Z" fill="black"/>
<path d="M489.202 512.818H491.83L498.009 527.911H498.222L504.401 512.818H507.028V531H504.969V517.186H504.791L499.109 531H497.121L491.439 517.186H491.261V531H489.202V512.818ZM516.699 531.284C515.468 531.284 514.387 530.991 513.458 530.405C512.535 529.819 511.813 529 511.292 527.946C510.777 526.893 510.52 525.661 510.52 524.253C510.52 522.832 510.777 521.592 511.292 520.533C511.813 519.474 512.535 518.651 513.458 518.065C514.387 517.479 515.468 517.186 516.699 517.186C517.93 517.186 519.007 517.479 519.93 518.065C520.859 518.651 521.581 519.474 522.096 520.533C522.617 521.592 522.878 522.832 522.878 524.253C522.878 525.661 522.617 526.893 522.096 527.946C521.581 529 520.859 529.819 519.93 530.405C519.007 530.991 517.93 531.284 516.699 531.284ZM516.699 529.402C517.634 529.402 518.403 529.162 519.007 528.683C519.611 528.203 520.057 527.573 520.347 526.792C520.637 526.011 520.782 525.164 520.782 524.253C520.782 523.341 520.637 522.492 520.347 521.705C520.057 520.918 519.611 520.281 519.007 519.796C518.403 519.311 517.634 519.068 516.699 519.068C515.763 519.068 514.994 519.311 514.39 519.796C513.787 520.281 513.34 520.918 513.05 521.705C512.76 522.492 512.615 523.341 512.615 524.253C512.615 525.164 512.76 526.011 513.05 526.792C513.34 527.573 513.787 528.203 514.39 528.683C514.994 529.162 515.763 529.402 516.699 529.402ZM530.089 531.32C529.224 531.32 528.44 531.157 527.736 530.831C527.032 530.5 526.472 530.023 526.058 529.402C525.644 528.775 525.437 528.017 525.437 527.129C525.437 526.348 525.59 525.715 525.898 525.229C526.206 524.738 526.617 524.353 527.132 524.075C527.647 523.797 528.215 523.59 528.837 523.454C529.464 523.312 530.095 523.199 530.728 523.116C531.556 523.01 532.228 522.93 532.743 522.877C533.264 522.818 533.643 522.72 533.879 522.584C534.122 522.448 534.243 522.211 534.243 521.874V521.803C534.243 520.927 534.004 520.246 533.524 519.761C533.051 519.275 532.332 519.033 531.367 519.033C530.367 519.033 529.583 519.252 529.014 519.69C528.446 520.128 528.047 520.595 527.816 521.092L525.827 520.382C526.182 519.554 526.656 518.908 527.248 518.447C527.845 517.979 528.497 517.654 529.201 517.47C529.911 517.281 530.609 517.186 531.296 517.186C531.734 517.186 532.237 517.239 532.805 517.346C533.379 517.446 533.933 517.657 534.465 517.976C535.004 518.296 535.451 518.778 535.806 519.423C536.161 520.068 536.339 520.933 536.339 522.016V531H534.243V529.153H534.137C533.995 529.449 533.758 529.766 533.427 530.103C533.095 530.441 532.654 530.728 532.104 530.964C531.553 531.201 530.882 531.32 530.089 531.32ZM530.408 529.438C531.237 529.438 531.935 529.275 532.503 528.949C533.077 528.624 533.51 528.203 533.8 527.689C534.095 527.174 534.243 526.632 534.243 526.064V524.146C534.155 524.253 533.959 524.35 533.657 524.439C533.362 524.522 533.018 524.596 532.628 524.661C532.243 524.72 531.867 524.774 531.5 524.821C531.139 524.862 530.846 524.898 530.621 524.928C530.077 524.999 529.568 525.114 529.094 525.274C528.627 525.428 528.248 525.661 527.958 525.975C527.674 526.283 527.532 526.703 527.532 527.236C527.532 527.964 527.801 528.514 528.34 528.887C528.884 529.254 529.574 529.438 530.408 529.438ZM540.447 531V512.818H542.542V519.53H542.72C542.873 519.293 543.086 518.991 543.359 518.624C543.637 518.251 544.033 517.92 544.548 517.63C545.069 517.334 545.774 517.186 546.661 517.186C547.81 517.186 548.822 517.473 549.698 518.047C550.573 518.621 551.257 519.435 551.748 520.489C552.24 521.542 552.485 522.785 552.485 524.217C552.485 525.661 552.24 526.913 551.748 527.973C551.257 529.026 550.576 529.843 549.706 530.423C548.836 530.997 547.833 531.284 546.697 531.284C545.821 531.284 545.12 531.139 544.593 530.849C544.066 530.553 543.661 530.219 543.377 529.846C543.092 529.467 542.873 529.153 542.72 528.905H542.471V531H540.447ZM542.506 524.182C542.506 525.212 542.657 526.12 542.959 526.907C543.261 527.689 543.702 528.301 544.282 528.745C544.862 529.183 545.572 529.402 546.413 529.402C547.289 529.402 548.02 529.171 548.606 528.71C549.197 528.242 549.641 527.615 549.937 526.827C550.239 526.034 550.39 525.152 550.39 524.182C550.39 523.223 550.242 522.359 549.946 521.589C549.656 520.814 549.215 520.202 548.623 519.752C548.037 519.296 547.301 519.068 546.413 519.068C545.56 519.068 544.844 519.284 544.264 519.716C543.684 520.142 543.246 520.74 542.95 521.51C542.654 522.273 542.506 523.164 542.506 524.182Z" fill="black"/>
<path d="M289.202 322V303.818H295.345C296.772 303.818 297.938 304.076 298.843 304.591C299.754 305.1 300.429 305.789 300.867 306.659C301.305 307.529 301.524 308.5 301.524 309.571C301.524 310.642 301.305 311.616 300.867 312.492C300.435 313.368 299.766 314.066 298.861 314.587C297.955 315.102 296.795 315.359 295.381 315.359H290.977V313.406H295.31C296.286 313.406 297.07 313.238 297.662 312.9C298.254 312.563 298.683 312.107 298.95 311.533C299.222 310.953 299.358 310.299 299.358 309.571C299.358 308.843 299.222 308.192 298.95 307.618C298.683 307.044 298.251 306.594 297.653 306.268C297.056 305.937 296.263 305.771 295.274 305.771H291.403V322H289.202ZM304.787 322V308.364H306.811V310.423H306.953C307.202 309.749 307.651 309.201 308.302 308.781C308.953 308.361 309.687 308.151 310.504 308.151C310.658 308.151 310.85 308.154 311.081 308.159C311.312 308.165 311.487 308.174 311.605 308.186V310.317C311.534 310.299 311.371 310.272 311.117 310.237C310.868 310.195 310.605 310.175 310.327 310.175C309.664 310.175 309.072 310.314 308.551 310.592C308.036 310.864 307.628 311.243 307.326 311.728C307.03 312.208 306.882 312.755 306.882 313.371V322H304.787ZM319.213 322.284C317.982 322.284 316.902 321.991 315.973 321.405C315.05 320.819 314.327 320 313.807 318.946C313.292 317.893 313.034 316.661 313.034 315.253C313.034 313.832 313.292 312.592 313.807 311.533C314.327 310.474 315.05 309.651 315.973 309.065C316.902 308.479 317.982 308.186 319.213 308.186C320.444 308.186 321.521 308.479 322.445 309.065C323.374 309.651 324.096 310.474 324.611 311.533C325.132 312.592 325.392 313.832 325.392 315.253C325.392 316.661 325.132 317.893 324.611 318.946C324.096 320 323.374 320.819 322.445 321.405C321.521 321.991 320.444 322.284 319.213 322.284ZM319.213 320.402C320.148 320.402 320.918 320.162 321.521 319.683C322.125 319.203 322.572 318.573 322.862 317.792C323.152 317.011 323.297 316.164 323.297 315.253C323.297 314.341 323.152 313.492 322.862 312.705C322.572 311.918 322.125 311.281 321.521 310.796C320.918 310.311 320.148 310.068 319.213 310.068C318.278 310.068 317.509 310.311 316.905 310.796C316.301 311.281 315.854 311.918 315.564 312.705C315.274 313.492 315.129 314.341 315.129 315.253C315.129 316.164 315.274 317.011 315.564 317.792C315.854 318.573 316.301 319.203 316.905 319.683C317.509 320.162 318.278 320.402 319.213 320.402ZM339.253 308.364L334.21 322H332.079L327.037 308.364H329.31L333.074 319.23H333.216L336.98 308.364H339.253ZM347.07 322.284C345.839 322.284 344.758 321.991 343.829 321.405C342.906 320.819 342.184 320 341.663 318.946C341.148 317.893 340.891 316.661 340.891 315.253C340.891 313.832 341.148 312.592 341.663 311.533C342.184 310.474 342.906 309.651 343.829 309.065C344.758 308.479 345.839 308.186 347.07 308.186C348.301 308.186 349.378 308.479 350.301 309.065C351.23 309.651 351.953 310.474 352.467 311.533C352.988 312.592 353.249 313.832 353.249 315.253C353.249 316.661 352.988 317.893 352.467 318.946C351.953 320 351.23 320.819 350.301 321.405C349.378 321.991 348.301 322.284 347.07 322.284ZM347.07 320.402C348.005 320.402 348.774 320.162 349.378 319.683C349.982 319.203 350.428 318.573 350.718 317.792C351.008 317.011 351.153 316.164 351.153 315.253C351.153 314.341 351.008 313.492 350.718 312.705C350.428 311.918 349.982 311.281 349.378 310.796C348.774 310.311 348.005 310.068 347.07 310.068C346.135 310.068 345.365 310.311 344.761 310.796C344.158 311.281 343.711 311.918 343.421 312.705C343.131 313.492 342.986 314.341 342.986 315.253C342.986 316.164 343.131 317.011 343.421 317.792C343.711 318.573 344.158 319.203 344.761 319.683C345.365 320.162 346.135 320.402 347.07 320.402Z" fill="black"/>
<path d="M126.145 640.364C126.038 639.464 125.606 638.766 124.849 638.268C124.091 637.771 123.162 637.523 122.061 637.523C121.256 637.523 120.552 637.653 119.948 637.913C119.35 638.174 118.883 638.532 118.545 638.988C118.214 639.443 118.048 639.961 118.048 640.541C118.048 641.027 118.164 641.444 118.395 641.793C118.631 642.136 118.933 642.423 119.3 642.654C119.667 642.879 120.052 643.065 120.454 643.213C120.857 643.355 121.227 643.471 121.564 643.56L123.411 644.057C123.884 644.181 124.411 644.353 124.991 644.572C125.577 644.791 126.136 645.09 126.669 645.468C127.207 645.841 127.651 646.321 128 646.907C128.35 647.493 128.524 648.212 128.524 649.064C128.524 650.046 128.267 650.934 127.752 651.727C127.243 652.52 126.497 653.151 125.515 653.618C124.538 654.086 123.351 654.32 121.955 654.32C120.652 654.32 119.525 654.109 118.572 653.689C117.625 653.269 116.879 652.683 116.335 651.931C115.796 651.18 115.491 650.307 115.42 649.312H117.693C117.752 649.999 117.983 650.567 118.386 651.017C118.794 651.461 119.309 651.792 119.93 652.011C120.558 652.224 121.232 652.331 121.955 652.331C122.795 652.331 123.55 652.195 124.218 651.923C124.887 651.644 125.417 651.26 125.808 650.768C126.198 650.271 126.393 649.691 126.393 649.028C126.393 648.425 126.225 647.933 125.887 647.555C125.55 647.176 125.106 646.868 124.556 646.631C124.005 646.395 123.411 646.187 122.771 646.01L120.534 645.371C119.114 644.962 117.989 644.379 117.161 643.622C116.332 642.864 115.918 641.873 115.918 640.648C115.918 639.63 116.193 638.742 116.743 637.984C117.3 637.221 118.045 636.629 118.98 636.209C119.922 635.783 120.972 635.57 122.132 635.57C123.304 635.57 124.346 635.78 125.257 636.2C126.169 636.614 126.891 637.182 127.423 637.904C127.962 638.627 128.246 639.446 128.276 640.364H126.145ZM137.79 640.364V642.139H130.724V640.364H137.79ZM132.783 637.097H134.878V650.094C134.878 650.686 134.964 651.129 135.136 651.425C135.313 651.715 135.538 651.911 135.811 652.011C136.089 652.106 136.382 652.153 136.69 652.153C136.92 652.153 137.11 652.142 137.258 652.118C137.406 652.088 137.524 652.065 137.613 652.047L138.039 653.929C137.897 653.982 137.699 654.036 137.444 654.089C137.19 654.148 136.867 654.178 136.476 654.178C135.885 654.178 135.305 654.05 134.736 653.796C134.174 653.541 133.707 653.154 133.334 652.633C132.967 652.112 132.783 651.455 132.783 650.662V637.097ZM142.469 654.142C142.031 654.142 141.655 653.985 141.342 653.672C141.028 653.358 140.871 652.982 140.871 652.544C140.871 652.106 141.028 651.73 141.342 651.417C141.655 651.103 142.031 650.946 142.469 650.946C142.907 650.946 143.283 651.103 143.597 651.417C143.91 651.73 144.067 652.106 144.067 652.544C144.067 652.834 143.993 653.1 143.845 653.343C143.703 653.586 143.511 653.781 143.268 653.929C143.031 654.071 142.765 654.142 142.469 654.142ZM167.571 641.5C167.376 640.902 167.118 640.367 166.799 639.893C166.485 639.414 166.109 639.005 165.671 638.668C165.239 638.331 164.748 638.073 164.198 637.896C163.647 637.718 163.043 637.629 162.386 637.629C161.309 637.629 160.33 637.907 159.448 638.464C158.566 639.02 157.865 639.84 157.344 640.923C156.823 642.006 156.563 643.335 156.563 644.909C156.563 646.483 156.826 647.812 157.353 648.895C157.879 649.978 158.593 650.798 159.492 651.354C160.392 651.911 161.404 652.189 162.528 652.189C163.57 652.189 164.488 651.967 165.281 651.523C166.08 651.073 166.701 650.44 167.145 649.623C167.595 648.801 167.82 647.833 167.82 646.72L168.494 646.862H163.026V644.909H169.95V646.862C169.95 648.36 169.631 649.662 168.992 650.768C168.358 651.875 167.482 652.733 166.364 653.343C165.251 653.947 163.973 654.249 162.528 654.249C160.919 654.249 159.504 653.87 158.285 653.112C157.072 652.355 156.125 651.277 155.444 649.881C154.769 648.484 154.432 646.827 154.432 644.909C154.432 643.471 154.624 642.178 155.009 641.029C155.4 639.875 155.95 638.893 156.66 638.082C157.37 637.271 158.211 636.65 159.182 636.218C160.152 635.786 161.22 635.57 162.386 635.57C163.345 635.57 164.239 635.715 165.068 636.005C165.902 636.289 166.645 636.694 167.296 637.221C167.953 637.742 168.5 638.366 168.938 639.094C169.376 639.816 169.678 640.618 169.844 641.5H167.571ZM179.154 654.284C177.841 654.284 176.707 653.994 175.754 653.414C174.807 652.828 174.076 652.011 173.561 650.964C173.052 649.91 172.798 648.685 172.798 647.288C172.798 645.892 173.052 644.661 173.561 643.595C174.076 642.524 174.792 641.689 175.71 641.092C176.633 640.488 177.71 640.186 178.941 640.186C179.652 640.186 180.353 640.304 181.045 640.541C181.738 640.778 182.368 641.163 182.936 641.695C183.505 642.222 183.957 642.92 184.295 643.79C184.632 644.661 184.801 645.732 184.801 647.004V647.892H174.289V646.081H182.67C182.67 645.312 182.516 644.625 182.208 644.021C181.907 643.418 181.475 642.941 180.912 642.592C180.356 642.243 179.699 642.068 178.941 642.068C178.107 642.068 177.385 642.275 176.775 642.69C176.172 643.098 175.707 643.631 175.381 644.288C175.056 644.945 174.893 645.649 174.893 646.401V647.608C174.893 648.638 175.071 649.511 175.426 650.227C175.787 650.937 176.287 651.479 176.926 651.852C177.565 652.219 178.308 652.402 179.154 652.402C179.705 652.402 180.202 652.325 180.646 652.171C181.096 652.011 181.483 651.775 181.809 651.461C182.134 651.141 182.386 650.745 182.564 650.271L184.588 650.839C184.375 651.526 184.017 652.13 183.513 652.651C183.01 653.165 182.389 653.568 181.649 653.858C180.909 654.142 180.078 654.284 179.154 654.284ZM193.528 654.284C192.297 654.284 191.217 653.991 190.287 653.405C189.364 652.819 188.642 652 188.121 650.946C187.606 649.893 187.349 648.661 187.349 647.253C187.349 645.832 187.606 644.592 188.121 643.533C188.642 642.474 189.364 641.651 190.287 641.065C191.217 640.479 192.297 640.186 193.528 640.186C194.759 640.186 195.836 640.479 196.759 641.065C197.688 641.651 198.411 642.474 198.925 643.533C199.446 644.592 199.707 645.832 199.707 647.253C199.707 648.661 199.446 649.893 198.925 650.946C198.411 652 197.688 652.819 196.759 653.405C195.836 653.991 194.759 654.284 193.528 654.284ZM193.528 652.402C194.463 652.402 195.232 652.162 195.836 651.683C196.44 651.203 196.886 650.573 197.176 649.792C197.467 649.011 197.612 648.164 197.612 647.253C197.612 646.341 197.467 645.492 197.176 644.705C196.886 643.918 196.44 643.281 195.836 642.796C195.232 642.311 194.463 642.068 193.528 642.068C192.593 642.068 191.823 642.311 191.219 642.796C190.616 643.281 190.169 643.918 189.879 644.705C189.589 645.492 189.444 646.341 189.444 647.253C189.444 648.164 189.589 649.011 189.879 649.792C190.169 650.573 190.616 651.203 191.219 651.683C191.823 652.162 192.593 652.402 193.528 652.402ZM202.905 654V640.364H204.929V642.423H205.071C205.32 641.749 205.77 641.201 206.421 640.781C207.072 640.361 207.805 640.151 208.622 640.151C208.776 640.151 208.968 640.154 209.199 640.159C209.43 640.165 209.605 640.174 209.723 640.186V642.317C209.652 642.299 209.489 642.272 209.235 642.237C208.986 642.195 208.723 642.175 208.445 642.175C207.782 642.175 207.19 642.314 206.669 642.592C206.154 642.864 205.746 643.243 205.444 643.728C205.148 644.208 205 644.755 205 645.371V654H202.905ZM217.296 659.398C216.284 659.398 215.414 659.268 214.686 659.007C213.958 658.753 213.351 658.415 212.866 657.995C212.386 657.581 212.005 657.137 211.721 656.663L213.39 655.491C213.579 655.74 213.819 656.024 214.109 656.344C214.399 656.669 214.795 656.95 215.298 657.187C215.807 657.43 216.473 657.551 217.296 657.551C218.397 657.551 219.305 657.285 220.021 656.752C220.738 656.219 221.096 655.385 221.096 654.249V651.479H220.918C220.764 651.727 220.545 652.035 220.261 652.402C219.983 652.763 219.58 653.086 219.054 653.37C218.533 653.648 217.829 653.787 216.941 653.787C215.84 653.787 214.852 653.527 213.976 653.006C213.106 652.485 212.416 651.727 211.907 650.733C211.404 649.739 211.152 648.531 211.152 647.111C211.152 645.714 211.398 644.498 211.889 643.462C212.381 642.42 213.064 641.615 213.94 641.047C214.816 640.473 215.828 640.186 216.976 640.186C217.864 640.186 218.568 640.334 219.089 640.63C219.616 640.92 220.018 641.251 220.297 641.624C220.581 641.991 220.8 642.293 220.954 642.53H221.167V640.364H223.191V654.391C223.191 655.562 222.924 656.515 222.392 657.249C221.865 657.989 221.155 658.531 220.261 658.874C219.373 659.223 218.385 659.398 217.296 659.398ZM217.225 651.905C218.065 651.905 218.776 651.712 219.356 651.328C219.936 650.943 220.377 650.39 220.678 649.668C220.98 648.946 221.131 648.081 221.131 647.075C221.131 646.093 220.983 645.226 220.687 644.474C220.391 643.722 219.953 643.134 219.373 642.707C218.793 642.281 218.077 642.068 217.225 642.068C216.337 642.068 215.597 642.293 215.005 642.743C214.419 643.193 213.979 643.796 213.683 644.554C213.393 645.312 213.248 646.152 213.248 647.075C213.248 648.022 213.396 648.86 213.691 649.588C213.993 650.31 214.437 650.878 215.023 651.292C215.615 651.701 216.349 651.905 217.225 651.905ZM232.743 654.284C231.429 654.284 230.296 653.994 229.343 653.414C228.396 652.828 227.665 652.011 227.15 650.964C226.641 649.91 226.387 648.685 226.387 647.288C226.387 645.892 226.641 644.661 227.15 643.595C227.665 642.524 228.381 641.689 229.299 641.092C230.222 640.488 231.299 640.186 232.53 640.186C233.241 640.186 233.942 640.304 234.634 640.541C235.327 640.778 235.957 641.163 236.525 641.695C237.093 642.222 237.546 642.92 237.884 643.79C238.221 644.661 238.39 645.732 238.39 647.004V647.892H227.878V646.081H236.259C236.259 645.312 236.105 644.625 235.797 644.021C235.495 643.418 235.063 642.941 234.501 642.592C233.945 642.243 233.288 642.068 232.53 642.068C231.696 642.068 230.974 642.275 230.364 642.69C229.76 643.098 229.296 643.631 228.97 644.288C228.645 644.945 228.482 645.649 228.482 646.401V647.608C228.482 648.638 228.66 649.511 229.015 650.227C229.376 650.937 229.876 651.479 230.515 651.852C231.154 652.219 231.897 652.402 232.743 652.402C233.294 652.402 233.791 652.325 234.235 652.171C234.685 652.011 235.072 651.775 235.398 651.461C235.723 651.141 235.975 650.745 236.152 650.271L238.177 650.839C237.964 651.526 237.605 652.13 237.102 652.651C236.599 653.165 235.978 653.568 235.238 653.858C234.498 654.142 233.667 654.284 232.743 654.284Z" fill="black"/>
<circle cx="288.511" cy="242.511" r="9.01136" fill="#FFE587" stroke="black"/>
<circle cx="288.511" cy="169.511" r="9.01136" fill="#FFE587" stroke="black"/>
<circle cx="520.511" cy="497.511" r="9.01136" fill="#FFE587" stroke="black"/>
<path d="M280.145 469.364C280.038 468.464 279.606 467.766 278.849 467.268C278.091 466.771 277.162 466.523 276.061 466.523C275.256 466.523 274.552 466.653 273.948 466.913C273.35 467.174 272.883 467.532 272.545 467.988C272.214 468.443 272.048 468.961 272.048 469.541C272.048 470.027 272.164 470.444 272.395 470.793C272.631 471.136 272.933 471.423 273.3 471.654C273.667 471.879 274.052 472.065 274.454 472.213C274.857 472.355 275.227 472.471 275.564 472.56L277.411 473.057C277.884 473.181 278.411 473.353 278.991 473.572C279.577 473.791 280.136 474.09 280.669 474.468C281.207 474.841 281.651 475.321 282 475.907C282.35 476.493 282.524 477.212 282.524 478.064C282.524 479.046 282.267 479.934 281.752 480.727C281.243 481.52 280.497 482.151 279.515 482.618C278.538 483.086 277.351 483.32 275.955 483.32C274.652 483.32 273.525 483.109 272.572 482.689C271.625 482.269 270.879 481.683 270.335 480.931C269.796 480.18 269.491 479.307 269.42 478.312H271.693C271.752 478.999 271.983 479.567 272.386 480.017C272.794 480.461 273.309 480.792 273.93 481.011C274.558 481.224 275.232 481.331 275.955 481.331C276.795 481.331 277.55 481.195 278.218 480.923C278.887 480.644 279.417 480.26 279.808 479.768C280.198 479.271 280.393 478.691 280.393 478.028C280.393 477.425 280.225 476.933 279.887 476.555C279.55 476.176 279.106 475.868 278.556 475.631C278.005 475.395 277.411 475.187 276.771 475.01L274.534 474.371C273.114 473.962 271.989 473.379 271.161 472.622C270.332 471.864 269.918 470.873 269.918 469.648C269.918 468.63 270.193 467.742 270.743 466.984C271.3 466.221 272.045 465.629 272.98 465.209C273.922 464.783 274.972 464.57 276.132 464.57C277.304 464.57 278.346 464.78 279.257 465.2C280.169 465.614 280.891 466.182 281.423 466.904C281.962 467.627 282.246 468.446 282.276 469.364H280.145ZM289.873 483.32C289.009 483.32 288.224 483.157 287.52 482.831C286.816 482.5 286.257 482.023 285.842 481.402C285.428 480.775 285.221 480.017 285.221 479.129C285.221 478.348 285.375 477.715 285.682 477.229C285.99 476.738 286.402 476.353 286.916 476.075C287.431 475.797 288 475.59 288.621 475.454C289.248 475.312 289.879 475.199 290.512 475.116C291.341 475.01 292.012 474.93 292.527 474.877C293.048 474.818 293.427 474.72 293.664 474.584C293.906 474.448 294.028 474.211 294.028 473.874V473.803C294.028 472.927 293.788 472.246 293.309 471.761C292.835 471.275 292.116 471.033 291.151 471.033C290.151 471.033 289.367 471.252 288.799 471.69C288.23 472.128 287.831 472.595 287.6 473.092L285.611 472.382C285.967 471.554 286.44 470.908 287.032 470.447C287.63 469.979 288.281 469.654 288.985 469.47C289.695 469.281 290.394 469.186 291.08 469.186C291.518 469.186 292.021 469.239 292.589 469.346C293.164 469.446 293.717 469.657 294.25 469.976C294.788 470.296 295.235 470.778 295.59 471.423C295.945 472.068 296.123 472.933 296.123 474.016V483H294.028V481.153H293.921C293.779 481.449 293.542 481.766 293.211 482.103C292.879 482.441 292.438 482.728 291.888 482.964C291.338 483.201 290.666 483.32 289.873 483.32ZM290.192 481.438C291.021 481.438 291.719 481.275 292.288 480.949C292.862 480.624 293.294 480.203 293.584 479.689C293.88 479.174 294.028 478.632 294.028 478.064V476.146C293.939 476.253 293.744 476.35 293.442 476.439C293.146 476.522 292.802 476.596 292.412 476.661C292.027 476.72 291.651 476.774 291.284 476.821C290.923 476.862 290.63 476.898 290.405 476.928C289.861 476.999 289.352 477.114 288.878 477.274C288.411 477.428 288.032 477.661 287.742 477.975C287.458 478.283 287.316 478.703 287.316 479.236C287.316 479.964 287.585 480.514 288.124 480.887C288.668 481.254 289.358 481.438 290.192 481.438ZM302.042 464.818V483H299.947V464.818H302.042ZM305.88 483V469.364H307.975V483H305.88ZM306.945 467.091C306.536 467.091 306.184 466.952 305.888 466.674C305.598 466.395 305.453 466.061 305.453 465.67C305.453 465.28 305.598 464.945 305.888 464.667C306.184 464.389 306.536 464.25 306.945 464.25C307.353 464.25 307.702 464.389 307.992 464.667C308.288 464.945 308.436 465.28 308.436 465.67C308.436 466.061 308.288 466.395 307.992 466.674C307.702 466.952 307.353 467.091 306.945 467.091ZM313.907 474.797V483H311.812V469.364H313.836V471.494H314.014C314.333 470.802 314.819 470.246 315.47 469.825C316.121 469.399 316.961 469.186 317.991 469.186C318.914 469.186 319.722 469.375 320.415 469.754C321.107 470.127 321.646 470.695 322.031 471.459C322.415 472.216 322.608 473.175 322.608 474.335V483H320.512V474.477C320.512 473.406 320.234 472.571 319.678 471.974C319.122 471.37 318.358 471.068 317.387 471.068C316.719 471.068 316.121 471.213 315.594 471.503C315.073 471.793 314.662 472.216 314.36 472.773C314.058 473.329 313.907 474.004 313.907 474.797ZM330.449 483.32C329.585 483.32 328.801 483.157 328.096 482.831C327.392 482.5 326.833 482.023 326.418 481.402C326.004 480.775 325.797 480.017 325.797 479.129C325.797 478.348 325.951 477.715 326.259 477.229C326.566 476.738 326.978 476.353 327.493 476.075C328.008 475.797 328.576 475.59 329.197 475.454C329.825 475.312 330.455 475.199 331.088 475.116C331.917 475.01 332.589 474.93 333.103 474.877C333.624 474.818 334.003 474.72 334.24 474.584C334.482 474.448 334.604 474.211 334.604 473.874V473.803C334.604 472.927 334.364 472.246 333.885 471.761C333.411 471.275 332.692 471.033 331.727 471.033C330.727 471.033 329.943 471.252 329.375 471.69C328.807 472.128 328.407 472.595 328.176 473.092L326.188 472.382C326.543 471.554 327.016 470.908 327.608 470.447C328.206 469.979 328.857 469.654 329.561 469.47C330.271 469.281 330.97 469.186 331.656 469.186C332.094 469.186 332.597 469.239 333.166 469.346C333.74 469.446 334.293 469.657 334.826 469.976C335.364 470.296 335.811 470.778 336.166 471.423C336.521 472.068 336.699 472.933 336.699 474.016V483H334.604V481.153H334.497C334.355 481.449 334.118 481.766 333.787 482.103C333.456 482.441 333.015 482.728 332.464 482.964C331.914 483.201 331.242 483.32 330.449 483.32ZM330.769 481.438C331.597 481.438 332.296 481.275 332.864 480.949C333.438 480.624 333.87 480.203 334.16 479.689C334.456 479.174 334.604 478.632 334.604 478.064V476.146C334.515 476.253 334.32 476.35 334.018 476.439C333.722 476.522 333.379 476.596 332.988 476.661C332.603 476.72 332.227 476.774 331.861 476.821C331.499 476.862 331.207 476.898 330.982 476.928C330.437 476.999 329.928 477.114 329.455 477.274C328.987 477.428 328.608 477.661 328.318 477.975C328.034 478.283 327.892 478.703 327.892 479.236C327.892 479.964 328.161 480.514 328.7 480.887C329.245 481.254 329.934 481.438 330.769 481.438Z" fill="black"/>
<circle cx="301.511" cy="449.511" r="9.01136" fill="#FFE587" stroke="black"/>
<circle cx="320.511" cy="291.511" r="9.01136" fill="#FFE587" stroke="black"/>
<circle cx="141.511" cy="671.511" r="9.01136" fill="#FFE587" stroke="black"/>
<defs>
<filter id="filter0_d_223_176" x="91.9995" y="69.999" width="481.501" height="622.501" filterUnits="userSpaceOnUse" color-interpolation-filters="sRGB">
<feFlood flood-opacity="0" result="BackgroundImageFix"/>
<feColorMatrix in="SourceAlpha" type="matrix" values="0 0 0 0 0 0 0 0 0 0 0 0 0 0 0 0 0 0 127 0" result="hardAlpha"/>
<feOffset dy="4"/>
<feGaussianBlur stdDeviation="2"/>
<feComposite in2="hardAlpha" operator="out"/>
<feColorMatrix type="matrix" values="0 0 0 0 0 0 0 0 0 0 0 0 0 0 0 0 0 0 0.25 0"/>
<feBlend mode="normal" in2="BackgroundImageFix" result="effect1_dropShadow_223_176"/>
<feBlend mode="normal" in="SourceGraphic" in2="effect1_dropShadow_223_176" result="shape"/>
</filter>
</defs>
</svg>
