<svg width="611" height="869" viewBox="0 0 611 869" fill="none" xmlns="http://www.w3.org/2000/svg">
<rect x="0.5" y="0.5" width="610" height="868" rx="35.5" fill="#97DCFF" stroke="#717171"/>
<path d="M63.0653 339.545V357H60.2528L52.0284 345.111H51.8835V357H48.7216V339.545H51.5511L59.767 351.443H59.9205V339.545H63.0653ZM65.3175 339.545H68.8885L73.1584 347.267H73.3288L77.5987 339.545H81.1697L74.8203 350.489V357H71.6669V350.489L65.3175 339.545Z" fill="#005A5E"/>
<path d="M389.065 524.545V542H386.253L378.028 530.111H377.884V542H374.722V524.545H377.551L385.767 536.443H385.92V524.545H389.065ZM392.511 542V524.545H395.673V531.935H403.761V524.545H406.931V542H403.761V534.585H395.673V542H392.511Z" fill="#005A5E"/>
<path d="M321.662 33.4347H318.474C318.384 32.9119 318.216 32.4489 317.972 32.0455C317.727 31.6364 317.423 31.2898 317.06 31.0057C316.696 30.7216 316.281 30.5085 315.815 30.3665C315.355 30.2188 314.858 30.1449 314.324 30.1449C313.375 30.1449 312.534 30.3835 311.801 30.8608C311.068 31.3324 310.494 32.0256 310.08 32.9403C309.665 33.8494 309.457 34.9602 309.457 36.2727C309.457 37.608 309.665 38.733 310.08 39.6477C310.5 40.5568 311.074 41.2443 311.801 41.7102C312.534 42.1705 313.372 42.4006 314.315 42.4006C314.838 42.4006 315.327 42.3324 315.781 42.196C316.241 42.054 316.653 41.8466 317.017 41.5739C317.386 41.3011 317.696 40.9659 317.946 40.5682C318.202 40.1705 318.378 39.7159 318.474 39.2045L321.662 39.2216C321.543 40.0511 321.284 40.8295 320.886 41.5568C320.494 42.2841 319.98 42.9261 319.344 43.483C318.707 44.0341 317.963 44.4659 317.111 44.7784C316.259 45.0852 315.313 45.2386 314.273 45.2386C312.739 45.2386 311.369 44.8835 310.165 44.1733C308.96 43.4631 308.011 42.4375 307.318 41.0966C306.625 39.7557 306.278 38.1477 306.278 36.2727C306.278 34.392 306.628 32.7841 307.327 31.4489C308.026 30.108 308.977 29.0824 310.182 28.3722C311.386 27.6619 312.75 27.3068 314.273 27.3068C315.244 27.3068 316.148 27.4432 316.983 27.7159C317.818 27.9886 318.563 28.3892 319.216 28.9176C319.869 29.4403 320.406 30.0824 320.827 30.8438C321.253 31.5994 321.531 32.4631 321.662 33.4347ZM328.188 45.2642C327.359 45.2642 326.612 45.1165 325.947 44.821C325.288 44.5199 324.765 44.0767 324.379 43.4915C323.998 42.9062 323.808 42.1847 323.808 41.3267C323.808 40.5881 323.944 39.9773 324.217 39.4943C324.489 39.0114 324.862 38.625 325.333 38.3352C325.805 38.0455 326.336 37.8267 326.927 37.679C327.523 37.5256 328.14 37.4148 328.776 37.3466C329.543 37.267 330.165 37.196 330.643 37.1335C331.12 37.0653 331.467 36.9631 331.683 36.8267C331.904 36.6847 332.015 36.4659 332.015 36.1705V36.1193C332.015 35.4773 331.825 34.9801 331.444 34.6278C331.063 34.2756 330.515 34.0994 329.799 34.0994C329.043 34.0994 328.444 34.2642 328.001 34.5938C327.563 34.9233 327.268 35.3125 327.114 35.7614L324.234 35.3523C324.461 34.5568 324.836 33.892 325.359 33.358C325.881 32.8182 326.521 32.4148 327.276 32.1477C328.032 31.875 328.867 31.7386 329.782 31.7386C330.413 31.7386 331.04 31.8125 331.665 31.9602C332.29 32.108 332.862 32.3523 333.379 32.6932C333.896 33.0284 334.31 33.4858 334.623 34.0653C334.941 34.6449 335.1 35.3693 335.1 36.2386V45H332.134V43.2017H332.032C331.844 43.5653 331.58 43.9062 331.239 44.2244C330.904 44.5369 330.481 44.7898 329.969 44.983C329.464 45.1705 328.87 45.2642 328.188 45.2642ZM328.989 42.9972C329.609 42.9972 330.146 42.875 330.6 42.6307C331.055 42.3807 331.404 42.0511 331.648 41.642C331.898 41.233 332.023 40.7869 332.023 40.304V38.7614C331.927 38.8409 331.762 38.9148 331.529 38.983C331.302 39.0511 331.046 39.1108 330.762 39.1619C330.478 39.2131 330.197 39.2585 329.918 39.2983C329.64 39.3381 329.398 39.3722 329.194 39.4006C328.734 39.4631 328.322 39.5653 327.958 39.7074C327.594 39.8494 327.308 40.0483 327.097 40.304C326.887 40.554 326.782 40.8778 326.782 41.2756C326.782 41.8438 326.989 42.2727 327.404 42.5625C327.819 42.8523 328.347 42.9972 328.989 42.9972ZM341.288 37.3295V45H338.202V31.9091H341.151V34.1335H341.305C341.606 33.4006 342.086 32.8182 342.745 32.3864C343.41 31.9545 344.231 31.7386 345.208 31.7386C346.112 31.7386 346.898 31.9318 347.569 32.3182C348.245 32.7045 348.768 33.2642 349.137 33.9972C349.512 34.7301 349.697 35.6193 349.691 36.6648V45H346.606V37.142C346.606 36.267 346.379 35.5824 345.924 35.0881C345.475 34.5937 344.853 34.3466 344.058 34.3466C343.518 34.3466 343.038 34.4659 342.617 34.7045C342.202 34.9375 341.876 35.2756 341.637 35.7188C341.404 36.1619 341.288 36.6989 341.288 37.3295ZM356.594 45.2642C355.765 45.2642 355.018 45.1165 354.353 44.821C353.694 44.5199 353.171 44.0767 352.785 43.4915C352.404 42.9062 352.214 42.1847 352.214 41.3267C352.214 40.5881 352.35 39.9773 352.623 39.4943C352.896 39.0114 353.268 38.625 353.739 38.3352C354.211 38.0455 354.742 37.8267 355.333 37.679C355.93 37.5256 356.546 37.4148 357.183 37.3466C357.95 37.267 358.572 37.196 359.049 37.1335C359.526 37.0653 359.873 36.9631 360.089 36.8267C360.31 36.6847 360.421 36.4659 360.421 36.1705V36.1193C360.421 35.4773 360.231 34.9801 359.85 34.6278C359.469 34.2756 358.921 34.0994 358.205 34.0994C357.45 34.0994 356.85 34.2642 356.407 34.5938C355.969 34.9233 355.674 35.3125 355.521 35.7614L352.64 35.3523C352.867 34.5568 353.242 33.892 353.765 33.358C354.288 32.8182 354.927 32.4148 355.683 32.1477C356.438 31.875 357.273 31.7386 358.188 31.7386C358.819 31.7386 359.447 31.8125 360.072 31.9602C360.697 32.108 361.268 32.3523 361.785 32.6932C362.302 33.0284 362.717 33.4858 363.029 34.0653C363.347 34.6449 363.506 35.3693 363.506 36.2386V45H360.54V43.2017H360.438C360.251 43.5653 359.987 43.9062 359.646 44.2244C359.31 44.5369 358.887 44.7898 358.376 44.983C357.87 45.1705 357.276 45.2642 356.594 45.2642ZM357.396 42.9972C358.015 42.9972 358.552 42.875 359.006 42.6307C359.461 42.3807 359.81 42.0511 360.055 41.642C360.305 41.233 360.43 40.7869 360.43 40.304V38.7614C360.333 38.8409 360.168 38.9148 359.935 38.983C359.708 39.0511 359.452 39.1108 359.168 39.1619C358.884 39.2131 358.603 39.2585 358.325 39.2983C358.046 39.3381 357.805 39.3722 357.6 39.4006C357.14 39.4631 356.728 39.5653 356.364 39.7074C356.001 39.8494 355.714 40.0483 355.504 40.304C355.293 40.554 355.188 40.8778 355.188 41.2756C355.188 41.8438 355.396 42.2727 355.81 42.5625C356.225 42.8523 356.754 42.9972 357.396 42.9972ZM371.467 45.2301C370.438 45.2301 369.518 44.9659 368.705 44.4375C367.893 43.9091 367.251 43.142 366.779 42.1364C366.308 41.1307 366.072 39.9091 366.072 38.4716C366.072 37.017 366.31 35.7898 366.788 34.7898C367.271 33.7841 367.921 33.0256 368.739 32.5142C369.558 31.9972 370.469 31.7386 371.475 31.7386C372.242 31.7386 372.873 31.8693 373.367 32.1307C373.862 32.3864 374.254 32.696 374.543 33.0597C374.833 33.4176 375.058 33.7557 375.217 34.0739H375.344V27.5455H378.438V45H375.404V42.9375H375.217C375.058 43.2557 374.827 43.5937 374.526 43.9517C374.225 44.304 373.827 44.6051 373.333 44.8551C372.839 45.1051 372.217 45.2301 371.467 45.2301ZM372.327 42.6989C372.981 42.6989 373.538 42.5227 373.998 42.1705C374.458 41.8125 374.808 41.3153 375.046 40.679C375.285 40.0426 375.404 39.3011 375.404 38.4545C375.404 37.608 375.285 36.8722 375.046 36.2472C374.813 35.6222 374.467 35.1364 374.006 34.7898C373.552 34.4432 372.992 34.2699 372.327 34.2699C371.64 34.2699 371.066 34.4489 370.606 34.8068C370.146 35.1648 369.799 35.6591 369.566 36.2898C369.333 36.9205 369.217 37.642 369.217 38.4545C369.217 39.2727 369.333 40.0028 369.566 40.6449C369.805 41.2812 370.154 41.7841 370.614 42.1534C371.08 42.517 371.651 42.6989 372.327 42.6989ZM385.493 45.2642C384.663 45.2642 383.916 45.1165 383.251 44.821C382.592 44.5199 382.07 44.0767 381.683 43.4915C381.303 42.9062 381.112 42.1847 381.112 41.3267C381.112 40.5881 381.249 39.9773 381.521 39.4943C381.794 39.0114 382.166 38.625 382.638 38.3352C383.109 38.0455 383.641 37.8267 384.232 37.679C384.828 37.5256 385.445 37.4148 386.081 37.3466C386.848 37.267 387.47 37.196 387.947 37.1335C388.425 37.0653 388.771 36.9631 388.987 36.8267C389.209 36.6847 389.32 36.4659 389.32 36.1705V36.1193C389.32 35.4773 389.129 34.9801 388.749 34.6278C388.368 34.2756 387.82 34.0994 387.104 34.0994C386.348 34.0994 385.749 34.2642 385.305 34.5938C384.868 34.9233 384.572 35.3125 384.419 35.7614L381.538 35.3523C381.766 34.5568 382.141 33.892 382.663 33.358C383.186 32.8182 383.825 32.4148 384.581 32.1477C385.337 31.875 386.172 31.7386 387.087 31.7386C387.717 31.7386 388.345 31.8125 388.97 31.9602C389.595 32.108 390.166 32.3523 390.683 32.6932C391.2 33.0284 391.615 33.4858 391.928 34.0653C392.246 34.6449 392.405 35.3693 392.405 36.2386V45H389.439V43.2017H389.337C389.149 43.5653 388.885 43.9062 388.544 44.2244C388.209 44.5369 387.786 44.7898 387.274 44.983C386.768 45.1705 386.175 45.2642 385.493 45.2642ZM386.294 42.9972C386.913 42.9972 387.45 42.875 387.905 42.6307C388.359 42.3807 388.709 42.0511 388.953 41.642C389.203 41.233 389.328 40.7869 389.328 40.304V38.7614C389.232 38.8409 389.067 38.9148 388.834 38.983C388.607 39.0511 388.351 39.1108 388.067 39.1619C387.783 39.2131 387.501 39.2585 387.223 39.2983C386.945 39.3381 386.703 39.3722 386.499 39.4006C386.038 39.4631 385.626 39.5653 385.263 39.7074C384.899 39.8494 384.612 40.0483 384.402 40.304C384.192 40.554 384.087 40.8778 384.087 41.2756C384.087 41.8438 384.294 42.2727 384.709 42.5625C385.124 42.8523 385.652 42.9972 386.294 42.9972Z" fill="#00943D"/>
<g filter="url(#filter0_d_52_56)">
<path d="M227.5 799L319 802.5L313.5 788L307.5 784.5L299.5 770.5L297.5 757L304 744.5L302.5 731L317.5 724L322.5 713.5L319 707L317.5 699L325.5 689V675L321.5 671V654.5L324.5 652.5V636L329.5 629L333.5 618.5L335 602.5L329.5 600V595L332 592L334 572.5L337 559.5L334 550L338.5 542L337 533L349 524.5V512.5H353.5L358.5 489.5L362.5 482.5L372 478L378.5 469L383 456V442.5L388.5 431.5L397.5 422.5L401.5 408V398L417.5 368L414 358.5L417.5 355V345.5L411 335L414 320L411 305.5L422.5 292.5L432 287L442.155 285.594L457 287L469 281V271L478.5 264.5H492L502.5 255.5L510.5 240L519.5 238L524.5 232.5L521 227.5L526 222.5L521 217.5V213.5H528.5L533 206L527.5 201L531.5 190.5L513.5 159V153L530.5 132.5V116.5L542.5 103L539 96L538.5 81L533.5 77L536 70.5L541 69.5L546 70.5L550 66L332.5 68.5L247 65H174.5L169.5 79L161 82.5L156 74.5L145.488 79L142.5 90L145.488 95.5L153 92.5L156 95.5L150 128V142L156 133.5L161.5 135.5L150 152.5L145.488 170.5V189L140 194V207.5H153L150 218L140 213.5L128 218L131 231L142.5 240.5V249V265L134.5 261L131 269V281.5L124.5 298L131 308.5V316.5L122 320L110.5 334L108 352.5L105 358.5V366L98.5 370V383.5L102.5 392L98.5 410.5L102.5 424.5L108 437.5L105 452L110.5 463L114.5 472L108 480.5L105 488.5L98.5 503.5L95 511.5V529.5L102.5 534.457L110.5 518L122 515.5L124.5 529.5L137 540L129 772.5L126 782.5L129 795.5L227.5 799Z" fill="#FFD597" stroke="black"/>
<path d="M167.202 555V536.818H173.345C174.766 536.818 175.932 537.061 176.843 537.546C177.754 538.026 178.429 538.685 178.867 539.526C179.305 540.366 179.524 541.322 179.524 542.393C179.524 543.465 179.305 544.415 178.867 545.243C178.429 546.072 177.757 546.723 176.852 547.196C175.946 547.664 174.789 547.898 173.381 547.898H168.409V545.909H173.31C174.28 545.909 175.062 545.767 175.653 545.483C176.251 545.199 176.683 544.796 176.95 544.276C177.222 543.749 177.358 543.121 177.358 542.393C177.358 541.665 177.222 541.029 176.95 540.485C176.677 539.94 176.242 539.52 175.645 539.224C175.047 538.922 174.257 538.771 173.274 538.771H169.403V555H167.202ZM175.76 546.832L180.234 555H177.678L173.274 546.832H175.76ZM191.503 549.425V541.364H193.598V555H191.503V552.692H191.361C191.041 553.384 190.544 553.973 189.869 554.458C189.194 554.938 188.342 555.178 187.312 555.178C186.46 555.178 185.702 554.991 185.04 554.618C184.377 554.239 183.856 553.671 183.477 552.914C183.098 552.15 182.909 551.188 182.909 550.028V541.364H185.004V549.886C185.004 550.881 185.282 551.674 185.839 552.266C186.401 552.857 187.117 553.153 187.987 553.153C188.508 553.153 189.037 553.02 189.576 552.754C190.121 552.488 190.576 552.079 190.943 551.529C191.316 550.978 191.503 550.277 191.503 549.425ZM203.366 541.364V543.139H196.299V541.364H203.366ZM198.358 538.097H200.454V551.094C200.454 551.686 200.539 552.129 200.711 552.425C200.889 552.715 201.114 552.911 201.386 553.011C201.664 553.106 201.957 553.153 202.265 553.153C202.496 553.153 202.685 553.142 202.833 553.118C202.981 553.088 203.099 553.065 203.188 553.047L203.614 554.929C203.472 554.982 203.274 555.036 203.019 555.089C202.765 555.148 202.442 555.178 202.052 555.178C201.46 555.178 200.88 555.05 200.312 554.796C199.749 554.541 199.282 554.154 198.909 553.633C198.542 553.112 198.358 552.455 198.358 551.662V538.097ZM208.905 536.818V555H206.81V536.818H208.905ZM216.756 555.32C215.891 555.32 215.107 555.157 214.403 554.831C213.699 554.5 213.139 554.023 212.725 553.402C212.311 552.775 212.104 552.017 212.104 551.129C212.104 550.348 212.257 549.715 212.565 549.229C212.873 548.738 213.284 548.353 213.799 548.075C214.314 547.797 214.882 547.59 215.504 547.454C216.131 547.312 216.762 547.199 217.395 547.116C218.223 547.01 218.895 546.93 219.41 546.877C219.931 546.818 220.31 546.72 220.546 546.584C220.789 546.448 220.91 546.211 220.91 545.874V545.803C220.91 544.927 220.671 544.246 220.191 543.761C219.718 543.275 218.999 543.033 218.034 543.033C217.034 543.033 216.25 543.252 215.681 543.69C215.113 544.128 214.714 544.595 214.483 545.092L212.494 544.382C212.849 543.554 213.323 542.908 213.915 542.447C214.512 541.979 215.164 541.654 215.868 541.47C216.578 541.281 217.276 541.186 217.963 541.186C218.401 541.186 218.904 541.239 219.472 541.346C220.046 541.446 220.6 541.657 221.132 541.976C221.671 542.296 222.118 542.778 222.473 543.423C222.828 544.068 223.006 544.933 223.006 546.016V555H220.91V553.153H220.804C220.662 553.449 220.425 553.766 220.094 554.103C219.762 554.441 219.321 554.728 218.771 554.964C218.22 555.201 217.549 555.32 216.756 555.32ZM217.075 553.438C217.904 553.438 218.602 553.275 219.17 552.949C219.744 552.624 220.177 552.203 220.467 551.689C220.762 551.174 220.91 550.632 220.91 550.064V548.146C220.822 548.253 220.626 548.35 220.324 548.439C220.029 548.522 219.685 548.596 219.295 548.661C218.91 548.72 218.534 548.774 218.167 548.821C217.806 548.862 217.513 548.898 217.288 548.928C216.744 548.999 216.235 549.114 215.761 549.274C215.294 549.428 214.915 549.661 214.625 549.975C214.341 550.283 214.199 550.703 214.199 551.236C214.199 551.964 214.468 552.514 215.007 552.887C215.551 553.254 216.241 553.438 217.075 553.438ZM228.925 546.797V555H226.83V541.364H228.854V543.494H229.031C229.351 542.802 229.836 542.246 230.487 541.825C231.138 541.399 231.979 541.186 233.009 541.186C233.932 541.186 234.74 541.375 235.432 541.754C236.125 542.127 236.663 542.695 237.048 543.459C237.433 544.216 237.625 545.175 237.625 546.335V555H235.53V546.477C235.53 545.406 235.252 544.571 234.695 543.974C234.139 543.37 233.376 543.068 232.405 543.068C231.736 543.068 231.138 543.213 230.612 543.503C230.091 543.793 229.68 544.216 229.378 544.773C229.076 545.329 228.925 546.004 228.925 546.797ZM246.603 555.284C245.467 555.284 244.463 554.997 243.593 554.423C242.723 553.843 242.043 553.026 241.551 551.973C241.06 550.913 240.815 549.661 240.815 548.217C240.815 546.785 241.06 545.542 241.551 544.489C242.043 543.435 242.726 542.621 243.602 542.047C244.478 541.473 245.49 541.186 246.638 541.186C247.526 541.186 248.228 541.334 248.742 541.63C249.263 541.92 249.66 542.251 249.932 542.624C250.21 542.991 250.426 543.293 250.58 543.53H250.758V536.818H252.853V555H250.829V552.905H250.58C250.426 553.153 250.207 553.467 249.923 553.846C249.639 554.219 249.234 554.553 248.707 554.849C248.18 555.139 247.479 555.284 246.603 555.284ZM246.887 553.402C247.727 553.402 248.438 553.183 249.018 552.745C249.598 552.301 250.039 551.689 250.34 550.907C250.642 550.12 250.793 549.212 250.793 548.182C250.793 547.164 250.645 546.273 250.349 545.51C250.053 544.74 249.615 544.142 249.035 543.716C248.455 543.284 247.739 543.068 246.887 543.068C245.999 543.068 245.259 543.296 244.668 543.752C244.082 544.202 243.641 544.814 243.345 545.589C243.055 546.359 242.91 547.223 242.91 548.182C242.91 549.152 243.058 550.034 243.354 550.827C243.655 551.615 244.099 552.242 244.685 552.71C245.277 553.171 246.011 553.402 246.887 553.402Z" fill="black"/>
<circle cx="146.511" cy="754.511" r="9.01136" fill="#FFE587" stroke="black"/>
<path d="M343.619 103.818V122H341.489L331.581 107.724H331.403V122H329.202V103.818H331.332L341.276 118.129H341.453V103.818H343.619ZM353.458 122.284C352.144 122.284 351.011 121.994 350.058 121.414C349.111 120.828 348.38 120.011 347.865 118.964C347.356 117.91 347.102 116.685 347.102 115.288C347.102 113.892 347.356 112.661 347.865 111.595C348.38 110.524 349.096 109.689 350.014 109.092C350.937 108.488 352.014 108.186 353.245 108.186C353.955 108.186 354.657 108.304 355.349 108.541C356.042 108.778 356.672 109.163 357.24 109.695C357.808 110.222 358.261 110.92 358.598 111.79C358.936 112.661 359.104 113.732 359.104 115.004V115.892H348.593V114.081H356.974C356.974 113.312 356.82 112.625 356.512 112.021C356.21 111.418 355.778 110.941 355.216 110.592C354.66 110.243 354.003 110.068 353.245 110.068C352.411 110.068 351.689 110.275 351.079 110.69C350.475 111.098 350.011 111.631 349.685 112.288C349.36 112.945 349.197 113.649 349.197 114.401V115.608C349.197 116.638 349.374 117.511 349.729 118.227C350.091 118.937 350.591 119.479 351.23 119.852C351.869 120.219 352.612 120.402 353.458 120.402C354.009 120.402 354.506 120.325 354.95 120.171C355.399 120.011 355.787 119.775 356.113 119.461C356.438 119.141 356.69 118.745 356.867 118.271L358.891 118.839C358.678 119.526 358.32 120.13 357.817 120.651C357.314 121.165 356.693 121.568 355.953 121.858C355.213 122.142 354.381 122.284 353.458 122.284ZM365.381 122L361.226 108.364H363.428L366.375 118.804H366.517L369.429 108.364H371.667L374.543 118.768H374.685L377.633 108.364H379.834L375.679 122H373.62L370.637 111.524H370.424L367.441 122H365.381ZM382.604 127.114V108.364H384.628V110.53H384.877C385.031 110.293 385.244 109.991 385.516 109.624C385.794 109.251 386.191 108.92 386.706 108.63C387.227 108.334 387.931 108.186 388.819 108.186C389.967 108.186 390.979 108.473 391.855 109.047C392.731 109.621 393.414 110.435 393.906 111.489C394.397 112.542 394.642 113.785 394.642 115.217C394.642 116.661 394.397 117.913 393.906 118.973C393.414 120.026 392.734 120.843 391.864 121.423C390.994 121.997 389.991 122.284 388.854 122.284C387.978 122.284 387.277 122.139 386.75 121.849C386.223 121.553 385.818 121.219 385.534 120.846C385.25 120.467 385.031 120.153 384.877 119.905H384.699V127.114H382.604ZM384.664 115.182C384.664 116.212 384.815 117.12 385.117 117.907C385.418 118.689 385.859 119.301 386.439 119.745C387.019 120.183 387.73 120.402 388.57 120.402C389.446 120.402 390.177 120.171 390.763 119.71C391.355 119.242 391.799 118.615 392.095 117.827C392.396 117.034 392.547 116.152 392.547 115.182C392.547 114.223 392.399 113.359 392.103 112.589C391.813 111.814 391.372 111.202 390.781 110.752C390.195 110.296 389.458 110.068 388.57 110.068C387.718 110.068 387.002 110.284 386.422 110.716C385.842 111.142 385.404 111.74 385.108 112.51C384.812 113.273 384.664 114.164 384.664 115.182ZM403.378 122.284C402.147 122.284 401.067 121.991 400.138 121.405C399.215 120.819 398.493 120 397.972 118.946C397.457 117.893 397.199 116.661 397.199 115.253C397.199 113.832 397.457 112.592 397.972 111.533C398.493 110.474 399.215 109.651 400.138 109.065C401.067 108.479 402.147 108.186 403.378 108.186C404.609 108.186 405.687 108.479 406.61 109.065C407.539 109.651 408.261 110.474 408.776 111.533C409.297 112.592 409.557 113.832 409.557 115.253C409.557 116.661 409.297 117.893 408.776 118.946C408.261 120 407.539 120.819 406.61 121.405C405.687 121.991 404.609 122.284 403.378 122.284ZM403.378 120.402C404.313 120.402 405.083 120.162 405.687 119.683C406.29 119.203 406.737 118.573 407.027 117.792C407.317 117.011 407.462 116.164 407.462 115.253C407.462 114.341 407.317 113.492 407.027 112.705C406.737 111.918 406.29 111.281 405.687 110.796C405.083 110.311 404.313 110.068 403.378 110.068C402.443 110.068 401.674 110.311 401.07 110.796C400.466 111.281 400.02 111.918 399.729 112.705C399.439 113.492 399.294 114.341 399.294 115.253C399.294 116.164 399.439 117.011 399.729 117.792C400.02 118.573 400.466 119.203 401.07 119.683C401.674 120.162 402.443 120.402 403.378 120.402ZM412.756 122V108.364H414.78V110.423H414.922C415.17 109.749 415.62 109.201 416.271 108.781C416.922 108.361 417.656 108.151 418.473 108.151C418.627 108.151 418.819 108.154 419.05 108.159C419.281 108.165 419.455 108.174 419.574 108.186V110.317C419.503 110.299 419.34 110.272 419.085 110.237C418.837 110.195 418.573 110.175 418.295 110.175C417.632 110.175 417.041 110.314 416.52 110.592C416.005 110.864 415.596 111.243 415.295 111.728C414.999 112.208 414.851 112.755 414.851 113.371V122H412.756ZM428.842 108.364V110.139H421.775V108.364H428.842ZM423.835 105.097H425.93V118.094C425.93 118.686 426.016 119.129 426.188 119.425C426.365 119.715 426.59 119.911 426.862 120.011C427.141 120.106 427.434 120.153 427.741 120.153C427.972 120.153 428.162 120.142 428.309 120.118C428.457 120.088 428.576 120.065 428.665 120.047L429.091 121.929C428.949 121.982 428.75 122.036 428.496 122.089C428.241 122.148 427.919 122.178 427.528 122.178C426.936 122.178 426.356 122.05 425.788 121.796C425.226 121.541 424.758 121.154 424.385 120.633C424.019 120.112 423.835 119.455 423.835 118.662V105.097Z" fill="black"/>
<path d="M357.145 220.364C357.038 219.464 356.606 218.766 355.849 218.268C355.091 217.771 354.162 217.523 353.061 217.523C352.256 217.523 351.552 217.653 350.948 217.913C350.35 218.174 349.883 218.532 349.545 218.988C349.214 219.443 349.048 219.961 349.048 220.541C349.048 221.027 349.164 221.444 349.395 221.793C349.631 222.136 349.933 222.423 350.3 222.654C350.667 222.879 351.052 223.065 351.454 223.213C351.857 223.355 352.227 223.471 352.564 223.56L354.411 224.057C354.884 224.181 355.411 224.353 355.991 224.572C356.577 224.791 357.136 225.09 357.669 225.468C358.207 225.841 358.651 226.321 359 226.907C359.35 227.493 359.524 228.212 359.524 229.064C359.524 230.046 359.267 230.934 358.752 231.727C358.243 232.52 357.497 233.151 356.515 233.618C355.538 234.086 354.351 234.32 352.955 234.32C351.652 234.32 350.525 234.109 349.572 233.689C348.625 233.269 347.879 232.683 347.335 231.931C346.796 231.18 346.491 230.307 346.42 229.312H348.693C348.752 229.999 348.983 230.567 349.386 231.017C349.794 231.461 350.309 231.792 350.93 232.011C351.558 232.224 352.232 232.331 352.955 232.331C353.795 232.331 354.55 232.195 355.218 231.923C355.887 231.644 356.417 231.26 356.808 230.768C357.198 230.271 357.393 229.691 357.393 229.028C357.393 228.425 357.225 227.933 356.887 227.555C356.55 227.176 356.106 226.868 355.556 226.631C355.005 226.395 354.411 226.187 353.771 226.01L351.534 225.371C350.114 224.962 348.989 224.379 348.161 223.622C347.332 222.864 346.918 221.873 346.918 220.648C346.918 219.63 347.193 218.742 347.743 217.984C348.3 217.221 349.045 216.629 349.98 216.209C350.922 215.783 351.972 215.57 353.132 215.57C354.304 215.57 355.346 215.78 356.257 216.2C357.169 216.614 357.891 217.182 358.423 217.904C358.962 218.627 359.246 219.446 359.276 220.364H357.145ZM368.79 220.364V222.139H361.724V220.364H368.79ZM363.783 217.097H365.878V230.094C365.878 230.686 365.964 231.129 366.136 231.425C366.313 231.715 366.538 231.911 366.811 232.011C367.089 232.106 367.382 232.153 367.69 232.153C367.92 232.153 368.11 232.142 368.258 232.118C368.406 232.088 368.524 232.065 368.613 232.047L369.039 233.929C368.897 233.982 368.699 234.036 368.444 234.089C368.19 234.148 367.867 234.178 367.476 234.178C366.885 234.178 366.305 234.05 365.736 233.796C365.174 233.541 364.707 233.154 364.334 232.633C363.967 232.112 363.783 231.455 363.783 230.662V217.097ZM373.469 234.142C373.031 234.142 372.655 233.985 372.342 233.672C372.028 233.358 371.871 232.982 371.871 232.544C371.871 232.106 372.028 231.73 372.342 231.417C372.655 231.103 373.031 230.946 373.469 230.946C373.907 230.946 374.283 231.103 374.597 231.417C374.91 231.73 375.067 232.106 375.067 232.544C375.067 232.834 374.993 233.1 374.845 233.343C374.703 233.586 374.511 233.781 374.268 233.929C374.031 234.071 373.765 234.142 373.469 234.142ZM393.102 215.818H395.304V228.815C395.304 229.975 395.091 230.961 394.665 231.772C394.239 232.583 393.638 233.198 392.863 233.618C392.087 234.038 391.173 234.249 390.119 234.249C389.125 234.249 388.24 234.068 387.465 233.707C386.69 233.34 386.08 232.819 385.636 232.145C385.192 231.47 384.97 230.668 384.97 229.739H387.136C387.136 230.254 387.264 230.703 387.518 231.088C387.779 231.467 388.134 231.763 388.584 231.976C389.033 232.189 389.545 232.295 390.119 232.295C390.753 232.295 391.291 232.162 391.735 231.896C392.179 231.63 392.516 231.239 392.747 230.724C392.984 230.203 393.102 229.567 393.102 228.815V215.818ZM404.972 234.284C403.741 234.284 402.661 233.991 401.732 233.405C400.808 232.819 400.086 232 399.565 230.946C399.051 229.893 398.793 228.661 398.793 227.253C398.793 225.832 399.051 224.592 399.565 223.533C400.086 222.474 400.808 221.651 401.732 221.065C402.661 220.479 403.741 220.186 404.972 220.186C406.203 220.186 407.28 220.479 408.204 221.065C409.133 221.651 409.855 222.474 410.37 223.533C410.891 224.592 411.151 225.832 411.151 227.253C411.151 228.661 410.891 229.893 410.37 230.946C409.855 232 409.133 232.819 408.204 233.405C407.28 233.991 406.203 234.284 404.972 234.284ZM404.972 232.402C405.907 232.402 406.677 232.162 407.28 231.683C407.884 231.203 408.331 230.573 408.621 229.792C408.911 229.011 409.056 228.164 409.056 227.253C409.056 226.341 408.911 225.492 408.621 224.705C408.331 223.918 407.884 223.281 407.28 222.796C406.677 222.311 405.907 222.068 404.972 222.068C404.037 222.068 403.267 222.311 402.664 222.796C402.06 223.281 401.613 223.918 401.323 224.705C401.033 225.492 400.888 226.341 400.888 227.253C400.888 228.164 401.033 229.011 401.323 229.792C401.613 230.573 402.06 231.203 402.664 231.683C403.267 232.162 404.037 232.402 404.972 232.402ZM416.444 225.797V234H414.349V215.818H416.444V222.494H416.622C416.942 221.79 417.421 221.231 418.06 220.816C418.705 220.396 419.564 220.186 420.635 220.186C421.564 220.186 422.378 220.373 423.076 220.745C423.775 221.112 424.316 221.678 424.701 222.441C425.091 223.199 425.287 224.163 425.287 225.335V234H423.192V225.477C423.192 224.394 422.91 223.557 422.348 222.965C421.792 222.367 421.019 222.068 420.031 222.068C419.345 222.068 418.729 222.213 418.184 222.503C417.646 222.793 417.22 223.216 416.906 223.773C416.598 224.329 416.444 225.004 416.444 225.797ZM431.215 225.797V234H429.12V220.364H431.144V222.494H431.321C431.641 221.802 432.126 221.246 432.777 220.825C433.428 220.399 434.269 220.186 435.299 220.186C436.222 220.186 437.03 220.375 437.722 220.754C438.415 221.127 438.953 221.695 439.338 222.459C439.723 223.216 439.915 224.175 439.915 225.335V234H437.82V225.477C437.82 224.406 437.542 223.571 436.986 222.974C436.429 222.37 435.666 222.068 434.695 222.068C434.026 222.068 433.428 222.213 432.902 222.503C432.381 222.793 431.97 223.216 431.668 223.773C431.366 224.329 431.215 225.004 431.215 225.797ZM444.028 234V215.818H446.123V222.53H446.301C446.454 222.293 446.668 221.991 446.94 221.624C447.218 221.251 447.615 220.92 448.129 220.63C448.65 220.334 449.355 220.186 450.242 220.186C451.391 220.186 452.403 220.473 453.279 221.047C454.155 221.621 454.838 222.435 455.329 223.489C455.821 224.542 456.066 225.785 456.066 227.217C456.066 228.661 455.821 229.913 455.329 230.973C454.838 232.026 454.157 232.843 453.287 233.423C452.417 233.997 451.414 234.284 450.278 234.284C449.402 234.284 448.701 234.139 448.174 233.849C447.647 233.553 447.242 233.219 446.958 232.846C446.673 232.467 446.454 232.153 446.301 231.905H446.052V234H444.028ZM446.088 227.182C446.088 228.212 446.238 229.12 446.54 229.907C446.842 230.689 447.283 231.301 447.863 231.745C448.443 232.183 449.153 232.402 449.994 232.402C450.87 232.402 451.601 232.171 452.187 231.71C452.778 231.242 453.222 230.615 453.518 229.827C453.82 229.034 453.971 228.152 453.971 227.182C453.971 226.223 453.823 225.359 453.527 224.589C453.237 223.814 452.796 223.202 452.204 222.752C451.618 222.296 450.882 222.068 449.994 222.068C449.142 222.068 448.425 222.284 447.845 222.716C447.265 223.142 446.827 223.74 446.531 224.51C446.235 225.273 446.088 226.164 446.088 227.182ZM467.865 228.425V220.364H469.96V234H467.865V231.692H467.723C467.403 232.384 466.906 232.973 466.231 233.458C465.557 233.938 464.704 234.178 463.675 234.178C462.822 234.178 462.065 233.991 461.402 233.618C460.739 233.239 460.218 232.671 459.839 231.914C459.461 231.15 459.271 230.188 459.271 229.028V220.364H461.366V228.886C461.366 229.881 461.644 230.674 462.201 231.266C462.763 231.857 463.479 232.153 464.349 232.153C464.87 232.153 465.4 232.02 465.938 231.754C466.483 231.488 466.939 231.079 467.306 230.529C467.678 229.978 467.865 229.277 467.865 228.425ZM473.797 234V220.364H475.822V222.423H475.964C476.212 221.749 476.662 221.201 477.313 220.781C477.964 220.361 478.698 220.151 479.515 220.151C479.669 220.151 479.861 220.154 480.092 220.159C480.323 220.165 480.497 220.174 480.616 220.186V222.317C480.545 222.299 480.382 222.272 480.127 222.237C479.879 222.195 479.615 222.175 479.337 222.175C478.674 222.175 478.083 222.314 477.562 222.592C477.047 222.864 476.638 223.243 476.337 223.728C476.041 224.208 475.893 224.755 475.893 225.371V234H473.797ZM484.864 239.114C484.509 239.114 484.192 239.084 483.914 239.025C483.636 238.972 483.443 238.918 483.337 238.865L483.869 237.018C484.378 237.149 484.828 237.196 485.219 237.161C485.609 237.125 485.956 236.95 486.258 236.637C486.565 236.329 486.846 235.829 487.101 235.136L487.492 234.071L482.449 220.364H484.722L488.486 231.23H488.628L492.392 220.364H494.665L488.877 235.989C488.616 236.693 488.294 237.276 487.909 237.738C487.524 238.205 487.077 238.551 486.568 238.776C486.065 239.001 485.497 239.114 484.864 239.114Z" fill="black"/>
<circle cx="377.511" cy="91.5114" r="9.01136" fill="#FFE587" stroke="black"/>
<circle cx="421.511" cy="257.511" r="9.01136" fill="#FFE587" stroke="black"/>
<circle cx="145.511" cy="241.511" r="9.01136" fill="#FFE587" stroke="black"/>
<path d="M145.5 66.5H116.5V71L122.5 77.5L123.5 81L121.5 93L119 98H115L111 102.5V114V123.5H116.5L119 114L121.5 105L122.5 108.5L123.5 114L126 120.5L131.5 123.5L134.5 117L139 110L141.5 102.5L137 98L131.5 105.5V102.5V95L133 86L137 83L141.5 77.5L145.5 66.5Z" fill="#FFD597"/>
<path d="M126 163.5L137 158L130.5 148L124.5 143.5L123.5 137L128.5 131L131.5 125.5L128.5 123.5L121.5 125.5V132.5L122.5 139.5L116.5 144L121.5 146.5L126 149V151H122.5L119 155.5L112.5 166.5V186.5V193.5H115L121.5 201.5L131.5 195.5V184.5L128.5 179L123.5 182H121.5V179L126 176V170V163.5Z" fill="#FFD597"/>
<path d="M131.5 149L137 158M137 158L126 163.5V170V176L121.5 179V182H123.5L128.5 179L131.5 184.5V195.5L121.5 201.5L115 193.5H112.5V186.5V166.5L119 155.5L122.5 151H126V149L121.5 146.5L116.5 144L122.5 139.5L121.5 132.5V125.5L128.5 123.5L131.5 125.5L128.5 131L123.5 137L124.5 143.5L130.5 148L137 158ZM116.5 66.5H145.5L141.5 77.5L137 83L133 86L131.5 95V102.5V105.5L137 98L141.5 102.5L139 110L134.5 117L131.5 123.5L126 120.5L123.5 114L122.5 108.5L121.5 105L119 114L116.5 123.5H111V114V102.5L115 98H119L121.5 93L123.5 81L122.5 77.5L116.5 71V66.5Z" stroke="black" stroke-width="2"/>
<circle cx="200.511" cy="518.511" r="9.01136" fill="#FFE587" stroke="black"/>
<path d="M167.202 555V536.818H173.345C174.766 536.818 175.932 537.061 176.843 537.546C177.754 538.026 178.429 538.685 178.867 539.526C179.305 540.366 179.524 541.322 179.524 542.393C179.524 543.465 179.305 544.415 178.867 545.243C178.429 546.072 177.757 546.723 176.852 547.196C175.946 547.664 174.789 547.898 173.381 547.898H168.409V545.909H173.31C174.28 545.909 175.062 545.767 175.653 545.483C176.251 545.199 176.683 544.796 176.95 544.276C177.222 543.749 177.358 543.121 177.358 542.393C177.358 541.665 177.222 541.029 176.95 540.485C176.677 539.94 176.242 539.52 175.645 539.224C175.047 538.922 174.257 538.771 173.274 538.771H169.403V555H167.202ZM175.76 546.832L180.234 555H177.678L173.274 546.832H175.76ZM191.503 549.425V541.364H193.598V555H191.503V552.692H191.361C191.041 553.384 190.544 553.973 189.869 554.458C189.194 554.938 188.342 555.178 187.312 555.178C186.46 555.178 185.702 554.991 185.04 554.618C184.377 554.239 183.856 553.671 183.477 552.914C183.098 552.15 182.909 551.188 182.909 550.028V541.364H185.004V549.886C185.004 550.881 185.282 551.674 185.839 552.266C186.401 552.857 187.117 553.153 187.987 553.153C188.508 553.153 189.037 553.02 189.576 552.754C190.121 552.488 190.576 552.079 190.943 551.529C191.316 550.978 191.503 550.277 191.503 549.425ZM203.366 541.364V543.139H196.299V541.364H203.366ZM198.358 538.097H200.454V551.094C200.454 551.686 200.539 552.129 200.711 552.425C200.889 552.715 201.114 552.911 201.386 553.011C201.664 553.106 201.957 553.153 202.265 553.153C202.496 553.153 202.685 553.142 202.833 553.118C202.981 553.088 203.099 553.065 203.188 553.047L203.614 554.929C203.472 554.982 203.274 555.036 203.019 555.089C202.765 555.148 202.442 555.178 202.052 555.178C201.46 555.178 200.88 555.05 200.312 554.796C199.749 554.541 199.282 554.154 198.909 553.633C198.542 553.112 198.358 552.455 198.358 551.662V538.097ZM208.905 536.818V555H206.81V536.818H208.905ZM216.756 555.32C215.891 555.32 215.107 555.157 214.403 554.831C213.699 554.5 213.139 554.023 212.725 553.402C212.311 552.775 212.104 552.017 212.104 551.129C212.104 550.348 212.257 549.715 212.565 549.229C212.873 548.738 213.284 548.353 213.799 548.075C214.314 547.797 214.882 547.59 215.504 547.454C216.131 547.312 216.762 547.199 217.395 547.116C218.223 547.01 218.895 546.93 219.41 546.877C219.931 546.818 220.31 546.72 220.546 546.584C220.789 546.448 220.91 546.211 220.91 545.874V545.803C220.91 544.927 220.671 544.246 220.191 543.761C219.718 543.275 218.999 543.033 218.034 543.033C217.034 543.033 216.25 543.252 215.681 543.69C215.113 544.128 214.714 544.595 214.483 545.092L212.494 544.382C212.849 543.554 213.323 542.908 213.915 542.447C214.512 541.979 215.164 541.654 215.868 541.47C216.578 541.281 217.276 541.186 217.963 541.186C218.401 541.186 218.904 541.239 219.472 541.346C220.046 541.446 220.6 541.657 221.132 541.976C221.671 542.296 222.118 542.778 222.473 543.423C222.828 544.068 223.006 544.933 223.006 546.016V555H220.91V553.153H220.804C220.662 553.449 220.425 553.766 220.094 554.103C219.762 554.441 219.321 554.728 218.771 554.964C218.22 555.201 217.549 555.32 216.756 555.32ZM217.075 553.438C217.904 553.438 218.602 553.275 219.17 552.949C219.744 552.624 220.177 552.203 220.467 551.689C220.762 551.174 220.91 550.632 220.91 550.064V548.146C220.822 548.253 220.626 548.35 220.324 548.439C220.029 548.522 219.685 548.596 219.295 548.661C218.91 548.72 218.534 548.774 218.167 548.821C217.806 548.862 217.513 548.898 217.288 548.928C216.744 548.999 216.235 549.114 215.761 549.274C215.294 549.428 214.915 549.661 214.625 549.975C214.341 550.283 214.199 550.703 214.199 551.236C214.199 551.964 214.468 552.514 215.007 552.887C215.551 553.254 216.241 553.438 217.075 553.438ZM228.925 546.797V555H226.83V541.364H228.854V543.494H229.031C229.351 542.802 229.836 542.246 230.487 541.825C231.138 541.399 231.979 541.186 233.009 541.186C233.932 541.186 234.74 541.375 235.432 541.754C236.125 542.127 236.663 542.695 237.048 543.459C237.433 544.216 237.625 545.175 237.625 546.335V555H235.53V546.477C235.53 545.406 235.252 544.571 234.695 543.974C234.139 543.37 233.376 543.068 232.405 543.068C231.736 543.068 231.138 543.213 230.612 543.503C230.091 543.793 229.68 544.216 229.378 544.773C229.076 545.329 228.925 546.004 228.925 546.797ZM246.603 555.284C245.467 555.284 244.463 554.997 243.593 554.423C242.723 553.843 242.043 553.026 241.551 551.973C241.06 550.913 240.815 549.661 240.815 548.217C240.815 546.785 241.06 545.542 241.551 544.489C242.043 543.435 242.726 542.621 243.602 542.047C244.478 541.473 245.49 541.186 246.638 541.186C247.526 541.186 248.228 541.334 248.742 541.63C249.263 541.92 249.66 542.251 249.932 542.624C250.21 542.991 250.426 543.293 250.58 543.53H250.758V536.818H252.853V555H250.829V552.905H250.58C250.426 553.153 250.207 553.467 249.923 553.846C249.639 554.219 249.234 554.553 248.707 554.849C248.18 555.139 247.479 555.284 246.603 555.284ZM246.887 553.402C247.727 553.402 248.438 553.183 249.018 552.745C249.598 552.301 250.039 551.689 250.34 550.907C250.642 550.12 250.793 549.212 250.793 548.182C250.793 547.164 250.645 546.273 250.349 545.51C250.053 544.74 249.615 544.142 249.035 543.716C248.455 543.284 247.739 543.068 246.887 543.068C245.999 543.068 245.259 543.296 244.668 543.752C244.082 544.202 243.641 544.814 243.345 545.589C243.055 546.359 242.91 547.223 242.91 548.182C242.91 549.152 243.058 550.034 243.354 550.827C243.655 551.615 244.099 552.242 244.685 552.71C245.277 553.171 246.011 553.402 246.887 553.402Z" fill="black"/>
<path d="M149.202 737V718.818H155.558C156.825 718.818 157.869 719.037 158.692 719.475C159.515 719.907 160.127 720.49 160.53 721.224C160.932 721.952 161.134 722.76 161.134 723.648C161.134 724.429 160.994 725.074 160.716 725.583C160.444 726.092 160.083 726.495 159.633 726.79C159.189 727.086 158.707 727.305 158.186 727.447V727.625C158.742 727.661 159.302 727.856 159.864 728.211C160.426 728.566 160.897 729.075 161.276 729.738C161.654 730.401 161.844 731.212 161.844 732.17C161.844 733.082 161.637 733.902 161.222 734.63C160.808 735.358 160.154 735.935 159.26 736.361C158.367 736.787 157.204 737 155.771 737H149.202ZM151.403 735.047H155.771C157.21 735.047 158.23 734.769 158.834 734.212C159.444 733.65 159.749 732.969 159.749 732.17C159.749 731.555 159.592 730.987 159.278 730.466C158.964 729.939 158.518 729.519 157.938 729.205C157.357 728.886 156.671 728.726 155.878 728.726H151.403V735.047ZM151.403 726.808H155.487C156.15 726.808 156.748 726.678 157.281 726.418C157.819 726.157 158.245 725.79 158.559 725.317C158.879 724.843 159.038 724.287 159.038 723.648C159.038 722.849 158.76 722.171 158.204 721.615C157.647 721.052 156.766 720.771 155.558 720.771H151.403V726.808ZM170.895 737.284C169.581 737.284 168.447 736.994 167.494 736.414C166.548 735.828 165.817 735.011 165.302 733.964C164.793 732.91 164.538 731.685 164.538 730.288C164.538 728.892 164.793 727.661 165.302 726.595C165.817 725.524 166.533 724.689 167.45 724.092C168.373 723.488 169.451 723.186 170.682 723.186C171.392 723.186 172.093 723.304 172.786 723.541C173.478 723.778 174.108 724.163 174.677 724.695C175.245 725.222 175.698 725.92 176.035 726.79C176.372 727.661 176.541 728.732 176.541 730.004V730.892H166.03V729.081H174.41C174.41 728.312 174.256 727.625 173.949 727.021C173.647 726.418 173.215 725.941 172.653 725.592C172.096 725.243 171.439 725.068 170.682 725.068C169.847 725.068 169.125 725.275 168.515 725.69C167.912 726.098 167.447 726.631 167.122 727.288C166.796 727.945 166.633 728.649 166.633 729.401V730.608C166.633 731.638 166.811 732.511 167.166 733.227C167.527 733.937 168.027 734.479 168.666 734.852C169.306 735.219 170.048 735.402 170.895 735.402C171.445 735.402 171.942 735.325 172.386 735.171C172.836 735.011 173.224 734.775 173.549 734.461C173.875 734.141 174.126 733.745 174.304 733.271L176.328 733.839C176.115 734.526 175.757 735.13 175.254 735.651C174.751 736.165 174.129 736.568 173.389 736.858C172.65 737.142 171.818 737.284 170.895 737.284ZM181.823 728.797V737H179.728V723.364H181.752V725.494H181.93C182.249 724.802 182.735 724.246 183.386 723.825C184.037 723.399 184.877 723.186 185.907 723.186C186.83 723.186 187.638 723.375 188.331 723.754C189.023 724.127 189.562 724.695 189.947 725.459C190.331 726.216 190.524 727.175 190.524 728.335V737H188.428V728.477C188.428 727.406 188.15 726.571 187.594 725.974C187.038 725.37 186.274 725.068 185.303 725.068C184.635 725.068 184.037 725.213 183.51 725.503C182.989 725.793 182.578 726.216 182.276 726.773C181.974 727.329 181.823 728.004 181.823 728.797ZM196.447 728.797V737H194.352V723.364H196.376V725.494H196.554C196.873 724.802 197.359 724.246 198.01 723.825C198.661 723.399 199.501 723.186 200.531 723.186C201.454 723.186 202.262 723.375 202.955 723.754C203.647 724.127 204.186 724.695 204.571 725.459C204.955 726.216 205.148 727.175 205.148 728.335V737H203.052V728.477C203.052 727.406 202.774 726.571 202.218 725.974C201.662 725.37 200.898 725.068 199.927 725.068C199.259 725.068 198.661 725.213 198.134 725.503C197.613 725.793 197.202 726.216 196.9 726.773C196.598 727.329 196.447 728.004 196.447 728.797ZM208.976 737V723.364H211.071V737H208.976ZM210.042 721.091C209.633 721.091 209.281 720.952 208.985 720.674C208.695 720.395 208.55 720.061 208.55 719.67C208.55 719.28 208.695 718.945 208.985 718.667C209.281 718.389 209.633 718.25 210.042 718.25C210.45 718.25 210.799 718.389 211.089 718.667C211.385 718.945 211.533 719.28 211.533 719.67C211.533 720.061 211.385 720.395 211.089 720.674C210.799 720.952 210.45 721.091 210.042 721.091ZM217.004 728.797V737H214.909V723.364H216.933V725.494H217.111C217.43 724.802 217.915 724.246 218.566 723.825C219.218 723.399 220.058 723.186 221.088 723.186C222.011 723.186 222.819 723.375 223.511 723.754C224.204 724.127 224.743 724.695 225.127 725.459C225.512 726.216 225.704 727.175 225.704 728.335V737H223.609V728.477C223.609 727.406 223.331 726.571 222.775 725.974C222.218 725.37 221.455 725.068 220.484 725.068C219.815 725.068 219.218 725.213 218.691 725.503C218.17 725.793 217.759 726.216 217.457 726.773C217.155 727.329 217.004 728.004 217.004 728.797ZM235.037 742.398C234.025 742.398 233.155 742.268 232.427 742.007C231.699 741.753 231.092 741.415 230.607 740.995C230.128 740.581 229.746 740.137 229.462 739.663L231.131 738.491C231.32 738.74 231.56 739.024 231.85 739.344C232.14 739.669 232.537 739.95 233.04 740.187C233.549 740.43 234.214 740.551 235.037 740.551C236.138 740.551 237.046 740.285 237.763 739.752C238.479 739.219 238.837 738.385 238.837 737.249V734.479H238.659C238.505 734.727 238.286 735.035 238.002 735.402C237.724 735.763 237.322 736.086 236.795 736.37C236.274 736.648 235.57 736.787 234.682 736.787C233.581 736.787 232.593 736.527 231.717 736.006C230.847 735.485 230.157 734.727 229.648 733.733C229.145 732.739 228.894 731.531 228.894 730.111C228.894 728.714 229.139 727.498 229.631 726.462C230.122 725.42 230.805 724.615 231.681 724.047C232.557 723.473 233.569 723.186 234.718 723.186C235.605 723.186 236.31 723.334 236.83 723.63C237.357 723.92 237.76 724.251 238.038 724.624C238.322 724.991 238.541 725.293 238.695 725.53H238.908V723.364H240.932V737.391C240.932 738.562 240.666 739.515 240.133 740.249C239.606 740.989 238.896 741.531 238.002 741.874C237.115 742.223 236.126 742.398 235.037 742.398ZM234.966 734.905C235.807 734.905 236.517 734.712 237.097 734.328C237.677 733.943 238.118 733.39 238.42 732.668C238.721 731.946 238.872 731.081 238.872 730.075C238.872 729.093 238.724 728.226 238.428 727.474C238.133 726.722 237.695 726.134 237.115 725.707C236.535 725.281 235.818 725.068 234.966 725.068C234.078 725.068 233.338 725.293 232.747 725.743C232.161 726.193 231.72 726.796 231.424 727.554C231.134 728.312 230.989 729.152 230.989 730.075C230.989 731.022 231.137 731.86 231.433 732.588C231.735 733.31 232.178 733.878 232.764 734.292C233.356 734.701 234.09 734.905 234.966 734.905ZM250.698 723.364V725.139H243.631V723.364H250.698ZM245.691 720.097H247.786V733.094C247.786 733.686 247.872 734.129 248.043 734.425C248.221 734.715 248.446 734.911 248.718 735.011C248.996 735.106 249.289 735.153 249.597 735.153C249.828 735.153 250.017 735.142 250.165 735.118C250.313 735.088 250.431 735.065 250.52 735.047L250.946 736.929C250.804 736.982 250.606 737.036 250.351 737.089C250.097 737.148 249.774 737.178 249.384 737.178C248.792 737.178 248.212 737.05 247.644 736.796C247.081 736.541 246.614 736.154 246.241 735.633C245.874 735.112 245.691 734.455 245.691 733.662V720.097ZM259.243 737.284C258.011 737.284 256.931 736.991 256.002 736.405C255.079 735.819 254.357 735 253.836 733.946C253.321 732.893 253.064 731.661 253.064 730.253C253.064 728.832 253.321 727.592 253.836 726.533C254.357 725.474 255.079 724.651 256.002 724.065C256.931 723.479 258.011 723.186 259.243 723.186C260.474 723.186 261.551 723.479 262.474 724.065C263.403 724.651 264.125 725.474 264.64 726.533C265.161 727.592 265.422 728.832 265.422 730.253C265.422 731.661 265.161 732.893 264.64 733.946C264.125 735 263.403 735.819 262.474 736.405C261.551 736.991 260.474 737.284 259.243 737.284ZM259.243 735.402C260.178 735.402 260.947 735.162 261.551 734.683C262.154 734.203 262.601 733.573 262.891 732.792C263.181 732.011 263.326 731.164 263.326 730.253C263.326 729.341 263.181 728.492 262.891 727.705C262.601 726.918 262.154 726.281 261.551 725.796C260.947 725.311 260.178 725.068 259.243 725.068C258.307 725.068 257.538 725.311 256.934 725.796C256.331 726.281 255.884 726.918 255.594 727.705C255.304 728.492 255.159 729.341 255.159 730.253C255.159 731.164 255.304 732.011 255.594 732.792C255.884 733.573 256.331 734.203 256.934 734.683C257.538 735.162 258.307 735.402 259.243 735.402ZM270.715 728.797V737H268.62V723.364H270.644V725.494H270.821C271.141 724.802 271.626 724.246 272.277 723.825C272.928 723.399 273.769 723.186 274.799 723.186C275.722 723.186 276.53 723.375 277.222 723.754C277.915 724.127 278.453 724.695 278.838 725.459C279.223 726.216 279.415 727.175 279.415 728.335V737H277.32V728.477C277.32 727.406 277.042 726.571 276.486 725.974C275.929 725.37 275.166 725.068 274.195 725.068C273.526 725.068 272.928 725.213 272.402 725.503C271.881 725.793 271.47 726.216 271.168 726.773C270.866 727.329 270.715 728.004 270.715 728.797Z" fill="black"/>
<path d="M150.202 275V256.818H156.558C157.825 256.818 158.869 257.037 159.692 257.475C160.515 257.907 161.127 258.49 161.53 259.224C161.932 259.952 162.134 260.76 162.134 261.648C162.134 262.429 161.994 263.074 161.716 263.583C161.444 264.092 161.083 264.495 160.633 264.79C160.189 265.086 159.707 265.305 159.186 265.447V265.625C159.742 265.661 160.302 265.856 160.864 266.211C161.426 266.566 161.897 267.075 162.276 267.738C162.654 268.401 162.844 269.212 162.844 270.17C162.844 271.082 162.637 271.902 162.222 272.63C161.808 273.358 161.154 273.935 160.26 274.361C159.367 274.787 158.204 275 156.771 275H150.202ZM152.403 273.047H156.771C158.21 273.047 159.23 272.769 159.834 272.212C160.444 271.65 160.749 270.969 160.749 270.17C160.749 269.555 160.592 268.987 160.278 268.466C159.964 267.939 159.518 267.519 158.938 267.205C158.357 266.886 157.671 266.726 156.878 266.726H152.403V273.047ZM152.403 264.808H156.487C157.15 264.808 157.748 264.678 158.281 264.418C158.819 264.157 159.245 263.79 159.559 263.317C159.879 262.843 160.038 262.287 160.038 261.648C160.038 260.849 159.76 260.171 159.204 259.615C158.647 259.052 157.766 258.771 156.558 258.771H152.403V264.808ZM174.771 269.425V261.364H176.866V275H174.771V272.692H174.629C174.309 273.384 173.812 273.973 173.138 274.458C172.463 274.938 171.611 275.178 170.581 275.178C169.729 275.178 168.971 274.991 168.308 274.618C167.645 274.239 167.124 273.671 166.746 272.914C166.367 272.15 166.177 271.188 166.177 270.028V261.364H168.273V269.886C168.273 270.881 168.551 271.674 169.107 272.266C169.669 272.857 170.385 273.153 171.256 273.153C171.776 273.153 172.306 273.02 172.845 272.754C173.389 272.488 173.845 272.079 174.212 271.529C174.585 270.978 174.771 270.277 174.771 269.425ZM180.704 275V261.364H182.728V263.423H182.87C183.119 262.749 183.568 262.201 184.219 261.781C184.87 261.361 185.604 261.151 186.421 261.151C186.575 261.151 186.767 261.154 186.998 261.159C187.229 261.165 187.404 261.174 187.522 261.186V263.317C187.451 263.299 187.288 263.272 187.034 263.237C186.785 263.195 186.522 263.175 186.244 263.175C185.581 263.175 184.989 263.314 184.468 263.592C183.953 263.864 183.545 264.243 183.243 264.728C182.947 265.208 182.799 265.755 182.799 266.371V275H180.704ZM192.101 256.818V275H190.006V256.818H192.101ZM195.938 275V261.364H198.033V275H195.938ZM197.003 259.091C196.595 259.091 196.243 258.952 195.947 258.674C195.657 258.395 195.512 258.061 195.512 257.67C195.512 257.28 195.657 256.945 195.947 256.667C196.243 256.389 196.595 256.25 197.003 256.25C197.412 256.25 197.761 256.389 198.051 256.667C198.347 256.945 198.495 257.28 198.495 257.67C198.495 258.061 198.347 258.395 198.051 258.674C197.761 258.952 197.412 259.091 197.003 259.091ZM203.966 266.797V275H201.871V261.364H203.895V263.494H204.072C204.392 262.802 204.877 262.246 205.528 261.825C206.179 261.399 207.02 261.186 208.05 261.186C208.973 261.186 209.781 261.375 210.473 261.754C211.166 262.127 211.704 262.695 212.089 263.459C212.474 264.216 212.666 265.175 212.666 266.335V275H210.571V266.477C210.571 265.406 210.293 264.571 209.737 263.974C209.18 263.37 208.417 263.068 207.446 263.068C206.777 263.068 206.179 263.213 205.653 263.503C205.132 263.793 204.721 264.216 204.419 264.773C204.117 265.329 203.966 266.004 203.966 266.797ZM221.999 280.398C220.987 280.398 220.117 280.268 219.389 280.007C218.661 279.753 218.054 279.415 217.569 278.995C217.09 278.581 216.708 278.137 216.424 277.663L218.093 276.491C218.282 276.74 218.522 277.024 218.812 277.344C219.102 277.669 219.498 277.95 220.002 278.187C220.511 278.43 221.176 278.551 221.999 278.551C223.1 278.551 224.008 278.285 224.725 277.752C225.441 277.219 225.799 276.385 225.799 275.249V272.479H225.621C225.467 272.727 225.248 273.035 224.964 273.402C224.686 273.763 224.284 274.086 223.757 274.37C223.236 274.648 222.532 274.787 221.644 274.787C220.543 274.787 219.555 274.527 218.679 274.006C217.809 273.485 217.119 272.727 216.61 271.733C216.107 270.739 215.856 269.531 215.856 268.111C215.856 266.714 216.101 265.498 216.592 264.462C217.084 263.42 217.767 262.615 218.643 262.047C219.519 261.473 220.531 261.186 221.679 261.186C222.567 261.186 223.272 261.334 223.792 261.63C224.319 261.92 224.722 262.251 225 262.624C225.284 262.991 225.503 263.293 225.657 263.53H225.87V261.364H227.894V275.391C227.894 276.562 227.628 277.515 227.095 278.249C226.568 278.989 225.858 279.531 224.964 279.874C224.076 280.223 223.088 280.398 221.999 280.398ZM221.928 272.905C222.768 272.905 223.479 272.712 224.059 272.328C224.639 271.943 225.08 271.39 225.381 270.668C225.683 269.946 225.834 269.081 225.834 268.075C225.834 267.093 225.686 266.226 225.39 265.474C225.094 264.722 224.656 264.134 224.076 263.707C223.496 263.281 222.78 263.068 221.928 263.068C221.04 263.068 220.3 263.293 219.709 263.743C219.123 264.193 218.682 264.796 218.386 265.554C218.096 266.312 217.951 267.152 217.951 268.075C217.951 269.022 218.099 269.86 218.395 270.588C218.696 271.31 219.14 271.878 219.726 272.292C220.318 272.701 221.052 272.905 221.928 272.905ZM237.66 261.364V263.139H230.593V261.364H237.66ZM232.652 258.097H234.748V271.094C234.748 271.686 234.833 272.129 235.005 272.425C235.183 272.715 235.408 272.911 235.68 273.011C235.958 273.106 236.251 273.153 236.559 273.153C236.79 273.153 236.979 273.142 237.127 273.118C237.275 273.088 237.393 273.065 237.482 273.047L237.908 274.929C237.766 274.982 237.568 275.036 237.313 275.089C237.059 275.148 236.736 275.178 236.346 275.178C235.754 275.178 235.174 275.05 234.606 274.796C234.043 274.541 233.576 274.154 233.203 273.633C232.836 273.112 232.652 272.455 232.652 271.662V258.097ZM246.204 275.284C244.973 275.284 243.893 274.991 242.964 274.405C242.041 273.819 241.319 273 240.798 271.946C240.283 270.893 240.025 269.661 240.025 268.253C240.025 266.832 240.283 265.592 240.798 264.533C241.319 263.474 242.041 262.651 242.964 262.065C243.893 261.479 244.973 261.186 246.204 261.186C247.436 261.186 248.513 261.479 249.436 262.065C250.365 262.651 251.087 263.474 251.602 264.533C252.123 265.592 252.383 266.832 252.383 268.253C252.383 269.661 252.123 270.893 251.602 271.946C251.087 273 250.365 273.819 249.436 274.405C248.513 274.991 247.436 275.284 246.204 275.284ZM246.204 273.402C247.14 273.402 247.909 273.162 248.513 272.683C249.116 272.203 249.563 271.573 249.853 270.792C250.143 270.011 250.288 269.164 250.288 268.253C250.288 267.341 250.143 266.492 249.853 265.705C249.563 264.918 249.116 264.281 248.513 263.796C247.909 263.311 247.14 263.068 246.204 263.068C245.269 263.068 244.5 263.311 243.896 263.796C243.293 264.281 242.846 264.918 242.556 265.705C242.266 266.492 242.121 267.341 242.121 268.253C242.121 269.164 242.266 270.011 242.556 270.792C242.846 271.573 243.293 272.203 243.896 272.683C244.5 273.162 245.269 273.402 246.204 273.402ZM257.677 266.797V275H255.582V261.364H257.606V263.494H257.783C258.103 262.802 258.588 262.246 259.239 261.825C259.89 261.399 260.731 261.186 261.761 261.186C262.684 261.186 263.492 261.375 264.184 261.754C264.877 262.127 265.415 262.695 265.8 263.459C266.185 264.216 266.377 265.175 266.377 266.335V275H264.282V266.477C264.282 265.406 264.004 264.571 263.447 263.974C262.891 263.37 262.128 263.068 261.157 263.068C260.488 263.068 259.89 263.213 259.364 263.503C258.843 263.793 258.431 264.216 258.13 264.773C257.828 265.329 257.677 266.004 257.677 266.797Z" fill="black"/>
<circle cx="291.511" cy="312.511" r="9.01136" fill="#FF8F87" stroke="black"/>
<path d="M228.58 327.818H233.321L238.328 340.034H238.541L243.548 327.818H248.289V346H244.56V334.166H244.409L239.704 345.911H237.165L232.46 334.121H232.309V346H228.58V327.818ZM257.546 346.266C256.167 346.266 254.975 345.973 253.969 345.387C252.968 344.796 252.196 343.973 251.652 342.919C251.107 341.86 250.835 340.632 250.835 339.235C250.835 337.826 251.107 336.595 251.652 335.542C252.196 334.482 252.968 333.66 253.969 333.074C254.975 332.482 256.167 332.186 257.546 332.186C258.925 332.186 260.115 332.482 261.115 333.074C262.121 333.66 262.897 334.482 263.441 335.542C263.986 336.595 264.258 337.826 264.258 339.235C264.258 340.632 263.986 341.86 263.441 342.919C262.897 343.973 262.121 344.796 261.115 345.387C260.115 345.973 258.925 346.266 257.546 346.266ZM257.564 343.337C258.192 343.337 258.715 343.159 259.136 342.804C259.556 342.443 259.872 341.952 260.085 341.33C260.304 340.709 260.414 340.002 260.414 339.208C260.414 338.415 260.304 337.708 260.085 337.087C259.872 336.465 259.556 335.974 259.136 335.613C258.715 335.252 258.192 335.071 257.564 335.071C256.931 335.071 256.398 335.252 255.966 335.613C255.54 335.974 255.217 336.465 254.998 337.087C254.785 337.708 254.679 338.415 254.679 339.208C254.679 340.002 254.785 340.709 254.998 341.33C255.217 341.952 255.54 342.443 255.966 342.804C256.398 343.159 256.931 343.337 257.564 343.337ZM270.499 338.116V346H266.717V332.364H270.322V334.77H270.481C270.783 333.976 271.289 333.349 272 332.887C272.71 332.42 273.571 332.186 274.583 332.186C275.53 332.186 276.356 332.393 277.06 332.808C277.764 333.222 278.312 333.814 278.702 334.583C279.093 335.347 279.288 336.258 279.288 337.317V346H275.506V337.992C275.512 337.158 275.299 336.507 274.867 336.039C274.435 335.566 273.84 335.329 273.083 335.329C272.574 335.329 272.124 335.438 271.733 335.657C271.349 335.876 271.047 336.196 270.828 336.616C270.615 337.03 270.505 337.531 270.499 338.116ZM289.522 332.364V335.205H281.31V332.364H289.522ZM283.175 329.097H286.956V341.81C286.956 342.159 287.01 342.431 287.116 342.626C287.223 342.816 287.371 342.949 287.56 343.026C287.756 343.103 287.98 343.141 288.235 343.141C288.412 343.141 288.59 343.127 288.768 343.097C288.945 343.061 289.081 343.035 289.176 343.017L289.771 345.831C289.581 345.891 289.315 345.959 288.972 346.036C288.628 346.118 288.211 346.169 287.72 346.186C286.809 346.222 286.01 346.101 285.323 345.822C284.642 345.544 284.113 345.112 283.734 344.526C283.355 343.94 283.169 343.201 283.175 342.307V329.097ZM291.986 351.114V332.364H295.714V334.654H295.883C296.049 334.287 296.289 333.914 296.602 333.536C296.922 333.151 297.336 332.831 297.845 332.577C298.36 332.316 298.999 332.186 299.763 332.186C300.757 332.186 301.674 332.446 302.515 332.967C303.355 333.482 304.027 334.261 304.53 335.302C305.033 336.338 305.285 337.637 305.285 339.2C305.285 340.721 305.039 342.005 304.548 343.053C304.063 344.094 303.4 344.884 302.559 345.423C301.725 345.956 300.79 346.222 299.754 346.222C299.02 346.222 298.396 346.101 297.881 345.858C297.372 345.615 296.954 345.31 296.629 344.944C296.303 344.571 296.055 344.195 295.883 343.816H295.768V351.114H291.986ZM295.688 339.182C295.688 339.993 295.8 340.7 296.025 341.304C296.25 341.907 296.576 342.378 297.002 342.715C297.428 343.047 297.946 343.212 298.555 343.212C299.171 343.212 299.692 343.044 300.118 342.706C300.544 342.363 300.867 341.89 301.086 341.286C301.31 340.676 301.423 339.975 301.423 339.182C301.423 338.395 301.313 337.702 301.094 337.104C300.875 336.507 300.553 336.039 300.127 335.702C299.701 335.364 299.177 335.196 298.555 335.196C297.94 335.196 297.419 335.358 296.993 335.684C296.573 336.009 296.25 336.471 296.025 337.069C295.8 337.667 295.688 338.371 295.688 339.182ZM314.021 346.266C312.618 346.266 311.411 345.982 310.398 345.414C309.392 344.84 308.617 344.029 308.072 342.982C307.528 341.928 307.256 340.682 307.256 339.244C307.256 337.841 307.528 336.61 308.072 335.551C308.617 334.491 309.383 333.666 310.372 333.074C311.366 332.482 312.532 332.186 313.87 332.186C314.769 332.186 315.607 332.331 316.382 332.621C317.163 332.905 317.844 333.334 318.424 333.908C319.01 334.482 319.466 335.205 319.791 336.075C320.117 336.939 320.279 337.951 320.279 339.111V340.15H308.765V337.806H316.719C316.719 337.261 316.601 336.779 316.364 336.359C316.128 335.938 315.799 335.61 315.379 335.373C314.965 335.131 314.482 335.009 313.932 335.009C313.358 335.009 312.849 335.142 312.405 335.409C311.967 335.669 311.624 336.021 311.375 336.465C311.126 336.903 310.999 337.391 310.993 337.93V340.158C310.993 340.833 311.118 341.416 311.366 341.907C311.621 342.399 311.979 342.777 312.44 343.044C312.902 343.31 313.449 343.443 314.083 343.443C314.503 343.443 314.888 343.384 315.237 343.266C315.586 343.147 315.885 342.97 316.134 342.733C316.382 342.496 316.571 342.206 316.702 341.863L320.2 342.094C320.022 342.934 319.658 343.668 319.108 344.295C318.563 344.917 317.859 345.402 316.995 345.751C316.136 346.095 315.145 346.266 314.021 346.266ZM326.529 327.818V346H322.748V327.818H326.529ZM329.559 346V332.364H333.341V346H329.559ZM331.459 330.606C330.897 330.606 330.414 330.419 330.012 330.047C329.615 329.668 329.417 329.215 329.417 328.688C329.417 328.167 329.615 327.721 330.012 327.348C330.414 326.969 330.897 326.779 331.459 326.779C332.021 326.779 332.501 326.969 332.897 327.348C333.3 327.721 333.501 328.167 333.501 328.688C333.501 329.215 333.3 329.668 332.897 330.047C332.501 330.419 332.021 330.606 331.459 330.606ZM342.585 346.266C341.182 346.266 339.975 345.982 338.963 345.414C337.957 344.84 337.181 344.029 336.637 342.982C336.092 341.928 335.82 340.682 335.82 339.244C335.82 337.841 336.092 336.61 336.637 335.551C337.181 334.491 337.948 333.666 338.936 333.074C339.931 332.482 341.097 332.186 342.434 332.186C343.334 332.186 344.171 332.331 344.947 332.621C345.728 332.905 346.408 333.334 346.988 333.908C347.574 334.482 348.03 335.205 348.356 336.075C348.681 336.939 348.844 337.951 348.844 339.111V340.15H337.329V337.806H345.284C345.284 337.261 345.166 336.779 344.929 336.359C344.692 335.938 344.364 335.61 343.943 335.373C343.529 335.131 343.047 335.009 342.496 335.009C341.922 335.009 341.413 335.142 340.969 335.409C340.531 335.669 340.188 336.021 339.939 336.465C339.691 336.903 339.564 337.391 339.558 337.93V340.158C339.558 340.833 339.682 341.416 339.931 341.907C340.185 342.399 340.543 342.777 341.005 343.044C341.466 343.31 342.014 343.443 342.647 343.443C343.067 343.443 343.452 343.384 343.801 343.266C344.151 343.147 344.449 342.97 344.698 342.733C344.947 342.496 345.136 342.206 345.266 341.863L348.764 342.094C348.586 342.934 348.222 343.668 347.672 344.295C347.128 344.917 346.423 345.402 345.559 345.751C344.701 346.095 343.71 346.266 342.585 346.266ZM351.312 346V332.364H354.979V334.743H355.121C355.369 333.897 355.786 333.257 356.372 332.825C356.958 332.387 357.633 332.168 358.396 332.168C358.586 332.168 358.79 332.18 359.009 332.204C359.228 332.228 359.42 332.26 359.586 332.301V335.657C359.409 335.604 359.163 335.557 358.849 335.515C358.536 335.474 358.249 335.453 357.988 335.453C357.432 335.453 356.935 335.574 356.497 335.817C356.065 336.054 355.721 336.385 355.467 336.811C355.218 337.238 355.094 337.729 355.094 338.285V346H351.312Z" fill="black"/>
</g>
<path d="M213.722 809.545H217.591L222.773 822.193H222.977L228.159 809.545H232.028V827H228.994V815.009H228.832L224.009 826.949H221.741L216.918 814.983H216.756V827H213.722V809.545ZM237.713 827H234.338L240.483 809.545H244.386L250.54 827H247.165L242.503 813.125H242.366L237.713 827ZM237.824 820.156H247.028V822.696H237.824V820.156Z" fill="#005A5E"/>
<defs>
<filter id="filter0_d_52_56" x="90.5" y="64.5" width="464.625" height="746.528" filterUnits="userSpaceOnUse" color-interpolation-filters="sRGB">
<feFlood flood-opacity="0" result="BackgroundImageFix"/>
<feColorMatrix in="SourceAlpha" type="matrix" values="0 0 0 0 0 0 0 0 0 0 0 0 0 0 0 0 0 0 127 0" result="hardAlpha"/>
<feOffset dy="4"/>
<feGaussianBlur stdDeviation="2"/>
<feComposite in2="hardAlpha" operator="out"/>
<feColorMatrix type="matrix" values="0 0 0 0 0 0 0 0 0 0 0 0 0 0 0 0 0 0 0.25 0"/>
<feBlend mode="normal" in2="BackgroundImageFix" result="effect1_dropShadow_52_56"/>
<feBlend mode="normal" in="SourceGraphic" in2="effect1_dropShadow_52_56" result="shape"/>
</filter>
</defs>
</svg>
