<svg width="849" height="750" viewBox="0 0 849 750" fill="none" xmlns="http://www.w3.org/2000/svg">
<rect x="0.5" y="0.5" width="848" height="749" rx="35.5" fill="#97DCFF" stroke="#717171"/>
<g filter="url(#filter0_d_95_207)">
<path d="M718 236L706.5 233L704.5 237.5H700.5L701 241L694 248L683.5 244.526L679.5 249.5L673.5 246L672 248L677.5 252.5L676.5 255L670.5 252.5L668.5 255L673.5 260.5H668.5V265.5L660 264.5L654 265.5L649 263H640.5L631.5 258L630.5 254H626L623 251L626 249.5L630.5 248L628.5 246L624 247L625 243L621.5 245L617.5 252.5V257L608.75 264.5L597 279.5L586.5 273.5H579L577.5 280.5L573.5 285H570L569 289.5H564.5L563 293.5L558 295L555.5 299.5L550.5 305.5H545.5L538 312L530.5 321L524.5 323.5L526.214 229H380.084L379.5 60L375.5 62.5L371 66L368.5 62.5L362.5 65L359 70V73.5L364.5 80.5L366.5 86L368.5 91.5L366.5 97.5V104.5L364.5 105.5L367.377 109.5L366.5 115L368.5 118.5L366.5 124V127.5L361.5 132L353 151V159L349.5 164L348.5 183L346 186.5V194.5L339.5 193L341.5 201.5L336.5 206.5V215L331.5 220.5L336.5 230L331.5 235V243L329 246.5L322.5 248.5L305 263L298 273.5L294.5 279L288.5 280L282 288.907L274 290.5L265 296.5L259.5 297.5L254.5 288.907L248 286L235 297.5L232 311L228 309.5H219L215 314V319L211 320.5L207 327.5L208 335V342L204.5 345.5L198.5 344.5L199.5 350L204.5 356L203.5 366L206 370.5L204.5 374.5L198.5 369L195.5 370.5L193.5 378L188 382.5L183 378L186.302 371.33L181 361H176.5L173 355H168.5L165.5 360L160.5 364L153 378L152 388.5L143 395L141 400.5L146 404.5L147 411.5L146 418L148.181 427.5L146 432L133.319 432.438L131.5 435.5L130.5 447.5L125.5 460L114 461.5L97.5 466.433L89 465L87 476L91.5 480.5L90 493L87 496.5L89 501L87 507L82.5 510L83 513.5L85.5 517.5L90 518.5L91.5 523L95.5 527L97 532.5L99 535.5L102.5 551L109 555L115 562L114 566.5L123 576.5L128.5 581L126 585L130 590V595.5L139.5 600L142.5 605H147L151.5 611L153.5 617.5H161.5L162.5 621.5L166 619.5L171.5 621.5L177 619.5L182 625.5L174 630V635L181 638L182.5 644.5V652L191 659L193 664.5L197.5 666L203.5 667H206.5L208 672.5L211 673.5L217.5 679.227H234.819L242 674.5L245.5 671L254 667L256.5 661.5L262 657L280.5 673.5L295 667L311 663L319.5 664.5L331.5 655.5L329.5 646.5L332.5 641H334.5L346.5 649.5L367.377 637.619L381 630.5L384 635V639.5L386 641L411 624.5L413 622L407.5 622.5L407 616L418.5 609L421 604L415.5 601.5L411 594L417.5 587L416.5 582L421 578V574L426.5 568L428 563.5L434 558L454 538L458.5 525L462.5 520.5L461 515L464 512L464.5 506.5L482 491V488.5L480 483L484.5 479.5L485.5 475L490.5 474.5L492 467.5L496 461.5V457.5L495 451.5L499 446L501.5 434L517 440L526 457.5L551 465.5L563 451L563.5 445.5L571 433.5L572 427.5L575 421.5L579 421L580 419.5L580.5 410L585 403L585.5 397.5L588.5 396.5L593.5 387L611.5 402.5L623 379.5L629.5 372L632.5 377L639 372L644.5 363L649 366L656 356.5L653 353.5L665 340.5L668.5 339.5L676.5 329L672 323L676.5 314.5L674.5 312L679.5 305.5L683 302L684.5 297L681.5 294.5L684.5 289.5L683 286.5L684.5 275.5L718.5 304L756.5 335L765 318V313.5L772 301.5L767 299L768.5 294.5L767 291L770 288L767 283L762 280.5L764.5 270L761 271L752 266.5L748.5 258L756 257L757.5 252.5L753.5 249.5L743 250.5H732.5L726.5 243L718 236Z" fill="#FFD597"/>
<path d="M718 236L706.5 233L704.5 237.5H700.5L701 241L694 248L683.5 244.526L679.5 249.5L673.5 246L672 248L677.5 252.5L676.5 255L670.5 252.5L668.5 255L673.5 260.5H668.5V265.5L660 264.5L654 265.5L649 263H640.5L631.5 258L630.5 254H626L623 251L626 249.5L630.5 248L628.5 246L624 247L625 243L621.5 245L617.5 252.5V257L608.75 264.5L597 279.5L586.5 273.5H579L577.5 280.5L573.5 285H570L569 289.5H564.5L563 293.5L558 295L555.5 299.5L550.5 305.5H545.5L538 312L530.5 321L524.5 323.5L526.214 229H380.084L379.5 60L375.5 62.5L371 66L368.5 62.5L362.5 65L359 70V73.5L364.5 80.5L366.5 86L368.5 91.5L366.5 97.5V104.5L364.5 105.5L367.377 109.5L366.5 115L368.5 118.5L366.5 124V127.5L361.5 132L353 151V159L349.5 164L348.5 183L346 186.5V194.5L339.5 193L341.5 201.5L336.5 206.5V215L331.5 220.5L336.5 230L331.5 235V243L329 246.5L322.5 248.5L305 263L298 273.5L294.5 279L288.5 280L282 288.907L274 290.5L265 296.5L259.5 297.5L254.5 288.907L248 286L235 297.5L232 311L228 309.5H219L215 314V319L211 320.5L207 327.5L208 335V342L204.5 345.5L198.5 344.5L199.5 350L204.5 356L203.5 366L206 370.5L204.5 374.5L198.5 369L195.5 370.5L193.5 378L188 382.5L183 378L186.302 371.33L181 361H176.5L173 355H168.5L165.5 360L160.5 364L153 378L152 388.5L143 395L141 400.5L146 404.5L147 411.5L146 418L148.181 427.5L146 432L133.319 432.438L131.5 435.5L130.5 447.5L125.5 460L114 461.5L97.5 466.433L89 465L87 476L91.5 480.5L90 493L87 496.5L89 501L87 507L82.5 510L83 513.5L85.5 517.5L90 518.5L91.5 523L95.5 527L97 532.5L99 535.5L102.5 551L109 555L115 562L114 566.5L123 576.5L128.5 581L126 585L130 590V595.5L139.5 600L142.5 605H147L151.5 611L153.5 617.5H161.5L162.5 621.5L166 619.5L171.5 621.5L177 619.5L182 625.5L174 630V635L181 638L182.5 644.5V652L191 659L193 664.5L197.5 666L203.5 667H206.5L208 672.5L211 673.5L217.5 679.227H234.819L242 674.5L245.5 671L254 667L256.5 661.5L262 657L280.5 673.5L295 667L311 663L319.5 664.5L331.5 655.5L329.5 646.5L332.5 641H334.5L346.5 649.5L367.377 637.619L381 630.5L384 635V639.5L386 641L411 624.5L413 622L407.5 622.5L407 616L418.5 609L421 604L415.5 601.5L411 594L417.5 587L416.5 582L421 578V574L426.5 568L428 563.5L434 558L454 538L458.5 525L462.5 520.5L461 515L464 512L464.5 506.5L482 491V488.5L480 483L484.5 479.5L485.5 475L490.5 474.5L492 467.5L496 461.5V457.5L495 451.5L499 446L501.5 434L517 440L526 457.5L551 465.5L563 451L563.5 445.5L571 433.5L572 427.5L575 421.5L579 421L580 419.5L580.5 410L585 403L585.5 397.5L588.5 396.5L593.5 387L611.5 402.5L623 379.5L629.5 372L632.5 377L639 372L644.5 363L649 366L656 356.5L653 353.5L665 340.5L668.5 339.5L676.5 329L672 323L676.5 314.5L674.5 312L679.5 305.5L683 302L684.5 297L681.5 294.5L684.5 289.5L683 286.5L684.5 275.5L718.5 304L756.5 335L765 318V313.5L772 301.5L767 299L768.5 294.5L767 291L770 288L767 283L762 280.5L764.5 270L761 271L752 266.5L748.5 258L756 257L757.5 252.5L753.5 249.5L743 250.5H732.5L726.5 243L718 236Z" stroke="black"/>
</g>
<path d="M64.7216 610V592.545H67.8835V600.565H68.0966L74.9062 592.545H78.767L72.017 600.378L78.8267 610H75.0256L69.8182 602.517L67.8835 604.801V610H64.7216ZM79.7706 592.545H83.3416L87.6115 600.267H87.782L92.0518 592.545H95.6229L89.2734 603.489V610H86.12V603.489L79.7706 592.545Z" fill="#005A5E"/>
<circle cx="225.511" cy="471.511" r="9.01136" fill="#FF8F87" stroke="black"/>
<path d="M177.623 442.184H173.734C173.663 441.681 173.518 441.234 173.299 440.843C173.08 440.446 172.799 440.109 172.456 439.831C172.112 439.553 171.716 439.34 171.266 439.192C170.822 439.044 170.34 438.97 169.819 438.97C168.878 438.97 168.058 439.204 167.36 439.671C166.661 440.133 166.12 440.808 165.735 441.695C165.35 442.577 165.158 443.648 165.158 444.909C165.158 446.205 165.35 447.294 165.735 448.176C166.126 449.058 166.67 449.724 167.369 450.174C168.067 450.623 168.875 450.848 169.792 450.848C170.307 450.848 170.784 450.78 171.222 450.644C171.665 450.508 172.059 450.31 172.402 450.049C172.746 449.783 173.03 449.46 173.255 449.082C173.485 448.703 173.645 448.271 173.734 447.786L177.623 447.803C177.522 448.638 177.27 449.443 176.868 450.218C176.471 450.987 175.936 451.677 175.261 452.287C174.592 452.89 173.793 453.37 172.864 453.725C171.941 454.074 170.896 454.249 169.73 454.249C168.108 454.249 166.658 453.882 165.38 453.148C164.107 452.414 163.101 451.351 162.362 449.961C161.628 448.57 161.261 446.886 161.261 444.909C161.261 442.926 161.634 441.24 162.379 439.849C163.125 438.458 164.137 437.398 165.415 436.67C166.694 435.937 168.132 435.57 169.73 435.57C170.784 435.57 171.76 435.718 172.66 436.013C173.565 436.309 174.367 436.741 175.066 437.31C175.764 437.872 176.332 438.561 176.77 439.378C177.214 440.195 177.498 441.13 177.623 442.184ZM184.09 446.116V454H180.308V435.818H183.983V442.77H184.143C184.451 441.965 184.948 441.334 185.635 440.879C186.321 440.417 187.182 440.186 188.218 440.186C189.165 440.186 189.991 440.393 190.695 440.808C191.405 441.216 191.956 441.805 192.346 442.574C192.743 443.338 192.938 444.252 192.932 445.317V454H189.15V445.992C189.156 445.152 188.943 444.498 188.511 444.03C188.085 443.563 187.487 443.329 186.718 443.329C186.203 443.329 185.747 443.438 185.351 443.657C184.96 443.876 184.652 444.196 184.427 444.616C184.208 445.03 184.096 445.531 184.09 446.116ZM199.797 454.257C198.927 454.257 198.152 454.107 197.471 453.805C196.791 453.497 196.252 453.044 195.855 452.446C195.465 451.843 195.269 451.091 195.269 450.191C195.269 449.434 195.409 448.798 195.687 448.283C195.965 447.768 196.344 447.353 196.823 447.04C197.302 446.726 197.847 446.489 198.457 446.33C199.072 446.17 199.717 446.057 200.392 445.992C201.185 445.909 201.824 445.832 202.31 445.761C202.795 445.684 203.147 445.572 203.366 445.424C203.585 445.276 203.695 445.057 203.695 444.767V444.714C203.695 444.152 203.517 443.717 203.162 443.409C202.813 443.101 202.315 442.947 201.67 442.947C200.99 442.947 200.448 443.098 200.046 443.4C199.643 443.696 199.377 444.069 199.247 444.518L195.749 444.234C195.926 443.406 196.276 442.69 196.796 442.086C197.317 441.476 197.989 441.009 198.812 440.683C199.64 440.352 200.599 440.186 201.688 440.186C202.446 440.186 203.171 440.275 203.863 440.452C204.562 440.63 205.18 440.905 205.719 441.278C206.263 441.651 206.692 442.13 207.006 442.716C207.32 443.296 207.476 443.992 207.476 444.803V454H203.89V452.109H203.783C203.564 452.535 203.271 452.911 202.904 453.237C202.537 453.556 202.097 453.808 201.582 453.991C201.067 454.169 200.472 454.257 199.797 454.257ZM200.88 451.647C201.437 451.647 201.928 451.538 202.354 451.319C202.78 451.094 203.114 450.792 203.357 450.413C203.6 450.035 203.721 449.605 203.721 449.126V447.679C203.603 447.756 203.44 447.827 203.233 447.892C203.032 447.951 202.804 448.007 202.549 448.061C202.295 448.108 202.04 448.152 201.786 448.194C201.531 448.229 201.3 448.262 201.093 448.292C200.649 448.357 200.262 448.46 199.93 448.602C199.599 448.744 199.341 448.937 199.158 449.179C198.974 449.416 198.883 449.712 198.883 450.067C198.883 450.582 199.069 450.976 199.442 451.248C199.821 451.514 200.3 451.647 200.88 451.647ZM210.411 454V440.364H214.077V442.743H214.219C214.468 441.897 214.885 441.257 215.471 440.825C216.057 440.387 216.732 440.168 217.495 440.168C217.685 440.168 217.889 440.18 218.108 440.204C218.327 440.228 218.519 440.26 218.685 440.301V443.657C218.507 443.604 218.262 443.557 217.948 443.515C217.634 443.474 217.347 443.453 217.087 443.453C216.53 443.453 216.033 443.574 215.595 443.817C215.163 444.054 214.82 444.385 214.565 444.811C214.317 445.238 214.193 445.729 214.193 446.285V454H210.411ZM224.422 435.818V454H220.64V435.818H224.422ZM233.666 454.266C232.263 454.266 231.056 453.982 230.044 453.414C229.038 452.84 228.262 452.029 227.718 450.982C227.173 449.928 226.901 448.682 226.901 447.244C226.901 445.841 227.173 444.61 227.718 443.551C228.262 442.491 229.029 441.666 230.017 441.074C231.012 440.482 232.178 440.186 233.515 440.186C234.415 440.186 235.252 440.331 236.028 440.621C236.809 440.905 237.489 441.334 238.07 441.908C238.655 442.482 239.111 443.205 239.437 444.075C239.762 444.939 239.925 445.951 239.925 447.111V448.15H228.41V445.806H236.365C236.365 445.261 236.247 444.779 236.01 444.359C235.773 443.938 235.445 443.61 235.024 443.373C234.61 443.131 234.128 443.009 233.577 443.009C233.003 443.009 232.494 443.142 232.05 443.409C231.612 443.669 231.269 444.021 231.021 444.465C230.772 444.903 230.645 445.391 230.639 445.93V448.158C230.639 448.833 230.763 449.416 231.012 449.907C231.266 450.399 231.624 450.777 232.086 451.044C232.547 451.31 233.095 451.443 233.728 451.443C234.148 451.443 234.533 451.384 234.882 451.266C235.232 451.147 235.53 450.97 235.779 450.733C236.028 450.496 236.217 450.206 236.347 449.863L239.845 450.094C239.668 450.934 239.304 451.668 238.753 452.295C238.209 452.917 237.504 453.402 236.64 453.751C235.782 454.095 234.791 454.266 233.666 454.266ZM253.739 444.252L250.277 444.465C250.217 444.169 250.09 443.903 249.895 443.666C249.699 443.424 249.442 443.231 249.122 443.089C248.809 442.941 248.433 442.867 247.995 442.867C247.409 442.867 246.915 442.991 246.512 443.24C246.11 443.483 245.909 443.808 245.909 444.217C245.909 444.542 246.039 444.817 246.299 445.042C246.56 445.267 247.007 445.448 247.64 445.584L250.108 446.081C251.434 446.353 252.422 446.791 253.073 447.395C253.724 447.999 254.05 448.792 254.05 449.774C254.05 450.668 253.786 451.452 253.259 452.127C252.739 452.801 252.023 453.328 251.111 453.707C250.206 454.08 249.161 454.266 247.977 454.266C246.172 454.266 244.734 453.891 243.663 453.139C242.597 452.381 241.973 451.351 241.789 450.049L245.509 449.854C245.622 450.404 245.894 450.825 246.326 451.115C246.758 451.399 247.311 451.541 247.986 451.541C248.649 451.541 249.182 451.414 249.584 451.159C249.992 450.899 250.2 450.564 250.206 450.156C250.2 449.813 250.055 449.531 249.771 449.312C249.486 449.088 249.048 448.916 248.457 448.798L246.095 448.327C244.763 448.061 243.772 447.599 243.121 446.942C242.476 446.285 242.153 445.448 242.153 444.43C242.153 443.554 242.39 442.799 242.864 442.166C243.343 441.533 244.015 441.044 244.879 440.701C245.749 440.358 246.767 440.186 247.933 440.186C249.655 440.186 251.01 440.55 251.999 441.278C252.993 442.006 253.573 442.997 253.739 444.252ZM263.684 440.364V443.205H255.472V440.364H263.684ZM257.337 437.097H261.119V449.81C261.119 450.159 261.172 450.431 261.278 450.626C261.385 450.816 261.533 450.949 261.722 451.026C261.918 451.103 262.143 451.141 262.397 451.141C262.575 451.141 262.752 451.127 262.93 451.097C263.107 451.061 263.243 451.035 263.338 451.017L263.933 453.831C263.743 453.891 263.477 453.959 263.134 454.036C262.791 454.118 262.373 454.169 261.882 454.186C260.971 454.222 260.172 454.101 259.485 453.822C258.804 453.544 258.275 453.112 257.896 452.526C257.517 451.94 257.331 451.201 257.337 450.307V437.097ZM272.163 454.266C270.784 454.266 269.591 453.973 268.585 453.387C267.585 452.796 266.812 451.973 266.268 450.919C265.723 449.86 265.451 448.632 265.451 447.235C265.451 445.826 265.723 444.595 266.268 443.542C266.812 442.482 267.585 441.66 268.585 441.074C269.591 440.482 270.784 440.186 272.163 440.186C273.542 440.186 274.731 440.482 275.732 441.074C276.738 441.66 277.513 442.482 278.058 443.542C278.602 444.595 278.874 445.826 278.874 447.235C278.874 448.632 278.602 449.86 278.058 450.919C277.513 451.973 276.738 452.796 275.732 453.387C274.731 453.973 273.542 454.266 272.163 454.266ZM272.18 451.337C272.808 451.337 273.332 451.159 273.752 450.804C274.172 450.443 274.489 449.952 274.702 449.33C274.921 448.709 275.03 448.002 275.03 447.208C275.03 446.415 274.921 445.708 274.702 445.087C274.489 444.465 274.172 443.974 273.752 443.613C273.332 443.252 272.808 443.071 272.18 443.071C271.547 443.071 271.014 443.252 270.582 443.613C270.156 443.974 269.834 444.465 269.615 445.087C269.402 445.708 269.295 446.415 269.295 447.208C269.295 448.002 269.402 448.709 269.615 449.33C269.834 449.952 270.156 450.443 270.582 450.804C271.014 451.159 271.547 451.337 272.18 451.337ZM285.115 446.116V454H281.333V440.364H284.938V442.77H285.098C285.4 441.976 285.906 441.349 286.616 440.887C287.326 440.42 288.187 440.186 289.199 440.186C290.146 440.186 290.972 440.393 291.676 440.808C292.38 441.222 292.928 441.814 293.319 442.583C293.709 443.347 293.904 444.258 293.904 445.317V454H290.123V445.992C290.128 445.158 289.915 444.507 289.483 444.039C289.051 443.566 288.456 443.329 287.699 443.329C287.19 443.329 286.74 443.438 286.349 443.657C285.965 443.876 285.663 444.196 285.444 444.616C285.231 445.03 285.121 445.531 285.115 446.116Z" fill="black"/>
<path d="M246.202 610V591.818H252.558C253.825 591.818 254.869 592.037 255.692 592.475C256.515 592.907 257.127 593.49 257.53 594.224C257.932 594.952 258.134 595.76 258.134 596.648C258.134 597.429 257.994 598.074 257.716 598.583C257.444 599.092 257.083 599.495 256.633 599.79C256.189 600.086 255.707 600.305 255.186 600.447V600.625C255.742 600.661 256.302 600.856 256.864 601.211C257.426 601.566 257.897 602.075 258.276 602.738C258.654 603.401 258.844 604.212 258.844 605.17C258.844 606.082 258.637 606.902 258.222 607.63C257.808 608.358 257.154 608.935 256.26 609.361C255.367 609.787 254.204 610 252.771 610H246.202ZM248.403 608.047H252.771C254.21 608.047 255.23 607.769 255.834 607.212C256.444 606.65 256.749 605.969 256.749 605.17C256.749 604.555 256.592 603.987 256.278 603.466C255.964 602.939 255.518 602.519 254.938 602.205C254.357 601.886 253.671 601.726 252.878 601.726H248.403V608.047ZM248.403 599.808H252.487C253.15 599.808 253.748 599.678 254.281 599.418C254.819 599.157 255.245 598.79 255.559 598.317C255.879 597.843 256.038 597.287 256.038 596.648C256.038 595.849 255.76 595.171 255.204 594.615C254.647 594.052 253.766 593.771 252.558 593.771H248.403V599.808ZM267.895 610.284C266.581 610.284 265.447 609.994 264.494 609.414C263.548 608.828 262.817 608.011 262.302 606.964C261.793 605.91 261.538 604.685 261.538 603.288C261.538 601.892 261.793 600.661 262.302 599.595C262.817 598.524 263.533 597.689 264.45 597.092C265.373 596.488 266.451 596.186 267.682 596.186C268.392 596.186 269.093 596.304 269.786 596.541C270.478 596.778 271.108 597.163 271.677 597.695C272.245 598.222 272.698 598.92 273.035 599.79C273.372 600.661 273.541 601.732 273.541 603.004V603.892H263.03V602.081H271.41C271.41 601.312 271.256 600.625 270.949 600.021C270.647 599.418 270.215 598.941 269.653 598.592C269.096 598.243 268.439 598.068 267.682 598.068C266.847 598.068 266.125 598.275 265.515 598.69C264.912 599.098 264.447 599.631 264.122 600.288C263.796 600.945 263.633 601.649 263.633 602.401V603.608C263.633 604.638 263.811 605.511 264.166 606.227C264.527 606.937 265.027 607.479 265.666 607.852C266.306 608.219 267.048 608.402 267.895 608.402C268.445 608.402 268.942 608.325 269.386 608.171C269.836 608.011 270.224 607.775 270.549 607.461C270.875 607.141 271.126 606.745 271.304 606.271L273.328 606.839C273.115 607.526 272.757 608.13 272.254 608.651C271.751 609.165 271.129 609.568 270.389 609.858C269.65 610.142 268.818 610.284 267.895 610.284ZM282.268 610.284C280.99 610.284 279.889 609.982 278.965 609.379C278.042 608.775 277.332 607.943 276.835 606.884C276.338 605.824 276.089 604.614 276.089 603.253C276.089 601.868 276.343 600.646 276.852 599.586C277.367 598.521 278.084 597.689 279.001 597.092C279.924 596.488 281.001 596.186 282.232 596.186C283.191 596.186 284.055 596.364 284.825 596.719C285.594 597.074 286.224 597.571 286.716 598.21C287.207 598.849 287.512 599.595 287.63 600.447H285.535C285.375 599.826 285.02 599.276 284.47 598.796C283.925 598.311 283.191 598.068 282.268 598.068C281.451 598.068 280.735 598.281 280.119 598.707C279.51 599.128 279.033 599.722 278.69 600.492C278.353 601.255 278.184 602.152 278.184 603.182C278.184 604.235 278.35 605.153 278.681 605.934C279.019 606.715 279.492 607.322 280.102 607.754C280.717 608.186 281.439 608.402 282.268 608.402C282.812 608.402 283.307 608.307 283.751 608.118C284.194 607.929 284.57 607.656 284.878 607.301C285.186 606.946 285.405 606.52 285.535 606.023H287.63C287.512 606.828 287.219 607.553 286.751 608.198C286.29 608.837 285.677 609.346 284.914 609.725C284.156 610.098 283.274 610.284 282.268 610.284ZM292.646 605.028L292.611 602.436H293.037L299.003 596.364H301.595L295.238 602.791H295.061L292.646 605.028ZM290.693 610V591.818H292.788V610H290.693ZM299.358 610L294.031 603.253L295.523 601.797L302.021 610H299.358ZM306.387 591.818V610H304.292V591.818H306.387ZM315.942 610.284C314.628 610.284 313.494 609.994 312.541 609.414C311.594 608.828 310.863 608.011 310.349 606.964C309.84 605.91 309.585 604.685 309.585 603.288C309.585 601.892 309.84 600.661 310.349 599.595C310.863 598.524 311.58 597.689 312.497 597.092C313.42 596.488 314.497 596.186 315.729 596.186C316.439 596.186 317.14 596.304 317.833 596.541C318.525 596.778 319.155 597.163 319.724 597.695C320.292 598.222 320.744 598.92 321.082 599.79C321.419 600.661 321.588 601.732 321.588 603.004V603.892H311.077V602.081H319.457C319.457 601.312 319.303 600.625 318.996 600.021C318.694 599.418 318.262 598.941 317.699 598.592C317.143 598.243 316.486 598.068 315.729 598.068C314.894 598.068 314.172 598.275 313.562 598.69C312.959 599.098 312.494 599.631 312.169 600.288C311.843 600.945 311.68 601.649 311.68 602.401V603.608C311.68 604.638 311.858 605.511 312.213 606.227C312.574 606.937 313.074 607.479 313.713 607.852C314.352 608.219 315.095 608.402 315.942 608.402C316.492 608.402 316.989 608.325 317.433 608.171C317.883 608.011 318.271 607.775 318.596 607.461C318.922 607.141 319.173 606.745 319.351 606.271L321.375 606.839C321.162 607.526 320.804 608.13 320.301 608.651C319.798 609.165 319.176 609.568 318.436 609.858C317.696 610.142 316.865 610.284 315.942 610.284ZM325.709 615.114C325.354 615.114 325.038 615.084 324.759 615.025C324.481 614.972 324.289 614.918 324.182 614.865L324.715 613.018C325.224 613.149 325.674 613.196 326.065 613.161C326.455 613.125 326.801 612.95 327.103 612.637C327.411 612.329 327.692 611.829 327.947 611.136L328.337 610.071L323.295 596.364H325.567L329.332 607.23H329.474L333.238 596.364H335.511L329.722 611.989C329.462 612.693 329.139 613.276 328.755 613.738C328.37 614.205 327.923 614.551 327.414 614.776C326.911 615.001 326.343 615.114 325.709 615.114Z" fill="black"/>
<path d="M148.202 540V521.818H159.104V523.771H150.403V529.915H158.287V531.868H150.403V540H148.202ZM166.603 540.32C165.739 540.32 164.955 540.157 164.251 539.831C163.546 539.5 162.987 539.023 162.573 538.402C162.158 537.775 161.951 537.017 161.951 536.129C161.951 535.348 162.105 534.715 162.413 534.229C162.721 533.738 163.132 533.353 163.647 533.075C164.162 532.797 164.73 532.59 165.351 532.454C165.979 532.312 166.609 532.199 167.242 532.116C168.071 532.01 168.743 531.93 169.258 531.877C169.779 531.818 170.157 531.72 170.394 531.584C170.637 531.448 170.758 531.211 170.758 530.874V530.803C170.758 529.927 170.518 529.246 170.039 528.761C169.565 528.275 168.846 528.033 167.882 528.033C166.881 528.033 166.097 528.252 165.529 528.69C164.961 529.128 164.561 529.595 164.331 530.092L162.342 529.382C162.697 528.554 163.17 527.908 163.762 527.447C164.36 526.979 165.011 526.654 165.715 526.47C166.426 526.281 167.124 526.186 167.811 526.186C168.249 526.186 168.752 526.239 169.32 526.346C169.894 526.446 170.447 526.657 170.98 526.976C171.519 527.296 171.965 527.778 172.321 528.423C172.676 529.068 172.853 529.933 172.853 531.016V540H170.758V538.153H170.652C170.509 538.449 170.273 538.766 169.941 539.103C169.61 539.441 169.169 539.728 168.619 539.964C168.068 540.201 167.396 540.32 166.603 540.32ZM166.923 538.438C167.751 538.438 168.45 538.275 169.018 537.949C169.592 537.624 170.024 537.203 170.314 536.689C170.61 536.174 170.758 535.632 170.758 535.064V533.146C170.669 533.253 170.474 533.35 170.172 533.439C169.876 533.522 169.533 533.596 169.142 533.661C168.758 533.72 168.382 533.774 168.015 533.821C167.654 533.862 167.361 533.898 167.136 533.928C166.591 533.999 166.082 534.114 165.609 534.274C165.141 534.428 164.763 534.661 164.473 534.975C164.188 535.283 164.046 535.703 164.046 536.236C164.046 536.964 164.316 537.514 164.854 537.887C165.399 538.254 166.088 538.438 166.923 538.438ZM177.539 545.114C177.183 545.114 176.867 545.084 176.589 545.025C176.31 544.972 176.118 544.918 176.012 544.865L176.544 543.018C177.053 543.149 177.503 543.196 177.894 543.161C178.284 543.125 178.631 542.95 178.932 542.637C179.24 542.329 179.521 541.829 179.776 541.136L180.166 540.071L175.124 526.364H177.396L181.161 537.23H181.303L185.067 526.364H187.34L181.551 541.989C181.291 542.693 180.968 543.276 180.584 543.738C180.199 544.205 179.752 544.551 179.243 544.776C178.74 545.001 178.172 545.114 177.539 545.114ZM195.334 540.284C194.02 540.284 192.887 539.994 191.934 539.414C190.987 538.828 190.256 538.011 189.741 536.964C189.232 535.91 188.978 534.685 188.978 533.288C188.978 531.892 189.232 530.661 189.741 529.595C190.256 528.524 190.972 527.689 191.89 527.092C192.813 526.488 193.89 526.186 195.121 526.186C195.831 526.186 196.533 526.304 197.225 526.541C197.918 526.778 198.548 527.163 199.116 527.695C199.684 528.222 200.137 528.92 200.474 529.79C200.812 530.661 200.98 531.732 200.98 533.004V533.892H190.469V532.081H198.85C198.85 531.312 198.696 530.625 198.388 530.021C198.086 529.418 197.654 528.941 197.092 528.592C196.536 528.243 195.879 528.068 195.121 528.068C194.287 528.068 193.565 528.275 192.955 528.69C192.351 529.098 191.887 529.631 191.561 530.288C191.236 530.945 191.073 531.649 191.073 532.401V533.608C191.073 534.638 191.25 535.511 191.605 536.227C191.967 536.937 192.467 537.479 193.106 537.852C193.745 538.219 194.488 538.402 195.334 538.402C195.885 538.402 196.382 538.325 196.826 538.171C197.275 538.011 197.663 537.775 197.989 537.461C198.314 537.141 198.566 536.745 198.743 536.271L200.767 536.839C200.554 537.526 200.196 538.13 199.693 538.651C199.19 539.165 198.569 539.568 197.829 539.858C197.089 540.142 196.257 540.284 195.334 540.284ZM210.098 526.364V528.139H203.031V526.364H210.098ZM205.091 523.097H207.186V536.094C207.186 536.686 207.272 537.129 207.444 537.425C207.621 537.715 207.846 537.911 208.118 538.011C208.396 538.106 208.689 538.153 208.997 538.153C209.228 538.153 209.417 538.142 209.565 538.118C209.713 538.088 209.832 538.065 209.92 538.047L210.347 539.929C210.205 539.982 210.006 540.036 209.752 540.089C209.497 540.148 209.175 540.178 208.784 540.178C208.192 540.178 207.612 540.05 207.044 539.796C206.482 539.541 206.014 539.154 205.641 538.633C205.274 538.112 205.091 537.455 205.091 536.662V523.097ZM219.18 526.364V528.139H212.113V526.364H219.18ZM214.173 523.097H216.268V536.094C216.268 536.686 216.354 537.129 216.526 537.425C216.703 537.715 216.928 537.911 217.2 538.011C217.478 538.106 217.771 538.153 218.079 538.153C218.31 538.153 218.499 538.142 218.647 538.118C218.795 538.088 218.914 538.065 219.002 538.047L219.429 539.929C219.287 539.982 219.088 540.036 218.834 540.089C218.579 540.148 218.257 540.178 217.866 540.178C217.274 540.178 216.694 540.05 216.126 539.796C215.564 539.541 215.096 539.154 214.723 538.633C214.356 538.112 214.173 537.455 214.173 536.662V523.097ZM227.903 540.284C226.589 540.284 225.455 539.994 224.502 539.414C223.555 538.828 222.824 538.011 222.309 536.964C221.8 535.91 221.546 534.685 221.546 533.288C221.546 531.892 221.8 530.661 222.309 529.595C222.824 528.524 223.541 527.689 224.458 527.092C225.381 526.488 226.458 526.186 227.689 526.186C228.4 526.186 229.101 526.304 229.794 526.541C230.486 526.778 231.116 527.163 231.684 527.695C232.253 528.222 232.705 528.92 233.043 529.79C233.38 530.661 233.549 531.732 233.549 533.004V533.892H223.037V532.081H231.418C231.418 531.312 231.264 530.625 230.956 530.021C230.655 529.418 230.223 528.941 229.66 528.592C229.104 528.243 228.447 528.068 227.689 528.068C226.855 528.068 226.133 528.275 225.523 528.69C224.92 529.098 224.455 529.631 224.129 530.288C223.804 530.945 223.641 531.649 223.641 532.401V533.608C223.641 534.638 223.819 535.511 224.174 536.227C224.535 536.937 225.035 537.479 225.674 537.852C226.313 538.219 227.056 538.402 227.903 538.402C228.453 538.402 228.95 538.325 229.394 538.171C229.844 538.011 230.231 537.775 230.557 537.461C230.883 537.141 231.134 536.745 231.312 536.271L233.336 536.839C233.123 537.526 232.765 538.13 232.262 538.651C231.758 539.165 231.137 539.568 230.397 539.858C229.657 540.142 228.826 540.284 227.903 540.284ZM247.472 526.364L242.429 540H240.298L235.256 526.364H237.528L241.293 537.23H241.435L245.199 526.364H247.472ZM250.237 540V526.364H252.332V540H250.237ZM251.302 524.091C250.894 524.091 250.542 523.952 250.246 523.674C249.956 523.395 249.811 523.061 249.811 522.67C249.811 522.28 249.956 521.945 250.246 521.667C250.542 521.389 250.894 521.25 251.302 521.25C251.711 521.25 252.06 521.389 252.35 521.667C252.646 521.945 252.794 522.28 252.794 522.67C252.794 523.061 252.646 523.395 252.35 523.674C252.06 523.952 251.711 524.091 251.302 524.091ZM258.265 521.818V540H256.17V521.818H258.265ZM264.197 521.818V540H262.102V521.818H264.197ZM273.752 540.284C272.438 540.284 271.305 539.994 270.352 539.414C269.405 538.828 268.674 538.011 268.159 536.964C267.65 535.91 267.396 534.685 267.396 533.288C267.396 531.892 267.65 530.661 268.159 529.595C268.674 528.524 269.39 527.689 270.308 527.092C271.231 526.488 272.308 526.186 273.539 526.186C274.249 526.186 274.951 526.304 275.643 526.541C276.336 526.778 276.966 527.163 277.534 527.695C278.102 528.222 278.555 528.92 278.892 529.79C279.23 530.661 279.398 531.732 279.398 533.004V533.892H268.887V532.081H277.268C277.268 531.312 277.114 530.625 276.806 530.021C276.504 529.418 276.072 528.941 275.51 528.592C274.954 528.243 274.297 528.068 273.539 528.068C272.705 528.068 271.982 528.275 271.373 528.69C270.769 529.098 270.305 529.631 269.979 530.288C269.654 530.945 269.491 531.649 269.491 532.401V533.608C269.491 534.638 269.668 535.511 270.023 536.227C270.384 536.937 270.885 537.479 271.524 537.852C272.163 538.219 272.906 538.402 273.752 538.402C274.303 538.402 274.8 538.325 275.244 538.171C275.693 538.011 276.081 537.775 276.407 537.461C276.732 537.141 276.984 536.745 277.161 536.271L279.185 536.839C278.972 537.526 278.614 538.13 278.111 538.651C277.608 539.165 276.987 539.568 276.247 539.858C275.507 540.142 274.675 540.284 273.752 540.284Z" fill="black"/>
<path d="M217.202 350V331.818H223.345C224.772 331.818 225.938 332.076 226.843 332.591C227.754 333.1 228.429 333.789 228.867 334.659C229.305 335.529 229.524 336.5 229.524 337.571C229.524 338.642 229.305 339.616 228.867 340.492C228.435 341.368 227.766 342.066 226.861 342.587C225.955 343.102 224.795 343.359 223.381 343.359H218.977V341.406H223.31C224.286 341.406 225.07 341.238 225.662 340.9C226.254 340.563 226.683 340.107 226.95 339.533C227.222 338.953 227.358 338.299 227.358 337.571C227.358 336.843 227.222 336.192 226.95 335.618C226.683 335.044 226.251 334.594 225.653 334.268C225.056 333.937 224.263 333.771 223.274 333.771H219.403V350H217.202ZM236.8 350.32C235.935 350.32 235.151 350.157 234.447 349.831C233.743 349.5 233.183 349.023 232.769 348.402C232.355 347.775 232.148 347.017 232.148 346.129C232.148 345.348 232.301 344.715 232.609 344.229C232.917 343.738 233.328 343.353 233.843 343.075C234.358 342.797 234.926 342.59 235.548 342.454C236.175 342.312 236.805 342.199 237.439 342.116C238.267 342.01 238.939 341.93 239.454 341.877C239.975 341.818 240.354 341.72 240.59 341.584C240.833 341.448 240.954 341.211 240.954 340.874V340.803C240.954 339.927 240.715 339.246 240.235 338.761C239.762 338.275 239.043 338.033 238.078 338.033C237.078 338.033 236.294 338.252 235.725 338.69C235.157 339.128 234.758 339.595 234.527 340.092L232.538 339.382C232.893 338.554 233.367 337.908 233.959 337.447C234.556 336.979 235.207 336.654 235.912 336.47C236.622 336.281 237.32 336.186 238.007 336.186C238.445 336.186 238.948 336.239 239.516 336.346C240.09 336.446 240.644 336.657 241.176 336.976C241.715 337.296 242.162 337.778 242.517 338.423C242.872 339.068 243.05 339.933 243.05 341.016V350H240.954V348.153H240.848C240.706 348.449 240.469 348.766 240.138 349.103C239.806 349.441 239.365 349.728 238.815 349.964C238.264 350.201 237.593 350.32 236.8 350.32ZM237.119 348.438C237.948 348.438 238.646 348.275 239.214 347.949C239.788 347.624 240.22 347.203 240.51 346.689C240.806 346.174 240.954 345.632 240.954 345.064V343.146C240.866 343.253 240.67 343.35 240.368 343.439C240.073 343.522 239.729 343.596 239.339 343.661C238.954 343.72 238.578 343.774 238.211 343.821C237.85 343.862 237.557 343.898 237.332 343.928C236.788 343.999 236.279 344.114 235.805 344.274C235.338 344.428 234.959 344.661 234.669 344.975C234.385 345.283 234.243 345.703 234.243 346.236C234.243 346.964 234.512 347.514 235.051 347.887C235.595 348.254 236.285 348.438 237.119 348.438ZM246.874 350V336.364H248.898V338.423H249.04C249.288 337.749 249.738 337.201 250.389 336.781C251.04 336.361 251.774 336.151 252.591 336.151C252.745 336.151 252.937 336.154 253.168 336.159C253.399 336.165 253.573 336.174 253.692 336.186V338.317C253.621 338.299 253.458 338.272 253.204 338.237C252.955 338.195 252.692 338.175 252.413 338.175C251.751 338.175 251.159 338.314 250.638 338.592C250.123 338.864 249.715 339.243 249.413 339.728C249.117 340.208 248.969 340.755 248.969 341.371V350H246.874ZM258.129 345.028L258.093 342.436H258.519L264.485 336.364H267.077L260.721 342.791H260.543L258.129 345.028ZM256.175 350V331.818H258.271V350H256.175ZM264.84 350L259.513 343.253L261.005 341.797L267.504 350H264.84ZM274.93 350.284C273.616 350.284 272.483 349.994 271.53 349.414C270.583 348.828 269.852 348.011 269.337 346.964C268.828 345.91 268.573 344.685 268.573 343.288C268.573 341.892 268.828 340.661 269.337 339.595C269.852 338.524 270.568 337.689 271.485 337.092C272.409 336.488 273.486 336.186 274.717 336.186C275.427 336.186 276.128 336.304 276.821 336.541C277.513 336.778 278.144 337.163 278.712 337.695C279.28 338.222 279.733 338.92 280.07 339.79C280.407 340.661 280.576 341.732 280.576 343.004V343.892H270.065V342.081H278.445C278.445 341.312 278.292 340.625 277.984 340.021C277.682 339.418 277.25 338.941 276.688 338.592C276.131 338.243 275.474 338.068 274.717 338.068C273.882 338.068 273.16 338.275 272.551 338.69C271.947 339.098 271.482 339.631 271.157 340.288C270.831 340.945 270.669 341.649 270.669 342.401V343.608C270.669 344.638 270.846 345.511 271.201 346.227C271.562 346.937 272.062 347.479 272.702 347.852C273.341 348.219 274.084 348.402 274.93 348.402C275.48 348.402 275.977 348.325 276.421 348.171C276.871 348.011 277.259 347.775 277.584 347.461C277.91 347.141 278.161 346.745 278.339 346.271L280.363 346.839C280.15 347.526 279.792 348.13 279.289 348.651C278.786 349.165 278.164 349.568 277.425 349.858C276.685 350.142 275.853 350.284 274.93 350.284ZM283.763 350V336.364H285.787V338.423H285.93C286.178 337.749 286.628 337.201 287.279 336.781C287.93 336.361 288.664 336.151 289.481 336.151C289.635 336.151 289.827 336.154 290.058 336.159C290.289 336.165 290.463 336.174 290.581 336.186V338.317C290.51 338.299 290.348 338.272 290.093 338.237C289.845 338.195 289.581 338.175 289.303 338.175C288.64 338.175 288.048 338.314 287.528 338.592C287.013 338.864 286.604 339.243 286.302 339.728C286.006 340.208 285.858 340.755 285.858 341.371V350H283.763ZM302.724 339.418L300.842 339.95C300.724 339.637 300.549 339.332 300.318 339.036C300.093 338.734 299.786 338.485 299.395 338.29C299.004 338.095 298.504 337.997 297.895 337.997C297.06 337.997 296.365 338.19 295.808 338.574C295.258 338.953 294.983 339.435 294.983 340.021C294.983 340.542 295.172 340.953 295.551 341.255C295.93 341.557 296.522 341.809 297.326 342.01L299.351 342.507C300.57 342.803 301.478 343.256 302.076 343.865C302.674 344.469 302.973 345.247 302.973 346.2C302.973 346.982 302.748 347.68 302.298 348.295C301.854 348.911 301.233 349.396 300.434 349.751C299.635 350.107 298.705 350.284 297.646 350.284C296.255 350.284 295.104 349.982 294.193 349.379C293.281 348.775 292.704 347.893 292.461 346.733L294.45 346.236C294.639 346.97 294.997 347.52 295.524 347.887C296.057 348.254 296.752 348.438 297.611 348.438C298.587 348.438 299.362 348.23 299.937 347.816C300.517 347.396 300.807 346.893 300.807 346.307C300.807 345.833 300.641 345.437 300.309 345.117C299.978 344.792 299.469 344.549 298.782 344.389L296.51 343.857C295.261 343.561 294.343 343.102 293.758 342.48C293.178 341.853 292.888 341.069 292.888 340.128C292.888 339.358 293.104 338.678 293.536 338.086C293.974 337.494 294.568 337.029 295.32 336.692C296.078 336.355 296.936 336.186 297.895 336.186C299.244 336.186 300.303 336.482 301.073 337.074C301.848 337.666 302.399 338.447 302.724 339.418ZM306.411 350V331.818H308.506V338.53H308.683C308.837 338.293 309.05 337.991 309.323 337.624C309.601 337.251 309.997 336.92 310.512 336.63C311.033 336.334 311.737 336.186 312.625 336.186C313.773 336.186 314.785 336.473 315.661 337.047C316.537 337.621 317.221 338.435 317.712 339.489C318.203 340.542 318.449 341.785 318.449 343.217C318.449 344.661 318.203 345.913 317.712 346.973C317.221 348.026 316.54 348.843 315.67 349.423C314.8 349.997 313.797 350.284 312.661 350.284C311.785 350.284 311.083 350.139 310.557 349.849C310.03 349.553 309.624 349.219 309.34 348.846C309.056 348.467 308.837 348.153 308.683 347.905H308.435V350H306.411ZM308.47 343.182C308.47 344.212 308.621 345.12 308.923 345.907C309.225 346.689 309.666 347.301 310.246 347.745C310.826 348.183 311.536 348.402 312.377 348.402C313.253 348.402 313.983 348.171 314.569 347.71C315.161 347.242 315.605 346.615 315.901 345.827C316.203 345.034 316.354 344.152 316.354 343.182C316.354 342.223 316.206 341.359 315.91 340.589C315.62 339.814 315.179 339.202 314.587 338.752C314.001 338.296 313.264 338.068 312.377 338.068C311.524 338.068 310.808 338.284 310.228 338.716C309.648 339.142 309.21 339.74 308.914 340.51C308.618 341.273 308.47 342.164 308.47 343.182ZM330.248 344.425V336.364H332.343V350H330.248V347.692H330.106C329.786 348.384 329.289 348.973 328.614 349.458C327.939 349.938 327.087 350.178 326.057 350.178C325.205 350.178 324.448 349.991 323.785 349.618C323.122 349.239 322.601 348.671 322.222 347.914C321.843 347.15 321.654 346.188 321.654 345.028V336.364H323.749V344.886C323.749 345.881 324.027 346.674 324.584 347.266C325.146 347.857 325.862 348.153 326.732 348.153C327.253 348.153 327.783 348.02 328.321 347.754C328.866 347.488 329.321 347.079 329.688 346.529C330.061 345.978 330.248 345.277 330.248 344.425ZM336.18 350V336.364H338.204V338.423H338.347C338.595 337.749 339.045 337.201 339.696 336.781C340.347 336.361 341.081 336.151 341.898 336.151C342.052 336.151 342.244 336.154 342.475 336.159C342.706 336.165 342.88 336.174 342.998 336.186V338.317C342.927 338.299 342.765 338.272 342.51 338.237C342.262 338.195 341.998 338.175 341.72 338.175C341.057 338.175 340.465 338.314 339.945 338.592C339.43 338.864 339.021 339.243 338.719 339.728C338.423 340.208 338.275 340.755 338.275 341.371V350H336.18ZM350.571 355.398C349.559 355.398 348.689 355.268 347.961 355.007C347.233 354.753 346.627 354.415 346.141 353.995C345.662 353.581 345.28 353.137 344.996 352.663L346.665 351.491C346.854 351.74 347.094 352.024 347.384 352.344C347.674 352.669 348.071 352.95 348.574 353.187C349.083 353.43 349.749 353.551 350.571 353.551C351.672 353.551 352.581 353.285 353.297 352.752C354.013 352.219 354.371 351.385 354.371 350.249V347.479H354.193C354.04 347.727 353.821 348.035 353.536 348.402C353.258 348.763 352.856 349.086 352.329 349.37C351.808 349.648 351.104 349.787 350.216 349.787C349.115 349.787 348.127 349.527 347.251 349.006C346.381 348.485 345.691 347.727 345.182 346.733C344.679 345.739 344.428 344.531 344.428 343.111C344.428 341.714 344.673 340.498 345.165 339.462C345.656 338.42 346.34 337.615 347.215 337.047C348.091 336.473 349.103 336.186 350.252 336.186C351.139 336.186 351.844 336.334 352.365 336.63C352.891 336.92 353.294 337.251 353.572 337.624C353.856 337.991 354.075 338.293 354.229 338.53H354.442V336.364H356.466V350.391C356.466 351.562 356.2 352.515 355.667 353.249C355.14 353.989 354.43 354.531 353.536 354.874C352.649 355.223 351.66 355.398 350.571 355.398ZM350.5 347.905C351.341 347.905 352.051 347.712 352.631 347.328C353.211 346.943 353.652 346.39 353.954 345.668C354.256 344.946 354.407 344.081 354.407 343.075C354.407 342.093 354.259 341.226 353.963 340.474C353.667 339.722 353.229 339.134 352.649 338.707C352.069 338.281 351.353 338.068 350.5 338.068C349.612 338.068 348.873 338.293 348.281 338.743C347.695 339.193 347.254 339.796 346.958 340.554C346.668 341.312 346.523 342.152 346.523 343.075C346.523 344.022 346.671 344.86 346.967 345.588C347.269 346.31 347.713 346.878 348.299 347.292C348.89 347.701 349.624 347.905 350.5 347.905Z" fill="black"/>
<path d="M369.202 259.818H371.83L378.009 274.911H378.222L384.401 259.818H387.028V278H384.969V264.186H384.791L379.109 278H377.121L371.439 264.186H371.261V278H369.202V259.818ZM396.699 278.284C395.468 278.284 394.387 277.991 393.458 277.405C392.535 276.819 391.813 276 391.292 274.946C390.777 273.893 390.52 272.661 390.52 271.253C390.52 269.832 390.777 268.592 391.292 267.533C391.813 266.474 392.535 265.651 393.458 265.065C394.387 264.479 395.468 264.186 396.699 264.186C397.93 264.186 399.007 264.479 399.93 265.065C400.859 265.651 401.581 266.474 402.096 267.533C402.617 268.592 402.878 269.832 402.878 271.253C402.878 272.661 402.617 273.893 402.096 274.946C401.581 276 400.859 276.819 399.93 277.405C399.007 277.991 397.93 278.284 396.699 278.284ZM396.699 276.402C397.634 276.402 398.403 276.162 399.007 275.683C399.611 275.203 400.057 274.573 400.347 273.792C400.637 273.011 400.782 272.164 400.782 271.253C400.782 270.341 400.637 269.492 400.347 268.705C400.057 267.918 399.611 267.281 399.007 266.796C398.403 266.311 397.634 266.068 396.699 266.068C395.763 266.068 394.994 266.311 394.39 266.796C393.787 267.281 393.34 267.918 393.05 268.705C392.76 269.492 392.615 270.341 392.615 271.253C392.615 272.164 392.76 273.011 393.05 273.792C393.34 274.573 393.787 275.203 394.39 275.683C394.994 276.162 395.763 276.402 396.699 276.402ZM406.076 278V264.364H408.1V266.423H408.242C408.491 265.749 408.94 265.201 409.591 264.781C410.242 264.361 410.976 264.151 411.793 264.151C411.947 264.151 412.139 264.154 412.37 264.159C412.601 264.165 412.776 264.174 412.894 264.186V266.317C412.823 266.299 412.66 266.272 412.406 266.237C412.157 266.195 411.894 266.175 411.616 266.175C410.953 266.175 410.361 266.314 409.84 266.592C409.325 266.864 408.917 267.243 408.615 267.728C408.319 268.208 408.171 268.755 408.171 269.371V278H406.076ZM420.467 283.398C419.455 283.398 418.585 283.268 417.857 283.007C417.129 282.753 416.522 282.415 416.037 281.995C415.557 281.581 415.176 281.137 414.892 280.663L416.561 279.491C416.75 279.74 416.99 280.024 417.28 280.344C417.57 280.669 417.966 280.95 418.469 281.187C418.978 281.43 419.644 281.551 420.467 281.551C421.568 281.551 422.476 281.285 423.192 280.752C423.908 280.219 424.267 279.385 424.267 278.249V275.479H424.089C423.935 275.727 423.716 276.035 423.432 276.402C423.154 276.763 422.751 277.086 422.225 277.37C421.704 277.648 420.999 277.787 420.112 277.787C419.011 277.787 418.022 277.527 417.146 277.006C416.276 276.485 415.587 275.727 415.078 274.733C414.575 273.739 414.323 272.531 414.323 271.111C414.323 269.714 414.569 268.498 415.06 267.462C415.551 266.42 416.235 265.615 417.111 265.047C417.987 264.473 418.999 264.186 420.147 264.186C421.035 264.186 421.739 264.334 422.26 264.63C422.787 264.92 423.189 265.251 423.468 265.624C423.752 265.991 423.971 266.293 424.124 266.53H424.338V264.364H426.362V278.391C426.362 279.562 426.095 280.515 425.563 281.249C425.036 281.989 424.326 282.531 423.432 282.874C422.544 283.223 421.556 283.398 420.467 283.398ZM420.396 275.905C421.236 275.905 421.946 275.712 422.526 275.328C423.106 274.943 423.547 274.39 423.849 273.668C424.151 272.946 424.302 272.081 424.302 271.075C424.302 270.093 424.154 269.226 423.858 268.474C423.562 267.722 423.124 267.134 422.544 266.707C421.964 266.281 421.248 266.068 420.396 266.068C419.508 266.068 418.768 266.293 418.176 266.743C417.59 267.193 417.149 267.796 416.854 268.554C416.564 269.312 416.419 270.152 416.419 271.075C416.419 272.022 416.566 272.86 416.862 273.588C417.164 274.31 417.608 274.878 418.194 275.292C418.786 275.701 419.52 275.905 420.396 275.905ZM434.21 278.32C433.346 278.32 432.561 278.157 431.857 277.831C431.153 277.5 430.593 277.023 430.179 276.402C429.765 275.775 429.558 275.017 429.558 274.129C429.558 273.348 429.712 272.715 430.019 272.229C430.327 271.738 430.738 271.353 431.253 271.075C431.768 270.797 432.336 270.59 432.958 270.454C433.585 270.312 434.216 270.199 434.849 270.116C435.677 270.01 436.349 269.93 436.864 269.877C437.385 269.818 437.764 269.72 438.001 269.584C438.243 269.448 438.365 269.211 438.365 268.874V268.803C438.365 267.927 438.125 267.246 437.645 266.761C437.172 266.275 436.453 266.033 435.488 266.033C434.488 266.033 433.704 266.252 433.135 266.69C432.567 267.128 432.168 267.595 431.937 268.092L429.948 267.382C430.303 266.554 430.777 265.908 431.369 265.447C431.967 264.979 432.618 264.654 433.322 264.47C434.032 264.281 434.731 264.186 435.417 264.186C435.855 264.186 436.358 264.239 436.926 264.346C437.5 264.446 438.054 264.657 438.586 264.976C439.125 265.296 439.572 265.778 439.927 266.423C440.282 267.068 440.46 267.933 440.46 269.016V278H438.365V276.153H438.258C438.116 276.449 437.879 276.766 437.548 277.103C437.216 277.441 436.775 277.728 436.225 277.964C435.675 278.201 435.003 278.32 434.21 278.32ZM434.529 276.438C435.358 276.438 436.056 276.275 436.624 275.949C437.199 275.624 437.631 275.203 437.921 274.689C438.217 274.174 438.365 273.632 438.365 273.064V271.146C438.276 271.253 438.08 271.35 437.779 271.439C437.483 271.522 437.139 271.596 436.749 271.661C436.364 271.72 435.988 271.774 435.621 271.821C435.26 271.862 434.967 271.898 434.742 271.928C434.198 271.999 433.689 272.114 433.215 272.274C432.748 272.428 432.369 272.661 432.079 272.975C431.795 273.283 431.653 273.703 431.653 274.236C431.653 274.964 431.922 275.514 432.461 275.887C433.005 276.254 433.695 276.438 434.529 276.438ZM446.379 269.797V278H444.284V264.364H446.308V266.494H446.486C446.805 265.802 447.29 265.246 447.941 264.825C448.593 264.399 449.433 264.186 450.463 264.186C451.386 264.186 452.194 264.375 452.886 264.754C453.579 265.127 454.118 265.695 454.502 266.459C454.887 267.216 455.079 268.175 455.079 269.335V278H452.984V269.477C452.984 268.406 452.706 267.571 452.15 266.974C451.593 266.37 450.83 266.068 449.859 266.068C449.19 266.068 448.593 266.213 448.066 266.503C447.545 266.793 447.134 267.216 446.832 267.773C446.53 268.329 446.379 269.004 446.379 269.797ZM464.838 264.364V266.139H457.771V264.364H464.838ZM459.831 261.097H461.926V274.094C461.926 274.686 462.012 275.129 462.184 275.425C462.361 275.715 462.586 275.911 462.858 276.011C463.137 276.106 463.43 276.153 463.737 276.153C463.968 276.153 464.158 276.142 464.306 276.118C464.454 276.088 464.572 276.065 464.661 276.047L465.087 277.929C464.945 277.982 464.747 278.036 464.492 278.089C464.238 278.148 463.915 278.178 463.524 278.178C462.932 278.178 462.352 278.05 461.784 277.796C461.222 277.541 460.754 277.154 460.382 276.633C460.015 276.112 459.831 275.455 459.831 274.662V261.097ZM473.383 278.284C472.152 278.284 471.072 277.991 470.143 277.405C469.219 276.819 468.497 276 467.977 274.946C467.462 273.893 467.204 272.661 467.204 271.253C467.204 269.832 467.462 268.592 467.977 267.533C468.497 266.474 469.219 265.651 470.143 265.065C471.072 264.479 472.152 264.186 473.383 264.186C474.614 264.186 475.691 264.479 476.615 265.065C477.544 265.651 478.266 266.474 478.781 267.533C479.302 268.592 479.562 269.832 479.562 271.253C479.562 272.661 479.302 273.893 478.781 274.946C478.266 276 477.544 276.819 476.615 277.405C475.691 277.991 474.614 278.284 473.383 278.284ZM473.383 276.402C474.318 276.402 475.088 276.162 475.691 275.683C476.295 275.203 476.742 274.573 477.032 273.792C477.322 273.011 477.467 272.164 477.467 271.253C477.467 270.341 477.322 269.492 477.032 268.705C476.742 267.918 476.295 267.281 475.691 266.796C475.088 266.311 474.318 266.068 473.383 266.068C472.448 266.068 471.679 266.311 471.075 266.796C470.471 267.281 470.024 267.918 469.734 268.705C469.444 269.492 469.299 270.341 469.299 271.253C469.299 272.164 469.444 273.011 469.734 273.792C470.024 274.573 470.471 275.203 471.075 275.683C471.679 276.162 472.448 276.402 473.383 276.402ZM485.386 278L481.231 264.364H483.433L486.38 274.804H486.522L489.434 264.364H491.672L494.548 274.768H494.69L497.637 264.364H499.839L495.684 278H493.625L490.642 267.524H490.429L487.446 278H485.386ZM504.704 269.797V278H502.609V264.364H504.633V266.494H504.811C505.13 265.802 505.616 265.246 506.267 264.825C506.918 264.399 507.758 264.186 508.788 264.186C509.711 264.186 510.519 264.375 511.212 264.754C511.904 265.127 512.443 265.695 512.827 266.459C513.212 267.216 513.404 268.175 513.404 269.335V278H511.309V269.477C511.309 268.406 511.031 267.571 510.475 266.974C509.918 266.37 509.155 266.068 508.184 266.068C507.516 266.068 506.918 266.213 506.391 266.503C505.87 266.793 505.459 267.216 505.157 267.773C504.855 268.329 504.704 269.004 504.704 269.797Z" fill="black"/>
<path d="M487.202 363.818H489.83L496.009 378.911H496.222L502.401 363.818H505.028V382H502.969V368.186H502.791L497.109 382H495.121L489.439 368.186H489.261V382H487.202V363.818ZM514.699 382.284C513.468 382.284 512.387 381.991 511.458 381.405C510.535 380.819 509.813 380 509.292 378.946C508.777 377.893 508.52 376.661 508.52 375.253C508.52 373.832 508.777 372.592 509.292 371.533C509.813 370.474 510.535 369.651 511.458 369.065C512.387 368.479 513.468 368.186 514.699 368.186C515.93 368.186 517.007 368.479 517.93 369.065C518.859 369.651 519.581 370.474 520.096 371.533C520.617 372.592 520.878 373.832 520.878 375.253C520.878 376.661 520.617 377.893 520.096 378.946C519.581 380 518.859 380.819 517.93 381.405C517.007 381.991 515.93 382.284 514.699 382.284ZM514.699 380.402C515.634 380.402 516.403 380.162 517.007 379.683C517.611 379.203 518.057 378.573 518.347 377.792C518.637 377.011 518.782 376.164 518.782 375.253C518.782 374.341 518.637 373.492 518.347 372.705C518.057 371.918 517.611 371.281 517.007 370.796C516.403 370.311 515.634 370.068 514.699 370.068C513.763 370.068 512.994 370.311 512.39 370.796C511.787 371.281 511.34 371.918 511.05 372.705C510.76 373.492 510.615 374.341 510.615 375.253C510.615 376.164 510.76 377.011 511.05 377.792C511.34 378.573 511.787 379.203 512.39 379.683C512.994 380.162 513.763 380.402 514.699 380.402ZM529.616 382.284C528.385 382.284 527.304 381.991 526.375 381.405C525.452 380.819 524.73 380 524.209 378.946C523.694 377.893 523.437 376.661 523.437 375.253C523.437 373.832 523.694 372.592 524.209 371.533C524.73 370.474 525.452 369.651 526.375 369.065C527.304 368.479 528.385 368.186 529.616 368.186C530.847 368.186 531.924 368.479 532.847 369.065C533.776 369.651 534.498 370.474 535.013 371.533C535.534 372.592 535.795 373.832 535.795 375.253C535.795 376.661 535.534 377.893 535.013 378.946C534.498 380 533.776 380.819 532.847 381.405C531.924 381.991 530.847 382.284 529.616 382.284ZM529.616 380.402C530.551 380.402 531.32 380.162 531.924 379.683C532.528 379.203 532.974 378.573 533.264 377.792C533.554 377.011 533.699 376.164 533.699 375.253C533.699 374.341 533.554 373.492 533.264 372.705C532.974 371.918 532.528 371.281 531.924 370.796C531.32 370.311 530.551 370.068 529.616 370.068C528.68 370.068 527.911 370.311 527.307 370.796C526.704 371.281 526.257 371.918 525.967 372.705C525.677 373.492 525.532 374.341 525.532 375.253C525.532 376.164 525.677 377.011 525.967 377.792C526.257 378.573 526.704 379.203 527.307 379.683C527.911 380.162 528.68 380.402 529.616 380.402ZM538.993 382V368.364H541.017V370.423H541.159C541.408 369.749 541.857 369.201 542.508 368.781C543.159 368.361 543.893 368.151 544.71 368.151C544.864 368.151 545.056 368.154 545.287 368.159C545.518 368.165 545.693 368.174 545.811 368.186V370.317C545.74 370.299 545.577 370.272 545.323 370.237C545.074 370.195 544.811 370.175 544.533 370.175C543.87 370.175 543.278 370.314 542.757 370.592C542.242 370.864 541.834 371.243 541.532 371.728C541.236 372.208 541.088 372.755 541.088 373.371V382H538.993ZM553.597 382.284C552.283 382.284 551.15 381.994 550.197 381.414C549.25 380.828 548.519 380.011 548.004 378.964C547.495 377.91 547.24 376.685 547.24 375.288C547.24 373.892 547.495 372.661 548.004 371.595C548.519 370.524 549.235 369.689 550.152 369.092C551.076 368.488 552.153 368.186 553.384 368.186C554.094 368.186 554.795 368.304 555.488 368.541C556.18 368.778 556.811 369.163 557.379 369.695C557.947 370.222 558.4 370.92 558.737 371.79C559.074 372.661 559.243 373.732 559.243 375.004V375.892H548.732V374.081H557.112C557.112 373.312 556.959 372.625 556.651 372.021C556.349 371.418 555.917 370.941 555.355 370.592C554.798 370.243 554.141 370.068 553.384 370.068C552.549 370.068 551.827 370.275 551.218 370.69C550.614 371.098 550.149 371.631 549.824 372.288C549.498 372.945 549.335 373.649 549.335 374.401V375.608C549.335 376.638 549.513 377.511 549.868 378.227C550.229 378.937 550.729 379.479 551.369 379.852C552.008 380.219 552.751 380.402 553.597 380.402C554.147 380.402 554.644 380.325 555.088 380.171C555.538 380.011 555.926 379.775 556.251 379.461C556.577 379.141 556.828 378.745 557.006 378.271L559.03 378.839C558.817 379.526 558.459 380.13 557.956 380.651C557.453 381.165 556.831 381.568 556.092 381.858C555.352 382.142 554.52 382.284 553.597 382.284ZM568.503 368.364V370.139H561.152V368.364H568.503ZM563.354 382V366.482C563.354 365.7 563.537 365.049 563.904 364.528C564.271 364.008 564.747 363.617 565.333 363.357C565.919 363.096 566.538 362.966 567.189 362.966C567.704 362.966 568.124 363.007 568.449 363.09C568.775 363.173 569.018 363.25 569.177 363.321L568.574 365.132C568.467 365.097 568.319 365.052 568.13 364.999C567.946 364.946 567.704 364.919 567.402 364.919C566.709 364.919 566.209 365.094 565.902 365.443C565.6 365.792 565.449 366.304 565.449 366.979V382H563.354ZM571.439 382V368.364H573.534V382H571.439ZM572.504 366.091C572.096 366.091 571.744 365.952 571.448 365.674C571.158 365.395 571.013 365.061 571.013 364.67C571.013 364.28 571.158 363.945 571.448 363.667C571.744 363.389 572.096 363.25 572.504 363.25C572.913 363.25 573.262 363.389 573.552 363.667C573.848 363.945 573.996 364.28 573.996 364.67C573.996 365.061 573.848 365.395 573.552 365.674C573.262 365.952 572.913 366.091 572.504 366.091ZM583.089 382.284C581.775 382.284 580.642 381.994 579.689 381.414C578.742 380.828 578.011 380.011 577.496 378.964C576.987 377.91 576.733 376.685 576.733 375.288C576.733 373.892 576.987 372.661 577.496 371.595C578.011 370.524 578.727 369.689 579.644 369.092C580.568 368.488 581.645 368.186 582.876 368.186C583.586 368.186 584.288 368.304 584.98 368.541C585.672 368.778 586.303 369.163 586.871 369.695C587.439 370.222 587.892 370.92 588.229 371.79C588.567 372.661 588.735 373.732 588.735 375.004V375.892H578.224V374.081H586.605C586.605 373.312 586.451 372.625 586.143 372.021C585.841 371.418 585.409 370.941 584.847 370.592C584.291 370.243 583.634 370.068 582.876 370.068C582.041 370.068 581.319 370.275 580.71 370.69C580.106 371.098 579.641 371.631 579.316 372.288C578.99 372.945 578.828 373.649 578.828 374.401V375.608C578.828 376.638 579.005 377.511 579.36 378.227C579.721 378.937 580.222 379.479 580.861 379.852C581.5 380.219 582.243 380.402 583.089 380.402C583.639 380.402 584.137 380.325 584.581 380.171C585.03 380.011 585.418 379.775 585.744 379.461C586.069 379.141 586.321 378.745 586.498 378.271L588.522 378.839C588.309 379.526 587.951 380.13 587.448 380.651C586.945 381.165 586.324 381.568 585.584 381.858C584.844 382.142 584.012 382.284 583.089 382.284ZM594.018 363.818V382H591.922V363.818H594.018ZM603.004 382.284C601.868 382.284 600.865 381.997 599.995 381.423C599.125 380.843 598.444 380.026 597.953 378.973C597.462 377.913 597.216 376.661 597.216 375.217C597.216 373.785 597.462 372.542 597.953 371.489C598.444 370.435 599.128 369.621 600.004 369.047C600.879 368.473 601.892 368.186 603.04 368.186C603.928 368.186 604.629 368.334 605.144 368.63C605.665 368.92 606.061 369.251 606.333 369.624C606.612 369.991 606.828 370.293 606.982 370.53H607.159V363.818H609.254V382H607.23V379.905H606.982C606.828 380.153 606.609 380.467 606.325 380.846C606.04 381.219 605.635 381.553 605.108 381.849C604.582 382.139 603.88 382.284 603.004 382.284ZM603.288 380.402C604.129 380.402 604.839 380.183 605.419 379.745C605.999 379.301 606.44 378.689 606.742 377.907C607.044 377.12 607.195 376.212 607.195 375.182C607.195 374.164 607.047 373.273 606.751 372.51C606.455 371.74 606.017 371.142 605.437 370.716C604.857 370.284 604.141 370.068 603.288 370.068C602.401 370.068 601.661 370.296 601.069 370.752C600.483 371.202 600.042 371.814 599.746 372.589C599.456 373.359 599.311 374.223 599.311 375.182C599.311 376.152 599.459 377.034 599.755 377.827C600.057 378.615 600.501 379.242 601.087 379.71C601.679 380.171 602.412 380.402 603.288 380.402Z" fill="black"/>
<path d="M240.504 176L235.533 157.818H237.77L241.57 172.626H241.747L245.618 157.818H248.104L251.974 172.626H252.152L255.952 157.818H258.189L253.217 176H250.945L246.932 161.511H246.79L242.777 176H240.504ZM262.743 167.797V176H260.648V157.818H262.743V164.494H262.921C263.24 163.79 263.72 163.231 264.359 162.816C265.004 162.396 265.862 162.186 266.934 162.186C267.863 162.186 268.677 162.373 269.375 162.745C270.073 163.112 270.615 163.678 271 164.441C271.39 165.199 271.586 166.163 271.586 167.335V176H269.49V167.477C269.49 166.394 269.209 165.557 268.647 164.965C268.091 164.367 267.318 164.068 266.33 164.068C265.643 164.068 265.028 164.213 264.483 164.503C263.945 164.793 263.519 165.216 263.205 165.773C262.897 166.329 262.743 167.004 262.743 167.797ZM281.136 176.284C279.822 176.284 278.689 175.994 277.736 175.414C276.789 174.828 276.058 174.011 275.543 172.964C275.034 171.91 274.779 170.685 274.779 169.288C274.779 167.892 275.034 166.661 275.543 165.595C276.058 164.524 276.774 163.689 277.691 163.092C278.615 162.488 279.692 162.186 280.923 162.186C281.633 162.186 282.334 162.304 283.027 162.541C283.719 162.778 284.35 163.163 284.918 163.695C285.486 164.222 285.939 164.92 286.276 165.79C286.614 166.661 286.782 167.732 286.782 169.004V169.892H276.271V168.081H284.652C284.652 167.312 284.498 166.625 284.19 166.021C283.888 165.418 283.456 164.941 282.894 164.592C282.337 164.243 281.68 164.068 280.923 164.068C280.088 164.068 279.366 164.275 278.757 164.69C278.153 165.098 277.688 165.631 277.363 166.288C277.037 166.945 276.875 167.649 276.875 168.401V169.608C276.875 170.638 277.052 171.511 277.407 172.227C277.768 172.937 278.268 173.479 278.908 173.852C279.547 174.219 280.29 174.402 281.136 174.402C281.686 174.402 282.184 174.325 282.627 174.171C283.077 174.011 283.465 173.775 283.79 173.461C284.116 173.141 284.367 172.745 284.545 172.271L286.569 172.839C286.356 173.526 285.998 174.13 285.495 174.651C284.992 175.165 284.37 175.568 283.631 175.858C282.891 176.142 282.059 176.284 281.136 176.284ZM295.687 176.284C294.373 176.284 293.239 175.994 292.286 175.414C291.34 174.828 290.609 174.011 290.094 172.964C289.585 171.91 289.33 170.685 289.33 169.288C289.33 167.892 289.585 166.661 290.094 165.595C290.609 164.524 291.325 163.689 292.242 163.092C293.165 162.488 294.243 162.186 295.474 162.186C296.184 162.186 296.885 162.304 297.578 162.541C298.27 162.778 298.9 163.163 299.469 163.695C300.037 164.222 300.49 164.92 300.827 165.79C301.164 166.661 301.333 167.732 301.333 169.004V169.892H290.822V168.081H299.202C299.202 167.312 299.048 166.625 298.741 166.021C298.439 165.418 298.007 164.941 297.445 164.592C296.888 164.243 296.231 164.068 295.474 164.068C294.639 164.068 293.917 164.275 293.307 164.69C292.704 165.098 292.239 165.631 291.914 166.288C291.588 166.945 291.425 167.649 291.425 168.401V169.608C291.425 170.638 291.603 171.511 291.958 172.227C292.319 172.937 292.819 173.479 293.458 173.852C294.098 174.219 294.84 174.402 295.687 174.402C296.237 174.402 296.734 174.325 297.178 174.171C297.628 174.011 298.016 173.775 298.341 173.461C298.667 173.141 298.918 172.745 299.096 172.271L301.12 172.839C300.907 173.526 300.549 174.13 300.046 174.651C299.543 175.165 298.921 175.568 298.181 175.858C297.442 176.142 296.61 176.284 295.687 176.284ZM306.615 157.818V176H304.52V157.818H306.615ZM310.453 176V162.364H312.548V176H310.453ZM311.518 160.091C311.11 160.091 310.758 159.952 310.462 159.674C310.172 159.395 310.027 159.061 310.027 158.67C310.027 158.28 310.172 157.945 310.462 157.667C310.758 157.389 311.11 157.25 311.518 157.25C311.926 157.25 312.276 157.389 312.566 157.667C312.862 157.945 313.01 158.28 313.01 158.67C313.01 159.061 312.862 159.395 312.566 159.674C312.276 159.952 311.926 160.091 311.518 160.091ZM318.481 167.797V176H316.385V162.364H318.41V164.494H318.587C318.907 163.802 319.392 163.246 320.043 162.825C320.694 162.399 321.535 162.186 322.564 162.186C323.488 162.186 324.296 162.375 324.988 162.754C325.68 163.127 326.219 163.695 326.604 164.459C326.988 165.216 327.181 166.175 327.181 167.335V176H325.086V167.477C325.086 166.406 324.807 165.571 324.251 164.974C323.695 164.37 322.931 164.068 321.961 164.068C321.292 164.068 320.694 164.213 320.167 164.503C319.647 164.793 319.235 165.216 318.933 165.773C318.631 166.329 318.481 167.004 318.481 167.797ZM336.514 181.398C335.502 181.398 334.632 181.268 333.904 181.007C333.176 180.753 332.569 180.415 332.084 179.995C331.604 179.581 331.222 179.137 330.938 178.663L332.607 177.491C332.797 177.74 333.037 178.024 333.327 178.344C333.617 178.669 334.013 178.95 334.516 179.187C335.025 179.43 335.691 179.551 336.514 179.551C337.615 179.551 338.523 179.285 339.239 178.752C339.955 178.219 340.313 177.385 340.313 176.249V173.479H340.136C339.982 173.727 339.763 174.035 339.479 174.402C339.201 174.763 338.798 175.086 338.271 175.37C337.751 175.648 337.046 175.787 336.159 175.787C335.058 175.787 334.069 175.527 333.193 175.006C332.323 174.485 331.634 173.727 331.125 172.733C330.622 171.739 330.37 170.531 330.37 169.111C330.37 167.714 330.616 166.498 331.107 165.462C331.598 164.42 332.282 163.615 333.158 163.047C334.034 162.473 335.046 162.186 336.194 162.186C337.082 162.186 337.786 162.334 338.307 162.63C338.834 162.92 339.236 163.251 339.514 163.624C339.798 163.991 340.017 164.293 340.171 164.53H340.384V162.364H342.409V176.391C342.409 177.562 342.142 178.515 341.61 179.249C341.083 179.989 340.373 180.531 339.479 180.874C338.591 181.223 337.603 181.398 336.514 181.398ZM336.443 173.905C337.283 173.905 337.993 173.712 338.573 173.328C339.153 172.943 339.594 172.39 339.896 171.668C340.198 170.946 340.349 170.081 340.349 169.075C340.349 168.093 340.201 167.226 339.905 166.474C339.609 165.722 339.171 165.134 338.591 164.707C338.011 164.281 337.295 164.068 336.443 164.068C335.555 164.068 334.815 164.293 334.223 164.743C333.637 165.193 333.196 165.796 332.9 166.554C332.61 167.312 332.465 168.152 332.465 169.075C332.465 170.022 332.613 170.86 332.909 171.588C333.211 172.31 333.655 172.878 334.241 173.292C334.833 173.701 335.567 173.905 336.443 173.905Z" fill="black"/>
<path d="M274.504 105L269.533 86.8182H271.77L275.57 101.626H275.747L279.618 86.8182H282.104L285.974 101.626H286.152L289.952 86.8182H292.189L287.217 105H284.945L280.932 90.5114H280.79L276.777 105H274.504ZM299.096 105.284C297.782 105.284 296.649 104.994 295.696 104.414C294.749 103.828 294.018 103.011 293.503 101.964C292.994 100.91 292.739 99.6851 292.739 98.2884C292.739 96.8916 292.994 95.6605 293.503 94.5952C294.018 93.5239 294.734 92.6894 295.651 92.0916C296.575 91.4879 297.652 91.1861 298.883 91.1861C299.593 91.1861 300.294 91.3045 300.987 91.5412C301.679 91.7779 302.31 92.1626 302.878 92.6953C303.446 93.2221 303.899 93.9205 304.236 94.7905C304.574 95.6605 304.742 96.7318 304.742 98.0043V98.892H294.231V97.081H302.612C302.612 96.3116 302.458 95.625 302.15 95.0213C301.848 94.4176 301.416 93.9412 300.854 93.592C300.297 93.2428 299.64 93.0682 298.883 93.0682C298.048 93.0682 297.326 93.2753 296.717 93.6896C296.113 94.098 295.648 94.6307 295.323 95.2876C294.997 95.9446 294.835 96.6489 294.835 97.4006V98.608C294.835 99.6378 295.012 100.511 295.367 101.227C295.728 101.937 296.228 102.479 296.868 102.852C297.507 103.219 298.25 103.402 299.096 103.402C299.646 103.402 300.143 103.325 300.587 103.171C301.037 103.011 301.425 102.775 301.75 102.461C302.076 102.141 302.327 101.745 302.505 101.271L304.529 101.839C304.316 102.526 303.958 103.13 303.455 103.651C302.952 104.165 302.33 104.568 301.591 104.858C300.851 105.142 300.019 105.284 299.096 105.284ZM307.929 105V91.3636H310.025V105H307.929ZM308.995 89.0909C308.586 89.0909 308.234 88.9518 307.938 88.6737C307.648 88.3955 307.503 88.0611 307.503 87.6705C307.503 87.2798 307.648 86.9454 307.938 86.6673C308.234 86.3891 308.586 86.25 308.995 86.25C309.403 86.25 309.752 86.3891 310.042 86.6673C310.338 86.9454 310.486 87.2798 310.486 87.6705C310.486 88.0611 310.338 88.3955 310.042 88.6737C309.752 88.9518 309.403 89.0909 308.995 89.0909ZM313.862 105V91.3636H315.886V93.4233H316.028C316.277 92.7486 316.727 92.2011 317.378 91.7809C318.029 91.3607 318.763 91.1506 319.579 91.1506C319.733 91.1506 319.926 91.1535 320.156 91.1594C320.387 91.1654 320.562 91.1742 320.68 91.1861V93.3168C320.609 93.299 320.446 93.2724 320.192 93.2369C319.943 93.1954 319.68 93.1747 319.402 93.1747C318.739 93.1747 318.147 93.3138 317.626 93.592C317.111 93.8642 316.703 94.243 316.401 94.7283C316.105 95.2077 315.957 95.7552 315.957 96.3707V105H313.862ZM329.949 91.3636V93.1392H322.882V91.3636H329.949ZM324.941 88.0966H327.037V101.094C327.037 101.686 327.122 102.129 327.294 102.425C327.472 102.715 327.697 102.911 327.969 103.011C328.247 103.106 328.54 103.153 328.848 103.153C329.079 103.153 329.268 103.142 329.416 103.118C329.564 103.088 329.682 103.065 329.771 103.047L330.197 104.929C330.055 104.982 329.857 105.036 329.602 105.089C329.348 105.148 329.025 105.178 328.635 105.178C328.043 105.178 327.463 105.05 326.895 104.796C326.332 104.541 325.865 104.154 325.492 103.633C325.125 103.112 324.941 102.455 324.941 101.662V88.0966ZM338.494 105.284C337.262 105.284 336.182 104.991 335.253 104.405C334.33 103.819 333.608 103 333.087 101.946C332.572 100.893 332.315 99.6615 332.315 98.2528C332.315 96.8324 332.572 95.5924 333.087 94.533C333.608 93.4736 334.33 92.6509 335.253 92.065C336.182 91.479 337.262 91.1861 338.494 91.1861C339.725 91.1861 340.802 91.479 341.725 92.065C342.654 92.6509 343.376 93.4736 343.891 94.533C344.412 95.5924 344.672 96.8324 344.672 98.2528C344.672 99.6615 344.412 100.893 343.891 101.946C343.376 103 342.654 103.819 341.725 104.405C340.802 104.991 339.725 105.284 338.494 105.284ZM338.494 103.402C339.429 103.402 340.198 103.162 340.802 102.683C341.405 102.203 341.852 101.573 342.142 100.792C342.432 100.011 342.577 99.1643 342.577 98.2528C342.577 97.3414 342.432 96.4921 342.142 95.7049C341.852 94.9177 341.405 94.2815 340.802 93.7962C340.198 93.3108 339.429 93.0682 338.494 93.0682C337.558 93.0682 336.789 93.3108 336.185 93.7962C335.582 94.2815 335.135 94.9177 334.845 95.7049C334.555 96.4921 334.41 97.3414 334.41 98.2528C334.41 99.1643 334.555 100.011 334.845 100.792C335.135 101.573 335.582 102.203 336.185 102.683C336.789 103.162 337.558 103.402 338.494 103.402ZM349.966 96.7969V105H347.871V91.3636H349.895V93.4943H350.072C350.392 92.8018 350.877 92.2455 351.528 91.8253C352.179 91.3991 353.02 91.1861 354.05 91.1861C354.973 91.1861 355.781 91.3755 356.473 91.7543C357.166 92.1271 357.704 92.6953 358.089 93.4588C358.474 94.2164 358.666 95.1752 358.666 96.3352V105H356.571V96.4773C356.571 95.406 356.293 94.5715 355.737 93.9737C355.18 93.37 354.417 93.0682 353.446 93.0682C352.777 93.0682 352.179 93.2132 351.653 93.5032C351.132 93.7932 350.721 94.2164 350.419 94.7727C350.117 95.3291 349.966 96.0038 349.966 96.7969Z" fill="black"/>
<circle cx="285.511" cy="576.511" r="9.01136" fill="#FFE587" stroke="black"/>
<circle cx="295.511" cy="531.511" r="9.01136" fill="#FFE587" stroke="black"/>
<circle cx="234.511" cy="313.511" r="9.01136" fill="#FFE587" stroke="black"/>
<circle cx="457.511" cy="244.511" r="9.01136" fill="#FFE587" stroke="black"/>
<circle cx="595.511" cy="348.511" r="9.01136" fill="#FFE587" stroke="black"/>
<circle cx="357.511" cy="167.511" r="9.01136" fill="#FFE587" stroke="black"/>
<circle cx="372.511" cy="96.5114" r="9.01136" fill="#FFE587" stroke="black"/>
<path d="M428.722 179V161.545H435.267C436.608 161.545 437.733 161.795 438.642 162.295C439.557 162.795 440.247 163.483 440.713 164.358C441.185 165.227 441.42 166.216 441.42 167.324C441.42 168.443 441.185 169.437 440.713 170.307C440.241 171.176 439.545 171.861 438.625 172.361C437.705 172.855 436.571 173.102 435.224 173.102H430.886V170.503H434.798C435.582 170.503 436.224 170.366 436.724 170.094C437.224 169.821 437.594 169.446 437.832 168.969C438.077 168.491 438.199 167.943 438.199 167.324C438.199 166.705 438.077 166.159 437.832 165.688C437.594 165.216 437.222 164.849 436.716 164.588C436.216 164.321 435.571 164.188 434.781 164.188H431.884V179H428.722ZM444.463 179H441.088L447.233 161.545H451.136L457.29 179H453.915L449.253 165.125H449.116L444.463 179ZM444.574 172.156H453.778V174.696H444.574V172.156Z" fill="#005A5E"/>
<path d="M773.722 252.545H777.591L782.773 265.193H782.977L788.159 252.545H792.028V270H788.994V258.009H788.832L784.009 269.949H781.741L776.918 257.983H776.756V270H773.722V252.545ZM801.386 270H795.472V252.545H801.506C803.239 252.545 804.727 252.895 805.972 253.594C807.222 254.287 808.182 255.284 808.852 256.585C809.523 257.886 809.858 259.443 809.858 261.256C809.858 263.074 809.52 264.636 808.844 265.943C808.173 267.25 807.205 268.253 805.938 268.952C804.676 269.651 803.159 270 801.386 270ZM798.634 267.264H801.233C802.449 267.264 803.463 267.043 804.276 266.599C805.088 266.151 805.699 265.483 806.108 264.597C806.517 263.705 806.722 262.591 806.722 261.256C806.722 259.92 806.517 258.812 806.108 257.932C805.699 257.045 805.094 256.384 804.293 255.946C803.497 255.503 802.509 255.281 801.327 255.281H798.634V267.264Z" fill="#005A5E"/>
<path d="M522.057 527.545L526.599 541.284H526.778L531.312 527.545H534.79L528.636 545H524.733L518.588 527.545H522.057ZM537.291 545H533.916L540.061 527.545H543.964L550.118 545H546.743L542.081 531.125H541.945L537.291 545ZM537.402 538.156H546.607V540.696H537.402V538.156Z" fill="#005A5E"/>
<path d="M167.318 256.273C167.318 258.153 166.966 259.764 166.261 261.105C165.563 262.44 164.608 263.463 163.398 264.173C162.193 264.884 160.827 265.239 159.298 265.239C157.77 265.239 156.401 264.884 155.19 264.173C153.986 263.457 153.031 262.432 152.327 261.097C151.628 259.756 151.278 258.148 151.278 256.273C151.278 254.392 151.628 252.784 152.327 251.449C153.031 250.108 153.986 249.082 155.19 248.372C156.401 247.662 157.77 247.307 159.298 247.307C160.827 247.307 162.193 247.662 163.398 248.372C164.608 249.082 165.563 250.108 166.261 251.449C166.966 252.784 167.318 254.392 167.318 256.273ZM164.139 256.273C164.139 254.949 163.932 253.832 163.517 252.923C163.108 252.009 162.54 251.318 161.812 250.852C161.085 250.381 160.247 250.145 159.298 250.145C158.349 250.145 157.511 250.381 156.784 250.852C156.057 251.318 155.486 252.009 155.071 252.923C154.662 253.832 154.457 254.949 154.457 256.273C154.457 257.597 154.662 258.716 155.071 259.631C155.486 260.54 156.057 261.23 156.784 261.702C157.511 262.168 158.349 262.401 159.298 262.401C160.247 262.401 161.085 262.168 161.812 261.702C162.54 261.23 163.108 260.54 163.517 259.631C163.932 258.716 164.139 257.597 164.139 256.273ZM170.308 265V247.545H173.469V254.935H181.558V247.545H184.728V265H181.558V257.585H173.469V265H170.308Z" fill="#005A5E"/>
<defs>
<filter id="filter0_d_95_207" x="77.9609" y="59.0999" width="698.739" height="628.627" filterUnits="userSpaceOnUse" color-interpolation-filters="sRGB">
<feFlood flood-opacity="0" result="BackgroundImageFix"/>
<feColorMatrix in="SourceAlpha" type="matrix" values="0 0 0 0 0 0 0 0 0 0 0 0 0 0 0 0 0 0 127 0" result="hardAlpha"/>
<feOffset dy="4"/>
<feGaussianBlur stdDeviation="2"/>
<feComposite in2="hardAlpha" operator="out"/>
<feColorMatrix type="matrix" values="0 0 0 0 0 0 0 0 0 0 0 0 0 0 0 0 0 0 0.25 0"/>
<feBlend mode="normal" in2="BackgroundImageFix" result="effect1_dropShadow_95_207"/>
<feBlend mode="normal" in="SourceGraphic" in2="effect1_dropShadow_95_207" result="shape"/>
</filter>
</defs>
</svg>
