<svg width="589" height="479" viewBox="0 0 589 479" fill="none" xmlns="http://www.w3.org/2000/svg">
<rect x="0.5" y="0.5" width="588" height="478" rx="35.5" fill="#8DDBFF" stroke="#717171"/>
<g filter="url(#filter0_d_206_237)">
<path d="M115.5 72L82.5 71.5H82L82.5 404.5L507.5 404V71.5H208L201.5 71H145.5L115.5 72Z" fill="#FFD597"/>
<path d="M115.5 72L82.5 71.5H82L82.5 404.5L507.5 404V71.5H208L201.5 71H145.5L115.5 72Z" stroke="black"/>
</g>
<path d="M278.722 35.5455H282.591L287.773 48.1932H287.977L293.159 35.5455H297.028V53H293.994V41.0085H293.832L289.009 52.9489H286.741L281.918 40.983H281.756V53H278.722V35.5455ZM316.068 44.2727C316.068 46.1534 315.716 47.7642 315.011 49.1051C314.313 50.4403 313.358 51.4631 312.148 52.1733C310.943 52.8835 309.577 53.2386 308.048 53.2386C306.52 53.2386 305.151 52.8835 303.94 52.1733C302.736 51.4574 301.781 50.4318 301.077 49.0966C300.378 47.7557 300.028 46.1477 300.028 44.2727C300.028 42.392 300.378 40.7841 301.077 39.4489C301.781 38.108 302.736 37.0824 303.94 36.3722C305.151 35.6619 306.52 35.3068 308.048 35.3068C309.577 35.3068 310.943 35.6619 312.148 36.3722C313.358 37.0824 314.313 38.108 315.011 39.4489C315.716 40.7841 316.068 42.392 316.068 44.2727ZM312.889 44.2727C312.889 42.9489 312.682 41.8324 312.267 40.9233C311.858 40.0085 311.29 39.3182 310.562 38.8523C309.835 38.3807 308.997 38.1449 308.048 38.1449C307.099 38.1449 306.261 38.3807 305.534 38.8523C304.807 39.3182 304.236 40.0085 303.821 40.9233C303.412 41.8324 303.207 42.9489 303.207 44.2727C303.207 45.5966 303.412 46.7159 303.821 47.6307C304.236 48.5398 304.807 49.2301 305.534 49.7017C306.261 50.1676 307.099 50.4006 308.048 50.4006C308.997 50.4006 309.835 50.1676 310.562 49.7017C311.29 49.2301 311.858 48.5398 312.267 47.6307C312.682 46.7159 312.889 45.5966 312.889 44.2727Z" fill="#005A5E"/>
<path d="M539.207 128.344C539.128 127.599 538.793 127.02 538.202 126.605C537.616 126.19 536.855 125.983 535.918 125.983C535.259 125.983 534.693 126.082 534.222 126.281C533.75 126.48 533.389 126.75 533.139 127.091C532.889 127.432 532.761 127.821 532.756 128.259C532.756 128.622 532.838 128.937 533.003 129.205C533.173 129.472 533.403 129.699 533.693 129.886C533.983 130.068 534.304 130.222 534.656 130.347C535.009 130.472 535.364 130.577 535.722 130.662L537.358 131.071C538.017 131.224 538.651 131.432 539.259 131.693C539.872 131.955 540.42 132.284 540.903 132.682C541.392 133.08 541.778 133.56 542.062 134.122C542.347 134.685 542.489 135.344 542.489 136.099C542.489 137.122 542.227 138.023 541.705 138.801C541.182 139.574 540.426 140.179 539.438 140.616C538.455 141.048 537.264 141.264 535.866 141.264C534.509 141.264 533.33 141.054 532.33 140.634C531.335 140.213 530.557 139.599 529.994 138.793C529.438 137.986 529.136 137.003 529.091 135.844H532.202C532.247 136.452 532.435 136.957 532.764 137.361C533.094 137.764 533.523 138.065 534.051 138.264C534.585 138.463 535.182 138.562 535.841 138.562C536.528 138.562 537.131 138.46 537.648 138.256C538.17 138.045 538.58 137.756 538.875 137.386C539.17 137.011 539.321 136.574 539.327 136.074C539.321 135.619 539.188 135.244 538.926 134.949C538.665 134.648 538.298 134.398 537.827 134.199C537.361 133.994 536.815 133.812 536.19 133.653L534.205 133.142C532.767 132.773 531.631 132.213 530.795 131.463C529.966 130.707 529.551 129.705 529.551 128.455C529.551 127.426 529.83 126.526 530.386 125.753C530.949 124.98 531.713 124.381 532.679 123.955C533.645 123.523 534.739 123.307 535.96 123.307C537.199 123.307 538.284 123.523 539.216 123.955C540.153 124.381 540.889 124.974 541.423 125.736C541.957 126.491 542.233 127.361 542.25 128.344H539.207ZM551.222 141H545.308V123.545H551.342C553.075 123.545 554.563 123.895 555.808 124.594C557.058 125.287 558.018 126.284 558.688 127.585C559.359 128.886 559.694 130.443 559.694 132.256C559.694 134.074 559.356 135.636 558.68 136.943C558.009 138.25 557.04 139.253 555.773 139.952C554.512 140.651 552.995 141 551.222 141ZM548.469 138.264H551.069C552.285 138.264 553.299 138.043 554.112 137.599C554.924 137.151 555.535 136.483 555.944 135.597C556.353 134.705 556.558 133.591 556.558 132.256C556.558 130.92 556.353 129.812 555.944 128.932C555.535 128.045 554.93 127.384 554.129 126.946C553.333 126.503 552.344 126.281 551.163 126.281H548.469V138.264Z" fill="#005A5E"/>
<path d="M544.065 309.545V327H541.253L533.028 315.111H532.884V327H529.722V309.545H532.551L540.767 321.443H540.92V309.545H544.065ZM547.511 327V309.545H558.863V312.196H550.673V316.935H558.275V319.585H550.673V324.349H558.931V327H547.511Z" fill="#005A5E"/>
<path d="M293.662 430.435H290.474C290.384 429.912 290.216 429.449 289.972 429.045C289.727 428.636 289.423 428.29 289.06 428.006C288.696 427.722 288.281 427.509 287.815 427.366C287.355 427.219 286.858 427.145 286.324 427.145C285.375 427.145 284.534 427.384 283.801 427.861C283.068 428.332 282.494 429.026 282.08 429.94C281.665 430.849 281.457 431.96 281.457 433.273C281.457 434.608 281.665 435.733 282.08 436.648C282.5 437.557 283.074 438.244 283.801 438.71C284.534 439.17 285.372 439.401 286.315 439.401C286.838 439.401 287.327 439.332 287.781 439.196C288.241 439.054 288.653 438.847 289.017 438.574C289.386 438.301 289.696 437.966 289.946 437.568C290.202 437.17 290.378 436.716 290.474 436.205L293.662 436.222C293.543 437.051 293.284 437.83 292.886 438.557C292.494 439.284 291.98 439.926 291.344 440.483C290.707 441.034 289.963 441.466 289.111 441.778C288.259 442.085 287.313 442.239 286.273 442.239C284.739 442.239 283.369 441.884 282.165 441.173C280.96 440.463 280.011 439.438 279.318 438.097C278.625 436.756 278.278 435.148 278.278 433.273C278.278 431.392 278.628 429.784 279.327 428.449C280.026 427.108 280.977 426.082 282.182 425.372C283.386 424.662 284.75 424.307 286.273 424.307C287.244 424.307 288.148 424.443 288.983 424.716C289.818 424.989 290.563 425.389 291.216 425.918C291.869 426.44 292.406 427.082 292.827 427.844C293.253 428.599 293.531 429.463 293.662 430.435ZM312.154 433.273C312.154 435.153 311.802 436.764 311.097 438.105C310.398 439.44 309.444 440.463 308.234 441.173C307.029 441.884 305.663 442.239 304.134 442.239C302.606 442.239 301.237 441.884 300.026 441.173C298.822 440.457 297.867 439.432 297.163 438.097C296.464 436.756 296.114 435.148 296.114 433.273C296.114 431.392 296.464 429.784 297.163 428.449C297.867 427.108 298.822 426.082 300.026 425.372C301.237 424.662 302.606 424.307 304.134 424.307C305.663 424.307 307.029 424.662 308.234 425.372C309.444 426.082 310.398 427.108 311.097 428.449C311.802 429.784 312.154 431.392 312.154 433.273ZM308.975 433.273C308.975 431.949 308.768 430.832 308.353 429.923C307.944 429.009 307.376 428.318 306.648 427.852C305.921 427.381 305.083 427.145 304.134 427.145C303.185 427.145 302.347 427.381 301.62 427.852C300.893 428.318 300.322 429.009 299.907 429.923C299.498 430.832 299.293 431.949 299.293 433.273C299.293 434.597 299.498 435.716 299.907 436.631C300.322 437.54 300.893 438.23 301.62 438.702C302.347 439.168 303.185 439.401 304.134 439.401C305.083 439.401 305.921 439.168 306.648 438.702C307.376 438.23 307.944 437.54 308.353 436.631C308.768 435.716 308.975 434.597 308.975 433.273Z" fill="#005A5E"/>
<path d="M40.7244 410.545H43.8864V421.949C43.8864 423.199 43.5909 424.298 43 425.247C42.4148 426.196 41.5909 426.937 40.5284 427.472C39.4659 428 38.2244 428.264 36.804 428.264C35.3778 428.264 34.1335 428 33.071 427.472C32.0085 426.937 31.1847 426.196 30.5994 425.247C30.0142 424.298 29.7216 423.199 29.7216 421.949V410.545H32.8835V421.685C32.8835 422.412 33.0426 423.06 33.3608 423.628C33.6847 424.196 34.1392 424.642 34.7244 424.966C35.3097 425.284 36.0028 425.443 36.804 425.443C37.6051 425.443 38.2983 425.284 38.8835 424.966C39.4744 424.642 39.929 424.196 40.2472 423.628C40.5653 423.06 40.7244 422.412 40.7244 421.685V410.545ZM46.5561 413.196V410.545H60.4822V413.196H55.0874V428H51.951V413.196H46.5561Z" fill="#005A5E"/>
<path d="M43.8835 227.545V245H40.7216V227.545H43.8835ZM53.2223 245H47.3075V227.545H53.3416C55.0746 227.545 56.5632 227.895 57.8075 228.594C59.0575 229.287 60.0178 230.284 60.6882 231.585C61.3587 232.886 61.6939 234.443 61.6939 236.256C61.6939 238.074 61.3558 239.636 60.6797 240.943C60.0092 242.25 59.0405 243.253 57.7734 243.952C56.5121 244.651 54.995 245 53.2223 245ZM50.4695 242.264H53.0689C54.2848 242.264 55.299 242.043 56.1115 241.599C56.924 241.151 57.5348 240.483 57.9439 239.597C58.353 238.705 58.5575 237.591 58.5575 236.256C58.5575 234.92 58.353 233.812 57.9439 232.932C57.5348 232.045 56.9297 231.384 56.1286 230.946C55.3331 230.503 54.3445 230.281 53.1626 230.281H50.4695V242.264Z" fill="#005A5E"/>
<circle cx="458.511" cy="391.511" r="9.01136" fill="#FF8F87" stroke="black"/>
<path d="M341.918 390.656H338.185C338.116 390.173 337.977 389.744 337.767 389.369C337.557 388.989 337.287 388.665 336.957 388.398C336.628 388.131 336.247 387.926 335.815 387.784C335.389 387.642 334.926 387.571 334.426 387.571C333.523 387.571 332.736 387.795 332.065 388.244C331.395 388.687 330.875 389.335 330.506 390.188C330.136 391.034 329.952 392.062 329.952 393.273C329.952 394.517 330.136 395.562 330.506 396.409C330.881 397.256 331.403 397.895 332.074 398.327C332.744 398.759 333.52 398.974 334.401 398.974C334.895 398.974 335.352 398.909 335.773 398.778C336.199 398.648 336.577 398.457 336.906 398.207C337.236 397.952 337.509 397.642 337.724 397.278C337.946 396.915 338.099 396.5 338.185 396.034L341.918 396.051C341.821 396.852 341.58 397.625 341.193 398.369C340.813 399.108 340.298 399.77 339.651 400.355C339.009 400.935 338.241 401.395 337.349 401.736C336.463 402.071 335.46 402.239 334.341 402.239C332.784 402.239 331.392 401.886 330.165 401.182C328.943 400.477 327.977 399.457 327.267 398.122C326.562 396.787 326.21 395.17 326.21 393.273C326.21 391.369 326.568 389.75 327.284 388.415C328 387.08 328.972 386.062 330.199 385.364C331.426 384.659 332.807 384.307 334.341 384.307C335.352 384.307 336.29 384.449 337.153 384.733C338.023 385.017 338.793 385.432 339.463 385.977C340.134 386.517 340.679 387.179 341.099 387.963C341.526 388.747 341.798 389.645 341.918 390.656ZM348.126 394.432V402H344.496V384.545H348.024V391.219H348.178C348.473 390.446 348.95 389.841 349.609 389.403C350.268 388.96 351.095 388.739 352.089 388.739C352.999 388.739 353.791 388.938 354.467 389.335C355.149 389.727 355.678 390.293 356.053 391.031C356.433 391.764 356.621 392.642 356.615 393.665V402H352.984V394.312C352.99 393.506 352.786 392.878 352.371 392.429C351.962 391.98 351.388 391.756 350.649 391.756C350.155 391.756 349.717 391.861 349.337 392.071C348.962 392.281 348.666 392.588 348.45 392.991C348.24 393.389 348.132 393.869 348.126 394.432ZM365.438 402.256C364.092 402.256 362.933 401.983 361.961 401.438C360.995 400.886 360.251 400.108 359.728 399.102C359.205 398.091 358.944 396.895 358.944 395.514C358.944 394.168 359.205 392.986 359.728 391.969C360.251 390.952 360.987 390.159 361.935 389.591C362.89 389.023 364.009 388.739 365.293 388.739C366.157 388.739 366.961 388.878 367.705 389.156C368.455 389.429 369.109 389.841 369.665 390.392C370.228 390.943 370.665 391.636 370.978 392.472C371.29 393.301 371.447 394.273 371.447 395.386V396.384H360.393V394.134H368.029C368.029 393.611 367.915 393.148 367.688 392.744C367.461 392.341 367.146 392.026 366.742 391.798C366.344 391.565 365.881 391.449 365.353 391.449C364.802 391.449 364.313 391.577 363.887 391.832C363.467 392.082 363.137 392.42 362.898 392.847C362.66 393.267 362.538 393.736 362.532 394.253V396.392C362.532 397.04 362.651 397.599 362.89 398.071C363.134 398.543 363.478 398.906 363.921 399.162C364.364 399.418 364.89 399.545 365.498 399.545C365.901 399.545 366.271 399.489 366.606 399.375C366.941 399.261 367.228 399.091 367.467 398.864C367.705 398.636 367.887 398.358 368.012 398.028L371.37 398.25C371.2 399.057 370.85 399.761 370.322 400.364C369.799 400.96 369.123 401.426 368.293 401.761C367.469 402.091 366.518 402.256 365.438 402.256ZM375.706 406.909C375.246 406.909 374.814 406.872 374.411 406.798C374.013 406.73 373.683 406.642 373.422 406.534L374.24 403.824C374.666 403.955 375.05 404.026 375.391 404.037C375.737 404.048 376.036 403.969 376.286 403.798C376.541 403.628 376.749 403.338 376.908 402.929L377.121 402.375L372.425 388.909H376.243L378.953 398.523H379.089L381.825 388.909H385.669L380.581 403.415C380.337 404.119 380.004 404.733 379.584 405.256C379.169 405.784 378.643 406.19 378.007 406.474C377.371 406.764 376.604 406.909 375.706 406.909ZM393.071 402.256C391.724 402.256 390.565 401.983 389.594 401.438C388.628 400.886 387.884 400.108 387.361 399.102C386.838 398.091 386.577 396.895 386.577 395.514C386.577 394.168 386.838 392.986 387.361 391.969C387.884 390.952 388.619 390.159 389.568 389.591C390.523 389.023 391.642 388.739 392.926 388.739C393.79 388.739 394.594 388.878 395.338 389.156C396.088 389.429 396.741 389.841 397.298 390.392C397.861 390.943 398.298 391.636 398.611 392.472C398.923 393.301 399.08 394.273 399.08 395.386V396.384H388.026V394.134H395.662C395.662 393.611 395.548 393.148 395.321 392.744C395.094 392.341 394.778 392.026 394.375 391.798C393.977 391.565 393.514 391.449 392.986 391.449C392.435 391.449 391.946 391.577 391.52 391.832C391.099 392.082 390.77 392.42 390.531 392.847C390.293 393.267 390.17 393.736 390.165 394.253V396.392C390.165 397.04 390.284 397.599 390.523 398.071C390.767 398.543 391.111 398.906 391.554 399.162C391.997 399.418 392.523 399.545 393.131 399.545C393.534 399.545 393.903 399.489 394.239 399.375C394.574 399.261 394.861 399.091 395.099 398.864C395.338 398.636 395.52 398.358 395.645 398.028L399.003 398.25C398.832 399.057 398.483 399.761 397.955 400.364C397.432 400.96 396.756 401.426 395.926 401.761C395.102 402.091 394.151 402.256 393.071 402.256ZM405.08 394.432V402H401.449V388.909H404.909V391.219H405.062C405.352 390.457 405.838 389.855 406.52 389.412C407.202 388.963 408.028 388.739 409 388.739C409.909 388.739 410.702 388.938 411.378 389.335C412.054 389.733 412.58 390.301 412.955 391.04C413.33 391.773 413.517 392.648 413.517 393.665V402H409.886V394.312C409.892 393.511 409.688 392.886 409.273 392.438C408.858 391.983 408.287 391.756 407.56 391.756C407.071 391.756 406.639 391.861 406.264 392.071C405.895 392.281 405.605 392.588 405.395 392.991C405.19 393.389 405.085 393.869 405.08 394.432ZM420.009 394.432V402H416.379V388.909H419.839V391.219H419.992C420.282 390.457 420.768 389.855 421.45 389.412C422.131 388.963 422.958 388.739 423.93 388.739C424.839 388.739 425.631 388.938 426.308 389.335C426.984 389.733 427.509 390.301 427.884 391.04C428.259 391.773 428.447 392.648 428.447 393.665V402H424.816V394.312C424.822 393.511 424.617 392.886 424.202 392.438C423.788 391.983 423.217 391.756 422.489 391.756C422.001 391.756 421.569 391.861 421.194 392.071C420.825 392.281 420.535 392.588 420.325 392.991C420.12 393.389 420.015 393.869 420.009 394.432ZM437.274 402.256C435.928 402.256 434.768 401.983 433.797 401.438C432.831 400.886 432.087 400.108 431.564 399.102C431.041 398.091 430.78 396.895 430.78 395.514C430.78 394.168 431.041 392.986 431.564 391.969C432.087 390.952 432.822 390.159 433.771 389.591C434.726 389.023 435.845 388.739 437.129 388.739C437.993 388.739 438.797 388.878 439.541 389.156C440.291 389.429 440.945 389.841 441.501 390.392C442.064 390.943 442.501 391.636 442.814 392.472C443.126 393.301 443.283 394.273 443.283 395.386V396.384H432.229V394.134H439.865C439.865 393.611 439.751 393.148 439.524 392.744C439.297 392.341 438.982 392.026 438.578 391.798C438.18 391.565 437.717 391.449 437.189 391.449C436.638 391.449 436.149 391.577 435.723 391.832C435.303 392.082 434.973 392.42 434.734 392.847C434.496 393.267 434.374 393.736 434.368 394.253V396.392C434.368 397.04 434.487 397.599 434.726 398.071C434.97 398.543 435.314 398.906 435.757 399.162C436.2 399.418 436.726 399.545 437.334 399.545C437.737 399.545 438.107 399.489 438.442 399.375C438.777 399.261 439.064 399.091 439.303 398.864C439.541 398.636 439.723 398.358 439.848 398.028L443.206 398.25C443.036 399.057 442.686 399.761 442.158 400.364C441.635 400.96 440.959 401.426 440.129 401.761C439.305 402.091 438.354 402.256 437.274 402.256Z" fill="black"/>
<path d="M336.159 225H334.045C333.92 224.392 333.702 223.858 333.389 223.398C333.082 222.938 332.707 222.551 332.264 222.239C331.827 221.92 331.341 221.682 330.807 221.523C330.273 221.364 329.716 221.284 329.136 221.284C328.08 221.284 327.122 221.551 326.264 222.085C325.412 222.619 324.733 223.406 324.227 224.446C323.727 225.486 323.477 226.761 323.477 228.273C323.477 229.784 323.727 231.06 324.227 232.099C324.733 233.139 325.412 233.926 326.264 234.46C327.122 234.994 328.08 235.261 329.136 235.261C329.716 235.261 330.273 235.182 330.807 235.023C331.341 234.864 331.827 234.628 332.264 234.315C332.707 233.997 333.082 233.608 333.389 233.148C333.702 232.682 333.92 232.148 334.045 231.545H336.159C336 232.437 335.71 233.236 335.29 233.94C334.869 234.645 334.347 235.244 333.722 235.739C333.097 236.227 332.395 236.599 331.616 236.855C330.844 237.111 330.017 237.239 329.136 237.239C327.648 237.239 326.324 236.875 325.165 236.148C324.006 235.42 323.094 234.386 322.429 233.045C321.764 231.705 321.432 230.114 321.432 228.273C321.432 226.432 321.764 224.841 322.429 223.5C323.094 222.159 324.006 221.125 325.165 220.398C326.324 219.67 327.648 219.307 329.136 219.307C330.017 219.307 330.844 219.435 331.616 219.69C332.395 219.946 333.097 220.321 333.722 220.815C334.347 221.304 334.869 221.901 335.29 222.605C335.71 223.304 336 224.102 336.159 225ZM343.154 237.307C342.325 237.307 341.572 237.151 340.896 236.838C340.219 236.52 339.683 236.062 339.285 235.466C338.887 234.864 338.688 234.136 338.688 233.284C338.688 232.534 338.836 231.926 339.131 231.46C339.427 230.989 339.822 230.619 340.316 230.352C340.81 230.085 341.356 229.886 341.952 229.756C342.555 229.619 343.16 229.511 343.768 229.432C344.563 229.33 345.208 229.253 345.702 229.202C346.202 229.145 346.566 229.051 346.793 228.92C347.026 228.79 347.143 228.562 347.143 228.239V228.17C347.143 227.33 346.913 226.676 346.452 226.21C345.998 225.744 345.308 225.511 344.381 225.511C343.421 225.511 342.668 225.722 342.123 226.142C341.577 226.562 341.194 227.011 340.972 227.489L339.063 226.807C339.404 226.011 339.859 225.392 340.427 224.949C341.001 224.5 341.626 224.187 342.302 224.011C342.984 223.83 343.654 223.739 344.313 223.739C344.734 223.739 345.217 223.79 345.762 223.892C346.313 223.989 346.844 224.19 347.356 224.497C347.873 224.804 348.302 225.267 348.643 225.886C348.984 226.506 349.154 227.335 349.154 228.375V237H347.143V235.227H347.04C346.904 235.511 346.677 235.815 346.359 236.139C346.04 236.463 345.617 236.739 345.089 236.966C344.56 237.193 343.915 237.307 343.154 237.307ZM343.461 235.5C344.256 235.5 344.927 235.344 345.472 235.031C346.023 234.719 346.438 234.315 346.717 233.821C347.001 233.327 347.143 232.807 347.143 232.261V230.42C347.058 230.523 346.87 230.616 346.58 230.702C346.296 230.781 345.967 230.852 345.592 230.915C345.222 230.972 344.862 231.023 344.509 231.068C344.163 231.108 343.881 231.142 343.665 231.17C343.143 231.239 342.654 231.349 342.2 231.503C341.751 231.651 341.387 231.875 341.109 232.176C340.836 232.472 340.7 232.875 340.7 233.386C340.7 234.085 340.958 234.614 341.475 234.972C341.998 235.324 342.66 235.5 343.461 235.5ZM362.098 226.841L360.291 227.352C360.178 227.051 360.01 226.759 359.788 226.474C359.572 226.185 359.277 225.946 358.902 225.759C358.527 225.571 358.047 225.477 357.462 225.477C356.661 225.477 355.993 225.662 355.459 226.031C354.93 226.395 354.666 226.858 354.666 227.42C354.666 227.92 354.848 228.315 355.212 228.605C355.575 228.895 356.143 229.136 356.916 229.33L358.859 229.807C360.03 230.091 360.902 230.526 361.476 231.111C362.05 231.69 362.337 232.437 362.337 233.352C362.337 234.102 362.121 234.773 361.689 235.364C361.263 235.955 360.666 236.42 359.899 236.761C359.132 237.102 358.24 237.273 357.223 237.273C355.888 237.273 354.783 236.983 353.908 236.403C353.033 235.824 352.479 234.977 352.246 233.864L354.155 233.386C354.337 234.091 354.68 234.619 355.186 234.972C355.697 235.324 356.365 235.5 357.189 235.5C358.126 235.5 358.871 235.301 359.422 234.903C359.979 234.5 360.257 234.017 360.257 233.455C360.257 233 360.098 232.619 359.78 232.312C359.462 232 358.973 231.767 358.314 231.614L356.132 231.102C354.933 230.818 354.053 230.378 353.49 229.781C352.933 229.179 352.655 228.426 352.655 227.523C352.655 226.784 352.862 226.131 353.277 225.562C353.697 224.994 354.268 224.548 354.99 224.224C355.717 223.901 356.541 223.739 357.462 223.739C358.757 223.739 359.774 224.023 360.513 224.591C361.257 225.159 361.786 225.909 362.098 226.841ZM365.364 241.909V223.909H367.308V225.989H367.546C367.694 225.761 367.898 225.472 368.16 225.119C368.427 224.761 368.808 224.443 369.302 224.165C369.802 223.881 370.478 223.739 371.33 223.739C372.433 223.739 373.404 224.014 374.245 224.565C375.086 225.116 375.742 225.898 376.214 226.909C376.685 227.92 376.921 229.114 376.921 230.489C376.921 231.875 376.685 233.077 376.214 234.094C375.742 235.105 375.089 235.889 374.254 236.446C373.418 236.997 372.455 237.273 371.364 237.273C370.523 237.273 369.85 237.134 369.344 236.855C368.839 236.571 368.45 236.25 368.177 235.892C367.904 235.528 367.694 235.227 367.546 234.989H367.376V241.909H365.364ZM367.342 230.455C367.342 231.443 367.487 232.315 367.776 233.071C368.066 233.821 368.489 234.409 369.046 234.835C369.603 235.256 370.285 235.466 371.092 235.466C371.933 235.466 372.634 235.244 373.197 234.801C373.765 234.352 374.191 233.75 374.475 232.994C374.765 232.233 374.91 231.386 374.91 230.455C374.91 229.534 374.768 228.705 374.484 227.966C374.205 227.222 373.782 226.634 373.214 226.202C372.651 225.764 371.944 225.545 371.092 225.545C370.273 225.545 369.586 225.753 369.029 226.168C368.472 226.577 368.052 227.151 367.768 227.889C367.484 228.622 367.342 229.477 367.342 230.455ZM385.478 237.273C384.217 237.273 383.129 236.994 382.214 236.438C381.305 235.875 380.603 235.091 380.109 234.085C379.62 233.074 379.376 231.898 379.376 230.557C379.376 229.216 379.62 228.034 380.109 227.011C380.603 225.983 381.29 225.182 382.171 224.608C383.058 224.028 384.092 223.739 385.273 223.739C385.955 223.739 386.629 223.852 387.293 224.08C387.958 224.307 388.563 224.676 389.109 225.188C389.654 225.693 390.089 226.364 390.413 227.199C390.737 228.034 390.898 229.062 390.898 230.284V231.136H380.808V229.398H388.853C388.853 228.659 388.705 228 388.41 227.42C388.12 226.841 387.705 226.384 387.165 226.048C386.631 225.713 386.001 225.545 385.273 225.545C384.472 225.545 383.779 225.744 383.194 226.142C382.614 226.534 382.168 227.045 381.856 227.676C381.543 228.307 381.387 228.983 381.387 229.705V230.864C381.387 231.852 381.558 232.69 381.898 233.378C382.245 234.06 382.725 234.58 383.339 234.938C383.952 235.29 384.665 235.466 385.478 235.466C386.006 235.466 386.484 235.392 386.91 235.244C387.342 235.091 387.714 234.864 388.026 234.562C388.339 234.256 388.58 233.875 388.751 233.42L390.694 233.966C390.489 234.625 390.146 235.205 389.663 235.705C389.18 236.199 388.583 236.585 387.873 236.864C387.163 237.136 386.364 237.273 385.478 237.273ZM393.958 237V223.909H395.901V225.886H396.038C396.276 225.239 396.708 224.713 397.333 224.31C397.958 223.906 398.663 223.705 399.447 223.705C399.594 223.705 399.779 223.707 400.001 223.713C400.222 223.719 400.39 223.727 400.504 223.739V225.784C400.435 225.767 400.279 225.741 400.035 225.707C399.796 225.668 399.543 225.648 399.276 225.648C398.64 225.648 398.072 225.781 397.572 226.048C397.077 226.31 396.685 226.673 396.396 227.139C396.112 227.599 395.969 228.125 395.969 228.716V237H393.958Z" fill="black"/>
<path d="M183.159 133H181.045C180.92 132.392 180.702 131.858 180.389 131.398C180.082 130.938 179.707 130.551 179.264 130.239C178.827 129.92 178.341 129.682 177.807 129.523C177.273 129.364 176.716 129.284 176.136 129.284C175.08 129.284 174.122 129.551 173.264 130.085C172.412 130.619 171.733 131.406 171.227 132.446C170.727 133.486 170.477 134.761 170.477 136.273C170.477 137.784 170.727 139.06 171.227 140.099C171.733 141.139 172.412 141.926 173.264 142.46C174.122 142.994 175.08 143.261 176.136 143.261C176.716 143.261 177.273 143.182 177.807 143.023C178.341 142.864 178.827 142.628 179.264 142.315C179.707 141.997 180.082 141.608 180.389 141.148C180.702 140.682 180.92 140.148 181.045 139.545H183.159C183 140.437 182.71 141.236 182.29 141.94C181.869 142.645 181.347 143.244 180.722 143.739C180.097 144.227 179.395 144.599 178.616 144.855C177.844 145.111 177.017 145.239 176.136 145.239C174.648 145.239 173.324 144.875 172.165 144.148C171.006 143.42 170.094 142.386 169.429 141.045C168.764 139.705 168.432 138.114 168.432 136.273C168.432 134.432 168.764 132.841 169.429 131.5C170.094 130.159 171.006 129.125 172.165 128.398C173.324 127.67 174.648 127.307 176.136 127.307C177.017 127.307 177.844 127.435 178.616 127.69C179.395 127.946 180.097 128.321 180.722 128.815C181.347 129.304 181.869 129.901 182.29 130.605C182.71 131.304 183 132.102 183.159 133ZM191.62 145.273C190.438 145.273 189.401 144.991 188.509 144.429C187.623 143.866 186.93 143.08 186.43 142.068C185.935 141.057 185.688 139.875 185.688 138.523C185.688 137.159 185.935 135.969 186.43 134.952C186.93 133.935 187.623 133.145 188.509 132.582C189.401 132.02 190.438 131.739 191.62 131.739C192.802 131.739 193.836 132.02 194.722 132.582C195.614 133.145 196.308 133.935 196.802 134.952C197.302 135.969 197.552 137.159 197.552 138.523C197.552 139.875 197.302 141.057 196.802 142.068C196.308 143.08 195.614 143.866 194.722 144.429C193.836 144.991 192.802 145.273 191.62 145.273ZM191.62 143.466C192.518 143.466 193.256 143.236 193.836 142.776C194.415 142.315 194.844 141.71 195.123 140.96C195.401 140.21 195.54 139.398 195.54 138.523C195.54 137.648 195.401 136.832 195.123 136.077C194.844 135.321 194.415 134.71 193.836 134.244C193.256 133.778 192.518 133.545 191.62 133.545C190.722 133.545 189.984 133.778 189.404 134.244C188.825 134.71 188.396 135.321 188.117 136.077C187.839 136.832 187.7 137.648 187.7 138.523C187.7 139.398 187.839 140.21 188.117 140.96C188.396 141.71 188.825 142.315 189.404 142.776C189.984 143.236 190.722 143.466 191.62 143.466ZM205.565 145.273C204.474 145.273 203.511 144.997 202.676 144.446C201.841 143.889 201.188 143.105 200.716 142.094C200.244 141.077 200.009 139.875 200.009 138.489C200.009 137.114 200.244 135.92 200.716 134.909C201.188 133.898 201.844 133.116 202.685 132.565C203.526 132.014 204.497 131.739 205.599 131.739C206.452 131.739 207.125 131.881 207.619 132.165C208.119 132.443 208.5 132.761 208.761 133.119C209.028 133.472 209.236 133.761 209.384 133.989H209.554V127.545H211.565V145H209.622V142.989H209.384C209.236 143.227 209.026 143.528 208.753 143.892C208.48 144.25 208.091 144.571 207.585 144.855C207.08 145.134 206.406 145.273 205.565 145.273ZM205.838 143.466C206.645 143.466 207.327 143.256 207.884 142.835C208.44 142.409 208.864 141.821 209.153 141.071C209.443 140.315 209.588 139.443 209.588 138.455C209.588 137.477 209.446 136.622 209.162 135.889C208.878 135.151 208.457 134.577 207.901 134.168C207.344 133.753 206.656 133.545 205.838 133.545C204.986 133.545 204.276 133.764 203.707 134.202C203.145 134.634 202.722 135.222 202.438 135.966C202.159 136.705 202.02 137.534 202.02 138.455C202.02 139.386 202.162 140.233 202.446 140.994C202.736 141.75 203.162 142.352 203.724 142.801C204.293 143.244 204.997 143.466 205.838 143.466ZM216.824 149.909C216.483 149.909 216.179 149.881 215.912 149.824C215.645 149.773 215.46 149.722 215.358 149.67L215.869 147.898C216.358 148.023 216.79 148.068 217.165 148.034C217.54 148 217.872 147.832 218.162 147.531C218.457 147.236 218.727 146.756 218.972 146.091L219.347 145.068L214.506 131.909H216.688L220.301 142.341H220.438L224.051 131.909H226.233L220.676 146.909C220.426 147.585 220.116 148.145 219.747 148.588C219.378 149.037 218.949 149.369 218.46 149.585C217.977 149.801 217.432 149.909 216.824 149.909Z" fill="black"/>
<path d="M396.045 152C395.858 151.426 395.611 150.912 395.304 150.457C395.003 149.997 394.642 149.605 394.222 149.281C393.807 148.957 393.335 148.71 392.807 148.54C392.278 148.369 391.699 148.284 391.068 148.284C390.034 148.284 389.094 148.551 388.247 149.085C387.401 149.619 386.727 150.406 386.227 151.446C385.727 152.486 385.477 153.761 385.477 155.273C385.477 156.784 385.73 158.06 386.236 159.099C386.741 160.139 387.426 160.926 388.29 161.46C389.153 161.994 390.125 162.261 391.205 162.261C392.205 162.261 393.085 162.048 393.847 161.622C394.614 161.19 395.21 160.582 395.636 159.798C396.068 159.009 396.284 158.08 396.284 157.011L396.932 157.148H391.682V155.273H398.33V157.148C398.33 158.585 398.023 159.835 397.409 160.898C396.801 161.96 395.96 162.784 394.886 163.369C393.818 163.949 392.591 164.239 391.205 164.239C389.659 164.239 388.301 163.875 387.131 163.148C385.966 162.42 385.057 161.386 384.403 160.045C383.756 158.705 383.432 157.114 383.432 155.273C383.432 153.892 383.616 152.651 383.986 151.548C384.361 150.44 384.889 149.497 385.571 148.719C386.253 147.94 387.06 147.344 387.991 146.929C388.923 146.514 389.949 146.307 391.068 146.307C391.989 146.307 392.847 146.446 393.642 146.724C394.443 146.997 395.156 147.386 395.781 147.892C396.412 148.392 396.938 148.991 397.358 149.69C397.778 150.384 398.068 151.153 398.227 152H396.045ZM402.497 164V150.909H404.509V164H402.497ZM403.52 148.727C403.128 148.727 402.79 148.594 402.506 148.327C402.227 148.06 402.088 147.739 402.088 147.364C402.088 146.989 402.227 146.668 402.506 146.401C402.79 146.134 403.128 146 403.52 146C403.912 146 404.247 146.134 404.526 146.401C404.81 146.668 404.952 146.989 404.952 147.364C404.952 147.739 404.81 148.06 404.526 148.327C404.247 148.594 403.912 148.727 403.52 148.727ZM410.204 146.545V164H408.192V146.545H410.204ZM415.899 146.545V164H413.888V146.545H415.899ZM425.072 164.273C423.81 164.273 422.722 163.994 421.808 163.438C420.898 162.875 420.197 162.091 419.702 161.085C419.214 160.074 418.969 158.898 418.969 157.557C418.969 156.216 419.214 155.034 419.702 154.011C420.197 152.983 420.884 152.182 421.765 151.608C422.651 151.028 423.685 150.739 424.867 150.739C425.549 150.739 426.222 150.852 426.887 151.08C427.552 151.307 428.157 151.676 428.702 152.188C429.248 152.693 429.683 153.364 430.006 154.199C430.33 155.034 430.492 156.062 430.492 157.284V158.136H420.401V156.398H428.447C428.447 155.659 428.299 155 428.004 154.42C427.714 153.841 427.299 153.384 426.759 153.048C426.225 152.713 425.594 152.545 424.867 152.545C424.066 152.545 423.373 152.744 422.788 153.142C422.208 153.534 421.762 154.045 421.45 154.676C421.137 155.307 420.981 155.983 420.981 156.705V157.864C420.981 158.852 421.151 159.69 421.492 160.378C421.839 161.06 422.319 161.58 422.933 161.938C423.546 162.29 424.259 162.466 425.072 162.466C425.6 162.466 426.077 162.392 426.504 162.244C426.935 162.091 427.308 161.864 427.62 161.562C427.933 161.256 428.174 160.875 428.344 160.42L430.288 160.966C430.083 161.625 429.739 162.205 429.256 162.705C428.773 163.199 428.177 163.585 427.467 163.864C426.756 164.136 425.958 164.273 425.072 164.273ZM439.245 150.909V152.614H432.461V150.909H439.245ZM434.438 147.773H436.45V160.25C436.45 160.818 436.532 161.244 436.697 161.528C436.867 161.807 437.083 161.994 437.344 162.091C437.612 162.182 437.893 162.227 438.188 162.227C438.41 162.227 438.592 162.216 438.734 162.193C438.876 162.165 438.989 162.142 439.075 162.125L439.484 163.932C439.347 163.983 439.157 164.034 438.913 164.085C438.668 164.142 438.359 164.17 437.984 164.17C437.415 164.17 436.859 164.048 436.313 163.804C435.773 163.56 435.325 163.188 434.967 162.688C434.614 162.188 434.438 161.557 434.438 160.795V147.773ZM447.964 150.909V152.614H441.18V150.909H447.964ZM443.157 147.773H445.168V160.25C445.168 160.818 445.251 161.244 445.415 161.528C445.586 161.807 445.802 161.994 446.063 162.091C446.33 162.182 446.612 162.227 446.907 162.227C447.129 162.227 447.31 162.216 447.452 162.193C447.594 162.165 447.708 162.142 447.793 162.125L448.202 163.932C448.066 163.983 447.876 164.034 447.631 164.085C447.387 164.142 447.077 164.17 446.702 164.17C446.134 164.17 445.577 164.048 445.032 163.804C444.492 163.56 444.043 163.188 443.685 162.688C443.333 162.188 443.157 161.557 443.157 160.795V147.773ZM456.337 164.273C455.076 164.273 453.988 163.994 453.073 163.438C452.164 162.875 451.462 162.091 450.968 161.085C450.479 160.074 450.235 158.898 450.235 157.557C450.235 156.216 450.479 155.034 450.968 154.011C451.462 152.983 452.15 152.182 453.031 151.608C453.917 151.028 454.951 150.739 456.133 150.739C456.815 150.739 457.488 150.852 458.153 151.08C458.817 151.307 459.423 151.676 459.968 152.188C460.513 152.693 460.948 153.364 461.272 154.199C461.596 155.034 461.758 156.062 461.758 157.284V158.136H451.667V156.398H459.712C459.712 155.659 459.565 155 459.269 154.42C458.979 153.841 458.565 153.384 458.025 153.048C457.491 152.713 456.86 152.545 456.133 152.545C455.332 152.545 454.638 152.744 454.053 153.142C453.474 153.534 453.028 154.045 452.715 154.676C452.403 155.307 452.246 155.983 452.246 156.705V157.864C452.246 158.852 452.417 159.69 452.758 160.378C453.104 161.06 453.585 161.58 454.198 161.938C454.812 162.29 455.525 162.466 456.337 162.466C456.866 162.466 457.343 162.392 457.769 162.244C458.201 162.091 458.573 161.864 458.886 161.562C459.198 161.256 459.44 160.875 459.61 160.42L461.553 160.966C461.349 161.625 461.005 162.205 460.522 162.705C460.039 163.199 459.442 163.585 458.732 163.864C458.022 164.136 457.224 164.273 456.337 164.273Z" fill="black"/>
<path d="M279.114 161V143.545H285.216C286.432 143.545 287.435 143.756 288.224 144.176C289.014 144.591 289.602 145.151 289.989 145.855C290.375 146.554 290.568 147.33 290.568 148.182C290.568 148.932 290.435 149.551 290.168 150.04C289.906 150.528 289.56 150.915 289.128 151.199C288.702 151.483 288.239 151.693 287.739 151.83V152C288.273 152.034 288.81 152.222 289.349 152.562C289.889 152.903 290.341 153.392 290.705 154.028C291.068 154.665 291.25 155.443 291.25 156.364C291.25 157.239 291.051 158.026 290.653 158.724C290.256 159.423 289.628 159.977 288.77 160.386C287.912 160.795 286.795 161 285.42 161H279.114ZM281.227 159.125H285.42C286.801 159.125 287.781 158.858 288.361 158.324C288.946 157.784 289.239 157.131 289.239 156.364C289.239 155.773 289.088 155.227 288.787 154.727C288.486 154.222 288.057 153.818 287.5 153.517C286.943 153.21 286.284 153.057 285.523 153.057H281.227V159.125ZM281.227 151.216H285.148C285.784 151.216 286.358 151.091 286.869 150.841C287.386 150.591 287.795 150.239 288.097 149.784C288.403 149.33 288.557 148.795 288.557 148.182C288.557 147.415 288.29 146.764 287.756 146.23C287.222 145.69 286.375 145.42 285.216 145.42H281.227V151.216ZM302.7 155.648V147.909H304.712V161H302.7V158.784H302.564C302.257 159.449 301.78 160.014 301.132 160.48C300.484 160.94 299.666 161.17 298.678 161.17C297.859 161.17 297.132 160.991 296.496 160.634C295.859 160.27 295.359 159.724 294.996 158.997C294.632 158.264 294.45 157.341 294.45 156.227V147.909H296.462V156.091C296.462 157.045 296.729 157.807 297.263 158.375C297.803 158.943 298.49 159.227 299.325 159.227C299.825 159.227 300.334 159.099 300.851 158.844C301.374 158.588 301.811 158.196 302.163 157.668C302.521 157.139 302.7 156.466 302.7 155.648ZM314.225 147.909V149.614H307.168V147.909H314.225ZM309.282 161V146.102C309.282 145.352 309.458 144.727 309.81 144.227C310.163 143.727 310.62 143.352 311.183 143.102C311.745 142.852 312.339 142.727 312.964 142.727C313.458 142.727 313.862 142.767 314.174 142.847C314.487 142.926 314.719 143 314.873 143.068L314.293 144.807C314.191 144.773 314.049 144.73 313.867 144.679C313.691 144.628 313.458 144.602 313.168 144.602C312.504 144.602 312.023 144.77 311.728 145.105C311.438 145.44 311.293 145.932 311.293 146.58V161H309.282ZM322.874 147.909V149.614H315.817V147.909H322.874ZM317.93 161V146.102C317.93 145.352 318.107 144.727 318.459 144.227C318.811 143.727 319.268 143.352 319.831 143.102C320.393 142.852 320.987 142.727 321.612 142.727C322.107 142.727 322.51 142.767 322.822 142.847C323.135 142.926 323.368 143 323.521 143.068L322.942 144.807C322.839 144.773 322.697 144.73 322.516 144.679C322.339 144.628 322.107 144.602 321.817 144.602C321.152 144.602 320.672 144.77 320.376 145.105C320.087 145.44 319.942 145.932 319.942 146.58V161H317.93ZM329.17 161.307C328.34 161.307 327.587 161.151 326.911 160.838C326.235 160.52 325.698 160.062 325.3 159.466C324.903 158.864 324.704 158.136 324.704 157.284C324.704 156.534 324.852 155.926 325.147 155.46C325.442 154.989 325.837 154.619 326.332 154.352C326.826 154.085 327.371 153.886 327.968 153.756C328.57 153.619 329.175 153.511 329.783 153.432C330.579 153.33 331.224 153.253 331.718 153.202C332.218 153.145 332.582 153.051 332.809 152.92C333.042 152.79 333.158 152.562 333.158 152.239V152.17C333.158 151.33 332.928 150.676 332.468 150.21C332.013 149.744 331.323 149.511 330.397 149.511C329.437 149.511 328.684 149.722 328.138 150.142C327.593 150.562 327.21 151.011 326.988 151.489L325.079 150.807C325.42 150.011 325.874 149.392 326.442 148.949C327.016 148.5 327.641 148.187 328.317 148.011C328.999 147.83 329.67 147.739 330.329 147.739C330.749 147.739 331.232 147.79 331.778 147.892C332.329 147.989 332.86 148.19 333.371 148.497C333.888 148.804 334.317 149.267 334.658 149.886C334.999 150.506 335.17 151.335 335.17 152.375V161H333.158V159.227H333.056C332.92 159.511 332.692 159.815 332.374 160.139C332.056 160.463 331.633 160.739 331.104 160.966C330.576 161.193 329.931 161.307 329.17 161.307ZM329.477 159.5C330.272 159.5 330.942 159.344 331.488 159.031C332.039 158.719 332.454 158.315 332.732 157.821C333.016 157.327 333.158 156.807 333.158 156.261V154.42C333.073 154.523 332.886 154.616 332.596 154.702C332.312 154.781 331.982 154.852 331.607 154.915C331.238 154.972 330.877 155.023 330.525 155.068C330.178 155.108 329.897 155.142 329.681 155.17C329.158 155.239 328.67 155.349 328.215 155.503C327.766 155.651 327.403 155.875 327.124 156.176C326.852 156.472 326.715 156.875 326.715 157.386C326.715 158.085 326.974 158.614 327.491 158.972C328.013 159.324 328.675 159.5 329.477 159.5ZM340.852 143.545V161H338.841V143.545H340.852ZM349.854 161.273C348.673 161.273 347.636 160.991 346.744 160.429C345.857 159.866 345.164 159.08 344.664 158.068C344.17 157.057 343.923 155.875 343.923 154.523C343.923 153.159 344.17 151.969 344.664 150.952C345.164 149.935 345.857 149.145 346.744 148.582C347.636 148.02 348.673 147.739 349.854 147.739C351.036 147.739 352.07 148.02 352.957 148.582C353.849 149.145 354.542 149.935 355.036 150.952C355.536 151.969 355.786 153.159 355.786 154.523C355.786 155.875 355.536 157.057 355.036 158.068C354.542 159.08 353.849 159.866 352.957 160.429C352.07 160.991 351.036 161.273 349.854 161.273ZM349.854 159.466C350.752 159.466 351.491 159.236 352.07 158.776C352.65 158.315 353.079 157.71 353.357 156.96C353.636 156.21 353.775 155.398 353.775 154.523C353.775 153.648 353.636 152.832 353.357 152.077C353.079 151.321 352.65 150.71 352.07 150.244C351.491 149.778 350.752 149.545 349.854 149.545C348.957 149.545 348.218 149.778 347.638 150.244C347.059 150.71 346.63 151.321 346.352 152.077C346.073 152.832 345.934 153.648 345.934 154.523C345.934 155.398 346.073 156.21 346.352 156.96C346.63 157.71 347.059 158.315 347.638 158.776C348.218 159.236 348.957 159.466 349.854 159.466Z" fill="black"/>
<path d="M360.114 361V343.545H362.227V359.125H370.341V361H360.114ZM377.193 361.307C376.364 361.307 375.611 361.151 374.935 360.838C374.259 360.52 373.722 360.062 373.324 359.466C372.926 358.864 372.727 358.136 372.727 357.284C372.727 356.534 372.875 355.926 373.17 355.46C373.466 354.989 373.861 354.619 374.355 354.352C374.849 354.085 375.395 353.886 375.991 353.756C376.594 353.619 377.199 353.511 377.807 353.432C378.602 353.33 379.247 353.253 379.741 353.202C380.241 353.145 380.605 353.051 380.832 352.92C381.065 352.79 381.182 352.562 381.182 352.239V352.17C381.182 351.33 380.952 350.676 380.491 350.21C380.037 349.744 379.347 349.511 378.42 349.511C377.46 349.511 376.707 349.722 376.162 350.142C375.616 350.562 375.233 351.011 375.011 351.489L373.102 350.807C373.443 350.011 373.898 349.392 374.466 348.949C375.04 348.5 375.665 348.187 376.341 348.011C377.023 347.83 377.693 347.739 378.352 347.739C378.773 347.739 379.256 347.79 379.801 347.892C380.352 347.989 380.884 348.19 381.395 348.497C381.912 348.804 382.341 349.267 382.682 349.886C383.023 350.506 383.193 351.335 383.193 352.375V361H381.182V359.227H381.08C380.943 359.511 380.716 359.815 380.398 360.139C380.08 360.463 379.656 360.739 379.128 360.966C378.599 361.193 377.955 361.307 377.193 361.307ZM377.5 359.5C378.295 359.5 378.966 359.344 379.511 359.031C380.063 358.719 380.477 358.315 380.756 357.821C381.04 357.327 381.182 356.807 381.182 356.261V354.42C381.097 354.523 380.909 354.616 380.619 354.702C380.335 354.781 380.006 354.852 379.631 354.915C379.261 354.972 378.901 355.023 378.548 355.068C378.202 355.108 377.92 355.142 377.705 355.17C377.182 355.239 376.693 355.349 376.239 355.503C375.79 355.651 375.426 355.875 375.148 356.176C374.875 356.472 374.739 356.875 374.739 357.386C374.739 358.085 374.997 358.614 375.514 358.972C376.037 359.324 376.699 359.5 377.5 359.5ZM386.864 361V347.909H388.808V349.886H388.944C389.183 349.239 389.614 348.713 390.239 348.31C390.864 347.906 391.569 347.705 392.353 347.705C392.501 347.705 392.685 347.707 392.907 347.713C393.129 347.719 393.296 347.727 393.41 347.739V349.784C393.342 349.767 393.185 349.741 392.941 349.707C392.702 349.668 392.45 349.648 392.183 349.648C391.546 349.648 390.978 349.781 390.478 350.048C389.984 350.31 389.592 350.673 389.302 351.139C389.018 351.599 388.876 352.125 388.876 352.716V361H386.864ZM399.646 361.307C398.817 361.307 398.064 361.151 397.388 360.838C396.712 360.52 396.175 360.062 395.777 359.466C395.379 358.864 395.18 358.136 395.18 357.284C395.18 356.534 395.328 355.926 395.624 355.46C395.919 354.989 396.314 354.619 396.808 354.352C397.303 354.085 397.848 353.886 398.445 353.756C399.047 353.619 399.652 353.511 400.26 353.432C401.055 353.33 401.7 353.253 402.195 353.202C402.695 353.145 403.058 353.051 403.286 352.92C403.518 352.79 403.635 352.562 403.635 352.239V352.17C403.635 351.33 403.405 350.676 402.945 350.21C402.49 349.744 401.8 349.511 400.874 349.511C399.913 349.511 399.161 349.722 398.615 350.142C398.07 350.562 397.686 351.011 397.464 351.489L395.555 350.807C395.896 350.011 396.351 349.392 396.919 348.949C397.493 348.5 398.118 348.187 398.794 348.011C399.476 347.83 400.146 347.739 400.805 347.739C401.226 347.739 401.709 347.79 402.254 347.892C402.805 347.989 403.337 348.19 403.848 348.497C404.365 348.804 404.794 349.267 405.135 349.886C405.476 350.506 405.646 351.335 405.646 352.375V361H403.635V359.227H403.533C403.396 359.511 403.169 359.815 402.851 360.139C402.533 360.463 402.109 360.739 401.581 360.966C401.053 361.193 400.408 361.307 399.646 361.307ZM399.953 359.5C400.749 359.5 401.419 359.344 401.964 359.031C402.516 358.719 402.93 358.315 403.209 357.821C403.493 357.327 403.635 356.807 403.635 356.261V354.42C403.55 354.523 403.362 354.616 403.072 354.702C402.788 354.781 402.459 354.852 402.084 354.915C401.714 354.972 401.354 355.023 401.001 355.068C400.655 355.108 400.374 355.142 400.158 355.17C399.635 355.239 399.146 355.349 398.692 355.503C398.243 355.651 397.879 355.875 397.601 356.176C397.328 356.472 397.192 356.875 397.192 357.386C397.192 358.085 397.45 358.614 397.967 358.972C398.49 359.324 399.152 359.5 399.953 359.5ZM409.317 361V347.909H411.261V349.955H411.431C411.704 349.256 412.144 348.713 412.752 348.327C413.36 347.935 414.09 347.739 414.942 347.739C415.806 347.739 416.525 347.935 417.099 348.327C417.678 348.713 418.13 349.256 418.454 349.955H418.59C418.925 349.278 419.428 348.741 420.099 348.344C420.769 347.94 421.573 347.739 422.511 347.739C423.681 347.739 424.638 348.105 425.383 348.838C426.127 349.565 426.499 350.699 426.499 352.239V361H424.488V352.239C424.488 351.273 424.224 350.582 423.695 350.168C423.167 349.753 422.545 349.545 421.829 349.545C420.908 349.545 420.195 349.824 419.69 350.381C419.184 350.932 418.931 351.631 418.931 352.477V361H416.886V352.034C416.886 351.29 416.644 350.69 416.161 350.236C415.678 349.776 415.056 349.545 414.295 349.545C413.772 349.545 413.283 349.685 412.829 349.963C412.38 350.241 412.016 350.628 411.738 351.122C411.465 351.611 411.329 352.176 411.329 352.818V361H409.317ZM430.177 361V347.909H432.188V361H430.177ZM431.2 345.727C430.808 345.727 430.469 345.594 430.185 345.327C429.907 345.06 429.768 344.739 429.768 344.364C429.768 343.989 429.907 343.668 430.185 343.401C430.469 343.134 430.808 343 431.2 343C431.592 343 431.927 343.134 432.205 343.401C432.489 343.668 432.631 343.989 432.631 344.364C432.631 344.739 432.489 345.06 432.205 345.327C431.927 345.594 431.592 345.727 431.2 345.727ZM441.361 361.273C440.099 361.273 439.011 360.994 438.097 360.438C437.188 359.875 436.486 359.091 435.991 358.085C435.503 357.074 435.259 355.898 435.259 354.557C435.259 353.216 435.503 352.034 435.991 351.011C436.486 349.983 437.173 349.182 438.054 348.608C438.94 348.028 439.974 347.739 441.156 347.739C441.838 347.739 442.511 347.852 443.176 348.08C443.841 348.307 444.446 348.676 444.991 349.188C445.537 349.693 445.972 350.364 446.295 351.199C446.619 352.034 446.781 353.062 446.781 354.284V355.136H436.69V353.398H444.736C444.736 352.659 444.588 352 444.293 351.42C444.003 350.841 443.588 350.384 443.048 350.048C442.514 349.713 441.884 349.545 441.156 349.545C440.355 349.545 439.662 349.744 439.077 350.142C438.497 350.534 438.051 351.045 437.739 351.676C437.426 352.307 437.27 352.983 437.27 353.705V354.864C437.27 355.852 437.44 356.69 437.781 357.378C438.128 358.06 438.608 358.58 439.222 358.938C439.835 359.29 440.548 359.466 441.361 359.466C441.889 359.466 442.366 359.392 442.793 359.244C443.224 359.091 443.597 358.864 443.909 358.562C444.222 358.256 444.463 357.875 444.634 357.42L446.577 357.966C446.372 358.625 446.028 359.205 445.545 359.705C445.063 360.199 444.466 360.585 443.756 360.864C443.045 361.136 442.247 361.273 441.361 361.273Z" fill="black"/>
<path d="M128.114 339V321.545H134.011C135.375 321.545 136.494 321.778 137.369 322.244C138.244 322.705 138.892 323.338 139.312 324.145C139.733 324.952 139.943 325.869 139.943 326.898C139.943 327.926 139.733 328.838 139.312 329.634C138.892 330.429 138.247 331.054 137.378 331.509C136.509 331.957 135.398 332.182 134.045 332.182H129.273V330.273H133.977C134.909 330.273 135.659 330.136 136.227 329.864C136.801 329.591 137.216 329.205 137.472 328.705C137.733 328.199 137.864 327.597 137.864 326.898C137.864 326.199 137.733 325.588 137.472 325.065C137.21 324.543 136.793 324.139 136.219 323.855C135.645 323.565 134.886 323.42 133.943 323.42H130.227V339H128.114ZM136.33 331.159L140.625 339H138.17L133.943 331.159H136.33ZM148.37 339.273C147.188 339.273 146.151 338.991 145.259 338.429C144.373 337.866 143.68 337.08 143.18 336.068C142.685 335.057 142.438 333.875 142.438 332.523C142.438 331.159 142.685 329.969 143.18 328.952C143.68 327.935 144.373 327.145 145.259 326.582C146.151 326.02 147.188 325.739 148.37 325.739C149.552 325.739 150.586 326.02 151.472 326.582C152.364 327.145 153.058 327.935 153.552 328.952C154.052 329.969 154.302 331.159 154.302 332.523C154.302 333.875 154.052 335.057 153.552 336.068C153.058 337.08 152.364 337.866 151.472 338.429C150.586 338.991 149.552 339.273 148.37 339.273ZM148.37 337.466C149.268 337.466 150.006 337.236 150.586 336.776C151.165 336.315 151.594 335.71 151.873 334.96C152.151 334.21 152.29 333.398 152.29 332.523C152.29 331.648 152.151 330.832 151.873 330.077C151.594 329.321 151.165 328.71 150.586 328.244C150.006 327.778 149.268 327.545 148.37 327.545C147.472 327.545 146.734 327.778 146.154 328.244C145.575 328.71 145.146 329.321 144.867 330.077C144.589 330.832 144.45 331.648 144.45 332.523C144.45 333.398 144.589 334.21 144.867 334.96C145.146 335.71 145.575 336.315 146.154 336.776C146.734 337.236 147.472 337.466 148.37 337.466ZM162.69 339.273C161.463 339.273 160.406 338.983 159.52 338.403C158.634 337.824 157.952 337.026 157.474 336.009C156.997 334.991 156.759 333.83 156.759 332.523C156.759 331.193 157.003 330.02 157.491 329.003C157.986 327.98 158.673 327.182 159.554 326.608C160.44 326.028 161.474 325.739 162.656 325.739C163.577 325.739 164.406 325.909 165.145 326.25C165.884 326.591 166.489 327.068 166.96 327.682C167.432 328.295 167.724 329.011 167.838 329.83H165.827C165.673 329.233 165.332 328.705 164.804 328.244C164.281 327.778 163.577 327.545 162.69 327.545C161.906 327.545 161.219 327.75 160.628 328.159C160.043 328.562 159.585 329.134 159.256 329.872C158.932 330.605 158.77 331.466 158.77 332.455C158.77 333.466 158.929 334.347 159.247 335.097C159.571 335.847 160.026 336.429 160.611 336.844C161.202 337.259 161.895 337.466 162.69 337.466C163.213 337.466 163.688 337.375 164.114 337.193C164.54 337.011 164.901 336.75 165.196 336.409C165.491 336.068 165.702 335.659 165.827 335.182H167.838C167.724 335.955 167.443 336.651 166.994 337.27C166.551 337.884 165.963 338.372 165.23 338.736C164.503 339.094 163.656 339.273 162.69 339.273ZM172.653 334.227L172.619 331.739H173.028L178.756 325.909H181.244L175.142 332.08H174.972L172.653 334.227ZM170.778 339V321.545H172.79V339H170.778ZM179.097 339L173.983 332.523L175.415 331.125L181.653 339H179.097ZM200.401 325.909C200.299 325.045 199.884 324.375 199.157 323.898C198.43 323.42 197.538 323.182 196.481 323.182C195.708 323.182 195.032 323.307 194.452 323.557C193.879 323.807 193.43 324.151 193.106 324.588C192.788 325.026 192.629 325.523 192.629 326.08C192.629 326.545 192.739 326.946 192.961 327.281C193.188 327.611 193.478 327.886 193.83 328.108C194.183 328.324 194.552 328.503 194.938 328.645C195.325 328.781 195.68 328.892 196.004 328.977L197.776 329.455C198.231 329.574 198.737 329.739 199.293 329.949C199.856 330.159 200.393 330.446 200.904 330.81C201.421 331.168 201.847 331.628 202.183 332.19C202.518 332.753 202.685 333.443 202.685 334.261C202.685 335.205 202.438 336.057 201.944 336.818C201.455 337.58 200.739 338.185 199.796 338.634C198.859 339.082 197.719 339.307 196.379 339.307C195.129 339.307 194.046 339.105 193.131 338.702C192.222 338.298 191.506 337.736 190.984 337.014C190.467 336.293 190.174 335.455 190.106 334.5H192.288C192.344 335.159 192.566 335.705 192.952 336.136C193.344 336.562 193.839 336.881 194.435 337.091C195.038 337.295 195.685 337.398 196.379 337.398C197.185 337.398 197.91 337.267 198.552 337.006C199.194 336.739 199.702 336.369 200.077 335.898C200.452 335.42 200.64 334.864 200.64 334.227C200.64 333.648 200.478 333.176 200.154 332.812C199.83 332.449 199.404 332.153 198.876 331.926C198.347 331.699 197.776 331.5 197.163 331.33L195.015 330.716C193.651 330.324 192.572 329.764 191.776 329.037C190.981 328.31 190.583 327.358 190.583 326.182C190.583 325.205 190.847 324.352 191.376 323.625C191.91 322.892 192.626 322.324 193.523 321.92C194.427 321.511 195.435 321.307 196.549 321.307C197.674 321.307 198.674 321.509 199.549 321.912C200.424 322.31 201.117 322.855 201.629 323.548C202.146 324.241 202.418 325.028 202.447 325.909H200.401ZM205.888 343.909V325.909H207.831V327.989H208.07C208.217 327.761 208.422 327.472 208.683 327.119C208.95 326.761 209.331 326.443 209.825 326.165C210.325 325.881 211.001 325.739 211.854 325.739C212.956 325.739 213.928 326.014 214.768 326.565C215.609 327.116 216.266 327.898 216.737 328.909C217.209 329.92 217.445 331.114 217.445 332.489C217.445 333.875 217.209 335.077 216.737 336.094C216.266 337.105 215.612 337.889 214.777 338.446C213.942 338.997 212.979 339.273 211.888 339.273C211.047 339.273 210.374 339.134 209.868 338.855C209.362 338.571 208.973 338.25 208.7 337.892C208.428 337.528 208.217 337.227 208.07 336.989H207.899V343.909H205.888ZM207.865 332.455C207.865 333.443 208.01 334.315 208.3 335.071C208.589 335.821 209.013 336.409 209.57 336.835C210.126 337.256 210.808 337.466 211.615 337.466C212.456 337.466 213.158 337.244 213.72 336.801C214.288 336.352 214.714 335.75 214.999 334.994C215.288 334.233 215.433 333.386 215.433 332.455C215.433 331.534 215.291 330.705 215.007 329.966C214.729 329.222 214.305 328.634 213.737 328.202C213.175 327.764 212.467 327.545 211.615 327.545C210.797 327.545 210.109 327.753 209.553 328.168C208.996 328.577 208.575 329.151 208.291 329.889C208.007 330.622 207.865 331.477 207.865 332.455ZM220.513 339V325.909H222.456V327.886H222.592C222.831 327.239 223.263 326.713 223.888 326.31C224.513 325.906 225.217 325.705 226.001 325.705C226.149 325.705 226.334 325.707 226.555 325.713C226.777 325.719 226.945 325.727 227.058 325.739V327.784C226.99 327.767 226.834 327.741 226.589 327.707C226.351 327.668 226.098 327.648 225.831 327.648C225.195 327.648 224.626 327.781 224.126 328.048C223.632 328.31 223.24 328.673 222.95 329.139C222.666 329.599 222.524 330.125 222.524 330.716V339H220.513ZM229.442 339V325.909H231.454V339H229.442ZM230.465 323.727C230.073 323.727 229.735 323.594 229.451 323.327C229.173 323.06 229.033 322.739 229.033 322.364C229.033 321.989 229.173 321.668 229.451 321.401C229.735 321.134 230.073 321 230.465 321C230.857 321 231.192 321.134 231.471 321.401C231.755 321.668 231.897 321.989 231.897 322.364C231.897 322.739 231.755 323.06 231.471 323.327C231.192 323.594 230.857 323.727 230.465 323.727ZM237.149 331.125V339H235.138V325.909H237.081V327.955H237.251C237.558 327.29 238.024 326.756 238.649 326.352C239.274 325.943 240.081 325.739 241.07 325.739C241.956 325.739 242.732 325.92 243.396 326.284C244.061 326.642 244.578 327.188 244.947 327.92C245.317 328.648 245.501 329.568 245.501 330.682V339H243.49V330.818C243.49 329.79 243.223 328.989 242.689 328.415C242.155 327.835 241.422 327.545 240.49 327.545C239.848 327.545 239.274 327.685 238.768 327.963C238.268 328.241 237.874 328.648 237.584 329.182C237.294 329.716 237.149 330.364 237.149 331.125ZM254.461 344.182C253.489 344.182 252.654 344.057 251.955 343.807C251.256 343.562 250.674 343.239 250.208 342.835C249.748 342.438 249.381 342.011 249.109 341.557L250.711 340.432C250.893 340.67 251.123 340.943 251.401 341.25C251.68 341.562 252.06 341.832 252.543 342.06C253.032 342.293 253.671 342.409 254.461 342.409C255.518 342.409 256.39 342.153 257.077 341.642C257.765 341.131 258.109 340.33 258.109 339.239V336.58H257.938C257.79 336.818 257.58 337.114 257.308 337.466C257.04 337.812 256.654 338.122 256.148 338.395C255.648 338.662 254.972 338.795 254.12 338.795C253.063 338.795 252.114 338.545 251.273 338.045C250.438 337.545 249.776 336.818 249.288 335.864C248.805 334.909 248.563 333.75 248.563 332.386C248.563 331.045 248.799 329.878 249.271 328.884C249.742 327.884 250.398 327.111 251.239 326.565C252.08 326.014 253.052 325.739 254.154 325.739C255.006 325.739 255.683 325.881 256.183 326.165C256.688 326.443 257.075 326.761 257.342 327.119C257.614 327.472 257.825 327.761 257.972 327.989H258.177V325.909H260.12V339.375C260.12 340.5 259.864 341.415 259.353 342.119C258.847 342.83 258.165 343.349 257.308 343.679C256.455 344.014 255.506 344.182 254.461 344.182ZM254.393 336.989C255.2 336.989 255.881 336.804 256.438 336.435C256.995 336.065 257.418 335.534 257.708 334.841C257.998 334.148 258.143 333.318 258.143 332.352C258.143 331.409 258.001 330.577 257.717 329.855C257.433 329.134 257.012 328.568 256.455 328.159C255.898 327.75 255.211 327.545 254.393 327.545C253.54 327.545 252.83 327.761 252.262 328.193C251.7 328.625 251.276 329.205 250.992 329.932C250.714 330.659 250.575 331.466 250.575 332.352C250.575 333.261 250.717 334.065 251.001 334.764C251.29 335.457 251.717 336.003 252.279 336.401C252.847 336.793 253.552 336.989 254.393 336.989ZM273.075 328.841L271.268 329.352C271.154 329.051 270.987 328.759 270.765 328.474C270.549 328.185 270.254 327.946 269.879 327.759C269.504 327.571 269.023 327.477 268.438 327.477C267.637 327.477 266.969 327.662 266.435 328.031C265.907 328.395 265.643 328.858 265.643 329.42C265.643 329.92 265.825 330.315 266.188 330.605C266.552 330.895 267.12 331.136 267.893 331.33L269.836 331.807C271.006 332.091 271.879 332.526 272.452 333.111C273.026 333.69 273.313 334.437 273.313 335.352C273.313 336.102 273.097 336.773 272.665 337.364C272.239 337.955 271.643 338.42 270.876 338.761C270.109 339.102 269.217 339.273 268.2 339.273C266.864 339.273 265.759 338.983 264.884 338.403C264.009 337.824 263.455 336.977 263.222 335.864L265.131 335.386C265.313 336.091 265.657 336.619 266.163 336.972C266.674 337.324 267.342 337.5 268.165 337.5C269.103 337.5 269.847 337.301 270.398 336.903C270.955 336.5 271.234 336.017 271.234 335.455C271.234 335 271.075 334.619 270.756 334.312C270.438 334 269.95 333.767 269.29 333.614L267.109 333.102C265.91 332.818 265.029 332.378 264.467 331.781C263.91 331.179 263.631 330.426 263.631 329.523C263.631 328.784 263.839 328.131 264.254 327.562C264.674 326.994 265.245 326.548 265.967 326.224C266.694 325.901 267.518 325.739 268.438 325.739C269.734 325.739 270.751 326.023 271.489 326.591C272.234 327.159 272.762 327.909 273.075 328.841Z" fill="black"/>
<circle cx="421.511" cy="131.511" r="9.01136" fill="#FFE587" stroke="black"/>
<circle cx="344.511" cy="128.511" r="9.01136" fill="#FFE587" stroke="black"/>
<circle cx="411.511" cy="374.511" r="9.01136" fill="#FFE587" stroke="black"/>
<circle cx="192.511" cy="357.511" r="9.01136" fill="#FFE587" stroke="black"/>
<circle cx="367.511" cy="252.511" r="9.01136" fill="#FFE587" stroke="black"/>
<circle cx="202.511" cy="112.511" r="9.01136" fill="#FFE587" stroke="black"/>
<defs>
<filter id="filter0_d_206_237" x="77.499" y="70.5" width="434.501" height="342.5" filterUnits="userSpaceOnUse" color-interpolation-filters="sRGB">
<feFlood flood-opacity="0" result="BackgroundImageFix"/>
<feColorMatrix in="SourceAlpha" type="matrix" values="0 0 0 0 0 0 0 0 0 0 0 0 0 0 0 0 0 0 127 0" result="hardAlpha"/>
<feOffset dy="4"/>
<feGaussianBlur stdDeviation="2"/>
<feComposite in2="hardAlpha" operator="out"/>
<feColorMatrix type="matrix" values="0 0 0 0 0 0 0 0 0 0 0 0 0 0 0 0 0 0 0.25 0"/>
<feBlend mode="normal" in2="BackgroundImageFix" result="effect1_dropShadow_206_237"/>
<feBlend mode="normal" in="SourceGraphic" in2="effect1_dropShadow_206_237" result="shape"/>
</filter>
</defs>
</svg>
