<svg width="1514" height="1010" viewBox="0 0 1514 1010" fill="none" xmlns="http://www.w3.org/2000/svg">
<rect x="0.25" y="0.25" width="1513.5" height="1009.5" rx="21.75" fill="white" stroke="black" stroke-width="0.5"/>
<rect x="0.25" y="0.25" width="1513.5" height="1009.5" rx="21.75" fill="white" stroke="black" stroke-width="0.5"/>
<path d="M728.5 93V87.5L729 84.5V83L728 78.5L727 76.5L726.16 74H576V173.5L741 174V166L740 162.5L737.5 155L736.5 152V144L735 121L734 118L731.5 111L730.5 107.5L728.5 104.5V93Z" fill="#3DCBFF" stroke="black" stroke-width="0.2"/>
<path d="M582 173.5H576L576.363 264.5H698.5L701 267C702.333 267.5 705.1 268.6 705.5 269C705.9 269.4 707.667 270.833 708.5 271.5H710L711.5 270.5L713 269H726L728.5 271.5L731.5 272.5L736.5 274L738.5 275.5L740 279L742.5 279.5L742 278L741.5 276.5L740.5 274.5V273L743 265L744 261.5L743.5 259.5L742.5 257L741.5 255.5L742 253L741.5 251.5L741 249H743.5V193L742.5 191.5L740 191L738 189L735.5 186V184L736.5 182.5L739 180.5L740.5 177L741 174L582 173.5Z" fill="#3DCBFF" stroke="black" stroke-width="0.2"/>
<path d="M745.5 287.5L745 282V279.5H742.5L740 279L738.5 275.5L736.5 274L735 273.5L731.5 272.5L728.5 271.5L726 269H713L711.5 270.5L710 271.5H708.5L705.5 269L704.5 268.5L703.5 268L701 267L698.5 264.5H576.5V324H620.5V352.5H766.5V351L765.5 347.5L764 345L761.5 342.5L761 338.5L759.5 337L759 335L756.5 332V328.5L757.5 321L756.5 317.5L755 313L751 306.5L752 301.5L751.5 299L750.5 295.5L747.5 291L745.5 287.5Z" fill="#3DCBFF" stroke="black" stroke-width="0.2"/>
<path d="M772.5 356.5L769.5 353.5L768 352.5H766.5H620.5V437.5H784.5V378.5L782 376L779 374L778 371L774 366L775.5 362.5L778.5 360.5L778 357.5L776 356L772.5 356.5Z" fill="#3DCBFF" stroke="black" stroke-width="0.2"/>
<path d="M772 61V73.5L726 74L727 76.5L728 78.5L729 83V84.5L728.5 87.7023V104.5L730.5 107.5L731.5 111L735 121L736.5 143.5V152L741 166V174L740.5 177L739 180.5L736.5 182.5L735.5 184V186L738 189L740 191L742.5 191.5L743.5 193V249H858.5L857.5 238.5L855 235L850.5 232.5L844.5 228L843.5 223.5L836.5 220.5L832 216.5L827 214L824.5 210V195.5L827 192V190L826 187L822 185V181L824.5 176.5L832 172.5L835.5 169.5V151L840.5 148L844.5 144.5L855 135.5L863 126.5L867 123.5L877 117.5L887.5 112L892.5 109.5L895 107.5L892 106.5L887.5 107.5L882.5 103.5H869L866 99.5L858 105.5H852V103.5H848V99.5H842.5L841 95H835.5V99.5H833V95L828.5 90L822 87H811.5L809 90H803L801.5 87L794 86L791 84H786L782.5 82V75L780 63.5L772 61Z" fill="#3DCBFF" stroke="black" stroke-width="0.2"/>
<path d="M863 257L859.5 254L859 253V249H858.5H741L741.5 251.5L742 253L741.5 255.5L742.5 257L743.5 259.5L744 261.5L740.5 273V274.5L741.5 276.5L742.5 279.5H745V282L745.5 287.5L747.5 291L750.5 295.5L751.5 299L752 301.5L751 306.5L755 313L757.5 321L756.5 328.5V332L759 335V335.5H759.5L847.5 335L854 341.5L855.5 339.5V336.5L859.5 334L861.5 332L863 328L865.5 325V322L861.5 317.5V314.5L864 311.5L871 310.5L877.5 307L879.5 303L882 300.5V290.5L877.5 287V285.5L872 279.5L870 275L863 272.5L859.5 261.5L863 257Z" fill="#3DCBFF" stroke="black" stroke-width="0.2"/>
<path d="M853.5 349.5V346.5L854 341.5L847.5 335L759 335.5L759.5 337L761 338.5L761.5 342.5L764 345L765.5 347.5L766.5 351V352.5H768L769.5 353.5L772.5 356.5L776 356L778 357.5L778.5 360.5L775.5 362.5L774 366L778 371L779 374L782 376L784.5 378.477V450.5H881.5L883 452.5L884 455.5L877.5 465H891.5L894 461L893 458L894 457L896.5 455.5V451.5L899.5 450.5L900 448L904 448.5V445.5L905 441.5L906 439L899.5 435.5L896.5 430.5L898.5 427L896.5 417.5L889.5 413H887L885 410L877.5 403V400L880 396L883 389L884 386L879 383H876.5L875 385L872.5 384L870.5 379.5V374.5L856 361L855 358L853.5 349.5Z" fill="#3DCBFF" stroke="black" stroke-width="0.2"/>
<path d="M881.5 157L877.5 154H876L871 151L869 151.5L867 152.5L866.5 151.5L867 149L868.5 146L869.5 143.5L867.5 141.5L847.5 150H842.5L841.5 149.5L840.5 148L835.5 151V169.5L832 172.5L824.5 176.5L822 181V185L826 187L827 190V192L824.5 195.5V210L827 214L832 216.5L836.5 220.5L843.5 223.5L844.5 228L850.5 232.5L855 235L857.5 238.5L858.5 249H859V253L859.5 254L863 257L859.5 261.5L863 272.5L870 275L872 279.5H934.5V275.5L935 274.5L935.5 273L934.5 272L934 268V261.5L932.5 258L934 253.5L938 244L935.5 239L937 233L941 227.5V220.5L945 212.5L948 208L948.5 203L951 201L952.5 198L952 195.5L951 194.5L943 207L939 208.5L935.5 213.5L930.5 218V214.5L934 208.5L938 204.5L940 200L935.5 198L937 192H932.5L934 185V181L928.5 177.5L927 174.5L924 173L913 171L883.5 160.5L881.5 157Z" fill="#3DCBFF" stroke="black" stroke-width="0.2"/>
<path d="M938 295L935 288.5L934.5 288V279.5H872L877.5 285.5V287L882 290.5V300.5L879.5 303L877.5 307L871 310.5L864 311.5L861.5 314.5V317.5L865.5 322V325L863 328L861.5 332L859.5 334L855.5 336.5V339.5L854 341.5L853.5 346.5V349.5L855 358L856 361L870.5 374.5V379.5L872.5 384L875 385L876.5 383H879L884 386L883 389L880 396L877.5 400V403L885 410L887 413H889.5L896.5 417.5L898.5 427L896.5 430.5L899.5 435.5L901.5 436.5V435H904.5L909.5 431.5L918.5 435.5H920.5V432.5L918.5 429.5L919.5 427.5L921.5 426.5L928.5 423.5L926 419L929 415.5L928.5 413V411.5L930 408.5L931 406V403.5L933 401.5L935 397L938 394.5L941.5 389.5V385L940 381.5L938 377L938.5 373.5L940.5 371V302L940 301.5L938.5 298.5L938 295Z" fill="#3DCBFF" stroke="black" stroke-width="0.2"/>
<path d="M890.5 146L885.5 151L883.5 152L877.5 154L881.5 157L883.5 160.5L913 171L924 173L927 174.5L928.5 177.5L934 181V185L932.5 192H937L935.5 198L940 200L939.5 199L940.5 198L948 186L951 180.5L952.5 177.5V182L957 180.5L958.5 177.5H963.5L961 179.5V184.5L966 179.5C967.167 178.167 969.5 175.1 969.5 173.5C969.5 171.9 973.5 174.167 975.5 175.5L982 171.5L988.5 169.5L997 173.5L1001.5 177.5L1003 171.5L1008.5 173.5H1020.5V171.5L1018.5 168.5L1014 166L1015.5 162.5V160L1011 156H1006.5L1003 158L995.5 156V152L997 147L992.5 148.5L972.5 151L958.5 158L952.5 155L944.5 156L939.5 147L930.5 143H924.5L921 146L920 145L921 142C921.667 140.667 923.1 137.9 923.5 137.5C923.9 137.1 925 134.667 925.5 133.5L932 129L935.5 126.5L936 125H928.5L923.5 126.5L909 140L903.5 143L890.5 146Z" fill="#3DCBFF" stroke="black" stroke-width="0.2"/>
<path d="M1020 188.5L1003 180.5H998V183L994 187L996.5 190L994 193H990L988 199.5V205.5L985.5 212.5L983 208V203V199.5L977.5 203L970 213.5V222.5L964.5 230L963.5 246.5L966.5 257L970 265.5L968.5 281.5L966 285.5L964.5 291L960.5 297.5L957.5 301.5H1000.5V303L1028.5 302L1036 293L1037.5 288.5L1039 284.5L1043.5 282.5V278.5L1047 275L1050 277L1053 263.5L1049 243.5L1046.5 236.5L1042 234L1035 236.5L1031 239L1030 242.5L1028.5 245L1026 246.5L1021.5 245L1020 239.5L1021.5 234.5L1028.5 228L1035 217.5L1034 208L1031.5 205.5L1034 203L1032.5 195L1023.5 190L1020 188.5Z" fill="#3DCBFF" stroke="black" stroke-width="0.2"/>
<path d="M1000 378L1000.5 303V301.5H957.5L955.5 302.5L950.5 304.5L947 306L946 305.5L942 303.5L940.5 302V371L938.5 373.5L938 377L941.5 385V389.5L938 394.5L935 397L933 401.5L931 403.5V406L928.5 411.5V413L929 415.5L931 414.5L932.5 413H938L941 410L945 413L949 415.5L951.5 413L954.5 410L960.5 413L963.5 408.5L966.5 406L969.5 408.5L973 410L976 408.5L977.5 402.5L982 401L984 397L987.5 393.5V390H992L996.5 387.5H1000L1000.5 385.5L999 380L1000 378Z" fill="#3DCBFF" stroke="black" stroke-width="0.2"/>
<path d="M1094.5 334.66V296L1090 297L1077.5 302.5L1068.5 309L1061 310L1052 313L1045.5 311H1043.5L1042 311.5V310L1044 309.5H1045.5L1044.5 308L1043 307.5V308L1041.5 309L1037 306L1034 304L1030.5 303.5L1028.5 302L1000.5 303L1000 378L1002 377L1005.5 378.5H1009L1012 382L1013.5 386.5L1020.5 387.5L1025.5 391.5L1029.5 389.5L1033 392H1035.5L1041 388.5H1042.5L1043.5 392L1048 395.5L1049 397.5H1053L1055 395.5L1057 394L1058 392L1057 389.5L1058 384.5L1061 381L1064 382.5V384.5L1067.5 383.5V379.5L1068.5 375L1072 374L1073.5 370.5L1077 371.5L1081.5 369.5L1087 363L1088 357L1089 354.5L1090.5 350L1093 343.5L1092.5 338V335.5L1094.5 334.66Z" fill="#3DCBFF" stroke="black" stroke-width="0.2"/>
<path d="M784.5 450.5V437.5H599.305L599.219 451H665.5V501.5L667 503L669.5 505.5L672.5 508L676.5 508.5L679.5 506.5L682 508L683 510L684 513L688.5 512.5L692.5 514.5L696.5 514L699 516.5L701.5 514L704.5 515L707 514.5L708.5 517.5L709.5 520.5L713 522L716.5 519L721 521.5L723.5 523L725.5 521.5L727.5 522V525.5L729 526L730 523L732 521L737 522.5L739.5 521L745 525.5L746.5 525H750.5L752 522.5H757L762.5 520L766 522L769.5 521.5L772 519.5L780 525.5L787 528L788 486L787.5 478L786 467L785 458L784.5 450.5Z" fill="#FF6E6E" stroke="black" stroke-width="0.2"/>
<path d="M799.5 573.5L797.5 571.5L796.504 530.164L789 530L787 528L780 525.5L772 519.5L769.5 521.5L766 522L762.5 520L757 522.5H752L750.5 525H746.5L745 525.5L739.5 521L737 522.5L732 521L730 523L729 526L727.5 525.5V522L725.5 521.5L723.5 523L716.5 519L713 522L709.5 520.5L708.5 517.5L707 514.5L704.5 515L701.5 514L699 516.5L696.5 514L692.5 514.5L688.5 512.5L684 513L683 510L682 508L679.5 506.5L676.5 508.5L672.5 508L665.5 501.477V451H599.152L598.5 571C572.5 570.833 520 570.505 520 570.523V573.5L523 576.5H524L529 585L534.5 587.5L546.5 600L557 606L558.5 612.5L562.5 617V625L565.5 630.5L576 639.5L582 640.5L584 643H587L592.5 647.5L597.5 648L602 642.5V638.5L603.5 637.5L604 634L606.5 628.5L613 628L614.5 625.5L619.5 627.5L631 627L646.5 640.5L649.5 644.5L651 649.5L658 659.5L659 665.5L667 673L668.5 678L676 683V689.5L678 691V697L681.5 701.5L686 712.5L692.5 713L695 716.5L700 717L702.5 719L707.5 720L713.5 720.5L718 723L721 725L723 725.5L724.5 724L727.5 722.5L725.5 720L725 715.5L722.5 711V704L719.5 702L720 701L720.5 698.5L722.5 697.5V695.5L722 692.5L718.5 692V691L720.5 690.5L721.5 689.5L723.5 690L724 688L725 685.5V681L724.5 679.5L724 678V677L726 676.5L727.5 677.5L729 676.5L730 674.5L730.5 673L731 672L730.5 671L728.5 670.5L729 669.5L730 669L732 668.5V669.5L733.5 670L734.5 668.5L736.5 668V667V664L736 663.5L737 663L738.5 663.5V664.5H739H739.5L740.5 664L742 663.5H744.5L744 661.5L743 660L740.5 658.5L741.5 657.5L746.5 657L747.5 656L748 657H753L757.5 654.5H762.5L764 653.5L768 651L772.5 644.5L776 642L778 641H779.5H780.5L781.5 639H780H778.5V638L778 636L775.5 633.5V630.5H776.5L778 631L780 630.5L781 628.5H783L782.5 631.5L781.5 634L782 634.5L783 634L786.5 634.5L782.5 636.5V637.5L787.5 635.5L793 632.5L797.5 631H801.5V629.5L800.5 629L799.5 627L802 622L804.5 619L803 613L807 598.5L807.5 592L803 582.5L802 580.5L801.5 577L799.5 573.5Z" fill="#FF6E6E"/>
<path d="M796.5 530L796.504 530.164M796.504 530.164L797.5 571.5L799.5 573.5L801.5 577L802 580.5L803 582.5L807.5 592L807 598.5L803 613L804.5 619L802 622L799.5 627L800.5 629L801.5 629.5V631H797.5L793 632.5L787.5 635.5L782.5 637.5V636.5L786.5 634.5L783 634L782 634.5L781.5 634L782.5 631.5L783 628.5H781L780 630.5L778 631L776.5 630.5H775.5V633.5L778 636L778.5 638V639H780H781.5L780.5 641H779.5H778L776 642L772.5 644.5L768 651L764 653.5L762.5 654.5H757.5L753 657H748L747.5 656L746.5 657L741.5 657.5L740.5 658.5L743 660L744 661.5L744.5 663.5H742L740.5 664L739.5 664.5H739H738.5V663.5L737 663L736 663.5L736.5 664V667V668L734.5 668.5L733.5 670L732 669.5V668.5L730 669L729 669.5L728.5 670.5L730.5 671L731 672L730.5 673L730 674.5L729 676.5L727.5 677.5L726 676.5L724 677V678L724.5 679.5L725 681V685.5L724 688L723.5 690L721.5 689.5L720.5 690.5L718.5 691V692L722 692.5L722.5 695.5V697.5L720.5 698.5L720 701L719.5 702L722.5 704V711L725 715.5L725.5 720L727.5 722.5L724.5 724L723 725.5L721 725L718 723L713.5 720.5L707.5 720L702.5 719L700 717L695 716.5L692.5 713L686 712.5L681.5 701.5L678 697V691L676 689.5V683L668.5 678L667 673L659 665.5L658 659.5L651 649.5L649.5 644.5L646.5 640.5L631 627L619.5 627.5L614.5 625.5L613 628L606.5 628.5L604 634L603.5 637.5L602 638.5V642.5L597.5 648L592.5 647.5L587 643H584L582 640.5L576 639.5L565.5 630.5L562.5 625V617L558.5 612.5L557 606L546.5 600L534.5 587.5L529 585L524 576.5H523L520 573.5C520 572.516 520 570.542 520 570.523C520 570.505 572.5 570.833 598.5 571L599.152 451H665.5V501.477L672.5 508L676.5 508.5L679.5 506.5L682 508L683 510L684 513L688.5 512.5L692.5 514.5L696.5 514L699 516.5L701.5 514L704.5 515L707 514.5L708.5 517.5L709.5 520.5L713 522L716.5 519L723.5 523L725.5 521.5L727.5 522V525.5L729 526L730 523L732 521L737 522.5L739.5 521L745 525.5L746.5 525H750.5L752 522.5H757L762.5 520L766 522L769.5 521.5L772 519.5L780 525.5L787 528L789 530L796.504 530.164Z" stroke="black" stroke-width="0.2"/>
<path d="M889 474.5L887.5 471L890 470.5L891.5 468.5H891L893.5 467.5H892.5V465.5L891.5 465H877.5L884 455.5L883 452.5L881.5 450.5H784.5L785 458L785.5 462.5L786 467L786.5 470.5L787.5 478L788 486L787 528L789 530H796.5L797 544.5H860L861 543L860.5 541L862 539L861 536L862 534H859.5V531.5L860.5 529.5L863 527H859.5L860.5 524.5L864 524L863 522L862 519.5L864 518.5L866 516.5L865 515L868.5 514L866.5 512L868.5 511L869.5 509L871.5 510L872.5 506.5L873 501.5L874 498L876 497L880 495L879.5 492L883 490.5L885 486L883 483.5V480L886 477.5L889 474.5Z" fill="#FF6E6E" stroke="black" stroke-width="0.2"/>
<path d="M859.5 547L862 546L860 544.5H797L797.5 571.5L799.5 573.5L801.5 577L802 580.5L807.5 592L807 598.5L803 613L804.5 619L802 622L801.5 623.5H802H803L803.5 625.5L802 627L801.5 628.5L802 629H811L812 628.5L813.5 628L816 628.5L819.5 629.5L830 634H837L837.5 633H840L840.5 632L839 630V628.5H841L842.5 626L843 625H844.5H845L846.5 627L845.5 629L847.5 630L850 629V631L851.5 633C851.667 633.667 851.9 635 851.5 635C851.1 635 854.667 635.667 856.5 636L859 636.5L861 638C861.167 638.833 861.5 640.6 861.5 641C861.5 641.4 859.833 640.167 859 639.5L857 640.5L860 642L863.5 643L864 641L865.5 639L867.5 640.5L869 644.5L873 641L874.5 639L877 639.5L880.5 642.5L881.5 644.5L883.5 643.5L884 642.5V641L885 639.5L884.5 637.5L884 636L881 635.5L881.5 634.5L883.5 634L885.5 635L887.5 637H891L892 638H895L897.5 640.5L899 643.5L901.5 641.5L900 639.5C899 638.833 896.9 637.5 896.5 637.5C896.1 637.5 896.333 636.5 896.5 636L894 635.5V633.5C894 633.1 894.667 633.333 895 633.5L897 630.5L899.5 628.5L899 625.799L898.5 624.5L899 623L900.5 621.5L898 620L896.5 622V623V625L896 626C895.5 625.833 894.4 625.5 894 625.5C893.6 625.5 892.833 624.833 892.5 624.5L890 623L889.5 622.5H891L892.5 620.5L893 620L892.5 619L891 618.5L890 619L888.5 619.5L888 620L886.5 621H884L881 621.5L879 621L877 619.5L878 617.5L880 615L881 613.5L883 613L884.5 613.5L886 615L888.5 616.5L891.5 618H893L893.5 616.5L892.5 612.5L889.5 606L890 603L891.5 596.5H851L851.5 594.5L850 592L850.5 590H852L851.5 588V586.5L853 587V585.5L852.5 584L854.5 582.5V581L853.5 580H854.5L855.5 578.5L857 577.5L856 576L857.5 575.5L859 574.5L860 572L861 570.5L862.5 568.5L862 567.5L861.5 565.5H864C864.4 565.5 865.167 563.5 865.5 562.5L864.5 561.5L863 558.5L862 556.5L863 554L861.5 553.5V551.5V549L859.5 547Z" fill="#FF6E6E" stroke="black" stroke-width="0.2"/>
<path d="M928 491.5H883H880.5L879.5 492L880 495L874 498L873 501.5L872.5 506.5L871.5 510L869.5 509L868.5 511L866.5 512L868.5 514L865 515L866 516.5L864 518.5L862 519.5L863 522L864 524L860.5 524.5L859.5 527H863L860.5 529.5L859.5 531.5V534H862L861 536L862 539L860.5 541L861 543L860 544.5L862 546L859.5 547L861.5 549V553.5L863 554L862 556.5L864.5 561.5L865.5 562.5L864 565.5H861.5L862 567.5L862.5 568.5L860 572L859 574.5L857.5 575.5L856 576L857 577.5L855.5 578.5L854.5 580H853.5L854.5 581V582.5L852.5 584L853 585.5V587L851.5 586.5V588L852 590H850.5L850 592L851.5 594.5L851 596.5H891.5L889.5 606L892.5 612.5L893.5 616.5H895.5H899.5L901 613.5C902.167 613.833 904.6 614.6 905 615C905.4 615.4 907.167 613.833 908 613L913 613.5L921 614L920 573L923 538.5L927 501L928 491.5Z" fill="#FF6E6E" stroke="black" stroke-width="0.2"/>
<path d="M1049 403V397.5L1048 395.5L1043.5 392L1042.5 388.5H1041L1035.5 392H1033L1029.5 389.5L1025.5 391.5L1020.5 387.5L1013.5 386.5L1012 382L1009 378.5H1005.5L1002 377L1000 378L999 380L1000.5 385.5L1000 387.5H996.5L992 390H987.5V393.5L984 397L982 401L977.5 402.5L976 408.5L973 410L969.5 408.5L966.5 406L963.5 408.5L960.5 413L954.5 410L949 415.5L945 413L941 410L938 413H932.5L931 414.5L929 415.5L926 419L928.5 423.5L919.5 427.5L918.5 429.5L920.5 432.5V435.5H918.5L909.5 431.5L904.5 435H901.5V436.5L906 439L905 441.5L904 445.5V448.5L900 448L899.5 450.5L898 451H928L928.5 448L929 446H933V447L1026 448L1034 445.5L1037.5 443.5L1041.5 440L1045.5 436L1046.5 433.5L1049 432L1057 427.5L1063 422.5L1061 420.5L1056 418.5V415.5L1052 413.5V409.5L1049 406V403Z" fill="#FF6E6E" stroke="black" stroke-width="0.2"/>
<path d="M1064 456.5L1068 455.5L1069 452.5V448.5L933 447V446H929L928.5 448L928 451H898L896.5 451.5V455.5L894 457L893 458L894 461L891.5 465L892.5 465.5V467.5H893.5L891 468.5H891.5L890 470.5L887.5 471L889 474.5L886 477.5L883 480V483.5L885 486L883 490.5L880.5 491.5L1011 492L1011.5 486.5L1012.5 485L1017.5 483.5L1019 479L1041 469.5L1042.5 467L1047 463.5L1050 465.5L1054 461.5L1061.5 461L1064 456.5Z" fill="#FF6E6E" stroke="black" stroke-width="0.2"/>
<path d="M992.5 549.5L990.5 538.5L983.004 492.023L928 492L920 573L921 614L922 613L925 612.5L926 613.5H928.5V607L931 605.5L932 609L932.5 612.5L934.5 614L936 616L938.5 617.5L940.5 617L942 614L943 612L943.5 610.5L942 609L943 607L940 603L938 598L940 597L995.5 596.5L993.5 591.5L994.5 585V580L993.5 575.5L994.5 569.5L996 567L998 564L996 562V558L992.5 549.5Z" fill="#FF6E6E"/>
<path d="M983 492L983.004 492.023M983.004 492.023L990.5 538.5L992.5 549.5L996 558V562L998 564L996 567L994.5 569.5L993.5 575.5L994.5 580V585L993.5 591.5L995.5 596.5L940 597L938 598L940 603L943 607L942 609L943.5 610.5L943 612L942 614L940.5 617L938.5 617.5L936 616L934.5 614L932.5 612.5L932 609L931 605.5L928.5 607V613.5H926L925 612.5L922 613L921 614L920 573L928 492L983.004 492.023Z" stroke="black" stroke-width="0.2"/>
<path d="M1126 368.5L1117.5 375V360.5H1094.5V334.5L1092.5 335.5V338L1093 343.5L1090.5 350L1088 357L1087 363L1081.5 369.5L1077 371.5L1073.5 370.5L1072 374L1068.5 375L1067.5 379.5V383.5L1064 384.5V382.5L1061 381L1058 384.5L1057 389.5L1058 392L1057 394L1055 395.5L1053 397.5H1049V406L1052 409.5V413.5L1056 415.5V418.5L1061 420.5L1063 422.5L1062.5 425L1064.5 428L1068 431.5H1070.5L1074.5 429L1076.5 428.5L1079 430.5L1083 429.5L1086 428.5L1086.5 427L1088 426.5L1089.5 427L1092.5 424.5H1094L1095.5 425.5L1098.5 423.5L1099.5 421.5V418L1108 406L1110.5 399L1112.5 396.5L1114.5 393.5L1118 396.5L1121.5 398L1126.5 389L1129 386.5L1131.5 387L1133.5 384L1137 382L1141.5 372L1143 368L1147.5 372.5L1153.5 377L1156.5 372L1156 368.5L1153 365.5L1148 362.5H1146.5L1144 363.5L1141 364.5L1139.5 366H1136L1133 363.5L1129 368.5H1126Z" fill="#FF6E6E" stroke="black" stroke-width="0.2"/>
<path d="M1169.5 383.5L1164 379.5H1162.5L1161.5 378.5L1161 376.5L1162 374.5L1160 372.5L1156.5 372L1153.5 377L1147.5 372.5L1143 368L1141.5 372L1137 382L1133.5 384L1131.5 387L1129 386.5L1126.5 389L1121.5 398L1118 396.5L1114.5 393.5L1110.5 399L1108 406L1099.5 418V421.5L1098.5 423.5L1095.5 425.5L1094 424.5H1092.5L1089.5 427L1088 426.5L1086.5 427L1086 428.5L1079 430.5L1076.5 428.5L1074.5 429L1070.5 431.5H1068L1064.5 428L1062.5 425L1063 422.5L1057 427.5L1046.5 433.5L1045.5 436L1041.5 440L1037.5 443.5L1034 445.5L1026 448L1195.5 449.5V440.5L1192.5 440L1191.5 439.5L1190 440L1188 442.5L1183.5 439.5L1180 434.5L1173.5 431V429.5L1179 432.5L1183.5 436L1186.5 438L1188 433.5L1185.5 428L1188 429.5L1189.5 424.5L1183.5 421.5L1175 412V409.5L1181.5 415L1186.5 419.5L1189.5 412L1180 405.5L1175 403.5L1173.5 402L1171 398.5L1167 399.5L1165.5 398.5V394.5L1168 390L1172 388L1169.5 383.5Z" fill="#FF6E6E" stroke="black" stroke-width="0.2"/>
<path d="M1204 409L1200.5 411.5V413L1202 414L1200 415.5L1199 417L1196 422L1195 426.5L1194.5 432.5L1196 433.5C1196.67 432.5 1198.1 430.4 1198.5 430C1198.9 429.6 1198 428.5 1197.5 428L1200 424L1202 423L1203 420L1204 417L1207 412L1208.5 408.5L1204 409Z" fill="#FF6E6E" stroke="black" stroke-width="0.2"/>
<path d="M1198.5 462L1197 455.5L1196.5 454L1195 453.5V450.5L1195.5 449.5L1069 448.5V452.5L1068 455.5L1064 456.5L1061.5 461L1054 461.5L1050 465.5L1047 463.5L1042.5 467L1041 469.5L1019 479L1017.5 483.5L1012.5 485L1011.5 486.5L1011 492L1037 491.5L1055.5 486L1075 486.5L1084.5 488L1088.5 493L1089 496L1113.5 497L1139 523L1144.5 521.5L1150 520.5L1151 518L1156 511.5L1164.5 504L1169.5 502.5L1174 500L1184.5 499L1187.5 494V492.5H1186L1185 493.5V491H1184L1178.5 494L1175 494.5L1173 492.5C1173.83 492.5 1172.2 489 1173 489C1173.8 489 1177.17 492.833 1177.5 492.5L1183 488C1183 486.833 1184 485.3 1184 484.5C1184 483.7 1179.67 482.167 1178 482L1175 481L1182 480L1185.5 480.5L1187.5 483L1193 482.5L1194 480.5L1197 475.5C1198.33 474.5 1197.8 476.9 1199 476.5C1200.2 476.1 1200.33 473.333 1200.5 471.5V469L1199.5 468L1195.5 467.5V471.5L1193.5 473V465.5L1187.5 466L1181 467V465L1187.5 462L1193 460L1198.5 462Z" fill="#FF6E6E" stroke="black" stroke-width="0.2"/>
<path d="M1128.5 530L1132 526L1134.5 524.5L1139 523L1113.5 497L1089 496L1088.5 493L1084.5 488L1075 486.5L1055.5 486L1037 491.5L1033 498V500L1038 504.5L1043 506.5L1048.5 517.5L1050.5 520.5L1053.5 522L1057 524.5L1058.5 528L1062.5 531L1063.5 535L1065.5 538L1067.5 540L1069.5 542.5L1072.5 544.5L1075 549V553.5L1081 561V566.5L1087.5 570.5V567V564.5V562L1092 563H1095.5L1093.5 559L1096.5 558H1101L1116 549C1116.17 548.167 1116.4 546.3 1116 545.5C1115.6 544.7 1118.17 544.5 1119.5 544.5L1124 540V538L1128.5 530Z" fill="#FF6E6E" stroke="black" stroke-width="0.2"/>
<path d="M1080.5 578.5C1081.5 577.333 1083.6 575 1084 575L1084.5 574.5H1085.5L1086 573.5L1085.5 573V572H1087L1087.5 570.5L1081 566.5V561L1075 553.5V549L1072.5 544.5L1069.5 542.5L1067.5 540L1065.5 538L1063.5 535L1062.5 531L1058.5 528L1057 524.5L1053.5 522L1050.5 520.5L1048.5 517.5L1043 506.5L1038 504.5L1033 500V498L1037 491.5L983 492L992.5 549.5L996 558V562L998 564L994.5 569.5L993.5 575.5L994.5 580V585L993.5 591.5L995.5 596.5L997 601L999.5 604L1057.5 607.5L1058 612.5L1059.5 613L1062 610L1061 606L1062 603L1065 601L1072 603L1074 601V598H1070.5L1069.5 596.5C1071 596.167 1074 595.4 1074 595V593.5H1076L1078.5 590.5L1077 589L1079.5 585.5L1078.5 583L1080.5 581.5L1076 578.5V577.5L1080.5 578.5Z" fill="#FF6E6E" stroke="black" stroke-width="0.2"/>
<path d="M1078.5 626.5L1077 615.5L1075.5 612C1075.33 611.167 1075 609.4 1075 609C1075 608.6 1074.67 605.833 1074.5 604.5L1072 603L1065 601L1062 603L1061 606L1062 610L1059.5 613L1058 612.5L1057.5 607.5L999.5 604L997 601L995.5 596.5L940 597L938 598L940 603L943 607L942 609L943.5 610.5L943 612L941 616L943.5 614.5L946 613.5L947.5 612L949 610.5L952 610L953.5 611L952.5 611.5L952 612.5H960L962.5 610.5H966C966.4 610.5 967.833 610.167 968.5 610L970.5 611.5L968.5 612.5L967.5 613L973.5 615.5L982 620.5L988.5 625.5L990 630H995H999.5L1003 626.5L1007 624.5H1010.5L1009.5 623L1013.5 620.5H1015H1019L1021.5 623L1023.5 623.5L1028 628.5L1029.5 630L1031.5 631L1032.5 634C1034.5 637 1038.6 643 1039 643C1039.4 643 1042.5 644 1044 644.5L1045.5 648C1046.5 650.167 1048.5 654.6 1048.5 655C1048.5 655.4 1048.83 655.833 1049 656L1048 662L1046.5 666.5L1044.5 671V676.5L1045.5 678.5L1047.5 680L1049.5 678L1047.5 675.5V673.5L1050 674H1052.5L1053.5 676.5L1052.5 679.5L1051 683L1049 685.5L1050 688.5L1051 691.5L1052.5 694L1051.5 695L1057 701.5L1058.5 700.5L1060.5 699.5V701.5L1061.5 706.5L1066 712.5V716.5L1069 723L1072 725.5L1075 726.5L1078.5 730L1081 737V743L1090 744L1092.5 742L1096.5 741.5L1099 737L1100.5 732.5L1102 730L1103.5 722L1105.5 710V701.5L1103.5 694L1100.5 691.5L1099 682L1095.5 675L1091 664L1089.5 659.5V653.5L1085 644.5L1078.5 626.5Z" fill="#FF6E6E" stroke="black" stroke-width="0.2"/>
<path d="M1215 396.5H1201L1199.01 365.116L1199 360.5H1117.5V375L1126 368.5H1129L1133 363.5L1136 366H1139.5L1141 364.5L1146.5 362.5H1148L1153 365.5L1156 368.5L1156.5 372L1160 372.5L1162 374.5L1161 376.5L1161.5 378.5L1162.5 379.5H1164L1169.5 383.5L1172 388L1168 390L1165.5 394.5V398.5L1167 399.5L1171 398.5L1170.5 397.5V397H1171.5L1172.5 398L1173 400.5H1175L1175.5 399.5L1176.5 401L1177.5 403.5H1179.5H1182L1182.5 405H1184L1184.5 404L1185.5 406C1185.67 406.333 1186 407.1 1186 407.5C1186 407.9 1187.33 406.667 1188 406L1187 405L1186 402.5L1184.5 400.5L1183 399.5L1180.5 396.5L1180 394.5L1181 394L1181.5 396.5L1183.5 399L1184.5 399.5C1184.83 399.5 1185.5 399.4 1185.5 399C1185.5 398.6 1184.83 397.5 1184.5 397L1184 394.5L1183 394L1182.5 389.5L1183.5 387L1185 385.5C1185.5 384.667 1186.5 382.9 1186.5 382.5C1186.5 382.1 1186.17 380.333 1186 379.5L1183.5 376.5L1184.5 374L1192 370L1193 365H1195.5L1196 366.5H1197.5L1196.5 368L1191.5 372.5L1188.5 377L1188 378.5L1188.5 383V386.5V388.5L1187.5 390.5L1190.5 391L1193 392L1193.5 393H1189.5L1188.5 393.5L1188 398L1193.5 402.5V400.5L1194 400L1194.5 399L1195 398H1195.5V399.5L1194.5 400V402L1195.5 403V405.5L1197 406.5L1198.5 407V408.5L1198 409L1197 410L1198 411.5H1200.5L1204 409L1208.5 408.5L1209.5 407.5L1211 407L1211.5 404.5L1213.5 401.5L1215 398.5V396.5Z" fill="#FF6E6E"/>
<path d="M1199 365L1199.01 365.116M1199.01 365.116L1201 396.5H1215V398.5L1213.5 401.5L1211.5 404.5L1211 407L1209.5 407.5L1208.5 408.5L1204 409L1200.5 411.5H1198L1197 410L1198 409L1198.5 408.5V407L1197 406.5L1195.5 405.5V403L1194.5 402V400L1195.5 399.5V398H1195L1194.5 399L1194 400L1193.5 400.5V402.5L1188 398L1188.5 393.5L1189.5 393H1193.5L1193 392L1190.5 391L1187.5 390.5L1188.5 388.5V386.5V383L1188 378.5L1188.5 377L1191.5 372.5L1196.5 368L1197.5 366.5H1196L1195.5 365H1193L1192 370L1184.5 374L1183.5 376.5L1186 379.5C1186.17 380.333 1186.5 382.1 1186.5 382.5C1186.5 382.9 1185.5 384.667 1185 385.5L1183.5 387L1182.5 389.5L1183 394L1184 394.5L1184.5 397C1184.83 397.5 1185.5 398.6 1185.5 399C1185.5 399.4 1184.83 399.5 1184.5 399.5L1183.5 399L1181.5 396.5L1181 394L1180 394.5L1180.5 396.5L1183 399.5L1184.5 400.5L1186 402.5L1187 405L1188 406C1187.33 406.667 1186 407.9 1186 407.5C1186 407.1 1185.67 406.333 1185.5 406L1184.5 404L1184 405H1182.5L1182 403.5H1179.5H1177.5L1176.5 401L1175.5 399.5L1175 400.5H1173L1172.5 398L1171.5 397H1170.5V397.5L1171 398.5L1167 399.5L1165.5 398.5V394.5L1168 390L1172 388L1169.5 383.5L1164 379.5H1162.5L1161.5 378.5L1161 376.5L1162 374.5L1160 372.5L1156.5 372L1156 368.5L1153 365.5L1148 362.5H1146.5L1141 364.5L1139.5 366H1136L1133 363.5L1129 368.5H1126L1117.5 375V360.5H1199L1199.01 365.116Z" stroke="black" stroke-width="0.2"/>
<path d="M1203.5 368V363.5V360L1202.5 359.5L1201.5 359L1200 359.5L1199 360.5V365L1201 396.5H1215V392L1213.5 391L1214.5 388L1211 385.5L1209 379.5L1207 373.5L1203.5 368Z" fill="#FF6E6E" stroke="black" stroke-width="0.2"/>
<path d="M1209 295L1111.5 294.5V286.5L1108.5 288.5L1104.5 291L1098.5 294L1094.5 296V360.5H1199.5L1204.5 360L1209.5 357L1222.5 348L1212.5 336.5L1212 330.5L1215 328.5L1213.5 324.5L1223 314L1222.5 311.5L1217 309.5L1214.5 299.5L1209 295Z" fill="#3FF183" stroke="black" stroke-width="0.2"/>
<path d="M1241 324.5L1223 314L1213.5 324.5L1215 328.5L1212 330.5L1212.5 336.5L1222.5 348L1204.5 360H1203.5L1204.5 363L1205.5 367L1210 372.5L1217 376L1222.5 378.5L1224 376L1225 373.5L1227.5 372.5L1231 369.5V367L1233 363L1239 348V342L1235 340L1234 338.5L1236 337.5L1237.5 335L1239.5 329.5L1240 327L1241 324.5Z" fill="#3FF183" stroke="black" stroke-width="0.2"/>
<path d="M1131.5 271L1124.5 279L1115 285L1111.5 286.5V294.5L1209 295L1214.5 299.5L1217 309.5L1222.5 311.5L1223 314L1241 324.5L1240 327L1239.5 329L1238 334L1238.5 335L1240 335.375L1242.5 335L1245 336L1251 333.5L1255 333L1263 331H1266.5L1275 329L1286 328L1289.5 324.5C1289.36 323.309 1291 322.5 1286 322.5L1281 324.5L1277.25 324.25L1273.5 324H1269.5C1268 324 1262 325.5 1262 325.5H1258.5L1254 327L1251 327.5H1248.5L1245 324.5L1249.5 318L1248.5 307L1249.5 293L1254.5 272.5L1255 249.5L1254 246L1252 247L1251.5 243.5L1252 240L1251.5 229L1254 224L1254.5 219L1255 210.5C1255.17 208.167 1255.5 203.4 1255.5 203C1255.5 202.6 1253.5 202.833 1252.5 203L1216 204L1204.5 213.5L1205 214.5L1189 230L1187 230.5V233L1188.5 235H1192L1193 236.5L1191 238L1190 238.5L1188.5 239.5L1189 241L1190 243L1189.5 248.5H1186.5L1184.5 249.5L1181 253L1176 256L1169 257L1168.5 257.5L1160.5 257C1158.33 256 1153.8 254 1153 254H1144L1133 254.5L1126.5 257.5L1127 259V261L1128 262.5V264.5L1130 267L1131 269L1131.5 271Z" fill="#3FF183"/>
<path d="M1115 285L1124.5 279L1131.5 271L1131 269L1130 267L1128 264.5V262.5L1127 261V259L1126.5 257.5L1133 254.5L1144 254C1146.67 254 1152.2 254 1153 254C1153.8 254 1158.33 256 1160.5 257L1168.5 257.5L1169 257L1176 256L1181 253L1184.5 249.5L1186.5 248.5H1189.5L1190 243L1189 241L1188.5 239.5L1190 238.5L1191 238L1193 236.5L1192 235H1188.5L1187 233V230.5L1189 230L1205 214.5L1204.5 213.5L1216 204L1252.5 203C1253.5 202.833 1255.5 202.6 1255.5 203C1255.5 203.4 1255.17 208.167 1255 210.5L1254.5 219L1254 224L1251.5 229L1252 240L1251.5 243.5L1252 247L1254 246L1255 249.5L1254.5 272.5L1249.5 293L1248.5 307L1249.5 318L1245 324.5L1248.5 327.5H1251L1254 327L1258.5 325.5H1262C1262 325.5 1268 324 1269.5 324C1271 324 1273.5 324 1273.5 324L1277.25 324.25L1281 324.5L1286 322.5C1291 322.5 1289.36 323.309 1289.5 324.5L1286 328L1275 329L1266.5 331H1263L1255 333L1251 333.5L1245 336L1242.5 335L1240 335.375L1240.5 335.5L1238.5 335L1238 334L1239.5 329L1240 327L1241 324.5L1223 314L1222.5 311.5L1217 309.5L1214.5 299.5L1209 295L1111.5 294.5V286.5L1115 285Z" stroke="black" stroke-width="0.2"/>
<path d="M1292 216L1290.5 211L1293.5 207V203H1255.5L1254 224L1251.5 229L1252 240L1251.5 243.5L1252 247L1254 246L1255 249.5L1254.5 272.5H1270.5V267L1271.5 262.5L1275 247L1281.5 232.5L1281 227.5L1282 223.5L1286.5 221L1290 220L1292 216Z" fill="#3FF183" stroke="black" stroke-width="0.2"/>
<path d="M1302.5 270L1298.5 273L1254.5 272.5L1249.5 293L1295 294L1296.5 300.5L1301 304.5L1302.5 310L1305.5 308L1307.5 306L1309 306.5L1311.5 303.5L1313 304.5V308L1318 306.5H1320.5L1321.5 305H1327L1328 302.5L1328.5 299.5H1327L1326 301C1325.5 301.167 1324.3 301.5 1323.5 301.5C1322.7 301.5 1321.17 302.5 1320.5 303L1318.5 301.5H1315V298.5L1314 296L1311 295L1313 292.5V291L1311 288L1308 287.5L1306.5 286.5C1306.67 286 1307.2 285 1308 285C1308.8 285 1308.33 283.333 1308 282.5L1310 277.5L1312 275.5L1310 273.5L1309 268.5H1305L1302.5 270Z" fill="#3FF183" stroke="black" stroke-width="0.2"/>
<path d="M1287 313.5V294L1249.5 293L1248.5 307L1249.5 318L1245 324L1250 323L1257.5 319.5L1258 313.5L1259.5 315L1259 317L1259.5 318.5L1263 316.5H1275L1278 315H1280.5H1285L1287 313.5Z" fill="#3FF183" stroke="black" stroke-width="0.2"/>
<path d="M1297.5 308.5L1300 310V309.5L1300.5 310.5H1301H1302L1302.5 310L1301 304.5L1296.5 300.5L1295 294L1287 293.898V313.5L1286 314.5H1288L1292 313.5L1294 312L1295.5 309L1295 306H1296.5V307L1297.5 308.5Z" fill="#3FF183" stroke="black" stroke-width="0.2"/>
<path d="M1296 197.5L1293.5 203V207L1290.5 211L1292 216L1290 220L1286.5 221L1282 223.5L1281 227.5L1281.5 232.5L1275 247L1270.5 267V272.5L1298.5 273L1305 268.5H1309L1309.5 268V266L1310 264.5L1311 263L1305 252.5L1303 193.5L1302 194.5L1301.5 196L1300.5 195L1299 194.5L1297.5 195.5L1296 197.5Z" fill="#3FF183" stroke="black" stroke-width="0.2"/>
<path d="M1310.5 187L1312.5 191L1309.5 189.5L1308.5 190.5L1307.5 194.5L1305 192.5L1303 193.5L1305 252.5L1311 263L1313.5 260C1313.67 259.5 1314 258.4 1314 258C1314 257.6 1314.67 256.833 1315 256.5L1320.5 249.5L1321 248L1322 247.5L1321.5 245.5L1322.5 242L1325 240L1327 239L1329.5 242.5L1331 243L1334 240L1335.5 239L1337 240L1338 239.5V238.5L1339 237L1339.5 234.5L1340 235L1342.5 236L1343.5 236.5L1344.5 236L1347.5 232.5L1347 231.5L1347.5 230L1348 228C1348.67 227.167 1350 225.4 1350 225C1350 224.6 1349.67 223.167 1349.5 222.5L1350.5 220.5L1353.5 222L1354.5 224C1355.33 224.667 1357.1 226 1357.5 226H1359V223L1360 221L1361 221.5H1362.5V223L1361.83 226L1363 227.5L1364.5 226L1366.5 224.5L1367 223L1365.24 222L1363.5 221L1364 220L1365 217.5L1367 218.5L1368 220L1369 222.5L1370.5 223L1371 222L1370.5 217.5H1372V221L1373.5 222V218C1374.5 217.833 1377.2 217.5 1380 217.5C1382.8 217.5 1381.83 216.833 1381 216.5L1383.5 216L1385.5 214.5H1387.5L1391 212.5L1393 209L1393.5 207.5L1390 199L1386.5 197.5L1385 199L1383.5 197.5L1381.5 194.5L1383 191.5L1381.5 188H1383V184.5H1381L1374.5 181.5L1376 178L1374.5 176L1376 174.5L1375.5 138C1372.33 134.833 1366 128.4 1366 128C1366 127.6 1364.33 127.833 1363.5 128L1362.5 130.5H1358L1351 134.5L1348 131.5L1347 126L1344 125L1327 149L1324.5 158L1320.5 162.5L1319.5 173H1321L1321.5 174.5L1317.5 179L1318.5 180L1315 182L1310.5 187Z" fill="#3FF183" stroke="black" stroke-width="0.2"/>
<path d="M133 302V297.5L132.5 296L133 294H225V381L225.5 381.5L242.5 397L277 428L302.5 452.5L343 491L344 494L344.5 496L347 500L348.5 504.5L350 506.5L352.5 508.5L354 510V511.5L351 514L347 516.5L345.5 519.226V527L344 531.5L342 532.5L341 534L342 537L342.5 540L343 543.5L345.5 544.5L347 548.5L344 550.5L341.5 552L290 556.5L289.5 555L288 553L286 552V551.5L285 545L280 537L272.5 529.5L271 529L268.5 527.5L266.5 526L265.5 525.5L264.5 526L264 527L260.5 525.5L260 521.5L258 519L256 518H251.5L247.5 517.5L237 508.5L234 508L225.5 506.5L215 506L213.5 504.5C213.1 504.1 212 504.333 211.5 504.5L211 503.5L212 500L211 495.5V488L209 487.5L207 486L206.5 484L206 481L205 480L203 478.5L201.5 476.5H200L197 474V471.5L192.5 467.5L192 464.5L189.5 462.5L183 454.5L182.5 453L183 450L186 447L185.5 442.5L183.5 439C181.833 438.833 178.5 438.4 178.5 438C178.5 437.6 174.5 433.833 172.5 432V429L171.5 427.5L170.5 424.5L170 418V415.5L171 414.5L172.5 415.5L173.5 417.5V421L177 423L178 422L178.5 420L176 417L174 416L173.5 415L174 414L173.5 411L174 409.5L176 408V407.5L174 406.5H172L171 407.5L171.5 409L171 411.5L170.5 412.5V414V414.5H169.5L168 414L162.5 410L160 409.5L159.5 406L160.5 405.5V405L160 404.5L159.5 402L158.5 401V400L158 399L157 398L156.5 396.5L155.5 396H154.5L153.5 394.5L151 392.5L150.5 391L149 389.5L147 389V387.5L146 386.5L143.5 384V382.692L144.5 382L144 380.5L143.5 379L143 376.5L142.5 375L141.5 372V368.5L142.5 367.5L142 362L141.5 361L140 357.5L136.5 352L131.5 347.5L129.5 345.5L129 342.5L129.5 337.5L130 335.5L131 333L133.5 331.5L134.5 327V317.5L135.5 317V308.5L135 307L134.5 305.5L133 302Z" fill="#FF9B48" stroke="black" stroke-width="0.2"/>
<path d="M132.5 245L134 240V238L134.5 236V226L135.5 225V208.5L136.5 207L137 203.5L137.5 200L138.5 197.5V168L138 167.5L137.5 167L138 166H145.5L146.5 165.5L148 165H149L150 166.5L151.5 167L153 166.5L156 166L160 168.5L161.5 170.5L163 177.5L164.5 182L170 185L175 186L180 185L183.5 182L188 181H194.5L202 182H206.5L210.5 181H218L224.5 178L231.5 177L233.5 174.5H239L245.5 173.5L247 172H292L293 172.5L294 174.5L296.5 177.5L300.5 179L302 181.5L302.5 185L294 207L293 209.5L289.5 212.5L287.5 215.5L286 219V223.5L288 226H290L292 227L293 230L292 233.5L291 237.5L290.5 241V294H132.5L129 290L127.5 285V281L129 278V275L126 273L124.5 269.5L127.5 266L129 260.5V254.5L131.5 250L132.5 245Z" fill="#FF9B48" stroke="black" stroke-width="0.2"/>
<path d="M356.5 294.5L292.5 294H225V381L243 397.5L262.5 415L276.5 427.5L287.5 438L289.5 440L343 491L344.5 488V484.5L344 482L342.5 479V474.5L342 469V465.5L341 462L344.5 460L348.5 461L350.5 462.5L353 465.5L354.5 464L356.5 458.5V294.5Z" fill="#FF9B48" stroke="black" stroke-width="0.2"/>
<path d="M312 74H291.5H290.5V161L293 166L292 170.5V172L293 172.5L294 174.5L296.5 177.5L300.5 179L302 181.5L302.5 185L294 207L293 209.5L289.5 212.5L287.5 215.5L286 219V223.5L288 226H290L292 227L293 230L291 237.5L290.5 241V294L422 294.5V219L421.5 218.5L419 217L418 215.5L416.5 213L415 212L413.5 212.5L411.5 214L412.5 216.5L411.5 217H409.5L406 218L403 217L399 217.5L395 216.5L393.5 219L390.5 220L387.5 219L385.5 219.5L383.5 221.5L382 222.5L379 220.5L378.5 218.5L378 215L376.5 212L374.5 209.5H371L369 207V202L368 200L366 197L363 193L362.5 188.5L361.5 183.5L358.5 181L356.5 183.5L354 186L349.5 188.5L347 187L344.5 184.5L345.5 180.5V177.5L348 174.5L347 172.5L345.5 168L347 165.5L348 161.5L350 152.5L349.5 151H348.5H344L342 148L340.5 147.5L338 146.5L336 142L334 138.5L329 133L325.5 131L322.5 128.5L319.5 125.5L319 121.5V117.5L318 115.5L312.5 108.5L312 74Z" fill="#FF9B48" stroke="black" stroke-width="0.2"/>
<path d="M422 323.5V294.5L356.5 294.323V437H466.315V323.5H422Z" fill="#FF9B48" stroke="black" stroke-width="0.2"/>
<path d="M577 324L466.5 323.5V437H467.5H468.5L620.5 437.373V324H577Z" fill="#FF9B48" stroke="black" stroke-width="0.2"/>
<path d="M424 588H466H466.232V437H356.5V458.5L354.5 464L353 465.5L350.5 462.5L348.5 461L344.5 460L341 462L341.5 464L342 465.5V469L342.5 474.5V479L344 482L344.5 484.5V488L343 491L344 494L344.5 496L347 500L348.5 504.5L350 506.5L354 510V511.5L351 514L347 516.5L345.5 519V527L344 531.5L342 532.5L341 534L342 537L343 543.5L345.5 544.5L347 548.5L341.5 552L341 552.5L339.5 558L424 588Z" fill="#FF9B48" stroke="black" stroke-width="0.2"/>
<path d="M322.5 74H318H312L312.5 108.5L318 115.5L319 117.5V121.5L319.5 125.5L322.5 128.5L325.5 131L329 133L333 137.5L334 138.5L336 142L338 146.5L342 148L344 151H349.5L350 152.5L347 165.5L345.5 168L347 172L348 174.5L345.5 177.5V180.5L344.5 184.5L347 187L349.5 188.5L354 186L356 184L358.5 181L361.5 183.5L362.5 188.5L363 193L364.5 195L367.5 199L369 202V207L371 209.5H374.5L376.5 212L378 215L378.5 218L379 220.5L382 222.5L383.5 221.5L385.5 219.5L387.5 219L390.5 220L393.5 218.898L395 216.5L399 217.5L403 217L406 218L409.5 217H411.5L412.5 216.5L411.5 214L413.5 212.5L415 212L416.5 213L419 217L422 218.898V203L576 203.5L576.321 74H322.5Z" fill="#FF9B48" stroke="black" stroke-width="0.2"/>
<path d="M576.5 324L576 203.5L422 203V323.5L576.5 324Z" fill="#FF9B48" stroke="black" stroke-width="0.2"/>
<path d="M598.252 571L599.252 437.5L466.5 437V588H484.752V576.5H522.752L521.252 575L519.752 573.5V570.5L598.252 571Z" fill="#FF9B48" stroke="black" stroke-width="0.2"/>
<path d="M535.56 801.005L530.883 803.009L529.827 805.682L528.21 807.018V809.231L529.546 810.359L530.883 811.028L533.075 811.696L534.892 813.7L536.896 814.369L539.569 814.573L542.242 815.705L543.578 814.369C544.113 813.834 544.247 814.146 544.247 814.369L545.583 813.7V812.364L546.919 811.696V809.231V807.687L547.588 807.018L548.256 805.682V803.009L546.919 801.005L545.583 799.668L544.247 799L542.242 799.668H540.906L539.569 800.336L538.901 799.668H536.896L535.56 801.005Z" fill="#FF9B48" stroke="black" stroke-width="0.2"/>
<path d="M513.509 812.364L512.173 813.032L511.611 813.594L511.505 813.7L510.836 814.369L510.168 815.037L509.5 816.373V818.378L510.836 819.046L511.505 819.714V818.378L512.173 817.71L512.841 816.373L513.509 815.705L515.514 815.037L516.182 814.369V813.032V811.696L516.85 810.359V809.691H515.514L514.846 811.028V811.696L513.509 812.364Z" fill="#FF9B48"/>
<path d="M511.505 813.7L511.611 813.594M511.611 813.594L512.173 813.032L513.509 812.364L514.846 811.696V811.028L515.514 809.691H516.85V810.359L516.182 811.696V813.032V814.369L515.514 815.037L513.509 815.705L512.841 816.373L512.173 817.71L511.505 818.378V819.714L510.836 819.046L509.5 818.378V816.373L510.168 815.037L510.836 814.369L511.611 813.594Z" stroke="black" stroke-width="0.2"/>
<path d="M691.919 885.866L687.91 885.198L686.574 886.535V888.539L687.242 891.212L689.247 895.221L689.915 896.558L687.91 899.23L685.237 902.571L683.233 903.24L680.56 905.912L679.892 907.917L680.56 909.253L681.228 910.59V911.926H682.565L683.901 914.599V918.608L685.906 920.613L686.574 925.959L685.906 935.313L687.242 938.654L690.583 939.991L694.592 941.995L695.929 944L697.265 941.995L698.601 941.327L699.938 938.654L700.606 936.65L702.611 934.645L703.947 933.977L705.952 932.641L707.956 931.972L710.629 929.3L711.297 928.631H714.638H717.979L719.984 926.627L723.325 925.29L725.33 923.954L730.675 919.277L731.343 917.272L730.007 915.936H728.671L725.998 914.599L723.993 911.926L723.325 908.585H719.316V903.24L715.975 899.23L711.297 895.889L704.615 892.548L699.27 891.212L693.924 888.539L691.919 885.866Z" fill="#FF9B48" stroke="black" stroke-width="0.2"/>
<path d="M661.85 855.129L659.177 853.124L657.841 852.456H656.505L654.5 854.461V857.134L655.168 858.47L657.173 861.143L660.514 863.147L661.85 862.479L663.187 863.147L663.855 863.816L664.523 867.157L663.855 869.83L665.191 871.166L667.196 871.834L670.537 871.166L674.546 869.83H677.219L679.892 868.493L683.233 865.82V863.147L679.892 861.143L677.219 860.475L675.214 858.47L673.21 856.465L669.869 855.797L667.864 856.465L665.191 857.802H663.187L661.85 855.129Z" fill="#FF9B48"/>
<path d="M656.505 872.502H655.168L654.5 873.171V873.839V874.507L655.168 875.175L655.836 874.507L656.505 875.175L657.173 874.507H658.509H659.846H660.514L659.846 873.839L660.514 873.171V871.834L659.177 871.166H657.841L656.505 872.502Z" fill="#FF9B48"/>
<path d="M661.85 855.129L659.177 853.124L657.841 852.456H656.505L654.5 854.461V857.134L655.168 858.47L657.173 861.143L660.514 863.147L661.85 862.479L663.187 863.147L663.855 863.816L664.523 867.157L663.855 869.83L665.191 871.166L667.196 871.834L670.537 871.166L674.546 869.83H677.219L679.892 868.493L683.233 865.82V863.147L679.892 861.143L677.219 860.475L675.214 858.47L673.21 856.465L669.869 855.797L667.864 856.465L665.191 857.802H663.187L661.85 855.129Z" stroke="black" stroke-width="0.2"/>
<path d="M656.505 872.502H655.168L654.5 873.171V873.839V874.507L655.168 875.175L655.836 874.507L656.505 875.175L657.173 874.507H658.509H659.846H660.514L659.846 873.839L660.514 873.171V871.834L659.177 871.166H657.841L656.505 872.502Z" stroke="black" stroke-width="0.2"/>
<path d="M641.804 856.465L640.468 857.134L639.8 857.802V859.138L641.136 859.806L641.804 860.475L642.472 861.811H641.804V862.479L642.472 863.147V864.484L643.141 865.152H645.145L648.486 863.816L649.823 861.811L649.154 860.475L647.15 858.47L645.145 857.134L643.141 856.465H641.804Z" fill="#FF9B48" stroke="black" stroke-width="0.2"/>
<path d="M645.813 845.106L650.491 843.77H651.159L650.491 844.438L651.159 845.774L651.827 846.442L652.495 847.779L653.164 849.115L651.159 849.783H648.486L645.813 849.115H644.477H642.472L640.468 850.452L637.795 851.12H634.454L631.781 849.783L629.108 847.779V846.442L629.776 845.774H633.117L636.459 846.442L638.463 845.774L639.131 844.438H639.8L640.468 845.106L642.472 845.774L645.813 845.106Z" fill="#FF9B48" stroke="black" stroke-width="0.2"/>
<path d="M595.698 828.401H590.353H589.684L591.689 830.406V832.41L592.357 833.078L593.694 834.415V835.751L595.698 837.088V838.424L596.366 840.429H599.039L601.712 839.76V838.424V837.088V836.419L602.38 837.088H603.048H603.717L603.048 837.756L602.38 838.424V839.092L603.048 840.429H604.385V839.76L605.053 839.092L605.721 839.76L606.389 840.429L607.726 841.765L608.394 842.433H609.062H609.73L611.067 841.765H611.735L612.403 841.097L613.071 841.765L614.408 841.097L615.076 840.429V839.76L613.74 839.092L613.071 837.756L612.403 836.419L611.735 835.751V834.415V833.747H611.067L610.399 833.078V833.747V834.415V835.083V835.751L609.73 835.083L609.062 834.415L608.394 833.078H607.726L607.058 831.742L607.726 831.074V830.406L607.058 829.069L605.721 828.401L604.385 826.396V825.06L602.38 822.387L600.376 823.055L596.366 827.733L595.698 828.401Z" fill="#FF9B48" stroke="black" stroke-width="0.2"/>
<path d="M170.88 853.813L168.115 856.579H166.535H164.165V858.554L166.535 859.739L168.905 862.109H172.855L175.62 860.924V856.579L172.855 853.813H170.88Z" fill="#FF9B48" stroke="black" stroke-width="0.2"/>
<path d="M183.126 926.495L182.336 928.47L180.361 929.26L181.546 930.445V931.63H183.126L183.916 930.445L185.496 929.26H186.681L187.866 928.47H190.631L191.026 927.285L190.631 924.52L188.656 923.73L187.076 924.52L185.496 925.705H183.126V926.495Z" fill="#FF9B48" stroke="black" stroke-width="0.2"/>
<path d="M164.955 942.69L162.19 943.48L161.214 944.456L161.005 944.665L160.61 945.06H161.4L162.19 944.665L164.955 943.48L166.93 942.69L169.3 941.11L170.88 940.32C171.275 939.925 171.907 939.135 171.275 939.135H170.09V937.555H169.3V936.765H166.535L166.14 937.555L166.535 939.135L167.325 940.32H166.535L165.745 941.505L164.955 942.69Z" fill="#FF9B48"/>
<path d="M161.005 944.665L161.214 944.456M161.214 944.456L162.19 943.48L164.955 942.69L165.745 941.505L166.535 940.32H167.325L166.535 939.135L166.14 937.555L166.535 936.765H169.3V937.555H170.09V939.135C170.222 939.135 170.643 939.135 171.275 939.135C171.907 939.135 171.275 939.925 170.88 940.32L169.3 941.11L166.93 942.69L164.955 943.48L162.19 944.665L161.4 945.06H160.61L161.214 944.456Z" stroke="black" stroke-width="0.2"/>
<path d="M153.895 945.455C153.5 945.06 153.5 948.22 153.5 948.615L154.29 949.01L155.87 947.035H156.66L160.215 943.48C160.347 943.217 160.61 942.611 160.61 942.295C160.61 941.979 159.557 941.637 159.03 941.505L157.055 942.69V945.06C157.055 945.376 155.475 945.192 154.685 945.06C154.553 945.324 154.211 945.771 153.895 945.455Z" fill="#FF9B48" stroke="black" stroke-width="0.2"/>
<path d="M253.042 896.869L254.227 900.424L255.017 900.819L256.597 899.239L257.782 897.659V899.239L255.807 902.004L256.992 902.399L259.362 900.424L259.757 898.449L260.942 897.659L262.127 899.239L262.522 897.659L263.312 895.684C263.97 895.421 265.366 895.052 265.682 895.684C265.998 896.316 266.077 894.894 266.077 894.104L264.497 893.709L265.682 892.919L266.867 893.709L267.657 892.919L269.632 891.734L267.262 891.339C267.262 890.549 267.183 888.811 266.867 888.179C266.551 887.547 265.156 887.652 264.497 887.784L263.312 886.599L268.052 885.414L268.447 883.439L269.237 883.834H270.422L269.632 881.859H267.657L267.262 880.279L268.052 878.699H267.262L265.682 880.279L264.497 882.254L263.312 884.624L262.127 885.809L263.312 887.784H262.127V889.759H259.757V887.784L257.782 888.969V890.549V892.919L256.597 891.339L254.622 891.734L252.647 892.919L251.462 895.684L253.042 896.869Z" fill="#FF9B48" stroke="black" stroke-width="0.2"/>
<path d="M221.046 675.665H230.131C231.079 675.665 235.793 668.555 238.032 665L243.167 667.37H246.722L243.167 672.505V675.665L245.932 674.48L249.092 670.135L253.042 672.505V677.245L255.807 675.665L259.362 674.48H268.842V677.245V680.01L272.397 682.38L276.347 685.54L279.507 682.38L280.692 684.75L285.037 682.38L292.543 684.75V687.515L294.518 685.54L299.653 687.515L306.368 689.49L315.848 691.465L319.798 693.046H322.563L324.143 692.256H326.513L328.093 690.28L329.278 691.07L331.253 690.28L333.228 691.465L335.598 693.046L336.783 693.836L338.363 695.416L339.548 696.601L341.128 696.996L343.103 697.391L344.288 698.971L344.683 699.761L345.079 699.366H346.659V854.999L349.819 856.184L350.609 854.999L353.769 856.579L355.744 854.604H360.089L359.299 858.159L362.459 860.529L363.249 862.504L370.359 869.614L371.149 873.959L375.889 870.799H377.864L378.259 866.849L380.234 865.664L379.049 864.874L385.369 862.109L388.529 865.269L387.739 866.849L388.529 868.034V868.824L390.504 869.614L393.664 874.749L396.824 876.724L399.195 879.884L398.404 880.674L407.095 895.684L405.91 897.264L407.885 897.659V900.029L409.465 900.819V903.189H411.44L418.945 907.535V909.115H421.547L422.105 911.88L421.315 913.46L422.5 919.385L420.13 923.73L418.155 925.31V926.1L416.97 925.705L416.18 925.31V921.755L414.995 920.965L416.575 919.385L416.18 918.2L416.575 916.62L416.18 915.435V913.065L414.995 912.67L415.39 914.25L415.785 916.62L414.995 919.78H413.02L412.23 918.99L410.255 920.175V917.41L411.045 915.83L410.65 914.25L411.045 912.275H410.255V914.25L408.675 916.62L407.095 915.435V913.855L408.28 912.67V910.695L409.07 909.905L407.885 908.72L406.7 907.535L405.515 908.325L407.095 909.115L407.49 910.695L406.305 911.485L404.725 909.115L404.33 907.93L405.515 906.349L406.305 904.374L405.91 903.189L404.725 903.584L402.75 904.374L400.775 905.164H399.195L398.009 905.559V903.979L397.219 903.189L396.824 905.164L396.429 906.349L396.824 908.72L395.639 910.695L394.849 909.905L394.454 910.695L393.664 907.93L394.849 907.535L395.244 905.559L393.664 903.189V901.609L395.244 901.214L396.429 902.399L396.824 901.609V900.424L395.639 898.844L396.824 897.264L399.59 898.844L400.775 898.449L401.565 900.029L403.145 900.819L403.54 902.399L404.33 903.189L404.725 902.794L405.12 901.609L403.54 900.424V898.844L401.565 897.659L399.985 896.474L399.195 896.079V895.289L400.775 894.499C400.511 894.499 399.906 894.42 399.59 894.104L398.009 892.524V890.549L397.614 889.759H399.195L398.799 888.969L397.614 888.179L396.824 887.784L396.034 886.204L395.244 884.229V882.649H394.849L394.454 883.439H393.664L393.269 884.229L394.454 884.624L395.244 886.599L396.034 887.784V889.364H395.244V888.179L394.849 887.389L394.454 886.599L394.059 887.784V888.969L394.849 889.759C395.165 890.075 395.771 890.418 396.034 890.549C396.166 891.603 396.35 893.946 396.034 894.894C395.718 895.842 393.533 897.659 392.479 898.449H391.486V896.474L392.874 895.289L392.479 894.104L391.689 892.919L390.899 891.734V889.202L390.504 888.179V885.019L389.714 883.834V882.649H390.504L391.486 883.834L391.689 883.439L391.486 882.649L391.294 881.464L389.319 879.094L388.924 877.909V876.329H388.134V874.749L386.949 873.959L387.344 871.589L386.159 871.984V873.169L386.554 874.749L386.949 876.724L387.344 878.699V879.489L388.134 881.069L388.529 882.254C388.529 882.649 388.45 883.439 388.134 883.439H386.554L385.764 881.859L383.789 881.069H382.999L382.209 879.489C382.341 879.226 382.525 878.541 382.209 877.909C381.893 877.277 381.551 876.066 381.419 875.539C381.288 875.802 380.945 876.329 380.629 876.329C380.313 876.329 379.444 876.066 379.049 875.934L378.259 874.749C377.337 874.354 375.573 873.643 375.889 873.959C376.205 874.275 376.547 874.881 376.679 875.144L379.444 877.119L380.629 878.699L381.024 880.279V882.254L379.444 882.649H378.259L377.074 883.439L374.704 881.069H373.124L368.384 875.934V874.354L366.409 872.379L364.039 871.589C363.644 871.062 362.696 870.009 362.064 870.009C361.274 870.009 359.299 868.034 358.904 868.034C358.588 868.034 357.455 867.507 356.929 867.244L355.349 866.059L356.534 864.874L357.324 863.689L356.534 862.109V860.529L357.719 859.739L357.324 858.949L355.744 859.739V861.714L351.399 863.689H349.424L347.054 862.504L344.288 860.924L345.474 858.949L345.869 858.159L344.683 857.369V858.159L343.103 859.739L341.918 860.134L339.548 859.344L337.573 858.949L336.783 858.554L331.398 858.159C331.35 858.422 331.174 858.949 330.858 858.949H328.488L327.698 859.739H326.513L324.143 857.369L322.168 856.974L321.378 856.184L319.798 855.394L320.193 854.209L320.588 853.419V851.443L320.193 851.048L319.008 852.628L318.613 854.209C318.481 854.735 318.139 855.71 317.823 855.394C317.507 855.078 316.111 854.472 315.453 854.209L313.083 853.419V852.628L314.268 851.443C314.663 851.312 315.295 850.969 314.663 850.653L312.293 849.468L309.923 849.073L308.738 849.468L307.158 849.073L308.738 848.283L307.553 846.703L307.948 845.123V843.938L306.368 845.123L305.183 845.913H303.603L302.023 847.098C302.023 846.967 301.944 846.703 301.628 846.703C301.312 846.703 300.706 847.493 300.443 847.888L299.653 847.493L298.468 848.283H297.678L298.468 846.308L299.653 844.728L300.048 843.148V841.963L297.678 845.123L296.098 847.098L294.518 848.283L294.123 849.468L295.308 849.073L296.098 849.863L296.888 849.468L297.678 850.653L296.098 851.443L295.308 852.233L296.098 853.023L297.283 852.233L298.073 851.443L298.445 852.189C298.461 852.174 298.468 852.196 298.468 852.233L298.445 852.189C298.404 852.227 298.3 852.51 298.073 853.419C297.757 854.683 296.888 855.262 296.493 855.394L297.283 856.579C297.414 856.71 297.678 857.053 297.678 857.369C297.678 857.685 296.888 858.027 296.493 858.159L296.098 858.949L294.518 860.529C293.859 860.397 292.385 860.134 291.753 860.134C291.12 860.134 290.172 859.607 289.777 859.344L288.592 858.949V860.924L286.617 862.504C286.881 862.635 287.249 862.978 286.617 863.294C285.985 863.61 285.301 863.162 285.037 862.899C285.169 863.162 285.353 863.768 285.037 864.084L283.457 865.664L282.667 866.454L281.877 865.269L281.087 866.454L279.507 867.244L277.927 868.824C277.927 869.087 277.848 869.693 277.532 870.009C277.216 870.325 276.084 870.667 275.557 870.799L274.767 870.009L273.187 870.404L272.792 871.194L271.212 870.009V868.429H272.002L273.187 866.454C273.451 866.454 274.056 866.375 274.372 866.059C274.688 865.743 275.294 865.4 275.557 865.269L276.347 864.479L277.137 862.899H276.347L275.162 863.294L274.372 863.689L273.187 864.479L271.607 862.504L272.397 860.924L272.792 859.344L274.372 856.579L274.767 854.999L275.557 854.209V851.443L274.767 850.653L275.557 849.073L276.347 848.678H277.137L278.322 847.098L280.297 845.518L281.087 845.123L281.482 844.728L282.272 845.518L282.667 846.308L283.062 846.703L283.852 846.308L285.037 845.913H286.617C286.933 845.913 287.539 846.177 287.802 846.308L289.382 846.703L289.777 846.308L287.012 845.123L285.827 844.728L284.642 843.543H283.852L284.642 842.753C284.774 842.49 284.879 841.963 284.247 841.963C283.615 841.963 282.931 841.437 282.667 841.173L281.087 841.963V840.778L280.692 839.593H280.297C280.429 840.12 280.613 841.173 280.297 841.173C279.981 841.173 277.532 842.753 276.347 843.543L274.372 845.123L272.002 847.888L272.397 849.468L271.607 849.863H270.422L269.237 851.443L268.842 852.628L268.052 853.419L268.842 853.814L268.447 854.999L266.472 856.579L265.682 856.184H264.892L264.497 856.579C264.629 856.579 264.971 856.658 265.287 856.974C265.603 857.29 266.209 857.632 266.472 857.764L266.077 860.529L265.287 860.924H264.497L263.312 861.714C263.444 862.109 263.628 862.978 263.312 863.294L262.522 864.084L261.732 864.479L260.547 864.084C260.02 864.347 258.888 865.032 258.572 865.664C258.256 866.296 258.177 866.98 258.177 867.244L256.202 869.614V870.799L255.412 871.194V873.169L256.202 872.379H259.362L261.337 874.749V876.329L258.177 878.699L255.412 881.859V884.624L253.042 885.414L249.882 886.204L249.092 887.784L246.722 890.154H245.537C245.142 890.813 244.273 892.208 243.957 892.524C243.641 892.84 241.982 893.446 241.192 893.709L240.007 894.894L241.192 895.684L238.032 900.029L236.451 900.424L235.661 900.819L234.476 902.004H232.896L231.711 902.794V904.374H229.341L228.946 905.559C229.473 905.428 230.447 905.243 230.131 905.559L229.341 906.349H226.576L225.786 907.139C225.918 907.139 226.26 907.298 226.576 907.93C226.971 908.72 226.576 909.115 226.576 909.51V911.09C226.181 910.695 225.233 910.142 224.601 911.09C223.969 912.038 222.231 913.065 221.441 913.46H219.071L217.886 914.25H216.701H214.726V916.62H212.356L210.776 918.595H208.406V919.385H204.851L205.246 918.2L204.851 917.41L202.876 918.595V920.57C202.744 921.096 202.402 922.229 202.086 922.545C201.77 922.861 200.901 922.676 200.506 922.545L199.716 923.335H198.136V922.545L197.346 920.57L196.556 922.545L197.346 923.335L196.556 924.52H194.186L193.396 923.335L193.001 924.52L193.396 925.31L192.211 926.1V925.31V923.73L192.606 922.15H194.976L196.556 919.385L198.926 916.62L202.876 913.46L205.246 912.275L208.011 911.88L208.406 912.275V913.46L209.196 915.04V913.46L211.171 913.855L213.146 914.25L212.356 913.46L211.171 911.09L214.726 906.349L219.466 903.189L221.441 902.004H223.416H224.601V900.029L225.786 897.659L227.761 894.894L230.921 892.524V890.154L231.711 884.624L233.686 883.439L231.711 881.859L233.686 877.909L235.661 875.539H232.896L228.946 877.909H226.971L225.786 875.539V873.959H224.601L223.416 877.119V878.699V880.279L222.231 881.069L221.046 879.094L218.676 875.144L217.491 874.354L215.911 875.539L213.541 874.354L213.146 872.379H212.356L209.196 875.144H208.011C207.089 875.539 205.246 876.487 205.246 877.119C205.246 877.751 203.666 878.699 202.876 879.094L201.296 878.699L202.876 876.329V873.169L203.271 871.984L201.296 870.799V868.429L202.876 865.664L200.111 860.134L198.926 857.764L198.136 854.999H196.951L197.741 856.974V858.949L196.161 860.134C195.502 860.134 194.028 860.292 193.396 860.924C191.5 862.188 188.129 861.977 186.681 861.714V860.529L185.891 860.134L184.311 858.159L182.73 855.394L180.36 854.999L179.57 853.814V852.628L177.99 851.443L180.36 849.468V847.888L181.545 847.098L180.36 846.308L179.57 845.518L181.545 845.123L179.57 843.543H177.99H176.805L176.015 842.753L175.225 841.173L173.645 840.778L174.04 839.198L173.645 838.013H172.065V836.433L173.645 835.643L175.225 836.433L176.015 835.643V834.853H175.225H173.645L172.855 833.273H174.04H175.225V832.483V829.323L177.99 826.163L180.36 821.423H182.73L183.52 818.658H181.545V816.288L183.52 815.103L184.706 816.288V817.473C185.101 817.21 185.891 816.841 185.891 817.473V819.843L186.681 821.423L187.866 824.978V822.608L187.471 819.843V817.473L187.866 816.288L185.891 815.103L184.706 813.523V811.548H187.866L189.841 812.733L190.631 814.313L191.421 815.103H194.186L197.741 810.758L199.321 807.993L202.876 808.783H206.431L208.801 806.018L209.196 802.068L208.801 799.302L208.011 795.747L205.641 793.377L205.246 792.587L205.641 792.192H206.431L209.196 790.612L208.801 789.032V787.057L209.196 786.267H208.011L206.431 785.477L205.246 787.057L204.851 787.847H203.666L201.691 788.637L201.074 788.329C201.285 788.649 201.143 789.134 200.111 789.822C198.215 791.086 196.951 792.192 196.556 792.587L195.371 794.562L194.186 791.402L191.421 789.822L193.396 792.587L192.606 793.377L190.236 791.797L185.891 791.402L181.545 792.192L178.78 792.587L174.83 791.402L170.88 789.822L170.485 785.082L168.115 782.712L169.695 781.527C169.432 780.869 169.063 779.631 169.695 779.947C170.327 780.263 171.539 779.552 172.065 779.157C171.407 779.025 169.932 778.762 169.3 778.762C168.668 778.762 166.14 777.972 164.955 777.577L162.19 775.997L161.005 775.207L159.425 774.417L160.215 772.442L161.4 771.652H162.19L162.585 770.467L163.77 769.282L165.745 769.677L166.535 768.887L166.93 766.912L171.275 764.147L172.855 765.332L174.83 765.727L176.41 764.542L174.83 763.752V762.172L176.41 760.592L177.595 760.197L178.385 759.802L179.965 760.197L181.545 759.012L182.73 757.827H183.52L184.706 757.037H186.681L188.261 756.642L189.051 757.827L189.446 758.222L189.051 759.012V759.802H188.261V764.147L189.446 765.727L196.951 766.122L197.346 766.517L199.321 765.727L202.876 767.702L203.666 765.332L204.061 762.962L206.431 763.752L208.011 762.962L207.221 762.172L204.061 760.592L202.876 760.197H201.691V759.012L202.876 758.222L204.061 759.012H204.851H206.431L208.801 759.802L210.776 761.382L212.751 760.197L213.541 759.012C213.278 758.88 212.751 758.459 212.751 757.827C212.751 757.195 211.698 757.037 211.171 757.037L210.381 756.642L208.011 757.037L206.431 756.642L205.641 755.852L204.851 757.827L202.086 755.457V752.692L203.666 750.322L202.086 749.137L199.716 749.532L197.346 750.322L196.161 749.137H192.211L190.631 748.347H189.446V747.557H190.631L189.446 746.372H189.051C188.419 746.372 188.787 744.001 189.051 742.816L186.681 740.051L185.891 737.681L182.73 736.496L177.2 730.571L174.83 729.386L172.855 727.806V726.226L170.09 724.646L171.275 722.276V715.166H179.965L185.891 713.981L191.421 708.846L193.791 702.921L194.581 697.786L197.346 693.836L198.136 691.465H198.926L201.296 687.12L202.876 687.91L206.036 687.12L209.196 685.54L212.751 681.985L213.146 681.195H215.121V681.985L213.936 683.17L215.121 683.96C214.989 684.224 214.647 684.829 214.331 685.145C214.015 685.461 213.936 686.067 213.936 686.33H216.306V681.195L215.121 679.615L215.516 678.43L216.306 677.245L218.676 675.665H219.861L220.256 676.85H221.046V675.665Z" fill="#FF9B48"/>
<path d="M221.046 675.665C223.68 675.665 229.183 675.665 230.131 675.665C231.079 675.665 235.793 668.555 238.032 665L243.167 667.37H246.722L243.167 672.505V675.665L245.932 674.48L249.092 670.135L253.042 672.505V677.245L255.807 675.665L259.362 674.48H268.842V677.245V680.01L272.397 682.38L276.347 685.54L279.507 682.38L280.692 684.75L285.037 682.38L292.543 684.75V687.515L294.518 685.54L299.653 687.515L306.368 689.49L315.848 691.465L319.798 693.046H322.563L324.143 692.256H326.513L328.093 690.28L329.278 691.07L331.253 690.28L333.228 691.465L335.598 693.046L336.783 693.836L338.363 695.416L339.548 696.601L341.128 696.996L343.103 697.391L344.288 698.971L344.683 699.761L345.078 699.366H346.659V854.999L349.819 856.184L350.609 854.999L353.769 856.579L355.744 854.604H360.089L359.299 858.159L362.459 860.529L363.249 862.504L370.359 869.614L371.149 873.959L375.889 870.799H377.864L378.259 866.849L380.234 865.664L379.049 864.874L385.369 862.109L388.529 865.269L387.739 866.849L388.529 868.034V868.824L390.504 869.614L393.664 874.749L396.824 876.724L399.195 879.884L398.404 880.674L407.095 895.684L405.91 897.264L407.885 897.659V900.029L409.465 900.819V903.189H411.44L418.945 907.535V909.115H421.547L422.105 911.88L421.315 913.46L422.5 919.385L420.13 923.73L418.155 925.31V926.1L416.97 925.705L416.18 925.31V921.755L414.995 920.965L416.575 919.385L416.18 918.2L416.575 916.62L416.18 915.435V913.065L414.995 912.67L415.39 914.25L415.785 916.62L414.995 919.78H413.02L412.23 918.99L410.255 920.175V917.41L411.045 915.83L410.65 914.25L411.045 912.275H410.255V914.25L408.675 916.62L407.095 915.435V913.855L408.28 912.67V910.695L409.07 909.905L407.885 908.72L406.7 907.535L405.515 908.325L407.095 909.115L407.49 910.695L406.305 911.485L404.725 909.115L404.33 907.93L405.515 906.349L406.305 904.374L405.91 903.189L404.725 903.584L402.75 904.374L400.775 905.164H399.195L398.009 905.559V903.979L397.219 903.189L396.824 905.164L396.429 906.349L396.824 908.72L395.639 910.695L394.849 909.905L394.454 910.695L393.664 907.93L394.849 907.535L395.244 905.559L393.664 903.189V901.609L395.244 901.214L396.429 902.399L396.824 901.609V900.424L395.639 898.844L396.824 897.264L399.59 898.844L400.775 898.449L401.565 900.029L403.145 900.819L403.54 902.399L404.33 903.189L404.725 902.794L405.12 901.609L403.54 900.424V898.844L401.565 897.659L399.985 896.474L399.195 896.079V895.289L400.775 894.499C400.511 894.499 399.906 894.42 399.59 894.104C399.274 893.788 398.404 892.919 398.009 892.524V890.549L397.614 889.759H399.195L398.799 888.969L397.614 888.179L396.824 887.784L396.034 886.204L395.244 884.229V882.649H394.849L394.454 883.439H393.664L393.269 884.229L394.454 884.624L395.244 886.599L396.034 887.784V889.364H395.244V888.179L394.849 887.389L394.454 886.599L394.059 887.784V888.969C394.191 889.101 394.533 889.443 394.849 889.759C395.165 890.075 395.771 890.418 396.034 890.549C396.166 891.603 396.35 893.946 396.034 894.894C395.718 895.842 393.533 897.659 392.479 898.449H391.486V896.474L392.874 895.289L392.479 894.104L391.689 892.919L390.899 891.734V889.202L390.504 888.179V885.019L389.714 883.834V882.649H390.504L391.486 883.834L391.689 883.439L391.486 882.649L391.294 881.464L389.319 879.094L388.924 877.909V876.329H388.134V874.749L386.949 873.959L387.344 871.589L386.159 871.984V873.169L386.554 874.749L386.949 876.724L387.344 878.699V879.489L388.134 881.069L388.529 882.254C388.529 882.649 388.45 883.439 388.134 883.439C387.818 883.439 386.949 883.439 386.554 883.439L385.764 881.859L383.789 881.069H382.999L382.209 879.489C382.341 879.226 382.525 878.541 382.209 877.909C381.893 877.277 381.551 876.066 381.419 875.539C381.288 875.802 380.945 876.329 380.629 876.329C380.313 876.329 379.444 876.066 379.049 875.934L378.259 874.749C377.337 874.354 375.573 873.643 375.889 873.959C376.205 874.275 376.547 874.881 376.679 875.144L379.444 877.119L380.629 878.699L381.024 880.279V882.254L379.444 882.649H378.259L377.074 883.439L374.704 881.069H373.124L368.384 875.934V874.354L366.409 872.379L364.039 871.589C363.644 871.062 362.696 870.009 362.064 870.009C361.274 870.009 359.299 868.034 358.904 868.034C358.588 868.034 357.455 867.507 356.929 867.244L355.349 866.059L356.534 864.874L357.324 863.689L356.534 862.109V860.529L357.719 859.739L357.324 858.949L355.744 859.739V861.714L351.399 863.689H349.424L347.054 862.504L344.288 860.924L345.474 858.949L345.869 858.159L344.683 857.369V858.159L343.103 859.739L341.918 860.134L339.548 859.344L337.573 858.949L336.783 858.554L331.399 858.159C331.35 858.422 331.174 858.949 330.858 858.949C330.542 858.949 329.147 858.949 328.488 858.949L327.698 859.739H326.513L324.143 857.369L322.168 856.974L321.378 856.184L319.798 855.394L320.193 854.209L320.588 853.419V851.443L320.193 851.048L319.008 852.628L318.613 854.209C318.481 854.735 318.139 855.71 317.823 855.394C317.507 855.078 316.111 854.472 315.453 854.209L313.083 853.419V852.628L314.268 851.443C314.663 851.312 315.295 850.969 314.663 850.653C314.031 850.337 312.82 849.732 312.293 849.468L309.923 849.073L308.738 849.468L307.158 849.073L308.738 848.283L307.553 846.703L307.948 845.123V843.938L306.368 845.123L305.183 845.913H303.603L302.023 847.098C302.023 846.967 301.944 846.703 301.628 846.703C301.312 846.703 300.706 847.493 300.443 847.888L299.653 847.493L298.468 848.283H297.678L298.468 846.308L299.653 844.728L300.048 843.148V841.963L297.678 845.123L296.098 847.098L294.518 848.283L294.123 849.468L295.308 849.073L296.098 849.863L296.888 849.468L297.678 850.653L296.098 851.443L295.308 852.233L296.098 853.023L297.283 852.233L298.073 851.443L298.468 852.233C298.468 852.102 298.389 852.154 298.073 853.419C297.757 854.683 296.888 855.262 296.493 855.394L297.283 856.579C297.414 856.71 297.678 857.053 297.678 857.369C297.678 857.685 296.888 858.027 296.493 858.159L296.098 858.949L294.518 860.529C293.859 860.397 292.385 860.134 291.753 860.134C291.12 860.134 290.172 859.607 289.777 859.344L288.592 858.949V860.924L286.617 862.504C286.881 862.635 287.249 862.978 286.617 863.294C285.985 863.61 285.301 863.162 285.037 862.899C285.169 863.162 285.353 863.768 285.037 864.084C284.721 864.4 283.852 865.269 283.457 865.664L282.667 866.454L281.877 865.269L281.087 866.454L279.507 867.244L277.927 868.824C277.927 869.087 277.848 869.693 277.532 870.009C277.216 870.325 276.084 870.667 275.557 870.799L274.767 870.009L273.187 870.404L272.792 871.194L271.212 870.009V868.429H272.002L273.187 866.454C273.451 866.454 274.056 866.375 274.372 866.059C274.688 865.743 275.294 865.4 275.557 865.269L276.347 864.479L277.137 862.899H276.347L275.162 863.294L274.372 863.689L273.187 864.479L271.607 862.504L272.397 860.924L272.792 859.344L274.372 856.579L274.767 854.999L275.557 854.209V851.443L274.767 850.653L275.557 849.073L276.347 848.678H277.137L278.322 847.098L280.297 845.518L281.087 845.123L281.482 844.728L282.272 845.518L282.667 846.308L283.062 846.703L283.852 846.308L285.037 845.913C285.432 845.913 286.301 845.913 286.617 845.913C286.933 845.913 287.539 846.177 287.802 846.308L289.382 846.703L289.777 846.308L287.012 845.123L285.827 844.728L284.642 843.543H283.852L284.642 842.753C284.774 842.49 284.879 841.963 284.247 841.963C283.615 841.963 282.931 841.437 282.667 841.173L281.087 841.963V840.778L280.692 839.593H280.297C280.429 840.12 280.613 841.173 280.297 841.173C279.981 841.173 277.532 842.753 276.347 843.543L274.372 845.123L272.002 847.888L272.397 849.468L271.607 849.863H270.422L269.237 851.443L268.842 852.628L268.052 853.419L268.842 853.814L268.447 854.999L266.472 856.579L265.682 856.184H264.892L264.497 856.579C264.629 856.579 264.971 856.658 265.287 856.974C265.603 857.29 266.209 857.632 266.472 857.764L266.077 860.529L265.287 860.924H264.497L263.312 861.714C263.444 862.109 263.628 862.978 263.312 863.294C262.996 863.61 262.654 863.952 262.522 864.084L261.732 864.479L260.547 864.084C260.02 864.347 258.888 865.032 258.572 865.664C258.256 866.296 258.177 866.98 258.177 867.244L256.202 869.614V870.799L255.412 871.194V873.169L256.202 872.379H259.362L261.337 874.749V876.329L258.177 878.699L255.412 881.859V884.624L253.042 885.414L249.882 886.204L249.092 887.784L246.722 890.154H245.537C245.142 890.813 244.273 892.208 243.957 892.524C243.641 892.84 241.982 893.446 241.192 893.709L240.007 894.894L241.192 895.684L238.032 900.029L236.451 900.424L235.661 900.819L234.476 902.004H232.896L231.711 902.794V904.374H229.341L228.946 905.559C229.473 905.428 230.447 905.243 230.131 905.559C229.815 905.875 229.473 906.218 229.341 906.349H226.576L225.786 907.14C225.918 907.14 226.26 907.298 226.576 907.93C226.971 908.72 226.576 909.115 226.576 909.51C226.576 909.826 226.576 910.695 226.576 911.09C226.181 910.695 225.233 910.142 224.601 911.09C223.969 912.038 222.231 913.065 221.441 913.46H219.071L217.886 914.25H216.701H214.726V916.62H212.356L210.776 918.595H208.406V919.385H204.851L205.246 918.2L204.851 917.41L202.876 918.595V920.57C202.744 921.096 202.402 922.229 202.086 922.545C201.77 922.861 200.901 922.676 200.506 922.545L199.716 923.335H198.136V922.545L197.346 920.57L196.556 922.545L197.346 923.335L196.556 924.52H194.186L193.396 923.335L193.001 924.52L193.396 925.31L192.211 926.1V925.31V923.73L192.606 922.15H194.976L196.556 919.385L198.926 916.62L202.876 913.46L205.246 912.275L208.011 911.88L208.406 912.275V913.46L209.196 915.04V913.46L211.171 913.855L213.146 914.25L212.356 913.46L211.171 911.09L214.726 906.349L219.466 903.189L221.441 902.004H223.416H224.601V900.029L225.786 897.659L227.761 894.894L230.921 892.524V890.154L231.711 884.624L233.686 883.439L231.711 881.859L233.686 877.909L235.661 875.539H232.896L228.946 877.909H226.971L225.786 875.539V873.959H224.601L223.416 877.119V878.699V880.279L222.231 881.069L221.046 879.094L218.676 875.144L217.491 874.354L215.911 875.539L213.541 874.354L213.146 872.379H212.356L209.196 875.144H208.011C207.089 875.539 205.246 876.487 205.246 877.119C205.246 877.751 203.666 878.699 202.876 879.094L201.296 878.699L202.876 876.329V873.169L203.271 871.984L201.296 870.799V868.429L202.876 865.664L200.111 860.134L198.926 857.764L198.136 854.999H196.951L197.741 856.974V858.949L196.161 860.134C195.502 860.134 194.028 860.292 193.396 860.924C191.5 862.188 188.129 861.977 186.681 861.714V860.529L185.891 860.134L184.311 858.159L182.73 855.394L180.36 854.999L179.57 853.814V852.628L177.99 851.443L180.36 849.468V847.888L181.545 847.098L180.36 846.308L179.57 845.518L181.545 845.123L179.57 843.543H177.99H176.805L176.015 842.753L175.225 841.173L173.645 840.778L174.04 839.198L173.645 838.013H172.065V836.433L173.645 835.643L175.225 836.433L176.015 835.643V834.853H175.225H173.645L172.855 833.273H174.04H175.225V832.483V829.323L177.99 826.163L180.36 821.423H182.73L183.52 818.658H181.545V816.288L183.52 815.103L184.706 816.288V817.473C185.101 817.209 185.891 816.841 185.891 817.473C185.891 818.105 185.891 819.316 185.891 819.843L186.681 821.423L187.866 824.978V822.608L187.471 819.843V817.473L187.866 816.288L185.891 815.103L184.706 813.523V811.548H187.866L189.841 812.733L190.631 814.313L191.421 815.103H194.186L197.741 810.758L199.321 807.993L202.876 808.783H206.431L208.801 806.018L209.196 802.068L208.801 799.302L208.011 795.747L205.641 793.377L205.246 792.587L205.641 792.192H206.431L209.196 790.612L208.801 789.032V787.057L209.196 786.267H208.011L206.431 785.477L205.246 787.057L204.851 787.847H203.666L201.691 788.637L200.111 787.847C200.901 787.979 202.007 788.558 200.111 789.822C198.215 791.086 196.951 792.192 196.556 792.587L195.371 794.562L194.186 791.402L191.421 789.822L193.396 792.587L192.606 793.377L190.236 791.797L185.891 791.402L181.545 792.192L178.78 792.587L174.83 791.402L170.88 789.822L170.485 785.082L168.115 782.712L169.695 781.527C169.432 780.869 169.063 779.631 169.695 779.947C170.327 780.263 171.539 779.552 172.065 779.157C171.407 779.025 169.932 778.762 169.3 778.762C168.668 778.762 166.14 777.972 164.955 777.577L162.19 775.997L161.005 775.207L159.425 774.417L160.215 772.442L161.4 771.652H162.19L162.585 770.467L163.77 769.282L165.745 769.677L166.535 768.887L166.93 766.912L171.275 764.147L172.855 765.332L174.83 765.727L176.41 764.542L174.83 763.752V762.172L176.41 760.592L177.595 760.197L178.385 759.802L179.965 760.197L181.545 759.012L182.73 757.827H183.52L184.706 757.037H186.681L188.261 756.642L189.051 757.827L189.446 758.222L189.051 759.012V759.802H188.261V764.147L189.446 765.727L196.951 766.122L197.346 766.517L199.321 765.727L202.876 767.702L203.666 765.332L204.061 762.962L206.431 763.752L208.011 762.962L207.221 762.172L204.061 760.592L202.876 760.197H201.691V759.012L202.876 758.222L204.061 759.012H204.851H206.431L208.801 759.802L210.776 761.382L212.751 760.197L213.541 759.012C213.278 758.88 212.751 758.459 212.751 757.827C212.751 757.195 211.698 757.037 211.171 757.037L210.381 756.642L208.011 757.037L206.431 756.642L205.641 755.852L204.851 757.827L202.086 755.457V752.692L203.666 750.322L202.086 749.137L199.716 749.532L197.346 750.322L196.161 749.137H192.211L190.631 748.347H189.446V747.557H190.631L189.446 746.372C189.577 746.372 189.683 746.372 189.051 746.372C188.419 746.372 188.787 744.001 189.051 742.816L186.681 740.051L185.891 737.681L182.73 736.496L177.2 730.571L174.83 729.386L172.855 727.806V726.226L170.09 724.646L171.275 722.276V715.166H179.965L185.891 713.981L191.421 708.846L193.791 702.921L194.581 697.786L197.346 693.836L198.136 691.465H198.926L201.296 687.12L202.876 687.91L206.036 687.12L209.196 685.54L212.751 681.985L213.146 681.195H215.121V681.985L213.936 683.17L215.121 683.96C214.989 684.224 214.647 684.829 214.331 685.145C214.015 685.461 213.936 686.067 213.936 686.33H216.306V681.195L215.121 679.615L215.516 678.43L216.306 677.245L218.676 675.665H219.861L220.256 676.85H221.046V675.665Z" stroke="black" stroke-width="0.2"/>
<path d="M402.75 911.09L401.17 907.93L399.985 906.745H398.009V907.93L398.799 909.51L396.824 911.88L399.59 911.09H400.775L399.59 913.855L398.009 912.67L397.614 913.855L399.59 914.645L400.775 915.435L402.355 918.2L399.59 918.99L399.985 920.57L401.17 924.125L403.54 926.495V924.915L401.17 921.36L402.75 920.57L405.12 921.36V923.335L406.7 924.915L408.28 926.495V924.125V921.36L405.12 918.2V916.225L406.7 916.62C406.436 915.961 405.831 914.645 405.515 914.645C405.199 914.645 403.54 912.275 402.75 911.09Z" fill="#FF9B48" stroke="black" stroke-width="0.2"/>
<path d="M383.789 883.044L381.024 883.834H379.444L378.259 885.019V887.784L380.234 889.759L381.024 891.339L383.789 894.499V896.869L382.999 898.449L384.184 899.239L384.974 896.869L386.159 898.844L386.949 901.214V902.399L389.319 903.979L388.924 907.535L390.9 908.72V903.584L390.109 897.659L388.529 894.894L384.974 892.524L384.184 891.339V890.549L386.949 892.524L388.924 893.709V890.154L388.529 888.574L388.924 887.784L388.529 886.204L385.764 885.019L383.789 883.044Z" fill="#FF9B48" stroke="black" stroke-width="0.2"/>
<path d="M290.5 74L163 73.5V75.5L166 80L169 82L170 84.5L171 90.5L170 92.5L168 91L166 95L164.5 99.5L167.5 103L169 106.5L171.5 109.5L173 108.5L171.5 104.5L167.5 99L169 96L173 97.5L172 100L175 105L176.5 107.5L173.5 112.5V119V124.5L172 130L168 132.5L164.5 136.5H163H160V134C160.5 133.5 161.8 132.5 163 132.5C164.5 132.5 166 130 168 130C169.6 130 170 126.333 170 124.5V117.5V112.5L166 109.5L163 105H161.5L154.5 103L145 101H135L123.5 95L123 96L122 97V100L121 101L122 103V105L123.5 112.5H127L130 119V128L132 132.5L134.5 138.5H137L139.5 141.5H137.5L134.5 143L135 147L137 149.5L139.5 147.5L141.5 149.5C140.667 150.333 138.9 152 138.5 152C138.1 152 138.667 153 139 153.5C139.167 154.333 139.5 156.1 139.5 156.5C139.5 156.9 138.833 158 138.5 158.5L137.5 159.791L137 155L136 154.5L135.5 160L136 162L137.5 162.5L139.5 164H142.5L148.5 163.5L150 164L153 166.5L156 166L160 168.5L161.5 170.5L163 177.5L164.5 182L170 185L175 186L180 185L183.5 182L188 181H194.5L202 182H206.5L210.5 181H218L224.5 178L231.5 177L233.5 174.5H239L245.5 173.5L247.073 172H292V170.5L293 166L290.5 161V74Z" fill="#FF9B48" stroke="black" stroke-width="0.2"/>
</svg>
